o TenthStreet_RoadSeams
v 11200.00000 -13733.08243 -408.76720
v 11196.17530 -13731.66990 -409.11405
v 11200.00000 -13732.57931 -408.77899
v 11154.09430 -13722.22620 -412.78734
v 11149.49148 -13741.68927 -412.70875
v 11149.59398 -13741.15170 -412.71294
v 11196.17530 -13731.66990 -409.11405
v 11195.93620 -13732.12140 -409.12308
v 11195.18310 -13731.94330 -409.18903
v 11195.93620 -13732.12140 -409.12308
v 11196.17530 -13731.66990 -409.11405
v 11200.00000 -13733.08243 -408.76720
v 11149.59398 -13741.15170 -412.71294
v 11154.20863 -13721.69139 -412.79050
v 11154.09430 -13722.22620 -412.78734
v 11154.20863 -13721.69139 -412.79050
v 11196.17530 -13731.66990 -409.11405
v 11195.18310 -13731.94330 -409.18903
v 11195.18310 -13731.94330 -409.18903
v 11154.09430 -13722.22620 -412.78734
v 11154.20863 -13721.69139 -412.79050
v 11274.05590 -13750.59590 -402.28183
v 11280.00000 -13751.60117 -401.77067
v 11280.00000 -13752.00163 -401.76128
v 11274.05590 -13750.59590 -402.28183
v 11209.44310 -13735.31560 -407.94023
v 11209.92360 -13734.93890 -407.90964
v 11200.00000 -13733.08243 -408.76720
v 11200.00000 -13732.57931 -408.77899
v 11208.88580 -13734.69210 -408.00056
v 11208.88580 -13734.69210 -408.00056
v 11209.44310 -13735.31560 -407.94023
v 11200.00000 -13733.08243 -408.76720
v 11274.00540 -13750.17580 -402.29582
v 11280.00000 -13751.60117 -401.77067
v 11274.05590 -13750.59590 -402.28183
v 11208.88580 -13734.69210 -408.00056
v 11209.92360 -13734.93890 -407.90964
v 11209.44310 -13735.31560 -407.94023
v 11209.92360 -13734.93890 -407.90964
v 11274.00540 -13750.17580 -402.29582
v 11274.05590 -13750.59590 -402.28183
v 11287.25610 -13753.32650 -401.13500
v 11315.32285 -13760.00000 -398.67624
v 11313.82119 -13760.00000 -398.79942
v 11287.25610 -13753.32650 -401.13500
v 11280.00000 -13752.00163 -401.76128
v 11280.00000 -13751.60117 -401.77067
v 11313.82119 -13760.00000 -398.79942
v 11287.29570 -13753.72700 -401.12237
v 11287.25610 -13753.32650 -401.13500
v 11287.29570 -13753.72700 -401.12237
v 11280.00000 -13752.00163 -401.76128
v 11287.25610 -13753.32650 -401.13500
v 11360.00000 -13770.62303 -394.76234
v 11360.00000 -13770.92080 -394.75536
v 11352.58050 -13769.16620 -395.40512
v 11352.58050 -13769.16620 -395.40512
v 11351.83550 -13768.68170 -395.47758
v 11360.00000 -13770.62303 -394.76234
v 11351.37720 -13768.88160 -395.51049
v 11313.82119 -13760.00000 -398.79942
v 11315.32285 -13760.00000 -398.67624
v 11352.58050 -13769.16620 -395.40512
v 11351.37720 -13768.88160 -395.51049
v 11351.83550 -13768.68170 -395.47758
v 11315.32285 -13760.00000 -398.67624
v 11351.83550 -13768.68170 -395.47758
v 11351.37720 -13768.88160 -395.51049
v 11429.66570 -13787.18770 -388.50106
v 11440.00000 -13789.64488 -387.59105
v 11440.00000 -13789.84003 -387.58724
v 11365.24930 -13771.87120 -394.30248
v 11360.00000 -13770.92080 -394.75536
v 11360.00000 -13770.62303 -394.76234
v 11440.00000 -13789.84003 -387.58724
v 11429.35400 -13787.32230 -388.52469
v 11429.66570 -13787.18770 -388.50106
v 11365.14830 -13772.13830 -394.30451
v 11360.00000 -13770.92080 -394.75536
v 11365.24930 -13771.87120 -394.30248
v 11365.24930 -13771.87120 -394.30248
v 11429.66570 -13787.18770 -388.50106
v 11429.35400 -13787.32230 -388.52469
v 11429.35400 -13787.32230 -388.52469
v 11365.14830 -13772.13830 -394.30451
v 11365.24930 -13771.87120 -394.30248
v 11520.00000 -13808.66680 -380.49496
v 11520.00000 -13808.75918 -380.49279
v 11507.50800 -13805.80500 -381.63556
v 11507.50800 -13805.80500 -381.63556
v 11507.49580 -13805.69360 -381.63922
v 11520.00000 -13808.66680 -380.49496
v 11440.00000 -13789.84003 -387.58724
v 11440.00000 -13789.64488 -387.59105
v 11442.91890 -13790.33890 -387.33806
v 11442.91890 -13790.33890 -387.33806
v 11443.00080 -13790.54970 -387.32722
v 11440.00000 -13789.84003 -387.58724
v 11507.50800 -13805.80500 -381.63556
v 11507.41240 -13805.78230 -381.64431
v 11507.49580 -13805.69360 -381.63922
v 11442.91890 -13790.33890 -387.33806
v 11443.11510 -13790.38560 -387.32105
v 11443.00080 -13790.54970 -387.32722
v 11444.66320 -13790.75370 -387.18687
v 11507.49580 -13805.69360 -381.63922
v 11507.41240 -13805.78230 -381.64431
v 11444.66320 -13790.75370 -387.18687
v 11443.00080 -13790.54970 -387.32722
v 11443.11510 -13790.38560 -387.32105
v 11507.41240 -13805.78230 -381.64431
v 11443.00080 -13790.54970 -387.32722
v 11444.66320 -13790.75370 -387.18687
v 11585.32090 -13824.20690 -374.51722
v 11585.32600 -13824.19950 -374.51695
v 11592.01500 -13825.79000 -373.90484
v 11520.84450 -13808.86760 -380.41768
v 11520.00000 -13808.75918 -380.49279
v 11520.00000 -13808.66680 -380.49496
v 11520.84450 -13808.86760 -380.41768
v 11585.32600 -13824.19950 -374.51695
v 11585.32090 -13824.20690 -374.51722
v 11520.85340 -13808.96100 -380.41472
v 11520.00000 -13808.75918 -380.49279
v 11520.84450 -13808.86760 -380.41768
v 11585.32090 -13824.20690 -374.51722
v 11520.85340 -13808.96100 -380.41472
v 11520.84450 -13808.86760 -380.41768
v 11675.96670 -11525.41645 -362.56248
v 11675.96685 -11525.41592 -362.56246
v 11674.53810 -11532.40010 -362.72244
v 11674.53810 -11532.40010 -362.72244
v 11674.43883 -11532.37682 -362.72760
v 11675.96670 -11525.41645 -362.56248
v 11837.13809 -10762.41676 -346.23253
v 11840.00000 -10749.90416 -346.00062
v 11836.87008 -10763.91456 -346.25679
v 11840.00000 -10749.90416 -346.00062
v 11837.13809 -10762.41676 -346.23253
v 11840.00000 -10749.70692 -345.99908
v 11892.95990 -10754.57690 -343.40952
v 11920.00000 -10761.99312 -342.09433
v 11891.46490 -10755.61840 -343.49358
v 11920.00000 -10761.99312 -342.09433
v 11892.95990 -10754.57690 -343.40952
v 11920.00000 -10760.71360 -342.08434
v 11886.44260 -10754.49650 -343.73985
v 11841.23050 -10744.39610 -345.89991
v 11841.56450 -10742.91270 -345.87267
v 11841.56450 -10742.91270 -345.87267
v 11840.00000 -10749.70692 -345.99908
v 11845.59096 -10724.87728 -345.54302
v 11840.00000 -10749.70692 -345.99908
v 11841.23050 -10744.39610 -345.89991
v 11840.00000 -10749.90416 -346.00062
v 11891.46490 -10755.61840 -343.49358
v 11888.63280 -10754.98570 -343.63245
v 11891.24810 -10754.18840 -343.49342
v 11891.24810 -10754.18840 -343.49342
v 11892.95990 -10754.57690 -343.40952
v 11891.46490 -10755.61840 -343.49358
v 11841.56450 -10742.91270 -345.87267
v 11888.88840 -10753.65280 -343.60906
v 11886.44260 -10754.49650 -343.73985
v 11845.99093 -10723.40872 -345.51280
v 11841.56450 -10742.91270 -345.87267
v 11845.59096 -10724.87728 -345.54302
v 11888.88840 -10753.65280 -343.60906
v 11891.24810 -10754.18840 -343.49342
v 11888.63280 -10754.98570 -343.63245
v 11841.56450 -10742.91270 -345.87267
v 11841.23050 -10744.39610 -345.89991
v 11840.00000 -10749.70692 -345.99908
v 11888.63280 -10754.98570 -343.63245
v 11886.44260 -10754.49650 -343.73985
v 11888.88840 -10753.65280 -343.60906
v 11969.54040 -10773.06040 -339.88158
v 12000.00000 -10778.86945 -338.46650
v 12000.00000 -10779.86501 -338.47427
v 11969.54040 -10773.06040 -339.88158
v 11966.90450 -10771.35850 -339.98519
v 11969.87660 -10772.03300 -339.85378
v 11964.89170 -10772.02190 -340.08732
v 11920.00000 -10761.99312 -342.09433
v 11920.00000 -10760.71360 -342.08434
v 11966.90450 -10771.35850 -339.98519
v 11969.54040 -10773.06040 -339.88158
v 11964.89170 -10772.02190 -340.08732
v 11969.87660 -10772.03300 -339.85378
v 12000.00000 -10778.86945 -338.46650
v 11969.54040 -10773.06040 -339.88158
v 11920.00000 -10760.71360 -342.08434
v 11966.90450 -10771.35850 -339.98519
v 11964.89170 -10772.02190 -340.08732
v 12056.24870 -10791.63500 -335.92957
v 12080.00000 -10797.73687 -334.86390
v 12047.61580 -10790.50230 -336.32539
v 12080.00000 -10797.73687 -334.86390
v 12056.24870 -10791.63500 -335.92957
v 12080.00000 -10797.02534 -334.85834
v 12043.12970 -10789.50010 -336.52784
v 12000.00000 -10778.86945 -338.46650
v 12044.92060 -10789.06410 -336.44049
v 12000.00000 -10778.86945 -338.46650
v 12043.12970 -10789.50010 -336.52784
v 12000.00000 -10779.86501 -338.47427
v 12048.08720 -10789.78280 -336.29767
v 12056.24870 -10791.63500 -335.92957
v 12047.61580 -10790.50230 -336.32539
v 12047.61580 -10790.50230 -336.32539
v 12043.12970 -10789.50010 -336.52784
v 12044.92060 -10789.06410 -336.44049
v 12044.92060 -10789.06410 -336.44049
v 12048.08720 -10789.78280 -336.29767
v 12047.61580 -10790.50230 -336.32539
v 12029.82136 -13929.88863 -335.30202
v 12025.33816 -13948.79462 -335.22667
v 12028.11340 -13937.05950 -335.27406
v 12028.11340 -13937.05950 -335.27406
v 12029.80990 -13929.88590 -335.30302
v 12029.82136 -13929.88863 -335.30202
v 12132.00416 -9550.72347 -314.69029
v 12132.08380 -9550.74270 -314.68732
v 12128.37519 -9565.40091 -315.21326
v 12090.13050 -10800.00000 -334.40671
v 12080.00000 -10797.02534 -334.85834
v 12093.10714 -10800.00000 -334.26718
v 12080.00000 -10797.02534 -334.85834
v 12090.13050 -10800.00000 -334.40671
v 12080.00000 -10797.73687 -334.86390
v 12125.69130 -10807.94420 -332.78931
v 12160.00000 -10815.18125 -331.10361
v 12160.00000 -10815.60872 -331.10695
v 12122.92220 -10807.32560 -332.92510
v 12122.93670 -10806.76980 -332.92002
v 12125.22140 -10807.28830 -332.80805
v 12122.92220 -10807.32560 -332.92510
v 12090.13050 -10800.00000 -334.40671
v 12093.10714 -10800.00000 -334.26718
v 12125.22140 -10807.28830 -332.80805
v 12125.69130 -10807.94420 -332.78931
v 12122.92220 -10807.32560 -332.92510
v 12125.22140 -10807.28830 -332.80805
v 12160.00000 -10815.18125 -331.10361
v 12125.69130 -10807.94420 -332.78931
v 12093.10714 -10800.00000 -334.26718
v 12122.93670 -10806.76980 -332.92002
v 12122.92220 -10807.32560 -332.92510
v 12141.37610 -11641.03910 -339.02221
v 12136.77370 -11640.81530 -339.25417
v 12112.82800 -11635.19900 -340.44127
v 12160.00000 -11644.84894 -338.10623
v 12160.00000 -11646.26301 -338.11727
v 12141.22860 -11641.86020 -339.03611
v 12141.22860 -11641.86020 -339.03611
v 12141.37610 -11641.03910 -339.02221
v 12160.00000 -11644.84894 -338.10623
v 12141.22860 -11641.86020 -339.03611
v 12136.77370 -11640.81530 -339.25417
v 12141.37610 -11641.03910 -339.02221
v 12204.06010 -10825.18060 -329.00257
v 12240.00000 -10833.48064 -327.39100
v 12203.76680 -10825.38620 -329.01792
v 12240.00000 -10833.48064 -327.39100
v 12204.06010 -10825.18060 -329.00257
v 12240.00000 -10833.33715 -327.38932
v 12200.75170 -10824.71260 -329.15399
v 12160.00000 -10815.60872 -331.10695
v 12160.00000 -10815.18125 -331.10361
v 12203.76680 -10825.38620 -329.01792
v 12201.07960 -10824.78580 -329.13920
v 12200.95270 -10824.47540 -329.14272
v 12200.95270 -10824.47540 -329.14272
v 12204.06010 -10825.18060 -329.00257
v 12203.76680 -10825.38620 -329.01792
v 12160.00000 -10815.18125 -331.10361
v 12200.95270 -10824.47540 -329.14272
v 12200.75170 -10824.71260 -329.15399
v 12201.07960 -10824.78580 -329.13920
v 12200.75170 -10824.71260 -329.15399
v 12200.95270 -10824.47540 -329.14272
v 12162.34490 -11646.81300 -338.00249
v 12163.15260 -11645.49390 -337.95117
v 12167.42300 -11646.36740 -337.74114
v 12160.00000 -11646.26301 -338.11727
v 12160.00000 -11644.84894 -338.10623
v 12161.81290 -11645.21980 -338.01706
v 12161.81290 -11645.21980 -338.01706
v 12162.34490 -11646.81300 -338.00249
v 12160.00000 -11646.26301 -338.11727
v 12220.41400 -11660.43280 -335.16008
v 12240.00000 -11661.21450 -334.17158
v 12240.00000 -11665.02667 -334.20137
v 12217.22190 -11659.68410 -335.31633
v 12162.34490 -11646.81300 -338.00249
v 12167.42300 -11646.36740 -337.74114
v 12161.81290 -11645.21980 -338.01706
v 12163.15260 -11645.49390 -337.95117
v 12162.34490 -11646.81300 -338.00249
v 12219.75300 -11657.07250 -335.16739
v 12240.00000 -11661.21450 -334.17158
v 12220.41400 -11660.43280 -335.16008
v 12167.42300 -11646.36740 -337.74114
v 12219.75300 -11657.07250 -335.16739
v 12217.22190 -11659.68410 -335.31633
v 12220.41400 -11660.43280 -335.16008
v 12217.22190 -11659.68410 -335.31633
v 12219.75300 -11657.07250 -335.16739
v 12278.96650 -10842.18570 -325.62418
v 12278.96880 -10842.18110 -325.62404
v 12280.40500 -10842.50700 -325.55926
v 12278.96650 -10842.18570 -325.62418
v 12240.00000 -10833.48064 -327.39100
v 12240.00000 -10833.33715 -327.38932
v 12240.00000 -10833.33715 -327.38932
v 12278.96880 -10842.18110 -325.62404
v 12278.96650 -10842.18570 -325.62418
v 12240.19600 -11661.25460 -334.16194
v 12240.00000 -11665.02667 -334.20137
v 12240.00000 -11661.21450 -334.17158
v 12303.84018 -11680.00000 -331.07646
v 12294.91780 -11677.90730 -331.51320
v 12298.12980 -11673.10600 -331.31258
v 12320.00000 -11677.58001 -330.23694
v 12320.00000 -11680.00000 -330.25584
v 12303.84018 -11680.00000 -331.07646
v 12303.84018 -11680.00000 -331.07646
v 12298.12980 -11673.10600 -331.31258
v 12320.00000 -11677.58001 -330.23694
v 12240.23120 -11665.08090 -334.19005
v 12240.00000 -11665.02667 -334.20137
v 12240.19600 -11661.25460 -334.16194
v 12240.19600 -11661.25460 -334.16194
v 12298.12980 -11673.10600 -331.31258
v 12294.91780 -11677.90730 -331.51320
v 12294.91780 -11677.90730 -331.51320
v 12240.23120 -11665.08090 -334.19005
v 12240.19600 -11661.25460 -334.16194
v 12318.11760 -11683.34870 -330.37760
v 12320.00000 -11680.00000 -330.25584
v 12320.00000 -11683.79021 -330.28546
v 12320.00000 -11680.00000 -330.25584
v 12318.11760 -11683.34870 -330.37760
v 12303.84018 -11680.00000 -331.07646
v 12323.08200 -11678.21050 -330.08536
v 12320.00000 -11680.00000 -330.25584
v 12320.00000 -11677.58001 -330.23694
v 12320.00000 -11680.00000 -330.25584
v 12323.08200 -11678.21050 -330.08536
v 12331.82967 -11680.00000 -329.65512
v 12320.00000 -11683.79021 -330.28546
v 12320.00000 -11680.00000 -330.25584
v 12331.82967 -11680.00000 -329.65512
v 12331.82967 -11680.00000 -329.65512
v 12374.76080 -11696.63420 -327.40620
v 12320.00000 -11683.79021 -330.28546
v 12396.00390 -11701.61660 -326.30473
v 12400.00000 -11693.94554 -326.05783
v 12400.00000 -11702.55387 -326.10913
v 12374.76080 -11696.63420 -327.40620
v 12376.50660 -11689.13950 -327.28145
v 12390.37050 -11691.97560 -326.53913
v 12331.82967 -11680.00000 -329.65512
v 12376.50660 -11689.13950 -327.28145
v 12374.76080 -11696.63420 -327.40620
v 12390.37050 -11691.97560 -326.53913
v 12400.00000 -11693.94554 -326.05783
v 12396.00390 -11701.61660 -326.30473
v 12396.00390 -11701.61660 -326.30473
v 12374.76080 -11696.63420 -327.40620
v 12390.37050 -11691.97560 -326.53913
v 12405.05230 -11694.97910 -325.80531
v 12400.00000 -11702.55387 -326.10913
v 12400.00000 -11693.94554 -326.05783
v 12474.70530 -11709.22790 -322.36764
v 12480.00000 -11710.31104 -322.10723
v 12473.89030 -11719.88450 -322.49228
v 12473.89030 -11719.88450 -322.49228
v 12480.00000 -11710.31104 -322.10723
v 12480.00000 -11721.31751 -322.19322
v 12460.14610 -11716.66090 -323.16505
v 12400.00000 -11702.55387 -326.10913
v 12454.88340 -11705.17300 -323.34254
v 12454.88340 -11705.17300 -323.34254
v 12400.00000 -11702.55387 -326.10913
v 12405.05230 -11694.97910 -325.80531
v 12473.89030 -11719.88450 -322.49228
v 12460.14610 -11716.66090 -323.16505
v 12474.70530 -11709.22790 -322.36764
v 12454.88340 -11705.17300 -323.34254
v 12474.70530 -11709.22790 -322.36764
v 12460.14610 -11716.66090 -323.16505
v 12553.69770 -11725.38730 -318.48255
v 12557.70593 -11705.79377 -318.12594
v 12555.50571 -11718.48431 -318.33681
v 12520.17200 -11730.73970 -320.22685
v 12480.00000 -11721.31751 -322.19322
v 12480.00000 -11710.31104 -322.10723
v 12533.26030 -11721.20650 -319.48773
v 12553.69770 -11725.38730 -318.48255
v 12551.21717 -11738.02117 -318.70722
v 12555.50571 -11718.48431 -318.33681
v 12551.21717 -11738.02117 -318.70722
v 12553.69770 -11725.38730 -318.48255
v 12480.00000 -11710.31104 -322.10723
v 12533.26030 -11721.20650 -319.48773
v 12520.17200 -11730.73970 -320.22685
v 12551.21717 -11738.02117 -318.70722
v 12520.17200 -11730.73970 -320.22685
v 12533.26030 -11721.20650 -319.48773
v 12570.81500 -9656.69840 -300.84237
v 12570.80830 -9656.71140 -300.84281
v 12569.53400 -9656.38900 -300.88257
v 12570.80830 -9656.71140 -300.84281
v 12640.00000 -9673.40690 -298.86981
v 12640.00000 -9674.21734 -298.88247
v 12640.00000 -9673.40690 -298.86981
v 12570.80830 -9656.71140 -300.84281
v 12570.81500 -9656.69840 -300.84237
v 12645.30760 -9675.56020 -298.73759
v 12640.00000 -9673.40690 -298.86981
v 12646.02060 -9674.86090 -298.70438
v 12640.00000 -9673.40690 -298.86981
v 12645.30760 -9675.56020 -298.73759
v 12640.00000 -9674.21734 -298.88247
v 12649.05820 -9675.59450 -298.62092
v 12662.85556 -9680.00000 -298.25859
v 12648.36460 -9676.33370 -298.65415
v 12662.85556 -9680.00000 -298.25859
v 12649.05820 -9675.59450 -298.62092
v 12667.30016 -9680.00000 -298.11970
v 12648.36460 -9676.33370 -298.65415
v 12645.30760 -9675.56020 -298.73759
v 12646.02060 -9674.86090 -298.70438
v 12646.02060 -9674.86090 -298.70438
v 12649.05820 -9675.59450 -298.62092
v 12648.36460 -9676.33370 -298.65415
v 12667.30016 -9680.00000 -298.11970
v 12720.00000 -9694.45789 -296.69873
v 12662.85556 -9680.00000 -298.25859
v 12720.00000 -9694.45789 -296.69873
v 12667.30016 -9680.00000 -298.11970
v 12720.00000 -9692.72721 -296.67169
v 12719.41380 -10941.35980 -305.84417
v 12720.00000 -10938.90431 -305.80710
v 12715.24983 -10960.00000 -306.11217
v 12720.00000 -10938.90431 -305.80710
v 12719.41380 -10941.35980 -305.84417
v 12720.00000 -10938.77683 -305.80661
v 12715.24983 -10960.00000 -306.11217
v 12715.24961 -10960.00000 -306.11218
v 12719.41380 -10941.35980 -305.84417
v 12720.00000 -9694.45789 -296.69873
v 12720.00000 -9692.72721 -296.67169
v 12723.78500 -9693.64130 -296.56769
v 12723.78500 -9693.64130 -296.56769
v 12723.53910 -9695.35330 -296.60212
v 12720.00000 -9694.45789 -296.69873
v 12768.99380 -9704.55950 -295.30000
v 12800.00000 -9712.04764 -294.41881
v 12793.83510 -9713.13870 -294.62425
v 12793.83510 -9713.13870 -294.62425
v 12800.00000 -9712.04764 -294.41881
v 12800.00000 -9714.69842 -294.44988
v 12725.92080 -9695.95590 -296.53711
v 12723.53910 -9695.35330 -296.60212
v 12723.78500 -9693.64130 -296.56769
v 12793.83510 -9713.13870 -294.62425
v 12725.92080 -9695.95590 -296.53711
v 12768.99380 -9704.55950 -295.30000
v 12723.78500 -9693.64130 -296.56769
v 12768.99380 -9704.55950 -295.30000
v 12725.92080 -9695.95590 -296.53711
v 12723.67043 -10922.60380 -305.57138
v 12720.00000 -10938.90431 -305.80710
v 12720.00000 -10938.77683 -305.80661
v 12803.47700 -9715.57810 -294.35153
v 12801.54930 -9712.42180 -294.37478
v 12825.81940 -9718.28310 -293.68503
v 12801.54930 -9712.42180 -294.37478
v 12800.00000 -9714.69842 -294.44988
v 12800.00000 -9712.04764 -294.41881
v 12853.24560 -9724.90670 -292.90558
v 12879.31370 -9731.20230 -292.25653
v 12880.00000 -9734.93899 -292.28156
v 12880.00000 -9734.93899 -292.28156
v 12879.31370 -9731.20230 -292.25653
v 12880.00000 -9731.36805 -292.23971
v 12825.81940 -9718.28310 -293.68503
v 12840.00000 -9721.70780 -293.28202
v 12840.00000 -9724.81870 -293.31847
v 12801.54930 -9712.42180 -294.37478
v 12803.47700 -9715.57810 -294.35153
v 12800.00000 -9714.69842 -294.44988
v 12880.00000 -9734.93899 -292.28156
v 12840.00000 -9724.81870 -293.31847
v 12853.24560 -9724.90670 -292.90558
v 12840.00000 -9721.70780 -293.28202
v 12853.24560 -9724.90670 -292.90558
v 12840.00000 -9724.81870 -293.31847
v 12825.81940 -9718.28310 -293.68503
v 12840.00000 -9724.81870 -293.31847
v 12803.47700 -9715.57810 -294.35153
v 12880.00000 -9731.36805 -292.23971
v 12881.03320 -9735.20040 -292.25637
v 12880.00000 -9734.93899 -292.28156
v 12958.58940 -9754.82260 -290.36564
v 12960.00000 -9750.68838 -290.27862
v 12960.00000 -9755.17949 -290.33125
v 12920.23780 -9745.11940 -291.30060
v 12881.03320 -9735.20040 -292.25637
v 12889.28860 -9733.61130 -292.01201
v 12889.28860 -9733.61130 -292.01201
v 12881.03320 -9735.20040 -292.25637
v 12880.00000 -9731.36805 -292.23971
v 12957.07800 -9749.98270 -290.35025
v 12960.00000 -9750.68838 -290.27862
v 12958.58940 -9754.82260 -290.36564
v 12889.28860 -9733.61130 -292.01201
v 12957.07800 -9749.98270 -290.35025
v 12920.23780 -9745.11940 -291.30060
v 12958.58940 -9754.82260 -290.36564
v 12920.23780 -9745.11940 -291.30060
v 12957.07800 -9749.98270 -290.35025
v 12979.05291 -9760.00000 -289.86676
v 12960.00000 -9750.68838 -290.27862
v 12998.55663 -9760.00000 -289.33346
v 12960.00000 -9750.68838 -290.27862
v 12979.05291 -9760.00000 -289.86676
v 12960.00000 -9755.17949 -290.33125
v 13005.78780 -9766.76410 -289.20692
v 13002.26336 -9781.47019 -289.41818
v 13000.88230 -9786.15280 -289.49253
v 13005.78780 -9766.76410 -289.20692
v 12979.05291 -9760.00000 -289.86676
v 12998.55663 -9760.00000 -289.33346
v 13005.78780 -9766.76410 -289.20692
v 13007.06384 -9762.05453 -289.12491
v 13002.26336 -9781.47019 -289.41818
v 12998.55663 -9760.00000 -289.33346
v 12999.35330 -9760.19240 -289.31393
v 13005.78780 -9766.76410 -289.20692
v 12999.35330 -9760.19240 -289.31393
v 13007.06384 -9762.05453 -289.12491
v 13005.78780 -9766.76410 -289.20692
vt 56.00000 68.66541
vt 55.98088 68.65835
vt 56.00000 68.66290
vt 55.77047 68.61113
vt 55.74746 68.70845
vt 55.74797 68.70576
vt 55.98088 68.65835
vt 55.97968 68.66061
vt 55.97592 68.65972
vt 55.97968 68.66061
vt 55.98088 68.65835
vt 56.00000 68.66541
vt 55.74797 68.70576
vt 55.77104 68.60846
vt 55.77047 68.61113
vt 55.77104 68.60846
vt 55.98088 68.65835
vt 55.97592 68.65972
vt 55.97592 68.65972
vt 55.77047 68.61113
vt 55.77104 68.60846
vt 56.37028 68.75298
vt 56.40000 68.75801
vt 56.40000 68.76001
vt 56.37028 68.75298
vt 56.04722 68.67658
vt 56.04962 68.67469
vt 56.00000 68.66541
vt 56.00000 68.66290
vt 56.04443 68.67346
vt 56.04443 68.67346
vt 56.04722 68.67658
vt 56.00000 68.66541
vt 56.37003 68.75088
vt 56.40000 68.75801
vt 56.37028 68.75298
vt 56.04443 68.67346
vt 56.04962 68.67469
vt 56.04722 68.67658
vt 56.04962 68.67469
vt 56.37003 68.75088
vt 56.37028 68.75298
vt 56.43628 68.76663
vt 56.57661 68.80000
vt 56.56911 68.80000
vt 56.43628 68.76663
vt 56.40000 68.76001
vt 56.40000 68.75801
vt 56.56911 68.80000
vt 56.43648 68.76864
vt 56.43628 68.76663
vt 56.43648 68.76864
vt 56.40000 68.76001
vt 56.43628 68.76663
vt 56.80000 68.85312
vt 56.80000 68.85460
vt 56.76290 68.84583
vt 56.76290 68.84583
vt 56.75918 68.84341
vt 56.80000 68.85312
vt 56.75689 68.84441
vt 56.56911 68.80000
vt 56.57661 68.80000
vt 56.76290 68.84583
vt 56.75689 68.84441
vt 56.75918 68.84341
vt 56.57661 68.80000
vt 56.75918 68.84341
vt 56.75689 68.84441
vt 57.14833 68.93594
vt 57.20000 68.94822
vt 57.20000 68.94920
vt 56.82625 68.85936
vt 56.80000 68.85460
vt 56.80000 68.85312
vt 57.20000 68.94920
vt 57.14677 68.93661
vt 57.14833 68.93594
vt 56.82574 68.86069
vt 56.80000 68.85460
vt 56.82625 68.85936
vt 56.82625 68.85936
vt 57.14833 68.93594
vt 57.14677 68.93661
vt 57.14677 68.93661
vt 56.82574 68.86069
vt 56.82625 68.85936
vt 57.60000 69.04333
vt 57.60000 69.04380
vt 57.53754 69.02903
vt 57.53754 69.02903
vt 57.53748 69.02847
vt 57.60000 69.04333
vt 57.20000 68.94920
vt 57.20000 68.94822
vt 57.21459 68.95169
vt 57.21459 68.95169
vt 57.21500 68.95275
vt 57.20000 68.94920
vt 57.53754 69.02903
vt 57.53706 69.02891
vt 57.53748 69.02847
vt 57.21459 68.95169
vt 57.21558 68.95193
vt 57.21500 68.95275
vt 57.22332 68.95377
vt 57.53748 69.02847
vt 57.53706 69.02891
vt 57.22332 68.95377
vt 57.21500 68.95275
vt 57.21558 68.95193
vt 57.53706 69.02891
vt 57.21500 68.95275
vt 57.22332 68.95377
vt 57.92660 69.12103
vt 57.92663 69.12100
vt 57.96007 69.12895
vt 57.60422 69.04434
vt 57.60000 69.04380
vt 57.60000 69.04333
vt 57.60422 69.04434
vt 57.92663 69.12100
vt 57.92660 69.12103
vt 57.60427 69.04480
vt 57.60000 69.04380
vt 57.60422 69.04434
vt 57.92660 69.12103
vt 57.60427 69.04480
vt 57.60422 69.04434
vt 58.37983 57.62708
vt 58.37983 57.62708
vt 58.37269 57.66200
vt 58.37269 57.66200
vt 58.37219 57.66188
vt 58.37983 57.62708
vt 59.18569 53.81208
vt 59.20000 53.74952
vt 59.18435 53.81957
vt 59.20000 53.74952
vt 59.18569 53.81208
vt 59.20000 53.74853
vt 59.46480 53.77288
vt 59.60000 53.80997
vt 59.45732 53.77809
vt 59.60000 53.80997
vt 59.46480 53.77288
vt 59.60000 53.80357
vt 59.43221 53.77248
vt 59.20615 53.72198
vt 59.20782 53.71456
vt 59.20782 53.71456
vt 59.20000 53.74853
vt 59.22795 53.62439
vt 59.20000 53.74853
vt 59.20615 53.72198
vt 59.20000 53.74952
vt 59.45732 53.77809
vt 59.44316 53.77493
vt 59.45624 53.77094
vt 59.45624 53.77094
vt 59.46480 53.77288
vt 59.45732 53.77809
vt 59.20782 53.71456
vt 59.44444 53.76826
vt 59.43221 53.77248
vt 59.22995 53.61704
vt 59.20782 53.71456
vt 59.22795 53.62439
vt 59.44444 53.76826
vt 59.45624 53.77094
vt 59.44316 53.77493
vt 59.20782 53.71456
vt 59.20615 53.72198
vt 59.20000 53.74853
vt 59.44316 53.77493
vt 59.43221 53.77248
vt 59.44444 53.76826
vt 59.84770 53.86530
vt 60.00000 53.89435
vt 60.00000 53.89933
vt 59.84770 53.86530
vt 59.83452 53.85679
vt 59.84938 53.86016
vt 59.82446 53.86011
vt 59.60000 53.80997
vt 59.60000 53.80357
vt 59.83452 53.85679
vt 59.84770 53.86530
vt 59.82446 53.86011
vt 59.84938 53.86016
vt 60.00000 53.89435
vt 59.84770 53.86530
vt 59.60000 53.80357
vt 59.83452 53.85679
vt 59.82446 53.86011
vt 60.28124 53.95818
vt 60.40000 53.98868
vt 60.23808 53.95251
vt 60.40000 53.98868
vt 60.28124 53.95818
vt 60.40000 53.98513
vt 60.21565 53.94750
vt 60.00000 53.89435
vt 60.22460 53.94532
vt 60.00000 53.89435
vt 60.21565 53.94750
vt 60.00000 53.89933
vt 60.24044 53.94891
vt 60.28124 53.95818
vt 60.23808 53.95251
vt 60.23808 53.95251
vt 60.21565 53.94750
vt 60.22460 53.94532
vt 60.22460 53.94532
vt 60.24044 53.94891
vt 60.23808 53.95251
vt 60.14911 69.64944
vt 60.12669 69.74397
vt 60.14057 69.68530
vt 60.14057 69.68530
vt 60.14905 69.64943
vt 60.14911 69.64944
vt 60.66002 47.75362
vt 60.66042 47.75371
vt 60.64188 47.82700
vt 60.45065 54.00000
vt 60.40000 53.98513
vt 60.46554 54.00000
vt 60.40000 53.98513
vt 60.45065 54.00000
vt 60.40000 53.98868
vt 60.62846 54.03972
vt 60.80000 54.07591
vt 60.80000 54.07804
vt 60.61461 54.03663
vt 60.61468 54.03385
vt 60.62611 54.03644
vt 60.61461 54.03663
vt 60.45065 54.00000
vt 60.46554 54.00000
vt 60.62611 54.03644
vt 60.62846 54.03972
vt 60.61461 54.03663
vt 60.62611 54.03644
vt 60.80000 54.07591
vt 60.62846 54.03972
vt 60.46554 54.00000
vt 60.61468 54.03385
vt 60.61461 54.03663
vt 60.70688 58.20520
vt 60.68387 58.20408
vt 60.56414 58.17600
vt 60.80000 58.22424
vt 60.80000 58.23132
vt 60.70614 58.20930
vt 60.70614 58.20930
vt 60.70688 58.20520
vt 60.80000 58.22424
vt 60.70614 58.20930
vt 60.68387 58.20408
vt 60.70688 58.20520
vt 61.02030 54.12590
vt 61.20000 54.16740
vt 61.01883 54.12693
vt 61.20000 54.16740
vt 61.02030 54.12590
vt 61.20000 54.16669
vt 61.00376 54.12356
vt 60.80000 54.07804
vt 60.80000 54.07591
vt 61.01883 54.12693
vt 61.00540 54.12393
vt 61.00476 54.12238
vt 61.00476 54.12238
vt 61.02030 54.12590
vt 61.01883 54.12693
vt 60.80000 54.07591
vt 61.00476 54.12238
vt 61.00376 54.12356
vt 61.00540 54.12393
vt 61.00376 54.12356
vt 61.00476 54.12238
vt 60.81172 58.23407
vt 60.81576 58.22747
vt 60.83712 58.23184
vt 60.80000 58.23132
vt 60.80000 58.22424
vt 60.80906 58.22610
vt 60.80906 58.22610
vt 60.81172 58.23407
vt 60.80000 58.23132
vt 61.10207 58.30216
vt 61.20000 58.30607
vt 61.20000 58.32513
vt 61.08611 58.29842
vt 60.81172 58.23407
vt 60.83712 58.23184
vt 60.80906 58.22610
vt 60.81576 58.22747
vt 60.81172 58.23407
vt 61.09877 58.28536
vt 61.20000 58.30607
vt 61.10207 58.30216
vt 60.83712 58.23184
vt 61.09877 58.28536
vt 61.08611 58.29842
vt 61.10207 58.30216
vt 61.08611 58.29842
vt 61.09877 58.28536
vt 61.39483 54.21093
vt 61.39484 54.21091
vt 61.40203 54.21253
vt 61.39483 54.21093
vt 61.20000 54.16740
vt 61.20000 54.16669
vt 61.20000 54.16669
vt 61.39484 54.21091
vt 61.39483 54.21093
vt 61.20098 58.30627
vt 61.20000 58.32513
vt 61.20000 58.30607
vt 61.51920 58.40000
vt 61.47459 58.38954
vt 61.49065 58.36553
vt 61.60000 58.38790
vt 61.60000 58.40000
vt 61.51920 58.40000
vt 61.51920 58.40000
vt 61.49065 58.36553
vt 61.60000 58.38790
vt 61.20116 58.32540
vt 61.20000 58.32513
vt 61.20098 58.30627
vt 61.20098 58.30627
vt 61.49065 58.36553
vt 61.47459 58.38954
vt 61.47459 58.38954
vt 61.20116 58.32540
vt 61.20098 58.30627
vt 61.59059 58.41674
vt 61.60000 58.40000
vt 61.60000 58.41895
vt 61.60000 58.40000
vt 61.59059 58.41674
vt 61.51920 58.40000
vt 61.61541 58.39105
vt 61.60000 58.40000
vt 61.60000 58.38790
vt 61.60000 58.40000
vt 61.61541 58.39105
vt 61.65915 58.40000
vt 61.60000 58.41895
vt 61.60000 58.40000
vt 61.65915 58.40000
vt 61.65915 58.40000
vt 61.87380 58.48317
vt 61.60000 58.41895
vt 61.98002 58.50808
vt 62.00000 58.46973
vt 62.00000 58.51277
vt 61.87380 58.48317
vt 61.88253 58.44570
vt 61.95185 58.45988
vt 61.65915 58.40000
vt 61.88253 58.44570
vt 61.87380 58.48317
vt 61.95185 58.45988
vt 62.00000 58.46973
vt 61.98002 58.50808
vt 61.98002 58.50808
vt 61.87380 58.48317
vt 61.95185 58.45988
vt 62.02526 58.47490
vt 62.00000 58.51277
vt 62.00000 58.46973
vt 62.37353 58.54614
vt 62.40000 58.55156
vt 62.36945 58.59942
vt 62.36945 58.59942
vt 62.40000 58.55156
vt 62.40000 58.60659
vt 62.30073 58.58330
vt 62.00000 58.51277
vt 62.27442 58.52587
vt 62.27442 58.52587
vt 62.00000 58.51277
vt 62.02526 58.47490
vt 62.36945 58.59942
vt 62.30073 58.58330
vt 62.37353 58.54614
vt 62.27442 58.52587
vt 62.37353 58.54614
vt 62.30073 58.58330
vt 62.76849 58.62694
vt 62.78853 58.52897
vt 62.77753 58.59242
vt 62.60086 58.65370
vt 62.40000 58.60659
vt 62.40000 58.55156
vt 62.66630 58.60603
vt 62.76849 58.62694
vt 62.75609 58.69011
vt 62.77753 58.59242
vt 62.75609 58.69011
vt 62.76849 58.62694
vt 62.40000 58.55156
vt 62.66630 58.60603
vt 62.60086 58.65370
vt 62.75609 58.69011
vt 62.60086 58.65370
vt 62.66630 58.60603
vt 62.85408 48.28349
vt 62.85404 48.28356
vt 62.84767 48.28194
vt 62.85404 48.28356
vt 63.20000 48.36703
vt 63.20000 48.37109
vt 63.20000 48.36703
vt 62.85404 48.28356
vt 62.85408 48.28349
vt 63.22654 48.37780
vt 63.20000 48.36703
vt 63.23010 48.37430
vt 63.20000 48.36703
vt 63.22654 48.37780
vt 63.20000 48.37109
vt 63.24529 48.37797
vt 63.31428 48.40000
vt 63.24182 48.38167
vt 63.31428 48.40000
vt 63.24529 48.37797
vt 63.33650 48.40000
vt 63.24182 48.38167
vt 63.22654 48.37780
vt 63.23010 48.37430
vt 63.23010 48.37430
vt 63.24529 48.37797
vt 63.24182 48.38167
vt 63.33650 48.40000
vt 63.60000 48.47229
vt 63.31428 48.40000
vt 63.60000 48.47229
vt 63.33650 48.40000
vt 63.60000 48.46364
vt 63.59707 54.70680
vt 63.60000 54.69452
vt 63.57625 54.80000
vt 63.60000 54.69452
vt 63.59707 54.70680
vt 63.60000 54.69388
vt 63.57625 54.80000
vt 63.57625 54.80000
vt 63.59707 54.70680
vt 63.60000 48.47229
vt 63.60000 48.46364
vt 63.61892 48.46821
vt 63.61892 48.46821
vt 63.61770 48.47677
vt 63.60000 48.47229
vt 63.84497 48.52280
vt 64.00000 48.56024
vt 63.96918 48.56569
vt 63.96918 48.56569
vt 64.00000 48.56024
vt 64.00000 48.57349
vt 63.62960 48.47978
vt 63.61770 48.47677
vt 63.61892 48.46821
vt 63.96918 48.56569
vt 63.62960 48.47978
vt 63.84497 48.52280
vt 63.61892 48.46821
vt 63.84497 48.52280
vt 63.62960 48.47978
vt 63.61835 54.61302
vt 63.60000 54.69452
vt 63.60000 54.69388
vt 64.01739 48.57789
vt 64.00775 48.56211
vt 64.12910 48.59142
vt 64.00775 48.56211
vt 64.00000 48.57349
vt 64.00000 48.56024
vt 64.26623 48.62453
vt 64.39657 48.65601
vt 64.40000 48.67469
vt 64.40000 48.67469
vt 64.39657 48.65601
vt 64.40000 48.65684
vt 64.12910 48.59142
vt 64.20000 48.60854
vt 64.20000 48.62409
vt 64.00775 48.56211
vt 64.01739 48.57789
vt 64.00000 48.57349
vt 64.40000 48.67469
vt 64.20000 48.62409
vt 64.26623 48.62453
vt 64.20000 48.60854
vt 64.26623 48.62453
vt 64.20000 48.62409
vt 64.12910 48.59142
vt 64.20000 48.62409
vt 64.01739 48.57789
vt 64.40000 48.65684
vt 64.40517 48.67600
vt 64.40000 48.67469
vt 64.79295 48.77411
vt 64.80000 48.75344
vt 64.80000 48.77590
vt 64.60119 48.72560
vt 64.40517 48.67600
vt 64.44644 48.66806
vt 64.44644 48.66806
vt 64.40517 48.67600
vt 64.40000 48.65684
vt 64.78539 48.74991
vt 64.80000 48.75344
vt 64.79295 48.77411
vt 64.44644 48.66806
vt 64.78539 48.74991
vt 64.60119 48.72560
vt 64.79295 48.77411
vt 64.60119 48.72560
vt 64.78539 48.74991
vt 64.89526 48.80000
vt 64.80000 48.75344
vt 64.99278 48.80000
vt 64.80000 48.75344
vt 64.89526 48.80000
vt 64.80000 48.77590
vt 65.02894 48.83382
vt 65.01132 48.90735
vt 65.00441 48.93076
vt 65.02894 48.83382
vt 64.89526 48.80000
vt 64.99278 48.80000
vt 65.02894 48.83382
vt 65.03532 48.81027
vt 65.01132 48.90735
vt 64.99278 48.80000
vt 64.99677 48.80096
vt 65.02894 48.83382
vt 64.99677 48.80096
vt 65.03532 48.81027
vt 65.02894 48.83382
f 3/3 2/2 1/1
f 6/6 5/5 4/4
f 9/9 8/8 7/7
f 12/12 11/11 10/10
f 15/15 14/14 13/13
f 18/18 17/17 16/16
f 21/21 20/20 19/19
f 24/24 23/23 22/22
f 27/27 26/26 25/25
f 30/30 29/29 28/28
f 33/33 32/32 31/31
f 36/36 35/35 34/34
f 39/39 38/38 37/37
f 42/42 41/41 40/40
f 45/45 44/44 43/43
f 48/48 47/47 46/46
f 51/51 50/50 49/49
f 54/54 53/53 52/52
f 57/57 56/56 55/55
f 60/60 59/59 58/58
f 63/63 62/62 61/61
f 66/66 65/65 64/64
f 69/69 68/68 67/67
f 72/72 71/71 70/70
f 75/75 74/74 73/73
f 78/78 77/77 76/76
f 81/81 80/80 79/79
f 84/84 83/83 82/82
f 87/87 86/86 85/85
f 90/90 89/89 88/88
f 93/93 92/92 91/91
f 96/96 95/95 94/94
f 99/99 98/98 97/97
f 102/102 101/101 100/100
f 105/105 104/104 103/103
f 108/108 107/107 106/106
f 111/111 110/110 109/109
f 114/114 113/113 112/112
f 117/117 116/116 115/115
f 120/120 119/119 118/118
f 123/123 122/122 121/121
f 126/126 125/125 124/124
f 129/129 128/128 127/127
f 132/132 131/131 130/130
f 135/135 134/134 133/133
f 138/138 137/137 136/136
f 141/141 140/140 139/139
f 144/144 143/143 142/142
f 147/147 146/146 145/145
f 150/150 149/149 148/148
f 153/153 152/152 151/151
f 156/156 155/155 154/154
f 159/159 158/158 157/157
f 162/162 161/161 160/160
f 165/165 164/164 163/163
f 168/168 167/167 166/166
f 171/171 170/170 169/169
f 174/174 173/173 172/172
f 177/177 176/176 175/175
f 180/180 179/179 178/178
f 183/183 182/182 181/181
f 186/186 185/185 184/184
f 189/189 188/188 187/187
f 192/192 191/191 190/190
f 195/195 194/194 193/193
f 198/198 197/197 196/196
f 201/201 200/200 199/199
f 204/204 203/203 202/202
f 207/207 206/206 205/205
f 210/210 209/209 208/208
f 213/213 212/212 211/211
f 216/216 215/215 214/214
f 219/219 218/218 217/217
f 222/222 221/221 220/220
f 225/225 224/224 223/223
f 228/228 227/227 226/226
f 231/231 230/230 229/229
f 234/234 233/233 232/232
f 237/237 236/236 235/235
f 240/240 239/239 238/238
f 243/243 242/242 241/241
f 246/246 245/245 244/244
f 249/249 248/248 247/247
f 252/252 251/251 250/250
f 255/255 254/254 253/253
f 258/258 257/257 256/256
f 261/261 260/260 259/259
f 264/264 263/263 262/262
f 267/267 266/266 265/265
f 270/270 269/269 268/268
f 273/273 272/272 271/271
f 276/276 275/275 274/274
f 279/279 278/278 277/277
f 282/282 281/281 280/280
f 285/285 284/284 283/283
f 288/288 287/287 286/286
f 291/291 290/290 289/289
f 294/294 293/293 292/292
f 297/297 296/296 295/295
f 300/300 299/299 298/298
f 303/303 302/302 301/301
f 306/306 305/305 304/304
f 309/309 308/308 307/307
f 312/312 311/311 310/310
f 315/315 314/314 313/313
f 318/318 317/317 316/316
f 321/321 320/320 319/319
f 324/324 323/323 322/322
f 327/327 326/326 325/325
f 330/330 329/329 328/328
f 333/333 332/332 331/331
f 336/336 335/335 334/334
f 339/339 338/338 337/337
f 342/342 341/341 340/340
f 345/345 344/344 343/343
f 348/348 347/347 346/346
f 351/351 350/350 349/349
f 354/354 353/353 352/352
f 357/357 356/356 355/355
f 360/360 359/359 358/358
f 363/363 362/362 361/361
f 366/366 365/365 364/364
f 369/369 368/368 367/367
f 372/372 371/371 370/370
f 375/375 374/374 373/373
f 378/378 377/377 376/376
f 381/381 380/380 379/379
f 384/384 383/383 382/382
f 387/387 386/386 385/385
f 390/390 389/389 388/388
f 393/393 392/392 391/391
f 396/396 395/395 394/394
f 399/399 398/398 397/397
f 402/402 401/401 400/400
f 405/405 404/404 403/403
f 408/408 407/407 406/406
f 411/411 410/410 409/409
f 414/414 413/413 412/412
f 417/417 416/416 415/415
f 420/420 419/419 418/418
f 423/423 422/422 421/421
f 426/426 425/425 424/424
f 429/429 428/428 427/427
f 432/432 431/431 430/430
f 435/435 434/434 433/433
f 438/438 437/437 436/436
f 441/441 440/440 439/439
f 444/444 443/443 442/442
f 447/447 446/446 445/445
f 450/450 449/449 448/448
f 453/453 452/452 451/451
f 456/456 455/455 454/454
f 459/459 458/458 457/457
f 462/462 461/461 460/460
f 465/465 464/464 463/463
f 468/468 467/467 466/466
f 471/471 470/470 469/469
f 474/474 473/473 472/472
f 477/477 476/476 475/475
f 480/480 479/479 478/478
f 483/483 482/482 481/481
f 486/486 485/485 484/484
f 489/489 488/488 487/487
f 492/492 491/491 490/490
f 495/495 494/494 493/493
f 498/498 497/497 496/496
f 501/501 500/500 499/499
f 504/504 503/503 502/502
f 507/507 506/506 505/505
f 510/510 509/509 508/508
f 513/513 512/512 511/511
f 516/516 515/515 514/514
f 519/519 518/518 517/517
f 522/522 521/521 520/520
f 525/525 524/524 523/523
f 528/528 527/527 526/526
f 531/531 530/530 529/529
f 534/534 533/533 532/532
f 537/537 536/536 535/535
f 540/540 539/539 538/538
f 543/543 542/542 541/541
f 546/546 545/545 544/544
