# Authored thin-gap closure of OSM path footprints; candidate DEM planes +3cm
o LakePathSeams_Gravel
v -9889.338245 799.751736 -182.028207
v -9894.244735 803.058643 -182.046111
v -9891.544188 801.772114 -182.017497
v -9554.806094 492.600270 -179.112339
v -9557.895215 496.189856 -179.166134
v -9556.136655 494.579226 -179.150727
v -9210.854675 482.862511 -199.259718
v -9218.226347 493.826471 -199.411151
v -9213.438183 488.844367 -199.471572
v -9213.438183 488.844367 -199.471572
v -9210.854675 487.570786 -199.609160
v -9210.854675 482.862511 -199.259718
v -9365.086284 210.416960 -175.298226
v -9365.359657 210.834719 -175.301671
v -9365.220363 210.627546 -175.300093
v -9297.331151 103.957443 -174.353383
v -9297.827785 104.780470 -174.361643
v -9297.569576 104.374926 -174.358047
v -9014.886050 -390.849022 -170.689770
v -9015.870694 -388.880732 -170.693624
v -9015.324141 -389.837748 -170.690426
vt -98.893382 7.997517
vt -98.942447 8.030586
vt -98.915442 8.017721
vt -95.548061 4.926003
vt -95.578952 4.961899
vt -95.561367 4.945792
vt -92.108547 4.828625
vt -92.182263 4.938265
vt -92.134382 4.888444
vt -92.134382 4.888444
vt -92.108547 4.875708
vt -92.108547 4.828625
vt -93.650863 2.104170
vt -93.653597 2.108347
vt -93.652204 2.106275
vt -92.973312 1.039574
vt -92.978278 1.047805
vt -92.975696 1.043749
vt -90.148860 -3.908490
vt -90.158707 -3.888807
vt -90.153241 -3.898377
f 3/3 2/2 1/1
f 6/6 5/5 4/4
f 9/9 8/8 7/7
f 12/12 11/11 10/10
f 15/15 14/14 13/13
f 18/18 17/17 16/16
f 21/21 20/20 19/19
