# Authored thin-gap closure of OSM path footprints; candidate DEM planes +3cm
o LakePathSeams_Concrete
v -9004.631048 625.139529 -233.107677
v -9004.789792 625.298272 -233.103337
v -8999.880142 630.361021 -234.016679
v -8999.880142 630.361021 -234.016679
v -8999.502509 631.363156 -234.134799
v -8995.453718 631.363156 -234.561820
v -8995.453718 631.363156 -234.561820
v -9004.631048 625.139529 -233.107677
v -8999.880142 630.361021 -234.016679
v -9004.631048 625.139529 -233.107677
v -9005.544388 624.520145 -232.956972
v -9004.789792 625.298272 -233.103337
v -9171.230783 498.029823 -204.254937
v -9169.029484 500.273337 -204.645183
v -9169.940789 498.029823 -204.380913
v -9177.440926 493.693177 -203.309678
v -9177.547111 493.937420 -203.318390
v -9173.555916 495.660099 -203.842739
v -9171.230783 498.029823 -204.254937
v -9169.940789 498.029823 -204.380913
v -9171.661463 493.793745 -203.881935
v -9171.661463 493.793745 -203.881935
v -9177.440926 493.693177 -203.309678
v -9173.555916 495.660099 -203.842739
v -9173.555916 495.660099 -203.842739
v -9171.230783 498.029823 -204.254937
v -9171.661463 493.793745 -203.881935
v -9198.339967 485.515114 -200.629845
v -9193.655053 486.644116 -201.175559
v -9197.707273 484.882421 -200.642202
v -9210.854675 482.862511 -199.259718
v -9210.854675 487.570786 -199.609160
v -9207.240365 485.789055 -199.815764
v -9197.707273 484.882421 -200.642202
v -9208.931789 480.002584 -199.227728
v -9200.372726 485.025246 -200.402916
v -9200.372726 485.025246 -200.402916
v -9198.339967 485.515114 -200.629845
v -9197.707273 484.882421 -200.642202
v -9210.854675 482.862511 -199.259718
v -9207.240365 485.789055 -199.815764
v -9208.931789 480.002584 -199.227728
v -9200.372726 485.025246 -200.402916
v -9208.931789 480.002584 -199.227728
v -9207.240365 485.789055 -199.815764
v -8822.709787 410.197244 -236.273631
v -8811.492971 393.600577 -236.312502
v -8817.046628 399.093690 -236.091069
v -8832.092035 401.991532 -234.601780
v -8839.288706 398.954213 -233.561106
v -8822.709787 410.197244 -236.273631
v -8822.709787 410.197244 -236.273631
v -8817.046628 399.093690 -236.091069
v -8824.280825 402.040515 -235.490279
v -8824.280825 402.040515 -235.490279
v -8832.092035 401.991532 -234.601780
v -8822.709787 410.197244 -236.273631
v -9023.556370 286.868941 -203.425772
v -9022.275163 287.409966 -203.601053
v -9027.369336 284.290495 -202.832254
v -9027.369336 284.290495 -202.832254
v -9029.886744 281.429173 -202.354382
v -9027.754976 286.840124 -202.980811
v -9027.754976 286.840124 -202.980811
v -9023.556370 286.868941 -203.425772
v -9027.369336 284.290495 -202.832254
v -9059.053117 251.056450 -197.246712
v -9048.534255 261.947872 -198.997203
v -9053.009745 254.705430 -198.079200
v -9054.067384 246.257686 -197.414932
v -9051.515522 238.135435 -197.124769
v -9056.096187 246.156195 -197.210067
v -9059.053117 251.056450 -197.246712
v -9053.009745 254.705430 -198.079200
v -9054.067384 246.257686 -197.414932
v -9054.067384 246.257686 -197.414932
v -9056.096187 246.156195 -197.210067
v -9059.053117 251.056450 -197.246712
v -4424.309447 -1389.009470 -390.270749
v -4423.927501 -1389.015563 -390.294573
v -4424.118504 -1389.014340 -390.282645
v -4947.524233 -1688.152444 -348.520982
v -4945.216706 -1684.962183 -348.691700
v -4946.212690 -1686.671436 -348.628397
v -4555.675081 -1665.750021 -383.975050
v -4566.537144 -1668.631141 -383.276250
v -4561.527810 -1665.600746 -383.585226
v -4180.733008 -1679.744455 -390.117379
v -4178.283149 -1689.458740 -389.832947
v -4182.527314 -1681.291164 -390.055027
v -4182.527314 -1681.291164 -390.055027
v -4189.980047 -1675.889404 -390.165607
v -4180.733008 -1679.744455 -390.117379
v -4199.431503 -1671.949132 -390.214901
v -4206.999422 -1670.409578 -390.203888
v -4203.063989 -1670.434764 -390.233846
v -4631.821593 -1708.124936 -379.654613
v -4638.749797 -1715.168043 -379.250459
v -4636.183287 -1710.763541 -379.372122
v -5030.548649 -1781.904475 -340.473957
v -5038.827127 -1782.400435 -339.452708
v -5031.271254 -1780.419665 -340.343031
v -5031.271254 -1780.419665 -340.343031
v -5025.050370 -1775.695763 -340.991472
v -5030.548649 -1781.904475 -340.473957
v -4135.314644 -1862.858043 -389.114527
v -4135.915332 -1857.457370 -389.133277
v -4135.244716 -1860.116523 -389.125509
v -4816.713853 -1962.777667 -370.486353
v -4815.633819 -1961.558081 -370.576443
v -4816.482260 -1963.009260 -370.515302
v -4821.054474 -1968.636844 -370.142990
v -4821.106763 -1967.738186 -370.119923
v -4819.560151 -1968.273707 -370.293502
v -4819.560151 -1968.273707 -370.293502
v -4819.610439 -1968.636844 -370.295291
v -4821.054474 -1968.636844 -370.142990
v -4816.713853 -1962.777667 -370.486353
v -4816.482260 -1963.009260 -370.515302
v -4819.560151 -1968.273707 -370.293502
v -4816.713853 -1962.777667 -370.486353
v -4819.560151 -1968.273707 -370.293502
v -4821.106763 -1967.738186 -370.119923
v -4819.610439 -1968.636844 -370.295291
v -4820.627247 -1975.979355 -370.302776
v -4821.026891 -1969.110899 -370.153306
v -4821.026891 -1969.110899 -370.153306
v -4821.054474 -1968.636844 -370.142990
v -4819.610439 -1968.636844 -370.295291
v -5092.182335 -2137.493592 -338.502261
v -5091.749149 -2136.701501 -338.555297
v -5090.655177 -2155.503009 -338.851750
v -5090.655177 -2155.503009 -338.851750
v -5098.009496 -2148.148690 -337.788822
v -5092.182335 -2137.493592 -338.502261
v -5102.112047 -2168.636844 -337.387990
v -5101.764650 -2155.015078 -337.329065
v -5090.244680 -2162.557987 -338.962990
v -5090.244680 -2162.557987 -338.962990
v -5089.890980 -2168.636844 -339.058839
v -5102.112047 -2168.636844 -337.387990
v -5098.009496 -2148.148690 -337.788822
v -5090.655177 -2155.503009 -338.851750
v -5101.764650 -2155.015078 -337.329065
v -5090.244680 -2162.557987 -338.962990
v -5101.764650 -2155.015078 -337.329065
v -5090.655177 -2155.503009 -338.851750
v -5086.469812 -2226.355040 -339.526576
v -5103.158428 -2209.666424 -337.244930
v -5086.639562 -2224.128295 -339.503368
v -5102.112047 -2168.636844 -337.387990
v -5089.890980 -2168.636844 -339.058839
v -5103.158428 -2209.666424 -337.244930
v -5086.639562 -2224.128295 -339.503368
v -5103.158428 -2209.666424 -337.244930
v -5086.808202 -2221.618887 -339.480312
v -5086.808202 -2221.618887 -339.480312
v -5103.158428 -2209.666424 -337.244930
v -5089.890980 -2168.636844 -339.058839
v -5085.787653 -2235.303511 -339.619840
v -5103.812253 -2235.303511 -337.155539
v -5086.469812 -2226.355040 -339.526576
v -5103.158428 -2209.666424 -337.244930
v -5086.469812 -2226.355040 -339.526576
v -5103.812253 -2235.303511 -337.155539
v -4807.364462 -2203.919687 -373.726214
v -4807.340370 -2204.278174 -373.729590
v -4807.354026 -2204.099039 -373.727770
v -5104.816352 -2274.675167 -336.864465
v -5104.204737 -2250.693173 -337.041764
v -5083.013053 -2271.700301 -339.857005
v -5083.013053 -2271.700301 -339.857005
v -5080.968288 -2298.523231 -340.031786
v -5104.816352 -2274.675167 -336.864465
v -5103.812253 -2235.303511 -337.155539
v -5085.787653 -2235.303511 -339.619840
v -5104.204737 -2250.693173 -337.041764
v -5083.013053 -2271.700301 -339.857005
v -5104.204737 -2250.693173 -337.041764
v -5085.787653 -2235.303511 -339.619840
v -5080.705521 -2301.970177 -340.054246
v -5105.512459 -2301.970177 -336.662673
v -5080.968288 -2298.523231 -340.031786
v -5104.816352 -2274.675167 -336.864465
v -5080.968288 -2298.523231 -340.031786
v -5105.512459 -2301.970177 -336.662673
v -5077.521342 -2368.636844 -339.968750
v -5106.474276 -2339.683910 -336.236536
v -5077.521342 -2343.739767 -340.163258
v -5079.386545 -2319.272307 -340.099402
v -5105.856742 -2315.469824 -336.510137
v -5080.705521 -2301.970177 -340.054246
v -5105.512459 -2301.970177 -336.662673
v -5080.705521 -2301.970177 -340.054246
v -5105.856742 -2315.469824 -336.510137
v -5077.521342 -2343.739767 -340.163258
v -5106.474276 -2339.683910 -336.236536
v -5079.386545 -2319.272307 -340.099402
v -5105.856742 -2315.469824 -336.510137
v -5079.386545 -2319.272307 -340.099402
v -5106.474276 -2339.683910 -336.236536
v -5107.212665 -2368.636844 -335.793408
v -5106.474276 -2339.683910 -336.236536
v -5077.521342 -2368.636844 -339.968750
v -5075.760037 -2366.844313 -340.230438
v -5075.529459 -2368.636844 -340.248859
v -5077.521342 -2368.636844 -339.968750
v -5077.521342 -2368.636844 -339.968750
v -5077.521342 -2343.739767 -340.163258
v -5075.760037 -2366.844313 -340.230438
v -4797.201187 -2337.282500 -375.149663
v -4796.936728 -2339.338430 -375.196483
v -4797.122300 -2338.317327 -375.168569
v -5107.508746 -2380.246476 -335.207570
v -5107.212665 -2368.636844 -335.793408
v -5077.521342 -2368.636844 -339.968750
v -5106.679933 -2406.144920 -334.110132
v -5108.132199 -2404.692653 -333.973982
v -5106.405538 -2405.000042 -334.202385
v -5077.521342 -2368.636844 -339.968750
v -5077.521342 -2396.906786 -338.643596
v -5077.864016 -2396.579908 -338.610730
v -5106.405538 -2405.000042 -334.202385
v -5108.132199 -2404.692653 -333.973982
v -5101.334312 -2398.393973 -335.225186
v -5077.521342 -2368.636844 -339.968750
v -5077.864016 -2396.579908 -338.610730
v -5085.708875 -2393.784259 -337.638593
v -5107.508746 -2380.246476 -335.207570
v -5101.334312 -2398.393973 -335.225186
v -5108.132199 -2404.692653 -333.973982
v -5077.521342 -2368.636844 -339.968750
v -5085.708875 -2393.784259 -337.638593
v -5107.508746 -2380.246476 -335.207570
v -5101.334312 -2398.393973 -335.225186
v -5107.508746 -2380.246476 -335.207570
v -5094.012223 -2394.426040 -336.440851
v -5094.012223 -2394.426040 -336.440851
v -5107.508746 -2380.246476 -335.207570
v -5085.708875 -2393.784259 -337.638593
v -5106.679933 -2406.144920 -334.110132
v -5108.346582 -2413.098796 -333.482449
v -5108.132199 -2404.692653 -333.973982
v -5075.529459 -2368.636844 -340.248859
v -5075.235415 -2370.922771 -340.254491
v -5077.521342 -2368.636844 -339.968750
v -5071.837895 -2402.328242 -339.366308
v -5077.521342 -2396.906786 -338.643596
v -5073.908825 -2381.235817 -339.999075
v -5073.908825 -2381.235817 -339.999075
v -5068.675403 -2410.032534 -339.548723
v -5071.837895 -2402.328242 -339.366308
v -5077.521342 -2368.636844 -339.968750
v -5075.235415 -2370.922771 -340.254491
v -5073.908825 -2381.235817 -339.999075
v -5077.521342 -2368.636844 -339.968750
v -5073.908825 -2381.235817 -339.999075
v -5077.521342 -2396.906786 -338.643596
v -5049.087052 -2518.386205 -340.076347
v -5049.347274 -2516.384862 -339.926627
v -5049.166610 -2517.378960 -340.012040
v -5115.836607 -2706.789156 -310.561666
v -5115.645792 -2710.101501 -310.188618
v -5115.879047 -2708.453270 -310.344534
v -4752.973469 -2711.350840 -386.823382
v -4752.428369 -2714.666752 -386.916004
v -4752.840699 -2713.031774 -386.866409
v -4731.396849 -2766.241746 -388.500011
v -4722.489967 -2767.879381 -388.642771
v -4738.748945 -2768.636844 -388.469989
v -4740.764348 -2760.917139 -388.265440
v -4742.813506 -2752.791778 -388.050989
v -4738.668334 -2760.843607 -388.288280
v -4738.748945 -2768.636844 -388.469989
v -4738.817492 -2768.636844 -388.469186
v -4738.668334 -2760.843607 -388.288280
v -4738.668334 -2760.843607 -388.288280
v -4731.396849 -2766.241746 -388.500011
v -4738.748945 -2768.636844 -388.469989
v -4740.764348 -2760.917139 -388.265440
v -4738.668334 -2760.843607 -388.288280
v -4738.817492 -2768.636844 -388.469186
v -4738.748945 -2768.636844 -388.469989
v -4738.816696 -2768.640000 -388.469257
v -4738.817492 -2768.636844 -388.469186
v -4530.908704 -2771.829345 -390.256098
v -4528.686052 -2771.762378 -390.265303
v -4529.795514 -2771.857737 -390.260224
v -4990.315564 -2922.067892 -358.143634
v -4990.579898 -2915.367853 -356.990400
v -4989.549693 -2919.452840 -358.043176
v -4989.549693 -2919.452840 -358.043176
v -4989.990971 -2922.051945 -358.271740
v -4990.315564 -2922.067892 -358.143634
vt -90.046310 6.251395
vt -90.047898 6.252983
vt -89.998801 6.303610
vt -89.998801 6.303610
vt -89.995025 6.313632
vt -89.954537 6.313632
vt -89.954537 6.313632
vt -90.046310 6.251395
vt -89.998801 6.303610
vt -90.046310 6.251395
vt -90.055444 6.245201
vt -90.047898 6.252983
vt -91.712308 4.980298
vt -91.690295 5.002733
vt -91.699408 4.980298
vt -91.774409 4.936932
vt -91.775471 4.939374
vt -91.735559 4.956601
vt -91.712308 4.980298
vt -91.699408 4.980298
vt -91.716615 4.937937
vt -91.716615 4.937937
vt -91.774409 4.936932
vt -91.735559 4.956601
vt -91.735559 4.956601
vt -91.712308 4.980298
vt -91.716615 4.937937
vt -91.983400 4.855151
vt -91.936551 4.866441
vt -91.977073 4.848824
vt -92.108547 4.828625
vt -92.108547 4.875708
vt -92.072404 4.857891
vt -91.977073 4.848824
vt -92.089318 4.800026
vt -92.003727 4.850252
vt -92.003727 4.850252
vt -91.983400 4.855151
vt -91.977073 4.848824
vt -92.108547 4.828625
vt -92.072404 4.857891
vt -92.089318 4.800026
vt -92.003727 4.850252
vt -92.089318 4.800026
vt -92.072404 4.857891
vt -88.227098 4.101972
vt -88.114930 3.936006
vt -88.170466 3.990937
vt -88.320920 4.019915
vt -88.392887 3.989542
vt -88.227098 4.101972
vt -88.227098 4.101972
vt -88.170466 3.990937
vt -88.242808 4.020405
vt -88.242808 4.020405
vt -88.320920 4.019915
vt -88.227098 4.101972
vt -90.235564 2.868689
vt -90.222752 2.874100
vt -90.273693 2.842905
vt -90.273693 2.842905
vt -90.298867 2.814292
vt -90.277550 2.868401
vt -90.277550 2.868401
vt -90.235564 2.868689
vt -90.273693 2.842905
vt -90.590531 2.510564
vt -90.485343 2.619479
vt -90.530097 2.547054
vt -90.540674 2.462577
vt -90.515155 2.381354
vt -90.560962 2.461562
vt -90.590531 2.510564
vt -90.530097 2.547054
vt -90.540674 2.462577
vt -90.540674 2.462577
vt -90.560962 2.461562
vt -90.590531 2.510564
vt -44.243094 -13.890095
vt -44.239275 -13.890156
vt -44.241185 -13.890143
vt -49.475242 -16.881524
vt -49.452167 -16.849622
vt -49.462127 -16.866714
vt -45.556751 -16.657500
vt -45.665371 -16.686311
vt -45.615278 -16.656007
vt -41.807330 -16.797445
vt -41.782831 -16.894587
vt -41.825273 -16.812912
vt -41.825273 -16.812912
vt -41.899800 -16.758894
vt -41.807330 -16.797445
vt -41.994315 -16.719491
vt -42.069994 -16.704096
vt -42.030640 -16.704348
vt -46.318216 -17.081249
vt -46.387498 -17.151680
vt -46.361833 -17.107635
vt -50.305486 -17.819045
vt -50.388271 -17.824004
vt -50.312713 -17.804197
vt -50.312713 -17.804197
vt -50.250504 -17.756958
vt -50.305486 -17.819045
vt -41.353146 -18.628580
vt -41.359153 -18.574574
vt -41.352447 -18.601165
vt -48.167139 -19.627777
vt -48.156338 -19.615581
vt -48.164823 -19.630093
vt -48.210545 -19.686368
vt -48.211068 -19.677382
vt -48.195602 -19.682737
vt -48.195602 -19.682737
vt -48.196104 -19.686368
vt -48.210545 -19.686368
vt -48.167139 -19.627777
vt -48.164823 -19.630093
vt -48.195602 -19.682737
vt -48.167139 -19.627777
vt -48.195602 -19.682737
vt -48.211068 -19.677382
vt -48.196104 -19.686368
vt -48.206272 -19.759794
vt -48.210269 -19.691109
vt -48.210269 -19.691109
vt -48.210545 -19.686368
vt -48.196104 -19.686368
vt -50.921823 -21.374936
vt -50.917491 -21.367015
vt -50.906552 -21.555030
vt -50.906552 -21.555030
vt -50.980095 -21.481487
vt -50.921823 -21.374936
vt -51.021120 -21.686368
vt -51.017647 -21.550151
vt -50.902447 -21.625580
vt -50.902447 -21.625580
vt -50.898910 -21.686368
vt -51.021120 -21.686368
vt -50.980095 -21.481487
vt -50.906552 -21.555030
vt -51.017647 -21.550151
vt -50.902447 -21.625580
vt -51.017647 -21.550151
vt -50.906552 -21.555030
vt -50.864698 -22.263550
vt -51.031584 -22.096664
vt -50.866396 -22.241283
vt -51.021120 -21.686368
vt -50.898910 -21.686368
vt -51.031584 -22.096664
vt -50.866396 -22.241283
vt -51.031584 -22.096664
vt -50.868082 -22.216189
vt -50.868082 -22.216189
vt -51.031584 -22.096664
vt -50.898910 -21.686368
vt -50.857877 -22.353035
vt -51.038123 -22.353035
vt -50.864698 -22.263550
vt -51.031584 -22.096664
vt -50.864698 -22.263550
vt -51.038123 -22.353035
vt -48.073645 -22.039197
vt -48.073404 -22.042782
vt -48.073540 -22.040990
vt -51.048164 -22.746752
vt -51.042047 -22.506932
vt -50.830131 -22.717003
vt -50.830131 -22.717003
vt -50.809683 -22.985232
vt -51.048164 -22.746752
vt -51.038123 -22.353035
vt -50.857877 -22.353035
vt -51.042047 -22.506932
vt -50.830131 -22.717003
vt -51.042047 -22.506932
vt -50.857877 -22.353035
vt -50.807055 -23.019702
vt -51.055125 -23.019702
vt -50.809683 -22.985232
vt -51.048164 -22.746752
vt -50.809683 -22.985232
vt -51.055125 -23.019702
vt -50.775213 -23.686368
vt -51.064743 -23.396839
vt -50.775213 -23.437398
vt -50.793865 -23.192723
vt -51.058567 -23.154698
vt -50.807055 -23.019702
vt -51.055125 -23.019702
vt -50.807055 -23.019702
vt -51.058567 -23.154698
vt -50.775213 -23.437398
vt -51.064743 -23.396839
vt -50.793865 -23.192723
vt -51.058567 -23.154698
vt -50.793865 -23.192723
vt -51.064743 -23.396839
vt -51.072127 -23.686368
vt -51.064743 -23.396839
vt -50.775213 -23.686368
vt -50.757600 -23.668443
vt -50.755295 -23.686368
vt -50.775213 -23.686368
vt -50.775213 -23.686368
vt -50.775213 -23.437398
vt -50.757600 -23.668443
vt -47.972012 -23.372825
vt -47.969367 -23.393384
vt -47.971223 -23.383173
vt -51.075087 -23.802465
vt -51.072127 -23.686368
vt -50.775213 -23.686368
vt -51.066799 -24.061449
vt -51.081322 -24.046927
vt -51.064055 -24.050000
vt -50.775213 -23.686368
vt -50.775213 -23.969068
vt -50.778640 -23.965799
vt -51.064055 -24.050000
vt -51.081322 -24.046927
vt -51.013343 -23.983940
vt -50.775213 -23.686368
vt -50.778640 -23.965799
vt -50.857089 -23.937843
vt -51.075087 -23.802465
vt -51.013343 -23.983940
vt -51.081322 -24.046927
vt -50.775213 -23.686368
vt -50.857089 -23.937843
vt -51.075087 -23.802465
vt -51.013343 -23.983940
vt -51.075087 -23.802465
vt -50.940122 -23.944260
vt -50.940122 -23.944260
vt -51.075087 -23.802465
vt -50.857089 -23.937843
vt -51.066799 -24.061449
vt -51.083466 -24.130988
vt -51.081322 -24.046927
vt -50.755295 -23.686368
vt -50.752354 -23.709228
vt -50.775213 -23.686368
vt -50.718379 -24.023282
vt -50.775213 -23.969068
vt -50.739088 -23.812358
vt -50.739088 -23.812358
vt -50.686754 -24.100325
vt -50.718379 -24.023282
vt -50.775213 -23.686368
vt -50.752354 -23.709228
vt -50.739088 -23.812358
vt -50.775213 -23.686368
vt -50.739088 -23.812358
vt -50.775213 -23.969068
vt -50.490871 -25.183862
vt -50.493473 -25.163849
vt -50.491666 -25.173790
vt -51.158366 -27.067892
vt -51.156458 -27.101015
vt -51.158790 -27.084533
vt -47.529735 -27.113508
vt -47.524284 -27.146668
vt -47.528407 -27.130318
vt -47.313968 -27.662417
vt -47.224900 -27.678794
vt -47.387489 -27.686368
vt -47.407643 -27.609171
vt -47.428135 -27.527918
vt -47.386683 -27.608436
vt -47.387489 -27.686368
vt -47.388175 -27.686368
vt -47.386683 -27.608436
vt -47.386683 -27.608436
vt -47.313968 -27.662417
vt -47.387489 -27.686368
vt -47.407643 -27.609171
vt -47.386683 -27.608436
vt -47.388175 -27.686368
vt -47.387489 -27.686368
vt -47.388167 -27.686400
vt -47.388175 -27.686368
vt -45.309087 -27.718293
vt -45.286861 -27.717624
vt -45.297955 -27.718577
vt -49.903156 -29.220679
vt -49.905799 -29.153679
vt -49.895497 -29.194528
vt -49.895497 -29.194528
vt -49.899910 -29.220519
vt -49.903156 -29.220679
f 3/3 2/2 1/1
f 6/6 5/5 4/4
f 9/9 8/8 7/7
f 12/12 11/11 10/10
f 15/15 14/14 13/13
f 18/18 17/17 16/16
f 21/21 20/20 19/19
f 24/24 23/23 22/22
f 27/27 26/26 25/25
f 30/30 29/29 28/28
f 33/33 32/32 31/31
f 36/36 35/35 34/34
f 39/39 38/38 37/37
f 42/42 41/41 40/40
f 45/45 44/44 43/43
f 48/48 47/47 46/46
f 51/51 50/50 49/49
f 54/54 53/53 52/52
f 57/57 56/56 55/55
f 60/60 59/59 58/58
f 63/63 62/62 61/61
f 66/66 65/65 64/64
f 69/69 68/68 67/67
f 72/72 71/71 70/70
f 75/75 74/74 73/73
f 78/78 77/77 76/76
f 81/81 80/80 79/79
f 84/84 83/83 82/82
f 87/87 86/86 85/85
f 90/90 89/89 88/88
f 93/93 92/92 91/91
f 96/96 95/95 94/94
f 99/99 98/98 97/97
f 102/102 101/101 100/100
f 105/105 104/104 103/103
f 108/108 107/107 106/106
f 111/111 110/110 109/109
f 114/114 113/113 112/112
f 117/117 116/116 115/115
f 120/120 119/119 118/118
f 123/123 122/122 121/121
f 126/126 125/125 124/124
f 129/129 128/128 127/127
f 132/132 131/131 130/130
f 135/135 134/134 133/133
f 138/138 137/137 136/136
f 141/141 140/140 139/139
f 144/144 143/143 142/142
f 147/147 146/146 145/145
f 150/150 149/149 148/148
f 153/153 152/152 151/151
f 156/156 155/155 154/154
f 159/159 158/158 157/157
f 162/162 161/161 160/160
f 165/165 164/164 163/163
f 168/168 167/167 166/166
f 171/171 170/170 169/169
f 174/174 173/173 172/172
f 177/177 176/176 175/175
f 180/180 179/179 178/178
f 183/183 182/182 181/181
f 186/186 185/185 184/184
f 189/189 188/188 187/187
f 192/192 191/191 190/190
f 195/195 194/194 193/193
f 198/198 197/197 196/196
f 201/201 200/200 199/199
f 204/204 203/203 202/202
f 207/207 206/206 205/205
f 210/210 209/209 208/208
f 213/213 212/212 211/211
f 216/216 215/215 214/214
f 219/219 218/218 217/217
f 222/222 221/221 220/220
f 225/225 224/224 223/223
f 228/228 227/227 226/226
f 231/231 230/230 229/229
f 234/234 233/233 232/232
f 237/237 236/236 235/235
f 240/240 239/239 238/238
f 243/243 242/242 241/241
f 246/246 245/245 244/244
f 249/249 248/248 247/247
f 252/252 251/251 250/250
f 255/255 254/254 253/253
f 258/258 257/257 256/256
f 261/261 260/260 259/259
f 264/264 263/263 262/262
f 267/267 266/266 265/265
f 270/270 269/269 268/268
f 273/273 272/272 271/271
f 276/276 275/275 274/274
f 279/279 278/278 277/277
f 282/282 281/281 280/280
f 285/285 284/284 283/283
f 288/288 287/287 286/286
f 291/291 290/290 289/289
f 294/294 293/293 292/292
