# Authored thin-gap closure of OSM path footprints; candidate DEM planes +3cm
o LakePathSeams_Asphalt
v -8882.275283 1236.117097 -274.585597
v -8905.271545 1259.113359 -274.495767
v -8877.521342 1248.292134 -275.067068
v -8877.521342 1248.292134 -275.067068
v -8877.521342 1241.272530 -274.875126
v -8877.548749 1241.260547 -274.873942
v -8877.548749 1241.260547 -274.873942
v -8882.275283 1236.117097 -274.585597
v -8877.521342 1248.292134 -275.067068
v -8897.817699 1231.363156 -274.049188
v -8930.024370 1268.765753 -274.045160
v -8905.271545 1259.113359 -274.495767
v -8883.130560 1235.186379 -274.540396
v -8884.430430 1231.363156 -274.415246
v -8897.817699 1231.363156 -274.049188
v -8905.271545 1259.113359 -274.495767
v -8882.275283 1236.117097 -274.585597
v -8897.817699 1231.363156 -274.049188
v -8883.130560 1235.186379 -274.540396
v -8897.817699 1231.363156 -274.049188
v -8882.275283 1236.117097 -274.585597
v -8875.393984 1247.462568 -275.110865
v -8861.740885 1244.538081 -275.457558
v -8869.990212 1244.565188 -275.200508
v -8877.521342 1241.272530 -274.875126
v -8877.521342 1248.292134 -275.067068
v -8875.393984 1247.462568 -275.110865
v -8875.393984 1247.462568 -275.110865
v -8869.990212 1244.565188 -275.200508
v -8877.521342 1241.272530 -274.875126
v -8881.085455 1211.931486 -273.975376
v -8896.879756 1230.273893 -274.045051
v -8885.063323 1219.158428 -274.064218
v -8897.817699 1231.363156 -274.049188
v -8884.430430 1231.363156 -274.415246
v -8896.879756 1230.273893 -274.045051
v -8885.063323 1219.158428 -274.064218
v -8896.879756 1230.273893 -274.045051
v -8885.786009 1227.376083 -274.269158
v -8885.786009 1227.376083 -274.269158
v -8896.879756 1230.273893 -274.045051
v -8884.430430 1231.363156 -274.415246
v -9420.648286 1107.573484 -241.898045
v -9423.770530 1110.024823 -242.083909
v -9422.087170 1108.954847 -242.060379
v -9161.343567 858.356008 -236.858357
v -9163.245733 860.461098 -236.892242
v -9162.219805 859.476183 -236.888072
v -8591.429745 875.545400 -273.121717
v -8583.517636 869.953396 -273.237908
v -8588.171721 871.761756 -273.134851
v -8997.412060 646.101119 -235.564249
v -9001.016689 653.395374 -235.782430
v -8987.827743 636.534728 -235.790352
v -8995.453718 631.363156 -234.561820
v -8999.502509 631.363156 -234.134799
v -8997.011091 637.974697 -234.939918
v -8997.412060 646.101119 -235.564249
v -8987.827743 636.534728 -235.790352
v -8997.011091 637.974697 -234.939918
v -8995.453718 631.363156 -234.561820
v -8997.011091 637.974697 -234.939918
v -8987.827743 636.534728 -235.790352
v -8278.675542 432.517356 -269.916667
v -8309.087022 462.928836 -269.916667
v -8295.463397 457.635331 -270.111904
v -8277.521342 450.663886 -270.369028
v -8277.521342 434.796149 -269.997127
v -8295.463397 457.635331 -270.111904
v -8278.675542 432.517356 -269.916667
v -8295.463397 457.635331 -270.111904
v -8277.521342 434.796149 -269.997127
v -8291.034374 431.363156 -269.652740
v -8312.803048 464.372710 -269.872289
v -8309.087022 462.928836 -269.916667
v -8278.675542 432.517356 -269.916667
v -8279.260140 431.363156 -269.882706
v -8291.034374 431.363156 -269.652740
v -8291.034374 431.363156 -269.652740
v -8309.087022 462.928836 -269.916667
v -8278.675542 432.517356 -269.916667
v -8277.521342 450.663886 -270.369028
v -8254.323599 441.650326 -270.701469
v -8262.569331 442.982992 -270.539444
v -8277.128630 435.571499 -270.024504
v -8277.521342 434.796149 -269.997127
v -8277.521342 450.663886 -270.369028
v -8277.521342 450.663886 -270.369028
v -8262.569331 442.982992 -270.539444
v -8270.640252 440.831637 -270.299860
v -8270.640252 440.831637 -270.299860
v -8277.128630 435.571499 -270.024504
v -8277.521342 450.663886 -270.369028
v -8281.304358 419.776983 -269.571229
v -8278.263377 411.997489 -269.448291
v -8291.034374 431.363156 -269.652740
v -8291.034374 431.363156 -269.652740
v -8279.260140 431.363156 -269.882706
v -8280.902760 428.120053 -269.774613
v -8280.902760 428.120053 -269.774613
v -8281.304358 419.776983 -269.571229
v -8291.034374 431.363156 -269.652740
v -8052.635293 363.280258 -277.325692
v -8052.966412 363.412324 -277.309902
v -8052.800264 363.347767 -277.317872
v -8729.517685 272.140716 -236.367572
v -8730.522701 273.795047 -236.373969
v -8729.980118 272.992227 -236.376865
v -8591.962188 18.435656 -238.614497
v -8593.127154 20.995022 -238.583330
v -8592.454485 19.756389 -238.616275
v -4960.502071 -991.339853 -329.319588
v -4962.088963 -992.131946 -329.297845
v -4961.313095 -991.700683 -329.306929
v -5363.973877 -1215.517643 -316.946244
v -5360.095546 -1213.361892 -316.939515
v -5363.439252 -1216.052268 -316.942067
v -5365.374963 -1217.609758 -316.820737
v -5368.932949 -1223.376675 -316.484279
v -5366.288087 -1216.803985 -316.823677
v -5363.973877 -1215.517643 -316.946244
v -5363.439252 -1216.052268 -316.942067
v -5365.374963 -1217.609758 -316.820737
v -5365.374963 -1217.609758 -316.820737
v -5366.288087 -1216.803985 -316.823677
v -5363.973877 -1215.517643 -316.946244
v -5576.338740 -1738.796285 -302.567266
v -5576.651310 -1739.625654 -302.555105
v -5576.504216 -1739.207506 -302.561155
vt -88.822753 12.361171
vt -89.052715 12.591134
vt -88.775213 12.482921
vt -88.775213 12.482921
vt -88.775213 12.412725
vt -88.775487 12.412605
vt -88.775487 12.412605
vt -88.822753 12.361171
vt -88.775213 12.482921
vt -88.978177 12.313632
vt -89.300244 12.687658
vt -89.052715 12.591134
vt -88.831306 12.351864
vt -88.844304 12.313632
vt -88.978177 12.313632
vt -89.052715 12.591134
vt -88.822753 12.361171
vt -88.978177 12.313632
vt -88.831306 12.351864
vt -88.978177 12.313632
vt -88.822753 12.361171
vt -88.753940 12.474626
vt -88.617409 12.445381
vt -88.699902 12.445652
vt -88.775213 12.412725
vt -88.775213 12.482921
vt -88.753940 12.474626
vt -88.753940 12.474626
vt -88.699902 12.445652
vt -88.775213 12.412725
vt -88.810855 12.119315
vt -88.968798 12.302739
vt -88.850633 12.191584
vt -88.978177 12.313632
vt -88.844304 12.313632
vt -88.968798 12.302739
vt -88.850633 12.191584
vt -88.968798 12.302739
vt -88.857860 12.273761
vt -88.857860 12.273761
vt -88.968798 12.302739
vt -88.844304 12.313632
vt -94.206483 11.075735
vt -94.237705 11.100248
vt -94.220872 11.089548
vt -91.613436 8.583560
vt -91.632457 8.604611
vt -91.622198 8.594762
vt -85.914297 8.755454
vt -85.835176 8.699534
vt -85.881717 8.717618
vt -89.974121 6.461011
vt -90.010167 6.533954
vt -89.878277 6.365347
vt -89.954537 6.313632
vt -89.995025 6.313632
vt -89.970111 6.379747
vt -89.974121 6.461011
vt -89.878277 6.365347
vt -89.970111 6.379747
vt -89.954537 6.313632
vt -89.970111 6.379747
vt -89.878277 6.365347
vt -82.786755 4.325174
vt -83.090870 4.629288
vt -82.954634 4.576353
vt -82.775213 4.506639
vt -82.775213 4.347961
vt -82.954634 4.576353
vt -82.786755 4.325174
vt -82.954634 4.576353
vt -82.775213 4.347961
vt -82.910344 4.313632
vt -83.128030 4.643727
vt -83.090870 4.629288
vt -82.786755 4.325174
vt -82.792601 4.313632
vt -82.910344 4.313632
vt -82.910344 4.313632
vt -83.090870 4.629288
vt -82.786755 4.325174
vt -82.775213 4.506639
vt -82.543236 4.416503
vt -82.625693 4.429830
vt -82.771286 4.355715
vt -82.775213 4.347961
vt -82.775213 4.506639
vt -82.775213 4.506639
vt -82.625693 4.429830
vt -82.706403 4.408316
vt -82.706403 4.408316
vt -82.771286 4.355715
vt -82.775213 4.506639
vt -82.813044 4.197770
vt -82.782634 4.119975
vt -82.910344 4.313632
vt -82.910344 4.313632
vt -82.792601 4.313632
vt -82.809028 4.281201
vt -82.809028 4.281201
vt -82.813044 4.197770
vt -82.910344 4.313632
vt -80.526353 3.632803
vt -80.529664 3.634123
vt -80.528003 3.633478
vt -87.295177 2.721407
vt -87.305227 2.737950
vt -87.299801 2.729922
vt -85.919622 0.184357
vt -85.931272 0.209950
vt -85.924545 0.197564
vt -49.605021 -9.913399
vt -49.620890 -9.921319
vt -49.613131 -9.917007
vt -53.639739 -12.155176
vt -53.600955 -12.133619
vt -53.634393 -12.160523
vt -53.653750 -12.176098
vt -53.689329 -12.233767
vt -53.662881 -12.168040
vt -53.639739 -12.155176
vt -53.634393 -12.160523
vt -53.653750 -12.176098
vt -53.653750 -12.176098
vt -53.662881 -12.168040
vt -53.639739 -12.155176
vt -55.763387 -17.387963
vt -55.766513 -17.396257
vt -55.765042 -17.392075
f 3/3 2/2 1/1
f 6/6 5/5 4/4
f 9/9 8/8 7/7
f 12/12 11/11 10/10
f 15/15 14/14 13/13
f 18/18 17/17 16/16
f 21/21 20/20 19/19
f 24/24 23/23 22/22
f 27/27 26/26 25/25
f 30/30 29/29 28/28
f 33/33 32/32 31/31
f 36/36 35/35 34/34
f 39/39 38/38 37/37
f 42/42 41/41 40/40
f 45/45 44/44 43/43
f 48/48 47/47 46/46
f 51/51 50/50 49/49
f 54/54 53/53 52/52
f 57/57 56/56 55/55
f 60/60 59/59 58/58
f 63/63 62/62 61/61
f 66/66 65/65 64/64
f 69/69 68/68 67/67
f 72/72 71/71 70/70
f 75/75 74/74 73/73
f 78/78 77/77 76/76
f 81/81 80/80 79/79
f 84/84 83/83 82/82
f 87/87 86/86 85/85
f 90/90 89/89 88/88
f 93/93 92/92 91/91
f 96/96 95/95 94/94
f 99/99 98/98 97/97
f 102/102 101/101 100/100
f 105/105 104/104 103/103
f 108/108 107/107 106/106
f 111/111 110/110 109/109
f 114/114 113/113 112/112
f 117/117 116/116 115/115
f 120/120 119/119 118/118
f 123/123 122/122 121/121
f 126/126 125/125 124/124
f 129/129 128/128 127/127
