# OSM contributors ODbL; elevations USGS 3DEP
# Centimeters, Z up, OBJ Y = negative source ENU Y. Apply source-to-world placement.
o BeltlineConnector_Asphalt_5_14
v 12455.811991 10902.722746 -325.495407
v 12455.811991 10898.029823 -325.385417
v 12452.745049 10901.096765 -325.553140
v 12453.222392 10901.592452 -325.549841
v 12449.791605 10898.029823 -325.573554
v 12522.478658 10931.821040 -323.187972
v 12522.478658 10898.029823 -322.000000
v 12498.954941 10921.553539 -323.745901
v 12589.145325 10935.516793 -321.901835
v 12589.145325 10898.029823 -320.437500
v 12552.351998 10934.823149 -322.593359
v 12528.318686 10934.370062 -323.140711
v 12655.811991 10918.037541 -321.297207
v 12655.811991 10898.029823 -320.437500
v 12622.888440 10930.953374 -321.723576
v 12610.242064 10935.914518 -321.917371
v 12694.787233 10898.029823 -321.350982
v 12686.520434 10905.990690 -321.499298
v 12455.811991 10831.363156 -324.604167
v 12420.040130 10867.135017 -326.141239
v 12389.198397 10831.363156 -326.425632
v 12396.385910 10842.571780 -326.404233
v 12522.478658 10831.363156 -320.697917
v 12589.145325 10831.363156 -318.614583
v 12655.811991 10831.363156 -318.614583
v 12722.478658 10831.363156 -320.177083
v 12722.478658 10871.363180 -321.270834
v 12753.306445 10831.363156 -320.779189
v 12745.541106 10849.154209 -321.113996
v 12389.145325 10764.696489 -325.645833
v 12363.130478 10790.711336 -326.458797
v 12363.148664 10790.739698 -326.458774
v 12389.145325 10831.280392 -326.426113
v 12346.448496 10764.696489 -326.479756
v 12455.811991 10764.696489 -323.822917
v 12389.177661 10831.330820 -326.425820
v 12522.478658 10764.696489 -320.437500
v 12589.145325 10764.696489 -318.354167
v 12655.811991 10764.696489 -318.093750
v 12722.478658 10764.696489 -318.614583
v 12777.183870 10776.657944 -319.322314
v 12778.318716 10774.057914 -319.270242
v 12778.495202 10764.696489 -319.052213
v 12322.478658 10727.316539 -326.801901
v 12322.478658 10698.029823 -326.687500
v 12311.036111 10709.472370 -327.179172
v 12303.698595 10698.029823 -327.274377
v 12389.145325 10698.029823 -325.125000
v 12337.083294 10750.091853 -326.548571
v 12329.911418 10738.907615 -326.672974
v 12455.811991 10698.029823 -323.822917
v 12522.478658 10698.029823 -321.218750
v 12589.145325 10698.029823 -318.875000
v 12655.811991 10698.029823 -317.833333
v 12722.478658 10698.029823 -317.052083
v 12779.571542 10707.603605 -316.607412
v 12779.752032 10698.029823 -316.380911
v 12322.478658 10631.363156 -326.166667
v 12284.988928 10668.852886 -327.631109
v 12296.674172 10687.075532 -327.408310
v 12260.948694 10631.363156 -327.849127
v 12389.145325 10631.363156 -324.864583
v 12455.811991 10631.363156 -323.562500
v 12522.478658 10631.363156 -322.000000
v 12589.145325 10631.363156 -319.916667
v 12655.811991 10631.363156 -317.572917
v 12722.478658 10631.363156 -314.968750
v 12765.355423 10655.153057 -314.707260
v 12779.863172 10692.134536 -316.126295
v 12756.022700 10631.363156 -314.182562
v 12255.811991 10623.352686 -327.927002
v 12255.811991 10564.696489 -327.468750
v 12232.894561 10587.613920 -328.543005
v 12218.196409 10564.696489 -328.791173
v 12230.204793 10583.419341 -328.588411
v 12322.478658 10564.696489 -325.906250
v 12258.941744 10628.233403 -327.891779
v 12389.145325 10564.696489 -324.604167
v 12455.811991 10564.696489 -323.822917
v 12522.478658 10564.696489 -323.041667
v 12589.145325 10564.696489 -321.479167
v 12655.811991 10564.696489 -318.614583
v 12722.478658 10573.032385 -314.968750
v 12719.221759 10567.953388 -315.095973
v 12717.133277 10564.696489 -315.261076
v 12745.268942 10608.572872 -313.811431
v 12749.939344 10615.856166 -313.901121
v 12189.145325 10519.436209 -328.751712
v 12189.145325 10498.029823 -328.250000
v 12180.766296 10506.408851 -328.577306
v 12175.377013 10498.029823 -328.357565
v 12255.811991 10498.029823 -326.947917
v 12206.844552 10546.997262 -329.051986
v 12197.040676 10531.711566 -328.885210
v 12322.478658 10498.029823 -325.906250
v 12389.145325 10498.029823 -324.604167
v 12455.811991 10498.029823 -323.822917
v 12522.478658 10498.029823 -323.562500
v 12589.145325 10498.029823 -321.739583
v 12655.811991 10498.029823 -318.875000
v 12716.702098 10564.024083 -315.287282
v 12693.174575 10527.333905 -316.717265
v 12683.464852 10512.192000 -317.307413
v 12674.383376 10498.029823 -317.859377
v 12189.145325 10431.363156 -326.687500
v 12154.671191 10465.837289 -327.764817
v 12163.805156 10480.038389 -328.026296
v 12132.497873 10431.363156 -326.466221
v 12255.811991 10431.363156 -326.166667
v 12322.478658 10431.363156 -325.385417
v 12389.145325 10431.363156 -324.343750
v 12455.811991 10431.363156 -323.302083
v 12522.478658 10431.363156 -322.781250
v 12589.145325 10431.363156 -321.218750
v 12655.811991 10469.068532 -318.648740
v 12650.227605 10460.359918 -318.820658
v 12641.080209 10446.094939 -319.102265
v 12631.633475 10431.363156 -319.393087
v 12667.127392 10486.714422 -318.344591
v 12122.478658 10415.785705 -325.757740
v 12122.478658 10364.696489 -323.562500
v 12102.480981 10384.694166 -324.578007
v 12089.618734 10364.696489 -324.717732
v 12097.188447 10376.465558 -324.635501
v 12189.145325 10364.696489 -324.864583
v 12128.576086 10425.265728 -326.284175
v 12130.496801 10428.251974 -326.373333
v 12255.811991 10364.696489 -325.645833
v 12322.478658 10364.696489 -325.385417
v 12389.145325 10364.696489 -324.083333
v 12455.811991 10364.696489 -322.781250
v 12522.478658 10364.696489 -322.260417
v 12589.145325 10365.104680 -320.959928
v 12588.985841 10364.855973 -320.962694
v 12588.883573 10364.696489 -320.963446
v 12615.033025 10405.475455 -320.106388
v 12616.990359 10408.527835 -320.022284
v 12055.811991 10312.135201 -327.343473
v 12055.811991 10298.029823 -327.729167
v 12050.290771 10303.551043 -328.095810
v 12046.739594 10298.029823 -328.544265
v 12122.478658 10298.029823 -324.343750
v 12076.385876 10344.122604 -325.424050
v 12063.880092 10324.679142 -326.590766
v 12189.145325 10298.029823 -324.343750
v 12255.811991 10298.029823 -325.645833
v 12322.478658 10298.029823 -325.125000
v 12389.145325 10298.029823 -323.822917
v 12455.811991 10298.029823 -322.000000
v 12522.478658 10298.029823 -321.479167
v 12562.936141 10324.239006 -321.470231
v 12583.742886 10356.679805 -321.063850
v 12550.500966 10304.850724 -321.340175
v 12550.355443 10304.624152 -321.338657
v 12546.114055 10298.029823 -321.294515
v 12055.811991 10231.363156 -331.375000
v 12024.195666 10262.979481 -332.486511
v 12030.571738 10272.892726 -331.371531
v 12003.860454 10231.363156 -336.042521
v 12122.478658 10231.363156 -325.385417
v 12189.145325 10231.363156 -323.302083
v 12255.811991 10231.363156 -325.125000
v 12322.478658 10231.363156 -324.604167
v 12389.145325 10231.363156 -323.041667
v 12455.811991 10231.363156 -320.958333
v 12522.478658 10261.282510 -320.904990
v 12517.047088 10252.837736 -320.815474
v 12510.767428 10243.074386 -320.711982
v 12503.234916 10231.363156 -320.587842
v 12536.862533 10283.645948 -321.198232
v 11989.145325 10210.134765 -338.193817
v 11989.145325 10164.696489 -339.968750
v 11970.232260 10183.609554 -340.929179
v 11956.746825 10164.696489 -342.246770
v 12055.811991 10164.696489 -332.677083
v 11997.981354 10222.527127 -336.743300
v 11999.981303 10225.332016 -336.508834
v 12122.478658 10164.696489 -325.385417
v 12189.145325 10164.696489 -321.739583
v 12255.811991 10164.696489 -323.562500
v 12322.478658 10164.696489 -323.822917
v 12389.145325 10164.696489 -322.000000
v 12455.811991 10164.696489 -319.916667
v 12484.672323 10202.502825 -320.281919
v 12483.738734 10201.051320 -320.266533
v 12460.355776 10164.696489 -319.881168
v 11922.478658 10116.636042 -342.778889
v 11922.478658 10098.029823 -342.052083
v 11914.734072 10105.774408 -343.080661
v 11909.212011 10098.029823 -343.451300
v 11989.145325 10098.029823 -336.843750
v 11942.483166 10144.691981 -342.311972
v 11926.276677 10121.962690 -342.690241
v 12055.811991 10098.029823 -331.895833
v 12122.478658 10098.029823 -326.687500
v 12189.145325 10098.029823 -321.479167
v 12255.811991 10098.029823 -322.260417
v 12322.478658 10098.029823 -322.781250
v 12389.145325 10098.029823 -320.958333
v 12455.811991 10157.632006 -319.806284
v 12450.430379 10149.264904 -319.843724
v 12432.482113 10121.359701 -319.968588
v 12417.476636 10098.029823 -320.072980
v 12458.577218 10161.931263 -319.841055
v 11922.478658 10031.363156 -339.968750
v 11886.984978 10066.856836 -344.821402
v 11887.965915 10068.232581 -344.760935
v 11861.677196 10031.363156 -346.856416
v 11989.145325 10031.363156 -335.281250
v 12055.811991 10031.363156 -332.156250
v 12122.478658 10031.363156 -328.510417
v 12189.145325 10031.363156 -322.520833
v 12255.811991 10031.363156 -321.218750
v 12322.478658 10031.363156 -321.739583
v 12389.145325 10053.981503 -320.098015
v 12383.813670 10045.692073 -320.081899
v 12380.291903 10040.216578 -320.071254
v 12374.597496 10031.363156 -320.110870
v 12406.387008 10080.788140 -320.082779
v 11855.811991 9964.696489 -344.135417
v 11831.486790 9989.021690 -349.266514
v 11849.655154 10014.502472 -347.650683
v 11855.811991 10023.137318 -347.103115
v 11814.142382 9964.696489 -351.622925
v 11922.478658 9964.696489 -337.625000
v 11859.235884 10027.939263 -347.012599
v 11989.145325 9964.696489 -335.541667
v 12055.811991 9964.696489 -333.979167
v 12122.478658 9964.696489 -329.291667
v 12189.145325 9964.696489 -322.260417
v 12255.811991 9964.696489 -319.395833
v 12322.478658 9964.696489 -320.177083
v 12354.196798 9999.645016 -320.128897
v 12350.505316 9993.905657 -320.095319
v 12346.963706 9990.238033 -320.106200
v 12344.870500 9985.589060 -320.054476
v 12329.973633 9964.696489 -319.972143
v 11789.145325 9929.638595 -354.471245
v 11789.145325 9898.029823 -352.989583
v 11775.988603 9911.186545 -355.867616
v 11766.607568 9898.029823 -357.303451
v 11855.811991 9898.029823 -341.270833
v 11803.737697 9950.104117 -352.865501
v 11811.344393 9960.772364 -351.957073
v 11922.478658 9898.029823 -336.062500
v 11989.145325 9898.029823 -335.541667
v 12055.811991 9898.029823 -335.020833
v 12122.478658 9898.029823 -329.812500
v 12189.145325 9898.029823 -321.739583
v 12255.811991 9898.029823 -318.093750
v 12322.478658 9954.184930 -319.889658
v 12306.559739 9931.858951 -319.092632
v 12299.104858 9921.403623 -318.719382
v 12282.438819 9898.029823 -318.197761
v 12326.853952 9960.321196 -319.971991
v 11722.478658 9836.139872 -361.156605
v 11722.478658 9831.363156 -360.802083
v 11720.490415 9833.351399 -361.244778
v 11719.072753 9831.363156 -361.427386
v 11789.145325 9831.363156 -347.781250
v 11748.239509 9872.268972 -358.806646
v 11734.722871 9853.312146 -360.039662
v 11855.811991 9831.363156 -339.708333
v 11922.478658 9831.363156 -337.364583
v 11989.145325 9831.363156 -337.625000
v 12055.811991 9831.363156 -337.364583
v 12122.478658 9831.363156 -330.854167
v 12189.145325 9831.363156 -320.958333
v 12255.811991 9860.686207 -317.510256
v 12243.606670 9843.568477 -317.910270
v 12234.904004 9831.363156 -318.277161
v 12271.355764 9882.486050 -317.790161
v 12268.248978 9878.128842 -317.734215
v 11722.478658 9764.696489 -349.604167
v 11692.741321 9794.433826 -360.058699
v 11696.412109 9799.582037 -360.249504
v 11671.537939 9764.696489 -359.354539
v 11789.145325 9764.696489 -339.968750
v 11855.811991 9764.696489 -338.927083
v 11922.478658 9764.696489 -338.927083
v 11989.145325 9764.696489 -339.447917
v 12055.811991 9764.696489 -337.364583
v 12122.478658 9764.696489 -326.947917
v 12189.145325 9767.187484 -317.448726
v 12188.108482 9765.733332 -317.523109
v 12187.369190 9764.696489 -317.569207
v 12215.857576 9804.650905 -318.558405
v 11655.811991 9742.641149 -359.435358
v 11655.811991 9698.029823 -353.510417
v 11637.243133 9716.598681 -359.240650
v 11624.003125 9698.029823 -360.717113
v 11722.478658 9698.029823 -339.708333
v 11664.992227 9755.516254 -359.244738
v 11658.101348 9745.851928 -359.387822
v 11789.145325 9698.029823 -335.281250
v 11855.811991 9698.029823 -338.666667
v 11922.478658 9698.029823 -340.489583
v 11989.145325 9698.029823 -340.229167
v 12055.811991 9698.029823 -334.239583
v 12122.478658 9698.029823 -322.520833
v 12160.359388 9726.815759 -320.141223
v 12153.316694 9716.938516 -320.283117
v 12139.834376 9698.029823 -320.554756
v 11589.145325 9649.142426 -365.177188
v 11589.145325 9631.363156 -363.927083
v 11581.744945 9638.763535 -365.979532
v 11576.468310 9631.363156 -366.898259
v 11655.811991 9631.363156 -348.041667
v 11609.494039 9677.681108 -362.335097
v 11619.790587 9692.121819 -361.186875
v 11722.478658 9631.363156 -337.364583
v 11789.145325 9631.363156 -336.583333
v 11855.811991 9631.363156 -340.229167
v 11922.478658 9631.363156 -342.312500
v 11989.145325 9631.363156 -340.229167
v 12055.811991 9631.363156 -331.114583
v 12122.478658 9673.688761 -322.330669
v 12115.005933 9663.208407 -323.562356
v 12104.861200 9648.980614 -325.234455
v 12092.299562 9631.363156 -326.126048
v 12132.610294 9687.898186 -321.491839
v 11589.145325 9564.696489 -350.645833
v 11553.995851 9599.845963 -365.886425
v 11528.933496 9564.696489 -366.639600
v 11655.811991 9564.696489 -340.750000
v 11722.478658 9564.696489 -338.666667
v 11789.145325 9564.696489 -339.968750
v 11855.811991 9564.696489 -342.312500
v 11922.478658 9564.696489 -343.614583
v 11989.145325 9564.696489 -339.187500
v 12055.811991 9580.190038 -331.314478
v 12049.363012 9571.145468 -332.231505
v 12044.764747 9564.696489 -332.669599
v 12077.112106 9610.063041 -328.868087
v 12076.695172 9609.478298 -328.915973
v 11522.478658 9498.029823 -354.031250
v 11498.497663 9522.010817 -365.366017
v 11504.858303 9530.931493 -365.642716
v 11522.478658 9555.643703 -366.409232
v 11481.398682 9498.029823 -366.226868
v 11589.145325 9498.029823 -340.489583
v 11526.246757 9560.928390 -366.779219
v 11655.811991 9498.029823 -338.666667
v 11722.478658 9498.029823 -341.531250
v 11789.145325 9498.029823 -343.354167
v 11855.811991 9498.029823 -345.437500
v 11922.478658 9498.029823 -344.135417
v 11989.145325 9498.029823 -336.322917
v 12021.613919 9532.227895 -334.494774
v 12000.073649 9502.018081 -335.384379
v 11997.229933 9498.029823 -335.501824
v 11455.811991 9462.144980 -365.132056
v 11455.811991 9431.363156 -357.677083
v 11442.999476 9444.175672 -363.833097
v 11433.863867 9431.363156 -364.278668
v 11522.478658 9431.363156 -342.312500
v 11470.748570 9483.093244 -366.763050
v 11466.547542 9477.201384 -366.304320
v 11589.145325 9431.363156 -337.885417
v 11655.811991 9431.363156 -340.750000
v 11722.478658 9431.363156 -344.395833
v 11789.145325 9431.363156 -346.739583
v 11855.811991 9431.363156 -347.781250
v 11922.478658 9431.363156 -341.791667
v 11989.145325 9486.691314 -335.304223
v 11966.115731 9454.392750 -335.101179
v 11961.762888 9448.287972 -335.634703
v 11949.695119 9431.363156 -337.113838
v 11993.864825 9493.310323 -335.511753
v 11389.145325 9371.436068 -366.492838
v 11389.145325 9364.696489 -365.229167
v 11386.221043 9367.620771 -366.257234
v 11383.979692 9364.696489 -366.076653
v 11455.811991 9364.696489 -349.864583
v 11414.840842 9405.667639 -366.989244
v 11429.646272 9425.448060 -364.854066
v 11392.282168 9375.528694 -366.537261
v 11522.478658 9364.696489 -339.708333
v 11589.145325 9364.696489 -339.187500
v 11655.811991 9364.696489 -343.354167
v 11722.478658 9364.696489 -347.000000
v 11789.145325 9364.696489 -349.083333
v 11855.811991 9364.696489 -346.218750
v 11922.478658 9393.192591 -338.362280
v 11910.617543 9376.557604 -337.933377
v 11902.160304 9364.696489 -338.976826
v 11938.366637 9415.475177 -337.385235
v 11923.452127 9394.557863 -338.302416
v 11389.145325 9298.029823 -355.072917
v 11357.294592 9329.880555 -365.150687
v 11332.882208 9298.029823 -361.886028
v 11352.868190 9324.105447 -364.558746
v 11455.811991 9298.029823 -347.520833
v 11522.478658 9298.029823 -342.312500
v 11589.145325 9298.029823 -343.354167
v 11655.811991 9298.029823 -346.218750
v 11722.478658 9298.029823 -349.343750
v 11789.145325 9298.029823 -348.562500
v 11855.811991 9299.693868 -340.886504
v 11855.119355 9298.722459 -340.836580
v 11854.625490 9298.029823 -340.889043
v 11885.141366 9340.827754 -337.999783
v 11882.868449 9337.640032 -337.869296
v 11322.478658 9284.456356 -360.653830
v 11322.478658 9231.363156 -350.906250
v 11299.441690 9254.400124 -357.475385
v 11281.784724 9231.363156 -355.039228
v 11389.145325 9231.363156 -345.697917
v 11328.368141 9292.140339 -361.604445
v 11455.811991 9231.363156 -343.093750
v 11522.478658 9231.363156 -343.614583
v 11589.145325 9231.363156 -345.697917
v 11655.811991 9231.363156 -349.083333
v 11722.478658 9231.363156 -349.604167
v 11789.145325 9231.363156 -344.135417
v 11827.370261 9259.804886 -338.856950
v 11808.519843 9233.367536 -340.635798
v 11807.090676 9231.363156 -340.770663
v 11255.811991 9197.476643 -353.308900
v 11255.811991 9164.696489 -349.083333
v 11241.588789 9178.919692 -352.639134
v 11230.687241 9164.696489 -352.910932
v 11232.437795 9166.980430 -352.867287
v 11322.478658 9164.696489 -344.656250
v 11270.515240 9216.659908 -354.805355
v 11272.581260 9219.355436 -354.848231
v 11389.145325 9164.696489 -343.614583
v 11455.811991 9164.696489 -344.135417
v 11522.478658 9164.696489 -345.177083
v 11589.145325 9164.696489 -347.781250
v 11655.811991 9164.696489 -349.864583
v 11722.478658 9164.696489 -345.958333
v 11789.145325 9206.195145 -340.989415
v 11771.872073 9181.969741 -339.378186
v 11770.209082 9179.637428 -339.503984
v 11767.344775 9175.716973 -339.725944
v 11759.096062 9164.696489 -340.379901
v 11799.621167 9220.887313 -340.288818
v 11189.145325 9110.496931 -358.180998
v 11189.145325 9098.029823 -357.937500
v 11183.735887 9103.439260 -358.972900
v 11179.589757 9098.029823 -359.355905
v 11255.811991 9098.029823 -348.562500
v 11212.662338 9141.179476 -355.473187
v 11192.294330 9114.605424 -357.818413
v 11322.478658 9098.029823 -345.437500
v 11389.145325 9098.029823 -345.437500
v 11455.811991 9098.029823 -345.697917
v 11522.478658 9098.029823 -347.000000
v 11589.145325 9098.029823 -349.083333
v 11655.811991 9098.029823 -347.000000
v 11722.478658 9115.919162 -341.194922
v 11714.716532 9105.791949 -340.660749
v 11708.767155 9098.029823 -341.001173
v 11743.420969 9143.754178 -340.068308
v 11727.807284 9122.893909 -340.897748
v 11726.359226 9120.982122 -340.976904
v 11189.145325 9031.363156 -356.895833
v 11154.809436 9065.699045 -362.529065
v 11128.492273 9031.363156 -363.529761
v 11152.150865 9062.230419 -362.630156
v 11255.811991 9031.363156 -349.604167
v 11322.478658 9031.363156 -347.260417
v 11389.145325 9031.363156 -346.739583
v 11455.811991 9031.363156 -346.479167
v 11522.478658 9031.363156 -348.302083
v 11589.145325 9031.363156 -348.041667
v 11655.811991 9031.363156 -342.052083
v 11685.790081 9068.051733 -340.442293
v 11657.669671 9031.363156 -341.783591
v 11122.478658 9023.517218 -363.666481
v 11122.478658 8964.696489 -359.760417
v 11096.956534 8990.218613 -363.548857
v 11077.394790 8964.696489 -363.282594
v 11189.145325 8964.696489 -354.552083
v 11125.882985 9027.958829 -363.695468
v 11255.811991 8964.696489 -350.125000
v 11322.478658 8964.696489 -347.781250
v 11389.145325 8964.696489 -346.218750
v 11455.811991 8964.696489 -345.958333
v 11522.478658 8964.696489 -348.562500
v 11589.145325 8964.696489 -344.916667
v 11655.811991 9028.939449 -341.777523
v 11646.072296 9016.232111 -341.213070
v 11627.937179 8992.571302 -340.162071
v 11606.572187 8964.696489 -342.193719
v 11656.863630 9030.311518 -341.743986
v 11055.811991 8936.537506 -364.198778
v 11055.811991 8898.029823 -363.145833
v 11039.103632 8914.738182 -364.973310
v 11026.297306 8898.029823 -365.336376
v 11122.478658 8898.029823 -357.937500
v 11068.030083 8952.478397 -363.680123
v 11071.863935 8957.480407 -363.517377
v 11189.145325 8898.029823 -352.208333
v 11255.811991 8898.029823 -348.041667
v 11322.478658 8898.029823 -347.000000
v 11389.145325 8898.029823 -345.697917
v 11455.811991 8898.029823 -344.395833
v 11522.478658 8898.029823 -342.833333
v 11589.145325 8941.959737 -341.541680
v 11570.084277 8917.090870 -338.892609
v 11565.785366 8911.482099 -338.914384
v 11555.474704 8898.029823 -338.966609
v 11605.928831 8963.857105 -342.136859
v 11599.010728 8954.831086 -341.525434
v 10989.145325 8849.557793 -366.768343
v 10989.145325 8831.363156 -366.270833
v 10981.250731 8839.257750 -366.887598
v 10975.199822 8831.363156 -366.761105
v 11055.811991 8831.363156 -362.104167
v 11010.177181 8876.997966 -366.204169
v 10991.577005 8852.730395 -366.703114
v 11122.478658 8831.363156 -356.635417
v 11189.145325 8831.363156 -350.645833
v 11255.811991 8831.363156 -347.520833
v 11322.478658 8831.363156 -346.218750
v 11389.145325 8831.363156 -343.875000
v 11455.811991 8831.363156 -339.968750
v 11522.478658 8854.980024 -336.947619
v 11512.231375 8841.610439 -335.359916
v 11504.377220 8831.363156 -335.415760
v 11541.157826 8879.350654 -337.725748
v 11525.641901 8859.107093 -337.079392
v 10989.145325 8764.696489 -363.145833
v 10952.324280 8801.517534 -366.166310
v 10924.102338 8764.696489 -364.924352
v 11055.811991 8764.696489 -359.760417
v 11122.478658 8764.696489 -355.072917
v 11189.145325 8764.696489 -350.645833
v 11255.811991 8764.696489 -347.000000
v 11322.478658 8764.696489 -343.614583
v 11389.145325 8764.696489 -340.489583
v 11455.811991 8768.000312 -332.790928
v 11454.378473 8766.130007 -332.663053
v 11453.279736 8764.696489 -332.723307
v 11483.304924 8803.870223 -332.665940
v 10922.478658 8698.029823 -362.625000
v 10894.471378 8726.037103 -363.937841
v 10911.290075 8747.980384 -364.512191
v 10922.478658 8762.578080 -364.894275
v 10873.004855 8698.029823 -363.398028
v 10989.145325 8698.029823 -360.020833
v 10923.397829 8763.777319 -364.900530
v 11055.811991 8698.029823 -356.375000
v 11122.478658 8698.029823 -352.729167
v 11189.145325 8698.029823 -348.562500
v 11255.811991 8698.029823 -344.135417
v 11322.478658 8698.029823 -340.489583
v 11389.145325 8698.029823 -334.239583
v 11445.354971 8754.357082 -331.784696
v 11425.452023 8728.389791 -329.427386
v 11405.211506 8701.982076 -331.221147
v 11402.182252 8698.029823 -331.489606
v 10855.811991 8664.467118 -362.880041
v 10855.811991 8631.363156 -362.104167
v 10844.888704 8642.286444 -362.488188
v 10839.509326 8631.363156 -362.295214
v 10922.478658 8631.363156 -361.062500
v 10866.886650 8686.955164 -363.234063
v 10871.146610 8695.605378 -363.370240
v 10989.145325 8631.363156 -358.197917
v 11055.811991 8631.363156 -354.291667
v 11122.478658 8631.363156 -350.125000
v 11189.145325 8631.363156 -345.958333
v 11255.811991 8631.363156 -341.791667
v 11322.478658 8631.363156 -336.583333
v 11389.145325 8681.020599 -331.581892
v 11367.599121 8652.909360 -329.209468
v 11365.068041 8649.607070 -329.500439
v 11351.084769 8631.363156 -331.107945
v 11396.525572 8690.649576 -331.126042
v 10855.811991 8564.696489 -361.322917
v 10832.716638 8587.791843 -361.864214
v 10834.946407 8622.097756 -362.240106
v 10831.215517 8564.696489 -361.611157
v 10922.478658 8564.696489 -359.760417
v 10989.145325 8564.696489 -356.375000
v 11055.811991 8564.696489 -351.427083
v 11122.478658 8564.696489 -347.000000
v 11189.145325 8564.696489 -343.093750
v 11255.811991 8564.696489 -338.927083
v 11322.478658 8594.040887 -332.209630
v 11309.746219 8577.428928 -331.257638
v 11299.987285 8564.696489 -332.197253
v 11338.672670 8615.169144 -330.131032
v 10855.811991 8498.029823 -360.541667
v 10837.939723 8515.902091 -360.960548
v 10829.631930 8540.332350 -361.344197
v 10844.017395 8498.029823 -360.541667
v 10922.478658 8498.029823 -358.979167
v 10989.145325 8498.029823 -353.770833
v 11055.811991 8498.029823 -348.562500
v 11122.478658 8498.029823 -344.395833
v 11189.145325 8498.029823 -340.750000
v 11255.811991 8507.061174 -334.199186
v 11251.893317 8501.948497 -334.024704
v 11248.889801 8498.029823 -334.215448
v 11284.781110 8544.857059 -330.948921
v 11280.819768 8539.688713 -330.623720
v 10855.811991 8463.346120 -359.186835
v 10922.478658 8431.363156 -356.114583
v 10883.574355 8431.363156 -357.178373
v 10856.012259 8462.757203 -359.158354
v 10989.145325 8431.363156 -351.427083
v 11055.811991 8431.363156 -345.958333
v 11122.478658 8431.363156 -341.531250
v 11189.145325 8431.363156 -335.802083
v 11222.966866 8464.208281 -331.237691
v 11204.494180 8440.107047 -333.273351
v 11194.534628 8431.363156 -334.686329
v 10922.478658 8395.072157 -353.988158
v 10910.071229 8401.182427 -354.685447
v 10989.145325 8364.696489 -348.041667
v 10987.975007 8364.696489 -348.114811
v 10983.578852 8364.982225 -348.406314
v 11055.811991 8364.696489 -343.354167
v 11122.478658 8379.096964 -338.468778
v 11111.732529 8375.442618 -338.968266
v 11080.131995 8364.696489 -341.264166
v 11189.145325 8426.631670 -335.062789
v 11156.164945 8397.676869 -333.372852
v 11142.919405 8386.048077 -335.123276
v 11191.664833 8428.843648 -334.719482
v 10989.145325 8364.620423 -348.038398
v 11055.811991 8360.287313 -343.164710
v 10989.226679 8364.615135 -348.032451
v 11060.527671 8359.980810 -342.433135
v 11065.344258 8359.667748 -341.984969
vt 62.279060 -54.513614
vt 62.279060 -54.490149
vt 62.263725 -54.505484
vt 62.266112 -54.507962
vt 62.248958 -54.490149
vt 62.612393 -54.659105
vt 62.612393 -54.490149
vt 62.494775 -54.607768
vt 62.945727 -54.677584
vt 62.945727 -54.490149
vt 62.761760 -54.674116
vt 62.641593 -54.671850
vt 63.279060 -54.590188
vt 63.279060 -54.490149
vt 63.114442 -54.654767
vt 63.051210 -54.679573
vt 63.473936 -54.490149
vt 63.432602 -54.529953
vt 62.279060 -54.156816
vt 62.100201 -54.335675
vt 61.945992 -54.156816
vt 61.981930 -54.212859
vt 62.612393 -54.156816
vt 62.945727 -54.156816
vt 63.279060 -54.156816
vt 63.612393 -54.156816
vt 63.612393 -54.356816
vt 63.766532 -54.156816
vt 63.727706 -54.245771
vt 61.945727 -53.823482
vt 61.815652 -53.953557
vt 61.815743 -53.953698
vt 61.945727 -54.156402
vt 61.732242 -53.823482
vt 62.279060 -53.823482
vt 61.945888 -54.156654
vt 62.612393 -53.823482
vt 62.945727 -53.823482
vt 63.279060 -53.823482
vt 63.612393 -53.823482
vt 63.885919 -53.883290
vt 63.891594 -53.870290
vt 63.892476 -53.823482
vt 61.612393 -53.636583
vt 61.612393 -53.490149
vt 61.555181 -53.547362
vt 61.518493 -53.490149
vt 61.945727 -53.490149
vt 61.685416 -53.750459
vt 61.649557 -53.694538
vt 62.279060 -53.490149
vt 62.612393 -53.490149
vt 62.945727 -53.490149
vt 63.279060 -53.490149
vt 63.612393 -53.490149
vt 63.897858 -53.538018
vt 63.898760 -53.490149
vt 61.612393 -53.156816
vt 61.424945 -53.344264
vt 61.483371 -53.435378
vt 61.304743 -53.156816
vt 61.945727 -53.156816
vt 62.279060 -53.156816
vt 62.612393 -53.156816
vt 62.945727 -53.156816
vt 63.279060 -53.156816
vt 63.612393 -53.156816
vt 63.826777 -53.275765
vt 63.899316 -53.460673
vt 63.780114 -53.156816
vt 61.279060 -53.116763
vt 61.279060 -52.823482
vt 61.164473 -52.938070
vt 61.090982 -52.823482
vt 61.151024 -52.917097
vt 61.612393 -52.823482
vt 61.294709 -53.141167
vt 61.945727 -52.823482
vt 62.279060 -52.823482
vt 62.612393 -52.823482
vt 62.945727 -52.823482
vt 63.279060 -52.823482
vt 63.612393 -52.865162
vt 63.596109 -52.839767
vt 63.585666 -52.823482
vt 63.726345 -53.042864
vt 63.749697 -53.079281
vt 60.945727 -52.597181
vt 60.945727 -52.490149
vt 60.903831 -52.532044
vt 60.876885 -52.490149
vt 61.279060 -52.490149
vt 61.034223 -52.734986
vt 60.985203 -52.658558
vt 61.612393 -52.490149
vt 61.945727 -52.490149
vt 62.279060 -52.490149
vt 62.612393 -52.490149
vt 62.945727 -52.490149
vt 63.279060 -52.490149
vt 63.583510 -52.820120
vt 63.465873 -52.636670
vt 63.417324 -52.560960
vt 63.371917 -52.490149
vt 60.945727 -52.156816
vt 60.773356 -52.329186
vt 60.819026 -52.400192
vt 60.662489 -52.156816
vt 61.279060 -52.156816
vt 61.612393 -52.156816
vt 61.945727 -52.156816
vt 62.279060 -52.156816
vt 62.612393 -52.156816
vt 62.945727 -52.156816
vt 63.279060 -52.345343
vt 63.251138 -52.301800
vt 63.205401 -52.230475
vt 63.158167 -52.156816
vt 63.335637 -52.433572
vt 60.612393 -52.078929
vt 60.612393 -51.823482
vt 60.512405 -51.923471
vt 60.448094 -51.823482
vt 60.485942 -51.882328
vt 60.945727 -51.823482
vt 60.642880 -52.126329
vt 60.652484 -52.141260
vt 61.279060 -51.823482
vt 61.612393 -51.823482
vt 61.945727 -51.823482
vt 62.279060 -51.823482
vt 62.612393 -51.823482
vt 62.945727 -51.825523
vt 62.944929 -51.824280
vt 62.944418 -51.823482
vt 63.075165 -52.027377
vt 63.084952 -52.042639
vt 60.279060 -51.560676
vt 60.279060 -51.490149
vt 60.251454 -51.517755
vt 60.233698 -51.490149
vt 60.612393 -51.490149
vt 60.381929 -51.720613
vt 60.319400 -51.623396
vt 60.945727 -51.490149
vt 61.279060 -51.490149
vt 61.612393 -51.490149
vt 61.945727 -51.490149
vt 62.279060 -51.490149
vt 62.612393 -51.490149
vt 62.814681 -51.621195
vt 62.918714 -51.783399
vt 62.752505 -51.524254
vt 62.751777 -51.523121
vt 62.730570 -51.490149
vt 60.279060 -51.156816
vt 60.120978 -51.314897
vt 60.152859 -51.364464
vt 60.019302 -51.156816
vt 60.612393 -51.156816
vt 60.945727 -51.156816
vt 61.279060 -51.156816
vt 61.612393 -51.156816
vt 61.945727 -51.156816
vt 62.279060 -51.156816
vt 62.612393 -51.306413
vt 62.585235 -51.264189
vt 62.553837 -51.215372
vt 62.516175 -51.156816
vt 62.684313 -51.418230
vt 59.945727 -51.050674
vt 59.945727 -50.823482
vt 59.851161 -50.918048
vt 59.783734 -50.823482
vt 60.279060 -50.823482
vt 59.989907 -51.112636
vt 59.999907 -51.126660
vt 60.612393 -50.823482
vt 60.945727 -50.823482
vt 61.279060 -50.823482
vt 61.612393 -50.823482
vt 61.945727 -50.823482
vt 62.279060 -50.823482
vt 62.423362 -51.012514
vt 62.418694 -51.005257
vt 62.301779 -50.823482
vt 59.612393 -50.583180
vt 59.612393 -50.490149
vt 59.573670 -50.528872
vt 59.546060 -50.490149
vt 59.945727 -50.490149
vt 59.712416 -50.723460
vt 59.631383 -50.609813
vt 60.279060 -50.490149
vt 60.612393 -50.490149
vt 60.945727 -50.490149
vt 61.279060 -50.490149
vt 61.612393 -50.490149
vt 61.945727 -50.490149
vt 62.279060 -50.788160
vt 62.252152 -50.746325
vt 62.162411 -50.606799
vt 62.087383 -50.490149
vt 62.292886 -50.809656
vt 59.612393 -50.156816
vt 59.434925 -50.334284
vt 59.439830 -50.341163
vt 59.308386 -50.156816
vt 59.945727 -50.156816
vt 60.279060 -50.156816
vt 60.612393 -50.156816
vt 60.945727 -50.156816
vt 61.279060 -50.156816
vt 61.612393 -50.156816
vt 61.945727 -50.269908
vt 61.919068 -50.228460
vt 61.901460 -50.201083
vt 61.872987 -50.156816
vt 62.031935 -50.403941
vt 59.279060 -49.823482
vt 59.157434 -49.945108
vt 59.248276 -50.072512
vt 59.279060 -50.115687
vt 59.070712 -49.823482
vt 59.612393 -49.823482
vt 59.296179 -50.139696
vt 59.945727 -49.823482
vt 60.279060 -49.823482
vt 60.612393 -49.823482
vt 60.945727 -49.823482
vt 61.279060 -49.823482
vt 61.612393 -49.823482
vt 61.770984 -49.998225
vt 61.752527 -49.969528
vt 61.734819 -49.951190
vt 61.724353 -49.927945
vt 61.649868 -49.823482
vt 58.945727 -49.648193
vt 58.945727 -49.490149
vt 58.879943 -49.555933
vt 58.833038 -49.490149
vt 59.279060 -49.490149
vt 59.018688 -49.750521
vt 59.056722 -49.803862
vt 59.612393 -49.490149
vt 59.945727 -49.490149
vt 60.279060 -49.490149
vt 60.612393 -49.490149
vt 60.945727 -49.490149
vt 61.279060 -49.490149
vt 61.612393 -49.770925
vt 61.532799 -49.659295
vt 61.495524 -49.607018
vt 61.412194 -49.490149
vt 61.634270 -49.801606
vt 58.612393 -49.180699
vt 58.612393 -49.156816
vt 58.602452 -49.166757
vt 58.595364 -49.156816
vt 58.945727 -49.156816
vt 58.741198 -49.361345
vt 58.673614 -49.266561
vt 59.279060 -49.156816
vt 59.612393 -49.156816
vt 59.945727 -49.156816
vt 60.279060 -49.156816
vt 60.612393 -49.156816
vt 60.945727 -49.156816
vt 61.279060 -49.303431
vt 61.218033 -49.217842
vt 61.174520 -49.156816
vt 61.356779 -49.412430
vt 61.341245 -49.390644
vt 58.612393 -48.823482
vt 58.463707 -48.972169
vt 58.482061 -48.997910
vt 58.357690 -48.823482
vt 58.945727 -48.823482
vt 59.279060 -48.823482
vt 59.612393 -48.823482
vt 59.945727 -48.823482
vt 60.279060 -48.823482
vt 60.612393 -48.823482
vt 60.945727 -48.835937
vt 60.940542 -48.828667
vt 60.936846 -48.823482
vt 61.079288 -49.023255
vt 58.279060 -48.713206
vt 58.279060 -48.490149
vt 58.186216 -48.582993
vt 58.120016 -48.490149
vt 58.612393 -48.490149
vt 58.324961 -48.777581
vt 58.290507 -48.729260
vt 58.945727 -48.490149
vt 59.279060 -48.490149
vt 59.612393 -48.490149
vt 59.945727 -48.490149
vt 60.279060 -48.490149
vt 60.612393 -48.490149
vt 60.801797 -48.634079
vt 60.766583 -48.584693
vt 60.699172 -48.490149
vt 57.945727 -48.245712
vt 57.945727 -48.156816
vt 57.908725 -48.193818
vt 57.882342 -48.156816
vt 58.279060 -48.156816
vt 58.047470 -48.388406
vt 58.098953 -48.460609
vt 58.612393 -48.156816
vt 58.945727 -48.156816
vt 59.279060 -48.156816
vt 59.612393 -48.156816
vt 59.945727 -48.156816
vt 60.279060 -48.156816
vt 60.612393 -48.368444
vt 60.575030 -48.316042
vt 60.524306 -48.244903
vt 60.461498 -48.156816
vt 60.663051 -48.439491
vt 57.945727 -47.823482
vt 57.769979 -47.999230
vt 57.644667 -47.823482
vt 58.279060 -47.823482
vt 58.612393 -47.823482
vt 58.945727 -47.823482
vt 59.279060 -47.823482
vt 59.612393 -47.823482
vt 59.945727 -47.823482
vt 60.279060 -47.900950
vt 60.246815 -47.855727
vt 60.223824 -47.823482
vt 60.385561 -48.050315
vt 60.383476 -48.047391
vt 57.612393 -47.490149
vt 57.492488 -47.610054
vt 57.524292 -47.654657
vt 57.612393 -47.778219
vt 57.406993 -47.490149
vt 57.945727 -47.490149
vt 57.631234 -47.804642
vt 58.279060 -47.490149
vt 58.612393 -47.490149
vt 58.945727 -47.490149
vt 59.279060 -47.490149
vt 59.612393 -47.490149
vt 59.945727 -47.490149
vt 60.108070 -47.661139
vt 60.000368 -47.510090
vt 59.986150 -47.490149
vt 57.279060 -47.310725
vt 57.279060 -47.156816
vt 57.214997 -47.220878
vt 57.169319 -47.156816
vt 57.612393 -47.156816
vt 57.353743 -47.415466
vt 57.332738 -47.386007
vt 57.945727 -47.156816
vt 58.279060 -47.156816
vt 58.612393 -47.156816
vt 58.945727 -47.156816
vt 59.279060 -47.156816
vt 59.612393 -47.156816
vt 59.945727 -47.433457
vt 59.830579 -47.271964
vt 59.808814 -47.241440
vt 59.748476 -47.156816
vt 59.969324 -47.466552
vt 56.945727 -46.857180
vt 56.945727 -46.823482
vt 56.931105 -46.838104
vt 56.919898 -46.823482
vt 57.279060 -46.823482
vt 57.074204 -47.028338
vt 57.148231 -47.127240
vt 56.961411 -46.877643
vt 57.612393 -46.823482
vt 57.945727 -46.823482
vt 58.279060 -46.823482
vt 58.612393 -46.823482
vt 58.945727 -46.823482
vt 59.279060 -46.823482
vt 59.612393 -46.965963
vt 59.553088 -46.882788
vt 59.510802 -46.823482
vt 59.691833 -47.077376
vt 59.617261 -46.972789
vt 56.945727 -46.490149
vt 56.786473 -46.649403
vt 56.664411 -46.490149
vt 56.764341 -46.620527
vt 57.279060 -46.490149
vt 57.612393 -46.490149
vt 57.945727 -46.490149
vt 58.279060 -46.490149
vt 58.612393 -46.490149
vt 58.945727 -46.490149
vt 59.279060 -46.498469
vt 59.275597 -46.493612
vt 59.273127 -46.490149
vt 59.425707 -46.704139
vt 59.414342 -46.688200
vt 56.612393 -46.422282
vt 56.612393 -46.156816
vt 56.497208 -46.272001
vt 56.408924 -46.156816
vt 56.945727 -46.156816
vt 56.641841 -46.460702
vt 57.279060 -46.156816
vt 57.612393 -46.156816
vt 57.945727 -46.156816
vt 58.279060 -46.156816
vt 58.612393 -46.156816
vt 58.945727 -46.156816
vt 59.136851 -46.299024
vt 59.042599 -46.166838
vt 59.035453 -46.156816
vt 56.279060 -45.987383
vt 56.279060 -45.823482
vt 56.207944 -45.894598
vt 56.153436 -45.823482
vt 56.162189 -45.834902
vt 56.612393 -45.823482
vt 56.352576 -46.083300
vt 56.362906 -46.096777
vt 56.945727 -45.823482
vt 57.279060 -45.823482
vt 57.612393 -45.823482
vt 57.945727 -45.823482
vt 58.279060 -45.823482
vt 58.612393 -45.823482
vt 58.945727 -46.030976
vt 58.859360 -45.909849
vt 58.851045 -45.898187
vt 58.836724 -45.878585
vt 58.795480 -45.823482
vt 58.998106 -46.104437
vt 55.945727 -45.552485
vt 55.945727 -45.490149
vt 55.918679 -45.517196
vt 55.897949 -45.490149
vt 56.279060 -45.490149
vt 56.063312 -45.705897
vt 55.961472 -45.573027
vt 56.612393 -45.490149
vt 56.945727 -45.490149
vt 57.279060 -45.490149
vt 57.612393 -45.490149
vt 57.945727 -45.490149
vt 58.279060 -45.490149
vt 58.612393 -45.579596
vt 58.573583 -45.528960
vt 58.543836 -45.490149
vt 58.717105 -45.718771
vt 58.639036 -45.614470
vt 58.631796 -45.604911
vt 55.945727 -45.156816
vt 55.774047 -45.328495
vt 55.642461 -45.156816
vt 55.760754 -45.311152
vt 56.279060 -45.156816
vt 56.612393 -45.156816
vt 56.945727 -45.156816
vt 57.279060 -45.156816
vt 57.612393 -45.156816
vt 57.945727 -45.156816
vt 58.279060 -45.156816
vt 58.428950 -45.340259
vt 58.288348 -45.156816
vt 55.612393 -45.117586
vt 55.612393 -44.823482
vt 55.484783 -44.951093
vt 55.386974 -44.823482
vt 55.945727 -44.823482
vt 55.629415 -45.139794
vt 56.279060 -44.823482
vt 56.612393 -44.823482
vt 56.945727 -44.823482
vt 57.279060 -44.823482
vt 57.612393 -44.823482
vt 57.945727 -44.823482
vt 58.279060 -45.144697
vt 58.230361 -45.081161
vt 58.139686 -44.962857
vt 58.032861 -44.823482
vt 58.284318 -45.151558
vt 55.279060 -44.682688
vt 55.279060 -44.490149
vt 55.195518 -44.573691
vt 55.131487 -44.490149
vt 55.612393 -44.490149
vt 55.340150 -44.762392
vt 55.359320 -44.787402
vt 55.945727 -44.490149
vt 56.279060 -44.490149
vt 56.612393 -44.490149
vt 56.945727 -44.490149
vt 57.279060 -44.490149
vt 57.612393 -44.490149
vt 57.945727 -44.709799
vt 57.850421 -44.585454
vt 57.828927 -44.557410
vt 57.777374 -44.490149
vt 58.029644 -44.819286
vt 57.995054 -44.774155
vt 54.945727 -44.247789
vt 54.945727 -44.156816
vt 54.906254 -44.196289
vt 54.875999 -44.156816
vt 55.279060 -44.156816
vt 55.050886 -44.384990
vt 54.957885 -44.263652
vt 55.612393 -44.156816
vt 55.945727 -44.156816
vt 56.279060 -44.156816
vt 56.612393 -44.156816
vt 56.945727 -44.156816
vt 57.279060 -44.156816
vt 57.612393 -44.274900
vt 57.561157 -44.208052
vt 57.521886 -44.156816
vt 57.705789 -44.396753
vt 57.628210 -44.295535
vt 54.945727 -43.823482
vt 54.761621 -44.007588
vt 54.620512 -43.823482
vt 55.279060 -43.823482
vt 55.612393 -43.823482
vt 55.945727 -43.823482
vt 56.279060 -43.823482
vt 56.612393 -43.823482
vt 56.945727 -43.823482
vt 57.279060 -43.840002
vt 57.271892 -43.830650
vt 57.266399 -43.823482
vt 57.416525 -44.019351
vt 54.612393 -43.490149
vt 54.472357 -43.630186
vt 54.556450 -43.739902
vt 54.612393 -43.812890
vt 54.365024 -43.490149
vt 54.945727 -43.490149
vt 54.616989 -43.818887
vt 55.279060 -43.490149
vt 55.612393 -43.490149
vt 55.945727 -43.490149
vt 56.279060 -43.490149
vt 56.612393 -43.490149
vt 56.945727 -43.490149
vt 57.226775 -43.771785
vt 57.127260 -43.641949
vt 57.026058 -43.509910
vt 57.010911 -43.490149
vt 54.279060 -43.322336
vt 54.279060 -43.156816
vt 54.224444 -43.211432
vt 54.197547 -43.156816
vt 54.612393 -43.156816
vt 54.334433 -43.434776
vt 54.355733 -43.478027
vt 54.945727 -43.156816
vt 55.279060 -43.156816
vt 55.612393 -43.156816
vt 55.945727 -43.156816
vt 56.279060 -43.156816
vt 56.612393 -43.156816
vt 56.945727 -43.405103
vt 56.837996 -43.264547
vt 56.825340 -43.248035
vt 56.755424 -43.156816
vt 56.982628 -43.453248
vt 54.279060 -42.823482
vt 54.163583 -42.938959
vt 54.174732 -43.110489
vt 54.156078 -42.823482
vt 54.612393 -42.823482
vt 54.945727 -42.823482
vt 55.279060 -42.823482
vt 55.612393 -42.823482
vt 55.945727 -42.823482
vt 56.279060 -42.823482
vt 56.612393 -42.970204
vt 56.548731 -42.887145
vt 56.499936 -42.823482
vt 56.693363 -43.075846
vt 54.279060 -42.490149
vt 54.189699 -42.579510
vt 54.148160 -42.701662
vt 54.220087 -42.490149
vt 54.612393 -42.490149
vt 54.945727 -42.490149
vt 55.279060 -42.490149
vt 55.612393 -42.490149
vt 55.945727 -42.490149
vt 56.279060 -42.535306
vt 56.259467 -42.509742
vt 56.244449 -42.490149
vt 56.423906 -42.724285
vt 56.404099 -42.698444
vt 54.279060 -42.316731
vt 54.612393 -42.156816
vt 54.417872 -42.156816
vt 54.280061 -42.313786
vt 54.945727 -42.156816
vt 55.279060 -42.156816
vt 55.612393 -42.156816
vt 55.945727 -42.156816
vt 56.114834 -42.321041
vt 56.022471 -42.200535
vt 55.972673 -42.156816
vt 54.612393 -41.975361
vt 54.550356 -42.005912
vt 54.945727 -41.823482
vt 54.939875 -41.823482
vt 54.917894 -41.824911
vt 55.279060 -41.823482
vt 55.612393 -41.895485
vt 55.558663 -41.877213
vt 55.400660 -41.823482
vt 55.945727 -42.133158
vt 55.780825 -41.988384
vt 55.714597 -41.930240
vt 55.958324 -42.144218
vt 54.945727 -41.823102
vt 55.279060 -41.801437
vt 54.946133 -41.823076
vt 55.302638 -41.799904
vt 55.326721 -41.798339
f 3/3 2/2 1/1
f 4/4 3/3 1/1
f 5/5 2/2 3/3
f 8/8 7/7 6/6
f 1/1 2/2 7/7
f 8/8 1/1 7/7
f 11/11 10/10 9/9
f 6/6 7/7 10/10
f 12/12 6/6 10/10
f 11/11 12/12 10/10
f 15/15 14/14 13/13
f 9/9 10/10 14/14
f 16/16 9/9 14/14
f 15/15 16/16 14/14
f 13/13 14/14 17/17
f 18/18 13/13 17/17
f 20/20 19/19 2/2
f 5/5 20/20 2/2
f 21/21 19/19 20/20
f 22/22 21/21 20/20
f 2/2 23/23 7/7
f 2/2 19/19 23/23
f 7/7 24/24 10/10
f 7/7 23/23 24/24
f 10/10 25/25 14/14
f 10/10 24/24 25/25
f 17/17 14/14 26/26
f 27/27 17/17 26/26
f 14/14 25/25 26/26
f 27/27 26/26 28/28
f 29/29 27/27 28/28
f 32/32 31/31 30/30
f 33/33 32/32 30/30
f 34/34 30/30 31/31
f 36/36 35/35 19/19
f 21/21 36/36 19/19
f 33/33 30/30 35/35
f 36/36 33/33 35/35
f 19/19 37/37 23/23
f 19/19 35/35 37/37
f 23/23 38/38 24/24
f 23/23 37/37 38/38
f 24/24 39/39 25/25
f 24/24 38/38 39/39
f 25/25 40/40 26/26
f 25/25 39/39 40/40
f 28/28 26/26 41/41
f 41/41 26/26 40/40
f 42/42 41/41 40/40
f 43/43 42/42 40/40
f 46/46 45/45 44/44
f 47/47 45/45 46/46
f 49/49 48/48 30/30
f 34/34 49/49 30/30
f 44/44 45/45 48/48
f 50/50 44/44 48/48
f 49/49 50/50 48/48
f 30/30 51/51 35/35
f 30/30 48/48 51/51
f 35/35 52/52 37/37
f 35/35 51/51 52/52
f 37/37 53/53 38/38
f 37/37 52/52 53/53
f 38/38 54/54 39/39
f 38/38 53/53 54/54
f 39/39 55/55 40/40
f 39/39 54/54 55/55
f 43/43 40/40 56/56
f 56/56 40/40 55/55
f 57/57 56/56 55/55
f 59/59 58/58 45/45
f 60/60 59/59 45/45
f 47/47 60/60 45/45
f 61/61 58/58 59/59
f 45/45 62/62 48/48
f 45/45 58/58 62/62
f 48/48 63/63 51/51
f 48/48 62/62 63/63
f 51/51 64/64 52/52
f 51/51 63/63 64/64
f 52/52 65/65 53/53
f 52/52 64/64 65/65
f 53/53 66/66 54/54
f 53/53 65/65 66/66
f 54/54 67/67 55/55
f 54/54 66/66 67/67
f 57/57 55/55 68/68
f 69/69 57/57 68/68
f 68/68 55/55 67/67
f 70/70 68/68 67/67
f 73/73 72/72 71/71
f 75/75 74/74 72/72
f 73/73 75/75 72/72
f 77/77 76/76 58/58
f 61/61 77/77 58/58
f 71/71 72/72 76/76
f 77/77 71/71 76/76
f 58/58 78/78 62/62
f 58/58 76/76 78/78
f 62/62 79/79 63/63
f 62/62 78/78 79/79
f 63/63 80/80 64/64
f 63/63 79/79 80/80
f 64/64 81/81 65/65
f 64/64 80/80 81/81
f 65/65 82/82 66/66
f 65/65 81/81 82/82
f 83/83 67/67 66/66
f 84/84 83/83 66/66
f 84/84 66/66 82/82
f 85/85 84/84 82/82
f 70/70 67/67 86/86
f 87/87 70/70 86/86
f 86/86 67/67 83/83
f 90/90 89/89 88/88
f 91/91 89/89 90/90
f 93/93 92/92 72/72
f 74/74 93/93 72/72
f 88/88 89/89 92/92
f 94/94 88/88 92/92
f 93/93 94/94 92/92
f 72/72 95/95 76/76
f 72/72 92/92 95/95
f 76/76 96/96 78/78
f 76/76 95/95 96/96
f 78/78 97/97 79/79
f 78/78 96/96 97/97
f 79/79 98/98 80/80
f 79/79 97/97 98/98
f 80/80 99/99 81/81
f 80/80 98/98 99/99
f 81/81 100/100 82/82
f 81/81 99/99 100/100
f 101/101 85/85 82/82
f 102/102 101/101 82/82
f 102/102 82/82 100/100
f 103/103 102/102 100/100
f 104/104 103/103 100/100
f 106/106 105/105 89/89
f 107/107 106/106 89/89
f 91/91 107/107 89/89
f 108/108 105/105 106/106
f 89/89 109/109 92/92
f 89/89 105/105 109/109
f 92/92 110/110 95/95
f 92/92 109/109 110/110
f 95/95 111/111 96/96
f 95/95 110/110 111/111
f 96/96 112/112 97/97
f 96/96 111/111 112/112
f 97/97 113/113 98/98
f 97/97 112/112 113/113
f 98/98 114/114 99/99
f 98/98 113/113 114/114
f 115/115 100/100 99/99
f 116/116 115/115 99/99
f 117/117 116/116 99/99
f 117/117 99/99 114/114
f 118/118 117/117 114/114
f 104/104 100/100 119/119
f 119/119 100/100 115/115
f 122/122 121/121 120/120
f 124/124 123/123 121/121
f 122/122 124/124 121/121
f 126/126 125/125 105/105
f 127/127 126/126 105/105
f 108/108 127/127 105/105
f 120/120 121/121 125/125
f 126/126 120/120 125/125
f 105/105 128/128 109/109
f 105/105 125/125 128/128
f 109/109 129/129 110/110
f 109/109 128/128 129/129
f 110/110 130/130 111/111
f 110/110 129/129 130/130
f 111/111 131/131 112/112
f 111/111 130/130 131/131
f 112/112 132/132 113/113
f 112/112 131/131 132/132
f 133/133 114/114 113/113
f 134/134 133/133 113/113
f 134/134 113/113 132/132
f 135/135 134/134 132/132
f 118/118 114/114 136/136
f 137/137 118/118 136/136
f 136/136 114/114 133/133
f 140/140 139/139 138/138
f 141/141 139/139 140/140
f 143/143 142/142 121/121
f 123/123 143/143 121/121
f 138/138 139/139 142/142
f 144/144 138/138 142/142
f 143/143 144/144 142/142
f 121/121 145/145 125/125
f 121/121 142/142 145/145
f 125/125 146/146 128/128
f 125/125 145/145 146/146
f 128/128 147/147 129/129
f 128/128 146/146 147/147
f 129/129 148/148 130/130
f 129/129 147/147 148/148
f 130/130 149/149 131/131
f 130/130 148/148 149/149
f 131/131 150/150 132/132
f 131/131 149/149 150/150
f 135/135 132/132 151/151
f 152/152 135/135 151/151
f 151/151 132/132 150/150
f 153/153 151/151 150/150
f 154/154 153/153 150/150
f 155/155 154/154 150/150
f 157/157 156/156 139/139
f 158/158 157/157 139/139
f 141/141 158/158 139/139
f 159/159 156/156 157/157
f 139/139 160/160 142/142
f 139/139 156/156 160/160
f 142/142 161/161 145/145
f 142/142 160/160 161/161
f 145/145 162/162 146/146
f 145/145 161/161 162/162
f 146/146 163/163 147/147
f 146/146 162/162 163/163
f 147/147 164/164 148/148
f 147/147 163/163 164/164
f 148/148 165/165 149/149
f 148/148 164/164 165/165
f 166/166 150/150 149/149
f 167/167 166/166 149/149
f 168/168 167/167 149/149
f 168/168 149/149 165/165
f 169/169 168/168 165/165
f 155/155 150/150 170/170
f 170/170 150/150 166/166
f 173/173 172/172 171/171
f 174/174 172/172 173/173
f 176/176 175/175 156/156
f 177/177 176/176 156/156
f 159/159 177/177 156/156
f 171/171 172/172 175/175
f 176/176 171/171 175/175
f 156/156 178/178 160/160
f 156/156 175/175 178/178
f 160/160 179/179 161/161
f 160/160 178/178 179/179
f 161/161 180/180 162/162
f 161/161 179/179 180/180
f 162/162 181/181 163/163
f 162/162 180/180 181/181
f 163/163 182/182 164/164
f 163/163 181/181 182/182
f 164/164 183/183 165/165
f 164/164 182/182 183/183
f 169/169 165/165 184/184
f 184/184 165/165 183/183
f 185/185 184/184 183/183
f 186/186 185/185 183/183
f 189/189 188/188 187/187
f 190/190 188/188 189/189
f 192/192 191/191 172/172
f 174/174 192/192 172/172
f 187/187 188/188 191/191
f 193/193 187/187 191/191
f 192/192 193/193 191/191
f 172/172 194/194 175/175
f 172/172 191/191 194/194
f 175/175 195/195 178/178
f 175/175 194/194 195/195
f 178/178 196/196 179/179
f 178/178 195/195 196/196
f 179/179 197/197 180/180
f 179/179 196/196 197/197
f 180/180 198/198 181/181
f 180/180 197/197 198/198
f 181/181 199/199 182/182
f 181/181 198/198 199/199
f 200/200 183/183 182/182
f 201/201 200/200 182/182
f 202/202 201/201 182/182
f 202/202 182/182 199/199
f 203/203 202/202 199/199
f 186/186 183/183 204/204
f 204/204 183/183 200/200
f 206/206 205/205 188/188
f 207/207 206/206 188/188
f 190/190 207/207 188/188
f 208/208 205/205 206/206
f 188/188 209/209 191/191
f 188/188 205/205 209/209
f 191/191 210/210 194/194
f 191/191 209/209 210/210
f 194/194 211/211 195/195
f 194/194 210/210 211/211
f 195/195 212/212 196/196
f 195/195 211/211 212/212
f 196/196 213/213 197/197
f 196/196 212/212 213/213
f 197/197 214/214 198/198
f 197/197 213/213 214/214
f 215/215 199/199 198/198
f 216/216 215/215 198/198
f 217/217 216/216 198/198
f 217/217 198/198 214/214
f 218/218 217/217 214/214
f 203/203 199/199 219/219
f 219/219 199/199 215/215
f 222/222 221/221 220/220
f 223/223 222/222 220/220
f 224/224 220/220 221/221
f 226/226 225/225 205/205
f 208/208 226/226 205/205
f 223/223 220/220 225/225
f 226/226 223/223 225/225
f 205/205 227/227 209/209
f 205/205 225/225 227/227
f 209/209 228/228 210/210
f 209/209 227/227 228/228
f 210/210 229/229 211/211
f 210/210 228/228 229/229
f 211/211 230/230 212/212
f 211/211 229/229 230/230
f 212/212 231/231 213/213
f 212/212 230/230 231/231
f 213/213 232/232 214/214
f 213/213 231/231 232/232
f 218/218 214/214 233/233
f 233/233 214/214 232/232
f 235/235 234/234 233/233
f 237/237 236/236 235/235
f 232/232 237/237 235/235
f 233/233 232/232 235/235
f 240/240 239/239 238/238
f 241/241 239/239 240/240
f 243/243 242/242 220/220
f 244/244 243/243 220/220
f 224/224 244/244 220/220
f 238/238 239/239 242/242
f 243/243 238/238 242/242
f 220/220 245/245 225/225
f 220/220 242/242 245/245
f 225/225 246/246 227/227
f 225/225 245/245 246/246
f 227/227 247/247 228/228
f 227/227 246/246 247/247
f 228/228 248/248 229/229
f 228/228 247/247 248/248
f 229/229 249/249 230/230
f 229/229 248/248 249/249
f 230/230 250/250 231/231
f 230/230 249/249 250/250
f 251/251 232/232 231/231
f 252/252 251/251 231/231
f 253/253 252/252 231/231
f 253/253 231/231 250/250
f 254/254 253/253 250/250
f 237/237 232/232 255/255
f 255/255 232/232 251/251
f 258/258 257/257 256/256
f 259/259 257/257 258/258
f 261/261 260/260 239/239
f 241/241 261/261 239/239
f 256/256 257/257 260/260
f 262/262 256/256 260/260
f 261/261 262/262 260/260
f 239/239 263/263 242/242
f 239/239 260/260 263/263
f 242/242 264/264 245/245
f 242/242 263/263 264/264
f 245/245 265/265 246/246
f 245/245 264/264 265/265
f 246/246 266/266 247/247
f 246/246 265/265 266/266
f 247/247 267/267 248/248
f 247/247 266/266 267/267
f 248/248 268/268 249/249
f 248/248 267/267 268/268
f 269/269 250/250 249/249
f 270/270 269/269 249/249
f 270/270 249/249 268/268
f 271/271 270/270 268/268
f 254/254 250/250 272/272
f 273/273 272/272 250/250
f 269/269 273/273 250/250
f 275/275 274/274 257/257
f 276/276 275/275 257/257
f 259/259 276/276 257/257
f 277/277 274/274 275/275
f 257/257 278/278 260/260
f 257/257 274/274 278/278
f 260/260 279/279 263/263
f 260/260 278/278 279/279
f 263/263 280/280 264/264
f 263/263 279/279 280/280
f 264/264 281/281 265/265
f 264/264 280/280 281/281
f 265/265 282/282 266/266
f 265/265 281/281 282/282
f 266/266 283/283 267/267
f 266/266 282/282 283/283
f 284/284 268/268 267/267
f 285/285 284/284 267/267
f 285/285 267/267 283/283
f 286/286 285/285 283/283
f 271/271 268/268 287/287
f 287/287 268/268 284/284
f 290/290 289/289 288/288
f 291/291 289/289 290/290
f 293/293 292/292 274/274
f 277/277 293/293 274/274
f 288/288 289/289 292/292
f 294/294 288/288 292/292
f 293/293 294/294 292/292
f 274/274 295/295 278/278
f 274/274 292/292 295/295
f 278/278 296/296 279/279
f 278/278 295/295 296/296
f 279/279 297/297 280/280
f 279/279 296/296 297/297
f 280/280 298/298 281/281
f 280/280 297/297 298/298
f 281/281 299/299 282/282
f 281/281 298/298 299/299
f 282/282 300/300 283/283
f 282/282 299/299 300/300
f 286/286 283/283 301/301
f 301/301 283/283 300/300
f 302/302 301/301 300/300
f 303/303 302/302 300/300
f 306/306 305/305 304/304
f 307/307 305/305 306/306
f 309/309 308/308 289/289
f 310/310 309/309 289/289
f 291/291 310/310 289/289
f 304/304 305/305 308/308
f 309/309 304/304 308/308
f 289/289 311/311 292/292
f 289/289 308/308 311/311
f 292/292 312/312 295/295
f 292/292 311/311 312/312
f 295/295 313/313 296/296
f 295/295 312/312 313/313
f 296/296 314/314 297/297
f 296/296 313/313 314/314
f 297/297 315/315 298/298
f 297/297 314/314 315/315
f 298/298 316/316 299/299
f 298/298 315/315 316/316
f 317/317 300/300 299/299
f 318/318 317/317 299/299
f 319/319 318/318 299/299
f 319/319 299/299 316/316
f 320/320 319/319 316/316
f 303/303 300/300 321/321
f 321/321 300/300 317/317
f 323/323 322/322 305/305
f 307/307 323/323 305/305
f 324/324 322/322 323/323
f 305/305 325/325 308/308
f 305/305 322/322 325/325
f 308/308 326/326 311/311
f 308/308 325/325 326/326
f 311/311 327/327 312/312
f 311/311 326/326 327/327
f 312/312 328/328 313/313
f 312/312 327/327 328/328
f 313/313 329/329 314/314
f 313/313 328/328 329/329
f 314/314 330/330 315/315
f 314/314 329/329 330/330
f 331/331 316/316 315/315
f 332/332 331/331 315/315
f 332/332 315/315 330/330
f 333/333 332/332 330/330
f 320/320 316/316 334/334
f 335/335 334/334 316/316
f 331/331 335/335 316/316
f 338/338 337/337 336/336
f 339/339 338/338 336/336
f 340/340 336/336 337/337
f 342/342 341/341 322/322
f 324/324 342/342 322/322
f 339/339 336/336 341/341
f 342/342 339/339 341/341
f 322/322 343/343 325/325
f 322/322 341/341 343/343
f 325/325 344/344 326/326
f 325/325 343/343 344/344
f 326/326 345/345 327/327
f 326/326 344/344 345/345
f 327/327 346/346 328/328
f 327/327 345/345 346/346
f 328/328 347/347 329/329
f 328/328 346/346 347/347
f 329/329 348/348 330/330
f 329/329 347/347 348/348
f 333/333 330/330 349/349
f 349/349 330/330 348/348
f 350/350 349/349 348/348
f 351/351 350/350 348/348
f 354/354 353/353 352/352
f 355/355 353/353 354/354
f 357/357 356/356 336/336
f 340/340 357/357 336/336
f 352/352 353/353 356/356
f 358/358 352/352 356/356
f 357/357 358/358 356/356
f 336/336 359/359 341/341
f 336/336 356/356 359/359
f 341/341 360/360 343/343
f 341/341 359/359 360/360
f 343/343 361/361 344/344
f 343/343 360/360 361/361
f 344/344 362/362 345/345
f 344/344 361/361 362/362
f 345/345 363/363 346/346
f 345/345 362/362 363/363
f 346/346 364/364 347/347
f 346/346 363/363 364/364
f 365/365 348/348 347/347
f 366/366 365/365 347/347
f 366/366 347/347 364/364
f 367/367 366/366 364/364
f 368/368 367/367 364/364
f 351/351 348/348 369/369
f 369/369 348/348 365/365
f 372/372 371/371 370/370
f 373/373 371/371 372/372
f 375/375 374/374 353/353
f 376/376 375/375 353/353
f 355/355 376/376 353/353
f 370/370 371/371 374/374
f 377/377 370/370 374/374
f 375/375 377/377 374/374
f 353/353 378/378 356/356
f 353/353 374/374 378/378
f 356/356 379/379 359/359
f 356/356 378/378 379/379
f 359/359 380/380 360/360
f 359/359 379/379 380/380
f 360/360 381/381 361/361
f 360/360 380/380 381/381
f 361/361 382/382 362/362
f 361/361 381/381 382/382
f 362/362 383/383 363/363
f 362/362 382/382 383/383
f 384/384 364/364 363/363
f 385/385 384/384 363/363
f 385/385 363/363 383/383
f 386/386 385/385 383/383
f 368/368 364/364 387/387
f 388/388 387/387 364/364
f 384/384 388/388 364/364
f 390/390 389/389 371/371
f 373/373 390/390 371/371
f 392/392 391/391 389/389
f 390/390 392/392 389/389
f 371/371 393/393 374/374
f 371/371 389/389 393/393
f 374/374 394/394 378/378
f 374/374 393/393 394/394
f 378/378 395/395 379/379
f 378/378 394/394 395/395
f 379/379 396/396 380/380
f 379/379 395/395 396/396
f 380/380 397/397 381/381
f 380/380 396/396 397/397
f 381/381 398/398 382/382
f 381/381 397/397 398/398
f 399/399 383/383 382/382
f 400/400 399/399 382/382
f 400/400 382/382 398/398
f 401/401 400/400 398/398
f 402/402 386/386 383/383
f 403/403 402/402 383/383
f 403/403 383/383 399/399
f 406/406 405/405 404/404
f 407/407 405/405 406/406
f 409/409 408/408 389/389
f 391/391 409/409 389/389
f 404/404 405/405 408/408
f 409/409 404/404 408/408
f 389/389 410/410 393/393
f 389/389 408/408 410/410
f 393/393 411/411 394/394
f 393/393 410/410 411/411
f 394/394 412/412 395/395
f 394/394 411/411 412/412
f 395/395 413/413 396/396
f 395/395 412/412 413/413
f 396/396 414/414 397/397
f 396/396 413/413 414/414
f 397/397 415/415 398/398
f 397/397 414/414 415/415
f 401/401 398/398 416/416
f 416/416 398/398 415/415
f 417/417 416/416 415/415
f 418/418 417/417 415/415
f 421/421 420/420 419/419
f 423/423 422/422 420/420
f 421/421 423/423 420/420
f 425/425 424/424 405/405
f 426/426 425/425 405/405
f 407/407 426/426 405/405
f 419/419 420/420 424/424
f 425/425 419/419 424/424
f 405/405 427/427 408/408
f 405/405 424/424 427/427
f 408/408 428/428 410/410
f 408/408 427/427 428/428
f 410/410 429/429 411/411
f 410/410 428/428 429/429
f 411/411 430/430 412/412
f 411/411 429/429 430/430
f 412/412 431/431 413/413
f 412/412 430/430 431/431
f 413/413 432/432 414/414
f 413/413 431/431 432/432
f 433/433 415/415 414/414
f 434/434 433/433 414/414
f 434/434 414/414 432/432
f 435/435 434/434 432/432
f 436/436 435/435 432/432
f 437/437 436/436 432/432
f 418/418 415/415 438/438
f 438/438 415/415 433/433
f 441/441 440/440 439/439
f 442/442 440/440 441/441
f 444/444 443/443 420/420
f 422/422 444/444 420/420
f 439/439 440/440 443/443
f 445/445 439/439 443/443
f 444/444 445/445 443/443
f 420/420 446/446 424/424
f 420/420 443/443 446/446
f 424/424 447/447 427/427
f 424/424 446/446 447/447
f 427/427 448/448 428/428
f 427/427 447/447 448/448
f 428/428 449/449 429/429
f 428/428 448/448 449/449
f 429/429 450/450 430/430
f 429/429 449/449 450/450
f 430/430 451/451 431/431
f 430/430 450/450 451/451
f 452/452 432/432 431/431
f 453/453 452/452 431/431
f 453/453 431/431 451/451
f 454/454 453/453 451/451
f 437/437 432/432 455/455
f 455/455 432/432 452/452
f 456/456 455/455 452/452
f 457/457 456/456 452/452
f 459/459 458/458 440/440
f 442/442 459/459 440/440
f 461/461 460/460 458/458
f 459/459 461/461 458/458
f 440/440 462/462 443/443
f 440/440 458/458 462/462
f 443/443 463/463 446/446
f 443/443 462/462 463/463
f 446/446 464/464 447/447
f 446/446 463/463 464/464
f 447/447 465/465 448/448
f 447/447 464/464 465/465
f 448/448 466/466 449/449
f 448/448 465/465 466/466
f 449/449 467/467 450/450
f 449/449 466/466 467/467
f 450/450 468/468 451/451
f 450/450 467/467 468/468
f 454/454 451/451 469/469
f 469/469 451/451 468/468
f 470/470 469/469 468/468
f 473/473 472/472 471/471
f 474/474 472/472 473/473
f 476/476 475/475 458/458
f 460/460 476/476 458/458
f 471/471 472/472 475/475
f 476/476 471/471 475/475
f 458/458 477/477 462/462
f 458/458 475/475 477/477
f 462/462 478/478 463/463
f 462/462 477/477 478/478
f 463/463 479/479 464/464
f 463/463 478/478 479/479
f 464/464 480/480 465/465
f 464/464 479/479 480/480
f 465/465 481/481 466/466
f 465/465 480/480 481/481
f 466/466 482/482 467/467
f 466/466 481/481 482/482
f 483/483 468/468 467/467
f 484/484 483/483 467/467
f 485/485 484/484 467/467
f 485/485 467/467 482/482
f 486/486 485/485 482/482
f 470/470 468/468 487/487
f 487/487 468/468 483/483
f 490/490 489/489 488/488
f 491/491 489/489 490/490
f 493/493 492/492 472/472
f 494/494 493/493 472/472
f 474/474 494/494 472/472
f 488/488 489/489 492/492
f 493/493 488/488 492/492
f 472/472 495/495 475/475
f 472/472 492/492 495/495
f 475/475 496/496 477/477
f 475/475 495/495 496/496
f 477/477 497/497 478/478
f 477/477 496/496 497/497
f 478/478 498/498 479/479
f 478/478 497/497 498/498
f 479/479 499/499 480/480
f 479/479 498/498 499/499
f 480/480 500/500 481/481
f 480/480 499/499 500/500
f 501/501 482/482 481/481
f 502/502 501/501 481/481
f 502/502 481/481 500/500
f 503/503 502/502 500/500
f 504/504 503/503 500/500
f 505/505 486/486 482/482
f 506/506 505/505 482/482
f 506/506 482/482 501/501
f 509/509 508/508 507/507
f 510/510 508/508 509/509
f 512/512 511/511 489/489
f 491/491 512/512 489/489
f 507/507 508/508 511/511
f 513/513 507/507 511/511
f 512/512 513/513 511/511
f 489/489 514/514 492/492
f 489/489 511/511 514/514
f 492/492 515/515 495/495
f 492/492 514/514 515/515
f 495/495 516/516 496/496
f 495/495 515/515 516/516
f 496/496 517/517 497/497
f 496/496 516/516 517/517
f 497/497 518/518 498/498
f 497/497 517/517 518/518
f 498/498 519/519 499/499
f 498/498 518/518 519/519
f 520/520 500/500 499/499
f 521/521 520/520 499/499
f 521/521 499/499 519/519
f 522/522 521/521 519/519
f 504/504 500/500 523/523
f 524/524 523/523 500/500
f 520/520 524/524 500/500
f 526/526 525/525 508/508
f 510/510 526/526 508/508
f 527/527 525/525 526/526
f 508/508 528/528 511/511
f 508/508 525/525 528/528
f 511/511 529/529 514/514
f 511/511 528/528 529/529
f 514/514 530/530 515/515
f 514/514 529/529 530/530
f 515/515 531/531 516/516
f 515/515 530/530 531/531
f 516/516 532/532 517/517
f 516/516 531/531 532/532
f 517/517 533/533 518/518
f 517/517 532/532 533/533
f 534/534 519/519 518/518
f 535/535 534/534 518/518
f 535/535 518/518 533/533
f 536/536 535/535 533/533
f 522/522 519/519 537/537
f 537/537 519/519 534/534
f 540/540 539/539 538/538
f 541/541 540/540 538/538
f 542/542 538/538 539/539
f 544/544 543/543 525/525
f 527/527 544/544 525/525
f 541/541 538/538 543/543
f 544/544 541/541 543/543
f 525/525 545/545 528/528
f 525/525 543/543 545/545
f 528/528 546/546 529/529
f 528/528 545/545 546/546
f 529/529 547/547 530/530
f 529/529 546/546 547/547
f 530/530 548/548 531/531
f 530/530 547/547 548/548
f 531/531 549/549 532/532
f 531/531 548/548 549/549
f 532/532 550/550 533/533
f 532/532 549/549 550/550
f 551/551 536/536 533/533
f 552/552 551/551 533/533
f 552/552 533/533 550/550
f 553/553 552/552 550/550
f 554/554 553/553 550/550
f 557/557 556/556 555/555
f 558/558 556/556 557/557
f 560/560 559/559 538/538
f 561/561 560/560 538/538
f 542/542 561/561 538/538
f 555/555 556/556 559/559
f 560/560 555/555 559/559
f 538/538 562/562 543/543
f 538/538 559/559 562/562
f 543/543 563/563 545/545
f 543/543 562/562 563/563
f 545/545 564/564 546/546
f 545/545 563/563 564/564
f 546/546 565/565 547/547
f 546/546 564/564 565/565
f 547/547 566/566 548/548
f 547/547 565/565 566/566
f 548/548 567/567 549/549
f 548/548 566/566 567/567
f 568/568 550/550 549/549
f 569/569 568/568 549/549
f 569/569 549/549 567/567
f 570/570 569/569 567/567
f 571/571 570/570 567/567
f 554/554 550/550 572/572
f 572/572 550/550 568/568
f 574/574 573/573 556/556
f 575/575 574/574 556/556
f 558/558 575/575 556/556
f 576/576 573/573 574/574
f 556/556 577/577 559/559
f 556/556 573/573 577/577
f 559/559 578/578 562/562
f 559/559 577/577 578/578
f 562/562 579/579 563/563
f 562/562 578/578 579/579
f 563/563 580/580 564/564
f 563/563 579/579 580/580
f 564/564 581/581 565/565
f 564/564 580/580 581/581
f 565/565 582/582 566/566
f 565/565 581/581 582/582
f 583/583 567/567 566/566
f 584/584 583/583 566/566
f 584/584 566/566 582/582
f 585/585 584/584 582/582
f 571/571 567/567 586/586
f 586/586 567/567 583/583
f 588/588 587/587 573/573
f 589/589 588/588 573/573
f 576/576 589/589 573/573
f 590/590 587/587 588/588
f 573/573 591/591 577/577
f 573/573 587/587 591/591
f 577/577 592/592 578/578
f 577/577 591/591 592/592
f 578/578 593/593 579/579
f 578/578 592/592 593/593
f 579/579 594/594 580/580
f 579/579 593/593 594/594
f 580/580 595/595 581/581
f 580/580 594/594 595/595
f 596/596 582/582 581/581
f 597/597 596/596 581/581
f 597/597 581/581 595/595
f 598/598 597/597 595/595
f 599/599 585/585 582/582
f 600/600 599/599 582/582
f 600/600 582/582 596/596
f 601/601 587/587 590/590
f 587/587 602/602 591/591
f 603/603 602/602 587/587
f 604/604 603/603 587/587
f 601/601 604/604 587/587
f 591/591 605/605 592/592
f 591/591 602/602 605/605
f 592/592 606/606 593/593
f 592/592 605/605 606/606
f 593/593 607/607 594/594
f 593/593 606/606 607/607
f 594/594 608/608 595/595
f 594/594 607/607 608/608
f 598/598 595/595 609/609
f 609/609 595/595 608/608
f 610/610 609/609 608/608
f 611/611 610/610 608/608
f 612/612 602/602 603/603
f 613/613 612/612 603/603
f 602/602 614/614 605/605
f 615/615 614/614 602/602
f 616/616 615/615 602/602
f 612/612 616/616 602/602
f 605/605 617/617 606/606
f 605/605 614/614 617/617
f 618/618 607/607 606/606
f 619/619 618/618 606/606
f 619/619 606/606 617/617
f 620/620 619/619 617/617
f 621/621 608/608 607/607
f 622/622 621/621 607/607
f 622/622 607/607 618/618
f 623/623 622/622 618/618
f 611/611 608/608 624/624
f 624/624 608/608 621/621
f 625/625 614/614 615/615
f 626/626 617/617 614/614
f 627/627 626/626 614/614
f 627/627 614/614 625/625
f 620/620 617/617 628/628
f 629/629 620/620 628/628
f 628/628 617/617 626/626
