# Original skatepark wayfinding paint; centimetres; 1.2cm surface offset
v 250.000000 754.000000 651.200000
v 300.000000 754.000000 652.512000
v 300.000000 746.000000 652.533333
v 250.000000 746.000000 651.200000
v 300.000000 754.000000 652.512000
v 350.000000 754.000000 656.448000
v 350.000000 746.000000 656.533333
v 300.000000 746.000000 652.533333
v 350.000000 754.000000 656.448000
v 400.000000 754.000000 663.008000
v 400.000000 746.000000 663.200000
v 350.000000 746.000000 656.533333
v 400.000000 754.000000 663.008000
v 450.000000 754.000000 672.192000
v 450.000000 746.000000 672.533333
v 400.000000 746.000000 663.200000
v 450.000000 754.000000 672.192000
v 500.000000 754.000000 684.000000
v 500.000000 746.000000 684.533333
v 450.000000 746.000000 672.533333
v 500.000000 754.000000 684.000000
v 550.000000 754.000000 698.432000
v 550.000000 746.000000 699.200000
v 500.000000 746.000000 684.533333
v 550.000000 754.000000 698.432000
v 600.000000 754.000000 715.488000
v 600.000000 746.000000 716.533333
v 550.000000 746.000000 699.200000
v 600.000000 754.000000 715.488000
v 650.000000 754.000000 735.168000
v 650.000000 746.000000 736.533333
v 600.000000 746.000000 716.533333
v 650.000000 754.000000 735.168000
v 700.000000 754.000000 757.472000
v 700.000000 746.000000 759.200000
v 650.000000 746.000000 736.533333
v 700.000000 754.000000 757.472000
v 750.000000 754.000000 782.400000
v 750.000000 746.000000 784.533333
v 700.000000 746.000000 759.200000
v 750.000000 754.000000 782.400000
v 800.000000 754.000000 809.952000
v 800.000000 746.000000 812.533333
v 750.000000 746.000000 784.533333
v 800.000000 754.000000 809.952000
v 850.000000 754.000000 840.128000
v 850.000000 746.000000 843.200000
v 800.000000 746.000000 812.533333
v 850.000000 754.000000 840.128000
v 900.000000 754.000000 872.928000
v 900.000000 746.000000 876.533333
v 850.000000 746.000000 843.200000
v 900.000000 754.000000 872.928000
v 950.000000 754.000000 908.352000
v 950.000000 746.000000 912.533333
v 900.000000 746.000000 876.533333
v 950.000000 754.000000 908.352000
v 1000.000000 754.000000 946.400000
v 1000.000000 746.000000 951.200000
v 950.000000 746.000000 912.533333
v 250.000000 254.000000 651.200000
v 300.000000 254.000000 652.533333
v 300.000000 246.000000 652.512000
v 250.000000 246.000000 651.200000
v 300.000000 254.000000 652.533333
v 350.000000 254.000000 656.533333
v 350.000000 246.000000 656.448000
v 300.000000 246.000000 652.512000
v 350.000000 254.000000 656.533333
v 400.000000 254.000000 663.200000
v 400.000000 246.000000 663.008000
v 350.000000 246.000000 656.448000
v 400.000000 254.000000 663.200000
v 450.000000 254.000000 672.533333
v 450.000000 246.000000 672.192000
v 400.000000 246.000000 663.008000
v 450.000000 254.000000 672.533333
v 500.000000 254.000000 684.533333
v 500.000000 246.000000 684.000000
v 450.000000 246.000000 672.192000
v 500.000000 254.000000 684.533333
v 550.000000 254.000000 699.200000
v 550.000000 246.000000 698.432000
v 500.000000 246.000000 684.000000
v 550.000000 254.000000 699.200000
v 600.000000 254.000000 716.533333
v 600.000000 246.000000 715.488000
v 550.000000 246.000000 698.432000
v 600.000000 254.000000 716.533333
v 650.000000 254.000000 736.533333
v 650.000000 246.000000 735.168000
v 600.000000 246.000000 715.488000
v 650.000000 254.000000 736.533333
v 700.000000 254.000000 759.200000
v 700.000000 246.000000 757.472000
v 650.000000 246.000000 735.168000
v 700.000000 254.000000 759.200000
v 750.000000 254.000000 784.533333
v 750.000000 246.000000 782.400000
v 700.000000 246.000000 757.472000
v 750.000000 254.000000 784.533333
v 800.000000 254.000000 812.533333
v 800.000000 246.000000 809.952000
v 750.000000 246.000000 782.400000
v 800.000000 254.000000 812.533333
v 850.000000 254.000000 843.200000
v 850.000000 246.000000 840.128000
v 800.000000 246.000000 809.952000
v 850.000000 254.000000 843.200000
v 900.000000 254.000000 876.533333
v 900.000000 246.000000 872.928000
v 850.000000 246.000000 840.128000
v 900.000000 254.000000 876.533333
v 950.000000 254.000000 912.533333
v 950.000000 246.000000 908.352000
v 900.000000 246.000000 872.928000
v 950.000000 254.000000 912.533333
v 1000.000000 254.000000 951.200000
v 1000.000000 246.000000 946.400000
v 950.000000 246.000000 908.352000
v -195.000000 512.000000 651.200000
v -100.000000 512.000000 651.200000
v -100.000000 488.000000 651.200000
v -195.000000 488.000000 651.200000
v -120.000000 565.000000 651.200000
v -25.000000 500.000000 651.200000
v -120.000000 435.000000 651.200000
v 45.000000 512.000000 651.200000
v 140.000000 512.000000 651.200000
v 140.000000 488.000000 651.200000
v 45.000000 488.000000 651.200000
v 120.000000 565.000000 651.200000
v 215.000000 500.000000 651.200000
v 120.000000 435.000000 651.200000
v 2225.000000 -182.000000 545.018836
v 2130.000000 -182.000000 568.753449
v 2130.000000 -158.000000 568.753449
v 2225.000000 -158.000000 545.018836
v 2150.000000 -235.000000 563.756688
v 2055.000000 -170.000000 587.491302
v 2150.000000 -105.000000 563.756688
vt 1.250000 -3.770000
vt 1.500000 -3.770000
vt 1.500000 -3.730000
vt 1.250000 -3.730000
vt 1.500000 -3.770000
vt 1.750000 -3.770000
vt 1.750000 -3.730000
vt 1.500000 -3.730000
vt 1.750000 -3.770000
vt 2.000000 -3.770000
vt 2.000000 -3.730000
vt 1.750000 -3.730000
vt 2.000000 -3.770000
vt 2.250000 -3.770000
vt 2.250000 -3.730000
vt 2.000000 -3.730000
vt 2.250000 -3.770000
vt 2.500000 -3.770000
vt 2.500000 -3.730000
vt 2.250000 -3.730000
vt 2.500000 -3.770000
vt 2.750000 -3.770000
vt 2.750000 -3.730000
vt 2.500000 -3.730000
vt 2.750000 -3.770000
vt 3.000000 -3.770000
vt 3.000000 -3.730000
vt 2.750000 -3.730000
vt 3.000000 -3.770000
vt 3.250000 -3.770000
vt 3.250000 -3.730000
vt 3.000000 -3.730000
vt 3.250000 -3.770000
vt 3.500000 -3.770000
vt 3.500000 -3.730000
vt 3.250000 -3.730000
vt 3.500000 -3.770000
vt 3.750000 -3.770000
vt 3.750000 -3.730000
vt 3.500000 -3.730000
vt 3.750000 -3.770000
vt 4.000000 -3.770000
vt 4.000000 -3.730000
vt 3.750000 -3.730000
vt 4.000000 -3.770000
vt 4.250000 -3.770000
vt 4.250000 -3.730000
vt 4.000000 -3.730000
vt 4.250000 -3.770000
vt 4.500000 -3.770000
vt 4.500000 -3.730000
vt 4.250000 -3.730000
vt 4.500000 -3.770000
vt 4.750000 -3.770000
vt 4.750000 -3.730000
vt 4.500000 -3.730000
vt 4.750000 -3.770000
vt 5.000000 -3.770000
vt 5.000000 -3.730000
vt 4.750000 -3.730000
vt 1.250000 -1.270000
vt 1.500000 -1.270000
vt 1.500000 -1.230000
vt 1.250000 -1.230000
vt 1.500000 -1.270000
vt 1.750000 -1.270000
vt 1.750000 -1.230000
vt 1.500000 -1.230000
vt 1.750000 -1.270000
vt 2.000000 -1.270000
vt 2.000000 -1.230000
vt 1.750000 -1.230000
vt 2.000000 -1.270000
vt 2.250000 -1.270000
vt 2.250000 -1.230000
vt 2.000000 -1.230000
vt 2.250000 -1.270000
vt 2.500000 -1.270000
vt 2.500000 -1.230000
vt 2.250000 -1.230000
vt 2.500000 -1.270000
vt 2.750000 -1.270000
vt 2.750000 -1.230000
vt 2.500000 -1.230000
vt 2.750000 -1.270000
vt 3.000000 -1.270000
vt 3.000000 -1.230000
vt 2.750000 -1.230000
vt 3.000000 -1.270000
vt 3.250000 -1.270000
vt 3.250000 -1.230000
vt 3.000000 -1.230000
vt 3.250000 -1.270000
vt 3.500000 -1.270000
vt 3.500000 -1.230000
vt 3.250000 -1.230000
vt 3.500000 -1.270000
vt 3.750000 -1.270000
vt 3.750000 -1.230000
vt 3.500000 -1.230000
vt 3.750000 -1.270000
vt 4.000000 -1.270000
vt 4.000000 -1.230000
vt 3.750000 -1.230000
vt 4.000000 -1.270000
vt 4.250000 -1.270000
vt 4.250000 -1.230000
vt 4.000000 -1.230000
vt 4.250000 -1.270000
vt 4.500000 -1.270000
vt 4.500000 -1.230000
vt 4.250000 -1.230000
vt 4.500000 -1.270000
vt 4.750000 -1.270000
vt 4.750000 -1.230000
vt 4.500000 -1.230000
vt 4.750000 -1.270000
vt 5.000000 -1.270000
vt 5.000000 -1.230000
vt 4.750000 -1.230000
vt -0.975000 -2.560000
vt -0.500000 -2.560000
vt -0.500000 -2.440000
vt -0.975000 -2.440000
vt -0.600000 -2.825000
vt -0.125000 -2.500000
vt -0.600000 -2.175000
vt 0.225000 -2.560000
vt 0.700000 -2.560000
vt 0.700000 -2.440000
vt 0.225000 -2.440000
vt 0.600000 -2.825000
vt 1.075000 -2.500000
vt 0.600000 -2.175000
vt 11.125000 0.910000
vt 10.650000 0.910000
vt 10.650000 0.790000
vt 11.125000 0.790000
vt 10.750000 1.175000
vt 10.275000 0.850000
vt 10.750000 0.525000
f 3/3 2/2 1/1
f 4/4 3/3 1/1
f 7/7 6/6 5/5
f 8/8 7/7 5/5
f 11/11 10/10 9/9
f 12/12 11/11 9/9
f 15/15 14/14 13/13
f 16/16 15/15 13/13
f 19/19 18/18 17/17
f 20/20 19/19 17/17
f 23/23 22/22 21/21
f 24/24 23/23 21/21
f 27/27 26/26 25/25
f 28/28 27/27 25/25
f 31/31 30/30 29/29
f 32/32 31/31 29/29
f 35/35 34/34 33/33
f 36/36 35/35 33/33
f 39/39 38/38 37/37
f 40/40 39/39 37/37
f 43/43 42/42 41/41
f 44/44 43/43 41/41
f 47/47 46/46 45/45
f 48/48 47/47 45/45
f 51/51 50/50 49/49
f 52/52 51/51 49/49
f 55/55 54/54 53/53
f 56/56 55/55 53/53
f 59/59 58/58 57/57
f 60/60 59/59 57/57
f 63/63 62/62 61/61
f 64/64 63/63 61/61
f 67/67 66/66 65/65
f 68/68 67/67 65/65
f 71/71 70/70 69/69
f 72/72 71/71 69/69
f 75/75 74/74 73/73
f 76/76 75/75 73/73
f 79/79 78/78 77/77
f 80/80 79/79 77/77
f 83/83 82/82 81/81
f 84/84 83/83 81/81
f 87/87 86/86 85/85
f 88/88 87/87 85/85
f 91/91 90/90 89/89
f 92/92 91/91 89/89
f 95/95 94/94 93/93
f 96/96 95/95 93/93
f 99/99 98/98 97/97
f 100/100 99/99 97/97
f 103/103 102/102 101/101
f 104/104 103/103 101/101
f 107/107 106/106 105/105
f 108/108 107/107 105/105
f 111/111 110/110 109/109
f 112/112 111/111 109/109
f 115/115 114/114 113/113
f 116/116 115/115 113/113
f 119/119 118/118 117/117
f 120/120 119/119 117/117
f 123/123 122/122 121/121
f 124/124 123/123 121/121
f 127/127 126/126 125/125
f 130/130 129/129 128/128
f 131/131 130/130 128/128
f 134/134 133/133 132/132
f 137/137 136/136 135/135
f 138/138 137/137 135/135
f 141/141 140/140 139/139
