o PrideTenth_Separator
v -21474.519800 -12411.128300 295.672800
v -21473.835800 -12381.902400 294.664000
v -21495.090900 -12394.115000 294.512200
v -21465.323000 -12405.844000 295.738500
v -21473.835800 -12381.902400 294.664000
v -21474.519800 -12411.128300 295.672800
v -21382.215300 -12358.093300 296.358000
v -21394.670000 -12336.416500 295.292800
v -21392.015500 -12363.724100 296.266000
v -21394.670000 -12336.416500 295.292800
v -21382.215300 -12358.093300 296.358000
v -21388.303700 -12336.903600 295.508900
v -21387.261400 -12337.246900 295.553500
v -21388.303700 -12336.903600 295.508900
v -21382.215300 -12358.093300 296.358000
v -21375.769000 -12339.816700 295.963100
v -21387.261400 -12337.246900 295.553500
v -21382.215300 -12358.093300 296.358000
v -21364.080000 -12341.247800 296.327500
v -21375.769000 -12339.816700 295.963100
v -21382.215300 -12358.093300 296.358000
v -21353.339000 -12341.501800 296.629100
v -21364.080000 -12341.247800 296.327500
v -21382.215300 -12358.093300 296.358000
v -21392.889200 -12335.393300 295.312500
v -21394.670000 -12336.416500 295.292800
v -21388.303700 -12336.903600 295.508900
v -21461.381100 -12403.579100 295.766600
v -21458.068700 -12372.843200 294.776600
v -21473.835800 -12381.902400 294.664000
v -21465.323000 -12405.844000 295.738500
v -21461.381100 -12403.579100 295.766600
v -21473.835800 -12381.902400 294.664000
v -21458.068700 -12372.843200 294.776600
v -21461.381100 -12403.579100 295.766600
v -21392.015500 -12363.724100 296.266000
v -21394.670000 -12336.416500 295.292800
v -21458.068700 -12372.843200 294.776600
v -21392.015500 -12363.724100 296.266000
v -20636.216700 -12309.074300 315.310800
v -20645.319300 -12307.676400 315.007300
v -20647.781000 -12309.238400 315.001000
v -20605.497200 -12308.638200 316.112900
v -20625.966700 -12307.171800 315.516800
v -20636.216700 -12309.074300 315.310800
v -20605.223700 -12308.632800 316.119100
v -20625.966700 -12307.171800 315.516800
v -20605.497200 -12308.638200 316.112900
v -20579.822600 -12305.968500 316.610300
v -20625.966700 -12307.171800 315.516800
v -20605.223700 -12308.632800 316.119100
v -20579.822600 -12305.968500 316.610300
v -20605.223700 -12308.632800 316.119100
v -20525.522400 -12306.629200 317.981700
v -16233.981000 -12200.535900 230.317500
v -16236.420800 -12200.578800 230.413500
v -16286.820800 -12201.759000 232.400700
v -16446.778000 -12205.461300 238.967300
v -16421.098200 -12203.820200 237.938500
v -16435.947400 -12204.080800 238.522600
v -16501.085900 -12205.224700 241.177000
v -16446.778000 -12205.461300 238.967300
v -16435.947400 -12204.080800 238.522600
v -16901.024300 -12212.245600 258.119400
v -16934.765400 -12212.837800 259.482200
v -16926.649400 -12216.569200 259.187900
v -16926.649400 -12216.569200 259.187900
v -16934.765400 -12212.837800 259.482200
v -16981.012000 -12213.649900 261.478900
v -17086.606600 -12220.271500 266.093700
v -17060.999600 -12215.054400 264.932300
v -17134.292400 -12216.340800 268.076600
v -17108.968700 -12220.789100 267.060700
v -17086.606600 -12220.271500 266.093700
v -17134.292400 -12216.340800 268.076600
v -17134.730900 -12216.349800 268.093900
v -17108.968700 -12220.789100 267.060700
v -17134.292400 -12216.340800 268.076600
v -17166.583200 -12222.205800 269.517100
v -17108.968700 -12220.789100 267.060700
v -17134.730900 -12216.349800 268.093900
v -17134.730900 -12216.349800 268.093900
v -17140.986500 -12216.498900 268.340600
v -17166.583200 -12222.205800 269.517100
v -17220.963800 -12218.403900 271.794400
v -17166.583200 -12222.205800 269.517100
v -17140.986500 -12216.498900 268.340600
v -17208.750100 -12223.242600 271.345200
v -17166.583200 -12222.205800 269.517100
v -17220.963800 -12218.403900 271.794400
v -17234.480900 -12218.725800 272.380200
v -17208.750100 -12223.242600 271.345200
v -17220.963800 -12218.403900 271.794400
v -17246.558500 -12224.193000 272.984600
v -17208.750100 -12223.242600 271.345200
v -17234.480900 -12218.725800 272.380200
v -17234.638700 -12218.729800 272.387100
v -17246.558500 -12224.193000 272.984600
v -17234.480900 -12218.725800 272.380200
v -17300.937400 -12220.458600 275.171400
v -17246.558500 -12224.193000 272.984600
v -17234.638700 -12218.729800 272.387100
v -17460.883000 -12224.629400 281.744900
v -17408.489200 -12228.264800 279.755000
v -17434.128700 -12223.931800 280.688900
v -17486.482700 -12230.225500 282.871700
v -17408.489200 -12228.264800 279.755000
v -17460.883000 -12224.629400 281.744900
v -17533.873700 -12226.532800 284.864800
v -17486.482700 -12230.225500 282.871700
v -17460.883000 -12224.629400 281.744900
v -17533.873700 -12226.532800 284.864800
v -17508.374200 -12230.775800 283.818800
v -17486.482700 -12230.225500 282.871700
v -17540.855800 -12226.714900 285.161800
v -17508.374200 -12230.775800 283.818800
v -17533.873700 -12226.532800 284.864800
v -19485.850900 -12280.490800 331.814900
v -19460.203200 -12276.769700 331.669500
v -19528.772700 -12278.557800 331.739400
v -19528.772700 -12278.557800 331.739400
v -19506.059200 -12280.998800 331.834700
v -19485.850900 -12280.490800 331.814900
v -19540.176000 -12278.855300 331.751000
v -19506.059200 -12280.998800 331.834700
v -19528.772700 -12278.557800 331.739400
v -20259.931300 -12297.625900 323.714800
v -20326.731700 -12299.367800 322.476500
v -20285.598200 -12300.596700 323.327900
v -20326.731700 -12299.367800 322.476500
v -20305.132700 -12301.087800 322.965600
v -20285.598200 -12300.596700 323.327900
v -20339.904100 -12299.711400 322.232700
v -20305.132700 -12301.087800 322.965600
v -20326.731700 -12299.367800 322.476500
v -20636.216700 -12309.074300 315.310800
v -20625.966700 -12307.171800 315.516800
v -20645.319300 -12307.676400 315.007300
v -20525.522400 -12306.629200 317.981700
v -20526.221700 -12304.570800 317.882200
v -20579.822600 -12305.968500 316.610300
v -20504.901200 -12306.110800 318.525300
v -20526.221700 -12304.570800 317.882200
v -20525.522400 -12306.629200 317.981700
v -20499.849700 -12303.883100 318.576400
v -20526.221700 -12304.570800 317.882200
v -20504.901200 -12306.110800 318.525300
v -20504.901200 -12306.110800 318.525300
v -20445.547700 -12304.618700 319.965100
v -20499.849700 -12303.883100 318.576400
v -20426.477100 -12301.969800 320.308600
v -20499.849700 -12303.883100 318.576400
v -20445.547700 -12304.618700 319.965100
v -20405.017200 -12303.599800 320.875200
v -20426.477100 -12301.969800 320.308600
v -20445.547700 -12304.618700 319.965100
v -20419.876900 -12301.797600 320.456600
v -20426.477100 -12301.969800 320.308600
v -20405.017200 -12303.599800 320.875200
v -20419.876900 -12301.797600 320.456600
v -20405.017200 -12303.599800 320.875200
v -20365.573000 -12302.607800 321.761000
v -20419.876900 -12301.797600 320.456600
v -20365.573000 -12302.607800 321.761000
v -20339.904100 -12299.711400 322.232700
v -20365.573000 -12302.607800 321.761000
v -20305.132700 -12301.087800 322.965600
v -20339.904100 -12299.711400 322.232700
v -20259.931300 -12297.625900 323.714800
v -20285.598200 -12300.596700 323.327900
v -20205.623500 -12298.586200 324.813600
v -20205.623500 -12298.586200 324.813600
v -20226.986700 -12296.766800 324.328000
v -20259.931300 -12297.625900 323.714800
v -20205.249200 -12298.576800 324.820500
v -20226.986700 -12296.766800 324.328000
v -20205.623500 -12298.586200 324.813600
v -20179.958500 -12295.540500 325.193700
v -20226.986700 -12296.766800 324.328000
v -20205.249200 -12298.576800 324.820500
v -20125.648800 -12296.575800 326.294900
v -20179.958500 -12295.540500 325.193700
v -20205.249200 -12298.576800 324.820500
v -20127.241700 -12294.165800 326.169600
v -20179.958500 -12295.540500 325.193700
v -20125.648800 -12296.575800 326.294900
v -20105.364200 -12296.065800 326.671100
v -20127.241700 -12294.165800 326.169600
v -20125.648800 -12296.575800 326.294900
v -20099.985700 -12293.455000 326.674200
v -20127.241700 -12294.165800 326.169600
v -20105.364200 -12296.065800 326.671100
v -20045.674000 -12294.565300 327.653900
v -20099.985700 -12293.455000 326.674200
v -20105.364200 -12296.065800 326.671100
v -20027.497100 -12291.564800 327.820800
v -20099.985700 -12293.455000 326.674200
v -20045.674000 -12294.565300 327.653900
v -20005.480200 -12293.554800 328.221500
v -20027.497100 -12291.564800 327.820800
v -20045.674000 -12294.565300 327.653900
v -20020.012900 -12291.369600 327.930100
v -20027.497100 -12291.564800 327.820800
v -20005.480200 -12293.554800 328.221500
v -19965.699300 -12292.554800 328.648600
v -20020.012900 -12291.369600 327.930100
v -20005.480200 -12293.554800 328.221500
v -19940.040100 -12289.283300 328.837700
v -20020.012900 -12291.369600 327.930100
v -19965.699300 -12292.554800 328.648600
v -19905.596200 -12291.043800 329.444700
v -19940.040100 -12289.283300 328.837700
v -19965.699300 -12292.554800 328.648600
v -19927.751700 -12288.962800 329.017200
v -19940.040100 -12289.283300 328.837700
v -19905.596200 -12291.043800 329.444700
v -19885.724600 -12290.544300 329.735700
v -19927.751700 -12288.962800 329.017200
v -19905.596200 -12291.043800 329.444700
v -19860.067300 -12287.197800 329.869500
v -19927.751700 -12288.962800 329.017200
v -19885.724600 -12290.544300 329.735700
v -19860.067300 -12287.197800 329.869500
v -19885.724600 -12290.544300 329.735700
v -19805.749800 -12288.533800 330.366000
v -19860.067300 -12287.197800 329.869500
v -19805.749800 -12288.533800 330.366000
v -19780.094500 -12285.112400 330.533000
v -19805.749800 -12288.533800 330.366000
v -19805.712200 -12288.532800 330.366400
v -19780.094500 -12285.112400 330.533000
v -19780.094500 -12285.112400 330.533000
v -19805.712200 -12288.532800 330.366400
v -19725.775100 -12286.522500 331.125700
v -19725.775100 -12286.522500 331.125700
v -19728.261700 -12283.760800 331.018900
v -19780.094500 -12285.112400 330.533000
v -19705.826700 -12286.020800 331.186000
v -19728.261700 -12283.760800 331.018900
v -19725.775100 -12286.522500 331.125700
v -19700.121600 -12283.027000 331.103000
v -19728.261700 -12283.760800 331.018900
v -19705.826700 -12286.020800 331.186000
v -19645.800400 -12284.511800 331.438500
v -19700.121600 -12283.027000 331.103000
v -19705.826700 -12286.020800 331.186000
v -19628.517100 -12281.159800 331.442600
v -19700.121600 -12283.027000 331.103000
v -19645.800400 -12284.511800 331.438500
v -19605.943200 -12283.509800 331.691600
v -19628.517100 -12281.159800 331.442600
v -19645.800400 -12284.511800 331.438500
v -19620.148800 -12280.941500 331.499500
v -19628.517100 -12281.159800 331.442600
v -19605.943200 -12283.509800 331.691600
v -19605.943200 -12283.509800 331.691600
v -19565.825700 -12282.501300 331.808900
v -19620.148800 -12280.941500 331.499500
v -19540.176000 -12278.855300 331.751000
v -19555.386600 -12279.252100 331.722700
v -19565.825700 -12282.501300 331.808900
v -19555.386600 -12279.252100 331.722700
v -19620.148800 -12280.941500 331.499500
v -19565.825700 -12282.501300 331.808900
v -19506.059200 -12280.998800 331.834700
v -19540.176000 -12278.855300 331.751000
v -19565.825700 -12282.501300 331.808900
v -19406.175200 -12278.487800 331.736600
v -19460.203200 -12276.769700 331.669500
v -19485.850900 -12280.490800 331.814900
v -19429.027700 -12275.956800 331.637800
v -19460.203200 -12276.769700 331.669500
v -19406.175200 -12278.487800 331.736600
v -19405.876200 -12278.480300 331.736300
v -19429.027700 -12275.956800 331.637800
v -19406.175200 -12278.487800 331.736600
v -19380.230400 -12274.684300 331.559600
v -19429.027700 -12275.956800 331.637800
v -19405.876200 -12278.480300 331.736300
v -19325.901500 -12276.469800 331.410200
v -19380.230400 -12274.684300 331.559600
v -19405.876200 -12278.480300 331.736300
v -19329.282700 -12273.355800 331.313900
v -19380.230400 -12274.684300 331.559600
v -19325.901500 -12276.469800 331.410200
v -19306.290200 -12275.976800 331.316200
v -19329.282700 -12273.355800 331.313900
v -19325.901500 -12276.469800 331.410200
v -19300.257600 -12272.598900 331.173900
v -19329.282700 -12273.355800 331.313900
v -19306.290200 -12275.976800 331.316200
v -19300.257600 -12272.598900 331.173900
v -19306.290200 -12275.976800 331.316200
v -19245.926700 -12274.459300 330.903700
v -19245.926700 -12274.459300 330.903700
v -19229.538100 -12270.754800 330.645400
v -19300.257600 -12272.598900 331.173900
v -19206.406200 -12273.465800 330.560000
v -19229.538100 -12270.754800 330.645400
v -19245.926700 -12274.459300 330.903700
v -19220.284800 -12270.513400 330.564600
v -19229.538100 -12270.754800 330.645400
v -19206.406200 -12273.465800 330.560000
v -19206.406200 -12273.465800 330.560000
v -19165.952000 -12272.448400 330.208200
v -19220.284800 -12270.513400 330.564600
v -19140.312000 -12268.427200 329.866500
v -19172.472300 -12269.266100 330.147200
v -19165.952000 -12272.448400 330.208200
v -19220.284800 -12270.513400 330.564600
v -19165.952000 -12272.448400 330.208200
v -19172.472300 -12269.266100 330.147200
v -19106.521700 -12270.953800 329.691300
v -19140.312000 -12268.427200 329.866500
v -19165.952000 -12272.448400 330.208200
v -19129.792700 -12268.152800 329.774700
v -19140.312000 -12268.427200 329.866500
v -19106.521700 -12270.953800 329.691300
v -19085.977300 -12270.437400 329.512700
v -19129.792700 -12268.152800 329.774700
v -19106.521700 -12270.953800 329.691300
v -19060.339200 -12266.341700 329.101300
v -19129.792700 -12268.152800 329.774700
v -19085.977300 -12270.437400 329.512700
v -19006.638200 -12268.442800 328.545800
v -19060.339200 -12266.341700 329.101300
v -19085.977300 -12270.437400 329.512700
v -19030.047700 -12265.551800 328.718500
v -19060.339200 -12266.341700 329.101300
v -19006.638200 -12268.442800 328.545800
v -19006.002600 -12268.426900 328.537800
v -19030.047700 -12265.551800 328.718500
v -19006.638200 -12268.442800 328.545800
v -18980.366400 -12264.256300 328.090800
v -19030.047700 -12265.551800 328.718500
v -19006.002600 -12268.426900 328.537800
v -18930.757300 -12266.535300 327.399700
v -18926.027800 -12266.416400 327.322100
v -18980.366400 -12264.256300 328.090800
v -18980.366400 -12264.256300 328.090800
v -19006.002600 -12268.426900 328.537800
v -18930.757300 -12266.535300 327.399700
v -18930.302700 -12262.950800 327.280600
v -18980.366400 -12264.256300 328.090800
v -18926.027800 -12266.416400 327.322100
v -18906.753200 -12265.931800 327.005800
v -18930.302700 -12262.950800 327.280600
v -18926.027800 -12266.416400 327.322100
v -18900.393600 -12262.170900 326.788900
v -18930.302700 -12262.950800 327.280600
v -18906.753200 -12265.931800 327.005800
v -18846.053100 -12264.405900 326.009600
v -18900.393600 -12262.170900 326.788900
v -18906.753200 -12265.931800 327.005800
v -18830.558100 -12260.349800 325.604500
v -18900.393600 -12262.170900 326.788900
v -18846.053100 -12264.405900 326.009600
v -18806.869200 -12263.420800 325.225800
v -18830.558100 -12260.349800 325.604500
v -18846.053100 -12264.405900 326.009600
v -18820.420700 -12260.085300 325.399300
v -18830.558100 -12260.349800 325.604500
v -18806.869200 -12263.420800 325.225800
v -18820.420700 -12260.085300 325.399300
v -18806.869200 -12263.420800 325.225800
v -18766.078400 -12262.395400 324.401100
v -18820.420700 -12260.085300 325.399300
v -18766.078400 -12262.395400 324.401100
v -18740.447900 -12257.999100 323.780300
v -18766.078400 -12262.395400 324.401100
v -18706.985200 -12260.909800 323.206300
v -18740.447900 -12257.999100 323.780300
v -18706.985200 -12260.909800 323.206300
v -18730.812700 -12257.747800 323.585200
v -18740.447900 -12257.999100 323.780300
v -18686.103600 -12260.384900 322.784100
v -18730.812700 -12257.747800 323.585200
v -18706.985200 -12260.909800 323.206300
v -18660.475100 -12255.913600 322.094700
v -18730.812700 -12257.747800 323.585200
v -18686.103600 -12260.384900 322.784100
v -18607.100200 -12258.398800 320.911700
v -18660.475100 -12255.913600 322.094700
v -18686.103600 -12260.384900 322.784100
v -18607.100200 -12258.398800 320.911700
v -18631.067700 -12255.146800 321.384500
v -18660.475100 -12255.913600 322.094700
v -18606.128900 -12258.374400 320.888200
v -18631.067700 -12255.146800 321.384500
v -18607.100200 -12258.398800 320.911700
v -18580.502300 -12253.828200 320.163300
v -18631.067700 -12255.146800 321.384500
v -18606.128900 -12258.374400 320.888200
v -18526.154200 -12256.363100 318.958800
v -18580.502300 -12253.828200 320.163300
v -18585.736900 -12257.861600 320.396300
v -18606.128900 -12258.374400 320.888200
v -18585.736900 -12257.861600 320.396300
v -18580.502300 -12253.828200 320.163300
v -18531.322700 -12252.545800 318.975600
v -18580.502300 -12253.828200 320.163300
v -18526.154200 -12256.363100 318.958800
v -18507.215700 -12255.886800 318.501900
v -18531.322700 -12252.545800 318.975600
v -18526.154200 -12256.363100 318.958800
v -18500.529500 -12251.742800 318.231900
v -18531.322700 -12252.545800 318.975600
v -18507.215700 -12255.886800 318.501900
v -18500.529500 -12251.742800 318.231900
v -18507.215700 -12255.886800 318.501900
v -18446.179500 -12254.352400 316.907000
v -18446.179500 -12254.352400 316.907000
v -18431.578100 -12249.944800 316.387200
v -18500.529500 -12251.742800 318.231900
v -18407.332200 -12253.375800 315.818100
v -18431.578100 -12249.944800 316.387200
v -18446.179500 -12254.352400 316.907000
v -18420.556700 -12249.657300 316.078000
v -18431.578100 -12249.944800 316.387200
v -18407.332200 -12253.375800 315.818100
v -18366.204700 -12252.341900 314.665200
v -18420.556700 -12249.657300 316.078000
v -18407.332200 -12253.375800 315.818100
v -18340.583900 -12247.571100 313.770900
v -18420.556700 -12249.657300 316.078000
v -18366.204700 -12252.341900 314.665200
v -18307.448200 -12250.864800 312.942100
v -18340.583900 -12247.571100 313.770900
v -18366.204700 -12252.341900 314.665200
v -18331.832700 -12247.342800 313.526300
v -18340.583900 -12247.571100 313.770900
v -18307.448200 -12250.864800 312.942100
v -18286.230000 -12250.331400 312.349400
v -18331.832700 -12247.342800 313.526300
v -18307.448200 -12250.864800 312.942100
v -18260.611100 -12245.485600 311.469200
v -18331.832700 -12247.342800 313.526300
v -18286.230000 -12250.331400 312.349400
v -18207.563200 -12248.353800 309.878700
v -18260.611100 -12245.485600 311.469200
v -18286.230000 -12250.331400 312.349400
v -18232.087700 -12244.741800 310.560400
v -18260.611100 -12245.485600 311.469200
v -18207.563200 -12248.353800 309.878700
v -18206.255300 -12248.321000 309.837100
v -18232.087700 -12244.741800 310.560400
v -18207.563200 -12248.353800 309.878700
v -18180.638300 -12243.400200 308.921200
v -18232.087700 -12244.741800 310.560400
v -18206.255300 -12248.321000 309.837100
v -18128.226300 -12246.359400 307.231700
v -18126.280500 -12246.310500 307.162400
v -18180.638300 -12243.400200 308.921200
v -18180.638300 -12243.400200 308.921200
v -18206.255300 -12248.321000 309.837100
v -18128.226300 -12246.359400 307.231700
v -18100.665500 -12241.314800 306.164300
v -18137.509400 -12242.275500 307.478300
v -18126.280500 -12246.310500 307.162400
v -18180.638300 -12243.400200 308.921200
v -18126.280500 -12246.310500 307.162400
v -18137.509400 -12242.275500 307.478300
v -18126.280500 -12246.310500 307.162400
v -18107.679200 -12245.842800 306.499300
v -18100.665500 -12241.314800 306.164300
v -18107.679200 -12245.842800 306.499300
v -18046.305800 -12244.300000 304.433400
v -18100.665500 -12241.314800 306.164300
v -18032.598100 -12239.539800 303.912100
v -18100.665500 -12241.314800 306.164300
v -18046.305800 -12244.300000 304.433400
v -18007.795200 -12243.331800 303.199100
v -18032.598100 -12239.539800 303.912100
v -18046.305800 -12244.300000 304.433400
v -18020.692600 -12239.229200 303.534000
v -18032.598100 -12239.539800 303.912100
v -18007.795200 -12243.331800 303.199100
v -18020.692600 -12239.229200 303.534000
v -18007.795200 -12243.331800 303.199100
v -18000.000000 -12240.000000 302.860000
v -18000.000000 -12240.000000 302.860000
v -18007.795200 -12243.331800 303.199100
v -17966.331100 -12242.289000 301.721000
v -16336.184400 -12202.329800 234.420000
v -16309.932400 -12202.293900 233.311800
v -16286.820800 -12201.759000 232.400700
v -16261.122900 -12201.012300 231.385200
v -16336.184400 -12202.329800 234.420000
v -16286.820800 -12201.759000 232.400700
v -16236.420800 -12200.578800 230.413500
v -16261.122900 -12201.012300 231.385200
v -16286.820800 -12201.759000 232.400700
v -16366.799400 -12203.610100 235.750500
v -16309.932400 -12202.293900 233.311800
v -16336.184400 -12202.329800 234.420000
v -16341.110600 -12202.416200 234.632700
v -16366.799400 -12203.610100 235.750500
v -16336.184400 -12202.329800 234.420000
v -16421.098200 -12203.820200 237.938500
v -16366.799400 -12203.610100 235.750500
v -16341.110600 -12202.416200 234.632700
v -16409.821400 -12204.605900 237.510300
v -16366.799400 -12203.610100 235.750500
v -16421.098200 -12203.820200 237.938500
v -16446.778000 -12205.461300 238.967300
v -16409.821400 -12204.605900 237.510300
v -16421.098200 -12203.820200 237.938500
v -16526.756600 -12207.312400 242.312700
v -16490.922800 -12206.483000 240.760000
v -16501.085900 -12205.224700 241.177000
v -16446.778000 -12205.461300 238.967300
v -16501.085900 -12205.224700 241.177000
v -16490.922800 -12206.483000 240.760000
v -16501.085900 -12205.224700 241.177000
v -16535.711800 -12205.832800 242.674400
v -16526.756600 -12207.312400 242.312700
v -16535.711800 -12205.832800 242.674400
v -16581.073600 -12206.629000 244.491900
v -16526.756600 -12207.312400 242.312700
v -16606.735200 -12209.163600 245.604500
v -16526.756600 -12207.312400 242.312700
v -16581.073600 -12206.629000 244.491900
v -16581.073600 -12206.629000 244.491900
v -16635.474400 -12207.583800 246.820900
v -16606.735200 -12209.163600 245.604500
v -16635.474400 -12207.583800 246.820900
v -16609.599400 -12209.229900 245.728400
v -16606.735200 -12209.163600 245.604500
v -16686.713700 -12211.014800 248.983300
v -16609.599400 -12209.229900 245.728400
v -16635.474400 -12207.583800 246.820900
v -16686.713700 -12211.014800 248.983300
v -16635.474400 -12207.583800 246.820900
v -16661.061300 -12208.033100 247.898700
v -16846.670900 -12214.718100 255.914300
v -16835.001400 -12211.086800 255.356200
v -16901.024300 -12212.245600 258.119400
v -16846.670900 -12214.718100 255.914300
v -16901.024300 -12212.245600 258.119400
v -16926.649400 -12216.569200 259.187900
v -17006.628000 -12218.420400 262.635500
v -16990.090700 -12218.037600 261.920400
v -16981.012000 -12213.649900 261.478900
v -16926.649400 -12216.569200 259.187900
v -16981.012000 -12213.649900 261.478900
v -16990.090700 -12218.037600 261.920400
v -17034.528800 -12214.589800 263.789400
v -17006.628000 -12218.420400 262.635500
v -16981.012000 -12213.649900 261.478900
v -17086.606600 -12220.271500 266.093700
v -17034.528800 -12214.589800 263.789400
v -17060.999600 -12215.054400 264.932300
v -17006.628000 -12218.420400 262.635500
v -17034.528800 -12214.589800 263.789400
v -17086.606600 -12220.271500 266.093700
v -17246.558500 -12224.193000 272.984600
v -17300.937400 -12220.458600 275.171400
v -17308.604700 -12225.752800 275.553600
v -17334.383700 -12221.330800 276.492400
v -17308.604700 -12225.752800 275.553600
v -17300.937400 -12220.458600 275.171400
v -17380.910200 -12222.544000 278.505800
v -17434.128700 -12223.931800 280.688900
v -17406.508000 -12228.215000 279.672200
v -17434.128700 -12223.931800 280.688900
v -17408.489200 -12228.264800 279.755000
v -17406.508000 -12228.215000 279.672200
v -17566.457400 -12232.236000 286.248100
v -17508.374200 -12230.775800 283.818800
v -17540.855800 -12226.714900 285.161800
v -17540.855800 -12226.714900 285.161800
v -17600.631400 -12228.274300 287.521100
v -17566.457400 -12232.236000 286.248100
v -17620.828600 -12228.801100 288.328300
v -17566.457400 -12232.236000 286.248100
v -17600.631400 -12228.274300 287.521100
v -17708.142200 -12235.797800 291.855700
v -17700.801400 -12230.886700 291.473000
v -17733.362700 -12231.735800 292.761500
v -17726.406900 -12236.257000 292.578100
v -17708.142200 -12235.797800 291.855700
v -17733.362700 -12231.735800 292.761500
v -17726.406900 -12236.257000 292.578100
v -17733.362700 -12231.735800 292.761500
v -17780.774200 -12232.972100 294.631400
v -17726.406900 -12236.257000 292.578100
v -17780.774200 -12232.972100 294.631400
v -17806.381600 -12238.267500 295.714400
v -17780.774200 -12232.972100 294.631400
v -17808.026200 -12238.308800 295.779300
v -17806.381600 -12238.267500 295.714400
v -17860.747000 -12235.057500 297.607400
v -17808.026200 -12238.308800 295.779300
v -17780.774200 -12232.972100 294.631400
v -17880.000000 -12240.000000 298.380800
v -17808.026200 -12238.308800 295.779300
v -17860.747000 -12235.057500 297.607400
v -17880.000000 -12240.000000 298.380800
v -17860.747000 -12235.057500 297.607400
v -17886.356400 -12240.278000 298.609700
v -17860.747000 -12235.057500 297.607400
v -17932.852700 -12236.937800 300.373500
v -17886.356400 -12240.278000 298.609700
v -17932.852700 -12236.937800 300.373500
v -17907.910700 -12240.819800 299.459800
v -17886.356400 -12240.278000 298.609700
v -17940.719900 -12237.143000 300.684000
v -17907.910700 -12240.819800 299.459800
v -17932.852700 -12236.937800 300.373500
v -17940.719900 -12237.143000 300.684000
v -18020.692600 -12239.229200 303.534000
v -18000.000000 -12240.000000 302.860000
v -17940.719900 -12237.143000 300.684000
v -18000.000000 -12240.000000 302.860000
v -17966.331100 -12242.289000 301.721000
v -17966.331100 -12242.289000 301.721000
v -17907.910700 -12240.819800 299.459800
v -17940.719900 -12237.143000 300.684000
v -17886.356400 -12240.278000 298.609700
v -17808.026200 -12238.308800 295.779300
v -17880.000000 -12240.000000 298.380800
v -16686.713700 -12211.014800 248.983300
v -16735.238800 -12209.335800 251.042100
v -16709.487800 -12211.541900 249.970100
v -16661.061300 -12208.033100 247.898700
v -16735.238800 -12209.335800 251.042100
v -16686.713700 -12211.014800 248.983300
v -16741.048900 -12209.437800 251.293400
v -16764.817200 -12209.854900 252.321200
v -16766.692300 -12212.866500 252.448800
v -16821.036600 -12210.841700 254.752300
v -16766.692300 -12212.866500 252.448800
v -16764.817200 -12209.854900 252.321200
v -16809.377400 -12213.854900 254.298400
v -16766.692300 -12212.866500 252.448800
v -16821.036600 -12210.841700 254.752300
v -16846.670900 -12214.718100 255.914300
v -16809.377400 -12213.854900 254.298400
v -16821.036600 -12210.841700 254.752300
v -16835.001400 -12211.086800 255.356200
v -16846.670900 -12214.718100 255.914300
v -16821.036600 -12210.841700 254.752300
v -16766.692300 -12212.866500 252.448800
v -16735.238800 -12209.335800 251.042100
v -16741.048900 -12209.437800 251.293400
v -16709.487800 -12211.541900 249.970100
v -16735.238800 -12209.335800 251.042100
v -16766.692300 -12212.866500 252.448800
v -17608.258200 -12233.286800 287.897400
v -17566.457400 -12232.236000 286.248100
v -17620.828600 -12228.801100 288.328300
v -17633.619100 -12229.134800 288.831900
v -17608.258200 -12233.286800 287.897400
v -17620.828600 -12228.801100 288.328300
v -17700.801400 -12230.886700 291.473000
v -17646.432200 -12234.246500 289.414800
v -17633.619100 -12229.134800 288.831900
v -17708.142200 -12235.797800 291.855700
v -17646.432200 -12234.246500 289.414800
v -17700.801400 -12230.886700 291.473000
v -17608.258200 -12233.286800 287.897400
v -17633.619100 -12229.134800 288.831900
v -17646.432200 -12234.246500 289.414800
v -17406.508000 -12228.215000 279.672200
v -17361.663100 -12227.087200 277.732000
v -17380.910200 -12222.544000 278.505800
v -17326.533200 -12226.203700 276.261000
v -17380.910200 -12222.544000 278.505800
v -17361.663100 -12227.087200 277.732000
v -17334.383700 -12221.330800 276.492400
v -17380.910200 -12222.544000 278.505800
v -17326.533200 -12226.203700 276.261000
v -17308.604700 -12225.752800 275.553600
v -17334.383700 -12221.330800 276.492400
v -17326.533200 -12226.203700 276.261000
v -14758.081300 -12166.709500 174.947000
v -14711.730900 -12165.650600 173.300900
v -14741.138800 -12166.256300 174.344300
v -14441.561700 -12158.244000 163.636600
v -14451.882600 -12159.714900 164.034000
v -14412.061900 -12158.805600 162.612700
v -14421.253200 -12157.700800 162.909900
v -14441.561700 -12158.244000 163.636600
v -14412.061900 -12158.805600 162.612700
v -14421.253200 -12157.700800 162.909900
v -14412.061900 -12158.805600 162.612700
v -14371.903500 -12157.888200 161.179400
v -13612.759800 -12140.547400 135.798000
v -13643.497900 -12136.898000 136.538700
v -13652.091200 -12141.445600 136.898000
v -13621.538300 -12136.347600 135.923200
v -13643.497900 -12136.898000 136.538700
v -13612.759800 -12140.547400 135.798000
v -13612.644700 -12140.544500 135.794800
v -13621.538300 -12136.347600 135.923200
v -13612.759800 -12140.547400 135.798000
v -13572.116800 -12139.432300 134.504900
v -13621.538300 -12136.347600 135.923200
v -13612.644700 -12140.544500 135.794800
v -13572.116800 -12139.432300 134.504900
v -13512.582500 -12137.798500 132.618100
v -13541.563300 -12134.345600 133.411000
v -13512.582500 -12137.798500 132.618100
v -13492.147100 -12137.230900 132.041600
v -13541.563300 -12134.345600 133.411000
v -13461.586200 -12132.433400 131.056100
v -13528.083300 -12134.023300 132.980900
v -13492.147100 -12137.230900 132.041600
v -13541.563300 -12134.345600 133.411000
v -13492.147100 -12137.230900 132.041600
v -13528.083300 -12134.023300 132.980900
v -13443.920500 -12132.011000 130.559800
v -13461.586200 -12132.433400 131.056100
v -13492.147100 -12137.230900 132.041600
v -13412.670800 -12135.023500 129.799500
v -13443.920500 -12132.011000 130.559800
v -13492.147100 -12137.230900 132.041600
v -13412.177900 -12135.009800 129.785600
v -13443.920500 -12132.011000 130.559800
v -13412.670800 -12135.023500 129.799500
v -12821.769700 -12117.109700 115.415200
v -12852.393800 -12119.461400 116.096000
v -12813.406800 -12118.378500 115.296500
v -12813.406800 -12118.378500 115.296500
v -12772.424700 -12117.239900 114.456000
v -12821.769700 -12117.109700 115.415200
v -12397.231900 -12106.818600 108.411700
v -12421.887100 -12107.416300 108.777200
v -12452.548000 -12108.355000 109.173200
v -13541.563300 -12134.345600 133.411000
v -13543.670200 -12134.396000 133.478200
v -13572.116800 -12139.432300 134.504900
v -13543.670200 -12134.396000 133.478200
v -13543.750900 -12134.398000 133.480800
v -13572.116800 -12139.432300 134.504900
v -13543.750900 -12134.398000 133.480800
v -13621.538300 -12136.347600 135.923200
v -13572.116800 -12139.432300 134.504900
v -13412.177900 -12135.009800 129.785600
v -13381.609100 -12130.520500 128.809400
v -13443.920500 -12132.011000 130.559800
v -13332.208800 -12132.788000 127.529500
v -13381.609100 -12130.520500 128.809400
v -13364.636100 -12133.688900 128.444300
v -13412.177900 -12135.009800 129.785600
v -13364.636100 -12133.688900 128.444300
v -13381.609100 -12130.520500 128.809400
v -13252.239600 -12130.566700 125.372200
v -13212.915900 -12129.474500 124.416400
v -13221.654800 -12126.695700 124.534400
v -13221.654800 -12126.695700 124.534400
v -13212.915900 -12129.474500 124.416400
v -13172.270500 -12128.345600 123.286500
v -13172.270500 -12128.345600 123.286500
v -13144.669500 -12124.855000 122.516900
v -13221.654800 -12126.695700 124.534400
v -13141.677600 -12124.783400 122.444200
v -13144.669500 -12124.855000 122.516900
v -13172.270500 -12128.345600 123.286500
v -13141.677600 -12124.783400 122.444200
v -13172.270500 -12128.345600 123.286500
v -13092.301300 -12126.124600 121.334100
v -13061.700500 -12122.870400 120.564300
v -13111.243800 -12124.055500 121.705300
v -13092.301300 -12126.124600 121.334100
v -13141.677600 -12124.783400 122.444200
v -13092.301300 -12126.124600 121.334100
v -13111.243800 -12124.055500 121.705300
v -13044.918200 -12122.469000 120.222400
v -13061.700500 -12122.870400 120.564300
v -13092.301300 -12126.124600 121.334100
v -13013.161800 -12123.926500 119.561300
v -13044.918200 -12122.469000 120.222400
v -13092.301300 -12126.124600 121.334100
v -13012.332100 -12123.903500 119.541100
v -13044.918200 -12122.469000 120.222400
v -13013.161800 -12123.926500 119.561300
v -12981.723400 -12120.958000 118.731700
v -13044.918200 -12122.469000 120.222400
v -13012.332100 -12123.903500 119.541100
v -12974.799500 -12122.861100 118.628800
v -12932.363000 -12121.682400 117.736000
v -12981.723400 -12120.958000 118.731700
v -12981.723400 -12120.958000 118.731700
v -13012.332100 -12123.903500 119.541100
v -12974.799500 -12122.861100 118.628800
v -12932.363000 -12121.682400 117.736000
v -12945.173800 -12120.084100 117.930000
v -12981.723400 -12120.958000 118.731700
v -12901.746400 -12119.038800 117.045100
v -12945.173800 -12120.084100 117.930000
v -12932.363000 -12121.682400 117.736000
v -12913.283900 -12121.152500 117.344700
v -12901.746400 -12119.038800 117.045100
v -12932.363000 -12121.682400 117.736000
v -12852.393800 -12119.461400 116.096000
v -12901.746400 -12119.038800 117.045100
v -12913.283900 -12121.152500 117.344700
v -12845.435400 -12117.683400 115.897600
v -12901.746400 -12119.038800 117.045100
v -12852.393800 -12119.461400 116.096000
v -12852.393800 -12119.461400 116.096000
v -12821.769700 -12117.109700 115.415200
v -12845.435400 -12117.683400 115.897600
v -12745.691300 -12115.265600 113.925900
v -12821.769700 -12117.109700 115.415200
v -12772.424700 -12117.239900 114.456000
v -12741.793200 -12115.171100 113.861300
v -12745.691300 -12115.265600 113.925900
v -12772.424700 -12117.239900 114.456000
v -12713.529300 -12115.603500 113.436600
v -12741.793200 -12115.171100 113.861300
v -12772.424700 -12117.239900 114.456000
v -12613.651900 -12112.829500 111.709800
v -12645.942300 -12112.847600 112.215000
v -12692.455500 -12115.018200 113.076400
v -12612.486400 -12112.797200 111.690500
v -12645.942300 -12112.847600 112.215000
v -12613.651900 -12112.829500 111.709800
v -12581.840200 -12111.293700 111.158800
v -12645.942300 -12112.847600 112.215000
v -12612.486400 -12112.797200 111.690500
v -12532.517200 -12110.576100 110.411900
v -12581.840200 -12111.293700 111.158800
v -12612.486400 -12112.797200 111.690500
v -12546.192300 -12110.429600 110.612000
v -12581.840200 -12111.293700 111.158800
v -12532.517200 -12110.576100 110.411900
v -12513.774800 -12110.055500 110.098700
v -12546.192300 -12110.429600 110.612000
v -12532.517200 -12110.576100 110.411900
v -12501.863600 -12109.355000 109.885200
v -12546.192300 -12110.429600 110.612000
v -12513.774800 -12110.055500 110.098700
v -12513.774800 -12110.055500 110.098700
v -12452.548000 -12108.355000 109.173200
v -12501.863600 -12109.355000 109.885200
v -12446.443300 -12108.011600 109.088200
v -12501.863600 -12109.355000 109.885200
v -12452.548000 -12108.355000 109.173200
v -12421.887100 -12107.416300 108.777200
v -12446.443300 -12108.011600 109.088200
v -12452.548000 -12108.355000 109.173200
v -13332.208800 -12132.788000 127.529500
v -13301.631900 -12128.607900 126.562800
v -13344.169200 -12129.625000 127.757700
v -13381.609100 -12130.520500 128.809400
v -13332.208800 -12132.788000 127.529500
v -13344.169200 -12129.625000 127.757700
v -13312.793300 -12132.248500 126.981700
v -13301.631900 -12128.607900 126.562800
v -13332.208800 -12132.788000 127.529500
v -13301.631900 -12128.607900 126.562800
v -13312.793300 -12132.248500 126.981700
v -13252.239600 -12130.566700 125.372200
v -13221.654800 -12126.695700 124.534400
v -13243.748000 -12127.224000 125.068700
v -13252.239600 -12130.566700 125.372200
v -13301.631900 -12128.607900 126.562800
v -13252.239600 -12130.566700 125.372200
v -13243.748000 -12127.224000 125.068700
v -12692.455500 -12115.018200 113.076400
v -12661.816700 -12113.232400 112.476600
v -12741.793200 -12115.171100 113.861300
v -12713.529300 -12115.603500 113.436600
v -12692.455500 -12115.018200 113.076400
v -12741.793200 -12115.171100 113.861300
v -12645.942300 -12112.847600 112.215000
v -12661.816700 -12113.232400 112.476600
v -12692.455500 -12115.018200 113.076400
v -13643.497900 -12136.898000 136.538700
v -13643.615700 -12136.901000 136.542000
v -13652.091200 -12141.445600 136.898000
v -13652.091200 -12141.445600 136.898000
v -13643.615700 -12136.901000 136.542000
v -13701.510600 -12138.449600 138.261100
v -14740.791000 -12166.247000 174.331900
v -14711.730900 -12165.650600 173.300900
v -14661.167400 -12164.118000 171.497100
v -14741.138800 -12166.256300 174.344300
v -14711.730900 -12165.650600 173.300900
v -14740.791000 -12166.247000 174.331900
v -14711.730900 -12165.650600 173.300900
v -14695.046200 -12165.269400 172.708400
v -14661.167400 -12164.118000 171.497100
v -14695.046200 -12165.269400 172.708400
v -14615.067100 -12163.442300 169.863200
v -14661.167400 -12164.118000 171.497100
v -14641.047400 -12163.580000 170.779200
v -14661.167400 -12164.118000 171.497100
v -14615.067100 -12163.442300 169.863200
v -14581.196000 -12161.979100 168.643800
v -14641.047400 -12163.580000 170.779200
v -14615.067100 -12163.442300 169.863200
v -14611.840900 -12163.368600 169.748300
v -14581.196000 -12161.979100 168.643800
v -14615.067100 -12163.442300 169.863200
v -14581.196000 -12161.979100 168.643800
v -14611.840900 -12163.368600 169.748300
v -14531.861800 -12161.541500 166.888500
v -14501.224600 -12159.839900 165.771600
v -14511.951400 -12161.086600 166.177900
v -14451.882600 -12159.714900 164.034000
v -14441.561700 -12158.244000 163.636600
v -14501.224600 -12159.839900 165.771600
v -14451.882600 -12159.714900 164.034000
v -14541.304700 -12160.912000 167.209300
v -14511.951400 -12161.086600 166.177900
v -14501.224600 -12159.839900 165.771600
v -14531.861800 -12161.541500 166.888500
v -14511.951400 -12161.086600 166.177900
v -14541.304700 -12160.912000 167.209300
v -14531.861800 -12161.541500 166.888500
v -14541.304700 -12160.912000 167.209300
v -14581.196000 -12161.979100 168.643800
v -14341.281800 -12155.561700 160.048300
v -14421.253200 -12157.700800 162.909900
v -14371.903500 -12157.888200 161.179400
v -14371.903500 -12157.888200 161.179400
v -14312.171900 -12156.523600 159.047500
v -14341.281800 -12155.561700 160.048300
v -14042.588700 -12147.573000 149.620600
v -14051.986900 -12150.580300 150.021500
v -14012.502900 -12149.678600 148.612200
v -14021.396200 -12147.006200 148.862200
v -14042.588700 -12147.573000 149.620600
v -14012.502900 -12149.678600 148.612200
v -14012.502900 -12149.678600 148.612200
v -13972.007800 -12148.753500 147.256300
v -14021.396200 -12147.006200 148.862200
v -13942.845700 -12144.905000 146.239800
v -14021.396200 -12147.006200 148.862200
v -13972.007800 -12148.753500 147.256300
v -13912.612900 -12147.396600 145.363200
v -13942.845700 -12144.905000 146.239800
v -13972.007800 -12148.753500 147.256300
v -13941.424800 -12144.867000 146.194400
v -13942.845700 -12144.905000 146.239800
v -13912.612900 -12147.396600 145.363200
v -13892.028700 -12146.926400 144.707000
v -13941.424800 -12144.867000 146.194400
v -13912.612900 -12147.396600 145.363200
v -13861.453400 -12142.727900 143.636800
v -13900.300300 -12143.767000 144.879100
v -13892.028700 -12146.926400 144.707000
v -13941.424800 -12144.867000 146.194400
v -13892.028700 -12146.926400 144.707000
v -13900.300300 -12143.767000 144.879100
v -13892.028700 -12146.926400 144.707000
v -13812.722900 -12145.114600 142.002600
v -13861.453400 -12142.727900 143.636800
v -13861.453400 -12142.727900 143.636800
v -13812.722900 -12145.114600 142.002600
v -13781.482000 -12140.588800 140.818700
v -13781.482000 -12140.588800 140.818700
v -13812.722900 -12145.114600 142.002600
v -13812.049500 -12145.099200 141.978500
v -13781.482000 -12140.588800 140.818700
v -13812.049500 -12145.099200 141.978500
v -13732.070400 -12143.272100 139.348000
v -13701.510600 -12138.449600 138.261100
v -13712.833400 -12142.832600 138.734800
v -13652.091200 -12141.445600 136.898000
v -13732.070400 -12143.272100 139.348000
v -13712.833400 -12142.832600 138.734800
v -13701.510600 -12138.449600 138.261100
v -13701.510600 -12138.449600 138.261100
v -13743.359700 -12139.569000 139.599500
v -13732.070400 -12143.272100 139.348000
v -14242.075000 -12152.908000 156.498400
v -14212.281900 -12154.241600 155.482200
v -14181.339000 -12151.284000 154.377500
v -14261.310400 -12153.422500 157.186700
v -14212.281900 -12154.241600 155.482200
v -14242.075000 -12152.908000 156.498400
v -14291.924300 -12156.061100 158.324800
v -14212.281900 -12154.241600 155.482200
v -14261.310400 -12153.422500 157.186700
v -14312.171900 -12156.523600 159.047500
v -14291.924300 -12156.061100 158.324800
v -14261.310400 -12153.422500 157.186700
v -14337.132700 -12155.450700 159.899800
v -14341.281800 -12155.561700 160.048300
v -14312.171900 -12156.523600 159.047500
v -14312.171900 -12156.523600 159.047500
v -14261.310400 -12153.422500 157.186700
v -14337.132700 -12155.450700 159.899800
v -14212.281900 -12154.241600 155.482200
v -14211.945200 -12154.233900 155.470200
v -14181.339000 -12151.284000 154.377500
v -14131.966100 -12152.406800 152.663600
v -14181.339000 -12151.284000 154.377500
v -14211.945200 -12154.233900 155.470200
v -14051.986900 -12150.580300 150.021500
v -14101.367600 -12149.145300 151.630700
v -14112.392400 -12151.959600 152.041200
v -14042.588700 -12147.573000 149.620600
v -14101.367600 -12149.145300 151.630700
v -14051.986900 -12150.580300 150.021500
v -14142.331400 -12150.241000 152.985700
v -14112.392400 -12151.959600 152.041200
v -14101.367600 -12149.145300 151.630700
v -14142.331400 -12150.241000 152.985700
v -14181.339000 -12151.284000 154.377500
v -14131.966100 -12152.406800 152.663600
v -14112.392400 -12151.959600 152.041200
v -14142.331400 -12150.241000 152.985700
v -14131.966100 -12152.406800 152.663600
v -13732.070400 -12143.272100 139.348000
v -13743.359700 -12139.569000 139.599500
v -13781.482000 -12140.588800 140.818700
v -6065.978100 -11953.326000 77.370400
v -6062.475200 -11953.212600 77.289200
v -6086.886200 -11953.805300 77.856700
v -6021.677500 -11952.310400 76.340000
v -6062.475200 -11953.212600 77.289200
v -6065.978100 -11953.326000 77.370400
v -6027.817200 -11952.371100 76.483400
v -6062.475200 -11953.212600 77.289200
v -6021.677500 -11952.310400 76.340000
v -5985.999200 -11951.492500 75.464700
v -6027.817200 -11952.371100 76.483400
v -6021.677500 -11952.310400 76.340000
v -5522.229500 -11940.860400 62.740800
v -5563.727800 -11941.104600 63.948000
v -5601.872500 -11942.686300 65.115300
v -5547.958500 -11940.721700 63.461200
v -5563.727800 -11941.104600 63.948000
v -5522.229500 -11940.860400 62.740800
v -5547.958500 -11940.721700 63.461200
v -5522.229500 -11940.860400 62.740800
v -5521.893600 -11940.852500 62.731700
v -5422.205600 -11938.492200 59.668600
v -5463.978200 -11938.682600 60.970300
v -5441.916000 -11938.958900 60.275400
v -5388.005700 -11936.837900 58.632200
v -5463.978200 -11938.682600 60.970300
v -5422.205600 -11938.492200 59.668600
v -5422.205600 -11938.492200 59.668600
v -5422.169300 -11938.491300 59.667500
v -5388.005700 -11936.837900 58.632200
v -5422.169300 -11938.491300 59.667500
v -5361.940500 -11936.977800 57.814900
v -5388.005700 -11936.837900 58.632200
v -5222.343300 -11933.470900 53.382500
v -5264.479800 -11933.839600 54.690700
v -5281.965800 -11934.968600 55.228000
v -5228.052800 -11932.955100 53.573000
v -5264.479800 -11933.839600 54.690700
v -5222.343300 -11933.470900 53.382500
v -5222.343300 -11933.470900 53.382500
v -5201.991000 -11932.959500 52.758500
v -5228.052800 -11932.955100 53.573000
v -5022.573300 -11928.450900 46.923900
v -5064.980400 -11928.995600 48.309400
v -5042.041500 -11928.940100 47.593900
v -4988.123500 -11927.130200 45.748900
v -5064.980400 -11928.995600 48.309400
v -5022.573300 -11928.450900 46.923900
v -4962.066700 -11926.930400 44.838300
v -4988.123500 -11927.130200 45.748900
v -5022.573300 -11928.450900 46.923900
v -4623.036300 -11918.410900 33.120200
v -4665.983100 -11919.309600 34.769700
v -4642.167700 -11918.891600 33.852500
v -4588.241300 -11917.422000 31.880200
v -4665.983100 -11919.309600 34.769700
v -4623.036300 -11918.410900 33.120200
v -4588.241300 -11917.422000 31.880200
v -4623.036300 -11918.410900 33.120200
v -4562.193000 -11916.881900 30.981400
v -4523.152300 -11915.900900 29.639500
v -4566.198100 -11916.886800 31.122000
v -4562.193000 -11916.881900 30.981400
v -4508.264200 -11915.509200 29.128300
v -4566.198100 -11916.886800 31.122000
v -4523.152300 -11915.900900 29.639500
v -4523.152300 -11915.900900 29.639500
v -4495.241000 -11915.199500 28.680200
v -4508.264200 -11915.509200 29.128300
v -4566.198100 -11916.886800 31.122000
v -4588.241300 -11917.422000 31.880200
v -4562.193000 -11916.881900 30.981400
v -4965.230800 -11926.574600 44.959300
v -4988.123500 -11927.130200 45.748900
v -4962.066700 -11926.930400 44.838300
v -4908.147100 -11925.188600 42.990300
v -4965.230800 -11926.574600 44.959300
v -4962.066700 -11926.930400 44.838300
v -4882.092000 -11924.920700 42.081600
v -4908.147100 -11925.188600 42.990300
v -4954.549500 -11926.741500 44.579200
v -4962.066700 -11926.930400 44.838300
v -4954.549500 -11926.741500 44.579200
v -4908.147100 -11925.188600 42.990300
v -4908.147100 -11925.188600 42.990300
v -4882.092000 -11924.920700 42.081600
v -4865.481400 -11924.152600 41.565700
v -4882.092000 -11924.920700 42.081600
v -4828.170600 -11923.247000 40.393600
v -4865.481400 -11924.152600 41.565700
v -4810.575200 -11923.123500 39.778900
v -4802.117200 -11922.911000 39.488200
v -4828.170600 -11923.247000 40.393600
v -4828.170600 -11923.247000 40.393600
v -4882.092000 -11924.920700 42.081600
v -4810.575200 -11923.123500 39.778900
v -4765.731800 -11921.731600 38.245900
v -4828.170600 -11923.247000 40.393600
v -4802.117200 -11922.911000 39.488200
v -4722.921300 -11920.920900 36.766200
v -4765.731800 -11921.731600 38.245900
v -4802.117200 -11922.911000 39.488200
v -4668.217800 -11919.363900 34.855300
v -4722.142500 -11920.901300 36.739400
v -4642.167700 -11918.891600 33.852500
v -4665.983100 -11919.309600 34.769700
v -4668.217800 -11919.363900 34.855300
v -4642.167700 -11918.891600 33.852500
v -4765.731800 -11921.731600 38.245900
v -4722.921300 -11920.920900 36.766200
v -4748.194200 -11921.305800 37.642600
v -4722.142500 -11920.901300 36.739400
v -4748.194200 -11921.305800 37.642600
v -4722.921300 -11920.920900 36.766200
v -4722.142500 -11920.901300 36.739400
v -4668.217800 -11919.363900 34.855300
v -4732.874000 -11920.933800 37.115700
v -4748.194200 -11921.305800 37.642600
v -4722.142500 -11920.901300 36.739400
v -4732.874000 -11920.933800 37.115700
v -5068.099900 -11929.071400 48.405100
v -5042.041500 -11928.940100 47.593900
v -5064.980400 -11928.995600 48.309400
v -5962.725400 -11950.790600 74.836500
v -5921.788500 -11950.020400 73.756300
v -5947.840700 -11950.429300 74.433700
v -5985.999200 -11951.492500 75.464700
v -5921.788500 -11950.020400 73.756300
v -5962.725400 -11950.790600 74.836500
v -5962.725400 -11950.790600 74.836500
v -6027.817200 -11952.371100 76.483400
v -5985.999200 -11951.492500 75.464700
v -5867.864300 -11948.488300 72.504500
v -5921.788500 -11950.020400 73.756300
v -5841.809500 -11948.186900 71.821100
v -5862.975800 -11948.369600 72.390800
v -5867.864300 -11948.488300 72.504500
v -5841.809500 -11948.186900 71.821100
v -5821.898500 -11947.730400 71.282100
v -5862.975800 -11948.369600 72.390800
v -5841.809500 -11948.186900 71.821100
v -5787.887800 -11946.546400 70.365900
v -5862.975800 -11948.369600 72.390800
v -5821.898500 -11947.730400 71.282100
v -5761.830500 -11946.353300 69.655700
v -5787.887800 -11946.546400 70.365900
v -5821.898500 -11947.730400 71.282100
v -5627.935000 -11942.663000 65.863400
v -5622.119500 -11943.150400 65.696800
v -5601.872500 -11942.686300 65.115300
v -5601.872500 -11942.686300 65.115300
v -5563.727800 -11941.104600 63.948000
v -5627.935000 -11942.663000 65.863400
v -5467.982100 -11938.779800 61.093500
v -5502.477100 -11939.617400 62.155100
v -5521.893600 -11940.852500 62.731700
v -5547.958500 -11940.721700 63.461200
v -5521.893600 -11940.852500 62.731700
v -5502.477100 -11939.617400 62.155100
v -5467.982100 -11938.779800 61.093500
v -5521.893600 -11940.852500 62.731700
v -5441.916000 -11938.958900 60.275400
v -5463.978200 -11938.682600 60.970300
v -5467.982100 -11938.779800 61.093500
v -5441.916000 -11938.958900 60.275400
v -5361.940500 -11936.977800 57.814900
v -5364.228500 -11936.260600 57.900400
v -5388.005700 -11936.837900 58.632200
v -5322.226800 -11935.979900 56.593300
v -5364.228500 -11936.260600 57.900400
v -5361.940500 -11936.977800 57.814900
v -5308.029200 -11934.896600 56.146000
v -5322.226800 -11935.979900 56.593300
v -5281.965800 -11934.968600 55.228000
v -5281.965800 -11934.968600 55.228000
v -5264.479800 -11933.839600 54.690700
v -5308.029200 -11934.896600 56.146000
v -5164.730200 -11931.417600 51.580100
v -5228.052800 -11932.955100 53.573000
v -5201.991000 -11932.959500 52.758500
v -5122.458300 -11930.960900 50.106400
v -5164.730200 -11931.417600 51.580100
v -5201.991000 -11932.959500 52.758500
v -5096.190100 -11930.300800 49.254100
v -5042.041500 -11928.940100 47.593900
v -5068.099900 -11929.071400 48.405100
v -5068.099900 -11929.071400 48.405100
v -5122.016200 -11930.949800 50.091200
v -5096.190100 -11930.300800 49.254100
v -5122.016200 -11930.949800 50.091200
v -5068.099900 -11929.071400 48.405100
v -5108.413900 -11930.050200 49.642000
v -5108.413900 -11930.050200 49.642000
v -5148.076400 -11931.013300 51.005600
v -5122.016200 -11930.949800 50.091200
v -5364.228500 -11936.260600 57.900400
v -5322.226800 -11935.979900 56.593300
v -5308.029200 -11934.896600 56.146000
v -5164.730200 -11931.417600 51.580100
v -5122.458300 -11930.960900 50.106400
v -5148.076400 -11931.013300 51.005600
v -5148.076400 -11931.013300 51.005600
v -5122.458300 -11930.960900 50.106400
v -5122.016200 -11930.949800 50.091200
v -5663.476500 -11943.525600 66.821800
v -5622.119500 -11943.150400 65.696800
v -5627.935000 -11942.663000 65.863400
v -5681.851500 -11944.519800 67.325600
v -5622.119500 -11943.150400 65.696800
v -5663.476500 -11943.525600 66.821800
v -5681.851500 -11944.519800 67.325600
v -5663.476500 -11943.525600 66.821800
v -5707.911400 -11944.604500 68.138600
v -5707.911400 -11944.604500 68.138600
v -5722.009500 -11945.440400 68.566100
v -5681.851500 -11944.519800 67.325600
v -5763.227100 -11945.947600 69.698600
v -5722.009500 -11945.440400 68.566100
v -5707.911400 -11944.604500 68.138600
v -5761.830500 -11946.353300 69.655700
v -5722.009500 -11945.440400 68.566100
v -5763.227100 -11945.947600 69.698600
v -5787.887800 -11946.546400 70.365900
v -5761.830500 -11946.353300 69.655700
v -5763.227100 -11945.947600 69.698600
v -5921.788500 -11950.020400 73.756300
v -5867.864300 -11948.488300 72.504500
v -5896.065400 -11949.172700 73.160100
v -5896.065400 -11949.172700 73.160100
v -5947.840700 -11950.429300 74.433700
v -5921.788500 -11950.020400 73.756300
v 11459.420200 -11542.647500 -368.520700
v 11452.169000 -11517.852300 -368.544000
v 11446.261500 -11543.039100 -369.283700
v 11458.676600 -11517.658600 -368.170900
v 11452.169000 -11517.852300 -368.544000
v 11459.420200 -11542.647500 -368.520700
v 11474.633200 -11542.194800 -367.681600
v 11458.676600 -11517.658600 -368.170900
v 11459.420200 -11542.647500 -368.520700
v 11622.435300 -11537.654100 -359.633400
v 11559.291200 -11539.675500 -363.012500
v 11622.414000 -11537.797100 -359.636200
v 11628.711300 -11512.598700 -358.947600
v 11558.547600 -11514.686600 -362.662700
v 11626.494200 -11521.450100 -359.198500
v 11558.547600 -11514.686600 -362.662700
v 11622.435300 -11537.654100 -359.633400
v 11626.494200 -11521.450100 -359.198500
v 11559.291200 -11539.675500 -363.012500
v 11622.435300 -11537.654100 -359.633400
v 11558.547600 -11514.686600 -362.662700
v 11557.867500 -11514.706800 -362.700200
v 11559.291200 -11539.675500 -363.012500
v 11558.547600 -11514.686600 -362.662700
v 11474.633200 -11542.194800 -367.681600
v 11477.902900 -11517.086500 -367.110500
v 11458.676600 -11517.658600 -368.170900
v 11520.000000 -11520.000000 -364.853800
v 11477.902900 -11517.086500 -367.110500
v 11474.633200 -11542.194800 -367.681600
v 11474.633200 -11542.194800 -367.681600
v 11518.813100 -11540.880100 -365.245000
v 11520.000000 -11520.000000 -364.853800
v 11554.597800 -11539.815200 -363.271400
v 11520.000000 -11520.000000 -364.853800
v 11518.813100 -11540.880100 -365.245000
v 11520.000000 -11520.000000 -364.853800
v 11554.597800 -11539.815200 -363.271400
v 11557.867500 -11514.706800 -362.700200
v 11554.597800 -11539.815200 -363.271400
v 11559.291200 -11539.675500 -363.012500
v 11557.867500 -11514.706800 -362.700200
v 11557.867500 -11514.706800 -362.700200
v 11556.319100 -11514.752900 -362.785700
v 11520.000000 -11520.000000 -364.853800
v 11477.902900 -11517.086500 -367.110500
v 11520.000000 -11520.000000 -364.853800
v 11556.319100 -11514.752900 -362.785700
v 11649.865800 -11351.898300 -355.696000
v 11645.101200 -11327.029000 -355.665200
v 11639.953300 -11352.193300 -356.241600
v 11647.936300 -11326.944700 -355.509100
v 11645.101200 -11327.029000 -355.665200
v 11649.865800 -11351.898300 -355.696000
v 11691.105000 -11346.733700 -353.518100
v 11647.936300 -11326.944700 -355.509100
v 11649.865800 -11351.898300 -355.696000
v 11706.438400 -11344.813500 -352.717000
v 11697.612600 -11320.723500 -352.882800
v 11691.105000 -11346.733700 -353.518100
v 11726.322700 -11318.002600 -351.378000
v 11697.612600 -11320.723500 -352.882800
v 11706.438400 -11344.813500 -352.717000
v 11697.612600 -11320.723500 -352.882800
v 11726.322700 -11318.002600 -351.378000
v 11727.216900 -11317.016000 -351.317500
v 11691.105000 -11346.733700 -353.518100
v 11697.612600 -11320.723500 -352.882800
v 11647.936300 -11326.944700 -355.509100
vt -107.372599 62.055642
vt -107.369179 61.909512
vt -107.475454 61.970575
vt -107.326615 62.029220
vt -107.369179 61.909512
vt -107.372599 62.055642
vt -106.911076 61.790467
vt -106.973350 61.682082
vt -106.960078 61.818620
vt -106.973350 61.682082
vt -106.911076 61.790467
vt -106.941519 61.684518
vt -106.936307 61.686234
vt -106.941519 61.684518
vt -106.911076 61.790467
vt -106.878845 61.699084
vt -106.936307 61.686234
vt -106.911076 61.790467
vt -106.820400 61.706239
vt -106.878845 61.699084
vt -106.911076 61.790467
vt -106.766695 61.707509
vt -106.820400 61.706239
vt -106.911076 61.790467
vt -106.964446 61.676966
vt -106.973350 61.682082
vt -106.941519 61.684518
vt -107.306905 62.017896
vt -107.290344 61.864216
vt -107.369179 61.909512
vt -107.326615 62.029220
vt -107.306905 62.017896
vt -107.369179 61.909512
vt -107.290344 61.864216
vt -107.306905 62.017896
vt -106.960078 61.818620
vt -106.973350 61.682082
vt -107.290344 61.864216
vt -106.960078 61.818620
vt -103.181083 61.545372
vt -103.226596 61.538382
vt -103.238905 61.546192
vt -103.027486 61.543191
vt -103.129834 61.535859
vt -103.181083 61.545372
vt -103.026118 61.543164
vt -103.129834 61.535859
vt -103.027486 61.543191
vt -102.899113 61.529843
vt -103.129834 61.535859
vt -103.026118 61.543164
vt -102.899113 61.529843
vt -103.026118 61.543164
vt -102.627612 61.533146
vt -81.169905 61.002680
vt -81.182104 61.002894
vt -81.434104 61.008795
vt -82.233890 61.027307
vt -82.105491 61.019101
vt -82.179737 61.020404
vt -82.505429 61.026124
vt -82.233890 61.027307
vt -82.179737 61.020404
vt -84.505122 61.061228
vt -84.673827 61.064189
vt -84.633247 61.082846
vt -84.633247 61.082846
vt -84.673827 61.064189
vt -84.905060 61.068250
vt -85.433033 61.101358
vt -85.304998 61.075272
vt -85.671462 61.081704
vt -85.544844 61.103946
vt -85.433033 61.101358
vt -85.671462 61.081704
vt -85.673654 61.081749
vt -85.544844 61.103946
vt -85.671462 61.081704
vt -85.832916 61.111029
vt -85.544844 61.103946
vt -85.673654 61.081749
vt -85.673654 61.081749
vt -85.704932 61.082495
vt -85.832916 61.111029
vt -86.104819 61.092019
vt -85.832916 61.111029
vt -85.704932 61.082495
vt -86.043751 61.116213
vt -85.832916 61.111029
vt -86.104819 61.092019
vt -86.172404 61.093629
vt -86.043751 61.116213
vt -86.104819 61.092019
vt -86.232793 61.120965
vt -86.043751 61.116213
vt -86.172404 61.093629
vt -86.173193 61.093649
vt -86.232793 61.120965
vt -86.172404 61.093629
vt -86.504687 61.102293
vt -86.232793 61.120965
vt -86.173193 61.093649
vt -87.304415 61.123147
vt -87.042446 61.141324
vt -87.170644 61.119659
vt -87.432413 61.151128
vt -87.042446 61.141324
vt -87.304415 61.123147
vt -87.669369 61.132664
vt -87.432413 61.151128
vt -87.304415 61.123147
vt -87.669369 61.132664
vt -87.541871 61.153879
vt -87.432413 61.151128
vt -87.704279 61.133575
vt -87.541871 61.153879
vt -87.669369 61.132664
vt -97.429255 61.402454
vt -97.301016 61.383849
vt -97.643864 61.392789
vt -97.643864 61.392789
vt -97.530296 61.404994
vt -97.429255 61.402454
vt -97.700880 61.394276
vt -97.530296 61.404994
vt -97.643864 61.392789
vt -101.299656 61.488129
vt -101.633658 61.496839
vt -101.427991 61.502983
vt -101.633658 61.496839
vt -101.525663 61.505439
vt -101.427991 61.502983
vt -101.699521 61.498557
vt -101.525663 61.505439
vt -101.633658 61.496839
vt -103.181083 61.545372
vt -103.129834 61.535859
vt -103.226596 61.538382
vt -102.627612 61.533146
vt -102.631108 61.522854
vt -102.899113 61.529843
vt -102.524506 61.530554
vt -102.631108 61.522854
vt -102.627612 61.533146
vt -102.499248 61.519415
vt -102.631108 61.522854
vt -102.524506 61.530554
vt -102.524506 61.530554
vt -102.227739 61.523094
vt -102.499248 61.519415
vt -102.132385 61.509849
vt -102.499248 61.519415
vt -102.227739 61.523094
vt -102.025086 61.517999
vt -102.132385 61.509849
vt -102.227739 61.523094
vt -102.099384 61.508988
vt -102.132385 61.509849
vt -102.025086 61.517999
vt -102.099384 61.508988
vt -102.025086 61.517999
vt -101.827865 61.513039
vt -102.099384 61.508988
vt -101.827865 61.513039
vt -101.699521 61.498557
vt -101.827865 61.513039
vt -101.525663 61.505439
vt -101.699521 61.498557
vt -101.299656 61.488129
vt -101.427991 61.502983
vt -101.028118 61.492931
vt -101.028118 61.492931
vt -101.134934 61.483834
vt -101.299656 61.488129
vt -101.026246 61.492884
vt -101.134934 61.483834
vt -101.028118 61.492931
vt -100.899793 61.477702
vt -101.134934 61.483834
vt -101.026246 61.492884
vt -100.628244 61.482879
vt -100.899793 61.477702
vt -101.026246 61.492884
vt -100.636208 61.470829
vt -100.899793 61.477702
vt -100.628244 61.482879
vt -100.526821 61.480329
vt -100.636208 61.470829
vt -100.628244 61.482879
vt -100.499929 61.467275
vt -100.636208 61.470829
vt -100.526821 61.480329
vt -100.228370 61.472827
vt -100.499929 61.467275
vt -100.526821 61.480329
vt -100.137485 61.457824
vt -100.499929 61.467275
vt -100.228370 61.472827
vt -100.027401 61.467774
vt -100.137485 61.457824
vt -100.228370 61.472827
vt -100.100065 61.456848
vt -100.137485 61.457824
vt -100.027401 61.467774
vt -99.828496 61.462774
vt -100.100065 61.456848
vt -100.027401 61.467774
vt -99.700200 61.446416
vt -100.100065 61.456848
vt -99.828496 61.462774
vt -99.527981 61.455219
vt -99.700200 61.446416
vt -99.828496 61.462774
vt -99.638759 61.444814
vt -99.700200 61.446416
vt -99.527981 61.455219
vt -99.428623 61.452721
vt -99.638759 61.444814
vt -99.527981 61.455219
vt -99.300337 61.435989
vt -99.638759 61.444814
vt -99.428623 61.452721
vt -99.300337 61.435989
vt -99.428623 61.452721
vt -99.028749 61.442669
vt -99.300337 61.435989
vt -99.028749 61.442669
vt -98.900472 61.425562
vt -99.028749 61.442669
vt -99.028561 61.442664
vt -98.900472 61.425562
vt -98.900472 61.425562
vt -99.028561 61.442664
vt -98.628875 61.432612
vt -98.628875 61.432612
vt -98.641308 61.418804
vt -98.900472 61.425562
vt -98.529134 61.430104
vt -98.641308 61.418804
vt -98.628875 61.432612
vt -98.500608 61.415135
vt -98.641308 61.418804
vt -98.529134 61.430104
vt -98.229002 61.422559
vt -98.500608 61.415135
vt -98.529134 61.430104
vt -98.142586 61.405799
vt -98.500608 61.415135
vt -98.229002 61.422559
vt -98.029716 61.417549
vt -98.142586 61.405799
vt -98.229002 61.422559
vt -98.100744 61.404708
vt -98.142586 61.405799
vt -98.029716 61.417549
vt -98.029716 61.417549
vt -97.829129 61.412506
vt -98.100744 61.404708
vt -97.700880 61.394276
vt -97.776933 61.396260
vt -97.829129 61.412506
vt -97.776933 61.396260
vt -98.100744 61.404708
vt -97.829129 61.412506
vt -97.530296 61.404994
vt -97.700880 61.394276
vt -97.829129 61.412506
vt -97.030876 61.392439
vt -97.301016 61.383849
vt -97.429255 61.402454
vt -97.145138 61.379784
vt -97.301016 61.383849
vt -97.030876 61.392439
vt -97.029381 61.392401
vt -97.145138 61.379784
vt -97.030876 61.392439
vt -96.901152 61.373422
vt -97.145138 61.379784
vt -97.029381 61.392401
vt -96.629508 61.382349
vt -96.901152 61.373422
vt -97.029381 61.392401
vt -96.646413 61.366779
vt -96.901152 61.373422
vt -96.629508 61.382349
vt -96.531451 61.379884
vt -96.646413 61.366779
vt -96.629508 61.382349
vt -96.501288 61.362995
vt -96.646413 61.366779
vt -96.531451 61.379884
vt -96.501288 61.362995
vt -96.531451 61.379884
vt -96.229634 61.372297
vt -96.229634 61.372297
vt -96.147691 61.353774
vt -96.501288 61.362995
vt -96.032031 61.367329
vt -96.147691 61.353774
vt -96.229634 61.372297
vt -96.101424 61.352567
vt -96.147691 61.353774
vt -96.032031 61.367329
vt -96.032031 61.367329
vt -95.829760 61.362242
vt -96.101424 61.352567
vt -95.701560 61.342136
vt -95.862362 61.346331
vt -95.829760 61.362242
vt -96.101424 61.352567
vt -95.829760 61.362242
vt -95.862362 61.346331
vt -95.532609 61.354769
vt -95.701560 61.342136
vt -95.829760 61.362242
vt -95.648964 61.340764
vt -95.701560 61.342136
vt -95.532609 61.354769
vt -95.429886 61.352187
vt -95.648964 61.340764
vt -95.532609 61.354769
vt -95.301696 61.331709
vt -95.648964 61.340764
vt -95.429886 61.352187
vt -95.033191 61.342214
vt -95.301696 61.331709
vt -95.429886 61.352187
vt -95.150239 61.327759
vt -95.301696 61.331709
vt -95.033191 61.342214
vt -95.030013 61.342135
vt -95.150239 61.327759
vt -95.033191 61.342214
vt -94.901832 61.321281
vt -95.150239 61.327759
vt -95.030013 61.342135
vt -94.653787 61.332676
vt -94.630139 61.332082
vt -94.901832 61.321281
vt -94.901832 61.321281
vt -95.030013 61.342135
vt -94.653787 61.332676
vt -94.651514 61.314754
vt -94.901832 61.321281
vt -94.630139 61.332082
vt -94.533766 61.329659
vt -94.651514 61.314754
vt -94.630139 61.332082
vt -94.501968 61.310854
vt -94.651514 61.314754
vt -94.533766 61.329659
vt -94.230266 61.322029
vt -94.501968 61.310854
vt -94.533766 61.329659
vt -94.152790 61.301749
vt -94.501968 61.310854
vt -94.230266 61.322029
vt -94.034346 61.317104
vt -94.152790 61.301749
vt -94.230266 61.322029
vt -94.102103 61.300427
vt -94.152790 61.301749
vt -94.034346 61.317104
vt -94.102103 61.300427
vt -94.034346 61.317104
vt -93.830392 61.311977
vt -94.102103 61.300427
vt -93.830392 61.311977
vt -93.702239 61.289996
vt -93.830392 61.311977
vt -93.534926 61.304549
vt -93.702239 61.289996
vt -93.534926 61.304549
vt -93.654063 61.288739
vt -93.702239 61.289996
vt -93.430518 61.301924
vt -93.654063 61.288739
vt -93.534926 61.304549
vt -93.302375 61.279568
vt -93.654063 61.288739
vt -93.430518 61.301924
vt -93.035501 61.291994
vt -93.302375 61.279568
vt -93.430518 61.301924
vt -93.035501 61.291994
vt -93.155338 61.275734
vt -93.302375 61.279568
vt -93.030644 61.291872
vt -93.155338 61.275734
vt -93.035501 61.291994
vt -92.902512 61.269141
vt -93.155338 61.275734
vt -93.030644 61.291872
vt -92.630771 61.281816
vt -92.902512 61.269141
vt -92.928685 61.289308
vt -93.030644 61.291872
vt -92.928685 61.289308
vt -92.902512 61.269141
vt -92.656614 61.262729
vt -92.902512 61.269141
vt -92.630771 61.281816
vt -92.536079 61.279434
vt -92.656614 61.262729
vt -92.630771 61.281816
vt -92.502648 61.258714
vt -92.656614 61.262729
vt -92.536079 61.279434
vt -92.502648 61.258714
vt -92.536079 61.279434
vt -92.230897 61.271762
vt -92.230897 61.271762
vt -92.157890 61.249724
vt -92.502648 61.258714
vt -92.036661 61.266879
vt -92.157890 61.249724
vt -92.230897 61.271762
vt -92.102784 61.248287
vt -92.157890 61.249724
vt -92.036661 61.266879
vt -91.831023 61.261709
vt -92.102784 61.248287
vt -92.036661 61.266879
vt -91.702920 61.237855
vt -92.102784 61.248287
vt -91.831023 61.261709
vt -91.537241 61.254324
vt -91.702920 61.237855
vt -91.831023 61.261709
vt -91.659163 61.236714
vt -91.702920 61.237855
vt -91.537241 61.254324
vt -91.431150 61.251657
vt -91.659163 61.236714
vt -91.537241 61.254324
vt -91.303055 61.227428
vt -91.659163 61.236714
vt -91.431150 61.251657
vt -91.037816 61.241769
vt -91.303055 61.227428
vt -91.431150 61.251657
vt -91.160438 61.223709
vt -91.303055 61.227428
vt -91.037816 61.241769
vt -91.031277 61.241605
vt -91.160438 61.223709
vt -91.037816 61.241769
vt -90.903191 61.217001
vt -91.160438 61.223709
vt -91.031277 61.241605
vt -90.641131 61.231797
vt -90.631403 61.231552
vt -90.903191 61.217001
vt -90.903191 61.217001
vt -91.031277 61.241605
vt -90.641131 61.231797
vt -90.503327 61.206574
vt -90.687547 61.211377
vt -90.631403 61.231552
vt -90.903191 61.217001
vt -90.631403 61.231552
vt -90.687547 61.211377
vt -90.631403 61.231552
vt -90.538396 61.229214
vt -90.503327 61.206574
vt -90.538396 61.229214
vt -90.231529 61.221500
vt -90.503327 61.206574
vt -90.162990 61.197699
vt -90.503327 61.206574
vt -90.231529 61.221500
vt -90.038976 61.216659
vt -90.162990 61.197699
vt -90.231529 61.221500
vt -90.103463 61.196146
vt -90.162990 61.197699
vt -90.038976 61.216659
vt -90.103463 61.196146
vt -90.038976 61.216659
vt -90.000000 61.200000
vt -90.000000 61.200000
vt -90.038976 61.216659
vt -89.831655 61.211445
vt -81.680922 61.011649
vt -81.549662 61.011470
vt -81.434104 61.008795
vt -81.305615 61.005062
vt -81.680922 61.011649
vt -81.434104 61.008795
vt -81.182104 61.002894
vt -81.305615 61.005062
vt -81.434104 61.008795
vt -81.833997 61.018051
vt -81.549662 61.011470
vt -81.680922 61.011649
vt -81.705553 61.012081
vt -81.833997 61.018051
vt -81.680922 61.011649
vt -82.105491 61.019101
vt -81.833997 61.018051
vt -81.705553 61.012081
vt -82.049107 61.023029
vt -81.833997 61.018051
vt -82.105491 61.019101
vt -82.233890 61.027307
vt -82.049107 61.023029
vt -82.105491 61.019101
vt -82.633783 61.036562
vt -82.454614 61.032415
vt -82.505429 61.026124
vt -82.233890 61.027307
vt -82.505429 61.026124
vt -82.454614 61.032415
vt -82.505429 61.026124
vt -82.678559 61.029164
vt -82.633783 61.036562
vt -82.678559 61.029164
vt -82.905368 61.033145
vt -82.633783 61.036562
vt -83.033676 61.045818
vt -82.633783 61.036562
vt -82.905368 61.033145
vt -82.905368 61.033145
vt -83.177372 61.037919
vt -83.033676 61.045818
vt -83.177372 61.037919
vt -83.047997 61.046149
vt -83.033676 61.045818
vt -83.433569 61.055074
vt -83.047997 61.046149
vt -83.177372 61.037919
vt -83.433569 61.055074
vt -83.177372 61.037919
vt -83.305307 61.040166
vt -84.233355 61.073591
vt -84.175007 61.055434
vt -84.505122 61.061228
vt -84.233355 61.073591
vt -84.505122 61.061228
vt -84.633247 61.082846
vt -85.033140 61.092102
vt -84.950454 61.090188
vt -84.905060 61.068250
vt -84.633247 61.082846
vt -84.905060 61.068250
vt -84.950454 61.090188
vt -85.172644 61.072949
vt -85.033140 61.092102
vt -84.905060 61.068250
vt -85.433033 61.101358
vt -85.172644 61.072949
vt -85.304998 61.075272
vt -85.033140 61.092102
vt -85.172644 61.072949
vt -85.433033 61.101358
vt -86.232793 61.120965
vt -86.504687 61.102293
vt -86.543024 61.128764
vt -86.671918 61.106654
vt -86.543024 61.128764
vt -86.504687 61.102293
vt -86.904551 61.112720
vt -87.170644 61.119659
vt -87.032540 61.141075
vt -87.170644 61.119659
vt -87.042446 61.141324
vt -87.032540 61.141075
vt -87.832287 61.161180
vt -87.541871 61.153879
vt -87.704279 61.133575
vt -87.704279 61.133575
vt -88.003157 61.141371
vt -87.832287 61.161180
vt -88.104143 61.144006
vt -87.832287 61.161180
vt -88.003157 61.141371
vt -88.540711 61.178989
vt -88.504007 61.154433
vt -88.666814 61.158679
vt -88.632035 61.181285
vt -88.540711 61.178989
vt -88.666814 61.158679
vt -88.632035 61.181285
vt -88.666814 61.158679
vt -88.903871 61.164861
vt -88.632035 61.181285
vt -88.903871 61.164861
vt -89.031908 61.191338
vt -88.903871 61.164861
vt -89.040131 61.191544
vt -89.031908 61.191338
vt -89.303735 61.175288
vt -89.040131 61.191544
vt -88.903871 61.164861
vt -89.400000 61.200000
vt -89.040131 61.191544
vt -89.303735 61.175288
vt -89.400000 61.200000
vt -89.303735 61.175288
vt -89.431782 61.201390
vt -89.303735 61.175288
vt -89.664264 61.184689
vt -89.431782 61.201390
vt -89.664264 61.184689
vt -89.539553 61.204099
vt -89.431782 61.201390
vt -89.703599 61.185715
vt -89.539553 61.204099
vt -89.664264 61.184689
vt -89.703599 61.185715
vt -90.103463 61.196146
vt -90.000000 61.200000
vt -89.703599 61.185715
vt -90.000000 61.200000
vt -89.831655 61.211445
vt -89.831655 61.211445
vt -89.539553 61.204099
vt -89.703599 61.185715
vt -89.431782 61.201390
vt -89.040131 61.191544
vt -89.400000 61.200000
vt -83.433569 61.055074
vt -83.676194 61.046679
vt -83.547439 61.057710
vt -83.305307 61.040166
vt -83.676194 61.046679
vt -83.433569 61.055074
vt -83.705245 61.047189
vt -83.824086 61.049275
vt -83.833461 61.064332
vt -84.105183 61.054209
vt -83.833461 61.064332
vt -83.824086 61.049275
vt -84.046887 61.069274
vt -83.833461 61.064332
vt -84.105183 61.054209
vt -84.233355 61.073591
vt -84.046887 61.069274
vt -84.105183 61.054209
vt -84.175007 61.055434
vt -84.233355 61.073591
vt -84.105183 61.054209
vt -83.833461 61.064332
vt -83.676194 61.046679
vt -83.705245 61.047189
vt -83.547439 61.057710
vt -83.676194 61.046679
vt -83.833461 61.064332
vt -88.041291 61.166434
vt -87.832287 61.161180
vt -88.104143 61.144006
vt -88.168095 61.145674
vt -88.041291 61.166434
vt -88.104143 61.144006
vt -88.504007 61.154433
vt -88.232161 61.171232
vt -88.168095 61.145674
vt -88.540711 61.178989
vt -88.232161 61.171232
vt -88.504007 61.154433
vt -88.041291 61.166434
vt -88.168095 61.145674
vt -88.232161 61.171232
vt -87.032540 61.141075
vt -86.808316 61.135436
vt -86.904551 61.112720
vt -86.632666 61.131019
vt -86.904551 61.112720
vt -86.808316 61.135436
vt -86.671918 61.106654
vt -86.904551 61.112720
vt -86.632666 61.131019
vt -86.543024 61.128764
vt -86.671918 61.106654
vt -86.632666 61.131019
vt -73.790407 60.833548
vt -73.558655 60.828253
vt -73.705694 60.831281
vt -72.207808 60.791220
vt -72.259413 60.798575
vt -72.060310 60.794028
vt -72.106266 60.788504
vt -72.207808 60.791220
vt -72.060310 60.794028
vt -72.106266 60.788504
vt -72.060310 60.794028
vt -71.859517 60.789441
vt -68.063799 60.702737
vt -68.217489 60.684490
vt -68.260456 60.707228
vt -68.107692 60.681738
vt -68.217489 60.684490
vt -68.063799 60.702737
vt -68.063224 60.702723
vt -68.107692 60.681738
vt -68.063799 60.702737
vt -67.860584 60.697161
vt -68.107692 60.681738
vt -68.063224 60.702723
vt -67.860584 60.697161
vt -67.562912 60.688993
vt -67.707816 60.671728
vt -67.562912 60.688993
vt -67.460735 60.686155
vt -67.707816 60.671728
vt -67.307931 60.662167
vt -67.640417 60.670117
vt -67.460735 60.686155
vt -67.707816 60.671728
vt -67.460735 60.686155
vt -67.640417 60.670117
vt -67.219603 60.660055
vt -67.307931 60.662167
vt -67.460735 60.686155
vt -67.063354 60.675117
vt -67.219603 60.660055
vt -67.460735 60.686155
vt -67.060890 60.675049
vt -67.219603 60.660055
vt -67.063354 60.675117
vt -64.108849 60.585549
vt -64.261969 60.597307
vt -64.067034 60.591893
vt -64.067034 60.591893
vt -63.862123 60.586199
vt -64.108849 60.585549
vt -61.986160 60.534093
vt -62.109435 60.537082
vt -62.262740 60.541775
vt -67.707816 60.671728
vt -67.718351 60.671980
vt -67.860584 60.697161
vt -67.718351 60.671980
vt -67.718754 60.671990
vt -67.860584 60.697161
vt -67.718754 60.671990
vt -68.107692 60.681738
vt -67.860584 60.697161
vt -67.060890 60.675049
vt -66.908046 60.652603
vt -67.219603 60.660055
vt -66.661044 60.663940
vt -66.908046 60.652603
vt -66.823180 60.668444
vt -67.060890 60.675049
vt -66.823180 60.668444
vt -66.908046 60.652603
vt -66.261198 60.652833
vt -66.064579 60.647373
vt -66.108274 60.633479
vt -66.108274 60.633479
vt -66.064579 60.647373
vt -65.861353 60.641728
vt -65.861353 60.641728
vt -65.723348 60.624275
vt -66.108274 60.633479
vt -65.708388 60.623917
vt -65.723348 60.624275
vt -65.861353 60.641728
vt -65.708388 60.623917
vt -65.861353 60.641728
vt -65.461506 60.630623
vt -65.308503 60.614352
vt -65.556219 60.620278
vt -65.461506 60.630623
vt -65.708388 60.623917
vt -65.461506 60.630623
vt -65.556219 60.620278
vt -65.224591 60.612345
vt -65.308503 60.614352
vt -65.461506 60.630623
vt -65.065809 60.619632
vt -65.224591 60.612345
vt -65.461506 60.630623
vt -65.061661 60.619518
vt -65.224591 60.612345
vt -65.065809 60.619632
vt -64.908617 60.604790
vt -65.224591 60.612345
vt -65.061661 60.619518
vt -64.873998 60.614306
vt -64.661815 60.608412
vt -64.908617 60.604790
vt -64.908617 60.604790
vt -65.061661 60.619518
vt -64.873998 60.614306
vt -64.661815 60.608412
vt -64.725869 60.600420
vt -64.908617 60.604790
vt -64.508732 60.595194
vt -64.725869 60.600420
vt -64.661815 60.608412
vt -64.566419 60.605762
vt -64.508732 60.595194
vt -64.661815 60.608412
vt -64.261969 60.597307
vt -64.508732 60.595194
vt -64.566419 60.605762
vt -64.227177 60.588417
vt -64.508732 60.595194
vt -64.261969 60.597307
vt -64.261969 60.597307
vt -64.108849 60.585549
vt -64.227177 60.588417
vt -63.728457 60.576328
vt -64.108849 60.585549
vt -63.862123 60.586199
vt -63.708966 60.575855
vt -63.728457 60.576328
vt -63.862123 60.586199
vt -63.567647 60.578017
vt -63.708966 60.575855
vt -63.862123 60.586199
vt -63.068260 60.564147
vt -63.229712 60.564238
vt -63.462277 60.575091
vt -63.062432 60.563986
vt -63.229712 60.564238
vt -63.068260 60.564147
vt -62.909201 60.556469
vt -63.229712 60.564238
vt -63.062432 60.563986
vt -62.662586 60.552881
vt -62.909201 60.556469
vt -63.062432 60.563986
vt -62.730962 60.552148
vt -62.909201 60.556469
vt -62.662586 60.552881
vt -62.568874 60.550277
vt -62.730962 60.552148
vt -62.662586 60.552881
vt -62.509318 60.546775
vt -62.730962 60.552148
vt -62.568874 60.550277
vt -62.568874 60.550277
vt -62.262740 60.541775
vt -62.509318 60.546775
vt -62.232217 60.540058
vt -62.509318 60.546775
vt -62.262740 60.541775
vt -62.109435 60.537082
vt -62.232217 60.540058
vt -62.262740 60.541775
vt -66.661044 60.663940
vt -66.508160 60.643040
vt -66.720846 60.648125
vt -66.908046 60.652603
vt -66.661044 60.663940
vt -66.720846 60.648125
vt -66.563966 60.661243
vt -66.508160 60.643040
vt -66.661044 60.663940
vt -66.508160 60.643040
vt -66.563966 60.661243
vt -66.261198 60.652833
vt -66.108274 60.633479
vt -66.218740 60.636120
vt -66.261198 60.652833
vt -66.508160 60.643040
vt -66.261198 60.652833
vt -66.218740 60.636120
vt -63.462277 60.575091
vt -63.309083 60.566162
vt -63.708966 60.575855
vt -63.567647 60.578017
vt -63.462277 60.575091
vt -63.708966 60.575855
vt -63.229712 60.564238
vt -63.309083 60.566162
vt -63.462277 60.575091
vt -68.217489 60.684490
vt -68.218079 60.684505
vt -68.260456 60.707228
vt -68.260456 60.707228
vt -68.218079 60.684505
vt -68.507553 60.692248
vt -73.703955 60.831235
vt -73.558655 60.828253
vt -73.305837 60.820590
vt -73.705694 60.831281
vt -73.558655 60.828253
vt -73.703955 60.831235
vt -73.558655 60.828253
vt -73.475231 60.826347
vt -73.305837 60.820590
vt -73.475231 60.826347
vt -73.075335 60.817212
vt -73.305837 60.820590
vt -73.205237 60.817900
vt -73.305837 60.820590
vt -73.075335 60.817212
vt -72.905980 60.809896
vt -73.205237 60.817900
vt -73.075335 60.817212
vt -73.059204 60.816843
vt -72.905980 60.809896
vt -73.075335 60.817212
vt -72.905980 60.809896
vt -73.059204 60.816843
vt -72.659309 60.807707
vt -72.506123 60.799200
vt -72.559757 60.805433
vt -72.259413 60.798575
vt -72.207808 60.791220
vt -72.506123 60.799200
vt -72.259413 60.798575
vt -72.706524 60.804560
vt -72.559757 60.805433
vt -72.506123 60.799200
vt -72.659309 60.807707
vt -72.559757 60.805433
vt -72.706524 60.804560
vt -72.659309 60.807707
vt -72.706524 60.804560
vt -72.905980 60.809896
vt -71.706409 60.777808
vt -72.106266 60.788504
vt -71.859517 60.789441
vt -71.859517 60.789441
vt -71.560859 60.782618
vt -71.706409 60.777808
vt -70.212943 60.737865
vt -70.259934 60.752902
vt -70.062514 60.748393
vt -70.106981 60.735031
vt -70.212943 60.737865
vt -70.062514 60.748393
vt -70.062514 60.748393
vt -69.860039 60.743768
vt -70.106981 60.735031
vt -69.714229 60.724525
vt -70.106981 60.735031
vt -69.860039 60.743768
vt -69.563064 60.736983
vt -69.714229 60.724525
vt -69.860039 60.743768
vt -69.707124 60.724335
vt -69.714229 60.724525
vt -69.563064 60.736983
vt -69.460144 60.734632
vt -69.707124 60.724335
vt -69.563064 60.736983
vt -69.307267 60.713639
vt -69.501502 60.718835
vt -69.460144 60.734632
vt -69.707124 60.724335
vt -69.460144 60.734632
vt -69.501502 60.718835
vt -69.460144 60.734632
vt -69.063614 60.725573
vt -69.307267 60.713639
vt -69.307267 60.713639
vt -69.063614 60.725573
vt -68.907410 60.702944
vt -68.907410 60.702944
vt -69.063614 60.725573
vt -69.060248 60.725496
vt -68.907410 60.702944
vt -69.060248 60.725496
vt -68.660352 60.716361
vt -68.507553 60.692248
vt -68.564167 60.714163
vt -68.260456 60.707228
vt -68.660352 60.716361
vt -68.564167 60.714163
vt -68.507553 60.692248
vt -68.507553 60.692248
vt -68.716799 60.697845
vt -68.660352 60.716361
vt -71.210375 60.764540
vt -71.061409 60.771208
vt -70.906695 60.756420
vt -71.306552 60.767113
vt -71.061409 60.771208
vt -71.210375 60.764540
vt -71.459621 60.780306
vt -71.061409 60.771208
vt -71.306552 60.767113
vt -71.560859 60.782618
vt -71.459621 60.780306
vt -71.306552 60.767113
vt -71.685664 60.777254
vt -71.706409 60.777808
vt -71.560859 60.782618
vt -71.560859 60.782618
vt -71.306552 60.767113
vt -71.685664 60.777254
vt -71.061409 60.771208
vt -71.059726 60.771169
vt -70.906695 60.756420
vt -70.659830 60.762034
vt -70.906695 60.756420
vt -71.059726 60.771169
vt -70.259934 60.752902
vt -70.506838 60.745727
vt -70.561962 60.759798
vt -70.212943 60.737865
vt -70.506838 60.745727
vt -70.259934 60.752902
vt -70.711657 60.751205
vt -70.561962 60.759798
vt -70.506838 60.745727
vt -70.711657 60.751205
vt -70.906695 60.756420
vt -70.659830 60.762034
vt -70.561962 60.759798
vt -70.711657 60.751205
vt -70.659830 60.762034
vt -68.660352 60.716361
vt -68.716799 60.697845
vt -68.907410 60.702944
vt -30.329891 59.766630
vt -30.312376 59.766063
vt -30.434431 59.769027
vt -30.108387 59.761552
vt -30.312376 59.766063
vt -30.329891 59.766630
vt -30.139086 59.761856
vt -30.312376 59.766063
vt -30.108387 59.761552
vt -29.929996 59.757463
vt -30.139086 59.761856
vt -30.108387 59.761552
vt -27.611148 59.704302
vt -27.818639 59.705523
vt -28.009363 59.713431
vt -27.739793 59.703609
vt -27.818639 59.705523
vt -27.611148 59.704302
vt -27.739793 59.703609
vt -27.611148 59.704302
vt -27.609468 59.704263
vt -27.111028 59.692461
vt -27.319891 59.693413
vt -27.209580 59.694795
vt -26.940028 59.684190
vt -27.319891 59.693413
vt -27.111028 59.692461
vt -27.111028 59.692461
vt -27.110846 59.692456
vt -26.940028 59.684190
vt -27.110846 59.692456
vt -26.809703 59.684889
vt -26.940028 59.684190
vt -26.111717 59.667355
vt -26.322399 59.669198
vt -26.409829 59.674843
vt -26.140264 59.664775
vt -26.322399 59.669198
vt -26.111717 59.667355
vt -26.111717 59.667355
vt -26.009955 59.664798
vt -26.140264 59.664775
vt -25.112866 59.642254
vt -25.324902 59.644978
vt -25.210208 59.644700
vt -24.940617 59.635651
vt -25.324902 59.644978
vt -25.112866 59.642254
vt -24.810334 59.634652
vt -24.940617 59.635651
vt -25.112866 59.642254
vt -23.115181 59.592055
vt -23.329916 59.596548
vt -23.210839 59.594458
vt -22.941206 59.587110
vt -23.329916 59.596548
vt -23.115181 59.592055
vt -22.941206 59.587110
vt -23.115181 59.592055
vt -22.810965 59.584409
vt -22.615761 59.579505
vt -22.830990 59.584434
vt -22.810965 59.584409
vt -22.541321 59.577546
vt -22.830990 59.584434
vt -22.615761 59.579505
vt -22.615761 59.579505
vt -22.476205 59.575997
vt -22.541321 59.577546
vt -22.830990 59.584434
vt -22.941206 59.587110
vt -22.810965 59.584409
vt -24.826154 59.632873
vt -24.940617 59.635651
vt -24.810334 59.634652
vt -24.540736 59.625943
vt -24.826154 59.632873
vt -24.810334 59.634652
vt -24.410460 59.624604
vt -24.540736 59.625943
vt -24.772748 59.633707
vt -24.810334 59.634652
vt -24.772748 59.633707
vt -24.540736 59.625943
vt -24.540736 59.625943
vt -24.410460 59.624604
vt -24.327407 59.620763
vt -24.410460 59.624604
vt -24.140853 59.616235
vt -24.327407 59.620763
vt -24.052876 59.615617
vt -24.010586 59.614555
vt -24.140853 59.616235
vt -24.140853 59.616235
vt -24.410460 59.624604
vt -24.052876 59.615617
vt -23.828659 59.608658
vt -24.140853 59.616235
vt -24.010586 59.614555
vt -23.614607 59.604604
vt -23.828659 59.608658
vt -24.010586 59.614555
vt -23.341089 59.596820
vt -23.610712 59.604506
vt -23.210839 59.594458
vt -23.329916 59.596548
vt -23.341089 59.596820
vt -23.210839 59.594458
vt -23.828659 59.608658
vt -23.614607 59.604604
vt -23.740971 59.606529
vt -23.610712 59.604506
vt -23.740971 59.606529
vt -23.614607 59.604604
vt -23.610712 59.604506
vt -23.341089 59.596820
vt -23.664370 59.604669
vt -23.740971 59.606529
vt -23.610712 59.604506
vt -23.664370 59.604669
vt -25.340499 59.645357
vt -25.210208 59.644700
vt -25.324902 59.644978
vt -29.813627 59.753953
vt -29.608942 59.750102
vt -29.739203 59.752147
vt -29.929996 59.757463
vt -29.608942 59.750102
vt -29.813627 59.753953
vt -29.813627 59.753953
vt -30.139086 59.761856
vt -29.929996 59.757463
vt -29.339322 59.742442
vt -29.608942 59.750102
vt -29.209048 59.740935
vt -29.314879 59.741848
vt -29.339322 59.742442
vt -29.209048 59.740935
vt -29.109493 59.738652
vt -29.314879 59.741848
vt -29.209048 59.740935
vt -28.939439 59.732732
vt -29.314879 59.741848
vt -29.109493 59.738652
vt -28.809152 59.731767
vt -28.939439 59.732732
vt -29.109493 59.738652
vt -28.139675 59.713315
vt -28.110597 59.715752
vt -28.009363 59.713431
vt -28.009363 59.713431
vt -27.818639 59.705523
vt -28.139675 59.713315
vt -27.339911 59.693899
vt -27.512386 59.698087
vt -27.609468 59.704263
vt -27.739793 59.703609
vt -27.609468 59.704263
vt -27.512386 59.698087
vt -27.339911 59.693899
vt -27.609468 59.704263
vt -27.209580 59.694795
vt -27.319891 59.693413
vt -27.339911 59.693899
vt -27.209580 59.694795
vt -26.809703 59.684889
vt -26.821143 59.681303
vt -26.940028 59.684190
vt -26.611134 59.679900
vt -26.821143 59.681303
vt -26.809703 59.684889
vt -26.540146 59.674483
vt -26.611134 59.679900
vt -26.409829 59.674843
vt -26.409829 59.674843
vt -26.322399 59.669198
vt -26.540146 59.674483
vt -25.823651 59.657088
vt -26.140264 59.664775
vt -26.009955 59.664798
vt -25.612292 59.654804
vt -25.823651 59.657088
vt -26.009955 59.664798
vt -25.480950 59.651504
vt -25.210208 59.644700
vt -25.340499 59.645357
vt -25.340499 59.645357
vt -25.610081 59.654749
vt -25.480950 59.651504
vt -25.610081 59.654749
vt -25.340499 59.645357
vt -25.542069 59.650251
vt -25.542069 59.650251
vt -25.740382 59.655067
vt -25.610081 59.654749
vt -26.821143 59.681303
vt -26.611134 59.679900
vt -26.540146 59.674483
vt -25.823651 59.657088
vt -25.612292 59.654804
vt -25.740382 59.655067
vt -25.740382 59.655067
vt -25.612292 59.654804
vt -25.610081 59.654749
vt -28.317382 59.717628
vt -28.110597 59.715752
vt -28.139675 59.713315
vt -28.409257 59.722599
vt -28.110597 59.715752
vt -28.317382 59.717628
vt -28.409257 59.722599
vt -28.317382 59.717628
vt -28.539557 59.723022
vt -28.539557 59.723022
vt -28.610048 59.727202
vt -28.409257 59.722599
vt -28.816136 59.729738
vt -28.610048 59.727202
vt -28.539557 59.723022
vt -28.809152 59.731767
vt -28.610048 59.727202
vt -28.816136 59.729738
vt -28.939439 59.732732
vt -28.809152 59.731767
vt -28.816136 59.729738
vt -29.608942 59.750102
vt -29.339322 59.742442
vt -29.480327 59.745863
vt -29.480327 59.745863
vt -29.739203 59.752147
vt -29.608942 59.750102
vt 57.297101 57.713237
vt 57.260845 57.589261
vt 57.231307 57.715196
vt 57.293383 57.588293
vt 57.260845 57.589261
vt 57.297101 57.713237
vt 57.373166 57.710974
vt 57.293383 57.588293
vt 57.297101 57.713237
vt 58.112176 57.688271
vt 57.796456 57.698377
vt 58.112070 57.688986
vt 58.143557 57.562994
vt 57.792738 57.573433
vt 58.132471 57.607250
vt 57.792738 57.573433
vt 58.112176 57.688271
vt 58.132471 57.607250
vt 57.796456 57.698377
vt 58.112176 57.688271
vt 57.792738 57.573433
vt 57.789338 57.573534
vt 57.796456 57.698377
vt 57.792738 57.573433
vt 57.373166 57.710974
vt 57.389514 57.585432
vt 57.293383 57.588293
vt 57.600000 57.600000
vt 57.389514 57.585432
vt 57.373166 57.710974
vt 57.373166 57.710974
vt 57.594065 57.704400
vt 57.600000 57.600000
vt 57.772989 57.699076
vt 57.600000 57.600000
vt 57.594065 57.704400
vt 57.600000 57.600000
vt 57.772989 57.699076
vt 57.789338 57.573534
vt 57.772989 57.699076
vt 57.796456 57.698377
vt 57.789338 57.573534
vt 57.789338 57.573534
vt 57.781596 57.573764
vt 57.600000 57.600000
vt 57.389514 57.585432
vt 57.600000 57.600000
vt 57.781596 57.573764
vt 58.249329 56.759492
vt 58.225506 56.635145
vt 58.199766 56.760967
vt 58.239681 56.634723
vt 58.225506 56.635145
vt 58.249329 56.759492
vt 58.455525 56.733669
vt 58.239681 56.634723
vt 58.249329 56.759492
vt 58.532192 56.724068
vt 58.488063 56.603617
vt 58.455525 56.733669
vt 58.631614 56.590013
vt 58.488063 56.603617
vt 58.532192 56.724068
vt 58.488063 56.603617
vt 58.631614 56.590013
vt 58.636084 56.585080
vt 58.455525 56.733669
vt 58.488063 56.603617
vt 58.239681 56.634723
f 1/1 2/2 3/3
f 4/4 5/5 6/6
f 7/7 8/8 9/9
f 10/10 11/11 12/12
f 13/13 14/14 15/15
f 16/16 17/17 18/18
f 19/19 20/20 21/21
f 22/22 23/23 24/24
f 25/25 26/26 27/27
f 28/28 29/29 30/30
f 31/31 32/32 33/33
f 34/34 35/35 36/36
f 37/37 38/38 39/39
f 40/40 41/41 42/42
f 43/43 44/44 45/45
f 46/46 47/47 48/48
f 49/49 50/50 51/51
f 52/52 53/53 54/54
f 55/55 56/56 57/57
f 58/58 59/59 60/60
f 61/61 62/62 63/63
f 64/64 65/65 66/66
f 67/67 68/68 69/69
f 70/70 71/71 72/72
f 73/73 74/74 75/75
f 76/76 77/77 78/78
f 79/79 80/80 81/81
f 82/82 83/83 84/84
f 85/85 86/86 87/87
f 88/88 89/89 90/90
f 91/91 92/92 93/93
f 94/94 95/95 96/96
f 97/97 98/98 99/99
f 100/100 101/101 102/102
f 103/103 104/104 105/105
f 106/106 107/107 108/108
f 109/109 110/110 111/111
f 112/112 113/113 114/114
f 115/115 116/116 117/117
f 118/118 119/119 120/120
f 121/121 122/122 123/123
f 124/124 125/125 126/126
f 127/127 128/128 129/129
f 130/130 131/131 132/132
f 133/133 134/134 135/135
f 136/136 137/137 138/138
f 139/139 140/140 141/141
f 142/142 143/143 144/144
f 145/145 146/146 147/147
f 148/148 149/149 150/150
f 151/151 152/152 153/153
f 154/154 155/155 156/156
f 157/157 158/158 159/159
f 160/160 161/161 162/162
f 163/163 164/164 165/165
f 166/166 167/167 168/168
f 169/169 170/170 171/171
f 172/172 173/173 174/174
f 175/175 176/176 177/177
f 178/178 179/179 180/180
f 181/181 182/182 183/183
f 184/184 185/185 186/186
f 187/187 188/188 189/189
f 190/190 191/191 192/192
f 193/193 194/194 195/195
f 196/196 197/197 198/198
f 199/199 200/200 201/201
f 202/202 203/203 204/204
f 205/205 206/206 207/207
f 208/208 209/209 210/210
f 211/211 212/212 213/213
f 214/214 215/215 216/216
f 217/217 218/218 219/219
f 220/220 221/221 222/222
f 223/223 224/224 225/225
f 226/226 227/227 228/228
f 229/229 230/230 231/231
f 232/232 233/233 234/234
f 235/235 236/236 237/237
f 238/238 239/239 240/240
f 241/241 242/242 243/243
f 244/244 245/245 246/246
f 247/247 248/248 249/249
f 250/250 251/251 252/252
f 253/253 254/254 255/255
f 256/256 257/257 258/258
f 259/259 260/260 261/261
f 262/262 263/263 264/264
f 265/265 266/266 267/267
f 268/268 269/269 270/270
f 271/271 272/272 273/273
f 274/274 275/275 276/276
f 277/277 278/278 279/279
f 280/280 281/281 282/282
f 283/283 284/284 285/285
f 286/286 287/287 288/288
f 289/289 290/290 291/291
f 292/292 293/293 294/294
f 295/295 296/296 297/297
f 298/298 299/299 300/300
f 301/301 302/302 303/303
f 304/304 305/305 306/306
f 307/307 308/308 309/309
f 310/310 311/311 312/312
f 313/313 314/314 315/315
f 316/316 317/317 318/318
f 319/319 320/320 321/321
f 322/322 323/323 324/324
f 325/325 326/326 327/327
f 328/328 329/329 330/330
f 331/331 332/332 333/333
f 334/334 335/335 336/336
f 337/337 338/338 339/339
f 340/340 341/341 342/342
f 343/343 344/344 345/345
f 346/346 347/347 348/348
f 349/349 350/350 351/351
f 352/352 353/353 354/354
f 355/355 356/356 357/357
f 358/358 359/359 360/360
f 361/361 362/362 363/363
f 364/364 365/365 366/366
f 367/367 368/368 369/369
f 370/370 371/371 372/372
f 373/373 374/374 375/375
f 376/376 377/377 378/378
f 379/379 380/380 381/381
f 382/382 383/383 384/384
f 385/385 386/386 387/387
f 388/388 389/389 390/390
f 391/391 392/392 393/393
f 394/394 395/395 396/396
f 397/397 398/398 399/399
f 400/400 401/401 402/402
f 403/403 404/404 405/405
f 406/406 407/407 408/408
f 409/409 410/410 411/411
f 412/412 413/413 414/414
f 415/415 416/416 417/417
f 418/418 419/419 420/420
f 421/421 422/422 423/423
f 424/424 425/425 426/426
f 427/427 428/428 429/429
f 430/430 431/431 432/432
f 433/433 434/434 435/435
f 436/436 437/437 438/438
f 439/439 440/440 441/441
f 442/442 443/443 444/444
f 445/445 446/446 447/447
f 448/448 449/449 450/450
f 451/451 452/452 453/453
f 454/454 455/455 456/456
f 457/457 458/458 459/459
f 460/460 461/461 462/462
f 463/463 464/464 465/465
f 466/466 467/467 468/468
f 469/469 470/470 471/471
f 472/472 473/473 474/474
f 475/475 476/476 477/477
f 478/478 479/479 480/480
f 481/481 482/482 483/483
f 484/484 485/485 486/486
f 487/487 488/488 489/489
f 490/490 491/491 492/492
f 493/493 494/494 495/495
f 496/496 497/497 498/498
f 499/499 500/500 501/501
f 502/502 503/503 504/504
f 505/505 506/506 507/507
f 508/508 509/509 510/510
f 511/511 512/512 513/513
f 514/514 515/515 516/516
f 517/517 518/518 519/519
f 520/520 521/521 522/522
f 523/523 524/524 525/525
f 526/526 527/527 528/528
f 529/529 530/530 531/531
f 532/532 533/533 534/534
f 535/535 536/536 537/537
f 538/538 539/539 540/540
f 541/541 542/542 543/543
f 544/544 545/545 546/546
f 547/547 548/548 549/549
f 550/550 551/551 552/552
f 553/553 554/554 555/555
f 556/556 557/557 558/558
f 559/559 560/560 561/561
f 562/562 563/563 564/564
f 565/565 566/566 567/567
f 568/568 569/569 570/570
f 571/571 572/572 573/573
f 574/574 575/575 576/576
f 577/577 578/578 579/579
f 580/580 581/581 582/582
f 583/583 584/584 585/585
f 586/586 587/587 588/588
f 589/589 590/590 591/591
f 592/592 593/593 594/594
f 595/595 596/596 597/597
f 598/598 599/599 600/600
f 601/601 602/602 603/603
f 604/604 605/605 606/606
f 607/607 608/608 609/609
f 610/610 611/611 612/612
f 613/613 614/614 615/615
f 616/616 617/617 618/618
f 619/619 620/620 621/621
f 622/622 623/623 624/624
f 625/625 626/626 627/627
f 628/628 629/629 630/630
f 631/631 632/632 633/633
f 634/634 635/635 636/636
f 637/637 638/638 639/639
f 640/640 641/641 642/642
f 643/643 644/644 645/645
f 646/646 647/647 648/648
f 649/649 650/650 651/651
f 652/652 653/653 654/654
f 655/655 656/656 657/657
f 658/658 659/659 660/660
f 661/661 662/662 663/663
f 664/664 665/665 666/666
f 667/667 668/668 669/669
f 670/670 671/671 672/672
f 673/673 674/674 675/675
f 676/676 677/677 678/678
f 679/679 680/680 681/681
f 682/682 683/683 684/684
f 685/685 686/686 687/687
f 688/688 689/689 690/690
f 691/691 692/692 693/693
f 694/694 695/695 696/696
f 697/697 698/698 699/699
f 700/700 701/701 702/702
f 703/703 704/704 705/705
f 706/706 707/707 708/708
f 709/709 710/710 711/711
f 712/712 713/713 714/714
f 715/715 716/716 717/717
f 718/718 719/719 720/720
f 721/721 722/722 723/723
f 724/724 725/725 726/726
f 727/727 728/728 729/729
f 730/730 731/731 732/732
f 733/733 734/734 735/735
f 736/736 737/737 738/738
f 739/739 740/740 741/741
f 742/742 743/743 744/744
f 745/745 746/746 747/747
f 748/748 749/749 750/750
f 751/751 752/752 753/753
f 754/754 755/755 756/756
f 757/757 758/758 759/759
f 760/760 761/761 762/762
f 763/763 764/764 765/765
f 766/766 767/767 768/768
f 769/769 770/770 771/771
f 772/772 773/773 774/774
f 775/775 776/776 777/777
f 778/778 779/779 780/780
f 781/781 782/782 783/783
f 784/784 785/785 786/786
f 787/787 788/788 789/789
f 790/790 791/791 792/792
f 793/793 794/794 795/795
f 796/796 797/797 798/798
f 799/799 800/800 801/801
f 802/802 803/803 804/804
f 805/805 806/806 807/807
f 808/808 809/809 810/810
f 811/811 812/812 813/813
f 814/814 815/815 816/816
f 817/817 818/818 819/819
f 820/820 821/821 822/822
f 823/823 824/824 825/825
f 826/826 827/827 828/828
f 829/829 830/830 831/831
f 832/832 833/833 834/834
f 835/835 836/836 837/837
f 838/838 839/839 840/840
f 841/841 842/842 843/843
f 844/844 845/845 846/846
f 847/847 848/848 849/849
f 850/850 851/851 852/852
f 853/853 854/854 855/855
f 856/856 857/857 858/858
f 859/859 860/860 861/861
f 862/862 863/863 864/864
f 865/865 866/866 867/867
f 868/868 869/869 870/870
f 871/871 872/872 873/873
f 874/874 875/875 876/876
f 877/877 878/878 879/879
f 880/880 881/881 882/882
f 883/883 884/884 885/885
f 886/886 887/887 888/888
f 889/889 890/890 891/891
f 892/892 893/893 894/894
f 895/895 896/896 897/897
f 898/898 899/899 900/900
f 901/901 902/902 903/903
f 904/904 905/905 906/906
f 907/907 908/908 909/909
f 910/910 911/911 912/912
f 913/913 914/914 915/915
f 916/916 917/917 918/918
f 919/919 920/920 921/921
f 922/922 923/923 924/924
f 925/925 926/926 927/927
f 928/928 929/929 930/930
f 931/931 932/932 933/933
f 934/934 935/935 936/936
f 937/937 938/938 939/939
f 940/940 941/941 942/942
f 943/943 944/944 945/945
f 946/946 947/947 948/948
f 949/949 950/950 951/951
f 952/952 953/953 954/954
f 955/955 956/956 957/957
f 958/958 959/959 960/960
f 961/961 962/962 963/963
f 964/964 965/965 966/966
f 967/967 968/968 969/969
f 970/970 971/971 972/972
f 973/973 974/974 975/975
f 976/976 977/977 978/978
f 979/979 980/980 981/981
f 982/982 983/983 984/984
f 985/985 986/986 987/987
f 988/988 989/989 990/990
f 991/991 992/992 993/993
f 994/994 995/995 996/996
f 997/997 998/998 999/999
f 1000/1000 1001/1001 1002/1002
f 1003/1003 1004/1004 1005/1005
f 1006/1006 1007/1007 1008/1008
f 1009/1009 1010/1010 1011/1011
f 1012/1012 1013/1013 1014/1014
f 1015/1015 1016/1016 1017/1017
f 1018/1018 1019/1019 1020/1020
f 1021/1021 1022/1022 1023/1023
f 1024/1024 1025/1025 1026/1026
f 1027/1027 1028/1028 1029/1029
f 1030/1030 1031/1031 1032/1032
f 1033/1033 1034/1034 1035/1035
f 1036/1036 1037/1037 1038/1038
f 1039/1039 1040/1040 1041/1041
f 1042/1042 1043/1043 1044/1044
f 1045/1045 1046/1046 1047/1047
f 1048/1048 1049/1049 1050/1050
f 1051/1051 1052/1052 1053/1053
f 1054/1054 1055/1055 1056/1056
f 1057/1057 1058/1058 1059/1059
f 1060/1060 1061/1061 1062/1062
f 1063/1063 1064/1064 1065/1065
f 1066/1066 1067/1067 1068/1068
f 1069/1069 1070/1070 1071/1071
f 1072/1072 1073/1073 1074/1074
f 1075/1075 1076/1076 1077/1077
f 1078/1078 1079/1079 1080/1080
f 1081/1081 1082/1082 1083/1083
f 1084/1084 1085/1085 1086/1086
f 1087/1087 1088/1088 1089/1089
f 1090/1090 1091/1091 1092/1092
f 1093/1093 1094/1094 1095/1095
f 1096/1096 1097/1097 1098/1098
f 1099/1099 1100/1100 1101/1101
f 1102/1102 1103/1103 1104/1104
f 1105/1105 1106/1106 1107/1107
f 1108/1108 1109/1109 1110/1110
f 1111/1111 1112/1112 1113/1113
f 1114/1114 1115/1115 1116/1116
f 1117/1117 1118/1118 1119/1119
f 1120/1120 1121/1121 1122/1122
f 1123/1123 1124/1124 1125/1125
f 1126/1126 1127/1127 1128/1128
f 1129/1129 1130/1130 1131/1131
f 1132/1132 1133/1133 1134/1134
f 1135/1135 1136/1136 1137/1137
f 1138/1138 1139/1139 1140/1140
f 1141/1141 1142/1142 1143/1143
f 1144/1144 1145/1145 1146/1146
f 1147/1147 1148/1148 1149/1149
f 1150/1150 1151/1151 1152/1152
f 1153/1153 1154/1154 1155/1155
f 1156/1156 1157/1157 1158/1158
f 1159/1159 1160/1160 1161/1161
f 1162/1162 1163/1163 1164/1164
f 1165/1165 1166/1166 1167/1167
f 1168/1168 1169/1169 1170/1170
f 1171/1171 1172/1172 1173/1173
f 1174/1174 1175/1175 1176/1176
f 1177/1177 1178/1178 1179/1179
f 1180/1180 1181/1181 1182/1182
f 1183/1183 1184/1184 1185/1185
f 1186/1186 1187/1187 1188/1188
f 1189/1189 1190/1190 1191/1191
f 1192/1192 1193/1193 1194/1194
f 1195/1195 1196/1196 1197/1197
f 1198/1198 1199/1199 1200/1200
f 1201/1201 1202/1202 1203/1203
f 1204/1204 1205/1205 1206/1206
f 1207/1207 1208/1208 1209/1209
f 1210/1210 1211/1211 1212/1212
f 1213/1213 1214/1214 1215/1215
f 1216/1216 1217/1217 1218/1218
f 1219/1219 1220/1220 1221/1221
f 1222/1222 1223/1223 1224/1224
f 1225/1225 1226/1226 1227/1227
f 1228/1228 1229/1229 1230/1230
f 1231/1231 1232/1232 1233/1233
f 1234/1234 1235/1235 1236/1236
f 1237/1237 1238/1238 1239/1239
f 1240/1240 1241/1241 1242/1242
f 1243/1243 1244/1244 1245/1245
f 1246/1246 1247/1247 1248/1248
f 1249/1249 1250/1250 1251/1251
f 1252/1252 1253/1253 1254/1254
f 1255/1255 1256/1256 1257/1257
f 1258/1258 1259/1259 1260/1260
f 1261/1261 1262/1262 1263/1263
f 1264/1264 1265/1265 1266/1266
f 1267/1267 1268/1268 1269/1269
f 1270/1270 1271/1271 1272/1272
f 1273/1273 1274/1274 1275/1275
f 1276/1276 1277/1277 1278/1278
f 1279/1279 1280/1280 1281/1281
f 1282/1282 1283/1283 1284/1284
f 1285/1285 1286/1286 1287/1287
f 1288/1288 1289/1289 1290/1290
f 1291/1291 1292/1292 1293/1293
f 1294/1294 1295/1295 1296/1296
f 1297/1297 1298/1298 1299/1299
f 1300/1300 1301/1301 1302/1302
f 1303/1303 1304/1304 1305/1305
f 1306/1306 1307/1307 1308/1308
f 1309/1309 1310/1310 1311/1311
