o KrogBuildings_Brick
v 32318.60106 -120779.93052 956.08400
v 32337.71851 -121345.86772 956.08400
v 32337.71851 -121345.86772 1735.54902
v 32318.60106 -120779.93052 956.08400
v 32337.71851 -121345.86772 1735.54902
v 32318.60106 -120779.93052 1735.54902
v 32337.71851 -121345.86772 956.08400
v 32044.06469 -121355.60170 956.08400
v 32044.06469 -121355.60170 1735.54902
v 32337.71851 -121345.86772 956.08400
v 32044.06469 -121355.60170 1735.54902
v 32337.71851 -121345.86772 1735.54902
v 32044.06469 -121355.60170 956.08400
v 32024.94776 -120789.66451 956.08400
v 32024.94776 -120789.66451 1735.54902
v 32044.06469 -121355.60170 956.08400
v 32024.94776 -120789.66451 1735.54902
v 32044.06469 -121355.60170 1735.54902
v 32024.94776 -120789.66451 956.08400
v 32318.60106 -120779.93052 956.08400
v 32318.60106 -120779.93052 1735.54902
v 32024.94776 -120789.66451 956.08400
v 32318.60106 -120779.93052 1735.54902
v 32024.94776 -120789.66451 1735.54902
v 32624.79808 -121658.91688 1023.88269
v 32622.03944 -121430.34506 1023.88269
v 32622.03944 -121430.34506 1429.35155
v 32624.79808 -121658.91688 1023.88269
v 32622.03944 -121430.34506 1429.35155
v 32624.79808 -121658.91688 1429.35155
v 32624.79808 -121658.91688 1429.35155
v 32623.41876 -121544.63097 1429.35155
v 32623.41876 -121544.63097 1493.35631
v 32623.41876 -121544.63097 1429.35155
v 32622.03944 -121430.34506 1429.35155
v 32623.41876 -121544.63097 1493.35631
v 32622.03944 -121430.34506 1023.88269
v 33076.80926 -121424.62680 1023.88269
v 33076.80926 -121424.62680 1429.35155
v 32622.03944 -121430.34506 1023.88269
v 33076.80926 -121424.62680 1429.35155
v 32622.03944 -121430.34506 1429.35155
v 32622.03944 -121430.34506 1429.35155
v 33076.80926 -121424.62680 1429.35155
v 33076.80926 -121424.62680 1429.35379
v 33076.80926 -121424.62680 1023.88269
v 33079.87707 -121653.19073 1023.88269
v 33079.87707 -121653.19073 1429.35155
v 33076.80926 -121424.62680 1023.88269
v 33079.87707 -121653.19073 1429.35155
v 33076.80926 -121424.62680 1429.35155
v 33076.80926 -121424.62680 1429.35155
v 33078.34314 -121538.90677 1429.35155
v 33078.34314 -121538.90677 1493.35631
v 33076.80926 -121424.62680 1429.35155
v 33078.34314 -121538.90677 1493.35631
v 33076.80926 -121424.62680 1429.35379
v 33078.34314 -121538.90677 1429.35155
v 33079.87707 -121653.19073 1429.35155
v 33078.34314 -121538.90677 1493.35631
v 33079.87707 -121653.19073 1023.88269
v 32624.79808 -121658.91688 1023.88269
v 32624.79808 -121658.91688 1429.35155
v 33079.87707 -121653.19073 1023.88269
v 32624.79808 -121658.91688 1429.35155
v 33079.87707 -121653.19073 1429.35155
v 33067.25519 -120858.07483 1054.73260
v 33066.02798 -120484.06495 1054.73260
v 33066.02798 -120484.06495 1451.21851
v 33067.25519 -120858.07483 1054.73260
v 33066.02798 -120484.06495 1451.21851
v 33067.25519 -120858.07483 1451.21851
v 33067.25519 -120858.07483 1451.21851
v 33066.02798 -120484.06495 1451.21851
v 33066.02798 -120484.06495 1451.30006
v 33066.02798 -120484.06495 1054.73260
v 33171.09142 -120483.59603 1054.73260
v 33171.09142 -120483.59603 1451.21851
v 33066.02798 -120484.06495 1054.73260
v 33171.09142 -120483.59603 1451.21851
v 33066.02798 -120484.06495 1451.21851
v 33066.02798 -120484.06495 1451.21851
v 33171.09142 -120483.59603 1451.21851
v 33171.09142 -120483.59603 1510.13615
v 33066.02798 -120484.06495 1451.21851
v 33171.09142 -120483.59603 1510.13615
v 33066.02798 -120484.06495 1451.30006
v 33171.09142 -120483.59603 1054.73260
v 33170.59184 -120403.69495 1054.73260
v 33170.59184 -120403.69495 1451.21851
v 33171.09142 -120483.59603 1054.73260
v 33170.59184 -120403.69495 1451.21851
v 33171.09142 -120483.59603 1451.21851
v 33171.09142 -120483.59603 1451.21851
v 33170.59184 -120403.69495 1451.21851
v 33170.59184 -120403.69495 1510.02063
v 33171.09142 -120483.59603 1451.21851
v 33170.59184 -120403.69495 1510.02063
v 33171.09142 -120483.59603 1510.13615
v 33170.59184 -120403.69495 1054.73260
v 33389.99343 -120402.88962 1054.73260
v 33389.99343 -120402.88962 1451.21851
v 33170.59184 -120403.69495 1054.73260
v 33389.99343 -120402.88962 1451.21851
v 33170.59184 -120403.69495 1451.21851
v 33170.59184 -120403.69495 1451.21851
v 33227.82572 -120403.48487 1451.21851
v 33227.82572 -120403.48487 1542.07181
v 33170.59184 -120403.69495 1451.21851
v 33227.82572 -120403.48487 1542.07181
v 33170.59184 -120403.69495 1510.02063
v 33227.82572 -120403.48487 1451.21851
v 33389.99343 -120402.88962 1451.21851
v 33389.99343 -120402.88962 1451.25728
v 33227.82572 -120403.48487 1451.21851
v 33389.99343 -120402.88962 1451.25728
v 33227.82572 -120403.48487 1542.07181
v 33389.99343 -120402.88962 1054.73260
v 33391.73013 -120857.17034 1054.73260
v 33391.73013 -120857.17034 1451.21851
v 33389.99343 -120402.88962 1054.73260
v 33391.73013 -120857.17034 1451.21851
v 33389.99343 -120402.88962 1451.21851
v 33389.99343 -120402.88962 1451.21851
v 33391.73013 -120857.17034 1451.21851
v 33389.99343 -120402.88962 1451.25728
v 33391.73013 -120857.17034 1054.73260
v 33067.25519 -120858.07483 1054.73260
v 33067.25519 -120858.07483 1451.21851
v 33391.73013 -120857.17034 1054.73260
v 33067.25519 -120858.07483 1451.21851
v 33391.73013 -120857.17034 1451.21851
v 33391.73013 -120857.17034 1451.21851
v 33229.49266 -120857.62258 1451.21851
v 33229.49266 -120857.62258 1542.07181
v 33229.49266 -120857.62258 1451.21851
v 33067.25519 -120858.07483 1451.21851
v 33229.49266 -120857.62258 1542.07181
v 28672.89265 -113655.43086 948.89089
v 28775.53168 -114109.46554 948.89089
v 28775.53168 -114109.46554 1747.69191
v 28672.89265 -113655.43086 948.89089
v 28775.53168 -114109.46554 1747.69191
v 28672.89265 -113655.43086 1747.69191
v 28775.53168 -114109.46554 948.89089
v 28892.30443 -114656.72475 948.89089
v 28892.30443 -114656.72475 1747.69191
v 28775.53168 -114109.46554 948.89089
v 28892.30443 -114656.72475 1747.69191
v 28775.53168 -114109.46554 1747.69191
v 28892.30443 -114656.72475 948.89089
v 28958.18634 -114928.89651 948.89089
v 28958.18634 -114928.89651 1747.69191
v 28892.30443 -114656.72475 948.89089
v 28958.18634 -114928.89651 1747.69191
v 28892.30443 -114656.72475 1747.69191
v 28958.18634 -114928.89651 948.89089
v 28291.49045 -115079.21683 948.89089
v 28291.49045 -115079.21683 1747.69191
v 28958.18634 -114928.89651 948.89089
v 28291.49045 -115079.21683 1747.69191
v 28958.18634 -114928.89651 1747.69191
v 28291.49045 -115079.21683 948.89089
v 28357.72570 -115373.12970 948.89089
v 28357.72570 -115373.12970 1747.69191
v 28291.49045 -115079.21683 948.89089
v 28357.72570 -115373.12970 1747.69191
v 28291.49045 -115079.21683 1747.69191
v 28357.72570 -115373.12970 948.89089
v 28193.95674 -115410.24598 948.89089
v 28193.95674 -115410.24598 1747.69191
v 28357.72570 -115373.12970 948.89089
v 28193.95674 -115410.24598 1747.69191
v 28357.72570 -115373.12970 1747.69191
v 28193.95674 -115410.24598 948.89089
v 27522.28792 -112432.87805 948.89089
v 27522.28792 -112432.87805 1747.69191
v 28193.95674 -115410.24598 948.89089
v 27522.28792 -112432.87805 1747.69191
v 28193.95674 -115410.24598 1747.69191
v 27522.28792 -112432.87805 948.89089
v 28185.36829 -112283.46859 948.89089
v 28185.36829 -112283.46859 1747.69191
v 27522.28792 -112432.87805 948.89089
v 28185.36829 -112283.46859 1747.69191
v 27522.28792 -112432.87805 1747.69191
v 28185.36829 -112283.46859 948.89089
v 28328.98809 -112920.58529 948.89089
v 28328.98809 -112920.58529 1747.69191
v 28185.36829 -112283.46859 948.89089
v 28328.98809 -112920.58529 1747.69191
v 28185.36829 -112283.46859 1747.69191
v 28328.98809 -112920.58529 948.89089
v 28449.13751 -112893.83385 948.89089
v 28449.13751 -112893.83385 1747.69191
v 28328.98809 -112920.58529 948.89089
v 28449.13751 -112893.83385 1747.69191
v 28328.98809 -112920.58529 1747.69191
v 28449.13751 -112893.83385 948.89089
v 28623.42536 -113666.68543 948.89089
v 28623.42536 -113666.68543 1747.69191
v 28449.13751 -112893.83385 948.89089
v 28623.42536 -113666.68543 1747.69191
v 28449.13751 -112893.83385 1747.69191
v 28623.42536 -113666.68543 948.89089
v 28672.89265 -113655.43086 948.89089
v 28672.89265 -113655.43086 1747.69191
v 28623.42536 -113666.68543 948.89089
v 28672.89265 -113655.43086 1747.69191
v 28623.42536 -113666.68543 1747.69191
v 31736.34341 -113883.02123 1030.37591
v 31877.47254 -114479.94017 1030.37591
v 31877.47254 -114479.94017 1472.77495
v 31736.34341 -113883.02123 1030.37591
v 31877.47254 -114479.94017 1472.77495
v 31736.34341 -113883.02123 1472.77495
v 31877.47254 -114479.94017 1030.37591
v 31571.09633 -114565.97851 1030.37591
v 31571.09633 -114565.97851 1472.77495
v 31877.47254 -114479.94017 1030.37591
v 31571.09633 -114565.97851 1472.77495
v 31877.47254 -114479.94017 1472.77495
v 31877.47254 -114479.94017 1472.77495
v 31724.28443 -114522.95934 1472.77495
v 31724.28443 -114522.95934 1561.80163
v 31724.28443 -114522.95934 1472.77495
v 31571.09633 -114565.97851 1472.77495
v 31724.28443 -114522.95934 1561.80163
v 31571.09633 -114565.97851 1030.37591
v 31427.01944 -113956.42134 1030.37591
v 31427.01944 -113956.42134 1472.77495
v 31571.09633 -114565.97851 1030.37591
v 31427.01944 -113956.42134 1472.77495
v 31571.09633 -114565.97851 1472.77495
v 31571.09633 -114565.97851 1472.77495
v 31427.01944 -113956.42134 1472.77495
v 31427.01944 -113956.42134 1472.79690
v 31427.01944 -113956.42134 1030.37591
v 31736.34341 -113883.02123 1030.37591
v 31736.34341 -113883.02123 1472.77495
v 31427.01944 -113956.42134 1030.37591
v 31736.34341 -113883.02123 1472.77495
v 31427.01944 -113956.42134 1472.77495
v 31427.01944 -113956.42134 1472.77495
v 31581.66235 -113919.72581 1472.77495
v 31581.66235 -113919.72581 1561.80163
v 31427.01944 -113956.42134 1472.77495
v 31581.66235 -113919.72581 1561.80163
v 31427.01944 -113956.42134 1472.79690
v 31581.66235 -113919.72581 1472.77495
v 31736.34341 -113883.02123 1472.77495
v 31581.66235 -113919.72581 1561.80163
v 25937.24672 -114620.72530 945.69417
v 25814.09022 -114094.81591 945.69417
v 25814.09022 -114094.81591 1675.38322
v 25937.24672 -114620.72530 945.69417
v 25814.09022 -114094.81591 1675.38322
v 25937.24672 -114620.72530 1675.38322
v 25814.09022 -114094.81591 945.69417
v 27073.98151 -113766.25065 945.69417
v 27073.98151 -113766.25065 1675.38322
v 25814.09022 -114094.81591 945.69417
v 27073.98151 -113766.25065 1675.38322
v 25814.09022 -114094.81591 1675.38322
v 27073.98151 -113766.25065 945.69417
v 27279.90575 -114422.86261 945.69417
v 27279.90575 -114422.86261 1675.38322
v 27073.98151 -113766.25065 945.69417
v 27279.90575 -114422.86261 1675.38322
v 27073.98151 -113766.25065 1675.38322
v 27279.90575 -114422.86261 945.69417
v 27696.03787 -114332.67600 945.69417
v 27696.03787 -114332.67600 1675.38322
v 27279.90575 -114422.86261 945.69417
v 27696.03787 -114332.67600 1675.38322
v 27279.90575 -114422.86261 1675.38322
v 27696.03787 -114332.67600 945.69417
v 27990.35433 -115509.05627 945.69417
v 27990.35433 -115509.05627 1675.38322
v 27696.03787 -114332.67600 945.69417
v 27990.35433 -115509.05627 1675.38322
v 27696.03787 -114332.67600 1675.38322
v 27990.35433 -115509.05627 945.69417
v 26458.63486 -115891.19226 945.69417
v 26458.63486 -115891.19226 1675.38322
v 27990.35433 -115509.05627 945.69417
v 26458.63486 -115891.19226 1675.38322
v 27990.35433 -115509.05627 1675.38322
v 26458.63486 -115891.19226 945.69417
v 26323.61564 -115711.13929 945.69417
v 26323.61564 -115711.13929 1675.38322
v 26458.63486 -115891.19226 945.69417
v 26323.61564 -115711.13929 1675.38322
v 26458.63486 -115891.19226 1675.38322
v 26323.61564 -115711.13929 945.69417
v 26288.66015 -115637.29901 945.69417
v 26288.66015 -115637.29901 1675.38322
v 26323.61564 -115711.13929 945.69417
v 26288.66015 -115637.29901 1675.38322
v 26323.61564 -115711.13929 1675.38322
v 26288.66015 -115637.29901 945.69417
v 26217.20512 -115670.94372 945.69417
v 26217.20512 -115670.94372 1675.38322
v 26288.66015 -115637.29901 945.69417
v 26217.20512 -115670.94372 1675.38322
v 26288.66015 -115637.29901 1675.38322
v 26217.20512 -115670.94372 945.69417
v 26035.31209 -115361.85947 945.69417
v 26035.31209 -115361.85947 1675.38322
v 26217.20512 -115670.94372 945.69417
v 26035.31209 -115361.85947 1675.38322
v 26217.20512 -115670.94372 1675.38322
v 26035.31209 -115361.85947 945.69417
v 26339.26817 -115187.23000 945.69417
v 26339.26817 -115187.23000 1675.38322
v 26035.31209 -115361.85947 945.69417
v 26339.26817 -115187.23000 1675.38322
v 26035.31209 -115361.85947 1675.38322
v 26339.26817 -115187.23000 945.69417
v 27048.65509 -115011.48126 945.69417
v 27048.65509 -115011.48126 1675.38322
v 26339.26817 -115187.23000 945.69417
v 27048.65509 -115011.48126 1675.38322
v 26339.26817 -115187.23000 1675.38322
v 27048.65509 -115011.48126 945.69417
v 26944.84982 -114626.03626 945.69417
v 26944.84982 -114626.03626 1675.38322
v 27048.65509 -115011.48126 945.69417
v 26944.84982 -114626.03626 1675.38322
v 27048.65509 -115011.48126 1675.38322
v 26944.84982 -114626.03626 945.69417
v 26300.39516 -114766.82702 945.69417
v 26300.39516 -114766.82702 1675.38322
v 26944.84982 -114626.03626 945.69417
v 26300.39516 -114766.82702 1675.38322
v 26944.84982 -114626.03626 1675.38322
v 26300.39516 -114766.82702 945.69417
v 25807.65155 -115075.77371 945.69417
v 25807.65155 -115075.77371 1675.38322
v 26300.39516 -114766.82702 945.69417
v 25807.65155 -115075.77371 1675.38322
v 26300.39516 -114766.82702 1675.38322
v 25807.65155 -115075.77371 945.69417
v 25659.72816 -114753.61164 945.69417
v 25659.72816 -114753.61164 1675.38322
v 25807.65155 -115075.77371 945.69417
v 25659.72816 -114753.61164 1675.38322
v 25807.65155 -115075.77371 1675.38322
v 25659.72816 -114753.61164 945.69417
v 25937.24672 -114620.72530 945.69417
v 25937.24672 -114620.72530 1675.38322
v 25659.72816 -114753.61164 945.69417
v 25937.24672 -114620.72530 1675.38322
v 25659.72816 -114753.61164 1675.38322
v 32610.88792 -121006.64303 1029.21153
v 32610.09242 -120601.17457 1029.21153
v 32610.09242 -120601.17457 1433.66097
v 32610.88792 -121006.64303 1029.21153
v 32610.09242 -120601.17457 1433.66097
v 32610.88792 -121006.64303 1433.66097
v 32610.88792 -121006.64303 1433.66097
v 32610.09242 -120601.17457 1433.66097
v 32610.09242 -120601.17457 1433.81362
v 32610.09242 -120601.17457 1029.21153
v 32715.77357 -120600.69000 1029.21153
v 32715.77357 -120600.69000 1433.66097
v 32610.09242 -120601.17457 1029.21153
v 32715.77357 -120600.69000 1433.66097
v 32610.09242 -120601.17457 1433.66097
v 32610.09242 -120601.17457 1433.66097
v 32715.77357 -120600.69000 1433.66097
v 32715.77357 -120600.69000 1492.99557
v 32610.09242 -120601.17457 1433.66097
v 32715.77357 -120600.69000 1492.99557
v 32610.09242 -120601.17457 1433.81362
v 32715.77357 -120600.69000 1029.21153
v 32715.60187 -120521.52048 1029.21153
v 32715.60187 -120521.52048 1433.66097
v 32715.77357 -120600.69000 1029.21153
v 32715.60187 -120521.52048 1433.66097
v 32715.77357 -120600.69000 1433.66097
v 32715.77357 -120600.69000 1433.66097
v 32715.60187 -120521.52048 1433.66097
v 32715.60187 -120521.52048 1493.01621
v 32715.77357 -120600.69000 1433.66097
v 32715.60187 -120521.52048 1493.01621
v 32715.77357 -120600.69000 1492.99557
v 32715.60187 -120521.52048 1029.21153
v 32999.90790 -120520.90435 1029.21153
v 32999.90790 -120520.90435 1433.66097
v 32715.60187 -120521.52048 1029.21153
v 32999.90790 -120520.90435 1433.66097
v 32715.60187 -120521.52048 1433.66097
v 32715.60187 -120521.52048 1433.66097
v 32804.75925 -120521.32726 1433.66097
v 32804.75925 -120521.32726 1542.94445
v 32715.60187 -120521.52048 1433.66097
v 32804.75925 -120521.32726 1542.94445
v 32715.60187 -120521.52048 1493.01621
v 32804.75925 -120521.32726 1433.66097
v 32999.90790 -120520.90435 1433.66097
v 32804.75925 -120521.32726 1542.94445
v 32999.90790 -120520.90435 1029.21153
v 33001.18451 -121005.53446 1029.21153
v 33001.18451 -121005.53446 1433.66097
v 32999.90790 -120520.90435 1029.21153
v 33001.18451 -121005.53446 1433.66097
v 32999.90790 -120520.90435 1433.66097
v 33001.18451 -121005.53446 1029.21153
v 32610.88792 -121006.64303 1029.21153
v 32610.88792 -121006.64303 1433.66097
v 33001.18451 -121005.53446 1029.21153
v 32610.88792 -121006.64303 1433.66097
v 33001.18451 -121005.53446 1433.66097
v 33001.18451 -121005.53446 1433.66097
v 32806.03621 -121006.08875 1433.66097
v 32806.03621 -121006.08875 1542.94445
v 32806.03621 -121006.08875 1433.66097
v 32610.88792 -121006.64303 1433.66097
v 32806.03621 -121006.08875 1542.94445
v 33501.25631 -120717.10780 1073.76054
v 33500.01911 -120342.72816 1073.76054
v 33500.01911 -120342.72816 1464.99787
v 33501.25631 -120717.10780 1073.76054
v 33500.01911 -120342.72816 1464.99787
v 33501.25631 -120717.10780 1464.99787
v 33501.25631 -120717.10780 1464.99787
v 33500.01911 -120342.72816 1464.99787
v 33500.01911 -120342.72816 1465.10311
v 33500.01911 -120342.72816 1073.76054
v 33605.08252 -120342.25910 1073.76054
v 33605.08252 -120342.25910 1464.99787
v 33500.01911 -120342.72816 1073.76054
v 33605.08252 -120342.25910 1464.99787
v 33500.01911 -120342.72816 1464.99787
v 33500.01911 -120342.72816 1464.99787
v 33605.08252 -120342.25910 1464.99787
v 33605.08252 -120342.25910 1523.93919
v 33500.01911 -120342.72816 1464.99787
v 33605.08252 -120342.25910 1523.93919
v 33500.01911 -120342.72816 1465.10311
v 33605.08252 -120342.25910 1073.76054
v 33604.59228 -120262.72774 1073.76054
v 33604.59228 -120262.72774 1464.99787
v 33605.08252 -120342.25910 1073.76054
v 33604.59228 -120262.72774 1464.99787
v 33605.08252 -120342.25910 1464.99787
v 33605.08252 -120342.25910 1464.99787
v 33604.59228 -120262.72774 1464.99787
v 33604.59228 -120262.72774 1523.83420
v 33605.08252 -120342.25910 1464.99787
v 33604.59228 -120262.72774 1523.83420
v 33605.08252 -120342.25910 1523.93919
v 33604.59228 -120262.72774 1073.76054
v 33823.99380 -120261.92211 1073.76054
v 33823.99380 -120261.92211 1464.99787
v 33604.59228 -120262.72774 1073.76054
v 33823.99380 -120261.92211 1464.99787
v 33604.59228 -120262.72774 1464.99787
v 33604.59228 -120262.72774 1464.99787
v 33661.76096 -120262.51782 1464.99787
v 33661.76096 -120262.51782 1555.84887
v 33604.59228 -120262.72774 1464.99787
v 33661.76096 -120262.51782 1555.84887
v 33604.59228 -120262.72774 1523.83420
v 33661.76096 -120262.51782 1464.99787
v 33823.99380 -120261.92211 1464.99787
v 33661.76096 -120262.51782 1555.84887
v 33823.99380 -120261.92211 1073.76054
v 33825.72167 -120715.83313 1073.76054
v 33825.72167 -120715.83313 1464.99787
v 33823.99380 -120261.92211 1073.76054
v 33825.72167 -120715.83313 1464.99787
v 33823.99380 -120261.92211 1464.99787
v 33825.72167 -120715.83313 1073.76054
v 33501.25631 -120717.10780 1073.76054
v 33501.25631 -120717.10780 1464.99787
v 33825.72167 -120715.83313 1073.76054
v 33501.25631 -120717.10780 1464.99787
v 33825.72167 -120715.83313 1464.99787
v 33825.72167 -120715.83313 1464.99787
v 33663.48899 -120716.47047 1464.99787
v 33663.48899 -120716.47047 1555.84887
v 33663.48899 -120716.47047 1464.99787
v 33501.25631 -120717.10780 1464.99787
v 33663.48899 -120716.47047 1555.84887
vt 161.59301 4.78042
vt 161.68859 4.78042
vt 161.68859 8.67775
vt 161.59301 4.78042
vt 161.68859 8.67775
vt 161.59301 8.67775
vt 161.68859 4.78042
vt 160.22032 4.78042
vt 160.22032 8.67775
vt 161.68859 4.78042
vt 160.22032 8.67775
vt 161.68859 8.67775
vt 160.22032 4.78042
vt 160.12474 4.78042
vt 160.12474 8.67775
vt 160.22032 4.78042
vt 160.12474 8.67775
vt 160.22032 8.67775
vt 160.12474 4.78042
vt 161.59301 4.78042
vt 161.59301 8.67775
vt 160.12474 4.78042
vt 161.59301 8.67775
vt 160.12474 8.67775
vt 163.12399 5.11941
vt 163.11020 5.11941
vt 163.11020 7.14676
vt 163.12399 5.11941
vt 163.11020 7.14676
vt 163.12399 7.14676
vt 163.12399 7.14676
vt 163.11709 7.14676
vt 163.11709 7.46678
vt 163.11709 7.14676
vt 163.11020 7.14676
vt 163.11709 7.46678
vt 163.11020 5.11941
vt 165.38405 5.11941
vt 165.38405 7.14676
vt 163.11020 5.11941
vt 165.38405 7.14676
vt 163.11020 7.14676
vt 163.11020 7.14676
vt 165.38405 7.14676
vt 165.38405 7.14677
vt 165.38405 5.11941
vt 165.39939 5.11941
vt 165.39939 7.14676
vt 165.38405 5.11941
vt 165.39939 7.14676
vt 165.38405 7.14676
vt 165.38405 7.14676
vt 165.39172 7.14676
vt 165.39172 7.46678
vt 165.38405 7.14676
vt 165.39172 7.46678
vt 165.38405 7.14677
vt 165.39172 7.14676
vt 165.39939 7.14676
vt 165.39172 7.46678
vt 165.39939 5.11941
vt 163.12399 5.11941
vt 163.12399 7.14676
vt 165.39939 5.11941
vt 163.12399 7.14676
vt 165.39939 7.14676
vt 165.33628 5.27366
vt 165.33014 5.27366
vt 165.33014 7.25609
vt 165.33628 5.27366
vt 165.33014 7.25609
vt 165.33628 7.25609
vt 165.33628 7.25609
vt 165.33014 7.25609
vt 165.33014 7.25650
vt 165.33014 5.27366
vt 165.85546 5.27366
vt 165.85546 7.25609
vt 165.33014 5.27366
vt 165.85546 7.25609
vt 165.33014 7.25609
vt 165.33014 7.25609
vt 165.85546 7.25609
vt 165.85546 7.55068
vt 165.33014 7.25609
vt 165.85546 7.55068
vt 165.33014 7.25650
vt 165.85546 5.27366
vt 165.85296 5.27366
vt 165.85296 7.25609
vt 165.85546 5.27366
vt 165.85296 7.25609
vt 165.85546 7.25609
vt 165.85546 7.25609
vt 165.85296 7.25609
vt 165.85296 7.55010
vt 165.85546 7.25609
vt 165.85296 7.55010
vt 165.85546 7.55068
vt 165.85296 5.27366
vt 166.94997 5.27366
vt 166.94997 7.25609
vt 165.85296 5.27366
vt 166.94997 7.25609
vt 165.85296 7.25609
vt 165.85296 7.25609
vt 166.13913 7.25609
vt 166.13913 7.71036
vt 165.85296 7.25609
vt 166.13913 7.71036
vt 165.85296 7.55010
vt 166.13913 7.25609
vt 166.94997 7.25609
vt 166.94997 7.25629
vt 166.13913 7.25609
vt 166.94997 7.25629
vt 166.13913 7.71036
vt 166.94997 5.27366
vt 166.95865 5.27366
vt 166.95865 7.25609
vt 166.94997 5.27366
vt 166.95865 7.25609
vt 166.94997 7.25609
vt 166.94997 7.25609
vt 166.95865 7.25609
vt 166.94997 7.25629
vt 166.95865 5.27366
vt 165.33628 5.27366
vt 165.33628 7.25609
vt 166.95865 5.27366
vt 165.33628 7.25609
vt 166.95865 7.25609
vt 166.95865 7.25609
vt 166.14746 7.25609
vt 166.14746 7.71036
vt 166.14746 7.25609
vt 165.33628 7.25609
vt 166.14746 7.71036
vt 143.36446 4.74445
vt 143.87766 4.74445
vt 143.87766 8.73846
vt 143.36446 4.74445
vt 143.87766 8.73846
vt 143.36446 8.73846
vt 143.87766 4.74445
vt 144.46152 4.74445
vt 144.46152 8.73846
vt 143.87766 4.74445
vt 144.46152 8.73846
vt 143.87766 8.73846
vt 144.46152 4.74445
vt 144.79093 4.74445
vt 144.79093 8.73846
vt 144.46152 4.74445
vt 144.79093 8.73846
vt 144.46152 8.73846
vt 144.79093 4.74445
vt 141.45745 4.74445
vt 141.45745 8.73846
vt 144.79093 4.74445
vt 141.45745 8.73846
vt 144.79093 8.73846
vt 141.45745 4.74445
vt 141.78863 4.74445
vt 141.78863 8.73846
vt 141.45745 4.74445
vt 141.78863 8.73846
vt 141.45745 8.73846
vt 141.78863 4.74445
vt 140.96978 4.74445
vt 140.96978 8.73846
vt 141.78863 4.74445
vt 140.96978 8.73846
vt 141.78863 8.73846
vt 140.96978 4.74445
vt 137.61144 4.74445
vt 137.61144 8.73846
vt 140.96978 4.74445
vt 137.61144 8.73846
vt 140.96978 8.73846
vt 137.61144 4.74445
vt 140.92684 4.74445
vt 140.92684 8.73846
vt 137.61144 4.74445
vt 140.92684 8.73846
vt 137.61144 8.73846
vt 140.92684 4.74445
vt 141.64494 4.74445
vt 141.64494 8.73846
vt 140.92684 4.74445
vt 141.64494 8.73846
vt 140.92684 8.73846
vt 141.64494 4.74445
vt 142.24569 4.74445
vt 142.24569 8.73846
vt 141.64494 4.74445
vt 142.24569 8.73846
vt 141.64494 8.73846
vt 142.24569 4.74445
vt 143.11713 4.74445
vt 143.11713 8.73846
vt 142.24569 4.74445
vt 143.11713 8.73846
vt 142.24569 8.73846
vt 143.11713 4.74445
vt 143.36446 4.74445
vt 143.36446 8.73846
vt 143.11713 4.74445
vt 143.36446 8.73846
vt 143.11713 8.73846
vt 158.68172 5.15188
vt 159.38736 5.15188
vt 159.38736 7.36387
vt 158.68172 5.15188
vt 159.38736 7.36387
vt 158.68172 7.36387
vt 159.38736 5.15188
vt 157.85548 5.15188
vt 157.85548 7.36387
vt 159.38736 5.15188
vt 157.85548 7.36387
vt 159.38736 7.36387
vt 159.38736 7.36387
vt 158.62142 7.36387
vt 158.62142 7.80901
vt 158.62142 7.36387
vt 157.85548 7.36387
vt 158.62142 7.80901
vt 157.85548 5.15188
vt 157.13510 5.15188
vt 157.13510 7.36387
vt 157.85548 5.15188
vt 157.13510 7.36387
vt 157.85548 7.36387
vt 157.85548 7.36387
vt 157.13510 7.36387
vt 157.13510 7.36398
vt 157.13510 5.15188
vt 158.68172 5.15188
vt 158.68172 7.36387
vt 157.13510 5.15188
vt 158.68172 7.36387
vt 157.13510 7.36387
vt 157.13510 7.36387
vt 157.90831 7.36387
vt 157.90831 7.80901
vt 157.13510 7.36387
vt 157.90831 7.80901
vt 157.13510 7.36398
vt 157.90831 7.36387
vt 158.68172 7.36387
vt 157.90831 7.80901
vt 129.68623 4.72847
vt 129.07045 4.72847
vt 129.07045 8.37692
vt 129.68623 4.72847
vt 129.07045 8.37692
vt 129.68623 8.37692
vt 129.07045 4.72847
vt 135.36991 4.72847
vt 135.36991 8.37692
vt 129.07045 4.72847
vt 135.36991 8.37692
vt 129.07045 8.37692
vt 135.36991 4.72847
vt 136.39953 4.72847
vt 136.39953 8.37692
vt 135.36991 4.72847
vt 136.39953 8.37692
vt 135.36991 8.37692
vt 136.39953 4.72847
vt 138.48019 4.72847
vt 138.48019 8.37692
vt 136.39953 4.72847
vt 138.48019 8.37692
vt 136.39953 8.37692
vt 138.48019 4.72847
vt 139.95177 4.72847
vt 139.95177 8.37692
vt 138.48019 4.72847
vt 139.95177 8.37692
vt 138.48019 8.37692
vt 139.95177 4.72847
vt 132.29317 4.72847
vt 132.29317 8.37692
vt 139.95177 4.72847
vt 132.29317 8.37692
vt 139.95177 8.37692
vt 132.29317 4.72847
vt 131.61808 4.72847
vt 131.61808 8.37692
vt 132.29317 4.72847
vt 131.61808 8.37692
vt 132.29317 8.37692
vt 131.61808 4.72847
vt 131.44330 4.72847
vt 131.44330 8.37692
vt 131.61808 4.72847
vt 131.44330 8.37692
vt 131.61808 8.37692
vt 131.44330 4.72847
vt 131.08603 4.72847
vt 131.08603 8.37692
vt 131.44330 4.72847
vt 131.08603 8.37692
vt 131.44330 8.37692
vt 131.08603 4.72847
vt 130.17656 4.72847
vt 130.17656 8.37692
vt 131.08603 4.72847
vt 130.17656 8.37692
vt 131.08603 8.37692
vt 130.17656 4.72847
vt 131.69634 4.72847
vt 131.69634 8.37692
vt 130.17656 4.72847
vt 131.69634 8.37692
vt 130.17656 8.37692
vt 131.69634 4.72847
vt 135.24328 4.72847
vt 135.24328 8.37692
vt 131.69634 4.72847
vt 135.24328 8.37692
vt 131.69634 8.37692
vt 135.24328 4.72847
vt 134.72425 4.72847
vt 134.72425 8.37692
vt 135.24328 4.72847
vt 134.72425 8.37692
vt 135.24328 8.37692
vt 134.72425 4.72847
vt 131.50198 4.72847
vt 131.50198 8.37692
vt 134.72425 4.72847
vt 131.50198 8.37692
vt 134.72425 8.37692
vt 131.50198 4.72847
vt 129.03826 4.72847
vt 129.03826 8.37692
vt 131.50198 4.72847
vt 129.03826 8.37692
vt 131.50198 8.37692
vt 129.03826 4.72847
vt 128.29864 4.72847
vt 128.29864 8.37692
vt 129.03826 4.72847
vt 128.29864 8.37692
vt 129.03826 8.37692
vt 128.29864 4.72847
vt 129.68623 4.72847
vt 129.68623 8.37692
vt 128.29864 4.72847
vt 129.68623 8.37692
vt 128.29864 8.37692
vt 163.05444 5.14606
vt 163.05046 5.14606
vt 163.05046 7.16830
vt 163.05444 5.14606
vt 163.05046 7.16830
vt 163.05444 7.16830
vt 163.05444 7.16830
vt 163.05046 7.16830
vt 163.05046 7.16907
vt 163.05046 5.14606
vt 163.57887 5.14606
vt 163.57887 7.16830
vt 163.05046 5.14606
vt 163.57887 7.16830
vt 163.05046 7.16830
vt 163.05046 7.16830
vt 163.57887 7.16830
vt 163.57887 7.46498
vt 163.05046 7.16830
vt 163.57887 7.46498
vt 163.05046 7.16907
vt 163.57887 5.14606
vt 163.57801 5.14606
vt 163.57801 7.16830
vt 163.57887 5.14606
vt 163.57801 7.16830
vt 163.57887 7.16830
vt 163.57887 7.16830
vt 163.57801 7.16830
vt 163.57801 7.46508
vt 163.57887 7.16830
vt 163.57801 7.46508
vt 163.57887 7.46498
vt 163.57801 5.14606
vt 164.99954 5.14606
vt 164.99954 7.16830
vt 163.57801 5.14606
vt 164.99954 7.16830
vt 163.57801 7.16830
vt 163.57801 7.16830
vt 164.02380 7.16830
vt 164.02380 7.71472
vt 163.57801 7.16830
vt 164.02380 7.71472
vt 163.57801 7.46508
vt 164.02380 7.16830
vt 164.99954 7.16830
vt 164.02380 7.71472
vt 164.99954 5.14606
vt 165.00592 5.14606
vt 165.00592 7.16830
vt 164.99954 5.14606
vt 165.00592 7.16830
vt 164.99954 7.16830
vt 165.00592 5.14606
vt 163.05444 5.14606
vt 163.05444 7.16830
vt 165.00592 5.14606
vt 163.05444 7.16830
vt 165.00592 7.16830
vt 165.00592 7.16830
vt 164.03018 7.16830
vt 164.03018 7.71472
vt 164.03018 7.16830
vt 163.05444 7.16830
vt 164.03018 7.71472
vt 167.50628 5.36880
vt 167.50010 5.36880
vt 167.50010 7.32499
vt 167.50628 5.36880
vt 167.50010 7.32499
vt 167.50628 7.32499
vt 167.50628 7.32499
vt 167.50010 7.32499
vt 167.50010 7.32552
vt 167.50010 5.36880
vt 168.02541 5.36880
vt 168.02541 7.32499
vt 167.50010 5.36880
vt 168.02541 7.32499
vt 167.50010 7.32499
vt 167.50010 7.32499
vt 168.02541 7.32499
vt 168.02541 7.61970
vt 167.50010 7.32499
vt 168.02541 7.61970
vt 167.50010 7.32552
vt 168.02541 5.36880
vt 168.02296 5.36880
vt 168.02296 7.32499
vt 168.02541 5.36880
vt 168.02296 7.32499
vt 168.02541 7.32499
vt 168.02541 7.32499
vt 168.02296 7.32499
vt 168.02296 7.61917
vt 168.02541 7.32499
vt 168.02296 7.61917
vt 168.02541 7.61970
vt 168.02296 5.36880
vt 169.11997 5.36880
vt 169.11997 7.32499
vt 168.02296 5.36880
vt 169.11997 7.32499
vt 168.02296 7.32499
vt 168.02296 7.32499
vt 168.30880 7.32499
vt 168.30880 7.77924
vt 168.02296 7.32499
vt 168.30880 7.77924
vt 168.02296 7.61917
vt 168.30880 7.32499
vt 169.11997 7.32499
vt 168.30880 7.77924
vt 169.11997 5.36880
vt 169.12861 5.36880
vt 169.12861 7.32499
vt 169.11997 5.36880
vt 169.12861 7.32499
vt 169.11997 7.32499
vt 169.12861 5.36880
vt 167.50628 5.36880
vt 167.50628 7.32499
vt 169.12861 5.36880
vt 167.50628 7.32499
vt 169.12861 7.32499
vt 169.12861 7.32499
vt 168.31744 7.32499
vt 168.31744 7.77924
vt 168.31744 7.32499
vt 167.50628 7.32499
vt 168.31744 7.77924
f 3/3 2/2 1/1
f 6/6 5/5 4/4
f 9/9 8/8 7/7
f 12/12 11/11 10/10
f 15/15 14/14 13/13
f 18/18 17/17 16/16
f 21/21 20/20 19/19
f 24/24 23/23 22/22
f 27/27 26/26 25/25
f 30/30 29/29 28/28
f 33/33 32/32 31/31
f 36/36 35/35 34/34
f 39/39 38/38 37/37
f 42/42 41/41 40/40
f 45/45 44/44 43/43
f 48/48 47/47 46/46
f 51/51 50/50 49/49
f 54/54 53/53 52/52
f 57/57 56/56 55/55
f 60/60 59/59 58/58
f 63/63 62/62 61/61
f 66/66 65/65 64/64
f 69/69 68/68 67/67
f 72/72 71/71 70/70
f 75/75 74/74 73/73
f 78/78 77/77 76/76
f 81/81 80/80 79/79
f 84/84 83/83 82/82
f 87/87 86/86 85/85
f 90/90 89/89 88/88
f 93/93 92/92 91/91
f 96/96 95/95 94/94
f 99/99 98/98 97/97
f 102/102 101/101 100/100
f 105/105 104/104 103/103
f 108/108 107/107 106/106
f 111/111 110/110 109/109
f 114/114 113/113 112/112
f 117/117 116/116 115/115
f 120/120 119/119 118/118
f 123/123 122/122 121/121
f 126/126 125/125 124/124
f 129/129 128/128 127/127
f 132/132 131/131 130/130
f 135/135 134/134 133/133
f 138/138 137/137 136/136
f 141/141 140/140 139/139
f 144/144 143/143 142/142
f 147/147 146/146 145/145
f 150/150 149/149 148/148
f 153/153 152/152 151/151
f 156/156 155/155 154/154
f 159/159 158/158 157/157
f 162/162 161/161 160/160
f 165/165 164/164 163/163
f 168/168 167/167 166/166
f 171/171 170/170 169/169
f 174/174 173/173 172/172
f 177/177 176/176 175/175
f 180/180 179/179 178/178
f 183/183 182/182 181/181
f 186/186 185/185 184/184
f 189/189 188/188 187/187
f 192/192 191/191 190/190
f 195/195 194/194 193/193
f 198/198 197/197 196/196
f 201/201 200/200 199/199
f 204/204 203/203 202/202
f 207/207 206/206 205/205
f 210/210 209/209 208/208
f 213/213 212/212 211/211
f 216/216 215/215 214/214
f 219/219 218/218 217/217
f 222/222 221/221 220/220
f 225/225 224/224 223/223
f 228/228 227/227 226/226
f 231/231 230/230 229/229
f 234/234 233/233 232/232
f 237/237 236/236 235/235
f 240/240 239/239 238/238
f 243/243 242/242 241/241
f 246/246 245/245 244/244
f 249/249 248/248 247/247
f 252/252 251/251 250/250
f 255/255 254/254 253/253
f 258/258 257/257 256/256
f 261/261 260/260 259/259
f 264/264 263/263 262/262
f 267/267 266/266 265/265
f 270/270 269/269 268/268
f 273/273 272/272 271/271
f 276/276 275/275 274/274
f 279/279 278/278 277/277
f 282/282 281/281 280/280
f 285/285 284/284 283/283
f 288/288 287/287 286/286
f 291/291 290/290 289/289
f 294/294 293/293 292/292
f 297/297 296/296 295/295
f 300/300 299/299 298/298
f 303/303 302/302 301/301
f 306/306 305/305 304/304
f 309/309 308/308 307/307
f 312/312 311/311 310/310
f 315/315 314/314 313/313
f 318/318 317/317 316/316
f 321/321 320/320 319/319
f 324/324 323/323 322/322
f 327/327 326/326 325/325
f 330/330 329/329 328/328
f 333/333 332/332 331/331
f 336/336 335/335 334/334
f 339/339 338/338 337/337
f 342/342 341/341 340/340
f 345/345 344/344 343/343
f 348/348 347/347 346/346
f 351/351 350/350 349/349
f 354/354 353/353 352/352
f 357/357 356/356 355/355
f 360/360 359/359 358/358
f 363/363 362/362 361/361
f 366/366 365/365 364/364
f 369/369 368/368 367/367
f 372/372 371/371 370/370
f 375/375 374/374 373/373
f 378/378 377/377 376/376
f 381/381 380/380 379/379
f 384/384 383/383 382/382
f 387/387 386/386 385/385
f 390/390 389/389 388/388
f 393/393 392/392 391/391
f 396/396 395/395 394/394
f 399/399 398/398 397/397
f 402/402 401/401 400/400
f 405/405 404/404 403/403
f 408/408 407/407 406/406
f 411/411 410/410 409/409
f 414/414 413/413 412/412
f 417/417 416/416 415/415
f 420/420 419/419 418/418
f 423/423 422/422 421/421
f 426/426 425/425 424/424
f 429/429 428/428 427/427
f 432/432 431/431 430/430
f 435/435 434/434 433/433
f 438/438 437/437 436/436
f 441/441 440/440 439/439
f 444/444 443/443 442/442
f 447/447 446/446 445/445
f 450/450 449/449 448/448
f 453/453 452/452 451/451
f 456/456 455/455 454/454
f 459/459 458/458 457/457
f 462/462 461/461 460/460
f 465/465 464/464 463/463
f 468/468 467/467 466/466
f 471/471 470/470 469/469
f 474/474 473/473 472/472
f 477/477 476/476 475/475
f 480/480 479/479 478/478
f 483/483 482/482 481/481
f 486/486 485/485 484/484
