o KrogBuildings_Landing
v 32007.77964 -121021.94151 1047.54902
v 32001.70285 -120842.04411 1047.54902
v 31931.74275 -120844.40731 1047.54902
v 32007.77964 -121021.94151 1047.54902
v 31931.74275 -120844.40731 1047.54902
v 31937.81955 -121024.30471 1047.54902
v 31937.81955 -121024.30471 1055.54902
v 31931.74275 -120844.40731 1055.54902
v 32001.70285 -120842.04411 1055.54902
v 31937.81955 -121024.30471 1055.54902
v 32001.70285 -120842.04411 1055.54902
v 32007.77964 -121021.94151 1055.54902
v 31937.81955 -121024.30471 1047.54902
v 31931.74275 -120844.40731 1047.54902
v 31931.74275 -120844.40731 1055.54902
v 31937.81955 -121024.30471 1047.54902
v 31931.74275 -120844.40731 1055.54902
v 31937.81955 -121024.30471 1055.54902
v 31931.74275 -120844.40731 1047.54902
v 32001.70285 -120842.04411 1047.54902
v 32001.70285 -120842.04411 1055.54902
v 31931.74275 -120844.40731 1047.54902
v 32001.70285 -120842.04411 1055.54902
v 31931.74275 -120844.40731 1055.54902
v 32001.70285 -120842.04411 1047.54902
v 32007.77964 -121021.94151 1047.54902
v 32007.77964 -121021.94151 1055.54902
v 32001.70285 -120842.04411 1047.54902
v 32007.77964 -121021.94151 1055.54902
v 32001.70285 -120842.04411 1055.54902
v 32007.77964 -121021.94151 1047.54902
v 31937.81955 -121024.30471 1047.54902
v 31937.81955 -121024.30471 1055.54902
v 32007.77964 -121021.94151 1047.54902
v 31937.81955 -121024.30471 1055.54902
v 32007.77964 -121021.94151 1055.54902
v 32872.80960 -121402.18991 1081.35155
v 33052.79537 -121399.92677 1081.35155
v 33051.91526 -121329.93231 1081.35155
v 32872.80960 -121402.18991 1081.35155
v 33051.91526 -121329.93231 1081.35155
v 32871.92949 -121332.19544 1081.35155
v 32871.92949 -121332.19544 1089.35155
v 33051.91526 -121329.93231 1089.35155
v 33052.79537 -121399.92677 1089.35155
v 32871.92949 -121332.19544 1089.35155
v 33052.79537 -121399.92677 1089.35155
v 32872.80960 -121402.18991 1089.35155
v 32871.92949 -121332.19544 1081.35155
v 33051.91526 -121329.93231 1081.35155
v 33051.91526 -121329.93231 1089.35155
v 32871.92949 -121332.19544 1081.35155
v 33051.91526 -121329.93231 1089.35155
v 32871.92949 -121332.19544 1089.35155
v 33051.91526 -121329.93231 1081.35155
v 33052.79537 -121399.92677 1081.35155
v 33052.79537 -121399.92677 1089.35155
v 33051.91526 -121329.93231 1081.35155
v 33052.79537 -121399.92677 1089.35155
v 33051.91526 -121329.93231 1089.35155
v 33052.79537 -121399.92677 1081.35155
v 32872.80960 -121402.18991 1081.35155
v 32872.80960 -121402.18991 1089.35155
v 33052.79537 -121399.92677 1081.35155
v 32872.80960 -121402.18991 1089.35155
v 33052.79537 -121399.92677 1089.35155
v 32872.80960 -121402.18991 1081.35155
v 32871.92949 -121332.19544 1081.35155
v 32871.92949 -121332.19544 1089.35155
v 32872.80960 -121402.18991 1081.35155
v 32871.92949 -121332.19544 1089.35155
v 32872.80960 -121402.18991 1089.35155
v 33041.93703 -120761.15143 1103.21851
v 33041.34641 -120581.15240 1103.21851
v 32971.34679 -120581.38209 1103.21851
v 33041.93703 -120761.15143 1103.21851
v 32971.34679 -120581.38209 1103.21851
v 32971.93741 -120761.38112 1103.21851
v 32971.93741 -120761.38112 1111.21851
v 32971.34679 -120581.38209 1111.21851
v 33041.34641 -120581.15240 1111.21851
v 32971.93741 -120761.38112 1111.21851
v 33041.34641 -120581.15240 1111.21851
v 33041.93703 -120761.15143 1111.21851
v 32971.93741 -120761.38112 1103.21851
v 32971.34679 -120581.38209 1103.21851
v 32971.34679 -120581.38209 1111.21851
v 32971.93741 -120761.38112 1103.21851
v 32971.34679 -120581.38209 1111.21851
v 32971.93741 -120761.38112 1111.21851
v 32971.34679 -120581.38209 1103.21851
v 33041.34641 -120581.15240 1103.21851
v 33041.34641 -120581.15240 1111.21851
v 32971.34679 -120581.38209 1103.21851
v 33041.34641 -120581.15240 1111.21851
v 32971.34679 -120581.38209 1111.21851
v 33041.34641 -120581.15240 1103.21851
v 33041.93703 -120761.15143 1103.21851
v 33041.93703 -120761.15143 1111.21851
v 33041.34641 -120581.15240 1103.21851
v 33041.93703 -120761.15143 1111.21851
v 33041.34641 -120581.15240 1111.21851
v 33041.93703 -120761.15143 1103.21851
v 32971.93741 -120761.38112 1103.21851
v 32971.93741 -120761.38112 1111.21851
v 33041.93703 -120761.15143 1103.21851
v 32971.93741 -120761.38112 1111.21851
v 33041.93703 -120761.15143 1111.21851
v 28928.36975 -114699.45519 1059.69191
v 28970.71758 -114874.40279 1059.69191
v 29038.75275 -114857.93419 1059.69191
v 28928.36975 -114699.45519 1059.69191
v 29038.75275 -114857.93419 1059.69191
v 28996.40493 -114682.98659 1059.69191
v 28996.40493 -114682.98659 1067.69191
v 29038.75275 -114857.93419 1067.69191
v 28970.71758 -114874.40279 1067.69191
v 28996.40493 -114682.98659 1067.69191
v 28970.71758 -114874.40279 1067.69191
v 28928.36975 -114699.45519 1067.69191
v 28996.40493 -114682.98659 1059.69191
v 29038.75275 -114857.93419 1059.69191
v 29038.75275 -114857.93419 1067.69191
v 28996.40493 -114682.98659 1059.69191
v 29038.75275 -114857.93419 1067.69191
v 28996.40493 -114682.98659 1067.69191
v 29038.75275 -114857.93419 1059.69191
v 28970.71758 -114874.40279 1059.69191
v 28970.71758 -114874.40279 1067.69191
v 29038.75275 -114857.93419 1059.69191
v 28970.71758 -114874.40279 1067.69191
v 29038.75275 -114857.93419 1067.69191
v 28970.71758 -114874.40279 1059.69191
v 28928.36975 -114699.45519 1059.69191
v 28928.36975 -114699.45519 1067.69191
v 28970.71758 -114874.40279 1059.69191
v 28928.36975 -114699.45519 1067.69191
v 28970.71758 -114874.40279 1067.69191
v 28928.36975 -114699.45519 1059.69191
v 28996.40493 -114682.98659 1059.69191
v 28996.40493 -114682.98659 1067.69191
v 28928.36975 -114699.45519 1059.69191
v 28996.40493 -114682.98659 1067.69191
v 28928.36975 -114699.45519 1067.69191
v 31817.69177 -114522.69524 1124.77495
v 31644.39545 -114571.36131 1124.77495
v 31663.32115 -114638.75432 1124.77495
v 31817.69177 -114522.69524 1124.77495
v 31663.32115 -114638.75432 1124.77495
v 31836.61746 -114590.08825 1124.77495
v 31836.61746 -114590.08825 1132.77495
v 31663.32115 -114638.75432 1132.77495
v 31644.39545 -114571.36131 1132.77495
v 31836.61746 -114590.08825 1132.77495
v 31644.39545 -114571.36131 1132.77495
v 31817.69177 -114522.69524 1132.77495
v 31836.61746 -114590.08825 1124.77495
v 31663.32115 -114638.75432 1124.77495
v 31663.32115 -114638.75432 1132.77495
v 31836.61746 -114590.08825 1124.77495
v 31663.32115 -114638.75432 1132.77495
v 31836.61746 -114590.08825 1132.77495
v 31663.32115 -114638.75432 1124.77495
v 31644.39545 -114571.36131 1124.77495
v 31644.39545 -114571.36131 1132.77495
v 31663.32115 -114638.75432 1124.77495
v 31644.39545 -114571.36131 1132.77495
v 31663.32115 -114638.75432 1132.77495
v 31644.39545 -114571.36131 1124.77495
v 31817.69177 -114522.69524 1124.77495
v 31817.69177 -114522.69524 1132.77495
v 31644.39545 -114571.36131 1124.77495
v 31817.69177 -114522.69524 1132.77495
v 31644.39545 -114571.36131 1132.77495
v 31817.69177 -114522.69524 1124.77495
v 31836.61746 -114590.08825 1124.77495
v 31836.61746 -114590.08825 1132.77495
v 31817.69177 -114522.69524 1124.77495
v 31836.61746 -114590.08825 1132.77495
v 31817.69177 -114522.69524 1132.77495
v 27845.60492 -114827.48949 987.38322
v 27889.29226 -115002.10741 987.38322
v 27957.19923 -114985.11788 987.38322
v 27845.60492 -114827.48949 987.38322
v 27957.19923 -114985.11788 987.38322
v 27913.51189 -114810.49997 987.38322
v 27913.51189 -114810.49997 995.38322
v 27957.19923 -114985.11788 995.38322
v 27889.29226 -115002.10741 995.38322
v 27913.51189 -114810.49997 995.38322
v 27889.29226 -115002.10741 995.38322
v 27845.60492 -114827.48949 995.38322
v 27913.51189 -114810.49997 987.38322
v 27957.19923 -114985.11788 987.38322
v 27957.19923 -114985.11788 995.38322
v 27913.51189 -114810.49997 987.38322
v 27957.19923 -114985.11788 995.38322
v 27913.51189 -114810.49997 995.38322
v 27957.19923 -114985.11788 987.38322
v 27889.29226 -115002.10741 987.38322
v 27889.29226 -115002.10741 995.38322
v 27957.19923 -114985.11788 987.38322
v 27889.29226 -115002.10741 995.38322
v 27957.19923 -114985.11788 995.38322
v 27889.29226 -115002.10741 987.38322
v 27845.60492 -114827.48949 987.38322
v 27845.60492 -114827.48949 995.38322
v 27889.29226 -115002.10741 987.38322
v 27845.60492 -114827.48949 995.38322
v 27889.29226 -115002.10741 995.38322
v 27845.60492 -114827.48949 987.38322
v 27913.51189 -114810.49997 987.38322
v 27913.51189 -114810.49997 995.38322
v 27845.60492 -114827.48949 987.38322
v 27913.51189 -114810.49997 995.38322
v 27845.60492 -114827.48949 995.38322
v 32767.70092 -120496.40752 1085.66097
v 32947.70049 -120496.01743 1085.66097
v 32947.54879 -120426.01760 1085.66097
v 32767.70092 -120496.40752 1085.66097
v 32947.54879 -120426.01760 1085.66097
v 32767.54922 -120426.40768 1085.66097
v 32767.54922 -120426.40768 1093.66097
v 32947.54879 -120426.01760 1093.66097
v 32947.70049 -120496.01743 1093.66097
v 32767.54922 -120426.40768 1093.66097
v 32947.70049 -120496.01743 1093.66097
v 32767.70092 -120496.40752 1093.66097
v 32767.54922 -120426.40768 1085.66097
v 32947.54879 -120426.01760 1085.66097
v 32947.54879 -120426.01760 1093.66097
v 32767.54922 -120426.40768 1085.66097
v 32947.54879 -120426.01760 1093.66097
v 32767.54922 -120426.40768 1093.66097
v 32947.54879 -120426.01760 1085.66097
v 32947.70049 -120496.01743 1085.66097
v 32947.70049 -120496.01743 1093.66097
v 32947.54879 -120426.01760 1085.66097
v 32947.70049 -120496.01743 1093.66097
v 32947.54879 -120426.01760 1093.66097
v 32947.70049 -120496.01743 1085.66097
v 32767.70092 -120496.40752 1085.66097
v 32767.70092 -120496.40752 1093.66097
v 32947.70049 -120496.01743 1085.66097
v 32767.70092 -120496.40752 1093.66097
v 32947.70049 -120496.01743 1093.66097
v 32767.70092 -120496.40752 1085.66097
v 32767.54922 -120426.40768 1085.66097
v 32767.54922 -120426.40768 1093.66097
v 32767.70092 -120496.40752 1085.66097
v 32767.54922 -120426.40768 1093.66097
v 32767.70092 -120496.40752 1093.66097
v 33475.93526 -120620.00011 1116.99787
v 33475.34043 -120440.00109 1116.99787
v 33405.34081 -120440.23242 1116.99787
v 33475.93526 -120620.00011 1116.99787
v 33405.34081 -120440.23242 1116.99787
v 33405.93565 -120620.23143 1116.99787
v 33405.93565 -120620.23143 1124.99787
v 33405.34081 -120440.23242 1124.99787
v 33475.34043 -120440.00109 1124.99787
v 33405.93565 -120620.23143 1124.99787
v 33475.34043 -120440.00109 1124.99787
v 33475.93526 -120620.00011 1124.99787
v 33405.93565 -120620.23143 1116.99787
v 33405.34081 -120440.23242 1116.99787
v 33405.34081 -120440.23242 1124.99787
v 33405.93565 -120620.23143 1116.99787
v 33405.34081 -120440.23242 1124.99787
v 33405.93565 -120620.23143 1124.99787
v 33405.34081 -120440.23242 1116.99787
v 33475.34043 -120440.00109 1116.99787
v 33475.34043 -120440.00109 1124.99787
v 33405.34081 -120440.23242 1116.99787
v 33475.34043 -120440.00109 1124.99787
v 33405.34081 -120440.23242 1124.99787
v 33475.34043 -120440.00109 1116.99787
v 33475.93526 -120620.00011 1116.99787
v 33475.93526 -120620.00011 1124.99787
v 33475.34043 -120440.00109 1116.99787
v 33475.93526 -120620.00011 1124.99787
v 33475.34043 -120440.00109 1124.99787
v 33475.93526 -120620.00011 1116.99787
v 33405.93565 -120620.23143 1116.99787
v 33405.93565 -120620.23143 1124.99787
v 33475.93526 -120620.00011 1116.99787
v 33405.93565 -120620.23143 1124.99787
v 33475.93526 -120620.00011 1124.99787
vt 160.03890 5.23775
vt 160.00851 5.23775
vt 159.65871 5.23775
vt 160.03890 5.23775
vt 159.65871 5.23775
vt 159.68910 5.23775
vt 159.68910 5.27775
vt 159.65871 5.27775
vt 160.00851 5.27775
vt 159.68910 5.27775
vt 160.00851 5.27775
vt 160.03890 5.27775
vt 159.68910 5.23775
vt 159.65871 5.23775
vt 159.65871 5.27775
vt 159.68910 5.23775
vt 159.65871 5.27775
vt 159.68910 5.27775
vt 159.65871 5.23775
vt 160.00851 5.23775
vt 160.00851 5.27775
vt 159.65871 5.23775
vt 160.00851 5.27775
vt 159.65871 5.27775
vt 160.00851 5.23775
vt 160.03890 5.23775
vt 160.03890 5.27775
vt 160.00851 5.23775
vt 160.03890 5.27775
vt 160.00851 5.27775
vt 160.03890 5.23775
vt 159.68910 5.23775
vt 159.68910 5.27775
vt 160.03890 5.23775
vt 159.68910 5.27775
vt 160.03890 5.27775
vt 164.36405 5.40676
vt 165.26398 5.40676
vt 165.25958 5.40676
vt 164.36405 5.40676
vt 165.25958 5.40676
vt 164.35965 5.40676
vt 164.35965 5.44676
vt 165.25958 5.44676
vt 165.26398 5.44676
vt 164.35965 5.44676
vt 165.26398 5.44676
vt 164.36405 5.44676
vt 164.35965 5.40676
vt 165.25958 5.40676
vt 165.25958 5.44676
vt 164.35965 5.40676
vt 165.25958 5.44676
vt 164.35965 5.44676
vt 165.25958 5.40676
vt 165.26398 5.40676
vt 165.26398 5.44676
vt 165.25958 5.40676
vt 165.26398 5.44676
vt 165.25958 5.44676
vt 165.26398 5.40676
vt 164.36405 5.40676
vt 164.36405 5.44676
vt 165.26398 5.40676
vt 164.36405 5.44676
vt 165.26398 5.44676
vt 164.36405 5.40676
vt 164.35965 5.40676
vt 164.35965 5.44676
vt 164.36405 5.40676
vt 164.35965 5.44676
vt 164.36405 5.44676
vt 165.20969 5.51609
vt 165.20673 5.51609
vt 164.85673 5.51609
vt 165.20969 5.51609
vt 164.85673 5.51609
vt 164.85969 5.51609
vt 164.85969 5.55609
vt 164.85673 5.55609
vt 165.20673 5.55609
vt 164.85969 5.55609
vt 165.20673 5.55609
vt 165.20969 5.55609
vt 164.85969 5.51609
vt 164.85673 5.51609
vt 164.85673 5.55609
vt 164.85969 5.51609
vt 164.85673 5.55609
vt 164.85969 5.55609
vt 164.85673 5.51609
vt 165.20673 5.51609
vt 165.20673 5.55609
vt 164.85673 5.51609
vt 165.20673 5.55609
vt 164.85673 5.55609
vt 165.20673 5.51609
vt 165.20969 5.51609
vt 165.20969 5.55609
vt 165.20673 5.51609
vt 165.20969 5.55609
vt 165.20673 5.55609
vt 165.20969 5.51609
vt 164.85969 5.51609
vt 164.85969 5.55609
vt 165.20969 5.51609
vt 164.85969 5.55609
vt 165.20969 5.55609
vt 144.64185 5.29846
vt 144.85359 5.29846
vt 145.19376 5.29846
vt 144.64185 5.29846
vt 145.19376 5.29846
vt 144.98202 5.29846
vt 144.98202 5.33846
vt 145.19376 5.33846
vt 144.85359 5.33846
vt 144.98202 5.33846
vt 144.85359 5.33846
vt 144.64185 5.33846
vt 144.98202 5.29846
vt 145.19376 5.29846
vt 145.19376 5.33846
vt 144.98202 5.29846
vt 145.19376 5.33846
vt 144.98202 5.33846
vt 145.19376 5.29846
vt 144.85359 5.29846
vt 144.85359 5.33846
vt 145.19376 5.29846
vt 144.85359 5.33846
vt 145.19376 5.33846
vt 144.85359 5.29846
vt 144.64185 5.29846
vt 144.64185 5.33846
vt 144.85359 5.29846
vt 144.64185 5.33846
vt 144.85359 5.33846
vt 144.64185 5.29846
vt 144.98202 5.29846
vt 144.98202 5.33846
vt 144.64185 5.29846
vt 144.98202 5.33846
vt 144.64185 5.33846
vt 159.08846 5.62387
vt 158.22198 5.62387
vt 158.31661 5.62387
vt 159.08846 5.62387
vt 158.31661 5.62387
vt 159.18309 5.62387
vt 159.18309 5.66387
vt 158.31661 5.66387
vt 158.22198 5.66387
vt 159.18309 5.66387
vt 158.22198 5.66387
vt 159.08846 5.66387
vt 159.18309 5.62387
vt 158.31661 5.62387
vt 158.31661 5.66387
vt 159.18309 5.62387
vt 158.31661 5.66387
vt 159.18309 5.66387
vt 158.31661 5.62387
vt 158.22198 5.62387
vt 158.22198 5.66387
vt 158.31661 5.62387
vt 158.22198 5.66387
vt 158.31661 5.66387
vt 158.22198 5.62387
vt 159.08846 5.62387
vt 159.08846 5.66387
vt 158.22198 5.62387
vt 159.08846 5.66387
vt 158.22198 5.66387
vt 159.08846 5.62387
vt 159.18309 5.62387
vt 159.18309 5.66387
vt 159.08846 5.62387
vt 159.18309 5.66387
vt 159.08846 5.66387
vt 139.22802 4.93692
vt 139.44646 4.93692
vt 139.78600 4.93692
vt 139.22802 4.93692
vt 139.78600 4.93692
vt 139.56756 4.93692
vt 139.56756 4.97692
vt 139.78600 4.97692
vt 139.44646 4.97692
vt 139.56756 4.97692
vt 139.44646 4.97692
vt 139.22802 4.97692
vt 139.56756 4.93692
vt 139.78600 4.93692
vt 139.78600 4.97692
vt 139.56756 4.93692
vt 139.78600 4.97692
vt 139.56756 4.97692
vt 139.78600 4.93692
vt 139.44646 4.93692
vt 139.44646 4.97692
vt 139.78600 4.93692
vt 139.44646 4.97692
vt 139.78600 4.97692
vt 139.44646 4.93692
vt 139.22802 4.93692
vt 139.22802 4.97692
vt 139.44646 4.93692
vt 139.22802 4.97692
vt 139.44646 4.97692
vt 139.22802 4.93692
vt 139.56756 4.93692
vt 139.56756 4.97692
vt 139.22802 4.93692
vt 139.56756 4.97692
vt 139.22802 4.97692
vt 163.83850 5.42830
vt 164.73850 5.42830
vt 164.73774 5.42830
vt 163.83850 5.42830
vt 164.73774 5.42830
vt 163.83775 5.42830
vt 163.83775 5.46830
vt 164.73774 5.46830
vt 164.73850 5.46830
vt 163.83775 5.46830
vt 164.73850 5.46830
vt 163.83850 5.46830
vt 163.83775 5.42830
vt 164.73774 5.42830
vt 164.73774 5.46830
vt 163.83775 5.42830
vt 164.73774 5.46830
vt 163.83775 5.46830
vt 164.73774 5.42830
vt 164.73850 5.42830
vt 164.73850 5.46830
vt 164.73774 5.42830
vt 164.73850 5.46830
vt 164.73774 5.46830
vt 164.73850 5.42830
vt 163.83850 5.42830
vt 163.83850 5.46830
vt 164.73850 5.42830
vt 163.83850 5.46830
vt 164.73850 5.46830
vt 163.83850 5.42830
vt 163.83775 5.42830
vt 163.83775 5.46830
vt 163.83850 5.42830
vt 163.83775 5.46830
vt 163.83850 5.46830
vt 167.37968 5.58499
vt 167.37670 5.58499
vt 167.02670 5.58499
vt 167.37968 5.58499
vt 167.02670 5.58499
vt 167.02968 5.58499
vt 167.02968 5.62499
vt 167.02670 5.62499
vt 167.37670 5.62499
vt 167.02968 5.62499
vt 167.37670 5.62499
vt 167.37968 5.62499
vt 167.02968 5.58499
vt 167.02670 5.58499
vt 167.02670 5.62499
vt 167.02968 5.58499
vt 167.02670 5.62499
vt 167.02968 5.62499
vt 167.02670 5.58499
vt 167.37670 5.58499
vt 167.37670 5.62499
vt 167.02670 5.58499
vt 167.37670 5.62499
vt 167.02670 5.62499
vt 167.37670 5.58499
vt 167.37968 5.58499
vt 167.37968 5.62499
vt 167.37670 5.58499
vt 167.37968 5.62499
vt 167.37670 5.62499
vt 167.37968 5.58499
vt 167.02968 5.58499
vt 167.02968 5.62499
vt 167.37968 5.58499
vt 167.02968 5.62499
vt 167.37968 5.62499
f 3/3 2/2 1/1
f 6/6 5/5 4/4
f 9/9 8/8 7/7
f 12/12 11/11 10/10
f 15/15 14/14 13/13
f 18/18 17/17 16/16
f 21/21 20/20 19/19
f 24/24 23/23 22/22
f 27/27 26/26 25/25
f 30/30 29/29 28/28
f 33/33 32/32 31/31
f 36/36 35/35 34/34
f 39/39 38/38 37/37
f 42/42 41/41 40/40
f 45/45 44/44 43/43
f 48/48 47/47 46/46
f 51/51 50/50 49/49
f 54/54 53/53 52/52
f 57/57 56/56 55/55
f 60/60 59/59 58/58
f 63/63 62/62 61/61
f 66/66 65/65 64/64
f 69/69 68/68 67/67
f 72/72 71/71 70/70
f 75/75 74/74 73/73
f 78/78 77/77 76/76
f 81/81 80/80 79/79
f 84/84 83/83 82/82
f 87/87 86/86 85/85
f 90/90 89/89 88/88
f 93/93 92/92 91/91
f 96/96 95/95 94/94
f 99/99 98/98 97/97
f 102/102 101/101 100/100
f 105/105 104/104 103/103
f 108/108 107/107 106/106
f 111/111 110/110 109/109
f 114/114 113/113 112/112
f 117/117 116/116 115/115
f 120/120 119/119 118/118
f 123/123 122/122 121/121
f 126/126 125/125 124/124
f 129/129 128/128 127/127
f 132/132 131/131 130/130
f 135/135 134/134 133/133
f 138/138 137/137 136/136
f 141/141 140/140 139/139
f 144/144 143/143 142/142
f 147/147 146/146 145/145
f 150/150 149/149 148/148
f 153/153 152/152 151/151
f 156/156 155/155 154/154
f 159/159 158/158 157/157
f 162/162 161/161 160/160
f 165/165 164/164 163/163
f 168/168 167/167 166/166
f 171/171 170/170 169/169
f 174/174 173/173 172/172
f 177/177 176/176 175/175
f 180/180 179/179 178/178
f 183/183 182/182 181/181
f 186/186 185/185 184/184
f 189/189 188/188 187/187
f 192/192 191/191 190/190
f 195/195 194/194 193/193
f 198/198 197/197 196/196
f 201/201 200/200 199/199
f 204/204 203/203 202/202
f 207/207 206/206 205/205
f 210/210 209/209 208/208
f 213/213 212/212 211/211
f 216/216 215/215 214/214
f 219/219 218/218 217/217
f 222/222 221/221 220/220
f 225/225 224/224 223/223
f 228/228 227/227 226/226
f 231/231 230/230 229/229
f 234/234 233/233 232/232
f 237/237 236/236 235/235
f 240/240 239/239 238/238
f 243/243 242/242 241/241
f 246/246 245/245 244/244
f 249/249 248/248 247/247
f 252/252 251/251 250/250
f 255/255 254/254 253/253
f 258/258 257/257 256/256
f 261/261 260/260 259/259
f 264/264 263/263 262/262
f 267/267 266/266 265/265
f 270/270 269/269 268/268
f 273/273 272/272 271/271
f 276/276 275/275 274/274
f 279/279 278/278 277/277
f 282/282 281/281 280/280
f 285/285 284/284 283/283
f 288/288 287/287 286/286
