o TenthStreet_RoadSeams
v -30570.54997 -12783.43380 312.63159
v -30560.00000 -12781.72696 312.29955
v -30560.00000 -12781.74636 312.30039
v -30544.01870 -12779.16520 311.75249
v -30560.00000 -12781.72696 312.29955
v -30531.07299 -12777.04698 311.30749
v -30560.00000 -12781.72696 312.29955
v -30550.80100 -12780.27500 311.98563
v -30560.00000 -12781.74636 312.30039
v -30550.80100 -12780.27500 311.98563
v -30560.00000 -12781.72696 312.29955
v -30544.01870 -12779.16520 311.75249
v -30550.80100 -12780.27500 311.98563
v -30547.57348 -12800.00000 312.74494
v -30547.64604 -12800.00000 312.74692
v -30544.46500 -12819.88800 313.51450
v -30547.64604 -12800.00000 312.74692
v -30547.57348 -12800.00000 312.74494
v -30534.48346 -12880.00000 315.82451
v -30534.85024 -12880.00000 315.83453
v -30536.25710 -12871.20430 315.49506
v -30536.25710 -12871.20430 315.49506
v -30538.99250 -12852.44280 314.76370
v -30534.48346 -12880.00000 315.82451
v -30547.57348 -12800.00000 312.74494
v -30538.99250 -12852.44280 314.76370
v -30544.46500 -12819.88800 313.51450
v -30536.25710 -12871.20430 315.49506
v -30544.46500 -12819.88800 313.51450
v -30538.99250 -12852.44280 314.76370
v -30531.82980 -12898.88390 316.61164
v -30534.85024 -12880.00000 315.83453
v -30534.48346 -12880.00000 315.82451
v -30526.07430 -12931.39290 317.87361
v -30521.39347 -12960.00000 318.99312
v -30522.05443 -12960.00000 319.00861
v -30534.48346 -12880.00000 315.82451
v -30526.07430 -12931.39290 317.87361
v -30531.82980 -12898.88390 316.61164
v -30522.05443 -12960.00000 319.00861
v -30531.82980 -12898.88390 316.61164
v -30526.07430 -12931.39290 317.87361
v -30519.19460 -12977.87980 319.76135
v -30522.05443 -12960.00000 319.00861
v -30521.39347 -12960.00000 318.99312
v -30513.15610 -13010.34300 321.10243
v -30509.25863 -13040.00000 322.27018
v -30517.56690 -12988.05640 320.20023
v -30509.25863 -13040.00000 322.27018
v -30513.15610 -13010.34300 321.10243
v -30508.30348 -13040.00000 322.24406
v -30517.56690 -12988.05640 320.20023
v -30519.19460 -12977.87980 319.76135
v -30521.39347 -12960.00000 318.99312
v -30521.39347 -12960.00000 318.99312
v -30513.15610 -13010.34300 321.10243
v -30517.56690 -12988.05640 320.20023
v -30506.57270 -13050.57770 322.65125
v -30509.25863 -13040.00000 322.27018
v -30508.30348 -13040.00000 322.24406
v -30500.23780 -13089.29310 324.14158
v -30496.46284 -13120.00000 325.35780
v -30502.44680 -13082.58820 323.91388
v -30496.46284 -13120.00000 325.35780
v -30500.23780 -13089.29310 324.14158
v -30495.21339 -13120.00000 325.32363
v -30506.55940 -13056.87570 322.92150
v -30509.25863 -13040.00000 322.27018
v -30506.57270 -13050.57770 322.65125
v -30506.57270 -13050.57770 322.65125
v -30500.23780 -13089.29310 324.14158
v -30502.44680 -13082.58820 323.91388
v -30502.44680 -13082.58820 323.91388
v -30506.55940 -13056.87570 322.92150
v -30506.57270 -13050.57770 322.65125
v -30493.92420 -13135.87160 325.97036
v -30496.46284 -13120.00000 325.35780
v -30495.21339 -13120.00000 325.32363
v -30487.31960 -13168.24320 327.18074
v -30482.12338 -13200.00000 328.52313
v -30483.66702 -13200.00000 328.55931
v -30495.21339 -13120.00000 325.32363
v -30487.31960 -13168.24320 327.18074
v -30493.92420 -13135.87160 325.97036
v -30483.66702 -13200.00000 328.55931
v -30493.92420 -13135.87160 325.97036
v -30487.31960 -13168.24320 327.18074
v -30480.00000 -13212.97712 329.08166
v -30481.28900 -13214.86750 329.20049
v -30483.66702 -13200.00000 328.55931
v -30481.28900 -13214.86750 329.20049
v -30480.00000 -13212.97712 329.08166
v -30480.00000 -13222.92645 329.54804
v -30483.66702 -13200.00000 328.55931
v -30482.12338 -13200.00000 328.52313
v -30480.00000 -13212.97712 329.08166
v -30480.00000 -13222.92645 329.54804
v -30480.00000 -13212.97712 329.08166
v -30474.81120 -13244.68860 330.38389
v -30474.40140 -13247.19330 330.48031
v -30471.11370 -13278.48440 331.73495
v -30480.00000 -13222.92645 329.54804
v -30471.11370 -13278.48440 331.73495
v -30469.03341 -13280.00000 331.74319
v -30470.87128 -13280.00000 331.79344
v -30480.00000 -13222.92645 329.54804
v -30474.81120 -13244.68860 330.38389
v -30474.40140 -13247.19330 330.48031
v -30471.11370 -13278.48440 331.73495
v -30474.40140 -13247.19330 330.48031
v -30469.03341 -13280.00000 331.74319
v -30468.65380 -13293.86340 332.34687
v -30470.87128 -13280.00000 331.79344
v -30469.03341 -13280.00000 331.74319
v -30461.48320 -13326.14340 333.58211
v -30455.94338 -13360.00000 334.90705
v -30458.07541 -13360.00000 334.95702
v -30469.03341 -13280.00000 331.74319
v -30461.48320 -13326.14340 333.58211
v -30468.65380 -13293.86340 332.34687
v -30458.07541 -13360.00000 334.95702
v -30468.65380 -13293.86340 332.34687
v -30461.48320 -13326.14340 333.58211
v -30456.01860 -13372.85930 335.49324
v -30458.07541 -13360.00000 334.95702
v -30455.94338 -13360.00000 334.90705
v -30442.85334 -13440.00000 338.29817
v -30445.27962 -13440.00000 338.35503
v -30450.37880 -13408.11990 337.01390
v -30450.37880 -13408.11990 337.01390
v -30448.56490 -13405.09350 336.82953
v -30442.85334 -13440.00000 338.29817
v -30455.94338 -13360.00000 334.90705
v -30448.56490 -13405.09350 336.82953
v -30456.01860 -13372.85930 335.49324
v -30450.37880 -13408.11990 337.01390
v -30456.01860 -13372.85930 335.49324
v -30448.56490 -13405.09350 336.82953
v -30441.98150 -13445.32830 338.50668
v -30445.27962 -13440.00000 338.35503
v -30442.85334 -13440.00000 338.29817
v -30435.64670 -13484.04360 340.02176
v -30429.76334 -13520.00000 341.51469
v -30432.48381 -13520.00000 341.57845
v -30443.38340 -13451.85520 338.81999
v -30441.98150 -13445.32830 338.50668
v -30435.64670 -13484.04360 340.02176
v -30441.98150 -13445.32830 338.50668
v -30443.38340 -13451.85520 338.81999
v -30445.27962 -13440.00000 338.35503
v -30432.48381 -13520.00000 341.57845
v -30443.38340 -13451.85520 338.81999
v -30435.64670 -13484.04360 340.02176
v -30430.74820 -13530.85110 342.04642
v -30432.48381 -13520.00000 341.57845
v -30429.76334 -13520.00000 341.51469
v -30416.67334 -13600.00000 344.81999
v -30419.68801 -13600.00000 344.89065
v -30424.66040 -13568.91240 343.67139
v -30424.66040 -13568.91240 343.67139
v -30422.72850 -13562.99370 343.36514
v -30416.67334 -13600.00000 344.81999
v -30429.76334 -13520.00000 341.51469
v -30422.72850 -13562.99370 343.36514
v -30430.74820 -13530.85110 342.04642
v -30424.66040 -13568.91240 343.67139
v -30430.74820 -13530.85110 342.04642
v -30422.72850 -13562.99370 343.36514
v -30418.11300 -13609.84700 345.27684
v -30419.68801 -13600.00000 344.89065
v -30416.67334 -13600.00000 344.81999
v -30409.81020 -13641.94380 346.50274
v -30403.58326 -13680.00000 348.14068
v -30406.89220 -13680.00000 348.21823
v -30418.11300 -13609.84700 345.27684
v -30410.22010 -13639.43920 346.39494
v -30409.81020 -13641.94380 346.50274
v -30416.67334 -13600.00000 344.81999
v -30410.22010 -13639.43920 346.39494
v -30418.11300 -13609.84700 345.27684
v -30409.81020 -13641.94380 346.50274
v -30406.89220 -13680.00000 348.21823
v -30418.11300 -13609.84700 345.27684
v -30403.58326 -13680.00000 348.14068
v -30405.47780 -13688.84290 348.59959
v -30406.89220 -13680.00000 348.21823
v -30405.47780 -13688.84290 348.59959
v -30400.00000 -13701.89923 349.08322
v -30400.00000 -13723.09065 350.07657
v -30400.00000 -13701.89923 349.08322
v -30405.47780 -13688.84290 348.59959
v -30403.58326 -13680.00000 348.14068
v -30396.89200 -13720.89390 349.90075
v -30400.00000 -13723.09065 350.07657
v -30400.00000 -13701.89923 349.08322
v -30390.49328 -13760.00000 351.58388
v -30394.09649 -13760.00000 351.66833
v -30398.31080 -13733.65170 350.53203
v -30398.31080 -13733.65170 350.53203
v -30396.89200 -13720.89390 349.90075
v -30390.49328 -13760.00000 351.58388
v -30398.31080 -13733.65170 350.53203
v -30400.00000 -13723.09065 350.07657
v -30396.89200 -13720.89390 349.90075
v -30392.84270 -13767.83880 352.00639
v -30394.09649 -13760.00000 351.66833
v -30390.49328 -13760.00000 351.58388
v -30383.97380 -13799.84410 353.29877
v -30381.30069 -13840.00000 355.08469
v -30392.84270 -13767.83880 352.00639
v -30381.30069 -13840.00000 355.08469
v -30383.97380 -13799.84410 353.29877
v -30377.40329 -13840.00000 354.99335
v -30390.49328 -13760.00000 351.58388
v -30383.97380 -13799.84410 353.29877
v -30392.84270 -13767.83880 352.00639
v -30381.30069 -13840.00000 355.08469
v -30377.40329 -13840.00000 354.99335
v -30377.39040 -13840.07880 354.99643
v -30377.39040 -13840.07880 354.99643
v -30380.20750 -13846.83470 355.35275
v -30381.30069 -13840.00000 355.08469
v -30371.05560 -13878.79420 356.59184
v -30364.31325 -13920.00000 358.39167
v -30368.50488 -13920.00000 358.47354
v -30378.20720 -13859.34030 355.84322
v -30380.20750 -13846.83470 355.35275
v -30377.39040 -13840.07880 354.99643
v -30368.50488 -13920.00000 358.47354
v -30378.20720 -13859.34030 355.84322
v -30371.05560 -13878.79420 356.59184
v -30377.39040 -13840.07880 354.99643
v -30371.05560 -13878.79420 356.59184
v -30378.20720 -13859.34030 355.84322
v -30367.57230 -13925.83060 358.72864
v -30368.50488 -13920.00000 358.47354
v -30364.31325 -13920.00000 358.39167
v -30358.13730 -13957.74430 360.04031
v -30357.02760 -13964.52660 360.33656
v -30361.27310 -13965.21350 360.45168
v -30361.27310 -13965.21350 360.45168
v -30376.76510 -13967.75616 360.87344
v -30381.02000 -13968.37197 360.98541
v -30341.52409 -13962.05466 359.91788
v -30357.02760 -13964.52660 360.33656
v -30337.29005 -13961.29703 359.79967
v -30364.31325 -13920.00000 358.39167
v -30358.13730 -13957.74430 360.04031
v -30367.57230 -13925.83060 358.72864
v -30361.27310 -13965.21350 360.45168
v -30357.02760 -13964.52660 360.33656
v -30341.52409 -13962.05466 359.91788
v -30361.27310 -13965.21350 360.45168
v -30367.57230 -13925.83060 358.72864
v -30358.13730 -13957.74430 360.04031
v -30341.52409 -13962.05466 359.91788
v -30376.76510 -13967.75616 360.87344
v -30361.27310 -13965.21350 360.45168
v -21040.64900 -12387.81100 301.21142
v -21040.00000 -12387.73636 301.22879
v -21040.00000 -12387.79082 301.23091
v -21040.00000 -12387.73636 301.22879
v -21040.64900 -12387.81100 301.21142
v -21060.64235 -12388.31981 300.60650
v -21040.27016 -12400.00000 301.67639
v -21040.57710 -12390.63500 301.32398
v -21040.64900 -12387.81100 301.21142
v -21040.57710 -12390.63500 301.32398
v -21040.27016 -12400.00000 301.67639
v -21040.33878 -12400.00000 301.67452
v -21040.33878 -12400.00000 301.67452
v -21040.27016 -12400.00000 301.67639
v -21040.00000 -12408.69204 301.98936
v -21040.00000 -12408.69204 301.98936
v -21040.00000 -12413.31240 302.15179
v -21040.33878 -12400.00000 301.67452
v -21051.88898 -12732.28233 315.10451
v -21040.15230 -12734.14920 315.55880
v -21051.88898 -12732.28236 315.10452
v -21038.61990 -12387.74790 301.27237
v -21040.00000 -12387.73636 301.22879
v -21020.66775 -12387.18994 301.76204
v -21040.00000 -12387.73636 301.22879
v -21038.61990 -12387.74790 301.27237
v -21040.00000 -12387.79082 301.23091
v -21038.54190 -12470.60910 304.35931
v -21037.78368 -12480.00000 304.74687
v -21038.30291 -12480.00000 304.73267
v -21038.22680 -12465.74330 304.17785
v -21040.00000 -12413.31240 302.15179
v -21040.00000 -12408.69204 301.98936
v -21038.22680 -12465.74330 304.17785
v -21037.78368 -12480.00000 304.74687
v -21038.54190 -12470.60910 304.35931
v -21038.54190 -12470.60910 304.35931
v -21040.00000 -12413.31240 302.15179
v -21038.22680 -12465.74330 304.17785
v -21036.50660 -12550.58320 307.64403
v -21035.29717 -12560.00000 308.08645
v -21036.26695 -12560.00000 308.05615
v -21035.74150 -12545.70470 307.45832
v -21038.30291 -12480.00000 304.73267
v -21037.78368 -12480.00000 304.74687
v -21035.74150 -12545.70470 307.45832
v -21035.29717 -12560.00000 308.08645
v -21036.50660 -12550.58320 307.64403
v -21036.50660 -12550.58320 307.64403
v -21038.30291 -12480.00000 304.73267
v -21035.74150 -12545.70470 307.45832
v -21035.94100 -12572.80766 308.61666
v -21036.26695 -12560.00000 308.05615
v -21035.29717 -12560.00000 308.08645
v -21035.29717 -12560.00000 308.08645
v -21034.89390 -12572.97420 308.65654
v -21035.94100 -12572.80766 308.61666
v -21029.75540 -12738.30040 316.07829
v -21031.74960 -12737.50417 315.97864
v -21010.28072 -12746.07597 317.05135
v -21030.39720 -12790.64450 318.61322
v -21027.83773 -12800.00000 319.16829
v -21030.15912 -12800.00000 319.09574
v -21029.03510 -12761.47700 317.18720
v -21031.74960 -12737.50417 315.97864
v -21029.75540 -12738.30040 316.07829
v -21029.03510 -12761.47700 317.18720
v -21027.83773 -12800.00000 319.16829
v -21030.39720 -12790.64450 318.61322
v -21030.39720 -12790.64450 318.61322
v -21031.74960 -12737.50417 315.97864
v -21029.03510 -12761.47700 317.18720
v -21030.15912 -12800.00000 319.09574
v -21027.83773 -12800.00000 319.16829
v -21027.51020 -12810.53770 319.71364
v -21026.54980 -12841.43840 321.27347
v -21028.36200 -12870.61860 322.58466
v -21030.15912 -12800.00000 319.09574
v -21028.36200 -12870.61860 322.58466
v -21025.35126 -12880.00000 323.11850
v -21028.12325 -12880.00000 323.03188
v -21030.15912 -12800.00000 319.09574
v -21027.51020 -12810.53770 319.71364
v -21026.54980 -12841.43840 321.27347
v -21028.36200 -12870.61860 322.58466
v -21026.54980 -12841.43840 321.27347
v -21025.35126 -12880.00000 323.11850
v -21024.06450 -12921.39980 325.19062
v -21028.12325 -12880.00000 323.03188
v -21025.35126 -12880.00000 323.11850
v -21026.32670 -12950.59270 326.60237
v -21022.86475 -12960.00000 327.18827
v -21026.08729 -12960.00000 327.08757
v -21026.32670 -12950.59270 326.60237
v -21028.12325 -12880.00000 323.03188
v -21024.06450 -12921.39980 325.19062
v -21024.06450 -12921.39980 325.19062
v -21022.86475 -12960.00000 327.18827
v -21026.32670 -12950.59270 326.60237
v -21026.08729 -12960.00000 327.08757
v -21022.86475 -12960.00000 327.18827
v -21022.62730 -12967.63960 327.58364
v -21021.57920 -13001.36120 329.43015
v -21024.29140 -13030.56690 330.93199
v -21026.08729 -12960.00000 327.08757
v -21024.29140 -13030.56690 330.93199
v -21020.37826 -13040.00000 331.58543
v -21024.05134 -13040.00000 331.45630
v -21026.08729 -12960.00000 327.08757
v -21022.62730 -12967.63960 327.58364
v -21021.57920 -13001.36120 329.43015
v -21024.29140 -13030.56690 330.93199
v -21021.57920 -13001.36120 329.43015
v -21020.37826 -13040.00000 331.58543
v -21022.25620 -13110.54100 335.11670
v -21018.97450 -13085.16550 333.92632
v -21017.89178 -13120.00000 335.78743
v -21024.05134 -13040.00000 331.45630
v -21020.37826 -13040.00000 331.58543
v -21019.09390 -13081.32260 333.72744
v -21019.09390 -13081.32260 333.72744
v -21022.25620 -13110.54100 335.11670
v -21024.05134 -13040.00000 331.45630
v -21017.89178 -13120.00000 335.78743
v -21022.01548 -13120.00000 335.64246
v -21022.25620 -13110.54100 335.11670
v -21019.09390 -13081.32260 333.72744
v -21018.97450 -13085.16550 333.92632
v -21022.25620 -13110.54100 335.11670
v -21015.60750 -13193.49450 339.88697
v -21015.40529 -13200.00000 340.24984
v -21019.97951 -13200.00000 340.08903
v -21021.17760 -13152.92330 337.47241
v -21017.89178 -13120.00000 335.78743
v -21016.60860 -13161.28390 338.09025
v -21017.89178 -13120.00000 335.78743
v -21021.17760 -13152.92330 337.47241
v -21022.01548 -13120.00000 335.64246
v -21019.97951 -13200.00000 340.08903
v -21020.22090 -13190.51510 339.56184
v -21015.60750 -13193.49450 339.88697
v -21020.22090 -13190.51510 339.56184
v -21021.17760 -13152.92330 337.47241
v -21016.60860 -13161.28390 338.09025
v -21016.60860 -13161.28390 338.09025
v -21015.60750 -13193.49450 339.88697
v -21020.22090 -13190.51510 339.56184
v -21018.18560 -13270.48920 344.00698
v -21012.91880 -13280.00000 344.71226
v -21017.94355 -13280.00000 344.53561
v -21019.97951 -13200.00000 340.08903
v -21015.40529 -13200.00000 340.24984
v -21014.12330 -13241.24530 342.55052
v -21014.12330 -13241.24530 342.55052
v -21018.18560 -13270.48920 344.00698
v -21019.97951 -13200.00000 340.08903
v -21014.12330 -13241.24530 342.55052
v -21012.91880 -13280.00000 344.71226
v -21018.18560 -13270.48920 344.00698
v -21010.48820 -13358.20290 349.07443
v -21010.43234 -13360.00000 349.17467
v -21015.90761 -13360.00000 348.98219
v -21016.15030 -13350.46330 348.45211
v -21017.94355 -13280.00000 344.53561
v -21011.63810 -13321.20670 347.01078
v -21011.63810 -13321.20670 347.01078
v -21017.94355 -13280.00000 344.53561
v -21012.91880 -13280.00000 344.71226
v -21015.90761 -13360.00000 348.98219
v -21016.15030 -13350.46330 348.45211
v -21010.48820 -13358.20290 349.07443
v -21011.63810 -13321.20670 347.01078
v -21010.48820 -13358.20290 349.07443
v -21016.15030 -13350.46330 348.45211
v -21014.11510 -13430.43740 352.89725
v -21007.94586 -13440.00000 353.68219
v -21013.87174 -13440.00000 353.45071
v -21009.15280 -13401.16810 351.47104
v -21015.90761 -13360.00000 348.98219
v -21010.43234 -13360.00000 349.17467
v -21009.15280 -13401.16810 351.47104
v -21007.94586 -13440.00000 353.68219
v -21014.11510 -13430.43740 352.89725
v -21014.11510 -13430.43740 352.89725
v -21015.90761 -13360.00000 348.98219
v -21009.15280 -13401.16810 351.47104
v -21012.07980 -13510.41150 357.59802
v -21005.45933 -13520.00000 358.35992
v -21011.83578 -13520.00000 358.13192
v -21006.66750 -13481.12950 356.14206
v -21013.87174 -13440.00000 353.45071
v -21007.94586 -13440.00000 353.68219
v -21005.45933 -13520.00000 358.35992
v -21012.07980 -13510.41150 357.59802
v -21012.10680 -13509.35120 357.53898
v -21012.10680 -13509.35120 357.53898
v -21006.66750 -13481.12950 356.14206
v -21005.45933 -13520.00000 358.35992
v -21012.10680 -13509.35120 357.53898
v -21013.87174 -13440.00000 353.45071
v -21006.66750 -13481.12950 356.14206
v -21023.36005 -13587.85312 361.39247
v -21030.11296 -13587.93141 361.13297
v -21013.08290 -13587.49800 361.77450
v -20990.12642 -13586.91378 362.55832
v -21003.36970 -13587.23180 362.11013
v -20983.37939 -13586.61048 362.77893
v -21011.83578 -13520.00000 358.13192
v -21005.45933 -13520.00000 358.35992
v -21005.10480 -13531.40620 358.99616
v -21004.18220 -13561.09090 360.65198
v -21010.11990 -13587.42260 361.88325
v -21011.83578 -13520.00000 358.13192
v -21013.08290 -13587.49800 361.77450
v -21010.11990 -13587.42260 361.88325
v -21023.36005 -13587.85312 361.39247
v -21010.11990 -13587.42260 361.88325
v -21003.36970 -13587.23180 362.11013
v -20990.12642 -13586.91378 362.55832
v -21011.83578 -13520.00000 358.13192
v -21005.10480 -13531.40620 358.99616
v -21004.18220 -13561.09090 360.65198
v -20990.12642 -13586.91378 362.55832
v -21023.36005 -13587.85312 361.39247
v -21010.11990 -13587.42260 361.88325
v -21003.36970 -13587.23180 362.11013
v -21010.11990 -13587.42260 361.88325
v -21004.18220 -13561.09090 360.65198
v -20720.00000 -12379.56798 309.77356
v -20720.00000 -12379.64764 309.77667
v -20723.88700 -12379.74900 309.67434
v -20723.88700 -12379.74900 309.67434
v -20743.88438 -12380.07266 309.14018
v -20720.00000 -12379.56798 309.77356
v -20723.88700 -12379.74900 309.67434
v -20743.88438 -12380.07267 309.14018
v -20743.88438 -12380.07266 309.14018
v -20723.80350 -12384.90770 309.87814
v -20723.88700 -12379.74900 309.67434
v -20723.86300 -12380.66840 309.71091
v -20723.66010 -12388.45160 310.02049
v -20723.35895 -12400.00000 310.47984
v -20723.55925 -12400.00000 310.47436
v -20723.86300 -12380.66840 309.71091
v -20723.66010 -12388.45160 310.02049
v -20723.80350 -12384.90770 309.87814
v -20723.55925 -12400.00000 310.47436
v -20723.80350 -12384.90770 309.87814
v -20723.66010 -12388.45160 310.02049
v -20723.14040 -12425.88050 311.49677
v -20723.55925 -12400.00000 310.47436
v -20723.35895 -12400.00000 310.47984
v -20721.77760 -12460.64130 313.00625
v -20721.27280 -12480.00000 313.85187
v -20722.50890 -12464.89720 313.16912
v -20722.50890 -12464.89720 313.16912
v -20721.27280 -12480.00000 313.85187
v -20722.26446 -12480.00000 313.82475
v -20723.35895 -12400.00000 310.47984
v -20721.77760 -12460.64130 313.00625
v -20723.14040 -12425.88050 311.49677
v -20722.50890 -12464.89720 313.16912
v -20723.14040 -12425.88050 311.49677
v -20721.77760 -12460.64130 313.00625
v -20721.79490 -12509.01120 315.08417
v -20722.26446 -12480.00000 313.82475
v -20721.27280 -12480.00000 313.85187
v -20720.11290 -12524.48110 315.79488
v -20721.21420 -12544.88680 316.64158
v -20721.79490 -12509.01120 315.08417
v -20721.21420 -12544.88680 316.64158
v -20720.00000 -12560.00000 317.32417
v -20720.96957 -12560.00000 317.29766
v -20721.21420 -12544.88680 316.64158
v -20720.11290 -12524.48110 315.79488
v -20720.00000 -12528.81059 315.98400
v -20721.27280 -12480.00000 313.85187
v -20720.11290 -12524.48110 315.79488
v -20721.79490 -12509.01120 315.08417
v -20720.00000 -12528.81059 315.98400
v -20720.00000 -12560.00000 317.32417
v -20721.21420 -12544.88680 316.64158
v -20720.70060 -12576.61710 318.01903
v -20720.00000 -12560.00000 317.32417
v -20720.00000 -12619.90826 319.94809
v -20720.00000 -12560.00000 317.32417
v -20720.70060 -12576.61710 318.01903
v -20720.96957 -12560.00000 317.29766
v -20720.00000 -13579.89559 372.54688
v -20724.46464 -13579.91549 372.37357
v -20720.00000 -13579.84322 372.54401
v -20720.00000 -12379.56798 309.77356
v -20703.89380 -12379.22766 310.20067
v -20720.00000 -12379.64764 309.77667
v -20720.00000 -12560.00000 317.32417
v -20720.00000 -12528.81059 315.98400
v -20719.69220 -12540.61410 316.49960
v -20720.00000 -12560.00000 317.32417
v -20719.21650 -12558.85720 317.29649
v -20719.18670 -12560.00000 317.34641
v -20719.69220 -12540.61410 316.49960
v -20719.21650 -12558.85720 317.29649
v -20720.00000 -12560.00000 317.32417
v -20720.00000 -12619.90826 319.94809
v -20720.00000 -12560.00000 317.32417
v -20719.18670 -12560.00000 317.34641
v -20717.60680 -12620.58690 320.05469
v -20717.10059 -12640.00000 320.98050
v -20719.91960 -12624.87630 320.18348
v -20719.91960 -12624.87630 320.18348
v -20717.10059 -12640.00000 320.98050
v -20719.67482 -12640.00000 320.90006
v -20719.18670 -12560.00000 317.34641
v -20717.60680 -12620.58690 320.05469
v -20720.00000 -12619.90826 319.94809
v -20719.91960 -12624.87630 320.18348
v -20720.00000 -12619.90826 319.94809
v -20717.60680 -12620.58690 320.05469
v -20716.21790 -12673.85070 322.59484
v -20719.67482 -12640.00000 320.90006
v -20717.10059 -12640.00000 320.98050
v -20715.52140 -12700.55970 323.87847
v -20718.62490 -12704.86580 324.00015
v -20719.02110 -12680.38950 322.81374
v -20718.62490 -12704.86580 324.00015
v -20715.01445 -12720.00000 324.88151
v -20718.37994 -12720.00000 324.77634
v -20719.02110 -12680.38950 322.81374
v -20716.21790 -12673.85070 322.59484
v -20715.52140 -12700.55970 323.87847
v -20719.02110 -12680.38950 322.81374
v -20719.67482 -12640.00000 320.90006
v -20716.21790 -12673.85070 322.59484
v -20715.52140 -12700.55970 323.87847
v -20715.01445 -12720.00000 324.88151
v -20718.62490 -12704.86580 324.00015
v -20718.28050 -12726.14370 325.09143
v -20715.01445 -12720.00000 324.88151
v -20714.71420 -12731.51380 325.47558
v -20715.01445 -12720.00000 324.88151
v -20718.28050 -12726.14370 325.09143
v -20718.37994 -12720.00000 324.77634
v -20712.92833 -12800.00000 329.00920
v -20717.08518 -12800.00000 328.87930
v -20717.33030 -12784.85530 328.10258
v -20717.33030 -12784.85530 328.10258
v -20713.43600 -12780.53250 328.00476
v -20712.92833 -12800.00000 329.00920
v -20717.33030 -12784.85530 328.10258
v -20718.28050 -12726.14370 325.09143
v -20714.71420 -12731.51380 325.47558
v -20714.71420 -12731.51380 325.47558
v -20713.43600 -12780.53250 328.00476
v -20717.33030 -12784.85530 328.10258
v -20717.08518 -12800.00000 328.87930
v -20712.92833 -12800.00000 329.00920
v -20712.33300 -12822.82860 330.18707
v -20712.33300 -12822.82860 330.18707
v -20716.23720 -12852.39220 331.56634
v -20717.08518 -12800.00000 328.87930
v -20710.84223 -12880.00000 333.19672
v -20715.79033 -12880.00000 333.02277
v -20715.86040 -12875.67030 332.78352
v -20715.86040 -12875.67030 332.78352
v -20711.35060 -12860.50530 332.13104
v -20710.84223 -12880.00000 333.19672
v -20712.33300 -12822.82860 330.18707
v -20711.35060 -12860.50530 332.13104
v -20716.23720 -12852.39220 331.56634
v -20715.86040 -12875.67030 332.78352
v -20716.03560 -12864.84490 332.20501
v -20711.35060 -12860.50530 332.13104
v -20711.35060 -12860.50530 332.13104
v -20716.03560 -12864.84490 332.20501
v -20716.23720 -12852.39220 331.56634
v -20710.24310 -12902.97510 334.47424
v -20715.79033 -12880.00000 333.02277
v -20710.84223 -12880.00000 333.19672
v -20708.75609 -12960.00000 337.64506
v -20714.49554 -12960.00000 337.44329
v -20714.74100 -12944.83440 336.60529
v -20714.74100 -12944.83440 336.60529
v -20709.26510 -12940.47810 336.55957
v -20708.75609 -12960.00000 337.64506
v -20714.74100 -12944.83440 336.60529
v -20715.79033 -12880.00000 333.02277
v -20710.24310 -12902.97510 334.47424
v -20710.24310 -12902.97510 334.47424
v -20709.26510 -12940.47810 336.55957
v -20714.74100 -12944.83440 336.60529
v -20708.39760 -12973.74880 338.40955
v -20714.49554 -12960.00000 337.44329
v -20708.75609 -12960.00000 337.64506
v -20707.17970 -13020.45100 341.00640
v -20713.44630 -13024.82390 341.02523
v -20713.47530 -13023.03410 340.92633
v -20713.44630 -13024.82390 341.02523
v -20706.66993 -13040.00000 342.09341
v -20713.20068 -13040.00000 341.86381
v -20713.47530 -13023.03410 340.92633
v -20708.39760 -12973.74880 338.40955
v -20707.17970 -13020.45100 341.00640
v -20713.47530 -13023.03410 340.92633
v -20714.49554 -12960.00000 337.44329
v -20708.39760 -12973.74880 338.40955
v -20707.17970 -13020.45100 341.00640
v -20706.66993 -13040.00000 342.09341
v -20713.44630 -13024.82390 341.02523
v -20713.20068 -13040.00000 341.86381
v -20706.66993 -13040.00000 342.09341
v -20705.76830 -13074.57610 344.01598
v -20705.76830 -13074.57610 344.01598
v -20712.15170 -13104.81340 345.47167
v -20713.20068 -13040.00000 341.86381
v -20712.15170 -13104.81340 345.47167
v -20704.58380 -13120.00000 346.62757
v -20711.90590 -13120.00000 346.37015
v -20705.76830 -13074.57610 344.01598
v -20705.09430 -13100.42380 345.46258
v -20712.15170 -13104.81340 345.47167
v -20712.15170 -13104.81340 345.47167
v -20705.09430 -13100.42380 345.46258
v -20704.58380 -13120.00000 346.62757
v -20711.90590 -13120.00000 346.37015
v -20704.58380 -13120.00000 346.62757
v -20704.51270 -13122.72660 346.78983
v -20704.51270 -13122.72660 346.78983
v -20711.00060 -13175.93350 349.63544
v -20711.90590 -13120.00000 346.37015
v -20702.49772 -13200.00000 351.29084
v -20710.61107 -13200.00000 350.97391
v -20710.69190 -13195.00560 350.68929
v -20710.69190 -13195.00560 350.68929
v -20703.00890 -13180.39660 350.16047
v -20702.49772 -13200.00000 351.29084
v -20704.51270 -13122.72660 346.78983
v -20703.00890 -13180.39660 350.16047
v -20711.00060 -13175.93350 349.63544
v -20710.69190 -13195.00560 350.68929
v -20710.85700 -13184.80300 350.12553
v -20703.00890 -13180.39660 350.16047
v -20703.00890 -13180.39660 350.16047
v -20710.85700 -13184.80300 350.12553
v -20711.00060 -13175.93350 349.63544
v -20709.56240 -13264.79250 354.81131
v -20710.61107 -13200.00000 350.97391
v -20701.31380 -13245.40290 353.99742
v -20701.31380 -13245.40290 353.99742
v -20710.61107 -13200.00000 350.97391
v -20702.49772 -13200.00000 351.29084
v -20700.57730 -13273.64690 355.68111
v -20709.31624 -13280.00000 355.71199
v -20709.56240 -13264.79250 354.81131
v -20709.31624 -13280.00000 355.71199
v -20700.57730 -13273.64690 355.68111
v -20700.41163 -13280.00000 356.05983
v -20701.31380 -13245.40290 353.99742
v -20700.92350 -13260.36940 354.88960
v -20709.56240 -13264.79250 354.81131
v -20700.92350 -13260.36940 354.88960
v -20700.57730 -13273.64690 355.68111
v -20709.56240 -13264.79250 354.81131
v -20708.58040 -13325.46010 358.40442
v -20709.31624 -13280.00000 355.71199
v -20700.41163 -13280.00000 356.05983
v -20698.32550 -13360.00000 360.66801
v -20708.02138 -13360.00000 360.32714
v -20708.26770 -13344.78200 359.48625
v -20708.26770 -13344.78200 359.48625
v -20698.83810 -13340.34220 359.57496
v -20698.32550 -13360.00000 360.66801
v -20700.41163 -13280.00000 356.05983
v -20698.83810 -13340.34220 359.57496
v -20708.58040 -13325.46010 358.40442
v -20708.26770 -13344.78200 359.48625
v -20708.58040 -13325.46010 358.40442
v -20698.83810 -13340.34220 359.57496
v -20707.91410 -13366.62810 360.69339
v -20708.02138 -13360.00000 360.32714
v -20698.32550 -13360.00000 360.66801
v -20696.23939 -13440.00000 365.33739
v -20706.72660 -13440.00000 364.92773
v -20706.97310 -13424.77150 364.02581
v -20706.97310 -13424.77150 364.02581
v -20696.75270 -13420.31500 364.16392
v -20696.23939 -13440.00000 365.33739
v -20698.32550 -13360.00000 360.66801
v -20696.82250 -13417.63830 364.00436
v -20707.91410 -13366.62810 360.69339
v -20696.82250 -13417.63830 364.00436
v -20696.75270 -13420.31500 364.16392
v -20706.97310 -13424.77150 364.02581
v -20706.97310 -13424.77150 364.02581
v -20707.91410 -13366.62810 360.69339
v -20696.82250 -13417.63830 364.00436
v -20706.14070 -13476.19680 367.07153
v -20706.72660 -13440.00000 364.92773
v -20696.23939 -13440.00000 365.33739
v -20705.67840 -13504.76110 368.76328
v -20694.15326 -13520.00000 370.10638
v -20705.43177 -13520.00000 369.66581
v -20696.23939 -13440.00000 365.33739
v -20694.66730 -13500.28780 368.93129
v -20706.14070 -13476.19680 367.07153
v -20694.66730 -13500.28780 368.93129
v -20694.15326 -13520.00000 370.10638
v -20705.67840 -13504.76110 368.76328
v -20705.67840 -13504.76110 368.76328
v -20706.14070 -13476.19680 367.07153
v -20694.66730 -13500.28780 368.93129
v -20704.46730 -13579.59190 373.13702
v -20705.43177 -13520.00000 369.66581
v -20694.15326 -13520.00000 370.10638
v -20712.59904 -13579.86257 372.83417
v -20720.00000 -13579.84322 372.54401
v -20709.62600 -13579.67530 372.94007
v -20720.00000 -13579.84322 372.54401
v -20712.59904 -13579.86257 372.83417
v -20720.00000 -13579.89559 372.54688
v -20672.61264 -13578.81983 374.33912
v -20672.61264 -13578.81987 374.33912
v -20684.46988 -13579.26819 373.90046
v -20684.46988 -13579.26819 373.90046
v -20691.68640 -13579.31720 373.62125
v -20672.61264 -13578.81983 374.33912
v -20694.15326 -13520.00000 370.10638
v -20692.60580 -13579.34120 373.58665
v -20704.46730 -13579.59190 373.13702
v -20709.62600 -13579.67530 372.94007
v -20704.46730 -13579.59190 373.13702
v -20712.59904 -13579.86257 372.83417
v -20684.46988 -13579.26819 373.90046
v -20692.60580 -13579.34120 373.58665
v -20691.68640 -13579.31720 373.62125
v -20684.46988 -13579.26819 373.90046
v -20712.59904 -13579.86257 372.83417
v -20704.46730 -13579.59190 373.13702
v -20704.46730 -13579.59190 373.13702
v -20692.60580 -13579.34120 373.58665
v -20684.46988 -13579.26819 373.90046
v -674.19000 -11897.32700 -200.58592
v -654.19651 -11896.81687 -202.14991
v -654.19113 -11897.02746 -202.14950
v -674.19000 -11897.32700 -200.58592
v -694.18460 -11897.83714 -199.02185
v -694.18776 -11897.62649 -199.02243
v -694.18776 -11897.62649 -199.02243
v -654.19651 -11896.81687 -202.14991
v -674.19000 -11897.32700 -200.58592
v -651.23290 -12797.08410 -208.39916
v -640.71527 -12796.92660 -209.34164
v -651.23149 -12797.13950 -208.40015
v 4220.08541 -11813.43910 -477.19143
v 4240.00000 -11812.97468 -477.81013
v 4240.00000 -11812.97586 -477.81014
v 4240.00000 -11812.97586 -477.81014
v 4220.08541 -11813.43912 -477.19143
v 4220.08541 -11813.43910 -477.19143
v 4258.04690 -11812.55390 -478.37081
v 4240.00000 -11812.97468 -477.81013
v 4259.48858 -11812.52019 -478.41560
v 4240.08000 -11812.97400 -477.81263
v 4240.00000 -11812.97468 -477.81013
v 4258.04690 -11812.55390 -478.37081
v 4240.24080 -11819.88510 -477.87164
v 4240.71186 -11840.00000 -478.07725
v 4240.70870 -11840.00000 -478.07715
v 4240.71186 -11840.00000 -478.07725
v 4240.24080 -11819.88510 -477.87164
v 4240.08000 -11812.97400 -477.81263
v 4241.39340 -11869.43490 -478.44349
v 4240.70870 -11840.00000 -478.07715
v 4240.71186 -11840.00000 -478.07725
v 4242.23580 -11905.17940 -478.88869
v 4242.56962 -11920.00000 -479.10690
v 4242.10120 -11899.86340 -478.82219
v 4242.56962 -11920.00000 -479.10690
v 4242.23580 -11905.17940 -478.88869
v 4242.58229 -11920.00000 -479.10734
v 4240.71186 -11840.00000 -478.07725
v 4241.52980 -11874.98520 -478.51279
v 4241.39340 -11869.43490 -478.44349
v 4242.10120 -11899.86340 -478.82219
v 4241.39340 -11869.43490 -478.44349
v 4241.52980 -11874.98520 -478.51279
v 4242.10120 -11899.86340 -478.82219
v 4241.52980 -11874.98520 -478.51279
v 4242.23580 -11905.17940 -478.88869
v 4243.01850 -11939.29670 -479.42419
v 4242.56962 -11920.00000 -479.10690
v 4242.58229 -11920.00000 -479.10734
v 4244.45267 -12000.00000 -480.42310
v 4244.43052 -12000.00000 -480.42232
v 4243.96160 -11979.84180 -480.09086
v 4243.96160 -11979.84180 -480.09086
v 4243.39970 -11954.96340 -479.68238
v 4244.45267 -12000.00000 -480.42310
v 4242.58229 -11920.00000 -479.10734
v 4243.39970 -11954.96340 -479.68238
v 4243.01850 -11939.29670 -479.42419
v 4243.96160 -11979.84180 -480.09086
v 4243.01850 -11939.29670 -479.42419
v 4243.39970 -11954.96340 -479.68238
v 4244.75160 -12013.80300 -480.64928
v 4244.45267 -12000.00000 -480.42310
v 4244.99250 -12023.08880 -480.80284
v 4244.45267 -12000.00000 -480.42310
v 4244.75160 -12013.80300 -480.64928
v 4244.43052 -12000.00000 -480.42232
v 4246.32307 -12080.00000 -481.70179
v 4246.29143 -12080.00000 -481.70055
v 4245.82200 -12059.82020 -481.36691
v 4245.82200 -12059.82020 -481.36691
v 4245.26960 -12034.94150 -480.98380
v 4246.32307 -12080.00000 -481.70179
v 4244.99250 -12023.08880 -480.80284
v 4245.26960 -12034.94150 -480.98380
v 4244.75160 -12013.80300 -480.64928
v 4245.82200 -12059.82020 -481.36691
v 4244.75160 -12013.80300 -480.64928
v 4245.26960 -12034.94150 -480.98380
v 4247.10000 -12114.75840 -482.27524
v 4246.29143 -12080.00000 -481.70055
v 4246.32307 -12080.00000 -481.70179
v 4248.19343 -12160.00000 -483.02485
v 4248.13190 -12159.12070 -483.00871
v 4247.68240 -12139.79850 -482.68924
v 4248.13190 -12159.12070 -483.00871
v 4248.19343 -12160.00000 -483.02485
v 4248.15235 -12160.00000 -483.02325
v 4246.32307 -12080.00000 -481.70179
v 4247.13950 -12114.91970 -482.27930
v 4247.10000 -12114.75840 -482.27524
v 4247.13950 -12114.91970 -482.27930
v 4248.19343 -12160.00000 -483.02485
v 4247.68240 -12139.79850 -482.68924
v 4247.68240 -12139.79850 -482.68924
v 4247.10000 -12114.75840 -482.27524
v 4247.13950 -12114.91970 -482.27930
v 4248.15235 -12160.00000 -483.02325
v 4248.70840 -12182.02680 -483.41688
v 4249.00940 -12194.89780 -483.62858
v 4248.70840 -12182.02680 -483.41688
v 4248.15235 -12160.00000 -483.02325
v 4248.19343 -12160.00000 -483.02485
v 4250.06385 -12240.00000 -484.38165
v 4250.01322 -12240.00000 -484.37967
v 4249.54280 -12219.77690 -484.03606
v 4249.54280 -12219.77690 -484.03606
v 4249.42120 -12212.51080 -483.91826
v 4250.06385 -12240.00000 -484.38165
v 4249.54280 -12219.77690 -484.03606
v 4248.15235 -12160.00000 -483.02325
v 4249.00940 -12194.89780 -483.62858
v 4249.00940 -12194.89780 -483.62858
v 4249.42120 -12212.51080 -483.91826
v 4249.54280 -12219.77690 -484.03606
v 4250.87920 -12274.87600 -485.09467
v 4250.01322 -12240.00000 -484.37967
v 4250.06385 -12240.00000 -484.38165
v 4251.93427 -12320.00000 -486.01721
v 4251.40330 -12299.75530 -485.60107
v 4251.37130 -12298.38300 -485.57302
v 4251.40330 -12299.75530 -485.60107
v 4251.93427 -12320.00000 -486.01721
v 4251.87422 -12320.00000 -486.01487
v 4251.37130 -12298.38300 -485.57302
v 4250.01322 -12240.00000 -484.37967
v 4250.87920 -12274.87600 -485.09467
v 4250.87920 -12274.87600 -485.09467
v 4251.93427 -12320.00000 -486.01721
v 4251.37130 -12298.38300 -485.57302
v 4251.87422 -12320.00000 -486.01487
v 4251.93427 -12320.00000 -486.01721
v 4251.94480 -12320.45050 -486.02643
v 4252.74910 -12354.85410 -486.72979
v 4253.26370 -12379.73360 -487.23582
v 4251.87422 -12320.00000 -486.01487
v 4253.26370 -12379.73360 -487.23582
v 4253.80461 -12400.00000 -487.65278
v 4253.73512 -12400.00000 -487.65006
v 4251.87422 -12320.00000 -486.01487
v 4251.94480 -12320.45050 -486.02643
v 4252.74910 -12354.85410 -486.72979
v 4253.26370 -12379.73360 -487.23582
v 4252.74910 -12354.85410 -486.72979
v 4253.80461 -12400.00000 -487.65278
v 4253.73512 -12400.00000 -487.65006
v 4253.84980 -12401.93270 -487.69229
v 4254.61900 -12434.83230 -488.36491
v 4253.84980 -12401.93270 -487.69229
v 4253.73512 -12400.00000 -487.65006
v 4253.80461 -12400.00000 -487.65278
v 4255.18110 -12458.87430 -488.85643
v 4255.67502 -12480.00000 -489.28834
v 4255.12410 -12459.71200 -488.87057
v 4255.12410 -12459.71200 -488.87057
v 4255.67502 -12480.00000 -489.28834
v 4255.59600 -12480.00000 -489.28525
v 4254.72390 -12442.50760 -488.51891
v 4253.73512 -12400.00000 -487.65006
v 4254.61900 -12434.83230 -488.36491
v 4255.12410 -12459.71200 -488.87057
v 4254.72390 -12442.50760 -488.51891
v 4255.18110 -12458.87430 -488.85643
v 4254.61900 -12434.83230 -488.36491
v 4255.18110 -12458.87430 -488.85643
v 4254.72390 -12442.50760 -488.51891
v 4255.64270 -12482.00770 -489.32629
v 4255.59600 -12480.00000 -489.28525
v 4255.67502 -12480.00000 -489.28834
v 4256.48890 -12514.81040 -489.99738
v 4257.54543 -12560.00000 -490.91713
v 4256.98450 -12539.69030 -490.50074
v 4256.98450 -12539.69030 -490.50074
v 4257.54543 -12560.00000 -490.91713
v 4257.45693 -12560.00000 -490.91402
v 4255.67502 -12480.00000 -489.28834
v 4256.48890 -12514.81040 -489.99738
v 4255.64270 -12482.00770 -489.32629
v 4256.98450 -12539.69030 -490.50074
v 4255.64270 -12482.00770 -489.32629
v 4256.48890 -12514.81040 -489.99738
v 4258.10840 -12588.00630 -491.49289
v 4257.45693 -12560.00000 -490.91402
v 4257.54543 -12560.00000 -490.91713
v 4259.41585 -12640.00000 -492.55946
v 4259.31784 -12640.00000 -492.55564
v 4258.84490 -12619.66870 -492.14007
v 4258.84490 -12619.66870 -492.14007
v 4258.35880 -12594.78850 -491.63514
v 4259.41585 -12640.00000 -492.55946
v 4257.54543 -12560.00000 -490.91713
v 4258.27850 -12591.35460 -491.56493
v 4258.10840 -12588.00630 -491.49289
v 4258.84490 -12619.66870 -492.14007
v 4258.10840 -12588.00630 -491.49289
v 4258.35880 -12594.78850 -491.63514
v 4258.27850 -12591.35460 -491.56493
v 4258.35880 -12594.78850 -491.63514
v 4258.10840 -12588.00630 -491.49289
v 4261.11620 -12712.72810 -494.04635
v 4261.00970 -12712.73060 -494.04224
v 4260.70530 -12699.64710 -493.77482
v 4261.00970 -12712.73060 -494.04224
v 4241.12168 -12713.19559 -493.21707
v 4241.01521 -12713.19571 -493.21249
v 4261.11620 -12712.72810 -494.04635
v 4281.11065 -12712.26065 -494.81826
v 4281.00427 -12712.26550 -494.81420
v 4259.72420 -12657.46940 -492.91271
v 4259.41585 -12640.00000 -492.55946
v 4260.22870 -12674.76670 -493.27025
v 4259.41585 -12640.00000 -492.55946
v 4259.72420 -12657.46940 -492.91271
v 4259.31784 -12640.00000 -492.55564
v 4281.00427 -12712.26550 -494.81420
v 4241.12168 -12713.19559 -493.21707
v 4261.00970 -12712.73060 -494.04224
v 4260.70530 -12699.64710 -493.77482
v 4259.72420 -12657.46940 -492.91271
v 4260.22870 -12674.76670 -493.27025
v 4281.00427 -12712.26550 -494.81420
v 4261.00970 -12712.73060 -494.04224
v 4261.11620 -12712.72810 -494.04635
v 4260.22870 -12674.76670 -493.27025
v 4261.11620 -12712.72810 -494.04635
v 4260.70530 -12699.64710 -493.77482
vt -152.85275 63.91717
vt -152.80000 63.90863
vt -152.80000 63.90873
vt -152.72009 63.89583
vt -152.80000 63.90863
vt -152.65536 63.88523
vt -152.80000 63.90863
vt -152.75401 63.90138
vt -152.80000 63.90873
vt -152.75401 63.90138
vt -152.80000 63.90863
vt -152.72009 63.89583
vt -152.75401 63.90138
vt -152.73787 64.00000
vt -152.73823 64.00000
vt -152.72233 64.09944
vt -152.73823 64.00000
vt -152.73787 64.00000
vt -152.67242 64.40000
vt -152.67425 64.40000
vt -152.68129 64.35602
vt -152.68129 64.35602
vt -152.69496 64.26221
vt -152.67242 64.40000
vt -152.73787 64.00000
vt -152.69496 64.26221
vt -152.72233 64.09944
vt -152.68129 64.35602
vt -152.72233 64.09944
vt -152.69496 64.26221
vt -152.65915 64.49442
vt -152.67425 64.40000
vt -152.67242 64.40000
vt -152.63037 64.65696
vt -152.60697 64.80000
vt -152.61027 64.80000
vt -152.67242 64.40000
vt -152.63037 64.65696
vt -152.65915 64.49442
vt -152.61027 64.80000
vt -152.65915 64.49442
vt -152.63037 64.65696
vt -152.59597 64.88940
vt -152.61027 64.80000
vt -152.60697 64.80000
vt -152.56578 65.05172
vt -152.54629 65.20000
vt -152.58783 64.94028
vt -152.54629 65.20000
vt -152.56578 65.05172
vt -152.54152 65.20000
vt -152.58783 64.94028
vt -152.59597 64.88940
vt -152.60697 64.80000
vt -152.60697 64.80000
vt -152.56578 65.05172
vt -152.58783 64.94028
vt -152.53286 65.25289
vt -152.54629 65.20000
vt -152.54152 65.20000
vt -152.50119 65.44647
vt -152.48231 65.60000
vt -152.51223 65.41294
vt -152.48231 65.60000
vt -152.50119 65.44647
vt -152.47607 65.60000
vt -152.53280 65.28438
vt -152.54629 65.20000
vt -152.53286 65.25289
vt -152.53286 65.25289
vt -152.50119 65.44647
vt -152.51223 65.41294
vt -152.51223 65.41294
vt -152.53280 65.28438
vt -152.53286 65.25289
vt -152.46962 65.67936
vt -152.48231 65.60000
vt -152.47607 65.60000
vt -152.43660 65.84122
vt -152.41062 66.00000
vt -152.41834 66.00000
vt -152.47607 65.60000
vt -152.43660 65.84122
vt -152.46962 65.67936
vt -152.41834 66.00000
vt -152.46962 65.67936
vt -152.43660 65.84122
vt -152.40000 66.06489
vt -152.40644 66.07434
vt -152.41834 66.00000
vt -152.40644 66.07434
vt -152.40000 66.06489
vt -152.40000 66.11463
vt -152.41834 66.00000
vt -152.41062 66.00000
vt -152.40000 66.06489
vt -152.40000 66.11463
vt -152.40000 66.06489
vt -152.37406 66.22344
vt -152.37201 66.23597
vt -152.35557 66.39242
vt -152.40000 66.11463
vt -152.35557 66.39242
vt -152.34517 66.40000
vt -152.35436 66.40000
vt -152.40000 66.11463
vt -152.37406 66.22344
vt -152.37201 66.23597
vt -152.35557 66.39242
vt -152.37201 66.23597
vt -152.34517 66.40000
vt -152.34327 66.46932
vt -152.35436 66.40000
vt -152.34517 66.40000
vt -152.30742 66.63072
vt -152.27972 66.80000
vt -152.29038 66.80000
vt -152.34517 66.40000
vt -152.30742 66.63072
vt -152.34327 66.46932
vt -152.29038 66.80000
vt -152.34327 66.46932
vt -152.30742 66.63072
vt -152.28009 66.86430
vt -152.29038 66.80000
vt -152.27972 66.80000
vt -152.21427 67.20000
vt -152.22640 67.20000
vt -152.25189 67.04060
vt -152.25189 67.04060
vt -152.24282 67.02547
vt -152.21427 67.20000
vt -152.27972 66.80000
vt -152.24282 67.02547
vt -152.28009 66.86430
vt -152.25189 67.04060
vt -152.28009 66.86430
vt -152.24282 67.02547
vt -152.20991 67.22664
vt -152.22640 67.20000
vt -152.21427 67.20000
vt -152.17823 67.42022
vt -152.14882 67.60000
vt -152.16242 67.60000
vt -152.21692 67.25928
vt -152.20991 67.22664
vt -152.17823 67.42022
vt -152.20991 67.22664
vt -152.21692 67.25928
vt -152.22640 67.20000
vt -152.16242 67.60000
vt -152.21692 67.25928
vt -152.17823 67.42022
vt -152.15374 67.65426
vt -152.16242 67.60000
vt -152.14882 67.60000
vt -152.08337 68.00000
vt -152.09844 68.00000
vt -152.12330 67.84456
vt -152.12330 67.84456
vt -152.11364 67.81497
vt -152.08337 68.00000
vt -152.14882 67.60000
vt -152.11364 67.81497
vt -152.15374 67.65426
vt -152.12330 67.84456
vt -152.15374 67.65426
vt -152.11364 67.81497
vt -152.09056 68.04923
vt -152.09844 68.00000
vt -152.08337 68.00000
vt -152.04905 68.20972
vt -152.01792 68.40000
vt -152.03446 68.40000
vt -152.09056 68.04923
vt -152.05110 68.19720
vt -152.04905 68.20972
vt -152.08337 68.00000
vt -152.05110 68.19720
vt -152.09056 68.04923
vt -152.04905 68.20972
vt -152.03446 68.40000
vt -152.09056 68.04923
vt -152.01792 68.40000
vt -152.02739 68.44421
vt -152.03446 68.40000
vt -152.02739 68.44421
vt -152.00000 68.50950
vt -152.00000 68.61545
vt -152.00000 68.50950
vt -152.02739 68.44421
vt -152.01792 68.40000
vt -151.98446 68.60447
vt -152.00000 68.61545
vt -152.00000 68.50950
vt -151.95247 68.80000
vt -151.97048 68.80000
vt -151.99155 68.66826
vt -151.99155 68.66826
vt -151.98446 68.60447
vt -151.95247 68.80000
vt -151.99155 68.66826
vt -152.00000 68.61545
vt -151.98446 68.60447
vt -151.96421 68.83919
vt -151.97048 68.80000
vt -151.95247 68.80000
vt -151.91987 68.99922
vt -151.90650 69.20000
vt -151.96421 68.83919
vt -151.90650 69.20000
vt -151.91987 68.99922
vt -151.88702 69.20000
vt -151.95247 68.80000
vt -151.91987 68.99922
vt -151.96421 68.83919
vt -151.90650 69.20000
vt -151.88702 69.20000
vt -151.88695 69.20039
vt -151.88695 69.20039
vt -151.90104 69.23417
vt -151.90650 69.20000
vt -151.85528 69.39397
vt -151.82157 69.60000
vt -151.84252 69.60000
vt -151.89104 69.29670
vt -151.90104 69.23417
vt -151.88695 69.20039
vt -151.84252 69.60000
vt -151.89104 69.29670
vt -151.85528 69.39397
vt -151.88695 69.20039
vt -151.85528 69.39397
vt -151.89104 69.29670
vt -151.83786 69.62915
vt -151.84252 69.60000
vt -151.82157 69.60000
vt -151.79069 69.78872
vt -151.78514 69.82263
vt -151.80637 69.82607
vt -151.80637 69.82607
vt -151.88383 69.83878
vt -151.90510 69.84186
vt -151.70762 69.81027
vt -151.78514 69.82263
vt -151.68645 69.80649
vt -151.82157 69.60000
vt -151.79069 69.78872
vt -151.83786 69.62915
vt -151.80637 69.82607
vt -151.78514 69.82263
vt -151.70762 69.81027
vt -151.80637 69.82607
vt -151.83786 69.62915
vt -151.79069 69.78872
vt -151.70762 69.81027
vt -151.88383 69.83878
vt -151.80637 69.82607
vt -105.20325 61.93905
vt -105.20000 61.93868
vt -105.20000 61.93895
vt -105.20000 61.93868
vt -105.20325 61.93905
vt -105.30321 61.94160
vt -105.20135 62.00000
vt -105.20289 61.95318
vt -105.20325 61.93905
vt -105.20289 61.95318
vt -105.20135 62.00000
vt -105.20169 62.00000
vt -105.20169 62.00000
vt -105.20135 62.00000
vt -105.20000 62.04346
vt -105.20000 62.04346
vt -105.20000 62.06656
vt -105.20169 62.00000
vt -105.25944 63.66141
vt -105.20076 63.67075
vt -105.25944 63.66141
vt -105.19310 61.93874
vt -105.20000 61.93868
vt -105.10334 61.93595
vt -105.20000 61.93868
vt -105.19310 61.93874
vt -105.20000 61.93895
vt -105.19271 62.35305
vt -105.18892 62.40000
vt -105.19151 62.40000
vt -105.19113 62.32872
vt -105.20000 62.06656
vt -105.20000 62.04346
vt -105.19113 62.32872
vt -105.18892 62.40000
vt -105.19271 62.35305
vt -105.19271 62.35305
vt -105.20000 62.06656
vt -105.19113 62.32872
vt -105.18253 62.75292
vt -105.17649 62.80000
vt -105.18133 62.80000
vt -105.17871 62.72852
vt -105.19151 62.40000
vt -105.18892 62.40000
vt -105.17871 62.72852
vt -105.17649 62.80000
vt -105.18253 62.75292
vt -105.18253 62.75292
vt -105.19151 62.40000
vt -105.17871 62.72852
vt -105.17971 62.86404
vt -105.18133 62.80000
vt -105.17649 62.80000
vt -105.17649 62.80000
vt -105.17447 62.86487
vt -105.17971 62.86404
vt -105.14878 63.69150
vt -105.15875 63.68752
vt -105.05140 63.73038
vt -105.15199 63.95322
vt -105.13919 64.00000
vt -105.15080 64.00000
vt -105.14518 63.80739
vt -105.15875 63.68752
vt -105.14878 63.69150
vt -105.14518 63.80739
vt -105.13919 64.00000
vt -105.15199 63.95322
vt -105.15199 63.95322
vt -105.15875 63.68752
vt -105.14518 63.80739
vt -105.15080 64.00000
vt -105.13919 64.00000
vt -105.13755 64.05269
vt -105.13275 64.20719
vt -105.14181 64.35309
vt -105.15080 64.00000
vt -105.14181 64.35309
vt -105.12676 64.40000
vt -105.14062 64.40000
vt -105.15080 64.00000
vt -105.13755 64.05269
vt -105.13275 64.20719
vt -105.14181 64.35309
vt -105.13275 64.20719
vt -105.12676 64.40000
vt -105.12032 64.60700
vt -105.14062 64.40000
vt -105.12676 64.40000
vt -105.13163 64.75296
vt -105.11432 64.80000
vt -105.13044 64.80000
vt -105.13163 64.75296
vt -105.14062 64.40000
vt -105.12032 64.60700
vt -105.12032 64.60700
vt -105.11432 64.80000
vt -105.13163 64.75296
vt -105.13044 64.80000
vt -105.11432 64.80000
vt -105.11314 64.83820
vt -105.10790 65.00681
vt -105.12146 65.15283
vt -105.13044 64.80000
vt -105.12146 65.15283
vt -105.10189 65.20000
vt -105.12026 65.20000
vt -105.13044 64.80000
vt -105.11314 64.83820
vt -105.10790 65.00681
vt -105.12146 65.15283
vt -105.10790 65.00681
vt -105.10189 65.20000
vt -105.11128 65.55271
vt -105.09487 65.42583
vt -105.08946 65.60000
vt -105.12026 65.20000
vt -105.10189 65.20000
vt -105.09547 65.40661
vt -105.09547 65.40661
vt -105.11128 65.55271
vt -105.12026 65.20000
vt -105.08946 65.60000
vt -105.11008 65.60000
vt -105.11128 65.55271
vt -105.09547 65.40661
vt -105.09487 65.42583
vt -105.11128 65.55271
vt -105.07804 65.96747
vt -105.07703 66.00000
vt -105.09990 66.00000
vt -105.10589 65.76462
vt -105.08946 65.60000
vt -105.08304 65.80642
vt -105.08946 65.60000
vt -105.10589 65.76462
vt -105.11008 65.60000
vt -105.09990 66.00000
vt -105.10110 65.95258
vt -105.07804 65.96747
vt -105.10110 65.95258
vt -105.10589 65.76462
vt -105.08304 65.80642
vt -105.08304 65.80642
vt -105.07804 65.96747
vt -105.10110 65.95258
vt -105.09093 66.35245
vt -105.06459 66.40000
vt -105.08972 66.40000
vt -105.09990 66.00000
vt -105.07703 66.00000
vt -105.07062 66.20623
vt -105.07062 66.20623
vt -105.09093 66.35245
vt -105.09990 66.00000
vt -105.07062 66.20623
vt -105.06459 66.40000
vt -105.09093 66.35245
vt -105.05244 66.79101
vt -105.05216 66.80000
vt -105.07954 66.80000
vt -105.08075 66.75232
vt -105.08972 66.40000
vt -105.05819 66.60603
vt -105.05819 66.60603
vt -105.08972 66.40000
vt -105.06459 66.40000
vt -105.07954 66.80000
vt -105.08075 66.75232
vt -105.05244 66.79101
vt -105.05819 66.60603
vt -105.05244 66.79101
vt -105.08075 66.75232
vt -105.07058 67.15219
vt -105.03973 67.20000
vt -105.06936 67.20000
vt -105.04576 67.00584
vt -105.07954 66.80000
vt -105.05216 66.80000
vt -105.04576 67.00584
vt -105.03973 67.20000
vt -105.07058 67.15219
vt -105.07058 67.15219
vt -105.07954 66.80000
vt -105.04576 67.00584
vt -105.06040 67.55206
vt -105.02730 67.60000
vt -105.05918 67.60000
vt -105.03334 67.40565
vt -105.06936 67.20000
vt -105.03973 67.20000
vt -105.02730 67.60000
vt -105.06040 67.55206
vt -105.06053 67.54676
vt -105.06053 67.54676
vt -105.03334 67.40565
vt -105.02730 67.60000
vt -105.06053 67.54676
vt -105.06936 67.20000
vt -105.03334 67.40565
vt -105.11680 67.93927
vt -105.15056 67.93966
vt -105.06541 67.93749
vt -104.95063 67.93457
vt -105.01685 67.93616
vt -104.91690 67.93305
vt -105.05918 67.60000
vt -105.02730 67.60000
vt -105.02552 67.65703
vt -105.02091 67.80545
vt -105.05060 67.93711
vt -105.05918 67.60000
vt -105.06541 67.93749
vt -105.05060 67.93711
vt -105.11680 67.93927
vt -105.05060 67.93711
vt -105.01685 67.93616
vt -104.95063 67.93457
vt -105.05918 67.60000
vt -105.02552 67.65703
vt -105.02091 67.80545
vt -104.95063 67.93457
vt -105.11680 67.93927
vt -105.05060 67.93711
vt -105.01685 67.93616
vt -105.05060 67.93711
vt -105.02091 67.80545
vt -103.60000 61.89784
vt -103.60000 61.89824
vt -103.61943 61.89874
vt -103.61943 61.89874
vt -103.71942 61.90036
vt -103.60000 61.89784
vt -103.61943 61.89874
vt -103.71942 61.90036
vt -103.71942 61.90036
vt -103.61902 61.92454
vt -103.61943 61.89874
vt -103.61932 61.90334
vt -103.61830 61.94226
vt -103.61679 62.00000
vt -103.61780 62.00000
vt -103.61932 61.90334
vt -103.61830 61.94226
vt -103.61902 61.92454
vt -103.61780 62.00000
vt -103.61902 61.92454
vt -103.61830 61.94226
vt -103.61570 62.12940
vt -103.61780 62.00000
vt -103.61679 62.00000
vt -103.60889 62.30321
vt -103.60636 62.40000
vt -103.61254 62.32449
vt -103.61254 62.32449
vt -103.60636 62.40000
vt -103.61132 62.40000
vt -103.61679 62.00000
vt -103.60889 62.30321
vt -103.61570 62.12940
vt -103.61254 62.32449
vt -103.61570 62.12940
vt -103.60889 62.30321
vt -103.60897 62.54506
vt -103.61132 62.40000
vt -103.60636 62.40000
vt -103.60056 62.62241
vt -103.60607 62.72443
vt -103.60897 62.54506
vt -103.60607 62.72443
vt -103.60000 62.80000
vt -103.60485 62.80000
vt -103.60607 62.72443
vt -103.60056 62.62241
vt -103.60000 62.64405
vt -103.60636 62.40000
vt -103.60056 62.62241
vt -103.60897 62.54506
vt -103.60000 62.64405
vt -103.60000 62.80000
vt -103.60607 62.72443
vt -103.60350 62.88309
vt -103.60000 62.80000
vt -103.60000 63.09954
vt -103.60000 62.80000
vt -103.60350 62.88309
vt -103.60485 62.80000
vt -103.60000 67.89948
vt -103.62232 67.89958
vt -103.60000 67.89922
vt -103.60000 61.89784
vt -103.51947 61.89614
vt -103.60000 61.89824
vt -103.60000 62.80000
vt -103.60000 62.64405
vt -103.59846 62.70307
vt -103.60000 62.80000
vt -103.59608 62.79429
vt -103.59593 62.80000
vt -103.59846 62.70307
vt -103.59608 62.79429
vt -103.60000 62.80000
vt -103.60000 63.09954
vt -103.60000 62.80000
vt -103.59593 62.80000
vt -103.58803 63.10293
vt -103.58550 63.20000
vt -103.59960 63.12438
vt -103.59960 63.12438
vt -103.58550 63.20000
vt -103.59837 63.20000
vt -103.59593 62.80000
vt -103.58803 63.10293
vt -103.60000 63.09954
vt -103.59960 63.12438
vt -103.60000 63.09954
vt -103.58803 63.10293
vt -103.58109 63.36925
vt -103.59837 63.20000
vt -103.58550 63.20000
vt -103.57761 63.50280
vt -103.59312 63.52433
vt -103.59511 63.40195
vt -103.59312 63.52433
vt -103.57507 63.60000
vt -103.59190 63.60000
vt -103.59511 63.40195
vt -103.58109 63.36925
vt -103.57761 63.50280
vt -103.59511 63.40195
vt -103.59837 63.20000
vt -103.58109 63.36925
vt -103.57761 63.50280
vt -103.57507 63.60000
vt -103.59312 63.52433
vt -103.59140 63.63072
vt -103.57507 63.60000
vt -103.57357 63.65757
vt -103.57507 63.60000
vt -103.59140 63.63072
vt -103.59190 63.60000
vt -103.56464 64.00000
vt -103.58543 64.00000
vt -103.58665 63.92428
vt -103.58665 63.92428
vt -103.56718 63.90266
vt -103.56464 64.00000
vt -103.58665 63.92428
vt -103.59140 63.63072
vt -103.57357 63.65757
vt -103.57357 63.65757
vt -103.56718 63.90266
vt -103.58665 63.92428
vt -103.58543 64.00000
vt -103.56464 64.00000
vt -103.56166 64.11414
vt -103.56166 64.11414
vt -103.58119 64.26196
vt -103.58543 64.00000
vt -103.55421 64.40000
vt -103.57895 64.40000
vt -103.57930 64.37835
vt -103.57930 64.37835
vt -103.55675 64.30253
vt -103.55421 64.40000
vt -103.56166 64.11414
vt -103.55675 64.30253
vt -103.58119 64.26196
vt -103.57930 64.37835
vt -103.58018 64.32422
vt -103.55675 64.30253
vt -103.55675 64.30253
vt -103.58018 64.32422
vt -103.58119 64.26196
vt -103.55122 64.51488
vt -103.57895 64.40000
vt -103.55421 64.40000
vt -103.54378 64.80000
vt -103.57248 64.80000
vt -103.57371 64.72417
vt -103.57371 64.72417
vt -103.54633 64.70239
vt -103.54378 64.80000
vt -103.57371 64.72417
vt -103.57895 64.40000
vt -103.55122 64.51488
vt -103.55122 64.51488
vt -103.54633 64.70239
vt -103.57371 64.72417
vt -103.54199 64.86874
vt -103.57248 64.80000
vt -103.54378 64.80000
vt -103.53590 65.10225
vt -103.56723 65.12412
vt -103.56738 65.11517
vt -103.56723 65.12412
vt -103.53335 65.20000
vt -103.56600 65.20000
vt -103.56738 65.11517
vt -103.54199 64.86874
vt -103.53590 65.10225
vt -103.56738 65.11517
vt -103.57248 64.80000
vt -103.54199 64.86874
vt -103.53590 65.10225
vt -103.53335 65.20000
vt -103.56723 65.12412
vt -103.56600 65.20000
vt -103.53335 65.20000
vt -103.52884 65.37288
vt -103.52884 65.37288
vt -103.56076 65.52407
vt -103.56600 65.20000
vt -103.56076 65.52407
vt -103.52292 65.60000
vt -103.55953 65.60000
vt -103.52884 65.37288
vt -103.52547 65.50212
vt -103.56076 65.52407
vt -103.56076 65.52407
vt -103.52547 65.50212
vt -103.52292 65.60000
vt -103.55953 65.60000
vt -103.52292 65.60000
vt -103.52256 65.61363
vt -103.52256 65.61363
vt -103.55500 65.87967
vt -103.55953 65.60000
vt -103.51249 66.00000
vt -103.55306 66.00000
vt -103.55346 65.97503
vt -103.55346 65.97503
vt -103.51504 65.90198
vt -103.51249 66.00000
vt -103.52256 65.61363
vt -103.51504 65.90198
vt -103.55500 65.87967
vt -103.55346 65.97503
vt -103.55428 65.92401
vt -103.51504 65.90198
vt -103.51504 65.90198
vt -103.55428 65.92401
vt -103.55500 65.87967
vt -103.54781 66.32396
vt -103.55306 66.00000
vt -103.50657 66.22701
vt -103.50657 66.22701
vt -103.55306 66.00000
vt -103.51249 66.00000
vt -103.50289 66.36823
vt -103.54658 66.40000
vt -103.54781 66.32396
vt -103.54658 66.40000
vt -103.50289 66.36823
vt -103.50206 66.40000
vt -103.50657 66.22701
vt -103.50462 66.30185
vt -103.54781 66.32396
vt -103.50462 66.30185
vt -103.50289 66.36823
vt -103.54781 66.32396
vt -103.54290 66.62730
vt -103.54658 66.40000
vt -103.50206 66.40000
vt -103.49163 66.80000
vt -103.54011 66.80000
vt -103.54134 66.72391
vt -103.54134 66.72391
vt -103.49419 66.70171
vt -103.49163 66.80000
vt -103.50206 66.40000
vt -103.49419 66.70171
vt -103.54290 66.62730
vt -103.54134 66.72391
vt -103.54290 66.62730
vt -103.49419 66.70171
vt -103.53957 66.83314
vt -103.54011 66.80000
vt -103.49163 66.80000
vt -103.48120 67.20000
vt -103.53363 67.20000
vt -103.53487 67.12386
vt -103.53487 67.12386
vt -103.48376 67.10157
vt -103.48120 67.20000
vt -103.49163 66.80000
vt -103.48411 67.08819
vt -103.53957 66.83314
vt -103.48411 67.08819
vt -103.48376 67.10157
vt -103.53487 67.12386
vt -103.53487 67.12386
vt -103.53957 66.83314
vt -103.48411 67.08819
vt -103.53070 67.38098
vt -103.53363 67.20000
vt -103.48120 67.20000
vt -103.52839 67.52381
vt -103.47077 67.60000
vt -103.52716 67.60000
vt -103.48120 67.20000
vt -103.47334 67.50144
vt -103.53070 67.38098
vt -103.47334 67.50144
vt -103.47077 67.60000
vt -103.52839 67.52381
vt -103.52839 67.52381
vt -103.53070 67.38098
vt -103.47334 67.50144
vt -103.52234 67.89796
vt -103.52716 67.60000
vt -103.47077 67.60000
vt -103.56300 67.89931
vt -103.60000 67.89922
vt -103.54813 67.89838
vt -103.60000 67.89922
vt -103.56300 67.89931
vt -103.60000 67.89948
vt -103.36306 67.89410
vt -103.36306 67.89410
vt -103.42235 67.89634
vt -103.42235 67.89634
vt -103.45843 67.89659
vt -103.36306 67.89410
vt -103.47077 67.60000
vt -103.46303 67.89671
vt -103.52234 67.89796
vt -103.54813 67.89838
vt -103.52234 67.89796
vt -103.56300 67.89931
vt -103.42235 67.89634
vt -103.46303 67.89671
vt -103.45843 67.89659
vt -103.42235 67.89634
vt -103.56300 67.89931
vt -103.52234 67.89796
vt -103.52234 67.89796
vt -103.46303 67.89671
vt -103.42235 67.89634
vt -3.37095 59.48663
vt -3.27098 59.48408
vt -3.27096 59.48514
vt -3.37095 59.48663
vt -3.47092 59.48919
vt -3.47094 59.48813
vt -3.47094 59.48813
vt -3.27098 59.48408
vt -3.37095 59.48663
vt -3.25616 63.98542
vt -3.20358 63.98463
vt -3.25616 63.98570
vt 21.10043 59.06720
vt 21.20000 59.06487
vt 21.20000 59.06488
vt 21.20000 59.06488
vt 21.10043 59.06720
vt 21.10043 59.06720
vt 21.29023 59.06277
vt 21.20000 59.06487
vt 21.29744 59.06260
vt 21.20040 59.06487
vt 21.20000 59.06487
vt 21.29023 59.06277
vt 21.20120 59.09943
vt 21.20356 59.20000
vt 21.20354 59.20000
vt 21.20356 59.20000
vt 21.20120 59.09943
vt 21.20040 59.06487
vt 21.20697 59.34717
vt 21.20354 59.20000
vt 21.20356 59.20000
vt 21.21118 59.52590
vt 21.21285 59.60000
vt 21.21051 59.49932
vt 21.21285 59.60000
vt 21.21118 59.52590
vt 21.21291 59.60000
vt 21.20356 59.20000
vt 21.20765 59.37493
vt 21.20697 59.34717
vt 21.21051 59.49932
vt 21.20697 59.34717
vt 21.20765 59.37493
vt 21.21051 59.49932
vt 21.20765 59.37493
vt 21.21118 59.52590
vt 21.21509 59.69648
vt 21.21285 59.60000
vt 21.21291 59.60000
vt 21.22226 60.00000
vt 21.22215 60.00000
vt 21.21981 59.89921
vt 21.21981 59.89921
vt 21.21700 59.77482
vt 21.22226 60.00000
vt 21.21291 59.60000
vt 21.21700 59.77482
vt 21.21509 59.69648
vt 21.21981 59.89921
vt 21.21509 59.69648
vt 21.21700 59.77482
vt 21.22376 60.06902
vt 21.22226 60.00000
vt 21.22496 60.11544
vt 21.22226 60.00000
vt 21.22376 60.06902
vt 21.22215 60.00000
vt 21.23162 60.40000
vt 21.23146 60.40000
vt 21.22911 60.29910
vt 21.22911 60.29910
vt 21.22635 60.17471
vt 21.23162 60.40000
vt 21.22496 60.11544
vt 21.22635 60.17471
vt 21.22376 60.06902
vt 21.22911 60.29910
vt 21.22376 60.06902
vt 21.22635 60.17471
vt 21.23550 60.57379
vt 21.23146 60.40000
vt 21.23162 60.40000
vt 21.24097 60.80000
vt 21.24066 60.79560
vt 21.23841 60.69899
vt 21.24066 60.79560
vt 21.24097 60.80000
vt 21.24076 60.80000
vt 21.23162 60.40000
vt 21.23570 60.57460
vt 21.23550 60.57379
vt 21.23570 60.57460
vt 21.24097 60.80000
vt 21.23841 60.69899
vt 21.23841 60.69899
vt 21.23550 60.57379
vt 21.23570 60.57460
vt 21.24076 60.80000
vt 21.24354 60.91013
vt 21.24505 60.97449
vt 21.24354 60.91013
vt 21.24076 60.80000
vt 21.24097 60.80000
vt 21.25032 61.20000
vt 21.25007 61.20000
vt 21.24771 61.09888
vt 21.24771 61.09888
vt 21.24711 61.06255
vt 21.25032 61.20000
vt 21.24771 61.09888
vt 21.24076 60.80000
vt 21.24505 60.97449
vt 21.24505 60.97449
vt 21.24711 61.06255
vt 21.24771 61.09888
vt 21.25440 61.37438
vt 21.25007 61.20000
vt 21.25032 61.20000
vt 21.25967 61.60000
vt 21.25702 61.49878
vt 21.25686 61.49191
vt 21.25702 61.49878
vt 21.25967 61.60000
vt 21.25937 61.60000
vt 21.25686 61.49191
vt 21.25007 61.20000
vt 21.25440 61.37438
vt 21.25440 61.37438
vt 21.25967 61.60000
vt 21.25686 61.49191
vt 21.25937 61.60000
vt 21.25967 61.60000
vt 21.25972 61.60225
vt 21.26375 61.77427
vt 21.26632 61.89867
vt 21.25937 61.60000
vt 21.26632 61.89867
vt 21.26902 62.00000
vt 21.26868 62.00000
vt 21.25937 61.60000
vt 21.25972 61.60225
vt 21.26375 61.77427
vt 21.26632 61.89867
vt 21.26375 61.77427
vt 21.26902 62.00000
vt 21.26868 62.00000
vt 21.26925 62.00966
vt 21.27309 62.17416
vt 21.26925 62.00966
vt 21.26868 62.00000
vt 21.26902 62.00000
vt 21.27591 62.29437
vt 21.27838 62.40000
vt 21.27562 62.29856
vt 21.27562 62.29856
vt 21.27838 62.40000
vt 21.27798 62.40000
vt 21.27362 62.21254
vt 21.26868 62.00000
vt 21.27309 62.17416
vt 21.27562 62.29856
vt 21.27362 62.21254
vt 21.27591 62.29437
vt 21.27309 62.17416
vt 21.27591 62.29437
vt 21.27362 62.21254
vt 21.27821 62.41004
vt 21.27798 62.40000
vt 21.27838 62.40000
vt 21.28244 62.57405
vt 21.28773 62.80000
vt 21.28492 62.69845
vt 21.28492 62.69845
vt 21.28773 62.80000
vt 21.28728 62.80000
vt 21.27838 62.40000
vt 21.28244 62.57405
vt 21.27821 62.41004
vt 21.28492 62.69845
vt 21.27821 62.41004
vt 21.28244 62.57405
vt 21.29054 62.94003
vt 21.28728 62.80000
vt 21.28773 62.80000
vt 21.29708 63.20000
vt 21.29659 63.20000
vt 21.29422 63.09834
vt 21.29422 63.09834
vt 21.29179 62.97394
vt 21.29708 63.20000
vt 21.28773 62.80000
vt 21.29139 62.95677
vt 21.29054 62.94003
vt 21.29422 63.09834
vt 21.29054 62.94003
vt 21.29179 62.97394
vt 21.29139 62.95677
vt 21.29179 62.97394
vt 21.29054 62.94003
vt 21.30558 63.56364
vt 21.30505 63.56365
vt 21.30353 63.49824
vt 21.30505 63.56365
vt 21.20561 63.56598
vt 21.20508 63.56598
vt 21.30558 63.56364
vt 21.40555 63.56130
vt 21.40502 63.56133
vt 21.29862 63.28735
vt 21.29708 63.20000
vt 21.30114 63.37383
vt 21.29708 63.20000
vt 21.29862 63.28735
vt 21.29659 63.20000
vt 21.40502 63.56133
vt 21.20561 63.56598
vt 21.30505 63.56365
vt 21.30353 63.49824
vt 21.29862 63.28735
vt 21.30114 63.37383
vt 21.40502 63.56133
vt 21.30505 63.56365
vt 21.30558 63.56364
vt 21.30114 63.37383
vt 21.30558 63.56364
vt 21.30353 63.49824
f 3/3 2/2 1/1
f 6/6 5/5 4/4
f 9/9 8/8 7/7
f 12/12 11/11 10/10
f 15/15 14/14 13/13
f 18/18 17/17 16/16
f 21/21 20/20 19/19
f 24/24 23/23 22/22
f 27/27 26/26 25/25
f 30/30 29/29 28/28
f 33/33 32/32 31/31
f 36/36 35/35 34/34
f 39/39 38/38 37/37
f 42/42 41/41 40/40
f 45/45 44/44 43/43
f 48/48 47/47 46/46
f 51/51 50/50 49/49
f 54/54 53/53 52/52
f 57/57 56/56 55/55
f 60/60 59/59 58/58
f 63/63 62/62 61/61
f 66/66 65/65 64/64
f 69/69 68/68 67/67
f 72/72 71/71 70/70
f 75/75 74/74 73/73
f 78/78 77/77 76/76
f 81/81 80/80 79/79
f 84/84 83/83 82/82
f 87/87 86/86 85/85
f 90/90 89/89 88/88
f 93/93 92/92 91/91
f 96/96 95/95 94/94
f 99/99 98/98 97/97
f 102/102 101/101 100/100
f 105/105 104/104 103/103
f 108/108 107/107 106/106
f 111/111 110/110 109/109
f 114/114 113/113 112/112
f 117/117 116/116 115/115
f 120/120 119/119 118/118
f 123/123 122/122 121/121
f 126/126 125/125 124/124
f 129/129 128/128 127/127
f 132/132 131/131 130/130
f 135/135 134/134 133/133
f 138/138 137/137 136/136
f 141/141 140/140 139/139
f 144/144 143/143 142/142
f 147/147 146/146 145/145
f 150/150 149/149 148/148
f 153/153 152/152 151/151
f 156/156 155/155 154/154
f 159/159 158/158 157/157
f 162/162 161/161 160/160
f 165/165 164/164 163/163
f 168/168 167/167 166/166
f 171/171 170/170 169/169
f 174/174 173/173 172/172
f 177/177 176/176 175/175
f 180/180 179/179 178/178
f 183/183 182/182 181/181
f 186/186 185/185 184/184
f 189/189 188/188 187/187
f 192/192 191/191 190/190
f 195/195 194/194 193/193
f 198/198 197/197 196/196
f 201/201 200/200 199/199
f 204/204 203/203 202/202
f 207/207 206/206 205/205
f 210/210 209/209 208/208
f 213/213 212/212 211/211
f 216/216 215/215 214/214
f 219/219 218/218 217/217
f 222/222 221/221 220/220
f 225/225 224/224 223/223
f 228/228 227/227 226/226
f 231/231 230/230 229/229
f 234/234 233/233 232/232
f 237/237 236/236 235/235
f 240/240 239/239 238/238
f 243/243 242/242 241/241
f 246/246 245/245 244/244
f 249/249 248/248 247/247
f 252/252 251/251 250/250
f 255/255 254/254 253/253
f 258/258 257/257 256/256
f 261/261 260/260 259/259
f 264/264 263/263 262/262
f 267/267 266/266 265/265
f 270/270 269/269 268/268
f 273/273 272/272 271/271
f 276/276 275/275 274/274
f 279/279 278/278 277/277
f 282/282 281/281 280/280
f 285/285 284/284 283/283
f 288/288 287/287 286/286
f 291/291 290/290 289/289
f 294/294 293/293 292/292
f 297/297 296/296 295/295
f 300/300 299/299 298/298
f 303/303 302/302 301/301
f 306/306 305/305 304/304
f 309/309 308/308 307/307
f 312/312 311/311 310/310
f 315/315 314/314 313/313
f 318/318 317/317 316/316
f 321/321 320/320 319/319
f 324/324 323/323 322/322
f 327/327 326/326 325/325
f 330/330 329/329 328/328
f 333/333 332/332 331/331
f 336/336 335/335 334/334
f 339/339 338/338 337/337
f 342/342 341/341 340/340
f 345/345 344/344 343/343
f 348/348 347/347 346/346
f 351/351 350/350 349/349
f 354/354 353/353 352/352
f 357/357 356/356 355/355
f 360/360 359/359 358/358
f 363/363 362/362 361/361
f 366/366 365/365 364/364
f 369/369 368/368 367/367
f 372/372 371/371 370/370
f 375/375 374/374 373/373
f 378/378 377/377 376/376
f 381/381 380/380 379/379
f 384/384 383/383 382/382
f 387/387 386/386 385/385
f 390/390 389/389 388/388
f 393/393 392/392 391/391
f 396/396 395/395 394/394
f 399/399 398/398 397/397
f 402/402 401/401 400/400
f 405/405 404/404 403/403
f 408/408 407/407 406/406
f 411/411 410/410 409/409
f 414/414 413/413 412/412
f 417/417 416/416 415/415
f 420/420 419/419 418/418
f 423/423 422/422 421/421
f 426/426 425/425 424/424
f 429/429 428/428 427/427
f 432/432 431/431 430/430
f 435/435 434/434 433/433
f 438/438 437/437 436/436
f 441/441 440/440 439/439
f 444/444 443/443 442/442
f 447/447 446/446 445/445
f 450/450 449/449 448/448
f 453/453 452/452 451/451
f 456/456 455/455 454/454
f 459/459 458/458 457/457
f 462/462 461/461 460/460
f 465/465 464/464 463/463
f 468/468 467/467 466/466
f 471/471 470/470 469/469
f 474/474 473/473 472/472
f 477/477 476/476 475/475
f 480/480 479/479 478/478
f 483/483 482/482 481/481
f 486/486 485/485 484/484
f 489/489 488/488 487/487
f 492/492 491/491 490/490
f 495/495 494/494 493/493
f 498/498 497/497 496/496
f 501/501 500/500 499/499
f 504/504 503/503 502/502
f 507/507 506/506 505/505
f 510/510 509/509 508/508
f 513/513 512/512 511/511
f 516/516 515/515 514/514
f 519/519 518/518 517/517
f 522/522 521/521 520/520
f 525/525 524/524 523/523
f 528/528 527/527 526/526
f 531/531 530/530 529/529
f 534/534 533/533 532/532
f 537/537 536/536 535/535
f 540/540 539/539 538/538
f 543/543 542/542 541/541
f 546/546 545/545 544/544
f 549/549 548/548 547/547
f 552/552 551/551 550/550
f 555/555 554/554 553/553
f 558/558 557/557 556/556
f 561/561 560/560 559/559
f 564/564 563/563 562/562
f 567/567 566/566 565/565
f 570/570 569/569 568/568
f 573/573 572/572 571/571
f 576/576 575/575 574/574
f 579/579 578/578 577/577
f 582/582 581/581 580/580
f 585/585 584/584 583/583
f 588/588 587/587 586/586
f 591/591 590/590 589/589
f 594/594 593/593 592/592
f 597/597 596/596 595/595
f 600/600 599/599 598/598
f 603/603 602/602 601/601
f 606/606 605/605 604/604
f 609/609 608/608 607/607
f 612/612 611/611 610/610
f 615/615 614/614 613/613
f 618/618 617/617 616/616
f 621/621 620/620 619/619
f 624/624 623/623 622/622
f 627/627 626/626 625/625
f 630/630 629/629 628/628
f 633/633 632/632 631/631
f 636/636 635/635 634/634
f 639/639 638/638 637/637
f 642/642 641/641 640/640
f 645/645 644/644 643/643
f 648/648 647/647 646/646
f 651/651 650/650 649/649
f 654/654 653/653 652/652
f 657/657 656/656 655/655
f 660/660 659/659 658/658
f 663/663 662/662 661/661
f 666/666 665/665 664/664
f 669/669 668/668 667/667
f 672/672 671/671 670/670
f 675/675 674/674 673/673
f 678/678 677/677 676/676
f 681/681 680/680 679/679
f 684/684 683/683 682/682
f 687/687 686/686 685/685
f 690/690 689/689 688/688
f 693/693 692/692 691/691
f 696/696 695/695 694/694
f 699/699 698/698 697/697
f 702/702 701/701 700/700
f 705/705 704/704 703/703
f 708/708 707/707 706/706
f 711/711 710/710 709/709
f 714/714 713/713 712/712
f 717/717 716/716 715/715
f 720/720 719/719 718/718
f 723/723 722/722 721/721
f 726/726 725/725 724/724
f 729/729 728/728 727/727
f 732/732 731/731 730/730
f 735/735 734/734 733/733
f 738/738 737/737 736/736
f 741/741 740/740 739/739
f 744/744 743/743 742/742
f 747/747 746/746 745/745
f 750/750 749/749 748/748
f 753/753 752/752 751/751
f 756/756 755/755 754/754
f 759/759 758/758 757/757
f 762/762 761/761 760/760
f 765/765 764/764 763/763
f 768/768 767/767 766/766
f 771/771 770/770 769/769
f 774/774 773/773 772/772
f 777/777 776/776 775/775
f 780/780 779/779 778/778
f 783/783 782/782 781/781
f 786/786 785/785 784/784
f 789/789 788/788 787/787
f 792/792 791/791 790/790
f 795/795 794/794 793/793
f 798/798 797/797 796/796
f 801/801 800/800 799/799
f 804/804 803/803 802/802
f 807/807 806/806 805/805
f 810/810 809/809 808/808
f 813/813 812/812 811/811
f 816/816 815/815 814/814
f 819/819 818/818 817/817
f 822/822 821/821 820/820
f 825/825 824/824 823/823
f 828/828 827/827 826/826
f 831/831 830/830 829/829
f 834/834 833/833 832/832
f 837/837 836/836 835/835
f 840/840 839/839 838/838
f 843/843 842/842 841/841
f 846/846 845/845 844/844
f 849/849 848/848 847/847
f 852/852 851/851 850/850
f 855/855 854/854 853/853
f 858/858 857/857 856/856
f 861/861 860/860 859/859
f 864/864 863/863 862/862
f 867/867 866/866 865/865
f 870/870 869/869 868/868
f 873/873 872/872 871/871
f 876/876 875/875 874/874
f 879/879 878/878 877/877
f 882/882 881/881 880/880
f 885/885 884/884 883/883
f 888/888 887/887 886/886
f 891/891 890/890 889/889
f 894/894 893/893 892/892
f 897/897 896/896 895/895
f 900/900 899/899 898/898
f 903/903 902/902 901/901
f 906/906 905/905 904/904
f 909/909 908/908 907/907
f 912/912 911/911 910/910
f 915/915 914/914 913/913
f 918/918 917/917 916/916
f 921/921 920/920 919/919
f 924/924 923/923 922/922
f 927/927 926/926 925/925
f 930/930 929/929 928/928
f 933/933 932/932 931/931
f 936/936 935/935 934/934
f 939/939 938/938 937/937
f 942/942 941/941 940/940
f 945/945 944/944 943/943
f 948/948 947/947 946/946
f 951/951 950/950 949/949
f 954/954 953/953 952/952
f 957/957 956/956 955/955
f 960/960 959/959 958/958
f 963/963 962/962 961/961
f 966/966 965/965 964/964
f 969/969 968/968 967/967
f 972/972 971/971 970/970
f 975/975 974/974 973/973
f 978/978 977/977 976/976
f 981/981 980/980 979/979
f 984/984 983/983 982/982
f 987/987 986/986 985/985
f 990/990 989/989 988/988
f 993/993 992/992 991/991
f 996/996 995/995 994/994
f 999/999 998/998 997/997
f 1002/1002 1001/1001 1000/1000
f 1005/1005 1004/1004 1003/1003
f 1008/1008 1007/1007 1006/1006
f 1011/1011 1010/1010 1009/1009
f 1014/1014 1013/1013 1012/1012
f 1017/1017 1016/1016 1015/1015
f 1020/1020 1019/1019 1018/1018
f 1023/1023 1022/1022 1021/1021
f 1026/1026 1025/1025 1024/1024
