o RainbowOrange
v -25078.840294 -12541.883397 193.669641
v -25038.895403 -12539.784421 194.524342
v -25036.844131 -12578.821474 196.030519
v -25078.840294 -12541.883397 193.669641
v -25036.844131 -12578.821474 196.030519
v -25076.789022 -12580.920449 195.173470
v -25076.789022 -12580.920449 195.173470
v -25036.844131 -12578.821474 196.030519
v -25034.792859 -12617.858526 197.497495
v -25076.789022 -12580.920449 195.173470
v -25034.792859 -12617.858526 197.497495
v -25074.737750 -12619.957502 196.635080
v -25074.737750 -12619.957502 196.635080
v -25034.792859 -12617.858526 197.497495
v -25032.741588 -12656.895578 198.917983
v -25074.737750 -12619.957502 196.635080
v -25032.741588 -12656.895578 198.917983
v -25072.686478 -12658.994554 198.055568
v -25072.686478 -12658.994554 198.055568
v -25032.741588 -12656.895578 198.917983
v -25030.690316 -12695.932631 200.338471
v -25072.686478 -12658.994554 198.055568
v -25030.690316 -12695.932631 200.338471
v -25070.635207 -12698.031606 199.476056
v -25070.635207 -12698.031606 199.476056
v -25030.690316 -12695.932631 200.338471
v -25028.639044 -12734.969683 201.755954
v -25070.635207 -12698.031606 199.476056
v -25028.639044 -12734.969683 201.755954
v -25068.583935 -12737.068659 200.893117
v -25068.583935 -12737.068659 200.893117
v -25028.639044 -12734.969683 201.755954
v -25026.587772 -12774.006735 203.168604
v -25068.583935 -12737.068659 200.893117
v -25026.587772 -12774.006735 203.168604
v -25066.532663 -12776.105711 202.305767
v -25066.532663 -12776.105711 202.305767
v -25026.587772 -12774.006735 203.168604
v -25024.536501 -12813.043788 204.531745
v -25066.532663 -12776.105711 202.305767
v -25024.536501 -12813.043788 204.531745
v -25064.481391 -12815.142764 203.718417
v -25064.481391 -12815.142764 203.718417
v -25024.536501 -12813.043788 204.531745
v -25022.485229 -12852.080840 205.872644
v -25064.481391 -12815.142764 203.718417
v -25022.485229 -12852.080840 205.872644
v -25062.430120 -12854.179816 205.075466
v -25062.430120 -12854.179816 205.075466
v -25022.485229 -12852.080840 205.872644
v -25020.433957 -12891.117893 207.212665
v -25062.430120 -12854.179816 205.075466
v -25020.433957 -12891.117893 207.212665
v -25060.378848 -12893.216868 206.415487
v -25060.378848 -12893.216868 206.415487
v -25020.433957 -12891.117893 207.212665
v -25018.382685 -12930.154945 208.543765
v -25060.378848 -12893.216868 206.415487
v -25018.382685 -12930.154945 208.543765
v -25058.327576 -12932.253921 207.755508
v -25058.327576 -12932.253921 207.755508
v -25018.382685 -12930.154945 208.543765
v -25016.331413 -12969.191997 209.858432
v -25058.327576 -12932.253921 207.755508
v -25016.331413 -12969.191997 209.858432
v -25056.276304 -12971.290973 209.068725
v -25056.276304 -12971.290973 209.068725
v -25016.331413 -12969.191997 209.858432
v -25014.280142 -13008.229050 211.128235
v -25056.276304 -12971.290973 209.068725
v -25014.280142 -13008.229050 211.128235
v -25054.225032 -13010.328025 210.338528
v -25054.225032 -13010.328025 210.338528
v -25014.280142 -13008.229050 211.128235
v -25012.228870 -13047.266102 212.392692
v -25054.225032 -13010.328025 210.338528
v -25012.228870 -13047.266102 212.392692
v -25052.173761 -13049.365078 211.608330
v -25052.173761 -13049.365078 211.608330
v -25012.228870 -13047.266102 212.392692
v -25010.177598 -13086.303154 213.642547
v -25052.173761 -13049.365078 211.608330
v -25010.177598 -13086.303154 213.642547
v -25050.122489 -13088.402130 212.854059
v -25050.122489 -13088.402130 212.854059
v -25010.177598 -13086.303154 213.642547
v -25008.126326 -13125.340207 214.821367
v -25050.122489 -13088.402130 212.854059
v -25008.126326 -13125.340207 214.821367
v -25048.071217 -13127.439183 214.032880
v -25048.071217 -13127.439183 214.032880
v -25008.126326 -13125.340207 214.821367
v -25006.075055 -13164.377259 216.083306
v -25048.071217 -13127.439183 214.032880
v -25006.075055 -13164.377259 216.083306
v -25046.019945 -13166.476235 215.212691
v -25046.019945 -13166.476235 215.212691
v -25006.075055 -13164.377259 216.083306
v -25004.023783 -13203.414311 217.341440
v -25046.019945 -13166.476235 215.212691
v -25004.023783 -13203.414311 217.341440
v -25043.968674 -13205.513287 216.464769
v -25043.968674 -13205.513287 216.464769
v -25004.023783 -13203.414311 217.341440
v -25001.972511 -13242.451364 218.496896
v -25043.968674 -13205.513287 216.464769
v -25001.972511 -13242.451364 218.496896
v -25041.917402 -13244.550340 217.620130
v -25041.917402 -13244.550340 217.620130
v -25001.972511 -13242.451364 218.496896
v -24999.921239 -13281.488416 219.660475
v -25041.917402 -13244.550340 217.620130
v -24999.921239 -13281.488416 219.660475
v -25039.866130 -13283.587392 218.776234
v -25039.866130 -13283.587392 218.776234
v -24999.921239 -13281.488416 219.660475
v -24997.869967 -13320.525469 220.823412
v -25039.866130 -13283.587392 218.776234
v -24997.869967 -13320.525469 220.823412
v -25037.814858 -13322.624444 219.936607
v -25037.814858 -13322.624444 219.936607
v -24997.869967 -13320.525469 220.823412
v -24995.818696 -13359.562521 221.945628
v -25037.814858 -13322.624444 219.936607
v -24995.818696 -13359.562521 221.945628
v -25035.763587 -13361.661497 221.052499
v -25035.763587 -13361.661497 221.052499
v -24995.818696 -13359.562521 221.945628
v -24993.767424 -13398.599573 223.130923
v -25035.763587 -13361.661497 221.052499
v -24993.767424 -13398.599573 223.130923
v -25033.712315 -13400.698549 222.180191
v -23629.154928 -12475.529412 226.861605
v -23589.185644 -12473.962133 228.007314
v -23587.653985 -12513.023023 229.674029
v -23629.154928 -12475.529412 226.861605
v -23587.653985 -12513.023023 229.674029
v -23627.623269 -12514.590303 228.527830
v -23627.623269 -12514.590303 228.527830
v -23587.653985 -12513.023023 229.674029
v -23586.122326 -12552.083914 231.337662
v -23627.623269 -12514.590303 228.527830
v -23586.122326 -12552.083914 231.337662
v -23626.091609 -12553.651193 230.192660
v -23626.091609 -12553.651193 230.192660
v -23586.122326 -12552.083914 231.337662
v -23584.590667 -12591.144805 232.994341
v -23626.091609 -12553.651193 230.192660
v -23584.590667 -12591.144805 232.994341
v -23624.559950 -12592.712084 231.855853
v -23624.559950 -12592.712084 231.855853
v -23584.590667 -12591.144805 232.994341
v -23583.059007 -12630.205696 234.637912
v -23624.559950 -12592.712084 231.855853
v -23583.059007 -12630.205696 234.637912
v -23623.028291 -12631.772975 233.498744
v -23623.028291 -12631.772975 233.498744
v -23583.059007 -12630.205696 234.637912
v -23581.527348 -12669.266587 236.286533
v -23623.028291 -12631.772975 233.498744
v -23581.527348 -12669.266587 236.286533
v -23621.496632 -12670.833866 235.138472
v -23621.496632 -12670.833866 235.138472
v -23581.527348 -12669.266587 236.286533
v -23579.995689 -12708.327478 237.972906
v -23621.496632 -12670.833866 235.138472
v -23579.995689 -12708.327478 237.972906
v -23619.964973 -12709.894757 236.789610
v -23619.964973 -12709.894757 236.789610
v -23579.995689 -12708.327478 237.972906
v -23578.464030 -12747.388368 239.679545
v -23619.964973 -12709.894757 236.789610
v -23578.464030 -12747.388368 239.679545
v -23618.433313 -12748.955648 238.497408
v -23618.433313 -12748.955648 238.497408
v -23578.464030 -12747.388368 239.679545
v -23576.932371 -12786.449259 241.404988
v -23618.433313 -12748.955648 238.497408
v -23576.932371 -12786.449259 241.404988
v -23616.901654 -12788.016538 240.212683
v -23616.901654 -12788.016538 240.212683
v -23576.932371 -12786.449259 241.404988
v -23575.400711 -12825.510150 243.163631
v -23616.901654 -12788.016538 240.212683
v -23575.400711 -12825.510150 243.163631
v -23615.369995 -12827.077429 241.940467
v -23615.369995 -12827.077429 241.940467
v -23575.400711 -12825.510150 243.163631
v -23573.869052 -12864.571041 244.886544
v -23615.369995 -12827.077429 241.940467
v -23573.869052 -12864.571041 244.886544
v -23613.838336 -12866.138320 243.661100
v -23613.838336 -12866.138320 243.661100
v -23573.869052 -12864.571041 244.886544
v -23572.337393 -12903.631932 246.595925
v -23613.838336 -12866.138320 243.661100
v -23572.337393 -12903.631932 246.595925
v -23612.306677 -12905.199211 245.362943
v -23612.306677 -12905.199211 245.362943
v -23572.337393 -12903.631932 246.595925
v -23570.805734 -12942.692823 248.324860
v -23612.306677 -12905.199211 245.362943
v -23570.805734 -12942.692823 248.324860
v -23610.775018 -12944.260102 247.073785
v -23610.775018 -12944.260102 247.073785
v -23570.805734 -12942.692823 248.324860
v -23569.274075 -12981.753714 250.053776
v -23610.775018 -12944.260102 247.073785
v -23569.274075 -12981.753714 250.053776
v -23609.243358 -12983.320993 248.802700
v -23609.243358 -12983.320993 248.802700
v -23569.274075 -12981.753714 250.053776
v -23567.742415 -13020.814604 251.803375
v -23609.243358 -12983.320993 248.802700
v -23567.742415 -13020.814604 251.803375
v -23607.711699 -13022.381884 250.531601
v -23607.711699 -13022.381884 250.531601
v -23567.742415 -13020.814604 251.803375
v -23566.210756 -13059.875495 253.596548
v -23607.711699 -13022.381884 250.531601
v -23566.210756 -13059.875495 253.596548
v -23606.180040 -13061.442774 252.284668
v -23606.180040 -13061.442774 252.284668
v -23566.210756 -13059.875495 253.596548
v -23564.679097 -13098.936386 255.359758
v -23606.180040 -13061.442774 252.284668
v -23564.679097 -13098.936386 255.359758
v -23604.648381 -13100.503665 254.045398
v -23604.648381 -13100.503665 254.045398
v -23564.679097 -13098.936386 255.359758
v -23563.147438 -13137.997277 257.128594
v -23604.648381 -13100.503665 254.045398
v -23563.147438 -13137.997277 257.128594
v -23603.116722 -13139.564556 255.776763
v -23603.116722 -13139.564556 255.776763
v -23563.147438 -13137.997277 257.128594
v -23561.615779 -13177.058168 258.962387
v -23603.116722 -13139.564556 255.776763
v -23561.615779 -13177.058168 258.962387
v -23601.585062 -13178.625447 257.551127
v -23601.585062 -13178.625447 257.551127
v -23561.615779 -13177.058168 258.962387
v -23560.084120 -13216.119059 260.775181
v -23601.585062 -13178.625447 257.551127
v -23560.084120 -13216.119059 260.775181
v -23600.053403 -13217.686338 259.361879
v -23600.053403 -13217.686338 259.361879
v -23560.084120 -13216.119059 260.775181
v -23558.552460 -13255.179949 262.566653
v -23600.053403 -13217.686338 259.361879
v -23558.552460 -13255.179949 262.566653
v -23598.521744 -13256.747229 261.144787
v -23598.521744 -13256.747229 261.144787
v -23558.552460 -13255.179949 262.566653
v -23557.020801 -13294.240840 264.370470
v -23598.521744 -13256.747229 261.144787
v -23557.020801 -13294.240840 264.370470
v -23596.990085 -13295.808119 262.937387
v -23596.990085 -13295.808119 262.937387
v -23557.020801 -13294.240840 264.370470
v -23555.489142 -13333.301731 266.151189
v -23596.990085 -13295.808119 262.937387
v -23555.489142 -13333.301731 266.151189
v -23595.458426 -13334.869010 264.715385
v -23879.190975 -11981.236791 196.891209
v -23887.678826 -12020.325873 198.969544
v -23926.767909 -12011.838022 196.759434
v -23879.190975 -11981.236791 196.891209
v -23926.767909 -12011.838022 196.759434
v -23918.280058 -11972.748940 194.681092
v -23918.280058 -11972.748940 194.681092
v -23926.767909 -12011.838022 196.759434
v -23965.856992 -12003.350172 194.803280
v -23918.280058 -11972.748940 194.681092
v -23965.856992 -12003.350172 194.803280
v -23957.369141 -11964.261089 192.671852
v -23957.369141 -11964.261089 192.671852
v -23965.856992 -12003.350172 194.803280
v -24004.946074 -11994.862321 193.170785
v -23957.369141 -11964.261089 192.671852
v -24004.946074 -11994.862321 193.170785
v -23996.458223 -11955.773238 190.973074
v -23996.458223 -11955.773238 190.973074
v -24004.946074 -11994.862321 193.170785
v -24044.035157 -11986.374470 192.472118
v -23996.458223 -11955.773238 190.973074
v -24044.035157 -11986.374470 192.472118
v -24035.547306 -11947.285387 190.249928
v -24035.547306 -11947.285387 190.249928
v -24044.035157 -11986.374470 192.472118
v -24083.124240 -11977.886619 192.150011
v -24035.547306 -11947.285387 190.249928
v -24083.124240 -11977.886619 192.150011
v -24074.636389 -11938.797536 190.141818
v -24074.636389 -11938.797536 190.141818
v -24083.124240 -11977.886619 192.150011
v -24122.213322 -11969.398768 191.722506
v -24074.636389 -11938.797536 190.141818
v -24122.213322 -11969.398768 191.722506
v -24113.725472 -11930.309685 189.771202
v -24113.725472 -11930.309685 189.771202
v -24122.213322 -11969.398768 191.722506
v -24161.302405 -11960.910917 191.124076
v -24113.725472 -11930.309685 189.771202
v -24161.302405 -11960.910917 191.124076
v -24152.814554 -11921.821835 189.391222
v -24152.814554 -11921.821835 189.391222
v -24161.302405 -11960.910917 191.124076
v -24200.391488 -11952.423066 190.275206
v -24152.814554 -11921.821835 189.391222
v -24200.391488 -11952.423066 190.275206
v -24191.903637 -11913.333984 188.661893
v -24191.903637 -11913.333984 188.661893
v -24200.391488 -11952.423066 190.275206
v -24239.480571 -11943.935216 189.269656
v -24191.903637 -11913.333984 188.661893
v -24239.480571 -11943.935216 189.269656
v -24230.992720 -11904.846133 187.755813
v -24230.992720 -11904.846133 187.755813
v -24239.480571 -11943.935216 189.269656
v -24278.569653 -11935.447365 188.137384
v -24230.992720 -11904.846133 187.755813
v -24278.569653 -11935.447365 188.137384
v -24270.081802 -11896.358282 186.621105
v -24270.081802 -11896.358282 186.621105
v -24278.569653 -11935.447365 188.137384
v -24317.658736 -11926.959514 186.812726
v -24270.081802 -11896.358282 186.621105
v -24317.658736 -11926.959514 186.812726
v -24309.170885 -11887.870431 185.252192
v -24309.170885 -11887.870431 185.252192
v -24317.658736 -11926.959514 186.812726
v -24356.747819 -11918.471663 185.640386
v -24309.170885 -11887.870431 185.252192
v -24356.747819 -11918.471663 185.640386
v -24348.259968 -11879.382580 184.180329
v -24348.259968 -11879.382580 184.180329
v -24356.747819 -11918.471663 185.640386
v -24395.836901 -11909.983812 185.554995
v -24348.259968 -11879.382580 184.180329
v -24395.836901 -11909.983812 185.554995
v -24387.349051 -11870.894729 184.248815
v -24387.349051 -11870.894729 184.248815
v -24395.836901 -11909.983812 185.554995
v -24434.925984 -11901.495961 185.911021
v -24387.349051 -11870.894729 184.248815
v -24434.925984 -11901.495961 185.911021
v -24426.438133 -11862.406879 184.782392
v -24269.313994 -13830.117745 258.705980
v -24277.651238 -13869.239227 259.460272
v -24316.772720 -13860.901983 257.818981
v -24269.313994 -13830.117745 258.705980
v -24316.772720 -13860.901983 257.818981
v -24308.435476 -13821.780501 256.884681
v -24308.435476 -13821.780501 256.884681
v -24316.772720 -13860.901983 257.818981
v -24355.894202 -13852.564739 256.030261
v -24308.435476 -13821.780501 256.884681
v -24355.894202 -13852.564739 256.030261
v -24347.556958 -13813.443256 255.146548
v -24347.556958 -13813.443256 255.146548
v -24355.894202 -13852.564739 256.030261
v -24395.015684 -13844.227494 254.389862
v -24347.556958 -13813.443256 255.146548
v -24395.015684 -13844.227494 254.389862
v -24386.678440 -13805.106012 253.502546
v -24386.678440 -13805.106012 253.502546
v -24395.015684 -13844.227494 254.389862
v -24434.137166 -13835.890250 252.786529
v -24386.678440 -13805.106012 253.502546
v -24434.137166 -13835.890250 252.786529
v -24425.799922 -13796.768768 251.739647
v -24425.799922 -13796.768768 251.739647
v -24434.137166 -13835.890250 252.786529
v -24473.258649 -13827.553006 251.153412
v -24425.799922 -13796.768768 251.739647
v -24473.258649 -13827.553006 251.153412
v -24464.921404 -13788.431524 250.071164
v -24464.921404 -13788.431524 250.071164
v -24473.258649 -13827.553006 251.153412
v -24512.380131 -13819.215762 249.484930
v -24464.921404 -13788.431524 250.071164
v -24512.380131 -13819.215762 249.484930
v -24504.042887 -13780.094280 248.446134
v -24504.042887 -13780.094280 248.446134
v -24512.380131 -13819.215762 249.484930
v -24551.501613 -13810.878518 247.896474
v -24504.042887 -13780.094280 248.446134
v -24551.501613 -13810.878518 247.896474
v -24543.164369 -13771.757036 246.963042
v -24543.164369 -13771.757036 246.963042
v -24551.501613 -13810.878518 247.896474
v -24590.623095 -13802.541274 246.260599
v -24543.164369 -13771.757036 246.963042
v -24590.623095 -13802.541274 246.260599
v -24582.285851 -13763.419792 245.331162
v -24582.285851 -13763.419792 245.331162
v -24590.623095 -13802.541274 246.260599
v -24629.744577 -13794.204030 244.698493
v -24582.285851 -13763.419792 245.331162
v -24629.744577 -13794.204030 244.698493
v -24621.407333 -13755.082548 243.774037
v -24621.407333 -13755.082548 243.774037
v -24629.744577 -13794.204030 244.698493
v -24668.866059 -13785.866786 243.215392
v -24621.407333 -13755.082548 243.774037
v -24668.866059 -13785.866786 243.215392
v -24660.528815 -13746.745303 242.319750
v -24660.528815 -13746.745303 242.319750
v -24668.866059 -13785.866786 243.215392
v -24707.987541 -13777.529541 241.682166
v -24660.528815 -13746.745303 242.319750
v -24707.987541 -13777.529541 241.682166
v -24699.650297 -13738.408059 240.770285
v -24699.650297 -13738.408059 240.770285
v -24707.987541 -13777.529541 241.682166
v -24747.109023 -13769.192297 240.231641
v -24699.650297 -13738.408059 240.770285
v -24747.109023 -13769.192297 240.231641
v -24738.771779 -13730.070815 239.401287
v -24738.771779 -13730.070815 239.401287
v -24747.109023 -13769.192297 240.231641
v -24786.230505 -13760.855053 238.781154
v -24738.771779 -13730.070815 239.401287
v -24786.230505 -13760.855053 238.781154
v -24777.893261 -13721.733571 237.971942
v -24777.893261 -13721.733571 237.971942
v -24786.230505 -13760.855053 238.781154
v -24825.351987 -13752.517809 237.330625
v -24777.893261 -13721.733571 237.971942
v -24825.351987 -13752.517809 237.330625
v -24817.014743 -13713.396327 236.521433
vt -250.788403 125.418834
vt -250.388954 125.397844
vt -250.368441 125.788215
vt -250.788403 125.418834
vt -250.368441 125.788215
vt -250.767890 125.809204
vt -250.767890 125.809204
vt -250.368441 125.788215
vt -250.347929 126.178585
vt -250.767890 125.809204
vt -250.347929 126.178585
vt -250.747378 126.199575
vt -250.747378 126.199575
vt -250.347929 126.178585
vt -250.327416 126.568956
vt -250.747378 126.199575
vt -250.327416 126.568956
vt -250.726865 126.589946
vt -250.726865 126.589946
vt -250.327416 126.568956
vt -250.306903 126.959326
vt -250.726865 126.589946
vt -250.306903 126.959326
vt -250.706352 126.980316
vt -250.706352 126.980316
vt -250.306903 126.959326
vt -250.286390 127.349697
vt -250.706352 126.980316
vt -250.286390 127.349697
vt -250.685839 127.370687
vt -250.685839 127.370687
vt -250.286390 127.349697
vt -250.265878 127.740067
vt -250.685839 127.370687
vt -250.265878 127.740067
vt -250.665327 127.761057
vt -250.665327 127.761057
vt -250.265878 127.740067
vt -250.245365 128.130438
vt -250.665327 127.761057
vt -250.245365 128.130438
vt -250.644814 128.151428
vt -250.644814 128.151428
vt -250.245365 128.130438
vt -250.224852 128.520808
vt -250.644814 128.151428
vt -250.224852 128.520808
vt -250.624301 128.541798
vt -250.624301 128.541798
vt -250.224852 128.520808
vt -250.204340 128.911179
vt -250.624301 128.541798
vt -250.204340 128.911179
vt -250.603788 128.932169
vt -250.603788 128.932169
vt -250.204340 128.911179
vt -250.183827 129.301549
vt -250.603788 128.932169
vt -250.183827 129.301549
vt -250.583276 129.322539
vt -250.583276 129.322539
vt -250.183827 129.301549
vt -250.163314 129.691920
vt -250.583276 129.322539
vt -250.163314 129.691920
vt -250.562763 129.712910
vt -250.562763 129.712910
vt -250.163314 129.691920
vt -250.142801 130.082290
vt -250.562763 129.712910
vt -250.142801 130.082290
vt -250.542250 130.103280
vt -250.542250 130.103280
vt -250.142801 130.082290
vt -250.122289 130.472661
vt -250.542250 130.103280
vt -250.122289 130.472661
vt -250.521738 130.493651
vt -250.521738 130.493651
vt -250.122289 130.472661
vt -250.101776 130.863032
vt -250.521738 130.493651
vt -250.101776 130.863032
vt -250.501225 130.884021
vt -250.501225 130.884021
vt -250.101776 130.863032
vt -250.081263 131.253402
vt -250.501225 130.884021
vt -250.081263 131.253402
vt -250.480712 131.274392
vt -250.480712 131.274392
vt -250.081263 131.253402
vt -250.060751 131.643773
vt -250.480712 131.274392
vt -250.060751 131.643773
vt -250.460199 131.664762
vt -250.460199 131.664762
vt -250.060751 131.643773
vt -250.040238 132.034143
vt -250.460199 131.664762
vt -250.040238 132.034143
vt -250.439687 132.055133
vt -250.439687 132.055133
vt -250.040238 132.034143
vt -250.019725 132.424514
vt -250.439687 132.055133
vt -250.019725 132.424514
vt -250.419174 132.445503
vt -250.419174 132.445503
vt -250.019725 132.424514
vt -249.999212 132.814884
vt -250.419174 132.445503
vt -249.999212 132.814884
vt -250.398661 132.835874
vt -250.398661 132.835874
vt -249.999212 132.814884
vt -249.978700 133.205255
vt -250.398661 132.835874
vt -249.978700 133.205255
vt -250.378149 133.226244
vt -250.378149 133.226244
vt -249.978700 133.205255
vt -249.958187 133.595625
vt -250.378149 133.226244
vt -249.958187 133.595625
vt -250.357636 133.616615
vt -250.357636 133.616615
vt -249.958187 133.595625
vt -249.937674 133.985996
vt -250.357636 133.616615
vt -249.937674 133.985996
vt -250.337123 134.006985
vt -236.291549 124.755294
vt -235.891856 124.739621
vt -235.876540 125.130230
vt -236.291549 124.755294
vt -235.876540 125.130230
vt -236.276233 125.145903
vt -236.276233 125.145903
vt -235.876540 125.130230
vt -235.861223 125.520839
vt -236.276233 125.145903
vt -235.861223 125.520839
vt -236.260916 125.536512
vt -236.260916 125.536512
vt -235.861223 125.520839
vt -235.845907 125.911448
vt -236.260916 125.536512
vt -235.845907 125.911448
vt -236.245600 125.927121
vt -236.245600 125.927121
vt -235.845907 125.911448
vt -235.830590 126.302057
vt -236.245600 125.927121
vt -235.830590 126.302057
vt -236.230283 126.317730
vt -236.230283 126.317730
vt -235.830590 126.302057
vt -235.815273 126.692666
vt -236.230283 126.317730
vt -235.815273 126.692666
vt -236.214966 126.708339
vt -236.214966 126.708339
vt -235.815273 126.692666
vt -235.799957 127.083275
vt -236.214966 126.708339
vt -235.799957 127.083275
vt -236.199650 127.098948
vt -236.199650 127.098948
vt -235.799957 127.083275
vt -235.784640 127.473884
vt -236.199650 127.098948
vt -235.784640 127.473884
vt -236.184333 127.489556
vt -236.184333 127.489556
vt -235.784640 127.473884
vt -235.769324 127.864493
vt -236.184333 127.489556
vt -235.769324 127.864493
vt -236.169017 127.880165
vt -236.169017 127.880165
vt -235.769324 127.864493
vt -235.754007 128.255102
vt -236.169017 127.880165
vt -235.754007 128.255102
vt -236.153700 128.270774
vt -236.153700 128.270774
vt -235.754007 128.255102
vt -235.738691 128.645710
vt -236.153700 128.270774
vt -235.738691 128.645710
vt -236.138383 128.661383
vt -236.138383 128.661383
vt -235.738691 128.645710
vt -235.723374 129.036319
vt -236.138383 128.661383
vt -235.723374 129.036319
vt -236.123067 129.051992
vt -236.123067 129.051992
vt -235.723374 129.036319
vt -235.708057 129.426928
vt -236.123067 129.051992
vt -235.708057 129.426928
vt -236.107750 129.442601
vt -236.107750 129.442601
vt -235.708057 129.426928
vt -235.692741 129.817537
vt -236.107750 129.442601
vt -235.692741 129.817537
vt -236.092434 129.833210
vt -236.092434 129.833210
vt -235.692741 129.817537
vt -235.677424 130.208146
vt -236.092434 129.833210
vt -235.677424 130.208146
vt -236.077117 130.223819
vt -236.077117 130.223819
vt -235.677424 130.208146
vt -235.662108 130.598755
vt -236.077117 130.223819
vt -235.662108 130.598755
vt -236.061800 130.614428
vt -236.061800 130.614428
vt -235.662108 130.598755
vt -235.646791 130.989364
vt -236.061800 130.614428
vt -235.646791 130.989364
vt -236.046484 131.005037
vt -236.046484 131.005037
vt -235.646791 130.989364
vt -235.631474 131.379973
vt -236.046484 131.005037
vt -235.631474 131.379973
vt -236.031167 131.395646
vt -236.031167 131.395646
vt -235.631474 131.379973
vt -235.616158 131.770582
vt -236.031167 131.395646
vt -235.616158 131.770582
vt -236.015851 131.786254
vt -236.015851 131.786254
vt -235.616158 131.770582
vt -235.600841 132.161191
vt -236.015851 131.786254
vt -235.600841 132.161191
vt -236.000534 132.176863
vt -236.000534 132.176863
vt -235.600841 132.161191
vt -235.585525 132.551799
vt -236.000534 132.176863
vt -235.585525 132.551799
vt -235.985217 132.567472
vt -235.985217 132.567472
vt -235.585525 132.551799
vt -235.570208 132.942408
vt -235.985217 132.567472
vt -235.570208 132.942408
vt -235.969901 132.958081
vt -235.969901 132.958081
vt -235.570208 132.942408
vt -235.554891 133.333017
vt -235.969901 132.958081
vt -235.554891 133.333017
vt -235.954584 133.348690
vt -238.791910 119.812368
vt -238.876788 120.203259
vt -239.267679 120.118380
vt -238.791910 119.812368
vt -239.267679 120.118380
vt -239.182801 119.727489
vt -239.182801 119.727489
vt -239.267679 120.118380
vt -239.658570 120.033502
vt -239.182801 119.727489
vt -239.658570 120.033502
vt -239.573691 119.642611
vt -239.573691 119.642611
vt -239.658570 120.033502
vt -240.049461 119.948623
vt -239.573691 119.642611
vt -240.049461 119.948623
vt -239.964582 119.557732
vt -239.964582 119.557732
vt -240.049461 119.948623
vt -240.440352 119.863745
vt -239.964582 119.557732
vt -240.440352 119.863745
vt -240.355473 119.472854
vt -240.355473 119.472854
vt -240.440352 119.863745
vt -240.831242 119.778866
vt -240.355473 119.472854
vt -240.831242 119.778866
vt -240.746364 119.387975
vt -240.746364 119.387975
vt -240.831242 119.778866
vt -241.222133 119.693988
vt -240.746364 119.387975
vt -241.222133 119.693988
vt -241.137255 119.303097
vt -241.137255 119.303097
vt -241.222133 119.693988
vt -241.613024 119.609109
vt -241.137255 119.303097
vt -241.613024 119.609109
vt -241.528146 119.218218
vt -241.528146 119.218218
vt -241.613024 119.609109
vt -242.003915 119.524231
vt -241.528146 119.218218
vt -242.003915 119.524231
vt -241.919036 119.133340
vt -241.919036 119.133340
vt -242.003915 119.524231
vt -242.394806 119.439352
vt -241.919036 119.133340
vt -242.394806 119.439352
vt -242.309927 119.048461
vt -242.309927 119.048461
vt -242.394806 119.439352
vt -242.785697 119.354474
vt -242.309927 119.048461
vt -242.785697 119.354474
vt -242.700818 118.963583
vt -242.700818 118.963583
vt -242.785697 119.354474
vt -243.176587 119.269595
vt -242.700818 118.963583
vt -243.176587 119.269595
vt -243.091709 118.878704
vt -243.091709 118.878704
vt -243.176587 119.269595
vt -243.567478 119.184717
vt -243.091709 118.878704
vt -243.567478 119.184717
vt -243.482600 118.793826
vt -243.482600 118.793826
vt -243.567478 119.184717
vt -243.958369 119.099838
vt -243.482600 118.793826
vt -243.958369 119.099838
vt -243.873491 118.708947
vt -243.873491 118.708947
vt -243.958369 119.099838
vt -244.349260 119.014960
vt -243.873491 118.708947
vt -244.349260 119.014960
vt -244.264381 118.624069
vt -242.693140 138.301177
vt -242.776512 138.692392
vt -243.167727 138.609020
vt -242.693140 138.301177
vt -243.167727 138.609020
vt -243.084355 138.217805
vt -243.084355 138.217805
vt -243.167727 138.609020
vt -243.558942 138.525647
vt -243.084355 138.217805
vt -243.558942 138.525647
vt -243.475570 138.134433
vt -243.475570 138.134433
vt -243.558942 138.525647
vt -243.950157 138.442275
vt -243.475570 138.134433
vt -243.950157 138.442275
vt -243.866784 138.051060
vt -243.866784 138.051060
vt -243.950157 138.442275
vt -244.341372 138.358903
vt -243.866784 138.051060
vt -244.341372 138.358903
vt -244.257999 137.967688
vt -244.257999 137.967688
vt -244.341372 138.358903
vt -244.732586 138.275530
vt -244.257999 137.967688
vt -244.732586 138.275530
vt -244.649214 137.884315
vt -244.649214 137.884315
vt -244.732586 138.275530
vt -245.123801 138.192158
vt -244.649214 137.884315
vt -245.123801 138.192158
vt -245.040429 137.800943
vt -245.040429 137.800943
vt -245.123801 138.192158
vt -245.515016 138.108785
vt -245.040429 137.800943
vt -245.515016 138.108785
vt -245.431644 137.717570
vt -245.431644 137.717570
vt -245.515016 138.108785
vt -245.906231 138.025413
vt -245.431644 137.717570
vt -245.906231 138.025413
vt -245.822859 137.634198
vt -245.822859 137.634198
vt -245.906231 138.025413
vt -246.297446 137.942040
vt -245.822859 137.634198
vt -246.297446 137.942040
vt -246.214073 137.550825
vt -246.214073 137.550825
vt -246.297446 137.942040
vt -246.688661 137.858668
vt -246.214073 137.550825
vt -246.688661 137.858668
vt -246.605288 137.467453
vt -246.605288 137.467453
vt -246.688661 137.858668
vt -247.079875 137.775295
vt -246.605288 137.467453
vt -247.079875 137.775295
vt -246.996503 137.384081
vt -246.996503 137.384081
vt -247.079875 137.775295
vt -247.471090 137.691923
vt -246.996503 137.384081
vt -247.471090 137.691923
vt -247.387718 137.300708
vt -247.387718 137.300708
vt -247.471090 137.691923
vt -247.862305 137.608551
vt -247.387718 137.300708
vt -247.862305 137.608551
vt -247.778933 137.217336
vt -247.778933 137.217336
vt -247.862305 137.608551
vt -248.253520 137.525178
vt -247.778933 137.217336
vt -248.253520 137.525178
vt -248.170147 137.133963
f 3/3 2/2 1/1
f 6/6 5/5 4/4
f 9/9 8/8 7/7
f 12/12 11/11 10/10
f 15/15 14/14 13/13
f 18/18 17/17 16/16
f 21/21 20/20 19/19
f 24/24 23/23 22/22
f 27/27 26/26 25/25
f 30/30 29/29 28/28
f 33/33 32/32 31/31
f 36/36 35/35 34/34
f 39/39 38/38 37/37
f 42/42 41/41 40/40
f 45/45 44/44 43/43
f 48/48 47/47 46/46
f 51/51 50/50 49/49
f 54/54 53/53 52/52
f 57/57 56/56 55/55
f 60/60 59/59 58/58
f 63/63 62/62 61/61
f 66/66 65/65 64/64
f 69/69 68/68 67/67
f 72/72 71/71 70/70
f 75/75 74/74 73/73
f 78/78 77/77 76/76
f 81/81 80/80 79/79
f 84/84 83/83 82/82
f 87/87 86/86 85/85
f 90/90 89/89 88/88
f 93/93 92/92 91/91
f 96/96 95/95 94/94
f 99/99 98/98 97/97
f 102/102 101/101 100/100
f 105/105 104/104 103/103
f 108/108 107/107 106/106
f 111/111 110/110 109/109
f 114/114 113/113 112/112
f 117/117 116/116 115/115
f 120/120 119/119 118/118
f 123/123 122/122 121/121
f 126/126 125/125 124/124
f 129/129 128/128 127/127
f 132/132 131/131 130/130
f 135/135 134/134 133/133
f 138/138 137/137 136/136
f 141/141 140/140 139/139
f 144/144 143/143 142/142
f 147/147 146/146 145/145
f 150/150 149/149 148/148
f 153/153 152/152 151/151
f 156/156 155/155 154/154
f 159/159 158/158 157/157
f 162/162 161/161 160/160
f 165/165 164/164 163/163
f 168/168 167/167 166/166
f 171/171 170/170 169/169
f 174/174 173/173 172/172
f 177/177 176/176 175/175
f 180/180 179/179 178/178
f 183/183 182/182 181/181
f 186/186 185/185 184/184
f 189/189 188/188 187/187
f 192/192 191/191 190/190
f 195/195 194/194 193/193
f 198/198 197/197 196/196
f 201/201 200/200 199/199
f 204/204 203/203 202/202
f 207/207 206/206 205/205
f 210/210 209/209 208/208
f 213/213 212/212 211/211
f 216/216 215/215 214/214
f 219/219 218/218 217/217
f 222/222 221/221 220/220
f 225/225 224/224 223/223
f 228/228 227/227 226/226
f 231/231 230/230 229/229
f 234/234 233/233 232/232
f 237/237 236/236 235/235
f 240/240 239/239 238/238
f 243/243 242/242 241/241
f 246/246 245/245 244/244
f 249/249 248/248 247/247
f 252/252 251/251 250/250
f 255/255 254/254 253/253
f 258/258 257/257 256/256
f 261/261 260/260 259/259
f 264/264 263/263 262/262
f 267/267 266/266 265/265
f 270/270 269/269 268/268
f 273/273 272/272 271/271
f 276/276 275/275 274/274
f 279/279 278/278 277/277
f 282/282 281/281 280/280
f 285/285 284/284 283/283
f 288/288 287/287 286/286
f 291/291 290/290 289/289
f 294/294 293/293 292/292
f 297/297 296/296 295/295
f 300/300 299/299 298/298
f 303/303 302/302 301/301
f 306/306 305/305 304/304
f 309/309 308/308 307/307
f 312/312 311/311 310/310
f 315/315 314/314 313/313
f 318/318 317/317 316/316
f 321/321 320/320 319/319
f 324/324 323/323 322/322
f 327/327 326/326 325/325
f 330/330 329/329 328/328
f 333/333 332/332 331/331
f 336/336 335/335 334/334
f 339/339 338/338 337/337
f 342/342 341/341 340/340
f 345/345 344/344 343/343
f 348/348 347/347 346/346
f 351/351 350/350 349/349
f 354/354 353/353 352/352
f 357/357 356/356 355/355
f 360/360 359/359 358/358
f 363/363 362/362 361/361
f 366/366 365/365 364/364
f 369/369 368/368 367/367
f 372/372 371/371 370/370
f 375/375 374/374 373/373
f 378/378 377/377 376/376
f 381/381 380/380 379/379
f 384/384 383/383 382/382
f 387/387 386/386 385/385
f 390/390 389/389 388/388
f 393/393 392/392 391/391
f 396/396 395/395 394/394
f 399/399 398/398 397/397
f 402/402 401/401 400/400
f 405/405 404/404 403/403
f 408/408 407/407 406/406
f 411/411 410/410 409/409
f 414/414 413/413 412/412
f 417/417 416/416 415/415
f 420/420 419/419 418/418
f 423/423 422/422 421/421
f 426/426 425/425 424/424
f 429/429 428/428 427/427
f 432/432 431/431 430/430
