o RainbowBlue
v -24959.005621 -12535.586470 196.234931
v -24919.060731 -12533.487494 197.089140
v -24917.009459 -12572.524546 198.600374
v -24959.005621 -12535.586470 196.234931
v -24917.009459 -12572.524546 198.600374
v -24956.954350 -12574.623522 197.743925
v -24956.954350 -12574.623522 197.743925
v -24917.009459 -12572.524546 198.600374
v -24914.958187 -12611.561599 200.084742
v -24956.954350 -12574.623522 197.743925
v -24914.958187 -12611.561599 200.084742
v -24954.903078 -12613.660574 199.222326
v -24954.903078 -12613.660574 199.222326
v -24914.958187 -12611.561599 200.084742
v -24912.906915 -12650.598651 201.505230
v -24954.903078 -12613.660574 199.222326
v -24912.906915 -12650.598651 201.505230
v -24952.851806 -12652.697627 200.642814
v -24952.851806 -12652.697627 200.642814
v -24912.906915 -12650.598651 201.505230
v -24910.855643 -12689.635703 202.925718
v -24952.851806 -12652.697627 200.642814
v -24910.855643 -12689.635703 202.925718
v -24950.800534 -12691.734679 202.063302
v -24950.800534 -12691.734679 202.063302
v -24910.855643 -12689.635703 202.925718
v -24908.804372 -12728.672756 204.329402
v -24950.800534 -12691.734679 202.063302
v -24908.804372 -12728.672756 204.329402
v -24948.749262 -12730.771732 203.462920
v -24948.749262 -12730.771732 203.462920
v -24908.804372 -12728.672756 204.329402
v -24906.753100 -12767.709808 205.674257
v -24948.749262 -12730.771732 203.462920
v -24906.753100 -12767.709808 205.674257
v -24946.697991 -12769.808784 204.807774
v -24946.697991 -12769.808784 204.807774
v -24906.753100 -12767.709808 205.674257
v -24904.701828 -12806.746860 207.013967
v -24946.697991 -12769.808784 204.807774
v -24904.701828 -12806.746860 207.013967
v -24944.646719 -12808.845836 206.152629
v -24944.646719 -12808.845836 206.152629
v -24904.701828 -12806.746860 207.013967
v -24902.650556 -12845.783913 208.348771
v -24944.646719 -12808.845836 206.152629
v -24902.650556 -12845.783913 208.348771
v -24942.595447 -12847.882889 207.490952
v -24942.595447 -12847.882889 207.490952
v -24902.650556 -12845.783913 208.348771
v -24900.599285 -12884.820965 209.680916
v -24942.595447 -12847.882889 207.490952
v -24900.599285 -12884.820965 209.680916
v -24940.544175 -12886.919941 208.823097
v -24940.544175 -12886.919941 208.823097
v -24900.599285 -12884.820965 209.680916
v -24898.548013 -12923.858018 211.018967
v -24940.544175 -12886.919941 208.823097
v -24898.548013 -12923.858018 211.018967
v -24938.492904 -12925.956993 210.155242
v -24938.492904 -12925.956993 210.155242
v -24898.548013 -12923.858018 211.018967
v -24896.496741 -12962.895070 212.355229
v -24938.492904 -12925.956993 210.155242
v -24896.496741 -12962.895070 212.355229
v -24936.441632 -12964.994046 211.484614
v -24936.441632 -12964.994046 211.484614
v -24896.496741 -12962.895070 212.355229
v -24894.445469 -13001.932122 213.623214
v -24936.441632 -12964.994046 211.484614
v -24894.445469 -13001.932122 213.623214
v -24934.390360 -13004.031098 212.752599
v -24934.390360 -13004.031098 212.752599
v -24894.445469 -13001.932122 213.623214
v -24892.394197 -13040.969175 214.891198
v -24934.390360 -13004.031098 212.752599
v -24892.394197 -13040.969175 214.891198
v -24932.339088 -13043.068150 214.020583
v -24932.339088 -13043.068150 214.020583
v -24892.394197 -13040.969175 214.891198
v -24890.342926 -13080.006227 216.159183
v -24932.339088 -13043.068150 214.020583
v -24890.342926 -13080.006227 216.159183
v -24930.287817 -13082.105203 215.288568
v -24930.287817 -13082.105203 215.288568
v -24890.342926 -13080.006227 216.159183
v -24888.291654 -13119.043279 217.427168
v -24930.287817 -13082.105203 215.288568
v -24888.291654 -13119.043279 217.427168
v -24928.236545 -13121.142255 216.556552
v -24928.236545 -13121.142255 216.556552
v -24888.291654 -13119.043279 217.427168
v -24886.240382 -13158.080332 218.695152
v -24928.236545 -13121.142255 216.556552
v -24886.240382 -13158.080332 218.695152
v -24926.185273 -13160.179308 217.824537
v -24926.185273 -13160.179308 217.824537
v -24886.240382 -13158.080332 218.695152
v -24884.189110 -13197.117384 219.963137
v -24926.185273 -13160.179308 217.824537
v -24884.189110 -13197.117384 219.963137
v -24924.134001 -13199.216360 219.092521
v -24924.134001 -13199.216360 219.092521
v -24884.189110 -13197.117384 219.963137
v -24882.137839 -13236.154437 221.134045
v -24924.134001 -13199.216360 219.092521
v -24882.137839 -13236.154437 221.134045
v -24922.082729 -13238.253412 220.257794
v -24922.082729 -13238.253412 220.257794
v -24882.137839 -13236.154437 221.134045
v -24880.086567 -13275.191489 222.366372
v -24922.082729 -13238.253412 220.257794
v -24880.086567 -13275.191489 222.366372
v -24920.031458 -13277.290465 221.420963
v -24920.031458 -13277.290465 221.420963
v -24880.086567 -13275.191489 222.366372
v -24878.035295 -13314.228541 223.610486
v -24920.031458 -13277.290465 221.420963
v -24878.035295 -13314.228541 223.610486
v -24917.980186 -13316.327517 222.659677
v -24917.980186 -13316.327517 222.659677
v -24878.035295 -13314.228541 223.610486
v -24875.984023 -13353.265594 224.804619
v -24917.980186 -13316.327517 222.659677
v -24875.984023 -13353.265594 224.804619
v -24915.928914 -13355.364569 223.850656
v -24915.928914 -13355.364569 223.850656
v -24875.984023 -13353.265594 224.804619
v -24873.932752 -13392.302646 225.982918
v -24915.928914 -13355.364569 223.850656
v -24873.932752 -13392.302646 225.982918
v -24913.877642 -13394.401622 225.036020
v -23509.247077 -12470.827574 230.314753
v -23469.277793 -12469.260295 231.450476
v -23467.746134 -12508.321186 233.125788
v -23509.247077 -12470.827574 230.314753
v -23467.746134 -12508.321186 233.125788
v -23507.715418 -12509.888465 231.964856
v -23507.715418 -12509.888465 231.964856
v -23467.746134 -12508.321186 233.125788
v -23466.214475 -12547.382077 234.785356
v -23507.715418 -12509.888465 231.964856
v -23466.214475 -12547.382077 234.785356
v -23506.183758 -12548.949356 233.622396
v -23506.183758 -12548.949356 233.622396
v -23466.214475 -12547.382077 234.785356
v -23464.682816 -12586.442968 236.513393
v -23506.183758 -12548.949356 233.622396
v -23464.682816 -12586.442968 236.513393
v -23504.652099 -12588.010247 235.285768
v -23504.652099 -12588.010247 235.285768
v -23464.682816 -12586.442968 236.513393
v -23463.151156 -12625.503858 238.215375
v -23504.652099 -12588.010247 235.285768
v -23463.151156 -12625.503858 238.215375
v -23503.120440 -12627.071138 236.986150
v -23503.120440 -12627.071138 236.986150
v -23463.151156 -12625.503858 238.215375
v -23461.619497 -12664.564749 239.906515
v -23503.120440 -12627.071138 236.986150
v -23461.619497 -12664.564749 239.906515
v -23501.588781 -12666.132028 238.674283
v -23501.588781 -12666.132028 238.674283
v -23461.619497 -12664.564749 239.906515
v -23460.087838 -12703.625640 241.636086
v -23501.588781 -12666.132028 238.674283
v -23460.087838 -12703.625640 241.636086
v -23500.057122 -12705.192919 240.367659
v -23500.057122 -12705.192919 240.367659
v -23460.087838 -12703.625640 241.636086
v -23458.556179 -12742.686531 243.383522
v -23500.057122 -12705.192919 240.367659
v -23458.556179 -12742.686531 243.383522
v -23498.525462 -12744.253810 242.116329
v -23498.525462 -12744.253810 242.116329
v -23458.556179 -12742.686531 243.383522
v -23457.024520 -12781.747422 245.141806
v -23498.525462 -12744.253810 242.116329
v -23457.024520 -12781.747422 245.141806
v -23496.993803 -12783.314701 243.876659
v -23496.993803 -12783.314701 243.876659
v -23457.024520 -12781.747422 245.141806
v -23455.492860 -12820.808313 246.884545
v -23496.993803 -12783.314701 243.876659
v -23455.492860 -12820.808313 246.884545
v -23495.462144 -12822.375592 245.633994
v -23495.462144 -12822.375592 245.633994
v -23455.492860 -12820.808313 246.884545
v -23453.961201 -12859.869203 248.620264
v -23495.462144 -12822.375592 245.633994
v -23453.961201 -12859.869203 248.620264
v -23493.930485 -12861.436483 247.369158
v -23493.930485 -12861.436483 247.369158
v -23453.961201 -12859.869203 248.620264
v -23452.429542 -12898.930094 250.362310
v -23493.930485 -12861.436483 247.369158
v -23452.429542 -12898.930094 250.362310
v -23492.398826 -12900.497373 249.098095
v -23492.398826 -12900.497373 249.098095
v -23452.429542 -12898.930094 250.362310
v -23450.897883 -12937.990985 252.173110
v -23492.398826 -12900.497373 249.098095
v -23450.897883 -12937.990985 252.173110
v -23490.867167 -12939.558264 250.844559
v -23490.867167 -12939.558264 250.844559
v -23450.897883 -12937.990985 252.173110
v -23449.366224 -12977.051876 253.976505
v -23490.867167 -12939.558264 250.844559
v -23449.366224 -12977.051876 253.976505
v -23489.335507 -12978.619155 252.647274
v -23489.335507 -12978.619155 252.647274
v -23449.366224 -12977.051876 253.976505
v -23447.834565 -13016.112767 255.771614
v -23489.335507 -12978.619155 252.647274
v -23447.834565 -13016.112767 255.771614
v -23487.803848 -13017.680046 254.441112
v -23487.803848 -13017.680046 254.441112
v -23447.834565 -13016.112767 255.771614
v -23446.302905 -13055.173658 257.571682
v -23487.803848 -13017.680046 254.441112
v -23446.302905 -13055.173658 257.571682
v -23486.272189 -13056.740937 256.236557
v -23486.272189 -13056.740937 256.236557
v -23446.302905 -13055.173658 257.571682
v -23444.771246 -13094.234549 259.382960
v -23486.272189 -13056.740937 256.236557
v -23444.771246 -13094.234549 259.382960
v -23484.740530 -13095.801828 258.049069
v -23484.740530 -13095.801828 258.049069
v -23444.771246 -13094.234549 259.382960
v -23443.239587 -13133.295439 261.227689
v -23484.740530 -13095.801828 258.049069
v -23443.239587 -13133.295439 261.227689
v -23483.208871 -13134.862719 259.879897
v -23483.208871 -13134.862719 259.879897
v -23443.239587 -13133.295439 261.227689
v -23441.707928 -13172.356330 263.114634
v -23483.208871 -13134.862719 259.879897
v -23441.707928 -13172.356330 263.114634
v -23481.677211 -13173.923609 261.727654
v -23481.677211 -13173.923609 261.727654
v -23441.707928 -13172.356330 263.114634
v -23440.176269 -13211.417221 264.976803
v -23481.677211 -13173.923609 261.727654
v -23440.176269 -13211.417221 264.976803
v -23480.145552 -13212.984500 263.586422
v -23480.145552 -13212.984500 263.586422
v -23440.176269 -13211.417221 264.976803
v -23438.644609 -13250.478112 266.796200
v -23480.145552 -13212.984500 263.586422
v -23438.644609 -13250.478112 266.796200
v -23478.613893 -13252.045391 265.388603
v -23478.613893 -13252.045391 265.388603
v -23438.644609 -13250.478112 266.796200
v -23437.112950 -13289.539003 268.657440
v -23478.613893 -13252.045391 265.388603
v -23437.112950 -13289.539003 268.657440
v -23477.082234 -13291.106282 267.211187
v -23477.082234 -13291.106282 267.211187
v -23437.112950 -13289.539003 268.657440
v -23435.581291 -13328.599894 270.506168
v -23477.082234 -13291.106282 267.211187
v -23435.581291 -13328.599894 270.506168
v -23475.550575 -13330.167173 269.057635
v -23904.654528 -12098.504039 202.968108
v -23913.142379 -12137.593121 204.758851
v -23952.231461 -12129.105271 202.845982
v -23904.654528 -12098.504039 202.968108
v -23952.231461 -12129.105271 202.845982
v -23943.743611 -12090.016188 200.916117
v -23943.743611 -12090.016188 200.916117
v -23952.231461 -12129.105271 202.845982
v -23991.320544 -12120.617420 201.064412
v -23943.743611 -12090.016188 200.916117
v -23991.320544 -12120.617420 201.064412
v -23982.832693 -12081.528337 199.007961
v -23982.832693 -12081.528337 199.007961
v -23991.320544 -12120.617420 201.064412
v -24030.409627 -12112.129569 199.596081
v -23982.832693 -12081.528337 199.007961
v -24030.409627 -12112.129569 199.596081
v -24021.921776 -12073.040486 197.460249
v -24021.921776 -12073.040486 197.460249
v -24030.409627 -12112.129569 199.596081
v -24069.498710 -12103.641718 198.673818
v -24021.921776 -12073.040486 197.460249
v -24069.498710 -12103.641718 198.673818
v -24061.010859 -12064.552635 196.637388
v -24061.010859 -12064.552635 196.637388
v -24069.498710 -12103.641718 198.673818
v -24108.587792 -12095.153867 197.884142
v -24061.010859 -12064.552635 196.637388
v -24108.587792 -12095.153867 197.884142
v -24100.099941 -12056.064784 195.965470
v -24100.099941 -12056.064784 195.965470
v -24108.587792 -12095.153867 197.884142
v -24147.676875 -12086.666016 197.164861
v -24100.099941 -12056.064784 195.965470
v -24147.676875 -12086.666016 197.164861
v -24139.189024 -12047.576934 195.406615
v -24139.189024 -12047.576934 195.406615
v -24147.676875 -12086.666016 197.164861
v -24186.765958 -12078.178165 196.156246
v -24139.189024 -12047.576934 195.406615
v -24186.765958 -12078.178165 196.156246
v -24178.278107 -12039.089083 194.456573
v -24178.278107 -12039.089083 194.456573
v -24186.765958 -12078.178165 196.156246
v -24225.855040 -12069.690315 195.030437
v -24178.278107 -12039.089083 194.456573
v -24225.855040 -12069.690315 195.030437
v -24217.367190 -12030.601232 193.425493
v -24217.367190 -12030.601232 193.425493
v -24225.855040 -12069.690315 195.030437
v -24264.944123 -12061.202464 193.811135
v -24217.367190 -12030.601232 193.425493
v -24264.944123 -12061.202464 193.811135
v -24256.456272 -12022.113381 192.297309
v -24256.456272 -12022.113381 192.297309
v -24264.944123 -12061.202464 193.811135
v -24304.033206 -12052.714613 192.579393
v -24256.456272 -12022.113381 192.297309
v -24304.033206 -12052.714613 192.579393
v -24295.545355 -12013.625530 191.098726
v -24295.545355 -12013.625530 191.098726
v -24304.033206 -12052.714613 192.579393
v -24343.122289 -12044.226762 191.298521
v -24295.545355 -12013.625530 191.098726
v -24343.122289 -12044.226762 191.298521
v -24334.634438 -12005.137679 189.817856
v -24334.634438 -12005.137679 189.817856
v -24343.122289 -12044.226762 191.298521
v -24382.211371 -12035.738911 190.297644
v -24334.634438 -12005.137679 189.817856
v -24382.211371 -12035.738911 190.297644
v -24373.723520 -11996.649828 188.767758
v -24373.723520 -11996.649828 188.767758
v -24382.211371 -12035.738911 190.297644
v -24421.300454 -12027.251060 189.632266
v -24373.723520 -11996.649828 188.767758
v -24421.300454 -12027.251060 189.632266
v -24412.812603 -11988.161978 188.344421
v -24412.812603 -11988.161978 188.344421
v -24421.300454 -12027.251060 189.632266
v -24460.389537 -12018.763209 189.672404
v -24412.812603 -11988.161978 188.344421
v -24460.389537 -12018.763209 189.672404
v -24451.901686 -11979.674127 188.588229
v -24294.325726 -13947.482191 260.175183
v -24302.662971 -13986.603673 259.965634
v -24341.784453 -13978.266429 258.470019
v -24294.325726 -13947.482191 260.175183
v -24341.784453 -13978.266429 258.470019
v -24333.447208 -13939.144947 258.607135
v -24333.447208 -13939.144947 258.607135
v -24341.784453 -13978.266429 258.470019
v -24380.905935 -13969.929185 257.261291
v -24333.447208 -13939.144947 258.607135
v -24380.905935 -13969.929185 257.261291
v -24372.568691 -13930.807703 257.277517
v -24372.568691 -13930.807703 257.277517
v -24380.905935 -13969.929185 257.261291
v -24420.027417 -13961.591941 256.010697
v -24372.568691 -13930.807703 257.277517
v -24420.027417 -13961.591941 256.010697
v -24411.690173 -13922.470459 255.659965
v -24411.690173 -13922.470459 255.659965
v -24420.027417 -13961.591941 256.010697
v -24459.148899 -13953.254697 254.657873
v -24411.690173 -13922.470459 255.659965
v -24459.148899 -13953.254697 254.657873
v -24450.811655 -13914.133214 254.213961
v -24450.811655 -13914.133214 254.213961
v -24459.148899 -13953.254697 254.657873
v -24498.270381 -13944.917452 253.227785
v -24450.811655 -13914.133214 254.213961
v -24498.270381 -13944.917452 253.227785
v -24489.933137 -13905.795970 252.706081
v -24489.933137 -13905.795970 252.706081
v -24498.270381 -13944.917452 253.227785
v -24537.391863 -13936.580208 251.759106
v -24489.933137 -13905.795970 252.706081
v -24537.391863 -13936.580208 251.759106
v -24529.054619 -13897.458726 251.133064
v -24529.054619 -13897.458726 251.133064
v -24537.391863 -13936.580208 251.759106
v -24576.513345 -13928.242964 250.314621
v -24529.054619 -13897.458726 251.133064
v -24576.513345 -13928.242964 250.314621
v -24568.176101 -13889.121482 249.623440
v -24568.176101 -13889.121482 249.623440
v -24576.513345 -13928.242964 250.314621
v -24615.634827 -13919.905720 248.878013
v -24568.176101 -13889.121482 249.623440
v -24615.634827 -13919.905720 248.878013
v -24607.297583 -13880.784238 248.119473
v -24607.297583 -13880.784238 248.119473
v -24615.634827 -13919.905720 248.878013
v -24654.756309 -13911.568476 247.307229
v -24607.297583 -13880.784238 248.119473
v -24654.756309 -13911.568476 247.307229
v -24646.419065 -13872.446994 246.483562
v -24646.419065 -13872.446994 246.483562
v -24654.756309 -13911.568476 247.307229
v -24693.877791 -13903.231232 245.756762
v -24646.419065 -13872.446994 246.483562
v -24693.877791 -13903.231232 245.756762
v -24685.540547 -13864.109750 244.980151
v -24685.540547 -13864.109750 244.980151
v -24693.877791 -13903.231232 245.756762
v -24732.999273 -13894.893988 244.153411
v -24685.540547 -13864.109750 244.980151
v -24732.999273 -13894.893988 244.153411
v -24724.662029 -13855.772506 243.376804
v -24724.662029 -13855.772506 243.376804
v -24732.999273 -13894.893988 244.153411
v -24772.120756 -13886.556744 242.659207
v -24724.662029 -13855.772506 243.376804
v -24772.120756 -13886.556744 242.659207
v -24763.783511 -13847.435261 241.850023
v -24763.783511 -13847.435261 241.850023
v -24772.120756 -13886.556744 242.659207
v -24811.242238 -13878.219499 241.208713
v -24763.783511 -13847.435261 241.850023
v -24811.242238 -13878.219499 241.208713
v -24802.904993 -13839.098017 240.399523
v -24802.904993 -13839.098017 240.399523
v -24811.242238 -13878.219499 241.208713
v -24850.363720 -13869.882255 239.758164
v -24802.904993 -13839.098017 240.399523
v -24850.363720 -13869.882255 239.758164
v -24842.026476 -13830.760773 238.948992
vt -249.590056 125.355865
vt -249.190607 125.334875
vt -249.170095 125.725245
vt -249.590056 125.355865
vt -249.170095 125.725245
vt -249.569543 125.746235
vt -249.569543 125.746235
vt -249.170095 125.725245
vt -249.149582 126.115616
vt -249.569543 125.746235
vt -249.149582 126.115616
vt -249.549031 126.136606
vt -249.549031 126.136606
vt -249.149582 126.115616
vt -249.129069 126.505987
vt -249.549031 126.136606
vt -249.129069 126.505987
vt -249.528518 126.526976
vt -249.528518 126.526976
vt -249.129069 126.505987
vt -249.108556 126.896357
vt -249.528518 126.526976
vt -249.108556 126.896357
vt -249.508005 126.917347
vt -249.508005 126.917347
vt -249.108556 126.896357
vt -249.088044 127.286728
vt -249.508005 126.917347
vt -249.088044 127.286728
vt -249.487493 127.307717
vt -249.487493 127.307717
vt -249.088044 127.286728
vt -249.067531 127.677098
vt -249.487493 127.307717
vt -249.067531 127.677098
vt -249.466980 127.698088
vt -249.466980 127.698088
vt -249.067531 127.677098
vt -249.047018 128.067469
vt -249.466980 127.698088
vt -249.047018 128.067469
vt -249.446467 128.088458
vt -249.446467 128.088458
vt -249.047018 128.067469
vt -249.026506 128.457839
vt -249.446467 128.088458
vt -249.026506 128.457839
vt -249.425954 128.478829
vt -249.425954 128.478829
vt -249.026506 128.457839
vt -249.005993 128.848210
vt -249.425954 128.478829
vt -249.005993 128.848210
vt -249.405442 128.869199
vt -249.405442 128.869199
vt -249.005993 128.848210
vt -248.985480 129.238580
vt -249.405442 128.869199
vt -248.985480 129.238580
vt -249.384929 129.259570
vt -249.384929 129.259570
vt -248.985480 129.238580
vt -248.964967 129.628951
vt -249.384929 129.259570
vt -248.964967 129.628951
vt -249.364416 129.649940
vt -249.364416 129.649940
vt -248.964967 129.628951
vt -248.944455 130.019321
vt -249.364416 129.649940
vt -248.944455 130.019321
vt -249.343904 130.040311
vt -249.343904 130.040311
vt -248.944455 130.019321
vt -248.923942 130.409692
vt -249.343904 130.040311
vt -248.923942 130.409692
vt -249.323391 130.430682
vt -249.323391 130.430682
vt -248.923942 130.409692
vt -248.903429 130.800062
vt -249.323391 130.430682
vt -248.903429 130.800062
vt -249.302878 130.821052
vt -249.302878 130.821052
vt -248.903429 130.800062
vt -248.882917 131.190433
vt -249.302878 130.821052
vt -248.882917 131.190433
vt -249.282365 131.211423
vt -249.282365 131.211423
vt -248.882917 131.190433
vt -248.862404 131.580803
vt -249.282365 131.211423
vt -248.862404 131.580803
vt -249.261853 131.601793
vt -249.261853 131.601793
vt -248.862404 131.580803
vt -248.841891 131.971174
vt -249.261853 131.601793
vt -248.841891 131.971174
vt -249.241340 131.992164
vt -249.241340 131.992164
vt -248.841891 131.971174
vt -248.821378 132.361544
vt -249.241340 131.992164
vt -248.821378 132.361544
vt -249.220827 132.382534
vt -249.220827 132.382534
vt -248.821378 132.361544
vt -248.800866 132.751915
vt -249.220827 132.382534
vt -248.800866 132.751915
vt -249.200315 132.772905
vt -249.200315 132.772905
vt -248.800866 132.751915
vt -248.780353 133.142285
vt -249.200315 132.772905
vt -248.780353 133.142285
vt -249.179802 133.163275
vt -249.179802 133.163275
vt -248.780353 133.142285
vt -248.759840 133.532656
vt -249.179802 133.163275
vt -248.759840 133.532656
vt -249.159289 133.553646
vt -249.159289 133.553646
vt -248.759840 133.532656
vt -248.739328 133.923026
vt -249.159289 133.553646
vt -248.739328 133.923026
vt -249.138776 133.944016
vt -235.092471 124.708276
vt -234.692778 124.692603
vt -234.677461 125.083212
vt -235.092471 124.708276
vt -234.677461 125.083212
vt -235.077154 125.098885
vt -235.077154 125.098885
vt -234.677461 125.083212
vt -234.662145 125.473821
vt -235.077154 125.098885
vt -234.662145 125.473821
vt -235.061838 125.489494
vt -235.061838 125.489494
vt -234.662145 125.473821
vt -234.646828 125.864430
vt -235.061838 125.489494
vt -234.646828 125.864430
vt -235.046521 125.880102
vt -235.046521 125.880102
vt -234.646828 125.864430
vt -234.631512 126.255039
vt -235.046521 125.880102
vt -234.631512 126.255039
vt -235.031204 126.270711
vt -235.031204 126.270711
vt -234.631512 126.255039
vt -234.616195 126.645647
vt -235.031204 126.270711
vt -234.616195 126.645647
vt -235.015888 126.661320
vt -235.015888 126.661320
vt -234.616195 126.645647
vt -234.600878 127.036256
vt -235.015888 126.661320
vt -234.600878 127.036256
vt -235.000571 127.051929
vt -235.000571 127.051929
vt -234.600878 127.036256
vt -234.585562 127.426865
vt -235.000571 127.051929
vt -234.585562 127.426865
vt -234.985255 127.442538
vt -234.985255 127.442538
vt -234.585562 127.426865
vt -234.570245 127.817474
vt -234.985255 127.442538
vt -234.570245 127.817474
vt -234.969938 127.833147
vt -234.969938 127.833147
vt -234.570245 127.817474
vt -234.554929 128.208083
vt -234.969938 127.833147
vt -234.554929 128.208083
vt -234.954621 128.223756
vt -234.954621 128.223756
vt -234.554929 128.208083
vt -234.539612 128.598692
vt -234.954621 128.223756
vt -234.539612 128.598692
vt -234.939305 128.614365
vt -234.939305 128.614365
vt -234.539612 128.598692
vt -234.524295 128.989301
vt -234.939305 128.614365
vt -234.524295 128.989301
vt -234.923988 129.004974
vt -234.923988 129.004974
vt -234.524295 128.989301
vt -234.508979 129.379910
vt -234.923988 129.004974
vt -234.508979 129.379910
vt -234.908672 129.395583
vt -234.908672 129.395583
vt -234.508979 129.379910
vt -234.493662 129.770519
vt -234.908672 129.395583
vt -234.493662 129.770519
vt -234.893355 129.786192
vt -234.893355 129.786192
vt -234.493662 129.770519
vt -234.478346 130.161128
vt -234.893355 129.786192
vt -234.478346 130.161128
vt -234.878038 130.176800
vt -234.878038 130.176800
vt -234.478346 130.161128
vt -234.463029 130.551737
vt -234.878038 130.176800
vt -234.463029 130.551737
vt -234.862722 130.567409
vt -234.862722 130.567409
vt -234.463029 130.551737
vt -234.447712 130.942345
vt -234.862722 130.567409
vt -234.447712 130.942345
vt -234.847405 130.958018
vt -234.847405 130.958018
vt -234.447712 130.942345
vt -234.432396 131.332954
vt -234.847405 130.958018
vt -234.432396 131.332954
vt -234.832089 131.348627
vt -234.832089 131.348627
vt -234.432396 131.332954
vt -234.417079 131.723563
vt -234.832089 131.348627
vt -234.417079 131.723563
vt -234.816772 131.739236
vt -234.816772 131.739236
vt -234.417079 131.723563
vt -234.401763 132.114172
vt -234.816772 131.739236
vt -234.401763 132.114172
vt -234.801456 132.129845
vt -234.801456 132.129845
vt -234.401763 132.114172
vt -234.386446 132.504781
vt -234.801456 132.129845
vt -234.386446 132.504781
vt -234.786139 132.520454
vt -234.786139 132.520454
vt -234.386446 132.504781
vt -234.371130 132.895390
vt -234.786139 132.520454
vt -234.371130 132.895390
vt -234.770822 132.911063
vt -234.770822 132.911063
vt -234.371130 132.895390
vt -234.355813 133.285999
vt -234.770822 132.911063
vt -234.355813 133.285999
vt -234.755506 133.301672
vt -239.046545 120.985040
vt -239.131424 121.375931
vt -239.522315 121.291053
vt -239.046545 120.985040
vt -239.522315 121.291053
vt -239.437436 120.900162
vt -239.437436 120.900162
vt -239.522315 121.291053
vt -239.913205 121.206174
vt -239.437436 120.900162
vt -239.913205 121.206174
vt -239.828327 120.815283
vt -239.828327 120.815283
vt -239.913205 121.206174
vt -240.304096 121.121296
vt -239.828327 120.815283
vt -240.304096 121.121296
vt -240.219218 120.730405
vt -240.219218 120.730405
vt -240.304096 121.121296
vt -240.694987 121.036417
vt -240.219218 120.730405
vt -240.694987 121.036417
vt -240.610109 120.645526
vt -240.610109 120.645526
vt -240.694987 121.036417
vt -241.085878 120.951539
vt -240.610109 120.645526
vt -241.085878 120.951539
vt -241.000999 120.560648
vt -241.000999 120.560648
vt -241.085878 120.951539
vt -241.476769 120.866660
vt -241.000999 120.560648
vt -241.476769 120.866660
vt -241.391890 120.475769
vt -241.391890 120.475769
vt -241.476769 120.866660
vt -241.867660 120.781782
vt -241.391890 120.475769
vt -241.867660 120.781782
vt -241.782781 120.390891
vt -241.782781 120.390891
vt -241.867660 120.781782
vt -242.258550 120.696903
vt -241.782781 120.390891
vt -242.258550 120.696903
vt -242.173672 120.306012
vt -242.173672 120.306012
vt -242.258550 120.696903
vt -242.649441 120.612025
vt -242.173672 120.306012
vt -242.649441 120.612025
vt -242.564563 120.221134
vt -242.564563 120.221134
vt -242.649441 120.612025
vt -243.040332 120.527146
vt -242.564563 120.221134
vt -243.040332 120.527146
vt -242.955454 120.136255
vt -242.955454 120.136255
vt -243.040332 120.527146
vt -243.431223 120.442268
vt -242.955454 120.136255
vt -243.431223 120.442268
vt -243.346344 120.051377
vt -243.346344 120.051377
vt -243.431223 120.442268
vt -243.822114 120.357389
vt -243.346344 120.051377
vt -243.822114 120.357389
vt -243.737235 119.966498
vt -243.737235 119.966498
vt -243.822114 120.357389
vt -244.213005 120.272511
vt -243.737235 119.966498
vt -244.213005 120.272511
vt -244.128126 119.881620
vt -244.128126 119.881620
vt -244.213005 120.272511
vt -244.603895 120.187632
vt -244.128126 119.881620
vt -244.603895 120.187632
vt -244.519017 119.796741
vt -242.943257 139.474822
vt -243.026630 139.866037
vt -243.417845 139.782664
vt -242.943257 139.474822
vt -243.417845 139.782664
vt -243.334472 139.391449
vt -243.334472 139.391449
vt -243.417845 139.782664
vt -243.809059 139.699292
vt -243.334472 139.391449
vt -243.809059 139.699292
vt -243.725687 139.308077
vt -243.725687 139.308077
vt -243.809059 139.699292
vt -244.200274 139.615919
vt -243.725687 139.308077
vt -244.200274 139.615919
vt -244.116902 139.224705
vt -244.116902 139.224705
vt -244.200274 139.615919
vt -244.591489 139.532547
vt -244.116902 139.224705
vt -244.591489 139.532547
vt -244.508117 139.141332
vt -244.508117 139.141332
vt -244.591489 139.532547
vt -244.982704 139.449175
vt -244.508117 139.141332
vt -244.982704 139.449175
vt -244.899331 139.057960
vt -244.899331 139.057960
vt -244.982704 139.449175
vt -245.373919 139.365802
vt -244.899331 139.057960
vt -245.373919 139.365802
vt -245.290546 138.974587
vt -245.290546 138.974587
vt -245.373919 139.365802
vt -245.765133 139.282430
vt -245.290546 138.974587
vt -245.765133 139.282430
vt -245.681761 138.891215
vt -245.681761 138.891215
vt -245.765133 139.282430
vt -246.156348 139.199057
vt -245.681761 138.891215
vt -246.156348 139.199057
vt -246.072976 138.807842
vt -246.072976 138.807842
vt -246.156348 139.199057
vt -246.547563 139.115685
vt -246.072976 138.807842
vt -246.547563 139.115685
vt -246.464191 138.724470
vt -246.464191 138.724470
vt -246.547563 139.115685
vt -246.938778 139.032312
vt -246.464191 138.724470
vt -246.938778 139.032312
vt -246.855405 138.641097
vt -246.855405 138.641097
vt -246.938778 139.032312
vt -247.329993 138.948940
vt -246.855405 138.641097
vt -247.329993 138.948940
vt -247.246620 138.557725
vt -247.246620 138.557725
vt -247.329993 138.948940
vt -247.721208 138.865567
vt -247.246620 138.557725
vt -247.721208 138.865567
vt -247.637835 138.474353
vt -247.637835 138.474353
vt -247.721208 138.865567
vt -248.112422 138.782195
vt -247.637835 138.474353
vt -248.112422 138.782195
vt -248.029050 138.390980
vt -248.029050 138.390980
vt -248.112422 138.782195
vt -248.503637 138.698823
vt -248.029050 138.390980
vt -248.503637 138.698823
vt -248.420265 138.307608
f 3/3 2/2 1/1
f 6/6 5/5 4/4
f 9/9 8/8 7/7
f 12/12 11/11 10/10
f 15/15 14/14 13/13
f 18/18 17/17 16/16
f 21/21 20/20 19/19
f 24/24 23/23 22/22
f 27/27 26/26 25/25
f 30/30 29/29 28/28
f 33/33 32/32 31/31
f 36/36 35/35 34/34
f 39/39 38/38 37/37
f 42/42 41/41 40/40
f 45/45 44/44 43/43
f 48/48 47/47 46/46
f 51/51 50/50 49/49
f 54/54 53/53 52/52
f 57/57 56/56 55/55
f 60/60 59/59 58/58
f 63/63 62/62 61/61
f 66/66 65/65 64/64
f 69/69 68/68 67/67
f 72/72 71/71 70/70
f 75/75 74/74 73/73
f 78/78 77/77 76/76
f 81/81 80/80 79/79
f 84/84 83/83 82/82
f 87/87 86/86 85/85
f 90/90 89/89 88/88
f 93/93 92/92 91/91
f 96/96 95/95 94/94
f 99/99 98/98 97/97
f 102/102 101/101 100/100
f 105/105 104/104 103/103
f 108/108 107/107 106/106
f 111/111 110/110 109/109
f 114/114 113/113 112/112
f 117/117 116/116 115/115
f 120/120 119/119 118/118
f 123/123 122/122 121/121
f 126/126 125/125 124/124
f 129/129 128/128 127/127
f 132/132 131/131 130/130
f 135/135 134/134 133/133
f 138/138 137/137 136/136
f 141/141 140/140 139/139
f 144/144 143/143 142/142
f 147/147 146/146 145/145
f 150/150 149/149 148/148
f 153/153 152/152 151/151
f 156/156 155/155 154/154
f 159/159 158/158 157/157
f 162/162 161/161 160/160
f 165/165 164/164 163/163
f 168/168 167/167 166/166
f 171/171 170/170 169/169
f 174/174 173/173 172/172
f 177/177 176/176 175/175
f 180/180 179/179 178/178
f 183/183 182/182 181/181
f 186/186 185/185 184/184
f 189/189 188/188 187/187
f 192/192 191/191 190/190
f 195/195 194/194 193/193
f 198/198 197/197 196/196
f 201/201 200/200 199/199
f 204/204 203/203 202/202
f 207/207 206/206 205/205
f 210/210 209/209 208/208
f 213/213 212/212 211/211
f 216/216 215/215 214/214
f 219/219 218/218 217/217
f 222/222 221/221 220/220
f 225/225 224/224 223/223
f 228/228 227/227 226/226
f 231/231 230/230 229/229
f 234/234 233/233 232/232
f 237/237 236/236 235/235
f 240/240 239/239 238/238
f 243/243 242/242 241/241
f 246/246 245/245 244/244
f 249/249 248/248 247/247
f 252/252 251/251 250/250
f 255/255 254/254 253/253
f 258/258 257/257 256/256
f 261/261 260/260 259/259
f 264/264 263/263 262/262
f 267/267 266/266 265/265
f 270/270 269/269 268/268
f 273/273 272/272 271/271
f 276/276 275/275 274/274
f 279/279 278/278 277/277
f 282/282 281/281 280/280
f 285/285 284/284 283/283
f 288/288 287/287 286/286
f 291/291 290/290 289/289
f 294/294 293/293 292/292
f 297/297 296/296 295/295
f 300/300 299/299 298/298
f 303/303 302/302 301/301
f 306/306 305/305 304/304
f 309/309 308/308 307/307
f 312/312 311/311 310/310
f 315/315 314/314 313/313
f 318/318 317/317 316/316
f 321/321 320/320 319/319
f 324/324 323/323 322/322
f 327/327 326/326 325/325
f 330/330 329/329 328/328
f 333/333 332/332 331/331
f 336/336 335/335 334/334
f 339/339 338/338 337/337
f 342/342 341/341 340/340
f 345/345 344/344 343/343
f 348/348 347/347 346/346
f 351/351 350/350 349/349
f 354/354 353/353 352/352
f 357/357 356/356 355/355
f 360/360 359/359 358/358
f 363/363 362/362 361/361
f 366/366 365/365 364/364
f 369/369 368/368 367/367
f 372/372 371/371 370/370
f 375/375 374/374 373/373
f 378/378 377/377 376/376
f 381/381 380/380 379/379
f 384/384 383/383 382/382
f 387/387 386/386 385/385
f 390/390 389/389 388/388
f 393/393 392/392 391/391
f 396/396 395/395 394/394
f 399/399 398/398 397/397
f 402/402 401/401 400/400
f 405/405 404/404 403/403
f 408/408 407/407 406/406
f 411/411 410/410 409/409
f 414/414 413/413 412/412
f 417/417 416/416 415/415
f 420/420 419/419 418/418
f 423/423 422/422 421/421
f 426/426 425/425 424/424
f 429/429 428/428 427/427
f 432/432 431/431 430/430
