o RainbowRed
v -25118.785185 -12543.982373 192.814030
v -25078.840294 -12541.883397 193.669641
v -25076.789022 -12580.920449 195.173470
v -25118.785185 -12543.982373 192.814030
v -25076.789022 -12580.920449 195.173470
v -25116.733913 -12583.019425 194.316511
v -25116.733913 -12583.019425 194.316511
v -25076.789022 -12580.920449 195.173470
v -25074.737750 -12619.957502 196.635080
v -25116.733913 -12583.019425 194.316511
v -25074.737750 -12619.957502 196.635080
v -25114.682641 -12622.056477 195.812734
v -25114.682641 -12622.056477 195.812734
v -25074.737750 -12619.957502 196.635080
v -25072.686478 -12658.994554 198.055568
v -25114.682641 -12622.056477 195.812734
v -25072.686478 -12658.994554 198.055568
v -25112.631369 -12661.093530 197.252433
v -25112.631369 -12661.093530 197.252433
v -25072.686478 -12658.994554 198.055568
v -25070.635207 -12698.031606 199.476056
v -25112.631369 -12661.093530 197.252433
v -25070.635207 -12698.031606 199.476056
v -25110.580097 -12700.130582 198.669195
v -25110.580097 -12700.130582 198.669195
v -25070.635207 -12698.031606 199.476056
v -25068.583935 -12737.068659 200.893117
v -25110.580097 -12700.130582 198.669195
v -25068.583935 -12737.068659 200.893117
v -25108.528826 -12739.167635 200.051120
v -25108.528826 -12739.167635 200.051120
v -25068.583935 -12737.068659 200.893117
v -25066.532663 -12776.105711 202.305767
v -25108.528826 -12739.167635 200.051120
v -25066.532663 -12776.105711 202.305767
v -25106.477554 -12778.204687 201.448226
v -25106.477554 -12778.204687 201.448226
v -25066.532663 -12776.105711 202.305767
v -25064.481391 -12815.142764 203.718417
v -25106.477554 -12778.204687 201.448226
v -25064.481391 -12815.142764 203.718417
v -25104.426282 -12817.241739 202.860466
v -25104.426282 -12817.241739 202.860466
v -25064.481391 -12815.142764 203.718417
v -25062.430120 -12854.179816 205.075466
v -25104.426282 -12817.241739 202.860466
v -25062.430120 -12854.179816 205.075466
v -25102.375010 -12856.278792 204.243132
v -25102.375010 -12856.278792 204.243132
v -25062.430120 -12854.179816 205.075466
v -25060.378848 -12893.216868 206.415487
v -25102.375010 -12856.278792 204.243132
v -25060.378848 -12893.216868 206.415487
v -25100.323739 -12895.315844 205.586113
v -25100.323739 -12895.315844 205.586113
v -25060.378848 -12893.216868 206.415487
v -25058.327576 -12932.253921 207.755508
v -25100.323739 -12895.315844 205.586113
v -25058.327576 -12932.253921 207.755508
v -25098.272467 -12934.352896 206.929384
v -25098.272467 -12934.352896 206.929384
v -25058.327576 -12932.253921 207.755508
v -25056.276304 -12971.290973 209.068725
v -25098.272467 -12934.352896 206.929384
v -25056.276304 -12971.290973 209.068725
v -25096.221195 -12973.389949 208.249848
v -25096.221195 -12973.389949 208.249848
v -25056.276304 -12971.290973 209.068725
v -25054.225032 -13010.328025 210.338528
v -25096.221195 -12973.389949 208.249848
v -25054.225032 -13010.328025 210.338528
v -25094.169923 -13012.427001 209.523539
v -25094.169923 -13012.427001 209.523539
v -25054.225032 -13010.328025 210.338528
v -25052.173761 -13049.365078 211.608330
v -25094.169923 -13012.427001 209.523539
v -25052.173761 -13049.365078 211.608330
v -25092.118651 -13051.464054 210.797001
v -25092.118651 -13051.464054 210.797001
v -25052.173761 -13049.365078 211.608330
v -25050.122489 -13088.402130 212.854059
v -25092.118651 -13051.464054 210.797001
v -25050.122489 -13088.402130 212.854059
v -25090.067380 -13090.501106 212.065571
v -25090.067380 -13090.501106 212.065571
v -25050.122489 -13088.402130 212.854059
v -25048.071217 -13127.439183 214.032880
v -25090.067380 -13090.501106 212.065571
v -25048.071217 -13127.439183 214.032880
v -25088.016108 -13129.538158 213.244392
v -25088.016108 -13129.538158 213.244392
v -25048.071217 -13127.439183 214.032880
v -25046.019945 -13166.476235 215.212691
v -25088.016108 -13129.538158 213.244392
v -25046.019945 -13166.476235 215.212691
v -25085.964836 -13168.575211 214.423213
v -25085.964836 -13168.575211 214.423213
v -25046.019945 -13166.476235 215.212691
v -25043.968674 -13205.513287 216.464769
v -25085.964836 -13168.575211 214.423213
v -25043.968674 -13205.513287 216.464769
v -25083.913564 -13207.612263 215.595208
v -25083.913564 -13207.612263 215.595208
v -25043.968674 -13205.513287 216.464769
v -25041.917402 -13244.550340 217.620130
v -25083.913564 -13207.612263 215.595208
v -25041.917402 -13244.550340 217.620130
v -25081.862293 -13246.649315 216.746842
v -25081.862293 -13246.649315 216.746842
v -25041.917402 -13244.550340 217.620130
v -25039.866130 -13283.587392 218.776234
v -25081.862293 -13246.649315 216.746842
v -25039.866130 -13283.587392 218.776234
v -25079.811021 -13285.686368 217.898819
v -25079.811021 -13285.686368 217.898819
v -25039.866130 -13283.587392 218.776234
v -25037.814858 -13322.624444 219.936607
v -25079.811021 -13285.686368 217.898819
v -25037.814858 -13322.624444 219.936607
v -25077.759749 -13324.723420 219.049802
v -25077.759749 -13324.723420 219.049802
v -25037.814858 -13322.624444 219.936607
v -25035.763587 -13361.661497 221.052499
v -25077.759749 -13324.723420 219.049802
v -25035.763587 -13361.661497 221.052499
v -25075.708477 -13363.760472 220.165694
v -25075.708477 -13363.760472 220.165694
v -25035.763587 -13361.661497 221.052499
v -25033.712315 -13400.698549 222.180191
v -25075.708477 -13363.760472 220.165694
v -25033.712315 -13400.698549 222.180191
v -25073.657206 -13402.797525 221.281585
v -23669.124211 -12477.096691 225.803808
v -23629.154928 -12475.529412 226.861605
v -23627.623269 -12514.590303 228.527830
v -23669.124211 -12477.096691 225.803808
v -23627.623269 -12514.590303 228.527830
v -23667.592552 -12516.157582 227.464062
v -23667.592552 -12516.157582 227.464062
v -23627.623269 -12514.590303 228.527830
v -23626.091609 -12553.651193 230.192660
v -23667.592552 -12516.157582 227.464062
v -23626.091609 -12553.651193 230.192660
v -23666.060893 -12555.218473 229.120678
v -23666.060893 -12555.218473 229.120678
v -23626.091609 -12553.651193 230.192660
v -23624.559950 -12592.712084 231.855853
v -23666.060893 -12555.218473 229.120678
v -23624.559950 -12592.712084 231.855853
v -23664.529234 -12594.279363 230.733229
v -23664.529234 -12594.279363 230.733229
v -23624.559950 -12592.712084 231.855853
v -23623.028291 -12631.772975 233.498744
v -23664.529234 -12594.279363 230.733229
v -23623.028291 -12631.772975 233.498744
v -23662.997575 -12633.340254 232.366608
v -23662.997575 -12633.340254 232.366608
v -23623.028291 -12631.772975 233.498744
v -23621.496632 -12670.833866 235.138472
v -23662.997575 -12633.340254 232.366608
v -23621.496632 -12670.833866 235.138472
v -23661.465915 -12672.401145 234.005868
v -23661.465915 -12672.401145 234.005868
v -23621.496632 -12670.833866 235.138472
v -23619.964973 -12709.894757 236.789610
v -23661.465915 -12672.401145 234.005868
v -23619.964973 -12709.894757 236.789610
v -23659.934256 -12711.462036 235.645127
v -23659.934256 -12711.462036 235.645127
v -23619.964973 -12709.894757 236.789610
v -23618.433313 -12748.955648 238.497408
v -23659.934256 -12711.462036 235.645127
v -23618.433313 -12748.955648 238.497408
v -23658.402597 -12750.522927 237.315271
v -23658.402597 -12750.522927 237.315271
v -23618.433313 -12748.955648 238.497408
v -23616.901654 -12788.016538 240.212683
v -23658.402597 -12750.522927 237.315271
v -23616.901654 -12788.016538 240.212683
v -23656.870938 -12789.583818 239.030546
v -23656.870938 -12789.583818 239.030546
v -23616.901654 -12788.016538 240.212683
v -23615.369995 -12827.077429 241.940467
v -23656.870938 -12789.583818 239.030546
v -23615.369995 -12827.077429 241.940467
v -23655.339279 -12828.644708 240.745822
v -23655.339279 -12828.644708 240.745822
v -23615.369995 -12827.077429 241.940467
v -23613.838336 -12866.138320 243.661100
v -23655.339279 -12828.644708 240.745822
v -23613.838336 -12866.138320 243.661100
v -23653.807620 -12867.705599 242.433539
v -23653.807620 -12867.705599 242.433539
v -23613.838336 -12866.138320 243.661100
v -23612.306677 -12905.199211 245.362943
v -23653.807620 -12867.705599 242.433539
v -23612.306677 -12905.199211 245.362943
v -23652.275960 -12906.766490 244.135617
v -23652.275960 -12906.766490 244.135617
v -23612.306677 -12905.199211 245.362943
v -23610.775018 -12944.260102 247.073785
v -23652.275960 -12906.766490 244.135617
v -23610.775018 -12944.260102 247.073785
v -23650.744301 -12945.827381 245.837694
v -23650.744301 -12945.827381 245.837694
v -23610.775018 -12944.260102 247.073785
v -23609.243358 -12983.320993 248.802700
v -23650.744301 -12945.827381 245.837694
v -23609.243358 -12983.320993 248.802700
v -23649.212642 -12984.888272 247.536370
v -23649.212642 -12984.888272 247.536370
v -23609.243358 -12983.320993 248.802700
v -23607.711699 -13022.381884 250.531601
v -23649.212642 -12984.888272 247.536370
v -23607.711699 -13022.381884 250.531601
v -23647.680983 -13023.949163 249.267807
v -23647.680983 -13023.949163 249.267807
v -23607.711699 -13022.381884 250.531601
v -23606.180040 -13061.442774 252.284668
v -23647.680983 -13023.949163 249.267807
v -23606.180040 -13061.442774 252.284668
v -23646.149324 -13063.010054 250.999243
v -23646.149324 -13063.010054 250.999243
v -23606.180040 -13061.442774 252.284668
v -23604.648381 -13100.503665 254.045398
v -23646.149324 -13063.010054 250.999243
v -23604.648381 -13100.503665 254.045398
v -23644.617664 -13102.070944 252.728324
v -23644.617664 -13102.070944 252.728324
v -23604.648381 -13100.503665 254.045398
v -23603.116722 -13139.564556 255.776763
v -23644.617664 -13102.070944 252.728324
v -23603.116722 -13139.564556 255.776763
v -23643.086005 -13141.131835 254.460590
v -23643.086005 -13141.131835 254.460590
v -23603.116722 -13139.564556 255.776763
v -23601.585062 -13178.625447 257.551127
v -23643.086005 -13141.131835 254.460590
v -23601.585062 -13178.625447 257.551127
v -23641.554346 -13180.192726 256.192856
v -23641.554346 -13180.192726 256.192856
v -23601.585062 -13178.625447 257.551127
v -23600.053403 -13217.686338 259.361879
v -23641.554346 -13180.192726 256.192856
v -23600.053403 -13217.686338 259.361879
v -23640.022687 -13219.253617 257.948578
v -23640.022687 -13219.253617 257.948578
v -23600.053403 -13217.686338 259.361879
v -23598.521744 -13256.747229 261.144787
v -23640.022687 -13219.253617 257.948578
v -23598.521744 -13256.747229 261.144787
v -23638.491028 -13258.314508 259.731485
v -23638.491028 -13258.314508 259.731485
v -23598.521744 -13256.747229 261.144787
v -23596.990085 -13295.808119 262.937387
v -23638.491028 -13258.314508 259.731485
v -23596.990085 -13295.808119 262.937387
v -23636.959369 -13297.375399 261.514393
v -23636.959369 -13297.375399 261.514393
v -23596.990085 -13295.808119 262.937387
v -23595.458426 -13334.869010 264.715385
v -23636.959369 -13297.375399 261.514393
v -23595.458426 -13334.869010 264.715385
v -23635.427709 -13336.436289 263.279581
v -23870.703124 -11942.147708 194.495326
v -23879.190975 -11981.236791 196.891209
v -23918.280058 -11972.748940 194.681092
v -23870.703124 -11942.147708 194.495326
v -23918.280058 -11972.748940 194.681092
v -23909.792207 -11933.659857 192.239011
v -23909.792207 -11933.659857 192.239011
v -23918.280058 -11972.748940 194.681092
v -23957.369141 -11964.261089 192.671852
v -23909.792207 -11933.659857 192.239011
v -23957.369141 -11964.261089 192.671852
v -23948.881290 -11925.172006 190.002770
v -23948.881290 -11925.172006 190.002770
v -23957.369141 -11964.261089 192.671852
v -23996.458223 -11955.773238 190.973074
v -23948.881290 -11925.172006 190.002770
v -23996.458223 -11955.773238 190.973074
v -23987.970373 -11916.684155 188.598455
v -23987.970373 -11916.684155 188.598455
v -23996.458223 -11955.773238 190.973074
v -24035.547306 -11947.285387 190.249928
v -23987.970373 -11916.684155 188.598455
v -24035.547306 -11947.285387 190.249928
v -24027.059455 -11908.196304 187.844438
v -24027.059455 -11908.196304 187.844438
v -24035.547306 -11947.285387 190.249928
v -24074.636389 -11938.797536 190.141818
v -24027.059455 -11908.196304 187.844438
v -24074.636389 -11938.797536 190.141818
v -24066.148538 -11899.708454 188.024188
v -24066.148538 -11899.708454 188.024188
v -24074.636389 -11938.797536 190.141818
v -24113.725472 -11930.309685 189.771202
v -24066.148538 -11899.708454 188.024188
v -24113.725472 -11930.309685 189.771202
v -24105.237621 -11891.220603 187.879132
v -24105.237621 -11891.220603 187.879132
v -24113.725472 -11930.309685 189.771202
v -24152.814554 -11921.821835 189.391222
v -24105.237621 -11891.220603 187.879132
v -24152.814554 -11921.821835 189.391222
v -24144.326703 -11882.732752 187.718680
v -24144.326703 -11882.732752 187.718680
v -24152.814554 -11921.821835 189.391222
v -24191.903637 -11913.333984 188.661893
v -24144.326703 -11882.732752 187.718680
v -24191.903637 -11913.333984 188.661893
v -24183.415786 -11874.244901 187.048595
v -24183.415786 -11874.244901 187.048595
v -24191.903637 -11913.333984 188.661893
v -24230.992720 -11904.846133 187.755813
v -24183.415786 -11874.244901 187.048595
v -24230.992720 -11904.846133 187.755813
v -24222.504869 -11865.757050 186.115921
v -24222.504869 -11865.757050 186.115921
v -24230.992720 -11904.846133 187.755813
v -24270.081802 -11896.358282 186.621105
v -24222.504869 -11865.757050 186.115921
v -24270.081802 -11896.358282 186.621105
v -24261.593952 -11857.269199 185.051593
v -24261.593952 -11857.269199 185.051593
v -24270.081802 -11896.358282 186.621105
v -24309.170885 -11887.870431 185.252192
v -24261.593952 -11857.269199 185.051593
v -24309.170885 -11887.870431 185.252192
v -24300.683034 -11848.781348 183.871990
v -24300.683034 -11848.781348 183.871990
v -24309.170885 -11887.870431 185.252192
v -24348.259968 -11879.382580 184.180329
v -24300.683034 -11848.781348 183.871990
v -24348.259968 -11879.382580 184.180329
v -24339.772117 -11840.293498 182.995979
v -24339.772117 -11840.293498 182.995979
v -24348.259968 -11879.382580 184.180329
v -24387.349051 -11870.894729 184.248815
v -24339.772117 -11840.293498 182.995979
v -24387.349051 -11870.894729 184.248815
v -24378.861200 -11831.805647 183.200050
v -24378.861200 -11831.805647 183.200050
v -24387.349051 -11870.894729 184.248815
v -24426.438133 -11862.406879 184.782392
v -24378.861200 -11831.805647 183.200050
v -24426.438133 -11862.406879 184.782392
v -24417.950282 -11823.317796 183.754161
v -24260.976750 -13790.996263 257.656288
v -24269.313994 -13830.117745 258.705980
v -24308.435476 -13821.780501 256.884681
v -24260.976750 -13790.996263 257.656288
v -24308.435476 -13821.780501 256.884681
v -24300.098232 -13782.659018 255.853031
v -24300.098232 -13782.659018 255.853031
v -24308.435476 -13821.780501 256.884681
v -24347.556958 -13813.443256 255.146548
v -24300.098232 -13782.659018 255.853031
v -24347.556958 -13813.443256 255.146548
v -24339.219714 -13774.321774 254.217116
v -24339.219714 -13774.321774 254.217116
v -24347.556958 -13813.443256 255.146548
v -24386.678440 -13805.106012 253.502546
v -24339.219714 -13774.321774 254.217116
v -24386.678440 -13805.106012 253.502546
v -24378.341196 -13765.984530 252.452856
v -24378.341196 -13765.984530 252.452856
v -24386.678440 -13805.106012 253.502546
v -24425.799922 -13796.768768 251.739647
v -24378.341196 -13765.984530 252.452856
v -24425.799922 -13796.768768 251.739647
v -24417.462678 -13757.647286 250.684930
v -24417.462678 -13757.647286 250.684930
v -24425.799922 -13796.768768 251.739647
v -24464.921404 -13788.431524 250.071164
v -24417.462678 -13757.647286 250.684930
v -24464.921404 -13788.431524 250.071164
v -24456.584160 -13749.310042 249.049011
v -24456.584160 -13749.310042 249.049011
v -24464.921404 -13788.431524 250.071164
v -24504.042887 -13780.094280 248.446134
v -24456.584160 -13749.310042 249.049011
v -24504.042887 -13780.094280 248.446134
v -24495.705642 -13740.972798 247.484126
v -24495.705642 -13740.972798 247.484126
v -24504.042887 -13780.094280 248.446134
v -24543.164369 -13771.757036 246.963042
v -24495.705642 -13740.972798 247.484126
v -24543.164369 -13771.757036 246.963042
v -24534.827124 -13732.635554 246.001025
v -24534.827124 -13732.635554 246.001025
v -24543.164369 -13771.757036 246.963042
v -24582.285851 -13763.419792 245.331162
v -24534.827124 -13732.635554 246.001025
v -24582.285851 -13763.419792 245.331162
v -24573.948607 -13724.298310 244.415338
v -24573.948607 -13724.298310 244.415338
v -24582.285851 -13763.419792 245.331162
v -24621.407333 -13755.082548 243.774037
v -24573.948607 -13724.298310 244.415338
v -24621.407333 -13755.082548 243.774037
v -24613.070089 -13715.961066 242.964818
v -24613.070089 -13715.961066 242.964818
v -24621.407333 -13755.082548 243.774037
v -24660.528815 -13746.745303 242.319750
v -24613.070089 -13715.961066 242.964818
v -24660.528815 -13746.745303 242.319750
v -24652.191571 -13707.623821 241.390296
v -24652.191571 -13707.623821 241.390296
v -24660.528815 -13746.745303 242.319750
v -24699.650297 -13738.408059 240.770285
v -24652.191571 -13707.623821 241.390296
v -24699.650297 -13738.408059 240.770285
v -24691.313053 -13699.286577 239.882039
v -24691.313053 -13699.286577 239.882039
v -24699.650297 -13738.408059 240.770285
v -24738.771779 -13730.070815 239.401287
v -24691.313053 -13699.286577 239.882039
v -24738.771779 -13730.070815 239.401287
v -24730.434535 -13690.949333 238.558548
v -24730.434535 -13690.949333 238.558548
v -24738.771779 -13730.070815 239.401287
v -24777.893261 -13721.733571 237.971942
v -24730.434535 -13690.949333 238.558548
v -24777.893261 -13721.733571 237.971942
v -24769.556017 -13682.612089 237.154886
v -24769.556017 -13682.612089 237.154886
v -24777.893261 -13721.733571 237.971942
v -24817.014743 -13713.396327 236.521433
v -24769.556017 -13682.612089 237.154886
v -24817.014743 -13713.396327 236.521433
v -24808.677499 -13674.274845 235.759287
vt -251.187852 125.439824
vt -250.788403 125.418834
vt -250.767890 125.809204
vt -251.187852 125.439824
vt -250.767890 125.809204
vt -251.167339 125.830194
vt -251.167339 125.830194
vt -250.767890 125.809204
vt -250.747378 126.199575
vt -251.167339 125.830194
vt -250.747378 126.199575
vt -251.146826 126.220565
vt -251.146826 126.220565
vt -250.747378 126.199575
vt -250.726865 126.589946
vt -251.146826 126.220565
vt -250.726865 126.589946
vt -251.126314 126.610935
vt -251.126314 126.610935
vt -250.726865 126.589946
vt -250.706352 126.980316
vt -251.126314 126.610935
vt -250.706352 126.980316
vt -251.105801 127.001306
vt -251.105801 127.001306
vt -250.706352 126.980316
vt -250.685839 127.370687
vt -251.105801 127.001306
vt -250.685839 127.370687
vt -251.085288 127.391676
vt -251.085288 127.391676
vt -250.685839 127.370687
vt -250.665327 127.761057
vt -251.085288 127.391676
vt -250.665327 127.761057
vt -251.064776 127.782047
vt -251.064776 127.782047
vt -250.665327 127.761057
vt -250.644814 128.151428
vt -251.064776 127.782047
vt -250.644814 128.151428
vt -251.044263 128.172417
vt -251.044263 128.172417
vt -250.644814 128.151428
vt -250.624301 128.541798
vt -251.044263 128.172417
vt -250.624301 128.541798
vt -251.023750 128.562788
vt -251.023750 128.562788
vt -250.624301 128.541798
vt -250.603788 128.932169
vt -251.023750 128.562788
vt -250.603788 128.932169
vt -251.003237 128.953158
vt -251.003237 128.953158
vt -250.603788 128.932169
vt -250.583276 129.322539
vt -251.003237 128.953158
vt -250.583276 129.322539
vt -250.982725 129.343529
vt -250.982725 129.343529
vt -250.583276 129.322539
vt -250.562763 129.712910
vt -250.982725 129.343529
vt -250.562763 129.712910
vt -250.962212 129.733899
vt -250.962212 129.733899
vt -250.562763 129.712910
vt -250.542250 130.103280
vt -250.962212 129.733899
vt -250.542250 130.103280
vt -250.941699 130.124270
vt -250.941699 130.124270
vt -250.542250 130.103280
vt -250.521738 130.493651
vt -250.941699 130.124270
vt -250.521738 130.493651
vt -250.921187 130.514641
vt -250.921187 130.514641
vt -250.521738 130.493651
vt -250.501225 130.884021
vt -250.921187 130.514641
vt -250.501225 130.884021
vt -250.900674 130.905011
vt -250.900674 130.905011
vt -250.501225 130.884021
vt -250.480712 131.274392
vt -250.900674 130.905011
vt -250.480712 131.274392
vt -250.880161 131.295382
vt -250.880161 131.295382
vt -250.480712 131.274392
vt -250.460199 131.664762
vt -250.880161 131.295382
vt -250.460199 131.664762
vt -250.859648 131.685752
vt -250.859648 131.685752
vt -250.460199 131.664762
vt -250.439687 132.055133
vt -250.859648 131.685752
vt -250.439687 132.055133
vt -250.839136 132.076123
vt -250.839136 132.076123
vt -250.439687 132.055133
vt -250.419174 132.445503
vt -250.839136 132.076123
vt -250.419174 132.445503
vt -250.818623 132.466493
vt -250.818623 132.466493
vt -250.419174 132.445503
vt -250.398661 132.835874
vt -250.818623 132.466493
vt -250.398661 132.835874
vt -250.798110 132.856864
vt -250.798110 132.856864
vt -250.398661 132.835874
vt -250.378149 133.226244
vt -250.798110 132.856864
vt -250.378149 133.226244
vt -250.777597 133.247234
vt -250.777597 133.247234
vt -250.378149 133.226244
vt -250.357636 133.616615
vt -250.777597 133.247234
vt -250.357636 133.616615
vt -250.757085 133.637605
vt -250.757085 133.637605
vt -250.357636 133.616615
vt -250.337123 134.006985
vt -250.757085 133.637605
vt -250.337123 134.006985
vt -250.736572 134.027975
vt -236.691242 124.770967
vt -236.291549 124.755294
vt -236.276233 125.145903
vt -236.691242 124.770967
vt -236.276233 125.145903
vt -236.675926 125.161576
vt -236.675926 125.161576
vt -236.276233 125.145903
vt -236.260916 125.536512
vt -236.675926 125.161576
vt -236.260916 125.536512
vt -236.660609 125.552185
vt -236.660609 125.552185
vt -236.260916 125.536512
vt -236.245600 125.927121
vt -236.660609 125.552185
vt -236.245600 125.927121
vt -236.645292 125.942794
vt -236.645292 125.942794
vt -236.245600 125.927121
vt -236.230283 126.317730
vt -236.645292 125.942794
vt -236.230283 126.317730
vt -236.629976 126.333403
vt -236.629976 126.333403
vt -236.230283 126.317730
vt -236.214966 126.708339
vt -236.629976 126.333403
vt -236.214966 126.708339
vt -236.614659 126.724011
vt -236.614659 126.724011
vt -236.214966 126.708339
vt -236.199650 127.098948
vt -236.614659 126.724011
vt -236.199650 127.098948
vt -236.599343 127.114620
vt -236.599343 127.114620
vt -236.199650 127.098948
vt -236.184333 127.489556
vt -236.599343 127.114620
vt -236.184333 127.489556
vt -236.584026 127.505229
vt -236.584026 127.505229
vt -236.184333 127.489556
vt -236.169017 127.880165
vt -236.584026 127.505229
vt -236.169017 127.880165
vt -236.568709 127.895838
vt -236.568709 127.895838
vt -236.169017 127.880165
vt -236.153700 128.270774
vt -236.568709 127.895838
vt -236.153700 128.270774
vt -236.553393 128.286447
vt -236.553393 128.286447
vt -236.153700 128.270774
vt -236.138383 128.661383
vt -236.553393 128.286447
vt -236.138383 128.661383
vt -236.538076 128.677056
vt -236.538076 128.677056
vt -236.138383 128.661383
vt -236.123067 129.051992
vt -236.538076 128.677056
vt -236.123067 129.051992
vt -236.522760 129.067665
vt -236.522760 129.067665
vt -236.123067 129.051992
vt -236.107750 129.442601
vt -236.522760 129.067665
vt -236.107750 129.442601
vt -236.507443 129.458274
vt -236.507443 129.458274
vt -236.107750 129.442601
vt -236.092434 129.833210
vt -236.507443 129.458274
vt -236.092434 129.833210
vt -236.492126 129.848883
vt -236.492126 129.848883
vt -236.092434 129.833210
vt -236.077117 130.223819
vt -236.492126 129.848883
vt -236.077117 130.223819
vt -236.476810 130.239492
vt -236.476810 130.239492
vt -236.077117 130.223819
vt -236.061800 130.614428
vt -236.476810 130.239492
vt -236.061800 130.614428
vt -236.461493 130.630101
vt -236.461493 130.630101
vt -236.061800 130.614428
vt -236.046484 131.005037
vt -236.461493 130.630101
vt -236.046484 131.005037
vt -236.446177 131.020709
vt -236.446177 131.020709
vt -236.046484 131.005037
vt -236.031167 131.395646
vt -236.446177 131.020709
vt -236.031167 131.395646
vt -236.430860 131.411318
vt -236.430860 131.411318
vt -236.031167 131.395646
vt -236.015851 131.786254
vt -236.430860 131.411318
vt -236.015851 131.786254
vt -236.415543 131.801927
vt -236.415543 131.801927
vt -236.015851 131.786254
vt -236.000534 132.176863
vt -236.415543 131.801927
vt -236.000534 132.176863
vt -236.400227 132.192536
vt -236.400227 132.192536
vt -236.000534 132.176863
vt -235.985217 132.567472
vt -236.400227 132.192536
vt -235.985217 132.567472
vt -236.384910 132.583145
vt -236.384910 132.583145
vt -235.985217 132.567472
vt -235.969901 132.958081
vt -236.384910 132.583145
vt -235.969901 132.958081
vt -236.369594 132.973754
vt -236.369594 132.973754
vt -235.969901 132.958081
vt -235.954584 133.348690
vt -236.369594 132.973754
vt -235.954584 133.348690
vt -236.354277 133.364363
vt -238.707031 119.421477
vt -238.791910 119.812368
vt -239.182801 119.727489
vt -238.707031 119.421477
vt -239.182801 119.727489
vt -239.097922 119.336599
vt -239.097922 119.336599
vt -239.182801 119.727489
vt -239.573691 119.642611
vt -239.097922 119.336599
vt -239.573691 119.642611
vt -239.488813 119.251720
vt -239.488813 119.251720
vt -239.573691 119.642611
vt -239.964582 119.557732
vt -239.488813 119.251720
vt -239.964582 119.557732
vt -239.879704 119.166842
vt -239.879704 119.166842
vt -239.964582 119.557732
vt -240.355473 119.472854
vt -239.879704 119.166842
vt -240.355473 119.472854
vt -240.270595 119.081963
vt -240.270595 119.081963
vt -240.355473 119.472854
vt -240.746364 119.387975
vt -240.270595 119.081963
vt -240.746364 119.387975
vt -240.661485 118.997085
vt -240.661485 118.997085
vt -240.746364 119.387975
vt -241.137255 119.303097
vt -240.661485 118.997085
vt -241.137255 119.303097
vt -241.052376 118.912206
vt -241.052376 118.912206
vt -241.137255 119.303097
vt -241.528146 119.218218
vt -241.052376 118.912206
vt -241.528146 119.218218
vt -241.443267 118.827328
vt -241.443267 118.827328
vt -241.528146 119.218218
vt -241.919036 119.133340
vt -241.443267 118.827328
vt -241.919036 119.133340
vt -241.834158 118.742449
vt -241.834158 118.742449
vt -241.919036 119.133340
vt -242.309927 119.048461
vt -241.834158 118.742449
vt -242.309927 119.048461
vt -242.225049 118.657571
vt -242.225049 118.657571
vt -242.309927 119.048461
vt -242.700818 118.963583
vt -242.225049 118.657571
vt -242.700818 118.963583
vt -242.615940 118.572692
vt -242.615940 118.572692
vt -242.700818 118.963583
vt -243.091709 118.878704
vt -242.615940 118.572692
vt -243.091709 118.878704
vt -243.006830 118.487813
vt -243.006830 118.487813
vt -243.091709 118.878704
vt -243.482600 118.793826
vt -243.006830 118.487813
vt -243.482600 118.793826
vt -243.397721 118.402935
vt -243.397721 118.402935
vt -243.482600 118.793826
vt -243.873491 118.708947
vt -243.397721 118.402935
vt -243.873491 118.708947
vt -243.788612 118.318056
vt -243.788612 118.318056
vt -243.873491 118.708947
vt -244.264381 118.624069
vt -243.788612 118.318056
vt -244.264381 118.624069
vt -244.179503 118.233178
vt -242.609767 137.909963
vt -242.693140 138.301177
vt -243.084355 138.217805
vt -242.609767 137.909963
vt -243.084355 138.217805
vt -243.000982 137.826590
vt -243.000982 137.826590
vt -243.084355 138.217805
vt -243.475570 138.134433
vt -243.000982 137.826590
vt -243.475570 138.134433
vt -243.392197 137.743218
vt -243.392197 137.743218
vt -243.475570 138.134433
vt -243.866784 138.051060
vt -243.392197 137.743218
vt -243.866784 138.051060
vt -243.783412 137.659845
vt -243.783412 137.659845
vt -243.866784 138.051060
vt -244.257999 137.967688
vt -243.783412 137.659845
vt -244.257999 137.967688
vt -244.174627 137.576473
vt -244.174627 137.576473
vt -244.257999 137.967688
vt -244.649214 137.884315
vt -244.174627 137.576473
vt -244.649214 137.884315
vt -244.565842 137.493100
vt -244.565842 137.493100
vt -244.649214 137.884315
vt -245.040429 137.800943
vt -244.565842 137.493100
vt -245.040429 137.800943
vt -244.957056 137.409728
vt -244.957056 137.409728
vt -245.040429 137.800943
vt -245.431644 137.717570
vt -244.957056 137.409728
vt -245.431644 137.717570
vt -245.348271 137.326356
vt -245.348271 137.326356
vt -245.431644 137.717570
vt -245.822859 137.634198
vt -245.348271 137.326356
vt -245.822859 137.634198
vt -245.739486 137.242983
vt -245.739486 137.242983
vt -245.822859 137.634198
vt -246.214073 137.550825
vt -245.739486 137.242983
vt -246.214073 137.550825
vt -246.130701 137.159611
vt -246.130701 137.159611
vt -246.214073 137.550825
vt -246.605288 137.467453
vt -246.130701 137.159611
vt -246.605288 137.467453
vt -246.521916 137.076238
vt -246.521916 137.076238
vt -246.605288 137.467453
vt -246.996503 137.384081
vt -246.521916 137.076238
vt -246.996503 137.384081
vt -246.913131 136.992866
vt -246.913131 136.992866
vt -246.996503 137.384081
vt -247.387718 137.300708
vt -246.913131 136.992866
vt -247.387718 137.300708
vt -247.304345 136.909493
vt -247.304345 136.909493
vt -247.387718 137.300708
vt -247.778933 137.217336
vt -247.304345 136.909493
vt -247.778933 137.217336
vt -247.695560 136.826121
vt -247.695560 136.826121
vt -247.778933 137.217336
vt -248.170147 137.133963
vt -247.695560 136.826121
vt -248.170147 137.133963
vt -248.086775 136.742748
f 3/3 2/2 1/1
f 6/6 5/5 4/4
f 9/9 8/8 7/7
f 12/12 11/11 10/10
f 15/15 14/14 13/13
f 18/18 17/17 16/16
f 21/21 20/20 19/19
f 24/24 23/23 22/22
f 27/27 26/26 25/25
f 30/30 29/29 28/28
f 33/33 32/32 31/31
f 36/36 35/35 34/34
f 39/39 38/38 37/37
f 42/42 41/41 40/40
f 45/45 44/44 43/43
f 48/48 47/47 46/46
f 51/51 50/50 49/49
f 54/54 53/53 52/52
f 57/57 56/56 55/55
f 60/60 59/59 58/58
f 63/63 62/62 61/61
f 66/66 65/65 64/64
f 69/69 68/68 67/67
f 72/72 71/71 70/70
f 75/75 74/74 73/73
f 78/78 77/77 76/76
f 81/81 80/80 79/79
f 84/84 83/83 82/82
f 87/87 86/86 85/85
f 90/90 89/89 88/88
f 93/93 92/92 91/91
f 96/96 95/95 94/94
f 99/99 98/98 97/97
f 102/102 101/101 100/100
f 105/105 104/104 103/103
f 108/108 107/107 106/106
f 111/111 110/110 109/109
f 114/114 113/113 112/112
f 117/117 116/116 115/115
f 120/120 119/119 118/118
f 123/123 122/122 121/121
f 126/126 125/125 124/124
f 129/129 128/128 127/127
f 132/132 131/131 130/130
f 135/135 134/134 133/133
f 138/138 137/137 136/136
f 141/141 140/140 139/139
f 144/144 143/143 142/142
f 147/147 146/146 145/145
f 150/150 149/149 148/148
f 153/153 152/152 151/151
f 156/156 155/155 154/154
f 159/159 158/158 157/157
f 162/162 161/161 160/160
f 165/165 164/164 163/163
f 168/168 167/167 166/166
f 171/171 170/170 169/169
f 174/174 173/173 172/172
f 177/177 176/176 175/175
f 180/180 179/179 178/178
f 183/183 182/182 181/181
f 186/186 185/185 184/184
f 189/189 188/188 187/187
f 192/192 191/191 190/190
f 195/195 194/194 193/193
f 198/198 197/197 196/196
f 201/201 200/200 199/199
f 204/204 203/203 202/202
f 207/207 206/206 205/205
f 210/210 209/209 208/208
f 213/213 212/212 211/211
f 216/216 215/215 214/214
f 219/219 218/218 217/217
f 222/222 221/221 220/220
f 225/225 224/224 223/223
f 228/228 227/227 226/226
f 231/231 230/230 229/229
f 234/234 233/233 232/232
f 237/237 236/236 235/235
f 240/240 239/239 238/238
f 243/243 242/242 241/241
f 246/246 245/245 244/244
f 249/249 248/248 247/247
f 252/252 251/251 250/250
f 255/255 254/254 253/253
f 258/258 257/257 256/256
f 261/261 260/260 259/259
f 264/264 263/263 262/262
f 267/267 266/266 265/265
f 270/270 269/269 268/268
f 273/273 272/272 271/271
f 276/276 275/275 274/274
f 279/279 278/278 277/277
f 282/282 281/281 280/280
f 285/285 284/284 283/283
f 288/288 287/287 286/286
f 291/291 290/290 289/289
f 294/294 293/293 292/292
f 297/297 296/296 295/295
f 300/300 299/299 298/298
f 303/303 302/302 301/301
f 306/306 305/305 304/304
f 309/309 308/308 307/307
f 312/312 311/311 310/310
f 315/315 314/314 313/313
f 318/318 317/317 316/316
f 321/321 320/320 319/319
f 324/324 323/323 322/322
f 327/327 326/326 325/325
f 330/330 329/329 328/328
f 333/333 332/332 331/331
f 336/336 335/335 334/334
f 339/339 338/338 337/337
f 342/342 341/341 340/340
f 345/345 344/344 343/343
f 348/348 347/347 346/346
f 351/351 350/350 349/349
f 354/354 353/353 352/352
f 357/357 356/356 355/355
f 360/360 359/359 358/358
f 363/363 362/362 361/361
f 366/366 365/365 364/364
f 369/369 368/368 367/367
f 372/372 371/371 370/370
f 375/375 374/374 373/373
f 378/378 377/377 376/376
f 381/381 380/380 379/379
f 384/384 383/383 382/382
f 387/387 386/386 385/385
f 390/390 389/389 388/388
f 393/393 392/392 391/391
f 396/396 395/395 394/394
f 399/399 398/398 397/397
f 402/402 401/401 400/400
f 405/405 404/404 403/403
f 408/408 407/407 406/406
f 411/411 410/410 409/409
f 414/414 413/413 412/412
f 417/417 416/416 415/415
f 420/420 419/419 418/418
f 423/423 422/422 421/421
f 426/426 425/425 424/424
f 429/429 428/428 427/427
f 432/432 431/431 430/430
