o RainbowViolet
v -24919.060731 -12533.487494 197.089140
v -24879.115840 -12531.388518 197.945657
v -24877.064568 -12570.425571 199.457910
v -24919.060731 -12533.487494 197.089140
v -24877.064568 -12570.425571 199.457910
v -24917.009459 -12572.524546 198.600374
v -24917.009459 -12572.524546 198.600374
v -24877.064568 -12570.425571 199.457910
v -24875.013296 -12609.462623 200.947157
v -24917.009459 -12572.524546 198.600374
v -24875.013296 -12609.462623 200.947157
v -24914.958187 -12611.561599 200.084742
v -24914.958187 -12611.561599 200.084742
v -24875.013296 -12609.462623 200.947157
v -24872.962024 -12648.499675 202.367645
v -24914.958187 -12611.561599 200.084742
v -24872.962024 -12648.499675 202.367645
v -24912.906915 -12650.598651 201.505230
v -24912.906915 -12650.598651 201.505230
v -24872.962024 -12648.499675 202.367645
v -24870.910753 -12687.536728 203.788133
v -24912.906915 -12650.598651 201.505230
v -24870.910753 -12687.536728 203.788133
v -24910.855643 -12689.635703 202.925718
v -24910.855643 -12689.635703 202.925718
v -24870.910753 -12687.536728 203.788133
v -24868.859481 -12726.573780 205.195884
v -24910.855643 -12689.635703 202.925718
v -24868.859481 -12726.573780 205.195884
v -24908.804372 -12728.672756 204.329402
v -24908.804372 -12728.672756 204.329402
v -24868.859481 -12726.573780 205.195884
v -24866.808209 -12765.610832 206.536351
v -24908.804372 -12728.672756 204.329402
v -24866.808209 -12765.610832 206.536351
v -24906.753100 -12767.709808 205.674257
v -24906.753100 -12767.709808 205.674257
v -24866.808209 -12765.610832 206.536351
v -24864.756937 -12804.647885 207.871618
v -24906.753100 -12767.709808 205.674257
v -24864.756937 -12804.647885 207.871618
v -24904.701828 -12806.746860 207.013967
v -24904.701828 -12806.746860 207.013967
v -24864.756937 -12804.647885 207.871618
v -24862.705666 -12843.684937 209.206591
v -24904.701828 -12806.746860 207.013967
v -24862.705666 -12843.684937 209.206591
v -24902.650556 -12845.783913 208.348771
v -24902.650556 -12845.783913 208.348771
v -24862.705666 -12843.684937 209.206591
v -24860.654394 -12882.721989 210.543885
v -24902.650556 -12845.783913 208.348771
v -24860.654394 -12882.721989 210.543885
v -24900.599285 -12884.820965 209.680916
v -24900.599285 -12884.820965 209.680916
v -24860.654394 -12882.721989 210.543885
v -24858.603122 -12921.759042 211.885617
v -24900.599285 -12884.820965 209.680916
v -24858.603122 -12921.759042 211.885617
v -24898.548013 -12923.858018 211.018967
v -24898.548013 -12923.858018 211.018967
v -24858.603122 -12921.759042 211.885617
v -24856.551850 -12960.796094 213.225845
v -24898.548013 -12923.858018 211.018967
v -24856.551850 -12960.796094 213.225845
v -24896.496741 -12962.895070 212.355229
v -24896.496741 -12962.895070 212.355229
v -24856.551850 -12960.796094 213.225845
v -24854.500578 -12999.833147 214.493829
v -24896.496741 -12962.895070 212.355229
v -24854.500578 -12999.833147 214.493829
v -24894.445469 -13001.932122 213.623214
v -24894.445469 -13001.932122 213.623214
v -24854.500578 -12999.833147 214.493829
v -24852.449307 -13038.870199 215.761814
v -24894.445469 -13001.932122 213.623214
v -24852.449307 -13038.870199 215.761814
v -24892.394197 -13040.969175 214.891198
v -24892.394197 -13040.969175 214.891198
v -24852.449307 -13038.870199 215.761814
v -24850.398035 -13077.907251 217.029798
v -24892.394197 -13040.969175 214.891198
v -24850.398035 -13077.907251 217.029798
v -24890.342926 -13080.006227 216.159183
v -24890.342926 -13080.006227 216.159183
v -24850.398035 -13077.907251 217.029798
v -24848.346763 -13116.944304 218.297783
v -24890.342926 -13080.006227 216.159183
v -24848.346763 -13116.944304 218.297783
v -24888.291654 -13119.043279 217.427168
v -24888.291654 -13119.043279 217.427168
v -24848.346763 -13116.944304 218.297783
v -24846.295491 -13155.981356 219.565768
v -24888.291654 -13119.043279 217.427168
v -24846.295491 -13155.981356 219.565768
v -24886.240382 -13158.080332 218.695152
v -24886.240382 -13158.080332 218.695152
v -24846.295491 -13155.981356 219.565768
v -24844.244220 -13195.018408 220.833752
v -24886.240382 -13158.080332 218.695152
v -24844.244220 -13195.018408 220.833752
v -24884.189110 -13197.117384 219.963137
v -24884.189110 -13197.117384 219.963137
v -24844.244220 -13195.018408 220.833752
v -24842.192948 -13234.055461 222.073067
v -24884.189110 -13197.117384 219.963137
v -24842.192948 -13234.055461 222.073067
v -24882.137839 -13236.154437 221.134045
v -24882.137839 -13236.154437 221.134045
v -24842.192948 -13234.055461 222.073067
v -24840.141676 -13273.092513 223.317181
v -24882.137839 -13236.154437 221.134045
v -24840.141676 -13273.092513 223.317181
v -24880.086567 -13275.191489 222.366372
v -24880.086567 -13275.191489 222.366372
v -24840.141676 -13273.092513 223.317181
v -24838.090404 -13312.129566 224.561677
v -24880.086567 -13275.191489 222.366372
v -24838.090404 -13312.129566 224.561677
v -24878.035295 -13314.228541 223.610486
v -24878.035295 -13314.228541 223.610486
v -24838.090404 -13312.129566 224.561677
v -24836.039133 -13351.166618 225.750912
v -24878.035295 -13314.228541 223.610486
v -24836.039133 -13351.166618 225.750912
v -24875.984023 -13353.265594 224.804619
v -24875.984023 -13353.265594 224.804619
v -24836.039133 -13351.166618 225.750912
v -24833.987861 -13390.203670 226.928128
v -24875.984023 -13353.265594 224.804619
v -24833.987861 -13390.203670 226.928128
v -24873.932752 -13392.302646 225.982918
v -23469.277793 -12469.260295 231.450476
v -23429.308509 -12467.693016 232.608814
v -23427.776850 -12506.753907 234.286720
v -23469.277793 -12469.260295 231.450476
v -23427.776850 -12506.753907 234.286720
v -23467.746134 -12508.321186 233.125788
v -23467.746134 -12508.321186 233.125788
v -23427.776850 -12506.753907 234.286720
v -23426.245191 -12545.814798 236.012980
v -23467.746134 -12508.321186 233.125788
v -23426.245191 -12545.814798 236.012980
v -23466.214475 -12547.382077 234.785356
v -23466.214475 -12547.382077 234.785356
v -23426.245191 -12545.814798 236.012980
v -23424.713532 -12584.875688 237.741017
v -23466.214475 -12547.382077 234.785356
v -23424.713532 -12584.875688 237.741017
v -23464.682816 -12586.442968 236.513393
v -23464.682816 -12586.442968 236.513393
v -23424.713532 -12584.875688 237.741017
v -23423.181873 -12623.936579 239.445372
v -23464.682816 -12586.442968 236.513393
v -23423.181873 -12623.936579 239.445372
v -23463.151156 -12625.503858 238.215375
v -23463.151156 -12625.503858 238.215375
v -23423.181873 -12623.936579 239.445372
v -23421.650214 -12662.997470 241.174942
v -23463.151156 -12625.503858 238.215375
v -23421.650214 -12662.997470 241.174942
v -23461.619497 -12664.564749 239.906515
v -23461.619497 -12664.564749 239.906515
v -23421.650214 -12662.997470 241.174942
v -23420.118554 -12702.058361 242.904513
v -23461.619497 -12664.564749 239.906515
v -23420.118554 -12702.058361 242.904513
v -23460.087838 -12703.625640 241.636086
v -23460.087838 -12703.625640 241.636086
v -23420.118554 -12702.058361 242.904513
v -23418.586895 -12741.119252 244.649617
v -23460.087838 -12703.625640 241.636086
v -23418.586895 -12741.119252 244.649617
v -23458.556179 -12742.686531 243.383522
v -23458.556179 -12742.686531 243.383522
v -23418.586895 -12741.119252 244.649617
v -23417.055236 -12780.180143 246.392357
v -23458.556179 -12742.686531 243.383522
v -23417.055236 -12780.180143 246.392357
v -23457.024520 -12781.747422 245.141806
v -23457.024520 -12781.747422 245.141806
v -23417.055236 -12780.180143 246.392357
v -23415.523577 -12819.241033 248.135097
v -23457.024520 -12781.747422 245.141806
v -23415.523577 -12819.241033 248.135097
v -23455.492860 -12820.808313 246.884545
v -23455.492860 -12820.808313 246.884545
v -23415.523577 -12819.241033 248.135097
v -23413.991918 -12858.301924 249.880061
v -23455.492860 -12820.808313 246.884545
v -23413.991918 -12858.301924 249.880061
v -23453.961201 -12859.869203 248.620264
v -23453.961201 -12859.869203 248.620264
v -23413.991918 -12858.301924 249.880061
v -23412.460258 -12897.362815 251.690861
v -23453.961201 -12859.869203 248.620264
v -23412.460258 -12897.362815 251.690861
v -23452.429542 -12898.930094 250.362310
v -23452.429542 -12898.930094 250.362310
v -23412.460258 -12897.362815 251.690861
v -23410.928599 -12936.423706 253.501661
v -23452.429542 -12898.930094 250.362310
v -23410.928599 -12936.423706 253.501661
v -23450.897883 -12937.990985 252.173110
v -23450.897883 -12937.990985 252.173110
v -23410.928599 -12936.423706 253.501661
v -23409.396940 -12975.484597 255.306671
v -23450.897883 -12937.990985 252.173110
v -23409.396940 -12975.484597 255.306671
v -23449.366224 -12977.051876 253.976505
v -23449.366224 -12977.051876 253.976505
v -23409.396940 -12975.484597 255.306671
v -23407.865281 -13014.545488 257.106739
v -23449.366224 -12977.051876 253.976505
v -23407.865281 -13014.545488 257.106739
v -23447.834565 -13016.112767 255.771614
v -23447.834565 -13016.112767 255.771614
v -23407.865281 -13014.545488 257.106739
v -23406.333622 -13053.606379 258.906807
v -23447.834565 -13016.112767 255.771614
v -23406.333622 -13053.606379 258.906807
v -23446.302905 -13055.173658 257.571682
v -23446.302905 -13055.173658 257.571682
v -23406.333622 -13053.606379 258.906807
v -23404.801963 -13092.667269 260.727724
v -23446.302905 -13055.173658 257.571682
v -23404.801963 -13092.667269 260.727724
v -23444.771246 -13094.234549 259.382960
v -23444.771246 -13094.234549 259.382960
v -23404.801963 -13092.667269 260.727724
v -23403.270303 -13131.728160 262.614669
v -23444.771246 -13094.234549 259.382960
v -23403.270303 -13131.728160 262.614669
v -23443.239587 -13133.295439 261.227689
v -23443.239587 -13133.295439 261.227689
v -23403.270303 -13131.728160 262.614669
v -23401.738644 -13170.789051 264.501614
v -23443.239587 -13133.295439 261.227689
v -23401.738644 -13170.789051 264.501614
v -23441.707928 -13172.356330 263.114634
v -23441.707928 -13172.356330 263.114634
v -23401.738644 -13170.789051 264.501614
v -23400.206985 -13209.849942 266.381213
v -23441.707928 -13172.356330 263.114634
v -23400.206985 -13209.849942 266.381213
v -23440.176269 -13211.417221 264.976803
v -23440.176269 -13211.417221 264.976803
v -23400.206985 -13209.849942 266.381213
v -23398.675326 -13248.910833 268.241462
v -23440.176269 -13211.417221 264.976803
v -23398.675326 -13248.910833 268.241462
v -23438.644609 -13250.478112 266.796200
v -23438.644609 -13250.478112 266.796200
v -23398.675326 -13248.910833 268.241462
v -23397.143667 -13287.971724 270.101555
v -23438.644609 -13250.478112 266.796200
v -23397.143667 -13287.971724 270.101555
v -23437.112950 -13289.539003 268.657440
v -23437.112950 -13289.539003 268.657440
v -23397.143667 -13287.971724 270.101555
v -23395.612007 -13327.032614 271.964554
v -23437.112950 -13289.539003 268.657440
v -23395.612007 -13327.032614 271.964554
v -23435.581291 -13328.599894 270.506168
v -23913.142379 -12137.593121 204.758851
v -23921.630230 -12176.682204 206.445469
v -23960.719312 -12168.194353 204.718441
v -23913.142379 -12137.593121 204.758851
v -23960.719312 -12168.194353 204.718441
v -23952.231461 -12129.105271 202.845982
v -23952.231461 -12129.105271 202.845982
v -23960.719312 -12168.194353 204.718441
v -23999.808395 -12159.706502 203.032754
v -23952.231461 -12129.105271 202.845982
v -23999.808395 -12159.706502 203.032754
v -23991.320544 -12120.617420 201.064412
v -23991.320544 -12120.617420 201.064412
v -23999.808395 -12159.706502 203.032754
v -24038.897478 -12151.218652 201.732546
v -23991.320544 -12120.617420 201.064412
v -24038.897478 -12151.218652 201.732546
v -24030.409627 -12112.129569 199.596081
v -24030.409627 -12112.129569 199.596081
v -24038.897478 -12151.218652 201.732546
v -24077.986560 -12142.730801 200.708419
v -24030.409627 -12112.129569 199.596081
v -24077.986560 -12142.730801 200.708419
v -24069.498710 -12103.641718 198.673818
v -24069.498710 -12103.641718 198.673818
v -24077.986560 -12142.730801 200.708419
v -24117.075643 -12134.242950 199.519930
v -24069.498710 -12103.641718 198.673818
v -24117.075643 -12134.242950 199.519930
v -24108.587792 -12095.153867 197.884142
v -24108.587792 -12095.153867 197.884142
v -24117.075643 -12134.242950 199.519930
v -24156.164726 -12125.755099 198.709468
v -24108.587792 -12095.153867 197.884142
v -24156.164726 -12125.755099 198.709468
v -24147.676875 -12086.666016 197.164861
v -24147.676875 -12086.666016 197.164861
v -24156.164726 -12125.755099 198.709468
v -24195.253809 -12117.267248 197.705639
v -24147.676875 -12086.666016 197.164861
v -24195.253809 -12117.267248 197.705639
v -24186.765958 -12078.178165 196.156246
v -24186.765958 -12078.178165 196.156246
v -24195.253809 -12117.267248 197.705639
v -24234.342891 -12108.779397 196.621810
v -24186.765958 -12078.178165 196.156246
v -24234.342891 -12108.779397 196.621810
v -24225.855040 -12069.690315 195.030437
v -24225.855040 -12069.690315 195.030437
v -24234.342891 -12108.779397 196.621810
v -24273.431974 -12100.291546 195.340935
v -24225.855040 -12069.690315 195.030437
v -24273.431974 -12100.291546 195.340935
v -24264.944123 -12061.202464 193.811135
v -24264.944123 -12061.202464 193.811135
v -24273.431974 -12100.291546 195.340935
v -24312.521057 -12091.803696 194.060063
v -24264.944123 -12061.202464 193.811135
v -24312.521057 -12091.803696 194.060063
v -24304.033206 -12052.714613 192.579393
v -24304.033206 -12052.714613 192.579393
v -24312.521057 -12091.803696 194.060063
v -24351.610139 -12083.315845 192.808190
v -24304.033206 -12052.714613 192.579393
v -24351.610139 -12083.315845 192.808190
v -24343.122289 -12044.226762 191.298521
v -24343.122289 -12044.226762 191.298521
v -24351.610139 -12083.315845 192.808190
v -24390.699222 -12074.827994 191.691929
v -24343.122289 -12044.226762 191.298521
v -24390.699222 -12074.827994 191.691929
v -24382.211371 -12035.738911 190.297644
v -24382.211371 -12035.738911 190.297644
v -24390.699222 -12074.827994 191.691929
v -24429.788305 -12066.340143 190.971489
v -24382.211371 -12035.738911 190.297644
v -24429.788305 -12066.340143 190.971489
v -24421.300454 -12027.251060 189.632266
v -24421.300454 -12027.251060 189.632266
v -24429.788305 -12066.340143 190.971489
v -24468.877388 -12057.852292 190.856775
v -24421.300454 -12027.251060 189.632266
v -24468.877388 -12057.852292 190.856775
v -24460.389537 -12018.763209 189.672404
v -24302.662971 -13986.603673 259.965634
v -24311.000215 -14025.725155 259.487158
v -24350.121697 -14017.387911 258.037899
v -24302.662971 -13986.603673 259.965634
v -24350.121697 -14017.387911 258.037899
v -24341.784453 -13978.266429 258.470019
v -24341.784453 -13978.266429 258.470019
v -24350.121697 -14017.387911 258.037899
v -24389.243179 -14009.050667 256.847946
v -24341.784453 -13978.266429 258.470019
v -24389.243179 -14009.050667 256.847946
v -24380.905935 -13969.929185 257.261291
v -24380.905935 -13969.929185 257.261291
v -24389.243179 -14009.050667 256.847946
v -24428.364661 -14000.713423 255.863160
v -24380.905935 -13969.929185 257.261291
v -24428.364661 -14000.713423 255.863160
v -24420.027417 -13961.591941 256.010697
v -24420.027417 -13961.591941 256.010697
v -24428.364661 -14000.713423 255.863160
v -24467.486143 -13992.376179 254.792353
v -24420.027417 -13961.591941 256.010697
v -24467.486143 -13992.376179 254.792353
v -24459.148899 -13953.254697 254.657873
v -24459.148899 -13953.254697 254.657873
v -24467.486143 -13992.376179 254.792353
v -24506.607625 -13984.038934 253.655776
v -24459.148899 -13953.254697 254.657873
v -24506.607625 -13984.038934 253.655776
v -24498.270381 -13944.917452 253.227785
v -24498.270381 -13944.917452 253.227785
v -24506.607625 -13984.038934 253.655776
v -24545.729107 -13975.701690 252.308976
v -24498.270381 -13944.917452 253.227785
v -24545.729107 -13975.701690 252.308976
v -24537.391863 -13936.580208 251.759106
v -24537.391863 -13936.580208 251.759106
v -24545.729107 -13975.701690 252.308976
v -24584.850589 -13967.364446 250.960581
v -24537.391863 -13936.580208 251.759106
v -24584.850589 -13967.364446 250.960581
v -24576.513345 -13928.242964 250.314621
v -24576.513345 -13928.242964 250.314621
v -24584.850589 -13967.364446 250.960581
v -24623.972071 -13959.027202 249.501823
v -24576.513345 -13928.242964 250.314621
v -24623.972071 -13959.027202 249.501823
v -24615.634827 -13919.905720 248.878013
v -24615.634827 -13919.905720 248.878013
v -24623.972071 -13959.027202 249.501823
v -24663.093553 -13950.689958 247.931039
v -24615.634827 -13919.905720 248.878013
v -24663.093553 -13950.689958 247.931039
v -24654.756309 -13911.568476 247.307229
v -24654.756309 -13911.568476 247.307229
v -24663.093553 -13950.689958 247.931039
v -24702.215035 -13942.352714 246.456716
v -24654.756309 -13911.568476 247.307229
v -24702.215035 -13942.352714 246.456716
v -24693.877791 -13903.231232 245.756762
v -24693.877791 -13903.231232 245.756762
v -24702.215035 -13942.352714 246.456716
v -24741.336518 -13934.015470 244.930042
v -24693.877791 -13903.231232 245.756762
v -24741.336518 -13934.015470 244.930042
v -24732.999273 -13894.893988 244.153411
v -24732.999273 -13894.893988 244.153411
v -24741.336518 -13934.015470 244.930042
v -24780.458000 -13925.678226 243.468408
v -24732.999273 -13894.893988 244.153411
v -24780.458000 -13925.678226 243.468408
v -24772.120756 -13886.556744 242.659207
v -24772.120756 -13886.556744 242.659207
v -24780.458000 -13925.678226 243.468408
v -24819.579482 -13917.340982 242.017904
v -24772.120756 -13886.556744 242.659207
v -24819.579482 -13917.340982 242.017904
v -24811.242238 -13878.219499 241.208713
v -24811.242238 -13878.219499 241.208713
v -24819.579482 -13917.340982 242.017904
v -24858.700964 -13909.003737 240.567381
v -24811.242238 -13878.219499 241.208713
v -24858.700964 -13909.003737 240.567381
v -24850.363720 -13869.882255 239.758164
vt -249.190607 125.334875
vt -248.791158 125.313885
vt -248.770646 125.704256
vt -249.190607 125.334875
vt -248.770646 125.704256
vt -249.170095 125.725245
vt -249.170095 125.725245
vt -248.770646 125.704256
vt -248.750133 126.094626
vt -249.170095 125.725245
vt -248.750133 126.094626
vt -249.149582 126.115616
vt -249.149582 126.115616
vt -248.750133 126.094626
vt -248.729620 126.484997
vt -249.149582 126.115616
vt -248.729620 126.484997
vt -249.129069 126.505987
vt -249.129069 126.505987
vt -248.729620 126.484997
vt -248.709108 126.875367
vt -249.129069 126.505987
vt -248.709108 126.875367
vt -249.108556 126.896357
vt -249.108556 126.896357
vt -248.709108 126.875367
vt -248.688595 127.265738
vt -249.108556 126.896357
vt -248.688595 127.265738
vt -249.088044 127.286728
vt -249.088044 127.286728
vt -248.688595 127.265738
vt -248.668082 127.656108
vt -249.088044 127.286728
vt -248.668082 127.656108
vt -249.067531 127.677098
vt -249.067531 127.677098
vt -248.668082 127.656108
vt -248.647569 128.046479
vt -249.067531 127.677098
vt -248.647569 128.046479
vt -249.047018 128.067469
vt -249.047018 128.067469
vt -248.647569 128.046479
vt -248.627057 128.436849
vt -249.047018 128.067469
vt -248.627057 128.436849
vt -249.026506 128.457839
vt -249.026506 128.457839
vt -248.627057 128.436849
vt -248.606544 128.827220
vt -249.026506 128.457839
vt -248.606544 128.827220
vt -249.005993 128.848210
vt -249.005993 128.848210
vt -248.606544 128.827220
vt -248.586031 129.217590
vt -249.005993 128.848210
vt -248.586031 129.217590
vt -248.985480 129.238580
vt -248.985480 129.238580
vt -248.586031 129.217590
vt -248.565519 129.607961
vt -248.985480 129.238580
vt -248.565519 129.607961
vt -248.964967 129.628951
vt -248.964967 129.628951
vt -248.565519 129.607961
vt -248.545006 129.998331
vt -248.964967 129.628951
vt -248.545006 129.998331
vt -248.944455 130.019321
vt -248.944455 130.019321
vt -248.545006 129.998331
vt -248.524493 130.388702
vt -248.944455 130.019321
vt -248.524493 130.388702
vt -248.923942 130.409692
vt -248.923942 130.409692
vt -248.524493 130.388702
vt -248.503980 130.779073
vt -248.923942 130.409692
vt -248.503980 130.779073
vt -248.903429 130.800062
vt -248.903429 130.800062
vt -248.503980 130.779073
vt -248.483468 131.169443
vt -248.903429 130.800062
vt -248.483468 131.169443
vt -248.882917 131.190433
vt -248.882917 131.190433
vt -248.483468 131.169443
vt -248.462955 131.559814
vt -248.882917 131.190433
vt -248.462955 131.559814
vt -248.862404 131.580803
vt -248.862404 131.580803
vt -248.462955 131.559814
vt -248.442442 131.950184
vt -248.862404 131.580803
vt -248.442442 131.950184
vt -248.841891 131.971174
vt -248.841891 131.971174
vt -248.442442 131.950184
vt -248.421929 132.340555
vt -248.841891 131.971174
vt -248.421929 132.340555
vt -248.821378 132.361544
vt -248.821378 132.361544
vt -248.421929 132.340555
vt -248.401417 132.730925
vt -248.821378 132.361544
vt -248.401417 132.730925
vt -248.800866 132.751915
vt -248.800866 132.751915
vt -248.401417 132.730925
vt -248.380904 133.121296
vt -248.800866 132.751915
vt -248.380904 133.121296
vt -248.780353 133.142285
vt -248.780353 133.142285
vt -248.380904 133.121296
vt -248.360391 133.511666
vt -248.780353 133.142285
vt -248.360391 133.511666
vt -248.759840 133.532656
vt -248.759840 133.532656
vt -248.360391 133.511666
vt -248.339879 133.902037
vt -248.759840 133.532656
vt -248.339879 133.902037
vt -248.739328 133.923026
vt -234.692778 124.692603
vt -234.293085 124.676930
vt -234.277769 125.067539
vt -234.692778 124.692603
vt -234.277769 125.067539
vt -234.677461 125.083212
vt -234.677461 125.083212
vt -234.277769 125.067539
vt -234.262452 125.458148
vt -234.677461 125.083212
vt -234.262452 125.458148
vt -234.662145 125.473821
vt -234.662145 125.473821
vt -234.262452 125.458148
vt -234.247135 125.848757
vt -234.662145 125.473821
vt -234.247135 125.848757
vt -234.646828 125.864430
vt -234.646828 125.864430
vt -234.247135 125.848757
vt -234.231819 126.239366
vt -234.646828 125.864430
vt -234.231819 126.239366
vt -234.631512 126.255039
vt -234.631512 126.255039
vt -234.231819 126.239366
vt -234.216502 126.629975
vt -234.631512 126.255039
vt -234.216502 126.629975
vt -234.616195 126.645647
vt -234.616195 126.645647
vt -234.216502 126.629975
vt -234.201186 127.020584
vt -234.616195 126.645647
vt -234.201186 127.020584
vt -234.600878 127.036256
vt -234.600878 127.036256
vt -234.201186 127.020584
vt -234.185869 127.411193
vt -234.600878 127.036256
vt -234.185869 127.411193
vt -234.585562 127.426865
vt -234.585562 127.426865
vt -234.185869 127.411193
vt -234.170552 127.801801
vt -234.585562 127.426865
vt -234.170552 127.801801
vt -234.570245 127.817474
vt -234.570245 127.817474
vt -234.170552 127.801801
vt -234.155236 128.192410
vt -234.570245 127.817474
vt -234.155236 128.192410
vt -234.554929 128.208083
vt -234.554929 128.208083
vt -234.155236 128.192410
vt -234.139919 128.583019
vt -234.554929 128.208083
vt -234.139919 128.583019
vt -234.539612 128.598692
vt -234.539612 128.598692
vt -234.139919 128.583019
vt -234.124603 128.973628
vt -234.539612 128.598692
vt -234.124603 128.973628
vt -234.524295 128.989301
vt -234.524295 128.989301
vt -234.124603 128.973628
vt -234.109286 129.364237
vt -234.524295 128.989301
vt -234.109286 129.364237
vt -234.508979 129.379910
vt -234.508979 129.379910
vt -234.109286 129.364237
vt -234.093969 129.754846
vt -234.508979 129.379910
vt -234.093969 129.754846
vt -234.493662 129.770519
vt -234.493662 129.770519
vt -234.093969 129.754846
vt -234.078653 130.145455
vt -234.493662 129.770519
vt -234.078653 130.145455
vt -234.478346 130.161128
vt -234.478346 130.161128
vt -234.078653 130.145455
vt -234.063336 130.536064
vt -234.478346 130.161128
vt -234.063336 130.536064
vt -234.463029 130.551737
vt -234.463029 130.551737
vt -234.063336 130.536064
vt -234.048020 130.926673
vt -234.463029 130.551737
vt -234.048020 130.926673
vt -234.447712 130.942345
vt -234.447712 130.942345
vt -234.048020 130.926673
vt -234.032703 131.317282
vt -234.447712 130.942345
vt -234.032703 131.317282
vt -234.432396 131.332954
vt -234.432396 131.332954
vt -234.032703 131.317282
vt -234.017386 131.707891
vt -234.432396 131.332954
vt -234.017386 131.707891
vt -234.417079 131.723563
vt -234.417079 131.723563
vt -234.017386 131.707891
vt -234.002070 132.098499
vt -234.417079 131.723563
vt -234.002070 132.098499
vt -234.401763 132.114172
vt -234.401763 132.114172
vt -234.002070 132.098499
vt -233.986753 132.489108
vt -234.401763 132.114172
vt -233.986753 132.489108
vt -234.386446 132.504781
vt -234.386446 132.504781
vt -233.986753 132.489108
vt -233.971437 132.879717
vt -234.386446 132.504781
vt -233.971437 132.879717
vt -234.371130 132.895390
vt -234.371130 132.895390
vt -233.971437 132.879717
vt -233.956120 133.270326
vt -234.371130 132.895390
vt -233.956120 133.270326
vt -234.355813 133.285999
vt -239.131424 121.375931
vt -239.216302 121.766822
vt -239.607193 121.681944
vt -239.131424 121.375931
vt -239.607193 121.681944
vt -239.522315 121.291053
vt -239.522315 121.291053
vt -239.607193 121.681944
vt -239.998084 121.597065
vt -239.522315 121.291053
vt -239.998084 121.597065
vt -239.913205 121.206174
vt -239.913205 121.206174
vt -239.998084 121.597065
vt -240.388975 121.512187
vt -239.913205 121.206174
vt -240.388975 121.512187
vt -240.304096 121.121296
vt -240.304096 121.121296
vt -240.388975 121.512187
vt -240.779866 121.427308
vt -240.304096 121.121296
vt -240.779866 121.427308
vt -240.694987 121.036417
vt -240.694987 121.036417
vt -240.779866 121.427308
vt -241.170756 121.342429
vt -240.694987 121.036417
vt -241.170756 121.342429
vt -241.085878 120.951539
vt -241.085878 120.951539
vt -241.170756 121.342429
vt -241.561647 121.257551
vt -241.085878 120.951539
vt -241.561647 121.257551
vt -241.476769 120.866660
vt -241.476769 120.866660
vt -241.561647 121.257551
vt -241.952538 121.172672
vt -241.476769 120.866660
vt -241.952538 121.172672
vt -241.867660 120.781782
vt -241.867660 120.781782
vt -241.952538 121.172672
vt -242.343429 121.087794
vt -241.867660 120.781782
vt -242.343429 121.087794
vt -242.258550 120.696903
vt -242.258550 120.696903
vt -242.343429 121.087794
vt -242.734320 121.002915
vt -242.258550 120.696903
vt -242.734320 121.002915
vt -242.649441 120.612025
vt -242.649441 120.612025
vt -242.734320 121.002915
vt -243.125211 120.918037
vt -242.649441 120.612025
vt -243.125211 120.918037
vt -243.040332 120.527146
vt -243.040332 120.527146
vt -243.125211 120.918037
vt -243.516101 120.833158
vt -243.040332 120.527146
vt -243.516101 120.833158
vt -243.431223 120.442268
vt -243.431223 120.442268
vt -243.516101 120.833158
vt -243.906992 120.748280
vt -243.431223 120.442268
vt -243.906992 120.748280
vt -243.822114 120.357389
vt -243.822114 120.357389
vt -243.906992 120.748280
vt -244.297883 120.663401
vt -243.822114 120.357389
vt -244.297883 120.663401
vt -244.213005 120.272511
vt -244.213005 120.272511
vt -244.297883 120.663401
vt -244.688774 120.578523
vt -244.213005 120.272511
vt -244.688774 120.578523
vt -244.603895 120.187632
vt -243.026630 139.866037
vt -243.110002 140.257252
vt -243.501217 140.173879
vt -243.026630 139.866037
vt -243.501217 140.173879
vt -243.417845 139.782664
vt -243.417845 139.782664
vt -243.501217 140.173879
vt -243.892432 140.090507
vt -243.417845 139.782664
vt -243.892432 140.090507
vt -243.809059 139.699292
vt -243.809059 139.699292
vt -243.892432 140.090507
vt -244.283647 140.007134
vt -243.809059 139.699292
vt -244.283647 140.007134
vt -244.200274 139.615919
vt -244.200274 139.615919
vt -244.283647 140.007134
vt -244.674861 139.923762
vt -244.200274 139.615919
vt -244.674861 139.923762
vt -244.591489 139.532547
vt -244.591489 139.532547
vt -244.674861 139.923762
vt -245.066076 139.840389
vt -244.591489 139.532547
vt -245.066076 139.840389
vt -244.982704 139.449175
vt -244.982704 139.449175
vt -245.066076 139.840389
vt -245.457291 139.757017
vt -244.982704 139.449175
vt -245.457291 139.757017
vt -245.373919 139.365802
vt -245.373919 139.365802
vt -245.457291 139.757017
vt -245.848506 139.673644
vt -245.373919 139.365802
vt -245.848506 139.673644
vt -245.765133 139.282430
vt -245.765133 139.282430
vt -245.848506 139.673644
vt -246.239721 139.590272
vt -245.765133 139.282430
vt -246.239721 139.590272
vt -246.156348 139.199057
vt -246.156348 139.199057
vt -246.239721 139.590272
vt -246.630936 139.506900
vt -246.156348 139.199057
vt -246.630936 139.506900
vt -246.547563 139.115685
vt -246.547563 139.115685
vt -246.630936 139.506900
vt -247.022150 139.423527
vt -246.547563 139.115685
vt -247.022150 139.423527
vt -246.938778 139.032312
vt -246.938778 139.032312
vt -247.022150 139.423527
vt -247.413365 139.340155
vt -246.938778 139.032312
vt -247.413365 139.340155
vt -247.329993 138.948940
vt -247.329993 138.948940
vt -247.413365 139.340155
vt -247.804580 139.256782
vt -247.329993 138.948940
vt -247.804580 139.256782
vt -247.721208 138.865567
vt -247.721208 138.865567
vt -247.804580 139.256782
vt -248.195795 139.173410
vt -247.721208 138.865567
vt -248.195795 139.173410
vt -248.112422 138.782195
vt -248.112422 138.782195
vt -248.195795 139.173410
vt -248.587010 139.090037
vt -248.112422 138.782195
vt -248.587010 139.090037
vt -248.503637 138.698823
f 3/3 2/2 1/1
f 6/6 5/5 4/4
f 9/9 8/8 7/7
f 12/12 11/11 10/10
f 15/15 14/14 13/13
f 18/18 17/17 16/16
f 21/21 20/20 19/19
f 24/24 23/23 22/22
f 27/27 26/26 25/25
f 30/30 29/29 28/28
f 33/33 32/32 31/31
f 36/36 35/35 34/34
f 39/39 38/38 37/37
f 42/42 41/41 40/40
f 45/45 44/44 43/43
f 48/48 47/47 46/46
f 51/51 50/50 49/49
f 54/54 53/53 52/52
f 57/57 56/56 55/55
f 60/60 59/59 58/58
f 63/63 62/62 61/61
f 66/66 65/65 64/64
f 69/69 68/68 67/67
f 72/72 71/71 70/70
f 75/75 74/74 73/73
f 78/78 77/77 76/76
f 81/81 80/80 79/79
f 84/84 83/83 82/82
f 87/87 86/86 85/85
f 90/90 89/89 88/88
f 93/93 92/92 91/91
f 96/96 95/95 94/94
f 99/99 98/98 97/97
f 102/102 101/101 100/100
f 105/105 104/104 103/103
f 108/108 107/107 106/106
f 111/111 110/110 109/109
f 114/114 113/113 112/112
f 117/117 116/116 115/115
f 120/120 119/119 118/118
f 123/123 122/122 121/121
f 126/126 125/125 124/124
f 129/129 128/128 127/127
f 132/132 131/131 130/130
f 135/135 134/134 133/133
f 138/138 137/137 136/136
f 141/141 140/140 139/139
f 144/144 143/143 142/142
f 147/147 146/146 145/145
f 150/150 149/149 148/148
f 153/153 152/152 151/151
f 156/156 155/155 154/154
f 159/159 158/158 157/157
f 162/162 161/161 160/160
f 165/165 164/164 163/163
f 168/168 167/167 166/166
f 171/171 170/170 169/169
f 174/174 173/173 172/172
f 177/177 176/176 175/175
f 180/180 179/179 178/178
f 183/183 182/182 181/181
f 186/186 185/185 184/184
f 189/189 188/188 187/187
f 192/192 191/191 190/190
f 195/195 194/194 193/193
f 198/198 197/197 196/196
f 201/201 200/200 199/199
f 204/204 203/203 202/202
f 207/207 206/206 205/205
f 210/210 209/209 208/208
f 213/213 212/212 211/211
f 216/216 215/215 214/214
f 219/219 218/218 217/217
f 222/222 221/221 220/220
f 225/225 224/224 223/223
f 228/228 227/227 226/226
f 231/231 230/230 229/229
f 234/234 233/233 232/232
f 237/237 236/236 235/235
f 240/240 239/239 238/238
f 243/243 242/242 241/241
f 246/246 245/245 244/244
f 249/249 248/248 247/247
f 252/252 251/251 250/250
f 255/255 254/254 253/253
f 258/258 257/257 256/256
f 261/261 260/260 259/259
f 264/264 263/263 262/262
f 267/267 266/266 265/265
f 270/270 269/269 268/268
f 273/273 272/272 271/271
f 276/276 275/275 274/274
f 279/279 278/278 277/277
f 282/282 281/281 280/280
f 285/285 284/284 283/283
f 288/288 287/287 286/286
f 291/291 290/290 289/289
f 294/294 293/293 292/292
f 297/297 296/296 295/295
f 300/300 299/299 298/298
f 303/303 302/302 301/301
f 306/306 305/305 304/304
f 309/309 308/308 307/307
f 312/312 311/311 310/310
f 315/315 314/314 313/313
f 318/318 317/317 316/316
f 321/321 320/320 319/319
f 324/324 323/323 322/322
f 327/327 326/326 325/325
f 330/330 329/329 328/328
f 333/333 332/332 331/331
f 336/336 335/335 334/334
f 339/339 338/338 337/337
f 342/342 341/341 340/340
f 345/345 344/344 343/343
f 348/348 347/347 346/346
f 351/351 350/350 349/349
f 354/354 353/353 352/352
f 357/357 356/356 355/355
f 360/360 359/359 358/358
f 363/363 362/362 361/361
f 366/366 365/365 364/364
f 369/369 368/368 367/367
f 372/372 371/371 370/370
f 375/375 374/374 373/373
f 378/378 377/377 376/376
f 381/381 380/380 379/379
f 384/384 383/383 382/382
f 387/387 386/386 385/385
f 390/390 389/389 388/388
f 393/393 392/392 391/391
f 396/396 395/395 394/394
f 399/399 398/398 397/397
f 402/402 401/401 400/400
f 405/405 404/404 403/403
f 408/408 407/407 406/406
f 411/411 410/410 409/409
f 414/414 413/413 412/412
f 417/417 416/416 415/415
f 420/420 419/419 418/418
f 423/423 422/422 421/421
f 426/426 425/425 424/424
f 429/429 428/428 427/427
f 432/432 431/431 430/430
