o RainbowYellow
v -25038.895403 -12539.784421 194.524342
v -24998.950512 -12537.685445 195.380736
v -24996.899240 -12576.722498 196.888327
v -25038.895403 -12539.784421 194.524342
v -24996.899240 -12576.722498 196.888327
v -25036.844131 -12578.821474 196.030519
v -25036.844131 -12578.821474 196.030519
v -24996.899240 -12576.722498 196.888327
v -24994.847969 -12615.759550 198.359911
v -25036.844131 -12578.821474 196.030519
v -24994.847969 -12615.759550 198.359911
v -25034.792859 -12617.858526 197.497495
v -25034.792859 -12617.858526 197.497495
v -24994.847969 -12615.759550 198.359911
v -24992.796697 -12654.796603 199.780399
v -25034.792859 -12617.858526 197.497495
v -24992.796697 -12654.796603 199.780399
v -25032.741588 -12656.895578 198.917983
v -25032.741588 -12656.895578 198.917983
v -24992.796697 -12654.796603 199.780399
v -24990.745425 -12693.833655 201.200887
v -25032.741588 -12656.895578 198.917983
v -24990.745425 -12693.833655 201.200887
v -25030.690316 -12695.932631 200.338471
v -25030.690316 -12695.932631 200.338471
v -24990.745425 -12693.833655 201.200887
v -24988.694153 -12732.870707 202.618791
v -25030.690316 -12695.932631 200.338471
v -24988.694153 -12732.870707 202.618791
v -25028.639044 -12734.969683 201.755954
v -25028.639044 -12734.969683 201.755954
v -24988.694153 -12732.870707 202.618791
v -24986.642881 -12771.907760 203.987563
v -25028.639044 -12734.969683 201.755954
v -24986.642881 -12771.907760 203.987563
v -25026.587772 -12774.006735 203.168604
v -25026.587772 -12774.006735 203.168604
v -24986.642881 -12771.907760 203.987563
v -24984.591610 -12810.944812 205.328855
v -25026.587772 -12774.006735 203.168604
v -24984.591610 -12810.944812 205.328855
v -25024.536501 -12813.043788 204.531745
v -25024.536501 -12813.043788 204.531745
v -24984.591610 -12810.944812 205.328855
v -24982.540338 -12849.981864 206.669822
v -25024.536501 -12813.043788 204.531745
v -24982.540338 -12849.981864 206.669822
v -25022.485229 -12852.080840 205.872644
v -25022.485229 -12852.080840 205.872644
v -24982.540338 -12849.981864 206.669822
v -24980.489066 -12889.018917 208.001833
v -25022.485229 -12852.080840 205.872644
v -24980.489066 -12889.018917 208.001833
v -25020.433957 -12891.117893 207.212665
v -25020.433957 -12891.117893 207.212665
v -24980.489066 -12889.018917 208.001833
v -24978.437794 -12928.055969 209.330318
v -25020.433957 -12891.117893 207.212665
v -24978.437794 -12928.055969 209.330318
v -25018.382685 -12930.154945 208.543765
v -25018.382685 -12930.154945 208.543765
v -24978.437794 -12928.055969 209.330318
v -24976.386523 -12967.093021 210.648140
v -25018.382685 -12930.154945 208.543765
v -24976.386523 -12967.093021 210.648140
v -25016.331413 -12969.191997 209.858432
v -25016.331413 -12969.191997 209.858432
v -24976.386523 -12967.093021 210.648140
v -24974.335251 -13006.130074 211.913091
v -25016.331413 -12969.191997 209.858432
v -24974.335251 -13006.130074 211.913091
v -25014.280142 -13008.229050 211.128235
v -25014.280142 -13008.229050 211.128235
v -24974.335251 -13006.130074 211.913091
v -24972.283979 -13045.167126 213.176625
v -25014.280142 -13008.229050 211.128235
v -24972.283979 -13045.167126 213.176625
v -25012.228870 -13047.266102 212.392692
v -25012.228870 -13047.266102 212.392692
v -24972.283979 -13045.167126 213.176625
v -24970.232707 -13084.204179 214.431034
v -25012.228870 -13047.266102 212.392692
v -24970.232707 -13084.204179 214.431034
v -25010.177598 -13086.303154 213.642547
v -25010.177598 -13086.303154 213.642547
v -24970.232707 -13084.204179 214.431034
v -24968.181436 -13123.241231 215.685937
v -25010.177598 -13086.303154 213.642547
v -24968.181436 -13123.241231 215.685937
v -25008.126326 -13125.340207 214.821367
v -25008.126326 -13125.340207 214.821367
v -24968.181436 -13123.241231 215.685937
v -24966.130164 -13162.278283 216.953921
v -25008.126326 -13125.340207 214.821367
v -24966.130164 -13162.278283 216.953921
v -25006.075055 -13164.377259 216.083306
v -25006.075055 -13164.377259 216.083306
v -24966.130164 -13162.278283 216.953921
v -24964.078892 -13201.315336 218.218111
v -25006.075055 -13164.377259 216.083306
v -24964.078892 -13201.315336 218.218111
v -25004.023783 -13203.414311 217.341440
v -25004.023783 -13203.414311 217.341440
v -24964.078892 -13201.315336 218.218111
v -24962.027620 -13240.352388 219.381137
v -25004.023783 -13203.414311 217.341440
v -24962.027620 -13240.352388 219.381137
v -25001.972511 -13242.451364 218.496896
v -25001.972511 -13242.451364 218.496896
v -24962.027620 -13240.352388 219.381137
v -24959.976348 -13279.389440 220.544711
v -25001.972511 -13242.451364 218.496896
v -24959.976348 -13279.389440 220.544711
v -24999.921239 -13281.488416 219.660475
v -24999.921239 -13281.488416 219.660475
v -24959.976348 -13279.389440 220.544711
v -24957.925077 -13318.426493 221.708868
v -24999.921239 -13281.488416 219.660475
v -24957.925077 -13318.426493 221.708868
v -24997.869967 -13320.525469 220.823412
v -24997.869967 -13320.525469 220.823412
v -24957.925077 -13318.426493 221.708868
v -24955.873805 -13357.463545 222.896694
v -24997.869967 -13320.525469 220.823412
v -24955.873805 -13357.463545 222.896694
v -24995.818696 -13359.562521 221.945628
v -24995.818696 -13359.562521 221.945628
v -24955.873805 -13357.463545 222.896694
v -24953.822533 -13396.500598 224.082155
v -24995.818696 -13359.562521 221.945628
v -24953.822533 -13396.500598 224.082155
v -24993.767424 -13398.599573 223.130923
v -23589.185644 -12473.962133 228.007314
v -23549.216360 -12472.394853 229.153023
v -23547.684701 -12511.455744 230.819470
v -23589.185644 -12473.962133 228.007314
v -23547.684701 -12511.455744 230.819470
v -23587.653985 -12513.023023 229.674029
v -23587.653985 -12513.023023 229.674029
v -23547.684701 -12511.455744 230.819470
v -23546.153042 -12550.516635 232.476150
v -23587.653985 -12513.023023 229.674029
v -23546.153042 -12550.516635 232.476150
v -23586.122326 -12552.083914 231.337662
v -23586.122326 -12552.083914 231.337662
v -23546.153042 -12550.516635 232.476150
v -23544.621383 -12589.577526 234.132829
v -23586.122326 -12552.083914 231.337662
v -23544.621383 -12589.577526 234.132829
v -23584.590667 -12591.144805 232.994341
v -23584.590667 -12591.144805 232.994341
v -23544.621383 -12589.577526 234.132829
v -23543.089724 -12628.638417 235.783456
v -23584.590667 -12591.144805 232.994341
v -23543.089724 -12628.638417 235.783456
v -23583.059007 -12630.205696 234.637912
v -23583.059007 -12630.205696 234.637912
v -23543.089724 -12628.638417 235.783456
v -23541.558064 -12667.699308 237.469830
v -23583.059007 -12630.205696 234.637912
v -23541.558064 -12667.699308 237.469830
v -23581.527348 -12669.266587 236.286533
v -23581.527348 -12669.266587 236.286533
v -23541.558064 -12667.699308 237.469830
v -23540.026405 -12706.760198 239.156203
v -23581.527348 -12669.266587 236.286533
v -23540.026405 -12706.760198 239.156203
v -23579.995689 -12708.327478 237.972906
v -23579.995689 -12708.327478 237.972906
v -23540.026405 -12706.760198 239.156203
v -23538.494746 -12745.821089 240.869509
v -23579.995689 -12708.327478 237.972906
v -23538.494746 -12745.821089 240.869509
v -23578.464030 -12747.388368 239.679545
v -23578.464030 -12747.388368 239.679545
v -23538.494746 -12745.821089 240.869509
v -23536.963087 -12784.881980 242.628152
v -23578.464030 -12747.388368 239.679545
v -23536.963087 -12784.881980 242.628152
v -23576.932371 -12786.449259 241.404988
v -23576.932371 -12786.449259 241.404988
v -23536.963087 -12784.881980 242.628152
v -23535.431428 -12823.942871 244.386795
v -23576.932371 -12786.449259 241.404988
v -23535.431428 -12823.942871 244.386795
v -23575.400711 -12825.510150 243.163631
v -23575.400711 -12825.510150 243.163631
v -23535.431428 -12823.942871 244.386795
v -23533.899769 -12863.003762 246.118064
v -23575.400711 -12825.510150 243.163631
v -23533.899769 -12863.003762 246.118064
v -23573.869052 -12864.571041 244.886544
v -23573.869052 -12864.571041 244.886544
v -23533.899769 -12863.003762 246.118064
v -23532.368109 -12902.064653 247.846999
v -23573.869052 -12864.571041 244.886544
v -23532.368109 -12902.064653 247.846999
v -23572.337393 -12903.631932 246.595925
v -23572.337393 -12903.631932 246.595925
v -23532.368109 -12902.064653 247.846999
v -23530.836450 -12941.125544 249.575935
v -23572.337393 -12903.631932 246.595925
v -23530.836450 -12941.125544 249.575935
v -23570.805734 -12942.692823 248.324860
v -23570.805734 -12942.692823 248.324860
v -23530.836450 -12941.125544 249.575935
v -23529.304791 -12980.186434 251.322082
v -23570.805734 -12942.692823 248.324860
v -23529.304791 -12980.186434 251.322082
v -23569.274075 -12981.753714 250.053776
v -23569.274075 -12981.753714 250.053776
v -23529.304791 -12980.186434 251.322082
v -23527.773132 -13019.247325 253.115255
v -23569.274075 -12981.753714 250.053776
v -23527.773132 -13019.247325 253.115255
v -23567.742415 -13020.814604 251.803375
v -23567.742415 -13020.814604 251.803375
v -23527.773132 -13019.247325 253.115255
v -23526.241473 -13058.308216 254.908428
v -23567.742415 -13020.814604 251.803375
v -23526.241473 -13058.308216 254.908428
v -23566.210756 -13059.875495 253.596548
v -23566.210756 -13059.875495 253.596548
v -23526.241473 -13058.308216 254.908428
v -23524.709813 -13097.369107 256.706061
v -23566.210756 -13059.875495 253.596548
v -23524.709813 -13097.369107 256.706061
v -23564.679097 -13098.936386 255.359758
v -23564.679097 -13098.936386 255.359758
v -23524.709813 -13097.369107 256.706061
v -23523.178154 -13136.429998 258.539854
v -23564.679097 -13098.936386 255.359758
v -23523.178154 -13136.429998 258.539854
v -23563.147438 -13137.997277 257.128594
v -23563.147438 -13137.997277 257.128594
v -23523.178154 -13136.429998 258.539854
v -23521.646495 -13175.490889 260.373646
v -23563.147438 -13137.997277 257.128594
v -23521.646495 -13175.490889 260.373646
v -23561.615779 -13177.058168 258.962387
v -23561.615779 -13177.058168 258.962387
v -23521.646495 -13175.490889 260.373646
v -23520.114836 -13214.551779 262.195919
v -23561.615779 -13177.058168 258.962387
v -23520.114836 -13214.551779 262.195919
v -23560.084120 -13216.119059 260.775181
v -23560.084120 -13216.119059 260.775181
v -23520.114836 -13214.551779 262.195919
v -23518.583177 -13253.612670 263.998222
v -23560.084120 -13216.119059 260.775181
v -23518.583177 -13253.612670 263.998222
v -23558.552460 -13255.179949 262.566653
v -23558.552460 -13255.179949 262.566653
v -23518.583177 -13253.612670 263.998222
v -23517.051518 -13292.673561 265.800403
v -23558.552460 -13255.179949 262.566653
v -23517.051518 -13292.673561 265.800403
v -23557.020801 -13294.240840 264.370470
v -23557.020801 -13294.240840 264.370470
v -23517.051518 -13292.673561 265.800403
v -23515.519858 -13331.734452 267.609102
v -23557.020801 -13294.240840 264.370470
v -23515.519858 -13331.734452 267.609102
v -23555.489142 -13333.301731 266.151189
v -23887.678826 -12020.325873 198.969544
v -23896.166677 -12059.414956 201.011151
v -23935.255760 -12050.927105 198.837773
v -23887.678826 -12020.325873 198.969544
v -23935.255760 -12050.927105 198.837773
v -23926.767909 -12011.838022 196.759434
v -23926.767909 -12011.838022 196.759434
v -23935.255760 -12050.927105 198.837773
v -23974.344842 -12042.439254 196.937833
v -23926.767909 -12011.838022 196.759434
v -23974.344842 -12042.439254 196.937833
v -23965.856992 -12003.350172 194.803280
v -23965.856992 -12003.350172 194.803280
v -23974.344842 -12042.439254 196.937833
v -24013.433925 -12033.951403 195.269352
v -23965.856992 -12003.350172 194.803280
v -24013.433925 -12033.951403 195.269352
v -24004.946074 -11994.862321 193.170785
v -24004.946074 -11994.862321 193.170785
v -24013.433925 -12033.951403 195.269352
v -24052.523008 -12025.463553 194.639468
v -24004.946074 -11994.862321 193.170785
v -24052.523008 -12025.463553 194.639468
v -24044.035157 -11986.374470 192.472118
v -24044.035157 -11986.374470 192.472118
v -24052.523008 -12025.463553 194.639468
v -24091.612091 -12016.975702 194.101840
v -24044.035157 -11986.374470 192.472118
v -24091.612091 -12016.975702 194.101840
v -24083.124240 -11977.886619 192.150011
v -24083.124240 -11977.886619 192.150011
v -24091.612091 -12016.975702 194.101840
v -24130.701173 -12008.487851 193.554798
v -24083.124240 -11977.886619 192.150011
v -24130.701173 -12008.487851 193.554798
v -24122.213322 -11969.398768 191.722506
v -24122.213322 -11969.398768 191.722506
v -24130.701173 -12008.487851 193.554798
v -24169.790256 -12000.000000 192.756900
v -24122.213322 -11969.398768 191.722506
v -24169.790256 -12000.000000 192.756900
v -24161.302405 -11960.910917 191.124076
v -24161.302405 -11960.910917 191.124076
v -24169.790256 -12000.000000 192.756900
v -24208.879339 -11991.512149 191.896228
v -24161.302405 -11960.910917 191.124076
v -24208.879339 -11991.512149 191.896228
v -24200.391488 -11952.423066 190.275206
v -24200.391488 -11952.423066 190.275206
v -24208.879339 -11991.512149 191.896228
v -24247.968421 -11983.024298 190.783488
v -24200.391488 -11952.423066 190.275206
v -24247.968421 -11983.024298 190.783488
v -24239.480571 -11943.935216 189.269656
v -24239.480571 -11943.935216 189.269656
v -24247.968421 -11983.024298 190.783488
v -24287.057504 -11974.536447 189.618064
v -24239.480571 -11943.935216 189.269656
v -24287.057504 -11974.536447 189.618064
v -24278.569653 -11935.447365 188.137384
v -24278.569653 -11935.447365 188.137384
v -24287.057504 -11974.536447 189.618064
v -24326.146587 -11966.048597 188.337195
v -24278.569653 -11935.447365 188.137384
v -24326.146587 -11966.048597 188.337195
v -24317.658736 -11926.959514 186.812726
v -24317.658736 -11926.959514 186.812726
v -24326.146587 -11966.048597 188.337195
v -24365.235670 -11957.560746 187.439549
v -24317.658736 -11926.959514 186.812726
v -24365.235670 -11957.560746 187.439549
v -24356.747819 -11918.471663 185.640386
v -24356.747819 -11918.471663 185.640386
v -24365.235670 -11957.560746 187.439549
v -24404.324752 -11949.072895 186.995543
v -24356.747819 -11918.471663 185.640386
v -24404.324752 -11949.072895 186.995543
v -24395.836901 -11909.983812 185.554995
v -24395.836901 -11909.983812 185.554995
v -24404.324752 -11949.072895 186.995543
v -24443.413835 -11940.585044 187.256901
v -24395.836901 -11909.983812 185.554995
v -24443.413835 -11940.585044 187.256901
v -24434.925984 -11901.495961 185.911021
v -24277.651238 -13869.239227 259.460272
v -24285.988482 -13908.360709 260.042406
v -24325.109964 -13900.023465 258.594616
v -24277.651238 -13869.239227 259.460272
v -24325.109964 -13900.023465 258.594616
v -24316.772720 -13860.901983 257.818981
v -24316.772720 -13860.901983 257.818981
v -24325.109964 -13900.023465 258.594616
v -24364.231446 -13891.686221 256.927139
v -24316.772720 -13860.901983 257.818981
v -24364.231446 -13891.686221 256.927139
v -24355.894202 -13852.564739 256.030261
v -24355.894202 -13852.564739 256.030261
v -24364.231446 -13891.686221 256.927139
v -24403.352929 -13883.348976 255.166487
v -24355.894202 -13852.564739 256.030261
v -24403.352929 -13883.348976 255.166487
v -24395.015684 -13844.227494 254.389862
v -24395.015684 -13844.227494 254.389862
v -24403.352929 -13883.348976 255.166487
v -24442.474411 -13875.011732 253.563146
v -24395.015684 -13844.227494 254.389862
v -24442.474411 -13875.011732 253.563146
v -24434.137166 -13835.890250 252.786529
v -24434.137166 -13835.890250 252.786529
v -24442.474411 -13875.011732 253.563146
v -24481.595893 -13866.674488 251.959796
v -24434.137166 -13835.890250 252.786529
v -24481.595893 -13866.674488 251.959796
v -24473.258649 -13827.553006 251.153412
v -24473.258649 -13827.553006 251.153412
v -24481.595893 -13866.674488 251.959796
v -24520.717375 -13858.337244 250.356447
v -24473.258649 -13827.553006 251.153412
v -24520.717375 -13858.337244 250.356447
v -24512.380131 -13819.215762 249.484930
v -24512.380131 -13819.215762 249.484930
v -24520.717375 -13858.337244 250.356447
v -24559.838857 -13850.000000 248.814249
v -24512.380131 -13819.215762 249.484930
v -24559.838857 -13850.000000 248.814249
v -24551.501613 -13810.878518 247.896474
v -24551.501613 -13810.878518 247.896474
v -24559.838857 -13850.000000 248.814249
v -24598.960339 -13841.662756 247.190036
v -24551.501613 -13810.878518 247.896474
v -24598.960339 -13841.662756 247.190036
v -24590.623095 -13802.541274 246.260599
v -24590.623095 -13802.541274 246.260599
v -24598.960339 -13841.662756 247.190036
v -24638.081821 -13833.325512 245.652824
v -24590.623095 -13802.541274 246.260599
v -24638.081821 -13833.325512 245.652824
v -24629.744577 -13794.204030 244.698493
v -24629.744577 -13794.204030 244.698493
v -24638.081821 -13833.325512 245.652824
v -24677.203303 -13824.988268 244.177396
v -24629.744577 -13794.204030 244.698493
v -24677.203303 -13824.988268 244.177396
v -24668.866059 -13785.866786 243.215392
v -24668.866059 -13785.866786 243.215392
v -24677.203303 -13824.988268 244.177396
v -24716.324785 -13816.651024 242.542722
v -24668.866059 -13785.866786 243.215392
v -24716.324785 -13816.651024 242.542722
v -24707.987541 -13777.529541 241.682166
v -24707.987541 -13777.529541 241.682166
v -24716.324785 -13816.651024 242.542722
v -24755.446267 -13808.313779 241.040832
v -24707.987541 -13777.529541 241.682166
v -24755.446267 -13808.313779 241.040832
v -24747.109023 -13769.192297 240.231641
v -24747.109023 -13769.192297 240.231641
v -24755.446267 -13808.313779 241.040832
v -24794.567749 -13799.976535 239.590336
v -24747.109023 -13769.192297 240.231641
v -24794.567749 -13799.976535 239.590336
v -24786.230505 -13760.855053 238.781154
v -24786.230505 -13760.855053 238.781154
v -24794.567749 -13799.976535 239.590336
v -24833.689231 -13791.639291 238.139835
v -24786.230505 -13760.855053 238.781154
v -24833.689231 -13791.639291 238.139835
v -24825.351987 -13752.517809 237.330625
vt -250.388954 125.397844
vt -249.989505 125.376854
vt -249.968992 125.767225
vt -250.388954 125.397844
vt -249.968992 125.767225
vt -250.368441 125.788215
vt -250.368441 125.788215
vt -249.968992 125.767225
vt -249.948480 126.157596
vt -250.368441 125.788215
vt -249.948480 126.157596
vt -250.347929 126.178585
vt -250.347929 126.178585
vt -249.948480 126.157596
vt -249.927967 126.547966
vt -250.347929 126.178585
vt -249.927967 126.547966
vt -250.327416 126.568956
vt -250.327416 126.568956
vt -249.927967 126.547966
vt -249.907454 126.938337
vt -250.327416 126.568956
vt -249.907454 126.938337
vt -250.306903 126.959326
vt -250.306903 126.959326
vt -249.907454 126.938337
vt -249.886942 127.328707
vt -250.306903 126.959326
vt -249.886942 127.328707
vt -250.286390 127.349697
vt -250.286390 127.349697
vt -249.886942 127.328707
vt -249.866429 127.719078
vt -250.286390 127.349697
vt -249.866429 127.719078
vt -250.265878 127.740067
vt -250.265878 127.740067
vt -249.866429 127.719078
vt -249.845916 128.109448
vt -250.265878 127.740067
vt -249.845916 128.109448
vt -250.245365 128.130438
vt -250.245365 128.130438
vt -249.845916 128.109448
vt -249.825403 128.499819
vt -250.245365 128.130438
vt -249.825403 128.499819
vt -250.224852 128.520808
vt -250.224852 128.520808
vt -249.825403 128.499819
vt -249.804891 128.890189
vt -250.224852 128.520808
vt -249.804891 128.890189
vt -250.204340 128.911179
vt -250.204340 128.911179
vt -249.804891 128.890189
vt -249.784378 129.280560
vt -250.204340 128.911179
vt -249.784378 129.280560
vt -250.183827 129.301549
vt -250.183827 129.301549
vt -249.784378 129.280560
vt -249.763865 129.670930
vt -250.183827 129.301549
vt -249.763865 129.670930
vt -250.163314 129.691920
vt -250.163314 129.691920
vt -249.763865 129.670930
vt -249.743353 130.061301
vt -250.163314 129.691920
vt -249.743353 130.061301
vt -250.142801 130.082290
vt -250.142801 130.082290
vt -249.743353 130.061301
vt -249.722840 130.451671
vt -250.142801 130.082290
vt -249.722840 130.451671
vt -250.122289 130.472661
vt -250.122289 130.472661
vt -249.722840 130.451671
vt -249.702327 130.842042
vt -250.122289 130.472661
vt -249.702327 130.842042
vt -250.101776 130.863032
vt -250.101776 130.863032
vt -249.702327 130.842042
vt -249.681814 131.232412
vt -250.101776 130.863032
vt -249.681814 131.232412
vt -250.081263 131.253402
vt -250.081263 131.253402
vt -249.681814 131.232412
vt -249.661302 131.622783
vt -250.081263 131.253402
vt -249.661302 131.622783
vt -250.060751 131.643773
vt -250.060751 131.643773
vt -249.661302 131.622783
vt -249.640789 132.013153
vt -250.060751 131.643773
vt -249.640789 132.013153
vt -250.040238 132.034143
vt -250.040238 132.034143
vt -249.640789 132.013153
vt -249.620276 132.403524
vt -250.040238 132.034143
vt -249.620276 132.403524
vt -250.019725 132.424514
vt -250.019725 132.424514
vt -249.620276 132.403524
vt -249.599763 132.793894
vt -250.019725 132.424514
vt -249.599763 132.793894
vt -249.999212 132.814884
vt -249.999212 132.814884
vt -249.599763 132.793894
vt -249.579251 133.184265
vt -249.999212 132.814884
vt -249.579251 133.184265
vt -249.978700 133.205255
vt -249.978700 133.205255
vt -249.579251 133.184265
vt -249.558738 133.574635
vt -249.978700 133.205255
vt -249.558738 133.574635
vt -249.958187 133.595625
vt -249.958187 133.595625
vt -249.558738 133.574635
vt -249.538225 133.965006
vt -249.958187 133.595625
vt -249.538225 133.965006
vt -249.937674 133.985996
vt -235.891856 124.739621
vt -235.492164 124.723949
vt -235.476847 125.114557
vt -235.891856 124.739621
vt -235.476847 125.114557
vt -235.876540 125.130230
vt -235.876540 125.130230
vt -235.476847 125.114557
vt -235.461530 125.505166
vt -235.876540 125.130230
vt -235.461530 125.505166
vt -235.861223 125.520839
vt -235.861223 125.520839
vt -235.461530 125.505166
vt -235.446214 125.895775
vt -235.861223 125.520839
vt -235.446214 125.895775
vt -235.845907 125.911448
vt -235.845907 125.911448
vt -235.446214 125.895775
vt -235.430897 126.286384
vt -235.845907 125.911448
vt -235.430897 126.286384
vt -235.830590 126.302057
vt -235.830590 126.302057
vt -235.430897 126.286384
vt -235.415581 126.676993
vt -235.830590 126.302057
vt -235.415581 126.676993
vt -235.815273 126.692666
vt -235.815273 126.692666
vt -235.415581 126.676993
vt -235.400264 127.067602
vt -235.815273 126.692666
vt -235.400264 127.067602
vt -235.799957 127.083275
vt -235.799957 127.083275
vt -235.400264 127.067602
vt -235.384947 127.458211
vt -235.799957 127.083275
vt -235.384947 127.458211
vt -235.784640 127.473884
vt -235.784640 127.473884
vt -235.384947 127.458211
vt -235.369631 127.848820
vt -235.784640 127.473884
vt -235.369631 127.848820
vt -235.769324 127.864493
vt -235.769324 127.864493
vt -235.369631 127.848820
vt -235.354314 128.239429
vt -235.769324 127.864493
vt -235.354314 128.239429
vt -235.754007 128.255102
vt -235.754007 128.255102
vt -235.354314 128.239429
vt -235.338998 128.630038
vt -235.754007 128.255102
vt -235.338998 128.630038
vt -235.738691 128.645710
vt -235.738691 128.645710
vt -235.338998 128.630038
vt -235.323681 129.020647
vt -235.738691 128.645710
vt -235.323681 129.020647
vt -235.723374 129.036319
vt -235.723374 129.036319
vt -235.323681 129.020647
vt -235.308365 129.411255
vt -235.723374 129.036319
vt -235.308365 129.411255
vt -235.708057 129.426928
vt -235.708057 129.426928
vt -235.308365 129.411255
vt -235.293048 129.801864
vt -235.708057 129.426928
vt -235.293048 129.801864
vt -235.692741 129.817537
vt -235.692741 129.817537
vt -235.293048 129.801864
vt -235.277731 130.192473
vt -235.692741 129.817537
vt -235.277731 130.192473
vt -235.677424 130.208146
vt -235.677424 130.208146
vt -235.277731 130.192473
vt -235.262415 130.583082
vt -235.677424 130.208146
vt -235.262415 130.583082
vt -235.662108 130.598755
vt -235.662108 130.598755
vt -235.262415 130.583082
vt -235.247098 130.973691
vt -235.662108 130.598755
vt -235.247098 130.973691
vt -235.646791 130.989364
vt -235.646791 130.989364
vt -235.247098 130.973691
vt -235.231782 131.364300
vt -235.646791 130.989364
vt -235.231782 131.364300
vt -235.631474 131.379973
vt -235.631474 131.379973
vt -235.231782 131.364300
vt -235.216465 131.754909
vt -235.631474 131.379973
vt -235.216465 131.754909
vt -235.616158 131.770582
vt -235.616158 131.770582
vt -235.216465 131.754909
vt -235.201148 132.145518
vt -235.616158 131.770582
vt -235.201148 132.145518
vt -235.600841 132.161191
vt -235.600841 132.161191
vt -235.201148 132.145518
vt -235.185832 132.536127
vt -235.600841 132.161191
vt -235.185832 132.536127
vt -235.585525 132.551799
vt -235.585525 132.551799
vt -235.185832 132.536127
vt -235.170515 132.926736
vt -235.585525 132.551799
vt -235.170515 132.926736
vt -235.570208 132.942408
vt -235.570208 132.942408
vt -235.170515 132.926736
vt -235.155199 133.317345
vt -235.570208 132.942408
vt -235.155199 133.317345
vt -235.554891 133.333017
vt -238.876788 120.203259
vt -238.961667 120.594150
vt -239.352558 120.509271
vt -238.876788 120.203259
vt -239.352558 120.509271
vt -239.267679 120.118380
vt -239.267679 120.118380
vt -239.352558 120.509271
vt -239.743448 120.424393
vt -239.267679 120.118380
vt -239.743448 120.424393
vt -239.658570 120.033502
vt -239.658570 120.033502
vt -239.743448 120.424393
vt -240.134339 120.339514
vt -239.658570 120.033502
vt -240.134339 120.339514
vt -240.049461 119.948623
vt -240.049461 119.948623
vt -240.134339 120.339514
vt -240.525230 120.254636
vt -240.049461 119.948623
vt -240.525230 120.254636
vt -240.440352 119.863745
vt -240.440352 119.863745
vt -240.525230 120.254636
vt -240.916121 120.169757
vt -240.440352 119.863745
vt -240.916121 120.169757
vt -240.831242 119.778866
vt -240.831242 119.778866
vt -240.916121 120.169757
vt -241.307012 120.084879
vt -240.831242 119.778866
vt -241.307012 120.084879
vt -241.222133 119.693988
vt -241.222133 119.693988
vt -241.307012 120.084879
vt -241.697903 120.000000
vt -241.222133 119.693988
vt -241.697903 120.000000
vt -241.613024 119.609109
vt -241.613024 119.609109
vt -241.697903 120.000000
vt -242.088793 119.915121
vt -241.613024 119.609109
vt -242.088793 119.915121
vt -242.003915 119.524231
vt -242.003915 119.524231
vt -242.088793 119.915121
vt -242.479684 119.830243
vt -242.003915 119.524231
vt -242.479684 119.830243
vt -242.394806 119.439352
vt -242.394806 119.439352
vt -242.479684 119.830243
vt -242.870575 119.745364
vt -242.394806 119.439352
vt -242.870575 119.745364
vt -242.785697 119.354474
vt -242.785697 119.354474
vt -242.870575 119.745364
vt -243.261466 119.660486
vt -242.785697 119.354474
vt -243.261466 119.660486
vt -243.176587 119.269595
vt -243.176587 119.269595
vt -243.261466 119.660486
vt -243.652357 119.575607
vt -243.176587 119.269595
vt -243.652357 119.575607
vt -243.567478 119.184717
vt -243.567478 119.184717
vt -243.652357 119.575607
vt -244.043248 119.490729
vt -243.567478 119.184717
vt -244.043248 119.490729
vt -243.958369 119.099838
vt -243.958369 119.099838
vt -244.043248 119.490729
vt -244.434138 119.405850
vt -243.958369 119.099838
vt -244.434138 119.405850
vt -244.349260 119.014960
vt -242.776512 138.692392
vt -242.859885 139.083607
vt -243.251100 139.000235
vt -242.776512 138.692392
vt -243.251100 139.000235
vt -243.167727 138.609020
vt -243.167727 138.609020
vt -243.251100 139.000235
vt -243.642314 138.916862
vt -243.167727 138.609020
vt -243.642314 138.916862
vt -243.558942 138.525647
vt -243.558942 138.525647
vt -243.642314 138.916862
vt -244.033529 138.833490
vt -243.558942 138.525647
vt -244.033529 138.833490
vt -243.950157 138.442275
vt -243.950157 138.442275
vt -244.033529 138.833490
vt -244.424744 138.750117
vt -243.950157 138.442275
vt -244.424744 138.750117
vt -244.341372 138.358903
vt -244.341372 138.358903
vt -244.424744 138.750117
vt -244.815959 138.666745
vt -244.341372 138.358903
vt -244.815959 138.666745
vt -244.732586 138.275530
vt -244.732586 138.275530
vt -244.815959 138.666745
vt -245.207174 138.583372
vt -244.732586 138.275530
vt -245.207174 138.583372
vt -245.123801 138.192158
vt -245.123801 138.192158
vt -245.207174 138.583372
vt -245.598389 138.500000
vt -245.123801 138.192158
vt -245.598389 138.500000
vt -245.515016 138.108785
vt -245.515016 138.108785
vt -245.598389 138.500000
vt -245.989603 138.416628
vt -245.515016 138.108785
vt -245.989603 138.416628
vt -245.906231 138.025413
vt -245.906231 138.025413
vt -245.989603 138.416628
vt -246.380818 138.333255
vt -245.906231 138.025413
vt -246.380818 138.333255
vt -246.297446 137.942040
vt -246.297446 137.942040
vt -246.380818 138.333255
vt -246.772033 138.249883
vt -246.297446 137.942040
vt -246.772033 138.249883
vt -246.688661 137.858668
vt -246.688661 137.858668
vt -246.772033 138.249883
vt -247.163248 138.166510
vt -246.688661 137.858668
vt -247.163248 138.166510
vt -247.079875 137.775295
vt -247.079875 137.775295
vt -247.163248 138.166510
vt -247.554463 138.083138
vt -247.079875 137.775295
vt -247.554463 138.083138
vt -247.471090 137.691923
vt -247.471090 137.691923
vt -247.554463 138.083138
vt -247.945677 137.999765
vt -247.471090 137.691923
vt -247.945677 137.999765
vt -247.862305 137.608551
vt -247.862305 137.608551
vt -247.945677 137.999765
vt -248.336892 137.916393
vt -247.862305 137.608551
vt -248.336892 137.916393
vt -248.253520 137.525178
f 3/3 2/2 1/1
f 6/6 5/5 4/4
f 9/9 8/8 7/7
f 12/12 11/11 10/10
f 15/15 14/14 13/13
f 18/18 17/17 16/16
f 21/21 20/20 19/19
f 24/24 23/23 22/22
f 27/27 26/26 25/25
f 30/30 29/29 28/28
f 33/33 32/32 31/31
f 36/36 35/35 34/34
f 39/39 38/38 37/37
f 42/42 41/41 40/40
f 45/45 44/44 43/43
f 48/48 47/47 46/46
f 51/51 50/50 49/49
f 54/54 53/53 52/52
f 57/57 56/56 55/55
f 60/60 59/59 58/58
f 63/63 62/62 61/61
f 66/66 65/65 64/64
f 69/69 68/68 67/67
f 72/72 71/71 70/70
f 75/75 74/74 73/73
f 78/78 77/77 76/76
f 81/81 80/80 79/79
f 84/84 83/83 82/82
f 87/87 86/86 85/85
f 90/90 89/89 88/88
f 93/93 92/92 91/91
f 96/96 95/95 94/94
f 99/99 98/98 97/97
f 102/102 101/101 100/100
f 105/105 104/104 103/103
f 108/108 107/107 106/106
f 111/111 110/110 109/109
f 114/114 113/113 112/112
f 117/117 116/116 115/115
f 120/120 119/119 118/118
f 123/123 122/122 121/121
f 126/126 125/125 124/124
f 129/129 128/128 127/127
f 132/132 131/131 130/130
f 135/135 134/134 133/133
f 138/138 137/137 136/136
f 141/141 140/140 139/139
f 144/144 143/143 142/142
f 147/147 146/146 145/145
f 150/150 149/149 148/148
f 153/153 152/152 151/151
f 156/156 155/155 154/154
f 159/159 158/158 157/157
f 162/162 161/161 160/160
f 165/165 164/164 163/163
f 168/168 167/167 166/166
f 171/171 170/170 169/169
f 174/174 173/173 172/172
f 177/177 176/176 175/175
f 180/180 179/179 178/178
f 183/183 182/182 181/181
f 186/186 185/185 184/184
f 189/189 188/188 187/187
f 192/192 191/191 190/190
f 195/195 194/194 193/193
f 198/198 197/197 196/196
f 201/201 200/200 199/199
f 204/204 203/203 202/202
f 207/207 206/206 205/205
f 210/210 209/209 208/208
f 213/213 212/212 211/211
f 216/216 215/215 214/214
f 219/219 218/218 217/217
f 222/222 221/221 220/220
f 225/225 224/224 223/223
f 228/228 227/227 226/226
f 231/231 230/230 229/229
f 234/234 233/233 232/232
f 237/237 236/236 235/235
f 240/240 239/239 238/238
f 243/243 242/242 241/241
f 246/246 245/245 244/244
f 249/249 248/248 247/247
f 252/252 251/251 250/250
f 255/255 254/254 253/253
f 258/258 257/257 256/256
f 261/261 260/260 259/259
f 264/264 263/263 262/262
f 267/267 266/266 265/265
f 270/270 269/269 268/268
f 273/273 272/272 271/271
f 276/276 275/275 274/274
f 279/279 278/278 277/277
f 282/282 281/281 280/280
f 285/285 284/284 283/283
f 288/288 287/287 286/286
f 291/291 290/290 289/289
f 294/294 293/293 292/292
f 297/297 296/296 295/295
f 300/300 299/299 298/298
f 303/303 302/302 301/301
f 306/306 305/305 304/304
f 309/309 308/308 307/307
f 312/312 311/311 310/310
f 315/315 314/314 313/313
f 318/318 317/317 316/316
f 321/321 320/320 319/319
f 324/324 323/323 322/322
f 327/327 326/326 325/325
f 330/330 329/329 328/328
f 333/333 332/332 331/331
f 336/336 335/335 334/334
f 339/339 338/338 337/337
f 342/342 341/341 340/340
f 345/345 344/344 343/343
f 348/348 347/347 346/346
f 351/351 350/350 349/349
f 354/354 353/353 352/352
f 357/357 356/356 355/355
f 360/360 359/359 358/358
f 363/363 362/362 361/361
f 366/366 365/365 364/364
f 369/369 368/368 367/367
f 372/372 371/371 370/370
f 375/375 374/374 373/373
f 378/378 377/377 376/376
f 381/381 380/380 379/379
f 384/384 383/383 382/382
f 387/387 386/386 385/385
f 390/390 389/389 388/388
f 393/393 392/392 391/391
f 396/396 395/395 394/394
f 399/399 398/398 397/397
f 402/402 401/401 400/400
f 405/405 404/404 403/403
f 408/408 407/407 406/406
f 411/411 410/410 409/409
f 414/414 413/413 412/412
f 417/417 416/416 415/415
f 420/420 419/419 418/418
f 423/423 422/422 421/421
f 426/426 425/425 424/424
f 429/429 428/428 427/427
f 432/432 431/431 430/430
