o RainbowGreen
v -24998.950512 -12537.685445 195.380736
v -24959.005621 -12535.586470 196.234931
v -24956.954350 -12574.623522 197.743925
v -24998.950512 -12537.685445 195.380736
v -24956.954350 -12574.623522 197.743925
v -24996.899240 -12576.722498 196.888327
v -24996.899240 -12576.722498 196.888327
v -24956.954350 -12574.623522 197.743925
v -24954.903078 -12613.660574 199.222326
v -24996.899240 -12576.722498 196.888327
v -24954.903078 -12613.660574 199.222326
v -24994.847969 -12615.759550 198.359911
v -24994.847969 -12615.759550 198.359911
v -24954.903078 -12613.660574 199.222326
v -24952.851806 -12652.697627 200.642814
v -24994.847969 -12615.759550 198.359911
v -24952.851806 -12652.697627 200.642814
v -24992.796697 -12654.796603 199.780399
v -24992.796697 -12654.796603 199.780399
v -24952.851806 -12652.697627 200.642814
v -24950.800534 -12691.734679 202.063302
v -24992.796697 -12654.796603 199.780399
v -24950.800534 -12691.734679 202.063302
v -24990.745425 -12693.833655 201.200887
v -24990.745425 -12693.833655 201.200887
v -24950.800534 -12691.734679 202.063302
v -24948.749262 -12730.771732 203.462920
v -24990.745425 -12693.833655 201.200887
v -24948.749262 -12730.771732 203.462920
v -24988.694153 -12732.870707 202.618791
v -24988.694153 -12732.870707 202.618791
v -24948.749262 -12730.771732 203.462920
v -24946.697991 -12769.808784 204.807774
v -24988.694153 -12732.870707 202.618791
v -24946.697991 -12769.808784 204.807774
v -24986.642881 -12771.907760 203.987563
v -24986.642881 -12771.907760 203.987563
v -24946.697991 -12769.808784 204.807774
v -24944.646719 -12808.845836 206.152629
v -24986.642881 -12771.907760 203.987563
v -24944.646719 -12808.845836 206.152629
v -24984.591610 -12810.944812 205.328855
v -24984.591610 -12810.944812 205.328855
v -24944.646719 -12808.845836 206.152629
v -24942.595447 -12847.882889 207.490952
v -24984.591610 -12810.944812 205.328855
v -24942.595447 -12847.882889 207.490952
v -24982.540338 -12849.981864 206.669822
v -24982.540338 -12849.981864 206.669822
v -24942.595447 -12847.882889 207.490952
v -24940.544175 -12886.919941 208.823097
v -24982.540338 -12849.981864 206.669822
v -24940.544175 -12886.919941 208.823097
v -24980.489066 -12889.018917 208.001833
v -24980.489066 -12889.018917 208.001833
v -24940.544175 -12886.919941 208.823097
v -24938.492904 -12925.956993 210.155242
v -24980.489066 -12889.018917 208.001833
v -24938.492904 -12925.956993 210.155242
v -24978.437794 -12928.055969 209.330318
v -24978.437794 -12928.055969 209.330318
v -24938.492904 -12925.956993 210.155242
v -24936.441632 -12964.994046 211.484614
v -24978.437794 -12928.055969 209.330318
v -24936.441632 -12964.994046 211.484614
v -24976.386523 -12967.093021 210.648140
v -24976.386523 -12967.093021 210.648140
v -24936.441632 -12964.994046 211.484614
v -24934.390360 -13004.031098 212.752599
v -24976.386523 -12967.093021 210.648140
v -24934.390360 -13004.031098 212.752599
v -24974.335251 -13006.130074 211.913091
v -24974.335251 -13006.130074 211.913091
v -24934.390360 -13004.031098 212.752599
v -24932.339088 -13043.068150 214.020583
v -24974.335251 -13006.130074 211.913091
v -24932.339088 -13043.068150 214.020583
v -24972.283979 -13045.167126 213.176625
v -24972.283979 -13045.167126 213.176625
v -24932.339088 -13043.068150 214.020583
v -24930.287817 -13082.105203 215.288568
v -24972.283979 -13045.167126 213.176625
v -24930.287817 -13082.105203 215.288568
v -24970.232707 -13084.204179 214.431034
v -24970.232707 -13084.204179 214.431034
v -24930.287817 -13082.105203 215.288568
v -24928.236545 -13121.142255 216.556552
v -24970.232707 -13084.204179 214.431034
v -24928.236545 -13121.142255 216.556552
v -24968.181436 -13123.241231 215.685937
v -24968.181436 -13123.241231 215.685937
v -24928.236545 -13121.142255 216.556552
v -24926.185273 -13160.179308 217.824537
v -24968.181436 -13123.241231 215.685937
v -24926.185273 -13160.179308 217.824537
v -24966.130164 -13162.278283 216.953921
v -24966.130164 -13162.278283 216.953921
v -24926.185273 -13160.179308 217.824537
v -24924.134001 -13199.216360 219.092521
v -24966.130164 -13162.278283 216.953921
v -24924.134001 -13199.216360 219.092521
v -24964.078892 -13201.315336 218.218111
v -24964.078892 -13201.315336 218.218111
v -24924.134001 -13199.216360 219.092521
v -24922.082729 -13238.253412 220.257794
v -24964.078892 -13201.315336 218.218111
v -24922.082729 -13238.253412 220.257794
v -24962.027620 -13240.352388 219.381137
v -24962.027620 -13240.352388 219.381137
v -24922.082729 -13238.253412 220.257794
v -24920.031458 -13277.290465 221.420963
v -24962.027620 -13240.352388 219.381137
v -24920.031458 -13277.290465 221.420963
v -24959.976348 -13279.389440 220.544711
v -24959.976348 -13279.389440 220.544711
v -24920.031458 -13277.290465 221.420963
v -24917.980186 -13316.327517 222.659677
v -24959.976348 -13279.389440 220.544711
v -24917.980186 -13316.327517 222.659677
v -24957.925077 -13318.426493 221.708868
v -24957.925077 -13318.426493 221.708868
v -24917.980186 -13316.327517 222.659677
v -24915.928914 -13355.364569 223.850656
v -24957.925077 -13318.426493 221.708868
v -24915.928914 -13355.364569 223.850656
v -24955.873805 -13357.463545 222.896694
v -24955.873805 -13357.463545 222.896694
v -24915.928914 -13355.364569 223.850656
v -24913.877642 -13394.401622 225.036020
v -24955.873805 -13357.463545 222.896694
v -24913.877642 -13394.401622 225.036020
v -24953.822533 -13396.500598 224.082155
v -23549.216360 -12472.394853 229.153023
v -23509.247077 -12470.827574 230.314753
v -23507.715418 -12509.888465 231.964856
v -23549.216360 -12472.394853 229.153023
v -23507.715418 -12509.888465 231.964856
v -23547.684701 -12511.455744 230.819470
v -23547.684701 -12511.455744 230.819470
v -23507.715418 -12509.888465 231.964856
v -23506.183758 -12548.949356 233.622396
v -23547.684701 -12511.455744 230.819470
v -23506.183758 -12548.949356 233.622396
v -23546.153042 -12550.516635 232.476150
v -23546.153042 -12550.516635 232.476150
v -23506.183758 -12548.949356 233.622396
v -23504.652099 -12588.010247 235.285768
v -23546.153042 -12550.516635 232.476150
v -23504.652099 -12588.010247 235.285768
v -23544.621383 -12589.577526 234.132829
v -23544.621383 -12589.577526 234.132829
v -23504.652099 -12588.010247 235.285768
v -23503.120440 -12627.071138 236.986150
v -23544.621383 -12589.577526 234.132829
v -23503.120440 -12627.071138 236.986150
v -23543.089724 -12628.638417 235.783456
v -23543.089724 -12628.638417 235.783456
v -23503.120440 -12627.071138 236.986150
v -23501.588781 -12666.132028 238.674283
v -23543.089724 -12628.638417 235.783456
v -23501.588781 -12666.132028 238.674283
v -23541.558064 -12667.699308 237.469830
v -23541.558064 -12667.699308 237.469830
v -23501.588781 -12666.132028 238.674283
v -23500.057122 -12705.192919 240.367659
v -23541.558064 -12667.699308 237.469830
v -23500.057122 -12705.192919 240.367659
v -23540.026405 -12706.760198 239.156203
v -23540.026405 -12706.760198 239.156203
v -23500.057122 -12705.192919 240.367659
v -23498.525462 -12744.253810 242.116329
v -23540.026405 -12706.760198 239.156203
v -23498.525462 -12744.253810 242.116329
v -23538.494746 -12745.821089 240.869509
v -23538.494746 -12745.821089 240.869509
v -23498.525462 -12744.253810 242.116329
v -23496.993803 -12783.314701 243.876659
v -23538.494746 -12745.821089 240.869509
v -23496.993803 -12783.314701 243.876659
v -23536.963087 -12784.881980 242.628152
v -23536.963087 -12784.881980 242.628152
v -23496.993803 -12783.314701 243.876659
v -23495.462144 -12822.375592 245.633994
v -23536.963087 -12784.881980 242.628152
v -23495.462144 -12822.375592 245.633994
v -23535.431428 -12823.942871 244.386795
v -23535.431428 -12823.942871 244.386795
v -23495.462144 -12822.375592 245.633994
v -23493.930485 -12861.436483 247.369158
v -23535.431428 -12823.942871 244.386795
v -23493.930485 -12861.436483 247.369158
v -23533.899769 -12863.003762 246.118064
v -23533.899769 -12863.003762 246.118064
v -23493.930485 -12861.436483 247.369158
v -23492.398826 -12900.497373 249.098095
v -23533.899769 -12863.003762 246.118064
v -23492.398826 -12900.497373 249.098095
v -23532.368109 -12902.064653 247.846999
v -23532.368109 -12902.064653 247.846999
v -23492.398826 -12900.497373 249.098095
v -23490.867167 -12939.558264 250.844559
v -23532.368109 -12902.064653 247.846999
v -23490.867167 -12939.558264 250.844559
v -23530.836450 -12941.125544 249.575935
v -23530.836450 -12941.125544 249.575935
v -23490.867167 -12939.558264 250.844559
v -23489.335507 -12978.619155 252.647274
v -23530.836450 -12941.125544 249.575935
v -23489.335507 -12978.619155 252.647274
v -23529.304791 -12980.186434 251.322082
v -23529.304791 -12980.186434 251.322082
v -23489.335507 -12978.619155 252.647274
v -23487.803848 -13017.680046 254.441112
v -23529.304791 -12980.186434 251.322082
v -23487.803848 -13017.680046 254.441112
v -23527.773132 -13019.247325 253.115255
v -23527.773132 -13019.247325 253.115255
v -23487.803848 -13017.680046 254.441112
v -23486.272189 -13056.740937 256.236557
v -23527.773132 -13019.247325 253.115255
v -23486.272189 -13056.740937 256.236557
v -23526.241473 -13058.308216 254.908428
v -23526.241473 -13058.308216 254.908428
v -23486.272189 -13056.740937 256.236557
v -23484.740530 -13095.801828 258.049069
v -23526.241473 -13058.308216 254.908428
v -23484.740530 -13095.801828 258.049069
v -23524.709813 -13097.369107 256.706061
v -23524.709813 -13097.369107 256.706061
v -23484.740530 -13095.801828 258.049069
v -23483.208871 -13134.862719 259.879897
v -23524.709813 -13097.369107 256.706061
v -23483.208871 -13134.862719 259.879897
v -23523.178154 -13136.429998 258.539854
v -23523.178154 -13136.429998 258.539854
v -23483.208871 -13134.862719 259.879897
v -23481.677211 -13173.923609 261.727654
v -23523.178154 -13136.429998 258.539854
v -23481.677211 -13173.923609 261.727654
v -23521.646495 -13175.490889 260.373646
v -23521.646495 -13175.490889 260.373646
v -23481.677211 -13173.923609 261.727654
v -23480.145552 -13212.984500 263.586422
v -23521.646495 -13175.490889 260.373646
v -23480.145552 -13212.984500 263.586422
v -23520.114836 -13214.551779 262.195919
v -23520.114836 -13214.551779 262.195919
v -23480.145552 -13212.984500 263.586422
v -23478.613893 -13252.045391 265.388603
v -23520.114836 -13214.551779 262.195919
v -23478.613893 -13252.045391 265.388603
v -23518.583177 -13253.612670 263.998222
v -23518.583177 -13253.612670 263.998222
v -23478.613893 -13252.045391 265.388603
v -23477.082234 -13291.106282 267.211187
v -23518.583177 -13253.612670 263.998222
v -23477.082234 -13291.106282 267.211187
v -23517.051518 -13292.673561 265.800403
v -23517.051518 -13292.673561 265.800403
v -23477.082234 -13291.106282 267.211187
v -23475.550575 -13330.167173 269.057635
v -23517.051518 -13292.673561 265.800403
v -23475.550575 -13330.167173 269.057635
v -23515.519858 -13331.734452 267.609102
v -23896.166677 -12059.414956 201.011151
v -23904.654528 -12098.504039 202.968108
v -23943.743611 -12090.016188 200.916117
v -23896.166677 -12059.414956 201.011151
v -23943.743611 -12090.016188 200.916117
v -23935.255760 -12050.927105 198.837773
v -23935.255760 -12050.927105 198.837773
v -23943.743611 -12090.016188 200.916117
v -23982.832693 -12081.528337 199.007961
v -23935.255760 -12050.927105 198.837773
v -23982.832693 -12081.528337 199.007961
v -23974.344842 -12042.439254 196.937833
v -23974.344842 -12042.439254 196.937833
v -23982.832693 -12081.528337 199.007961
v -24021.921776 -12073.040486 197.460249
v -23974.344842 -12042.439254 196.937833
v -24021.921776 -12073.040486 197.460249
v -24013.433925 -12033.951403 195.269352
v -24013.433925 -12033.951403 195.269352
v -24021.921776 -12073.040486 197.460249
v -24061.010859 -12064.552635 196.637388
v -24013.433925 -12033.951403 195.269352
v -24061.010859 -12064.552635 196.637388
v -24052.523008 -12025.463553 194.639468
v -24052.523008 -12025.463553 194.639468
v -24061.010859 -12064.552635 196.637388
v -24100.099941 -12056.064784 195.965470
v -24052.523008 -12025.463553 194.639468
v -24100.099941 -12056.064784 195.965470
v -24091.612091 -12016.975702 194.101840
v -24091.612091 -12016.975702 194.101840
v -24100.099941 -12056.064784 195.965470
v -24139.189024 -12047.576934 195.406615
v -24091.612091 -12016.975702 194.101840
v -24139.189024 -12047.576934 195.406615
v -24130.701173 -12008.487851 193.554798
v -24130.701173 -12008.487851 193.554798
v -24139.189024 -12047.576934 195.406615
v -24178.278107 -12039.089083 194.456573
v -24130.701173 -12008.487851 193.554798
v -24178.278107 -12039.089083 194.456573
v -24169.790256 -12000.000000 192.756900
v -24169.790256 -12000.000000 192.756900
v -24178.278107 -12039.089083 194.456573
v -24217.367190 -12030.601232 193.425493
v -24169.790256 -12000.000000 192.756900
v -24217.367190 -12030.601232 193.425493
v -24208.879339 -11991.512149 191.896228
v -24208.879339 -11991.512149 191.896228
v -24217.367190 -12030.601232 193.425493
v -24256.456272 -12022.113381 192.297309
v -24208.879339 -11991.512149 191.896228
v -24256.456272 -12022.113381 192.297309
v -24247.968421 -11983.024298 190.783488
v -24247.968421 -11983.024298 190.783488
v -24256.456272 -12022.113381 192.297309
v -24295.545355 -12013.625530 191.098726
v -24247.968421 -11983.024298 190.783488
v -24295.545355 -12013.625530 191.098726
v -24287.057504 -11974.536447 189.618064
v -24287.057504 -11974.536447 189.618064
v -24295.545355 -12013.625530 191.098726
v -24334.634438 -12005.137679 189.817856
v -24287.057504 -11974.536447 189.618064
v -24334.634438 -12005.137679 189.817856
v -24326.146587 -11966.048597 188.337195
v -24326.146587 -11966.048597 188.337195
v -24334.634438 -12005.137679 189.817856
v -24373.723520 -11996.649828 188.767758
v -24326.146587 -11966.048597 188.337195
v -24373.723520 -11996.649828 188.767758
v -24365.235670 -11957.560746 187.439549
v -24365.235670 -11957.560746 187.439549
v -24373.723520 -11996.649828 188.767758
v -24412.812603 -11988.161978 188.344421
v -24365.235670 -11957.560746 187.439549
v -24412.812603 -11988.161978 188.344421
v -24404.324752 -11949.072895 186.995543
v -24404.324752 -11949.072895 186.995543
v -24412.812603 -11988.161978 188.344421
v -24451.901686 -11979.674127 188.588229
v -24404.324752 -11949.072895 186.995543
v -24451.901686 -11979.674127 188.588229
v -24443.413835 -11940.585044 187.256901
v -24285.988482 -13908.360709 260.042406
v -24294.325726 -13947.482191 260.175183
v -24333.447208 -13939.144947 258.607135
v -24285.988482 -13908.360709 260.042406
v -24333.447208 -13939.144947 258.607135
v -24325.109964 -13900.023465 258.594616
v -24325.109964 -13900.023465 258.594616
v -24333.447208 -13939.144947 258.607135
v -24372.568691 -13930.807703 257.277517
v -24325.109964 -13900.023465 258.594616
v -24372.568691 -13930.807703 257.277517
v -24364.231446 -13891.686221 256.927139
v -24364.231446 -13891.686221 256.927139
v -24372.568691 -13930.807703 257.277517
v -24411.690173 -13922.470459 255.659965
v -24364.231446 -13891.686221 256.927139
v -24411.690173 -13922.470459 255.659965
v -24403.352929 -13883.348976 255.166487
v -24403.352929 -13883.348976 255.166487
v -24411.690173 -13922.470459 255.659965
v -24450.811655 -13914.133214 254.213961
v -24403.352929 -13883.348976 255.166487
v -24450.811655 -13914.133214 254.213961
v -24442.474411 -13875.011732 253.563146
v -24442.474411 -13875.011732 253.563146
v -24450.811655 -13914.133214 254.213961
v -24489.933137 -13905.795970 252.706081
v -24442.474411 -13875.011732 253.563146
v -24489.933137 -13905.795970 252.706081
v -24481.595893 -13866.674488 251.959796
v -24481.595893 -13866.674488 251.959796
v -24489.933137 -13905.795970 252.706081
v -24529.054619 -13897.458726 251.133064
v -24481.595893 -13866.674488 251.959796
v -24529.054619 -13897.458726 251.133064
v -24520.717375 -13858.337244 250.356447
v -24520.717375 -13858.337244 250.356447
v -24529.054619 -13897.458726 251.133064
v -24568.176101 -13889.121482 249.623440
v -24520.717375 -13858.337244 250.356447
v -24568.176101 -13889.121482 249.623440
v -24559.838857 -13850.000000 248.814249
v -24559.838857 -13850.000000 248.814249
v -24568.176101 -13889.121482 249.623440
v -24607.297583 -13880.784238 248.119473
v -24559.838857 -13850.000000 248.814249
v -24607.297583 -13880.784238 248.119473
v -24598.960339 -13841.662756 247.190036
v -24598.960339 -13841.662756 247.190036
v -24607.297583 -13880.784238 248.119473
v -24646.419065 -13872.446994 246.483562
v -24598.960339 -13841.662756 247.190036
v -24646.419065 -13872.446994 246.483562
v -24638.081821 -13833.325512 245.652824
v -24638.081821 -13833.325512 245.652824
v -24646.419065 -13872.446994 246.483562
v -24685.540547 -13864.109750 244.980151
v -24638.081821 -13833.325512 245.652824
v -24685.540547 -13864.109750 244.980151
v -24677.203303 -13824.988268 244.177396
v -24677.203303 -13824.988268 244.177396
v -24685.540547 -13864.109750 244.980151
v -24724.662029 -13855.772506 243.376804
v -24677.203303 -13824.988268 244.177396
v -24724.662029 -13855.772506 243.376804
v -24716.324785 -13816.651024 242.542722
v -24716.324785 -13816.651024 242.542722
v -24724.662029 -13855.772506 243.376804
v -24763.783511 -13847.435261 241.850023
v -24716.324785 -13816.651024 242.542722
v -24763.783511 -13847.435261 241.850023
v -24755.446267 -13808.313779 241.040832
v -24755.446267 -13808.313779 241.040832
v -24763.783511 -13847.435261 241.850023
v -24802.904993 -13839.098017 240.399523
v -24755.446267 -13808.313779 241.040832
v -24802.904993 -13839.098017 240.399523
v -24794.567749 -13799.976535 239.590336
v -24794.567749 -13799.976535 239.590336
v -24802.904993 -13839.098017 240.399523
v -24842.026476 -13830.760773 238.948992
v -24794.567749 -13799.976535 239.590336
v -24842.026476 -13830.760773 238.948992
v -24833.689231 -13791.639291 238.139835
vt -249.989505 125.376854
vt -249.590056 125.355865
vt -249.569543 125.746235
vt -249.989505 125.376854
vt -249.569543 125.746235
vt -249.968992 125.767225
vt -249.968992 125.767225
vt -249.569543 125.746235
vt -249.549031 126.136606
vt -249.968992 125.767225
vt -249.549031 126.136606
vt -249.948480 126.157596
vt -249.948480 126.157596
vt -249.549031 126.136606
vt -249.528518 126.526976
vt -249.948480 126.157596
vt -249.528518 126.526976
vt -249.927967 126.547966
vt -249.927967 126.547966
vt -249.528518 126.526976
vt -249.508005 126.917347
vt -249.927967 126.547966
vt -249.508005 126.917347
vt -249.907454 126.938337
vt -249.907454 126.938337
vt -249.508005 126.917347
vt -249.487493 127.307717
vt -249.907454 126.938337
vt -249.487493 127.307717
vt -249.886942 127.328707
vt -249.886942 127.328707
vt -249.487493 127.307717
vt -249.466980 127.698088
vt -249.886942 127.328707
vt -249.466980 127.698088
vt -249.866429 127.719078
vt -249.866429 127.719078
vt -249.466980 127.698088
vt -249.446467 128.088458
vt -249.866429 127.719078
vt -249.446467 128.088458
vt -249.845916 128.109448
vt -249.845916 128.109448
vt -249.446467 128.088458
vt -249.425954 128.478829
vt -249.845916 128.109448
vt -249.425954 128.478829
vt -249.825403 128.499819
vt -249.825403 128.499819
vt -249.425954 128.478829
vt -249.405442 128.869199
vt -249.825403 128.499819
vt -249.405442 128.869199
vt -249.804891 128.890189
vt -249.804891 128.890189
vt -249.405442 128.869199
vt -249.384929 129.259570
vt -249.804891 128.890189
vt -249.384929 129.259570
vt -249.784378 129.280560
vt -249.784378 129.280560
vt -249.384929 129.259570
vt -249.364416 129.649940
vt -249.784378 129.280560
vt -249.364416 129.649940
vt -249.763865 129.670930
vt -249.763865 129.670930
vt -249.364416 129.649940
vt -249.343904 130.040311
vt -249.763865 129.670930
vt -249.343904 130.040311
vt -249.743353 130.061301
vt -249.743353 130.061301
vt -249.343904 130.040311
vt -249.323391 130.430682
vt -249.743353 130.061301
vt -249.323391 130.430682
vt -249.722840 130.451671
vt -249.722840 130.451671
vt -249.323391 130.430682
vt -249.302878 130.821052
vt -249.722840 130.451671
vt -249.302878 130.821052
vt -249.702327 130.842042
vt -249.702327 130.842042
vt -249.302878 130.821052
vt -249.282365 131.211423
vt -249.702327 130.842042
vt -249.282365 131.211423
vt -249.681814 131.232412
vt -249.681814 131.232412
vt -249.282365 131.211423
vt -249.261853 131.601793
vt -249.681814 131.232412
vt -249.261853 131.601793
vt -249.661302 131.622783
vt -249.661302 131.622783
vt -249.261853 131.601793
vt -249.241340 131.992164
vt -249.661302 131.622783
vt -249.241340 131.992164
vt -249.640789 132.013153
vt -249.640789 132.013153
vt -249.241340 131.992164
vt -249.220827 132.382534
vt -249.640789 132.013153
vt -249.220827 132.382534
vt -249.620276 132.403524
vt -249.620276 132.403524
vt -249.220827 132.382534
vt -249.200315 132.772905
vt -249.620276 132.403524
vt -249.200315 132.772905
vt -249.599763 132.793894
vt -249.599763 132.793894
vt -249.200315 132.772905
vt -249.179802 133.163275
vt -249.599763 132.793894
vt -249.179802 133.163275
vt -249.579251 133.184265
vt -249.579251 133.184265
vt -249.179802 133.163275
vt -249.159289 133.553646
vt -249.579251 133.184265
vt -249.159289 133.553646
vt -249.558738 133.574635
vt -249.558738 133.574635
vt -249.159289 133.553646
vt -249.138776 133.944016
vt -249.558738 133.574635
vt -249.138776 133.944016
vt -249.538225 133.965006
vt -235.492164 124.723949
vt -235.092471 124.708276
vt -235.077154 125.098885
vt -235.492164 124.723949
vt -235.077154 125.098885
vt -235.476847 125.114557
vt -235.476847 125.114557
vt -235.077154 125.098885
vt -235.061838 125.489494
vt -235.476847 125.114557
vt -235.061838 125.489494
vt -235.461530 125.505166
vt -235.461530 125.505166
vt -235.061838 125.489494
vt -235.046521 125.880102
vt -235.461530 125.505166
vt -235.046521 125.880102
vt -235.446214 125.895775
vt -235.446214 125.895775
vt -235.046521 125.880102
vt -235.031204 126.270711
vt -235.446214 125.895775
vt -235.031204 126.270711
vt -235.430897 126.286384
vt -235.430897 126.286384
vt -235.031204 126.270711
vt -235.015888 126.661320
vt -235.430897 126.286384
vt -235.015888 126.661320
vt -235.415581 126.676993
vt -235.415581 126.676993
vt -235.015888 126.661320
vt -235.000571 127.051929
vt -235.415581 126.676993
vt -235.000571 127.051929
vt -235.400264 127.067602
vt -235.400264 127.067602
vt -235.000571 127.051929
vt -234.985255 127.442538
vt -235.400264 127.067602
vt -234.985255 127.442538
vt -235.384947 127.458211
vt -235.384947 127.458211
vt -234.985255 127.442538
vt -234.969938 127.833147
vt -235.384947 127.458211
vt -234.969938 127.833147
vt -235.369631 127.848820
vt -235.369631 127.848820
vt -234.969938 127.833147
vt -234.954621 128.223756
vt -235.369631 127.848820
vt -234.954621 128.223756
vt -235.354314 128.239429
vt -235.354314 128.239429
vt -234.954621 128.223756
vt -234.939305 128.614365
vt -235.354314 128.239429
vt -234.939305 128.614365
vt -235.338998 128.630038
vt -235.338998 128.630038
vt -234.939305 128.614365
vt -234.923988 129.004974
vt -235.338998 128.630038
vt -234.923988 129.004974
vt -235.323681 129.020647
vt -235.323681 129.020647
vt -234.923988 129.004974
vt -234.908672 129.395583
vt -235.323681 129.020647
vt -234.908672 129.395583
vt -235.308365 129.411255
vt -235.308365 129.411255
vt -234.908672 129.395583
vt -234.893355 129.786192
vt -235.308365 129.411255
vt -234.893355 129.786192
vt -235.293048 129.801864
vt -235.293048 129.801864
vt -234.893355 129.786192
vt -234.878038 130.176800
vt -235.293048 129.801864
vt -234.878038 130.176800
vt -235.277731 130.192473
vt -235.277731 130.192473
vt -234.878038 130.176800
vt -234.862722 130.567409
vt -235.277731 130.192473
vt -234.862722 130.567409
vt -235.262415 130.583082
vt -235.262415 130.583082
vt -234.862722 130.567409
vt -234.847405 130.958018
vt -235.262415 130.583082
vt -234.847405 130.958018
vt -235.247098 130.973691
vt -235.247098 130.973691
vt -234.847405 130.958018
vt -234.832089 131.348627
vt -235.247098 130.973691
vt -234.832089 131.348627
vt -235.231782 131.364300
vt -235.231782 131.364300
vt -234.832089 131.348627
vt -234.816772 131.739236
vt -235.231782 131.364300
vt -234.816772 131.739236
vt -235.216465 131.754909
vt -235.216465 131.754909
vt -234.816772 131.739236
vt -234.801456 132.129845
vt -235.216465 131.754909
vt -234.801456 132.129845
vt -235.201148 132.145518
vt -235.201148 132.145518
vt -234.801456 132.129845
vt -234.786139 132.520454
vt -235.201148 132.145518
vt -234.786139 132.520454
vt -235.185832 132.536127
vt -235.185832 132.536127
vt -234.786139 132.520454
vt -234.770822 132.911063
vt -235.185832 132.536127
vt -234.770822 132.911063
vt -235.170515 132.926736
vt -235.170515 132.926736
vt -234.770822 132.911063
vt -234.755506 133.301672
vt -235.170515 132.926736
vt -234.755506 133.301672
vt -235.155199 133.317345
vt -238.961667 120.594150
vt -239.046545 120.985040
vt -239.437436 120.900162
vt -238.961667 120.594150
vt -239.437436 120.900162
vt -239.352558 120.509271
vt -239.352558 120.509271
vt -239.437436 120.900162
vt -239.828327 120.815283
vt -239.352558 120.509271
vt -239.828327 120.815283
vt -239.743448 120.424393
vt -239.743448 120.424393
vt -239.828327 120.815283
vt -240.219218 120.730405
vt -239.743448 120.424393
vt -240.219218 120.730405
vt -240.134339 120.339514
vt -240.134339 120.339514
vt -240.219218 120.730405
vt -240.610109 120.645526
vt -240.134339 120.339514
vt -240.610109 120.645526
vt -240.525230 120.254636
vt -240.525230 120.254636
vt -240.610109 120.645526
vt -241.000999 120.560648
vt -240.525230 120.254636
vt -241.000999 120.560648
vt -240.916121 120.169757
vt -240.916121 120.169757
vt -241.000999 120.560648
vt -241.391890 120.475769
vt -240.916121 120.169757
vt -241.391890 120.475769
vt -241.307012 120.084879
vt -241.307012 120.084879
vt -241.391890 120.475769
vt -241.782781 120.390891
vt -241.307012 120.084879
vt -241.782781 120.390891
vt -241.697903 120.000000
vt -241.697903 120.000000
vt -241.782781 120.390891
vt -242.173672 120.306012
vt -241.697903 120.000000
vt -242.173672 120.306012
vt -242.088793 119.915121
vt -242.088793 119.915121
vt -242.173672 120.306012
vt -242.564563 120.221134
vt -242.088793 119.915121
vt -242.564563 120.221134
vt -242.479684 119.830243
vt -242.479684 119.830243
vt -242.564563 120.221134
vt -242.955454 120.136255
vt -242.479684 119.830243
vt -242.955454 120.136255
vt -242.870575 119.745364
vt -242.870575 119.745364
vt -242.955454 120.136255
vt -243.346344 120.051377
vt -242.870575 119.745364
vt -243.346344 120.051377
vt -243.261466 119.660486
vt -243.261466 119.660486
vt -243.346344 120.051377
vt -243.737235 119.966498
vt -243.261466 119.660486
vt -243.737235 119.966498
vt -243.652357 119.575607
vt -243.652357 119.575607
vt -243.737235 119.966498
vt -244.128126 119.881620
vt -243.652357 119.575607
vt -244.128126 119.881620
vt -244.043248 119.490729
vt -244.043248 119.490729
vt -244.128126 119.881620
vt -244.519017 119.796741
vt -244.043248 119.490729
vt -244.519017 119.796741
vt -244.434138 119.405850
vt -242.859885 139.083607
vt -242.943257 139.474822
vt -243.334472 139.391449
vt -242.859885 139.083607
vt -243.334472 139.391449
vt -243.251100 139.000235
vt -243.251100 139.000235
vt -243.334472 139.391449
vt -243.725687 139.308077
vt -243.251100 139.000235
vt -243.725687 139.308077
vt -243.642314 138.916862
vt -243.642314 138.916862
vt -243.725687 139.308077
vt -244.116902 139.224705
vt -243.642314 138.916862
vt -244.116902 139.224705
vt -244.033529 138.833490
vt -244.033529 138.833490
vt -244.116902 139.224705
vt -244.508117 139.141332
vt -244.033529 138.833490
vt -244.508117 139.141332
vt -244.424744 138.750117
vt -244.424744 138.750117
vt -244.508117 139.141332
vt -244.899331 139.057960
vt -244.424744 138.750117
vt -244.899331 139.057960
vt -244.815959 138.666745
vt -244.815959 138.666745
vt -244.899331 139.057960
vt -245.290546 138.974587
vt -244.815959 138.666745
vt -245.290546 138.974587
vt -245.207174 138.583372
vt -245.207174 138.583372
vt -245.290546 138.974587
vt -245.681761 138.891215
vt -245.207174 138.583372
vt -245.681761 138.891215
vt -245.598389 138.500000
vt -245.598389 138.500000
vt -245.681761 138.891215
vt -246.072976 138.807842
vt -245.598389 138.500000
vt -246.072976 138.807842
vt -245.989603 138.416628
vt -245.989603 138.416628
vt -246.072976 138.807842
vt -246.464191 138.724470
vt -245.989603 138.416628
vt -246.464191 138.724470
vt -246.380818 138.333255
vt -246.380818 138.333255
vt -246.464191 138.724470
vt -246.855405 138.641097
vt -246.380818 138.333255
vt -246.855405 138.641097
vt -246.772033 138.249883
vt -246.772033 138.249883
vt -246.855405 138.641097
vt -247.246620 138.557725
vt -246.772033 138.249883
vt -247.246620 138.557725
vt -247.163248 138.166510
vt -247.163248 138.166510
vt -247.246620 138.557725
vt -247.637835 138.474353
vt -247.163248 138.166510
vt -247.637835 138.474353
vt -247.554463 138.083138
vt -247.554463 138.083138
vt -247.637835 138.474353
vt -248.029050 138.390980
vt -247.554463 138.083138
vt -248.029050 138.390980
vt -247.945677 137.999765
vt -247.945677 137.999765
vt -248.029050 138.390980
vt -248.420265 138.307608
vt -247.945677 137.999765
vt -248.420265 138.307608
vt -248.336892 137.916393
f 3/3 2/2 1/1
f 6/6 5/5 4/4
f 9/9 8/8 7/7
f 12/12 11/11 10/10
f 15/15 14/14 13/13
f 18/18 17/17 16/16
f 21/21 20/20 19/19
f 24/24 23/23 22/22
f 27/27 26/26 25/25
f 30/30 29/29 28/28
f 33/33 32/32 31/31
f 36/36 35/35 34/34
f 39/39 38/38 37/37
f 42/42 41/41 40/40
f 45/45 44/44 43/43
f 48/48 47/47 46/46
f 51/51 50/50 49/49
f 54/54 53/53 52/52
f 57/57 56/56 55/55
f 60/60 59/59 58/58
f 63/63 62/62 61/61
f 66/66 65/65 64/64
f 69/69 68/68 67/67
f 72/72 71/71 70/70
f 75/75 74/74 73/73
f 78/78 77/77 76/76
f 81/81 80/80 79/79
f 84/84 83/83 82/82
f 87/87 86/86 85/85
f 90/90 89/89 88/88
f 93/93 92/92 91/91
f 96/96 95/95 94/94
f 99/99 98/98 97/97
f 102/102 101/101 100/100
f 105/105 104/104 103/103
f 108/108 107/107 106/106
f 111/111 110/110 109/109
f 114/114 113/113 112/112
f 117/117 116/116 115/115
f 120/120 119/119 118/118
f 123/123 122/122 121/121
f 126/126 125/125 124/124
f 129/129 128/128 127/127
f 132/132 131/131 130/130
f 135/135 134/134 133/133
f 138/138 137/137 136/136
f 141/141 140/140 139/139
f 144/144 143/143 142/142
f 147/147 146/146 145/145
f 150/150 149/149 148/148
f 153/153 152/152 151/151
f 156/156 155/155 154/154
f 159/159 158/158 157/157
f 162/162 161/161 160/160
f 165/165 164/164 163/163
f 168/168 167/167 166/166
f 171/171 170/170 169/169
f 174/174 173/173 172/172
f 177/177 176/176 175/175
f 180/180 179/179 178/178
f 183/183 182/182 181/181
f 186/186 185/185 184/184
f 189/189 188/188 187/187
f 192/192 191/191 190/190
f 195/195 194/194 193/193
f 198/198 197/197 196/196
f 201/201 200/200 199/199
f 204/204 203/203 202/202
f 207/207 206/206 205/205
f 210/210 209/209 208/208
f 213/213 212/212 211/211
f 216/216 215/215 214/214
f 219/219 218/218 217/217
f 222/222 221/221 220/220
f 225/225 224/224 223/223
f 228/228 227/227 226/226
f 231/231 230/230 229/229
f 234/234 233/233 232/232
f 237/237 236/236 235/235
f 240/240 239/239 238/238
f 243/243 242/242 241/241
f 246/246 245/245 244/244
f 249/249 248/248 247/247
f 252/252 251/251 250/250
f 255/255 254/254 253/253
f 258/258 257/257 256/256
f 261/261 260/260 259/259
f 264/264 263/263 262/262
f 267/267 266/266 265/265
f 270/270 269/269 268/268
f 273/273 272/272 271/271
f 276/276 275/275 274/274
f 279/279 278/278 277/277
f 282/282 281/281 280/280
f 285/285 284/284 283/283
f 288/288 287/287 286/286
f 291/291 290/290 289/289
f 294/294 293/293 292/292
f 297/297 296/296 295/295
f 300/300 299/299 298/298
f 303/303 302/302 301/301
f 306/306 305/305 304/304
f 309/309 308/308 307/307
f 312/312 311/311 310/310
f 315/315 314/314 313/313
f 318/318 317/317 316/316
f 321/321 320/320 319/319
f 324/324 323/323 322/322
f 327/327 326/326 325/325
f 330/330 329/329 328/328
f 333/333 332/332 331/331
f 336/336 335/335 334/334
f 339/339 338/338 337/337
f 342/342 341/341 340/340
f 345/345 344/344 343/343
f 348/348 347/347 346/346
f 351/351 350/350 349/349
f 354/354 353/353 352/352
f 357/357 356/356 355/355
f 360/360 359/359 358/358
f 363/363 362/362 361/361
f 366/366 365/365 364/364
f 369/369 368/368 367/367
f 372/372 371/371 370/370
f 375/375 374/374 373/373
f 378/378 377/377 376/376
f 381/381 380/380 379/379
f 384/384 383/383 382/382
f 387/387 386/386 385/385
f 390/390 389/389 388/388
f 393/393 392/392 391/391
f 396/396 395/395 394/394
f 399/399 398/398 397/397
f 402/402 401/401 400/400
f 405/405 404/404 403/403
f 408/408 407/407 406/406
f 411/411 410/410 409/409
f 414/414 413/413 412/412
f 417/417 416/416 415/415
f 420/420 419/419 418/418
f 423/423 422/422 421/421
f 426/426 425/425 424/424
f 429/429 428/428 427/427
f 432/432 431/431 430/430
