# Authored arcade structure on OSM alignment; ODbL
o KrogTunnel_Columns
v 29735.896962 116137.029968 1226.951475
v 29735.896962 116101.029968 1226.951475
v 29699.896962 116101.029968 1226.951475
v 29699.896962 116137.029968 1226.951475
v 29699.896962 116137.029968 944.951475
v 29699.896962 116101.029968 944.951475
v 29735.896962 116101.029968 944.951475
v 29735.896962 116137.029968 944.951475
v 29699.896962 116137.029968 1226.951475
v 29699.896962 116137.029968 944.951475
v 29699.896962 116101.029968 944.951475
v 29699.896962 116101.029968 1226.951475
v 29699.896962 116101.029968 1226.951475
v 29699.896962 116101.029968 944.951475
v 29735.896962 116101.029968 944.951475
v 29735.896962 116101.029968 1226.951475
v 29735.896962 116101.029968 1226.951475
v 29735.896962 116101.029968 944.951475
v 29735.896962 116137.029968 944.951475
v 29735.896962 116137.029968 1226.951475
v 29735.896962 116137.029968 1226.951475
v 29735.896962 116137.029968 944.951475
v 29699.896962 116137.029968 944.951475
v 29699.896962 116137.029968 1226.951475
v 29722.589015 116214.541684 1227.342070
v 29722.589015 116178.541684 1227.342070
v 29686.589015 116178.541684 1227.342070
v 29686.589015 116214.541684 1227.342070
v 29686.589015 116214.541684 945.342070
v 29686.589015 116178.541684 945.342070
v 29722.589015 116178.541684 945.342070
v 29722.589015 116214.541684 945.342070
v 29686.589015 116214.541684 1227.342070
v 29686.589015 116214.541684 945.342070
v 29686.589015 116178.541684 945.342070
v 29686.589015 116178.541684 1227.342070
v 29686.589015 116178.541684 1227.342070
v 29686.589015 116178.541684 945.342070
v 29722.589015 116178.541684 945.342070
v 29722.589015 116178.541684 1227.342070
v 29722.589015 116178.541684 1227.342070
v 29722.589015 116178.541684 945.342070
v 29722.589015 116214.541684 945.342070
v 29722.589015 116214.541684 1227.342070
v 29722.589015 116214.541684 1227.342070
v 29722.589015 116214.541684 945.342070
v 29686.589015 116214.541684 945.342070
v 29686.589015 116214.541684 1227.342070
v 29824.099150 116465.533622 1227.732665
v 29824.099150 116429.533622 1227.732665
v 29788.099150 116429.533622 1227.732665
v 29788.099150 116465.533622 1227.732665
v 29788.099150 116465.533622 945.732665
v 29788.099150 116429.533622 945.732665
v 29824.099150 116429.533622 945.732665
v 29824.099150 116465.533622 945.732665
v 29788.099150 116465.533622 1227.732665
v 29788.099150 116465.533622 945.732665
v 29788.099150 116429.533622 945.732665
v 29788.099150 116429.533622 1227.732665
v 29788.099150 116429.533622 1227.732665
v 29788.099150 116429.533622 945.732665
v 29824.099150 116429.533622 945.732665
v 29824.099150 116429.533622 1227.732665
v 29824.099150 116429.533622 1227.732665
v 29824.099150 116429.533622 945.732665
v 29824.099150 116465.533622 945.732665
v 29824.099150 116465.533622 1227.732665
v 29824.099150 116465.533622 1227.732665
v 29824.099150 116465.533622 945.732665
v 29788.099150 116465.533622 945.732665
v 29788.099150 116465.533622 1227.732665
v 29925.609286 116716.525559 1228.123259
v 29925.609286 116680.525559 1228.123259
v 29889.609286 116680.525559 1228.123259
v 29889.609286 116716.525559 1228.123259
v 29889.609286 116716.525559 946.123259
v 29889.609286 116680.525559 946.123259
v 29925.609286 116680.525559 946.123259
v 29925.609286 116716.525559 946.123259
v 29889.609286 116716.525559 1228.123259
v 29889.609286 116716.525559 946.123259
v 29889.609286 116680.525559 946.123259
v 29889.609286 116680.525559 1228.123259
v 29889.609286 116680.525559 1228.123259
v 29889.609286 116680.525559 946.123259
v 29925.609286 116680.525559 946.123259
v 29925.609286 116680.525559 1228.123259
v 29925.609286 116680.525559 1228.123259
v 29925.609286 116680.525559 946.123259
v 29925.609286 116716.525559 946.123259
v 29925.609286 116716.525559 1228.123259
v 29925.609286 116716.525559 1228.123259
v 29925.609286 116716.525559 946.123259
v 29889.609286 116716.525559 946.123259
v 29889.609286 116716.525559 1228.123259
v 30027.119421 116967.517497 1228.513854
v 30027.119421 116931.517497 1228.513854
v 29991.119421 116931.517497 1228.513854
v 29991.119421 116967.517497 1228.513854
v 29991.119421 116967.517497 946.513854
v 29991.119421 116931.517497 946.513854
v 30027.119421 116931.517497 946.513854
v 30027.119421 116967.517497 946.513854
v 29991.119421 116967.517497 1228.513854
v 29991.119421 116967.517497 946.513854
v 29991.119421 116931.517497 946.513854
v 29991.119421 116931.517497 1228.513854
v 29991.119421 116931.517497 1228.513854
v 29991.119421 116931.517497 946.513854
v 30027.119421 116931.517497 946.513854
v 30027.119421 116931.517497 1228.513854
v 30027.119421 116931.517497 1228.513854
v 30027.119421 116931.517497 946.513854
v 30027.119421 116967.517497 946.513854
v 30027.119421 116967.517497 1228.513854
v 30027.119421 116967.517497 1228.513854
v 30027.119421 116967.517497 946.513854
v 29991.119421 116967.517497 946.513854
v 29991.119421 116967.517497 1228.513854
v 30128.629556 117218.509435 1228.904449
v 30128.629556 117182.509435 1228.904449
v 30092.629556 117182.509435 1228.904449
v 30092.629556 117218.509435 1228.904449
v 30092.629556 117218.509435 946.904449
v 30092.629556 117182.509435 946.904449
v 30128.629556 117182.509435 946.904449
v 30128.629556 117218.509435 946.904449
v 30092.629556 117218.509435 1228.904449
v 30092.629556 117218.509435 946.904449
v 30092.629556 117182.509435 946.904449
v 30092.629556 117182.509435 1228.904449
v 30092.629556 117182.509435 1228.904449
v 30092.629556 117182.509435 946.904449
v 30128.629556 117182.509435 946.904449
v 30128.629556 117182.509435 1228.904449
v 30128.629556 117182.509435 1228.904449
v 30128.629556 117182.509435 946.904449
v 30128.629556 117218.509435 946.904449
v 30128.629556 117218.509435 1228.904449
v 30128.629556 117218.509435 1228.904449
v 30128.629556 117218.509435 946.904449
v 30092.629556 117218.509435 946.904449
v 30092.629556 117218.509435 1228.904449
v 30230.139691 117469.501373 1229.295043
v 30230.139691 117433.501373 1229.295043
v 30194.139691 117433.501373 1229.295043
v 30194.139691 117469.501373 1229.295043
v 30194.139691 117469.501373 947.295043
v 30194.139691 117433.501373 947.295043
v 30230.139691 117433.501373 947.295043
v 30230.139691 117469.501373 947.295043
v 30194.139691 117469.501373 1229.295043
v 30194.139691 117469.501373 947.295043
v 30194.139691 117433.501373 947.295043
v 30194.139691 117433.501373 1229.295043
v 30194.139691 117433.501373 1229.295043
v 30194.139691 117433.501373 947.295043
v 30230.139691 117433.501373 947.295043
v 30230.139691 117433.501373 1229.295043
v 30230.139691 117433.501373 1229.295043
v 30230.139691 117433.501373 947.295043
v 30230.139691 117469.501373 947.295043
v 30230.139691 117469.501373 1229.295043
v 30230.139691 117469.501373 1229.295043
v 30230.139691 117469.501373 947.295043
v 30194.139691 117469.501373 947.295043
v 30194.139691 117469.501373 1229.295043
v 30331.649826 117720.493310 1229.685638
v 30331.649826 117684.493310 1229.685638
v 30295.649826 117684.493310 1229.685638
v 30295.649826 117720.493310 1229.685638
v 30295.649826 117720.493310 947.685638
v 30295.649826 117684.493310 947.685638
v 30331.649826 117684.493310 947.685638
v 30331.649826 117720.493310 947.685638
v 30295.649826 117720.493310 1229.685638
v 30295.649826 117720.493310 947.685638
v 30295.649826 117684.493310 947.685638
v 30295.649826 117684.493310 1229.685638
v 30295.649826 117684.493310 1229.685638
v 30295.649826 117684.493310 947.685638
v 30331.649826 117684.493310 947.685638
v 30331.649826 117684.493310 1229.685638
v 30331.649826 117684.493310 1229.685638
v 30331.649826 117684.493310 947.685638
v 30331.649826 117720.493310 947.685638
v 30331.649826 117720.493310 1229.685638
v 30331.649826 117720.493310 1229.685638
v 30331.649826 117720.493310 947.685638
v 30295.649826 117720.493310 947.685638
v 30295.649826 117720.493310 1229.685638
v 30433.159961 117971.485248 1230.076233
v 30433.159961 117935.485248 1230.076233
v 30397.159961 117935.485248 1230.076233
v 30397.159961 117971.485248 1230.076233
v 30397.159961 117971.485248 948.076233
v 30397.159961 117935.485248 948.076233
v 30433.159961 117935.485248 948.076233
v 30433.159961 117971.485248 948.076233
v 30397.159961 117971.485248 1230.076233
v 30397.159961 117971.485248 948.076233
v 30397.159961 117935.485248 948.076233
v 30397.159961 117935.485248 1230.076233
v 30397.159961 117935.485248 1230.076233
v 30397.159961 117935.485248 948.076233
v 30433.159961 117935.485248 948.076233
v 30433.159961 117935.485248 1230.076233
v 30433.159961 117935.485248 1230.076233
v 30433.159961 117935.485248 948.076233
v 30433.159961 117971.485248 948.076233
v 30433.159961 117971.485248 1230.076233
v 30433.159961 117971.485248 1230.076233
v 30433.159961 117971.485248 948.076233
v 30397.159961 117971.485248 948.076233
v 30397.159961 117971.485248 1230.076233
v 30534.670097 118222.477186 1230.466827
v 30534.670097 118186.477186 1230.466827
v 30498.670097 118186.477186 1230.466827
v 30498.670097 118222.477186 1230.466827
v 30498.670097 118222.477186 948.466827
v 30498.670097 118186.477186 948.466827
v 30534.670097 118186.477186 948.466827
v 30534.670097 118222.477186 948.466827
v 30498.670097 118222.477186 1230.466827
v 30498.670097 118222.477186 948.466827
v 30498.670097 118186.477186 948.466827
v 30498.670097 118186.477186 1230.466827
v 30498.670097 118186.477186 1230.466827
v 30498.670097 118186.477186 948.466827
v 30534.670097 118186.477186 948.466827
v 30534.670097 118186.477186 1230.466827
v 30534.670097 118186.477186 1230.466827
v 30534.670097 118186.477186 948.466827
v 30534.670097 118222.477186 948.466827
v 30534.670097 118222.477186 1230.466827
v 30534.670097 118222.477186 1230.466827
v 30534.670097 118222.477186 948.466827
v 30498.670097 118222.477186 948.466827
v 30498.670097 118222.477186 1230.466827
v 30636.533508 118473.687749 1230.857422
v 30636.533508 118437.687749 1230.857422
v 30600.533508 118437.687749 1230.857422
v 30600.533508 118473.687749 1230.857422
v 30600.533508 118473.687749 948.857422
v 30600.533508 118437.687749 948.857422
v 30636.533508 118437.687749 948.857422
v 30636.533508 118473.687749 948.857422
v 30600.533508 118473.687749 1230.857422
v 30600.533508 118473.687749 948.857422
v 30600.533508 118437.687749 948.857422
v 30600.533508 118437.687749 1230.857422
v 30600.533508 118437.687749 1230.857422
v 30600.533508 118437.687749 948.857422
v 30636.533508 118437.687749 948.857422
v 30636.533508 118437.687749 1230.857422
v 30636.533508 118437.687749 1230.857422
v 30636.533508 118437.687749 948.857422
v 30636.533508 118473.687749 948.857422
v 30636.533508 118473.687749 1230.857422
v 30636.533508 118473.687749 1230.857422
v 30636.533508 118473.687749 948.857422
v 30600.533508 118473.687749 948.857422
v 30600.533508 118473.687749 1230.857422
v 30738.324079 118724.566086 1231.248017
v 30738.324079 118688.566086 1231.248017
v 30702.324079 118688.566086 1231.248017
v 30702.324079 118724.566086 1231.248017
v 30702.324079 118724.566086 949.248017
v 30702.324079 118688.566086 949.248017
v 30738.324079 118688.566086 949.248017
v 30738.324079 118724.566086 949.248017
v 30702.324079 118724.566086 1231.248017
v 30702.324079 118724.566086 949.248017
v 30702.324079 118688.566086 949.248017
v 30702.324079 118688.566086 1231.248017
v 30702.324079 118688.566086 1231.248017
v 30702.324079 118688.566086 949.248017
v 30738.324079 118688.566086 949.248017
v 30738.324079 118688.566086 1231.248017
v 30738.324079 118688.566086 1231.248017
v 30738.324079 118688.566086 949.248017
v 30738.324079 118724.566086 949.248017
v 30738.324079 118724.566086 1231.248017
v 30738.324079 118724.566086 1231.248017
v 30738.324079 118724.566086 949.248017
v 30702.324079 118724.566086 949.248017
v 30702.324079 118724.566086 1231.248017
v 30840.114650 118975.444422 1231.638611
v 30840.114650 118939.444422 1231.638611
v 30804.114650 118939.444422 1231.638611
v 30804.114650 118975.444422 1231.638611
v 30804.114650 118975.444422 949.638611
v 30804.114650 118939.444422 949.638611
v 30840.114650 118939.444422 949.638611
v 30840.114650 118975.444422 949.638611
v 30804.114650 118975.444422 1231.638611
v 30804.114650 118975.444422 949.638611
v 30804.114650 118939.444422 949.638611
v 30804.114650 118939.444422 1231.638611
v 30804.114650 118939.444422 1231.638611
v 30804.114650 118939.444422 949.638611
v 30840.114650 118939.444422 949.638611
v 30840.114650 118939.444422 1231.638611
v 30840.114650 118939.444422 1231.638611
v 30840.114650 118939.444422 949.638611
v 30840.114650 118975.444422 949.638611
v 30840.114650 118975.444422 1231.638611
v 30840.114650 118975.444422 1231.638611
v 30840.114650 118975.444422 949.638611
v 30804.114650 118975.444422 949.638611
v 30804.114650 118975.444422 1231.638611
v 30941.905221 119226.322759 1232.029206
v 30941.905221 119190.322759 1232.029206
v 30905.905221 119190.322759 1232.029206
v 30905.905221 119226.322759 1232.029206
v 30905.905221 119226.322759 950.029206
v 30905.905221 119190.322759 950.029206
v 30941.905221 119190.322759 950.029206
v 30941.905221 119226.322759 950.029206
v 30905.905221 119226.322759 1232.029206
v 30905.905221 119226.322759 950.029206
v 30905.905221 119190.322759 950.029206
v 30905.905221 119190.322759 1232.029206
v 30905.905221 119190.322759 1232.029206
v 30905.905221 119190.322759 950.029206
v 30941.905221 119190.322759 950.029206
v 30941.905221 119190.322759 1232.029206
v 30941.905221 119190.322759 1232.029206
v 30941.905221 119190.322759 950.029206
v 30941.905221 119226.322759 950.029206
v 30941.905221 119226.322759 1232.029206
v 30941.905221 119226.322759 1232.029206
v 30941.905221 119226.322759 950.029206
v 30905.905221 119226.322759 950.029206
v 30905.905221 119226.322759 1232.029206
v 31043.695792 119477.201096 1232.419800
v 31043.695792 119441.201096 1232.419800
v 31007.695792 119441.201096 1232.419800
v 31007.695792 119477.201096 1232.419800
v 31007.695792 119477.201096 950.419800
v 31007.695792 119441.201096 950.419800
v 31043.695792 119441.201096 950.419800
v 31043.695792 119477.201096 950.419800
v 31007.695792 119477.201096 1232.419800
v 31007.695792 119477.201096 950.419800
v 31007.695792 119441.201096 950.419800
v 31007.695792 119441.201096 1232.419800
v 31007.695792 119441.201096 1232.419800
v 31007.695792 119441.201096 950.419800
v 31043.695792 119441.201096 950.419800
v 31043.695792 119441.201096 1232.419800
v 31043.695792 119441.201096 1232.419800
v 31043.695792 119441.201096 950.419800
v 31043.695792 119477.201096 950.419800
v 31043.695792 119477.201096 1232.419800
v 31043.695792 119477.201096 1232.419800
v 31043.695792 119477.201096 950.419800
v 31007.695792 119477.201096 950.419800
v 31007.695792 119477.201096 1232.419800
v 31145.486363 119728.079433 1232.810395
v 31145.486363 119692.079433 1232.810395
v 31109.486363 119692.079433 1232.810395
v 31109.486363 119728.079433 1232.810395
v 31109.486363 119728.079433 950.810395
v 31109.486363 119692.079433 950.810395
v 31145.486363 119692.079433 950.810395
v 31145.486363 119728.079433 950.810395
v 31109.486363 119728.079433 1232.810395
v 31109.486363 119728.079433 950.810395
v 31109.486363 119692.079433 950.810395
v 31109.486363 119692.079433 1232.810395
v 31109.486363 119692.079433 1232.810395
v 31109.486363 119692.079433 950.810395
v 31145.486363 119692.079433 950.810395
v 31145.486363 119692.079433 1232.810395
v 31145.486363 119692.079433 1232.810395
v 31145.486363 119692.079433 950.810395
v 31145.486363 119728.079433 950.810395
v 31145.486363 119728.079433 1232.810395
v 31145.486363 119728.079433 1232.810395
v 31145.486363 119728.079433 950.810395
v 31109.486363 119728.079433 950.810395
v 31109.486363 119728.079433 1232.810395
vt 148.679485 6.134757
vt 148.679485 6.134757
vt 148.499485 6.134757
vt 148.499485 6.134757
vt 148.499485 4.724757
vt 148.499485 4.724757
vt 148.679485 4.724757
vt 148.679485 4.724757
vt 148.499485 6.134757
vt 148.499485 4.724757
vt 148.499485 4.724757
vt 148.499485 6.134757
vt 148.499485 6.134757
vt 148.499485 4.724757
vt 148.679485 4.724757
vt 148.679485 6.134757
vt 148.679485 6.134757
vt 148.679485 4.724757
vt 148.679485 4.724757
vt 148.679485 6.134757
vt 148.679485 6.134757
vt 148.679485 4.724757
vt 148.499485 4.724757
vt 148.499485 6.134757
vt 148.612945 6.136710
vt 148.612945 6.136710
vt 148.432945 6.136710
vt 148.432945 6.136710
vt 148.432945 4.726710
vt 148.432945 4.726710
vt 148.612945 4.726710
vt 148.612945 4.726710
vt 148.432945 6.136710
vt 148.432945 4.726710
vt 148.432945 4.726710
vt 148.432945 6.136710
vt 148.432945 6.136710
vt 148.432945 4.726710
vt 148.612945 4.726710
vt 148.612945 6.136710
vt 148.612945 6.136710
vt 148.612945 4.726710
vt 148.612945 4.726710
vt 148.612945 6.136710
vt 148.612945 6.136710
vt 148.612945 4.726710
vt 148.432945 4.726710
vt 148.432945 6.136710
vt 149.120496 6.138663
vt 149.120496 6.138663
vt 148.940496 6.138663
vt 148.940496 6.138663
vt 148.940496 4.728663
vt 148.940496 4.728663
vt 149.120496 4.728663
vt 149.120496 4.728663
vt 148.940496 6.138663
vt 148.940496 4.728663
vt 148.940496 4.728663
vt 148.940496 6.138663
vt 148.940496 6.138663
vt 148.940496 4.728663
vt 149.120496 4.728663
vt 149.120496 6.138663
vt 149.120496 6.138663
vt 149.120496 4.728663
vt 149.120496 4.728663
vt 149.120496 6.138663
vt 149.120496 6.138663
vt 149.120496 4.728663
vt 148.940496 4.728663
vt 148.940496 6.138663
vt 149.628046 6.140616
vt 149.628046 6.140616
vt 149.448046 6.140616
vt 149.448046 6.140616
vt 149.448046 4.730616
vt 149.448046 4.730616
vt 149.628046 4.730616
vt 149.628046 4.730616
vt 149.448046 6.140616
vt 149.448046 4.730616
vt 149.448046 4.730616
vt 149.448046 6.140616
vt 149.448046 6.140616
vt 149.448046 4.730616
vt 149.628046 4.730616
vt 149.628046 6.140616
vt 149.628046 6.140616
vt 149.628046 4.730616
vt 149.628046 4.730616
vt 149.628046 6.140616
vt 149.628046 6.140616
vt 149.628046 4.730616
vt 149.448046 4.730616
vt 149.448046 6.140616
vt 150.135597 6.142569
vt 150.135597 6.142569
vt 149.955597 6.142569
vt 149.955597 6.142569
vt 149.955597 4.732569
vt 149.955597 4.732569
vt 150.135597 4.732569
vt 150.135597 4.732569
vt 149.955597 6.142569
vt 149.955597 4.732569
vt 149.955597 4.732569
vt 149.955597 6.142569
vt 149.955597 6.142569
vt 149.955597 4.732569
vt 150.135597 4.732569
vt 150.135597 6.142569
vt 150.135597 6.142569
vt 150.135597 4.732569
vt 150.135597 4.732569
vt 150.135597 6.142569
vt 150.135597 6.142569
vt 150.135597 4.732569
vt 149.955597 4.732569
vt 149.955597 6.142569
vt 150.643148 6.144522
vt 150.643148 6.144522
vt 150.463148 6.144522
vt 150.463148 6.144522
vt 150.463148 4.734522
vt 150.463148 4.734522
vt 150.643148 4.734522
vt 150.643148 4.734522
vt 150.463148 6.144522
vt 150.463148 4.734522
vt 150.463148 4.734522
vt 150.463148 6.144522
vt 150.463148 6.144522
vt 150.463148 4.734522
vt 150.643148 4.734522
vt 150.643148 6.144522
vt 150.643148 6.144522
vt 150.643148 4.734522
vt 150.643148 4.734522
vt 150.643148 6.144522
vt 150.643148 6.144522
vt 150.643148 4.734522
vt 150.463148 4.734522
vt 150.463148 6.144522
vt 151.150698 6.146475
vt 151.150698 6.146475
vt 150.970698 6.146475
vt 150.970698 6.146475
vt 150.970698 4.736475
vt 150.970698 4.736475
vt 151.150698 4.736475
vt 151.150698 4.736475
vt 150.970698 6.146475
vt 150.970698 4.736475
vt 150.970698 4.736475
vt 150.970698 6.146475
vt 150.970698 6.146475
vt 150.970698 4.736475
vt 151.150698 4.736475
vt 151.150698 6.146475
vt 151.150698 6.146475
vt 151.150698 4.736475
vt 151.150698 4.736475
vt 151.150698 6.146475
vt 151.150698 6.146475
vt 151.150698 4.736475
vt 150.970698 4.736475
vt 150.970698 6.146475
vt 151.658249 6.148428
vt 151.658249 6.148428
vt 151.478249 6.148428
vt 151.478249 6.148428
vt 151.478249 4.738428
vt 151.478249 4.738428
vt 151.658249 4.738428
vt 151.658249 4.738428
vt 151.478249 6.148428
vt 151.478249 4.738428
vt 151.478249 4.738428
vt 151.478249 6.148428
vt 151.478249 6.148428
vt 151.478249 4.738428
vt 151.658249 4.738428
vt 151.658249 6.148428
vt 151.658249 6.148428
vt 151.658249 4.738428
vt 151.658249 4.738428
vt 151.658249 6.148428
vt 151.658249 6.148428
vt 151.658249 4.738428
vt 151.478249 4.738428
vt 151.478249 6.148428
vt 152.165800 6.150381
vt 152.165800 6.150381
vt 151.985800 6.150381
vt 151.985800 6.150381
vt 151.985800 4.740381
vt 151.985800 4.740381
vt 152.165800 4.740381
vt 152.165800 4.740381
vt 151.985800 6.150381
vt 151.985800 4.740381
vt 151.985800 4.740381
vt 151.985800 6.150381
vt 151.985800 6.150381
vt 151.985800 4.740381
vt 152.165800 4.740381
vt 152.165800 6.150381
vt 152.165800 6.150381
vt 152.165800 4.740381
vt 152.165800 4.740381
vt 152.165800 6.150381
vt 152.165800 6.150381
vt 152.165800 4.740381
vt 151.985800 4.740381
vt 151.985800 6.150381
vt 152.673350 6.152334
vt 152.673350 6.152334
vt 152.493350 6.152334
vt 152.493350 6.152334
vt 152.493350 4.742334
vt 152.493350 4.742334
vt 152.673350 4.742334
vt 152.673350 4.742334
vt 152.493350 6.152334
vt 152.493350 4.742334
vt 152.493350 4.742334
vt 152.493350 6.152334
vt 152.493350 6.152334
vt 152.493350 4.742334
vt 152.673350 4.742334
vt 152.673350 6.152334
vt 152.673350 6.152334
vt 152.673350 4.742334
vt 152.673350 4.742334
vt 152.673350 6.152334
vt 152.673350 6.152334
vt 152.673350 4.742334
vt 152.493350 4.742334
vt 152.493350 6.152334
vt 153.182668 6.154287
vt 153.182668 6.154287
vt 153.002668 6.154287
vt 153.002668 6.154287
vt 153.002668 4.744287
vt 153.002668 4.744287
vt 153.182668 4.744287
vt 153.182668 4.744287
vt 153.002668 6.154287
vt 153.002668 4.744287
vt 153.002668 4.744287
vt 153.002668 6.154287
vt 153.002668 6.154287
vt 153.002668 4.744287
vt 153.182668 4.744287
vt 153.182668 6.154287
vt 153.182668 6.154287
vt 153.182668 4.744287
vt 153.182668 4.744287
vt 153.182668 6.154287
vt 153.182668 6.154287
vt 153.182668 4.744287
vt 153.002668 4.744287
vt 153.002668 6.154287
vt 153.691620 6.156240
vt 153.691620 6.156240
vt 153.511620 6.156240
vt 153.511620 6.156240
vt 153.511620 4.746240
vt 153.511620 4.746240
vt 153.691620 4.746240
vt 153.691620 4.746240
vt 153.511620 6.156240
vt 153.511620 4.746240
vt 153.511620 4.746240
vt 153.511620 6.156240
vt 153.511620 6.156240
vt 153.511620 4.746240
vt 153.691620 4.746240
vt 153.691620 6.156240
vt 153.691620 6.156240
vt 153.691620 4.746240
vt 153.691620 4.746240
vt 153.691620 6.156240
vt 153.691620 6.156240
vt 153.691620 4.746240
vt 153.511620 4.746240
vt 153.511620 6.156240
vt 154.200573 6.158193
vt 154.200573 6.158193
vt 154.020573 6.158193
vt 154.020573 6.158193
vt 154.020573 4.748193
vt 154.020573 4.748193
vt 154.200573 4.748193
vt 154.200573 4.748193
vt 154.020573 6.158193
vt 154.020573 4.748193
vt 154.020573 4.748193
vt 154.020573 6.158193
vt 154.020573 6.158193
vt 154.020573 4.748193
vt 154.200573 4.748193
vt 154.200573 6.158193
vt 154.200573 6.158193
vt 154.200573 4.748193
vt 154.200573 4.748193
vt 154.200573 6.158193
vt 154.200573 6.158193
vt 154.200573 4.748193
vt 154.020573 4.748193
vt 154.020573 6.158193
vt 154.709526 6.160146
vt 154.709526 6.160146
vt 154.529526 6.160146
vt 154.529526 6.160146
vt 154.529526 4.750146
vt 154.529526 4.750146
vt 154.709526 4.750146
vt 154.709526 4.750146
vt 154.529526 6.160146
vt 154.529526 4.750146
vt 154.529526 4.750146
vt 154.529526 6.160146
vt 154.529526 6.160146
vt 154.529526 4.750146
vt 154.709526 4.750146
vt 154.709526 6.160146
vt 154.709526 6.160146
vt 154.709526 4.750146
vt 154.709526 4.750146
vt 154.709526 6.160146
vt 154.709526 6.160146
vt 154.709526 4.750146
vt 154.529526 4.750146
vt 154.529526 6.160146
vt 155.218479 6.162099
vt 155.218479 6.162099
vt 155.038479 6.162099
vt 155.038479 6.162099
vt 155.038479 4.752099
vt 155.038479 4.752099
vt 155.218479 4.752099
vt 155.218479 4.752099
vt 155.038479 6.162099
vt 155.038479 4.752099
vt 155.038479 4.752099
vt 155.038479 6.162099
vt 155.038479 6.162099
vt 155.038479 4.752099
vt 155.218479 4.752099
vt 155.218479 6.162099
vt 155.218479 6.162099
vt 155.218479 4.752099
vt 155.218479 4.752099
vt 155.218479 6.162099
vt 155.218479 6.162099
vt 155.218479 4.752099
vt 155.038479 4.752099
vt 155.038479 6.162099
vt 155.727432 6.164052
vt 155.727432 6.164052
vt 155.547432 6.164052
vt 155.547432 6.164052
vt 155.547432 4.754052
vt 155.547432 4.754052
vt 155.727432 4.754052
vt 155.727432 4.754052
vt 155.547432 6.164052
vt 155.547432 4.754052
vt 155.547432 4.754052
vt 155.547432 6.164052
vt 155.547432 6.164052
vt 155.547432 4.754052
vt 155.727432 4.754052
vt 155.727432 6.164052
vt 155.727432 6.164052
vt 155.727432 4.754052
vt 155.727432 4.754052
vt 155.727432 6.164052
vt 155.727432 6.164052
vt 155.727432 4.754052
vt 155.547432 4.754052
vt 155.547432 6.164052
f 3/3 2/2 1/1
f 4/4 3/3 1/1
f 7/7 6/6 5/5
f 8/8 7/7 5/5
f 11/11 10/10 9/9
f 12/12 11/11 9/9
f 15/15 14/14 13/13
f 16/16 15/15 13/13
f 19/19 18/18 17/17
f 20/20 19/19 17/17
f 23/23 22/22 21/21
f 24/24 23/23 21/21
f 27/27 26/26 25/25
f 28/28 27/27 25/25
f 31/31 30/30 29/29
f 32/32 31/31 29/29
f 35/35 34/34 33/33
f 36/36 35/35 33/33
f 39/39 38/38 37/37
f 40/40 39/39 37/37
f 43/43 42/42 41/41
f 44/44 43/43 41/41
f 47/47 46/46 45/45
f 48/48 47/47 45/45
f 51/51 50/50 49/49
f 52/52 51/51 49/49
f 55/55 54/54 53/53
f 56/56 55/55 53/53
f 59/59 58/58 57/57
f 60/60 59/59 57/57
f 63/63 62/62 61/61
f 64/64 63/63 61/61
f 67/67 66/66 65/65
f 68/68 67/67 65/65
f 71/71 70/70 69/69
f 72/72 71/71 69/69
f 75/75 74/74 73/73
f 76/76 75/75 73/73
f 79/79 78/78 77/77
f 80/80 79/79 77/77
f 83/83 82/82 81/81
f 84/84 83/83 81/81
f 87/87 86/86 85/85
f 88/88 87/87 85/85
f 91/91 90/90 89/89
f 92/92 91/91 89/89
f 95/95 94/94 93/93
f 96/96 95/95 93/93
f 99/99 98/98 97/97
f 100/100 99/99 97/97
f 103/103 102/102 101/101
f 104/104 103/103 101/101
f 107/107 106/106 105/105
f 108/108 107/107 105/105
f 111/111 110/110 109/109
f 112/112 111/111 109/109
f 115/115 114/114 113/113
f 116/116 115/115 113/113
f 119/119 118/118 117/117
f 120/120 119/119 117/117
f 123/123 122/122 121/121
f 124/124 123/123 121/121
f 127/127 126/126 125/125
f 128/128 127/127 125/125
f 131/131 130/130 129/129
f 132/132 131/131 129/129
f 135/135 134/134 133/133
f 136/136 135/135 133/133
f 139/139 138/138 137/137
f 140/140 139/139 137/137
f 143/143 142/142 141/141
f 144/144 143/143 141/141
f 147/147 146/146 145/145
f 148/148 147/147 145/145
f 151/151 150/150 149/149
f 152/152 151/151 149/149
f 155/155 154/154 153/153
f 156/156 155/155 153/153
f 159/159 158/158 157/157
f 160/160 159/159 157/157
f 163/163 162/162 161/161
f 164/164 163/163 161/161
f 167/167 166/166 165/165
f 168/168 167/167 165/165
f 171/171 170/170 169/169
f 172/172 171/171 169/169
f 175/175 174/174 173/173
f 176/176 175/175 173/173
f 179/179 178/178 177/177
f 180/180 179/179 177/177
f 183/183 182/182 181/181
f 184/184 183/183 181/181
f 187/187 186/186 185/185
f 188/188 187/187 185/185
f 191/191 190/190 189/189
f 192/192 191/191 189/189
f 195/195 194/194 193/193
f 196/196 195/195 193/193
f 199/199 198/198 197/197
f 200/200 199/199 197/197
f 203/203 202/202 201/201
f 204/204 203/203 201/201
f 207/207 206/206 205/205
f 208/208 207/207 205/205
f 211/211 210/210 209/209
f 212/212 211/211 209/209
f 215/215 214/214 213/213
f 216/216 215/215 213/213
f 219/219 218/218 217/217
f 220/220 219/219 217/217
f 223/223 222/222 221/221
f 224/224 223/223 221/221
f 227/227 226/226 225/225
f 228/228 227/227 225/225
f 231/231 230/230 229/229
f 232/232 231/231 229/229
f 235/235 234/234 233/233
f 236/236 235/235 233/233
f 239/239 238/238 237/237
f 240/240 239/239 237/237
f 243/243 242/242 241/241
f 244/244 243/243 241/241
f 247/247 246/246 245/245
f 248/248 247/247 245/245
f 251/251 250/250 249/249
f 252/252 251/251 249/249
f 255/255 254/254 253/253
f 256/256 255/255 253/253
f 259/259 258/258 257/257
f 260/260 259/259 257/257
f 263/263 262/262 261/261
f 264/264 263/263 261/261
f 267/267 266/266 265/265
f 268/268 267/267 265/265
f 271/271 270/270 269/269
f 272/272 271/271 269/269
f 275/275 274/274 273/273
f 276/276 275/275 273/273
f 279/279 278/278 277/277
f 280/280 279/279 277/277
f 283/283 282/282 281/281
f 284/284 283/283 281/281
f 287/287 286/286 285/285
f 288/288 287/287 285/285
f 291/291 290/290 289/289
f 292/292 291/291 289/289
f 295/295 294/294 293/293
f 296/296 295/295 293/293
f 299/299 298/298 297/297
f 300/300 299/299 297/297
f 303/303 302/302 301/301
f 304/304 303/303 301/301
f 307/307 306/306 305/305
f 308/308 307/307 305/305
f 311/311 310/310 309/309
f 312/312 311/311 309/309
f 315/315 314/314 313/313
f 316/316 315/315 313/313
f 319/319 318/318 317/317
f 320/320 319/319 317/317
f 323/323 322/322 321/321
f 324/324 323/323 321/321
f 327/327 326/326 325/325
f 328/328 327/327 325/325
f 331/331 330/330 329/329
f 332/332 331/331 329/329
f 335/335 334/334 333/333
f 336/336 335/335 333/333
f 339/339 338/338 337/337
f 340/340 339/339 337/337
f 343/343 342/342 341/341
f 344/344 343/343 341/341
f 347/347 346/346 345/345
f 348/348 347/347 345/345
f 351/351 350/350 349/349
f 352/352 351/351 349/349
f 355/355 354/354 353/353
f 356/356 355/355 353/353
f 359/359 358/358 357/357
f 360/360 359/359 357/357
f 363/363 362/362 361/361
f 364/364 363/363 361/361
f 367/367 366/366 365/365
f 368/368 367/367 365/365
f 371/371 370/370 369/369
f 372/372 371/371 369/369
f 375/375 374/374 373/373
f 376/376 375/375 373/373
f 379/379 378/378 377/377
f 380/380 379/379 377/377
f 383/383 382/382 381/381
f 384/384 383/383 381/381
