# OSM contributors ODbL; elevations USGS 3DEP
# Centimeters, Z up, OBJ Y = negative source ENU Y. Apply source-to-world placement.
o BeltlineConnectorRealistic_Asphalt_5_14
v 12455.811991 10833.584439 -324.630197
v 12455.811991 10831.363156 -324.604167
v 12454.722288 10832.452859 -324.650990
v 12453.672912 10831.363156 -324.662657
v 12522.478658 10878.314058 -321.614926
v 12522.478658 10831.363156 -320.697917
v 12489.793842 10864.047972 -322.996068
v 12481.779590 10860.549957 -323.424660
v 12589.145325 10886.468815 -320.121379
v 12589.145325 10831.363156 -318.614583
v 12536.203765 10884.304716 -321.303022
v 12538.995815 10885.523374 -321.270906
v 12655.811991 10865.359750 -319.544178
v 12655.811991 10831.363156 -318.614583
v 12600.492412 10886.682736 -320.127228
v 12601.413627 10886.700103 -320.127703
v 12693.318728 10831.363156 -319.493647
v 12659.530480 10863.900995 -319.591442
v 12455.811991 10764.696489 -323.822917
v 12425.367770 10795.140711 -325.012144
v 12438.475605 10815.581826 -324.893271
v 12405.845458 10764.696489 -325.189189
v 12522.478658 10764.696489 -320.437500
v 12589.145325 10764.696489 -318.354167
v 12655.811991 10764.696489 -318.093750
v 12722.478658 10764.696489 -318.614583
v 12704.498611 10820.597010 -319.503344
v 12722.478658 10779.403192 -318.959272
v 12728.897757 10764.696489 -318.664733
v 12389.145325 10738.653336 -325.442371
v 12389.145325 10698.029823 -325.125000
v 12373.273403 10713.901744 -325.558998
v 12363.095557 10698.029823 -325.735541
v 12455.811991 10698.029823 -323.822917
v 12399.320587 10754.521227 -325.367604
v 12405.238359 10763.749743 -325.205789
v 12522.478658 10698.029823 -321.218750
v 12589.145325 10698.029823 -318.875000
v 12655.811991 10698.029823 -317.833333
v 12722.478658 10698.029823 -317.052083
v 12729.581123 10757.594024 -318.364887
v 12729.472028 10763.380785 -318.612685
v 12730.648757 10700.962973 -317.025086
v 12729.498088 10698.029823 -316.969824
v 12322.478658 10634.689483 -326.192654
v 12322.478658 10631.363156 -326.166667
v 12321.179036 10632.662778 -326.217433
v 12320.345656 10631.363156 -326.224991
v 12389.145325 10631.363156 -324.864583
v 12347.226220 10673.282261 -326.010809
v 12338.763867 10660.085578 -326.072990
v 12455.811991 10631.363156 -323.562500
v 12522.478658 10631.363156 -322.000000
v 12589.145325 10631.363156 -319.916667
v 12655.811991 10631.363156 -317.572917
v 12722.478658 10680.136701 -316.492923
v 12708.736088 10645.105726 -315.559251
v 12707.849649 10642.846120 -315.585051
v 12700.486216 10631.363156 -315.827830
v 12727.520274 10692.988207 -316.776370
v 12322.478658 10564.696489 -325.906250
v 12295.131853 10592.043294 -326.760838
v 12305.526620 10608.253495 -326.539927
v 12277.595755 10564.696489 -326.958193
v 12389.145325 10564.696489 -324.604167
v 12455.811991 10564.696489 -323.822917
v 12522.478658 10564.696489 -323.041667
v 12589.145325 10564.696489 -321.479167
v 12655.811991 10564.696489 -318.614583
v 12683.031650 10604.143497 -316.509649
v 12674.612403 10591.014037 -317.175224
v 12657.736315 10564.696489 -318.509347
v 12255.811991 10530.730731 -327.203393
v 12255.811991 10498.029823 -326.947917
v 12243.033947 10510.807867 -327.496973
v 12234.826354 10498.029823 -327.357792
v 12239.110628 10504.690831 -327.430233
v 12322.478658 10498.029823 -325.906250
v 12269.084282 10551.424199 -327.157681
v 12272.293270 10556.427488 -327.082470
v 12389.145325 10498.029823 -324.604167
v 12455.811991 10498.029823 -323.822917
v 12522.478658 10498.029823 -323.562500
v 12589.145325 10498.029823 -321.739583
v 12655.811991 10561.695588 -318.626306
v 12641.375157 10539.181955 -319.334582
v 12630.937283 10522.904531 -319.846668
v 12614.986414 10498.029823 -320.629224
v 12656.984467 10563.524014 -318.555044
v 12255.811991 10431.363156 -326.166667
v 12216.945585 10470.229562 -327.381242
v 12191.947214 10431.363156 -326.665610
v 12322.478658 10431.363156 -325.385417
v 12389.145325 10431.363156 -324.343750
v 12455.811991 10431.363156 -323.302083
v 12522.478658 10431.363156 -322.781250
v 12589.145325 10457.731735 -321.424755
v 12578.842916 10441.665564 -321.580944
v 12574.900665 10435.517789 -321.601296
v 12572.236512 10431.363156 -321.615050
v 12604.890100 10482.285047 -320.940044
v 12189.145325 10427.006897 -326.568384
v 12189.145325 10364.696489 -324.864583
v 12164.755375 10389.086439 -325.436223
v 12149.068074 10364.696489 -324.081825
v 12255.811991 10364.696489 -325.645833
v 12190.850480 10429.658001 -326.660857
v 12322.478658 10364.696489 -325.385417
v 12389.145325 10364.696489 -324.083333
v 12455.811991 10364.696489 -322.781250
v 12522.478658 10364.696489 -322.260417
v 12552.795733 10401.046081 -321.952267
v 12541.655626 10383.673556 -322.034125
v 12529.484195 10364.696489 -322.123590
v 12122.478658 10323.356394 -324.046954
v 12122.478658 10298.029823 -324.343750
v 12112.565165 10307.943316 -324.576097
v 12106.188934 10298.029823 -325.170963
v 12189.145325 10298.029823 -324.343750
v 12138.660270 10348.514877 -323.752128
v 12139.241058 10349.417861 -323.770526
v 12255.811991 10298.029823 -325.645833
v 12322.478658 10298.029823 -325.125000
v 12389.145325 10298.029823 -323.822917
v 12455.811991 10298.029823 -322.000000
v 12522.478658 10353.773819 -322.132417
v 12508.413706 10331.844475 -321.985315
v 12508.302832 10331.671848 -321.984158
v 12500.683244 10319.825237 -321.904858
v 12486.664715 10298.029823 -321.758963
v 12526.746746 10360.428401 -322.177056
v 12122.478658 10231.363156 -325.385417
v 12086.470060 10267.371754 -326.651344
v 12105.932703 10297.631445 -325.190199
v 12063.309795 10231.363156 -330.701369
v 12189.145325 10231.363156 -323.302083
v 12255.811991 10231.363156 -325.125000
v 12322.478658 10231.363156 -324.604167
v 12389.145325 10231.363156 -323.041667
v 12455.811991 10250.061318 -321.250492
v 12448.493034 10238.682113 -321.272820
v 12443.785575 10231.363156 -321.334159
v 12474.588139 10279.253675 -321.559934
v 12055.811991 10164.696489 -332.677083
v 12033.829390 10186.679090 -334.222735
v 12041.386790 10197.278199 -333.336736
v 12055.811991 10219.705890 -331.602681
v 12018.155307 10164.696489 -336.795783
v 12122.478658 10164.696489 -325.385417
v 12060.374955 10226.800192 -330.965046
v 12189.145325 10164.696489 -321.739583
v 12255.811991 10164.696489 -323.562500
v 12322.478658 10164.696489 -323.822917
v 12389.145325 10164.696489 -322.000000
v 12441.686123 10228.099017 -321.348765
v 12422.397929 10198.110552 -321.482951
v 12408.377768 10176.312601 -321.580488
v 12400.906435 10164.696489 -321.632465
v 11989.145325 10124.010545 -338.061596
v 11989.145325 10098.029823 -336.843750
v 11978.331202 10108.843945 -338.111030
v 11970.620493 10098.029823 -338.291002
v 12055.811991 10098.029823 -331.895833
v 12006.080296 10147.761518 -337.918031
v 12005.298426 10146.664960 -337.924659
v 12122.478658 10098.029823 -326.687500
v 12189.145325 10098.029823 -321.479167
v 12255.811991 10098.029823 -322.260417
v 12322.478658 10098.029823 -322.781250
v 12389.145325 10146.410814 -321.714286
v 12375.069414 10124.526185 -321.757227
v 12370.207719 10116.967428 -321.772059
v 12358.027295 10098.029823 -321.809217
v 12396.302824 10157.538990 -321.664492
v 11989.145325 10031.363156 -335.281250
v 11950.582108 10069.926372 -339.197827
v 11966.987665 10092.934851 -338.455404
v 11923.085679 10031.363156 -339.926069
v 11928.676904 10039.204742 -339.777985
v 12055.811991 10031.363156 -332.156250
v 12122.478658 10031.363156 -328.510417
v 12189.145325 10031.363156 -322.520833
v 12255.811991 10031.363156 -321.218750
v 12322.478658 10042.760310 -321.917664
v 12318.017509 10035.824305 -321.774436
v 12315.148155 10031.363156 -321.682314
v 12344.112614 10076.395867 -321.767158
v 11922.478658 10030.511821 -339.938820
v 11922.478658 9964.696489 -337.625000
v 11895.083921 9992.091227 -341.691406
v 11875.550864 9964.696489 -342.207792
v 11890.366142 9985.474633 -341.816128
v 11989.145325 9964.696489 -335.541667
v 11922.833014 10031.008799 -339.945219
v 12055.811991 9964.696489 -333.979167
v 12122.478658 9964.696489 -329.291667
v 12189.145325 9964.696489 -322.260417
v 12255.811991 9964.696489 -319.395833
v 12308.452705 10020.953354 -321.386026
v 12305.754335 10018.158974 -321.299452
v 12304.159512 10014.616899 -321.203975
v 12291.005915 9996.169232 -320.668845
v 12268.565151 9964.696489 -319.545284
v 11855.811991 9937.013098 -342.945896
v 11855.811991 9898.029823 -341.270833
v 11839.585733 9914.256081 -344.883711
v 11828.016050 9898.029823 -346.156839
v 11922.478658 9898.029823 -336.062500
v 11867.334827 9953.173654 -342.740073
v 11989.145325 9898.029823 -335.541667
v 12055.811991 9898.029823 -335.020833
v 12122.478658 9898.029823 -329.812500
v 12189.145325 9898.029823 -321.739583
v 12255.811991 9946.810427 -319.046496
v 12235.507728 9918.334086 -319.362766
v 12227.537990 9907.156681 -319.711288
v 12221.030337 9898.029823 -319.995872
v 12265.848751 9960.886790 -319.409280
v 12263.256822 9957.251659 -319.279508
v 11789.145325 9843.514375 -348.730564
v 11789.145325 9831.363156 -347.781250
v 11784.087545 9836.420936 -349.144480
v 11780.481236 9831.363156 -349.473455
v 11855.811991 9831.363156 -339.708333
v 11811.836639 9875.338509 -348.469048
v 11813.744620 9878.014416 -348.196377
v 11922.478658 9831.363156 -337.364583
v 11989.145325 9831.363156 -337.625000
v 12055.811991 9831.363156 -337.364583
v 12122.478658 9831.363156 -330.854167
v 12189.145325 9853.311704 -321.215543
v 12180.009540 9840.498941 -322.171680
v 12173.495522 9831.363156 -323.281351
v 12207.758634 9879.416514 -320.430835
v 11789.145325 9764.696489 -339.968750
v 11756.338451 9797.503363 -350.220898
v 11775.433859 9824.284307 -349.629718
v 11732.946421 9764.696489 -348.091248
v 11737.123098 9770.554198 -348.471500
v 11855.811991 9764.696489 -338.927083
v 11922.478658 9764.696489 -338.927083
v 11989.145325 9764.696489 -339.447917
v 12055.811991 9764.696489 -337.364583
v 12122.478658 9764.696489 -326.947917
v 12152.260446 9801.581368 -324.804741
v 12150.916467 9799.696464 -324.888544
v 12125.960708 9764.696489 -326.444652
v 11722.478658 9750.015652 -347.424980
v 11722.478658 9698.029823 -339.708333
v 11700.840263 9719.668217 -347.062007
v 11685.411607 9698.029823 -347.382371
v 11698.812336 9716.824089 -347.104115
v 11789.145325 9698.029823 -335.281250
v 11728.589357 9758.585790 -348.291321
v 11855.811991 9698.029823 -338.666667
v 11922.478658 9698.029823 -340.489583
v 11989.145325 9698.029823 -340.229167
v 12055.811991 9698.029823 -334.239583
v 12122.478658 9759.812981 -326.623621
v 12112.605706 9745.966355 -327.246767
v 12096.762258 9723.746223 -328.246751
v 12078.425894 9698.029823 -330.264483
v 12124.511352 9762.663795 -326.582667
v 11655.811991 9656.516929 -350.105062
v 11655.811991 9631.363156 -348.041667
v 11645.342075 9641.833072 -351.272617
v 11637.876793 9631.363156 -352.315288
v 11722.478658 9631.363156 -337.364583
v 11673.091169 9680.750645 -349.325616
v 11660.501575 9663.093980 -349.893520
v 11789.145325 9631.363156 -336.583333
v 11855.811991 9631.363156 -340.229167
v 11922.478658 9631.363156 -342.312500
v 11989.145325 9631.363156 -340.229167
v 12055.811991 9666.314258 -332.752916
v 12041.264070 9645.911077 -333.103557
v 12035.984184 9638.506137 -333.825416
v 12030.891079 9631.363156 -334.521739
v 12074.294945 9692.236246 -330.945364
v 12069.013164 9684.828650 -331.815931
v 11655.811991 9564.696489 -340.750000
v 11617.592981 9602.915499 -354.037078
v 11622.190814 9609.363872 -353.646791
v 11590.341978 9564.696489 -350.468205
v 11722.478658 9564.696489 -338.666667
v 11789.145325 9564.696489 -339.968750
v 11855.811991 9564.696489 -342.312500
v 11922.478658 9564.696489 -343.614583
v 11989.145325 9572.815535 -339.314360
v 11985.765882 9568.075932 -339.345911
v 11983.356265 9564.696489 -339.571930
v 12013.514976 9606.993504 -336.992572
v 11589.145325 9563.018206 -350.390157
v 11589.145325 9498.029823 -340.489583
v 11562.094794 9525.080354 -351.795860
v 11542.807164 9498.029823 -349.902022
v 11545.569292 9501.903654 -350.173233
v 11655.811991 9498.029823 -338.666667
v 11589.843887 9563.997927 -350.520310
v 11722.478658 9498.029823 -341.531250
v 11789.145325 9498.029823 -343.354167
v 11855.811991 9498.029823 -345.437500
v 11922.478658 9498.029823 -344.135417
v 11958.016788 9529.158359 -339.727600
v 11935.821451 9498.029823 -342.571808
v 11522.478658 9431.363156 -342.312500
v 11506.596606 9447.245208 -349.819251
v 11507.258531 9448.173545 -349.785927
v 11522.478658 9469.519482 -349.019667
v 11495.272350 9431.363156 -348.582704
v 11589.145325 9431.363156 -337.885417
v 11534.345700 9486.162781 -351.157201
v 11655.811991 9431.363156 -340.750000
v 11722.478658 9431.363156 -344.395833
v 11789.145325 9431.363156 -346.739583
v 11855.811991 9431.363156 -347.781250
v 11922.478658 9479.316812 -343.477537
v 11921.051900 9477.315811 -343.435056
v 11902.518601 9451.323213 -342.883232
v 11888.286636 9431.363156 -344.863606
v 11930.267695 9490.240786 -342.522843
v 11455.811991 9376.965080 -351.302309
v 11455.811991 9364.696489 -349.864583
v 11450.560082 9369.948399 -352.059717
v 11446.629084 9364.696489 -351.980956
v 11522.478658 9364.696489 -339.708333
v 11478.847512 9408.327636 -351.468291
v 11470.021667 9395.949558 -351.362297
v 11589.145325 9364.696489 -339.187500
v 11655.811991 9364.696489 -343.354167
v 11722.478658 9364.696489 -347.000000
v 11789.145325 9364.696489 -349.083333
v 11855.811991 9385.818088 -346.713787
v 11847.020413 9373.488068 -346.287434
v 11844.430378 9369.855593 -346.526429
v 11840.751822 9364.696489 -346.865867
v 11882.741139 9423.585702 -344.663079
v 11874.769507 9412.405641 -344.374821
v 11455.811991 9298.029823 -347.520833
v 11421.884024 9331.957790 -356.532950
v 11432.140090 9345.338836 -354.639674
v 11395.879517 9298.029823 -354.310059
v 11522.478658 9298.029823 -342.312500
v 11589.145325 9298.029823 -343.354167
v 11655.811991 9298.029823 -346.218750
v 11722.478658 9298.029823 -349.343750
v 11789.145325 9298.029823 -348.562500
v 11819.271319 9334.570495 -345.317584
v 11806.119616 9316.125484 -346.714698
v 11793.217008 9298.029823 -348.085350
v 11389.145325 9289.243751 -353.837375
v 11389.145325 9231.363156 -345.697917
v 11364.031122 9256.477359 -352.270774
v 11344.782034 9231.363156 -349.163799
v 11455.811991 9231.363156 -343.093750
v 11392.957573 9294.217574 -354.387903
v 11392.552425 9293.688980 -354.329396
v 11522.478658 9231.363156 -343.614583
v 11589.145325 9231.363156 -345.697917
v 11655.811991 9231.363156 -349.083333
v 11722.478658 9231.363156 -349.604167
v 11789.145325 9292.319365 -348.183290
v 11767.808855 9262.395375 -346.446187
v 11763.773131 9256.735350 -346.117619
v 11745.682193 9231.363156 -347.700752
v 11791.522225 9295.652922 -347.958990
v 11322.478658 9202.264038 -348.178208
v 11322.478658 9164.696489 -344.656250
v 11306.178220 9180.996927 -347.839929
v 11293.684550 9164.696489 -346.568359
v 11389.145325 9164.696489 -343.614583
v 11335.104671 9218.737143 -349.525280
v 11455.811991 9164.696489 -344.135417
v 11522.478658 9164.696489 -345.177083
v 11589.145325 9164.696489 -347.781250
v 11655.811991 9164.696489 -349.864583
v 11722.478658 9199.215760 -347.846106
v 11707.701729 9179.473418 -346.651002
v 11696.641358 9164.696489 -347.472238
v 11736.024037 9217.817777 -346.799850
v 11729.498094 9208.665267 -347.293509
v 11727.315765 9205.678254 -347.462621
v 11255.811991 9115.284325 -348.697301
v 11255.811991 9098.029823 -348.562500
v 11248.325318 9105.516496 -349.761537
v 11242.587066 9098.029823 -350.422255
v 11322.478658 9098.029823 -345.437500
v 11277.251769 9143.256711 -347.910845
v 11272.122030 9136.563962 -348.099015
v 11389.145325 9098.029823 -345.437500
v 11455.811991 9098.029823 -345.697917
v 11522.478658 9098.029823 -347.000000
v 11589.145325 9098.029823 -349.083333
v 11655.811991 9111.131767 -347.562974
v 11650.127100 9103.714714 -347.066620
v 11646.531526 9099.023585 -347.270605
v 11645.769845 9098.029823 -347.313817
v 11679.053551 9141.454930 -346.233090
v 11687.778274 9152.855190 -346.835182
v 11686.674991 9151.398590 -346.757581
v 11255.811991 9031.363156 -349.604167
v 11219.398868 9067.776280 -354.155807
v 11231.978565 9084.188956 -352.130339
v 11191.489583 9031.363156 -356.639430
v 11191.835100 9031.813951 -356.608683
v 11322.478658 9031.363156 -347.260417
v 11389.145325 9031.363156 -346.739583
v 11455.811991 9031.363156 -346.479167
v 11522.478658 9031.363156 -348.302083
v 11589.145325 9031.363156 -348.041667
v 11621.200649 9065.974498 -345.702498
v 11606.388061 9046.648579 -346.731349
v 11594.672362 9031.363156 -347.545097
v 11189.145325 9028.304613 -356.788306
v 11189.145325 8964.696489 -354.552083
v 11161.545966 8992.295848 -358.541053
v 11140.392099 8964.696489 -358.360929
v 11255.811991 8964.696489 -350.125000
v 11190.472417 9030.036064 -356.761051
v 11322.478658 8964.696489 -347.781250
v 11389.145325 8964.696489 -346.218750
v 11455.811991 8964.696489 -345.958333
v 11522.478658 8964.696489 -348.562500
v 11589.145325 9024.152055 -347.703646
v 11566.244596 8994.273573 -346.392548
v 11563.347747 8990.494067 -346.226700
v 11543.574878 8964.696489 -347.408800
v 11592.274198 9028.234282 -347.406114
v 11122.478658 8898.029823 -357.937500
v 11103.693064 8916.815417 -359.918793
v 11111.548169 8927.063939 -359.585346
v 11122.478658 8941.324900 -359.121350
v 11089.294615 8898.029823 -360.530003
v 11189.145325 8898.029823 -352.208333
v 11132.619515 8954.555632 -358.611648
v 11255.811991 8898.029823 -348.041667
v 11322.478658 8898.029823 -347.000000
v 11389.145325 8898.029823 -345.697917
v 11455.811991 8898.029823 -344.395833
v 11522.478658 8937.172342 -346.197144
v 11505.494846 8915.013635 -343.629450
v 11492.477394 8898.029823 -343.536488
v 11534.421296 8952.753851 -346.136652
v 11055.811991 8854.345188 -362.463261
v 11055.811991 8831.363156 -362.104167
v 11045.840162 8841.334985 -363.000073
v 11038.197131 8831.363156 -363.205095
v 11122.478658 8831.363156 -356.635417
v 11074.766613 8879.075201 -361.294796
v 11071.404704 8874.688933 -361.502042
v 11189.145325 8831.363156 -350.645833
v 11255.811991 8831.363156 -347.520833
v 11322.478658 8831.363156 -346.218750
v 11389.145325 8831.363156 -343.875000
v 11455.811991 8850.192629 -341.219145
v 11447.641944 8839.533204 -340.670863
v 11445.814201 8837.148556 -340.712753
v 11441.379911 8831.363156 -340.814380
v 11485.957666 8889.523561 -342.526329
v 11476.568395 8877.273419 -341.071566
v 10989.145325 8767.365475 -363.270942
v 10989.145325 8764.696489 -363.145833
v 10987.987260 8765.854554 -363.240831
v 10987.099648 8764.696489 -363.201770
v 11055.811991 8764.696489 -359.760417
v 11016.913711 8803.594769 -363.559077
v 11031.261239 8822.313927 -363.320452
v 10991.117774 8769.938922 -363.291409
v 11122.478658 8764.696489 -355.072917
v 11189.145325 8764.696489 -350.645833
v 11255.811991 8764.696489 -347.000000
v 11322.478658 8764.696489 -343.614583
v 11389.145325 8764.696489 -340.489583
v 11418.715493 8801.792988 -338.792627
v 11405.670736 8784.773550 -339.507998
v 11390.282427 8764.696489 -340.351887
v 10989.145325 8698.029823 -360.020833
v 10959.060809 8728.114338 -362.253668
v 10936.002164 8698.029823 -362.096738
v 10950.974309 8717.563916 -362.198634
v 11055.811991 8698.029823 -356.375000
v 11122.478658 8698.029823 -352.729167
v 11189.145325 8698.029823 -348.562500
v 11255.811991 8698.029823 -344.135417
v 11322.478658 8698.029823 -340.489583
v 11389.145325 8763.212917 -340.350498
v 11365.527271 8732.398544 -338.568747
v 11360.862591 8726.312556 -338.216843
v 11339.184943 8698.029823 -338.923369
v 11389.789042 8764.052772 -340.293451
v 10922.478658 8680.385763 -362.211467
v 10922.478658 8631.363156 -361.062500
v 10903.512807 8650.329007 -361.803354
v 10910.830844 8665.188910 -362.037288
v 10894.172719 8631.363156 -361.504780
v 10989.145325 8631.363156 -358.197917
v 10930.134359 8690.374122 -362.116614
v 11055.811991 8631.363156 -354.291667
v 11122.478658 8631.363156 -350.125000
v 11189.145325 8631.363156 -345.958333
v 11255.811991 8631.363156 -341.791667
v 11322.478658 8676.233204 -339.212438
v 11303.009689 8650.832125 -338.788802
v 11288.087460 8631.363156 -339.270146
v 11331.936140 8688.572341 -338.125213
v 11325.383806 8680.023538 -338.878464
v 10922.478658 8564.696489 -359.760417
v 10882.928861 8604.246286 -361.150839
v 10883.249737 8609.183103 -361.242248
v 10880.358257 8564.696489 -360.747614
v 10989.145325 8564.696489 -356.375000
v 11055.811991 8564.696489 -351.427083
v 11122.478658 8564.696489 -347.000000
v 11189.145325 8564.696489 -343.093750
v 11255.811991 8589.253492 -339.982267
v 11245.156787 8575.351693 -340.050874
v 11245.096876 8575.273527 -340.051260
v 11236.989976 8564.696489 -340.103459
v 11274.083238 8613.091909 -338.223064
v 10922.478658 8498.029823 -358.979167
v 10882.074804 8538.433677 -360.399615
v 10879.200612 8546.885651 -360.566025
v 10895.814604 8498.029823 -359.604105
v 10989.145325 8498.029823 -353.770833
v 11055.811991 8498.029823 -348.562500
v 11122.478658 8498.029823 -344.395833
v 11189.145325 8502.273779 -340.899202
v 11187.303886 8499.871262 -340.922635
v 11185.892492 8498.029823 -340.927889
v 11216.230337 8537.611477 -339.179119
v 10922.478658 8461.379494 -357.404348
v 10899.299911 8487.780777 -359.082030
v 10989.145325 8431.363156 -351.427083
v 10959.785383 8431.363156 -353.491454
v 10940.487697 8440.866662 -355.256677
v 11055.811991 8431.363156 -345.958333
v 11122.478658 8433.359177 -341.617017
v 11121.415780 8432.426034 -341.643350
v 11120.205131 8431.363156 -341.682226
v 11156.915669 8463.592812 -339.956687
v 11164.809946 8470.523515 -340.039357
v 10989.145325 8416.904304 -350.692845
v 11055.811991 8409.430053 -345.101571
v 11007.968780 8412.539701 -349.147681
v 10996.493505 8413.285555 -349.992411
v 11073.079674 8414.095474 -343.799873
v 11117.895831 8429.335728 -341.716784
v 11058.790957 8409.236430 -344.838003
vt 62.279060 -54.167922
vt 62.279060 -54.156816
vt 62.273611 -54.162264
vt 62.268365 -54.156816
vt 62.612393 -54.391570
vt 62.612393 -54.156816
vt 62.448969 -54.320240
vt 62.408898 -54.302750
vt 62.945727 -54.432344
vt 62.945727 -54.156816
vt 62.681019 -54.421524
vt 62.694979 -54.427617
vt 63.279060 -54.326799
vt 63.279060 -54.156816
vt 63.002462 -54.433414
vt 63.007068 -54.433501
vt 63.466594 -54.156816
vt 63.297652 -54.319505
vt 62.279060 -53.823482
vt 62.126839 -53.975704
vt 62.192378 -54.077909
vt 62.029227 -53.823482
vt 62.612393 -53.823482
vt 62.945727 -53.823482
vt 63.279060 -53.823482
vt 63.612393 -53.823482
vt 63.522493 -54.102985
vt 63.612393 -53.897016
vt 63.644489 -53.823482
vt 61.945727 -53.693267
vt 61.945727 -53.490149
vt 61.866367 -53.569509
vt 61.815478 -53.490149
vt 62.279060 -53.490149
vt 61.996603 -53.772606
vt 62.026192 -53.818749
vt 62.612393 -53.490149
vt 62.945727 -53.490149
vt 63.279060 -53.490149
vt 63.612393 -53.490149
vt 63.647906 -53.787970
vt 63.647360 -53.816904
vt 63.653244 -53.504815
vt 63.647490 -53.490149
vt 61.612393 -53.173447
vt 61.612393 -53.156816
vt 61.605895 -53.163314
vt 61.601728 -53.156816
vt 61.945727 -53.156816
vt 61.736131 -53.366411
vt 61.693819 -53.300428
vt 62.279060 -53.156816
vt 62.612393 -53.156816
vt 62.945727 -53.156816
vt 63.279060 -53.156816
vt 63.612393 -53.400684
vt 63.543680 -53.225529
vt 63.539248 -53.214231
vt 63.502431 -53.156816
vt 63.637601 -53.464941
vt 61.612393 -52.823482
vt 61.475659 -52.960216
vt 61.527633 -53.041267
vt 61.387979 -52.823482
vt 61.945727 -52.823482
vt 62.279060 -52.823482
vt 62.612393 -52.823482
vt 62.945727 -52.823482
vt 63.279060 -52.823482
vt 63.415158 -53.020717
vt 63.373062 -52.955070
vt 63.288682 -52.823482
vt 61.279060 -52.653654
vt 61.279060 -52.490149
vt 61.215170 -52.554039
vt 61.174132 -52.490149
vt 61.195553 -52.523454
vt 61.612393 -52.490149
vt 61.345421 -52.757121
vt 61.361466 -52.782137
vt 61.945727 -52.490149
vt 62.279060 -52.490149
vt 62.612393 -52.490149
vt 62.945727 -52.490149
vt 63.279060 -52.808478
vt 63.206876 -52.695910
vt 63.154686 -52.614523
vt 63.074932 -52.490149
vt 63.284922 -52.817620
vt 61.279060 -52.156816
vt 61.084728 -52.351148
vt 60.959736 -52.156816
vt 61.612393 -52.156816
vt 61.945727 -52.156816
vt 62.279060 -52.156816
vt 62.612393 -52.156816
vt 62.945727 -52.288659
vt 62.894215 -52.208328
vt 62.874503 -52.177589
vt 62.861183 -52.156816
vt 63.024450 -52.411425
vt 60.945727 -52.135034
vt 60.945727 -51.823482
vt 60.823777 -51.945432
vt 60.745340 -51.823482
vt 61.279060 -51.823482
vt 60.954252 -52.148290
vt 61.612393 -51.823482
vt 61.945727 -51.823482
vt 62.279060 -51.823482
vt 62.612393 -51.823482
vt 62.763979 -52.005230
vt 62.708278 -51.918368
vt 62.647421 -51.823482
vt 60.612393 -51.616782
vt 60.612393 -51.490149
vt 60.562826 -51.539717
vt 60.530945 -51.490149
vt 60.945727 -51.490149
vt 60.693301 -51.742574
vt 60.696205 -51.747089
vt 61.279060 -51.490149
vt 61.612393 -51.490149
vt 61.945727 -51.490149
vt 62.279060 -51.490149
vt 62.612393 -51.768869
vt 62.542069 -51.659222
vt 62.541514 -51.658359
vt 62.503416 -51.599126
vt 62.433324 -51.490149
vt 62.633734 -51.802142
vt 60.612393 -51.156816
vt 60.432350 -51.336859
vt 60.529664 -51.488157
vt 60.316549 -51.156816
vt 60.945727 -51.156816
vt 61.279060 -51.156816
vt 61.612393 -51.156816
vt 61.945727 -51.156816
vt 62.279060 -51.250307
vt 62.242465 -51.193411
vt 62.218928 -51.156816
vt 62.372941 -51.396268
vt 60.279060 -50.823482
vt 60.169147 -50.933395
vt 60.206934 -50.986391
vt 60.279060 -51.098529
vt 60.090777 -50.823482
vt 60.612393 -50.823482
vt 60.301875 -51.134001
vt 60.945727 -50.823482
vt 61.279060 -50.823482
vt 61.612393 -50.823482
vt 61.945727 -50.823482
vt 62.208431 -51.140495
vt 62.111990 -50.990553
vt 62.041889 -50.881563
vt 62.004532 -50.823482
vt 59.945727 -50.620053
vt 59.945727 -50.490149
vt 59.891656 -50.544220
vt 59.853102 -50.490149
vt 60.279060 -50.490149
vt 60.030401 -50.738808
vt 60.026492 -50.733325
vt 60.612393 -50.490149
vt 60.945727 -50.490149
vt 61.279060 -50.490149
vt 61.612393 -50.490149
vt 61.945727 -50.732054
vt 61.875347 -50.622631
vt 61.851039 -50.584837
vt 61.790136 -50.490149
vt 61.981514 -50.787695
vt 59.945727 -50.156816
vt 59.752911 -50.349632
vt 59.834938 -50.464674
vt 59.615428 -50.156816
vt 59.643385 -50.196024
vt 60.279060 -50.156816
vt 60.612393 -50.156816
vt 60.945727 -50.156816
vt 61.279060 -50.156816
vt 61.612393 -50.213802
vt 61.590088 -50.179122
vt 61.575741 -50.156816
vt 61.720563 -50.381979
vt 59.612393 -50.152559
vt 59.612393 -49.823482
vt 59.475420 -49.960456
vt 59.377754 -49.823482
vt 59.451831 -49.927373
vt 59.945727 -49.823482
vt 59.614165 -50.155044
vt 60.279060 -49.823482
vt 60.612393 -49.823482
vt 60.945727 -49.823482
vt 61.279060 -49.823482
vt 61.542264 -50.104767
vt 61.528772 -50.090795
vt 61.520798 -50.073084
vt 61.455030 -49.980846
vt 61.342826 -49.823482
vt 59.279060 -49.685065
vt 59.279060 -49.490149
vt 59.197929 -49.571280
vt 59.140080 -49.490149
vt 59.612393 -49.490149
vt 59.336674 -49.765868
vt 59.945727 -49.490149
vt 60.279060 -49.490149
vt 60.612393 -49.490149
vt 60.945727 -49.490149
vt 61.279060 -49.734052
vt 61.177539 -49.591670
vt 61.137690 -49.535783
vt 61.105152 -49.490149
vt 61.329244 -49.804434
vt 61.316284 -49.786258
vt 58.945727 -49.217572
vt 58.945727 -49.156816
vt 58.920438 -49.182105
vt 58.902406 -49.156816
vt 59.279060 -49.156816
vt 59.059183 -49.376693
vt 59.068723 -49.390072
vt 59.612393 -49.156816
vt 59.945727 -49.156816
vt 60.279060 -49.156816
vt 60.612393 -49.156816
vt 60.945727 -49.266559
vt 60.900048 -49.202495
vt 60.867478 -49.156816
vt 61.038793 -49.397083
vt 58.945727 -48.823482
vt 58.781692 -48.987517
vt 58.877169 -49.121422
vt 58.664732 -48.823482
vt 58.685615 -48.852771
vt 59.279060 -48.823482
vt 59.612393 -48.823482
vt 59.945727 -48.823482
vt 60.279060 -48.823482
vt 60.612393 -48.823482
vt 60.761302 -49.007907
vt 60.754582 -48.998482
vt 60.629804 -48.823482
vt 58.612393 -48.750078
vt 58.612393 -48.490149
vt 58.504201 -48.598341
vt 58.427058 -48.490149
vt 58.494062 -48.584120
vt 58.945727 -48.490149
vt 58.642947 -48.792929
vt 59.279060 -48.490149
vt 59.612393 -48.490149
vt 59.945727 -48.490149
vt 60.279060 -48.490149
vt 60.612393 -48.799065
vt 60.563029 -48.729832
vt 60.483811 -48.618731
vt 60.392129 -48.490149
vt 60.622557 -48.813319
vt 58.279060 -48.282585
vt 58.279060 -48.156816
vt 58.226710 -48.209165
vt 58.189384 -48.156816
vt 58.612393 -48.156816
vt 58.365456 -48.403753
vt 58.302508 -48.315470
vt 58.945727 -48.156816
vt 59.279060 -48.156816
vt 59.612393 -48.156816
vt 59.945727 -48.156816
vt 60.279060 -48.331571
vt 60.206320 -48.229555
vt 60.179921 -48.192531
vt 60.154455 -48.156816
vt 60.371475 -48.461181
vt 60.345066 -48.424143
vt 58.279060 -47.823482
vt 58.087965 -48.014577
vt 58.110954 -48.046819
vt 57.951710 -47.823482
vt 58.612393 -47.823482
vt 58.945727 -47.823482
vt 59.279060 -47.823482
vt 59.612393 -47.823482
vt 59.945727 -47.864078
vt 59.928829 -47.840380
vt 59.916781 -47.823482
vt 60.067575 -48.034968
vt 57.945727 -47.815091
vt 57.945727 -47.490149
vt 57.810474 -47.625402
vt 57.714036 -47.490149
vt 57.727846 -47.509518
vt 58.279060 -47.490149
vt 57.949219 -47.819990
vt 58.612393 -47.490149
vt 58.945727 -47.490149
vt 59.279060 -47.490149
vt 59.612393 -47.490149
vt 59.790084 -47.645792
vt 59.679107 -47.490149
vt 57.612393 -47.156816
vt 57.532983 -47.236226
vt 57.536293 -47.240868
vt 57.612393 -47.347597
vt 57.476362 -47.156816
vt 57.945727 -47.156816
vt 57.671728 -47.430814
vt 58.279060 -47.156816
vt 58.612393 -47.156816
vt 58.945727 -47.156816
vt 59.279060 -47.156816
vt 59.612393 -47.396584
vt 59.605259 -47.386579
vt 59.512593 -47.256616
vt 59.441433 -47.156816
vt 59.651338 -47.451204
vt 57.279060 -46.884825
vt 57.279060 -46.823482
vt 57.252800 -46.849742
vt 57.233145 -46.823482
vt 57.612393 -46.823482
vt 57.394238 -47.041638
vt 57.350108 -46.979748
vt 57.945727 -46.823482
vt 58.279060 -46.823482
vt 58.612393 -46.823482
vt 58.945727 -46.823482
vt 59.279060 -46.929090
vt 59.235102 -46.867440
vt 59.222152 -46.849278
vt 59.203759 -46.823482
vt 59.413706 -47.117929
vt 59.373848 -47.062028
vt 57.279060 -46.490149
vt 57.109420 -46.659789
vt 57.160700 -46.726694
vt 56.979398 -46.490149
vt 57.612393 -46.490149
vt 57.945727 -46.490149
vt 58.279060 -46.490149
vt 58.612393 -46.490149
vt 58.945727 -46.490149
vt 59.096357 -46.672852
vt 59.030598 -46.580627
vt 58.966085 -46.490149
vt 56.945727 -46.446219
vt 56.945727 -46.156816
vt 56.820156 -46.282387
vt 56.723910 -46.156816
vt 57.279060 -46.156816
vt 56.964788 -46.471088
vt 56.962762 -46.468445
vt 57.612393 -46.156816
vt 57.945727 -46.156816
vt 58.279060 -46.156816
vt 58.612393 -46.156816
vt 58.945727 -46.461597
vt 58.839044 -46.311977
vt 58.818866 -46.283677
vt 58.728411 -46.156816
vt 58.957611 -46.478265
vt 56.612393 -46.011320
vt 56.612393 -45.823482
vt 56.530891 -45.904985
vt 56.468423 -45.823482
vt 56.945727 -45.823482
vt 56.675523 -46.093686
vt 57.279060 -45.823482
vt 57.612393 -45.823482
vt 57.945727 -45.823482
vt 58.279060 -45.823482
vt 58.612393 -45.996079
vt 58.538509 -45.897367
vt 58.483207 -45.823482
vt 58.680120 -46.089089
vt 58.647490 -46.043326
vt 58.636579 -46.028391
vt 56.279060 -45.576422
vt 56.279060 -45.490149
vt 56.241627 -45.527582
vt 56.212935 -45.490149
vt 56.612393 -45.490149
vt 56.386259 -45.716284
vt 56.360610 -45.682820
vt 56.945727 -45.490149
vt 57.279060 -45.490149
vt 57.612393 -45.490149
vt 57.945727 -45.490149
vt 58.279060 -45.555659
vt 58.250636 -45.518574
vt 58.232658 -45.495118
vt 58.228849 -45.490149
vt 58.395268 -45.707275
vt 58.438891 -45.764276
vt 58.433375 -45.756993
vt 56.279060 -45.156816
vt 56.096994 -45.338881
vt 56.159893 -45.420945
vt 55.957448 -45.156816
vt 55.959175 -45.159070
vt 56.612393 -45.156816
vt 56.945727 -45.156816
vt 57.279060 -45.156816
vt 57.612393 -45.156816
vt 57.945727 -45.156816
vt 58.106003 -45.329872
vt 58.031940 -45.233243
vt 57.973362 -45.156816
vt 55.945727 -45.141523
vt 55.945727 -44.823482
vt 55.807730 -44.961479
vt 55.701960 -44.823482
vt 56.279060 -44.823482
vt 55.952362 -45.150180
vt 56.612393 -44.823482
vt 56.945727 -44.823482
vt 57.279060 -44.823482
vt 57.612393 -44.823482
vt 57.945727 -45.120760
vt 57.831223 -44.971368
vt 57.816739 -44.952470
vt 57.717874 -44.823482
vt 57.961371 -45.141171
vt 55.612393 -44.490149
vt 55.518465 -44.584077
vt 55.557741 -44.635320
vt 55.612393 -44.706625
vt 55.446473 -44.490149
vt 55.945727 -44.490149
vt 55.663098 -44.772778
vt 56.279060 -44.490149
vt 56.612393 -44.490149
vt 56.945727 -44.490149
vt 57.279060 -44.490149
vt 57.612393 -44.685862
vt 57.527474 -44.575068
vt 57.462387 -44.490149
vt 57.672106 -44.763769
vt 55.279060 -44.271726
vt 55.279060 -44.156816
vt 55.229201 -44.206675
vt 55.190986 -44.156816
vt 55.612393 -44.156816
vt 55.373833 -44.395376
vt 55.357024 -44.373445
vt 55.945727 -44.156816
vt 56.279060 -44.156816
vt 56.612393 -44.156816
vt 56.945727 -44.156816
vt 57.279060 -44.250963
vt 57.238210 -44.197666
vt 57.229071 -44.185743
vt 57.206900 -44.156816
vt 57.429788 -44.447618
vt 57.382842 -44.386367
vt 54.945727 -43.836827
vt 54.945727 -43.823482
vt 54.939936 -43.829273
vt 54.935498 -43.823482
vt 55.279060 -43.823482
vt 55.084569 -44.017974
vt 55.156306 -44.111570
vt 54.955589 -43.849695
vt 55.612393 -43.823482
vt 55.945727 -43.823482
vt 56.279060 -43.823482
vt 56.612393 -43.823482
vt 56.945727 -43.823482
vt 57.093577 -44.008965
vt 57.028354 -43.923868
vt 56.951412 -43.823482
vt 54.945727 -43.490149
vt 54.795304 -43.640572
vt 54.680011 -43.490149
vt 54.754872 -43.587820
vt 55.279060 -43.490149
vt 55.612393 -43.490149
vt 55.945727 -43.490149
vt 56.279060 -43.490149
vt 56.612393 -43.490149
vt 56.945727 -43.816065
vt 56.827636 -43.661993
vt 56.804313 -43.631563
vt 56.695925 -43.490149
vt 56.948945 -43.820264
vt 54.612393 -43.401929
vt 54.612393 -43.156816
vt 54.517564 -43.251645
vt 54.554154 -43.325945
vt 54.470864 -43.156816
vt 54.945727 -43.156816
vt 54.650672 -43.451871
vt 55.279060 -43.156816
vt 55.612393 -43.156816
vt 55.945727 -43.156816
vt 56.279060 -43.156816
vt 56.612393 -43.381166
vt 56.515048 -43.254161
vt 56.440437 -43.156816
vt 56.659681 -43.442862
vt 56.626919 -43.400118
vt 54.612393 -42.823482
vt 54.414644 -43.021231
vt 54.416249 -43.045916
vt 54.401791 -42.823482
vt 54.945727 -42.823482
vt 55.279060 -42.823482
vt 55.612393 -42.823482
vt 55.945727 -42.823482
vt 56.279060 -42.946267
vt 56.225784 -42.876758
vt 56.225484 -42.876368
vt 56.184950 -42.823482
vt 56.370416 -43.065460
vt 54.612393 -42.490149
vt 54.410374 -42.692168
vt 54.396003 -42.734428
vt 54.479073 -42.490149
vt 54.945727 -42.490149
vt 55.279060 -42.490149
vt 55.612393 -42.490149
vt 55.945727 -42.511369
vt 55.936519 -42.499356
vt 55.929462 -42.490149
vt 56.081152 -42.688057
vt 54.612393 -42.306897
vt 54.496500 -42.438904
vt 54.945727 -42.156816
vt 54.798927 -42.156816
vt 54.702438 -42.204333
vt 55.279060 -42.156816
vt 55.612393 -42.166796
vt 55.607079 -42.162130
vt 55.601026 -42.156816
vt 55.784578 -42.317964
vt 55.824050 -42.352618
vt 54.945727 -42.084522
vt 55.279060 -42.047150
vt 55.039844 -42.062699
vt 54.982468 -42.066428
vt 55.365398 -42.070477
vt 55.589479 -42.146679
vt 55.293955 -42.046182
f 3/3 2/2 1/1
f 4/4 2/2 3/3
f 7/7 6/6 5/5
f 1/1 2/2 6/6
f 8/8 1/1 6/6
f 7/7 8/8 6/6
f 11/11 10/10 9/9
f 12/12 11/11 9/9
f 5/5 6/6 10/10
f 11/11 5/5 10/10
f 15/15 14/14 13/13
f 16/16 15/15 13/13
f 9/9 10/10 14/14
f 15/15 9/9 14/14
f 13/13 14/14 17/17
f 18/18 13/13 17/17
f 20/20 19/19 2/2
f 21/21 20/20 2/2
f 4/4 21/21 2/2
f 22/22 19/19 20/20
f 2/2 23/23 6/6
f 2/2 19/19 23/23
f 6/6 24/24 10/10
f 6/6 23/23 24/24
f 10/10 25/25 14/14
f 10/10 24/24 25/25
f 17/17 14/14 26/26
f 27/27 17/17 26/26
f 28/28 27/27 26/26
f 14/14 25/25 26/26
f 28/28 26/26 29/29
f 32/32 31/31 30/30
f 33/33 31/31 32/32
f 35/35 34/34 19/19
f 36/36 35/35 19/19
f 22/22 36/36 19/19
f 30/30 31/31 34/34
f 35/35 30/30 34/34
f 19/19 37/37 23/23
f 19/19 34/34 37/37
f 23/23 38/38 24/24
f 23/23 37/37 38/38
f 24/24 39/39 25/25
f 24/24 38/38 39/39
f 25/25 40/40 26/26
f 25/25 39/39 40/40
f 29/29 26/26 41/41
f 42/42 29/29 41/41
f 41/41 26/26 40/40
f 43/43 41/41 40/40
f 44/44 43/43 40/40
f 47/47 46/46 45/45
f 48/48 46/46 47/47
f 50/50 49/49 31/31
f 33/33 50/50 31/31
f 45/45 46/46 49/49
f 51/51 45/45 49/49
f 50/50 51/51 49/49
f 31/31 52/52 34/34
f 31/31 49/49 52/52
f 34/34 53/53 37/37
f 34/34 52/52 53/53
f 37/37 54/54 38/38
f 37/37 53/53 54/54
f 38/38 55/55 39/39
f 38/38 54/54 55/55
f 56/56 40/40 39/39
f 57/57 56/56 39/39
f 57/57 39/39 55/55
f 58/58 57/57 55/55
f 59/59 58/58 55/55
f 44/44 40/40 60/60
f 60/60 40/40 56/56
f 62/62 61/61 46/46
f 63/63 62/62 46/46
f 48/48 63/63 46/46
f 64/64 61/61 62/62
f 46/46 65/65 49/49
f 46/46 61/61 65/65
f 49/49 66/66 52/52
f 49/49 65/65 66/66
f 52/52 67/67 53/53
f 52/52 66/66 67/67
f 53/53 68/68 54/54
f 53/53 67/67 68/68
f 54/54 69/69 55/55
f 54/54 68/68 69/69
f 59/59 55/55 70/70
f 70/70 55/55 69/69
f 71/71 70/70 69/69
f 72/72 71/71 69/69
f 75/75 74/74 73/73
f 77/77 76/76 74/74
f 75/75 77/77 74/74
f 79/79 78/78 61/61
f 80/80 79/79 61/61
f 64/64 80/80 61/61
f 73/73 74/74 78/78
f 79/79 73/73 78/78
f 61/61 81/81 65/65
f 61/61 78/78 81/81
f 65/65 82/82 66/66
f 65/65 81/81 82/82
f 66/66 83/83 67/67
f 66/66 82/82 83/83
f 67/67 84/84 68/68
f 67/67 83/83 84/84
f 85/85 69/69 68/68
f 86/86 85/85 68/68
f 87/87 86/86 68/68
f 87/87 68/68 84/84
f 88/88 87/87 84/84
f 72/72 69/69 89/89
f 89/89 69/69 85/85
f 91/91 90/90 74/74
f 76/76 91/91 74/74
f 92/92 90/90 91/91
f 74/74 93/93 78/78
f 74/74 90/90 93/93
f 78/78 94/94 81/81
f 78/78 93/93 94/94
f 81/81 95/95 82/82
f 81/81 94/94 95/95
f 82/82 96/96 83/83
f 82/82 95/95 96/96
f 97/97 84/84 83/83
f 98/98 97/97 83/83
f 98/98 83/83 96/96
f 99/99 98/98 96/96
f 100/100 99/99 96/96
f 88/88 84/84 101/101
f 101/101 84/84 97/97
f 104/104 103/103 102/102
f 105/105 103/103 104/104
f 107/107 106/106 90/90
f 92/92 107/107 90/90
f 102/102 103/103 106/106
f 107/107 102/102 106/106
f 90/90 108/108 93/93
f 90/90 106/106 108/108
f 93/93 109/109 94/94
f 93/93 108/108 109/109
f 94/94 110/110 95/95
f 94/94 109/109 110/110
f 95/95 111/111 96/96
f 95/95 110/110 111/111
f 100/100 96/96 112/112
f 112/112 96/96 111/111
f 113/113 112/112 111/111
f 114/114 113/113 111/111
f 117/117 116/116 115/115
f 118/118 116/116 117/117
f 120/120 119/119 103/103
f 121/121 120/120 103/103
f 105/105 121/121 103/103
f 115/115 116/116 119/119
f 120/120 115/115 119/119
f 103/103 122/122 106/106
f 103/103 119/119 122/122
f 106/106 123/123 108/108
f 106/106 122/122 123/123
f 108/108 124/124 109/109
f 108/108 123/123 124/124
f 109/109 125/125 110/110
f 109/109 124/124 125/125
f 126/126 111/111 110/110
f 127/127 126/126 110/110
f 128/128 127/127 110/110
f 129/129 128/128 110/110
f 129/129 110/110 125/125
f 130/130 129/129 125/125
f 114/114 111/111 131/131
f 131/131 111/111 126/126
f 133/133 132/132 116/116
f 134/134 133/133 116/116
f 118/118 134/134 116/116
f 135/135 132/132 133/133
f 116/116 136/136 119/119
f 116/116 132/132 136/136
f 119/119 137/137 122/122
f 119/119 136/136 137/137
f 122/122 138/138 123/123
f 122/122 137/137 138/138
f 123/123 139/139 124/124
f 123/123 138/138 139/139
f 140/140 125/125 124/124
f 141/141 140/140 124/124
f 141/141 124/124 139/139
f 142/142 141/141 139/139
f 130/130 125/125 143/143
f 143/143 125/125 140/140
f 146/146 145/145 144/144
f 147/147 146/146 144/144
f 148/148 144/144 145/145
f 150/150 149/149 132/132
f 135/135 150/150 132/132
f 147/147 144/144 149/149
f 150/150 147/147 149/149
f 132/132 151/151 136/136
f 132/132 149/149 151/151
f 136/136 152/152 137/137
f 136/136 151/151 152/152
f 137/137 153/153 138/138
f 137/137 152/152 153/153
f 138/138 154/154 139/139
f 138/138 153/153 154/154
f 155/155 142/142 139/139
f 156/156 155/155 139/139
f 156/156 139/139 154/154
f 157/157 156/156 154/154
f 158/158 157/157 154/154
f 161/161 160/160 159/159
f 162/162 160/160 161/161
f 164/164 163/163 144/144
f 148/148 164/164 144/144
f 159/159 160/160 163/163
f 165/165 159/159 163/163
f 164/164 165/165 163/163
f 144/144 166/166 149/149
f 144/144 163/163 166/166
f 149/149 167/167 151/151
f 149/149 166/166 167/167
f 151/151 168/168 152/152
f 151/151 167/167 168/168
f 152/152 169/169 153/153
f 152/152 168/168 169/169
f 170/170 154/154 153/153
f 171/171 170/170 153/153
f 172/172 171/171 153/153
f 172/172 153/153 169/169
f 173/173 172/172 169/169
f 158/158 154/154 174/174
f 174/174 154/154 170/170
f 176/176 175/175 160/160
f 177/177 176/176 160/160
f 162/162 177/177 160/160
f 179/179 178/178 175/175
f 176/176 179/179 175/175
f 160/160 180/180 163/163
f 160/160 175/175 180/180
f 163/163 181/181 166/166
f 163/163 180/180 181/181
f 166/166 182/182 167/167
f 166/166 181/181 182/182
f 167/167 183/183 168/168
f 167/167 182/182 183/183
f 184/184 169/169 168/168
f 185/185 184/184 168/168
f 185/185 168/168 183/183
f 186/186 185/185 183/183
f 173/173 169/169 187/187
f 187/187 169/169 184/184
f 190/190 189/189 188/188
f 192/192 191/191 189/189
f 190/190 192/192 189/189
f 194/194 193/193 175/175
f 178/178 194/194 175/175
f 188/188 189/189 193/193
f 194/194 188/188 193/193
f 175/175 195/195 180/180
f 175/175 193/193 195/195
f 180/180 196/196 181/181
f 180/180 195/195 196/196
f 181/181 197/197 182/182
f 181/181 196/196 197/197
f 182/182 198/198 183/183
f 182/182 197/197 198/198
f 199/199 186/186 183/183
f 200/200 199/199 183/183
f 201/201 200/200 183/183
f 202/202 201/201 183/183
f 202/202 183/183 198/198
f 203/203 202/202 198/198
f 206/206 205/205 204/204
f 207/207 205/205 206/206
f 209/209 208/208 189/189
f 191/191 209/209 189/189
f 204/204 205/205 208/208
f 209/209 204/204 208/208
f 189/189 210/210 193/193
f 189/189 208/208 210/210
f 193/193 211/211 195/195
f 193/193 210/210 211/211
f 195/195 212/212 196/196
f 195/195 211/211 212/212
f 196/196 213/213 197/197
f 196/196 212/212 213/213
f 214/214 198/198 197/197
f 215/215 214/214 197/197
f 215/215 197/197 213/213
f 216/216 215/215 213/213
f 217/217 216/216 213/213
f 218/218 203/203 198/198
f 219/219 218/218 198/198
f 219/219 198/198 214/214
f 222/222 221/221 220/220
f 223/223 221/221 222/222
f 225/225 224/224 205/205
f 226/226 225/225 205/205
f 207/207 226/226 205/205
f 220/220 221/221 224/224
f 225/225 220/220 224/224
f 205/205 227/227 208/208
f 205/205 224/224 227/227
f 208/208 228/228 210/210
f 208/208 227/227 228/228
f 210/210 229/229 211/211
f 210/210 228/228 229/229
f 211/211 230/230 212/212
f 211/211 229/229 230/230
f 231/231 213/213 212/212
f 232/232 231/231 212/212
f 232/232 212/212 230/230
f 233/233 232/232 230/230
f 217/217 213/213 234/234
f 234/234 213/213 231/231
f 236/236 235/235 221/221
f 237/237 236/236 221/221
f 223/223 237/237 221/221
f 239/239 238/238 235/235
f 236/236 239/239 235/235
f 221/221 240/240 224/224
f 221/221 235/235 240/240
f 224/224 241/241 227/227
f 224/224 240/240 241/241
f 227/227 242/242 228/228
f 227/227 241/241 242/242
f 228/228 243/243 229/229
f 228/228 242/242 243/243
f 229/229 244/244 230/230
f 229/229 243/243 244/244
f 233/233 230/230 245/245
f 245/245 230/230 244/244
f 246/246 245/245 244/244
f 247/247 246/246 244/244
f 250/250 249/249 248/248
f 252/252 251/251 249/249
f 250/250 252/252 249/249
f 254/254 253/253 235/235
f 238/238 254/254 235/235
f 248/248 249/249 253/253
f 254/254 248/248 253/253
f 235/235 255/255 240/240
f 235/235 253/253 255/255
f 240/240 256/256 241/241
f 240/240 255/255 256/256
f 241/241 257/257 242/242
f 241/241 256/256 257/257
f 242/242 258/258 243/243
f 242/242 257/257 258/258
f 259/259 244/244 243/243
f 260/260 259/259 243/243
f 261/261 260/260 243/243
f 261/261 243/243 258/258
f 262/262 261/261 258/258
f 247/247 244/244 263/263
f 263/263 244/244 259/259
f 266/266 265/265 264/264
f 267/267 265/265 266/266
f 269/269 268/268 249/249
f 251/251 269/269 249/249
f 264/264 265/265 268/268
f 270/270 264/264 268/268
f 269/269 270/270 268/268
f 249/249 271/271 253/253
f 249/249 268/268 271/271
f 253/253 272/272 255/255
f 253/253 271/271 272/272
f 255/255 273/273 256/256
f 255/255 272/272 273/273
f 256/256 274/274 257/257
f 256/256 273/273 274/274
f 275/275 258/258 257/257
f 276/276 275/275 257/257
f 276/276 257/257 274/274
f 277/277 276/276 274/274
f 278/278 277/277 274/274
f 279/279 262/262 258/258
f 280/280 279/279 258/258
f 280/280 258/258 275/275
f 282/282 281/281 265/265
f 283/283 282/282 265/265
f 267/267 283/283 265/265
f 284/284 281/281 282/282
f 265/265 285/285 268/268
f 265/265 281/281 285/285
f 268/268 286/286 271/271
f 268/268 285/285 286/286
f 271/271 287/287 272/272
f 271/271 286/286 287/287
f 272/272 288/288 273/273
f 272/272 287/287 288/288
f 289/289 274/274 273/273
f 290/290 289/289 273/273
f 290/290 273/273 288/288
f 291/291 290/290 288/288
f 278/278 274/274 292/292
f 292/292 274/274 289/289
f 295/295 294/294 293/293
f 297/297 296/296 294/294
f 295/295 297/297 294/294
f 299/299 298/298 281/281
f 284/284 299/299 281/281
f 293/293 294/294 298/298
f 299/299 293/293 298/298
f 281/281 300/300 285/285
f 281/281 298/298 300/300
f 285/285 301/301 286/286
f 285/285 300/300 301/301
f 286/286 302/302 287/287
f 286/286 301/301 302/302
f 287/287 303/303 288/288
f 287/287 302/302 303/303
f 291/291 288/288 304/304
f 304/304 288/288 303/303
f 305/305 304/304 303/303
f 308/308 307/307 306/306
f 309/309 308/308 306/306
f 310/310 306/306 307/307
f 312/312 311/311 294/294
f 296/296 312/312 294/294
f 309/309 306/306 311/311
f 312/312 309/309 311/311
f 294/294 313/313 298/298
f 294/294 311/311 313/313
f 298/298 314/314 300/300
f 298/298 313/313 314/314
f 300/300 315/315 301/301
f 300/300 314/314 315/315
f 301/301 316/316 302/302
f 301/301 315/315 316/316
f 317/317 303/303 302/302
f 318/318 317/317 302/302
f 319/319 318/318 302/302
f 319/319 302/302 316/316
f 320/320 319/319 316/316
f 305/305 303/303 321/321
f 321/321 303/303 317/317
f 324/324 323/323 322/322
f 325/325 323/323 324/324
f 327/327 326/326 306/306
f 310/310 327/327 306/306
f 322/322 323/323 326/326
f 328/328 322/322 326/326
f 327/327 328/328 326/326
f 306/306 329/329 311/311
f 306/306 326/326 329/329
f 311/311 330/330 313/313
f 311/311 329/329 330/330
f 313/313 331/331 314/314
f 313/313 330/330 331/331
f 314/314 332/332 315/315
f 314/314 331/331 332/332
f 333/333 316/316 315/315
f 334/334 333/333 315/315
f 334/334 315/315 332/332
f 335/335 334/334 332/332
f 336/336 335/335 332/332
f 337/337 320/320 316/316
f 338/338 337/337 316/316
f 338/338 316/316 333/333
f 340/340 339/339 323/323
f 341/341 340/340 323/323
f 325/325 341/341 323/323
f 342/342 339/339 340/340
f 323/323 343/343 326/326
f 323/323 339/339 343/343
f 326/326 344/344 329/329
f 326/326 343/343 344/344
f 329/329 345/345 330/330
f 329/329 344/344 345/345
f 330/330 346/346 331/331
f 330/330 345/345 346/346
f 331/331 347/347 332/332
f 331/331 346/346 347/347
f 336/336 332/332 348/348
f 348/348 332/332 347/347
f 349/349 348/348 347/347
f 350/350 349/349 347/347
f 353/353 352/352 351/351
f 354/354 352/352 353/353
f 356/356 355/355 339/339
f 342/342 356/356 339/339
f 351/351 352/352 355/355
f 357/357 351/351 355/355
f 356/356 357/357 355/355
f 339/339 358/358 343/343
f 339/339 355/355 358/358
f 343/343 359/359 344/344
f 343/343 358/358 359/359
f 344/344 360/360 345/345
f 344/344 359/359 360/360
f 345/345 361/361 346/346
f 345/345 360/360 361/361
f 362/362 347/347 346/346
f 363/363 362/362 346/346
f 364/364 363/363 346/346
f 364/364 346/346 361/361
f 365/365 364/364 361/361
f 350/350 347/347 366/366
f 366/366 347/347 362/362
f 369/369 368/368 367/367
f 370/370 368/368 369/369
f 372/372 371/371 352/352
f 354/354 372/372 352/352
f 367/367 368/368 371/371
f 372/372 367/367 371/371
f 352/352 373/373 355/355
f 352/352 371/371 373/373
f 355/355 374/374 358/358
f 355/355 373/373 374/374
f 358/358 375/375 359/359
f 358/358 374/374 375/375
f 359/359 376/376 360/360
f 359/359 375/375 376/376
f 377/377 361/361 360/360
f 378/378 377/377 360/360
f 378/378 360/360 376/376
f 379/379 378/378 376/376
f 365/365 361/361 380/380
f 380/380 361/361 377/377
f 381/381 380/380 377/377
f 382/382 381/381 377/377
f 385/385 384/384 383/383
f 386/386 384/384 385/385
f 388/388 387/387 368/368
f 370/370 388/388 368/368
f 383/383 384/384 387/387
f 389/389 383/383 387/387
f 388/388 389/389 387/387
f 368/368 390/390 371/371
f 368/368 387/387 390/390
f 371/371 391/391 373/373
f 371/371 390/390 391/391
f 373/373 392/392 374/374
f 373/373 391/391 392/392
f 374/374 393/393 375/375
f 374/374 392/392 393/393
f 394/394 376/376 375/375
f 395/395 394/394 375/375
f 395/395 375/375 393/393
f 396/396 395/395 393/393
f 397/397 396/396 393/393
f 379/379 376/376 398/398
f 399/399 379/379 398/398
f 400/400 399/399 398/398
f 398/398 376/376 394/394
f 402/402 401/401 384/384
f 403/403 402/402 384/384
f 386/386 403/403 384/384
f 405/405 404/404 401/401
f 402/402 405/405 401/401
f 384/384 406/406 387/387
f 384/384 401/401 406/406
f 387/387 407/407 390/390
f 387/387 406/406 407/407
f 390/390 408/408 391/391
f 390/390 407/407 408/408
f 391/391 409/409 392/392
f 391/391 408/408 409/409
f 392/392 410/410 393/393
f 392/392 409/409 410/410
f 397/397 393/393 411/411
f 411/411 393/393 410/410
f 412/412 411/411 410/410
f 413/413 412/412 410/410
f 416/416 415/415 414/414
f 417/417 415/415 416/416
f 419/419 418/418 401/401
f 404/404 419/419 401/401
f 414/414 415/415 418/418
f 419/419 414/414 418/418
f 401/401 420/420 406/406
f 401/401 418/418 420/420
f 406/406 421/421 407/407
f 406/406 420/420 421/421
f 407/407 422/422 408/408
f 407/407 421/421 422/422
f 408/408 423/423 409/409
f 408/408 422/422 423/423
f 424/424 410/410 409/409
f 425/425 424/424 409/409
f 426/426 425/425 409/409
f 426/426 409/409 423/423
f 427/427 426/426 423/423
f 413/413 410/410 428/428
f 428/428 410/410 424/424
f 431/431 430/430 429/429
f 432/432 431/431 429/429
f 433/433 429/429 430/430
f 435/435 434/434 415/415
f 417/417 435/435 415/415
f 432/432 429/429 434/434
f 435/435 432/432 434/434
f 415/415 436/436 418/418
f 415/415 434/434 436/436
f 418/418 437/437 420/420
f 418/418 436/436 437/437
f 420/420 438/438 421/421
f 420/420 437/437 438/438
f 421/421 439/439 422/422
f 421/421 438/438 439/439
f 440/440 423/423 422/422
f 441/441 440/440 422/422
f 441/441 422/422 439/439
f 442/442 441/441 439/439
f 427/427 423/423 443/443
f 443/443 423/423 440/440
f 446/446 445/445 444/444
f 447/447 445/445 446/446
f 449/449 448/448 429/429
f 433/433 449/449 429/429
f 444/444 445/445 448/448
f 450/450 444/444 448/448
f 449/449 450/450 448/448
f 429/429 451/451 434/434
f 429/429 448/448 451/451
f 434/434 452/452 436/436
f 434/434 451/451 452/452
f 436/436 453/453 437/437
f 436/436 452/452 453/453
f 437/437 454/454 438/438
f 437/437 453/453 454/454
f 455/455 439/439 438/438
f 456/456 455/455 438/438
f 456/456 438/438 454/454
f 457/457 456/456 454/454
f 458/458 457/457 454/454
f 459/459 442/442 439/439
f 460/460 459/459 439/439
f 460/460 439/439 455/455
f 463/463 462/462 461/461
f 464/464 462/462 463/463
f 466/466 465/465 445/445
f 467/467 466/466 445/445
f 447/447 467/467 445/445
f 461/461 462/462 465/465
f 468/468 461/461 465/465
f 466/466 468/468 465/465
f 445/445 469/469 448/448
f 445/445 465/465 469/469
f 448/448 470/470 451/451
f 448/448 469/469 470/470
f 451/451 471/471 452/452
f 451/451 470/470 471/471
f 452/452 472/472 453/453
f 452/452 471/471 472/472
f 453/453 473/473 454/454
f 453/453 472/472 473/473
f 458/458 454/454 474/474
f 474/474 454/454 473/473
f 475/475 474/474 473/473
f 476/476 475/475 473/473
f 478/478 477/477 462/462
f 464/464 478/478 462/462
f 480/480 479/479 477/477
f 478/478 480/480 477/477
f 462/462 481/481 465/465
f 462/462 477/477 481/481
f 465/465 482/482 469/469
f 465/465 481/481 482/482
f 469/469 483/483 470/470
f 469/469 482/482 483/483
f 470/470 484/484 471/471
f 470/470 483/483 484/484
f 471/471 485/485 472/472
f 471/471 484/484 485/485
f 486/486 473/473 472/472
f 487/487 486/486 472/472
f 488/488 487/487 472/472
f 488/488 472/472 485/485
f 489/489 488/488 485/485
f 476/476 473/473 490/490
f 490/490 473/473 486/486
f 493/493 492/492 491/491
f 494/494 493/493 491/491
f 495/495 492/492 493/493
f 497/497 496/496 477/477
f 479/479 497/497 477/477
f 491/491 492/492 496/496
f 497/497 491/491 496/496
f 477/477 498/498 481/481
f 477/477 496/496 498/498
f 481/481 499/499 482/482
f 481/481 498/498 499/499
f 482/482 500/500 483/483
f 482/482 499/499 500/500
f 483/483 501/501 484/484
f 483/483 500/500 501/501
f 502/502 485/485 484/484
f 503/503 502/502 484/484
f 503/503 484/484 501/501
f 504/504 503/503 501/501
f 489/489 485/485 505/505
f 506/506 505/505 485/485
f 502/502 506/506 485/485
f 508/508 507/507 492/492
f 509/509 508/508 492/492
f 495/495 509/509 492/492
f 510/510 507/507 508/508
f 492/492 511/511 496/496
f 492/492 507/507 511/511
f 496/496 512/512 498/498
f 496/496 511/511 512/512
f 498/498 513/513 499/499
f 498/498 512/512 513/513
f 499/499 514/514 500/500
f 499/499 513/513 514/514
f 515/515 501/501 500/500
f 516/516 515/515 500/500
f 516/516 500/500 514/514
f 517/517 516/516 514/514
f 518/518 517/517 514/514
f 504/504 501/501 519/519
f 519/519 501/501 515/515
f 521/521 520/520 507/507
f 522/522 521/521 507/507
f 510/510 522/522 507/507
f 523/523 520/520 521/521
f 507/507 524/524 511/511
f 507/507 520/520 524/524
f 511/511 525/525 512/512
f 511/511 524/524 525/525
f 512/512 526/526 513/513
f 512/512 525/525 526/526
f 527/527 514/514 513/513
f 528/528 527/527 513/513
f 528/528 513/513 526/526
f 529/529 528/528 526/526
f 518/518 514/514 530/530
f 530/530 514/514 527/527
f 531/531 520/520 523/523
f 532/532 531/531 523/523
f 520/520 533/533 524/524
f 534/534 533/533 520/520
f 535/535 534/534 520/520
f 531/531 535/535 520/520
f 524/524 536/536 525/525
f 524/524 533/533 536/536
f 537/537 526/526 525/525
f 538/538 537/537 525/525
f 538/538 525/525 536/536
f 539/539 538/538 536/536
f 529/529 526/526 540/540
f 541/541 529/529 540/540
f 540/540 526/526 537/537
f 542/542 533/533 534/534
f 543/543 536/536 533/533
f 544/544 543/543 533/533
f 544/544 533/533 542/542
f 545/545 544/544 542/542
f 539/539 536/536 546/546
f 547/547 539/539 546/546
f 546/546 536/536 543/543
f 548/548 546/546 543/543
