o KrogRail_Ballast
v 29331.88543 -116721.67740 1301.82642
v 28238.16140 -116859.30987 1301.82642
v 29278.64665 -116539.26811 1301.82642
v 28238.16140 -116859.30987 1301.82642
v 29331.88543 -116721.67740 1301.82642
v 28294.02057 -117040.91316 1301.82642
v 31169.79526 -116416.96810 1301.82642
v 30006.64352 -116790.31595 1301.82642
v 29948.67737 -116609.37415 1301.82642
v 28729.31274 -116999.24973 1301.82642
v 27837.60340 -117470.23505 1301.82642
v 27782.10875 -117288.52005 1301.82642
v 28729.31274 -116999.24973 1301.82642
v 30006.64352 -116790.31595 1301.82642
v 28785.99457 -117180.60218 1301.82642
v 32564.54086 -115828.81521 1301.82642
v 32585.21433 -115823.02211 1301.82642
v 32636.48117 -116005.97487 1301.82642
v 32564.54086 -115828.81521 1301.82642
v 32501.56561 -115659.01675 1301.82642
v 32518.68893 -115654.51231 1301.82642
v 31782.82832 -116044.55108 1301.82642
v 29887.42760 -116214.99514 1301.82642
v 32465.22218 -115523.52815 1301.82642
v 29887.42760 -116214.99514 1301.82642
v 29706.06946 -116421.18325 1301.82642
v 29664.10279 -116282.64649 1301.82642
v 29278.64665 -116539.26811 1301.82642
v 29706.06946 -116421.18325 1301.82642
v 29331.88543 -116721.67740 1301.82642
v 30006.64352 -116790.31595 1301.82642
v 28729.31274 -116999.24973 1301.82642
v 29948.67737 -116609.37415 1301.82642
v 28785.99457 -117180.60218 1301.82642
v 27837.60340 -117470.23505 1301.82642
v 28729.31274 -116999.24973 1301.82642
v 31975.99956 -115993.73565 1301.82642
v 32564.54086 -115828.81521 1301.82642
v 32636.48117 -116005.97487 1301.82642
v 31975.99956 -115993.73565 1301.82642
v 31782.82832 -116044.55108 1301.82642
v 32465.22218 -115523.52815 1301.82642
v 29706.06946 -116421.18325 1301.82642
v 31782.82832 -116044.55108 1301.82642
v 29331.88543 -116721.67740 1301.82642
v 29948.67737 -116609.37415 1301.82642
v 31115.10869 -116234.97362 1301.82642
v 31169.79526 -116416.96810 1301.82642
v 32636.48117 -116005.97487 1301.82642
v 31169.79526 -116416.96810 1301.82642
v 31975.99956 -115993.73565 1301.82642
v 31782.82832 -116044.55108 1301.82642
v 29706.06946 -116421.18325 1301.82642
v 29887.42760 -116214.99514 1301.82642
v 32465.22218 -115523.52815 1301.82642
v 32501.56561 -115659.01675 1301.82642
v 31975.99956 -115993.73565 1301.82642
v 31115.10869 -116234.97362 1301.82642
v 31975.99956 -115993.73565 1301.82642
v 31169.79526 -116416.96810 1301.82642
v 32501.56561 -115659.01675 1301.82642
v 32564.54086 -115828.81521 1301.82642
v 31975.99956 -115993.73565 1301.82642
v 29291.84506 -119578.82445 1301.82642
v 28657.13560 -119459.48681 1301.82642
v 28587.91838 -119282.07965 1301.82642
v 28587.91838 -119282.07965 1301.82642
v 28657.13560 -119459.48681 1301.82642
v 28644.90698 -119463.33169 1301.82642
v 28657.13560 -119459.48681 1301.82642
v 28712.40632 -119596.05178 1301.82642
v 28698.54224 -119600.13340 1301.82642
v 28712.40632 -119596.05178 1301.82642
v 29291.84506 -119578.82445 1301.82642
v 28760.53284 -119747.57681 1301.82642
v 33520.05324 -118172.50068 1301.82642
v 33535.51198 -118168.23920 1301.82642
v 33586.00551 -118351.40689 1301.82642
v 33520.05324 -118172.50068 1301.82642
v 33468.00999 -118048.97707 1301.82642
v 33486.55449 -118044.13753 1301.82642
v 33468.00999 -118048.97707 1301.82642
v 31521.88259 -118419.47643 1301.82642
v 33428.86297 -117904.12066 1301.82642
v 28587.91838 -119282.07965 1301.82642
v 29527.28496 -118986.72748 1301.82642
v 29291.84506 -119578.82445 1301.82642
v 28657.13560 -119459.48681 1301.82642
v 29291.84506 -119578.82445 1301.82642
v 28712.40632 -119596.05178 1301.82642
v 31521.88259 -118419.47643 1301.82642
v 33520.05324 -118172.50068 1301.82642
v 33586.00551 -118351.40689 1301.82642
v 33520.05324 -118172.50068 1301.82642
v 31521.88259 -118419.47643 1301.82642
v 33468.00999 -118048.97707 1301.82642
v 30915.75150 -119087.51136 1301.82642
v 29291.84506 -119578.82445 1301.82642
v 29527.28496 -118986.72748 1301.82642
v 33586.00551 -118351.40689 1301.82642
v 30915.75150 -119087.51136 1301.82642
v 31521.88259 -118419.47643 1301.82642
v 29527.28496 -118986.72748 1301.82642
v 31521.88259 -118419.47643 1301.82642
v 30915.75150 -119087.51136 1301.82642
vt 293.31885 1167.21677
vt 282.38161 1168.59310
vt 292.78647 1165.39268
vt 282.38161 1168.59310
vt 293.31885 1167.21677
vt 282.94021 1170.40913
vt 311.69795 1164.16968
vt 300.06644 1167.90316
vt 299.48677 1166.09374
vt 287.29313 1169.99250
vt 278.37603 1174.70235
vt 277.82109 1172.88520
vt 287.29313 1169.99250
vt 300.06644 1167.90316
vt 287.85995 1171.80602
vt 325.64541 1158.28815
vt 325.85214 1158.23022
vt 326.36481 1160.05975
vt 325.64541 1158.28815
vt 325.01566 1156.59017
vt 325.18689 1156.54512
vt 317.82828 1160.44551
vt 298.87428 1162.14995
vt 324.65222 1155.23528
vt 298.87428 1162.14995
vt 297.06069 1164.21183
vt 296.64103 1162.82646
vt 292.78647 1165.39268
vt 297.06069 1164.21183
vt 293.31885 1167.21677
vt 300.06644 1167.90316
vt 287.29313 1169.99250
vt 299.48677 1166.09374
vt 287.85995 1171.80602
vt 278.37603 1174.70235
vt 287.29313 1169.99250
vt 319.76000 1159.93736
vt 325.64541 1158.28815
vt 326.36481 1160.05975
vt 319.76000 1159.93736
vt 317.82828 1160.44551
vt 324.65222 1155.23528
vt 297.06069 1164.21183
vt 317.82828 1160.44551
vt 293.31885 1167.21677
vt 299.48677 1166.09374
vt 311.15109 1162.34974
vt 311.69795 1164.16968
vt 326.36481 1160.05975
vt 311.69795 1164.16968
vt 319.76000 1159.93736
vt 317.82828 1160.44551
vt 297.06069 1164.21183
vt 298.87428 1162.14995
vt 324.65222 1155.23528
vt 325.01566 1156.59017
vt 319.76000 1159.93736
vt 311.15109 1162.34974
vt 319.76000 1159.93736
vt 311.69795 1164.16968
vt 325.01566 1156.59017
vt 325.64541 1158.28815
vt 319.76000 1159.93736
vt 292.91845 1195.78824
vt 286.57136 1194.59487
vt 285.87918 1192.82080
vt 285.87918 1192.82080
vt 286.57136 1194.59487
vt 286.44907 1194.63332
vt 286.57136 1194.59487
vt 287.12406 1195.96052
vt 286.98542 1196.00133
vt 287.12406 1195.96052
vt 292.91845 1195.78824
vt 287.60533 1197.47577
vt 335.20053 1181.72501
vt 335.35512 1181.68239
vt 335.86006 1183.51407
vt 335.20053 1181.72501
vt 334.68010 1180.48977
vt 334.86554 1180.44138
vt 334.68010 1180.48977
vt 315.21883 1184.19476
vt 334.28863 1179.04121
vt 285.87918 1192.82080
vt 295.27285 1189.86727
vt 292.91845 1195.78824
vt 286.57136 1194.59487
vt 292.91845 1195.78824
vt 287.12406 1195.96052
vt 315.21883 1184.19476
vt 335.20053 1181.72501
vt 335.86006 1183.51407
vt 335.20053 1181.72501
vt 315.21883 1184.19476
vt 334.68010 1180.48977
vt 309.15751 1190.87511
vt 292.91845 1195.78824
vt 295.27285 1189.86727
vt 335.86006 1183.51407
vt 309.15751 1190.87511
vt 315.21883 1184.19476
vt 295.27285 1189.86727
vt 315.21883 1184.19476
vt 309.15751 1190.87511
f 3/3 2/2 1/1
f 6/6 5/5 4/4
f 9/9 8/8 7/7
f 12/12 11/11 10/10
f 15/15 14/14 13/13
f 18/18 17/17 16/16
f 21/21 20/20 19/19
f 24/24 23/23 22/22
f 27/27 26/26 25/25
f 30/30 29/29 28/28
f 33/33 32/32 31/31
f 36/36 35/35 34/34
f 39/39 38/38 37/37
f 42/42 41/41 40/40
f 45/45 44/44 43/43
f 48/48 47/47 46/46
f 51/51 50/50 49/49
f 54/54 53/53 52/52
f 57/57 56/56 55/55
f 60/60 59/59 58/58
f 63/63 62/62 61/61
f 66/66 65/65 64/64
f 69/69 68/68 67/67
f 72/72 71/71 70/70
f 75/75 74/74 73/73
f 78/78 77/77 76/76
f 81/81 80/80 79/79
f 84/84 83/83 82/82
f 87/87 86/86 85/85
f 90/90 89/89 88/88
f 93/93 92/92 91/91
f 96/96 95/95 94/94
f 99/99 98/98 97/97
f 102/102 101/101 100/100
f 105/105 104/104 103/103
