# Authored cut-and-cover gallery Cover; ODbL route alignment
o KrogGallery_Cover
v 25349.763456 117163.980629 1010.370084
v 25658.026032 116649.224197 1306.169748
v 25760.977318 116710.876712 1306.817819
v 25452.714742 117225.633144 1030.780408
v 25658.026032 116649.224197 1306.169748
v 26212.898669 115722.662620 1306.169748
v 26315.849955 115784.315135 1306.817819
v 25760.977318 116710.876712 1306.817819
v 26212.898669 115722.662620 1306.169748
v 26531.436664 115190.747640 981.869480
v 26634.387950 115252.400155 983.258423
v 26315.849955 115784.315135 1306.817819
v 25452.714742 117225.633144 1030.780408
v 25760.977318 116710.876712 1306.817819
v 25990.901673 116821.751627 1307.669648
v 25787.849228 117386.348567 1079.764112
v 25760.977318 116710.876712 1306.817819
v 26315.849955 115784.315135 1306.817819
v 26356.396074 115805.477135 1307.669648
v 25990.901673 116821.751627 1307.669648
v 26315.849955 115784.315135 1306.817819
v 26634.387950 115252.400155 983.258423
v 26566.216934 115222.060297 982.749581
v 26356.396074 115805.477135 1307.669648
v 25787.849228 117386.348567 1079.764112
v 25990.901673 116821.751627 1307.669648
v 26103.821061 116862.362116 1311.322309
v 25900.768616 117426.959056 1100.218451
v 25990.901673 116821.751627 1307.669648
v 26356.396074 115805.477135 1307.669648
v 26469.315462 115846.087624 1311.322309
v 26103.821061 116862.362116 1311.322309
v 26356.396074 115805.477135 1307.669648
v 26566.216934 115222.060297 982.749581
v 26679.136322 115262.670786 983.464020
v 26469.315462 115846.087624 1311.322309
v 25900.768616 117426.959056 1100.218451
v 26103.821061 116862.362116 1311.322309
v 26216.740449 116902.972605 1319.937232
v 26013.688004 117467.569545 1110.718373
v 26103.821061 116862.362116 1311.322309
v 26469.315462 115846.087624 1311.322309
v 26582.234850 115886.698113 1319.937232
v 26216.740449 116902.972605 1319.937232
v 26469.315462 115846.087624 1311.322309
v 26679.136322 115262.670786 983.464020
v 26792.055710 115303.281275 983.080151
v 26582.234850 115886.698113 1319.937232
v 26013.688004 117467.569545 1110.718373
v 26216.740449 116902.972605 1319.937232
v 26543.004589 116954.147146 1322.629651
v 26517.755805 117553.615660 1110.530389
v 26216.740449 116902.972605 1319.937232
v 26582.234850 115886.698113 1319.937232
v 26588.452402 115875.103821 1322.629651
v 26543.004589 116954.147146 1322.629651
v 26582.234850 115886.698113 1319.937232
v 26792.055710 115303.281275 983.080151
v 26614.542812 115255.653024 983.629785
v 26588.452402 115875.103821 1322.629651
v 26517.755805 117553.615660 1110.530389
v 26543.004589 116954.147146 1322.629651
v 26794.034881 116947.721131 1321.368523
v 26881.395769 117541.327124 1103.568020
v 26543.004589 116954.147146 1322.629651
v 26588.452402 115875.103821 1322.629651
v 26636.785284 115879.230343 1321.368523
v 26794.034881 116947.721131 1321.368523
v 26588.452402 115875.103821 1322.629651
v 26614.542812 115255.653024 983.629785
v 26546.512368 115265.837483 983.427919
v 26636.785284 115879.230343 1321.368523
v 26881.395769 117541.327124 1103.568020
v 26794.034881 116947.721131 1321.368523
v 26912.756080 116930.248954 1319.416590
v 27000.116967 117523.854947 1103.296188
v 26794.034881 116947.721131 1321.368523
v 26636.785284 115879.230343 1321.368523
v 26755.506483 115861.758165 1319.416590
v 26912.756080 116930.248954 1319.416590
v 26636.785284 115879.230343 1321.368523
v 26546.512368 115265.837483 983.427919
v 26665.233566 115248.365306 983.635987
v 26755.506483 115861.758165 1319.416590
v 27000.116967 117523.854947 1103.296188
v 26912.756080 116930.248954 1319.416590
v 27124.310486 116876.841248 1321.628172
v 27294.033338 117452.335951 1102.870050
v 26912.756080 116930.248954 1319.416590
v 26755.506483 115861.758165 1319.416590
v 26818.809352 115840.950782 1321.628172
v 27124.310486 116876.841248 1321.628172
v 26755.506483 115861.758165 1319.416590
v 26665.233566 115248.365306 983.635987
v 26643.429071 115246.272922 983.450117
v 26818.809352 115840.950782 1321.628172
v 27294.033338 117452.335951 1102.870050
v 27124.310486 116876.841248 1321.628172
v 27239.963742 116842.706586 1322.162691
v 27410.167861 117418.059137 1103.161852
v 27124.310486 116876.841248 1321.628172
v 26818.809352 115840.950782 1321.628172
v 26933.596328 115807.071994 1322.162691
v 27239.963742 116842.706586 1322.162691
v 26818.809352 115840.950782 1321.628172
v 26643.429071 115246.272922 983.450117
v 26757.718738 115212.541025 982.942154
v 26933.596328 115807.071994 1322.162691
v 27410.167861 117418.059137 1103.161852
v 27239.963742 116842.706586 1322.162691
v 27355.034253 116808.665762 1319.500755
v 27525.238372 117384.018313 1103.499916
v 27239.963742 116842.706586 1322.162691
v 26933.596328 115807.071994 1322.162691
v 27048.666838 115773.031170 1319.500755
v 27355.034253 116808.665762 1319.500755
v 26933.596328 115807.071994 1322.162691
v 26757.718738 115212.541025 982.942154
v 26872.789249 115178.500201 983.199883
v 27048.666838 115773.031170 1319.500755
v 27525.238372 117384.018313 1103.499916
v 27355.034253 116808.665762 1319.500755
v 27470.104763 116774.624938 1316.290923
v 27640.308882 117349.977489 1103.569782
v 27355.034253 116808.665762 1319.500755
v 27048.666838 115773.031170 1319.500755
v 27163.737348 115738.990347 1316.290923
v 27470.104763 116774.624938 1316.290923
v 27048.666838 115773.031170 1319.500755
v 26872.789249 115178.500201 983.199883
v 26987.859759 115144.459377 981.910386
v 27163.737348 115738.990347 1316.290923
v 27640.308882 117349.977489 1103.569782
v 27470.104763 116774.624938 1316.290923
v 27585.175273 116740.584114 1313.146792
v 27755.379392 117315.936665 1104.145953
v 27470.104763 116774.624938 1316.290923
v 27163.737348 115738.990347 1316.290923
v 27278.807859 115704.949523 1313.146792
v 27585.175273 116740.584114 1313.146792
v 27163.737348 115738.990347 1316.290923
v 26987.859759 115144.459377 981.910386
v 27102.930269 115110.418554 981.245785
v 27278.807859 115704.949523 1313.146792
v 27755.379392 117315.936665 1104.145953
v 27585.175273 116740.584114 1313.146792
v 27700.245783 116706.543291 1307.496368
v 27870.449902 117281.895842 1104.373919
v 27585.175273 116740.584114 1313.146792
v 27278.807859 115704.949523 1313.146792
v 27393.878369 115670.908699 1307.496368
v 27700.245783 116706.543291 1307.496368
v 27278.807859 115704.949523 1313.146792
v 27102.930269 115110.418554 981.245785
v 27218.000779 115076.377730 981.953819
v 27393.878369 115670.908699 1307.496368
v 27870.449902 117281.895842 1104.373919
v 27700.245783 116706.543291 1307.496368
v 27815.316293 116672.502467 1303.110654
v 27985.520412 117247.855018 1104.669916
v 27700.245783 116706.543291 1307.496368
v 27393.878369 115670.908699 1307.496368
v 27508.948879 115636.867875 1303.110654
v 27815.316293 116672.502467 1303.110654
v 27393.878369 115670.908699 1307.496368
v 27218.000779 115076.377730 981.953819
v 27333.071289 115042.336906 982.609815
v 27508.948879 115636.867875 1303.110654
v 27985.520412 117247.855018 1104.669916
v 27815.316293 116672.502467 1303.110654
v 27930.386803 116638.461643 1300.960590
v 28100.590923 117213.814194 1105.359785
v 27815.316293 116672.502467 1303.110654
v 27508.948879 115636.867875 1303.110654
v 27624.019389 115602.827051 1300.960590
v 27930.386803 116638.461643 1300.960590
v 27508.948879 115636.867875 1303.110654
v 27333.071289 115042.336906 982.609815
v 27448.141800 115008.296082 982.959919
v 27624.019389 115602.827051 1300.960590
v 28100.590923 117213.814194 1105.359785
v 27930.386803 116638.461643 1300.960590
v 28045.457314 116604.420819 1298.938792
v 28215.661433 117179.773370 1105.937953
v 27930.386803 116638.461643 1300.960590
v 27624.019389 115602.827051 1300.960590
v 27739.089899 115568.786228 1298.938792
v 28045.457314 116604.420819 1298.938792
v 27624.019389 115602.827051 1300.960590
v 27448.141800 115008.296082 982.959919
v 27563.212310 114974.255258 983.257919
v 27739.089899 115568.786228 1298.938792
v 28215.661433 117179.773370 1105.937953
v 28045.457314 116604.420819 1298.938792
v 28160.527824 116570.379995 1296.266658
v 28330.731943 117145.732546 1106.305785
v 28045.457314 116604.420819 1298.938792
v 27739.089899 115568.786228 1298.938792
v 27854.160410 115534.745404 1296.266658
v 28160.527824 116570.379995 1296.266658
v 27739.089899 115568.786228 1298.938792
v 27563.212310 114974.255258 983.257919
v 27678.282820 114940.214434 983.545919
v 27854.160410 115534.745404 1296.266658
v 28330.731943 117145.732546 1106.305785
v 28160.527824 116570.379995 1296.266658
v 28275.598334 116536.339172 1294.100554
v 28445.802453 117111.691723 1106.719983
v 28160.527824 116570.379995 1296.266658
v 27854.160410 115534.745404 1296.266658
v 27969.230920 115500.704580 1294.100554
v 28275.598334 116536.339172 1294.100554
v 27854.160410 115534.745404 1296.266658
v 27678.282820 114940.214434 983.545919
v 27793.353330 114906.173611 982.820486
v 27969.230920 115500.704580 1294.100554
v 28445.802453 117111.691723 1106.719983
v 28275.598334 116536.339172 1294.100554
v 28390.668844 116502.298348 1293.152121
v 28560.872963 117077.650899 1107.171819
v 28275.598334 116536.339172 1294.100554
v 27969.230920 115500.704580 1294.100554
v 28084.301430 115466.663756 1293.152121
v 28390.668844 116502.298348 1293.152121
v 27969.230920 115500.704580 1294.100554
v 27793.353330 114906.173611 982.820486
v 27908.423840 114872.132787 981.632255
v 28084.301430 115466.663756 1293.152121
v 28560.872963 117077.650899 1107.171819
v 28390.668844 116502.298348 1293.152121
v 28505.739354 116468.257524 1295.129312
v 28675.943473 117043.610075 1107.829815
v 28390.668844 116502.298348 1293.152121
v 28084.301430 115466.663756 1293.152121
v 28199.371940 115432.622932 1295.129312
v 28505.739354 116468.257524 1295.129312
v 28084.301430 115466.663756 1293.152121
v 27908.423840 114872.132787 981.632255
v 28023.494350 114838.091963 984.129111
v 28199.371940 115432.622932 1295.129312
v 28675.943473 117043.610075 1107.829815
v 28505.739354 116468.257524 1295.129312
v 28620.809865 116434.216700 1300.098440
v 28791.013984 117009.569251 1108.639883
v 28505.739354 116468.257524 1295.129312
v 28199.371940 115432.622932 1295.129312
v 28314.442450 115398.582109 1300.098440
v 28620.809865 116434.216700 1300.098440
v 28199.371940 115432.622932 1295.129312
v 28023.494350 114838.091963 984.129111
v 28138.564861 114804.051139 987.338876
v 28314.442450 115398.582109 1300.098440
v 28791.013984 117009.569251 1108.639883
v 28620.809865 116434.216700 1300.098440
v 28735.880375 116400.175876 1305.634477
v 28906.084494 116975.528427 1108.856054
v 28620.809865 116434.216700 1300.098440
v 28314.442450 115398.582109 1300.098440
v 28429.512961 115364.541285 1305.634477
v 28735.880375 116400.175876 1305.634477
v 28314.442450 115398.582109 1300.098440
v 28138.564861 114804.051139 987.338876
v 28253.635371 114770.010315 991.674611
v 28429.512961 115364.541285 1305.634477
v 28906.084494 116975.528427 1108.856054
v 28735.880375 116400.175876 1305.634477
v 28850.950885 116366.135053 1310.422846
v 29021.155004 116941.487604 1109.443618
v 28735.880375 116400.175876 1305.634477
v 28429.512961 115364.541285 1305.634477
v 28544.583471 115330.500461 1310.422846
v 28850.950885 116366.135053 1310.422846
v 28429.512961 115364.541285 1305.634477
v 28253.635371 114770.010315 991.674611
v 28368.705881 114735.969492 997.062376
v 28544.583471 115330.500461 1310.422846
v 29021.155004 116941.487604 1109.443618
v 28850.950885 116366.135053 1310.422846
v 28966.021395 116332.094229 1312.799581
v 29136.225514 116907.446780 1110.179883
v 28850.950885 116366.135053 1310.422846
v 28544.583471 115330.500461 1310.422846
v 28659.653981 115296.459637 1312.799581
v 28966.021395 116332.094229 1312.799581
v 28544.583471 115330.500461 1310.422846
v 28368.705881 114735.969492 997.062376
v 28483.776391 114701.928668 1002.798406
v 28659.653981 115296.459637 1312.799581
v 29136.225514 116907.446780 1110.179883
v 28966.021395 116332.094229 1312.799581
v 29081.091905 116298.053405 1313.189953
v 29251.296024 116873.405956 1110.289987
v 28966.021395 116332.094229 1312.799581
v 28659.653981 115296.459637 1312.799581
v 28774.724491 115262.418813 1313.189953
v 29081.091905 116298.053405 1313.189953
v 28659.653981 115296.459637 1312.799581
v 28483.776391 114701.928668 1002.798406
v 28598.846901 114667.887844 1008.488410
v 28774.724491 115262.418813 1313.189953
v 29251.296024 116873.405956 1110.289987
v 29081.091905 116298.053405 1313.189953
v 29196.162416 116264.012581 1314.426175
v 29366.366535 116839.365132 1055.326164
v 29081.091905 116298.053405 1313.189953
v 28774.724491 115262.418813 1313.189953
v 28889.795001 115228.377990 1314.426175
v 29196.162416 116264.012581 1314.426175
v 28774.724491 115262.418813 1313.189953
v 28598.846901 114667.887844 1008.488410
v 28713.917412 114633.847020 1013.047651
v 28889.795001 115228.377990 1314.426175
v 29366.366535 116839.365132 1055.326164
v 29196.162416 116264.012581 1314.426175
v 29311.232926 116229.971757 1319.119715
v 29481.437045 116805.324308 948.992832
v 29196.162416 116264.012581 1314.426175
v 28889.795001 115228.377990 1314.426175
v 29004.865511 115194.337166 1319.119715
v 29311.232926 116229.971757 1319.119715
v 28889.795001 115228.377990 1314.426175
v 28713.917412 114633.847020 1013.047651
v 28828.987922 114599.806196 1012.900822
v 29004.865511 115194.337166 1319.119715
v 29481.437045 116805.324308 948.992832
v 29311.232926 116229.971757 1319.119715
v 29426.303436 116195.930934 1319.893852
v 29596.507555 116771.283485 1048.445516
v 29311.232926 116229.971757 1319.119715
v 29004.865511 115194.337166 1319.119715
v 29119.936022 115160.296342 1319.893852
v 29426.303436 116195.930934 1319.893852
v 29004.865511 115194.337166 1319.119715
v 28828.987922 114599.806196 1012.900822
v 28944.058432 114565.765373 1060.926310
v 29119.936022 115160.296342 1319.893852
v 29596.507555 116771.283485 1048.445516
v 29426.303436 116195.930934 1319.893852
v 29025.821212 116184.479138 1321.301483
v 28759.090078 116721.930998 1126.203664
v 29426.303436 116195.930934 1319.893852
v 29119.936022 115160.296342 1319.893852
v 29505.937255 115217.065791 1321.301483
v 29025.821212 116184.479138 1321.301483
v 29119.936022 115160.296342 1319.893852
v 28944.058432 114565.765373 1060.926310
v 29781.559427 114661.698869 1095.121517
v 29505.937255 115217.065791 1321.301483
v 28759.090078 116721.930998 1126.203664
v 29025.821212 116184.479138 1321.301483
v 29070.687352 116210.133333 1316.561694
v 28752.937577 116719.088223 1127.059379
v 29025.821212 116184.479138 1321.301483
v 29505.937255 115217.065791 1321.301483
v 29642.636949 115294.014531 1316.561694
v 29070.687352 116210.133333 1316.561694
v 29505.937255 115217.065791 1321.301483
v 29781.559427 114661.698869 1095.121517
v 29970.978384 114768.094479 1095.360017
v 29642.636949 115294.014531 1316.561694
v 28752.937577 116719.088223 1127.059379
v 29070.687352 116210.133333 1316.561694
v 29172.478330 116273.683288 1318.429614
v 28854.728555 116782.638178 1119.851594
v 29070.687352 116210.133333 1316.561694
v 29642.636949 115294.014531 1316.561694
v 29744.427927 115357.564487 1318.429614
v 29172.478330 116273.683288 1318.429614
v 29642.636949 115294.014531 1316.561694
v 29970.978384 114768.094479 1095.360017
v 30072.769362 114831.644434 1084.413003
v 29744.427927 115357.564487 1318.429614
v 28854.728555 116782.638178 1119.851594
v 29172.478330 116273.683288 1318.429614
v 29318.712216 116360.383524 1319.086221
v 29038.154189 116890.748675 1113.628033
v 29172.478330 116273.683288 1318.429614
v 29744.427927 115357.564487 1318.429614
v 29823.716666 115405.726253 1319.086221
v 29318.712216 116360.383524 1319.086221
v 29744.427927 115357.564487 1318.429614
v 30072.769362 114831.644434 1084.413003
v 30113.626627 114857.682264 1076.466658
v 29823.716666 115405.726253 1319.086221
v 29038.154189 116890.748675 1113.628033
v 29318.712216 116360.383524 1319.086221
v 29424.785246 116416.495130 1318.278749
v 29144.227219 116946.860281 1109.775422
v 29318.712216 116360.383524 1319.086221
v 29823.716666 115405.726253 1319.086221
v 29929.789696 115461.837858 1318.278749
v 29424.785246 116416.495130 1318.278749
v 29823.716666 115405.726253 1319.086221
v 30113.626627 114857.682264 1076.466658
v 30219.699658 114913.793869 1075.746825
v 29929.789696 115461.837858 1318.278749
v 29144.227219 116946.860281 1109.775422
v 29424.785246 116416.495130 1318.278749
v 29530.858277 116472.606735 1317.455786
v 29250.300249 117002.971886 1109.346027
v 29424.785246 116416.495130 1318.278749
v 29929.789696 115461.837858 1318.278749
v 30035.862726 115517.949464 1317.455786
v 29530.858277 116472.606735 1317.455786
v 29929.789696 115461.837858 1318.278749
v 30219.699658 114913.793869 1075.746825
v 30325.772688 114969.905475 1076.660987
v 30035.862726 115517.949464 1317.455786
v 29250.300249 117002.971886 1109.346027
v 29530.858277 116472.606735 1317.455786
v 29277.250080 116206.769181 1316.632824
v 28721.018938 116431.728991 1108.916632
v 29530.858277 116472.606735 1317.455786
v 30035.862726 115517.949464 1317.455786
v 30278.466137 115801.841524 1316.632824
v 29277.250080 116206.769181 1316.632824
v 30035.862726 115517.949464 1317.455786
v 30325.772688 114969.905475 1076.660987
v 30853.238318 115569.383054 1077.575149
v 30278.466137 115801.841524 1316.632824
v 28721.018938 116431.728991 1108.916632
v 29277.250080 116206.769181 1316.632824
v 29292.247401 116243.851257 1316.358503
v 28736.016258 116468.811067 1108.773500
v 29277.250080 116206.769181 1316.632824
v 30278.466137 115801.841524 1316.632824
v 30293.463458 115838.923600 1316.358503
v 29292.247401 116243.851257 1316.358503
v 30278.466137 115801.841524 1316.632824
v 30853.238318 115569.383054 1077.575149
v 30868.235639 115606.465131 1077.879869
v 30293.463458 115838.923600 1316.358503
v 25349.763456 117163.980629 1010.370084
v 25658.026032 116649.224197 1306.169748
v 25658.026032 116649.224197 1246.169748
v 25349.763456 117163.980629 950.370084
v 25658.026032 116649.224197 1306.169748
v 26212.898669 115722.662620 1306.169748
v 26212.898669 115722.662620 1246.169748
v 25658.026032 116649.224197 1246.169748
v 26212.898669 115722.662620 1306.169748
v 26531.436664 115190.747640 981.869480
v 26531.436664 115190.747640 921.869480
v 26212.898669 115722.662620 1246.169748
v 28736.016258 116468.811067 1048.773500
v 29292.247401 116243.851257 1256.358503
v 29292.247401 116243.851257 1316.358503
v 28736.016258 116468.811067 1108.773500
v 29292.247401 116243.851257 1256.358503
v 30293.463458 115838.923600 1256.358503
v 30293.463458 115838.923600 1316.358503
v 29292.247401 116243.851257 1316.358503
v 30293.463458 115838.923600 1256.358503
v 30868.235639 115606.465131 1017.879869
v 30868.235639 115606.465131 1077.879869
v 30293.463458 115838.923600 1316.358503
v 25349.763456 117163.980629 1010.370084
v 25452.714742 117225.633144 1030.780408
v 25452.714742 117225.633144 970.780408
v 25349.763456 117163.980629 950.370084
v 25452.714742 117225.633144 1030.780408
v 25787.849228 117386.348567 1079.764112
v 25787.849228 117386.348567 1019.764112
v 25452.714742 117225.633144 970.780408
v 25787.849228 117386.348567 1079.764112
v 25900.768616 117426.959056 1100.218451
v 25900.768616 117426.959056 1040.218451
v 25787.849228 117386.348567 1019.764112
v 25900.768616 117426.959056 1100.218451
v 26013.688004 117467.569545 1110.718373
v 26013.688004 117467.569545 1050.718373
v 25900.768616 117426.959056 1040.218451
v 26013.688004 117467.569545 1110.718373
v 26517.755805 117553.615660 1110.530389
v 26517.755805 117553.615660 1050.530389
v 26013.688004 117467.569545 1050.718373
v 26517.755805 117553.615660 1110.530389
v 26881.395769 117541.327124 1103.568020
v 26881.395769 117541.327124 1043.568020
v 26517.755805 117553.615660 1050.530389
v 26881.395769 117541.327124 1103.568020
v 27000.116967 117523.854947 1103.296188
v 27000.116967 117523.854947 1043.296188
v 26881.395769 117541.327124 1043.568020
v 27000.116967 117523.854947 1103.296188
v 27294.033338 117452.335951 1102.870050
v 27294.033338 117452.335951 1042.870050
v 27000.116967 117523.854947 1043.296188
v 27294.033338 117452.335951 1102.870050
v 27410.167861 117418.059137 1103.161852
v 27410.167861 117418.059137 1043.161852
v 27294.033338 117452.335951 1042.870050
v 27410.167861 117418.059137 1103.161852
v 27525.238372 117384.018313 1103.499916
v 27525.238372 117384.018313 1043.499916
v 27410.167861 117418.059137 1043.161852
v 27525.238372 117384.018313 1103.499916
v 27640.308882 117349.977489 1103.569782
v 27640.308882 117349.977489 1043.569782
v 27525.238372 117384.018313 1043.499916
v 27640.308882 117349.977489 1103.569782
v 27755.379392 117315.936665 1104.145953
v 27755.379392 117315.936665 1044.145953
v 27640.308882 117349.977489 1043.569782
v 27755.379392 117315.936665 1104.145953
v 27870.449902 117281.895842 1104.373919
v 27870.449902 117281.895842 1044.373919
v 27755.379392 117315.936665 1044.145953
v 27870.449902 117281.895842 1104.373919
v 27985.520412 117247.855018 1104.669916
v 27985.520412 117247.855018 1044.669916
v 27870.449902 117281.895842 1044.373919
v 27985.520412 117247.855018 1104.669916
v 28100.590923 117213.814194 1105.359785
v 28100.590923 117213.814194 1045.359785
v 27985.520412 117247.855018 1044.669916
v 28100.590923 117213.814194 1105.359785
v 28215.661433 117179.773370 1105.937953
v 28215.661433 117179.773370 1045.937953
v 28100.590923 117213.814194 1045.359785
v 28215.661433 117179.773370 1105.937953
v 28330.731943 117145.732546 1106.305785
v 28330.731943 117145.732546 1046.305785
v 28215.661433 117179.773370 1045.937953
v 28330.731943 117145.732546 1106.305785
v 28445.802453 117111.691723 1106.719983
v 28445.802453 117111.691723 1046.719983
v 28330.731943 117145.732546 1046.305785
v 28445.802453 117111.691723 1106.719983
v 28560.872963 117077.650899 1107.171819
v 28560.872963 117077.650899 1047.171819
v 28445.802453 117111.691723 1046.719983
v 28560.872963 117077.650899 1107.171819
v 28675.943473 117043.610075 1107.829815
v 28675.943473 117043.610075 1047.829815
v 28560.872963 117077.650899 1047.171819
v 28675.943473 117043.610075 1107.829815
v 28791.013984 117009.569251 1108.639883
v 28791.013984 117009.569251 1048.639883
v 28675.943473 117043.610075 1047.829815
v 28791.013984 117009.569251 1108.639883
v 28906.084494 116975.528427 1108.856054
v 28906.084494 116975.528427 1048.856054
v 28791.013984 117009.569251 1048.639883
v 28906.084494 116975.528427 1108.856054
v 29021.155004 116941.487604 1109.443618
v 29021.155004 116941.487604 1049.443618
v 28906.084494 116975.528427 1048.856054
v 29021.155004 116941.487604 1109.443618
v 29136.225514 116907.446780 1110.179883
v 29136.225514 116907.446780 1050.179883
v 29021.155004 116941.487604 1049.443618
v 29136.225514 116907.446780 1110.179883
v 29251.296024 116873.405956 1110.289987
v 29251.296024 116873.405956 1050.289987
v 29136.225514 116907.446780 1050.179883
v 29251.296024 116873.405956 1110.289987
v 29366.366535 116839.365132 1055.326164
v 29366.366535 116839.365132 995.326164
v 29251.296024 116873.405956 1050.289987
v 29366.366535 116839.365132 1055.326164
v 29481.437045 116805.324308 948.992832
v 29481.437045 116805.324308 888.992832
v 29366.366535 116839.365132 995.326164
v 29481.437045 116805.324308 948.992832
v 29596.507555 116771.283485 1048.445516
v 29596.507555 116771.283485 988.445516
v 29481.437045 116805.324308 888.992832
v 29596.507555 116771.283485 1048.445516
v 28759.090078 116721.930998 1126.203664
v 28759.090078 116721.930998 1066.203664
v 29596.507555 116771.283485 988.445516
v 28759.090078 116721.930998 1126.203664
v 28752.937577 116719.088223 1127.059379
v 28752.937577 116719.088223 1067.059379
v 28759.090078 116721.930998 1066.203664
v 28752.937577 116719.088223 1127.059379
v 28854.728555 116782.638178 1119.851594
v 28854.728555 116782.638178 1059.851594
v 28752.937577 116719.088223 1067.059379
v 28854.728555 116782.638178 1119.851594
v 29038.154189 116890.748675 1113.628033
v 29038.154189 116890.748675 1053.628033
v 28854.728555 116782.638178 1059.851594
v 29038.154189 116890.748675 1113.628033
v 29144.227219 116946.860281 1109.775422
v 29144.227219 116946.860281 1049.775422
v 29038.154189 116890.748675 1053.628033
v 29144.227219 116946.860281 1109.775422
v 29250.300249 117002.971886 1109.346027
v 29250.300249 117002.971886 1049.346027
v 29144.227219 116946.860281 1049.775422
v 29250.300249 117002.971886 1109.346027
v 28721.018938 116431.728991 1108.916632
v 28721.018938 116431.728991 1048.916632
v 29250.300249 117002.971886 1049.346027
v 28721.018938 116431.728991 1108.916632
v 28736.016258 116468.811067 1108.773500
v 28736.016258 116468.811067 1048.773500
v 28721.018938 116431.728991 1048.916632
v 26531.436664 115190.747640 981.869480
v 26634.387950 115252.400155 983.258423
v 26634.387950 115252.400155 923.258423
v 26531.436664 115190.747640 921.869480
v 26634.387950 115252.400155 983.258423
v 26566.216934 115222.060297 982.749581
v 26566.216934 115222.060297 922.749581
v 26634.387950 115252.400155 923.258423
v 26566.216934 115222.060297 982.749581
v 26679.136322 115262.670786 983.464020
v 26679.136322 115262.670786 923.464020
v 26566.216934 115222.060297 922.749581
v 26679.136322 115262.670786 983.464020
v 26792.055710 115303.281275 983.080151
v 26792.055710 115303.281275 923.080151
v 26679.136322 115262.670786 923.464020
v 26792.055710 115303.281275 983.080151
v 26614.542812 115255.653024 983.629785
v 26614.542812 115255.653024 923.629785
v 26792.055710 115303.281275 923.080151
v 26614.542812 115255.653024 983.629785
v 26546.512368 115265.837483 983.427919
v 26546.512368 115265.837483 923.427919
v 26614.542812 115255.653024 923.629785
v 26546.512368 115265.837483 983.427919
v 26665.233566 115248.365306 983.635987
v 26665.233566 115248.365306 923.635987
v 26546.512368 115265.837483 923.427919
v 26665.233566 115248.365306 983.635987
v 26643.429071 115246.272922 983.450117
v 26643.429071 115246.272922 923.450117
v 26665.233566 115248.365306 923.635987
v 26643.429071 115246.272922 983.450117
v 26757.718738 115212.541025 982.942154
v 26757.718738 115212.541025 922.942154
v 26643.429071 115246.272922 923.450117
v 26757.718738 115212.541025 982.942154
v 26872.789249 115178.500201 983.199883
v 26872.789249 115178.500201 923.199883
v 26757.718738 115212.541025 922.942154
v 26872.789249 115178.500201 983.199883
v 26987.859759 115144.459377 981.910386
v 26987.859759 115144.459377 921.910386
v 26872.789249 115178.500201 923.199883
v 26987.859759 115144.459377 981.910386
v 27102.930269 115110.418554 981.245785
v 27102.930269 115110.418554 921.245785
v 26987.859759 115144.459377 921.910386
v 27102.930269 115110.418554 981.245785
v 27218.000779 115076.377730 981.953819
v 27218.000779 115076.377730 921.953819
v 27102.930269 115110.418554 921.245785
v 27218.000779 115076.377730 981.953819
v 27333.071289 115042.336906 982.609815
v 27333.071289 115042.336906 922.609815
v 27218.000779 115076.377730 921.953819
v 27333.071289 115042.336906 982.609815
v 27448.141800 115008.296082 982.959919
v 27448.141800 115008.296082 922.959919
v 27333.071289 115042.336906 922.609815
v 27448.141800 115008.296082 982.959919
v 27563.212310 114974.255258 983.257919
v 27563.212310 114974.255258 923.257919
v 27448.141800 115008.296082 922.959919
v 27563.212310 114974.255258 983.257919
v 27678.282820 114940.214434 983.545919
v 27678.282820 114940.214434 923.545919
v 27563.212310 114974.255258 923.257919
v 27678.282820 114940.214434 983.545919
v 27793.353330 114906.173611 982.820486
v 27793.353330 114906.173611 922.820486
v 27678.282820 114940.214434 923.545919
v 27793.353330 114906.173611 982.820486
v 27908.423840 114872.132787 981.632255
v 27908.423840 114872.132787 921.632255
v 27793.353330 114906.173611 922.820486
v 27908.423840 114872.132787 981.632255
v 28023.494350 114838.091963 984.129111
v 28023.494350 114838.091963 924.129111
v 27908.423840 114872.132787 921.632255
v 28023.494350 114838.091963 984.129111
v 28138.564861 114804.051139 987.338876
v 28138.564861 114804.051139 927.338876
v 28023.494350 114838.091963 924.129111
v 28138.564861 114804.051139 987.338876
v 28253.635371 114770.010315 991.674611
v 28253.635371 114770.010315 931.674611
v 28138.564861 114804.051139 927.338876
v 28253.635371 114770.010315 991.674611
v 28368.705881 114735.969492 997.062376
v 28368.705881 114735.969492 937.062376
v 28253.635371 114770.010315 931.674611
v 28368.705881 114735.969492 997.062376
v 28483.776391 114701.928668 1002.798406
v 28483.776391 114701.928668 942.798406
v 28368.705881 114735.969492 937.062376
v 28483.776391 114701.928668 1002.798406
v 28598.846901 114667.887844 1008.488410
v 28598.846901 114667.887844 948.488410
v 28483.776391 114701.928668 942.798406
v 28598.846901 114667.887844 1008.488410
v 28713.917412 114633.847020 1013.047651
v 28713.917412 114633.847020 953.047651
v 28598.846901 114667.887844 948.488410
v 28713.917412 114633.847020 1013.047651
v 28828.987922 114599.806196 1012.900822
v 28828.987922 114599.806196 952.900822
v 28713.917412 114633.847020 953.047651
v 28828.987922 114599.806196 1012.900822
v 28944.058432 114565.765373 1060.926310
v 28944.058432 114565.765373 1000.926310
v 28828.987922 114599.806196 952.900822
v 28944.058432 114565.765373 1060.926310
v 29781.559427 114661.698869 1095.121517
v 29781.559427 114661.698869 1035.121517
v 28944.058432 114565.765373 1000.926310
v 29781.559427 114661.698869 1095.121517
v 29970.978384 114768.094479 1095.360017
v 29970.978384 114768.094479 1035.360017
v 29781.559427 114661.698869 1035.121517
v 29970.978384 114768.094479 1095.360017
v 30072.769362 114831.644434 1084.413003
v 30072.769362 114831.644434 1024.413003
v 29970.978384 114768.094479 1035.360017
v 30072.769362 114831.644434 1084.413003
v 30113.626627 114857.682264 1076.466658
v 30113.626627 114857.682264 1016.466658
v 30072.769362 114831.644434 1024.413003
v 30113.626627 114857.682264 1076.466658
v 30219.699658 114913.793869 1075.746825
v 30219.699658 114913.793869 1015.746825
v 30113.626627 114857.682264 1016.466658
v 30219.699658 114913.793869 1075.746825
v 30325.772688 114969.905475 1076.660987
v 30325.772688 114969.905475 1016.660987
v 30219.699658 114913.793869 1015.746825
v 30325.772688 114969.905475 1076.660987
v 30853.238318 115569.383054 1077.575149
v 30853.238318 115569.383054 1017.575149
v 30325.772688 114969.905475 1016.660987
v 30853.238318 115569.383054 1077.575149
v 30868.235639 115606.465131 1077.879869
v 30868.235639 115606.465131 1017.879869
v 30853.238318 115569.383054 1017.575149
vt 126.748817 5.051850
vt 128.290130 6.530849
vt 128.804887 6.534089
vt 127.263574 5.153902
vt 128.290130 6.530849
vt 131.064493 6.530849
vt 131.579250 6.534089
vt 128.804887 6.534089
vt 131.064493 6.530849
vt 132.657183 4.909347
vt 133.171940 4.916292
vt 131.579250 6.534089
vt 127.263574 5.153902
vt 128.804887 6.534089
vt 129.954508 6.538348
vt 128.939246 5.398821
vt 128.804887 6.534089
vt 131.579250 6.534089
vt 131.781980 6.538348
vt 129.954508 6.538348
vt 131.579250 6.534089
vt 133.171940 4.916292
vt 132.831085 4.913748
vt 131.781980 6.538348
vt 128.939246 5.398821
vt 129.954508 6.538348
vt 130.519105 6.556612
vt 129.503843 5.501092
vt 129.954508 6.538348
vt 131.781980 6.538348
vt 132.346577 6.556612
vt 130.519105 6.556612
vt 131.781980 6.538348
vt 132.831085 4.913748
vt 133.395682 4.917320
vt 132.346577 6.556612
vt 129.503843 5.501092
vt 130.519105 6.556612
vt 131.083702 6.599686
vt 130.068440 5.553592
vt 130.519105 6.556612
vt 132.346577 6.556612
vt 132.911174 6.599686
vt 131.083702 6.599686
vt 132.346577 6.556612
vt 133.395682 4.917320
vt 133.960279 4.915401
vt 132.911174 6.599686
vt 130.068440 5.553592
vt 131.083702 6.599686
vt 132.715023 6.613148
vt 132.588779 5.552652
vt 131.083702 6.599686
vt 132.911174 6.599686
vt 132.942262 6.613148
vt 132.715023 6.613148
vt 132.911174 6.599686
vt 133.960279 4.915401
vt 133.072714 4.918149
vt 132.942262 6.613148
vt 132.588779 5.552652
vt 132.715023 6.613148
vt 133.970174 6.606843
vt 134.406979 5.517840
vt 132.715023 6.613148
vt 132.942262 6.613148
vt 133.183926 6.606843
vt 133.970174 6.606843
vt 132.942262 6.613148
vt 133.072714 4.918149
vt 132.732562 4.917140
vt 133.183926 6.606843
vt 134.406979 5.517840
vt 133.970174 6.606843
vt 134.563780 6.597083
vt 135.000585 5.516481
vt 133.970174 6.606843
vt 133.183926 6.606843
vt 133.777532 6.597083
vt 134.563780 6.597083
vt 133.183926 6.606843
vt 132.732562 4.917140
vt 133.326168 4.918180
vt 133.777532 6.597083
vt 135.000585 5.516481
vt 134.563780 6.597083
vt 135.621552 6.608141
vt 136.470167 5.514350
vt 134.563780 6.597083
vt 133.777532 6.597083
vt 134.094047 6.608141
vt 135.621552 6.608141
vt 133.777532 6.597083
vt 133.326168 4.918180
vt 133.217145 4.917251
vt 134.094047 6.608141
vt 136.470167 5.514350
vt 135.621552 6.608141
vt 136.199819 6.610813
vt 137.050839 5.515809
vt 135.621552 6.608141
vt 134.094047 6.608141
vt 134.667982 6.610813
vt 136.199819 6.610813
vt 134.094047 6.608141
vt 133.217145 4.917251
vt 133.788594 4.914711
vt 134.667982 6.610813
vt 137.050839 5.515809
vt 136.199819 6.610813
vt 136.775171 6.597504
vt 137.626192 5.517500
vt 136.199819 6.610813
vt 134.667982 6.610813
vt 135.243334 6.597504
vt 136.775171 6.597504
vt 134.667982 6.610813
vt 133.788594 4.914711
vt 134.363946 4.915999
vt 135.243334 6.597504
vt 137.626192 5.517500
vt 136.775171 6.597504
vt 137.350524 6.581455
vt 138.201544 5.517849
vt 136.775171 6.597504
vt 135.243334 6.597504
vt 135.818687 6.581455
vt 137.350524 6.581455
vt 135.243334 6.597504
vt 134.363946 4.915999
vt 134.939299 4.909552
vt 135.818687 6.581455
vt 138.201544 5.517849
vt 137.350524 6.581455
vt 137.925876 6.565734
vt 138.776897 5.520730
vt 137.350524 6.581455
vt 135.818687 6.581455
vt 136.394039 6.565734
vt 137.925876 6.565734
vt 135.818687 6.581455
vt 134.939299 4.909552
vt 135.514651 4.906229
vt 136.394039 6.565734
vt 138.776897 5.520730
vt 137.925876 6.565734
vt 138.501229 6.537482
vt 139.352250 5.521870
vt 137.925876 6.565734
vt 136.394039 6.565734
vt 136.969392 6.537482
vt 138.501229 6.537482
vt 136.394039 6.565734
vt 135.514651 4.906229
vt 136.090004 4.909769
vt 136.969392 6.537482
vt 139.352250 5.521870
vt 138.501229 6.537482
vt 139.076581 6.515553
vt 139.927602 5.523350
vt 138.501229 6.537482
vt 136.969392 6.537482
vt 137.544744 6.515553
vt 139.076581 6.515553
vt 136.969392 6.537482
vt 136.090004 4.909769
vt 136.665356 4.913049
vt 137.544744 6.515553
vt 139.927602 5.523350
vt 139.076581 6.515553
vt 139.651934 6.504803
vt 140.502955 5.526799
vt 139.076581 6.515553
vt 137.544744 6.515553
vt 138.120097 6.504803
vt 139.651934 6.504803
vt 137.544744 6.515553
vt 136.665356 4.913049
vt 137.240709 4.914800
vt 138.120097 6.504803
vt 140.502955 5.526799
vt 139.651934 6.504803
vt 140.227287 6.494694
vt 141.078307 5.529690
vt 139.651934 6.504803
vt 138.120097 6.504803
vt 138.695449 6.494694
vt 140.227287 6.494694
vt 138.120097 6.504803
vt 137.240709 4.914800
vt 137.816062 4.916290
vt 138.695449 6.494694
vt 141.078307 5.529690
vt 140.227287 6.494694
vt 140.802639 6.481333
vt 141.653660 5.531529
vt 140.227287 6.494694
vt 138.695449 6.494694
vt 139.270802 6.481333
vt 140.802639 6.481333
vt 138.695449 6.494694
vt 137.816062 4.916290
vt 138.391414 4.917730
vt 139.270802 6.481333
vt 141.653660 5.531529
vt 140.802639 6.481333
vt 141.377992 6.470503
vt 142.229012 5.533600
vt 140.802639 6.481333
vt 139.270802 6.481333
vt 139.846155 6.470503
vt 141.377992 6.470503
vt 139.270802 6.481333
vt 138.391414 4.917730
vt 138.966767 4.914102
vt 139.846155 6.470503
vt 142.229012 5.533600
vt 141.377992 6.470503
vt 141.953344 6.465761
vt 142.804365 5.535859
vt 141.377992 6.470503
vt 139.846155 6.470503
vt 140.421507 6.465761
vt 141.953344 6.465761
vt 139.846155 6.470503
vt 138.966767 4.914102
vt 139.542119 4.908161
vt 140.421507 6.465761
vt 142.804365 5.535859
vt 141.953344 6.465761
vt 142.528697 6.475647
vt 143.379717 5.539149
vt 141.953344 6.465761
vt 140.421507 6.465761
vt 140.996860 6.475647
vt 142.528697 6.475647
vt 140.421507 6.465761
vt 139.542119 4.908161
vt 140.117472 4.920646
vt 140.996860 6.475647
vt 143.379717 5.539149
vt 142.528697 6.475647
vt 143.104049 6.500492
vt 143.955070 5.543199
vt 142.528697 6.475647
vt 140.996860 6.475647
vt 141.572212 6.500492
vt 143.104049 6.500492
vt 140.996860 6.475647
vt 140.117472 4.920646
vt 140.692824 4.936694
vt 141.572212 6.500492
vt 143.955070 5.543199
vt 143.104049 6.500492
vt 143.679402 6.528172
vt 144.530422 5.544280
vt 143.104049 6.500492
vt 141.572212 6.500492
vt 142.147565 6.528172
vt 143.679402 6.528172
vt 141.572212 6.500492
vt 140.692824 4.936694
vt 141.268177 4.958373
vt 142.147565 6.528172
vt 144.530422 5.544280
vt 143.679402 6.528172
vt 144.254754 6.552114
vt 145.105775 5.547218
vt 143.679402 6.528172
vt 142.147565 6.528172
vt 142.722917 6.552114
vt 144.254754 6.552114
vt 142.147565 6.528172
vt 141.268177 4.958373
vt 141.843529 4.985312
vt 142.722917 6.552114
vt 145.105775 5.547218
vt 144.254754 6.552114
vt 144.830107 6.563998
vt 145.681128 5.550899
vt 144.254754 6.552114
vt 142.722917 6.552114
vt 143.298270 6.563998
vt 144.830107 6.563998
vt 142.722917 6.552114
vt 141.843529 4.985312
vt 142.418882 5.013992
vt 143.298270 6.563998
vt 145.681128 5.550899
vt 144.830107 6.563998
vt 145.405460 6.565950
vt 146.256480 5.551450
vt 144.830107 6.563998
vt 143.298270 6.563998
vt 143.873622 6.565950
vt 145.405460 6.565950
vt 143.298270 6.563998
vt 142.418882 5.013992
vt 142.994235 5.042442
vt 143.873622 6.565950
vt 146.256480 5.551450
vt 145.405460 6.565950
vt 145.980812 6.572131
vt 146.831833 5.276631
vt 145.405460 6.565950
vt 143.873622 6.565950
vt 144.448975 6.572131
vt 145.980812 6.572131
vt 143.873622 6.565950
vt 142.994235 5.042442
vt 143.569587 5.065238
vt 144.448975 6.572131
vt 146.831833 5.276631
vt 145.980812 6.572131
vt 146.556165 6.595599
vt 147.407185 4.744964
vt 145.980812 6.572131
vt 144.448975 6.572131
vt 145.024328 6.595599
vt 146.556165 6.595599
vt 144.448975 6.572131
vt 143.569587 5.065238
vt 144.144940 5.064504
vt 145.024328 6.595599
vt 147.407185 4.744964
vt 146.556165 6.595599
vt 147.131517 6.599469
vt 147.982538 5.242228
vt 146.556165 6.595599
vt 145.024328 6.595599
vt 145.599680 6.599469
vt 147.131517 6.599469
vt 145.024328 6.595599
vt 144.144940 5.064504
vt 144.720292 5.304632
vt 145.599680 6.599469
vt 147.982538 5.242228
vt 147.131517 6.599469
vt 145.129106 6.606507
vt 143.795450 5.631018
vt 147.131517 6.599469
vt 145.599680 6.599469
vt 147.529686 6.606507
vt 145.129106 6.606507
vt 145.599680 6.599469
vt 144.720292 5.304632
vt 148.907797 5.475608
vt 147.529686 6.606507
vt 143.795450 5.631018
vt 145.129106 6.606507
vt 145.353437 6.582808
vt 143.764688 5.635297
vt 145.129106 6.606507
vt 147.529686 6.606507
vt 148.213185 6.582808
vt 145.353437 6.582808
vt 147.529686 6.606507
vt 148.907797 5.475608
vt 149.854892 5.476800
vt 148.213185 6.582808
vt 143.764688 5.635297
vt 145.353437 6.582808
vt 145.862392 6.592148
vt 144.273643 5.599258
vt 145.353437 6.582808
vt 148.213185 6.582808
vt 148.722140 6.592148
vt 145.862392 6.592148
vt 148.213185 6.582808
vt 149.854892 5.476800
vt 150.363847 5.422065
vt 148.722140 6.592148
vt 144.273643 5.599258
vt 145.862392 6.592148
vt 146.593561 6.595431
vt 145.190771 5.568140
vt 145.862392 6.592148
vt 148.722140 6.592148
vt 149.118583 6.595431
vt 146.593561 6.595431
vt 148.722140 6.592148
vt 150.363847 5.422065
vt 150.568133 5.382333
vt 149.118583 6.595431
vt 145.190771 5.568140
vt 146.593561 6.595431
vt 147.123926 6.591394
vt 145.721136 5.548877
vt 146.593561 6.595431
vt 149.118583 6.595431
vt 149.648948 6.591394
vt 147.123926 6.591394
vt 149.118583 6.595431
vt 150.568133 5.382333
vt 151.098498 5.378734
vt 149.648948 6.591394
vt 145.721136 5.548877
vt 147.123926 6.591394
vt 147.654291 6.587279
vt 146.251501 5.546730
vt 147.123926 6.591394
vt 149.648948 6.591394
vt 150.179314 6.587279
vt 147.654291 6.587279
vt 149.648948 6.591394
vt 151.098498 5.378734
vt 151.628863 5.383305
vt 150.179314 6.587279
vt 146.251501 5.546730
vt 147.654291 6.587279
vt 146.386250 6.583164
vt 143.605095 5.544583
vt 147.654291 6.587279
vt 150.179314 6.587279
vt 151.392331 6.583164
vt 146.386250 6.583164
vt 150.179314 6.587279
vt 151.628863 5.383305
vt 154.266192 5.387876
vt 151.392331 6.583164
vt 143.605095 5.544583
vt 146.386250 6.583164
vt 146.461237 6.581793
vt 143.680081 5.543867
vt 146.386250 6.583164
vt 151.392331 6.583164
vt 151.467317 6.581793
vt 146.461237 6.581793
vt 151.392331 6.583164
vt 154.266192 5.387876
vt 154.341178 5.389399
vt 151.467317 6.581793
vt 126.748817 5.051850
vt 128.290130 6.530849
vt 128.290130 6.230849
vt 126.748817 4.751850
vt 128.290130 6.530849
vt 131.064493 6.530849
vt 131.064493 6.230849
vt 128.290130 6.230849
vt 131.064493 6.530849
vt 132.657183 4.909347
vt 132.657183 4.609347
vt 131.064493 6.230849
vt 143.680081 5.243867
vt 146.461237 6.281793
vt 146.461237 6.581793
vt 143.680081 5.543867
vt 146.461237 6.281793
vt 151.467317 6.281793
vt 151.467317 6.581793
vt 146.461237 6.581793
vt 151.467317 6.281793
vt 154.341178 5.089399
vt 154.341178 5.389399
vt 151.467317 6.581793
vt 126.748817 5.051850
vt 127.263574 5.153902
vt 127.263574 4.853902
vt 126.748817 4.751850
vt 127.263574 5.153902
vt 128.939246 5.398821
vt 128.939246 5.098821
vt 127.263574 4.853902
vt 128.939246 5.398821
vt 129.503843 5.501092
vt 129.503843 5.201092
vt 128.939246 5.098821
vt 129.503843 5.501092
vt 130.068440 5.553592
vt 130.068440 5.253592
vt 129.503843 5.201092
vt 130.068440 5.553592
vt 132.588779 5.552652
vt 132.588779 5.252652
vt 130.068440 5.253592
vt 132.588779 5.552652
vt 134.406979 5.517840
vt 134.406979 5.217840
vt 132.588779 5.252652
vt 134.406979 5.517840
vt 135.000585 5.516481
vt 135.000585 5.216481
vt 134.406979 5.217840
vt 135.000585 5.516481
vt 136.470167 5.514350
vt 136.470167 5.214350
vt 135.000585 5.216481
vt 136.470167 5.514350
vt 137.050839 5.515809
vt 137.050839 5.215809
vt 136.470167 5.214350
vt 137.050839 5.515809
vt 137.626192 5.517500
vt 137.626192 5.217500
vt 137.050839 5.215809
vt 137.626192 5.517500
vt 138.201544 5.517849
vt 138.201544 5.217849
vt 137.626192 5.217500
vt 138.201544 5.517849
vt 138.776897 5.520730
vt 138.776897 5.220730
vt 138.201544 5.217849
vt 138.776897 5.520730
vt 139.352250 5.521870
vt 139.352250 5.221870
vt 138.776897 5.220730
vt 139.352250 5.521870
vt 139.927602 5.523350
vt 139.927602 5.223350
vt 139.352250 5.221870
vt 139.927602 5.523350
vt 140.502955 5.526799
vt 140.502955 5.226799
vt 139.927602 5.223350
vt 140.502955 5.526799
vt 141.078307 5.529690
vt 141.078307 5.229690
vt 140.502955 5.226799
vt 141.078307 5.529690
vt 141.653660 5.531529
vt 141.653660 5.231529
vt 141.078307 5.229690
vt 141.653660 5.531529
vt 142.229012 5.533600
vt 142.229012 5.233600
vt 141.653660 5.231529
vt 142.229012 5.533600
vt 142.804365 5.535859
vt 142.804365 5.235859
vt 142.229012 5.233600
vt 142.804365 5.535859
vt 143.379717 5.539149
vt 143.379717 5.239149
vt 142.804365 5.235859
vt 143.379717 5.539149
vt 143.955070 5.543199
vt 143.955070 5.243199
vt 143.379717 5.239149
vt 143.955070 5.543199
vt 144.530422 5.544280
vt 144.530422 5.244280
vt 143.955070 5.243199
vt 144.530422 5.544280
vt 145.105775 5.547218
vt 145.105775 5.247218
vt 144.530422 5.244280
vt 145.105775 5.547218
vt 145.681128 5.550899
vt 145.681128 5.250899
vt 145.105775 5.247218
vt 145.681128 5.550899
vt 146.256480 5.551450
vt 146.256480 5.251450
vt 145.681128 5.250899
vt 146.256480 5.551450
vt 146.831833 5.276631
vt 146.831833 4.976631
vt 146.256480 5.251450
vt 146.831833 5.276631
vt 147.407185 4.744964
vt 147.407185 4.444964
vt 146.831833 4.976631
vt 147.407185 4.744964
vt 147.982538 5.242228
vt 147.982538 4.942228
vt 147.407185 4.444964
vt 147.982538 5.242228
vt 143.795450 5.631018
vt 143.795450 5.331018
vt 147.982538 4.942228
vt 143.795450 5.631018
vt 143.764688 5.635297
vt 143.764688 5.335297
vt 143.795450 5.331018
vt 143.764688 5.635297
vt 144.273643 5.599258
vt 144.273643 5.299258
vt 143.764688 5.335297
vt 144.273643 5.599258
vt 145.190771 5.568140
vt 145.190771 5.268140
vt 144.273643 5.299258
vt 145.190771 5.568140
vt 145.721136 5.548877
vt 145.721136 5.248877
vt 145.190771 5.268140
vt 145.721136 5.548877
vt 146.251501 5.546730
vt 146.251501 5.246730
vt 145.721136 5.248877
vt 146.251501 5.546730
vt 143.605095 5.544583
vt 143.605095 5.244583
vt 146.251501 5.246730
vt 143.605095 5.544583
vt 143.680081 5.543867
vt 143.680081 5.243867
vt 143.605095 5.244583
vt 132.657183 4.909347
vt 133.171940 4.916292
vt 133.171940 4.616292
vt 132.657183 4.609347
vt 133.171940 4.916292
vt 132.831085 4.913748
vt 132.831085 4.613748
vt 133.171940 4.616292
vt 132.831085 4.913748
vt 133.395682 4.917320
vt 133.395682 4.617320
vt 132.831085 4.613748
vt 133.395682 4.917320
vt 133.960279 4.915401
vt 133.960279 4.615401
vt 133.395682 4.617320
vt 133.960279 4.915401
vt 133.072714 4.918149
vt 133.072714 4.618149
vt 133.960279 4.615401
vt 133.072714 4.918149
vt 132.732562 4.917140
vt 132.732562 4.617140
vt 133.072714 4.618149
vt 132.732562 4.917140
vt 133.326168 4.918180
vt 133.326168 4.618180
vt 132.732562 4.617140
vt 133.326168 4.918180
vt 133.217145 4.917251
vt 133.217145 4.617251
vt 133.326168 4.618180
vt 133.217145 4.917251
vt 133.788594 4.914711
vt 133.788594 4.614711
vt 133.217145 4.617251
vt 133.788594 4.914711
vt 134.363946 4.915999
vt 134.363946 4.615999
vt 133.788594 4.614711
vt 134.363946 4.915999
vt 134.939299 4.909552
vt 134.939299 4.609552
vt 134.363946 4.615999
vt 134.939299 4.909552
vt 135.514651 4.906229
vt 135.514651 4.606229
vt 134.939299 4.609552
vt 135.514651 4.906229
vt 136.090004 4.909769
vt 136.090004 4.609769
vt 135.514651 4.606229
vt 136.090004 4.909769
vt 136.665356 4.913049
vt 136.665356 4.613049
vt 136.090004 4.609769
vt 136.665356 4.913049
vt 137.240709 4.914800
vt 137.240709 4.614800
vt 136.665356 4.613049
vt 137.240709 4.914800
vt 137.816062 4.916290
vt 137.816062 4.616290
vt 137.240709 4.614800
vt 137.816062 4.916290
vt 138.391414 4.917730
vt 138.391414 4.617730
vt 137.816062 4.616290
vt 138.391414 4.917730
vt 138.966767 4.914102
vt 138.966767 4.614102
vt 138.391414 4.617730
vt 138.966767 4.914102
vt 139.542119 4.908161
vt 139.542119 4.608161
vt 138.966767 4.614102
vt 139.542119 4.908161
vt 140.117472 4.920646
vt 140.117472 4.620646
vt 139.542119 4.608161
vt 140.117472 4.920646
vt 140.692824 4.936694
vt 140.692824 4.636694
vt 140.117472 4.620646
vt 140.692824 4.936694
vt 141.268177 4.958373
vt 141.268177 4.658373
vt 140.692824 4.636694
vt 141.268177 4.958373
vt 141.843529 4.985312
vt 141.843529 4.685312
vt 141.268177 4.658373
vt 141.843529 4.985312
vt 142.418882 5.013992
vt 142.418882 4.713992
vt 141.843529 4.685312
vt 142.418882 5.013992
vt 142.994235 5.042442
vt 142.994235 4.742442
vt 142.418882 4.713992
vt 142.994235 5.042442
vt 143.569587 5.065238
vt 143.569587 4.765238
vt 142.994235 4.742442
vt 143.569587 5.065238
vt 144.144940 5.064504
vt 144.144940 4.764504
vt 143.569587 4.765238
vt 144.144940 5.064504
vt 144.720292 5.304632
vt 144.720292 5.004632
vt 144.144940 4.764504
vt 144.720292 5.304632
vt 148.907797 5.475608
vt 148.907797 5.175608
vt 144.720292 5.004632
vt 148.907797 5.475608
vt 149.854892 5.476800
vt 149.854892 5.176800
vt 148.907797 5.175608
vt 149.854892 5.476800
vt 150.363847 5.422065
vt 150.363847 5.122065
vt 149.854892 5.176800
vt 150.363847 5.422065
vt 150.568133 5.382333
vt 150.568133 5.082333
vt 150.363847 5.122065
vt 150.568133 5.382333
vt 151.098498 5.378734
vt 151.098498 5.078734
vt 150.568133 5.082333
vt 151.098498 5.378734
vt 151.628863 5.383305
vt 151.628863 5.083305
vt 151.098498 5.078734
vt 151.628863 5.383305
vt 154.266192 5.387876
vt 154.266192 5.087876
vt 151.628863 5.083305
vt 154.266192 5.387876
vt 154.341178 5.389399
vt 154.341178 5.089399
vt 154.266192 5.087876
f 3/3 2/2 1/1
f 4/4 3/3 1/1
f 7/7 6/6 5/5
f 8/8 7/7 5/5
f 11/11 10/10 9/9
f 12/12 11/11 9/9
f 15/15 14/14 13/13
f 16/16 15/15 13/13
f 19/19 18/18 17/17
f 20/20 19/19 17/17
f 23/23 22/22 21/21
f 24/24 23/23 21/21
f 27/27 26/26 25/25
f 28/28 27/27 25/25
f 31/31 30/30 29/29
f 32/32 31/31 29/29
f 35/35 34/34 33/33
f 36/36 35/35 33/33
f 39/39 38/38 37/37
f 40/40 39/39 37/37
f 43/43 42/42 41/41
f 44/44 43/43 41/41
f 47/47 46/46 45/45
f 48/48 47/47 45/45
f 51/51 50/50 49/49
f 52/52 51/51 49/49
f 55/55 54/54 53/53
f 56/56 55/55 53/53
f 59/59 58/58 57/57
f 60/60 59/59 57/57
f 63/63 62/62 61/61
f 64/64 63/63 61/61
f 67/67 66/66 65/65
f 68/68 67/67 65/65
f 71/71 70/70 69/69
f 72/72 71/71 69/69
f 75/75 74/74 73/73
f 76/76 75/75 73/73
f 79/79 78/78 77/77
f 80/80 79/79 77/77
f 83/83 82/82 81/81
f 84/84 83/83 81/81
f 87/87 86/86 85/85
f 88/88 87/87 85/85
f 91/91 90/90 89/89
f 92/92 91/91 89/89
f 95/95 94/94 93/93
f 96/96 95/95 93/93
f 99/99 98/98 97/97
f 100/100 99/99 97/97
f 103/103 102/102 101/101
f 104/104 103/103 101/101
f 107/107 106/106 105/105
f 108/108 107/107 105/105
f 111/111 110/110 109/109
f 112/112 111/111 109/109
f 115/115 114/114 113/113
f 116/116 115/115 113/113
f 119/119 118/118 117/117
f 120/120 119/119 117/117
f 123/123 122/122 121/121
f 124/124 123/123 121/121
f 127/127 126/126 125/125
f 128/128 127/127 125/125
f 131/131 130/130 129/129
f 132/132 131/131 129/129
f 135/135 134/134 133/133
f 136/136 135/135 133/133
f 139/139 138/138 137/137
f 140/140 139/139 137/137
f 143/143 142/142 141/141
f 144/144 143/143 141/141
f 147/147 146/146 145/145
f 148/148 147/147 145/145
f 151/151 150/150 149/149
f 152/152 151/151 149/149
f 155/155 154/154 153/153
f 156/156 155/155 153/153
f 159/159 158/158 157/157
f 160/160 159/159 157/157
f 163/163 162/162 161/161
f 164/164 163/163 161/161
f 167/167 166/166 165/165
f 168/168 167/167 165/165
f 171/171 170/170 169/169
f 172/172 171/171 169/169
f 175/175 174/174 173/173
f 176/176 175/175 173/173
f 179/179 178/178 177/177
f 180/180 179/179 177/177
f 183/183 182/182 181/181
f 184/184 183/183 181/181
f 187/187 186/186 185/185
f 188/188 187/187 185/185
f 191/191 190/190 189/189
f 192/192 191/191 189/189
f 195/195 194/194 193/193
f 196/196 195/195 193/193
f 199/199 198/198 197/197
f 200/200 199/199 197/197
f 203/203 202/202 201/201
f 204/204 203/203 201/201
f 207/207 206/206 205/205
f 208/208 207/207 205/205
f 211/211 210/210 209/209
f 212/212 211/211 209/209
f 215/215 214/214 213/213
f 216/216 215/215 213/213
f 219/219 218/218 217/217
f 220/220 219/219 217/217
f 223/223 222/222 221/221
f 224/224 223/223 221/221
f 227/227 226/226 225/225
f 228/228 227/227 225/225
f 231/231 230/230 229/229
f 232/232 231/231 229/229
f 235/235 234/234 233/233
f 236/236 235/235 233/233
f 239/239 238/238 237/237
f 240/240 239/239 237/237
f 243/243 242/242 241/241
f 244/244 243/243 241/241
f 247/247 246/246 245/245
f 248/248 247/247 245/245
f 251/251 250/250 249/249
f 252/252 251/251 249/249
f 255/255 254/254 253/253
f 256/256 255/255 253/253
f 259/259 258/258 257/257
f 260/260 259/259 257/257
f 263/263 262/262 261/261
f 264/264 263/263 261/261
f 267/267 266/266 265/265
f 268/268 267/267 265/265
f 271/271 270/270 269/269
f 272/272 271/271 269/269
f 275/275 274/274 273/273
f 276/276 275/275 273/273
f 279/279 278/278 277/277
f 280/280 279/279 277/277
f 283/283 282/282 281/281
f 284/284 283/283 281/281
f 287/287 286/286 285/285
f 288/288 287/287 285/285
f 291/291 290/290 289/289
f 292/292 291/291 289/289
f 295/295 294/294 293/293
f 296/296 295/295 293/293
f 299/299 298/298 297/297
f 300/300 299/299 297/297
f 303/303 302/302 301/301
f 304/304 303/303 301/301
f 307/307 306/306 305/305
f 308/308 307/307 305/305
f 311/311 310/310 309/309
f 312/312 311/311 309/309
f 315/315 314/314 313/313
f 316/316 315/315 313/313
f 319/319 318/318 317/317
f 320/320 319/319 317/317
f 323/323 322/322 321/321
f 324/324 323/323 321/321
f 327/327 326/326 325/325
f 328/328 327/327 325/325
f 331/331 330/330 329/329
f 332/332 331/331 329/329
f 335/335 334/334 333/333
f 336/336 335/335 333/333
f 339/339 338/338 337/337
f 340/340 339/339 337/337
f 343/343 342/342 341/341
f 344/344 343/343 341/341
f 347/347 346/346 345/345
f 348/348 347/347 345/345
f 351/351 350/350 349/349
f 352/352 351/351 349/349
f 355/355 354/354 353/353
f 356/356 355/355 353/353
f 359/359 358/358 357/357
f 360/360 359/359 357/357
f 363/363 362/362 361/361
f 364/364 363/363 361/361
f 367/367 366/366 365/365
f 368/368 367/367 365/365
f 371/371 370/370 369/369
f 372/372 371/371 369/369
f 375/375 374/374 373/373
f 376/376 375/375 373/373
f 379/379 378/378 377/377
f 380/380 379/379 377/377
f 383/383 382/382 381/381
f 384/384 383/383 381/381
f 387/387 386/386 385/385
f 388/388 387/387 385/385
f 391/391 390/390 389/389
f 392/392 391/391 389/389
f 395/395 394/394 393/393
f 396/396 395/395 393/393
f 399/399 398/398 397/397
f 400/400 399/399 397/397
f 403/403 402/402 401/401
f 404/404 403/403 401/401
f 407/407 406/406 405/405
f 408/408 407/407 405/405
f 411/411 410/410 409/409
f 412/412 411/411 409/409
f 415/415 414/414 413/413
f 416/416 415/415 413/413
f 419/419 418/418 417/417
f 420/420 419/419 417/417
f 423/423 422/422 421/421
f 424/424 423/423 421/421
f 427/427 426/426 425/425
f 428/428 427/427 425/425
f 431/431 430/430 429/429
f 432/432 431/431 429/429
f 435/435 434/434 433/433
f 436/436 435/435 433/433
f 439/439 438/438 437/437
f 440/440 439/439 437/437
f 443/443 442/442 441/441
f 444/444 443/443 441/441
f 447/447 446/446 445/445
f 448/448 447/447 445/445
f 451/451 450/450 449/449
f 452/452 451/451 449/449
f 455/455 454/454 453/453
f 456/456 455/455 453/453
f 459/459 458/458 457/457
f 460/460 459/459 457/457
f 463/463 462/462 461/461
f 464/464 463/463 461/461
f 467/467 466/466 465/465
f 468/468 467/467 465/465
f 471/471 470/470 469/469
f 472/472 471/471 469/469
f 475/475 474/474 473/473
f 476/476 475/475 473/473
f 479/479 478/478 477/477
f 480/480 479/479 477/477
f 483/483 482/482 481/481
f 484/484 483/483 481/481
f 487/487 486/486 485/485
f 488/488 487/487 485/485
f 491/491 490/490 489/489
f 492/492 491/491 489/489
f 495/495 494/494 493/493
f 496/496 495/495 493/493
f 499/499 498/498 497/497
f 500/500 499/499 497/497
f 503/503 502/502 501/501
f 504/504 503/503 501/501
f 507/507 506/506 505/505
f 508/508 507/507 505/505
f 511/511 510/510 509/509
f 512/512 511/511 509/509
f 515/515 514/514 513/513
f 516/516 515/515 513/513
f 519/519 518/518 517/517
f 520/520 519/519 517/517
f 523/523 522/522 521/521
f 524/524 523/523 521/521
f 527/527 526/526 525/525
f 528/528 527/527 525/525
f 531/531 530/530 529/529
f 532/532 531/531 529/529
f 535/535 534/534 533/533
f 536/536 535/535 533/533
f 539/539 538/538 537/537
f 540/540 539/539 537/537
f 543/543 542/542 541/541
f 544/544 543/543 541/541
f 547/547 546/546 545/545
f 548/548 547/547 545/545
f 551/551 550/550 549/549
f 552/552 551/551 549/549
f 555/555 554/554 553/553
f 556/556 555/555 553/553
f 559/559 558/558 557/557
f 560/560 559/559 557/557
f 563/563 562/562 561/561
f 564/564 563/563 561/561
f 567/567 566/566 565/565
f 568/568 567/567 565/565
f 571/571 570/570 569/569
f 572/572 571/571 569/569
f 575/575 574/574 573/573
f 576/576 575/575 573/573
f 579/579 578/578 577/577
f 580/580 579/579 577/577
f 583/583 582/582 581/581
f 584/584 583/583 581/581
f 587/587 586/586 585/585
f 588/588 587/587 585/585
f 591/591 590/590 589/589
f 592/592 591/591 589/589
f 595/595 594/594 593/593
f 596/596 595/595 593/593
f 599/599 598/598 597/597
f 600/600 599/599 597/597
f 603/603 602/602 601/601
f 604/604 603/603 601/601
f 607/607 606/606 605/605
f 608/608 607/607 605/605
f 611/611 610/610 609/609
f 612/612 611/611 609/609
f 615/615 614/614 613/613
f 616/616 615/615 613/613
f 619/619 618/618 617/617
f 620/620 619/619 617/617
f 623/623 622/622 621/621
f 624/624 623/623 621/621
f 627/627 626/626 625/625
f 628/628 627/627 625/625
f 631/631 630/630 629/629
f 632/632 631/631 629/629
f 635/635 634/634 633/633
f 636/636 635/635 633/633
f 639/639 638/638 637/637
f 640/640 639/639 637/637
f 643/643 642/642 641/641
f 644/644 643/643 641/641
f 647/647 646/646 645/645
f 648/648 647/647 645/645
f 651/651 650/650 649/649
f 652/652 651/651 649/649
f 655/655 654/654 653/653
f 656/656 655/655 653/653
f 659/659 658/658 657/657
f 660/660 659/659 657/657
f 663/663 662/662 661/661
f 664/664 663/663 661/661
f 667/667 666/666 665/665
f 668/668 667/667 665/665
f 671/671 670/670 669/669
f 672/672 671/671 669/669
f 675/675 674/674 673/673
f 676/676 675/675 673/673
f 679/679 678/678 677/677
f 680/680 679/679 677/677
f 683/683 682/682 681/681
f 684/684 683/683 681/681
f 687/687 686/686 685/685
f 688/688 687/687 685/685
f 691/691 690/690 689/689
f 692/692 691/691 689/689
f 695/695 694/694 693/693
f 696/696 695/695 693/693
f 699/699 698/698 697/697
f 700/700 699/699 697/697
f 703/703 702/702 701/701
f 704/704 703/703 701/701
f 707/707 706/706 705/705
f 708/708 707/707 705/705
f 711/711 710/710 709/709
f 712/712 711/711 709/709
f 715/715 714/714 713/713
f 716/716 715/715 713/713
f 719/719 718/718 717/717
f 720/720 719/719 717/717
f 723/723 722/722 721/721
f 724/724 723/723 721/721
f 727/727 726/726 725/725
f 728/728 727/727 725/725
f 731/731 730/730 729/729
f 732/732 731/731 729/729
f 735/735 734/734 733/733
f 736/736 735/735 733/733
f 739/739 738/738 737/737
f 740/740 739/739 737/737
f 743/743 742/742 741/741
f 744/744 743/743 741/741
