# Authored cut-and-cover gallery Columns; ODbL route alignment
o KrogGallery_Columns
v 25956.859177 116340.960104 1268.601819
v 25925.973791 116322.464349 1268.601819
v 25907.478037 116353.349735 1268.601819
v 25938.363423 116371.845490 1268.601819
v 25938.363423 116371.845490 986.601819
v 25907.478037 116353.349735 986.601819
v 25925.973791 116322.464349 986.601819
v 25956.859177 116340.960104 986.601819
v 25938.363423 116371.845490 1268.601819
v 25938.363423 116371.845490 986.601819
v 25907.478037 116353.349735 986.601819
v 25907.478037 116353.349735 1268.601819
v 25907.478037 116353.349735 1268.601819
v 25907.478037 116353.349735 986.601819
v 25925.973791 116322.464349 986.601819
v 25925.973791 116322.464349 1268.601819
v 25925.973791 116322.464349 1268.601819
v 25925.973791 116322.464349 986.601819
v 25956.859177 116340.960104 986.601819
v 25956.859177 116340.960104 1268.601819
v 25956.859177 116340.960104 1268.601819
v 25956.859177 116340.960104 986.601819
v 25938.363423 116371.845490 986.601819
v 25938.363423 116371.845490 1268.601819
v 26262.218839 116475.117821 1273.322309
v 26228.343023 116462.934675 1273.322309
v 26216.159876 116496.810491 1273.322309
v 26250.035692 116508.993638 1273.322309
v 26250.035692 116508.993638 991.322309
v 26216.159876 116496.810491 991.322309
v 26228.343023 116462.934675 991.322309
v 26262.218839 116475.117821 991.322309
v 26250.035692 116508.993638 1273.322309
v 26250.035692 116508.993638 991.322309
v 26216.159876 116496.810491 991.322309
v 26216.159876 116496.810491 1273.322309
v 26216.159876 116496.810491 1273.322309
v 26216.159876 116496.810491 991.322309
v 26228.343023 116462.934675 991.322309
v 26228.343023 116462.934675 1273.322309
v 26228.343023 116462.934675 1273.322309
v 26228.343023 116462.934675 991.322309
v 26262.218839 116475.117821 991.322309
v 26262.218839 116475.117821 1273.322309
v 26262.218839 116475.117821 1273.322309
v 26262.218839 116475.117821 991.322309
v 26250.035692 116508.993638 991.322309
v 26250.035692 116508.993638 1273.322309
v 26618.543199 116538.958131 1284.250319
v 26582.575088 116537.443204 1284.250319
v 26581.060161 116573.411314 1284.250319
v 26617.028272 116574.926241 1284.250319
v 26617.028272 116574.926241 1002.250319
v 26581.060161 116573.411314 1002.250319
v 26582.575088 116537.443204 1002.250319
v 26618.543199 116538.958131 1002.250319
v 26617.028272 116574.926241 1284.250319
v 26617.028272 116574.926241 1002.250319
v 26581.060161 116573.411314 1002.250319
v 26581.060161 116573.411314 1284.250319
v 26581.060161 116573.411314 1284.250319
v 26581.060161 116573.411314 1002.250319
v 26582.575088 116537.443204 1002.250319
v 26582.575088 116537.443204 1284.250319
v 26582.575088 116537.443204 1284.250319
v 26582.575088 116537.443204 1002.250319
v 26618.543199 116538.958131 1002.250319
v 26618.543199 116538.958131 1284.250319
v 26618.543199 116538.958131 1284.250319
v 26618.543199 116538.958131 1002.250319
v 26617.028272 116574.926241 1002.250319
v 26617.028272 116574.926241 1284.250319
v 26984.968759 116482.136442 1281.448172
v 26950.439077 116492.319814 1281.448172
v 26960.622448 116526.849496 1281.448172
v 26995.152131 116516.666125 1281.448172
v 26995.152131 116516.666125 999.448172
v 26960.622448 116526.849496 999.448172
v 26950.439077 116492.319814 999.448172
v 26984.968759 116482.136442 999.448172
v 26995.152131 116516.666125 1281.448172
v 26995.152131 116516.666125 999.448172
v 26960.622448 116526.849496 999.448172
v 26960.622448 116526.849496 1281.448172
v 26960.622448 116526.849496 1281.448172
v 26960.622448 116526.849496 999.448172
v 26950.439077 116492.319814 999.448172
v 26950.439077 116492.319814 1281.448172
v 26950.439077 116492.319814 1281.448172
v 26950.439077 116492.319814 999.448172
v 26984.968759 116482.136442 999.448172
v 26984.968759 116482.136442 1281.448172
v 26984.968759 116482.136442 1281.448172
v 26984.968759 116482.136442 999.448172
v 26995.152131 116516.666125 999.448172
v 26995.152131 116516.666125 1281.448172
v 27253.719293 116402.730695 1281.500755
v 27219.198140 116412.942942 1281.500755
v 27229.410387 116447.464095 1281.500755
v 27263.931540 116437.251848 1281.500755
v 27263.931540 116437.251848 999.500755
v 27229.410387 116447.464095 999.500755
v 27219.198140 116412.942942 999.500755
v 27253.719293 116402.730695 999.500755
v 27263.931540 116437.251848 1281.500755
v 27263.931540 116437.251848 999.500755
v 27229.410387 116447.464095 999.500755
v 27229.410387 116447.464095 1281.500755
v 27229.410387 116447.464095 1281.500755
v 27229.410387 116447.464095 999.500755
v 27219.198140 116412.942942 999.500755
v 27219.198140 116412.942942 1281.500755
v 27219.198140 116412.942942 1281.500755
v 27219.198140 116412.942942 999.500755
v 27253.719293 116402.730695 999.500755
v 27253.719293 116402.730695 1281.500755
v 27253.719293 116402.730695 1281.500755
v 27253.719293 116402.730695 999.500755
v 27263.931540 116437.251848 999.500755
v 27263.931540 116437.251848 1281.500755
v 27522.217150 116323.302106 1274.202792
v 27487.695997 116333.514353 1274.202792
v 27497.908244 116368.035506 1274.202792
v 27532.429397 116357.823259 1274.202792
v 27532.429397 116357.823259 992.202792
v 27497.908244 116368.035506 992.202792
v 27487.695997 116333.514353 992.202792
v 27522.217150 116323.302106 992.202792
v 27532.429397 116357.823259 1274.202792
v 27532.429397 116357.823259 992.202792
v 27497.908244 116368.035506 992.202792
v 27497.908244 116368.035506 1274.202792
v 27497.908244 116368.035506 1274.202792
v 27497.908244 116368.035506 992.202792
v 27487.695997 116333.514353 992.202792
v 27487.695997 116333.514353 1274.202792
v 27487.695997 116333.514353 1274.202792
v 27487.695997 116333.514353 992.202792
v 27522.217150 116323.302106 992.202792
v 27522.217150 116323.302106 1274.202792
v 27522.217150 116323.302106 1274.202792
v 27522.217150 116323.302106 992.202792
v 27532.429397 116357.823259 992.202792
v 27532.429397 116357.823259 1274.202792
v 27790.715007 116243.873517 1263.664590
v 27756.193854 116254.085764 1263.664590
v 27766.406101 116288.606917 1263.664590
v 27800.927254 116278.394670 1263.664590
v 27800.927254 116278.394670 981.664590
v 27766.406101 116288.606917 981.664590
v 27756.193854 116254.085764 981.664590
v 27790.715007 116243.873517 981.664590
v 27800.927254 116278.394670 1263.664590
v 27800.927254 116278.394670 981.664590
v 27766.406101 116288.606917 981.664590
v 27766.406101 116288.606917 1263.664590
v 27766.406101 116288.606917 1263.664590
v 27766.406101 116288.606917 981.664590
v 27756.193854 116254.085764 981.664590
v 27756.193854 116254.085764 1263.664590
v 27756.193854 116254.085764 1263.664590
v 27756.193854 116254.085764 981.664590
v 27790.715007 116243.873517 981.664590
v 27790.715007 116243.873517 1263.664590
v 27790.715007 116243.873517 1263.664590
v 27790.715007 116243.873517 981.664590
v 27800.927254 116278.394670 981.664590
v 27800.927254 116278.394670 1263.664590
v 28059.212864 116164.444928 1258.266658
v 28024.691711 116174.657175 1258.266658
v 28034.903958 116209.178328 1258.266658
v 28069.425111 116198.966081 1258.266658
v 28069.425111 116198.966081 976.266658
v 28034.903958 116209.178328 976.266658
v 28024.691711 116174.657175 976.266658
v 28059.212864 116164.444928 976.266658
v 28069.425111 116198.966081 1258.266658
v 28069.425111 116198.966081 976.266658
v 28034.903958 116209.178328 976.266658
v 28034.903958 116209.178328 1258.266658
v 28034.903958 116209.178328 1258.266658
v 28034.903958 116209.178328 976.266658
v 28024.691711 116174.657175 976.266658
v 28024.691711 116174.657175 1258.266658
v 28024.691711 116174.657175 1258.266658
v 28024.691711 116174.657175 976.266658
v 28059.212864 116164.444928 976.266658
v 28059.212864 116164.444928 1258.266658
v 28059.212864 116164.444928 1258.266658
v 28059.212864 116164.444928 976.266658
v 28069.425111 116198.966081 976.266658
v 28069.425111 116198.966081 1258.266658
v 28327.710721 116085.016339 1255.489312
v 28293.189568 116095.228586 1255.489312
v 28303.401815 116129.749739 1255.489312
v 28337.922968 116119.537492 1255.489312
v 28337.922968 116119.537492 973.489312
v 28303.401815 116129.749739 973.489312
v 28293.189568 116095.228586 973.489312
v 28327.710721 116085.016339 973.489312
v 28337.922968 116119.537492 1255.489312
v 28337.922968 116119.537492 973.489312
v 28303.401815 116129.749739 973.489312
v 28303.401815 116129.749739 1255.489312
v 28303.401815 116129.749739 1255.489312
v 28303.401815 116129.749739 973.489312
v 28293.189568 116095.228586 973.489312
v 28293.189568 116095.228586 1255.489312
v 28293.189568 116095.228586 1255.489312
v 28293.189568 116095.228586 973.489312
v 28327.710721 116085.016339 973.489312
v 28327.710721 116085.016339 1255.489312
v 28327.710721 116085.016339 1255.489312
v 28327.710721 116085.016339 973.489312
v 28337.922968 116119.537492 973.489312
v 28337.922968 116119.537492 1255.489312
v 28596.208578 116005.587750 1265.818440
v 28561.687425 116015.799997 1265.818440
v 28571.899672 116050.321150 1265.818440
v 28606.420825 116040.108903 1265.818440
v 28606.420825 116040.108903 983.818440
v 28571.899672 116050.321150 983.818440
v 28561.687425 116015.799997 983.818440
v 28596.208578 116005.587750 983.818440
v 28606.420825 116040.108903 1265.818440
v 28606.420825 116040.108903 983.818440
v 28571.899672 116050.321150 983.818440
v 28571.899672 116050.321150 1265.818440
v 28571.899672 116050.321150 1265.818440
v 28571.899672 116050.321150 983.818440
v 28561.687425 116015.799997 983.818440
v 28561.687425 116015.799997 1265.818440
v 28561.687425 116015.799997 1265.818440
v 28561.687425 116015.799997 983.818440
v 28596.208578 116005.587750 983.818440
v 28596.208578 116005.587750 1265.818440
v 28596.208578 116005.587750 1265.818440
v 28596.208578 116005.587750 983.818440
v 28606.420825 116040.108903 983.818440
v 28606.420825 116040.108903 1265.818440
v 28864.706435 115926.159161 1274.799581
v 28830.185282 115936.371409 1274.799581
v 28840.397530 115970.892562 1274.799581
v 28874.918683 115960.680314 1274.799581
v 28874.918683 115960.680314 992.799581
v 28840.397530 115970.892562 992.799581
v 28830.185282 115936.371409 992.799581
v 28864.706435 115926.159161 992.799581
v 28874.918683 115960.680314 1274.799581
v 28874.918683 115960.680314 992.799581
v 28840.397530 115970.892562 992.799581
v 28840.397530 115970.892562 1274.799581
v 28840.397530 115970.892562 1274.799581
v 28840.397530 115970.892562 992.799581
v 28830.185282 115936.371409 992.799581
v 28830.185282 115936.371409 1274.799581
v 28830.185282 115936.371409 1274.799581
v 28830.185282 115936.371409 992.799581
v 28864.706435 115926.159161 992.799581
v 28864.706435 115926.159161 1274.799581
v 28864.706435 115926.159161 1274.799581
v 28864.706435 115926.159161 992.799581
v 28874.918683 115960.680314 992.799581
v 28874.918683 115960.680314 1274.799581
v 29133.204293 115846.730573 1278.602175
v 29098.683139 115856.942820 1278.602175
v 29108.895387 115891.463973 1278.602175
v 29143.416540 115881.251726 1278.602175
v 29143.416540 115881.251726 996.602175
v 29108.895387 115891.463973 996.602175
v 29098.683139 115856.942820 996.602175
v 29133.204293 115846.730573 996.602175
v 29143.416540 115881.251726 1278.602175
v 29143.416540 115881.251726 996.602175
v 29108.895387 115891.463973 996.602175
v 29108.895387 115891.463973 1278.602175
v 29108.895387 115891.463973 1278.602175
v 29108.895387 115891.463973 996.602175
v 29098.683139 115856.942820 996.602175
v 29098.683139 115856.942820 1278.602175
v 29098.683139 115856.942820 1278.602175
v 29098.683139 115856.942820 996.602175
v 29133.204293 115846.730573 996.602175
v 29133.204293 115846.730573 1278.602175
v 29133.204293 115846.730573 1278.602175
v 29133.204293 115846.730573 996.602175
v 29143.416540 115881.251726 996.602175
v 29143.416540 115881.251726 1278.602175
v 29191.937335 115800.274201 1282.685483
v 29159.690223 115784.270333 1282.685483
v 29143.686355 115816.517445 1282.685483
v 29175.933467 115832.521313 1282.685483
v 29175.933467 115832.521313 1000.685483
v 29143.686355 115816.517445 1000.685483
v 29159.690223 115784.270333 1000.685483
v 29191.937335 115800.274201 1000.685483
v 29175.933467 115832.521313 1282.685483
v 29175.933467 115832.521313 1000.685483
v 29143.686355 115816.517445 1000.685483
v 29143.686355 115816.517445 1282.685483
v 29143.686355 115816.517445 1282.685483
v 29143.686355 115816.517445 1000.685483
v 29159.690223 115784.270333 1000.685483
v 29159.690223 115784.270333 1282.685483
v 29159.690223 115784.270333 1282.685483
v 29159.690223 115784.270333 1000.685483
v 29191.937335 115800.274201 1000.685483
v 29191.937335 115800.274201 1282.685483
v 29191.937335 115800.274201 1282.685483
v 29191.937335 115800.274201 1000.685483
v 29175.933467 115832.521313 1000.685483
v 29175.933467 115832.521313 1282.685483
v 29409.112654 115928.643875 1280.429614
v 29378.575361 115909.578889 1280.429614
v 29359.510374 115940.116182 1280.429614
v 29390.047668 115959.181168 1280.429614
v 29390.047668 115959.181168 998.429614
v 29359.510374 115940.116182 998.429614
v 29378.575361 115909.578889 998.429614
v 29409.112654 115928.643875 998.429614
v 29390.047668 115959.181168 1280.429614
v 29390.047668 115959.181168 998.429614
v 29359.510374 115940.116182 998.429614
v 29359.510374 115940.116182 1280.429614
v 29359.510374 115940.116182 1280.429614
v 29359.510374 115940.116182 998.429614
v 29378.575361 115909.578889 998.429614
v 29378.575361 115909.578889 1280.429614
v 29378.575361 115909.578889 1280.429614
v 29378.575361 115909.578889 998.429614
v 29409.112654 115928.643875 998.429614
v 29409.112654 115928.643875 1280.429614
v 29409.112654 115928.643875 1280.429614
v 29409.112654 115928.643875 998.429614
v 29390.047668 115959.181168 998.429614
v 29390.047668 115959.181168 1280.429614
v 29671.509303 116074.128017 1280.004428
v 29639.687394 116057.294536 1280.004428
v 29622.853913 116089.116445 1280.004428
v 29654.675822 116105.949926 1280.004428
v 29654.675822 116105.949926 998.004428
v 29622.853913 116089.116445 998.004428
v 29639.687394 116057.294536 998.004428
v 29671.509303 116074.128017 998.004428
v 29654.675822 116105.949926 1280.004428
v 29654.675822 116105.949926 998.004428
v 29622.853913 116089.116445 998.004428
v 29622.853913 116089.116445 1280.004428
v 29622.853913 116089.116445 1280.004428
v 29622.853913 116089.116445 998.004428
v 29639.687394 116057.294536 998.004428
v 29639.687394 116057.294536 1280.004428
v 29639.687394 116057.294536 1280.004428
v 29639.687394 116057.294536 998.004428
v 29671.509303 116074.128017 998.004428
v 29671.509303 116074.128017 1280.004428
v 29671.509303 116074.128017 1280.004428
v 29671.509303 116074.128017 998.004428
v 29654.675822 116105.949926 998.004428
v 29654.675822 116105.949926 1280.004428
vt 129.784296 6.343009
vt 129.629869 6.343009
vt 129.537390 6.343009
vt 129.691817 6.343009
vt 129.691817 4.933009
vt 129.537390 4.933009
vt 129.629869 4.933009
vt 129.784296 4.933009
vt 129.691817 6.343009
vt 129.691817 4.933009
vt 129.537390 4.933009
vt 129.537390 6.343009
vt 129.537390 6.343009
vt 129.537390 4.933009
vt 129.629869 4.933009
vt 129.629869 6.343009
vt 129.629869 6.343009
vt 129.629869 4.933009
vt 129.784296 4.933009
vt 129.784296 6.343009
vt 129.784296 6.343009
vt 129.784296 4.933009
vt 129.691817 4.933009
vt 129.691817 6.343009
vt 131.311094 6.366612
vt 131.141715 6.366612
vt 131.080799 6.366612
vt 131.250178 6.366612
vt 131.250178 4.956612
vt 131.080799 4.956612
vt 131.141715 4.956612
vt 131.311094 4.956612
vt 131.250178 6.366612
vt 131.250178 4.956612
vt 131.080799 4.956612
vt 131.080799 6.366612
vt 131.080799 6.366612
vt 131.080799 4.956612
vt 131.141715 4.956612
vt 131.141715 6.366612
vt 131.141715 6.366612
vt 131.141715 4.956612
vt 131.311094 4.956612
vt 131.311094 6.366612
vt 131.311094 6.366612
vt 131.311094 4.956612
vt 131.250178 4.956612
vt 131.250178 6.366612
vt 133.092716 6.421252
vt 132.912875 6.421252
vt 132.905301 6.421252
vt 133.085141 6.421252
vt 133.085141 5.011252
vt 132.905301 5.011252
vt 132.912875 5.011252
vt 133.092716 5.011252
vt 133.085141 6.421252
vt 133.085141 5.011252
vt 132.905301 5.011252
vt 132.905301 6.421252
vt 132.905301 6.421252
vt 132.905301 5.011252
vt 132.912875 5.011252
vt 132.912875 6.421252
vt 132.912875 6.421252
vt 132.912875 5.011252
vt 133.092716 5.011252
vt 133.092716 6.421252
vt 133.092716 6.421252
vt 133.092716 5.011252
vt 133.085141 5.011252
vt 133.085141 6.421252
vt 134.924844 6.407241
vt 134.752195 6.407241
vt 134.803112 6.407241
vt 134.975761 6.407241
vt 134.975761 4.997241
vt 134.803112 4.997241
vt 134.752195 4.997241
vt 134.924844 4.997241
vt 134.975761 6.407241
vt 134.975761 4.997241
vt 134.803112 4.997241
vt 134.803112 6.407241
vt 134.803112 6.407241
vt 134.803112 4.997241
vt 134.752195 4.997241
vt 134.752195 6.407241
vt 134.752195 6.407241
vt 134.752195 4.997241
vt 134.924844 4.997241
vt 134.924844 6.407241
vt 134.924844 6.407241
vt 134.924844 4.997241
vt 134.975761 4.997241
vt 134.975761 6.407241
vt 136.268596 6.407504
vt 136.095991 6.407504
vt 136.147052 6.407504
vt 136.319658 6.407504
vt 136.319658 4.997504
vt 136.147052 4.997504
vt 136.095991 4.997504
vt 136.268596 4.997504
vt 136.319658 6.407504
vt 136.319658 4.997504
vt 136.147052 4.997504
vt 136.147052 6.407504
vt 136.147052 6.407504
vt 136.147052 4.997504
vt 136.095991 4.997504
vt 136.095991 6.407504
vt 136.095991 6.407504
vt 136.095991 4.997504
vt 136.268596 4.997504
vt 136.268596 6.407504
vt 136.268596 6.407504
vt 136.268596 4.997504
vt 136.319658 4.997504
vt 136.319658 6.407504
vt 137.611086 6.371014
vt 137.438480 6.371014
vt 137.489541 6.371014
vt 137.662147 6.371014
vt 137.662147 4.961014
vt 137.489541 4.961014
vt 137.438480 4.961014
vt 137.611086 4.961014
vt 137.662147 6.371014
vt 137.662147 4.961014
vt 137.489541 4.961014
vt 137.489541 6.371014
vt 137.489541 6.371014
vt 137.489541 4.961014
vt 137.438480 4.961014
vt 137.438480 6.371014
vt 137.438480 6.371014
vt 137.438480 4.961014
vt 137.611086 4.961014
vt 137.611086 6.371014
vt 137.611086 6.371014
vt 137.611086 4.961014
vt 137.662147 4.961014
vt 137.662147 6.371014
vt 138.953575 6.318323
vt 138.780969 6.318323
vt 138.832031 6.318323
vt 139.004636 6.318323
vt 139.004636 4.908323
vt 138.832031 4.908323
vt 138.780969 4.908323
vt 138.953575 4.908323
vt 139.004636 6.318323
vt 139.004636 4.908323
vt 138.832031 4.908323
vt 138.832031 6.318323
vt 138.832031 6.318323
vt 138.832031 4.908323
vt 138.780969 4.908323
vt 138.780969 6.318323
vt 138.780969 6.318323
vt 138.780969 4.908323
vt 138.953575 4.908323
vt 138.953575 6.318323
vt 138.953575 6.318323
vt 138.953575 4.908323
vt 139.004636 4.908323
vt 139.004636 6.318323
vt 140.296064 6.291333
vt 140.123459 6.291333
vt 140.174520 6.291333
vt 140.347126 6.291333
vt 140.347126 4.881333
vt 140.174520 4.881333
vt 140.123459 4.881333
vt 140.296064 4.881333
vt 140.347126 6.291333
vt 140.347126 4.881333
vt 140.174520 4.881333
vt 140.174520 6.291333
vt 140.174520 6.291333
vt 140.174520 4.881333
vt 140.123459 4.881333
vt 140.123459 6.291333
vt 140.123459 6.291333
vt 140.123459 4.881333
vt 140.296064 4.881333
vt 140.296064 6.291333
vt 140.296064 6.291333
vt 140.296064 4.881333
vt 140.347126 4.881333
vt 140.347126 6.291333
vt 141.638554 6.277447
vt 141.465948 6.277447
vt 141.517009 6.277447
vt 141.689615 6.277447
vt 141.689615 4.867447
vt 141.517009 4.867447
vt 141.465948 4.867447
vt 141.638554 4.867447
vt 141.689615 6.277447
vt 141.689615 4.867447
vt 141.517009 4.867447
vt 141.517009 6.277447
vt 141.517009 6.277447
vt 141.517009 4.867447
vt 141.465948 4.867447
vt 141.465948 6.277447
vt 141.465948 6.277447
vt 141.465948 4.867447
vt 141.638554 4.867447
vt 141.638554 6.277447
vt 141.638554 6.277447
vt 141.638554 4.867447
vt 141.689615 4.867447
vt 141.689615 6.277447
vt 142.981043 6.329092
vt 142.808437 6.329092
vt 142.859498 6.329092
vt 143.032104 6.329092
vt 143.032104 4.919092
vt 142.859498 4.919092
vt 142.808437 4.919092
vt 142.981043 4.919092
vt 143.032104 6.329092
vt 143.032104 4.919092
vt 142.859498 4.919092
vt 142.859498 6.329092
vt 142.859498 6.329092
vt 142.859498 4.919092
vt 142.808437 4.919092
vt 142.808437 6.329092
vt 142.808437 6.329092
vt 142.808437 4.919092
vt 142.981043 4.919092
vt 142.981043 6.329092
vt 142.981043 6.329092
vt 142.981043 4.919092
vt 143.032104 4.919092
vt 143.032104 6.329092
vt 144.323532 6.373998
vt 144.150926 6.373998
vt 144.201988 6.373998
vt 144.374593 6.373998
vt 144.374593 4.963998
vt 144.201988 4.963998
vt 144.150926 4.963998
vt 144.323532 4.963998
vt 144.374593 6.373998
vt 144.374593 4.963998
vt 144.201988 4.963998
vt 144.201988 6.373998
vt 144.201988 6.373998
vt 144.201988 4.963998
vt 144.150926 4.963998
vt 144.150926 6.373998
vt 144.150926 6.373998
vt 144.150926 4.963998
vt 144.323532 4.963998
vt 144.323532 6.373998
vt 144.323532 6.373998
vt 144.323532 4.963998
vt 144.374593 4.963998
vt 144.374593 6.373998
vt 145.666021 6.393011
vt 145.493416 6.393011
vt 145.544477 6.393011
vt 145.717083 6.393011
vt 145.717083 4.983011
vt 145.544477 4.983011
vt 145.493416 4.983011
vt 145.666021 4.983011
vt 145.717083 6.393011
vt 145.717083 4.983011
vt 145.544477 4.983011
vt 145.544477 6.393011
vt 145.544477 6.393011
vt 145.544477 4.983011
vt 145.493416 4.983011
vt 145.493416 6.393011
vt 145.493416 6.393011
vt 145.493416 4.983011
vt 145.666021 4.983011
vt 145.666021 6.393011
vt 145.666021 6.393011
vt 145.666021 4.983011
vt 145.717083 4.983011
vt 145.717083 6.393011
vt 145.959687 6.413427
vt 145.798451 6.413427
vt 145.718432 6.413427
vt 145.879667 6.413427
vt 145.879667 5.003427
vt 145.718432 5.003427
vt 145.798451 5.003427
vt 145.959687 5.003427
vt 145.879667 6.413427
vt 145.879667 5.003427
vt 145.718432 5.003427
vt 145.718432 6.413427
vt 145.718432 6.413427
vt 145.718432 5.003427
vt 145.798451 5.003427
vt 145.798451 6.413427
vt 145.798451 6.413427
vt 145.798451 5.003427
vt 145.959687 5.003427
vt 145.959687 6.413427
vt 145.959687 6.413427
vt 145.959687 5.003427
vt 145.879667 5.003427
vt 145.879667 6.413427
vt 147.045563 6.402148
vt 146.892877 6.402148
vt 146.797552 6.402148
vt 146.950238 6.402148
vt 146.950238 4.992148
vt 146.797552 4.992148
vt 146.892877 4.992148
vt 147.045563 4.992148
vt 146.950238 6.402148
vt 146.950238 4.992148
vt 146.797552 4.992148
vt 146.797552 6.402148
vt 146.797552 6.402148
vt 146.797552 4.992148
vt 146.892877 4.992148
vt 146.892877 6.402148
vt 146.892877 6.402148
vt 146.892877 4.992148
vt 147.045563 4.992148
vt 147.045563 6.402148
vt 147.045563 6.402148
vt 147.045563 4.992148
vt 146.950238 4.992148
vt 146.950238 6.402148
vt 148.357547 6.400022
vt 148.198437 6.400022
vt 148.114270 6.400022
vt 148.273379 6.400022
vt 148.273379 4.990022
vt 148.114270 4.990022
vt 148.198437 4.990022
vt 148.357547 4.990022
vt 148.273379 6.400022
vt 148.273379 4.990022
vt 148.114270 4.990022
vt 148.114270 6.400022
vt 148.114270 6.400022
vt 148.114270 4.990022
vt 148.198437 4.990022
vt 148.198437 6.400022
vt 148.198437 6.400022
vt 148.198437 4.990022
vt 148.357547 4.990022
vt 148.357547 6.400022
vt 148.357547 6.400022
vt 148.357547 4.990022
vt 148.273379 4.990022
vt 148.273379 6.400022
f 3/3 2/2 1/1
f 4/4 3/3 1/1
f 7/7 6/6 5/5
f 8/8 7/7 5/5
f 11/11 10/10 9/9
f 12/12 11/11 9/9
f 15/15 14/14 13/13
f 16/16 15/15 13/13
f 19/19 18/18 17/17
f 20/20 19/19 17/17
f 23/23 22/22 21/21
f 24/24 23/23 21/21
f 27/27 26/26 25/25
f 28/28 27/27 25/25
f 31/31 30/30 29/29
f 32/32 31/31 29/29
f 35/35 34/34 33/33
f 36/36 35/35 33/33
f 39/39 38/38 37/37
f 40/40 39/39 37/37
f 43/43 42/42 41/41
f 44/44 43/43 41/41
f 47/47 46/46 45/45
f 48/48 47/47 45/45
f 51/51 50/50 49/49
f 52/52 51/51 49/49
f 55/55 54/54 53/53
f 56/56 55/55 53/53
f 59/59 58/58 57/57
f 60/60 59/59 57/57
f 63/63 62/62 61/61
f 64/64 63/63 61/61
f 67/67 66/66 65/65
f 68/68 67/67 65/65
f 71/71 70/70 69/69
f 72/72 71/71 69/69
f 75/75 74/74 73/73
f 76/76 75/75 73/73
f 79/79 78/78 77/77
f 80/80 79/79 77/77
f 83/83 82/82 81/81
f 84/84 83/83 81/81
f 87/87 86/86 85/85
f 88/88 87/87 85/85
f 91/91 90/90 89/89
f 92/92 91/91 89/89
f 95/95 94/94 93/93
f 96/96 95/95 93/93
f 99/99 98/98 97/97
f 100/100 99/99 97/97
f 103/103 102/102 101/101
f 104/104 103/103 101/101
f 107/107 106/106 105/105
f 108/108 107/107 105/105
f 111/111 110/110 109/109
f 112/112 111/111 109/109
f 115/115 114/114 113/113
f 116/116 115/115 113/113
f 119/119 118/118 117/117
f 120/120 119/119 117/117
f 123/123 122/122 121/121
f 124/124 123/123 121/121
f 127/127 126/126 125/125
f 128/128 127/127 125/125
f 131/131 130/130 129/129
f 132/132 131/131 129/129
f 135/135 134/134 133/133
f 136/136 135/135 133/133
f 139/139 138/138 137/137
f 140/140 139/139 137/137
f 143/143 142/142 141/141
f 144/144 143/143 141/141
f 147/147 146/146 145/145
f 148/148 147/147 145/145
f 151/151 150/150 149/149
f 152/152 151/151 149/149
f 155/155 154/154 153/153
f 156/156 155/155 153/153
f 159/159 158/158 157/157
f 160/160 159/159 157/157
f 163/163 162/162 161/161
f 164/164 163/163 161/161
f 167/167 166/166 165/165
f 168/168 167/167 165/165
f 171/171 170/170 169/169
f 172/172 171/171 169/169
f 175/175 174/174 173/173
f 176/176 175/175 173/173
f 179/179 178/178 177/177
f 180/180 179/179 177/177
f 183/183 182/182 181/181
f 184/184 183/183 181/181
f 187/187 186/186 185/185
f 188/188 187/187 185/185
f 191/191 190/190 189/189
f 192/192 191/191 189/189
f 195/195 194/194 193/193
f 196/196 195/195 193/193
f 199/199 198/198 197/197
f 200/200 199/199 197/197
f 203/203 202/202 201/201
f 204/204 203/203 201/201
f 207/207 206/206 205/205
f 208/208 207/207 205/205
f 211/211 210/210 209/209
f 212/212 211/211 209/209
f 215/215 214/214 213/213
f 216/216 215/215 213/213
f 219/219 218/218 217/217
f 220/220 219/219 217/217
f 223/223 222/222 221/221
f 224/224 223/223 221/221
f 227/227 226/226 225/225
f 228/228 227/227 225/225
f 231/231 230/230 229/229
f 232/232 231/231 229/229
f 235/235 234/234 233/233
f 236/236 235/235 233/233
f 239/239 238/238 237/237
f 240/240 239/239 237/237
f 243/243 242/242 241/241
f 244/244 243/243 241/241
f 247/247 246/246 245/245
f 248/248 247/247 245/245
f 251/251 250/250 249/249
f 252/252 251/251 249/249
f 255/255 254/254 253/253
f 256/256 255/255 253/253
f 259/259 258/258 257/257
f 260/260 259/259 257/257
f 263/263 262/262 261/261
f 264/264 263/263 261/261
f 267/267 266/266 265/265
f 268/268 267/267 265/265
f 271/271 270/270 269/269
f 272/272 271/271 269/269
f 275/275 274/274 273/273
f 276/276 275/275 273/273
f 279/279 278/278 277/277
f 280/280 279/279 277/277
f 283/283 282/282 281/281
f 284/284 283/283 281/281
f 287/287 286/286 285/285
f 288/288 287/287 285/285
f 291/291 290/290 289/289
f 292/292 291/291 289/289
f 295/295 294/294 293/293
f 296/296 295/295 293/293
f 299/299 298/298 297/297
f 300/300 299/299 297/297
f 303/303 302/302 301/301
f 304/304 303/303 301/301
f 307/307 306/306 305/305
f 308/308 307/307 305/305
f 311/311 310/310 309/309
f 312/312 311/311 309/309
f 315/315 314/314 313/313
f 316/316 315/315 313/313
f 319/319 318/318 317/317
f 320/320 319/319 317/317
f 323/323 322/322 321/321
f 324/324 323/323 321/321
f 327/327 326/326 325/325
f 328/328 327/327 325/325
f 331/331 330/330 329/329
f 332/332 331/331 329/329
f 335/335 334/334 333/333
f 336/336 335/335 333/333
f 339/339 338/338 337/337
f 340/340 339/339 337/337
f 343/343 342/342 341/341
f 344/344 343/343 341/341
f 347/347 346/346 345/345
f 348/348 347/347 345/345
f 351/351 350/350 349/349
f 352/352 351/351 349/349
f 355/355 354/354 353/353
f 356/356 355/355 353/353
f 359/359 358/358 357/357
f 360/360 359/359 357/357
