mtllib BikeWheel.mtl
usemtl Rubber
v 35.000000 0.000000 0.000000
v 34.522542 0.000000 1.469463
v 33.272542 0.000000 2.377641
v 31.727458 0.000000 2.377641
v 30.477458 0.000000 1.469463
v 30.000000 0.000000 0.000000
v 30.477458 0.000000 -1.469463
v 31.727458 0.000000 -2.377641
v 33.272542 0.000000 -2.377641
v 34.522542 0.000000 -1.469463
v 34.831465 3.430600 0.000000
v 34.356307 3.383801 1.469463
v 33.112326 3.261279 2.377641
v 31.574681 3.109835 2.377641
v 30.330700 2.987313 1.469463
v 29.855542 2.940514 0.000000
v 30.330700 2.987313 -1.469463
v 31.574681 3.109835 -2.377641
v 33.112326 3.261279 -2.377641
v 34.356307 3.383801 -1.469463
v 34.327485 6.828161 0.000000
v 33.859202 6.735014 1.469463
v 32.633220 6.491151 2.377641
v 31.117823 6.189720 2.377641
v 29.891842 5.945857 1.469463
v 29.423558 5.852710 0.000000
v 29.891842 5.945857 -1.469463
v 31.117823 6.189720 -2.377641
v 32.633220 6.491151 -2.377641
v 33.859202 6.735014 -1.469463
v 33.492912 10.159964 0.000000
v 33.036013 10.021365 1.469463
v 31.839838 9.658509 2.377641
v 30.361284 9.209995 2.377641
v 29.165108 8.847139 1.469463
v 28.708210 8.708540 0.000000
v 29.165108 8.847139 -1.469463
v 30.361284 9.209995 -2.377641
v 31.839838 9.658509 -2.377641
v 33.036013 10.021365 -1.469463
v 32.335784 13.393920 0.000000
v 31.894670 13.211205 1.469463
v 30.739821 12.732851 2.377641
v 29.312349 12.141572 2.377641
v 28.157499 11.663218 1.469463
v 27.716386 11.480503 0.000000
v 28.157499 11.663218 -1.469463
v 29.312349 12.141572 -2.377641
v 30.739821 12.732851 -2.377641
v 31.894670 13.211205 -1.469463
v 30.867244 16.498886 0.000000
v 30.446164 16.273814 1.469463
v 29.343763 15.684568 2.377641
v 27.981119 14.956220 2.377641
v 26.878718 14.366974 1.469463
v 26.457638 14.141902 0.000000
v 26.878718 14.366974 -1.469463
v 27.981119 14.956220 -2.377641
v 29.343763 15.684568 -2.377641
v 30.446164 16.273814 -1.469463
v 29.101436 19.444958 0.000000
v 28.704445 19.179697 1.469463
v 27.665108 18.485234 2.377641
v 26.380417 17.626831 2.377641
v 25.341080 16.932368 1.469463
v 24.944088 16.667107 0.000000
v 25.341080 16.932368 -1.469463
v 26.380417 17.626831 -2.377641
v 27.665108 18.485234 -2.377641
v 28.704445 19.179697 -1.469463
v 27.055366 22.203765 0.000000
v 26.686286 21.900869 1.469463
v 25.720023 21.107878 2.377641
v 24.525656 20.127686 2.377641
v 23.559393 19.334694 1.469463
v 23.190314 19.031799 0.000000
v 23.559393 19.334694 -1.469463
v 24.525656 20.127686 -2.377641
v 25.720023 21.107878 -2.377641
v 26.686286 21.900869 -1.469463
v 24.748737 24.748737 0.000000
v 24.411124 24.411124 1.469463
v 23.527240 23.527240 2.377641
v 22.434700 22.434700 2.377641
v 21.550817 21.550817 1.469463
v 21.213203 21.213203 0.000000
v 21.550817 21.550817 -1.469463
v 22.434700 22.434700 -2.377641
v 23.527240 23.527240 -2.377641
v 24.411124 24.411124 -1.469463
v 22.203765 27.055366 0.000000
v 21.900869 26.686286 1.469463
v 21.107878 25.720023 2.377641
v 20.127686 24.525656 2.377641
v 19.334694 23.559393 1.469463
v 19.031799 23.190314 0.000000
v 19.334694 23.559393 -1.469463
v 20.127686 24.525656 -2.377641
v 21.107878 25.720023 -2.377641
v 21.900869 26.686286 -1.469463
v 19.444958 29.101436 0.000000
v 19.179697 28.704445 1.469463
v 18.485234 27.665108 2.377641
v 17.626831 26.380417 2.377641
v 16.932368 25.341080 1.469463
v 16.667107 24.944088 0.000000
v 16.932368 25.341080 -1.469463
v 17.626831 26.380417 -2.377641
v 18.485234 27.665108 -2.377641
v 19.179697 28.704445 -1.469463
v 16.498886 30.867244 0.000000
v 16.273814 30.446164 1.469463
v 15.684568 29.343763 2.377641
v 14.956220 27.981119 2.377641
v 14.366974 26.878718 1.469463
v 14.141902 26.457638 0.000000
v 14.366974 26.878718 -1.469463
v 14.956220 27.981119 -2.377641
v 15.684568 29.343763 -2.377641
v 16.273814 30.446164 -1.469463
v 13.393920 32.335784 0.000000
v 13.211205 31.894670 1.469463
v 12.732851 30.739821 2.377641
v 12.141572 29.312349 2.377641
v 11.663218 28.157499 1.469463
v 11.480503 27.716386 0.000000
v 11.663218 28.157499 -1.469463
v 12.141572 29.312349 -2.377641
v 12.732851 30.739821 -2.377641
v 13.211205 31.894670 -1.469463
v 10.159964 33.492912 0.000000
v 10.021365 33.036013 1.469463
v 9.658509 31.839838 2.377641
v 9.209995 30.361284 2.377641
v 8.847139 29.165108 1.469463
v 8.708540 28.708210 0.000000
v 8.847139 29.165108 -1.469463
v 9.209995 30.361284 -2.377641
v 9.658509 31.839838 -2.377641
v 10.021365 33.036013 -1.469463
v 6.828161 34.327485 0.000000
v 6.735014 33.859202 1.469463
v 6.491151 32.633220 2.377641
v 6.189720 31.117823 2.377641
v 5.945857 29.891842 1.469463
v 5.852710 29.423558 0.000000
v 5.945857 29.891842 -1.469463
v 6.189720 31.117823 -2.377641
v 6.491151 32.633220 -2.377641
v 6.735014 33.859202 -1.469463
v 3.430600 34.831465 0.000000
v 3.383801 34.356307 1.469463
v 3.261279 33.112326 2.377641
v 3.109835 31.574681 2.377641
v 2.987313 30.330700 1.469463
v 2.940514 29.855542 0.000000
v 2.987313 30.330700 -1.469463
v 3.109835 31.574681 -2.377641
v 3.261279 33.112326 -2.377641
v 3.383801 34.356307 -1.469463
v 0.000000 35.000000 0.000000
v 0.000000 34.522542 1.469463
v 0.000000 33.272542 2.377641
v 0.000000 31.727458 2.377641
v 0.000000 30.477458 1.469463
v 0.000000 30.000000 0.000000
v 0.000000 30.477458 -1.469463
v 0.000000 31.727458 -2.377641
v 0.000000 33.272542 -2.377641
v 0.000000 34.522542 -1.469463
v -3.430600 34.831465 0.000000
v -3.383801 34.356307 1.469463
v -3.261279 33.112326 2.377641
v -3.109835 31.574681 2.377641
v -2.987313 30.330700 1.469463
v -2.940514 29.855542 0.000000
v -2.987313 30.330700 -1.469463
v -3.109835 31.574681 -2.377641
v -3.261279 33.112326 -2.377641
v -3.383801 34.356307 -1.469463
v -6.828161 34.327485 0.000000
v -6.735014 33.859202 1.469463
v -6.491151 32.633220 2.377641
v -6.189720 31.117823 2.377641
v -5.945857 29.891842 1.469463
v -5.852710 29.423558 0.000000
v -5.945857 29.891842 -1.469463
v -6.189720 31.117823 -2.377641
v -6.491151 32.633220 -2.377641
v -6.735014 33.859202 -1.469463
v -10.159964 33.492912 0.000000
v -10.021365 33.036013 1.469463
v -9.658509 31.839838 2.377641
v -9.209995 30.361284 2.377641
v -8.847139 29.165108 1.469463
v -8.708540 28.708210 0.000000
v -8.847139 29.165108 -1.469463
v -9.209995 30.361284 -2.377641
v -9.658509 31.839838 -2.377641
v -10.021365 33.036013 -1.469463
v -13.393920 32.335784 0.000000
v -13.211205 31.894670 1.469463
v -12.732851 30.739821 2.377641
v -12.141572 29.312349 2.377641
v -11.663218 28.157499 1.469463
v -11.480503 27.716386 0.000000
v -11.663218 28.157499 -1.469463
v -12.141572 29.312349 -2.377641
v -12.732851 30.739821 -2.377641
v -13.211205 31.894670 -1.469463
v -16.498886 30.867244 0.000000
v -16.273814 30.446164 1.469463
v -15.684568 29.343763 2.377641
v -14.956220 27.981119 2.377641
v -14.366974 26.878718 1.469463
v -14.141902 26.457638 0.000000
v -14.366974 26.878718 -1.469463
v -14.956220 27.981119 -2.377641
v -15.684568 29.343763 -2.377641
v -16.273814 30.446164 -1.469463
v -19.444958 29.101436 0.000000
v -19.179697 28.704445 1.469463
v -18.485234 27.665108 2.377641
v -17.626831 26.380417 2.377641
v -16.932368 25.341080 1.469463
v -16.667107 24.944088 0.000000
v -16.932368 25.341080 -1.469463
v -17.626831 26.380417 -2.377641
v -18.485234 27.665108 -2.377641
v -19.179697 28.704445 -1.469463
v -22.203765 27.055366 0.000000
v -21.900869 26.686286 1.469463
v -21.107878 25.720023 2.377641
v -20.127686 24.525656 2.377641
v -19.334694 23.559393 1.469463
v -19.031799 23.190314 0.000000
v -19.334694 23.559393 -1.469463
v -20.127686 24.525656 -2.377641
v -21.107878 25.720023 -2.377641
v -21.900869 26.686286 -1.469463
v -24.748737 24.748737 0.000000
v -24.411124 24.411124 1.469463
v -23.527240 23.527240 2.377641
v -22.434700 22.434700 2.377641
v -21.550817 21.550817 1.469463
v -21.213203 21.213203 0.000000
v -21.550817 21.550817 -1.469463
v -22.434700 22.434700 -2.377641
v -23.527240 23.527240 -2.377641
v -24.411124 24.411124 -1.469463
v -27.055366 22.203765 0.000000
v -26.686286 21.900869 1.469463
v -25.720023 21.107878 2.377641
v -24.525656 20.127686 2.377641
v -23.559393 19.334694 1.469463
v -23.190314 19.031799 0.000000
v -23.559393 19.334694 -1.469463
v -24.525656 20.127686 -2.377641
v -25.720023 21.107878 -2.377641
v -26.686286 21.900869 -1.469463
v -29.101436 19.444958 0.000000
v -28.704445 19.179697 1.469463
v -27.665108 18.485234 2.377641
v -26.380417 17.626831 2.377641
v -25.341080 16.932368 1.469463
v -24.944088 16.667107 0.000000
v -25.341080 16.932368 -1.469463
v -26.380417 17.626831 -2.377641
v -27.665108 18.485234 -2.377641
v -28.704445 19.179697 -1.469463
v -30.867244 16.498886 0.000000
v -30.446164 16.273814 1.469463
v -29.343763 15.684568 2.377641
v -27.981119 14.956220 2.377641
v -26.878718 14.366974 1.469463
v -26.457638 14.141902 0.000000
v -26.878718 14.366974 -1.469463
v -27.981119 14.956220 -2.377641
v -29.343763 15.684568 -2.377641
v -30.446164 16.273814 -1.469463
v -32.335784 13.393920 0.000000
v -31.894670 13.211205 1.469463
v -30.739821 12.732851 2.377641
v -29.312349 12.141572 2.377641
v -28.157499 11.663218 1.469463
v -27.716386 11.480503 0.000000
v -28.157499 11.663218 -1.469463
v -29.312349 12.141572 -2.377641
v -30.739821 12.732851 -2.377641
v -31.894670 13.211205 -1.469463
v -33.492912 10.159964 0.000000
v -33.036013 10.021365 1.469463
v -31.839838 9.658509 2.377641
v -30.361284 9.209995 2.377641
v -29.165108 8.847139 1.469463
v -28.708210 8.708540 0.000000
v -29.165108 8.847139 -1.469463
v -30.361284 9.209995 -2.377641
v -31.839838 9.658509 -2.377641
v -33.036013 10.021365 -1.469463
v -34.327485 6.828161 0.000000
v -33.859202 6.735014 1.469463
v -32.633220 6.491151 2.377641
v -31.117823 6.189720 2.377641
v -29.891842 5.945857 1.469463
v -29.423558 5.852710 0.000000
v -29.891842 5.945857 -1.469463
v -31.117823 6.189720 -2.377641
v -32.633220 6.491151 -2.377641
v -33.859202 6.735014 -1.469463
v -34.831465 3.430600 0.000000
v -34.356307 3.383801 1.469463
v -33.112326 3.261279 2.377641
v -31.574681 3.109835 2.377641
v -30.330700 2.987313 1.469463
v -29.855542 2.940514 0.000000
v -30.330700 2.987313 -1.469463
v -31.574681 3.109835 -2.377641
v -33.112326 3.261279 -2.377641
v -34.356307 3.383801 -1.469463
v -35.000000 0.000000 0.000000
v -34.522542 0.000000 1.469463
v -33.272542 0.000000 2.377641
v -31.727458 0.000000 2.377641
v -30.477458 0.000000 1.469463
v -30.000000 0.000000 0.000000
v -30.477458 0.000000 -1.469463
v -31.727458 0.000000 -2.377641
v -33.272542 0.000000 -2.377641
v -34.522542 0.000000 -1.469463
v -34.831465 -3.430600 0.000000
v -34.356307 -3.383801 1.469463
v -33.112326 -3.261279 2.377641
v -31.574681 -3.109835 2.377641
v -30.330700 -2.987313 1.469463
v -29.855542 -2.940514 0.000000
v -30.330700 -2.987313 -1.469463
v -31.574681 -3.109835 -2.377641
v -33.112326 -3.261279 -2.377641
v -34.356307 -3.383801 -1.469463
v -34.327485 -6.828161 0.000000
v -33.859202 -6.735014 1.469463
v -32.633220 -6.491151 2.377641
v -31.117823 -6.189720 2.377641
v -29.891842 -5.945857 1.469463
v -29.423558 -5.852710 0.000000
v -29.891842 -5.945857 -1.469463
v -31.117823 -6.189720 -2.377641
v -32.633220 -6.491151 -2.377641
v -33.859202 -6.735014 -1.469463
v -33.492912 -10.159964 0.000000
v -33.036013 -10.021365 1.469463
v -31.839838 -9.658509 2.377641
v -30.361284 -9.209995 2.377641
v -29.165108 -8.847139 1.469463
v -28.708210 -8.708540 0.000000
v -29.165108 -8.847139 -1.469463
v -30.361284 -9.209995 -2.377641
v -31.839838 -9.658509 -2.377641
v -33.036013 -10.021365 -1.469463
v -32.335784 -13.393920 0.000000
v -31.894670 -13.211205 1.469463
v -30.739821 -12.732851 2.377641
v -29.312349 -12.141572 2.377641
v -28.157499 -11.663218 1.469463
v -27.716386 -11.480503 0.000000
v -28.157499 -11.663218 -1.469463
v -29.312349 -12.141572 -2.377641
v -30.739821 -12.732851 -2.377641
v -31.894670 -13.211205 -1.469463
v -30.867244 -16.498886 0.000000
v -30.446164 -16.273814 1.469463
v -29.343763 -15.684568 2.377641
v -27.981119 -14.956220 2.377641
v -26.878718 -14.366974 1.469463
v -26.457638 -14.141902 0.000000
v -26.878718 -14.366974 -1.469463
v -27.981119 -14.956220 -2.377641
v -29.343763 -15.684568 -2.377641
v -30.446164 -16.273814 -1.469463
v -29.101436 -19.444958 0.000000
v -28.704445 -19.179697 1.469463
v -27.665108 -18.485234 2.377641
v -26.380417 -17.626831 2.377641
v -25.341080 -16.932368 1.469463
v -24.944088 -16.667107 0.000000
v -25.341080 -16.932368 -1.469463
v -26.380417 -17.626831 -2.377641
v -27.665108 -18.485234 -2.377641
v -28.704445 -19.179697 -1.469463
v -27.055366 -22.203765 0.000000
v -26.686286 -21.900869 1.469463
v -25.720023 -21.107878 2.377641
v -24.525656 -20.127686 2.377641
v -23.559393 -19.334694 1.469463
v -23.190314 -19.031799 0.000000
v -23.559393 -19.334694 -1.469463
v -24.525656 -20.127686 -2.377641
v -25.720023 -21.107878 -2.377641
v -26.686286 -21.900869 -1.469463
v -24.748737 -24.748737 0.000000
v -24.411124 -24.411124 1.469463
v -23.527240 -23.527240 2.377641
v -22.434700 -22.434700 2.377641
v -21.550817 -21.550817 1.469463
v -21.213203 -21.213203 0.000000
v -21.550817 -21.550817 -1.469463
v -22.434700 -22.434700 -2.377641
v -23.527240 -23.527240 -2.377641
v -24.411124 -24.411124 -1.469463
v -22.203765 -27.055366 0.000000
v -21.900869 -26.686286 1.469463
v -21.107878 -25.720023 2.377641
v -20.127686 -24.525656 2.377641
v -19.334694 -23.559393 1.469463
v -19.031799 -23.190314 0.000000
v -19.334694 -23.559393 -1.469463
v -20.127686 -24.525656 -2.377641
v -21.107878 -25.720023 -2.377641
v -21.900869 -26.686286 -1.469463
v -19.444958 -29.101436 0.000000
v -19.179697 -28.704445 1.469463
v -18.485234 -27.665108 2.377641
v -17.626831 -26.380417 2.377641
v -16.932368 -25.341080 1.469463
v -16.667107 -24.944088 0.000000
v -16.932368 -25.341080 -1.469463
v -17.626831 -26.380417 -2.377641
v -18.485234 -27.665108 -2.377641
v -19.179697 -28.704445 -1.469463
v -16.498886 -30.867244 0.000000
v -16.273814 -30.446164 1.469463
v -15.684568 -29.343763 2.377641
v -14.956220 -27.981119 2.377641
v -14.366974 -26.878718 1.469463
v -14.141902 -26.457638 0.000000
v -14.366974 -26.878718 -1.469463
v -14.956220 -27.981119 -2.377641
v -15.684568 -29.343763 -2.377641
v -16.273814 -30.446164 -1.469463
v -13.393920 -32.335784 0.000000
v -13.211205 -31.894670 1.469463
v -12.732851 -30.739821 2.377641
v -12.141572 -29.312349 2.377641
v -11.663218 -28.157499 1.469463
v -11.480503 -27.716386 0.000000
v -11.663218 -28.157499 -1.469463
v -12.141572 -29.312349 -2.377641
v -12.732851 -30.739821 -2.377641
v -13.211205 -31.894670 -1.469463
v -10.159964 -33.492912 0.000000
v -10.021365 -33.036013 1.469463
v -9.658509 -31.839838 2.377641
v -9.209995 -30.361284 2.377641
v -8.847139 -29.165108 1.469463
v -8.708540 -28.708210 0.000000
v -8.847139 -29.165108 -1.469463
v -9.209995 -30.361284 -2.377641
v -9.658509 -31.839838 -2.377641
v -10.021365 -33.036013 -1.469463
v -6.828161 -34.327485 0.000000
v -6.735014 -33.859202 1.469463
v -6.491151 -32.633220 2.377641
v -6.189720 -31.117823 2.377641
v -5.945857 -29.891842 1.469463
v -5.852710 -29.423558 0.000000
v -5.945857 -29.891842 -1.469463
v -6.189720 -31.117823 -2.377641
v -6.491151 -32.633220 -2.377641
v -6.735014 -33.859202 -1.469463
v -3.430600 -34.831465 0.000000
v -3.383801 -34.356307 1.469463
v -3.261279 -33.112326 2.377641
v -3.109835 -31.574681 2.377641
v -2.987313 -30.330700 1.469463
v -2.940514 -29.855542 0.000000
v -2.987313 -30.330700 -1.469463
v -3.109835 -31.574681 -2.377641
v -3.261279 -33.112326 -2.377641
v -3.383801 -34.356307 -1.469463
v -0.000000 -35.000000 0.000000
v -0.000000 -34.522542 1.469463
v -0.000000 -33.272542 2.377641
v -0.000000 -31.727458 2.377641
v -0.000000 -30.477458 1.469463
v -0.000000 -30.000000 0.000000
v -0.000000 -30.477458 -1.469463
v -0.000000 -31.727458 -2.377641
v -0.000000 -33.272542 -2.377641
v -0.000000 -34.522542 -1.469463
v 3.430600 -34.831465 0.000000
v 3.383801 -34.356307 1.469463
v 3.261279 -33.112326 2.377641
v 3.109835 -31.574681 2.377641
v 2.987313 -30.330700 1.469463
v 2.940514 -29.855542 0.000000
v 2.987313 -30.330700 -1.469463
v 3.109835 -31.574681 -2.377641
v 3.261279 -33.112326 -2.377641
v 3.383801 -34.356307 -1.469463
v 6.828161 -34.327485 0.000000
v 6.735014 -33.859202 1.469463
v 6.491151 -32.633220 2.377641
v 6.189720 -31.117823 2.377641
v 5.945857 -29.891842 1.469463
v 5.852710 -29.423558 0.000000
v 5.945857 -29.891842 -1.469463
v 6.189720 -31.117823 -2.377641
v 6.491151 -32.633220 -2.377641
v 6.735014 -33.859202 -1.469463
v 10.159964 -33.492912 0.000000
v 10.021365 -33.036013 1.469463
v 9.658509 -31.839838 2.377641
v 9.209995 -30.361284 2.377641
v 8.847139 -29.165108 1.469463
v 8.708540 -28.708210 0.000000
v 8.847139 -29.165108 -1.469463
v 9.209995 -30.361284 -2.377641
v 9.658509 -31.839838 -2.377641
v 10.021365 -33.036013 -1.469463
v 13.393920 -32.335784 0.000000
v 13.211205 -31.894670 1.469463
v 12.732851 -30.739821 2.377641
v 12.141572 -29.312349 2.377641
v 11.663218 -28.157499 1.469463
v 11.480503 -27.716386 0.000000
v 11.663218 -28.157499 -1.469463
v 12.141572 -29.312349 -2.377641
v 12.732851 -30.739821 -2.377641
v 13.211205 -31.894670 -1.469463
v 16.498886 -30.867244 0.000000
v 16.273814 -30.446164 1.469463
v 15.684568 -29.343763 2.377641
v 14.956220 -27.981119 2.377641
v 14.366974 -26.878718 1.469463
v 14.141902 -26.457638 0.000000
v 14.366974 -26.878718 -1.469463
v 14.956220 -27.981119 -2.377641
v 15.684568 -29.343763 -2.377641
v 16.273814 -30.446164 -1.469463
v 19.444958 -29.101436 0.000000
v 19.179697 -28.704445 1.469463
v 18.485234 -27.665108 2.377641
v 17.626831 -26.380417 2.377641
v 16.932368 -25.341080 1.469463
v 16.667107 -24.944088 0.000000
v 16.932368 -25.341080 -1.469463
v 17.626831 -26.380417 -2.377641
v 18.485234 -27.665108 -2.377641
v 19.179697 -28.704445 -1.469463
v 22.203765 -27.055366 0.000000
v 21.900869 -26.686286 1.469463
v 21.107878 -25.720023 2.377641
v 20.127686 -24.525656 2.377641
v 19.334694 -23.559393 1.469463
v 19.031799 -23.190314 0.000000
v 19.334694 -23.559393 -1.469463
v 20.127686 -24.525656 -2.377641
v 21.107878 -25.720023 -2.377641
v 21.900869 -26.686286 -1.469463
v 24.748737 -24.748737 0.000000
v 24.411124 -24.411124 1.469463
v 23.527240 -23.527240 2.377641
v 22.434700 -22.434700 2.377641
v 21.550817 -21.550817 1.469463
v 21.213203 -21.213203 0.000000
v 21.550817 -21.550817 -1.469463
v 22.434700 -22.434700 -2.377641
v 23.527240 -23.527240 -2.377641
v 24.411124 -24.411124 -1.469463
v 27.055366 -22.203765 0.000000
v 26.686286 -21.900869 1.469463
v 25.720023 -21.107878 2.377641
v 24.525656 -20.127686 2.377641
v 23.559393 -19.334694 1.469463
v 23.190314 -19.031799 0.000000
v 23.559393 -19.334694 -1.469463
v 24.525656 -20.127686 -2.377641
v 25.720023 -21.107878 -2.377641
v 26.686286 -21.900869 -1.469463
v 29.101436 -19.444958 0.000000
v 28.704445 -19.179697 1.469463
v 27.665108 -18.485234 2.377641
v 26.380417 -17.626831 2.377641
v 25.341080 -16.932368 1.469463
v 24.944088 -16.667107 0.000000
v 25.341080 -16.932368 -1.469463
v 26.380417 -17.626831 -2.377641
v 27.665108 -18.485234 -2.377641
v 28.704445 -19.179697 -1.469463
v 30.867244 -16.498886 0.000000
v 30.446164 -16.273814 1.469463
v 29.343763 -15.684568 2.377641
v 27.981119 -14.956220 2.377641
v 26.878718 -14.366974 1.469463
v 26.457638 -14.141902 0.000000
v 26.878718 -14.366974 -1.469463
v 27.981119 -14.956220 -2.377641
v 29.343763 -15.684568 -2.377641
v 30.446164 -16.273814 -1.469463
v 32.335784 -13.393920 0.000000
v 31.894670 -13.211205 1.469463
v 30.739821 -12.732851 2.377641
v 29.312349 -12.141572 2.377641
v 28.157499 -11.663218 1.469463
v 27.716386 -11.480503 0.000000
v 28.157499 -11.663218 -1.469463
v 29.312349 -12.141572 -2.377641
v 30.739821 -12.732851 -2.377641
v 31.894670 -13.211205 -1.469463
v 33.492912 -10.159964 0.000000
v 33.036013 -10.021365 1.469463
v 31.839838 -9.658509 2.377641
v 30.361284 -9.209995 2.377641
v 29.165108 -8.847139 1.469463
v 28.708210 -8.708540 0.000000
v 29.165108 -8.847139 -1.469463
v 30.361284 -9.209995 -2.377641
v 31.839838 -9.658509 -2.377641
v 33.036013 -10.021365 -1.469463
v 34.327485 -6.828161 0.000000
v 33.859202 -6.735014 1.469463
v 32.633220 -6.491151 2.377641
v 31.117823 -6.189720 2.377641
v 29.891842 -5.945857 1.469463
v 29.423558 -5.852710 0.000000
v 29.891842 -5.945857 -1.469463
v 31.117823 -6.189720 -2.377641
v 32.633220 -6.491151 -2.377641
v 33.859202 -6.735014 -1.469463
v 34.831465 -3.430600 0.000000
v 34.356307 -3.383801 1.469463
v 33.112326 -3.261279 2.377641
v 31.574681 -3.109835 2.377641
v 30.330700 -2.987313 1.469463
v 29.855542 -2.940514 0.000000
v 30.330700 -2.987313 -1.469463
v 31.574681 -3.109835 -2.377641
v 33.112326 -3.261279 -2.377641
v 34.356307 -3.383801 -1.469463
f 1 11 12 2
f 2 12 13 3
f 3 13 14 4
f 4 14 15 5
f 5 15 16 6
f 6 16 17 7
f 7 17 18 8
f 8 18 19 9
f 9 19 20 10
f 10 20 11 1
f 11 21 22 12
f 12 22 23 13
f 13 23 24 14
f 14 24 25 15
f 15 25 26 16
f 16 26 27 17
f 17 27 28 18
f 18 28 29 19
f 19 29 30 20
f 20 30 21 11
f 21 31 32 22
f 22 32 33 23
f 23 33 34 24
f 24 34 35 25
f 25 35 36 26
f 26 36 37 27
f 27 37 38 28
f 28 38 39 29
f 29 39 40 30
f 30 40 31 21
f 31 41 42 32
f 32 42 43 33
f 33 43 44 34
f 34 44 45 35
f 35 45 46 36
f 36 46 47 37
f 37 47 48 38
f 38 48 49 39
f 39 49 50 40
f 40 50 41 31
f 41 51 52 42
f 42 52 53 43
f 43 53 54 44
f 44 54 55 45
f 45 55 56 46
f 46 56 57 47
f 47 57 58 48
f 48 58 59 49
f 49 59 60 50
f 50 60 51 41
f 51 61 62 52
f 52 62 63 53
f 53 63 64 54
f 54 64 65 55
f 55 65 66 56
f 56 66 67 57
f 57 67 68 58
f 58 68 69 59
f 59 69 70 60
f 60 70 61 51
f 61 71 72 62
f 62 72 73 63
f 63 73 74 64
f 64 74 75 65
f 65 75 76 66
f 66 76 77 67
f 67 77 78 68
f 68 78 79 69
f 69 79 80 70
f 70 80 71 61
f 71 81 82 72
f 72 82 83 73
f 73 83 84 74
f 74 84 85 75
f 75 85 86 76
f 76 86 87 77
f 77 87 88 78
f 78 88 89 79
f 79 89 90 80
f 80 90 81 71
f 81 91 92 82
f 82 92 93 83
f 83 93 94 84
f 84 94 95 85
f 85 95 96 86
f 86 96 97 87
f 87 97 98 88
f 88 98 99 89
f 89 99 100 90
f 90 100 91 81
f 91 101 102 92
f 92 102 103 93
f 93 103 104 94
f 94 104 105 95
f 95 105 106 96
f 96 106 107 97
f 97 107 108 98
f 98 108 109 99
f 99 109 110 100
f 100 110 101 91
f 101 111 112 102
f 102 112 113 103
f 103 113 114 104
f 104 114 115 105
f 105 115 116 106
f 106 116 117 107
f 107 117 118 108
f 108 118 119 109
f 109 119 120 110
f 110 120 111 101
f 111 121 122 112
f 112 122 123 113
f 113 123 124 114
f 114 124 125 115
f 115 125 126 116
f 116 126 127 117
f 117 127 128 118
f 118 128 129 119
f 119 129 130 120
f 120 130 121 111
f 121 131 132 122
f 122 132 133 123
f 123 133 134 124
f 124 134 135 125
f 125 135 136 126
f 126 136 137 127
f 127 137 138 128
f 128 138 139 129
f 129 139 140 130
f 130 140 131 121
f 131 141 142 132
f 132 142 143 133
f 133 143 144 134
f 134 144 145 135
f 135 145 146 136
f 136 146 147 137
f 137 147 148 138
f 138 148 149 139
f 139 149 150 140
f 140 150 141 131
f 141 151 152 142
f 142 152 153 143
f 143 153 154 144
f 144 154 155 145
f 145 155 156 146
f 146 156 157 147
f 147 157 158 148
f 148 158 159 149
f 149 159 160 150
f 150 160 151 141
f 151 161 162 152
f 152 162 163 153
f 153 163 164 154
f 154 164 165 155
f 155 165 166 156
f 156 166 167 157
f 157 167 168 158
f 158 168 169 159
f 159 169 170 160
f 160 170 161 151
f 161 171 172 162
f 162 172 173 163
f 163 173 174 164
f 164 174 175 165
f 165 175 176 166
f 166 176 177 167
f 167 177 178 168
f 168 178 179 169
f 169 179 180 170
f 170 180 171 161
f 171 181 182 172
f 172 182 183 173
f 173 183 184 174
f 174 184 185 175
f 175 185 186 176
f 176 186 187 177
f 177 187 188 178
f 178 188 189 179
f 179 189 190 180
f 180 190 181 171
f 181 191 192 182
f 182 192 193 183
f 183 193 194 184
f 184 194 195 185
f 185 195 196 186
f 186 196 197 187
f 187 197 198 188
f 188 198 199 189
f 189 199 200 190
f 190 200 191 181
f 191 201 202 192
f 192 202 203 193
f 193 203 204 194
f 194 204 205 195
f 195 205 206 196
f 196 206 207 197
f 197 207 208 198
f 198 208 209 199
f 199 209 210 200
f 200 210 201 191
f 201 211 212 202
f 202 212 213 203
f 203 213 214 204
f 204 214 215 205
f 205 215 216 206
f 206 216 217 207
f 207 217 218 208
f 208 218 219 209
f 209 219 220 210
f 210 220 211 201
f 211 221 222 212
f 212 222 223 213
f 213 223 224 214
f 214 224 225 215
f 215 225 226 216
f 216 226 227 217
f 217 227 228 218
f 218 228 229 219
f 219 229 230 220
f 220 230 221 211
f 221 231 232 222
f 222 232 233 223
f 223 233 234 224
f 224 234 235 225
f 225 235 236 226
f 226 236 237 227
f 227 237 238 228
f 228 238 239 229
f 229 239 240 230
f 230 240 231 221
f 231 241 242 232
f 232 242 243 233
f 233 243 244 234
f 234 244 245 235
f 235 245 246 236
f 236 246 247 237
f 237 247 248 238
f 238 248 249 239
f 239 249 250 240
f 240 250 241 231
f 241 251 252 242
f 242 252 253 243
f 243 253 254 244
f 244 254 255 245
f 245 255 256 246
f 246 256 257 247
f 247 257 258 248
f 248 258 259 249
f 249 259 260 250
f 250 260 251 241
f 251 261 262 252
f 252 262 263 253
f 253 263 264 254
f 254 264 265 255
f 255 265 266 256
f 256 266 267 257
f 257 267 268 258
f 258 268 269 259
f 259 269 270 260
f 260 270 261 251
f 261 271 272 262
f 262 272 273 263
f 263 273 274 264
f 264 274 275 265
f 265 275 276 266
f 266 276 277 267
f 267 277 278 268
f 268 278 279 269
f 269 279 280 270
f 270 280 271 261
f 271 281 282 272
f 272 282 283 273
f 273 283 284 274
f 274 284 285 275
f 275 285 286 276
f 276 286 287 277
f 277 287 288 278
f 278 288 289 279
f 279 289 290 280
f 280 290 281 271
f 281 291 292 282
f 282 292 293 283
f 283 293 294 284
f 284 294 295 285
f 285 295 296 286
f 286 296 297 287
f 287 297 298 288
f 288 298 299 289
f 289 299 300 290
f 290 300 291 281
f 291 301 302 292
f 292 302 303 293
f 293 303 304 294
f 294 304 305 295
f 295 305 306 296
f 296 306 307 297
f 297 307 308 298
f 298 308 309 299
f 299 309 310 300
f 300 310 301 291
f 301 311 312 302
f 302 312 313 303
f 303 313 314 304
f 304 314 315 305
f 305 315 316 306
f 306 316 317 307
f 307 317 318 308
f 308 318 319 309
f 309 319 320 310
f 310 320 311 301
f 311 321 322 312
f 312 322 323 313
f 313 323 324 314
f 314 324 325 315
f 315 325 326 316
f 316 326 327 317
f 317 327 328 318
f 318 328 329 319
f 319 329 330 320
f 320 330 321 311
f 321 331 332 322
f 322 332 333 323
f 323 333 334 324
f 324 334 335 325
f 325 335 336 326
f 326 336 337 327
f 327 337 338 328
f 328 338 339 329
f 329 339 340 330
f 330 340 331 321
f 331 341 342 332
f 332 342 343 333
f 333 343 344 334
f 334 344 345 335
f 335 345 346 336
f 336 346 347 337
f 337 347 348 338
f 338 348 349 339
f 339 349 350 340
f 340 350 341 331
f 341 351 352 342
f 342 352 353 343
f 343 353 354 344
f 344 354 355 345
f 345 355 356 346
f 346 356 357 347
f 347 357 358 348
f 348 358 359 349
f 349 359 360 350
f 350 360 351 341
f 351 361 362 352
f 352 362 363 353
f 353 363 364 354
f 354 364 365 355
f 355 365 366 356
f 356 366 367 357
f 357 367 368 358
f 358 368 369 359
f 359 369 370 360
f 360 370 361 351
f 361 371 372 362
f 362 372 373 363
f 363 373 374 364
f 364 374 375 365
f 365 375 376 366
f 366 376 377 367
f 367 377 378 368
f 368 378 379 369
f 369 379 380 370
f 370 380 371 361
f 371 381 382 372
f 372 382 383 373
f 373 383 384 374
f 374 384 385 375
f 375 385 386 376
f 376 386 387 377
f 377 387 388 378
f 378 388 389 379
f 379 389 390 380
f 380 390 381 371
f 381 391 392 382
f 382 392 393 383
f 383 393 394 384
f 384 394 395 385
f 385 395 396 386
f 386 396 397 387
f 387 397 398 388
f 388 398 399 389
f 389 399 400 390
f 390 400 391 381
f 391 401 402 392
f 392 402 403 393
f 393 403 404 394
f 394 404 405 395
f 395 405 406 396
f 396 406 407 397
f 397 407 408 398
f 398 408 409 399
f 399 409 410 400
f 400 410 401 391
f 401 411 412 402
f 402 412 413 403
f 403 413 414 404
f 404 414 415 405
f 405 415 416 406
f 406 416 417 407
f 407 417 418 408
f 408 418 419 409
f 409 419 420 410
f 410 420 411 401
f 411 421 422 412
f 412 422 423 413
f 413 423 424 414
f 414 424 425 415
f 415 425 426 416
f 416 426 427 417
f 417 427 428 418
f 418 428 429 419
f 419 429 430 420
f 420 430 421 411
f 421 431 432 422
f 422 432 433 423
f 423 433 434 424
f 424 434 435 425
f 425 435 436 426
f 426 436 437 427
f 427 437 438 428
f 428 438 439 429
f 429 439 440 430
f 430 440 431 421
f 431 441 442 432
f 432 442 443 433
f 433 443 444 434
f 434 444 445 435
f 435 445 446 436
f 436 446 447 437
f 437 447 448 438
f 438 448 449 439
f 439 449 450 440
f 440 450 441 431
f 441 451 452 442
f 442 452 453 443
f 443 453 454 444
f 444 454 455 445
f 445 455 456 446
f 446 456 457 447
f 447 457 458 448
f 448 458 459 449
f 449 459 460 450
f 450 460 451 441
f 451 461 462 452
f 452 462 463 453
f 453 463 464 454
f 454 464 465 455
f 455 465 466 456
f 456 466 467 457
f 457 467 468 458
f 458 468 469 459
f 459 469 470 460
f 460 470 461 451
f 461 471 472 462
f 462 472 473 463
f 463 473 474 464
f 464 474 475 465
f 465 475 476 466
f 466 476 477 467
f 467 477 478 468
f 468 478 479 469
f 469 479 480 470
f 470 480 471 461
f 471 481 482 472
f 472 482 483 473
f 473 483 484 474
f 474 484 485 475
f 475 485 486 476
f 476 486 487 477
f 477 487 488 478
f 478 488 489 479
f 479 489 490 480
f 480 490 481 471
f 481 491 492 482
f 482 492 493 483
f 483 493 494 484
f 484 494 495 485
f 485 495 496 486
f 486 496 497 487
f 487 497 498 488
f 488 498 499 489
f 489 499 500 490
f 490 500 491 481
f 491 501 502 492
f 492 502 503 493
f 493 503 504 494
f 494 504 505 495
f 495 505 506 496
f 496 506 507 497
f 497 507 508 498
f 498 508 509 499
f 499 509 510 500
f 500 510 501 491
f 501 511 512 502
f 502 512 513 503
f 503 513 514 504
f 504 514 515 505
f 505 515 516 506
f 506 516 517 507
f 507 517 518 508
f 508 518 519 509
f 509 519 520 510
f 510 520 511 501
f 511 521 522 512
f 512 522 523 513
f 513 523 524 514
f 514 524 525 515
f 515 525 526 516
f 516 526 527 517
f 517 527 528 518
f 518 528 529 519
f 519 529 530 520
f 520 530 521 511
f 521 531 532 522
f 522 532 533 523
f 523 533 534 524
f 524 534 535 525
f 525 535 536 526
f 526 536 537 527
f 527 537 538 528
f 528 538 539 529
f 529 539 540 530
f 530 540 531 521
f 531 541 542 532
f 532 542 543 533
f 533 543 544 534
f 534 544 545 535
f 535 545 546 536
f 536 546 547 537
f 537 547 548 538
f 538 548 549 539
f 539 549 550 540
f 540 550 541 531
f 541 551 552 542
f 542 552 553 543
f 543 553 554 544
f 544 554 555 545
f 545 555 556 546
f 546 556 557 547
f 547 557 558 548
f 548 558 559 549
f 549 559 560 550
f 550 560 551 541
f 551 561 562 552
f 552 562 563 553
f 553 563 564 554
f 554 564 565 555
f 555 565 566 556
f 556 566 567 557
f 557 567 568 558
f 558 568 569 559
f 559 569 570 560
f 560 570 561 551
f 561 571 572 562
f 562 572 573 563
f 563 573 574 564
f 564 574 575 565
f 565 575 576 566
f 566 576 577 567
f 567 577 578 568
f 568 578 579 569
f 569 579 580 570
f 570 580 571 561
f 571 581 582 572
f 572 582 583 573
f 573 583 584 574
f 574 584 585 575
f 575 585 586 576
f 576 586 587 577
f 577 587 588 578
f 578 588 589 579
f 579 589 590 580
f 580 590 581 571
f 581 591 592 582
f 582 592 593 583
f 583 593 594 584
f 584 594 595 585
f 585 595 596 586
f 586 596 597 587
f 587 597 598 588
f 588 598 599 589
f 589 599 600 590
f 590 600 591 581
f 591 601 602 592
f 592 602 603 593
f 593 603 604 594
f 594 604 605 595
f 595 605 606 596
f 596 606 607 597
f 597 607 608 598
f 598 608 609 599
f 599 609 610 600
f 600 610 601 591
f 601 611 612 602
f 602 612 613 603
f 603 613 614 604
f 604 614 615 605
f 605 615 616 606
f 606 616 617 607
f 607 617 618 608
f 608 618 619 609
f 609 619 620 610
f 610 620 611 601
f 611 621 622 612
f 612 622 623 613
f 613 623 624 614
f 614 624 625 615
f 615 625 626 616
f 616 626 627 617
f 617 627 628 618
f 618 628 629 619
f 619 629 630 620
f 620 630 621 611
f 621 631 632 622
f 622 632 633 623
f 623 633 634 624
f 624 634 635 625
f 625 635 636 626
f 626 636 637 627
f 627 637 638 628
f 628 638 639 629
f 629 639 640 630
f 630 640 631 621
f 631 1 2 632
f 632 2 3 633
f 633 3 4 634
f 634 4 5 635
f 635 5 6 636
f 636 6 7 637
f 637 7 8 638
f 638 8 9 639
f 639 9 10 640
f 640 10 1 631
usemtl Alloy
v 30.200000 0.000000 0.000000
v 30.066312 0.000000 0.411450
v 29.716312 0.000000 0.665740
v 29.283688 0.000000 0.665740
v 28.933688 0.000000 0.411450
v 28.800000 0.000000 0.000000
v 28.933688 0.000000 -0.411450
v 29.283688 0.000000 -0.665740
v 29.716312 0.000000 -0.665740
v 30.066312 0.000000 -0.411450
v 30.054579 2.960118 0.000000
v 29.921534 2.947014 0.411450
v 29.573220 2.912708 0.665740
v 29.142679 2.870303 0.665740
v 28.794364 2.835997 0.411450
v 28.661320 2.822894 0.000000
v 28.794364 2.835997 -0.411450
v 29.142679 2.870303 -0.665740
v 29.573220 2.912708 -0.665740
v 29.921534 2.947014 -0.411450
v 29.619715 5.891728 0.000000
v 29.488596 5.865646 0.411450
v 29.145321 5.797365 0.665740
v 28.721010 5.712964 0.665740
v 28.377735 5.644683 0.411450
v 28.246616 5.618601 0.000000
v 28.377735 5.644683 -0.411450
v 28.721010 5.712964 -0.665740
v 29.145321 5.797365 -0.665740
v 29.488596 5.865646 -0.411450
v 28.899598 8.766597 0.000000
v 28.771667 8.727790 0.411450
v 28.436737 8.626190 0.665740
v 28.022742 8.500606 0.665740
v 27.687813 8.399006 0.411450
v 27.559882 8.360199 0.000000
v 27.687813 8.399006 -0.411450
v 28.022742 8.500606 -0.665740
v 28.436737 8.626190 -0.665740
v 28.771667 8.727790 -0.411450
v 27.901162 11.557040 0.000000
v 27.777650 11.505879 0.411450
v 27.454292 11.371940 0.665740
v 27.054600 11.206382 0.665740
v 26.731242 11.072443 0.411450
v 26.607731 11.021283 0.000000
v 26.731242 11.072443 -0.411450
v 27.054600 11.206382 -0.665740
v 27.454292 11.371940 -0.665740
v 27.777650 11.505879 -0.411450
v 26.634022 14.236181 0.000000
v 26.516120 14.173161 0.411450
v 26.207447 14.008172 0.665740
v 25.825907 13.804235 0.665740
v 25.517235 13.639246 0.411450
v 25.399332 13.576226 0.000000
v 25.517235 13.639246 -0.411450
v 25.825907 13.804235 -0.665740
v 26.207447 14.008172 -0.665740
v 26.516120 14.173161 -0.411450
v 25.110382 16.778221 0.000000
v 24.999225 16.703948 0.411450
v 24.708210 16.509498 0.665740
v 24.348497 16.269145 0.665740
v 24.057482 16.074696 0.411450
v 23.946325 16.000423 0.000000
v 24.057482 16.074696 -0.411450
v 24.348497 16.269145 -0.665740
v 24.708210 16.509498 -0.665740
v 24.999225 16.703948 -0.411450
v 23.344916 19.158677 0.000000
v 23.241573 19.073866 0.411450
v 22.971020 18.851829 0.665740
v 22.636597 18.577375 0.665740
v 22.366043 18.355337 0.411450
v 22.262701 18.270527 0.000000
v 22.366043 18.355337 -0.411450
v 22.636597 18.577375 -0.665740
v 22.971020 18.851829 -0.665740
v 23.241573 19.073866 -0.411450
v 21.354625 21.354625 0.000000
v 21.260093 21.260093 0.411450
v 21.012606 21.012606 0.665740
v 20.706694 20.706694 0.665740
v 20.459207 20.459207 0.411450
v 20.364675 20.364675 0.000000
v 20.459207 20.459207 -0.411450
v 20.706694 20.706694 -0.665740
v 21.012606 21.012606 -0.665740
v 21.260093 21.260093 -0.411450
v 19.158677 23.344916 0.000000
v 19.073866 23.241573 0.411450
v 18.851829 22.971020 0.665740
v 18.577375 22.636597 0.665740
v 18.355337 22.366043 0.411450
v 18.270527 22.262701 0.000000
v 18.355337 22.366043 -0.411450
v 18.577375 22.636597 -0.665740
v 18.851829 22.971020 -0.665740
v 19.073866 23.241573 -0.411450
v 16.778221 25.110382 0.000000
v 16.703948 24.999225 0.411450
v 16.509498 24.708210 0.665740
v 16.269145 24.348497 0.665740
v 16.074696 24.057482 0.411450
v 16.000423 23.946325 0.000000
v 16.074696 24.057482 -0.411450
v 16.269145 24.348497 -0.665740
v 16.509498 24.708210 -0.665740
v 16.703948 24.999225 -0.411450
v 14.236181 26.634022 0.000000
v 14.173161 26.516120 0.411450
v 14.008172 26.207447 0.665740
v 13.804235 25.825907 0.665740
v 13.639246 25.517235 0.411450
v 13.576226 25.399332 0.000000
v 13.639246 25.517235 -0.411450
v 13.804235 25.825907 -0.665740
v 14.008172 26.207447 -0.665740
v 14.173161 26.516120 -0.411450
v 11.557040 27.901162 0.000000
v 11.505879 27.777650 0.411450
v 11.371940 27.454292 0.665740
v 11.206382 27.054600 0.665740
v 11.072443 26.731242 0.411450
v 11.021283 26.607731 0.000000
v 11.072443 26.731242 -0.411450
v 11.206382 27.054600 -0.665740
v 11.371940 27.454292 -0.665740
v 11.505879 27.777650 -0.411450
v 8.766597 28.899598 0.000000
v 8.727790 28.771667 0.411450
v 8.626190 28.436737 0.665740
v 8.500606 28.022742 0.665740
v 8.399006 27.687813 0.411450
v 8.360199 27.559882 0.000000
v 8.399006 27.687813 -0.411450
v 8.500606 28.022742 -0.665740
v 8.626190 28.436737 -0.665740
v 8.727790 28.771667 -0.411450
v 5.891728 29.619715 0.000000
v 5.865646 29.488596 0.411450
v 5.797365 29.145321 0.665740
v 5.712964 28.721010 0.665740
v 5.644683 28.377735 0.411450
v 5.618601 28.246616 0.000000
v 5.644683 28.377735 -0.411450
v 5.712964 28.721010 -0.665740
v 5.797365 29.145321 -0.665740
v 5.865646 29.488596 -0.411450
v 2.960118 30.054579 0.000000
v 2.947014 29.921534 0.411450
v 2.912708 29.573220 0.665740
v 2.870303 29.142679 0.665740
v 2.835997 28.794364 0.411450
v 2.822894 28.661320 0.000000
v 2.835997 28.794364 -0.411450
v 2.870303 29.142679 -0.665740
v 2.912708 29.573220 -0.665740
v 2.947014 29.921534 -0.411450
v 0.000000 30.200000 0.000000
v 0.000000 30.066312 0.411450
v 0.000000 29.716312 0.665740
v 0.000000 29.283688 0.665740
v 0.000000 28.933688 0.411450
v 0.000000 28.800000 0.000000
v 0.000000 28.933688 -0.411450
v 0.000000 29.283688 -0.665740
v 0.000000 29.716312 -0.665740
v 0.000000 30.066312 -0.411450
v -2.960118 30.054579 0.000000
v -2.947014 29.921534 0.411450
v -2.912708 29.573220 0.665740
v -2.870303 29.142679 0.665740
v -2.835997 28.794364 0.411450
v -2.822894 28.661320 0.000000
v -2.835997 28.794364 -0.411450
v -2.870303 29.142679 -0.665740
v -2.912708 29.573220 -0.665740
v -2.947014 29.921534 -0.411450
v -5.891728 29.619715 0.000000
v -5.865646 29.488596 0.411450
v -5.797365 29.145321 0.665740
v -5.712964 28.721010 0.665740
v -5.644683 28.377735 0.411450
v -5.618601 28.246616 0.000000
v -5.644683 28.377735 -0.411450
v -5.712964 28.721010 -0.665740
v -5.797365 29.145321 -0.665740
v -5.865646 29.488596 -0.411450
v -8.766597 28.899598 0.000000
v -8.727790 28.771667 0.411450
v -8.626190 28.436737 0.665740
v -8.500606 28.022742 0.665740
v -8.399006 27.687813 0.411450
v -8.360199 27.559882 0.000000
v -8.399006 27.687813 -0.411450
v -8.500606 28.022742 -0.665740
v -8.626190 28.436737 -0.665740
v -8.727790 28.771667 -0.411450
v -11.557040 27.901162 0.000000
v -11.505879 27.777650 0.411450
v -11.371940 27.454292 0.665740
v -11.206382 27.054600 0.665740
v -11.072443 26.731242 0.411450
v -11.021283 26.607731 0.000000
v -11.072443 26.731242 -0.411450
v -11.206382 27.054600 -0.665740
v -11.371940 27.454292 -0.665740
v -11.505879 27.777650 -0.411450
v -14.236181 26.634022 0.000000
v -14.173161 26.516120 0.411450
v -14.008172 26.207447 0.665740
v -13.804235 25.825907 0.665740
v -13.639246 25.517235 0.411450
v -13.576226 25.399332 0.000000
v -13.639246 25.517235 -0.411450
v -13.804235 25.825907 -0.665740
v -14.008172 26.207447 -0.665740
v -14.173161 26.516120 -0.411450
v -16.778221 25.110382 0.000000
v -16.703948 24.999225 0.411450
v -16.509498 24.708210 0.665740
v -16.269145 24.348497 0.665740
v -16.074696 24.057482 0.411450
v -16.000423 23.946325 0.000000
v -16.074696 24.057482 -0.411450
v -16.269145 24.348497 -0.665740
v -16.509498 24.708210 -0.665740
v -16.703948 24.999225 -0.411450
v -19.158677 23.344916 0.000000
v -19.073866 23.241573 0.411450
v -18.851829 22.971020 0.665740
v -18.577375 22.636597 0.665740
v -18.355337 22.366043 0.411450
v -18.270527 22.262701 0.000000
v -18.355337 22.366043 -0.411450
v -18.577375 22.636597 -0.665740
v -18.851829 22.971020 -0.665740
v -19.073866 23.241573 -0.411450
v -21.354625 21.354625 0.000000
v -21.260093 21.260093 0.411450
v -21.012606 21.012606 0.665740
v -20.706694 20.706694 0.665740
v -20.459207 20.459207 0.411450
v -20.364675 20.364675 0.000000
v -20.459207 20.459207 -0.411450
v -20.706694 20.706694 -0.665740
v -21.012606 21.012606 -0.665740
v -21.260093 21.260093 -0.411450
v -23.344916 19.158677 0.000000
v -23.241573 19.073866 0.411450
v -22.971020 18.851829 0.665740
v -22.636597 18.577375 0.665740
v -22.366043 18.355337 0.411450
v -22.262701 18.270527 0.000000
v -22.366043 18.355337 -0.411450
v -22.636597 18.577375 -0.665740
v -22.971020 18.851829 -0.665740
v -23.241573 19.073866 -0.411450
v -25.110382 16.778221 0.000000
v -24.999225 16.703948 0.411450
v -24.708210 16.509498 0.665740
v -24.348497 16.269145 0.665740
v -24.057482 16.074696 0.411450
v -23.946325 16.000423 0.000000
v -24.057482 16.074696 -0.411450
v -24.348497 16.269145 -0.665740
v -24.708210 16.509498 -0.665740
v -24.999225 16.703948 -0.411450
v -26.634022 14.236181 0.000000
v -26.516120 14.173161 0.411450
v -26.207447 14.008172 0.665740
v -25.825907 13.804235 0.665740
v -25.517235 13.639246 0.411450
v -25.399332 13.576226 0.000000
v -25.517235 13.639246 -0.411450
v -25.825907 13.804235 -0.665740
v -26.207447 14.008172 -0.665740
v -26.516120 14.173161 -0.411450
v -27.901162 11.557040 0.000000
v -27.777650 11.505879 0.411450
v -27.454292 11.371940 0.665740
v -27.054600 11.206382 0.665740
v -26.731242 11.072443 0.411450
v -26.607731 11.021283 0.000000
v -26.731242 11.072443 -0.411450
v -27.054600 11.206382 -0.665740
v -27.454292 11.371940 -0.665740
v -27.777650 11.505879 -0.411450
v -28.899598 8.766597 0.000000
v -28.771667 8.727790 0.411450
v -28.436737 8.626190 0.665740
v -28.022742 8.500606 0.665740
v -27.687813 8.399006 0.411450
v -27.559882 8.360199 0.000000
v -27.687813 8.399006 -0.411450
v -28.022742 8.500606 -0.665740
v -28.436737 8.626190 -0.665740
v -28.771667 8.727790 -0.411450
v -29.619715 5.891728 0.000000
v -29.488596 5.865646 0.411450
v -29.145321 5.797365 0.665740
v -28.721010 5.712964 0.665740
v -28.377735 5.644683 0.411450
v -28.246616 5.618601 0.000000
v -28.377735 5.644683 -0.411450
v -28.721010 5.712964 -0.665740
v -29.145321 5.797365 -0.665740
v -29.488596 5.865646 -0.411450
v -30.054579 2.960118 0.000000
v -29.921534 2.947014 0.411450
v -29.573220 2.912708 0.665740
v -29.142679 2.870303 0.665740
v -28.794364 2.835997 0.411450
v -28.661320 2.822894 0.000000
v -28.794364 2.835997 -0.411450
v -29.142679 2.870303 -0.665740
v -29.573220 2.912708 -0.665740
v -29.921534 2.947014 -0.411450
v -30.200000 0.000000 0.000000
v -30.066312 0.000000 0.411450
v -29.716312 0.000000 0.665740
v -29.283688 0.000000 0.665740
v -28.933688 0.000000 0.411450
v -28.800000 0.000000 0.000000
v -28.933688 0.000000 -0.411450
v -29.283688 0.000000 -0.665740
v -29.716312 0.000000 -0.665740
v -30.066312 0.000000 -0.411450
v -30.054579 -2.960118 0.000000
v -29.921534 -2.947014 0.411450
v -29.573220 -2.912708 0.665740
v -29.142679 -2.870303 0.665740
v -28.794364 -2.835997 0.411450
v -28.661320 -2.822894 0.000000
v -28.794364 -2.835997 -0.411450
v -29.142679 -2.870303 -0.665740
v -29.573220 -2.912708 -0.665740
v -29.921534 -2.947014 -0.411450
v -29.619715 -5.891728 0.000000
v -29.488596 -5.865646 0.411450
v -29.145321 -5.797365 0.665740
v -28.721010 -5.712964 0.665740
v -28.377735 -5.644683 0.411450
v -28.246616 -5.618601 0.000000
v -28.377735 -5.644683 -0.411450
v -28.721010 -5.712964 -0.665740
v -29.145321 -5.797365 -0.665740
v -29.488596 -5.865646 -0.411450
v -28.899598 -8.766597 0.000000
v -28.771667 -8.727790 0.411450
v -28.436737 -8.626190 0.665740
v -28.022742 -8.500606 0.665740
v -27.687813 -8.399006 0.411450
v -27.559882 -8.360199 0.000000
v -27.687813 -8.399006 -0.411450
v -28.022742 -8.500606 -0.665740
v -28.436737 -8.626190 -0.665740
v -28.771667 -8.727790 -0.411450
v -27.901162 -11.557040 0.000000
v -27.777650 -11.505879 0.411450
v -27.454292 -11.371940 0.665740
v -27.054600 -11.206382 0.665740
v -26.731242 -11.072443 0.411450
v -26.607731 -11.021283 0.000000
v -26.731242 -11.072443 -0.411450
v -27.054600 -11.206382 -0.665740
v -27.454292 -11.371940 -0.665740
v -27.777650 -11.505879 -0.411450
v -26.634022 -14.236181 0.000000
v -26.516120 -14.173161 0.411450
v -26.207447 -14.008172 0.665740
v -25.825907 -13.804235 0.665740
v -25.517235 -13.639246 0.411450
v -25.399332 -13.576226 0.000000
v -25.517235 -13.639246 -0.411450
v -25.825907 -13.804235 -0.665740
v -26.207447 -14.008172 -0.665740
v -26.516120 -14.173161 -0.411450
v -25.110382 -16.778221 0.000000
v -24.999225 -16.703948 0.411450
v -24.708210 -16.509498 0.665740
v -24.348497 -16.269145 0.665740
v -24.057482 -16.074696 0.411450
v -23.946325 -16.000423 0.000000
v -24.057482 -16.074696 -0.411450
v -24.348497 -16.269145 -0.665740
v -24.708210 -16.509498 -0.665740
v -24.999225 -16.703948 -0.411450
v -23.344916 -19.158677 0.000000
v -23.241573 -19.073866 0.411450
v -22.971020 -18.851829 0.665740
v -22.636597 -18.577375 0.665740
v -22.366043 -18.355337 0.411450
v -22.262701 -18.270527 0.000000
v -22.366043 -18.355337 -0.411450
v -22.636597 -18.577375 -0.665740
v -22.971020 -18.851829 -0.665740
v -23.241573 -19.073866 -0.411450
v -21.354625 -21.354625 0.000000
v -21.260093 -21.260093 0.411450
v -21.012606 -21.012606 0.665740
v -20.706694 -20.706694 0.665740
v -20.459207 -20.459207 0.411450
v -20.364675 -20.364675 0.000000
v -20.459207 -20.459207 -0.411450
v -20.706694 -20.706694 -0.665740
v -21.012606 -21.012606 -0.665740
v -21.260093 -21.260093 -0.411450
v -19.158677 -23.344916 0.000000
v -19.073866 -23.241573 0.411450
v -18.851829 -22.971020 0.665740
v -18.577375 -22.636597 0.665740
v -18.355337 -22.366043 0.411450
v -18.270527 -22.262701 0.000000
v -18.355337 -22.366043 -0.411450
v -18.577375 -22.636597 -0.665740
v -18.851829 -22.971020 -0.665740
v -19.073866 -23.241573 -0.411450
v -16.778221 -25.110382 0.000000
v -16.703948 -24.999225 0.411450
v -16.509498 -24.708210 0.665740
v -16.269145 -24.348497 0.665740
v -16.074696 -24.057482 0.411450
v -16.000423 -23.946325 0.000000
v -16.074696 -24.057482 -0.411450
v -16.269145 -24.348497 -0.665740
v -16.509498 -24.708210 -0.665740
v -16.703948 -24.999225 -0.411450
v -14.236181 -26.634022 0.000000
v -14.173161 -26.516120 0.411450
v -14.008172 -26.207447 0.665740
v -13.804235 -25.825907 0.665740
v -13.639246 -25.517235 0.411450
v -13.576226 -25.399332 0.000000
v -13.639246 -25.517235 -0.411450
v -13.804235 -25.825907 -0.665740
v -14.008172 -26.207447 -0.665740
v -14.173161 -26.516120 -0.411450
v -11.557040 -27.901162 0.000000
v -11.505879 -27.777650 0.411450
v -11.371940 -27.454292 0.665740
v -11.206382 -27.054600 0.665740
v -11.072443 -26.731242 0.411450
v -11.021283 -26.607731 0.000000
v -11.072443 -26.731242 -0.411450
v -11.206382 -27.054600 -0.665740
v -11.371940 -27.454292 -0.665740
v -11.505879 -27.777650 -0.411450
v -8.766597 -28.899598 0.000000
v -8.727790 -28.771667 0.411450
v -8.626190 -28.436737 0.665740
v -8.500606 -28.022742 0.665740
v -8.399006 -27.687813 0.411450
v -8.360199 -27.559882 0.000000
v -8.399006 -27.687813 -0.411450
v -8.500606 -28.022742 -0.665740
v -8.626190 -28.436737 -0.665740
v -8.727790 -28.771667 -0.411450
v -5.891728 -29.619715 0.000000
v -5.865646 -29.488596 0.411450
v -5.797365 -29.145321 0.665740
v -5.712964 -28.721010 0.665740
v -5.644683 -28.377735 0.411450
v -5.618601 -28.246616 0.000000
v -5.644683 -28.377735 -0.411450
v -5.712964 -28.721010 -0.665740
v -5.797365 -29.145321 -0.665740
v -5.865646 -29.488596 -0.411450
v -2.960118 -30.054579 0.000000
v -2.947014 -29.921534 0.411450
v -2.912708 -29.573220 0.665740
v -2.870303 -29.142679 0.665740
v -2.835997 -28.794364 0.411450
v -2.822894 -28.661320 0.000000
v -2.835997 -28.794364 -0.411450
v -2.870303 -29.142679 -0.665740
v -2.912708 -29.573220 -0.665740
v -2.947014 -29.921534 -0.411450
v -0.000000 -30.200000 0.000000
v -0.000000 -30.066312 0.411450
v -0.000000 -29.716312 0.665740
v -0.000000 -29.283688 0.665740
v -0.000000 -28.933688 0.411450
v -0.000000 -28.800000 0.000000
v -0.000000 -28.933688 -0.411450
v -0.000000 -29.283688 -0.665740
v -0.000000 -29.716312 -0.665740
v -0.000000 -30.066312 -0.411450
v 2.960118 -30.054579 0.000000
v 2.947014 -29.921534 0.411450
v 2.912708 -29.573220 0.665740
v 2.870303 -29.142679 0.665740
v 2.835997 -28.794364 0.411450
v 2.822894 -28.661320 0.000000
v 2.835997 -28.794364 -0.411450
v 2.870303 -29.142679 -0.665740
v 2.912708 -29.573220 -0.665740
v 2.947014 -29.921534 -0.411450
v 5.891728 -29.619715 0.000000
v 5.865646 -29.488596 0.411450
v 5.797365 -29.145321 0.665740
v 5.712964 -28.721010 0.665740
v 5.644683 -28.377735 0.411450
v 5.618601 -28.246616 0.000000
v 5.644683 -28.377735 -0.411450
v 5.712964 -28.721010 -0.665740
v 5.797365 -29.145321 -0.665740
v 5.865646 -29.488596 -0.411450
v 8.766597 -28.899598 0.000000
v 8.727790 -28.771667 0.411450
v 8.626190 -28.436737 0.665740
v 8.500606 -28.022742 0.665740
v 8.399006 -27.687813 0.411450
v 8.360199 -27.559882 0.000000
v 8.399006 -27.687813 -0.411450
v 8.500606 -28.022742 -0.665740
v 8.626190 -28.436737 -0.665740
v 8.727790 -28.771667 -0.411450
v 11.557040 -27.901162 0.000000
v 11.505879 -27.777650 0.411450
v 11.371940 -27.454292 0.665740
v 11.206382 -27.054600 0.665740
v 11.072443 -26.731242 0.411450
v 11.021283 -26.607731 0.000000
v 11.072443 -26.731242 -0.411450
v 11.206382 -27.054600 -0.665740
v 11.371940 -27.454292 -0.665740
v 11.505879 -27.777650 -0.411450
v 14.236181 -26.634022 0.000000
v 14.173161 -26.516120 0.411450
v 14.008172 -26.207447 0.665740
v 13.804235 -25.825907 0.665740
v 13.639246 -25.517235 0.411450
v 13.576226 -25.399332 0.000000
v 13.639246 -25.517235 -0.411450
v 13.804235 -25.825907 -0.665740
v 14.008172 -26.207447 -0.665740
v 14.173161 -26.516120 -0.411450
v 16.778221 -25.110382 0.000000
v 16.703948 -24.999225 0.411450
v 16.509498 -24.708210 0.665740
v 16.269145 -24.348497 0.665740
v 16.074696 -24.057482 0.411450
v 16.000423 -23.946325 0.000000
v 16.074696 -24.057482 -0.411450
v 16.269145 -24.348497 -0.665740
v 16.509498 -24.708210 -0.665740
v 16.703948 -24.999225 -0.411450
v 19.158677 -23.344916 0.000000
v 19.073866 -23.241573 0.411450
v 18.851829 -22.971020 0.665740
v 18.577375 -22.636597 0.665740
v 18.355337 -22.366043 0.411450
v 18.270527 -22.262701 0.000000
v 18.355337 -22.366043 -0.411450
v 18.577375 -22.636597 -0.665740
v 18.851829 -22.971020 -0.665740
v 19.073866 -23.241573 -0.411450
v 21.354625 -21.354625 0.000000
v 21.260093 -21.260093 0.411450
v 21.012606 -21.012606 0.665740
v 20.706694 -20.706694 0.665740
v 20.459207 -20.459207 0.411450
v 20.364675 -20.364675 0.000000
v 20.459207 -20.459207 -0.411450
v 20.706694 -20.706694 -0.665740
v 21.012606 -21.012606 -0.665740
v 21.260093 -21.260093 -0.411450
v 23.344916 -19.158677 0.000000
v 23.241573 -19.073866 0.411450
v 22.971020 -18.851829 0.665740
v 22.636597 -18.577375 0.665740
v 22.366043 -18.355337 0.411450
v 22.262701 -18.270527 0.000000
v 22.366043 -18.355337 -0.411450
v 22.636597 -18.577375 -0.665740
v 22.971020 -18.851829 -0.665740
v 23.241573 -19.073866 -0.411450
v 25.110382 -16.778221 0.000000
v 24.999225 -16.703948 0.411450
v 24.708210 -16.509498 0.665740
v 24.348497 -16.269145 0.665740
v 24.057482 -16.074696 0.411450
v 23.946325 -16.000423 0.000000
v 24.057482 -16.074696 -0.411450
v 24.348497 -16.269145 -0.665740
v 24.708210 -16.509498 -0.665740
v 24.999225 -16.703948 -0.411450
v 26.634022 -14.236181 0.000000
v 26.516120 -14.173161 0.411450
v 26.207447 -14.008172 0.665740
v 25.825907 -13.804235 0.665740
v 25.517235 -13.639246 0.411450
v 25.399332 -13.576226 0.000000
v 25.517235 -13.639246 -0.411450
v 25.825907 -13.804235 -0.665740
v 26.207447 -14.008172 -0.665740
v 26.516120 -14.173161 -0.411450
v 27.901162 -11.557040 0.000000
v 27.777650 -11.505879 0.411450
v 27.454292 -11.371940 0.665740
v 27.054600 -11.206382 0.665740
v 26.731242 -11.072443 0.411450
v 26.607731 -11.021283 0.000000
v 26.731242 -11.072443 -0.411450
v 27.054600 -11.206382 -0.665740
v 27.454292 -11.371940 -0.665740
v 27.777650 -11.505879 -0.411450
v 28.899598 -8.766597 0.000000
v 28.771667 -8.727790 0.411450
v 28.436737 -8.626190 0.665740
v 28.022742 -8.500606 0.665740
v 27.687813 -8.399006 0.411450
v 27.559882 -8.360199 0.000000
v 27.687813 -8.399006 -0.411450
v 28.022742 -8.500606 -0.665740
v 28.436737 -8.626190 -0.665740
v 28.771667 -8.727790 -0.411450
v 29.619715 -5.891728 0.000000
v 29.488596 -5.865646 0.411450
v 29.145321 -5.797365 0.665740
v 28.721010 -5.712964 0.665740
v 28.377735 -5.644683 0.411450
v 28.246616 -5.618601 0.000000
v 28.377735 -5.644683 -0.411450
v 28.721010 -5.712964 -0.665740
v 29.145321 -5.797365 -0.665740
v 29.488596 -5.865646 -0.411450
v 30.054579 -2.960118 0.000000
v 29.921534 -2.947014 0.411450
v 29.573220 -2.912708 0.665740
v 29.142679 -2.870303 0.665740
v 28.794364 -2.835997 0.411450
v 28.661320 -2.822894 0.000000
v 28.794364 -2.835997 -0.411450
v 29.142679 -2.870303 -0.665740
v 29.573220 -2.912708 -0.665740
v 29.921534 -2.947014 -0.411450
f 641 651 652 642
f 642 652 653 643
f 643 653 654 644
f 644 654 655 645
f 645 655 656 646
f 646 656 657 647
f 647 657 658 648
f 648 658 659 649
f 649 659 660 650
f 650 660 651 641
f 651 661 662 652
f 652 662 663 653
f 653 663 664 654
f 654 664 665 655
f 655 665 666 656
f 656 666 667 657
f 657 667 668 658
f 658 668 669 659
f 659 669 670 660
f 660 670 661 651
f 661 671 672 662
f 662 672 673 663
f 663 673 674 664
f 664 674 675 665
f 665 675 676 666
f 666 676 677 667
f 667 677 678 668
f 668 678 679 669
f 669 679 680 670
f 670 680 671 661
f 671 681 682 672
f 672 682 683 673
f 673 683 684 674
f 674 684 685 675
f 675 685 686 676
f 676 686 687 677
f 677 687 688 678
f 678 688 689 679
f 679 689 690 680
f 680 690 681 671
f 681 691 692 682
f 682 692 693 683
f 683 693 694 684
f 684 694 695 685
f 685 695 696 686
f 686 696 697 687
f 687 697 698 688
f 688 698 699 689
f 689 699 700 690
f 690 700 691 681
f 691 701 702 692
f 692 702 703 693
f 693 703 704 694
f 694 704 705 695
f 695 705 706 696
f 696 706 707 697
f 697 707 708 698
f 698 708 709 699
f 699 709 710 700
f 700 710 701 691
f 701 711 712 702
f 702 712 713 703
f 703 713 714 704
f 704 714 715 705
f 705 715 716 706
f 706 716 717 707
f 707 717 718 708
f 708 718 719 709
f 709 719 720 710
f 710 720 711 701
f 711 721 722 712
f 712 722 723 713
f 713 723 724 714
f 714 724 725 715
f 715 725 726 716
f 716 726 727 717
f 717 727 728 718
f 718 728 729 719
f 719 729 730 720
f 720 730 721 711
f 721 731 732 722
f 722 732 733 723
f 723 733 734 724
f 724 734 735 725
f 725 735 736 726
f 726 736 737 727
f 727 737 738 728
f 728 738 739 729
f 729 739 740 730
f 730 740 731 721
f 731 741 742 732
f 732 742 743 733
f 733 743 744 734
f 734 744 745 735
f 735 745 746 736
f 736 746 747 737
f 737 747 748 738
f 738 748 749 739
f 739 749 750 740
f 740 750 741 731
f 741 751 752 742
f 742 752 753 743
f 743 753 754 744
f 744 754 755 745
f 745 755 756 746
f 746 756 757 747
f 747 757 758 748
f 748 758 759 749
f 749 759 760 750
f 750 760 751 741
f 751 761 762 752
f 752 762 763 753
f 753 763 764 754
f 754 764 765 755
f 755 765 766 756
f 756 766 767 757
f 757 767 768 758
f 758 768 769 759
f 759 769 770 760
f 760 770 761 751
f 761 771 772 762
f 762 772 773 763
f 763 773 774 764
f 764 774 775 765
f 765 775 776 766
f 766 776 777 767
f 767 777 778 768
f 768 778 779 769
f 769 779 780 770
f 770 780 771 761
f 771 781 782 772
f 772 782 783 773
f 773 783 784 774
f 774 784 785 775
f 775 785 786 776
f 776 786 787 777
f 777 787 788 778
f 778 788 789 779
f 779 789 790 780
f 780 790 781 771
f 781 791 792 782
f 782 792 793 783
f 783 793 794 784
f 784 794 795 785
f 785 795 796 786
f 786 796 797 787
f 787 797 798 788
f 788 798 799 789
f 789 799 800 790
f 790 800 791 781
f 791 801 802 792
f 792 802 803 793
f 793 803 804 794
f 794 804 805 795
f 795 805 806 796
f 796 806 807 797
f 797 807 808 798
f 798 808 809 799
f 799 809 810 800
f 800 810 801 791
f 801 811 812 802
f 802 812 813 803
f 803 813 814 804
f 804 814 815 805
f 805 815 816 806
f 806 816 817 807
f 807 817 818 808
f 808 818 819 809
f 809 819 820 810
f 810 820 811 801
f 811 821 822 812
f 812 822 823 813
f 813 823 824 814
f 814 824 825 815
f 815 825 826 816
f 816 826 827 817
f 817 827 828 818
f 818 828 829 819
f 819 829 830 820
f 820 830 821 811
f 821 831 832 822
f 822 832 833 823
f 823 833 834 824
f 824 834 835 825
f 825 835 836 826
f 826 836 837 827
f 827 837 838 828
f 828 838 839 829
f 829 839 840 830
f 830 840 831 821
f 831 841 842 832
f 832 842 843 833
f 833 843 844 834
f 834 844 845 835
f 835 845 846 836
f 836 846 847 837
f 837 847 848 838
f 838 848 849 839
f 839 849 850 840
f 840 850 841 831
f 841 851 852 842
f 842 852 853 843
f 843 853 854 844
f 844 854 855 845
f 845 855 856 846
f 846 856 857 847
f 847 857 858 848
f 848 858 859 849
f 849 859 860 850
f 850 860 851 841
f 851 861 862 852
f 852 862 863 853
f 853 863 864 854
f 854 864 865 855
f 855 865 866 856
f 856 866 867 857
f 857 867 868 858
f 858 868 869 859
f 859 869 870 860
f 860 870 861 851
f 861 871 872 862
f 862 872 873 863
f 863 873 874 864
f 864 874 875 865
f 865 875 876 866
f 866 876 877 867
f 867 877 878 868
f 868 878 879 869
f 869 879 880 870
f 870 880 871 861
f 871 881 882 872
f 872 882 883 873
f 873 883 884 874
f 874 884 885 875
f 875 885 886 876
f 876 886 887 877
f 877 887 888 878
f 878 888 889 879
f 879 889 890 880
f 880 890 881 871
f 881 891 892 882
f 882 892 893 883
f 883 893 894 884
f 884 894 895 885
f 885 895 896 886
f 886 896 897 887
f 887 897 898 888
f 888 898 899 889
f 889 899 900 890
f 890 900 891 881
f 891 901 902 892
f 892 902 903 893
f 893 903 904 894
f 894 904 905 895
f 895 905 906 896
f 896 906 907 897
f 897 907 908 898
f 898 908 909 899
f 899 909 910 900
f 900 910 901 891
f 901 911 912 902
f 902 912 913 903
f 903 913 914 904
f 904 914 915 905
f 905 915 916 906
f 906 916 917 907
f 907 917 918 908
f 908 918 919 909
f 909 919 920 910
f 910 920 911 901
f 911 921 922 912
f 912 922 923 913
f 913 923 924 914
f 914 924 925 915
f 915 925 926 916
f 916 926 927 917
f 917 927 928 918
f 918 928 929 919
f 919 929 930 920
f 920 930 921 911
f 921 931 932 922
f 922 932 933 923
f 923 933 934 924
f 924 934 935 925
f 925 935 936 926
f 926 936 937 927
f 927 937 938 928
f 928 938 939 929
f 929 939 940 930
f 930 940 931 921
f 931 941 942 932
f 932 942 943 933
f 933 943 944 934
f 934 944 945 935
f 935 945 946 936
f 936 946 947 937
f 937 947 948 938
f 938 948 949 939
f 939 949 950 940
f 940 950 941 931
f 941 951 952 942
f 942 952 953 943
f 943 953 954 944
f 944 954 955 945
f 945 955 956 946
f 946 956 957 947
f 947 957 958 948
f 948 958 959 949
f 949 959 960 950
f 950 960 951 941
f 951 961 962 952
f 952 962 963 953
f 953 963 964 954
f 954 964 965 955
f 955 965 966 956
f 956 966 967 957
f 957 967 968 958
f 958 968 969 959
f 959 969 970 960
f 960 970 961 951
f 961 971 972 962
f 962 972 973 963
f 963 973 974 964
f 964 974 975 965
f 965 975 976 966
f 966 976 977 967
f 967 977 978 968
f 968 978 979 969
f 969 979 980 970
f 970 980 971 961
f 971 981 982 972
f 972 982 983 973
f 973 983 984 974
f 974 984 985 975
f 975 985 986 976
f 976 986 987 977
f 977 987 988 978
f 978 988 989 979
f 979 989 990 980
f 980 990 981 971
f 981 991 992 982
f 982 992 993 983
f 983 993 994 984
f 984 994 995 985
f 985 995 996 986
f 986 996 997 987
f 987 997 998 988
f 988 998 999 989
f 989 999 1000 990
f 990 1000 991 981
f 991 1001 1002 992
f 992 1002 1003 993
f 993 1003 1004 994
f 994 1004 1005 995
f 995 1005 1006 996
f 996 1006 1007 997
f 997 1007 1008 998
f 998 1008 1009 999
f 999 1009 1010 1000
f 1000 1010 1001 991
f 1001 1011 1012 1002
f 1002 1012 1013 1003
f 1003 1013 1014 1004
f 1004 1014 1015 1005
f 1005 1015 1016 1006
f 1006 1016 1017 1007
f 1007 1017 1018 1008
f 1008 1018 1019 1009
f 1009 1019 1020 1010
f 1010 1020 1011 1001
f 1011 1021 1022 1012
f 1012 1022 1023 1013
f 1013 1023 1024 1014
f 1014 1024 1025 1015
f 1015 1025 1026 1016
f 1016 1026 1027 1017
f 1017 1027 1028 1018
f 1018 1028 1029 1019
f 1019 1029 1030 1020
f 1020 1030 1021 1011
f 1021 1031 1032 1022
f 1022 1032 1033 1023
f 1023 1033 1034 1024
f 1024 1034 1035 1025
f 1025 1035 1036 1026
f 1026 1036 1037 1027
f 1027 1037 1038 1028
f 1028 1038 1039 1029
f 1029 1039 1040 1030
f 1030 1040 1031 1021
f 1031 1041 1042 1032
f 1032 1042 1043 1033
f 1033 1043 1044 1034
f 1034 1044 1045 1035
f 1035 1045 1046 1036
f 1036 1046 1047 1037
f 1037 1047 1048 1038
f 1038 1048 1049 1039
f 1039 1049 1050 1040
f 1040 1050 1041 1031
f 1041 1051 1052 1042
f 1042 1052 1053 1043
f 1043 1053 1054 1044
f 1044 1054 1055 1045
f 1045 1055 1056 1046
f 1046 1056 1057 1047
f 1047 1057 1058 1048
f 1048 1058 1059 1049
f 1049 1059 1060 1050
f 1050 1060 1051 1041
f 1051 1061 1062 1052
f 1052 1062 1063 1053
f 1053 1063 1064 1054
f 1054 1064 1065 1055
f 1055 1065 1066 1056
f 1056 1066 1067 1057
f 1057 1067 1068 1058
f 1058 1068 1069 1059
f 1059 1069 1070 1060
f 1060 1070 1061 1051
f 1061 1071 1072 1062
f 1062 1072 1073 1063
f 1063 1073 1074 1064
f 1064 1074 1075 1065
f 1065 1075 1076 1066
f 1066 1076 1077 1067
f 1067 1077 1078 1068
f 1068 1078 1079 1069
f 1069 1079 1080 1070
f 1070 1080 1071 1061
f 1071 1081 1082 1072
f 1072 1082 1083 1073
f 1073 1083 1084 1074
f 1074 1084 1085 1075
f 1075 1085 1086 1076
f 1076 1086 1087 1077
f 1077 1087 1088 1078
f 1078 1088 1089 1079
f 1079 1089 1090 1080
f 1080 1090 1081 1071
f 1081 1091 1092 1082
f 1082 1092 1093 1083
f 1083 1093 1094 1084
f 1084 1094 1095 1085
f 1085 1095 1096 1086
f 1086 1096 1097 1087
f 1087 1097 1098 1088
f 1088 1098 1099 1089
f 1089 1099 1100 1090
f 1090 1100 1091 1081
f 1091 1101 1102 1092
f 1092 1102 1103 1093
f 1093 1103 1104 1094
f 1094 1104 1105 1095
f 1095 1105 1106 1096
f 1096 1106 1107 1097
f 1097 1107 1108 1098
f 1098 1108 1109 1099
f 1099 1109 1110 1100
f 1100 1110 1101 1091
f 1101 1111 1112 1102
f 1102 1112 1113 1103
f 1103 1113 1114 1104
f 1104 1114 1115 1105
f 1105 1115 1116 1106
f 1106 1116 1117 1107
f 1107 1117 1118 1108
f 1108 1118 1119 1109
f 1109 1119 1120 1110
f 1110 1120 1111 1101
f 1111 1121 1122 1112
f 1112 1122 1123 1113
f 1113 1123 1124 1114
f 1114 1124 1125 1115
f 1115 1125 1126 1116
f 1116 1126 1127 1117
f 1117 1127 1128 1118
f 1118 1128 1129 1119
f 1119 1129 1130 1120
f 1120 1130 1121 1111
f 1121 1131 1132 1122
f 1122 1132 1133 1123
f 1123 1133 1134 1124
f 1124 1134 1135 1125
f 1125 1135 1136 1126
f 1126 1136 1137 1127
f 1127 1137 1138 1128
f 1128 1138 1139 1129
f 1129 1139 1140 1130
f 1130 1140 1131 1121
f 1131 1141 1142 1132
f 1132 1142 1143 1133
f 1133 1143 1144 1134
f 1134 1144 1145 1135
f 1135 1145 1146 1136
f 1136 1146 1147 1137
f 1137 1147 1148 1138
f 1138 1148 1149 1139
f 1139 1149 1150 1140
f 1140 1150 1141 1131
f 1141 1151 1152 1142
f 1142 1152 1153 1143
f 1143 1153 1154 1144
f 1144 1154 1155 1145
f 1145 1155 1156 1146
f 1146 1156 1157 1147
f 1147 1157 1158 1148
f 1148 1158 1159 1149
f 1149 1159 1160 1150
f 1150 1160 1151 1141
f 1151 1161 1162 1152
f 1152 1162 1163 1153
f 1153 1163 1164 1154
f 1154 1164 1165 1155
f 1155 1165 1166 1156
f 1156 1166 1167 1157
f 1157 1167 1168 1158
f 1158 1168 1169 1159
f 1159 1169 1170 1160
f 1160 1170 1161 1151
f 1161 1171 1172 1162
f 1162 1172 1173 1163
f 1163 1173 1174 1164
f 1164 1174 1175 1165
f 1165 1175 1176 1166
f 1166 1176 1177 1167
f 1167 1177 1178 1168
f 1168 1178 1179 1169
f 1169 1179 1180 1170
f 1170 1180 1171 1161
f 1171 1181 1182 1172
f 1172 1182 1183 1173
f 1173 1183 1184 1174
f 1174 1184 1185 1175
f 1175 1185 1186 1176
f 1176 1186 1187 1177
f 1177 1187 1188 1178
f 1178 1188 1189 1179
f 1179 1189 1190 1180
f 1180 1190 1181 1171
f 1181 1191 1192 1182
f 1182 1192 1193 1183
f 1183 1193 1194 1184
f 1184 1194 1195 1185
f 1185 1195 1196 1186
f 1186 1196 1197 1187
f 1187 1197 1198 1188
f 1188 1198 1199 1189
f 1189 1199 1200 1190
f 1190 1200 1191 1181
f 1191 1201 1202 1192
f 1192 1202 1203 1193
f 1193 1203 1204 1194
f 1194 1204 1205 1195
f 1195 1205 1206 1196
f 1196 1206 1207 1197
f 1197 1207 1208 1198
f 1198 1208 1209 1199
f 1199 1209 1210 1200
f 1200 1210 1201 1191
f 1201 1211 1212 1202
f 1202 1212 1213 1203
f 1203 1213 1214 1204
f 1204 1214 1215 1205
f 1205 1215 1216 1206
f 1206 1216 1217 1207
f 1207 1217 1218 1208
f 1208 1218 1219 1209
f 1209 1219 1220 1210
f 1210 1220 1211 1201
f 1211 1221 1222 1212
f 1212 1222 1223 1213
f 1213 1223 1224 1214
f 1214 1224 1225 1215
f 1215 1225 1226 1216
f 1216 1226 1227 1217
f 1217 1227 1228 1218
f 1218 1228 1229 1219
f 1219 1229 1230 1220
f 1220 1230 1221 1211
f 1221 1231 1232 1222
f 1222 1232 1233 1223
f 1223 1233 1234 1224
f 1224 1234 1235 1225
f 1225 1235 1236 1226
f 1226 1236 1237 1227
f 1227 1237 1238 1228
f 1228 1238 1239 1229
f 1229 1239 1240 1230
f 1230 1240 1231 1221
f 1231 1241 1242 1232
f 1232 1242 1243 1233
f 1233 1243 1244 1234
f 1234 1244 1245 1235
f 1235 1245 1246 1236
f 1236 1246 1247 1237
f 1237 1247 1248 1238
f 1238 1248 1249 1239
f 1239 1249 1250 1240
f 1240 1250 1241 1231
f 1241 1251 1252 1242
f 1242 1252 1253 1243
f 1243 1253 1254 1244
f 1244 1254 1255 1245
f 1245 1255 1256 1246
f 1246 1256 1257 1247
f 1247 1257 1258 1248
f 1248 1258 1259 1249
f 1249 1259 1260 1250
f 1250 1260 1251 1241
f 1251 1261 1262 1252
f 1252 1262 1263 1253
f 1253 1263 1264 1254
f 1254 1264 1265 1255
f 1255 1265 1266 1256
f 1256 1266 1267 1257
f 1257 1267 1268 1258
f 1258 1268 1269 1259
f 1259 1269 1270 1260
f 1260 1270 1261 1251
f 1261 1271 1272 1262
f 1262 1272 1273 1263
f 1263 1273 1274 1264
f 1264 1274 1275 1265
f 1265 1275 1276 1266
f 1266 1276 1277 1267
f 1267 1277 1278 1268
f 1268 1278 1279 1269
f 1269 1279 1280 1270
f 1270 1280 1271 1261
f 1271 641 642 1272
f 1272 642 643 1273
f 1273 643 644 1274
f 1274 644 645 1275
f 1275 645 646 1276
f 1276 646 647 1277
f 1277 647 648 1278
f 1278 648 649 1279
f 1279 649 650 1280
f 1280 650 641 1271
usemtl Alloy
v 0.000000 -0.140000 -2.000000
v 0.006696 -0.098995 -2.098768
v 0.009470 -0.000000 -2.139679
v 0.006696 0.098995 -2.098768
v 0.000000 0.140000 -2.000000
v -0.006696 0.098995 -1.901232
v -0.009470 0.000000 -1.860321
v -0.006696 -0.098995 -1.901232
v 29.500000 -0.140000 0.000000
v 29.506696 -0.098995 -0.098768
v 29.509470 -0.000000 -0.139679
v 29.506696 0.098995 -0.098768
v 29.500000 0.140000 -0.000000
v 29.493304 0.098995 0.098768
v 29.490530 0.000000 0.139679
v 29.493304 -0.098995 0.098768
f 1281 1282 1290 1289
f 1282 1283 1291 1290
f 1283 1284 1292 1291
f 1284 1285 1293 1292
f 1285 1286 1294 1293
f 1286 1287 1295 1294
f 1287 1288 1296 1295
f 1288 1281 1289 1296
usemtl Alloy
v 0.031153 -0.136490 2.000000
v 0.015500 -0.098003 1.901232
v -0.009232 -0.002107 1.860321
v -0.028557 0.095023 1.901232
v -0.031153 0.136490 2.000000
v -0.015500 0.098003 2.098768
v 0.009232 0.002107 2.139679
v 0.028557 -0.095023 2.098768
v 28.791526 6.427878 0.000000
v 28.775874 6.466365 -0.098768
v 28.751141 6.562260 -0.139679
v 28.731817 6.659390 -0.098768
v 28.729220 6.700857 -0.000000
v 28.744873 6.662371 0.098768
v 28.769606 6.566475 0.139679
v 28.788930 6.469345 0.098768
f 1297 1298 1306 1305
f 1298 1299 1307 1306
f 1299 1300 1308 1307
f 1300 1301 1309 1308
f 1301 1302 1310 1309
f 1302 1303 1311 1310
f 1303 1304 1312 1311
f 1304 1297 1305 1312
usemtl Alloy
v 0.060744 -0.126136 -2.000000
v 0.048985 -0.086286 -2.098768
v 0.008532 0.004109 -2.139679
v -0.036919 0.092097 -2.098768
v -0.060744 0.126136 -2.000000
v -0.048985 0.086286 -1.901232
v -0.008532 -0.004109 -1.860321
v 0.036919 -0.092097 -1.901232
v 26.639325 12.673435 0.000000
v 26.627567 12.713284 -0.098768
v 26.587114 12.803679 -0.139679
v 26.541662 12.891667 -0.098768
v 26.517838 12.925706 -0.000000
v 26.529596 12.885856 0.098768
v 26.570050 12.795462 0.139679
v 26.615501 12.707474 0.098768
f 1313 1314 1322 1321
f 1314 1315 1323 1322
f 1315 1316 1324 1323
f 1316 1317 1325 1324
f 1317 1318 1326 1325
f 1318 1319 1327 1326
f 1319 1320 1328 1327
f 1320 1313 1321 1328
usemtl Alloy
v 0.087289 -0.109456 2.000000
v 0.056487 -0.081572 1.901232
v -0.007404 -0.005904 1.860321
v -0.066958 0.073222 1.901232
v -0.087289 0.109456 2.000000
v -0.056487 0.081572 2.098768
v 0.007404 0.005904 2.139679
v 0.066958 -0.073222 2.098768
v 23.151317 18.283493 0.000000
v 23.120516 18.311377 -0.098768
v 23.056625 18.387045 -0.139679
v 22.997071 18.466172 -0.098768
v 22.976740 18.502406 -0.000000
v 23.007542 18.474522 0.098768
v 23.071433 18.398853 0.139679
v 23.130986 18.319727 0.098768
f 1329 1330 1338 1337
f 1330 1331 1339 1338
f 1331 1332 1340 1339
f 1332 1333 1341 1340
f 1333 1334 1342 1341
f 1334 1335 1343 1342
f 1335 1336 1344 1343
f 1336 1329 1337 1344
usemtl Alloy
v 0.109456 -0.087289 -2.000000
v 0.081572 -0.056487 -2.098768
v 0.005904 0.007404 -2.139679
v -0.073222 0.066958 -2.098768
v -0.109456 0.087289 -2.000000
v -0.081572 0.056487 -1.901232
v -0.005904 -0.007404 -1.860321
v 0.073222 -0.066958 -1.901232
v 18.502406 22.976740 0.000000
v 18.474522 23.007542 -0.098768
v 18.398853 23.071433 -0.139679
v 18.319727 23.130986 -0.098768
v 18.283493 23.151317 -0.000000
v 18.311377 23.120516 0.098768
v 18.387045 23.056625 0.139679
v 18.466172 22.997071 0.098768
f 1345 1346 1354 1353
f 1346 1347 1355 1354
f 1347 1348 1356 1355
f 1348 1349 1357 1356
f 1349 1350 1358 1357
f 1350 1351 1359 1358
f 1351 1352 1360 1359
f 1352 1345 1353 1360
usemtl Alloy
v 0.126136 -0.060744 2.000000
v 0.086286 -0.048985 1.901232
v -0.004109 -0.008532 1.860321
v -0.092097 0.036919 1.901232
v -0.126136 0.060744 2.000000
v -0.086286 0.048985 2.098768
v 0.004109 0.008532 2.139679
v 0.092097 -0.036919 2.098768
v 12.925706 26.517838 0.000000
v 12.885856 26.529596 -0.098768
v 12.795462 26.570050 -0.139679
v 12.707474 26.615501 -0.098768
v 12.673435 26.639325 -0.000000
v 12.713284 26.627567 0.098768
v 12.803679 26.587114 0.139679
v 12.891667 26.541662 0.098768
f 1361 1362 1370 1369
f 1362 1363 1371 1370
f 1363 1364 1372 1371
f 1364 1365 1373 1372
f 1365 1366 1374 1373
f 1366 1367 1375 1374
f 1367 1368 1376 1375
f 1368 1361 1369 1376
usemtl Alloy
v 0.136490 -0.031153 -2.000000
v 0.098003 -0.015500 -2.098768
v 0.002107 0.009232 -2.139679
v -0.095023 0.028557 -2.098768
v -0.136490 0.031153 -2.000000
v -0.098003 0.015500 -1.901232
v -0.002107 -0.009232 -1.860321
v 0.095023 -0.028557 -1.901232
v 6.700857 28.729220 0.000000
v 6.662371 28.744873 -0.098768
v 6.566475 28.769606 -0.139679
v 6.469345 28.788930 -0.098768
v 6.427878 28.791526 -0.000000
v 6.466365 28.775874 0.098768
v 6.562260 28.751141 0.139679
v 6.659390 28.731817 0.098768
f 1377 1378 1386 1385
f 1378 1379 1387 1386
f 1379 1380 1388 1387
f 1380 1381 1389 1388
f 1381 1382 1390 1389
f 1382 1383 1391 1390
f 1383 1384 1392 1391
f 1384 1377 1385 1392
usemtl Alloy
v 0.140000 -0.000000 2.000000
v 0.098995 -0.006696 1.901232
v 0.000000 -0.009470 1.860321
v -0.098995 -0.006696 1.901232
v -0.140000 0.000000 2.000000
v -0.098995 0.006696 2.098768
v -0.000000 0.009470 2.139679
v 0.098995 0.006696 2.098768
v 0.140000 29.500000 0.000000
v 0.098995 29.493304 -0.098768
v 0.000000 29.490530 -0.139679
v -0.098995 29.493304 -0.098768
v -0.140000 29.500000 -0.000000
v -0.098995 29.506696 0.098768
v 0.000000 29.509470 0.139679
v 0.098995 29.506696 0.098768
f 1393 1394 1402 1401
f 1394 1395 1403 1402
f 1395 1396 1404 1403
f 1396 1397 1405 1404
f 1397 1398 1406 1405
f 1398 1399 1407 1406
f 1399 1400 1408 1407
f 1400 1393 1401 1408
usemtl Alloy
v 0.136490 0.031153 -2.000000
v 0.095023 0.028557 -2.098768
v -0.002107 0.009232 -2.139679
v -0.098003 -0.015500 -2.098768
v -0.136490 -0.031153 -2.000000
v -0.095023 -0.028557 -1.901232
v 0.002107 -0.009232 -1.860321
v 0.098003 0.015500 -1.901232
v -6.427878 28.791526 0.000000
v -6.469345 28.788930 -0.098768
v -6.566475 28.769606 -0.139679
v -6.662371 28.744873 -0.098768
v -6.700857 28.729220 -0.000000
v -6.659390 28.731817 0.098768
v -6.562260 28.751141 0.139679
v -6.466365 28.775874 0.098768
f 1409 1410 1418 1417
f 1410 1411 1419 1418
f 1411 1412 1420 1419
f 1412 1413 1421 1420
f 1413 1414 1422 1421
f 1414 1415 1423 1422
f 1415 1416 1424 1423
f 1416 1409 1417 1424
usemtl Alloy
v 0.126136 0.060744 2.000000
v 0.092097 0.036919 1.901232
v 0.004109 -0.008532 1.860321
v -0.086286 -0.048985 1.901232
v -0.126136 -0.060744 2.000000
v -0.092097 -0.036919 2.098768
v -0.004109 0.008532 2.139679
v 0.086286 0.048985 2.098768
v -12.673435 26.639325 0.000000
v -12.707474 26.615501 -0.098768
v -12.795462 26.570050 -0.139679
v -12.885856 26.529596 -0.098768
v -12.925706 26.517838 -0.000000
v -12.891667 26.541662 0.098768
v -12.803679 26.587114 0.139679
v -12.713284 26.627567 0.098768
f 1425 1426 1434 1433
f 1426 1427 1435 1434
f 1427 1428 1436 1435
f 1428 1429 1437 1436
f 1429 1430 1438 1437
f 1430 1431 1439 1438
f 1431 1432 1440 1439
f 1432 1425 1433 1440
usemtl Alloy
v 0.109456 0.087289 -2.000000
v 0.073222 0.066958 -2.098768
v -0.005904 0.007404 -2.139679
v -0.081572 -0.056487 -2.098768
v -0.109456 -0.087289 -2.000000
v -0.073222 -0.066958 -1.901232
v 0.005904 -0.007404 -1.860321
v 0.081572 0.056487 -1.901232
v -18.283493 23.151317 0.000000
v -18.319727 23.130986 -0.098768
v -18.398853 23.071433 -0.139679
v -18.474522 23.007542 -0.098768
v -18.502406 22.976740 -0.000000
v -18.466172 22.997071 0.098768
v -18.387045 23.056625 0.139679
v -18.311377 23.120516 0.098768
f 1441 1442 1450 1449
f 1442 1443 1451 1450
f 1443 1444 1452 1451
f 1444 1445 1453 1452
f 1445 1446 1454 1453
f 1446 1447 1455 1454
f 1447 1448 1456 1455
f 1448 1441 1449 1456
usemtl Alloy
v 0.087289 0.109456 2.000000
v 0.066958 0.073222 1.901232
v 0.007404 -0.005904 1.860321
v -0.056487 -0.081572 1.901232
v -0.087289 -0.109456 2.000000
v -0.066958 -0.073222 2.098768
v -0.007404 0.005904 2.139679
v 0.056487 0.081572 2.098768
v -22.976740 18.502406 0.000000
v -22.997071 18.466172 -0.098768
v -23.056625 18.387045 -0.139679
v -23.120516 18.311377 -0.098768
v -23.151317 18.283493 -0.000000
v -23.130986 18.319727 0.098768
v -23.071433 18.398853 0.139679
v -23.007542 18.474522 0.098768
f 1457 1458 1466 1465
f 1458 1459 1467 1466
f 1459 1460 1468 1467
f 1460 1461 1469 1468
f 1461 1462 1470 1469
f 1462 1463 1471 1470
f 1463 1464 1472 1471
f 1464 1457 1465 1472
usemtl Alloy
v 0.060744 0.126136 -2.000000
v 0.036919 0.092097 -2.098768
v -0.008532 0.004109 -2.139679
v -0.048985 -0.086286 -2.098768
v -0.060744 -0.126136 -2.000000
v -0.036919 -0.092097 -1.901232
v 0.008532 -0.004109 -1.860321
v 0.048985 0.086286 -1.901232
v -26.517838 12.925706 0.000000
v -26.541662 12.891667 -0.098768
v -26.587114 12.803679 -0.139679
v -26.627567 12.713284 -0.098768
v -26.639325 12.673435 -0.000000
v -26.615501 12.707474 0.098768
v -26.570050 12.795462 0.139679
v -26.529596 12.885856 0.098768
f 1473 1474 1482 1481
f 1474 1475 1483 1482
f 1475 1476 1484 1483
f 1476 1477 1485 1484
f 1477 1478 1486 1485
f 1478 1479 1487 1486
f 1479 1480 1488 1487
f 1480 1473 1481 1488
usemtl Alloy
v 0.031153 0.136490 2.000000
v 0.028557 0.095023 1.901232
v 0.009232 -0.002107 1.860321
v -0.015500 -0.098003 1.901232
v -0.031153 -0.136490 2.000000
v -0.028557 -0.095023 2.098768
v -0.009232 0.002107 2.139679
v 0.015500 0.098003 2.098768
v -28.729220 6.700857 0.000000
v -28.731817 6.659390 -0.098768
v -28.751141 6.562260 -0.139679
v -28.775874 6.466365 -0.098768
v -28.791526 6.427878 -0.000000
v -28.788930 6.469345 0.098768
v -28.769606 6.566475 0.139679
v -28.744873 6.662371 0.098768
f 1489 1490 1498 1497
f 1490 1491 1499 1498
f 1491 1492 1500 1499
f 1492 1493 1501 1500
f 1493 1494 1502 1501
f 1494 1495 1503 1502
f 1495 1496 1504 1503
f 1496 1489 1497 1504
usemtl Alloy
v 0.000000 0.140000 -2.000000
v -0.006696 0.098995 -2.098768
v -0.009470 0.000000 -2.139679
v -0.006696 -0.098995 -2.098768
v -0.000000 -0.140000 -2.000000
v 0.006696 -0.098995 -1.901232
v 0.009470 -0.000000 -1.860321
v 0.006696 0.098995 -1.901232
v -29.500000 0.140000 0.000000
v -29.506696 0.098995 -0.098768
v -29.509470 0.000000 -0.139679
v -29.506696 -0.098995 -0.098768
v -29.500000 -0.140000 -0.000000
v -29.493304 -0.098995 0.098768
v -29.490530 0.000000 0.139679
v -29.493304 0.098995 0.098768
f 1505 1506 1514 1513
f 1506 1507 1515 1514
f 1507 1508 1516 1515
f 1508 1509 1517 1516
f 1509 1510 1518 1517
f 1510 1511 1519 1518
f 1511 1512 1520 1519
f 1512 1505 1513 1520
usemtl Alloy
v -0.031153 0.136490 2.000000
v -0.015500 0.098003 1.901232
v 0.009232 0.002107 1.860321
v 0.028557 -0.095023 1.901232
v 0.031153 -0.136490 2.000000
v 0.015500 -0.098003 2.098768
v -0.009232 -0.002107 2.139679
v -0.028557 0.095023 2.098768
v -28.791526 -6.427878 0.000000
v -28.775874 -6.466365 -0.098768
v -28.751141 -6.562260 -0.139679
v -28.731817 -6.659390 -0.098768
v -28.729220 -6.700857 -0.000000
v -28.744873 -6.662371 0.098768
v -28.769606 -6.566475 0.139679
v -28.788930 -6.469345 0.098768
f 1521 1522 1530 1529
f 1522 1523 1531 1530
f 1523 1524 1532 1531
f 1524 1525 1533 1532
f 1525 1526 1534 1533
f 1526 1527 1535 1534
f 1527 1528 1536 1535
f 1528 1521 1529 1536
usemtl Alloy
v -0.060744 0.126136 -2.000000
v -0.048985 0.086286 -2.098768
v -0.008532 -0.004109 -2.139679
v 0.036919 -0.092097 -2.098768
v 0.060744 -0.126136 -2.000000
v 0.048985 -0.086286 -1.901232
v 0.008532 0.004109 -1.860321
v -0.036919 0.092097 -1.901232
v -26.639325 -12.673435 0.000000
v -26.627567 -12.713284 -0.098768
v -26.587114 -12.803679 -0.139679
v -26.541662 -12.891667 -0.098768
v -26.517838 -12.925706 -0.000000
v -26.529596 -12.885856 0.098768
v -26.570050 -12.795462 0.139679
v -26.615501 -12.707474 0.098768
f 1537 1538 1546 1545
f 1538 1539 1547 1546
f 1539 1540 1548 1547
f 1540 1541 1549 1548
f 1541 1542 1550 1549
f 1542 1543 1551 1550
f 1543 1544 1552 1551
f 1544 1537 1545 1552
usemtl Alloy
v -0.087289 0.109456 2.000000
v -0.056487 0.081572 1.901232
v 0.007404 0.005904 1.860321
v 0.066958 -0.073222 1.901232
v 0.087289 -0.109456 2.000000
v 0.056487 -0.081572 2.098768
v -0.007404 -0.005904 2.139679
v -0.066958 0.073222 2.098768
v -23.151317 -18.283493 0.000000
v -23.120516 -18.311377 -0.098768
v -23.056625 -18.387045 -0.139679
v -22.997071 -18.466172 -0.098768
v -22.976740 -18.502406 -0.000000
v -23.007542 -18.474522 0.098768
v -23.071433 -18.398853 0.139679
v -23.130986 -18.319727 0.098768
f 1553 1554 1562 1561
f 1554 1555 1563 1562
f 1555 1556 1564 1563
f 1556 1557 1565 1564
f 1557 1558 1566 1565
f 1558 1559 1567 1566
f 1559 1560 1568 1567
f 1560 1553 1561 1568
usemtl Alloy
v -0.109456 0.087289 -2.000000
v -0.081572 0.056487 -2.098768
v -0.005904 -0.007404 -2.139679
v 0.073222 -0.066958 -2.098768
v 0.109456 -0.087289 -2.000000
v 0.081572 -0.056487 -1.901232
v 0.005904 0.007404 -1.860321
v -0.073222 0.066958 -1.901232
v -18.502406 -22.976740 0.000000
v -18.474522 -23.007542 -0.098768
v -18.398853 -23.071433 -0.139679
v -18.319727 -23.130986 -0.098768
v -18.283493 -23.151317 -0.000000
v -18.311377 -23.120516 0.098768
v -18.387045 -23.056625 0.139679
v -18.466172 -22.997071 0.098768
f 1569 1570 1578 1577
f 1570 1571 1579 1578
f 1571 1572 1580 1579
f 1572 1573 1581 1580
f 1573 1574 1582 1581
f 1574 1575 1583 1582
f 1575 1576 1584 1583
f 1576 1569 1577 1584
usemtl Alloy
v -0.126136 0.060744 2.000000
v -0.086286 0.048985 1.901232
v 0.004109 0.008532 1.860321
v 0.092097 -0.036919 1.901232
v 0.126136 -0.060744 2.000000
v 0.086286 -0.048985 2.098768
v -0.004109 -0.008532 2.139679
v -0.092097 0.036919 2.098768
v -12.925706 -26.517838 0.000000
v -12.885856 -26.529596 -0.098768
v -12.795462 -26.570050 -0.139679
v -12.707474 -26.615501 -0.098768
v -12.673435 -26.639325 -0.000000
v -12.713284 -26.627567 0.098768
v -12.803679 -26.587114 0.139679
v -12.891667 -26.541662 0.098768
f 1585 1586 1594 1593
f 1586 1587 1595 1594
f 1587 1588 1596 1595
f 1588 1589 1597 1596
f 1589 1590 1598 1597
f 1590 1591 1599 1598
f 1591 1592 1600 1599
f 1592 1585 1593 1600
usemtl Alloy
v -0.136490 0.031153 -2.000000
v -0.098003 0.015500 -2.098768
v -0.002107 -0.009232 -2.139679
v 0.095023 -0.028557 -2.098768
v 0.136490 -0.031153 -2.000000
v 0.098003 -0.015500 -1.901232
v 0.002107 0.009232 -1.860321
v -0.095023 0.028557 -1.901232
v -6.700857 -28.729220 0.000000
v -6.662371 -28.744873 -0.098768
v -6.566475 -28.769606 -0.139679
v -6.469345 -28.788930 -0.098768
v -6.427878 -28.791526 -0.000000
v -6.466365 -28.775874 0.098768
v -6.562260 -28.751141 0.139679
v -6.659390 -28.731817 0.098768
f 1601 1602 1610 1609
f 1602 1603 1611 1610
f 1603 1604 1612 1611
f 1604 1605 1613 1612
f 1605 1606 1614 1613
f 1606 1607 1615 1614
f 1607 1608 1616 1615
f 1608 1601 1609 1616
usemtl Alloy
v -0.140000 0.000000 2.000000
v -0.098995 0.006696 1.901232
v -0.000000 0.009470 1.860321
v 0.098995 0.006696 1.901232
v 0.140000 -0.000000 2.000000
v 0.098995 -0.006696 2.098768
v 0.000000 -0.009470 2.139679
v -0.098995 -0.006696 2.098768
v -0.140000 -29.500000 0.000000
v -0.098995 -29.493304 -0.098768
v -0.000000 -29.490530 -0.139679
v 0.098995 -29.493304 -0.098768
v 0.140000 -29.500000 -0.000000
v 0.098995 -29.506696 0.098768
v -0.000000 -29.509470 0.139679
v -0.098995 -29.506696 0.098768
f 1617 1618 1626 1625
f 1618 1619 1627 1626
f 1619 1620 1628 1627
f 1620 1621 1629 1628
f 1621 1622 1630 1629
f 1622 1623 1631 1630
f 1623 1624 1632 1631
f 1624 1617 1625 1632
usemtl Alloy
v -0.136490 -0.031153 -2.000000
v -0.095023 -0.028557 -2.098768
v 0.002107 -0.009232 -2.139679
v 0.098003 0.015500 -2.098768
v 0.136490 0.031153 -2.000000
v 0.095023 0.028557 -1.901232
v -0.002107 0.009232 -1.860321
v -0.098003 -0.015500 -1.901232
v 6.427878 -28.791526 0.000000
v 6.469345 -28.788930 -0.098768
v 6.566475 -28.769606 -0.139679
v 6.662371 -28.744873 -0.098768
v 6.700857 -28.729220 -0.000000
v 6.659390 -28.731817 0.098768
v 6.562260 -28.751141 0.139679
v 6.466365 -28.775874 0.098768
f 1633 1634 1642 1641
f 1634 1635 1643 1642
f 1635 1636 1644 1643
f 1636 1637 1645 1644
f 1637 1638 1646 1645
f 1638 1639 1647 1646
f 1639 1640 1648 1647
f 1640 1633 1641 1648
usemtl Alloy
v -0.126136 -0.060744 2.000000
v -0.092097 -0.036919 1.901232
v -0.004109 0.008532 1.860321
v 0.086286 0.048985 1.901232
v 0.126136 0.060744 2.000000
v 0.092097 0.036919 2.098768
v 0.004109 -0.008532 2.139679
v -0.086286 -0.048985 2.098768
v 12.673435 -26.639325 0.000000
v 12.707474 -26.615501 -0.098768
v 12.795462 -26.570050 -0.139679
v 12.885856 -26.529596 -0.098768
v 12.925706 -26.517838 -0.000000
v 12.891667 -26.541662 0.098768
v 12.803679 -26.587114 0.139679
v 12.713284 -26.627567 0.098768
f 1649 1650 1658 1657
f 1650 1651 1659 1658
f 1651 1652 1660 1659
f 1652 1653 1661 1660
f 1653 1654 1662 1661
f 1654 1655 1663 1662
f 1655 1656 1664 1663
f 1656 1649 1657 1664
usemtl Alloy
v -0.109456 -0.087289 -2.000000
v -0.073222 -0.066958 -2.098768
v 0.005904 -0.007404 -2.139679
v 0.081572 0.056487 -2.098768
v 0.109456 0.087289 -2.000000
v 0.073222 0.066958 -1.901232
v -0.005904 0.007404 -1.860321
v -0.081572 -0.056487 -1.901232
v 18.283493 -23.151317 0.000000
v 18.319727 -23.130986 -0.098768
v 18.398853 -23.071433 -0.139679
v 18.474522 -23.007542 -0.098768
v 18.502406 -22.976740 -0.000000
v 18.466172 -22.997071 0.098768
v 18.387045 -23.056625 0.139679
v 18.311377 -23.120516 0.098768
f 1665 1666 1674 1673
f 1666 1667 1675 1674
f 1667 1668 1676 1675
f 1668 1669 1677 1676
f 1669 1670 1678 1677
f 1670 1671 1679 1678
f 1671 1672 1680 1679
f 1672 1665 1673 1680
usemtl Alloy
v -0.087289 -0.109456 2.000000
v -0.066958 -0.073222 1.901232
v -0.007404 0.005904 1.860321
v 0.056487 0.081572 1.901232
v 0.087289 0.109456 2.000000
v 0.066958 0.073222 2.098768
v 0.007404 -0.005904 2.139679
v -0.056487 -0.081572 2.098768
v 22.976740 -18.502406 0.000000
v 22.997071 -18.466172 -0.098768
v 23.056625 -18.387045 -0.139679
v 23.120516 -18.311377 -0.098768
v 23.151317 -18.283493 -0.000000
v 23.130986 -18.319727 0.098768
v 23.071433 -18.398853 0.139679
v 23.007542 -18.474522 0.098768
f 1681 1682 1690 1689
f 1682 1683 1691 1690
f 1683 1684 1692 1691
f 1684 1685 1693 1692
f 1685 1686 1694 1693
f 1686 1687 1695 1694
f 1687 1688 1696 1695
f 1688 1681 1689 1696
usemtl Alloy
v -0.060744 -0.126136 -2.000000
v -0.036919 -0.092097 -2.098768
v 0.008532 -0.004109 -2.139679
v 0.048985 0.086286 -2.098768
v 0.060744 0.126136 -2.000000
v 0.036919 0.092097 -1.901232
v -0.008532 0.004109 -1.860321
v -0.048985 -0.086286 -1.901232
v 26.517838 -12.925706 0.000000
v 26.541662 -12.891667 -0.098768
v 26.587114 -12.803679 -0.139679
v 26.627567 -12.713284 -0.098768
v 26.639325 -12.673435 -0.000000
v 26.615501 -12.707474 0.098768
v 26.570050 -12.795462 0.139679
v 26.529596 -12.885856 0.098768
f 1697 1698 1706 1705
f 1698 1699 1707 1706
f 1699 1700 1708 1707
f 1700 1701 1709 1708
f 1701 1702 1710 1709
f 1702 1703 1711 1710
f 1703 1704 1712 1711
f 1704 1697 1705 1712
usemtl Alloy
v -0.031153 -0.136490 2.000000
v -0.028557 -0.095023 1.901232
v -0.009232 0.002107 1.860321
v 0.015500 0.098003 1.901232
v 0.031153 0.136490 2.000000
v 0.028557 0.095023 2.098768
v 0.009232 -0.002107 2.139679
v -0.015500 -0.098003 2.098768
v 28.729220 -6.700857 0.000000
v 28.731817 -6.659390 -0.098768
v 28.751141 -6.562260 -0.139679
v 28.775874 -6.466365 -0.098768
v 28.791526 -6.427878 -0.000000
v 28.788930 -6.469345 0.098768
v 28.769606 -6.566475 0.139679
v 28.744873 -6.662371 0.098768
f 1713 1714 1722 1721
f 1714 1715 1723 1722
f 1715 1716 1724 1723
f 1716 1717 1725 1724
f 1717 1718 1726 1725
f 1718 1719 1727 1726
f 1719 1720 1728 1727
f 1720 1713 1721 1728
usemtl Alloy
v 0.000000 3.600000 -4.000000
v -0.931749 3.477333 -4.000000
v -1.800000 3.117691 -4.000000
v -2.545584 2.545584 -4.000000
v -3.117691 1.800000 -4.000000
v -3.477333 0.931749 -4.000000
v -3.600000 0.000000 -4.000000
v -3.477333 -0.931749 -4.000000
v -3.117691 -1.800000 -4.000000
v -2.545584 -2.545584 -4.000000
v -1.800000 -3.117691 -4.000000
v -0.931749 -3.477333 -4.000000
v -0.000000 -3.600000 -4.000000
v 0.931749 -3.477333 -4.000000
v 1.800000 -3.117691 -4.000000
v 2.545584 -2.545584 -4.000000
v 3.117691 -1.800000 -4.000000
v 3.477333 -0.931749 -4.000000
v 3.600000 -0.000000 -4.000000
v 3.477333 0.931749 -4.000000
v 3.117691 1.800000 -4.000000
v 2.545584 2.545584 -4.000000
v 1.800000 3.117691 -4.000000
v 0.931749 3.477333 -4.000000
v 0.000000 3.600000 4.000000
v -0.931749 3.477333 4.000000
v -1.800000 3.117691 4.000000
v -2.545584 2.545584 4.000000
v -3.117691 1.800000 4.000000
v -3.477333 0.931749 4.000000
v -3.600000 0.000000 4.000000
v -3.477333 -0.931749 4.000000
v -3.117691 -1.800000 4.000000
v -2.545584 -2.545584 4.000000
v -1.800000 -3.117691 4.000000
v -0.931749 -3.477333 4.000000
v -0.000000 -3.600000 4.000000
v 0.931749 -3.477333 4.000000
v 1.800000 -3.117691 4.000000
v 2.545584 -2.545584 4.000000
v 3.117691 -1.800000 4.000000
v 3.477333 -0.931749 4.000000
v 3.600000 -0.000000 4.000000
v 3.477333 0.931749 4.000000
v 3.117691 1.800000 4.000000
v 2.545584 2.545584 4.000000
v 1.800000 3.117691 4.000000
v 0.931749 3.477333 4.000000
f 1729 1730 1754 1753
f 1730 1731 1755 1754
f 1731 1732 1756 1755
f 1732 1733 1757 1756
f 1733 1734 1758 1757
f 1734 1735 1759 1758
f 1735 1736 1760 1759
f 1736 1737 1761 1760
f 1737 1738 1762 1761
f 1738 1739 1763 1762
f 1739 1740 1764 1763
f 1740 1741 1765 1764
f 1741 1742 1766 1765
f 1742 1743 1767 1766
f 1743 1744 1768 1767
f 1744 1745 1769 1768
f 1745 1746 1770 1769
f 1746 1747 1771 1770
f 1747 1748 1772 1771
f 1748 1749 1773 1772
f 1749 1750 1774 1773
f 1750 1751 1775 1774
f 1751 1752 1776 1775
f 1752 1729 1753 1776