# Authored saddle, centimeters. OBJ Y = negative Unreal Y.
o BikeSaddle
v -14.000000 0.000000 0.000000
v -13.500000 -0.000000 1.200000
v -13.500000 -0.643798 1.176942
v -13.500000 -1.262855 1.108655
v -13.500000 -1.833382 0.997764
v -13.500000 -2.333452 0.848528
v -13.500000 -2.743850 0.666684
v -13.500000 -3.048802 0.459220
v -13.500000 -3.236591 0.234108
v -13.500000 -3.300000 0.000000
v -13.500000 -3.236591 -0.234108
v -13.500000 -3.048802 -0.459220
v -13.500000 -2.743850 -0.666684
v -13.500000 -2.333452 -0.848528
v -13.500000 -1.833382 -0.997764
v -13.500000 -1.262855 -1.108655
v -13.500000 -0.643798 -1.176942
v -13.500000 -0.000000 -1.200000
v -13.500000 0.643798 -1.176942
v -13.500000 1.262855 -1.108655
v -13.500000 1.833382 -0.997764
v -13.500000 2.333452 -0.848528
v -13.500000 2.743850 -0.666684
v -13.500000 3.048802 -0.459220
v -13.500000 3.236591 -0.234108
v -13.500000 3.300000 -0.000000
v -13.500000 3.236591 0.234108
v -13.500000 3.048802 0.459220
v -13.500000 2.743850 0.666684
v -13.500000 2.333452 0.848528
v -13.500000 1.833382 0.997764
v -13.500000 1.262855 1.108655
v -13.500000 0.643798 1.176942
v -12.000000 -0.000000 1.900000
v -12.000000 -1.209560 1.863492
v -12.000000 -2.372637 1.755371
v -12.000000 -3.444535 1.579792
v -12.000000 -4.384062 1.343503
v -12.000000 -5.155112 1.055583
v -12.000000 -5.728053 0.727099
v -12.000000 -6.080869 0.370672
v -12.000000 -6.200000 0.000000
v -12.000000 -6.080869 -0.370672
v -12.000000 -5.728053 -0.727099
v -12.000000 -5.155112 -1.055583
v -12.000000 -4.384062 -1.343503
v -12.000000 -3.444535 -1.579792
v -12.000000 -2.372637 -1.755371
v -12.000000 -1.209560 -1.863492
v -12.000000 -0.000000 -1.900000
v -12.000000 1.209560 -1.863492
v -12.000000 2.372637 -1.755371
v -12.000000 3.444535 -1.579792
v -12.000000 4.384062 -1.343503
v -12.000000 5.155112 -1.055583
v -12.000000 5.728053 -0.727099
v -12.000000 6.080869 -0.370672
v -12.000000 6.200000 -0.000000
v -12.000000 6.080869 0.370672
v -12.000000 5.728053 0.727099
v -12.000000 5.155112 1.055583
v -12.000000 4.384062 1.343503
v -12.000000 3.444535 1.579792
v -12.000000 2.372637 1.755371
v -12.000000 1.209560 1.863492
v -9.000000 -0.000000 2.100000
v -9.000000 -1.521705 2.059649
v -9.000000 -2.984931 1.940147
v -9.000000 -4.333448 1.746086
v -9.000000 -5.515433 1.484924
v -9.000000 -6.485463 1.166697
v -9.000000 -7.206260 0.803635
v -9.000000 -7.650125 0.409690
v -9.000000 -7.800000 0.000000
v -9.000000 -7.650125 -0.409690
v -9.000000 -7.206260 -0.803635
v -9.000000 -6.485463 -1.166697
v -9.000000 -5.515433 -1.484924
v -9.000000 -4.333448 -1.746086
v -9.000000 -2.984931 -1.940147
v -9.000000 -1.521705 -2.059649
v -9.000000 -0.000000 -2.100000
v -9.000000 1.521705 -2.059649
v -9.000000 2.984931 -1.940147
v -9.000000 4.333448 -1.746086
v -9.000000 5.515433 -1.484924
v -9.000000 6.485463 -1.166697
v -9.000000 7.206260 -0.803635
v -9.000000 7.650125 -0.409690
v -9.000000 7.800000 -0.000000
v -9.000000 7.650125 0.409690
v -9.000000 7.206260 0.803635
v -9.000000 6.485463 1.166697
v -9.000000 5.515433 1.484924
v -9.000000 4.333448 1.746086
v -9.000000 2.984931 1.940147
v -9.000000 1.521705 2.059649
v -6.000000 -0.000000 2.200000
v -6.000000 -1.560723 2.157728
v -6.000000 -3.061467 2.032535
v -6.000000 -4.444562 1.829233
v -6.000000 -5.656854 1.555635
v -6.000000 -6.651757 1.222255
v -6.000000 -7.391036 0.841904
v -6.000000 -7.846282 0.429199
v -6.000000 -8.000000 0.000000
v -6.000000 -7.846282 -0.429199
v -6.000000 -7.391036 -0.841904
v -6.000000 -6.651757 -1.222255
v -6.000000 -5.656854 -1.555635
v -6.000000 -4.444562 -1.829233
v -6.000000 -3.061467 -2.032535
v -6.000000 -1.560723 -2.157728
v -6.000000 -0.000000 -2.200000
v -6.000000 1.560723 -2.157728
v -6.000000 3.061467 -2.032535
v -6.000000 4.444562 -1.829233
v -6.000000 5.656854 -1.555635
v -6.000000 6.651757 -1.222255
v -6.000000 7.391036 -0.841904
v -6.000000 7.846282 -0.429199
v -6.000000 8.000000 -0.000000
v -6.000000 7.846282 0.429199
v -6.000000 7.391036 0.841904
v -6.000000 6.651757 1.222255
v -6.000000 5.656854 1.555635
v -6.000000 4.444562 1.829233
v -6.000000 3.061467 2.032535
v -6.000000 1.560723 2.157728
v -3.000000 -0.000000 2.100000
v -3.000000 -1.463177 2.059649
v -3.000000 -2.870126 1.940147
v -3.000000 -4.166777 1.746086
v -3.000000 -5.303301 1.484924
v -3.000000 -6.236022 1.166697
v -3.000000 -6.929096 0.803635
v -3.000000 -7.355890 0.409690
v -3.000000 -7.500000 0.000000
v -3.000000 -7.355890 -0.409690
v -3.000000 -6.929096 -0.803635
v -3.000000 -6.236022 -1.166697
v -3.000000 -5.303301 -1.484924
v -3.000000 -4.166777 -1.746086
v -3.000000 -2.870126 -1.940147
v -3.000000 -1.463177 -2.059649
v -3.000000 -0.000000 -2.100000
v -3.000000 1.463177 -2.059649
v -3.000000 2.870126 -1.940147
v -3.000000 4.166777 -1.746086
v -3.000000 5.303301 -1.484924
v -3.000000 6.236022 -1.166697
v -3.000000 6.929096 -0.803635
v -3.000000 7.355890 -0.409690
v -3.000000 7.500000 -0.000000
v -3.000000 7.355890 0.409690
v -3.000000 6.929096 0.803635
v -3.000000 6.236022 1.166697
v -3.000000 5.303301 1.484924
v -3.000000 4.166777 1.746086
v -3.000000 2.870126 1.940147
v -3.000000 1.463177 2.059649
v 0.000000 -0.000000 1.900000
v 0.000000 -1.170542 1.863492
v 0.000000 -2.296101 1.755371
v 0.000000 -3.333421 1.579792
v 0.000000 -4.242641 1.343503
v 0.000000 -4.988818 1.055583
v 0.000000 -5.543277 0.727099
v 0.000000 -5.884712 0.370672
v 0.000000 -6.000000 0.000000
v 0.000000 -5.884712 -0.370672
v 0.000000 -5.543277 -0.727099
v 0.000000 -4.988818 -1.055583
v 0.000000 -4.242641 -1.343503
v 0.000000 -3.333421 -1.579792
v 0.000000 -2.296101 -1.755371
v 0.000000 -1.170542 -1.863492
v 0.000000 -0.000000 -1.900000
v 0.000000 1.170542 -1.863492
v 0.000000 2.296101 -1.755371
v 0.000000 3.333421 -1.579792
v 0.000000 4.242641 -1.343503
v 0.000000 4.988818 -1.055583
v 0.000000 5.543277 -0.727099
v 0.000000 5.884712 -0.370672
v 0.000000 6.000000 -0.000000
v 0.000000 5.884712 0.370672
v 0.000000 5.543277 0.727099
v 0.000000 4.988818 1.055583
v 0.000000 4.242641 1.343503
v 0.000000 3.333421 1.579792
v 0.000000 2.296101 1.755371
v 0.000000 1.170542 1.863492
v 3.000000 -0.000000 1.600000
v 3.000000 -0.858397 1.567335
v 3.000000 -1.683807 1.470595
v 3.000000 -2.444509 1.313498
v 3.000000 -3.111270 1.102082
v 3.000000 -3.658466 0.844469
v 3.000000 -4.065070 0.550562
v 3.000000 -4.315455 0.231654
v 3.000000 -4.400000 -0.100000
v 3.000000 -4.315455 -0.431654
v 3.000000 -4.065070 -0.750562
v 3.000000 -3.658466 -1.044469
v 3.000000 -3.111270 -1.302082
v 3.000000 -2.444509 -1.513498
v 3.000000 -1.683807 -1.670595
v 3.000000 -0.858397 -1.767335
v 3.000000 -0.000000 -1.800000
v 3.000000 0.858397 -1.767335
v 3.000000 1.683807 -1.670595
v 3.000000 2.444509 -1.513498
v 3.000000 3.111270 -1.302082
v 3.000000 3.658466 -1.044469
v 3.000000 4.065070 -0.750562
v 3.000000 4.315455 -0.431654
v 3.000000 4.400000 -0.100000
v 3.000000 4.315455 0.231654
v 3.000000 4.065070 0.550562
v 3.000000 3.658466 0.844469
v 3.000000 3.111270 1.102082
v 3.000000 2.444509 1.313498
v 3.000000 1.683807 1.470595
v 3.000000 0.858397 1.567335
v 6.000000 -0.000000 1.350000
v 6.000000 -0.624289 1.320217
v 6.000000 -1.224587 1.232013
v 6.000000 -1.777825 1.088778
v 6.000000 -2.262742 0.896016
v 6.000000 -2.660703 0.661134
v 6.000000 -2.956415 0.393159
v 6.000000 -3.138513 0.102390
v 6.000000 -3.200000 -0.200000
v 6.000000 -3.138513 -0.502390
v 6.000000 -2.956415 -0.793159
v 6.000000 -2.660703 -1.061134
v 6.000000 -2.262742 -1.296016
v 6.000000 -1.777825 -1.488778
v 6.000000 -1.224587 -1.632013
v 6.000000 -0.624289 -1.720217
v 6.000000 -0.000000 -1.750000
v 6.000000 0.624289 -1.720217
v 6.000000 1.224587 -1.632013
v 6.000000 1.777825 -1.488778
v 6.000000 2.262742 -1.296016
v 6.000000 2.660703 -1.061134
v 6.000000 2.956415 -0.793159
v 6.000000 3.138513 -0.502390
v 6.000000 3.200000 -0.200000
v 6.000000 3.138513 0.102390
v 6.000000 2.956415 0.393159
v 6.000000 2.660703 0.661134
v 6.000000 2.262742 0.896016
v 6.000000 1.777825 1.088778
v 6.000000 1.224587 1.232013
v 6.000000 0.624289 1.320217
v 9.000000 -0.000000 1.300000
v 9.000000 -0.526744 1.271178
v 9.000000 -1.033245 1.185819
v 9.000000 -1.500040 1.047204
v 9.000000 -1.909188 0.860660
v 9.000000 -2.244968 0.633355
v 9.000000 -2.494475 0.374025
v 9.000000 -2.648120 0.092635
v 9.000000 -2.700000 -0.200000
v 9.000000 -2.648120 -0.492635
v 9.000000 -2.494475 -0.774025
v 9.000000 -2.244968 -1.033355
v 9.000000 -1.909188 -1.260660
v 9.000000 -1.500040 -1.447204
v 9.000000 -1.033245 -1.585819
v 9.000000 -0.526744 -1.671178
v 9.000000 -0.000000 -1.700000
v 9.000000 0.526744 -1.671178
v 9.000000 1.033245 -1.585819
v 9.000000 1.500040 -1.447204
v 9.000000 1.909188 -1.260660
v 9.000000 2.244968 -1.033355
v 9.000000 2.494475 -0.774025
v 9.000000 2.648120 -0.492635
v 9.000000 2.700000 -0.200000
v 9.000000 2.648120 0.092635
v 9.000000 2.494475 0.374025
v 9.000000 2.244968 0.633355
v 9.000000 1.909188 0.860660
v 9.000000 1.500040 1.047204
v 9.000000 1.033245 1.185819
v 9.000000 0.526744 1.271178
v 12.000000 -0.000000 1.300000
v 12.000000 -0.468217 1.273099
v 12.000000 -0.918440 1.193431
v 12.000000 -1.333369 1.064057
v 12.000000 -1.697056 0.889949
v 12.000000 -1.995527 0.677798
v 12.000000 -2.217311 0.435757
v 12.000000 -2.353885 0.173126
v 12.000000 -2.400000 -0.100000
v 12.000000 -2.353885 -0.373126
v 12.000000 -2.217311 -0.635757
v 12.000000 -1.995527 -0.877798
v 12.000000 -1.697056 -1.089949
v 12.000000 -1.333369 -1.264057
v 12.000000 -0.918440 -1.393431
v 12.000000 -0.468217 -1.473099
v 12.000000 -0.000000 -1.500000
v 12.000000 0.468217 -1.473099
v 12.000000 0.918440 -1.393431
v 12.000000 1.333369 -1.264057
v 12.000000 1.697056 -1.089949
v 12.000000 1.995527 -0.877798
v 12.000000 2.217311 -0.635757
v 12.000000 2.353885 -0.373126
v 12.000000 2.400000 -0.100000
v 12.000000 2.353885 0.173126
v 12.000000 2.217311 0.435757
v 12.000000 1.995527 0.677798
v 12.000000 1.697056 0.889949
v 12.000000 1.333369 1.064057
v 12.000000 0.918440 1.193431
v 12.000000 0.468217 1.273099
v 14.000000 -0.000000 1.100000
v 14.000000 -0.321899 1.078864
v 14.000000 -0.631428 1.016267
v 14.000000 -0.916691 0.914617
v 14.000000 -1.166726 0.777817
v 14.000000 -1.371925 0.611127
v 14.000000 -1.524401 0.420952
v 14.000000 -1.618296 0.214599
v 14.000000 -1.650000 0.000000
v 14.000000 -1.618296 -0.214599
v 14.000000 -1.524401 -0.420952
v 14.000000 -1.371925 -0.611127
v 14.000000 -1.166726 -0.777817
v 14.000000 -0.916691 -0.914617
v 14.000000 -0.631428 -1.016267
v 14.000000 -0.321899 -1.078864
v 14.000000 -0.000000 -1.100000
v 14.000000 0.321899 -1.078864
v 14.000000 0.631428 -1.016267
v 14.000000 0.916691 -0.914617
v 14.000000 1.166726 -0.777817
v 14.000000 1.371925 -0.611127
v 14.000000 1.524401 -0.420952
v 14.000000 1.618296 -0.214599
v 14.000000 1.650000 -0.000000
v 14.000000 1.618296 0.214599
v 14.000000 1.524401 0.420952
v 14.000000 1.371925 0.611127
v 14.000000 1.166726 0.777817
v 14.000000 0.916691 0.914617
v 14.000000 0.631428 1.016267
v 14.000000 0.321899 1.078864
v 15.000000 0.000000 0.000000
vt 0.00000000 0.50000000
vt 0.01724138 0.50000000
vt 0.01724138 0.54023738
vt 0.01724138 0.57892846
vt 0.01724138 0.61458636
vt 0.01724138 0.64584077
vt 0.01724138 0.67149061
vt 0.01724138 0.69055015
vt 0.01724138 0.70228696
vt 0.01724138 0.70625000
vt 0.01724138 0.70228696
vt 0.01724138 0.69055015
vt 0.01724138 0.67149061
vt 0.01724138 0.64584077
vt 0.01724138 0.61458636
vt 0.01724138 0.57892846
vt 0.01724138 0.54023738
vt 0.01724138 0.50000000
vt 0.01724138 0.45976262
vt 0.01724138 0.42107154
vt 0.01724138 0.38541364
vt 0.01724138 0.35415923
vt 0.01724138 0.32850939
vt 0.01724138 0.30944985
vt 0.01724138 0.29771304
vt 0.01724138 0.29375000
vt 0.01724138 0.29771304
vt 0.01724138 0.30944985
vt 0.01724138 0.32850939
vt 0.01724138 0.35415923
vt 0.01724138 0.38541364
vt 0.01724138 0.42107154
vt 0.01724138 0.45976262
vt 0.06896552 0.50000000
vt 0.06896552 0.57559750
vt 0.06896552 0.64828983
vt 0.06896552 0.71528347
vt 0.06896552 0.77400388
vt 0.06896552 0.82219447
vt 0.06896552 0.85800332
vt 0.06896552 0.88005430
vt 0.06896552 0.88750000
vt 0.06896552 0.88005430
vt 0.06896552 0.85800332
vt 0.06896552 0.82219447
vt 0.06896552 0.77400388
vt 0.06896552 0.71528347
vt 0.06896552 0.64828983
vt 0.06896552 0.57559750
vt 0.06896552 0.50000000
vt 0.06896552 0.42440250
vt 0.06896552 0.35171017
vt 0.06896552 0.28471653
vt 0.06896552 0.22599612
vt 0.06896552 0.17780553
vt 0.06896552 0.14199668
vt 0.06896552 0.11994570
vt 0.06896552 0.11250000
vt 0.06896552 0.11994570
vt 0.06896552 0.14199668
vt 0.06896552 0.17780553
vt 0.06896552 0.22599612
vt 0.06896552 0.28471653
vt 0.06896552 0.35171017
vt 0.06896552 0.42440250
vt 0.17241379 0.50000000
vt 0.17241379 0.59510653
vt 0.17241379 0.68655817
vt 0.17241379 0.77084049
vt 0.17241379 0.84471456
vt 0.17241379 0.90534144
vt 0.17241379 0.95039127
vt 0.17241379 0.97813282
vt 0.17241379 0.98750000
vt 0.17241379 0.97813282
vt 0.17241379 0.95039127
vt 0.17241379 0.90534144
vt 0.17241379 0.84471456
vt 0.17241379 0.77084049
vt 0.17241379 0.68655817
vt 0.17241379 0.59510653
vt 0.17241379 0.50000000
vt 0.17241379 0.40489347
vt 0.17241379 0.31344183
vt 0.17241379 0.22915951
vt 0.17241379 0.15528544
vt 0.17241379 0.09465856
vt 0.17241379 0.04960873
vt 0.17241379 0.02186718
vt 0.17241379 0.01250000
vt 0.17241379 0.02186718
vt 0.17241379 0.04960873
vt 0.17241379 0.09465856
vt 0.17241379 0.15528544
vt 0.17241379 0.22915951
vt 0.17241379 0.31344183
vt 0.17241379 0.40489347
vt 0.27586207 0.50000000
vt 0.27586207 0.59754516
vt 0.27586207 0.69134172
vt 0.27586207 0.77778512
vt 0.27586207 0.85355339
vt 0.27586207 0.91573481
vt 0.27586207 0.96193977
vt 0.27586207 0.99039264
vt 0.27586207 1.00000000
vt 0.27586207 0.99039264
vt 0.27586207 0.96193977
vt 0.27586207 0.91573481
vt 0.27586207 0.85355339
vt 0.27586207 0.77778512
vt 0.27586207 0.69134172
vt 0.27586207 0.59754516
vt 0.27586207 0.50000000
vt 0.27586207 0.40245484
vt 0.27586207 0.30865828
vt 0.27586207 0.22221488
vt 0.27586207 0.14644661
vt 0.27586207 0.08426519
vt 0.27586207 0.03806023
vt 0.27586207 0.00960736
vt 0.27586207 0.00000000
vt 0.27586207 0.00960736
vt 0.27586207 0.03806023
vt 0.27586207 0.08426519
vt 0.27586207 0.14644661
vt 0.27586207 0.22221488
vt 0.27586207 0.30865828
vt 0.27586207 0.40245484
vt 0.37931034 0.50000000
vt 0.37931034 0.59144859
vt 0.37931034 0.67938286
vt 0.37931034 0.76042355
vt 0.37931034 0.83145630
vt 0.37931034 0.88975138
vt 0.37931034 0.93306853
vt 0.37931034 0.95974310
vt 0.37931034 0.96875000
vt 0.37931034 0.95974310
vt 0.37931034 0.93306853
vt 0.37931034 0.88975138
vt 0.37931034 0.83145630
vt 0.37931034 0.76042355
vt 0.37931034 0.67938286
vt 0.37931034 0.59144859
vt 0.37931034 0.50000000
vt 0.37931034 0.40855141
vt 0.37931034 0.32061714
vt 0.37931034 0.23957645
vt 0.37931034 0.16854370
vt 0.37931034 0.11024862
vt 0.37931034 0.06693147
vt 0.37931034 0.04025690
vt 0.37931034 0.03125000
vt 0.37931034 0.04025690
vt 0.37931034 0.06693147
vt 0.37931034 0.11024862
vt 0.37931034 0.16854370
vt 0.37931034 0.23957645
vt 0.37931034 0.32061714
vt 0.37931034 0.40855141
vt 0.48275862 0.50000000
vt 0.48275862 0.57315887
vt 0.48275862 0.64350629
vt 0.48275862 0.70833884
vt 0.48275862 0.76516504
vt 0.48275862 0.81180110
vt 0.48275862 0.84645482
vt 0.48275862 0.86779448
vt 0.48275862 0.87500000
vt 0.48275862 0.86779448
vt 0.48275862 0.84645482
vt 0.48275862 0.81180110
vt 0.48275862 0.76516504
vt 0.48275862 0.70833884
vt 0.48275862 0.64350629
vt 0.48275862 0.57315887
vt 0.48275862 0.50000000
vt 0.48275862 0.42684113
vt 0.48275862 0.35649371
vt 0.48275862 0.29166116
vt 0.48275862 0.23483496
vt 0.48275862 0.18819890
vt 0.48275862 0.15354518
vt 0.48275862 0.13220552
vt 0.48275862 0.12500000
vt 0.48275862 0.13220552
vt 0.48275862 0.15354518
vt 0.48275862 0.18819890
vt 0.48275862 0.23483496
vt 0.48275862 0.29166116
vt 0.48275862 0.35649371
vt 0.48275862 0.42684113
vt 0.58620690 0.50000000
vt 0.58620690 0.55364984
vt 0.58620690 0.60523794
vt 0.58620690 0.65278181
vt 0.58620690 0.69445436
vt 0.58620690 0.72865414
vt 0.58620690 0.75406687
vt 0.58620690 0.76971595
vt 0.58620690 0.77500000
vt 0.58620690 0.76971595
vt 0.58620690 0.75406687
vt 0.58620690 0.72865414
vt 0.58620690 0.69445436
vt 0.58620690 0.65278181
vt 0.58620690 0.60523794
vt 0.58620690 0.55364984
vt 0.58620690 0.50000000
vt 0.58620690 0.44635016
vt 0.58620690 0.39476206
vt 0.58620690 0.34721819
vt 0.58620690 0.30554564
vt 0.58620690 0.27134586
vt 0.58620690 0.24593313
vt 0.58620690 0.23028405
vt 0.58620690 0.22500000
vt 0.58620690 0.23028405
vt 0.58620690 0.24593313
vt 0.58620690 0.27134586
vt 0.58620690 0.30554564
vt 0.58620690 0.34721819
vt 0.58620690 0.39476206
vt 0.58620690 0.44635016
vt 0.68965517 0.50000000
vt 0.68965517 0.53901806
vt 0.68965517 0.57653669
vt 0.68965517 0.61111405
vt 0.68965517 0.64142136
vt 0.68965517 0.66629392
vt 0.68965517 0.68477591
vt 0.68965517 0.69615706
vt 0.68965517 0.70000000
vt 0.68965517 0.69615706
vt 0.68965517 0.68477591
vt 0.68965517 0.66629392
vt 0.68965517 0.64142136
vt 0.68965517 0.61111405
vt 0.68965517 0.57653669
vt 0.68965517 0.53901806
vt 0.68965517 0.50000000
vt 0.68965517 0.46098194
vt 0.68965517 0.42346331
vt 0.68965517 0.38888595
vt 0.68965517 0.35857864
vt 0.68965517 0.33370608
vt 0.68965517 0.31522409
vt 0.68965517 0.30384294
vt 0.68965517 0.30000000
vt 0.68965517 0.30384294
vt 0.68965517 0.31522409
vt 0.68965517 0.33370608
vt 0.68965517 0.35857864
vt 0.68965517 0.38888595
vt 0.68965517 0.42346331
vt 0.68965517 0.46098194
vt 0.79310345 0.50000000
vt 0.79310345 0.53292149
vt 0.79310345 0.56457783
vt 0.79310345 0.59375248
vt 0.79310345 0.61932427
vt 0.79310345 0.64031050
vt 0.79310345 0.65590467
vt 0.79310345 0.66550752
vt 0.79310345 0.66875000
vt 0.79310345 0.66550752
vt 0.79310345 0.65590467
vt 0.79310345 0.64031050
vt 0.79310345 0.61932427
vt 0.79310345 0.59375248
vt 0.79310345 0.56457783
vt 0.79310345 0.53292149
vt 0.79310345 0.50000000
vt 0.79310345 0.46707851
vt 0.79310345 0.43542217
vt 0.79310345 0.40624752
vt 0.79310345 0.38067573
vt 0.79310345 0.35968950
vt 0.79310345 0.34409533
vt 0.79310345 0.33449248
vt 0.79310345 0.33125000
vt 0.79310345 0.33449248
vt 0.79310345 0.34409533
vt 0.79310345 0.35968950
vt 0.79310345 0.38067573
vt 0.79310345 0.40624752
vt 0.79310345 0.43542217
vt 0.79310345 0.46707851
vt 0.89655172 0.50000000
vt 0.89655172 0.52926355
vt 0.89655172 0.55740251
vt 0.89655172 0.58333553
vt 0.89655172 0.60606602
vt 0.89655172 0.62472044
vt 0.89655172 0.63858193
vt 0.89655172 0.64711779
vt 0.89655172 0.65000000
vt 0.89655172 0.64711779
vt 0.89655172 0.63858193
vt 0.89655172 0.62472044
vt 0.89655172 0.60606602
vt 0.89655172 0.58333553
vt 0.89655172 0.55740251
vt 0.89655172 0.52926355
vt 0.89655172 0.50000000
vt 0.89655172 0.47073645
vt 0.89655172 0.44259749
vt 0.89655172 0.41666447
vt 0.89655172 0.39393398
vt 0.89655172 0.37527956
vt 0.89655172 0.36141807
vt 0.89655172 0.35288221
vt 0.89655172 0.35000000
vt 0.89655172 0.35288221
vt 0.89655172 0.36141807
vt 0.89655172 0.37527956
vt 0.89655172 0.39393398
vt 0.89655172 0.41666447
vt 0.89655172 0.44259749
vt 0.89655172 0.47073645
vt 0.96551724 0.50000000
vt 0.96551724 0.52011869
vt 0.96551724 0.53946423
vt 0.96551724 0.55729318
vt 0.96551724 0.57292039
vt 0.96551724 0.58574530
vt 0.96551724 0.59527508
vt 0.96551724 0.60114348
vt 0.96551724 0.60312500
vt 0.96551724 0.60114348
vt 0.96551724 0.59527508
vt 0.96551724 0.58574530
vt 0.96551724 0.57292039
vt 0.96551724 0.55729318
vt 0.96551724 0.53946423
vt 0.96551724 0.52011869
vt 0.96551724 0.50000000
vt 0.96551724 0.47988131
vt 0.96551724 0.46053577
vt 0.96551724 0.44270682
vt 0.96551724 0.42707961
vt 0.96551724 0.41425470
vt 0.96551724 0.40472492
vt 0.96551724 0.39885652
vt 0.96551724 0.39687500
vt 0.96551724 0.39885652
vt 0.96551724 0.40472492
vt 0.96551724 0.41425470
vt 0.96551724 0.42707961
vt 0.96551724 0.44270682
vt 0.96551724 0.46053577
vt 0.96551724 0.47988131
vt 1.00000000 0.50000000
vn -1.00000000 -0.00000000 0.00000000
vn -0.60059492 0.00997412 0.79949125
vn -0.60590991 -0.04345989 0.79434528
vn -0.63012060 -0.09724442 0.77038403
vn -0.67198773 -0.15151753 0.72489649
vn -0.72859419 -0.20561870 0.65335401
vn -0.79425932 -0.25747771 0.55032478
vn -0.85944062 -0.30304489 0.41173488
vn -0.91094201 -0.33638106 0.23881465
vn -0.93531646 -0.35130302 0.04206314
vn -0.92522370 -0.34444847 -0.15911117
vn -0.88390127 -0.31740965 -0.34346711
vn -0.82304296 -0.27567907 -0.49658971
vn -0.75645216 -0.22557447 -0.61391879
vn -0.69524214 -0.17193513 -0.69790879
vn -0.64656430 -0.11753807 -0.75375023
vn -0.61437655 -0.06351370 -0.78645246
vn -0.60059492 -0.00997412 -0.79949125
vn -0.60590991 0.04345989 -0.79434528
vn -0.63012060 0.09724442 -0.77038403
vn -0.67198773 0.15151753 -0.72489649
vn -0.72859419 0.20561870 -0.65335401
vn -0.79425932 0.25747771 -0.55032478
vn -0.85944062 0.30304489 -0.41173488
vn -0.91094201 0.33638106 -0.23881465
vn -0.93531646 0.35130302 -0.04206314
vn -0.92522370 0.34444847 0.15911117
vn -0.88390127 0.31740965 0.34346711
vn -0.82304296 0.27567907 0.49658971
vn -0.75645216 0.22557447 0.61391879
vn -0.69524214 0.17193513 0.69790879
vn -0.64656430 0.11753807 0.75375023
vn -0.61437655 0.06351370 0.78645246
vn -0.17647156 0.00518419 0.98429209
vn -0.18225766 -0.05308504 0.98181675
vn -0.20223956 -0.11449937 0.97261969
vn -0.23808568 -0.18318741 0.95381213
vn -0.29310531 -0.26457900 0.91874220
vn -0.37255476 -0.36590475 0.85282863
vn -0.48146265 -0.49390677 0.72405098
vn -0.60899956 -0.63791298 0.47136670
vn -0.68694477 -0.72482759 0.05226716
vn -0.63358117 -0.66632862 -0.39316800
vn -0.50730415 -0.52502628 -0.68336660
vn -0.39144492 -0.39045705 -0.83325516
vn -0.30568775 -0.28313393 -0.90906005
vn -0.24612049 -0.19771358 -0.94885934
vn -0.20699681 -0.12657775 -0.97011875
vn -0.18447173 -0.06386122 -0.98076089
vn -0.17647156 -0.00518419 -0.98429209
vn -0.18225766 0.05308504 -0.98181675
vn -0.20223956 0.11449937 -0.97261969
vn -0.23808568 0.18318741 -0.95381213
vn -0.29310531 0.26457900 -0.91874220
vn -0.37255476 0.36590475 -0.85282863
vn -0.48146265 0.49390677 -0.72405098
vn -0.60899956 0.63791298 -0.47136670
vn -0.68694477 0.72482759 -0.05226716
vn -0.63358117 0.66632862 0.39316800
vn -0.50730415 0.52502628 0.68336660
vn -0.39144492 0.39045705 0.83325516
vn -0.30568775 0.28313393 0.90906005
vn -0.24612049 0.19771358 0.94885934
vn -0.20699681 0.12657775 0.97011875
vn -0.18447173 0.06386122 0.98076089
vn -0.04948166 0.00065003 0.99877482
vn -0.05244068 -0.05392062 0.99716726
vn -0.05977081 -0.11229191 0.99187599
vn -0.07219674 -0.17939088 0.98112514
vn -0.09134862 -0.26280741 0.96051429
vn -0.12056472 -0.37581497 0.91881840
vn -0.16614184 -0.54195427 0.82382186
vn -0.23358372 -0.78273416 0.57685864
vn -0.28173797 -0.95939490 0.01360687
vn -0.23152104 -0.79400250 -0.56210144
vn -0.16129568 -0.55028253 -0.81925139
vn -0.11470538 -0.38088139 -0.91748136
vn -0.08572379 -0.26602158 -0.96014788
vn -0.06751329 -0.18159650 -0.98105284
vn -0.05644735 -0.11394957 -0.99188164
vn -0.05072165 -0.05530415 -0.99718041
vn -0.04948166 -0.00065003 -0.99877482
vn -0.05244068 0.05392062 -0.99716726
vn -0.05977081 0.11229191 -0.99187599
vn -0.07219674 0.17939088 -0.98112514
vn -0.09134862 0.26280741 -0.96051429
vn -0.12056472 0.37581497 -0.91881840
vn -0.16614184 0.54195427 -0.82382186
vn -0.23358372 0.78273416 -0.57685864
vn -0.28173797 0.95939490 -0.01360687
vn -0.23152104 0.79400250 0.56210144
vn -0.16129568 0.55028253 0.81925139
vn -0.11470538 0.38088139 0.91748136
vn -0.08572379 0.26602158 0.96014788
vn -0.06751329 0.18159650 0.98105284
vn -0.05644735 0.11394957 0.99188164
vn -0.05072165 0.05530415 0.99718041
vn -0.00012205 0.00000000 0.99999999
vn 0.00043357 -0.05459461 0.99850851
vn 0.00208563 -0.11314108 0.99357674
vn 0.00495433 -0.18069344 0.98352699
vn 0.00931462 -0.26515684 0.96416030
vn 0.01575470 -0.38066262 0.92457978
vn 0.02544839 -0.55328724 0.83260171
vn 0.03953690 -0.81033762 0.58462790
vn 0.04961352 -0.99876591 -0.00227007
vn 0.03931041 -0.80859719 -0.58704793
vn 0.02520567 -0.55213315 -0.83337486
vn 0.01554008 -0.38005561 -0.92483309
vn 0.00913574 -0.26484945 -0.96424650
vn 0.00481560 -0.18054770 -0.98355444
vn 0.00199080 -0.11308332 -0.99358351
vn 0.00038542 -0.05458108 -0.99850927
vn -0.00012205 -0.00000000 -0.99999999
vn 0.00043357 0.05459461 -0.99850851
vn 0.00208563 0.11314108 -0.99357674
vn 0.00495433 0.18069344 -0.98352699
vn 0.00931462 0.26515684 -0.96416030
vn 0.01575470 0.38066262 -0.92457978
vn 0.02544839 0.55328724 -0.83260171
vn 0.03953690 0.81033762 -0.58462790
vn 0.04961352 0.99876591 0.00227007
vn 0.03931041 0.80859719 0.58704793
vn 0.02520567 0.55213315 0.83337486
vn 0.01554008 0.38005561 0.92483309
vn 0.00913574 0.26484945 0.96424650
vn 0.00481560 0.18054770 0.98355444
vn 0.00199080 0.11308332 0.99358351
vn 0.00038542 0.05458108 0.99850927
vn 0.04946564 -0.00067071 0.99877560
vn 0.05150549 -0.05706235 0.99704116
vn 0.05899374 -0.11753594 0.99131480
vn 0.07285534 -0.18717292 0.97962156
vn 0.09505043 -0.27376819 0.95708745
vn 0.12946678 -0.39071535 0.91136155
vn 0.18308894 -0.56052756 0.80764305
vn 0.26026145 -0.79690996 0.54515914
vn 0.31191487 -0.94999210 -0.01497057
vn 0.25984588 -0.78504549 -0.56230213
vn 0.18490386 -0.55142190 -0.81347677
vn 0.13251630 -0.38511764 -0.91330380
vn 0.09829230 -0.27023872 -0.95776284
vn 0.07567670 -0.18478967 -0.97986010
vn 0.06103965 -0.11578154 -0.99139740
vn 0.05257469 -0.05562434 -0.99706662
vn 0.04946564 0.00067071 -0.99877560
vn 0.05150549 0.05706235 -0.99704116
vn 0.05899374 0.11753594 -0.99131480
vn 0.07285534 0.18717292 -0.97962156
vn 0.09505043 0.27376819 -0.95708745
vn 0.12946678 0.39071535 -0.91136155
vn 0.18308894 0.56052756 -0.80764305
vn 0.26026145 0.79690996 -0.54515914
vn 0.31191487 0.94999210 0.01497057
vn 0.25984588 0.78504549 0.56230213
vn 0.18490386 0.55142190 0.81347677
vn 0.13251630 0.38511764 0.91330380
vn 0.09829230 0.27023872 0.95776284
vn 0.07567670 0.18478967 0.97986010
vn 0.06103965 0.11578154 0.99139740
vn 0.05257469 0.05562434 0.99706662
vn 0.08223725 -0.00109368 0.99661218
vn 0.08717301 -0.06399318 0.99413567
vn 0.10216488 -0.13124540 0.98607149
vn 0.12849611 -0.20798668 0.96965473
vn 0.16873882 -0.30157945 0.93839067
vn 0.22737008 -0.42316690 0.87705908
vn 0.30988233 -0.58653318 0.74829925
vn 0.40905851 -0.78274375 0.46902383
vn 0.45799308 -0.88863710 -0.02380015
vn 0.38926089 -0.77103155 -0.50397054
vn 0.28278159 -0.57557495 -0.76729919
vn 0.19838843 -0.41558901 -0.88765298
vn 0.13918295 -0.29647570 -0.94484404
vn 0.09866141 -0.20441113 -0.97390041
vn 0.07212831 -0.12855778 -0.98907553
vn 0.05698574 -0.06174305 -0.99646396
vn 0.05199139 0.00109591 -0.99864693
vn 0.05681064 0.06413397 -0.99632293
vn 0.07188873 0.13159440 -0.98869354
vn 0.09861066 0.20870312 -0.97299483
vn 0.13979151 0.30296247 -0.94269405
vn 0.20045115 0.42572868 -0.88236865
vn 0.28725396 0.59090055 -0.75387114
vn 0.39483701 0.78809898 -0.47223271
vn 0.45621066 0.88955282 0.02382467
vn 0.40000968 0.76716719 0.50144467
vn 0.30232255 0.57198736 0.76251658
vn 0.22282312 0.41335674 0.88288508
vn 0.16625608 0.29522303 0.94085189
vn 0.12721685 0.20374433 0.97072351
vn 0.10155440 0.12822712 0.98653156
vn 0.08693395 0.06160941 0.99430718
vn 0.09290324 -0.00128070 0.99567432
vn 0.09876269 -0.07691174 0.99213432
vn 0.11577560 -0.15730210 0.98074057
vn 0.14486953 -0.24773891 0.95793437
vn 0.18770564 -0.35508887 0.91579391
vn 0.24643099 -0.48790806 0.83738730
vn 0.32090220 -0.65166836 0.68727733
vn 0.39615742 -0.82358997 0.40590500
vn 0.42228909 -0.90613330 -0.02437949
vn 0.36381218 -0.81708205 -0.44723329
vn 0.26934771 -0.64412677 -0.71592773
vn 0.18581666 -0.48168906 -0.85641568
vn 0.12299693 -0.35032410 -0.92851752
vn 0.07840168 -0.24409071 -0.96657793
vn 0.04873978 -0.15440344 -0.98680495
vn 0.03185387 -0.07439272 -0.99672015
vn 0.02663072 0.00128581 -0.99964451
vn 0.03276307 0.07724812 -0.99647344
vn 0.05066889 0.15816363 -0.98611203
vn 0.08159790 0.24954529 -0.96491913
vn 0.12788589 0.35854624 -0.92471065
vn 0.19297378 0.49397120 -0.84779336
vn 0.27891831 0.66075244 -0.69685780
vn 0.37297912 0.83225220 -0.41017417
vn 0.42362318 0.90551083 0.02436274
vn 0.38925688 0.80800916 0.44226721
vn 0.31272991 0.63529741 0.70611416
vn 0.23999155 0.47589975 0.84612262
vn 0.18316090 0.34703265 0.91979369
vn 0.14183277 0.24236916 0.95976073
vn 0.11391664 0.15358085 0.98154772
vn 0.09787953 0.07407309 0.99243779
vn 0.05341329 -0.00098845 0.99857200
vn 0.05834346 -0.09451911 0.99381194
vn 0.07190277 -0.19310156 0.97854064
vn 0.09443808 -0.30203820 0.94860655
vn 0.12643716 -0.42734241 0.89520507
vn 0.16794066 -0.57439933 0.80116250
vn 0.21617258 -0.74086510 0.63591534
vn 0.25923786 -0.89576793 0.36110323
vn 0.27219398 -0.96208979 -0.01713701
vn 0.24109200 -0.88861085 -0.39018637
vn 0.18625705 -0.73192692 -0.65543214
vn 0.13216401 -0.56688678 -0.81312487
vn 0.08821737 -0.42180895 -0.90238290
vn 0.05558554 -0.29813785 -0.95290297
vn 0.03342107 -0.19033595 -0.98114997
vn 0.02084005 -0.09239614 -0.99550422
vn 0.01730617 0.00098971 -0.99984975
vn 0.02264642 0.09465611 -0.99525241
vn 0.03703548 0.19346985 -0.98040695
vn 0.06100731 0.30282902 -0.95109027
vn 0.09541562 0.42883422 -0.89833016
vn 0.14094794 0.57685816 -0.80459203
vn 0.19581826 0.74411662 -0.63870625
vn 0.24903701 0.89825400 -0.36210541
vn 0.27492856 0.96131217 0.01712316
vn 0.25633092 0.88502786 0.38861310
vn 0.21068442 0.72824165 0.65213202
vn 0.16222691 0.56432786 0.80945444
vn 0.12146418 0.42032454 0.89920728
vn 0.09055589 0.29737267 0.95045732
vn 0.06925673 0.18998506 0.97934120
vn 0.05700467 0.09226593 0.99410134
vn 0.00904994 -0.00090080 0.99995864
vn 0.01174303 -0.10889916 0.99398344
vn 0.01902528 -0.22170163 0.97492893
vn 0.03104312 -0.34413647 0.93840632
vn 0.04798545 -0.48087386 0.87547572
vn 0.06976402 -0.63417599 0.77003493
vn 0.09496040 -0.79650351 0.59713037
vn 0.11858601 -0.93556283 0.33265529
vn 0.13129116 -0.99130544 -0.00872716
vn 0.12689123 -0.92924419 -0.34699258
vn 0.11021912 -0.78813588 -0.60555230
vn 0.09017976 -0.62686653 -0.77389015
vn 0.07208386 -0.47542311 -0.87679917
vn 0.05783122 -0.34029653 -0.93853813
vn 0.04786174 -0.21898370 -0.97455395
vn 0.04218225 -0.10683733 -0.99338132
vn 0.04072381 0.00090009 -0.99917004
vn 0.04344184 0.10880386 -0.99311355
vn 0.05033336 0.22146070 -0.97386945
vn 0.06141125 0.34365255 -0.93708675
vn 0.07658663 0.48001446 -0.87391110
vn 0.09526985 0.63283331 -0.76840462
vn 0.11526836 0.79478592 -0.59584271
vn 0.13083819 0.93411178 -0.33213934
vn 0.13300592 0.99107684 0.00872514
vn 0.11791663 0.93028112 0.34737978
vn 0.09279319 0.78954584 0.60663563
vn 0.06704453 0.62801491 0.77530788
vn 0.04532573 0.47617322 0.87818258
vn 0.02880485 0.34072557 0.93972143
vn 0.01742706 0.21920166 0.97552393
vn 0.01091361 0.10692614 0.99420707
vn 0.03669202 -0.00639472 0.99930616
vn 0.03945872 -0.12202318 0.99174258
vn 0.04813661 -0.24224687 0.96901977
vn 0.06309022 -0.37120122 0.92640665
vn 0.08475628 -0.51210787 0.85472914
vn 0.11315261 -0.66446896 0.73869987
vn 0.14649046 -0.81708010 0.55760259
vn 0.17874966 -0.93799515 0.29700784
vn 0.19950342 -0.97964167 -0.02237363
vn 0.20166055 -0.92043758 -0.33485471
vn 0.18885833 -0.79144003 -0.58133914
vn 0.16989609 -0.63897811 -0.75022816
vn 0.15114206 -0.48998371 -0.85852900
vn 0.13552537 -0.35268179 -0.92587711
vn 0.12409037 -0.22655417 -0.96606148
vn 0.11714341 -0.10821974 -0.98720105
vn 0.11476535 0.00635675 -0.99337229
vn 0.11699679 0.12127961 -0.98569925
vn 0.12388059 0.24065986 -0.96267151
vn 0.13540961 0.36851649 -0.91970638
vn 0.15131442 0.50803937 -0.84793864
vn 0.17047891 0.65897420 -0.73259126
vn 0.18966606 0.81099798 -0.55345195
vn 0.20197844 0.93370068 -0.29564803
vn 0.19856325 0.97983257 0.02237799
vn 0.17686699 0.92492889 0.33648865
vn 0.14476924 0.79745326 0.58575606
vn 0.11221191 0.64430950 0.75648778
vn 0.08454600 0.49390330 0.86539673
vn 0.06329882 0.35525213 0.93262489
vn 0.04845594 0.22805067 0.97244276
vn 0.03967239 0.10888421 0.99326247
vn 0.30896907 -0.01783923 0.95090477
vn 0.31747538 -0.13781722 0.93819817
vn 0.33791461 -0.26002144 0.90454550
vn 0.36981273 -0.38536406 0.84541888
vn 0.41173349 -0.51248088 0.75355085
vn 0.46012404 -0.63554472 0.61997482
vn 0.50790096 -0.74181562 0.43788835
vn 0.54437363 -0.81199741 0.21051736
vn 0.55912650 -0.82803579 -0.04164480
vn 0.54880634 -0.78565938 -0.28557125
vn 0.51949040 -0.69783042 -0.49311502
vn 0.48163306 -0.58451704 -0.65296970
vn 0.44417687 -0.46172199 -0.76780187
vn 0.41259509 -0.33824439 -0.84578722
vn 0.38961038 -0.21736434 -0.89496173
vn 0.37638064 -0.09924860 -0.92113372
vn 0.37331036 0.01740096 -0.92754330
vn 0.38044569 0.13440716 -0.91498404
vn 0.39756280 0.25350091 -0.88186230
vn 0.42398664 0.37564277 -0.82409213
vn 0.45807239 0.49988998 -0.73503721
vn 0.49625279 0.62145983 -0.60623498
vn 0.53186922 0.72925220 -0.43047225
vn 0.55508419 0.80517430 -0.20874841
vn 0.55625392 0.82996337 0.04174175
vn 0.53239927 0.79556891 0.28917316
vn 0.49011272 0.71186319 0.50303113
vn 0.44075737 0.59869242 0.66880515
vn 0.39402510 0.47365778 0.78765001
vn 0.35562699 0.34704976 0.86780523
vn 0.32815486 0.22294470 0.91793793
vn 0.31252747 0.10176002 0.94444242
vn 1.00000000 -0.00000000 0.00000000
f 1/1/1 3/3/3 2/2/2
f 1/1/1 4/4/4 3/3/3
f 1/1/1 5/5/5 4/4/4
f 1/1/1 6/6/6 5/5/5
f 1/1/1 7/7/7 6/6/6
f 1/1/1 8/8/8 7/7/7
f 1/1/1 9/9/9 8/8/8
f 1/1/1 10/10/10 9/9/9
f 1/1/1 11/11/11 10/10/10
f 1/1/1 12/12/12 11/11/11
f 1/1/1 13/13/13 12/12/12
f 1/1/1 14/14/14 13/13/13
f 1/1/1 15/15/15 14/14/14
f 1/1/1 16/16/16 15/15/15
f 1/1/1 17/17/17 16/16/16
f 1/1/1 18/18/18 17/17/17
f 1/1/1 19/19/19 18/18/18
f 1/1/1 20/20/20 19/19/19
f 1/1/1 21/21/21 20/20/20
f 1/1/1 22/22/22 21/21/21
f 1/1/1 23/23/23 22/22/22
f 1/1/1 24/24/24 23/23/23
f 1/1/1 25/25/25 24/24/24
f 1/1/1 26/26/26 25/25/25
f 1/1/1 27/27/27 26/26/26
f 1/1/1 28/28/28 27/27/27
f 1/1/1 29/29/29 28/28/28
f 1/1/1 30/30/30 29/29/29
f 1/1/1 31/31/31 30/30/30
f 1/1/1 32/32/32 31/31/31
f 1/1/1 33/33/33 32/32/32
f 1/1/1 2/2/2 33/33/33
f 2/2/2 3/3/3 34/34/34
f 3/3/3 35/35/35 34/34/34
f 3/3/3 4/4/4 35/35/35
f 4/4/4 36/36/36 35/35/35
f 4/4/4 5/5/5 36/36/36
f 5/5/5 37/37/37 36/36/36
f 5/5/5 6/6/6 37/37/37
f 6/6/6 38/38/38 37/37/37
f 6/6/6 7/7/7 38/38/38
f 7/7/7 39/39/39 38/38/38
f 7/7/7 8/8/8 39/39/39
f 8/8/8 40/40/40 39/39/39
f 8/8/8 9/9/9 40/40/40
f 9/9/9 41/41/41 40/40/40
f 9/9/9 10/10/10 41/41/41
f 10/10/10 42/42/42 41/41/41
f 10/10/10 11/11/11 42/42/42
f 11/11/11 43/43/43 42/42/42
f 11/11/11 12/12/12 43/43/43
f 12/12/12 44/44/44 43/43/43
f 12/12/12 13/13/13 44/44/44
f 13/13/13 45/45/45 44/44/44
f 13/13/13 14/14/14 45/45/45
f 14/14/14 46/46/46 45/45/45
f 14/14/14 15/15/15 46/46/46
f 15/15/15 47/47/47 46/46/46
f 15/15/15 16/16/16 47/47/47
f 16/16/16 48/48/48 47/47/47
f 16/16/16 17/17/17 48/48/48
f 17/17/17 49/49/49 48/48/48
f 17/17/17 18/18/18 49/49/49
f 18/18/18 50/50/50 49/49/49
f 18/18/18 19/19/19 50/50/50
f 19/19/19 51/51/51 50/50/50
f 19/19/19 20/20/20 51/51/51
f 20/20/20 52/52/52 51/51/51
f 20/20/20 21/21/21 52/52/52
f 21/21/21 53/53/53 52/52/52
f 21/21/21 22/22/22 53/53/53
f 22/22/22 54/54/54 53/53/53
f 22/22/22 23/23/23 54/54/54
f 23/23/23 55/55/55 54/54/54
f 23/23/23 24/24/24 55/55/55
f 24/24/24 56/56/56 55/55/55
f 24/24/24 25/25/25 56/56/56
f 25/25/25 57/57/57 56/56/56
f 25/25/25 26/26/26 57/57/57
f 26/26/26 58/58/58 57/57/57
f 26/26/26 27/27/27 58/58/58
f 27/27/27 59/59/59 58/58/58
f 27/27/27 28/28/28 59/59/59
f 28/28/28 60/60/60 59/59/59
f 28/28/28 29/29/29 60/60/60
f 29/29/29 61/61/61 60/60/60
f 29/29/29 30/30/30 61/61/61
f 30/30/30 62/62/62 61/61/61
f 30/30/30 31/31/31 62/62/62
f 31/31/31 63/63/63 62/62/62
f 31/31/31 32/32/32 63/63/63
f 32/32/32 64/64/64 63/63/63
f 32/32/32 33/33/33 64/64/64
f 33/33/33 65/65/65 64/64/64
f 33/33/33 2/2/2 65/65/65
f 2/2/2 34/34/34 65/65/65
f 34/34/34 35/35/35 66/66/66
f 35/35/35 67/67/67 66/66/66
f 35/35/35 36/36/36 67/67/67
f 36/36/36 68/68/68 67/67/67
f 36/36/36 37/37/37 68/68/68
f 37/37/37 69/69/69 68/68/68
f 37/37/37 38/38/38 69/69/69
f 38/38/38 70/70/70 69/69/69
f 38/38/38 39/39/39 70/70/70
f 39/39/39 71/71/71 70/70/70
f 39/39/39 40/40/40 71/71/71
f 40/40/40 72/72/72 71/71/71
f 40/40/40 41/41/41 72/72/72
f 41/41/41 73/73/73 72/72/72
f 41/41/41 42/42/42 73/73/73
f 42/42/42 74/74/74 73/73/73
f 42/42/42 43/43/43 74/74/74
f 43/43/43 75/75/75 74/74/74
f 43/43/43 44/44/44 75/75/75
f 44/44/44 76/76/76 75/75/75
f 44/44/44 45/45/45 76/76/76
f 45/45/45 77/77/77 76/76/76
f 45/45/45 46/46/46 77/77/77
f 46/46/46 78/78/78 77/77/77
f 46/46/46 47/47/47 78/78/78
f 47/47/47 79/79/79 78/78/78
f 47/47/47 48/48/48 79/79/79
f 48/48/48 80/80/80 79/79/79
f 48/48/48 49/49/49 80/80/80
f 49/49/49 81/81/81 80/80/80
f 49/49/49 50/50/50 81/81/81
f 50/50/50 82/82/82 81/81/81
f 50/50/50 51/51/51 82/82/82
f 51/51/51 83/83/83 82/82/82
f 51/51/51 52/52/52 83/83/83
f 52/52/52 84/84/84 83/83/83
f 52/52/52 53/53/53 84/84/84
f 53/53/53 85/85/85 84/84/84
f 53/53/53 54/54/54 85/85/85
f 54/54/54 86/86/86 85/85/85
f 54/54/54 55/55/55 86/86/86
f 55/55/55 87/87/87 86/86/86
f 55/55/55 56/56/56 87/87/87
f 56/56/56 88/88/88 87/87/87
f 56/56/56 57/57/57 88/88/88
f 57/57/57 89/89/89 88/88/88
f 57/57/57 58/58/58 89/89/89
f 58/58/58 90/90/90 89/89/89
f 58/58/58 59/59/59 90/90/90
f 59/59/59 91/91/91 90/90/90
f 59/59/59 60/60/60 91/91/91
f 60/60/60 92/92/92 91/91/91
f 60/60/60 61/61/61 92/92/92
f 61/61/61 93/93/93 92/92/92
f 61/61/61 62/62/62 93/93/93
f 62/62/62 94/94/94 93/93/93
f 62/62/62 63/63/63 94/94/94
f 63/63/63 95/95/95 94/94/94
f 63/63/63 64/64/64 95/95/95
f 64/64/64 96/96/96 95/95/95
f 64/64/64 65/65/65 96/96/96
f 65/65/65 97/97/97 96/96/96
f 65/65/65 34/34/34 97/97/97
f 34/34/34 66/66/66 97/97/97
f 66/66/66 67/67/67 98/98/98
f 67/67/67 99/99/99 98/98/98
f 67/67/67 68/68/68 99/99/99
f 68/68/68 100/100/100 99/99/99
f 68/68/68 69/69/69 100/100/100
f 69/69/69 101/101/101 100/100/100
f 69/69/69 70/70/70 101/101/101
f 70/70/70 102/102/102 101/101/101
f 70/70/70 71/71/71 102/102/102
f 71/71/71 103/103/103 102/102/102
f 71/71/71 72/72/72 103/103/103
f 72/72/72 104/104/104 103/103/103
f 72/72/72 73/73/73 104/104/104
f 73/73/73 105/105/105 104/104/104
f 73/73/73 74/74/74 105/105/105
f 74/74/74 106/106/106 105/105/105
f 74/74/74 75/75/75 106/106/106
f 75/75/75 107/107/107 106/106/106
f 75/75/75 76/76/76 107/107/107
f 76/76/76 108/108/108 107/107/107
f 76/76/76 77/77/77 108/108/108
f 77/77/77 109/109/109 108/108/108
f 77/77/77 78/78/78 109/109/109
f 78/78/78 110/110/110 109/109/109
f 78/78/78 79/79/79 110/110/110
f 79/79/79 111/111/111 110/110/110
f 79/79/79 80/80/80 111/111/111
f 80/80/80 112/112/112 111/111/111
f 80/80/80 81/81/81 112/112/112
f 81/81/81 113/113/113 112/112/112
f 81/81/81 82/82/82 113/113/113
f 82/82/82 114/114/114 113/113/113
f 82/82/82 83/83/83 114/114/114
f 83/83/83 115/115/115 114/114/114
f 83/83/83 84/84/84 115/115/115
f 84/84/84 116/116/116 115/115/115
f 84/84/84 85/85/85 116/116/116
f 85/85/85 117/117/117 116/116/116
f 85/85/85 86/86/86 117/117/117
f 86/86/86 118/118/118 117/117/117
f 86/86/86 87/87/87 118/118/118
f 87/87/87 119/119/119 118/118/118
f 87/87/87 88/88/88 119/119/119
f 88/88/88 120/120/120 119/119/119
f 88/88/88 89/89/89 120/120/120
f 89/89/89 121/121/121 120/120/120
f 89/89/89 90/90/90 121/121/121
f 90/90/90 122/122/122 121/121/121
f 90/90/90 91/91/91 122/122/122
f 91/91/91 123/123/123 122/122/122
f 91/91/91 92/92/92 123/123/123
f 92/92/92 124/124/124 123/123/123
f 92/92/92 93/93/93 124/124/124
f 93/93/93 125/125/125 124/124/124
f 93/93/93 94/94/94 125/125/125
f 94/94/94 126/126/126 125/125/125
f 94/94/94 95/95/95 126/126/126
f 95/95/95 127/127/127 126/126/126
f 95/95/95 96/96/96 127/127/127
f 96/96/96 128/128/128 127/127/127
f 96/96/96 97/97/97 128/128/128
f 97/97/97 129/129/129 128/128/128
f 97/97/97 66/66/66 129/129/129
f 66/66/66 98/98/98 129/129/129
f 98/98/98 99/99/99 130/130/130
f 99/99/99 131/131/131 130/130/130
f 99/99/99 100/100/100 131/131/131
f 100/100/100 132/132/132 131/131/131
f 100/100/100 101/101/101 132/132/132
f 101/101/101 133/133/133 132/132/132
f 101/101/101 102/102/102 133/133/133
f 102/102/102 134/134/134 133/133/133
f 102/102/102 103/103/103 134/134/134
f 103/103/103 135/135/135 134/134/134
f 103/103/103 104/104/104 135/135/135
f 104/104/104 136/136/136 135/135/135
f 104/104/104 105/105/105 136/136/136
f 105/105/105 137/137/137 136/136/136
f 105/105/105 106/106/106 137/137/137
f 106/106/106 138/138/138 137/137/137
f 106/106/106 107/107/107 138/138/138
f 107/107/107 139/139/139 138/138/138
f 107/107/107 108/108/108 139/139/139
f 108/108/108 140/140/140 139/139/139
f 108/108/108 109/109/109 140/140/140
f 109/109/109 141/141/141 140/140/140
f 109/109/109 110/110/110 141/141/141
f 110/110/110 142/142/142 141/141/141
f 110/110/110 111/111/111 142/142/142
f 111/111/111 143/143/143 142/142/142
f 111/111/111 112/112/112 143/143/143
f 112/112/112 144/144/144 143/143/143
f 112/112/112 113/113/113 144/144/144
f 113/113/113 145/145/145 144/144/144
f 113/113/113 114/114/114 145/145/145
f 114/114/114 146/146/146 145/145/145
f 114/114/114 115/115/115 146/146/146
f 115/115/115 147/147/147 146/146/146
f 115/115/115 116/116/116 147/147/147
f 116/116/116 148/148/148 147/147/147
f 116/116/116 117/117/117 148/148/148
f 117/117/117 149/149/149 148/148/148
f 117/117/117 118/118/118 149/149/149
f 118/118/118 150/150/150 149/149/149
f 118/118/118 119/119/119 150/150/150
f 119/119/119 151/151/151 150/150/150
f 119/119/119 120/120/120 151/151/151
f 120/120/120 152/152/152 151/151/151
f 120/120/120 121/121/121 152/152/152
f 121/121/121 153/153/153 152/152/152
f 121/121/121 122/122/122 153/153/153
f 122/122/122 154/154/154 153/153/153
f 122/122/122 123/123/123 154/154/154
f 123/123/123 155/155/155 154/154/154
f 123/123/123 124/124/124 155/155/155
f 124/124/124 156/156/156 155/155/155
f 124/124/124 125/125/125 156/156/156
f 125/125/125 157/157/157 156/156/156
f 125/125/125 126/126/126 157/157/157
f 126/126/126 158/158/158 157/157/157
f 126/126/126 127/127/127 158/158/158
f 127/127/127 159/159/159 158/158/158
f 127/127/127 128/128/128 159/159/159
f 128/128/128 160/160/160 159/159/159
f 128/128/128 129/129/129 160/160/160
f 129/129/129 161/161/161 160/160/160
f 129/129/129 98/98/98 161/161/161
f 98/98/98 130/130/130 161/161/161
f 130/130/130 131/131/131 162/162/162
f 131/131/131 163/163/163 162/162/162
f 131/131/131 132/132/132 163/163/163
f 132/132/132 164/164/164 163/163/163
f 132/132/132 133/133/133 164/164/164
f 133/133/133 165/165/165 164/164/164
f 133/133/133 134/134/134 165/165/165
f 134/134/134 166/166/166 165/165/165
f 134/134/134 135/135/135 166/166/166
f 135/135/135 167/167/167 166/166/166
f 135/135/135 136/136/136 167/167/167
f 136/136/136 168/168/168 167/167/167
f 136/136/136 137/137/137 168/168/168
f 137/137/137 169/169/169 168/168/168
f 137/137/137 138/138/138 169/169/169
f 138/138/138 170/170/170 169/169/169
f 138/138/138 139/139/139 170/170/170
f 139/139/139 171/171/171 170/170/170
f 139/139/139 140/140/140 171/171/171
f 140/140/140 172/172/172 171/171/171
f 140/140/140 141/141/141 172/172/172
f 141/141/141 173/173/173 172/172/172
f 141/141/141 142/142/142 173/173/173
f 142/142/142 174/174/174 173/173/173
f 142/142/142 143/143/143 174/174/174
f 143/143/143 175/175/175 174/174/174
f 143/143/143 144/144/144 175/175/175
f 144/144/144 176/176/176 175/175/175
f 144/144/144 145/145/145 176/176/176
f 145/145/145 177/177/177 176/176/176
f 145/145/145 146/146/146 177/177/177
f 146/146/146 178/178/178 177/177/177
f 146/146/146 147/147/147 178/178/178
f 147/147/147 179/179/179 178/178/178
f 147/147/147 148/148/148 179/179/179
f 148/148/148 180/180/180 179/179/179
f 148/148/148 149/149/149 180/180/180
f 149/149/149 181/181/181 180/180/180
f 149/149/149 150/150/150 181/181/181
f 150/150/150 182/182/182 181/181/181
f 150/150/150 151/151/151 182/182/182
f 151/151/151 183/183/183 182/182/182
f 151/151/151 152/152/152 183/183/183
f 152/152/152 184/184/184 183/183/183
f 152/152/152 153/153/153 184/184/184
f 153/153/153 185/185/185 184/184/184
f 153/153/153 154/154/154 185/185/185
f 154/154/154 186/186/186 185/185/185
f 154/154/154 155/155/155 186/186/186
f 155/155/155 187/187/187 186/186/186
f 155/155/155 156/156/156 187/187/187
f 156/156/156 188/188/188 187/187/187
f 156/156/156 157/157/157 188/188/188
f 157/157/157 189/189/189 188/188/188
f 157/157/157 158/158/158 189/189/189
f 158/158/158 190/190/190 189/189/189
f 158/158/158 159/159/159 190/190/190
f 159/159/159 191/191/191 190/190/190
f 159/159/159 160/160/160 191/191/191
f 160/160/160 192/192/192 191/191/191
f 160/160/160 161/161/161 192/192/192
f 161/161/161 193/193/193 192/192/192
f 161/161/161 130/130/130 193/193/193
f 130/130/130 162/162/162 193/193/193
f 162/162/162 163/163/163 194/194/194
f 163/163/163 195/195/195 194/194/194
f 163/163/163 164/164/164 195/195/195
f 164/164/164 196/196/196 195/195/195
f 164/164/164 165/165/165 196/196/196
f 165/165/165 197/197/197 196/196/196
f 165/165/165 166/166/166 197/197/197
f 166/166/166 198/198/198 197/197/197
f 166/166/166 167/167/167 198/198/198
f 167/167/167 199/199/199 198/198/198
f 167/167/167 168/168/168 199/199/199
f 168/168/168 200/200/200 199/199/199
f 168/168/168 169/169/169 200/200/200
f 169/169/169 201/201/201 200/200/200
f 169/169/169 170/170/170 201/201/201
f 170/170/170 202/202/202 201/201/201
f 170/170/170 171/171/171 202/202/202
f 171/171/171 203/203/203 202/202/202
f 171/171/171 172/172/172 203/203/203
f 172/172/172 204/204/204 203/203/203
f 172/172/172 173/173/173 204/204/204
f 173/173/173 205/205/205 204/204/204
f 173/173/173 174/174/174 205/205/205
f 174/174/174 206/206/206 205/205/205
f 174/174/174 175/175/175 206/206/206
f 175/175/175 207/207/207 206/206/206
f 175/175/175 176/176/176 207/207/207
f 176/176/176 208/208/208 207/207/207
f 176/176/176 177/177/177 208/208/208
f 177/177/177 209/209/209 208/208/208
f 177/177/177 178/178/178 209/209/209
f 178/178/178 210/210/210 209/209/209
f 178/178/178 179/179/179 210/210/210
f 179/179/179 211/211/211 210/210/210
f 179/179/179 180/180/180 211/211/211
f 180/180/180 212/212/212 211/211/211
f 180/180/180 181/181/181 212/212/212
f 181/181/181 213/213/213 212/212/212
f 181/181/181 182/182/182 213/213/213
f 182/182/182 214/214/214 213/213/213
f 182/182/182 183/183/183 214/214/214
f 183/183/183 215/215/215 214/214/214
f 183/183/183 184/184/184 215/215/215
f 184/184/184 216/216/216 215/215/215
f 184/184/184 185/185/185 216/216/216
f 185/185/185 217/217/217 216/216/216
f 185/185/185 186/186/186 217/217/217
f 186/186/186 218/218/218 217/217/217
f 186/186/186 187/187/187 218/218/218
f 187/187/187 219/219/219 218/218/218
f 187/187/187 188/188/188 219/219/219
f 188/188/188 220/220/220 219/219/219
f 188/188/188 189/189/189 220/220/220
f 189/189/189 221/221/221 220/220/220
f 189/189/189 190/190/190 221/221/221
f 190/190/190 222/222/222 221/221/221
f 190/190/190 191/191/191 222/222/222
f 191/191/191 223/223/223 222/222/222
f 191/191/191 192/192/192 223/223/223
f 192/192/192 224/224/224 223/223/223
f 192/192/192 193/193/193 224/224/224
f 193/193/193 225/225/225 224/224/224
f 193/193/193 162/162/162 225/225/225
f 162/162/162 194/194/194 225/225/225
f 194/194/194 195/195/195 226/226/226
f 195/195/195 227/227/227 226/226/226
f 195/195/195 196/196/196 227/227/227
f 196/196/196 228/228/228 227/227/227
f 196/196/196 197/197/197 228/228/228
f 197/197/197 229/229/229 228/228/228
f 197/197/197 198/198/198 229/229/229
f 198/198/198 230/230/230 229/229/229
f 198/198/198 199/199/199 230/230/230
f 199/199/199 231/231/231 230/230/230
f 199/199/199 200/200/200 231/231/231
f 200/200/200 232/232/232 231/231/231
f 200/200/200 201/201/201 232/232/232
f 201/201/201 233/233/233 232/232/232
f 201/201/201 202/202/202 233/233/233
f 202/202/202 234/234/234 233/233/233
f 202/202/202 203/203/203 234/234/234
f 203/203/203 235/235/235 234/234/234
f 203/203/203 204/204/204 235/235/235
f 204/204/204 236/236/236 235/235/235
f 204/204/204 205/205/205 236/236/236
f 205/205/205 237/237/237 236/236/236
f 205/205/205 206/206/206 237/237/237
f 206/206/206 238/238/238 237/237/237
f 206/206/206 207/207/207 238/238/238
f 207/207/207 239/239/239 238/238/238
f 207/207/207 208/208/208 239/239/239
f 208/208/208 240/240/240 239/239/239
f 208/208/208 209/209/209 240/240/240
f 209/209/209 241/241/241 240/240/240
f 209/209/209 210/210/210 241/241/241
f 210/210/210 242/242/242 241/241/241
f 210/210/210 211/211/211 242/242/242
f 211/211/211 243/243/243 242/242/242
f 211/211/211 212/212/212 243/243/243
f 212/212/212 244/244/244 243/243/243
f 212/212/212 213/213/213 244/244/244
f 213/213/213 245/245/245 244/244/244
f 213/213/213 214/214/214 245/245/245
f 214/214/214 246/246/246 245/245/245
f 214/214/214 215/215/215 246/246/246
f 215/215/215 247/247/247 246/246/246
f 215/215/215 216/216/216 247/247/247
f 216/216/216 248/248/248 247/247/247
f 216/216/216 217/217/217 248/248/248
f 217/217/217 249/249/249 248/248/248
f 217/217/217 218/218/218 249/249/249
f 218/218/218 250/250/250 249/249/249
f 218/218/218 219/219/219 250/250/250
f 219/219/219 251/251/251 250/250/250
f 219/219/219 220/220/220 251/251/251
f 220/220/220 252/252/252 251/251/251
f 220/220/220 221/221/221 252/252/252
f 221/221/221 253/253/253 252/252/252
f 221/221/221 222/222/222 253/253/253
f 222/222/222 254/254/254 253/253/253
f 222/222/222 223/223/223 254/254/254
f 223/223/223 255/255/255 254/254/254
f 223/223/223 224/224/224 255/255/255
f 224/224/224 256/256/256 255/255/255
f 224/224/224 225/225/225 256/256/256
f 225/225/225 257/257/257 256/256/256
f 225/225/225 194/194/194 257/257/257
f 194/194/194 226/226/226 257/257/257
f 226/226/226 227/227/227 258/258/258
f 227/227/227 259/259/259 258/258/258
f 227/227/227 228/228/228 259/259/259
f 228/228/228 260/260/260 259/259/259
f 228/228/228 229/229/229 260/260/260
f 229/229/229 261/261/261 260/260/260
f 229/229/229 230/230/230 261/261/261
f 230/230/230 262/262/262 261/261/261
f 230/230/230 231/231/231 262/262/262
f 231/231/231 263/263/263 262/262/262
f 231/231/231 232/232/232 263/263/263
f 232/232/232 264/264/264 263/263/263
f 232/232/232 233/233/233 264/264/264
f 233/233/233 265/265/265 264/264/264
f 233/233/233 234/234/234 265/265/265
f 234/234/234 266/266/266 265/265/265
f 234/234/234 235/235/235 266/266/266
f 235/235/235 267/267/267 266/266/266
f 235/235/235 236/236/236 267/267/267
f 236/236/236 268/268/268 267/267/267
f 236/236/236 237/237/237 268/268/268
f 237/237/237 269/269/269 268/268/268
f 237/237/237 238/238/238 269/269/269
f 238/238/238 270/270/270 269/269/269
f 238/238/238 239/239/239 270/270/270
f 239/239/239 271/271/271 270/270/270
f 239/239/239 240/240/240 271/271/271
f 240/240/240 272/272/272 271/271/271
f 240/240/240 241/241/241 272/272/272
f 241/241/241 273/273/273 272/272/272
f 241/241/241 242/242/242 273/273/273
f 242/242/242 274/274/274 273/273/273
f 242/242/242 243/243/243 274/274/274
f 243/243/243 275/275/275 274/274/274
f 243/243/243 244/244/244 275/275/275
f 244/244/244 276/276/276 275/275/275
f 244/244/244 245/245/245 276/276/276
f 245/245/245 277/277/277 276/276/276
f 245/245/245 246/246/246 277/277/277
f 246/246/246 278/278/278 277/277/277
f 246/246/246 247/247/247 278/278/278
f 247/247/247 279/279/279 278/278/278
f 247/247/247 248/248/248 279/279/279
f 248/248/248 280/280/280 279/279/279
f 248/248/248 249/249/249 280/280/280
f 249/249/249 281/281/281 280/280/280
f 249/249/249 250/250/250 281/281/281
f 250/250/250 282/282/282 281/281/281
f 250/250/250 251/251/251 282/282/282
f 251/251/251 283/283/283 282/282/282
f 251/251/251 252/252/252 283/283/283
f 252/252/252 284/284/284 283/283/283
f 252/252/252 253/253/253 284/284/284
f 253/253/253 285/285/285 284/284/284
f 253/253/253 254/254/254 285/285/285
f 254/254/254 286/286/286 285/285/285
f 254/254/254 255/255/255 286/286/286
f 255/255/255 287/287/287 286/286/286
f 255/255/255 256/256/256 287/287/287
f 256/256/256 288/288/288 287/287/287
f 256/256/256 257/257/257 288/288/288
f 257/257/257 289/289/289 288/288/288
f 257/257/257 226/226/226 289/289/289
f 226/226/226 258/258/258 289/289/289
f 258/258/258 259/259/259 290/290/290
f 259/259/259 291/291/291 290/290/290
f 259/259/259 260/260/260 291/291/291
f 260/260/260 292/292/292 291/291/291
f 260/260/260 261/261/261 292/292/292
f 261/261/261 293/293/293 292/292/292
f 261/261/261 262/262/262 293/293/293
f 262/262/262 294/294/294 293/293/293
f 262/262/262 263/263/263 294/294/294
f 263/263/263 295/295/295 294/294/294
f 263/263/263 264/264/264 295/295/295
f 264/264/264 296/296/296 295/295/295
f 264/264/264 265/265/265 296/296/296
f 265/265/265 297/297/297 296/296/296
f 265/265/265 266/266/266 297/297/297
f 266/266/266 298/298/298 297/297/297
f 266/266/266 267/267/267 298/298/298
f 267/267/267 299/299/299 298/298/298
f 267/267/267 268/268/268 299/299/299
f 268/268/268 300/300/300 299/299/299
f 268/268/268 269/269/269 300/300/300
f 269/269/269 301/301/301 300/300/300
f 269/269/269 270/270/270 301/301/301
f 270/270/270 302/302/302 301/301/301
f 270/270/270 271/271/271 302/302/302
f 271/271/271 303/303/303 302/302/302
f 271/271/271 272/272/272 303/303/303
f 272/272/272 304/304/304 303/303/303
f 272/272/272 273/273/273 304/304/304
f 273/273/273 305/305/305 304/304/304
f 273/273/273 274/274/274 305/305/305
f 274/274/274 306/306/306 305/305/305
f 274/274/274 275/275/275 306/306/306
f 275/275/275 307/307/307 306/306/306
f 275/275/275 276/276/276 307/307/307
f 276/276/276 308/308/308 307/307/307
f 276/276/276 277/277/277 308/308/308
f 277/277/277 309/309/309 308/308/308
f 277/277/277 278/278/278 309/309/309
f 278/278/278 310/310/310 309/309/309
f 278/278/278 279/279/279 310/310/310
f 279/279/279 311/311/311 310/310/310
f 279/279/279 280/280/280 311/311/311
f 280/280/280 312/312/312 311/311/311
f 280/280/280 281/281/281 312/312/312
f 281/281/281 313/313/313 312/312/312
f 281/281/281 282/282/282 313/313/313
f 282/282/282 314/314/314 313/313/313
f 282/282/282 283/283/283 314/314/314
f 283/283/283 315/315/315 314/314/314
f 283/283/283 284/284/284 315/315/315
f 284/284/284 316/316/316 315/315/315
f 284/284/284 285/285/285 316/316/316
f 285/285/285 317/317/317 316/316/316
f 285/285/285 286/286/286 317/317/317
f 286/286/286 318/318/318 317/317/317
f 286/286/286 287/287/287 318/318/318
f 287/287/287 319/319/319 318/318/318
f 287/287/287 288/288/288 319/319/319
f 288/288/288 320/320/320 319/319/319
f 288/288/288 289/289/289 320/320/320
f 289/289/289 321/321/321 320/320/320
f 289/289/289 258/258/258 321/321/321
f 258/258/258 290/290/290 321/321/321
f 290/290/290 291/291/291 322/322/322
f 291/291/291 323/323/323 322/322/322
f 291/291/291 292/292/292 323/323/323
f 292/292/292 324/324/324 323/323/323
f 292/292/292 293/293/293 324/324/324
f 293/293/293 325/325/325 324/324/324
f 293/293/293 294/294/294 325/325/325
f 294/294/294 326/326/326 325/325/325
f 294/294/294 295/295/295 326/326/326
f 295/295/295 327/327/327 326/326/326
f 295/295/295 296/296/296 327/327/327
f 296/296/296 328/328/328 327/327/327
f 296/296/296 297/297/297 328/328/328
f 297/297/297 329/329/329 328/328/328
f 297/297/297 298/298/298 329/329/329
f 298/298/298 330/330/330 329/329/329
f 298/298/298 299/299/299 330/330/330
f 299/299/299 331/331/331 330/330/330
f 299/299/299 300/300/300 331/331/331
f 300/300/300 332/332/332 331/331/331
f 300/300/300 301/301/301 332/332/332
f 301/301/301 333/333/333 332/332/332
f 301/301/301 302/302/302 333/333/333
f 302/302/302 334/334/334 333/333/333
f 302/302/302 303/303/303 334/334/334
f 303/303/303 335/335/335 334/334/334
f 303/303/303 304/304/304 335/335/335
f 304/304/304 336/336/336 335/335/335
f 304/304/304 305/305/305 336/336/336
f 305/305/305 337/337/337 336/336/336
f 305/305/305 306/306/306 337/337/337
f 306/306/306 338/338/338 337/337/337
f 306/306/306 307/307/307 338/338/338
f 307/307/307 339/339/339 338/338/338
f 307/307/307 308/308/308 339/339/339
f 308/308/308 340/340/340 339/339/339
f 308/308/308 309/309/309 340/340/340
f 309/309/309 341/341/341 340/340/340
f 309/309/309 310/310/310 341/341/341
f 310/310/310 342/342/342 341/341/341
f 310/310/310 311/311/311 342/342/342
f 311/311/311 343/343/343 342/342/342
f 311/311/311 312/312/312 343/343/343
f 312/312/312 344/344/344 343/343/343
f 312/312/312 313/313/313 344/344/344
f 313/313/313 345/345/345 344/344/344
f 313/313/313 314/314/314 345/345/345
f 314/314/314 346/346/346 345/345/345
f 314/314/314 315/315/315 346/346/346
f 315/315/315 347/347/347 346/346/346
f 315/315/315 316/316/316 347/347/347
f 316/316/316 348/348/348 347/347/347
f 316/316/316 317/317/317 348/348/348
f 317/317/317 349/349/349 348/348/348
f 317/317/317 318/318/318 349/349/349
f 318/318/318 350/350/350 349/349/349
f 318/318/318 319/319/319 350/350/350
f 319/319/319 351/351/351 350/350/350
f 319/319/319 320/320/320 351/351/351
f 320/320/320 352/352/352 351/351/351
f 320/320/320 321/321/321 352/352/352
f 321/321/321 353/353/353 352/352/352
f 321/321/321 290/290/290 353/353/353
f 290/290/290 322/322/322 353/353/353
f 322/322/322 323/323/323 354/354/354
f 323/323/323 324/324/324 354/354/354
f 324/324/324 325/325/325 354/354/354
f 325/325/325 326/326/326 354/354/354
f 326/326/326 327/327/327 354/354/354
f 327/327/327 328/328/328 354/354/354
f 328/328/328 329/329/329 354/354/354
f 329/329/329 330/330/330 354/354/354
f 330/330/330 331/331/331 354/354/354
f 331/331/331 332/332/332 354/354/354
f 332/332/332 333/333/333 354/354/354
f 333/333/333 334/334/334 354/354/354
f 334/334/334 335/335/335 354/354/354
f 335/335/335 336/336/336 354/354/354
f 336/336/336 337/337/337 354/354/354
f 337/337/337 338/338/338 354/354/354
f 338/338/338 339/339/339 354/354/354
f 339/339/339 340/340/340 354/354/354
f 340/340/340 341/341/341 354/354/354
f 341/341/341 342/342/342 354/354/354
f 342/342/342 343/343/343 354/354/354
f 343/343/343 344/344/344 354/354/354
f 344/344/344 345/345/345 354/354/354
f 345/345/345 346/346/346 354/354/354
f 346/346/346 347/347/347 354/354/354
f 347/347/347 348/348/348 354/354/354
f 348/348/348 349/349/349 354/354/354
f 349/349/349 350/350/350 354/354/354
f 350/350/350 351/351/351 354/354/354
f 351/351/351 352/352/352 354/354/354
f 352/352/352 353/353/353 354/354/354
f 353/353/353 322/322/322 354/354/354
