# OSM contributors ODbL; elevations USGS 3DEP
# Centimeters, Z up, OBJ Y = negative source ENU Y. Apply source-to-world placement.
o EastsideTrail_Concrete_6_12
v 22122.478658 28364.696489 -82.937500
v 22117.472166 28369.702982 -82.957057
v 22117.918923 28371.241030 -82.932052
v 22122.478658 28386.938805 -82.676848
v 22116.017929 28364.696489 -83.038449
v 22122.478658 28298.029823 -83.718750
v 22102.466257 28318.042224 -83.796923
v 22096.653252 28298.029823 -84.021391
v 22122.478658 28231.363156 -84.760417
v 22087.460348 28266.381466 -84.623626
v 22077.288575 28231.363156 -85.113464
v 22122.478658 28164.696489 -84.760417
v 22072.454440 28214.720707 -85.151231
v 22057.923897 28164.696489 -85.516918
v 22062.235506 28179.540042 -85.408408
v 22055.811991 28157.425843 -85.626870
v 22055.811991 28098.029823 -86.322917
v 22042.442623 28111.399191 -86.531813
v 22038.559220 28098.029823 -86.794672
v 22122.478658 28098.029823 -85.541667
v 22057.448531 28163.059949 -85.541667
v 22055.811991 28031.363156 -87.625000
v 22027.436714 28059.738433 -87.846682
v 22019.194543 28031.363156 -88.340185
v 22025.113229 28051.739383 -87.985801
v 22122.478658 28031.363156 -87.104167
v 22055.811991 27964.696489 -88.406250
v 22012.430805 28008.077675 -88.745166
v 21999.829865 27964.696489 -89.280971
v 22122.478658 27964.696489 -88.145833
v 21989.145325 27927.912880 -89.591603
v 21989.145325 27898.029823 -89.708333
v 21982.418988 27904.756159 -89.865982
v 21980.465188 27898.029823 -89.979588
v 22055.811991 27898.029823 -88.666667
v 21997.424897 27956.416917 -89.350890
v 22122.478658 27898.029823 -88.406250
v 21989.145325 27831.363156 -90.489583
v 21967.413080 27853.095401 -90.914041
v 21969.429812 27860.038394 -90.769655
v 21961.100511 27831.363156 -91.256434
v 22055.811991 27831.363156 -89.968750
v 22122.478658 27831.363156 -89.187500
v 21989.145325 27764.696489 -92.312500
v 21952.407171 27801.434643 -92.312500
v 21941.735834 27764.696489 -92.682887
v 22055.811991 27764.696489 -91.531250
v 22122.478658 27764.696489 -89.968750
v 21922.478658 27698.399918 -92.833333
v 21922.478658 27698.029823 -92.833333
v 21922.395354 27698.113127 -92.836262
v 21922.371156 27698.029823 -92.836693
v 21989.145325 27698.029823 -92.572917
v 21937.401262 27749.773885 -92.775042
v 21932.307534 27732.237735 -92.794939
v 22055.811991 27698.029823 -92.052083
v 22122.478658 27698.029823 -90.489583
v 21922.478658 27631.363156 -93.093750
v 21907.389445 27646.452369 -93.506346
v 21913.746395 27668.337406 -93.222203
v 21903.006479 27631.363156 -93.626192
v 21989.145325 27631.363156 -92.833333
v 22055.811991 27631.363156 -92.312500
v 22122.478658 27631.363156 -91.010417
v 21922.478658 27564.696489 -94.135417
v 21892.383537 27594.791611 -94.488094
v 21895.185256 27604.437076 -94.260774
v 21883.641802 27564.696489 -95.045655
v 21989.145325 27564.696489 -93.354167
v 22055.811991 27564.696489 -92.833333
v 22122.478658 27564.696489 -91.531250
v 21922.478658 27498.029823 -94.916667
v 21877.377628 27543.130853 -95.445194
v 21864.277125 27498.029823 -96.053415
v 21876.624118 27540.536747 -95.480178
v 21989.145325 27498.029823 -94.395833
v 22055.811991 27498.029823 -93.354167
v 22122.478658 27498.029823 -92.052083
v 21855.811991 27468.886955 -96.104911
v 21855.811991 27431.363156 -95.958333
v 21847.365811 27439.809337 -96.321255
v 21844.912447 27431.363156 -96.384097
v 21922.478658 27431.363156 -94.916667
v 21862.371719 27491.470095 -96.090630
v 21858.062979 27476.636417 -96.100010
v 21989.145325 27431.363156 -94.656250
v 22055.811991 27431.363156 -93.614583
v 22122.478658 27431.363156 -92.572917
v 21855.811991 27364.696489 -96.739583
v 21832.359902 27388.148578 -97.380851
v 21839.501840 27412.736088 -96.813735
v 21825.547770 27364.696489 -97.685340
v 21922.478658 27364.696489 -95.437500
v 21989.145325 27364.696489 -95.177083
v 22055.811991 27364.696489 -94.395833
v 22122.478658 27364.696489 -93.093750
v 21855.811991 27298.029823 -97.520833
v 21817.353994 27336.487820 -98.271966
v 21820.940701 27348.835758 -98.015179
v 21806.183093 27298.029823 -98.684011
v 21922.478658 27298.029823 -96.479167
v 21989.145325 27298.029823 -95.958333
v 22055.811991 27298.029823 -94.916667
v 22122.478658 27298.029823 -93.875000
v 21789.145325 27239.373993 -99.083333
v 21789.145325 27231.363156 -99.083333
v 21787.342176 27233.166304 -99.160812
v 21786.818416 27231.363156 -99.183318
v 21855.811991 27231.363156 -98.041667
v 21802.348085 27284.827062 -98.877040
v 21802.379562 27284.935428 -98.875456
v 21922.478658 27231.363156 -97.260417
v 21989.145325 27231.363156 -96.479167
v 22055.811991 27231.363156 -95.697917
v 22122.478658 27231.363156 -94.916667
v 21789.145325 27164.696489 -99.864583
v 21772.336268 27181.505546 -100.389866
v 21783.818423 27221.035099 -99.433256
v 21767.453738 27164.696489 -100.627178
v 21855.811991 27164.696489 -98.822917
v 21922.478658 27164.696489 -97.781250
v 21989.145325 27164.696489 -97.260417
v 22055.811991 27164.696489 -96.479167
v 22122.478658 27164.696489 -97.000000
v 21789.145325 27098.029823 -101.166667
v 21757.330359 27129.844788 -101.663776
v 21765.257284 27157.134769 -100.852087
v 21748.089061 27098.029823 -102.128923
v 21855.811991 27098.029823 -99.604167
v 21922.478658 27098.029823 -98.562500
v 21989.145325 27098.029823 -97.781250
v 22055.811991 27098.029823 -96.479167
v 22122.478658 27098.029823 -95.958333
v 21789.145325 27031.363156 -101.687500
v 21742.324451 27078.184030 -102.419076
v 21746.696145 27093.234440 -102.199033
v 21728.724384 27031.363156 -103.339635
v 21855.811991 27031.363156 -100.125000
v 21922.478658 27031.363156 -99.343750
v 21989.145325 27031.363156 -98.302083
v 22055.811991 27031.363156 -96.739583
v 22122.478658 27031.363156 -94.135417
v 21722.478658 27009.861031 -103.678402
v 21722.478658 26964.696489 -104.031250
v 21712.312633 26974.862514 -104.269516
v 21709.359706 26964.696489 -104.441217
v 21709.573868 26965.433781 -104.428765
v 21789.145325 26964.696489 -102.208333
v 21727.318542 27026.523272 -103.415888
v 21728.135007 27029.334110 -103.371603
v 21855.811991 26964.696489 -100.645833
v 21922.478658 26964.696489 -99.864583
v 21989.145325 26964.696489 -98.822917
v 22055.811991 26964.696489 -97.000000
v 22122.478658 26964.696489 -92.833333
v 21722.478658 26898.029823 -104.552083
v 21697.306725 26923.201756 -105.142051
v 21689.995145 26898.029823 -105.567193
v 21691.012729 26901.533451 -105.508022
v 21789.145325 26898.029823 -102.468750
v 21855.811991 26898.029823 -101.427083
v 21922.478658 26898.029823 -100.385417
v 21989.145325 26898.029823 -99.083333
v 22055.811991 26898.029823 -97.000000
v 22122.478658 26898.029823 -91.010417
v 21722.478658 26831.363156 -104.812500
v 21682.301585 26871.540229 -105.911092
v 21670.635469 26831.363156 -106.837625
v 21672.451753 26837.626406 -106.693279
v 21789.145325 26831.363156 -102.989583
v 21855.811991 26831.363156 -101.947917
v 21922.478658 26831.363156 -101.166667
v 21989.145325 26831.363156 -99.083333
v 22055.811991 26831.363156 -96.218750
v 22122.478658 26881.243492 -89.633413
v 22112.903342 26848.278604 -87.789544
v 22111.251161 26842.590653 -87.471393
v 22107.989909 26831.363156 -87.862130
v 21655.811991 26780.246052 -107.616343
v 21655.811991 26764.696489 -107.677083
v 21652.316443 26768.192038 -107.827283
v 21653.894777 26773.634755 -107.732038
v 21651.302767 26764.696489 -107.870839
v 21722.478658 26764.696489 -105.333333
v 21667.303143 26819.872004 -107.057568
v 21789.145325 26764.696489 -103.770833
v 21855.811991 26764.696489 -102.989583
v 21922.478658 26764.696489 -101.687500
v 21989.145325 26764.696489 -99.864583
v 22055.811991 26764.696489 -95.697917
v 22096.245253 26790.929894 -86.110435
v 22094.343096 26784.381350 -86.519953
v 22088.625882 26764.696489 -87.750802
v 21655.811991 26698.029823 -107.416667
v 21637.329752 26716.512062 -108.283022
v 21631.970082 26698.029823 -108.254859
v 21635.361923 26709.726216 -108.272681
v 21722.478658 26698.029823 -105.593750
v 21789.145325 26698.029823 -104.291667
v 21855.811991 26698.029823 -103.510417
v 21922.478658 26698.029823 -101.947917
v 21989.145325 26698.029823 -100.125000
v 22055.811991 26698.029823 -94.916667
v 22081.240500 26739.267980 -89.142129
v 22075.796868 26720.525084 -90.262130
v 22069.273461 26698.029823 -91.603883
v 21655.811991 26631.363156 -107.677083
v 21622.343062 26664.832086 -108.722987
v 21612.637398 26631.363156 -108.857639
v 21722.478658 26631.363156 -105.854167
v 21789.145325 26631.363156 -104.812500
v 21855.811991 26631.363156 -103.770833
v 21922.478658 26631.363156 -101.687500
v 21989.145325 26631.363156 -101.947917
v 22055.811991 26651.609405 -96.911294
v 22051.260627 26635.914520 -97.941259
v 22049.940776 26631.363156 -98.148201
v 22066.247318 26687.594496 -92.878517
v 22057.276065 26656.658105 -96.345496
v 21655.811991 26564.696489 -107.937500
v 21607.356371 26613.152109 -109.073179
v 21593.304713 26564.696489 -109.890852
v 21598.296214 26581.909139 -109.600394
v 21722.478658 26564.696489 -106.375000
v 21789.145325 26564.696489 -105.593750
v 21855.811991 26564.696489 -104.031250
v 21922.478658 26564.696489 -102.729167
v 21989.145325 26564.696489 -102.729167
v 22036.273937 26584.234544 -99.554667
v 22030.608091 26564.696489 -100.137744
v 21589.145325 26550.353291 -110.076861
v 21589.145325 26498.029823 -110.281250
v 21577.382990 26509.792157 -110.556930
v 21573.972028 26498.029823 -110.755416
v 21655.811991 26498.029823 -108.197917
v 21592.369681 26561.472133 -109.932667
v 21722.478658 26498.029823 -106.895833
v 21789.145325 26498.029823 -106.114583
v 21855.811991 26498.029823 -104.552083
v 21922.478658 26498.029823 -103.510417
v 21989.145325 26498.029823 -103.510417
v 22021.287247 26532.554567 -101.473623
v 22020.210356 26528.841028 -101.571827
v 22011.275406 26498.029823 -102.386623
v 21589.145325 26431.363156 -110.541667
v 21562.396300 26458.112181 -111.273085
v 21554.639343 26431.363156 -111.485190
v 21561.230505 26454.092062 -111.304963
v 21655.811991 26431.363156 -108.458333
v 21722.478658 26431.363156 -107.416667
v 21789.145325 26431.363156 -106.635417
v 21855.811991 26431.363156 -105.072917
v 21922.478658 26431.363156 -104.031250
v 21989.145325 26431.363156 -104.031250
v 22006.300556 26480.874591 -102.304189
v 22001.677502 26464.932489 -102.789913
v 21991.942721 26431.363156 -103.812703
v 21589.145325 26364.696489 -110.541667
v 21547.409610 26406.432204 -111.682878
v 21535.306658 26364.696489 -111.803510
v 21655.811991 26364.696489 -108.718750
v 21722.478658 26364.696489 -108.197917
v 21789.145325 26364.696489 -106.895833
v 21855.811991 26364.696489 -105.593750
v 21922.478658 26364.696489 -105.072917
v 21989.145325 26421.716637 -104.144295
v 21983.144647 26401.023951 -104.386788
v 21976.327175 26377.514639 -104.662287
v 21972.610037 26364.696489 -104.877091
v 21991.313866 26429.194615 -103.683945
v 21522.478658 26320.460523 -112.276963
v 21522.478658 26298.029823 -112.364583
v 21517.436229 26303.072252 -112.522159
v 21515.973973 26298.029823 -112.542446
v 21589.145325 26298.029823 -110.541667
v 21532.422919 26354.752228 -111.871098
v 21524.164796 26326.274985 -112.208145
v 21655.811991 26298.029823 -109.239583
v 21722.478658 26298.029823 -108.718750
v 21789.145325 26298.029823 -107.677083
v 21855.811991 26298.029823 -106.895833
v 21922.478658 26298.029823 -106.635417
v 21961.340485 26325.834663 -103.403073
v 21953.277352 26298.029823 -104.590191
v 21522.478658 26231.363156 -112.625000
v 21502.449538 26251.392276 -113.094432
v 21505.631941 26262.366447 -112.964546
v 21496.641288 26231.363156 -113.230563
v 21589.145325 26231.363156 -110.802083
v 21655.811991 26231.363156 -110.020833
v 21722.478658 26231.363156 -109.239583
v 21789.145325 26231.363156 -108.718750
v 21855.811991 26231.363156 -108.718750
v 21922.478658 26231.363156 -108.458333
v 21946.353794 26274.154686 -101.319468
v 21946.078938 26273.206874 -101.414099
v 21933.944667 26231.363156 -105.591831
v 21522.478658 26164.696489 -112.885417
v 21487.462848 26199.712300 -113.569319
v 21477.308603 26164.696489 -114.120535
v 21589.145325 26164.696489 -111.322917
v 21655.811991 26164.696489 -110.802083
v 21722.478658 26164.696489 -109.760417
v 21789.145325 26164.696489 -109.500000
v 21855.811991 26164.696489 -110.281250
v 21922.478658 26191.823868 -108.767234
v 21916.380414 26170.794734 -108.955345
v 21914.611982 26164.696489 -109.132813
v 21931.367104 26222.474710 -105.264048
v 21927.546083 26209.298335 -106.770019
v 21522.478658 26098.029823 -113.406250
v 21472.476157 26148.032323 -114.382861
v 21457.619947 26098.029823 -114.926376
v 21468.822311 26135.432429 -114.517717
v 21589.145325 26098.029823 -111.843750
v 21655.811991 26098.029823 -111.322917
v 21722.478658 26098.029823 -110.541667
v 21789.145325 26098.029823 -110.802083
v 21855.811991 26098.029823 -111.843750
v 21901.393723 26119.114758 -109.390982
v 21895.279297 26098.029823 -110.147889
v 21455.811991 26031.363156 -115.750000
v 21441.628777 26045.546370 -116.027016
v 21450.263668 26073.468578 -115.429962
v 21455.811991 26091.993397 -115.039489
v 21437.242645 26031.363156 -116.330292
v 21522.478658 26031.363156 -113.666667
v 21457.203253 26096.638561 -114.941577
v 21589.145325 26031.363156 -112.625000
v 21655.811991 26031.363156 -111.843750
v 21722.478658 26031.363156 -111.322917
v 21789.145325 26031.363156 -112.364583
v 21855.811991 26031.363156 -113.406250
v 21890.480374 26081.481258 -109.836950
v 21886.407033 26067.434781 -109.573024
v 21875.946612 26031.363156 -111.439978
v 21455.811991 25964.696489 -116.270833
v 21425.881921 25994.626559 -116.972319
v 21430.880977 26010.791752 -116.689808
v 21416.626103 25964.696489 -117.495392
v 21522.478658 25964.696489 -114.187500
v 21589.145325 25964.696489 -112.885417
v 21655.811991 25964.696489 -112.364583
v 21722.478658 25964.696489 -112.364583
v 21789.145325 25964.696489 -114.187500
v 21855.811991 25964.696489 -114.187500
v 21871.413496 26015.761652 -110.846628
v 21871.947520 26017.572720 -110.914744
v 21871.427640 26015.808877 -110.848383
v 21856.119093 25964.696489 -114.133517
v 21455.811991 25898.029823 -116.791667
v 21410.135065 25943.706749 -117.862220
v 21411.221739 25947.220671 -117.800809
v 21396.009561 25898.029823 -118.894096
v 21522.478658 25898.029823 -114.708333
v 21589.145325 25898.029823 -113.666667
v 21655.811991 25898.029823 -112.885417
v 21722.478658 25898.029823 -114.447917
v 21789.145325 25898.029823 -116.010417
v 21855.811991 25963.671135 -114.191505
v 21852.336632 25952.067558 -114.236832
v 21851.791521 25950.276618 -114.243828
v 21840.400326 25913.441488 -114.387715
v 21835.634298 25898.029823 -114.920831
v 21856.048313 25964.460168 -114.121958
v 21389.145325 25875.833289 -119.222122
v 21389.145325 25831.363156 -119.395833
v 21378.641353 25841.867128 -119.765114
v 21375.393019 25831.363156 -119.933033
v 21455.811991 25831.363156 -116.791667
v 21394.388209 25892.786938 -118.951097
v 21391.562501 25883.649590 -119.097168
v 21522.478658 25831.363156 -115.229167
v 21589.145325 25831.363156 -114.187500
v 21655.811991 25831.363156 -114.187500
v 21722.478658 25831.363156 -116.010417
v 21789.145325 25831.363156 -116.531250
v 21832.132284 25886.705537 -114.649026
v 21824.653470 25862.521677 -114.068565
v 21815.017756 25831.363156 -114.914223
v 21389.145325 25764.696489 -119.656250
v 21362.894497 25790.947317 -120.579131
v 21371.903263 25820.078509 -120.113432
v 21354.776478 25764.696489 -120.864530
v 21455.811991 25764.696489 -117.052083
v 21522.478658 25764.696489 -116.010417
v 21589.145325 25764.696489 -115.229167
v 21655.811991 25764.696489 -115.489583
v 21722.478658 25764.696489 -117.312500
v 21789.145325 25764.696489 -117.052083
v 21808.906614 25811.601866 -114.061089
v 21794.401214 25764.696489 -116.354036
v 21389.145325 25698.029823 -119.656250
v 21347.147641 25740.027507 -121.132731
v 21352.244026 25756.507428 -120.953561
v 21334.159936 25698.029823 -121.374543
v 21455.811991 25698.029823 -117.572917
v 21522.478658 25698.029823 -116.531250
v 21589.145325 25698.029823 -116.270833
v 21655.811991 25698.029823 -117.052083
v 21722.478658 25698.029823 -118.354167
v 21789.145325 25747.700786 -116.985694
v 21777.412902 25709.762245 -116.883326
v 21773.784672 25698.029823 -117.151682
v 21793.159758 25760.682056 -115.938705
v 21322.478658 25660.256667 -121.739583
v 21322.478658 25631.363156 -121.739583
v 21315.653929 25638.187885 -121.926197
v 21313.543394 25631.363156 -122.018810
v 21389.145325 25631.363156 -119.656250
v 21331.400785 25689.107696 -121.460767
v 21455.811991 25631.363156 -117.833333
v 21522.478658 25631.363156 -117.312500
v 21589.145325 25631.363156 -116.791667
v 21655.811991 25631.363156 -117.833333
v 21722.478658 25631.363156 -118.875000
v 21773.154570 25695.992293 -117.142573
v 21761.666046 25658.842435 -116.976485
v 21753.495332 25632.421212 -117.533986
v 21753.168130 25631.363156 -117.556312
v 21322.478658 25564.696489 -122.000000
v 21299.907072 25587.268075 -122.617192
v 21292.926852 25564.696489 -122.923494
v 21389.145325 25564.696489 -119.916667
v 21455.811991 25564.696489 -118.614583
v 21522.478658 25564.696489 -117.833333
v 21589.145325 25564.696489 -117.572917
v 21655.811991 25564.696489 -119.395833
v 21722.478658 25564.696489 -119.395833
v 21745.919190 25607.922624 -116.036498
v 21732.551588 25564.696489 -118.097370
v 21322.478658 25498.029823 -122.520833
v 21284.160216 25536.348264 -123.418922
v 21272.310310 25498.029823 -124.088594
v 21273.607074 25502.223103 -124.015310
v 21389.145325 25498.029823 -120.437500
v 21455.811991 25498.029823 -119.395833
v 21522.478658 25498.029823 -118.354167
v 21589.145325 25498.029823 -118.875000
v 21655.811991 25498.029823 -120.697917
v 21722.478658 25532.124165 -119.523069
v 21714.425478 25506.083003 -119.624792
v 21711.935047 25498.029823 -119.820994
v 21730.172334 25557.002814 -117.502468
v 21255.811991 25444.680045 -125.020962
v 21255.811991 25431.363156 -125.125000
v 21252.666504 25434.508643 -125.174148
v 21251.693768 25431.363156 -125.269781
v 21322.478658 25431.363156 -122.781250
v 21268.413360 25485.428454 -124.259598
v 21389.145325 25431.363156 -120.958333
v 21455.811991 25431.363156 -119.916667
v 21522.478658 25431.363156 -119.395833
v 21589.145325 25431.363156 -120.697917
v 21655.811991 25431.363156 -121.739583
v 21698.678621 25455.163192 -119.693230
v 21694.517619 25441.707969 -120.066007
v 21691.318505 25431.363156 -120.352610
v 21255.811991 25364.696489 -125.125000
v 21236.919648 25383.588833 -125.789184
v 21231.077226 25364.696489 -126.187822
v 21322.478658 25364.696489 -122.781250
v 21389.145325 25364.696489 -121.218750
v 21455.811991 25364.696489 -120.437500
v 21522.478658 25364.696489 -120.697917
v 21589.145325 25364.696489 -122.520833
v 21655.811991 25364.696489 -122.520833
v 21682.931765 25404.243382 -119.514914
v 21674.858381 25378.136888 -120.577730
v 21670.701963 25364.696489 -121.124899
v 21255.811991 25298.029823 -125.385417
v 21221.172792 25332.669022 -126.738510
v 21210.460684 25298.029823 -127.334106
v 21214.629361 25311.509860 -127.102326
v 21322.478658 25298.029823 -123.302083
v 21389.145325 25298.029823 -122.000000
v 21455.811991 25298.029823 -121.218750
v 21522.478658 25298.029823 -121.739583
v 21589.145325 25298.029823 -123.822917
v 21655.811991 25316.547543 -122.708915
v 21655.199143 25314.565807 -122.716656
v 21651.438053 25302.403761 -122.764164
v 21650.085421 25298.029823 -122.870728
v 21667.184909 25353.323571 -120.255135
v 21255.811991 25231.363156 -125.645833
v 21205.425936 25281.749211 -127.614039
v 21189.844143 25231.363156 -128.222702
v 21322.478658 25231.363156 -123.822917
v 21389.145325 25231.363156 -122.781250
v 21455.811991 25231.363156 -122.000000
v 21522.478658 25231.363156 -123.041667
v 21589.145325 25231.363156 -124.604167
v 21635.691197 25251.483950 -122.186538
v 21635.539905 25250.994725 -122.199363
v 21629.468879 25231.363156 -122.714000
v 21189.145325 25229.103424 -128.267654
v 21189.145325 25164.696489 -128.770833
v 21173.932224 25179.909590 -129.543374
v 21169.227601 25164.696489 -129.937887
v 21255.811991 25164.696489 -126.166667
v 21189.679080 25230.829401 -128.233320
v 21322.478658 25164.696489 -124.604167
v 21389.145325 25164.696489 -123.822917
v 21455.811991 25164.696489 -123.302083
v 21522.478658 25164.696489 -124.604167
v 21589.145325 25164.696489 -124.864583
v 21619.944341 25200.564140 -121.355833
v 21615.880667 25187.423644 -121.851627
v 21608.852337 25164.696489 -122.709129
v 21189.145325 25098.029823 -129.031250
v 21158.185368 25128.989780 -130.724373
v 21148.611059 25098.029823 -131.089631
v 21155.651647 25120.796616 -130.821034
v 21255.811991 25098.029823 -126.427083
v 21322.478658 25098.029823 -125.385417
v 21389.145325 25098.029823 -124.604167
v 21455.811991 25098.029823 -125.125000
v 21522.478658 25098.029823 -126.166667
v 21589.145325 25100.970921 -124.615655
v 21588.450629 25098.724518 -124.604167
v 21588.235795 25098.029823 -124.625484
v 21604.197485 25149.644329 -122.101101
v 21189.145325 25031.363156 -129.812500
v 21142.438512 25078.069969 -131.636985
v 21127.994517 25031.363156 -132.440074
v 21255.811991 25031.363156 -127.468750
v 21322.478658 25031.363156 -125.906250
v 21389.145325 25031.363156 -125.385417
v 21455.811991 25031.363156 -126.427083
v 21522.478658 25031.363156 -126.947917
v 21576.562192 25060.281482 -124.309266
v 21572.703773 25047.804708 -124.204748
v 21567.619254 25031.363156 -124.655621
v 21122.478658 25013.526802 -132.677083
v 21122.478658 24964.696489 -132.677083
v 21110.944799 24976.230348 -133.262787
v 21107.377975 24964.696489 -133.325941
v 21189.145325 24964.696489 -130.333333
v 21126.691655 25027.150159 -132.528970
v 21255.811991 24964.696489 -128.250000
v 21322.478658 24964.696489 -126.947917
v 21389.145325 24964.696489 -126.687500
v 21455.811991 24964.696489 -127.989583
v 21522.478658 24964.696489 -127.468750
v 21556.956917 24996.884897 -122.638134
v 21556.902954 24996.710401 -122.646665
v 21547.002712 24964.696489 -124.211649
v 21122.478658 24898.029823 -132.937500
v 21095.197943 24925.310537 -134.003153
v 21096.673934 24930.083373 -133.921088
v 21086.761433 24898.029823 -134.332704
v 21189.145325 24898.029823 -130.854167
v 21255.811991 24898.029823 -128.510417
v 21322.478658 24898.029823 -127.468750
v 21389.145325 24898.029823 -127.729167
v 21455.811991 24898.029823 -128.770833
v 21522.478658 24898.029823 -126.166667
v 21541.210061 24945.965087 -120.956661
v 21526.386170 24898.029823 -124.884514
v 21122.478658 24831.363156 -133.197917
v 21079.451087 24874.390727 -134.710605
v 21066.144891 24831.363156 -135.618508
v 21189.145325 24831.363156 -130.593750
v 21255.811991 24831.363156 -128.770833
v 21322.478658 24831.363156 -128.250000
v 21389.145325 24831.363156 -129.031250
v 21455.811991 24831.363156 -129.291667
v 21522.478658 24885.394300 -125.722449
v 21517.584478 24869.568239 -125.357243
v 21509.716348 24844.125466 -124.770119
v 21505.769628 24831.363156 -125.193579
v 21525.463204 24895.045276 -124.592785
v 21055.811991 24797.950181 -136.193019
v 21055.811991 24764.696489 -136.322917
v 21047.957375 24772.551106 -136.813830
v 21045.528350 24764.696489 -136.965644
v 21122.478658 24764.696489 -132.937500
v 21063.704231 24823.470916 -135.692551
v 21057.355458 24802.941211 -136.095144
v 21189.145325 24764.696489 -130.593750
v 21255.811991 24764.696489 -129.552083
v 21322.478658 24764.696489 -129.291667
v 21389.145325 24764.696489 -130.072917
v 21455.811991 24764.696489 -129.552083
v 21493.969492 24793.205655 -123.031452
v 21485.153086 24764.696489 -124.623696
v 21055.811991 24698.029823 -135.802083
v 21032.210519 24721.631295 -137.461562
v 21037.696220 24739.370130 -137.257290
v 21024.911808 24698.029823 -137.612641
v 21122.478658 24698.029823 -132.416667
v 21189.145325 24698.029823 -131.114583
v 21255.811991 24698.029823 -130.333333
v 21322.478658 24698.029823 -130.333333
v 21389.145325 24698.029823 -130.854167
v 21455.811991 24698.029823 -128.770833
v 21478.266003 24742.426076 -122.648734
v 21478.222636 24742.285844 -122.636298
v 21464.536544 24698.029823 -126.180732
v 21055.811991 24631.363156 -135.281250
v 21016.463663 24670.711485 -137.894225
v 21018.036982 24675.799048 -137.841785
v 21004.295266 24631.363156 -138.702283
v 21122.478658 24631.363156 -132.416667
v 21189.145325 24631.363156 -131.375000
v 21255.811991 24631.363156 -130.593750
v 21322.478658 24631.363156 -130.854167
v 21389.145325 24631.363156 -131.375000
v 21455.811991 24669.817678 -128.109611
v 21446.728924 24640.446223 -127.705064
v 21443.920002 24631.363156 -127.951583
v 21462.475780 24691.366034 -125.464969
v 20989.145325 24582.373559 -139.708333
v 20989.145325 24564.696489 -139.708333
v 20984.969951 24568.871863 -139.952984
v 20983.678724 24564.696489 -140.007288
v 21055.811991 24564.696489 -136.322917
v 21000.716807 24619.791674 -139.120719
v 21122.478658 24564.696489 -133.458333
v 21189.145325 24564.696489 -131.635417
v 21255.811991 24564.696489 -130.854167
v 21322.478658 24564.696489 -131.895833
v 21389.145325 24564.696489 -131.635417
v 21438.947527 24615.283914 -126.503695
v 21430.982068 24589.526413 -124.184310
v 21423.303461 24564.696489 -125.631057
v 20989.145325 24498.029823 -139.187500
v 20969.223094 24517.952053 -140.432639
v 20978.718507 24548.656886 -140.153241
v 20963.062182 24498.029823 -140.715809
v 21055.811991 24498.029823 -136.062500
v 21122.478658 24498.029823 -133.718750
v 21189.145325 24498.029823 -132.156250
v 21255.811991 24498.029823 -131.895833
v 21322.478658 24498.029823 -133.458333
v 21389.145325 24498.029823 -130.854167
v 21415.235212 24538.606602 -122.565104
v 21402.686919 24498.029823 -126.305037
v 20989.145325 24431.363156 -139.447917
v 20953.476238 24467.032242 -141.398570
v 20959.059269 24485.085805 -141.000917
v 20942.445640 24431.363156 -142.001806
v 21055.811991 24431.363156 -136.322917
v 21122.478658 24431.363156 -134.239583
v 21189.145325 24431.363156 -132.937500
v 21255.811991 24431.363156 -133.458333
v 21322.478658 24431.363156 -134.500000
v 21389.145325 24454.241056 -128.459469
v 21383.741500 24436.766981 -127.714942
v 21382.070377 24431.363156 -127.982156
v 21399.488356 24487.686792 -124.915004
v 20922.478658 24366.796937 -143.093750
v 20922.478658 24364.696489 -143.093750
v 20921.982526 24365.192621 -143.126696
v 20921.829098 24364.696489 -143.129273
v 20989.145325 24364.696489 -139.708333
v 20937.729382 24416.112432 -142.319299
v 21055.811991 24364.696489 -136.583333
v 21122.478658 24364.696489 -134.760417
v 21189.145325 24364.696489 -134.239583
v 21255.811991 24364.696489 -135.020833
v 21322.478658 24364.696489 -133.718750
v 21379.969813 24424.570671 -127.548576
v 21367.994643 24385.847170 -125.076769
v 21361.453835 24364.696489 -126.106411
v 20922.478658 24298.029823 -142.833333
v 20906.235670 24314.272811 -143.785071
v 20919.740793 24357.943643 -143.217099
v 20901.212557 24298.029823 -143.996323
v 20989.145325 24298.029823 -139.187500
v 21055.811991 24298.029823 -136.843750
v 21122.478658 24298.029823 -135.541667
v 21189.145325 24298.029823 -135.541667
v 21255.811991 24298.029823 -136.062500
v 21322.478658 24298.029823 -132.937500
v 21352.247787 24334.927360 -123.485612
v 21340.837293 24298.029823 -126.841859
v 20922.478658 24231.363156 -142.312500
v 20890.488814 24263.353000 -144.311865
v 20900.081555 24294.372562 -144.029603
v 20880.515610 24231.363156 -144.771272
v 20881.348751 24233.797241 -144.731964
v 20989.145325 24231.363156 -139.187500
v 21055.811991 24231.363156 -137.104167
v 21122.478658 24231.363156 -136.322917
v 21189.145325 24231.363156 -136.843750
v 21255.811991 24231.363156 -137.364583
v 21322.478658 24238.664435 -129.922851
v 21320.992100 24233.857427 -129.748428
v 21320.754075 24233.087739 -129.720500
v 21320.220751 24231.363156 -129.816682
v 21336.500931 24284.007549 -124.995197
v 20922.478658 24164.696489 -142.312500
v 20874.216202 24212.958945 -145.140378
v 20856.324753 24164.696489 -145.930292
v 20863.316186 24181.113697 -145.612077
v 20989.145325 24164.696489 -139.447917
v 21055.811991 24164.696489 -137.625000
v 21122.478658 24164.696489 -137.364583
v 21189.145325 24164.696489 -137.885417
v 21255.811991 24164.696489 -137.364583
v 21305.007219 24182.167928 -125.834452
v 21301.332862 24170.286346 -126.695629
v 21299.604209 24164.696489 -127.100782
vt 110.612393 -141.823482
vt 110.587361 -141.848515
vt 110.589595 -141.856205
vt 110.612393 -141.934694
vt 110.580090 -141.823482
vt 110.612393 -141.490149
vt 110.512331 -141.590211
vt 110.483266 -141.490149
vt 110.612393 -141.156816
vt 110.437302 -141.331907
vt 110.386443 -141.156816
vt 110.612393 -140.823482
vt 110.362272 -141.073604
vt 110.289619 -140.823482
vt 110.311178 -140.897700
vt 110.279060 -140.787129
vt 110.279060 -140.490149
vt 110.212213 -140.556996
vt 110.192796 -140.490149
vt 110.612393 -140.490149
vt 110.287243 -140.815300
vt 110.279060 -140.156816
vt 110.137184 -140.298692
vt 110.095973 -140.156816
vt 110.125566 -140.258697
vt 110.612393 -140.156816
vt 110.279060 -139.823482
vt 110.062154 -140.040388
vt 109.999149 -139.823482
vt 110.612393 -139.823482
vt 109.945727 -139.639564
vt 109.945727 -139.490149
vt 109.912095 -139.523781
vt 109.902326 -139.490149
vt 110.279060 -139.490149
vt 109.987124 -139.782085
vt 110.612393 -139.490149
vt 109.945727 -139.156816
vt 109.837065 -139.265477
vt 109.847149 -139.300192
vt 109.805503 -139.156816
vt 110.279060 -139.156816
vt 110.612393 -139.156816
vt 109.945727 -138.823482
vt 109.762036 -139.007173
vt 109.708679 -138.823482
vt 110.279060 -138.823482
vt 110.612393 -138.823482
vt 109.612393 -138.492000
vt 109.612393 -138.490149
vt 109.611977 -138.490566
vt 109.611856 -138.490149
vt 109.945727 -138.490149
vt 109.687006 -138.748869
vt 109.661538 -138.661189
vt 110.279060 -138.490149
vt 110.612393 -138.490149
vt 109.612393 -138.156816
vt 109.536947 -138.232262
vt 109.568732 -138.341687
vt 109.515032 -138.156816
vt 109.945727 -138.156816
vt 110.279060 -138.156816
vt 110.612393 -138.156816
vt 109.612393 -137.823482
vt 109.461918 -137.973958
vt 109.475926 -138.022185
vt 109.418209 -137.823482
vt 109.945727 -137.823482
vt 110.279060 -137.823482
vt 110.612393 -137.823482
vt 109.612393 -137.490149
vt 109.386888 -137.715654
vt 109.321386 -137.490149
vt 109.383121 -137.702684
vt 109.945727 -137.490149
vt 110.279060 -137.490149
vt 110.612393 -137.490149
vt 109.279060 -137.344435
vt 109.279060 -137.156816
vt 109.236829 -137.199047
vt 109.224562 -137.156816
vt 109.612393 -137.156816
vt 109.311859 -137.457350
vt 109.290315 -137.383182
vt 109.945727 -137.156816
vt 110.279060 -137.156816
vt 110.612393 -137.156816
vt 109.279060 -136.823482
vt 109.161800 -136.940743
vt 109.197509 -137.063680
vt 109.127739 -136.823482
vt 109.612393 -136.823482
vt 109.945727 -136.823482
vt 110.279060 -136.823482
vt 110.612393 -136.823482
vt 109.279060 -136.490149
vt 109.086770 -136.682439
vt 109.104704 -136.744179
vt 109.030915 -136.490149
vt 109.612393 -136.490149
vt 109.945727 -136.490149
vt 110.279060 -136.490149
vt 110.612393 -136.490149
vt 108.945727 -136.196870
vt 108.945727 -136.156816
vt 108.936711 -136.165832
vt 108.934092 -136.156816
vt 109.279060 -136.156816
vt 109.011740 -136.424135
vt 109.011898 -136.424677
vt 109.612393 -136.156816
vt 109.945727 -136.156816
vt 110.279060 -136.156816
vt 110.612393 -136.156816
vt 108.945727 -135.823482
vt 108.861681 -135.907528
vt 108.919092 -136.105175
vt 108.837269 -135.823482
vt 109.279060 -135.823482
vt 109.612393 -135.823482
vt 109.945727 -135.823482
vt 110.279060 -135.823482
vt 110.612393 -135.823482
vt 108.945727 -135.490149
vt 108.786652 -135.649224
vt 108.826286 -135.785674
vt 108.740445 -135.490149
vt 109.279060 -135.490149
vt 109.612393 -135.490149
vt 109.945727 -135.490149
vt 110.279060 -135.490149
vt 110.612393 -135.490149
vt 108.945727 -135.156816
vt 108.711622 -135.390920
vt 108.733481 -135.466172
vt 108.643622 -135.156816
vt 109.279060 -135.156816
vt 109.612393 -135.156816
vt 109.945727 -135.156816
vt 110.279060 -135.156816
vt 110.612393 -135.156816
vt 108.612393 -135.049305
vt 108.612393 -134.823482
vt 108.561563 -134.874313
vt 108.546799 -134.823482
vt 108.547869 -134.827169
vt 108.945727 -134.823482
vt 108.636593 -135.132616
vt 108.640675 -135.146671
vt 109.279060 -134.823482
vt 109.612393 -134.823482
vt 109.945727 -134.823482
vt 110.279060 -134.823482
vt 110.612393 -134.823482
vt 108.612393 -134.490149
vt 108.486534 -134.616009
vt 108.449976 -134.490149
vt 108.455064 -134.507667
vt 108.945727 -134.490149
vt 109.279060 -134.490149
vt 109.612393 -134.490149
vt 109.945727 -134.490149
vt 110.279060 -134.490149
vt 110.612393 -134.490149
vt 108.612393 -134.156816
vt 108.411508 -134.357701
vt 108.353177 -134.156816
vt 108.362259 -134.188132
vt 108.945727 -134.156816
vt 109.279060 -134.156816
vt 109.612393 -134.156816
vt 109.945727 -134.156816
vt 110.279060 -134.156816
vt 110.612393 -134.406217
vt 110.564517 -134.241393
vt 110.556256 -134.212953
vt 110.539950 -134.156816
vt 108.279060 -133.901230
vt 108.279060 -133.823482
vt 108.261582 -133.840960
vt 108.269474 -133.868174
vt 108.256514 -133.823482
vt 108.612393 -133.823482
vt 108.336516 -134.099360
vt 108.945727 -133.823482
vt 109.279060 -133.823482
vt 109.612393 -133.823482
vt 109.945727 -133.823482
vt 110.279060 -133.823482
vt 110.481226 -133.954649
vt 110.471715 -133.921907
vt 110.443129 -133.823482
vt 108.279060 -133.490149
vt 108.186649 -133.582560
vt 108.159850 -133.490149
vt 108.176810 -133.548631
vt 108.612393 -133.490149
vt 108.945727 -133.490149
vt 109.279060 -133.490149
vt 109.612393 -133.490149
vt 109.945727 -133.490149
vt 110.279060 -133.490149
vt 110.406203 -133.696340
vt 110.378984 -133.602625
vt 110.346367 -133.490149
vt 108.279060 -133.156816
vt 108.111715 -133.324160
vt 108.063187 -133.156816
vt 108.612393 -133.156816
vt 108.945727 -133.156816
vt 109.279060 -133.156816
vt 109.612393 -133.156816
vt 109.945727 -133.156816
vt 110.279060 -133.258047
vt 110.256303 -133.179573
vt 110.249704 -133.156816
vt 110.331237 -133.437972
vt 110.286380 -133.283291
vt 108.279060 -132.823482
vt 108.036782 -133.065761
vt 107.966524 -132.823482
vt 107.991481 -132.909546
vt 108.612393 -132.823482
vt 108.945727 -132.823482
vt 109.279060 -132.823482
vt 109.612393 -132.823482
vt 109.945727 -132.823482
vt 110.181370 -132.921173
vt 110.153040 -132.823482
vt 107.945727 -132.751766
vt 107.945727 -132.490149
vt 107.886915 -132.548961
vt 107.869860 -132.490149
vt 108.279060 -132.490149
vt 107.961848 -132.807361
vt 108.612393 -132.490149
vt 108.945727 -132.490149
vt 109.279060 -132.490149
vt 109.612393 -132.490149
vt 109.945727 -132.490149
vt 110.106436 -132.662773
vt 110.101052 -132.644205
vt 110.056377 -132.490149
vt 107.945727 -132.156816
vt 107.811981 -132.290561
vt 107.773197 -132.156816
vt 107.806153 -132.270460
vt 108.279060 -132.156816
vt 108.612393 -132.156816
vt 108.945727 -132.156816
vt 109.279060 -132.156816
vt 109.612393 -132.156816
vt 109.945727 -132.156816
vt 110.031503 -132.404373
vt 110.008388 -132.324662
vt 109.959714 -132.156816
vt 107.945727 -131.823482
vt 107.737048 -132.032161
vt 107.676533 -131.823482
vt 108.279060 -131.823482
vt 108.612393 -131.823482
vt 108.945727 -131.823482
vt 109.279060 -131.823482
vt 109.612393 -131.823482
vt 109.945727 -132.108583
vt 109.915723 -132.005120
vt 109.881636 -131.887573
vt 109.863050 -131.823482
vt 109.956569 -132.145973
vt 107.612393 -131.602303
vt 107.612393 -131.490149
vt 107.587181 -131.515361
vt 107.579870 -131.490149
vt 107.945727 -131.490149
vt 107.662115 -131.773761
vt 107.620824 -131.631375
vt 108.279060 -131.490149
vt 108.612393 -131.490149
vt 108.945727 -131.490149
vt 109.279060 -131.490149
vt 109.612393 -131.490149
vt 109.806702 -131.629173
vt 109.766387 -131.490149
vt 107.612393 -131.156816
vt 107.512248 -131.256961
vt 107.528160 -131.311832
vt 107.483206 -131.156816
vt 107.945727 -131.156816
vt 108.279060 -131.156816
vt 108.612393 -131.156816
vt 108.945727 -131.156816
vt 109.279060 -131.156816
vt 109.612393 -131.156816
vt 109.731769 -131.370773
vt 109.730395 -131.366034
vt 109.669723 -131.156816
vt 107.612393 -130.823482
vt 107.437314 -130.998561
vt 107.386543 -130.823482
vt 107.945727 -130.823482
vt 108.279060 -130.823482
vt 108.612393 -130.823482
vt 108.945727 -130.823482
vt 109.279060 -130.823482
vt 109.612393 -130.959119
vt 109.581902 -130.853974
vt 109.573060 -130.823482
vt 109.656836 -131.112374
vt 109.637730 -131.046492
vt 107.612393 -130.490149
vt 107.362381 -130.740162
vt 107.288100 -130.490149
vt 107.344112 -130.677162
vt 107.945727 -130.490149
vt 108.279060 -130.490149
vt 108.612393 -130.490149
vt 108.945727 -130.490149
vt 109.279060 -130.490149
vt 109.506969 -130.595574
vt 109.476396 -130.490149
vt 107.279060 -130.156816
vt 107.208144 -130.227732
vt 107.251318 -130.367343
vt 107.279060 -130.459967
vt 107.186213 -130.156816
vt 107.612393 -130.156816
vt 107.286016 -130.483193
vt 107.945727 -130.156816
vt 108.279060 -130.156816
vt 108.612393 -130.156816
vt 108.945727 -130.156816
vt 109.279060 -130.156816
vt 109.452402 -130.407406
vt 109.432035 -130.337174
vt 109.379733 -130.156816
vt 107.279060 -129.823482
vt 107.129410 -129.973133
vt 107.154405 -130.053959
vt 107.083131 -129.823482
vt 107.612393 -129.823482
vt 107.945727 -129.823482
vt 108.279060 -129.823482
vt 108.612393 -129.823482
vt 108.945727 -129.823482
vt 109.279060 -129.823482
vt 109.357067 -130.078808
vt 109.359738 -130.087864
vt 109.357138 -130.079044
vt 109.280595 -129.823482
vt 107.279060 -129.490149
vt 107.050675 -129.718534
vt 107.056109 -129.736103
vt 106.980048 -129.490149
vt 107.612393 -129.490149
vt 107.945727 -129.490149
vt 108.279060 -129.490149
vt 108.612393 -129.490149
vt 108.945727 -129.490149
vt 109.279060 -129.818356
vt 109.261683 -129.760338
vt 109.258958 -129.751383
vt 109.202002 -129.567207
vt 109.178171 -129.490149
vt 109.280242 -129.822301
vt 106.945727 -129.379166
vt 106.945727 -129.156816
vt 106.893207 -129.209336
vt 106.876965 -129.156816
vt 107.279060 -129.156816
vt 106.971941 -129.463935
vt 106.957813 -129.418248
vt 107.612393 -129.156816
vt 107.945727 -129.156816
vt 108.279060 -129.156816
vt 108.612393 -129.156816
vt 108.945727 -129.156816
vt 109.160661 -129.433528
vt 109.123267 -129.312608
vt 109.075089 -129.156816
vt 106.945727 -128.823482
vt 106.814472 -128.954737
vt 106.859516 -129.100393
vt 106.773882 -128.823482
vt 107.279060 -128.823482
vt 107.612393 -128.823482
vt 107.945727 -128.823482
vt 108.279060 -128.823482
vt 108.612393 -128.823482
vt 108.945727 -128.823482
vt 109.044533 -129.058009
vt 108.972006 -128.823482
vt 106.945727 -128.490149
vt 106.735738 -128.700138
vt 106.761220 -128.782537
vt 106.670800 -128.490149
vt 107.279060 -128.490149
vt 107.612393 -128.490149
vt 107.945727 -128.490149
vt 108.279060 -128.490149
vt 108.612393 -128.490149
vt 108.945727 -128.738504
vt 108.887065 -128.548811
vt 108.868923 -128.490149
vt 108.965799 -128.803410
vt 106.612393 -128.301283
vt 106.612393 -128.156816
vt 106.578270 -128.190939
vt 106.567717 -128.156816
vt 106.945727 -128.156816
vt 106.657004 -128.445538
vt 107.279060 -128.156816
vt 107.612393 -128.156816
vt 107.945727 -128.156816
vt 108.279060 -128.156816
vt 108.612393 -128.156816
vt 108.865773 -128.479961
vt 108.808330 -128.294212
vt 108.767477 -128.162106
vt 108.765841 -128.156816
vt 106.612393 -127.823482
vt 106.499535 -127.936340
vt 106.464634 -127.823482
vt 106.945727 -127.823482
vt 107.279060 -127.823482
vt 107.612393 -127.823482
vt 107.945727 -127.823482
vt 108.279060 -127.823482
vt 108.612393 -127.823482
vt 108.729596 -128.039613
vt 108.662758 -127.823482
vt 106.612393 -127.490149
vt 106.420801 -127.681741
vt 106.361552 -127.490149
vt 106.368035 -127.511116
vt 106.945727 -127.490149
vt 107.279060 -127.490149
vt 107.612393 -127.490149
vt 107.945727 -127.490149
vt 108.279060 -127.490149
vt 108.612393 -127.660621
vt 108.572127 -127.530415
vt 108.559675 -127.490149
vt 108.650862 -127.785014
vt 106.279060 -127.223400
vt 106.279060 -127.156816
vt 106.263333 -127.172543
vt 106.258469 -127.156816
vt 106.612393 -127.156816
vt 106.342067 -127.427142
vt 106.945727 -127.156816
vt 107.279060 -127.156816
vt 107.612393 -127.156816
vt 107.945727 -127.156816
vt 108.279060 -127.156816
vt 108.493393 -127.275816
vt 108.472588 -127.208540
vt 108.456593 -127.156816
vt 106.279060 -126.823482
vt 106.184598 -126.917944
vt 106.155386 -126.823482
vt 106.612393 -126.823482
vt 106.945727 -126.823482
vt 107.279060 -126.823482
vt 107.612393 -126.823482
vt 107.945727 -126.823482
vt 108.279060 -126.823482
vt 108.414659 -127.021217
vt 108.374292 -126.890684
vt 108.353510 -126.823482
vt 106.279060 -126.490149
vt 106.105864 -126.663345
vt 106.052303 -126.490149
vt 106.073147 -126.557549
vt 106.612393 -126.490149
vt 106.945727 -126.490149
vt 107.279060 -126.490149
vt 107.612393 -126.490149
vt 107.945727 -126.490149
vt 108.279060 -126.582738
vt 108.275996 -126.572829
vt 108.257190 -126.512019
vt 108.250427 -126.490149
vt 108.335925 -126.766618
vt 106.279060 -126.156816
vt 106.027130 -126.408746
vt 105.949221 -126.156816
vt 106.612393 -126.156816
vt 106.945727 -126.156816
vt 107.279060 -126.156816
vt 107.612393 -126.156816
vt 107.945727 -126.156816
vt 108.178456 -126.257420
vt 108.177700 -126.254974
vt 108.147344 -126.156816
vt 105.945727 -126.145517
vt 105.945727 -125.823482
vt 105.869661 -125.899548
vt 105.846138 -125.823482
vt 106.279060 -125.823482
vt 105.948395 -126.154147
vt 106.612393 -125.823482
vt 106.945727 -125.823482
vt 107.279060 -125.823482
vt 107.612393 -125.823482
vt 107.945727 -125.823482
vt 108.099722 -126.002821
vt 108.079403 -125.937118
vt 108.044262 -125.823482
vt 105.945727 -125.490149
vt 105.790927 -125.644949
vt 105.743055 -125.490149
vt 105.778258 -125.603983
vt 106.279060 -125.490149
vt 106.612393 -125.490149
vt 106.945727 -125.490149
vt 107.279060 -125.490149
vt 107.612393 -125.490149
vt 107.945727 -125.504855
vt 107.942253 -125.493623
vt 107.941179 -125.490149
vt 108.020987 -125.748222
vt 105.945727 -125.156816
vt 105.712193 -125.390350
vt 105.639973 -125.156816
vt 106.279060 -125.156816
vt 106.612393 -125.156816
vt 106.945727 -125.156816
vt 107.279060 -125.156816
vt 107.612393 -125.156816
vt 107.882811 -125.301407
vt 107.863519 -125.239024
vt 107.838096 -125.156816
vt 105.612393 -125.067634
vt 105.612393 -124.823482
vt 105.554724 -124.881152
vt 105.536890 -124.823482
vt 105.945727 -124.823482
vt 105.633458 -125.135751
vt 106.279060 -124.823482
vt 106.612393 -124.823482
vt 106.945727 -124.823482
vt 107.279060 -124.823482
vt 107.612393 -124.823482
vt 107.784785 -124.984424
vt 107.784515 -124.983552
vt 107.735014 -124.823482
vt 105.612393 -124.490149
vt 105.475990 -124.626553
vt 105.483370 -124.650417
vt 105.433807 -124.490149
vt 105.945727 -124.490149
vt 106.279060 -124.490149
vt 106.612393 -124.490149
vt 106.945727 -124.490149
vt 107.279060 -124.490149
vt 107.612393 -124.490149
vt 107.706050 -124.729825
vt 107.631931 -124.490149
vt 105.612393 -124.156816
vt 105.397255 -124.371954
vt 105.330724 -124.156816
vt 105.945727 -124.156816
vt 106.279060 -124.156816
vt 106.612393 -124.156816
vt 106.945727 -124.156816
vt 107.279060 -124.156816
vt 107.612393 -124.426971
vt 107.587922 -124.347841
vt 107.548582 -124.220627
vt 107.528848 -124.156816
vt 107.627316 -124.475226
vt 105.279060 -123.989751
vt 105.279060 -123.823482
vt 105.239787 -123.862756
vt 105.227642 -123.823482
vt 105.612393 -123.823482
vt 105.318521 -124.117355
vt 105.286777 -124.014706
vt 105.945727 -123.823482
vt 106.279060 -123.823482
vt 106.612393 -123.823482
vt 106.945727 -123.823482
vt 107.279060 -123.823482
vt 107.469847 -123.966028
vt 107.425765 -123.823482
vt 105.279060 -123.490149
vt 105.161053 -123.608156
vt 105.188481 -123.696851
vt 105.124559 -123.490149
vt 105.612393 -123.490149
vt 105.945727 -123.490149
vt 106.279060 -123.490149
vt 106.612393 -123.490149
vt 106.945727 -123.490149
vt 107.279060 -123.490149
vt 107.391330 -123.712130
vt 107.391113 -123.711429
vt 107.322683 -123.490149
vt 105.279060 -123.156816
vt 105.082318 -123.353557
vt 105.090185 -123.378995
vt 105.021476 -123.156816
vt 105.612393 -123.156816
vt 105.945727 -123.156816
vt 106.279060 -123.156816
vt 106.612393 -123.156816
vt 106.945727 -123.156816
vt 107.279060 -123.349088
vt 107.233645 -123.202231
vt 107.219600 -123.156816
vt 107.312379 -123.456830
vt 104.945727 -122.911868
vt 104.945727 -122.823482
vt 104.924850 -122.844359
vt 104.918394 -122.823482
vt 105.279060 -122.823482
vt 105.003584 -123.098958
vt 105.612393 -122.823482
vt 105.945727 -122.823482
vt 106.279060 -122.823482
vt 106.612393 -122.823482
vt 106.945727 -122.823482
vt 107.194738 -123.076420
vt 107.154910 -122.947632
vt 107.116517 -122.823482
vt 104.945727 -122.490149
vt 104.846115 -122.589760
vt 104.893593 -122.743284
vt 104.815311 -122.490149
vt 105.279060 -122.490149
vt 105.612393 -122.490149
vt 105.945727 -122.490149
vt 106.279060 -122.490149
vt 106.612393 -122.490149
vt 106.945727 -122.490149
vt 107.076176 -122.693033
vt 107.013435 -122.490149
vt 104.945727 -122.156816
vt 104.767381 -122.335161
vt 104.795296 -122.425429
vt 104.712228 -122.156816
vt 105.279060 -122.156816
vt 105.612393 -122.156816
vt 105.945727 -122.156816
vt 106.279060 -122.156816
vt 106.612393 -122.156816
vt 106.945727 -122.271205
vt 106.918707 -122.183835
vt 106.910352 -122.156816
vt 106.997442 -122.438434
vt 104.612393 -121.833985
vt 104.612393 -121.823482
vt 104.609913 -121.825963
vt 104.609145 -121.823482
vt 104.945727 -121.823482
vt 104.688647 -122.080562
vt 105.279060 -121.823482
vt 105.612393 -121.823482
vt 105.945727 -121.823482
vt 106.279060 -121.823482
vt 106.612393 -121.823482
vt 106.899849 -122.122853
vt 106.839973 -121.929236
vt 106.807269 -121.823482
vt 104.612393 -121.490149
vt 104.531178 -121.571364
vt 104.598704 -121.789718
vt 104.506063 -121.490149
vt 104.945727 -121.490149
vt 105.279060 -121.490149
vt 105.612393 -121.490149
vt 105.945727 -121.490149
vt 106.279060 -121.490149
vt 106.612393 -121.490149
vt 106.761239 -121.674637
vt 106.704186 -121.490149
vt 104.612393 -121.156816
vt 104.452444 -121.316765
vt 104.500408 -121.471863
vt 104.402578 -121.156816
vt 104.406744 -121.168986
vt 104.945727 -121.156816
vt 105.279060 -121.156816
vt 105.612393 -121.156816
vt 105.945727 -121.156816
vt 106.279060 -121.156816
vt 106.612393 -121.193322
vt 106.604960 -121.169287
vt 106.603770 -121.165439
vt 106.601104 -121.156816
vt 106.682505 -121.420038
vt 104.612393 -120.823482
vt 104.371081 -121.064795
vt 104.281624 -120.823482
vt 104.316581 -120.905568
vt 104.945727 -120.823482
vt 105.279060 -120.823482
vt 105.612393 -120.823482
vt 105.945727 -120.823482
vt 106.279060 -120.823482
vt 106.525036 -120.910840
vt 106.506664 -120.851432
vt 106.498021 -120.823482
f 3/3 2/2 1/1
f 4/4 3/3 1/1
f 5/5 1/1 2/2
f 7/7 6/6 1/1
f 5/5 7/7 1/1
f 8/8 6/6 7/7
f 10/10 9/9 6/6
f 8/8 10/10 6/6
f 11/11 9/9 10/10
f 13/13 12/12 9/9
f 11/11 13/13 9/9
f 15/15 14/14 12/12
f 13/13 15/15 12/12
f 18/18 17/17 16/16
f 19/19 17/17 18/18
f 21/21 20/20 12/12
f 14/14 21/21 12/12
f 16/16 17/17 20/20
f 21/21 16/16 20/20
f 23/23 22/22 17/17
f 19/19 23/23 17/17
f 25/25 24/24 22/22
f 23/23 25/25 22/22
f 17/17 26/26 20/20
f 17/17 22/22 26/26
f 28/28 27/27 22/22
f 24/24 28/28 22/22
f 29/29 27/27 28/28
f 22/22 30/30 26/26
f 22/22 27/27 30/30
f 33/33 32/32 31/31
f 34/34 32/32 33/33
f 36/36 35/35 27/27
f 29/29 36/36 27/27
f 31/31 32/32 35/35
f 36/36 31/31 35/35
f 27/27 37/37 30/30
f 27/27 35/35 37/37
f 39/39 38/38 32/32
f 40/40 39/39 32/32
f 34/34 40/40 32/32
f 41/41 38/38 39/39
f 32/32 42/42 35/35
f 32/32 38/38 42/42
f 35/35 43/43 37/37
f 35/35 42/42 43/43
f 45/45 44/44 38/38
f 41/41 45/45 38/38
f 46/46 44/44 45/45
f 38/38 47/47 42/42
f 38/38 44/44 47/47
f 42/42 48/48 43/43
f 42/42 47/47 48/48
f 51/51 50/50 49/49
f 52/52 50/50 51/51
f 54/54 53/53 44/44
f 46/46 54/54 44/44
f 49/49 50/50 53/53
f 55/55 49/49 53/53
f 54/54 55/55 53/53
f 44/44 56/56 47/47
f 44/44 53/53 56/56
f 47/47 57/57 48/48
f 47/47 56/56 57/57
f 59/59 58/58 50/50
f 60/60 59/59 50/50
f 52/52 60/60 50/50
f 61/61 58/58 59/59
f 50/50 62/62 53/53
f 50/50 58/58 62/62
f 53/53 63/63 56/56
f 53/53 62/62 63/63
f 56/56 64/64 57/57
f 56/56 63/63 64/64
f 66/66 65/65 58/58
f 67/67 66/66 58/58
f 61/61 67/67 58/58
f 68/68 65/65 66/66
f 58/58 69/69 62/62
f 58/58 65/65 69/69
f 62/62 70/70 63/63
f 62/62 69/69 70/70
f 63/63 71/71 64/64
f 63/63 70/70 71/71
f 73/73 72/72 65/65
f 68/68 73/73 65/65
f 75/75 74/74 72/72
f 73/73 75/75 72/72
f 65/65 76/76 69/69
f 65/65 72/72 76/76
f 69/69 77/77 70/70
f 69/69 76/76 77/77
f 70/70 78/78 71/71
f 70/70 77/77 78/78
f 81/81 80/80 79/79
f 82/82 80/80 81/81
f 84/84 83/83 72/72
f 74/74 84/84 72/72
f 79/79 80/80 83/83
f 85/85 79/79 83/83
f 84/84 85/85 83/83
f 72/72 86/86 76/76
f 72/72 83/83 86/86
f 76/76 87/87 77/77
f 76/76 86/86 87/87
f 77/77 88/88 78/78
f 77/77 87/87 88/88
f 90/90 89/89 80/80
f 91/91 90/90 80/80
f 82/82 91/91 80/80
f 92/92 89/89 90/90
f 80/80 93/93 83/83
f 80/80 89/89 93/93
f 83/83 94/94 86/86
f 83/83 93/93 94/94
f 86/86 95/95 87/87
f 86/86 94/94 95/95
f 87/87 96/96 88/88
f 87/87 95/95 96/96
f 98/98 97/97 89/89
f 99/99 98/98 89/89
f 92/92 99/99 89/89
f 100/100 97/97 98/98
f 89/89 101/101 93/93
f 89/89 97/97 101/101
f 93/93 102/102 94/94
f 93/93 101/101 102/102
f 94/94 103/103 95/95
f 94/94 102/102 103/103
f 95/95 104/104 96/96
f 95/95 103/103 104/104
f 107/107 106/106 105/105
f 108/108 106/106 107/107
f 110/110 109/109 97/97
f 111/111 110/110 97/97
f 100/100 111/111 97/97
f 105/105 106/106 109/109
f 110/110 105/105 109/109
f 97/97 112/112 101/101
f 97/97 109/109 112/112
f 101/101 113/113 102/102
f 101/101 112/112 113/113
f 102/102 114/114 103/103
f 102/102 113/113 114/114
f 103/103 115/115 104/104
f 103/103 114/114 115/115
f 117/117 116/116 106/106
f 118/118 117/117 106/106
f 108/108 118/118 106/106
f 119/119 116/116 117/117
f 106/106 120/120 109/109
f 106/106 116/116 120/120
f 109/109 121/121 112/112
f 109/109 120/120 121/121
f 112/112 122/122 113/113
f 112/112 121/121 122/122
f 113/113 123/123 114/114
f 113/113 122/122 123/123
f 114/114 124/124 115/115
f 114/114 123/123 124/124
f 126/126 125/125 116/116
f 127/127 126/126 116/116
f 119/119 127/127 116/116
f 128/128 125/125 126/126
f 116/116 129/129 120/120
f 116/116 125/125 129/129
f 120/120 130/130 121/121
f 120/120 129/129 130/130
f 121/121 131/131 122/122
f 121/121 130/130 131/131
f 122/122 132/132 123/123
f 122/122 131/131 132/132
f 123/123 133/133 124/124
f 123/123 132/132 133/133
f 135/135 134/134 125/125
f 136/136 135/135 125/125
f 128/128 136/136 125/125
f 137/137 134/134 135/135
f 125/125 138/138 129/129
f 125/125 134/134 138/138
f 129/129 139/139 130/130
f 129/129 138/138 139/139
f 130/130 140/140 131/131
f 130/130 139/139 140/140
f 131/131 141/141 132/132
f 131/131 140/140 141/141
f 132/132 142/142 133/133
f 132/132 141/141 142/142
f 145/145 144/144 143/143
f 147/147 146/146 144/144
f 145/145 147/147 144/144
f 149/149 148/148 134/134
f 150/150 149/149 134/134
f 137/137 150/150 134/134
f 143/143 144/144 148/148
f 149/149 143/143 148/148
f 134/134 151/151 138/138
f 134/134 148/148 151/151
f 138/138 152/152 139/139
f 138/138 151/151 152/152
f 139/139 153/153 140/140
f 139/139 152/152 153/153
f 140/140 154/154 141/141
f 140/140 153/153 154/154
f 141/141 155/155 142/142
f 141/141 154/154 155/155
f 157/157 156/156 144/144
f 146/146 157/157 144/144
f 158/158 156/156 157/157
f 159/159 158/158 157/157
f 144/144 160/160 148/148
f 144/144 156/156 160/160
f 148/148 161/161 151/151
f 148/148 160/160 161/161
f 151/151 162/162 152/152
f 151/151 161/161 162/162
f 152/152 163/163 153/153
f 152/152 162/162 163/163
f 153/153 164/164 154/154
f 153/153 163/163 164/164
f 154/154 165/165 155/155
f 154/154 164/164 165/165
f 167/167 166/166 156/156
f 158/158 167/167 156/156
f 168/168 166/166 167/167
f 169/169 168/168 167/167
f 156/156 170/170 160/160
f 156/156 166/166 170/170
f 160/160 171/171 161/161
f 160/160 170/170 171/171
f 161/161 172/172 162/162
f 161/161 171/171 172/172
f 162/162 173/173 163/163
f 162/162 172/172 173/173
f 163/163 174/174 164/164
f 163/163 173/173 174/174
f 175/175 165/165 164/164
f 176/176 175/175 164/164
f 177/177 176/176 164/164
f 177/177 164/164 174/174
f 178/178 177/177 174/174
f 181/181 180/180 179/179
f 182/182 181/181 179/179
f 183/183 180/180 181/181
f 185/185 184/184 166/166
f 168/168 185/185 166/166
f 179/179 180/180 184/184
f 185/185 179/179 184/184
f 166/166 186/186 170/170
f 166/166 184/184 186/186
f 170/170 187/187 171/171
f 170/170 186/186 187/187
f 171/171 188/188 172/172
f 171/171 187/187 188/188
f 172/172 189/189 173/173
f 172/172 188/188 189/189
f 173/173 190/190 174/174
f 173/173 189/189 190/190
f 178/178 174/174 191/191
f 191/191 174/174 190/190
f 192/192 191/191 190/190
f 193/193 192/192 190/190
f 195/195 194/194 180/180
f 183/183 195/195 180/180
f 197/197 196/196 194/194
f 195/195 197/197 194/194
f 180/180 198/198 184/184
f 180/180 194/194 198/198
f 184/184 199/199 186/186
f 184/184 198/198 199/199
f 186/186 200/200 187/187
f 186/186 199/199 200/200
f 187/187 201/201 188/188
f 187/187 200/200 201/201
f 188/188 202/202 189/189
f 188/188 201/201 202/202
f 189/189 203/203 190/190
f 189/189 202/202 203/203
f 193/193 190/190 204/204
f 204/204 190/190 203/203
f 205/205 204/204 203/203
f 206/206 205/205 203/203
f 208/208 207/207 194/194
f 196/196 208/208 194/194
f 209/209 207/207 208/208
f 194/194 210/210 198/198
f 194/194 207/207 210/210
f 198/198 211/211 199/199
f 198/198 210/210 211/211
f 199/199 212/212 200/200
f 199/199 211/211 212/212
f 200/200 213/213 201/201
f 200/200 212/212 213/213
f 201/201 214/214 202/202
f 201/201 213/213 214/214
f 215/215 203/203 202/202
f 216/216 215/215 202/202
f 216/216 202/202 214/214
f 217/217 216/216 214/214
f 206/206 203/203 218/218
f 219/219 218/218 203/203
f 215/215 219/219 203/203
f 221/221 220/220 207/207
f 209/209 221/221 207/207
f 223/223 222/222 220/220
f 221/221 223/223 220/220
f 207/207 224/224 210/210
f 207/207 220/220 224/224
f 210/210 225/225 211/211
f 210/210 224/224 225/225
f 211/211 226/226 212/212
f 211/211 225/225 226/226
f 212/212 227/227 213/213
f 212/212 226/226 227/227
f 213/213 228/228 214/214
f 213/213 227/227 228/228
f 217/217 214/214 229/229
f 229/229 214/214 228/228
f 230/230 229/229 228/228
f 233/233 232/232 231/231
f 234/234 232/232 233/233
f 236/236 235/235 220/220
f 222/222 236/236 220/220
f 231/231 232/232 235/235
f 236/236 231/231 235/235
f 220/220 237/237 224/224
f 220/220 235/235 237/237
f 224/224 238/238 225/225
f 224/224 237/237 238/238
f 225/225 239/239 226/226
f 225/225 238/238 239/239
f 226/226 240/240 227/227
f 226/226 239/239 240/240
f 227/227 241/241 228/228
f 227/227 240/240 241/241
f 230/230 228/228 242/242
f 242/242 228/228 241/241
f 243/243 242/242 241/241
f 244/244 243/243 241/241
f 246/246 245/245 232/232
f 234/234 246/246 232/232
f 248/248 247/247 245/245
f 246/246 248/248 245/245
f 232/232 249/249 235/235
f 232/232 245/245 249/249
f 235/235 250/250 237/237
f 235/235 249/249 250/250
f 237/237 251/251 238/238
f 237/237 250/250 251/251
f 238/238 252/252 239/239
f 238/238 251/251 252/252
f 239/239 253/253 240/240
f 239/239 252/252 253/253
f 240/240 254/254 241/241
f 240/240 253/253 254/254
f 244/244 241/241 255/255
f 255/255 241/241 254/254
f 256/256 255/255 254/254
f 257/257 256/256 254/254
f 259/259 258/258 245/245
f 247/247 259/259 245/245
f 260/260 258/258 259/259
f 245/245 261/261 249/249
f 245/245 258/258 261/261
f 249/249 262/262 250/250
f 249/249 261/261 262/262
f 250/250 263/263 251/251
f 250/250 262/262 263/263
f 251/251 264/264 252/252
f 251/251 263/263 264/264
f 252/252 265/265 253/253
f 252/252 264/264 265/265
f 266/266 254/254 253/253
f 267/267 266/266 253/253
f 268/268 267/267 253/253
f 268/268 253/253 265/265
f 269/269 268/268 265/265
f 257/257 254/254 270/270
f 270/270 254/254 266/266
f 273/273 272/272 271/271
f 274/274 272/272 273/273
f 276/276 275/275 258/258
f 260/260 276/276 258/258
f 271/271 272/272 275/275
f 277/277 271/271 275/275
f 276/276 277/277 275/275
f 258/258 278/278 261/261
f 258/258 275/275 278/278
f 261/261 279/279 262/262
f 261/261 278/278 279/279
f 262/262 280/280 263/263
f 262/262 279/279 280/280
f 263/263 281/281 264/264
f 263/263 280/280 281/281
f 264/264 282/282 265/265
f 264/264 281/281 282/282
f 269/269 265/265 283/283
f 283/283 265/265 282/282
f 284/284 283/283 282/282
f 286/286 285/285 272/272
f 287/287 286/286 272/272
f 274/274 287/287 272/272
f 288/288 285/285 286/286
f 272/272 289/289 275/275
f 272/272 285/285 289/289
f 275/275 290/290 278/278
f 275/275 289/289 290/290
f 278/278 291/291 279/279
f 278/278 290/290 291/291
f 279/279 292/292 280/280
f 279/279 291/291 292/292
f 280/280 293/293 281/281
f 280/280 292/292 293/293
f 281/281 294/294 282/282
f 281/281 293/293 294/294
f 284/284 282/282 295/295
f 295/295 282/282 294/294
f 296/296 295/295 294/294
f 297/297 296/296 294/294
f 299/299 298/298 285/285
f 288/288 299/299 285/285
f 300/300 298/298 299/299
f 285/285 301/301 289/289
f 285/285 298/298 301/301
f 289/289 302/302 290/290
f 289/289 301/301 302/302
f 290/290 303/303 291/291
f 290/290 302/302 303/303
f 291/291 304/304 292/292
f 291/291 303/303 304/304
f 292/292 305/305 293/293
f 292/292 304/304 305/305
f 306/306 294/294 293/293
f 307/307 306/306 293/293
f 307/307 293/293 305/305
f 308/308 307/307 305/305
f 297/297 294/294 309/309
f 310/310 309/309 294/294
f 306/306 310/310 294/294
f 312/312 311/311 298/298
f 300/300 312/312 298/298
f 314/314 313/313 311/311
f 312/312 314/314 311/311
f 298/298 315/315 301/301
f 298/298 311/311 315/315
f 301/301 316/316 302/302
f 301/301 315/315 316/316
f 302/302 317/317 303/303
f 302/302 316/316 317/317
f 303/303 318/318 304/304
f 303/303 317/317 318/318
f 304/304 319/319 305/305
f 304/304 318/318 319/319
f 308/308 305/305 320/320
f 320/320 305/305 319/319
f 321/321 320/320 319/319
f 324/324 323/323 322/322
f 325/325 324/324 322/322
f 326/326 322/322 323/323
f 328/328 327/327 311/311
f 313/313 328/328 311/311
f 325/325 322/322 327/327
f 328/328 325/325 327/327
f 311/311 329/329 315/315
f 311/311 327/327 329/329
f 315/315 330/330 316/316
f 315/315 329/329 330/330
f 316/316 331/331 317/317
f 316/316 330/330 331/331
f 317/317 332/332 318/318
f 317/317 331/331 332/332
f 318/318 333/333 319/319
f 318/318 332/332 333/333
f 334/334 321/321 319/319
f 335/335 334/334 319/319
f 335/335 319/319 333/333
f 336/336 335/335 333/333
f 338/338 337/337 322/322
f 339/339 338/338 322/322
f 326/326 339/339 322/322
f 340/340 337/337 338/338
f 322/322 341/341 327/327
f 322/322 337/337 341/341
f 327/327 342/342 329/329
f 327/327 341/341 342/342
f 329/329 343/343 330/330
f 329/329 342/342 343/343
f 330/330 344/344 331/331
f 330/330 343/343 344/344
f 331/331 345/345 332/332
f 331/331 344/344 345/345
f 332/332 346/346 333/333
f 332/332 345/345 346/346
f 336/336 333/333 347/347
f 348/348 336/336 347/347
f 349/349 348/348 347/347
f 347/347 333/333 346/346
f 350/350 347/347 346/346
f 352/352 351/351 337/337
f 353/353 352/352 337/337
f 340/340 353/353 337/337
f 354/354 351/351 352/352
f 337/337 355/355 341/341
f 337/337 351/351 355/355
f 341/341 356/356 342/342
f 341/341 355/355 356/356
f 342/342 357/357 343/343
f 342/342 356/356 357/357
f 343/343 358/358 344/344
f 343/343 357/357 358/358
f 344/344 359/359 345/345
f 344/344 358/358 359/359
f 360/360 346/346 345/345
f 361/361 360/360 345/345
f 362/362 361/361 345/345
f 363/363 362/362 345/345
f 363/363 345/345 359/359
f 364/364 363/363 359/359
f 350/350 346/346 365/365
f 365/365 346/346 360/360
f 368/368 367/367 366/366
f 369/369 367/367 368/368
f 371/371 370/370 351/351
f 354/354 371/371 351/351
f 366/366 367/367 370/370
f 372/372 366/366 370/370
f 371/371 372/372 370/370
f 351/351 373/373 355/355
f 351/351 370/370 373/373
f 355/355 374/374 356/356
f 355/355 373/373 374/374
f 356/356 375/375 357/357
f 356/356 374/374 375/375
f 357/357 376/376 358/358
f 357/357 375/375 376/376
f 358/358 377/377 359/359
f 358/358 376/376 377/377
f 378/378 364/364 359/359
f 379/379 378/378 359/359
f 379/379 359/359 377/377
f 380/380 379/379 377/377
f 382/382 381/381 367/367
f 383/383 382/382 367/367
f 369/369 383/383 367/367
f 384/384 381/381 382/382
f 367/367 385/385 370/370
f 367/367 381/381 385/385
f 370/370 386/386 373/373
f 370/370 385/385 386/386
f 373/373 387/387 374/374
f 373/373 386/386 387/387
f 374/374 388/388 375/375
f 374/374 387/387 388/388
f 375/375 389/389 376/376
f 375/375 388/388 389/389
f 376/376 390/390 377/377
f 376/376 389/389 390/390
f 380/380 377/377 391/391
f 391/391 377/377 390/390
f 392/392 391/391 390/390
f 394/394 393/393 381/381
f 395/395 394/394 381/381
f 384/384 395/395 381/381
f 396/396 393/393 394/394
f 381/381 397/397 385/385
f 381/381 393/393 397/397
f 385/385 398/398 386/386
f 385/385 397/397 398/398
f 386/386 399/399 387/387
f 386/386 398/398 399/399
f 387/387 400/400 388/388
f 387/387 399/399 400/400
f 388/388 401/401 389/389
f 388/388 400/400 401/401
f 402/402 390/390 389/389
f 403/403 402/402 389/389
f 403/403 389/389 401/401
f 404/404 403/403 401/401
f 392/392 390/390 405/405
f 405/405 390/390 402/402
f 408/408 407/407 406/406
f 409/409 407/407 408/408
f 411/411 410/410 393/393
f 396/396 411/411 393/393
f 406/406 407/407 410/410
f 411/411 406/406 410/410
f 393/393 412/412 397/397
f 393/393 410/410 412/412
f 397/397 413/413 398/398
f 397/397 412/412 413/413
f 398/398 414/414 399/399
f 398/398 413/413 414/414
f 399/399 415/415 400/400
f 399/399 414/414 415/415
f 400/400 416/416 401/401
f 400/400 415/415 416/416
f 417/417 404/404 401/401
f 418/418 417/417 401/401
f 418/418 401/401 416/416
f 419/419 418/418 416/416
f 420/420 419/419 416/416
f 422/422 421/421 407/407
f 409/409 422/422 407/407
f 423/423 421/421 422/422
f 407/407 424/424 410/410
f 407/407 421/421 424/424
f 410/410 425/425 412/412
f 410/410 424/424 425/425
f 412/412 426/426 413/413
f 412/412 425/425 426/426
f 413/413 427/427 414/414
f 413/413 426/426 427/427
f 414/414 428/428 415/415
f 414/414 427/427 428/428
f 415/415 429/429 416/416
f 415/415 428/428 429/429
f 420/420 416/416 430/430
f 430/430 416/416 429/429
f 431/431 430/430 429/429
f 433/433 432/432 421/421
f 423/423 433/433 421/421
f 435/435 434/434 432/432
f 433/433 435/435 432/432
f 421/421 436/436 424/424
f 421/421 432/432 436/436
f 424/424 437/437 425/425
f 424/424 436/436 437/437
f 425/425 438/438 426/426
f 425/425 437/437 438/438
f 426/426 439/439 427/427
f 426/426 438/438 439/439
f 427/427 440/440 428/428
f 427/427 439/439 440/440
f 441/441 429/429 428/428
f 442/442 441/441 428/428
f 442/442 428/428 440/440
f 443/443 442/442 440/440
f 431/431 429/429 444/444
f 444/444 429/429 441/441
f 447/447 446/446 445/445
f 448/448 446/446 447/447
f 450/450 449/449 432/432
f 434/434 450/450 432/432
f 445/445 446/446 449/449
f 450/450 445/445 449/449
f 432/432 451/451 436/436
f 432/432 449/449 451/451
f 436/436 452/452 437/437
f 436/436 451/451 452/452
f 437/437 453/453 438/438
f 437/437 452/452 453/453
f 438/438 454/454 439/439
f 438/438 453/453 454/454
f 439/439 455/455 440/440
f 439/439 454/454 455/455
f 443/443 440/440 456/456
f 456/456 440/440 455/455
f 457/457 456/456 455/455
f 458/458 457/457 455/455
f 460/460 459/459 446/446
f 448/448 460/460 446/446
f 461/461 459/459 460/460
f 446/446 462/462 449/449
f 446/446 459/459 462/462
f 449/449 463/463 451/451
f 449/449 462/462 463/463
f 451/451 464/464 452/452
f 451/451 463/463 464/464
f 452/452 465/465 453/453
f 452/452 464/464 465/465
f 453/453 466/466 454/454
f 453/453 465/465 466/466
f 454/454 467/467 455/455
f 454/454 466/466 467/467
f 458/458 455/455 468/468
f 468/468 455/455 467/467
f 469/469 468/468 467/467
f 470/470 469/469 467/467
f 472/472 471/471 459/459
f 461/461 472/472 459/459
f 474/474 473/473 471/471
f 472/472 474/474 471/471
f 459/459 475/475 462/462
f 459/459 471/471 475/475
f 462/462 476/476 463/463
f 462/462 475/475 476/476
f 463/463 477/477 464/464
f 463/463 476/476 477/477
f 464/464 478/478 465/465
f 464/464 477/477 478/478
f 465/465 479/479 466/466
f 465/465 478/478 479/479
f 480/480 467/467 466/466
f 481/481 480/480 466/466
f 482/482 481/481 466/466
f 482/482 466/466 479/479
f 483/483 482/482 479/479
f 470/470 467/467 484/484
f 484/484 467/467 480/480
f 486/486 485/485 471/471
f 473/473 486/486 471/471
f 487/487 485/485 486/486
f 471/471 488/488 475/475
f 471/471 485/485 488/488
f 475/475 489/489 476/476
f 475/475 488/488 489/489
f 476/476 490/490 477/477
f 476/476 489/489 490/490
f 477/477 491/491 478/478
f 477/477 490/490 491/491
f 478/478 492/492 479/479
f 478/478 491/491 492/492
f 483/483 479/479 493/493
f 493/493 479/479 492/492
f 494/494 493/493 492/492
f 495/495 494/494 492/492
f 498/498 497/497 496/496
f 499/499 497/497 498/498
f 501/501 500/500 485/485
f 487/487 501/501 485/485
f 496/496 497/497 500/500
f 501/501 496/496 500/500
f 485/485 502/502 488/488
f 485/485 500/500 502/502
f 488/488 503/503 489/489
f 488/488 502/502 503/503
f 489/489 504/504 490/490
f 489/489 503/503 504/504
f 490/490 505/505 491/491
f 490/490 504/504 505/505
f 491/491 506/506 492/492
f 491/491 505/505 506/506
f 495/495 492/492 507/507
f 507/507 492/492 506/506
f 508/508 507/507 506/506
f 509/509 508/508 506/506
f 511/511 510/510 497/497
f 499/499 511/511 497/497
f 513/513 512/512 510/510
f 511/511 513/513 510/510
f 497/497 514/514 500/500
f 497/497 510/510 514/514
f 500/500 515/515 502/502
f 500/500 514/514 515/515
f 502/502 516/516 503/503
f 502/502 515/515 516/516
f 503/503 517/517 504/504
f 503/503 516/516 517/517
f 504/504 518/518 505/505
f 504/504 517/517 518/518
f 519/519 506/506 505/505
f 520/520 519/519 505/505
f 520/520 505/505 518/518
f 521/521 520/520 518/518
f 509/509 506/506 522/522
f 522/522 506/506 519/519
f 524/524 523/523 510/510
f 512/512 524/524 510/510
f 525/525 523/523 524/524
f 510/510 526/526 514/514
f 510/510 523/523 526/526
f 514/514 527/527 515/515
f 514/514 526/526 527/527
f 515/515 528/528 516/516
f 515/515 527/527 528/528
f 516/516 529/529 517/517
f 516/516 528/528 529/529
f 517/517 530/530 518/518
f 517/517 529/529 530/530
f 531/531 521/521 518/518
f 532/532 531/531 518/518
f 532/532 518/518 530/530
f 533/533 532/532 530/530
f 536/536 535/535 534/534
f 537/537 535/535 536/536
f 539/539 538/538 523/523
f 525/525 539/539 523/523
f 534/534 535/535 538/538
f 539/539 534/534 538/538
f 523/523 540/540 526/526
f 523/523 538/538 540/540
f 526/526 541/541 527/527
f 526/526 540/540 541/541
f 527/527 542/542 528/528
f 527/527 541/541 542/542
f 528/528 543/543 529/529
f 528/528 542/542 543/543
f 529/529 544/544 530/530
f 529/529 543/543 544/544
f 533/533 530/530 545/545
f 545/545 530/530 544/544
f 546/546 545/545 544/544
f 547/547 546/546 544/544
f 549/549 548/548 535/535
f 550/550 549/549 535/535
f 537/537 550/550 535/535
f 551/551 548/548 549/549
f 535/535 552/552 538/538
f 535/535 548/548 552/552
f 538/538 553/553 540/540
f 538/538 552/552 553/553
f 540/540 554/554 541/541
f 540/540 553/553 554/554
f 541/541 555/555 542/542
f 541/541 554/554 555/555
f 542/542 556/556 543/543
f 542/542 555/555 556/556
f 543/543 557/557 544/544
f 543/543 556/556 557/557
f 547/547 544/544 558/558
f 558/558 544/544 557/557
f 559/559 558/558 557/557
f 561/561 560/560 548/548
f 551/551 561/561 548/548
f 562/562 560/560 561/561
f 548/548 563/563 552/552
f 548/548 560/560 563/563
f 552/552 564/564 553/553
f 552/552 563/563 564/564
f 553/553 565/565 554/554
f 553/553 564/564 565/565
f 554/554 566/566 555/555
f 554/554 565/565 566/566
f 555/555 567/567 556/556
f 555/555 566/566 567/567
f 568/568 557/557 556/556
f 569/569 568/568 556/556
f 570/570 569/569 556/556
f 570/570 556/556 567/567
f 571/571 570/570 567/567
f 559/559 557/557 572/572
f 572/572 557/557 568/568
f 575/575 574/574 573/573
f 576/576 574/574 575/575
f 578/578 577/577 560/560
f 562/562 578/578 560/560
f 573/573 574/574 577/577
f 579/579 573/573 577/577
f 578/578 579/579 577/577
f 560/560 580/580 563/563
f 560/560 577/577 580/580
f 563/563 581/581 564/564
f 563/563 580/580 581/581
f 564/564 582/582 565/565
f 564/564 581/581 582/582
f 565/565 583/583 566/566
f 565/565 582/582 583/583
f 566/566 584/584 567/567
f 566/566 583/583 584/584
f 571/571 567/567 585/585
f 585/585 567/567 584/584
f 586/586 585/585 584/584
f 588/588 587/587 574/574
f 589/589 588/588 574/574
f 576/576 589/589 574/574
f 590/590 587/587 588/588
f 574/574 591/591 577/577
f 574/574 587/587 591/591
f 577/577 592/592 580/580
f 577/577 591/591 592/592
f 580/580 593/593 581/581
f 580/580 592/592 593/593
f 581/581 594/594 582/582
f 581/581 593/593 594/594
f 582/582 595/595 583/583
f 582/582 594/594 595/595
f 583/583 596/596 584/584
f 583/583 595/595 596/596
f 597/597 586/586 584/584
f 598/598 597/597 584/584
f 598/598 584/584 596/596
f 599/599 598/598 596/596
f 601/601 600/600 587/587
f 602/602 601/601 587/587
f 590/590 602/602 587/587
f 603/603 600/600 601/601
f 587/587 604/604 591/591
f 587/587 600/600 604/604
f 591/591 605/605 592/592
f 591/591 604/604 605/605
f 592/592 606/606 593/593
f 592/592 605/605 606/606
f 593/593 607/607 594/594
f 593/593 606/606 607/607
f 594/594 608/608 595/595
f 594/594 607/607 608/608
f 609/609 596/596 595/595
f 610/610 609/609 595/595
f 610/610 595/595 608/608
f 611/611 610/610 608/608
f 599/599 596/596 612/612
f 612/612 596/596 609/609
f 615/615 614/614 613/613
f 616/616 614/614 615/615
f 618/618 617/617 600/600
f 603/603 618/618 600/600
f 613/613 614/614 617/617
f 618/618 613/613 617/617
f 600/600 619/619 604/604
f 600/600 617/617 619/619
f 604/604 620/620 605/605
f 604/604 619/619 620/620
f 605/605 621/621 606/606
f 605/605 620/620 621/621
f 606/606 622/622 607/607
f 606/606 621/621 622/622
f 607/607 623/623 608/608
f 607/607 622/622 623/623
f 624/624 611/611 608/608
f 625/625 624/624 608/608
f 625/625 608/608 623/623
f 626/626 625/625 623/623
f 628/628 627/627 614/614
f 629/629 628/628 614/614
f 616/616 629/629 614/614
f 630/630 627/627 628/628
f 614/614 631/631 617/617
f 614/614 627/627 631/631
f 617/617 632/632 619/619
f 617/617 631/631 632/632
f 619/619 633/633 620/620
f 619/619 632/632 633/633
f 620/620 634/634 621/621
f 620/620 633/633 634/634
f 621/621 635/635 622/622
f 621/621 634/634 635/635
f 622/622 636/636 623/623
f 622/622 635/635 636/636
f 626/626 623/623 637/637
f 637/637 623/623 636/636
f 638/638 637/637 636/636
f 640/640 639/639 627/627
f 641/641 640/640 627/627
f 630/630 641/641 627/627
f 642/642 639/639 640/640
f 627/627 643/643 631/631
f 627/627 639/639 643/643
f 631/631 644/644 632/632
f 631/631 643/643 644/644
f 632/632 645/645 633/633
f 632/632 644/644 645/645
f 633/633 646/646 634/634
f 633/633 645/645 646/646
f 634/634 647/647 635/635
f 634/634 646/646 647/647
f 648/648 636/636 635/635
f 649/649 648/648 635/635
f 649/649 635/635 647/647
f 650/650 649/649 647/647
f 638/638 636/636 651/651
f 651/651 636/636 648/648
f 654/654 653/653 652/652
f 655/655 653/653 654/654
f 657/657 656/656 639/639
f 642/642 657/657 639/639
f 652/652 653/653 656/656
f 657/657 652/652 656/656
f 639/639 658/658 643/643
f 639/639 656/656 658/658
f 643/643 659/659 644/644
f 643/643 658/658 659/659
f 644/644 660/660 645/645
f 644/644 659/659 660/660
f 645/645 661/661 646/646
f 645/645 660/660 661/661
f 646/646 662/662 647/647
f 646/646 661/661 662/662
f 663/663 650/650 647/647
f 664/664 663/663 647/647
f 664/664 647/647 662/662
f 665/665 664/664 662/662
f 667/667 666/666 653/653
f 668/668 667/667 653/653
f 655/655 668/668 653/653
f 669/669 666/666 667/667
f 653/653 670/670 656/656
f 653/653 666/666 670/670
f 656/656 671/671 658/658
f 656/656 670/670 671/671
f 658/658 672/672 659/659
f 658/658 671/671 672/672
f 659/659 673/673 660/660
f 659/659 672/672 673/673
f 660/660 674/674 661/661
f 660/660 673/673 674/674
f 661/661 675/675 662/662
f 661/661 674/674 675/675
f 665/665 662/662 676/676
f 676/676 662/662 675/675
f 677/677 676/676 675/675
f 679/679 678/678 666/666
f 680/680 679/679 666/666
f 669/669 680/680 666/666
f 682/682 681/681 678/678
f 679/679 682/682 678/678
f 666/666 683/683 670/670
f 666/666 678/678 683/683
f 670/670 684/684 671/671
f 670/670 683/683 684/684
f 671/671 685/685 672/672
f 671/671 684/684 685/685
f 672/672 686/686 673/673
f 672/672 685/685 686/686
f 673/673 687/687 674/674
f 673/673 686/686 687/687
f 688/688 675/675 674/674
f 689/689 688/688 674/674
f 690/690 689/689 674/674
f 690/690 674/674 687/687
f 691/691 690/690 687/687
f 677/677 675/675 692/692
f 692/692 675/675 688/688
f 694/694 693/693 678/678
f 681/681 694/694 678/678
f 696/696 695/695 693/693
f 694/694 696/696 693/693
f 678/678 697/697 683/683
f 678/678 693/693 697/697
f 683/683 698/698 684/684
f 683/683 697/697 698/698
f 684/684 699/699 685/685
f 684/684 698/698 699/699
f 685/685 700/700 686/686
f 685/685 699/699 700/700
f 686/686 701/701 687/687
f 686/686 700/700 701/701
f 691/691 687/687 702/702
f 702/702 687/687 701/701
f 703/703 702/702 701/701
f 704/704 703/703 701/701
