# OSM contributors ODbL; elevations USGS 3DEP
# Centimeters, Z up, OBJ Y = negative source ENU Y. Apply source-to-world placement.
o EastsideTrail_Concrete_8_9
v 32055.811991 57764.696489 267.062500
v 32055.811991 57698.029823 267.843750
v 32020.857132 57732.984681 266.478326
v 32030.542411 57745.517242 266.596292
v 32045.364487 57764.696489 266.776826
v 31993.843694 57698.029823 266.633432
v 32122.478658 57764.696489 269.145833
v 32122.478658 57698.029823 270.187500
v 32189.145325 57764.696489 271.750000
v 32189.145325 57698.029823 273.052083
v 32255.811991 57764.696489 274.875000
v 32255.811991 57698.029823 275.135417
v 32322.478658 57764.696489 276.697917
v 32322.478658 57698.029823 275.656250
v 32389.145325 57764.696489 277.479167
v 32389.145325 57698.029823 275.916667
v 32455.811991 57764.696489 278.520833
v 32455.811991 57698.029823 279.562500
v 32522.478658 57764.696489 283.468750
v 32522.478658 57698.029823 291.802083
v 32576.170102 57764.696489 291.438574
v 32566.581349 57752.288979 292.971720
v 32552.764582 57734.410565 295.180885
v 32525.838571 57699.569249 292.489007
v 32524.648874 57698.029823 292.370070
v 31989.145325 57691.950177 266.541667
v 31989.145325 57631.363156 266.541667
v 31962.734868 57657.773613 265.819506
v 31942.325788 57631.363156 265.627223
v 32055.811991 57631.363156 268.625000
v 31991.795564 57695.379583 266.624487
v 31989.799199 57692.796326 266.562100
v 32122.478658 57631.363156 271.229167
v 32189.145325 57631.363156 273.572917
v 32255.811991 57631.363156 274.354167
v 32322.478658 57631.363156 273.833333
v 32389.145325 57631.363156 274.875000
v 32455.811991 57631.363156 285.031250
v 32522.478658 57695.221639 292.361526
v 32494.641057 57659.200757 294.426752
v 32485.095792 57646.849518 292.568903
v 32473.127646 57631.363156 290.239474
v 32523.702819 57696.805661 292.433292
v 31922.478658 57605.679894 265.239583
v 31922.478658 57564.696489 265.239583
v 31904.613603 57582.561544 264.611515
v 31890.808112 57564.696489 264.744731
v 31989.145325 57564.696489 266.541667
v 31933.674236 57620.167578 265.458247
v 32055.811991 57564.696489 269.145833
v 32122.478658 57564.696489 271.750000
v 32189.145325 57564.696489 273.052083
v 32255.811991 57564.696489 272.270833
v 32322.478658 57564.696489 270.968750
v 32389.145325 57564.696489 275.916667
v 32455.811991 57608.957304 287.481890
v 32444.353014 57594.129788 287.357946
v 32436.517532 57583.990949 287.273195
v 32421.606419 57564.696489 283.905139
v 32465.579295 57621.595853 289.495213
v 31855.811991 57519.409610 263.844113
v 31855.811991 57498.029823 263.677083
v 31846.492339 57507.349475 263.313034
v 31839.290437 57498.029823 263.096247
v 31922.478658 57498.029823 265.239583
v 31875.552971 57544.955509 264.506369
v 31867.572592 57534.628466 264.238649
v 31989.145325 57498.029823 267.583333
v 32055.811991 57498.029823 269.927083
v 32122.478658 57498.029823 271.489583
v 32189.145325 57498.029823 270.968750
v 32255.811991 57498.029823 268.885417
v 32322.478658 57498.029823 269.666667
v 32389.145325 57522.692969 277.393353
v 32378.394007 57508.781140 277.084491
v 32370.085191 57498.029823 275.803446
v 32407.455770 57546.386044 281.710206
v 31789.145325 57433.139327 260.826376
v 31789.145325 57431.363156 260.812500
v 31788.371075 57432.137406 260.794354
v 31787.772762 57431.363156 260.796415
v 31855.811991 57431.363156 262.895833
v 31817.431707 57469.743440 261.996295
v 31922.478658 57431.363156 266.020833
v 31989.145325 57431.363156 268.364583
v 32055.811991 57431.363156 269.666667
v 32122.478658 57431.363156 269.666667
v 32189.145325 57431.363156 267.322917
v 32255.811991 57431.363156 266.020833
v 32322.478658 57436.428015 270.147931
v 32322.127491 57435.973611 270.147366
v 32320.270827 57433.570987 270.144378
v 32318.564691 57431.363156 269.942877
v 32362.867825 57488.690804 275.347330
v 32349.332335 57471.176146 274.491937
v 31789.145325 57364.696489 262.375000
v 31759.310443 57394.531371 261.326117
v 31736.255087 57364.696489 261.135385
v 31745.349534 57376.465197 261.210622
v 31855.811991 57364.696489 264.718750
v 31922.478658 57364.696489 267.062500
v 31989.145325 57364.696489 268.364583
v 32055.811991 57364.696489 268.104167
v 32122.478658 57364.696489 265.760417
v 32189.145325 57364.696489 263.677083
v 32255.811991 57364.696489 265.500000
v 32291.210194 57395.964953 270.169060
v 32267.047016 57364.696489 266.904378
v 31722.478658 57346.869043 261.230331
v 31722.478658 57298.029823 262.375000
v 31701.189179 57319.319302 261.959190
v 31684.737412 57298.029823 262.375000
v 31789.145325 57298.029823 263.677083
v 31730.249811 57356.925336 261.146417
v 31855.811991 57298.029823 265.760417
v 31922.478658 57298.029823 267.322917
v 31989.145325 57298.029823 267.583333
v 32055.811991 57298.029823 264.979167
v 32122.478658 57298.029823 261.333333
v 32189.145325 57298.029823 262.375000
v 32255.811991 57350.157758 266.238295
v 32240.647225 57330.533728 266.820166
v 32233.088930 57320.752884 267.110178
v 32215.529341 57298.029823 264.951564
v 32262.149562 57358.358918 267.034880
v 31655.811991 57260.598760 263.398506
v 31655.811991 57231.363156 264.197917
v 31643.067915 57244.107233 264.098354
v 31633.219736 57231.363156 264.374419
v 31722.478658 57231.363156 264.197917
v 31672.128547 57281.713267 262.821156
v 31789.145325 57231.363156 264.718750
v 31855.811991 57231.363156 266.281250
v 31922.478658 57231.363156 266.802083
v 31989.145325 57231.363156 264.458333
v 32055.811991 57231.363156 260.031250
v 32122.478658 57231.363156 259.250000
v 32189.145325 57263.887474 263.842054
v 32174.967666 57245.540815 264.408861
v 32164.011666 57231.363156 262.981481
v 32204.028298 57283.146849 265.514377
v 32199.906206 57277.812638 265.051199
v 31589.145325 57174.328476 264.050375
v 31589.145325 57164.696489 263.937500
v 31584.946650 57168.895164 263.953901
v 31581.702061 57164.696489 263.879350
v 31655.811991 57164.696489 263.937500
v 31614.007282 57206.501198 264.427399
v 31623.126475 57218.301928 264.402252
v 31722.478658 57164.696489 264.197917
v 31789.145325 57164.696489 264.979167
v 31855.811991 57164.696489 266.020833
v 31922.478658 57164.696489 265.760417
v 31989.145325 57164.696489 261.854167
v 32055.811991 57164.696489 258.468750
v 32122.478658 57177.617191 261.979287
v 32116.846402 57170.328745 262.415407
v 32112.493991 57164.696489 262.011375
v 32145.907034 57207.934780 264.008889
v 31589.145325 57098.029823 262.895833
v 31555.886018 57131.289129 263.155672
v 31530.184386 57098.029823 261.974569
v 31655.811991 57098.029823 263.156250
v 31722.478658 57098.029823 263.937500
v 31789.145325 57098.029823 265.239583
v 31855.811991 57098.029823 266.020833
v 31922.478658 57098.029823 266.541667
v 31989.145325 57098.029823 264.979167
v 32055.811991 57098.029823 264.197917
v 32087.785770 57132.722711 264.463833
v 32077.683147 57119.649369 264.561276
v 32060.976315 57098.029823 264.722418
v 31522.478658 57088.058192 261.659408
v 31522.478658 57031.363156 260.552083
v 31497.764754 57056.077060 260.648622
v 31478.666711 57031.363156 260.038662
v 31589.145325 57031.363156 261.854167
v 31526.825386 57093.683094 261.854167
v 31655.811991 57031.363156 262.635417
v 31722.478658 57031.363156 263.677083
v 31789.145325 57031.363156 264.979167
v 31855.811991 57031.363156 267.322917
v 31922.478658 57031.363156 269.406250
v 31989.145325 57031.363156 270.187500
v 32055.811991 57091.346907 265.059386
v 32036.942128 57066.928280 268.428231
v 32029.664506 57057.510642 269.727508
v 32009.458640 57031.363156 270.980989
v 32058.725138 57095.116676 264.971721
v 31455.811991 57001.787909 259.424248
v 31455.811991 56964.696489 258.989583
v 31439.643490 56980.864991 258.989583
v 31427.149036 56964.696489 258.653689
v 31522.478658 56964.696489 260.031250
v 31468.704122 57018.471025 259.821193
v 31460.162397 57007.417569 259.558196
v 31589.145325 56964.696489 261.333333
v 31655.811991 56964.696489 262.375000
v 31722.478658 56964.696489 263.416667
v 31789.145325 56964.696489 265.760417
v 31855.811991 56964.696489 269.406250
v 31922.478658 56964.696489 273.312500
v 31989.145325 57005.076624 273.062589
v 31971.543241 56982.298573 275.347664
v 31957.940965 56964.696489 275.528894
v 32000.603873 57019.904607 272.335978
v 31389.145325 56915.097988 257.820845
v 31389.145325 56898.029823 257.687500
v 31381.750328 56905.424819 257.629727
v 31376.217767 56898.029823 257.536005
v 31378.294930 56900.904920 257.571578
v 31455.811991 56898.029823 258.729167
v 31410.634498 56943.207316 258.376217
v 31418.755297 56953.829885 258.512878
v 31419.421377 56954.696480 258.524068
v 31522.478658 56898.029823 260.031250
v 31589.145325 56898.029823 261.333333
v 31655.811991 56898.029823 262.114583
v 31722.478658 56898.029823 263.677083
v 31789.145325 56898.029823 267.062500
v 31855.811991 56898.029823 270.968750
v 31922.478658 56918.806340 275.463601
v 31914.719069 56908.765011 275.479625
v 31913.421977 56907.086504 275.482303
v 31906.423290 56898.029823 275.120458
v 31942.482609 56944.692538 276.359977
v 31389.145325 56831.363156 257.947917
v 31354.274814 56866.233667 257.403065
v 31371.639654 56891.693046 257.507108
v 31330.491012 56831.363156 256.802325
v 31455.811991 56831.363156 258.729167
v 31522.478658 56831.363156 260.031250
v 31589.145325 56831.363156 261.333333
v 31655.811991 56831.363156 262.635417
v 31722.478658 56831.363156 265.500000
v 31789.145325 56831.363156 269.145833
v 31855.811991 56832.536056 272.759595
v 31855.300713 56831.874434 272.747729
v 31854.905615 56831.363156 272.742099
v 31884.361345 56869.480469 273.979815
v 31322.478658 56819.615881 256.599946
v 31322.478658 56764.696489 256.385417
v 31300.209333 56786.965814 256.037458
v 31285.020303 56764.696489 255.068521
v 31296.552970 56781.605055 255.804212
v 31389.145325 56764.696489 257.947917
v 31327.242074 56826.599740 256.738869
v 31455.811991 56764.696489 258.989583
v 31522.478658 56764.696489 260.291667
v 31589.145325 56764.696489 261.072917
v 31655.811991 56764.696489 263.677083
v 31722.478658 56764.696489 268.625000
v 31789.145325 56764.696489 272.791667
v 31826.240081 56794.268400 273.492875
v 31803.387940 56764.696489 273.681830
v 31255.811991 56721.872860 254.041667
v 31255.811991 56698.029823 254.041667
v 31246.143852 56707.697962 253.777303
v 31239.549594 56698.029823 253.406417
v 31322.478658 56698.029823 256.385417
v 31273.176592 56747.331888 254.652141
v 31259.009628 56726.561060 254.154084
v 31389.145325 56698.029823 257.947917
v 31455.811991 56698.029823 258.989583
v 31522.478658 56698.029823 259.770833
v 31589.145325 56698.029823 261.854167
v 31655.811991 56698.029823 266.281250
v 31722.478658 56698.029823 271.750000
v 31789.145325 56746.265773 273.799596
v 31768.118817 56719.056331 273.973456
v 31752.089158 56698.313083 273.818710
v 31751.872610 56698.029823 273.816762
v 31797.179449 56756.662365 273.701782
v 31255.811991 56631.363156 255.083333
v 31219.111111 56668.064036 253.076254
v 31221.466286 56671.517064 253.114299
v 31194.078886 56631.363156 252.671884
v 31322.478658 56631.363156 257.166667
v 31389.145325 56631.363156 258.208333
v 31455.811991 56631.363156 258.729167
v 31522.478658 56631.363156 259.770833
v 31589.145325 56631.363156 263.677083
v 31655.811991 56631.363156 269.145833
v 31722.478658 56659.580496 273.552312
v 31715.413015 56650.338146 273.405944
v 31710.583881 56643.257933 273.341689
v 31702.470922 56631.363156 273.155585
v 31739.137311 56681.371169 273.767259
v 31189.145325 56624.129838 252.592187
v 31189.145325 56564.696489 253.520833
v 31165.045630 56588.796184 252.202881
v 31148.608177 56564.696489 252.095699
v 31255.811991 56564.696489 255.604167
v 31192.078371 56628.430110 252.616653
v 31322.478658 56564.696489 257.427083
v 31389.145325 56564.696489 257.687500
v 31455.811991 56564.696489 257.687500
v 31522.478658 56564.696489 260.031250
v 31589.145325 56564.696489 265.500000
v 31655.811991 56564.696489 271.750000
v 31683.551140 56603.624007 272.613227
v 31681.072637 56599.990160 272.542178
v 31657.000213 56564.696489 271.852113
v 31122.478658 56526.386817 251.925319
v 31122.478658 56498.029823 252.479167
v 31110.980149 56509.528332 251.895258
v 31103.137469 56498.029823 251.874755
v 31108.836259 56506.385078 251.889653
v 31189.145325 56498.029823 254.041667
v 31138.012890 56549.162258 251.844570
v 31146.379602 56561.429073 252.042878
v 31255.811991 56498.029823 255.604167
v 31322.478658 56498.029823 256.645833
v 31389.145325 56498.029823 256.385417
v 31455.811991 56498.029823 256.385417
v 31522.478658 56498.029823 260.552083
v 31589.145325 56498.029823 268.364583
v 31655.811991 56562.954383 271.838466
v 31643.529294 56544.946165 271.601443
v 31629.485659 56524.356155 271.330439
v 31611.529505 56498.029823 270.637977
v 31656.518400 56563.990081 271.841060
v 31122.478658 56431.363156 253.260417
v 31083.947408 56469.894406 251.604777
v 31057.666760 56431.363156 251.741388
v 31189.145325 56431.363156 254.562500
v 31255.811991 56431.363156 255.604167
v 31322.478658 56431.363156 255.343750
v 31389.145325 56431.363156 254.041667
v 31455.811991 56431.363156 254.822917
v 31522.478658 56431.363156 262.635417
v 31589.145325 56465.211362 271.184920
v 31575.420178 56445.088303 271.305830
v 31568.442610 56434.858174 270.426252
v 31566.058796 56431.363156 270.125753
v 31605.985952 56489.902169 270.868676
v 31602.452919 56484.722229 271.015706
v 31055.811991 56364.696489 252.218750
v 31029.881927 56390.626553 251.104568
v 31033.749575 56396.297087 251.196239
v 31055.811991 56428.643795 251.719162
v 31012.196052 56364.696489 251.196501
v 31122.478658 56364.696489 253.260417
v 31056.914668 56430.260479 251.723761
v 31189.145325 56364.696489 254.302083
v 31255.811991 56364.696489 254.302083
v 31322.478658 56364.696489 253.520833
v 31389.145325 56364.696489 251.958333
v 31455.811991 56364.696489 254.302083
v 31522.478658 56367.468341 265.880075
v 31521.354697 56365.820450 265.832043
v 31520.588087 56364.696489 265.688506
v 31548.387438 56405.454376 269.821055
v 31530.899268 56379.814179 267.160933
v 30989.145325 56330.900774 250.788265
v 30989.145325 56298.029823 250.916667
v 30975.816446 56311.358701 250.396007
v 30966.725343 56298.029823 250.303620
v 31055.811991 56298.029823 252.218750
v 31002.849187 56350.992627 250.977434
v 30996.206233 56341.253092 250.885734
v 31122.478658 56298.029823 253.000000
v 31189.145325 56298.029823 253.520833
v 31255.811991 56298.029823 253.000000
v 31322.478658 56298.029823 250.916667
v 31389.145325 56298.029823 251.177083
v 31455.811991 56298.029823 259.250000
v 31494.321956 56326.186524 264.982581
v 31493.355926 56324.770183 264.891476
v 31475.117379 56298.029823 263.171407
v 30922.478658 56233.157753 249.600563
v 30922.478658 56231.363156 249.614583
v 30921.750965 56232.090849 249.583315
v 30921.254634 56231.363156 249.595458
v 30989.145325 56231.363156 250.656250
v 30948.783706 56271.724775 249.710275
v 30958.662891 56286.209096 250.036988
v 31055.811991 56231.363156 251.437500
v 31122.478658 56231.363156 251.958333
v 31189.145325 56231.363156 251.697917
v 31255.811991 56231.363156 250.916667
v 31322.478658 56231.363156 249.614583
v 31389.145325 56231.363156 253.520833
v 31455.811991 56269.725319 262.235241
v 31440.256475 56246.918672 262.756953
v 31429.646670 56231.363156 261.273044
v 31467.289216 56286.552598 263.105630
v 31455.812584 56269.726188 262.235286
v 30922.478658 56164.696489 249.875000
v 30894.718225 56192.456923 249.332804
v 30921.119549 56231.165101 249.594121
v 30875.783926 56164.696489 249.875000
v 30883.576207 56176.121106 249.651863
v 30989.145325 56164.696489 249.875000
v 31055.811991 56164.696489 250.656250
v 31122.478658 56164.696489 250.395833
v 31189.145325 56164.696489 249.093750
v 31255.811991 56164.696489 248.052083
v 31322.478658 56164.696489 251.437500
v 31389.145325 56171.982298 259.319745
v 31386.190994 56167.650820 259.569636
v 31384.175962 56164.696489 259.390668
v 31418.269242 56214.682192 260.854653
v 31413.223735 56207.284746 260.669111
v 30855.811991 56135.414731 249.303091
v 30855.811991 56098.029823 248.572917
v 30840.652743 56113.189071 248.395269
v 30830.313217 56098.029823 248.174498
v 30922.478658 56098.029823 248.833333
v 30867.685484 56152.822997 249.689477
v 30989.145325 56098.029823 248.833333
v 31055.811991 56098.029823 249.354167
v 31122.478658 56098.029823 248.312500
v 31189.145325 56098.029823 246.489583
v 31255.811991 56098.029823 247.531250
v 31322.478658 56098.029823 257.427083
v 31359.158254 56128.016894 261.753636
v 31343.182558 56104.594202 260.800171
v 31338.705253 56098.029823 260.532955
v 30789.145325 56037.671710 247.059702
v 30789.145325 56031.363156 247.010417
v 30786.587262 56033.921218 246.950462
v 30784.842509 56031.363156 246.926377
v 30855.811991 56031.363156 247.010417
v 30813.620003 56073.555144 247.340042
v 30808.489522 56066.033115 247.281276
v 30922.478658 56031.363156 247.791667
v 30989.145325 56031.363156 248.052083
v 31055.811991 56031.363156 247.270833
v 31122.478658 56031.363156 245.187500
v 31189.145325 56031.363156 243.885417
v 31255.811991 56031.363156 250.395833
v 31322.478658 56074.239276 260.772629
v 31305.639215 56049.550206 261.744925
v 31305.092772 56048.749042 261.776476
v 31293.234544 56031.363156 259.605290
v 31332.125513 56088.382968 261.044654
v 30789.145325 55964.696489 245.968750
v 30759.554522 55994.287292 245.853161
v 30770.946180 56010.989119 246.336620
v 30739.371800 55964.696489 245.385467
v 30855.811991 55964.696489 246.229167
v 30922.478658 55964.696489 247.010417
v 30989.145325 55964.696489 246.750000
v 31055.811991 55964.696489 244.666667
v 31122.478658 55964.696489 241.541667
v 31189.145325 55964.696489 243.625000
v 31255.811991 55976.496255 256.396901
v 31251.027291 55969.481189 256.696918
v 31247.763836 55964.696489 255.989842
v 31278.060032 56009.115115 259.260287
v 30722.478658 55939.928688 244.800503
v 30722.478658 55898.029823 244.145833
v 30705.489041 55915.019440 244.013102
v 30693.901091 55898.029823 243.699309
v 30789.145325 55898.029823 244.666667
v 30732.521781 55954.653366 245.109038
v 30733.402838 55955.945124 245.144593
v 30855.811991 55898.029823 245.447917
v 30922.478658 55898.029823 245.708333
v 30989.145325 55898.029823 244.145833
v 31055.811991 55898.029823 240.760417
v 31122.478658 55898.029823 240.760417
v 31189.145325 55898.029823 250.135417
v 31223.994551 55929.847263 256.148941
v 31202.293127 55898.029823 253.576443
v 30655.811991 55842.185667 243.104167
v 30655.811991 55831.363156 243.104167
v 30651.423559 55835.751588 242.967028
v 30648.430383 55831.363156 242.988829
v 30722.478658 55831.363156 243.364583
v 30678.456300 55875.385514 243.192621
v 30658.316154 55845.857133 243.113949
v 30789.145325 55831.363156 243.885417
v 30855.811991 55831.363156 244.406250
v 30922.478658 55831.363156 243.625000
v 30989.145325 55831.363156 241.541667
v 31055.811991 55831.363156 240.239583
v 31122.478658 55831.363156 245.968750
v 31189.145325 55878.753233 252.846187
v 31169.929070 55850.579411 254.105845
v 31156.822419 55831.363156 252.944826
v 31196.961810 55890.213337 253.341397
v 31193.009189 55884.418220 253.090980
v 30655.811991 55764.696489 243.364583
v 30624.390819 55796.117662 242.750889
v 30602.959674 55764.696489 242.951675
v 30620.772812 55790.813138 242.784785
v 30722.478658 55764.696489 242.843750
v 30789.145325 55764.696489 243.104167
v 30855.811991 55764.696489 242.843750
v 30922.478658 55764.696489 240.500000
v 30989.145325 55764.696489 238.677083
v 31055.811991 55764.696489 243.885417
v 31122.478658 55781.010212 253.049633
v 31117.922505 55774.330229 253.597461
v 31115.863589 55771.311559 253.845023
v 31111.351710 55764.696489 253.431306
v 31142.896329 55810.945485 253.625377
v 30589.145325 55744.442645 242.527284
v 30589.145325 55698.029823 241.802083
v 30570.325338 55716.849810 241.287474
v 30557.488966 55698.029823 241.060137
v 30655.811991 55698.029823 242.062500
v 30597.358078 55756.483736 242.747507
v 30722.478658 55698.029823 242.322917
v 30789.145325 55698.029823 242.062500
v 30855.811991 55698.029823 240.239583
v 30922.478658 55698.029823 237.114583
v 30989.145325 55698.029823 239.197917
v 31055.811991 55698.029823 251.697917
v 31088.830848 55731.677633 255.493608
v 31080.379163 55719.286234 254.964862
v 31065.881001 55698.029823 254.057841
v 30589.145325 55631.363156 239.458333
v 30543.292597 55677.215883 239.995670
v 30545.686128 55680.725147 240.175141
v 30522.478658 55631.363156 239.458333
v 30522.478658 55646.699624 239.638058
v 30655.811991 55631.363156 240.239583
v 30722.478658 55631.363156 240.760417
v 30789.145325 55631.363156 239.979167
v 30855.811991 55631.363156 237.114583
v 30922.478658 55631.363156 236.333333
v 30989.145325 55631.363156 247.010417
v 31055.811991 55683.267191 254.408244
v 31042.835821 55664.242238 255.468074
v 31034.765367 55652.409780 256.127229
v 31020.410293 55631.363156 254.948788
v 31061.798107 55692.043707 254.363609
v 30589.145325 55564.696489 238.416667
v 30522.478658 55564.696489 238.677083
v 30655.811991 55564.696489 239.458333
v 30722.478658 55564.696489 239.197917
v 30789.145325 55564.696489 236.854167
v 30855.811991 55564.696489 234.770833
v 30922.478658 55564.696489 241.281250
v 30989.145325 55585.524169 253.814641
v 30980.699886 55573.141928 254.300040
v 30974.939584 55564.696489 253.576780
v 31007.732626 55612.775854 254.706721
v 30589.145325 55498.029823 238.156250
v 30522.478658 55498.029823 238.156250
v 30655.811991 55498.029823 238.416667
v 30722.478658 55498.029823 236.854167
v 30789.145325 55498.029823 233.468750
v 30855.811991 55498.029823 235.812500
v 30922.478658 55498.029823 249.354167
v 30953.667145 55533.508002 253.220593
v 30930.205794 55499.110252 251.245670
v 30929.468876 55498.029823 251.183638
v 30589.145325 55431.363156 237.114583
v 30522.478658 55431.363156 237.114583
v 30655.811991 55431.363156 236.333333
v 30722.478658 55431.363156 233.468750
v 30789.145325 55431.363156 231.906250
v 30855.811991 55431.363156 242.062500
v 30922.478658 55487.781148 250.835420
v 30899.601664 55454.240150 251.036253
v 30892.662452 55444.066257 250.228147
v 30883.998167 55431.363156 249.219146
v 30926.634405 55493.874076 251.172306
v 30589.145325 55364.696489 235.812500
v 30522.478658 55364.696489 236.333333
v 30655.811991 55364.696489 233.729167
v 30722.478658 55364.696489 230.083333
v 30789.145325 55364.696489 234.510417
v 30855.811991 55390.038126 247.228129
v 30855.119110 55389.022261 247.249556
v 30845.536183 55374.972298 247.545902
v 30838.527459 55364.696489 246.277253
v 30872.568923 55414.606224 249.000917
v 30589.145325 55298.029823 233.208333
v 30522.478658 55298.029823 235.031250
v 30655.811991 55298.029823 230.083333
v 30722.478658 55298.029823 230.343750
v 30789.145325 55298.029823 242.583333
v 30818.503442 55335.338372 246.093112
v 30817.575768 55333.978266 246.004151
v 30793.056750 55298.029823 243.652864
v 30589.145325 55231.363156 230.083333
v 30522.478658 55231.363156 232.947917
v 30655.811991 55231.363156 229.302083
v 30722.478658 55231.363156 237.635417
v 30789.145325 55292.295105 243.680994
v 30780.032426 55278.934271 244.565270
v 30764.437961 55256.070519 246.078489
v 30747.586041 55231.363156 244.304565
v 30791.470702 55295.704446 243.727855
v 30589.145325 55164.696489 228.520833
v 30522.478658 55164.696489 230.083333
v 30655.811991 55164.696489 234.250000
v 30722.478658 55194.552083 243.962320
v 30710.372480 55176.802667 245.499728
v 30704.945742 55168.846280 244.881944
v 30702.115333 55164.696489 244.559728
v 30742.489084 55223.890275 244.585379
v 30737.405221 55216.436593 244.865470
v 30589.145325 55098.029823 228.520833
v 30522.478658 55098.029823 226.958333
v 30655.811991 55098.029823 241.020833
v 30683.339740 55137.168741 245.110557
v 30667.402399 55113.802284 242.814570
v 30656.644624 55098.029823 241.264769
v 30589.145325 55031.363156 233.468750
v 30522.478658 55031.363156 225.916667
v 30655.811991 55096.809062 241.187734
v 30629.859057 55058.758289 241.523813
v 30629.274258 55057.900889 241.531386
v 30611.173916 55031.363156 238.975898
v 30656.306999 55097.534815 241.266404
v 30589.145325 54999.066041 238.010532
v 30575.208777 54978.633037 239.305174
v 30522.478658 54964.696489 229.041667
v 30565.703207 54964.696489 237.990499
v 30602.241518 55018.266963 238.942549
v 30592.315715 55003.714294 238.236159
v 30554.772373 54948.670298 238.356772
v 30548.176037 54938.999111 238.577803
v 30522.478658 54901.323019 236.220693
vt 160.279060 -288.823482
vt 160.279060 -288.490149
vt 160.104286 -288.664923
vt 160.152712 -288.727586
vt 160.226822 -288.823482
vt 159.969218 -288.490149
vt 160.612393 -288.823482
vt 160.612393 -288.490149
vt 160.945727 -288.823482
vt 160.945727 -288.490149
vt 161.279060 -288.823482
vt 161.279060 -288.490149
vt 161.612393 -288.823482
vt 161.612393 -288.490149
vt 161.945727 -288.823482
vt 161.945727 -288.490149
vt 162.279060 -288.823482
vt 162.279060 -288.490149
vt 162.612393 -288.823482
vt 162.612393 -288.490149
vt 162.880851 -288.823482
vt 162.832907 -288.761445
vt 162.763823 -288.672053
vt 162.629193 -288.497846
vt 162.623244 -288.490149
vt 159.945727 -288.459751
vt 159.945727 -288.156816
vt 159.813674 -288.288868
vt 159.711629 -288.156816
vt 160.279060 -288.156816
vt 159.958978 -288.476898
vt 159.948996 -288.463982
vt 160.612393 -288.156816
vt 160.945727 -288.156816
vt 161.279060 -288.156816
vt 161.612393 -288.156816
vt 161.945727 -288.156816
vt 162.279060 -288.156816
vt 162.612393 -288.476108
vt 162.473205 -288.296004
vt 162.425479 -288.234248
vt 162.365638 -288.156816
vt 162.618514 -288.484028
vt 159.612393 -288.028399
vt 159.612393 -287.823482
vt 159.523068 -287.912808
vt 159.454041 -287.823482
vt 159.945727 -287.823482
vt 159.668371 -288.100838
vt 160.279060 -287.823482
vt 160.612393 -287.823482
vt 160.945727 -287.823482
vt 161.279060 -287.823482
vt 161.612393 -287.823482
vt 161.945727 -287.823482
vt 162.279060 -288.044787
vt 162.221765 -287.970649
vt 162.182588 -287.919955
vt 162.108032 -287.823482
vt 162.327896 -288.107979
vt 159.279060 -287.597048
vt 159.279060 -287.490149
vt 159.232462 -287.536747
vt 159.196452 -287.490149
vt 159.612393 -287.490149
vt 159.377765 -287.724778
vt 159.337863 -287.673142
vt 159.945727 -287.490149
vt 160.279060 -287.490149
vt 160.612393 -287.490149
vt 160.945727 -287.490149
vt 161.279060 -287.490149
vt 161.612393 -287.490149
vt 161.945727 -287.613465
vt 161.891970 -287.543906
vt 161.850426 -287.490149
vt 162.037279 -287.731930
vt 158.945727 -287.165697
vt 158.945727 -287.156816
vt 158.941855 -287.160687
vt 158.938864 -287.156816
vt 159.279060 -287.156816
vt 159.087159 -287.348717
vt 159.612393 -287.156816
vt 159.945727 -287.156816
vt 160.279060 -287.156816
vt 160.612393 -287.156816
vt 160.945727 -287.156816
vt 161.279060 -287.156816
vt 161.612393 -287.182140
vt 161.610637 -287.179868
vt 161.601354 -287.167855
vt 161.592823 -287.156816
vt 161.814339 -287.443454
vt 161.746662 -287.355881
vt 158.945727 -286.823482
vt 158.796552 -286.972657
vt 158.681275 -286.823482
vt 158.726748 -286.882326
vt 159.279060 -286.823482
vt 159.612393 -286.823482
vt 159.945727 -286.823482
vt 160.279060 -286.823482
vt 160.612393 -286.823482
vt 160.945727 -286.823482
vt 161.279060 -286.823482
vt 161.456051 -286.979825
vt 161.335235 -286.823482
vt 158.612393 -286.734345
vt 158.612393 -286.490149
vt 158.505946 -286.596597
vt 158.423687 -286.490149
vt 158.945727 -286.490149
vt 158.651249 -286.784627
vt 159.279060 -286.490149
vt 159.612393 -286.490149
vt 159.945727 -286.490149
vt 160.279060 -286.490149
vt 160.612393 -286.490149
vt 160.945727 -286.490149
vt 161.279060 -286.750789
vt 161.203236 -286.652669
vt 161.165445 -286.603764
vt 161.077647 -286.490149
vt 161.310748 -286.791795
vt 158.279060 -286.302994
vt 158.279060 -286.156816
vt 158.215340 -286.220536
vt 158.166099 -286.156816
vt 158.612393 -286.156816
vt 158.360643 -286.408566
vt 158.945727 -286.156816
vt 159.279060 -286.156816
vt 159.612393 -286.156816
vt 159.945727 -286.156816
vt 160.279060 -286.156816
vt 160.612393 -286.156816
vt 160.945727 -286.319437
vt 160.874838 -286.227704
vt 160.820058 -286.156816
vt 161.020141 -286.415734
vt 160.999531 -286.389063
vt 157.945727 -285.871642
vt 157.945727 -285.823482
vt 157.924733 -285.844476
vt 157.908510 -285.823482
vt 158.279060 -285.823482
vt 158.070036 -286.032506
vt 158.115632 -286.091510
vt 158.612393 -285.823482
vt 158.945727 -285.823482
vt 159.279060 -285.823482
vt 159.612393 -285.823482
vt 159.945727 -285.823482
vt 160.279060 -285.823482
vt 160.612393 -285.888086
vt 160.584232 -285.851644
vt 160.562470 -285.823482
vt 160.729535 -286.039674
vt 157.945727 -285.490149
vt 157.779430 -285.656446
vt 157.650922 -285.490149
vt 158.279060 -285.490149
vt 158.612393 -285.490149
vt 158.945727 -285.490149
vt 159.279060 -285.490149
vt 159.612393 -285.490149
vt 159.945727 -285.490149
vt 160.279060 -285.490149
vt 160.438929 -285.663614
vt 160.388416 -285.598247
vt 160.304882 -285.490149
vt 157.612393 -285.440291
vt 157.612393 -285.156816
vt 157.488824 -285.280385
vt 157.393334 -285.156816
vt 157.945727 -285.156816
vt 157.634127 -285.468415
vt 158.279060 -285.156816
vt 158.612393 -285.156816
vt 158.945727 -285.156816
vt 159.279060 -285.156816
vt 159.612393 -285.156816
vt 159.945727 -285.156816
vt 160.279060 -285.456735
vt 160.184711 -285.334641
vt 160.148323 -285.287553
vt 160.047293 -285.156816
vt 160.293626 -285.475583
vt 157.279060 -285.008940
vt 157.279060 -284.823482
vt 157.198217 -284.904325
vt 157.135745 -284.823482
vt 157.612393 -284.823482
vt 157.343521 -285.092355
vt 157.300812 -285.037088
vt 157.945727 -284.823482
vt 158.279060 -284.823482
vt 158.612393 -284.823482
vt 158.945727 -284.823482
vt 159.279060 -284.823482
vt 159.612393 -284.823482
vt 159.945727 -285.025383
vt 159.857716 -284.911493
vt 159.789705 -284.823482
vt 160.003019 -285.099523
vt 156.945727 -284.575490
vt 156.945727 -284.490149
vt 156.908752 -284.527124
vt 156.881089 -284.490149
vt 156.891475 -284.504525
vt 157.279060 -284.490149
vt 157.053172 -284.716037
vt 157.093776 -284.769149
vt 157.097107 -284.773482
vt 157.612393 -284.490149
vt 157.945727 -284.490149
vt 158.279060 -284.490149
vt 158.612393 -284.490149
vt 158.945727 -284.490149
vt 159.279060 -284.490149
vt 159.612393 -284.594032
vt 159.573595 -284.543825
vt 159.567110 -284.535433
vt 159.532116 -284.490149
vt 159.712413 -284.723463
vt 156.945727 -284.156816
vt 156.771374 -284.331168
vt 156.858198 -284.458465
vt 156.652455 -284.156816
vt 157.279060 -284.156816
vt 157.612393 -284.156816
vt 157.945727 -284.156816
vt 158.279060 -284.156816
vt 158.612393 -284.156816
vt 158.945727 -284.156816
vt 159.279060 -284.162680
vt 159.276504 -284.159372
vt 159.274528 -284.156816
vt 159.421807 -284.347402
vt 156.612393 -284.098079
vt 156.612393 -283.823482
vt 156.501047 -283.934829
vt 156.425102 -283.823482
vt 156.482765 -283.908025
vt 156.945727 -283.823482
vt 156.636210 -284.132999
vt 157.279060 -283.823482
vt 157.612393 -283.823482
vt 157.945727 -283.823482
vt 158.279060 -283.823482
vt 158.612393 -283.823482
vt 158.945727 -283.823482
vt 159.131200 -283.971342
vt 159.016940 -283.823482
vt 156.279060 -283.609364
vt 156.279060 -283.490149
vt 156.230719 -283.538490
vt 156.197748 -283.490149
vt 156.612393 -283.490149
vt 156.365883 -283.736659
vt 156.295048 -283.632805
vt 156.945727 -283.490149
vt 157.279060 -283.490149
vt 157.612393 -283.490149
vt 157.945727 -283.490149
vt 158.279060 -283.490149
vt 158.612393 -283.490149
vt 158.945727 -283.731329
vt 158.840594 -283.595282
vt 158.760446 -283.491565
vt 158.759363 -283.490149
vt 158.985897 -283.783312
vt 156.279060 -283.156816
vt 156.095556 -283.340320
vt 156.107331 -283.357585
vt 155.970394 -283.156816
vt 156.612393 -283.156816
vt 156.945727 -283.156816
vt 157.279060 -283.156816
vt 157.612393 -283.156816
vt 157.945727 -283.156816
vt 158.279060 -283.156816
vt 158.612393 -283.297902
vt 158.577065 -283.251691
vt 158.552919 -283.216290
vt 158.512355 -283.156816
vt 158.695687 -283.406856
vt 155.945727 -283.120649
vt 155.945727 -282.823482
vt 155.825228 -282.943981
vt 155.743041 -282.823482
vt 156.279060 -282.823482
vt 155.960392 -283.142151
vt 156.612393 -282.823482
vt 156.945727 -282.823482
vt 157.279060 -282.823482
vt 157.612393 -282.823482
vt 157.945727 -282.823482
vt 158.279060 -282.823482
vt 158.417756 -283.018120
vt 158.405363 -282.999951
vt 158.285001 -282.823482
vt 155.612393 -282.631934
vt 155.612393 -282.490149
vt 155.554901 -282.547642
vt 155.515687 -282.490149
vt 155.544181 -282.531925
vt 155.945727 -282.490149
vt 155.690064 -282.745811
vt 155.731898 -282.807145
vt 156.279060 -282.490149
vt 156.612393 -282.490149
vt 156.945727 -282.490149
vt 157.279060 -282.490149
vt 157.612393 -282.490149
vt 157.945727 -282.490149
vt 158.279060 -282.814772
vt 158.217646 -282.724731
vt 158.147428 -282.621781
vt 158.057648 -282.490149
vt 158.282592 -282.819950
vt 155.612393 -282.156816
vt 155.419737 -282.349472
vt 155.288334 -282.156816
vt 155.945727 -282.156816
vt 156.279060 -282.156816
vt 156.612393 -282.156816
vt 156.945727 -282.156816
vt 157.279060 -282.156816
vt 157.612393 -282.156816
vt 157.945727 -282.326057
vt 157.877101 -282.225442
vt 157.842213 -282.174291
vt 157.830294 -282.156816
vt 158.029930 -282.449511
vt 158.012265 -282.423611
vt 155.279060 -281.823482
vt 155.149410 -281.953133
vt 155.168748 -281.981485
vt 155.279060 -282.143219
vt 155.060980 -281.823482
vt 155.612393 -281.823482
vt 155.284573 -282.151302
vt 155.945727 -281.823482
vt 156.279060 -281.823482
vt 156.612393 -281.823482
vt 156.945727 -281.823482
vt 157.279060 -281.823482
vt 157.612393 -281.837342
vt 157.606773 -281.829102
vt 157.602940 -281.823482
vt 157.741937 -282.027272
vt 157.654496 -281.899071
vt 154.945727 -281.654504
vt 154.945727 -281.490149
vt 154.879082 -281.556794
vt 154.833627 -281.490149
vt 155.279060 -281.490149
vt 155.014246 -281.754963
vt 154.981031 -281.706265
vt 155.612393 -281.490149
vt 155.945727 -281.490149
vt 156.279060 -281.490149
vt 156.612393 -281.490149
vt 156.945727 -281.490149
vt 157.279060 -281.490149
vt 157.471610 -281.630933
vt 157.466780 -281.623851
vt 157.375587 -281.490149
vt 154.612393 -281.165789
vt 154.612393 -281.156816
vt 154.608755 -281.160454
vt 154.606273 -281.156816
vt 154.945727 -281.156816
vt 154.743919 -281.358624
vt 154.793314 -281.431045
vt 155.279060 -281.156816
vt 155.612393 -281.156816
vt 155.945727 -281.156816
vt 156.279060 -281.156816
vt 156.612393 -281.156816
vt 156.945727 -281.156816
vt 157.279060 -281.348627
vt 157.201282 -281.234593
vt 157.148233 -281.156816
vt 157.336446 -281.432763
vt 157.279063 -281.348631
vt 154.612393 -280.823482
vt 154.473591 -280.962285
vt 154.605598 -281.155826
vt 154.378920 -280.823482
vt 154.417881 -280.880606
vt 154.945727 -280.823482
vt 155.279060 -280.823482
vt 155.612393 -280.823482
vt 155.945727 -280.823482
vt 156.279060 -280.823482
vt 156.612393 -280.823482
vt 156.945727 -280.859911
vt 156.930955 -280.838254
vt 156.920880 -280.823482
vt 157.091346 -281.073411
vt 157.066119 -281.036424
vt 154.279060 -280.677074
vt 154.279060 -280.490149
vt 154.203264 -280.565945
vt 154.151566 -280.490149
vt 154.612393 -280.490149
vt 154.338427 -280.764115
vt 154.945727 -280.490149
vt 155.279060 -280.490149
vt 155.612393 -280.490149
vt 155.945727 -280.490149
vt 156.279060 -280.490149
vt 156.612393 -280.490149
vt 156.795791 -280.640084
vt 156.715913 -280.522971
vt 156.693526 -280.490149
vt 153.945727 -280.188359
vt 153.945727 -280.156816
vt 153.932936 -280.169606
vt 153.924213 -280.156816
vt 154.279060 -280.156816
vt 154.068100 -280.367776
vt 154.042448 -280.330166
vt 154.612393 -280.156816
vt 154.945727 -280.156816
vt 155.279060 -280.156816
vt 155.612393 -280.156816
vt 155.945727 -280.156816
vt 156.279060 -280.156816
vt 156.612393 -280.371196
vt 156.528196 -280.247751
vt 156.525464 -280.243745
vt 156.466173 -280.156816
vt 156.660628 -280.441915
vt 153.945727 -279.823482
vt 153.797773 -279.971436
vt 153.854731 -280.054946
vt 153.696859 -279.823482
vt 154.279060 -279.823482
vt 154.612393 -279.823482
vt 154.945727 -279.823482
vt 155.279060 -279.823482
vt 155.612393 -279.823482
vt 155.945727 -279.823482
vt 156.279060 -279.882481
vt 156.255136 -279.847406
vt 156.238819 -279.823482
vt 156.390300 -280.045576
vt 153.612393 -279.699643
vt 153.612393 -279.490149
vt 153.527445 -279.575097
vt 153.469505 -279.490149
vt 153.945727 -279.490149
vt 153.662609 -279.773267
vt 153.667014 -279.779726
vt 154.279060 -279.490149
vt 154.612393 -279.490149
vt 154.945727 -279.490149
vt 155.279060 -279.490149
vt 155.612393 -279.490149
vt 155.945727 -279.490149
vt 156.119973 -279.649236
vt 156.011466 -279.490149
vt 153.279060 -279.210928
vt 153.279060 -279.156816
vt 153.257118 -279.178758
vt 153.242152 -279.156816
vt 153.612393 -279.156816
vt 153.392281 -279.376928
vt 153.291581 -279.229286
vt 153.945727 -279.156816
vt 154.279060 -279.156816
vt 154.612393 -279.156816
vt 154.945727 -279.156816
vt 155.279060 -279.156816
vt 155.612393 -279.156816
vt 155.945727 -279.393766
vt 155.849645 -279.252897
vt 155.784112 -279.156816
vt 155.984809 -279.451067
vt 155.965046 -279.422091
vt 153.279060 -278.823482
vt 153.121954 -278.980588
vt 153.014798 -278.823482
vt 153.103864 -278.954066
vt 153.612393 -278.823482
vt 153.945727 -278.823482
vt 154.279060 -278.823482
vt 154.612393 -278.823482
vt 154.945727 -278.823482
vt 155.279060 -278.823482
vt 155.612393 -278.905051
vt 155.589613 -278.871651
vt 155.579318 -278.856558
vt 155.556759 -278.823482
vt 155.714482 -279.054727
vt 152.945727 -278.722213
vt 152.945727 -278.490149
vt 152.851627 -278.584249
vt 152.787445 -278.490149
vt 153.279060 -278.490149
vt 152.986790 -278.782419
vt 153.612393 -278.490149
vt 153.945727 -278.490149
vt 154.279060 -278.490149
vt 154.612393 -278.490149
vt 154.945727 -278.490149
vt 155.279060 -278.490149
vt 155.444154 -278.658388
vt 155.401896 -278.596431
vt 155.329405 -278.490149
vt 152.945727 -278.156816
vt 152.716463 -278.386079
vt 152.728431 -278.403626
vt 152.612393 -278.156816
vt 152.612393 -278.233498
vt 153.279060 -278.156816
vt 153.612393 -278.156816
vt 153.945727 -278.156816
vt 154.279060 -278.156816
vt 154.612393 -278.156816
vt 154.945727 -278.156816
vt 155.279060 -278.416336
vt 155.214179 -278.321211
vt 155.173827 -278.262049
vt 155.102051 -278.156816
vt 155.308991 -278.460219
vt 152.945727 -277.823482
vt 152.612393 -277.823482
vt 153.279060 -277.823482
vt 153.612393 -277.823482
vt 153.945727 -277.823482
vt 154.279060 -277.823482
vt 154.612393 -277.823482
vt 154.945727 -277.927621
vt 154.903499 -277.865710
vt 154.874698 -277.823482
vt 155.038663 -278.063879
vt 152.945727 -277.490149
vt 152.612393 -277.490149
vt 153.279060 -277.490149
vt 153.612393 -277.490149
vt 153.945727 -277.490149
vt 154.279060 -277.490149
vt 154.612393 -277.490149
vt 154.768336 -277.667540
vt 154.651029 -277.495551
vt 154.647344 -277.490149
vt 152.945727 -277.156816
vt 152.612393 -277.156816
vt 153.279060 -277.156816
vt 153.612393 -277.156816
vt 153.945727 -277.156816
vt 154.279060 -277.156816
vt 154.612393 -277.438906
vt 154.498008 -277.271201
vt 154.463312 -277.220331
vt 154.419991 -277.156816
vt 154.633172 -277.469370
vt 152.945727 -276.823482
vt 152.612393 -276.823482
vt 153.279060 -276.823482
vt 153.612393 -276.823482
vt 153.945727 -276.823482
vt 154.279060 -276.950191
vt 154.275596 -276.945111
vt 154.227681 -276.874861
vt 154.192637 -276.823482
vt 154.362845 -277.073031
vt 152.945727 -276.490149
vt 152.612393 -276.490149
vt 153.279060 -276.490149
vt 153.612393 -276.490149
vt 153.945727 -276.490149
vt 154.092517 -276.676692
vt 154.087879 -276.669891
vt 153.965284 -276.490149
vt 152.945727 -276.156816
vt 152.612393 -276.156816
vt 153.279060 -276.156816
vt 153.612393 -276.156816
vt 153.945727 -276.461476
vt 153.900162 -276.394671
vt 153.822190 -276.280353
vt 153.737930 -276.156816
vt 153.957354 -276.478522
vt 152.945727 -275.823482
vt 152.612393 -275.823482
vt 153.279060 -275.823482
vt 153.612393 -275.972760
vt 153.551862 -275.884013
vt 153.524729 -275.844231
vt 153.510577 -275.823482
vt 153.712445 -276.119451
vt 153.687026 -276.082183
vt 152.945727 -275.490149
vt 152.612393 -275.490149
vt 153.279060 -275.490149
vt 153.416699 -275.685844
vt 153.337012 -275.569011
vt 153.283223 -275.490149
vt 152.945727 -275.156816
vt 152.612393 -275.156816
vt 153.279060 -275.484045
vt 153.149295 -275.293791
vt 153.146371 -275.289504
vt 153.055870 -275.156816
vt 153.281535 -275.487674
vt 152.945727 -274.995330
vt 152.876044 -274.893165
vt 152.612393 -274.823482
vt 152.828516 -274.823482
vt 153.011208 -275.091335
vt 152.961579 -275.018571
vt 152.773862 -274.743351
vt 152.740880 -274.694996
vt 152.612393 -274.506615
f 3/3 2/2 1/1
f 4/4 3/3 1/1
f 5/5 4/4 1/1
f 6/6 2/2 3/3
f 1/1 8/8 7/7
f 1/1 2/2 8/8
f 7/7 10/10 9/9
f 7/7 8/8 10/10
f 9/9 12/12 11/11
f 9/9 10/10 12/12
f 11/11 14/14 13/13
f 11/11 12/12 14/14
f 13/13 16/16 15/15
f 13/13 14/14 16/16
f 15/15 18/18 17/17
f 15/15 16/16 18/18
f 17/17 20/20 19/19
f 17/17 18/18 20/20
f 22/22 21/21 19/19
f 23/23 22/22 19/19
f 23/23 19/19 20/20
f 24/24 23/23 20/20
f 25/25 24/24 20/20
f 28/28 27/27 26/26
f 29/29 27/27 28/28
f 31/31 30/30 2/2
f 6/6 31/31 2/2
f 26/26 27/27 30/30
f 32/32 26/26 30/30
f 31/31 32/32 30/30
f 2/2 33/33 8/8
f 2/2 30/30 33/33
f 8/8 34/34 10/10
f 8/8 33/33 34/34
f 10/10 35/35 12/12
f 10/10 34/34 35/35
f 12/12 36/36 14/14
f 12/12 35/35 36/36
f 14/14 37/37 16/16
f 14/14 36/36 37/37
f 16/16 38/38 18/18
f 16/16 37/37 38/38
f 39/39 20/20 18/18
f 40/40 39/39 18/18
f 40/40 18/18 38/38
f 41/41 40/40 38/38
f 42/42 41/41 38/38
f 25/25 20/20 43/43
f 43/43 20/20 39/39
f 46/46 45/45 44/44
f 47/47 45/45 46/46
f 49/49 48/48 27/27
f 29/29 49/49 27/27
f 44/44 45/45 48/48
f 49/49 44/44 48/48
f 27/27 50/50 30/30
f 27/27 48/48 50/50
f 30/30 51/51 33/33
f 30/30 50/50 51/51
f 33/33 52/52 34/34
f 33/33 51/51 52/52
f 34/34 53/53 35/35
f 34/34 52/52 53/53
f 35/35 54/54 36/36
f 35/35 53/53 54/54
f 36/36 55/55 37/37
f 36/36 54/54 55/55
f 56/56 38/38 37/37
f 57/57 56/56 37/37
f 58/58 57/57 37/37
f 58/58 37/37 55/55
f 59/59 58/58 55/55
f 42/42 38/38 60/60
f 60/60 38/38 56/56
f 63/63 62/62 61/61
f 64/64 62/62 63/63
f 66/66 65/65 45/45
f 47/47 66/66 45/45
f 61/61 62/62 65/65
f 67/67 61/61 65/65
f 66/66 67/67 65/65
f 45/45 68/68 48/48
f 45/45 65/65 68/68
f 48/48 69/69 50/50
f 48/48 68/68 69/69
f 50/50 70/70 51/51
f 50/50 69/69 70/70
f 51/51 71/71 52/52
f 51/51 70/70 71/71
f 52/52 72/72 53/53
f 52/52 71/71 72/72
f 53/53 73/73 54/54
f 53/53 72/72 73/73
f 74/74 55/55 54/54
f 75/75 74/74 54/54
f 75/75 54/54 73/73
f 76/76 75/75 73/73
f 59/59 55/55 77/77
f 77/77 55/55 74/74
f 80/80 79/79 78/78
f 81/81 79/79 80/80
f 83/83 82/82 62/62
f 64/64 83/83 62/62
f 78/78 79/79 82/82
f 83/83 78/78 82/82
f 62/62 84/84 65/65
f 62/62 82/82 84/84
f 65/65 85/85 68/68
f 65/65 84/84 85/85
f 68/68 86/86 69/69
f 68/68 85/85 86/86
f 69/69 87/87 70/70
f 69/69 86/86 87/87
f 70/70 88/88 71/71
f 70/70 87/87 88/88
f 71/71 89/89 72/72
f 71/71 88/88 89/89
f 90/90 73/73 72/72
f 91/91 90/90 72/72
f 92/92 91/91 72/72
f 92/92 72/72 89/89
f 93/93 92/92 89/89
f 94/94 76/76 73/73
f 95/95 94/94 73/73
f 95/95 73/73 90/90
f 97/97 96/96 79/79
f 81/81 97/97 79/79
f 99/99 98/98 96/96
f 97/97 99/99 96/96
f 79/79 100/100 82/82
f 79/79 96/96 100/100
f 82/82 101/101 84/84
f 82/82 100/100 101/101
f 84/84 102/102 85/85
f 84/84 101/101 102/102
f 85/85 103/103 86/86
f 85/85 102/102 103/103
f 86/86 104/104 87/87
f 86/86 103/103 104/104
f 87/87 105/105 88/88
f 87/87 104/104 105/105
f 88/88 106/106 89/89
f 88/88 105/105 106/106
f 93/93 89/89 107/107
f 107/107 89/89 106/106
f 108/108 107/107 106/106
f 111/111 110/110 109/109
f 112/112 110/110 111/111
f 114/114 113/113 96/96
f 98/98 114/114 96/96
f 109/109 110/110 113/113
f 114/114 109/109 113/113
f 96/96 115/115 100/100
f 96/96 113/113 115/115
f 100/100 116/116 101/101
f 100/100 115/115 116/116
f 101/101 117/117 102/102
f 101/101 116/116 117/117
f 102/102 118/118 103/103
f 102/102 117/117 118/118
f 103/103 119/119 104/104
f 103/103 118/118 119/119
f 104/104 120/120 105/105
f 104/104 119/119 120/120
f 121/121 106/106 105/105
f 122/122 121/121 105/105
f 123/123 122/122 105/105
f 123/123 105/105 120/120
f 124/124 123/123 120/120
f 108/108 106/106 125/125
f 125/125 106/106 121/121
f 128/128 127/127 126/126
f 129/129 127/127 128/128
f 131/131 130/130 110/110
f 112/112 131/131 110/110
f 126/126 127/127 130/130
f 131/131 126/126 130/130
f 110/110 132/132 113/113
f 110/110 130/130 132/132
f 113/113 133/133 115/115
f 113/113 132/132 133/133
f 115/115 134/134 116/116
f 115/115 133/133 134/134
f 116/116 135/135 117/117
f 116/116 134/134 135/135
f 117/117 136/136 118/118
f 117/117 135/135 136/136
f 118/118 137/137 119/119
f 118/118 136/136 137/137
f 138/138 120/120 119/119
f 139/139 138/138 119/119
f 139/139 119/119 137/137
f 140/140 139/139 137/137
f 124/124 120/120 141/141
f 142/142 141/141 120/120
f 138/138 142/142 120/120
f 145/145 144/144 143/143
f 146/146 144/144 145/145
f 148/148 147/147 127/127
f 149/149 148/148 127/127
f 129/129 149/149 127/127
f 143/143 144/144 147/147
f 148/148 143/143 147/147
f 127/127 150/150 130/130
f 127/127 147/147 150/150
f 130/130 151/151 132/132
f 130/130 150/150 151/151
f 132/132 152/152 133/133
f 132/132 151/151 152/152
f 133/133 153/153 134/134
f 133/133 152/152 153/153
f 134/134 154/154 135/135
f 134/134 153/153 154/154
f 135/135 155/155 136/136
f 135/135 154/154 155/155
f 156/156 137/137 136/136
f 157/157 156/156 136/136
f 157/157 136/136 155/155
f 158/158 157/157 155/155
f 140/140 137/137 159/159
f 159/159 137/137 156/156
f 161/161 160/160 144/144
f 146/146 161/161 144/144
f 162/162 160/160 161/161
f 144/144 163/163 147/147
f 144/144 160/160 163/163
f 147/147 164/164 150/150
f 147/147 163/163 164/164
f 150/150 165/165 151/151
f 150/150 164/164 165/165
f 151/151 166/166 152/152
f 151/151 165/165 166/166
f 152/152 167/167 153/153
f 152/152 166/166 167/167
f 153/153 168/168 154/154
f 153/153 167/167 168/168
f 154/154 169/169 155/155
f 154/154 168/168 169/169
f 158/158 155/155 170/170
f 170/170 155/155 169/169
f 171/171 170/170 169/169
f 172/172 171/171 169/169
f 175/175 174/174 173/173
f 176/176 174/174 175/175
f 178/178 177/177 160/160
f 162/162 178/178 160/160
f 173/173 174/174 177/177
f 178/178 173/173 177/177
f 160/160 179/179 163/163
f 160/160 177/177 179/179
f 163/163 180/180 164/164
f 163/163 179/179 180/180
f 164/164 181/181 165/165
f 164/164 180/180 181/181
f 165/165 182/182 166/166
f 165/165 181/181 182/182
f 166/166 183/183 167/167
f 166/166 182/182 183/183
f 167/167 184/184 168/168
f 167/167 183/183 184/184
f 185/185 169/169 168/168
f 186/186 185/185 168/168
f 187/187 186/186 168/168
f 187/187 168/168 184/184
f 188/188 187/187 184/184
f 172/172 169/169 189/189
f 189/189 169/169 185/185
f 192/192 191/191 190/190
f 193/193 191/191 192/192
f 195/195 194/194 174/174
f 176/176 195/195 174/174
f 190/190 191/191 194/194
f 196/196 190/190 194/194
f 195/195 196/196 194/194
f 174/174 197/197 177/177
f 174/174 194/194 197/197
f 177/177 198/198 179/179
f 177/177 197/197 198/198
f 179/179 199/199 180/180
f 179/179 198/198 199/199
f 180/180 200/200 181/181
f 180/180 199/199 200/200
f 181/181 201/201 182/182
f 181/181 200/200 201/201
f 182/182 202/202 183/183
f 182/182 201/201 202/202
f 203/203 184/184 183/183
f 204/204 203/203 183/183
f 204/204 183/183 202/202
f 205/205 204/204 202/202
f 188/188 184/184 206/206
f 206/206 184/184 203/203
f 209/209 208/208 207/207
f 210/210 208/208 209/209
f 211/211 210/210 209/209
f 213/213 212/212 191/191
f 214/214 213/213 191/191
f 215/215 214/214 191/191
f 193/193 215/215 191/191
f 207/207 208/208 212/212
f 213/213 207/207 212/212
f 191/191 216/216 194/194
f 191/191 212/212 216/216
f 194/194 217/217 197/197
f 194/194 216/216 217/217
f 197/197 218/218 198/198
f 197/197 217/217 218/218
f 198/198 219/219 199/199
f 198/198 218/218 219/219
f 199/199 220/220 200/200
f 199/199 219/219 220/220
f 200/200 221/221 201/201
f 200/200 220/220 221/221
f 222/222 202/202 201/201
f 223/223 222/222 201/201
f 224/224 223/223 201/201
f 224/224 201/201 221/221
f 225/225 224/224 221/221
f 205/205 202/202 226/226
f 226/226 202/202 222/222
f 228/228 227/227 208/208
f 229/229 228/228 208/208
f 210/210 229/229 208/208
f 230/230 227/227 228/228
f 208/208 231/231 212/212
f 208/208 227/227 231/231
f 212/212 232/232 216/216
f 212/212 231/231 232/232
f 216/216 233/233 217/217
f 216/216 232/232 233/233
f 217/217 234/234 218/218
f 217/217 233/233 234/234
f 218/218 235/235 219/219
f 218/218 234/234 235/235
f 219/219 236/236 220/220
f 219/219 235/235 236/236
f 237/237 221/221 220/220
f 238/238 237/237 220/220
f 238/238 220/220 236/236
f 239/239 238/238 236/236
f 225/225 221/221 240/240
f 240/240 221/221 237/237
f 243/243 242/242 241/241
f 245/245 244/244 242/242
f 243/243 245/245 242/242
f 247/247 246/246 227/227
f 230/230 247/247 227/227
f 241/241 242/242 246/246
f 247/247 241/241 246/246
f 227/227 248/248 231/231
f 227/227 246/246 248/248
f 231/231 249/249 232/232
f 231/231 248/248 249/249
f 232/232 250/250 233/233
f 232/232 249/249 250/250
f 233/233 251/251 234/234
f 233/233 250/250 251/251
f 234/234 252/252 235/235
f 234/234 251/251 252/252
f 235/235 253/253 236/236
f 235/235 252/252 253/253
f 239/239 236/236 254/254
f 254/254 236/236 253/253
f 255/255 254/254 253/253
f 258/258 257/257 256/256
f 259/259 257/257 258/258
f 261/261 260/260 242/242
f 244/244 261/261 242/242
f 256/256 257/257 260/260
f 262/262 256/256 260/260
f 261/261 262/262 260/260
f 242/242 263/263 246/246
f 242/242 260/260 263/263
f 246/246 264/264 248/248
f 246/246 263/263 264/264
f 248/248 265/265 249/249
f 248/248 264/264 265/265
f 249/249 266/266 250/250
f 249/249 265/265 266/266
f 250/250 267/267 251/251
f 250/250 266/266 267/267
f 251/251 268/268 252/252
f 251/251 267/267 268/268
f 269/269 253/253 252/252
f 270/270 269/269 252/252
f 270/270 252/252 268/268
f 271/271 270/270 268/268
f 272/272 271/271 268/268
f 255/255 253/253 273/273
f 273/273 253/253 269/269
f 275/275 274/274 257/257
f 276/276 275/275 257/257
f 259/259 276/276 257/257
f 277/277 274/274 275/275
f 257/257 278/278 260/260
f 257/257 274/274 278/278
f 260/260 279/279 263/263
f 260/260 278/278 279/279
f 263/263 280/280 264/264
f 263/263 279/279 280/280
f 264/264 281/281 265/265
f 264/264 280/280 281/281
f 265/265 282/282 266/266
f 265/265 281/281 282/282
f 266/266 283/283 267/267
f 266/266 282/282 283/283
f 284/284 268/268 267/267
f 285/285 284/284 267/267
f 286/286 285/285 267/267
f 286/286 267/267 283/283
f 287/287 286/286 283/283
f 272/272 268/268 288/288
f 288/288 268/268 284/284
f 291/291 290/290 289/289
f 292/292 290/290 291/291
f 294/294 293/293 274/274
f 277/277 294/294 274/274
f 289/289 290/290 293/293
f 294/294 289/289 293/293
f 274/274 295/295 278/278
f 274/274 293/293 295/295
f 278/278 296/296 279/279
f 278/278 295/295 296/296
f 279/279 297/297 280/280
f 279/279 296/296 297/297
f 280/280 298/298 281/281
f 280/280 297/297 298/298
f 281/281 299/299 282/282
f 281/281 298/298 299/299
f 282/282 300/300 283/283
f 282/282 299/299 300/300
f 287/287 283/283 301/301
f 301/301 283/283 300/300
f 302/302 301/301 300/300
f 303/303 302/302 300/300
f 306/306 305/305 304/304
f 308/308 307/307 305/305
f 306/306 308/308 305/305
f 310/310 309/309 290/290
f 311/311 310/310 290/290
f 292/292 311/311 290/290
f 304/304 305/305 309/309
f 310/310 304/304 309/309
f 290/290 312/312 293/293
f 290/290 309/309 312/312
f 293/293 313/313 295/295
f 293/293 312/312 313/313
f 295/295 314/314 296/296
f 295/295 313/313 314/314
f 296/296 315/315 297/297
f 296/296 314/314 315/315
f 297/297 316/316 298/298
f 297/297 315/315 316/316
f 298/298 317/317 299/299
f 298/298 316/316 317/317
f 318/318 300/300 299/299
f 319/319 318/318 299/299
f 320/320 319/319 299/299
f 320/320 299/299 317/317
f 321/321 320/320 317/317
f 303/303 300/300 322/322
f 322/322 300/300 318/318
f 324/324 323/323 305/305
f 307/307 324/324 305/305
f 325/325 323/323 324/324
f 305/305 326/326 309/309
f 305/305 323/323 326/326
f 309/309 327/327 312/312
f 309/309 326/326 327/327
f 312/312 328/328 313/313
f 312/312 327/327 328/328
f 313/313 329/329 314/314
f 313/313 328/328 329/329
f 314/314 330/330 315/315
f 314/314 329/329 330/330
f 315/315 331/331 316/316
f 315/315 330/330 331/331
f 332/332 317/317 316/316
f 333/333 332/332 316/316
f 333/333 316/316 331/331
f 334/334 333/333 331/331
f 335/335 334/334 331/331
f 336/336 321/321 317/317
f 337/337 336/336 317/317
f 337/337 317/317 332/332
f 340/340 339/339 338/338
f 341/341 340/340 338/338
f 342/342 338/338 339/339
f 344/344 343/343 323/323
f 325/325 344/344 323/323
f 341/341 338/338 343/343
f 344/344 341/341 343/343
f 323/323 345/345 326/326
f 323/323 343/343 345/345
f 326/326 346/346 327/327
f 326/326 345/345 346/346
f 327/327 347/347 328/328
f 327/327 346/346 347/347
f 328/328 348/348 329/329
f 328/328 347/347 348/348
f 329/329 349/349 330/330
f 329/329 348/348 349/349
f 350/350 331/331 330/330
f 351/351 350/350 330/330
f 351/351 330/330 349/349
f 352/352 351/351 349/349
f 335/335 331/331 353/353
f 354/354 353/353 331/331
f 350/350 354/354 331/331
f 357/357 356/356 355/355
f 358/358 356/356 357/357
f 360/360 359/359 338/338
f 342/342 360/360 338/338
f 355/355 356/356 359/359
f 361/361 355/355 359/359
f 360/360 361/361 359/359
f 338/338 362/362 343/343
f 338/338 359/359 362/362
f 343/343 363/363 345/345
f 343/343 362/362 363/363
f 345/345 364/364 346/346
f 345/345 363/363 364/364
f 346/346 365/365 347/347
f 346/346 364/364 365/365
f 347/347 366/366 348/348
f 347/347 365/365 366/366
f 348/348 367/367 349/349
f 348/348 366/366 367/367
f 352/352 349/349 368/368
f 368/368 349/349 367/367
f 369/369 368/368 367/367
f 370/370 369/369 367/367
f 373/373 372/372 371/371
f 374/374 372/372 373/373
f 376/376 375/375 356/356
f 377/377 376/376 356/356
f 358/358 377/377 356/356
f 371/371 372/372 375/375
f 376/376 371/371 375/375
f 356/356 378/378 359/359
f 356/356 375/375 378/378
f 359/359 379/379 362/362
f 359/359 378/378 379/379
f 362/362 380/380 363/363
f 362/362 379/379 380/380
f 363/363 381/381 364/364
f 363/363 380/380 381/381
f 364/364 382/382 365/365
f 364/364 381/381 382/382
f 365/365 383/383 366/366
f 365/365 382/382 383/383
f 384/384 367/367 366/366
f 385/385 384/384 366/366
f 385/385 366/366 383/383
f 386/386 385/385 383/383
f 370/370 367/367 387/387
f 388/388 387/387 367/367
f 384/384 388/388 367/367
f 390/390 389/389 372/372
f 391/391 390/390 372/372
f 374/374 391/391 372/372
f 393/393 392/392 389/389
f 390/390 393/393 389/389
f 372/372 394/394 375/375
f 372/372 389/389 394/394
f 375/375 395/395 378/378
f 375/375 394/394 395/395
f 378/378 396/396 379/379
f 378/378 395/395 396/396
f 379/379 397/397 380/380
f 379/379 396/396 397/397
f 380/380 398/398 381/381
f 380/380 397/397 398/398
f 381/381 399/399 382/382
f 381/381 398/398 399/399
f 400/400 383/383 382/382
f 401/401 400/400 382/382
f 401/401 382/382 399/399
f 402/402 401/401 399/399
f 403/403 386/386 383/383
f 404/404 403/403 383/383
f 404/404 383/383 400/400
f 407/407 406/406 405/405
f 408/408 406/406 407/407
f 410/410 409/409 389/389
f 392/392 410/410 389/389
f 405/405 406/406 409/409
f 410/410 405/405 409/409
f 389/389 411/411 394/394
f 389/389 409/409 411/411
f 394/394 412/412 395/395
f 394/394 411/411 412/412
f 395/395 413/413 396/396
f 395/395 412/412 413/413
f 396/396 414/414 397/397
f 396/396 413/413 414/414
f 397/397 415/415 398/398
f 397/397 414/414 415/415
f 398/398 416/416 399/399
f 398/398 415/415 416/416
f 402/402 399/399 417/417
f 417/417 399/399 416/416
f 418/418 417/417 416/416
f 419/419 418/418 416/416
f 422/422 421/421 420/420
f 423/423 421/421 422/422
f 425/425 424/424 406/406
f 408/408 425/425 406/406
f 420/420 421/421 424/424
f 426/426 420/420 424/424
f 425/425 426/426 424/424
f 406/406 427/427 409/409
f 406/406 424/424 427/427
f 409/409 428/428 411/411
f 409/409 427/427 428/428
f 411/411 429/429 412/412
f 411/411 428/428 429/429
f 412/412 430/430 413/413
f 412/412 429/429 430/430
f 413/413 431/431 414/414
f 413/413 430/430 431/431
f 414/414 432/432 415/415
f 414/414 431/431 432/432
f 433/433 416/416 415/415
f 434/434 433/433 415/415
f 435/435 434/434 415/415
f 435/435 415/415 432/432
f 436/436 435/435 432/432
f 419/419 416/416 437/437
f 437/437 416/416 433/433
f 439/439 438/438 421/421
f 440/440 439/439 421/421
f 423/423 440/440 421/421
f 441/441 438/438 439/439
f 421/421 442/442 424/424
f 421/421 438/438 442/442
f 424/424 443/443 427/427
f 424/424 442/442 443/443
f 427/427 444/444 428/428
f 427/427 443/443 444/444
f 428/428 445/445 429/429
f 428/428 444/444 445/445
f 429/429 446/446 430/430
f 429/429 445/445 446/446
f 430/430 447/447 431/431
f 430/430 446/446 447/447
f 448/448 432/432 431/431
f 449/449 448/448 431/431
f 449/449 431/431 447/447
f 450/450 449/449 447/447
f 436/436 432/432 451/451
f 451/451 432/432 448/448
f 454/454 453/453 452/452
f 455/455 453/453 454/454
f 457/457 456/456 438/438
f 458/458 457/457 438/438
f 441/441 458/458 438/438
f 452/452 453/453 456/456
f 457/457 452/452 456/456
f 438/438 459/459 442/442
f 438/438 456/456 459/459
f 442/442 460/460 443/443
f 442/442 459/459 460/460
f 443/443 461/461 444/444
f 443/443 460/460 461/461
f 444/444 462/462 445/445
f 444/444 461/461 462/462
f 445/445 463/463 446/446
f 445/445 462/462 463/463
f 446/446 464/464 447/447
f 446/446 463/463 464/464
f 450/450 447/447 465/465
f 465/465 447/447 464/464
f 466/466 465/465 464/464
f 469/469 468/468 467/467
f 470/470 468/468 469/469
f 472/472 471/471 453/453
f 455/455 472/472 453/453
f 467/467 468/468 471/471
f 473/473 467/467 471/471
f 472/472 473/473 471/471
f 453/453 474/474 456/456
f 453/453 471/471 474/474
f 456/456 475/475 459/459
f 456/456 474/474 475/475
f 459/459 476/476 460/460
f 459/459 475/475 476/476
f 460/460 477/477 461/461
f 460/460 476/476 477/477
f 461/461 478/478 462/462
f 461/461 477/477 478/478
f 462/462 479/479 463/463
f 462/462 478/478 479/479
f 480/480 464/464 463/463
f 481/481 480/480 463/463
f 481/481 463/463 479/479
f 482/482 481/481 479/479
f 466/466 464/464 483/483
f 484/484 483/483 464/464
f 480/480 484/484 464/464
f 486/486 485/485 468/468
f 470/470 486/486 468/468
f 488/488 487/487 485/485
f 486/486 488/488 485/485
f 468/468 489/489 471/471
f 468/468 485/485 489/489
f 471/471 490/490 474/474
f 471/471 489/489 490/490
f 474/474 491/491 475/475
f 474/474 490/490 491/491
f 475/475 492/492 476/476
f 475/475 491/491 492/492
f 476/476 493/493 477/477
f 476/476 492/492 493/493
f 477/477 494/494 478/478
f 477/477 493/493 494/494
f 495/495 479/479 478/478
f 496/496 495/495 478/478
f 497/497 496/496 478/478
f 497/497 478/478 494/494
f 498/498 497/497 494/494
f 482/482 479/479 499/499
f 499/499 479/479 495/495
f 502/502 501/501 500/500
f 503/503 501/501 502/502
f 505/505 504/504 485/485
f 487/487 505/505 485/485
f 500/500 501/501 504/504
f 505/505 500/500 504/504
f 485/485 506/506 489/489
f 485/485 504/504 506/506
f 489/489 507/507 490/490
f 489/489 506/506 507/507
f 490/490 508/508 491/491
f 490/490 507/507 508/508
f 491/491 509/509 492/492
f 491/491 508/508 509/509
f 492/492 510/510 493/493
f 492/492 509/509 510/510
f 493/493 511/511 494/494
f 493/493 510/510 511/511
f 498/498 494/494 512/512
f 512/512 494/494 511/511
f 513/513 512/512 511/511
f 514/514 513/513 511/511
f 516/516 515/515 501/501
f 517/517 516/516 501/501
f 503/503 517/517 501/501
f 519/519 518/518 515/515
f 516/516 519/519 515/515
f 501/501 520/520 504/504
f 501/501 515/515 520/520
f 504/504 521/521 506/506
f 504/504 520/520 521/521
f 506/506 522/522 507/507
f 506/506 521/521 522/522
f 507/507 523/523 508/508
f 507/507 522/522 523/523
f 508/508 524/524 509/509
f 508/508 523/523 524/524
f 509/509 525/525 510/510
f 509/509 524/524 525/525
f 526/526 511/511 510/510
f 527/527 526/526 510/510
f 528/528 527/527 510/510
f 528/528 510/510 525/525
f 529/529 528/528 525/525
f 514/514 511/511 530/530
f 530/530 511/511 526/526
f 518/518 531/531 515/515
f 518/518 532/532 531/531
f 515/515 533/533 520/520
f 515/515 531/531 533/533
f 520/520 534/534 521/521
f 520/520 533/533 534/534
f 521/521 535/535 522/522
f 521/521 534/534 535/535
f 522/522 536/536 523/523
f 522/522 535/535 536/536
f 523/523 537/537 524/524
f 523/523 536/536 537/537
f 538/538 525/525 524/524
f 539/539 538/538 524/524
f 539/539 524/524 537/537
f 540/540 539/539 537/537
f 529/529 525/525 541/541
f 541/541 525/525 538/538
f 532/532 542/542 531/531
f 532/532 543/543 542/542
f 531/531 544/544 533/533
f 531/531 542/542 544/544
f 533/533 545/545 534/534
f 533/533 544/544 545/545
f 534/534 546/546 535/535
f 534/534 545/545 546/546
f 535/535 547/547 536/536
f 535/535 546/546 547/547
f 536/536 548/548 537/537
f 536/536 547/547 548/548
f 540/540 537/537 549/549
f 549/549 537/537 548/548
f 550/550 549/549 548/548
f 551/551 550/550 548/548
f 543/543 552/552 542/542
f 543/543 553/553 552/552
f 542/542 554/554 544/544
f 542/542 552/552 554/554
f 544/544 555/555 545/545
f 544/544 554/554 555/555
f 545/545 556/556 546/546
f 545/545 555/555 556/556
f 546/546 557/557 547/547
f 546/546 556/556 557/557
f 558/558 548/548 547/547
f 559/559 558/558 547/547
f 559/559 547/547 557/557
f 560/560 559/559 557/557
f 561/561 560/560 557/557
f 551/551 548/548 562/562
f 562/562 548/548 558/558
f 553/553 563/563 552/552
f 553/553 564/564 563/563
f 552/552 565/565 554/554
f 552/552 563/563 565/565
f 554/554 566/566 555/555
f 554/554 565/565 566/566
f 555/555 567/567 556/556
f 555/555 566/566 567/567
f 568/568 557/557 556/556
f 569/569 568/568 556/556
f 570/570 569/569 556/556
f 570/570 556/556 567/567
f 571/571 570/570 567/567
f 561/561 557/557 572/572
f 572/572 557/557 568/568
f 564/564 573/573 563/563
f 564/564 574/574 573/573
f 563/563 575/575 565/565
f 563/563 573/573 575/575
f 565/565 576/576 566/566
f 565/565 575/575 576/576
f 566/566 577/577 567/567
f 566/566 576/576 577/577
f 571/571 567/567 578/578
f 578/578 567/567 577/577
f 579/579 578/578 577/577
f 580/580 579/579 577/577
f 574/574 581/581 573/573
f 574/574 582/582 581/581
f 573/573 583/583 575/575
f 573/573 581/581 583/583
f 575/575 584/584 576/576
f 575/575 583/583 584/584
f 585/585 577/577 576/576
f 586/586 585/585 576/576
f 587/587 586/586 576/576
f 587/587 576/576 584/584
f 588/588 587/587 584/584
f 580/580 577/577 589/589
f 589/589 577/577 585/585
f 582/582 590/590 581/581
f 582/582 591/591 590/590
f 581/581 592/592 583/583
f 581/581 590/590 592/592
f 593/593 584/584 583/583
f 594/594 593/593 583/583
f 594/594 583/583 592/592
f 595/595 594/594 592/592
f 596/596 595/595 592/592
f 597/597 588/588 584/584
f 598/598 597/597 584/584
f 598/598 584/584 593/593
f 591/591 599/599 590/590
f 591/591 600/600 599/599
f 590/590 601/601 592/592
f 590/590 599/599 601/601
f 596/596 592/592 602/602
f 602/602 592/592 601/601
f 603/603 602/602 601/601
f 604/604 603/603 601/601
f 600/600 605/605 599/599
f 600/600 606/606 605/605
f 607/607 601/601 599/599
f 608/608 607/607 599/599
f 609/609 608/608 599/599
f 609/609 599/599 605/605
f 610/610 609/609 605/605
f 604/604 601/601 611/611
f 611/611 601/601 607/607
f 612/612 605/605 606/606
f 613/613 612/612 606/606
f 613/613 606/606 614/614
f 615/615 613/613 614/614
f 610/610 605/605 616/616
f 617/617 616/616 605/605
f 612/612 617/617 605/605
f 618/618 615/615 614/614
f 619/619 618/618 614/614
f 619/619 614/614 620/620
