# OSM contributors ODbL; elevations USGS 3DEP
# Centimeters, Z up, OBJ Y = negative source ENU Y. Apply source-to-world placement.
o EastsideTrail_Concrete_7_12
v 23189.145325 32547.001054 -37.625000
v 23189.145325 32498.029823 -37.625000
v 23179.914971 32507.260177 -37.841336
v 23177.771097 32498.029823 -37.847153
v 23255.811991 32564.696489 -36.062500
v 23255.811991 32498.029823 -36.062500
v 23192.480653 32561.361161 -37.546828
v 23193.255328 32564.696489 -37.528672
v 23322.478658 32564.696489 -35.020833
v 23322.478658 32498.029823 -35.541667
v 23389.145325 32564.696489 -33.979167
v 23389.145325 32498.029823 -33.979167
v 23455.811991 32564.696489 -29.552083
v 23455.811991 32498.029823 -25.125000
v 23522.478658 32564.696489 -15.229167
v 23522.478658 32498.029823 -8.458333
v 23589.145325 32564.696489 1.437500
v 23589.145325 32498.029823 2.479167
v 23617.783626 32536.058188 1.325632
v 23624.435257 32564.696489 3.091716
v 23613.610579 32518.091322 1.687869
v 23608.951025 32498.029823 2.092337
v 23189.145325 32431.363156 -38.145833
v 23167.349288 32453.159192 -38.401256
v 23162.286865 32431.363156 -38.565497
v 23255.811991 32431.363156 -37.104167
v 23322.478658 32431.363156 -36.322917
v 23389.145325 32431.363156 -34.239583
v 23455.811991 32431.363156 -21.479167
v 23522.478658 32431.363156 -1.687500
v 23589.145325 32431.363156 4.041667
v 23605.217943 32481.957204 2.416383
v 23593.466794 32431.363156 3.923501
v 23189.145325 32364.696489 -38.145833
v 23154.783606 32399.058208 -38.682735
v 23159.337359 32418.664191 -38.611583
v 23146.802634 32364.696489 -38.972839
v 23255.811991 32364.696489 -37.364583
v 23322.478658 32364.696489 -36.583333
v 23389.145325 32364.696489 -34.760417
v 23455.811991 32364.696489 -18.875000
v 23522.478658 32364.696489 7.166667
v 23589.145325 32412.757264 6.004007
v 23580.086578 32373.755236 9.339016
v 23577.982562 32364.696489 10.418849
v 23592.652261 32427.856220 4.356743
v 23189.145325 32298.029823 -37.885417
v 23142.217923 32344.957224 -38.985278
v 23144.282937 32353.848049 -38.979675
v 23131.318402 32298.029823 -39.466622
v 23255.811991 32298.029823 -37.104167
v 23322.478658 32298.029823 -36.583333
v 23389.145325 32298.029823 -32.937500
v 23455.811991 32298.029823 -11.843750
v 23522.478658 32298.029823 12.114583
v 23567.520896 32319.654252 12.621000
v 23562.498331 32298.029823 13.990505
v 23122.478658 32259.970699 -39.857002
v 23122.478658 32231.363156 -39.968750
v 23117.086558 32236.755256 -39.989813
v 23115.834171 32231.363156 -40.020660
v 23189.145325 32231.363156 -38.145833
v 23129.652241 32290.856240 -39.540202
v 23255.811991 32231.363156 -37.625000
v 23322.478658 32231.363156 -37.104167
v 23389.145325 32231.363156 -27.729167
v 23455.811991 32231.363156 -0.906250
v 23522.478658 32231.363156 13.937500
v 23554.955213 32265.553267 13.890645
v 23553.392889 32258.826751 14.031853
v 23547.014099 32231.363156 14.608391
v 23122.478658 32164.696489 -40.229167
v 23104.520876 32182.654271 -40.299314
v 23100.349939 32164.696489 -40.402047
v 23189.145325 32164.696489 -38.406250
v 23255.811991 32164.696489 -38.145833
v 23322.478658 32164.696489 -37.104167
v 23389.145325 32164.696489 -25.125000
v 23455.811991 32164.696489 3.520833
v 23522.478658 32164.696489 14.718750
v 23542.389531 32211.452283 14.637492
v 23531.529868 32164.696489 14.930888
v 23122.478658 32098.029823 -40.489583
v 23091.955194 32128.553287 -40.608816
v 23099.119670 32159.399620 -40.432350
v 23084.865708 32098.029823 -40.930360
v 23189.145325 32098.029823 -39.447917
v 23255.811991 32098.029823 -38.927083
v 23322.478658 32098.029823 -37.625000
v 23389.145325 32098.029823 -26.427083
v 23455.811991 32098.029823 2.479167
v 23522.478658 32125.726909 15.023200
v 23517.258166 32103.250315 14.321919
v 23516.045636 32098.029823 14.008263
v 23529.823849 32157.351299 14.948287
v 23122.478658 32031.363156 -40.229167
v 23079.389511 32074.452303 -40.902435
v 23084.065248 32094.583478 -40.926278
v 23069.381476 32031.363156 -41.473632
v 23189.145325 32031.363156 -39.708333
v 23255.811991 32031.363156 -39.447917
v 23322.478658 32031.363156 -37.885417
v 23389.145325 32031.363156 -27.729167
v 23455.811991 32031.363156 -2.208333
v 23504.692484 32049.149330 11.262380
v 23500.561405 32031.363156 8.979020
v 23055.811991 31972.940345 -41.791667
v 23055.811991 31964.696489 -41.791667
v 23054.258146 31966.250334 -41.815945
v 23053.897245 31964.696489 -41.821585
v 23053.956403 31964.951192 -41.820660
v 23122.478658 31964.696489 -40.489583
v 23066.823829 32020.351319 -41.576592
v 23189.145325 31964.696489 -40.229167
v 23255.811991 31964.696489 -39.968750
v 23322.478658 31964.696489 -36.322917
v 23389.145325 31964.696489 -18.093750
v 23455.811991 31964.696489 5.083333
v 23493.175200 31999.562180 7.877804
v 23492.126801 31995.048346 7.721497
v 23485.077174 31964.696489 9.884652
v 23055.811991 31898.029823 -42.052083
v 23041.692464 31912.149350 -42.217547
v 23038.413013 31898.029823 -42.255978
v 23122.478658 31898.029823 -41.010417
v 23189.145325 31898.029823 -41.010417
v 23255.811991 31898.029823 -40.489583
v 23322.478658 31898.029823 -33.979167
v 23389.145325 31898.029823 -7.416667
v 23455.811991 31898.029823 13.416667
v 23479.561119 31940.947362 9.536295
v 23469.592942 31898.029823 14.277976
v 23055.811991 31831.363156 -42.312500
v 23029.126781 31858.048366 -42.520978
v 23022.928782 31831.363156 -42.697850
v 23122.478658 31831.363156 -41.531250
v 23189.145325 31831.363156 -41.531250
v 23255.811991 31831.363156 -40.750000
v 23322.478658 31831.363156 -31.375000
v 23389.145325 31831.363156 -1.687500
v 23455.811991 31838.696555 15.270831
v 23454.429754 31832.745393 15.024856
v 23454.108711 31831.363156 15.060873
v 23466.995436 31886.846378 14.203003
v 23055.811991 31764.696489 -42.312500
v 23016.561099 31803.947382 -42.772471
v 23007.444551 31764.696489 -43.446112
v 23122.478658 31764.696489 -41.531250
v 23189.145325 31764.696489 -42.052083
v 23255.811991 31764.696489 -40.750000
v 23322.478658 31764.696489 -27.208333
v 23389.145325 31764.696489 3.260417
v 23448.011933 31805.113752 13.899194
v 23441.864071 31778.644409 12.727782
v 23438.624479 31764.696489 13.117592
v 23055.811991 31698.029823 -43.614583
v 23003.995417 31749.846397 -43.816992
v 22991.960319 31698.029823 -44.861686
v 22993.738714 31705.686621 -44.707315
v 23122.478658 31698.029823 -43.093750
v 23189.145325 31698.029823 -42.572917
v 23255.811991 31698.029823 -40.229167
v 23322.478658 31698.029823 -21.739583
v 23389.145325 31698.029823 7.427083
v 23429.298389 31724.543425 11.730204
v 23423.140248 31698.029823 12.473205
v 22989.145325 31685.909990 -45.011353
v 22989.145325 31631.363156 -45.437500
v 22978.864052 31641.644429 -45.477661
v 22976.476088 31631.363156 -45.585968
v 23055.811991 31631.363156 -44.135417
v 22991.429734 31695.745413 -44.889896
v 23122.478658 31631.363156 -43.875000
v 23189.145325 31631.363156 -43.093750
v 23255.811991 31631.363156 -36.583333
v 23322.478658 31631.363156 -7.156250
v 23389.145325 31631.363156 14.458333
v 23416.732707 31670.442441 12.060901
v 23407.656016 31631.363156 15.615252
v 22989.145325 31564.696489 -45.697917
v 22966.298369 31587.543445 -45.876409
v 22960.991856 31564.696489 -46.027840
v 23055.811991 31564.696489 -44.395833
v 23122.478658 31564.696489 -44.135417
v 23189.145325 31564.696489 -43.093750
v 23255.811991 31564.696489 -35.541667
v 23322.478658 31564.696489 -6.895833
v 23389.145325 31564.696489 14.979167
v 23404.167024 31616.341456 15.631904
v 23402.848666 31610.665324 15.583551
v 23392.171785 31564.696489 15.191965
v 22989.145325 31498.029823 -46.218750
v 22953.732687 31533.442460 -46.357081
v 22945.507625 31498.029823 -46.559670
v 23055.811991 31498.029823 -44.656250
v 23122.478658 31498.029823 -44.395833
v 23189.145325 31498.029823 -43.093750
v 23255.811991 31498.029823 -34.239583
v 23322.478658 31498.029823 -6.895833
v 23389.145325 31551.666200 15.030066
v 23387.794244 31545.849181 14.609465
v 23379.035659 31508.139488 11.882859
v 23376.687553 31498.029823 11.103214
v 23391.601342 31562.240472 15.190231
v 22989.145325 31431.363156 -46.479167
v 22941.167004 31479.341476 -46.666582
v 22930.023393 31431.363156 -47.402947
v 22933.521024 31446.422051 -47.171825
v 23055.811991 31431.363156 -45.697917
v 23122.478658 31431.363156 -44.916667
v 23189.145325 31431.363156 -43.093750
v 23255.811991 31431.363156 -30.072917
v 23322.478658 31431.363156 0.395833
v 23366.469977 31454.038504 9.772752
v 23361.203322 31431.363156 10.833340
v 22922.478658 31398.879636 -47.647722
v 22922.478658 31364.696489 -47.781250
v 22916.035640 31371.139508 -47.756082
v 22914.539162 31364.696489 -47.874291
v 22989.145325 31364.696489 -46.479167
v 22928.601322 31425.240492 -47.425167
v 23055.811991 31364.696489 -46.218750
v 23122.478658 31364.696489 -45.177083
v 23189.145325 31364.696489 -41.791667
v 23255.811991 31364.696489 -23.562500
v 23322.478658 31364.696489 6.645833
v 23353.904294 31399.937519 9.848076
v 23345.719090 31364.696489 11.457329
v 22922.478658 31298.029823 -48.041667
v 22903.469957 31317.038523 -48.190172
v 22899.054930 31298.029823 -48.499161
v 22989.145325 31298.029823 -46.218750
v 23055.811991 31298.029823 -46.218750
v 23122.478658 31298.029823 -45.437500
v 23189.145325 31298.029823 -39.187500
v 23255.811991 31298.029823 -17.312500
v 23322.478658 31298.029823 8.468750
v 23341.338612 31345.836535 10.476761
v 23330.234859 31298.029823 9.832145
v 22922.478658 31231.363156 -48.302083
v 22890.904275 31262.937539 -48.795433
v 22883.570699 31231.363156 -49.213989
v 22888.357757 31251.973623 -48.940773
v 22989.145325 31231.363156 -46.739583
v 23055.811991 31231.363156 -46.739583
v 23122.478658 31231.363156 -45.437500
v 23189.145325 31231.363156 -37.364583
v 23255.811991 31231.363156 -14.447917
v 23322.478658 31264.635846 9.120976
v 23316.207247 31237.634567 7.223073
v 23314.750628 31231.363156 6.963385
v 23328.772930 31291.735551 9.575165
v 23327.576554 31286.584610 9.488836
v 22922.478658 31164.696489 -48.302083
v 22878.338592 31208.836555 -49.336616
v 22868.086467 31164.696489 -50.001839
v 22989.145325 31164.696489 -47.260417
v 23055.811991 31164.696489 -47.000000
v 23122.478658 31164.696489 -45.177083
v 23189.145325 31164.696489 -32.156250
v 23255.811991 31164.696489 -1.947917
v 23303.641565 31183.533583 7.598527
v 23299.266396 31164.696489 9.934147
v 22855.811991 31111.849281 -50.798285
v 22855.811991 31098.029823 -50.906250
v 22853.207227 31100.634587 -50.926600
v 22852.602236 31098.029823 -50.968941
v 22922.478658 31098.029823 -48.562500
v 22865.772910 31154.735571 -50.113048
v 22989.145325 31098.029823 -47.781250
v 23055.811991 31098.029823 -47.520833
v 23122.478658 31098.029823 -44.656250
v 23189.145325 31098.029823 -24.343750
v 23255.811991 31098.029823 7.947917
v 23291.075882 31129.432598 8.934300
v 23283.782165 31098.029823 12.427515
v 22855.811991 31031.363156 -50.906250
v 22840.641545 31046.533602 -51.202548
v 22837.118004 31031.363156 -51.417414
v 22922.478658 31031.363156 -48.562500
v 22989.145325 31031.363156 -47.781250
v 23055.811991 31031.363156 -47.520833
v 23122.478658 31031.363156 -42.312500
v 23189.145325 31031.363156 -14.447917
v 23255.811991 31031.363156 13.677083
v 23282.413287 31092.136182 12.208280
v 23278.510200 31075.331614 11.583177
v 23268.297933 31031.363156 14.603774
v 22855.811991 30964.696489 -50.645833
v 22828.075863 30992.432618 -51.512587
v 22828.140068 30992.709052 -51.511912
v 22821.633773 30964.696489 -51.847411
v 22922.478658 30964.696489 -48.562500
v 22989.145325 30964.696489 -48.302083
v 23055.811991 30964.696489 -47.260417
v 23122.478658 30964.696489 -33.718750
v 23189.145325 30964.696489 1.177083
v 23255.811991 30977.605491 16.616956
v 23253.378835 30967.129646 16.163366
v 23252.813702 30964.696489 16.596768
v 23265.944517 31021.230630 14.547847
v 22855.811991 30898.029823 -50.906250
v 22815.510180 30938.331634 -52.165682
v 22806.149542 30898.029823 -52.652196
v 22922.478658 30898.029823 -49.083333
v 22989.145325 30898.029823 -48.562500
v 23055.811991 30898.029823 -47.000000
v 23122.478658 30898.029823 -29.031250
v 23189.145325 30898.029823 6.906250
v 23240.813153 30913.028661 15.103178
v 23237.329470 30898.029823 15.752558
v 22855.811991 30831.363156 -50.906250
v 22802.944498 30884.230650 -52.764873
v 22790.665310 30831.363156 -53.451042
v 22922.478658 30831.363156 -49.343750
v 22989.145325 30831.363156 -48.822917
v 23055.811991 30831.363156 -47.000000
v 23122.478658 30831.363156 -27.468750
v 23189.145325 30831.363156 9.250000
v 23228.247470 30858.927677 15.307102
v 23222.195598 30832.871611 15.135689
v 23221.845239 30831.363156 15.125766
v 22789.145325 30824.818927 -53.510417
v 22789.145325 30764.696489 -53.510417
v 22777.813133 30776.028681 -53.776015
v 22775.181079 30764.696489 -53.892252
v 22855.811991 30764.696489 -50.645833
v 22790.378815 30830.129665 -53.457415
v 22922.478658 30764.696489 -49.604167
v 22989.145325 30764.696489 -49.083333
v 23055.811991 30764.696489 -46.739583
v 23122.478658 30764.696489 -20.697917
v 23189.145325 30764.696489 15.500000
v 23215.681788 30804.826693 14.640219
v 23206.361007 30764.696489 17.382965
v 22789.145325 30698.029823 -52.989583
v 22765.247450 30721.927697 -53.829743
v 22767.922379 30733.444481 -53.846575
v 22759.696847 30698.029823 -54.139914
v 22855.811991 30698.029823 -50.385417
v 22922.478658 30698.029823 -49.864583
v 22989.145325 30698.029823 -49.083333
v 23055.811991 30698.029823 -44.916667
v 23122.478658 30698.029823 -13.927083
v 23189.145325 30698.029823 18.104167
v 23203.116105 30750.725709 16.864334
v 23190.876776 30698.029823 18.205619
v 22789.145325 30631.363156 -52.989583
v 22752.681768 30667.826713 -54.413941
v 22752.867956 30668.628338 -54.406668
v 22744.212616 30631.363156 -54.744767
v 22855.811991 30631.363156 -50.645833
v 22922.478658 30631.363156 -49.864583
v 22989.145325 30631.363156 -48.822917
v 23055.811991 30631.363156 -35.281250
v 23122.478658 30631.363156 0.916667
v 23189.145325 30690.575137 18.249766
v 23177.984740 30642.523740 13.825958
v 23177.032331 30638.423183 14.474828
v 23175.392544 30631.363156 15.592002
v 23190.550423 30696.624724 18.170031
v 22789.145325 30564.696489 -52.729167
v 22740.116086 30613.725728 -54.835892
v 22728.728384 30564.696489 -55.089203
v 22855.811991 30564.696489 -50.906250
v 22922.478658 30564.696489 -50.125000
v 22989.145325 30564.696489 -48.041667
v 23055.811991 30564.696489 -28.250000
v 23122.478658 30564.696489 6.385417
v 23165.419058 30588.422756 12.490446
v 23161.977908 30573.607040 13.060582
v 23159.908313 30564.696489 13.403477
v 22722.478658 30537.788572 -55.228224
v 22722.478658 30498.029823 -55.072917
v 22714.984721 30505.523760 -55.336375
v 22713.244153 30498.029823 -55.397567
v 22789.145325 30498.029823 -52.468750
v 22727.550403 30559.624744 -55.115407
v 22722.759112 30538.996053 -55.221986
v 22855.811991 30498.029823 -51.166667
v 22922.478658 30498.029823 -50.385417
v 22989.145325 30498.029823 -47.260417
v 23055.811991 30498.029823 -24.083333
v 23122.478658 30498.029823 8.729167
v 23152.853376 30534.321772 11.962025
v 23144.424082 30498.029823 11.986690
v 22722.478658 30431.363156 -54.812500
v 22702.419038 30451.422776 -55.596079
v 22707.704689 30474.179910 -55.499150
v 22697.759921 30431.363156 -55.778076
v 22789.145325 30431.363156 -52.468750
v 22855.811991 30431.363156 -51.427083
v 22922.478658 30431.363156 -50.385417
v 22989.145325 30431.363156 -44.135417
v 23055.811991 30431.363156 -17.052083
v 23122.478658 30431.363156 11.072917
v 23140.287693 30480.220787 11.094429
v 23131.869064 30443.974755 11.546572
v 23128.939850 30431.363156 11.703892
v 22722.478658 30364.696489 -54.812500
v 22689.853356 30397.321791 -56.086926
v 22682.275690 30364.696489 -56.382928
v 22789.145325 30364.696489 -52.729167
v 22855.811991 30364.696489 -51.427083
v 22922.478658 30364.696489 -50.385417
v 22989.145325 30364.696489 -40.750000
v 23055.811991 30364.696489 -10.281250
v 23122.478658 30403.544782 10.094927
v 23116.814641 30379.158612 6.848094
v 23115.156328 30372.018819 5.897484
v 23113.455619 30364.696489 6.156191
v 23127.722011 30426.119803 10.950026
v 22722.478658 30298.029823 -55.072917
v 22677.287673 30343.220807 -56.661662
v 22666.791458 30298.029823 -57.030670
v 22789.145325 30298.029823 -53.510417
v 22855.811991 30298.029823 -51.947917
v 22922.478658 30298.029823 -50.385417
v 22989.145325 30298.029823 -44.395833
v 23055.811991 30298.029823 -23.302083
v 23102.590646 30317.917835 -11.925812
v 23097.971387 30298.029823 -16.549993
v 22655.811991 30251.806706 -57.236108
v 22655.811991 30231.363156 -57.156250
v 22651.845405 30235.329743 -57.295700
v 22650.890507 30231.363156 -57.348495
v 22722.478658 30231.363156 -54.552083
v 22664.721991 30289.119823 -57.033815
v 22662.732013 30280.552063 -57.078081
v 22789.145325 30231.363156 -53.250000
v 22855.811991 30231.363156 -52.208333
v 22922.478658 30231.363156 -50.645833
v 22989.145325 30231.363156 -47.781250
v 23055.811991 30231.363156 -41.270833
v 23090.024963 30263.816851 -28.380571
v 23082.487156 30231.363156 -38.040638
v 22655.811991 30164.696489 -56.635417
v 22638.172660 30182.335821 -57.462260
v 22647.932040 30219.073859 -57.368050
v 22633.486810 30164.696489 -57.594702
v 22722.478658 30164.696489 -54.552083
v 22789.145325 30164.696489 -53.510417
v 22855.811991 30164.696489 -52.468750
v 22922.478658 30164.696489 -50.906250
v 22989.145325 30164.696489 -47.520833
v 23055.811991 30164.696489 -40.489583
v 23077.459281 30209.715866 -38.987721
v 23071.651374 30184.710184 -39.239177
v 23071.263615 30183.070578 -39.256315
v 23066.840324 30164.696489 -39.455677
v 22655.811991 30098.029823 -56.635417
v 22624.179941 30129.661873 -57.994606
v 22631.479106 30157.138725 -57.680970
v 22615.776956 30098.029823 -58.199285
v 22722.478658 30098.029823 -54.812500
v 22789.145325 30098.029823 -54.031250
v 22855.811991 30098.029823 -52.989583
v 22922.478658 30098.029823 -51.166667
v 22989.145325 30098.029823 -46.739583
v 23055.811991 30118.885458 -39.057989
v 23055.691123 30118.383377 -39.055046
v 23054.484634 30113.617558 -39.033362
v 23051.491512 30102.350302 -38.996941
v 23050.343786 30098.029823 -39.089776
v 23064.700537 30155.807944 -39.447957
v 22655.811991 30031.363156 -57.156250
v 22610.187222 30076.987926 -58.582024
v 22614.395034 30092.827742 -58.293908
v 22598.067101 30031.363156 -59.186344
v 22722.478658 30031.363156 -55.333333
v 22789.145325 30031.363156 -54.552083
v 22855.811991 30031.363156 -53.510417
v 22922.478658 30031.363156 -50.645833
v 22989.145325 30031.363156 -45.177083
v 23037.498792 30049.676355 -40.317638
v 23037.400561 30049.306576 -40.319716
v 23032.633931 30031.363156 -40.420517
v 22589.145325 29997.778177 -59.631191
v 22589.145325 29964.696489 -59.760417
v 22582.201783 29971.640031 -59.923156
v 22580.336493 29964.696489 -60.001283
v 22580.669510 29965.871968 -59.987586
v 22655.811991 29964.696489 -57.677083
v 22596.194502 30024.313978 -59.307249
v 22597.310962 30028.516760 -59.235164
v 22722.478658 29964.696489 -56.375000
v 22789.145325 29964.696489 -55.333333
v 22855.811991 29964.696489 -54.031250
v 22922.478658 29964.696489 -49.864583
v 22989.145325 29964.696489 -43.354167
v 23023.506073 29997.002407 -40.747768
v 23020.316489 29984.995593 -40.743399
v 23014.924077 29964.696489 -40.736012
v 22589.145325 29898.029823 -60.281250
v 22567.563732 29919.611415 -60.702765
v 22561.405506 29898.029823 -61.039761
v 22563.192315 29904.181261 -60.942844
v 22655.811991 29898.029823 -58.197917
v 22722.478658 29898.029823 -57.156250
v 22789.145325 29898.029823 -56.375000
v 22855.811991 29898.029823 -54.812500
v 22922.478658 29898.029823 -49.864583
v 22989.145325 29898.029823 -43.354167
v 23009.513354 29944.328460 -41.205976
v 23003.232417 29920.684611 -41.868419
v 22997.214222 29898.029823 -42.503150
v 22589.145325 29831.363156 -60.802083
v 22552.643515 29867.864965 -61.515009
v 22542.040829 29831.363156 -61.906095
v 22544.825117 29840.948609 -61.803395
v 22655.811991 29831.363156 -58.979167
v 22722.478658 29831.363156 -57.937500
v 22789.145325 29831.363156 -57.416667
v 22855.811991 29831.363156 -54.291667
v 22922.478658 29831.363156 -48.041667
v 22989.145325 29867.655407 -42.167666
v 22986.148345 29856.373628 -42.019645
v 22985.235810 29853.048739 -41.978882
v 22981.311545 29839.196936 -41.821025
v 22979.092208 29831.363156 -41.849560
v 22995.520635 29891.654513 -42.358024
v 22589.145325 29764.696489 -61.322917
v 22537.637607 29816.204207 -62.127725
v 22522.676152 29764.696489 -62.621143
v 22526.263978 29777.048279 -62.502819
v 22655.811991 29764.696489 -59.760417
v 22722.478658 29764.696489 -58.979167
v 22789.145325 29764.696489 -57.937500
v 22855.811991 29764.696489 -52.729167
v 22922.478658 29764.696489 -43.875000
v 22966.587952 29787.253862 -39.426570
v 22967.099185 29789.030386 -39.523324
v 22966.715730 29787.693762 -39.450398
v 22960.035708 29764.696489 -38.886954
v 22522.478658 29698.029823 -62.885417
v 22507.625789 29712.882691 -63.175512
v 22507.702839 29713.147950 -63.172670
v 22522.478658 29764.016579 -62.627656
v 22503.311474 29698.029823 -63.259776
v 22589.145325 29698.029823 -61.583333
v 22522.631698 29764.543449 -62.622609
v 22655.811991 29698.029823 -60.541667
v 22722.478658 29698.029823 -59.760417
v 22789.145325 29698.029823 -57.677083
v 22855.811991 29698.029823 -49.083333
v 22922.478658 29698.029823 -38.666667
v 22951.582043 29735.593104 -38.304430
v 22948.154591 29723.793433 -37.770847
v 22940.671031 29698.029823 -36.605812
v 22522.478658 29631.363156 -63.406250
v 22492.619881 29661.221933 -63.756158
v 22483.946797 29631.363156 -64.309340
v 22589.145325 29631.363156 -62.104167
v 22655.811991 29631.363156 -61.583333
v 22722.478658 29631.363156 -60.541667
v 22789.145325 29631.363156 -57.156250
v 22855.811991 29631.363156 -46.739583
v 22922.478658 29635.399041 -36.220152
v 22921.570226 29632.271588 -36.239928
v 22921.306354 29631.363156 -36.250252
v 22936.576135 29683.932346 -36.574072
v 22522.478658 29564.696489 -64.187500
v 22477.613972 29609.561175 -64.713258
v 22464.582120 29564.696489 -65.770608
v 22589.145325 29564.696489 -62.885417
v 22655.811991 29564.696489 -62.364583
v 22722.478658 29564.696489 -61.062500
v 22789.145325 29564.696489 -56.114583
v 22855.811991 29564.696489 -46.218750
v 22906.564318 29580.610830 -39.007784
v 22901.941677 29564.696489 -39.551569
v 22455.811991 29498.029823 -67.052083
v 22447.602155 29506.239659 -67.020014
v 22452.019423 29521.446961 -66.730635
v 22455.811991 29534.503617 -66.482180
v 22445.217443 29498.029823 -67.134853
v 22522.478658 29498.029823 -64.708333
v 22462.608064 29557.900417 -65.877681
v 22589.145325 29498.029823 -63.927083
v 22655.811991 29498.029823 -63.406250
v 22722.478658 29498.029823 -61.583333
v 22789.145325 29498.029823 -55.854167
v 22855.811991 29498.029823 -45.958333
v 22892.471174 29532.092444 -40.792993
v 22891.558409 29528.950072 -40.912641
v 22882.576999 29498.029823 -42.089953
v 22455.811991 29431.363156 -67.833333
v 22432.596246 29454.578901 -67.742647
v 22433.458284 29457.546632 -67.701134
v 22425.852765 29431.363156 -68.067390
v 22522.478658 29431.363156 -66.270833
v 22589.145325 29431.363156 -65.489583
v 22655.811991 29431.363156 -64.708333
v 22722.478658 29431.363156 -62.625000
v 22789.145325 29431.363156 -55.854167
v 22855.811991 29431.363156 -45.177083
v 22876.552500 29477.289314 -42.312541
v 22873.910035 29468.192115 -42.639462
v 22863.212322 29431.363156 -43.962967
v 22455.811991 29364.696489 -68.093750
v 22417.590338 29402.918143 -68.243053
v 22406.488088 29364.696489 -68.671764
v 22522.478658 29364.696489 -66.791667
v 22589.145325 29364.696489 -66.531250
v 22655.811991 29364.696489 -65.750000
v 22722.478658 29364.696489 -63.927083
v 22789.145325 29364.696489 -56.114583
v 22855.811991 29405.886079 -44.878524
v 22855.348897 29404.291785 -44.934008
v 22846.540683 29373.967798 -45.989339
v 22843.847645 29364.696489 -46.498941
v 22861.546592 29425.628556 -44.101846
v 22389.145325 29304.990655 -69.341452
v 22389.145325 29298.029823 -69.395833
v 22387.578521 29299.596627 -69.389713
v 22387.123411 29298.029823 -69.395833
v 22455.811991 29298.029823 -68.354167
v 22402.584429 29351.257385 -68.770007
v 22396.336006 29329.745973 -69.035697
v 22522.478658 29298.029823 -67.572917
v 22589.145325 29298.029823 -67.833333
v 22655.811991 29298.029823 -66.791667
v 22722.478658 29298.029823 -63.145833
v 22789.145325 29298.029823 -53.770833
v 22831.534775 29322.307039 -47.007475
v 22824.482967 29298.029823 -47.421101
v 22389.145325 29231.363156 -70.177083
v 22372.572612 29247.935869 -69.982872
v 22377.774867 29265.845643 -69.772992
v 22367.758733 29231.363156 -70.260625
v 22455.811991 29231.363156 -69.916667
v 22522.478658 29231.363156 -69.656250
v 22589.145325 29231.363156 -69.135417
v 22655.811991 29231.363156 -67.312500
v 22722.478658 29231.363156 -61.322917
v 22789.145325 29231.363156 -51.166667
v 22818.226619 29276.491126 -48.040475
v 22816.528866 29270.646281 -48.208552
v 22805.118290 29231.363156 -48.546102
v 22389.145325 29164.696489 -70.697917
v 22357.566703 29196.275111 -70.574563
v 22359.213728 29201.945314 -70.523831
v 22348.394056 29164.696489 -71.016286
v 22455.811991 29164.696489 -70.437500
v 22522.478658 29164.696489 -70.697917
v 22589.145325 29164.696489 -70.177083
v 22655.811991 29164.696489 -67.572917
v 22722.478658 29164.696489 -60.802083
v 22789.145325 29176.373116 -50.737057
v 22786.517049 29167.324765 -51.066768
v 22785.753613 29164.696489 -51.162539
v 22801.522957 29218.985523 -48.990911
v 22389.145325 29098.029823 -71.218750
v 22342.560795 29144.614353 -71.218750
v 22329.029379 29098.029823 -72.158062
v 22340.652589 29138.044984 -71.351212
v 22455.811991 29098.029823 -71.218750
v 22522.478658 29098.029823 -71.739583
v 22589.145325 29098.029823 -70.697917
v 22655.811991 29098.029823 -68.093750
v 22722.478658 29098.029823 -59.760417
v 22781.104341 29148.690467 -50.745403
v 22771.511140 29115.664007 -49.884695
v 22766.388936 29098.029823 -50.669617
v 22322.478658 29075.477692 -72.700888
v 22322.478658 29031.363156 -73.562500
v 22312.548978 29041.292836 -73.407349
v 22309.664702 29031.363156 -73.612555
v 22389.145325 29031.363156 -73.041667
v 22327.554886 29092.953594 -72.319904
v 22455.811991 29031.363156 -72.781250
v 22522.478658 29031.363156 -72.520833
v 22589.145325 29031.363156 -71.479167
v 22655.811991 29031.363156 -68.093750
v 22722.478658 29031.363156 -53.770833
v 22756.505231 29064.003249 -46.601703
v 22747.024258 29031.363156 -46.483858
v 22322.478658 28964.696489 -75.385417
v 22297.543069 28989.632078 -74.800989
v 22303.530312 29010.244325 -74.213985
v 22290.300024 28964.696489 -75.134021
v 22389.145325 28964.696489 -75.645833
v 22455.811991 28964.696489 -74.343750
v 22522.478658 28964.696489 -73.302083
v 22589.145325 28964.696489 -72.000000
v 22655.811991 28964.696489 -66.010417
v 22722.478658 28964.696489 -47.260417
v 22741.499323 29012.342491 -45.672191
v 22727.659581 28964.696489 -45.560426
v 22322.478658 28898.029823 -75.385417
v 22282.537160 28937.971320 -75.073374
v 22284.969173 28946.343996 -75.092374
v 22270.935347 28898.029823 -75.385417
v 22389.145325 28898.029823 -75.645833
v 22455.811991 28898.029823 -74.864583
v 22522.478658 28898.029823 -74.083333
v 22589.145325 28898.029823 -71.218750
v 22655.811991 28898.029823 -59.239583
v 22722.478658 28946.860154 -45.379241
v 22711.487506 28909.020975 -44.479651
v 22708.294904 28898.029823 -44.273753
v 22726.493414 28960.681733 -45.707835
v 22725.420924 28956.989478 -45.620055
v 22255.811991 28845.964730 -76.198934
v 22255.811991 28831.363156 -76.427083
v 22252.525343 28834.649804 -76.401406
v 22251.570670 28831.363156 -76.460219
v 22322.478658 28831.363156 -75.645833
v 22267.531252 28886.310562 -75.431195
v 22266.408034 28882.443666 -75.504778
v 22389.145325 28831.363156 -75.906250
v 22455.811991 28831.363156 -75.645833
v 22522.478658 28831.363156 -74.604167
v 22589.145325 28831.363156 -70.177083
v 22655.811991 28831.363156 -56.895833
v 22696.481597 28857.360217 -45.577138
v 22688.930227 28831.363156 -46.934489
v 22255.811991 28764.696489 -77.729167
v 22237.519435 28782.989046 -77.514801
v 22247.846895 28818.543337 -76.739698
v 22232.205993 28764.696489 -77.821378
v 22322.478658 28764.696489 -77.468750
v 22389.145325 28764.696489 -77.208333
v 22455.811991 28764.696489 -76.427083
v 22522.478658 28764.696489 -75.385417
v 22589.145325 28764.696489 -70.958333
v 22655.811991 28764.696489 -55.854167
v 22688.298647 28829.188819 -46.937599
v 22681.475688 28805.699459 -46.971200
v 22669.737508 28765.288490 -50.695745
v 22669.565549 28764.696489 -50.750307
v 22255.811991 28698.029823 -78.510417
v 22222.513526 28731.328288 -78.250272
v 22229.285756 28754.643007 -77.950599
v 22212.841315 28698.029823 -78.678271
v 22322.478658 28698.029823 -79.031250
v 22389.145325 28698.029823 -78.250000
v 22455.811991 28698.029823 -76.947917
v 22522.478658 28698.029823 -76.166667
v 22589.145325 28698.029823 -70.958333
v 22655.811991 28717.347192 -52.894836
v 22651.463871 28702.377943 -52.944378
v 22651.176369 28701.388160 -53.027485
v 22650.200872 28698.029823 -53.309464
v 22666.469780 28754.038701 -51.233016
v 22255.811991 28631.363156 -79.031250
v 22207.507617 28679.667530 -78.842561
v 22210.724617 28690.742678 -78.743470
v 22193.476638 28631.363156 -79.031250
v 22322.478658 28631.363156 -79.291667
v 22389.145325 28631.363156 -78.770833
v 22455.811991 28631.363156 -77.729167
v 22522.478658 28631.363156 -76.427083
v 22589.145325 28631.363156 -67.833333
v 22636.457963 28650.717185 -53.216094
v 22632.615230 28637.487831 -53.856865
v 22630.836195 28631.363156 -54.153517
v 22189.145325 28616.451767 -79.205993
v 22189.145325 28564.696489 -79.812500
v 22177.495800 28576.346014 -79.858006
v 22174.111961 28564.696489 -79.988672
v 22255.811991 28564.696489 -79.812500
v 22192.501709 28628.006772 -79.070583
v 22192.163478 28626.842348 -79.084228
v 22322.478658 28564.696489 -80.072917
v 22389.145325 28564.696489 -79.031250
v 22455.811991 28564.696489 -77.989583
v 22522.478658 28564.696489 -74.864583
v 22589.145325 28564.696489 -63.145833
v 22621.452054 28599.056427 -55.465914
v 22614.054091 28573.587501 -55.986993
v 22611.471518 28564.696489 -56.168898
v 22189.145325 28498.029823 -81.635417
v 22162.489891 28524.685256 -81.218926
v 22173.602339 28562.942019 -80.042618
v 22154.747284 28498.029823 -81.635417
v 22155.041201 28499.041689 -81.619606
v 22255.811991 28498.029823 -81.895833
v 22322.478658 28498.029823 -81.114583
v 22389.145325 28498.029823 -79.812500
v 22455.811991 28498.029823 -78.770833
v 22522.478658 28498.029823 -73.562500
v 22589.145325 28498.029823 -58.458333
v 22606.446145 28547.395669 -56.658026
v 22595.492952 28509.687172 -57.343948
v 22592.106840 28498.029823 -57.555997
v 22189.145325 28431.363156 -81.895833
v 22147.483983 28473.024498 -81.733094
v 22135.382606 28431.363156 -82.105844
v 22255.811991 28431.363156 -82.416667
v 22322.478658 28431.363156 -81.635417
v 22389.145325 28431.363156 -80.333333
v 22455.811991 28431.363156 -79.031250
v 22522.478658 28431.363156 -73.041667
v 22589.145325 28487.834229 -57.821109
v 22576.931814 28445.786842 -57.960271
v 22576.434328 28444.074152 -57.965939
v 22572.742163 28431.363156 -58.905056
v 22591.440237 28495.734910 -57.490167
v 22189.145325 28364.696489 -82.416667
v 22132.478074 28421.363740 -82.195310
v 22122.478658 28364.696489 -82.937500
v 22122.478658 28386.938805 -82.676848
v 22255.811991 28364.696489 -82.677083
v 22322.478658 28364.696489 -81.895833
v 22389.145325 28364.696489 -80.854167
v 22455.811991 28364.696489 -79.291667
v 22522.478658 28364.696489 -71.479167
v 22561.428420 28392.413394 -58.891949
v 22558.370675 28381.886513 -59.684380
v 22553.377486 28364.696489 -60.978393
v 22189.145325 28298.029823 -83.979167
v 22122.478658 28298.029823 -83.718750
v 22255.811991 28298.029823 -83.718750
v 22322.478658 28298.029823 -82.416667
v 22389.145325 28298.029823 -81.375000
v 22455.811991 28298.029823 -78.770833
v 22522.478658 28298.029823 -66.791667
v 22546.422511 28340.752636 -61.377854
v 22539.809536 28317.986183 -62.101962
v 22534.012809 28298.029823 -62.736692
v 22189.145325 28231.363156 -85.020833
v 22122.478658 28231.363156 -84.760417
v 22255.811991 28231.363156 -84.239583
v 22322.478658 28231.363156 -82.937500
v 22389.145325 28231.363156 -81.635417
v 22455.811991 28231.363156 -77.989583
v 22522.478658 28258.321267 -64.154770
v 22521.248397 28254.085854 -64.094575
v 22516.410694 28237.431120 -63.857871
v 22514.648131 28231.363156 -64.199863
v 22531.416602 28289.091878 -63.020971
v 22189.145325 28164.696489 -85.281250
v 22122.478658 28164.696489 -84.760417
v 22255.811991 28164.696489 -84.760417
v 22322.478658 28164.696489 -83.458333
v 22389.145325 28164.696489 -81.375000
v 22455.811991 28164.696489 -75.385417
v 22502.687258 28190.185524 -64.268741
v 22501.404785 28185.770362 -64.276126
v 22495.283454 28164.696489 -65.054995
v 22189.145325 28098.029823 -86.062500
v 22122.478658 28098.029823 -85.541667
v 22255.811991 28098.029823 -85.281250
v 22322.478658 28098.029823 -83.718750
v 22389.145325 28098.029823 -79.812500
v 22455.811991 28098.029823 -71.739583
v 22486.398877 28134.109604 -65.707535
v 22484.126119 28126.285195 -65.874461
v 22475.918777 28098.029823 -66.477261
v 22189.145325 28031.363156 -86.583333
v 22122.478658 28031.363156 -87.104167
v 22255.811991 28031.363156 -85.541667
v 22322.478658 28031.363156 -82.937500
v 22389.145325 28031.363156 -76.947917
v 22455.811991 28031.363156 -67.572917
v 22471.392968 28082.448846 -66.748802
v 22465.564980 28062.384865 -66.997331
v 22456.554099 28031.363156 -67.381592
v 22189.145325 27964.696489 -86.843750
v 22122.478658 27964.696489 -88.145833
v 22255.811991 27964.696489 -85.802083
v 22322.478658 27964.696489 -82.937500
v 22389.145325 27964.696489 -75.385417
v 22455.811991 28028.808304 -67.403259
v 22447.003841 27998.484536 -66.628217
v 22441.381151 27979.127330 -66.133468
v 22437.189422 27964.696489 -66.564821
v 22456.387059 28030.788088 -67.393208
v 22189.145325 27898.029823 -87.364583
v 22122.478658 27898.029823 -88.406250
v 22255.811991 27898.029823 -86.583333
v 22322.478658 27898.029823 -85.020833
v 22389.145325 27898.029823 -77.468750
v 22426.375242 27927.466572 -67.532231
v 22417.824745 27898.029823 -70.522953
v 22189.145325 27831.363156 -87.885417
v 22122.478658 27831.363156 -89.187500
v 22255.811991 27831.363156 -87.364583
v 22322.478658 27831.363156 -85.802083
v 22389.145325 27831.363156 -76.687500
v 22411.369334 27875.805814 -71.218248
v 22409.881564 27870.683877 -71.559225
v 22398.460068 27831.363156 -74.176886
v 22189.145325 27764.696489 -88.666667
v 22122.478658 27764.696489 -89.968750
v 22255.811991 27764.696489 -88.145833
v 22322.478658 27764.696489 -85.541667
v 22389.145325 27799.295342 -75.434851
v 22381.357516 27772.484298 -75.452284
v 22379.095390 27764.696489 -75.810666
v 22396.363425 27824.145056 -74.657409
v 22391.320425 27806.783547 -75.200577
v 22189.145325 27698.029823 -89.447917
v 22122.478658 27698.029823 -90.489583
v 22255.811991 27698.029823 -88.666667
v 22322.478658 27698.029823 -85.281250
v 22366.351608 27720.823540 -77.829625
v 22359.730713 27698.029823 -78.878553
v 22189.145325 27631.363156 -89.708333
v 22122.478658 27631.363156 -91.010417
v 22255.811991 27631.363156 -87.885417
v 22322.478658 27631.363156 -82.677083
v 22354.198147 27678.982888 -79.457452
v 22351.345699 27669.162782 -79.755918
v 22340.366036 27631.363156 -79.952053
v 22189.145325 27564.696489 -89.708333
v 22122.478658 27564.696489 -91.531250
v 22255.811991 27564.696489 -86.322917
v 22322.478658 27569.782380 -79.549935
v 22321.333882 27565.841265 -79.439235
v 22321.001359 27564.696489 -79.447476
v 22336.339791 27617.502023 -79.536670
v 22189.145325 27498.029823 -89.968750
v 22122.478658 27498.029823 -92.052083
v 22255.811991 27498.029823 -85.802083
v 22306.327973 27514.180507 -79.219107
v 22301.636681 27498.029823 -79.715992
v 22189.145325 27431.363156 -89.968750
v 22122.478658 27431.363156 -92.572917
v 22255.811991 27431.363156 -84.500000
v 22298.514730 27487.281900 -79.584833
v 22291.322065 27462.519749 -79.282656
v 22282.272004 27431.363156 -80.158904
v 22189.145325 27364.696489 -90.229167
v 22122.478658 27364.696489 -93.093750
v 22255.811991 27364.696489 -83.197917
v 22276.316156 27410.858991 -80.094808
v 22262.907327 27364.696489 -81.812109
v 22189.145325 27298.029823 -91.010417
v 22122.478658 27298.029823 -93.875000
v 22255.811991 27340.269417 -83.007080
v 22246.304339 27307.537475 -83.754122
v 22243.542650 27298.029823 -84.210751
v 22261.392453 27359.481241 -81.985750
v 22261.310248 27359.198233 -81.995173
v 22189.145325 27231.363156 -92.052083
v 22122.478658 27231.363156 -94.916667
v 22231.298430 27255.876717 -84.917976
v 22224.270175 27231.680582 -86.421659
v 22224.177972 27231.363156 -86.441386
v 22189.145325 27164.696489 -91.791667
v 22122.478658 27164.696489 -97.000000
v 22216.292522 27204.215959 -86.007590
v 22205.709036 27167.780252 -88.180401
v 22204.813295 27164.696489 -88.364298
v 22189.145325 27110.756455 -88.631118
v 22187.147897 27103.879923 -88.384245
v 22186.280704 27100.894443 -88.277064
v 22122.478658 27098.029823 -95.958333
v 22185.448618 27098.029823 -88.333065
v 22201.286613 27152.555201 -87.902660
v 22171.274796 27049.233685 -85.856008
v 22122.478658 27031.363156 -94.135417
v 22168.586758 27039.979593 -86.085973
v 22166.083941 27031.363156 -86.300092
v 22156.268887 26997.572927 -86.083839
v 22122.478658 26964.696489 -92.833333
v 22150.025620 26976.079264 -87.029755
v 22146.719263 26964.696489 -87.530701
v 22141.262979 26945.912169 -87.623619
v 22122.478658 26898.029823 -91.010417
v 22131.464481 26912.178934 -89.150851
v 22127.354586 26898.029823 -89.791435
v 22126.257070 26894.251411 -89.593512
v 22122.478658 26881.243492 -89.633413
vt 115.945727 -162.735005
vt 115.945727 -162.490149
vt 115.899575 -162.536301
vt 115.888855 -162.490149
vt 116.279060 -162.823482
vt 116.279060 -162.490149
vt 115.962403 -162.806806
vt 115.966277 -162.823482
vt 116.612393 -162.823482
vt 116.612393 -162.490149
vt 116.945727 -162.823482
vt 116.945727 -162.490149
vt 117.279060 -162.823482
vt 117.279060 -162.490149
vt 117.612393 -162.823482
vt 117.612393 -162.490149
vt 117.945727 -162.823482
vt 117.945727 -162.490149
vt 118.088918 -162.680291
vt 118.122176 -162.823482
vt 118.068053 -162.590457
vt 118.044755 -162.490149
vt 115.945727 -162.156816
vt 115.836746 -162.265796
vt 115.811434 -162.156816
vt 116.279060 -162.156816
vt 116.612393 -162.156816
vt 116.945727 -162.156816
vt 117.279060 -162.156816
vt 117.612393 -162.156816
vt 117.945727 -162.156816
vt 118.026090 -162.409786
vt 117.967334 -162.156816
vt 115.945727 -161.823482
vt 115.773918 -161.995291
vt 115.796687 -162.093321
vt 115.734013 -161.823482
vt 116.279060 -161.823482
vt 116.612393 -161.823482
vt 116.945727 -161.823482
vt 117.279060 -161.823482
vt 117.612393 -161.823482
vt 117.945727 -162.063786
vt 117.900433 -161.868776
vt 117.889913 -161.823482
vt 117.963261 -162.139281
vt 115.945727 -161.490149
vt 115.711090 -161.724786
vt 115.721415 -161.769240
vt 115.656592 -161.490149
vt 116.279060 -161.490149
vt 116.612393 -161.490149
vt 116.945727 -161.490149
vt 117.279060 -161.490149
vt 117.612393 -161.490149
vt 117.837604 -161.598271
vt 117.812492 -161.490149
vt 115.612393 -161.299853
vt 115.612393 -161.156816
vt 115.585433 -161.183776
vt 115.579171 -161.156816
vt 115.945727 -161.156816
vt 115.648261 -161.454281
vt 116.279060 -161.156816
vt 116.612393 -161.156816
vt 116.945727 -161.156816
vt 117.279060 -161.156816
vt 117.612393 -161.156816
vt 117.774776 -161.327766
vt 117.766964 -161.294134
vt 117.735070 -161.156816
vt 115.612393 -160.823482
vt 115.522604 -160.913271
vt 115.501750 -160.823482
vt 115.945727 -160.823482
vt 116.279060 -160.823482
vt 116.612393 -160.823482
vt 116.945727 -160.823482
vt 117.279060 -160.823482
vt 117.612393 -160.823482
vt 117.711948 -161.057261
vt 117.657649 -160.823482
vt 115.612393 -160.490149
vt 115.459776 -160.642766
vt 115.495598 -160.796998
vt 115.424329 -160.490149
vt 115.945727 -160.490149
vt 116.279060 -160.490149
vt 116.612393 -160.490149
vt 116.945727 -160.490149
vt 117.279060 -160.490149
vt 117.612393 -160.628635
vt 117.586291 -160.516252
vt 117.580228 -160.490149
vt 117.649119 -160.786756
vt 115.612393 -160.156816
vt 115.396948 -160.372262
vt 115.420326 -160.472917
vt 115.346907 -160.156816
vt 115.945727 -160.156816
vt 116.279060 -160.156816
vt 116.612393 -160.156816
vt 116.945727 -160.156816
vt 117.279060 -160.156816
vt 117.523462 -160.245747
vt 117.502807 -160.156816
vt 115.279060 -159.864702
vt 115.279060 -159.823482
vt 115.271291 -159.831252
vt 115.269486 -159.823482
vt 115.269782 -159.824756
vt 115.612393 -159.823482
vt 115.334119 -160.101757
vt 115.945727 -159.823482
vt 116.279060 -159.823482
vt 116.612393 -159.823482
vt 116.945727 -159.823482
vt 117.279060 -159.823482
vt 117.465876 -159.997811
vt 117.460634 -159.975242
vt 117.425386 -159.823482
vt 115.279060 -159.490149
vt 115.208462 -159.560747
vt 115.192065 -159.490149
vt 115.612393 -159.490149
vt 115.945727 -159.490149
vt 116.279060 -159.490149
vt 116.612393 -159.490149
vt 116.945727 -159.490149
vt 117.279060 -159.490149
vt 117.397806 -159.704737
vt 117.347965 -159.490149
vt 115.279060 -159.156816
vt 115.145634 -159.290242
vt 115.114644 -159.156816
vt 115.612393 -159.156816
vt 115.945727 -159.156816
vt 116.279060 -159.156816
vt 116.612393 -159.156816
vt 116.945727 -159.156816
vt 117.279060 -159.193483
vt 117.272149 -159.163727
vt 117.270544 -159.156816
vt 117.334977 -159.434232
vt 115.279060 -158.823482
vt 115.082805 -159.019737
vt 115.037223 -158.823482
vt 115.612393 -158.823482
vt 115.945727 -158.823482
vt 116.279060 -158.823482
vt 116.612393 -158.823482
vt 116.945727 -158.823482
vt 117.240060 -159.025569
vt 117.209320 -158.893222
vt 117.193122 -158.823482
vt 115.279060 -158.490149
vt 115.019977 -158.749232
vt 114.959802 -158.490149
vt 114.968694 -158.528433
vt 115.612393 -158.490149
vt 115.945727 -158.490149
vt 116.279060 -158.490149
vt 116.612393 -158.490149
vt 116.945727 -158.490149
vt 117.146492 -158.622717
vt 117.115701 -158.490149
vt 114.945727 -158.429550
vt 114.945727 -158.156816
vt 114.894320 -158.208222
vt 114.882380 -158.156816
vt 115.279060 -158.156816
vt 114.957149 -158.478727
vt 115.612393 -158.156816
vt 115.945727 -158.156816
vt 116.279060 -158.156816
vt 116.612393 -158.156816
vt 116.945727 -158.156816
vt 117.083664 -158.352212
vt 117.038280 -158.156816
vt 114.945727 -157.823482
vt 114.831492 -157.937717
vt 114.804959 -157.823482
vt 115.279060 -157.823482
vt 115.612393 -157.823482
vt 115.945727 -157.823482
vt 116.279060 -157.823482
vt 116.612393 -157.823482
vt 116.945727 -157.823482
vt 117.020835 -158.081707
vt 117.014243 -158.053327
vt 116.960859 -157.823482
vt 114.945727 -157.490149
vt 114.768663 -157.667212
vt 114.727538 -157.490149
vt 115.279060 -157.490149
vt 115.612393 -157.490149
vt 115.945727 -157.490149
vt 116.279060 -157.490149
vt 116.612393 -157.490149
vt 116.945727 -157.758331
vt 116.938971 -157.729246
vt 116.895178 -157.540697
vt 116.883438 -157.490149
vt 116.958007 -157.811202
vt 114.945727 -157.156816
vt 114.705835 -157.396707
vt 114.650117 -157.156816
vt 114.667605 -157.232110
vt 115.279060 -157.156816
vt 115.612393 -157.156816
vt 115.945727 -157.156816
vt 116.279060 -157.156816
vt 116.612393 -157.156816
vt 116.832350 -157.270193
vt 116.806017 -157.156816
vt 114.612393 -156.994398
vt 114.612393 -156.823482
vt 114.580178 -156.855698
vt 114.572696 -156.823482
vt 114.945727 -156.823482
vt 114.643007 -157.126202
vt 115.279060 -156.823482
vt 115.612393 -156.823482
vt 115.945727 -156.823482
vt 116.279060 -156.823482
vt 116.612393 -156.823482
vt 116.769521 -156.999688
vt 116.728595 -156.823482
vt 114.612393 -156.490149
vt 114.517350 -156.585193
vt 114.495275 -156.490149
vt 114.945727 -156.490149
vt 115.279060 -156.490149
vt 115.612393 -156.490149
vt 115.945727 -156.490149
vt 116.279060 -156.490149
vt 116.612393 -156.490149
vt 116.706693 -156.729183
vt 116.651174 -156.490149
vt 114.612393 -156.156816
vt 114.454521 -156.314688
vt 114.417853 -156.156816
vt 114.441789 -156.259868
vt 114.945727 -156.156816
vt 115.279060 -156.156816
vt 115.612393 -156.156816
vt 115.945727 -156.156816
vt 116.279060 -156.156816
vt 116.612393 -156.323179
vt 116.581036 -156.188173
vt 116.573753 -156.156816
vt 116.643865 -156.458678
vt 116.637883 -156.432923
vt 114.612393 -155.823482
vt 114.391693 -156.044183
vt 114.340432 -155.823482
vt 114.945727 -155.823482
vt 115.279060 -155.823482
vt 115.612393 -155.823482
vt 115.945727 -155.823482
vt 116.279060 -155.823482
vt 116.518208 -155.917668
vt 116.496332 -155.823482
vt 114.279060 -155.559246
vt 114.279060 -155.490149
vt 114.266036 -155.503173
vt 114.263011 -155.490149
vt 114.612393 -155.490149
vt 114.328865 -155.773678
vt 114.945727 -155.490149
vt 115.279060 -155.490149
vt 115.612393 -155.490149
vt 115.945727 -155.490149
vt 116.279060 -155.490149
vt 116.455379 -155.647163
vt 116.418911 -155.490149
vt 114.279060 -155.156816
vt 114.203208 -155.232668
vt 114.185590 -155.156816
vt 114.612393 -155.156816
vt 114.945727 -155.156816
vt 115.279060 -155.156816
vt 115.612393 -155.156816
vt 115.945727 -155.156816
vt 116.279060 -155.156816
vt 116.412066 -155.460681
vt 116.392551 -155.376658
vt 116.341490 -155.156816
vt 114.279060 -154.823482
vt 114.140379 -154.962163
vt 114.140700 -154.963545
vt 114.108169 -154.823482
vt 114.612393 -154.823482
vt 114.945727 -154.823482
vt 115.279060 -154.823482
vt 115.612393 -154.823482
vt 115.945727 -154.823482
vt 116.279060 -154.888027
vt 116.266894 -154.835648
vt 116.264069 -154.823482
vt 116.329723 -155.106153
vt 114.279060 -154.490149
vt 114.077551 -154.691658
vt 114.030748 -154.490149
vt 114.612393 -154.490149
vt 114.945727 -154.490149
vt 115.279060 -154.490149
vt 115.612393 -154.490149
vt 115.945727 -154.490149
vt 116.204066 -154.565143
vt 116.186647 -154.490149
vt 114.279060 -154.156816
vt 114.014722 -154.421153
vt 113.953327 -154.156816
vt 114.612393 -154.156816
vt 114.945727 -154.156816
vt 115.279060 -154.156816
vt 115.612393 -154.156816
vt 115.945727 -154.156816
vt 116.141237 -154.294638
vt 116.110978 -154.164358
vt 116.109226 -154.156816
vt 113.945727 -154.124095
vt 113.945727 -153.823482
vt 113.889066 -153.880143
vt 113.875905 -153.823482
vt 114.279060 -153.823482
vt 113.951894 -154.150648
vt 114.612393 -153.823482
vt 114.945727 -153.823482
vt 115.279060 -153.823482
vt 115.612393 -153.823482
vt 115.945727 -153.823482
vt 116.078409 -154.024133
vt 116.031805 -153.823482
vt 113.945727 -153.490149
vt 113.826237 -153.609638
vt 113.839612 -153.667222
vt 113.798484 -153.490149
vt 114.279060 -153.490149
vt 114.612393 -153.490149
vt 114.945727 -153.490149
vt 115.279060 -153.490149
vt 115.612393 -153.490149
vt 115.945727 -153.490149
vt 116.015581 -153.753629
vt 115.954384 -153.490149
vt 113.945727 -153.156816
vt 113.763409 -153.339134
vt 113.764340 -153.343142
vt 113.721063 -153.156816
vt 114.279060 -153.156816
vt 114.612393 -153.156816
vt 114.945727 -153.156816
vt 115.279060 -153.156816
vt 115.612393 -153.156816
vt 115.945727 -153.452876
vt 115.889924 -153.212619
vt 115.885162 -153.192116
vt 115.876963 -153.156816
vt 115.952752 -153.483124
vt 113.945727 -152.823482
vt 113.700580 -153.068629
vt 113.643642 -152.823482
vt 114.279060 -152.823482
vt 114.612393 -152.823482
vt 114.945727 -152.823482
vt 115.279060 -152.823482
vt 115.612393 -152.823482
vt 115.827095 -152.942114
vt 115.809890 -152.868035
vt 115.799542 -152.823482
vt 113.612393 -152.688943
vt 113.612393 -152.490149
vt 113.574924 -152.527619
vt 113.566221 -152.490149
vt 113.945727 -152.490149
vt 113.637752 -152.798124
vt 113.613796 -152.694980
vt 114.279060 -152.490149
vt 114.612393 -152.490149
vt 114.945727 -152.490149
vt 115.279060 -152.490149
vt 115.612393 -152.490149
vt 115.764267 -152.671609
vt 115.722120 -152.490149
vt 113.612393 -152.156816
vt 113.512095 -152.257114
vt 113.538523 -152.370900
vt 113.488800 -152.156816
vt 113.945727 -152.156816
vt 114.279060 -152.156816
vt 114.612393 -152.156816
vt 114.945727 -152.156816
vt 115.279060 -152.156816
vt 115.612393 -152.156816
vt 115.701438 -152.401104
vt 115.659345 -152.219874
vt 115.644699 -152.156816
vt 113.612393 -151.823482
vt 113.449267 -151.986609
vt 113.411378 -151.823482
vt 113.945727 -151.823482
vt 114.279060 -151.823482
vt 114.612393 -151.823482
vt 114.945727 -151.823482
vt 115.279060 -151.823482
vt 115.612393 -152.017724
vt 115.584073 -151.895793
vt 115.575782 -151.860094
vt 115.567278 -151.823482
vt 115.638610 -152.130599
vt 113.612393 -151.490149
vt 113.386438 -151.716104
vt 113.333957 -151.490149
vt 113.945727 -151.490149
vt 114.279060 -151.490149
vt 114.612393 -151.490149
vt 114.945727 -151.490149
vt 115.279060 -151.490149
vt 115.512953 -151.589589
vt 115.489857 -151.490149
vt 113.279060 -151.259034
vt 113.279060 -151.156816
vt 113.259227 -151.176649
vt 113.254453 -151.156816
vt 113.612393 -151.156816
vt 113.323610 -151.445599
vt 113.313660 -151.402760
vt 113.945727 -151.156816
vt 114.279060 -151.156816
vt 114.612393 -151.156816
vt 114.945727 -151.156816
vt 115.279060 -151.156816
vt 115.450125 -151.319084
vt 115.412436 -151.156816
vt 113.279060 -150.823482
vt 113.190863 -150.911679
vt 113.239660 -151.095369
vt 113.167434 -150.823482
vt 113.612393 -150.823482
vt 113.945727 -150.823482
vt 114.279060 -150.823482
vt 114.612393 -150.823482
vt 114.945727 -150.823482
vt 115.279060 -150.823482
vt 115.387296 -151.048579
vt 115.358257 -150.923551
vt 115.356318 -150.915353
vt 115.334202 -150.823482
vt 113.279060 -150.490149
vt 113.120900 -150.648309
vt 113.157396 -150.785694
vt 113.078885 -150.490149
vt 113.612393 -150.490149
vt 113.945727 -150.490149
vt 114.279060 -150.490149
vt 114.612393 -150.490149
vt 114.945727 -150.490149
vt 115.279060 -150.594427
vt 115.278456 -150.591917
vt 115.272423 -150.568088
vt 115.257458 -150.511752
vt 115.251719 -150.490149
vt 115.323503 -150.779040
vt 113.279060 -150.156816
vt 113.050936 -150.384940
vt 113.071975 -150.464139
vt 112.990336 -150.156816
vt 113.612393 -150.156816
vt 113.945727 -150.156816
vt 114.279060 -150.156816
vt 114.612393 -150.156816
vt 114.945727 -150.156816
vt 115.187494 -150.248382
vt 115.187003 -150.246533
vt 115.163170 -150.156816
vt 112.945727 -149.988891
vt 112.945727 -149.823482
vt 112.911009 -149.858200
vt 112.901682 -149.823482
vt 112.903348 -149.829360
vt 113.279060 -149.823482
vt 112.980973 -150.121570
vt 112.986555 -150.142584
vt 113.612393 -149.823482
vt 113.945727 -149.823482
vt 114.279060 -149.823482
vt 114.612393 -149.823482
vt 114.945727 -149.823482
vt 115.117530 -149.985012
vt 115.101582 -149.924978
vt 115.074620 -149.823482
vt 112.945727 -149.490149
vt 112.837819 -149.598057
vt 112.807028 -149.490149
vt 112.815962 -149.520906
vt 113.279060 -149.490149
vt 113.612393 -149.490149
vt 113.945727 -149.490149
vt 114.279060 -149.490149
vt 114.612393 -149.490149
vt 114.945727 -149.490149
vt 115.047567 -149.721642
vt 115.016162 -149.603423
vt 114.986071 -149.490149
vt 112.945727 -149.156816
vt 112.763218 -149.339325
vt 112.710204 -149.156816
vt 112.724126 -149.204743
vt 113.279060 -149.156816
vt 113.612393 -149.156816
vt 113.945727 -149.156816
vt 114.279060 -149.156816
vt 114.612393 -149.156816
vt 114.945727 -149.338277
vt 114.930742 -149.281868
vt 114.926179 -149.265244
vt 114.906558 -149.195985
vt 114.895461 -149.156816
vt 114.977603 -149.458273
vt 112.945727 -148.823482
vt 112.688188 -149.081021
vt 112.613381 -148.823482
vt 112.631320 -148.885241
vt 113.279060 -148.823482
vt 113.612393 -148.823482
vt 113.945727 -148.823482
vt 114.279060 -148.823482
vt 114.612393 -148.823482
vt 114.832940 -148.936269
vt 114.835496 -148.945152
vt 114.833579 -148.938469
vt 114.800179 -148.823482
vt 112.612393 -148.490149
vt 112.538129 -148.564413
vt 112.538514 -148.565740
vt 112.612393 -148.820083
vt 112.516557 -148.490149
vt 112.945727 -148.490149
vt 112.613158 -148.822717
vt 113.279060 -148.490149
vt 113.612393 -148.490149
vt 113.945727 -148.490149
vt 114.279060 -148.490149
vt 114.612393 -148.490149
vt 114.757910 -148.677966
vt 114.740773 -148.618967
vt 114.703355 -148.490149
vt 112.612393 -148.156816
vt 112.463099 -148.306110
vt 112.419734 -148.156816
vt 112.945727 -148.156816
vt 113.279060 -148.156816
vt 113.612393 -148.156816
vt 113.945727 -148.156816
vt 114.279060 -148.156816
vt 114.612393 -148.176995
vt 114.607851 -148.161358
vt 114.606532 -148.156816
vt 114.682881 -148.419662
vt 112.612393 -147.823482
vt 112.388070 -148.047806
vt 112.322911 -147.823482
vt 112.945727 -147.823482
vt 113.279060 -147.823482
vt 113.612393 -147.823482
vt 113.945727 -147.823482
vt 114.279060 -147.823482
vt 114.532822 -147.903054
vt 114.509708 -147.823482
vt 112.279060 -147.490149
vt 112.238011 -147.531198
vt 112.260097 -147.607235
vt 112.279060 -147.672518
vt 112.226087 -147.490149
vt 112.612393 -147.490149
vt 112.313040 -147.789502
vt 112.945727 -147.490149
vt 113.279060 -147.490149
vt 113.612393 -147.490149
vt 113.945727 -147.490149
vt 114.279060 -147.490149
vt 114.462356 -147.660462
vt 114.457792 -147.644750
vt 114.412885 -147.490149
vt 112.279060 -147.156816
vt 112.162981 -147.272895
vt 112.167291 -147.287733
vt 112.129264 -147.156816
vt 112.612393 -147.156816
vt 112.945727 -147.156816
vt 113.279060 -147.156816
vt 113.612393 -147.156816
vt 113.945727 -147.156816
vt 114.279060 -147.156816
vt 114.382763 -147.386447
vt 114.369550 -147.340961
vt 114.316062 -147.156816
vt 112.279060 -146.823482
vt 112.087952 -147.014591
vt 112.032440 -146.823482
vt 112.612393 -146.823482
vt 112.945727 -146.823482
vt 113.279060 -146.823482
vt 113.612393 -146.823482
vt 113.945727 -146.823482
vt 114.279060 -147.029430
vt 114.276744 -147.021459
vt 114.232703 -146.869839
vt 114.219238 -146.823482
vt 114.307733 -147.128143
vt 111.945727 -146.524953
vt 111.945727 -146.490149
vt 111.937893 -146.497983
vt 111.935617 -146.490149
vt 112.279060 -146.490149
vt 112.012922 -146.756287
vt 111.981680 -146.648730
vt 112.612393 -146.490149
vt 112.945727 -146.490149
vt 113.279060 -146.490149
vt 113.612393 -146.490149
vt 113.945727 -146.490149
vt 114.157674 -146.611535
vt 114.122415 -146.490149
vt 111.945727 -146.156816
vt 111.862863 -146.239679
vt 111.888874 -146.329228
vt 111.838794 -146.156816
vt 112.279060 -146.156816
vt 112.612393 -146.156816
vt 112.945727 -146.156816
vt 113.279060 -146.156816
vt 113.612393 -146.156816
vt 113.945727 -146.156816
vt 114.091133 -146.382456
vt 114.082644 -146.353231
vt 114.025591 -146.156816
vt 111.945727 -145.823482
vt 111.787834 -145.981376
vt 111.796069 -146.009727
vt 111.741970 -145.823482
vt 112.279060 -145.823482
vt 112.612393 -145.823482
vt 112.945727 -145.823482
vt 113.279060 -145.823482
vt 113.612393 -145.823482
vt 113.945727 -145.881866
vt 113.932585 -145.836624
vt 113.928768 -145.823482
vt 114.007615 -146.094928
vt 111.945727 -145.490149
vt 111.712804 -145.723072
vt 111.645147 -145.490149
vt 111.703263 -145.690225
vt 112.279060 -145.490149
vt 112.612393 -145.490149
vt 112.945727 -145.490149
vt 113.279060 -145.490149
vt 113.612393 -145.490149
vt 113.905522 -145.743452
vt 113.857556 -145.578320
vt 113.831945 -145.490149
vt 111.612393 -145.377388
vt 111.612393 -145.156816
vt 111.562745 -145.206464
vt 111.548324 -145.156816
vt 111.945727 -145.156816
vt 111.637774 -145.464768
vt 112.279060 -145.156816
vt 112.612393 -145.156816
vt 112.945727 -145.156816
vt 113.279060 -145.156816
vt 113.612393 -145.156816
vt 113.782526 -145.320016
vt 113.735121 -145.156816
vt 111.612393 -144.823482
vt 111.487715 -144.948160
vt 111.517652 -145.051222
vt 111.451500 -144.823482
vt 111.945727 -144.823482
vt 112.279060 -144.823482
vt 112.612393 -144.823482
vt 112.945727 -144.823482
vt 113.279060 -144.823482
vt 113.612393 -144.823482
vt 113.707497 -145.061712
vt 113.638298 -144.823482
vt 111.612393 -144.490149
vt 111.412686 -144.689857
vt 111.424846 -144.731720
vt 111.354677 -144.490149
vt 111.945727 -144.490149
vt 112.279060 -144.490149
vt 112.612393 -144.490149
vt 112.945727 -144.490149
vt 113.279060 -144.490149
vt 113.612393 -144.734301
vt 113.557438 -144.545105
vt 113.541475 -144.490149
vt 113.632467 -144.803409
vt 113.627105 -144.784947
vt 111.279060 -144.229824
vt 111.279060 -144.156816
vt 111.262627 -144.173249
vt 111.257853 -144.156816
vt 111.612393 -144.156816
vt 111.337656 -144.431553
vt 111.332040 -144.412218
vt 111.945727 -144.156816
vt 112.279060 -144.156816
vt 112.612393 -144.156816
vt 112.945727 -144.156816
vt 113.279060 -144.156816
vt 113.482408 -144.286801
vt 113.444651 -144.156816
vt 111.279060 -143.823482
vt 111.187597 -143.914945
vt 111.239234 -144.092717
vt 111.161030 -143.823482
vt 111.612393 -143.823482
vt 111.945727 -143.823482
vt 112.279060 -143.823482
vt 112.612393 -143.823482
vt 112.945727 -143.823482
vt 113.279060 -143.823482
vt 113.441493 -144.145944
vt 113.407378 -144.028497
vt 113.348688 -143.826442
vt 113.347828 -143.823482
vt 111.279060 -143.490149
vt 111.112568 -143.656641
vt 111.146429 -143.773215
vt 111.064207 -143.490149
vt 111.612393 -143.490149
vt 111.945727 -143.490149
vt 112.279060 -143.490149
vt 112.612393 -143.490149
vt 112.945727 -143.490149
vt 113.279060 -143.586736
vt 113.257319 -143.511890
vt 113.255882 -143.506941
vt 113.251004 -143.490149
vt 113.332349 -143.770194
vt 111.279060 -143.156816
vt 111.037538 -143.398338
vt 111.053623 -143.453713
vt 110.967383 -143.156816
vt 111.612393 -143.156816
vt 111.945727 -143.156816
vt 112.279060 -143.156816
vt 112.612393 -143.156816
vt 112.945727 -143.156816
vt 113.182290 -143.253586
vt 113.163076 -143.187439
vt 113.154181 -143.156816
vt 110.945727 -143.082259
vt 110.945727 -142.823482
vt 110.887479 -142.881730
vt 110.870560 -142.823482
vt 111.279060 -142.823482
vt 110.962509 -143.140034
vt 110.960817 -143.134212
vt 111.612393 -142.823482
vt 111.945727 -142.823482
vt 112.279060 -142.823482
vt 112.612393 -142.823482
vt 112.945727 -142.823482
vt 113.107260 -142.995282
vt 113.070270 -142.867938
vt 113.057358 -142.823482
vt 110.945727 -142.490149
vt 110.812449 -142.623426
vt 110.868012 -142.814710
vt 110.773736 -142.490149
vt 110.775206 -142.495208
vt 111.279060 -142.490149
vt 111.612393 -142.490149
vt 111.945727 -142.490149
vt 112.279060 -142.490149
vt 112.612393 -142.490149
vt 112.945727 -142.490149
vt 113.032231 -142.736978
vt 112.977465 -142.548436
vt 112.960534 -142.490149
vt 110.945727 -142.156816
vt 110.737420 -142.365122
vt 110.676913 -142.156816
vt 111.279060 -142.156816
vt 111.612393 -142.156816
vt 111.945727 -142.156816
vt 112.279060 -142.156816
vt 112.612393 -142.156816
vt 112.945727 -142.439171
vt 112.884659 -142.228934
vt 112.882172 -142.220371
vt 112.863711 -142.156816
vt 112.957201 -142.478675
vt 110.945727 -141.823482
vt 110.662390 -142.106819
vt 110.612393 -141.823482
vt 110.612393 -141.934694
vt 111.279060 -141.823482
vt 111.612393 -141.823482
vt 111.945727 -141.823482
vt 112.279060 -141.823482
vt 112.612393 -141.823482
vt 112.807142 -141.962067
vt 112.791853 -141.909433
vt 112.766887 -141.823482
vt 110.945727 -141.490149
vt 110.612393 -141.490149
vt 111.279060 -141.490149
vt 111.612393 -141.490149
vt 111.945727 -141.490149
vt 112.279060 -141.490149
vt 112.612393 -141.490149
vt 112.732113 -141.703763
vt 112.699048 -141.589931
vt 112.670064 -141.490149
vt 110.945727 -141.156816
vt 110.612393 -141.156816
vt 111.279060 -141.156816
vt 111.612393 -141.156816
vt 111.945727 -141.156816
vt 112.279060 -141.156816
vt 112.612393 -141.291606
vt 112.606242 -141.270429
vt 112.582053 -141.187156
vt 112.573241 -141.156816
vt 112.657083 -141.445459
vt 110.945727 -140.823482
vt 110.612393 -140.823482
vt 111.279060 -140.823482
vt 111.612393 -140.823482
vt 111.945727 -140.823482
vt 112.279060 -140.823482
vt 112.513436 -140.950928
vt 112.507024 -140.928852
vt 112.476417 -140.823482
vt 110.945727 -140.490149
vt 110.612393 -140.490149
vt 111.279060 -140.490149
vt 111.612393 -140.490149
vt 111.945727 -140.490149
vt 112.279060 -140.490149
vt 112.431994 -140.670548
vt 112.420631 -140.631426
vt 112.379594 -140.490149
vt 110.945727 -140.156816
vt 110.612393 -140.156816
vt 111.279060 -140.156816
vt 111.612393 -140.156816
vt 111.945727 -140.156816
vt 112.279060 -140.156816
vt 112.356965 -140.412244
vt 112.327825 -140.311924
vt 112.282770 -140.156816
vt 110.945727 -139.823482
vt 110.612393 -139.823482
vt 111.279060 -139.823482
vt 111.612393 -139.823482
vt 111.945727 -139.823482
vt 112.279060 -140.144042
vt 112.235019 -139.992423
vt 112.206906 -139.895637
vt 112.185947 -139.823482
vt 112.281935 -140.153940
vt 110.945727 -139.490149
vt 110.612393 -139.490149
vt 111.279060 -139.490149
vt 111.612393 -139.490149
vt 111.945727 -139.490149
vt 112.131876 -139.637333
vt 112.089124 -139.490149
vt 110.945727 -139.156816
vt 110.612393 -139.156816
vt 111.279060 -139.156816
vt 111.612393 -139.156816
vt 111.945727 -139.156816
vt 112.056847 -139.379029
vt 112.049408 -139.353419
vt 111.992300 -139.156816
vt 110.945727 -138.823482
vt 110.612393 -138.823482
vt 111.279060 -138.823482
vt 111.612393 -138.823482
vt 111.945727 -138.996477
vt 111.906788 -138.862421
vt 111.895477 -138.823482
vt 111.981817 -139.120725
vt 111.956602 -139.033918
vt 110.945727 -138.490149
vt 110.612393 -138.490149
vt 111.279060 -138.490149
vt 111.612393 -138.490149
vt 111.831758 -138.604118
vt 111.798654 -138.490149
vt 110.945727 -138.156816
vt 110.612393 -138.156816
vt 111.279060 -138.156816
vt 111.612393 -138.156816
vt 111.770991 -138.394914
vt 111.756728 -138.345814
vt 111.701830 -138.156816
vt 110.945727 -137.823482
vt 110.612393 -137.823482
vt 111.279060 -137.823482
vt 111.612393 -137.848912
vt 111.606669 -137.829206
vt 111.605007 -137.823482
vt 111.681699 -138.087510
vt 110.945727 -137.490149
vt 110.612393 -137.490149
vt 111.279060 -137.490149
vt 111.531640 -137.570903
vt 111.508183 -137.490149
vt 110.945727 -137.156816
vt 110.612393 -137.156816
vt 111.279060 -137.156816
vt 111.492574 -137.436409
vt 111.456610 -137.312599
vt 111.411360 -137.156816
vt 110.945727 -136.823482
vt 110.612393 -136.823482
vt 111.279060 -136.823482
vt 111.381581 -137.054295
vt 111.314537 -136.823482
vt 110.945727 -136.490149
vt 110.612393 -136.490149
vt 111.279060 -136.701347
vt 111.231522 -136.537687
vt 111.217713 -136.490149
vt 111.306962 -136.797406
vt 111.306551 -136.795991
vt 110.945727 -136.156816
vt 110.612393 -136.156816
vt 111.156492 -136.279384
vt 111.121351 -136.158403
vt 111.120890 -136.156816
vt 110.945727 -135.823482
vt 110.612393 -135.823482
vt 111.081463 -136.021080
vt 111.028545 -135.838901
vt 111.024066 -135.823482
vt 110.945727 -135.553782
vt 110.935739 -135.519400
vt 110.931404 -135.504472
vt 110.612393 -135.490149
vt 110.927243 -135.490149
vt 111.006433 -135.762776
vt 110.856374 -135.246168
vt 110.612393 -135.156816
vt 110.842934 -135.199898
vt 110.830420 -135.156816
vt 110.781344 -134.987865
vt 110.612393 -134.823482
vt 110.750128 -134.880396
vt 110.733596 -134.823482
vt 110.706315 -134.729561
vt 110.612393 -134.490149
vt 110.657322 -134.560895
vt 110.636773 -134.490149
vt 110.631285 -134.471257
vt 110.612393 -134.406217
f 3/3 2/2 1/1
f 4/4 2/2 3/3
f 7/7 6/6 5/5
f 8/8 7/7 5/5
f 1/1 2/2 6/6
f 7/7 1/1 6/6
f 5/5 10/10 9/9
f 5/5 6/6 10/10
f 9/9 12/12 11/11
f 9/9 10/10 12/12
f 11/11 14/14 13/13
f 11/11 12/12 14/14
f 13/13 16/16 15/15
f 13/13 14/14 16/16
f 15/15 18/18 17/17
f 15/15 16/16 18/18
f 20/20 17/17 19/19
f 19/19 17/17 18/18
f 21/21 19/19 18/18
f 22/22 21/21 18/18
f 24/24 23/23 2/2
f 4/4 24/24 2/2
f 25/25 23/23 24/24
f 2/2 26/26 6/6
f 2/2 23/23 26/26
f 6/6 27/27 10/10
f 6/6 26/26 27/27
f 10/10 28/28 12/12
f 10/10 27/27 28/28
f 12/12 29/29 14/14
f 12/12 28/28 29/29
f 14/14 30/30 16/16
f 14/14 29/29 30/30
f 16/16 31/31 18/18
f 16/16 30/30 31/31
f 22/22 18/18 32/32
f 32/32 18/18 31/31
f 33/33 32/32 31/31
f 35/35 34/34 23/23
f 36/36 35/35 23/23
f 25/25 36/36 23/23
f 37/37 34/34 35/35
f 23/23 38/38 26/26
f 23/23 34/34 38/38
f 26/26 39/39 27/27
f 26/26 38/38 39/39
f 27/27 40/40 28/28
f 27/27 39/39 40/40
f 28/28 41/41 29/29
f 28/28 40/40 41/41
f 29/29 42/42 30/30
f 29/29 41/41 42/42
f 43/43 31/31 30/30
f 44/44 43/43 30/30
f 44/44 30/30 42/42
f 45/45 44/44 42/42
f 33/33 31/31 46/46
f 46/46 31/31 43/43
f 48/48 47/47 34/34
f 49/49 48/48 34/34
f 37/37 49/49 34/34
f 50/50 47/47 48/48
f 34/34 51/51 38/38
f 34/34 47/47 51/51
f 38/38 52/52 39/39
f 38/38 51/51 52/52
f 39/39 53/53 40/40
f 39/39 52/52 53/53
f 40/40 54/54 41/41
f 40/40 53/53 54/54
f 41/41 55/55 42/42
f 41/41 54/54 55/55
f 45/45 42/42 56/56
f 56/56 42/42 55/55
f 57/57 56/56 55/55
f 60/60 59/59 58/58
f 61/61 59/59 60/60
f 63/63 62/62 47/47
f 50/50 63/63 47/47
f 58/58 59/59 62/62
f 63/63 58/58 62/62
f 47/47 64/64 51/51
f 47/47 62/62 64/64
f 51/51 65/65 52/52
f 51/51 64/64 65/65
f 52/52 66/66 53/53
f 52/52 65/65 66/66
f 53/53 67/67 54/54
f 53/53 66/66 67/67
f 54/54 68/68 55/55
f 54/54 67/67 68/68
f 57/57 55/55 69/69
f 69/69 55/55 68/68
f 70/70 69/69 68/68
f 71/71 70/70 68/68
f 73/73 72/72 59/59
f 61/61 73/73 59/59
f 74/74 72/72 73/73
f 59/59 75/75 62/62
f 59/59 72/72 75/75
f 62/62 76/76 64/64
f 62/62 75/75 76/76
f 64/64 77/77 65/65
f 64/64 76/76 77/77
f 65/65 78/78 66/66
f 65/65 77/77 78/78
f 66/66 79/79 67/67
f 66/66 78/78 79/79
f 67/67 80/80 68/68
f 67/67 79/79 80/80
f 71/71 68/68 81/81
f 81/81 68/68 80/80
f 82/82 81/81 80/80
f 84/84 83/83 72/72
f 85/85 84/84 72/72
f 74/74 85/85 72/72
f 86/86 83/83 84/84
f 72/72 87/87 75/75
f 72/72 83/83 87/87
f 75/75 88/88 76/76
f 75/75 87/87 88/88
f 76/76 89/89 77/77
f 76/76 88/88 89/89
f 77/77 90/90 78/78
f 77/77 89/89 90/90
f 78/78 91/91 79/79
f 78/78 90/90 91/91
f 92/92 80/80 79/79
f 93/93 92/92 79/79
f 93/93 79/79 91/91
f 94/94 93/93 91/91
f 82/82 80/80 95/95
f 95/95 80/80 92/92
f 97/97 96/96 83/83
f 98/98 97/97 83/83
f 86/86 98/98 83/83
f 99/99 96/96 97/97
f 83/83 100/100 87/87
f 83/83 96/96 100/100
f 87/87 101/101 88/88
f 87/87 100/100 101/101
f 88/88 102/102 89/89
f 88/88 101/101 102/102
f 89/89 103/103 90/90
f 89/89 102/102 103/103
f 90/90 104/104 91/91
f 90/90 103/103 104/104
f 94/94 91/91 105/105
f 105/105 91/91 104/104
f 106/106 105/105 104/104
f 109/109 108/108 107/107
f 111/111 110/110 108/108
f 109/109 111/111 108/108
f 113/113 112/112 96/96
f 99/99 113/113 96/96
f 107/107 108/108 112/112
f 113/113 107/107 112/112
f 96/96 114/114 100/100
f 96/96 112/112 114/114
f 100/100 115/115 101/101
f 100/100 114/114 115/115
f 101/101 116/116 102/102
f 101/101 115/115 116/116
f 102/102 117/117 103/103
f 102/102 116/116 117/117
f 103/103 118/118 104/104
f 103/103 117/117 118/118
f 119/119 106/106 104/104
f 120/120 119/119 104/104
f 120/120 104/104 118/118
f 121/121 120/120 118/118
f 123/123 122/122 108/108
f 110/110 123/123 108/108
f 124/124 122/122 123/123
f 108/108 125/125 112/112
f 108/108 122/122 125/125
f 112/112 126/126 114/114
f 112/112 125/125 126/126
f 114/114 127/127 115/115
f 114/114 126/126 127/127
f 115/115 128/128 116/116
f 115/115 127/127 128/128
f 116/116 129/129 117/117
f 116/116 128/128 129/129
f 117/117 130/130 118/118
f 117/117 129/129 130/130
f 121/121 118/118 131/131
f 131/131 118/118 130/130
f 132/132 131/131 130/130
f 134/134 133/133 122/122
f 124/124 134/134 122/122
f 135/135 133/133 134/134
f 122/122 136/136 125/125
f 122/122 133/133 136/136
f 125/125 137/137 126/126
f 125/125 136/136 137/137
f 126/126 138/138 127/127
f 126/126 137/137 138/138
f 127/127 139/139 128/128
f 127/127 138/138 139/139
f 128/128 140/140 129/129
f 128/128 139/139 140/140
f 141/141 130/130 129/129
f 142/142 141/141 129/129
f 142/142 129/129 140/140
f 143/143 142/142 140/140
f 132/132 130/130 144/144
f 144/144 130/130 141/141
f 146/146 145/145 133/133
f 135/135 146/146 133/133
f 147/147 145/145 146/146
f 133/133 148/148 136/136
f 133/133 145/145 148/148
f 136/136 149/149 137/137
f 136/136 148/148 149/149
f 137/137 150/150 138/138
f 137/137 149/149 150/150
f 138/138 151/151 139/139
f 138/138 150/150 151/151
f 139/139 152/152 140/140
f 139/139 151/151 152/152
f 153/153 143/143 140/140
f 154/154 153/153 140/140
f 154/154 140/140 152/152
f 155/155 154/154 152/152
f 157/157 156/156 145/145
f 147/147 157/157 145/145
f 159/159 158/158 156/156
f 157/157 159/159 156/156
f 145/145 160/160 148/148
f 145/145 156/156 160/160
f 148/148 161/161 149/149
f 148/148 160/160 161/161
f 149/149 162/162 150/150
f 149/149 161/161 162/162
f 150/150 163/163 151/151
f 150/150 162/162 163/163
f 151/151 164/164 152/152
f 151/151 163/163 164/164
f 155/155 152/152 165/165
f 165/165 152/152 164/164
f 166/166 165/165 164/164
f 169/169 168/168 167/167
f 170/170 168/168 169/169
f 172/172 171/171 156/156
f 158/158 172/172 156/156
f 167/167 168/168 171/171
f 172/172 167/167 171/171
f 156/156 173/173 160/160
f 156/156 171/171 173/173
f 160/160 174/174 161/161
f 160/160 173/173 174/174
f 161/161 175/175 162/162
f 161/161 174/174 175/175
f 162/162 176/176 163/163
f 162/162 175/175 176/176
f 163/163 177/177 164/164
f 163/163 176/176 177/177
f 166/166 164/164 178/178
f 178/178 164/164 177/177
f 179/179 178/178 177/177
f 181/181 180/180 168/168
f 170/170 181/181 168/168
f 182/182 180/180 181/181
f 168/168 183/183 171/171
f 168/168 180/180 183/183
f 171/171 184/184 173/173
f 171/171 183/183 184/184
f 173/173 185/185 174/174
f 173/173 184/184 185/185
f 174/174 186/186 175/175
f 174/174 185/185 186/186
f 175/175 187/187 176/176
f 175/175 186/186 187/187
f 176/176 188/188 177/177
f 176/176 187/187 188/188
f 179/179 177/177 189/189
f 189/189 177/177 188/188
f 190/190 189/189 188/188
f 191/191 190/190 188/188
f 193/193 192/192 180/180
f 182/182 193/193 180/180
f 194/194 192/192 193/193
f 180/180 195/195 183/183
f 180/180 192/192 195/195
f 183/183 196/196 184/184
f 183/183 195/195 196/196
f 184/184 197/197 185/185
f 184/184 196/196 197/197
f 185/185 198/198 186/186
f 185/185 197/197 198/198
f 186/186 199/199 187/187
f 186/186 198/198 199/199
f 200/200 188/188 187/187
f 201/201 200/200 187/187
f 202/202 201/201 187/187
f 202/202 187/187 199/199
f 203/203 202/202 199/199
f 191/191 188/188 204/204
f 204/204 188/188 200/200
f 206/206 205/205 192/192
f 194/194 206/206 192/192
f 208/208 207/207 205/205
f 206/206 208/208 205/205
f 192/192 209/209 195/195
f 192/192 205/205 209/209
f 195/195 210/210 196/196
f 195/195 209/209 210/210
f 196/196 211/211 197/197
f 196/196 210/210 211/211
f 197/197 212/212 198/198
f 197/197 211/211 212/212
f 198/198 213/213 199/199
f 198/198 212/212 213/213
f 203/203 199/199 214/214
f 214/214 199/199 213/213
f 215/215 214/214 213/213
f 218/218 217/217 216/216
f 219/219 217/217 218/218
f 221/221 220/220 205/205
f 207/207 221/221 205/205
f 216/216 217/217 220/220
f 221/221 216/216 220/220
f 205/205 222/222 209/209
f 205/205 220/220 222/222
f 209/209 223/223 210/210
f 209/209 222/222 223/223
f 210/210 224/224 211/211
f 210/210 223/223 224/224
f 211/211 225/225 212/212
f 211/211 224/224 225/225
f 212/212 226/226 213/213
f 212/212 225/225 226/226
f 215/215 213/213 227/227
f 227/227 213/213 226/226
f 228/228 227/227 226/226
f 230/230 229/229 217/217
f 219/219 230/230 217/217
f 231/231 229/229 230/230
f 217/217 232/232 220/220
f 217/217 229/229 232/232
f 220/220 233/233 222/222
f 220/220 232/232 233/233
f 222/222 234/234 223/223
f 222/222 233/233 234/234
f 223/223 235/235 224/224
f 223/223 234/234 235/235
f 224/224 236/236 225/225
f 224/224 235/235 236/236
f 225/225 237/237 226/226
f 225/225 236/236 237/237
f 228/228 226/226 238/238
f 238/238 226/226 237/237
f 239/239 238/238 237/237
f 241/241 240/240 229/229
f 231/231 241/241 229/229
f 243/243 242/242 240/240
f 241/241 243/243 240/240
f 229/229 244/244 232/232
f 229/229 240/240 244/244
f 232/232 245/245 233/233
f 232/232 244/244 245/245
f 233/233 246/246 234/234
f 233/233 245/245 246/246
f 234/234 247/247 235/235
f 234/234 246/246 247/247
f 235/235 248/248 236/236
f 235/235 247/247 248/248
f 249/249 237/237 236/236
f 250/250 249/249 236/236
f 250/250 236/236 248/248
f 251/251 250/250 248/248
f 239/239 237/237 252/252
f 253/253 252/252 237/237
f 249/249 253/253 237/237
f 255/255 254/254 240/240
f 242/242 255/255 240/240
f 256/256 254/254 255/255
f 240/240 257/257 244/244
f 240/240 254/254 257/257
f 244/244 258/258 245/245
f 244/244 257/257 258/258
f 245/245 259/259 246/246
f 245/245 258/258 259/259
f 246/246 260/260 247/247
f 246/246 259/259 260/260
f 247/247 261/261 248/248
f 247/247 260/260 261/261
f 251/251 248/248 262/262
f 262/262 248/248 261/261
f 263/263 262/262 261/261
f 266/266 265/265 264/264
f 267/267 265/265 266/266
f 269/269 268/268 254/254
f 256/256 269/269 254/254
f 264/264 265/265 268/268
f 269/269 264/264 268/268
f 254/254 270/270 257/257
f 254/254 268/268 270/270
f 257/257 271/271 258/258
f 257/257 270/270 271/271
f 258/258 272/272 259/259
f 258/258 271/271 272/272
f 259/259 273/273 260/260
f 259/259 272/272 273/273
f 260/260 274/274 261/261
f 260/260 273/273 274/274
f 263/263 261/261 275/275
f 275/275 261/261 274/274
f 276/276 275/275 274/274
f 278/278 277/277 265/265
f 267/267 278/278 265/265
f 279/279 277/277 278/278
f 265/265 280/280 268/268
f 265/265 277/277 280/280
f 268/268 281/281 270/270
f 268/268 280/280 281/281
f 270/270 282/282 271/271
f 270/270 281/281 282/282
f 271/271 283/283 272/272
f 271/271 282/282 283/283
f 272/272 284/284 273/273
f 272/272 283/283 284/284
f 273/273 285/285 274/274
f 273/273 284/284 285/285
f 286/286 276/276 274/274
f 287/287 286/286 274/274
f 287/287 274/274 285/285
f 288/288 287/287 285/285
f 290/290 289/289 277/277
f 291/291 290/290 277/277
f 279/279 291/291 277/277
f 292/292 289/289 290/290
f 277/277 293/293 280/280
f 277/277 289/289 293/293
f 280/280 294/294 281/281
f 280/280 293/293 294/294
f 281/281 295/295 282/282
f 281/281 294/294 295/295
f 282/282 296/296 283/283
f 282/282 295/295 296/296
f 283/283 297/297 284/284
f 283/283 296/296 297/297
f 298/298 285/285 284/284
f 299/299 298/298 284/284
f 299/299 284/284 297/297
f 300/300 299/299 297/297
f 288/288 285/285 301/301
f 301/301 285/285 298/298
f 303/303 302/302 289/289
f 292/292 303/303 289/289
f 304/304 302/302 303/303
f 289/289 305/305 293/293
f 289/289 302/302 305/305
f 293/293 306/306 294/294
f 293/293 305/305 306/306
f 294/294 307/307 295/295
f 294/294 306/306 307/307
f 295/295 308/308 296/296
f 295/295 307/307 308/308
f 296/296 309/309 297/297
f 296/296 308/308 309/309
f 300/300 297/297 310/310
f 310/310 297/297 309/309
f 311/311 310/310 309/309
f 313/313 312/312 302/302
f 304/304 313/313 302/302
f 314/314 312/312 313/313
f 302/302 315/315 305/305
f 302/302 312/312 315/315
f 305/305 316/316 306/306
f 305/305 315/315 316/316
f 306/306 317/317 307/307
f 306/306 316/316 317/317
f 307/307 318/318 308/308
f 307/307 317/317 318/318
f 308/308 319/319 309/309
f 308/308 318/318 319/319
f 311/311 309/309 320/320
f 320/320 309/309 319/319
f 321/321 320/320 319/319
f 322/322 321/321 319/319
f 325/325 324/324 323/323
f 326/326 324/324 325/325
f 328/328 327/327 312/312
f 314/314 328/328 312/312
f 323/323 324/324 327/327
f 328/328 323/323 327/327
f 312/312 329/329 315/315
f 312/312 327/327 329/329
f 315/315 330/330 316/316
f 315/315 329/329 330/330
f 316/316 331/331 317/317
f 316/316 330/330 331/331
f 317/317 332/332 318/318
f 317/317 331/331 332/332
f 318/318 333/333 319/319
f 318/318 332/332 333/333
f 322/322 319/319 334/334
f 334/334 319/319 333/333
f 335/335 334/334 333/333
f 337/337 336/336 324/324
f 338/338 337/337 324/324
f 326/326 338/338 324/324
f 339/339 336/336 337/337
f 324/324 340/340 327/327
f 324/324 336/336 340/340
f 327/327 341/341 329/329
f 327/327 340/340 341/341
f 329/329 342/342 330/330
f 329/329 341/341 342/342
f 330/330 343/343 331/331
f 330/330 342/342 343/343
f 331/331 344/344 332/332
f 331/331 343/343 344/344
f 332/332 345/345 333/333
f 332/332 344/344 345/345
f 335/335 333/333 346/346
f 346/346 333/333 345/345
f 347/347 346/346 345/345
f 349/349 348/348 336/336
f 350/350 349/349 336/336
f 339/339 350/350 336/336
f 351/351 348/348 349/349
f 336/336 352/352 340/340
f 336/336 348/348 352/352
f 340/340 353/353 341/341
f 340/340 352/352 353/353
f 341/341 354/354 342/342
f 341/341 353/353 354/354
f 342/342 355/355 343/343
f 342/342 354/354 355/355
f 343/343 356/356 344/344
f 343/343 355/355 356/356
f 357/357 345/345 344/344
f 358/358 357/357 344/344
f 358/358 344/344 356/356
f 359/359 358/358 356/356
f 360/360 359/359 356/356
f 347/347 345/345 361/361
f 361/361 345/345 357/357
f 363/363 362/362 348/348
f 351/351 363/363 348/348
f 364/364 362/362 363/363
f 348/348 365/365 352/352
f 348/348 362/362 365/365
f 352/352 366/366 353/353
f 352/352 365/365 366/366
f 353/353 367/367 354/354
f 353/353 366/366 367/367
f 354/354 368/368 355/355
f 354/354 367/367 368/368
f 355/355 369/369 356/356
f 355/355 368/368 369/369
f 360/360 356/356 370/370
f 370/370 356/356 369/369
f 371/371 370/370 369/369
f 372/372 371/371 369/369
f 375/375 374/374 373/373
f 376/376 374/374 375/375
f 378/378 377/377 362/362
f 364/364 378/378 362/362
f 373/373 374/374 377/377
f 379/379 373/373 377/377
f 378/378 379/379 377/377
f 362/362 380/380 365/365
f 362/362 377/377 380/380
f 365/365 381/381 366/366
f 365/365 380/380 381/381
f 366/366 382/382 367/367
f 366/366 381/381 382/382
f 367/367 383/383 368/368
f 367/367 382/382 383/383
f 368/368 384/384 369/369
f 368/368 383/383 384/384
f 372/372 369/369 385/385
f 385/385 369/369 384/384
f 386/386 385/385 384/384
f 388/388 387/387 374/374
f 389/389 388/388 374/374
f 376/376 389/389 374/374
f 390/390 387/387 388/388
f 374/374 391/391 377/377
f 374/374 387/387 391/391
f 377/377 392/392 380/380
f 377/377 391/391 392/392
f 380/380 393/393 381/381
f 380/380 392/392 393/393
f 381/381 394/394 382/382
f 381/381 393/393 394/394
f 382/382 395/395 383/383
f 382/382 394/394 395/395
f 383/383 396/396 384/384
f 383/383 395/395 396/396
f 386/386 384/384 397/397
f 397/397 384/384 396/396
f 398/398 397/397 396/396
f 399/399 398/398 396/396
f 401/401 400/400 387/387
f 390/390 401/401 387/387
f 402/402 400/400 401/401
f 387/387 403/403 391/391
f 387/387 400/400 403/403
f 391/391 404/404 392/392
f 391/391 403/403 404/404
f 392/392 405/405 393/393
f 392/392 404/404 405/405
f 393/393 406/406 394/394
f 393/393 405/405 406/406
f 394/394 407/407 395/395
f 394/394 406/406 407/407
f 408/408 396/396 395/395
f 409/409 408/408 395/395
f 410/410 409/409 395/395
f 410/410 395/395 407/407
f 411/411 410/410 407/407
f 399/399 396/396 412/412
f 412/412 396/396 408/408
f 414/414 413/413 400/400
f 402/402 414/414 400/400
f 415/415 413/413 414/414
f 400/400 416/416 403/403
f 400/400 413/413 416/416
f 403/403 417/417 404/404
f 403/403 416/416 417/417
f 404/404 418/418 405/405
f 404/404 417/417 418/418
f 405/405 419/419 406/406
f 405/405 418/418 419/419
f 406/406 420/420 407/407
f 406/406 419/419 420/420
f 411/411 407/407 421/421
f 421/421 407/407 420/420
f 422/422 421/421 420/420
f 425/425 424/424 423/423
f 426/426 424/424 425/425
f 428/428 427/427 413/413
f 415/415 428/428 413/413
f 423/423 424/424 427/427
f 429/429 423/423 427/427
f 428/428 429/429 427/427
f 413/413 430/430 416/416
f 413/413 427/427 430/430
f 416/416 431/431 417/417
f 416/416 430/430 431/431
f 417/417 432/432 418/418
f 417/417 431/431 432/432
f 418/418 433/433 419/419
f 418/418 432/432 433/433
f 419/419 434/434 420/420
f 419/419 433/433 434/434
f 422/422 420/420 435/435
f 435/435 420/420 434/434
f 436/436 435/435 434/434
f 438/438 437/437 424/424
f 439/439 438/438 424/424
f 426/426 439/439 424/424
f 440/440 437/437 438/438
f 424/424 441/441 427/427
f 424/424 437/437 441/441
f 427/427 442/442 430/430
f 427/427 441/441 442/442
f 430/430 443/443 431/431
f 430/430 442/442 443/443
f 431/431 444/444 432/432
f 431/431 443/443 444/444
f 432/432 445/445 433/433
f 432/432 444/444 445/445
f 433/433 446/446 434/434
f 433/433 445/445 446/446
f 436/436 434/434 447/447
f 447/447 434/434 446/446
f 448/448 447/447 446/446
f 449/449 448/448 446/446
f 450/450 449/449 446/446
f 452/452 451/451 437/437
f 453/453 452/452 437/437
f 440/440 453/453 437/437
f 454/454 451/451 452/452
f 437/437 455/455 441/441
f 437/437 451/451 455/455
f 441/441 456/456 442/442
f 441/441 455/455 456/456
f 442/442 457/457 443/443
f 442/442 456/456 457/457
f 443/443 458/458 444/444
f 443/443 457/457 458/458
f 444/444 459/459 445/445
f 444/444 458/458 459/459
f 460/460 446/446 445/445
f 461/461 460/460 445/445
f 462/462 461/461 445/445
f 463/463 462/462 445/445
f 463/463 445/445 459/459
f 464/464 463/463 459/459
f 450/450 446/446 465/465
f 465/465 446/446 460/460
f 467/467 466/466 451/451
f 468/468 467/467 451/451
f 454/454 468/468 451/451
f 469/469 466/466 467/467
f 451/451 470/470 455/455
f 451/451 466/466 470/470
f 455/455 471/471 456/456
f 455/455 470/470 471/471
f 456/456 472/472 457/457
f 456/456 471/471 472/472
f 457/457 473/473 458/458
f 457/457 472/472 473/473
f 458/458 474/474 459/459
f 458/458 473/473 474/474
f 464/464 459/459 475/475
f 475/475 459/459 474/474
f 476/476 475/475 474/474
f 477/477 476/476 474/474
f 480/480 479/479 478/478
f 482/482 481/481 479/479
f 480/480 482/482 479/479
f 484/484 483/483 466/466
f 485/485 484/484 466/466
f 469/469 485/485 466/466
f 478/478 479/479 483/483
f 484/484 478/478 483/483
f 466/466 486/486 470/470
f 466/466 483/483 486/486
f 470/470 487/487 471/471
f 470/470 486/486 487/487
f 471/471 488/488 472/472
f 471/471 487/487 488/488
f 472/472 489/489 473/473
f 472/472 488/488 489/489
f 473/473 490/490 474/474
f 473/473 489/489 490/490
f 477/477 474/474 491/491
f 491/491 474/474 490/490
f 492/492 491/491 490/490
f 493/493 492/492 490/490
f 495/495 494/494 479/479
f 481/481 495/495 479/479
f 497/497 496/496 494/494
f 495/495 497/497 494/494
f 479/479 498/498 483/483
f 479/479 494/494 498/498
f 483/483 499/499 486/486
f 483/483 498/498 499/499
f 486/486 500/500 487/487
f 486/486 499/499 500/500
f 487/487 501/501 488/488
f 487/487 500/500 501/501
f 488/488 502/502 489/489
f 488/488 501/501 502/502
f 489/489 503/503 490/490
f 489/489 502/502 503/503
f 493/493 490/490 504/504
f 504/504 490/490 503/503
f 505/505 504/504 503/503
f 506/506 505/505 503/503
f 508/508 507/507 494/494
f 496/496 508/508 494/494
f 510/510 509/509 507/507
f 508/508 510/510 507/507
f 494/494 511/511 498/498
f 494/494 507/507 511/511
f 498/498 512/512 499/499
f 498/498 511/511 512/512
f 499/499 513/513 500/500
f 499/499 512/512 513/513
f 500/500 514/514 501/501
f 500/500 513/513 514/514
f 501/501 515/515 502/502
f 501/501 514/514 515/515
f 516/516 503/503 502/502
f 517/517 516/516 502/502
f 518/518 517/517 502/502
f 519/519 518/518 502/502
f 519/519 502/502 515/515
f 520/520 519/519 515/515
f 506/506 503/503 521/521
f 521/521 503/503 516/516
f 523/523 522/522 507/507
f 509/509 523/523 507/507
f 525/525 524/524 522/522
f 523/523 525/525 522/522
f 507/507 526/526 511/511
f 507/507 522/522 526/526
f 511/511 527/527 512/512
f 511/511 526/526 527/527
f 512/512 528/528 513/513
f 512/512 527/527 528/528
f 513/513 529/529 514/514
f 513/513 528/528 529/529
f 514/514 530/530 515/515
f 514/514 529/529 530/530
f 520/520 515/515 531/531
f 532/532 520/520 531/531
f 533/533 532/532 531/531
f 531/531 515/515 530/530
f 534/534 531/531 530/530
f 537/537 536/536 535/535
f 538/538 537/537 535/535
f 539/539 535/535 536/536
f 541/541 540/540 522/522
f 524/524 541/541 522/522
f 538/538 535/535 540/540
f 541/541 538/538 540/540
f 522/522 542/542 526/526
f 522/522 540/540 542/542
f 526/526 543/543 527/527
f 526/526 542/542 543/543
f 527/527 544/544 528/528
f 527/527 543/543 544/544
f 528/528 545/545 529/529
f 528/528 544/544 545/545
f 529/529 546/546 530/530
f 529/529 545/545 546/546
f 534/534 530/530 547/547
f 547/547 530/530 546/546
f 548/548 547/547 546/546
f 549/549 548/548 546/546
f 551/551 550/550 535/535
f 539/539 551/551 535/535
f 552/552 550/550 551/551
f 535/535 553/553 540/540
f 535/535 550/550 553/553
f 540/540 554/554 542/542
f 540/540 553/553 554/554
f 542/542 555/555 543/543
f 542/542 554/554 555/555
f 543/543 556/556 544/544
f 543/543 555/555 556/556
f 544/544 557/557 545/545
f 544/544 556/556 557/557
f 558/558 546/546 545/545
f 559/559 558/558 545/545
f 559/559 545/545 557/557
f 560/560 559/559 557/557
f 549/549 546/546 561/561
f 561/561 546/546 558/558
f 563/563 562/562 550/550
f 552/552 563/563 550/550
f 564/564 562/562 563/563
f 550/550 565/565 553/553
f 550/550 562/562 565/565
f 553/553 566/566 554/554
f 553/553 565/565 566/566
f 554/554 567/567 555/555
f 554/554 566/566 567/567
f 555/555 568/568 556/556
f 555/555 567/567 568/568
f 556/556 569/569 557/557
f 556/556 568/568 569/569
f 560/560 557/557 570/570
f 570/570 557/557 569/569
f 571/571 570/570 569/569
f 574/574 573/573 572/572
f 575/575 574/574 572/572
f 576/576 572/572 573/573
f 578/578 577/577 562/562
f 564/564 578/578 562/562
f 575/575 572/572 577/577
f 578/578 575/575 577/577
f 562/562 579/579 565/565
f 562/562 577/577 579/579
f 565/565 580/580 566/566
f 565/565 579/579 580/580
f 566/566 581/581 567/567
f 566/566 580/580 581/581
f 567/567 582/582 568/568
f 567/567 581/581 582/582
f 568/568 583/583 569/569
f 568/568 582/582 583/583
f 584/584 571/571 569/569
f 585/585 584/584 569/569
f 585/585 569/569 583/583
f 586/586 585/585 583/583
f 588/588 587/587 572/572
f 589/589 588/588 572/572
f 576/576 589/589 572/572
f 590/590 587/587 588/588
f 572/572 591/591 577/577
f 572/572 587/587 591/591
f 577/577 592/592 579/579
f 577/577 591/591 592/592
f 579/579 593/593 580/580
f 579/579 592/592 593/593
f 580/580 594/594 581/581
f 580/580 593/593 594/594
f 581/581 595/595 582/582
f 581/581 594/594 595/595
f 582/582 596/596 583/583
f 582/582 595/595 596/596
f 586/586 583/583 597/597
f 597/597 583/583 596/596
f 598/598 597/597 596/596
f 599/599 598/598 596/596
f 601/601 600/600 587/587
f 590/590 601/601 587/587
f 602/602 600/600 601/601
f 587/587 603/603 591/591
f 587/587 600/600 603/603
f 591/591 604/604 592/592
f 591/591 603/603 604/604
f 592/592 605/605 593/593
f 592/592 604/604 605/605
f 593/593 606/606 594/594
f 593/593 605/605 606/606
f 594/594 607/607 595/595
f 594/594 606/606 607/607
f 608/608 596/596 595/595
f 609/609 608/608 595/595
f 610/610 609/609 595/595
f 610/610 595/595 607/607
f 611/611 610/610 607/607
f 599/599 596/596 612/612
f 612/612 596/596 608/608
f 615/615 614/614 613/613
f 616/616 614/614 615/615
f 618/618 617/617 600/600
f 602/602 618/618 600/600
f 613/613 614/614 617/617
f 619/619 613/613 617/617
f 618/618 619/619 617/617
f 600/600 620/620 603/603
f 600/600 617/617 620/620
f 603/603 621/621 604/604
f 603/603 620/620 621/621
f 604/604 622/622 605/605
f 604/604 621/621 622/622
f 605/605 623/623 606/606
f 605/605 622/622 623/623
f 606/606 624/624 607/607
f 606/606 623/623 624/624
f 611/611 607/607 625/625
f 625/625 607/607 624/624
f 626/626 625/625 624/624
f 628/628 627/627 614/614
f 629/629 628/628 614/614
f 616/616 629/629 614/614
f 630/630 627/627 628/628
f 614/614 631/631 617/617
f 614/614 627/627 631/631
f 617/617 632/632 620/620
f 617/617 631/631 632/632
f 620/620 633/633 621/621
f 620/620 632/632 633/633
f 621/621 634/634 622/622
f 621/621 633/633 634/634
f 622/622 635/635 623/623
f 622/622 634/634 635/635
f 623/623 636/636 624/624
f 623/623 635/635 636/636
f 637/637 626/626 624/624
f 638/638 637/637 624/624
f 638/638 624/624 636/636
f 639/639 638/638 636/636
f 641/641 640/640 627/627
f 642/642 641/641 627/627
f 630/630 642/642 627/627
f 643/643 640/640 641/641
f 627/627 644/644 631/631
f 627/627 640/640 644/644
f 631/631 645/645 632/632
f 631/631 644/644 645/645
f 632/632 646/646 633/633
f 632/632 645/645 646/646
f 633/633 647/647 634/634
f 633/633 646/646 647/647
f 634/634 648/648 635/635
f 634/634 647/647 648/648
f 649/649 636/636 635/635
f 650/650 649/649 635/635
f 650/650 635/635 648/648
f 651/651 650/650 648/648
f 639/639 636/636 652/652
f 652/652 636/636 649/649
f 654/654 653/653 640/640
f 643/643 654/654 640/640
f 656/656 655/655 653/653
f 654/654 656/656 653/653
f 640/640 657/657 644/644
f 640/640 653/653 657/657
f 644/644 658/658 645/645
f 644/644 657/657 658/658
f 645/645 659/659 646/646
f 645/645 658/658 659/659
f 646/646 660/660 647/647
f 646/646 659/659 660/660
f 647/647 661/661 648/648
f 647/647 660/660 661/661
f 662/662 651/651 648/648
f 663/663 662/662 648/648
f 663/663 648/648 661/661
f 664/664 663/663 661/661
f 667/667 666/666 665/665
f 668/668 666/666 667/667
f 670/670 669/669 653/653
f 655/655 670/670 653/653
f 665/665 666/666 669/669
f 670/670 665/665 669/669
f 653/653 671/671 657/657
f 653/653 669/669 671/671
f 657/657 672/672 658/658
f 657/657 671/671 672/672
f 658/658 673/673 659/659
f 658/658 672/672 673/673
f 659/659 674/674 660/660
f 659/659 673/673 674/674
f 660/660 675/675 661/661
f 660/660 674/674 675/675
f 664/664 661/661 676/676
f 676/676 661/661 675/675
f 677/677 676/676 675/675
f 679/679 678/678 666/666
f 680/680 679/679 666/666
f 668/668 680/680 666/666
f 681/681 678/678 679/679
f 666/666 682/682 669/669
f 666/666 678/678 682/682
f 669/669 683/683 671/671
f 669/669 682/682 683/683
f 671/671 684/684 672/672
f 671/671 683/683 684/684
f 672/672 685/685 673/673
f 672/672 684/684 685/685
f 673/673 686/686 674/674
f 673/673 685/685 686/686
f 674/674 687/687 675/675
f 674/674 686/686 687/687
f 677/677 675/675 688/688
f 688/688 675/675 687/687
f 689/689 688/688 687/687
f 691/691 690/690 678/678
f 692/692 691/691 678/678
f 681/681 692/692 678/678
f 693/693 690/690 691/691
f 678/678 694/694 682/682
f 678/678 690/690 694/694
f 682/682 695/695 683/683
f 682/682 694/694 695/695
f 683/683 696/696 684/684
f 683/683 695/695 696/696
f 684/684 697/697 685/685
f 684/684 696/696 697/697
f 685/685 698/698 686/686
f 685/685 697/697 698/698
f 699/699 687/687 686/686
f 700/700 699/699 686/686
f 700/700 686/686 698/698
f 701/701 700/700 698/698
f 689/689 687/687 702/702
f 703/703 702/702 687/687
f 699/699 703/703 687/687
f 706/706 705/705 704/704
f 707/707 705/705 706/706
f 709/709 708/708 690/690
f 693/693 709/709 690/690
f 704/704 705/705 708/708
f 710/710 704/704 708/708
f 709/709 710/710 708/708
f 690/690 711/711 694/694
f 690/690 708/708 711/711
f 694/694 712/712 695/695
f 694/694 711/711 712/712
f 695/695 713/713 696/696
f 695/695 712/712 713/713
f 696/696 714/714 697/697
f 696/696 713/713 714/714
f 697/697 715/715 698/698
f 697/697 714/714 715/715
f 701/701 698/698 716/716
f 716/716 698/698 715/715
f 717/717 716/716 715/715
f 719/719 718/718 705/705
f 720/720 719/719 705/705
f 707/707 720/720 705/705
f 721/721 718/718 719/719
f 705/705 722/722 708/708
f 705/705 718/718 722/722
f 708/708 723/723 711/711
f 708/708 722/722 723/723
f 711/711 724/724 712/712
f 711/711 723/723 724/724
f 712/712 725/725 713/713
f 712/712 724/724 725/725
f 713/713 726/726 714/714
f 713/713 725/725 726/726
f 714/714 727/727 715/715
f 714/714 726/726 727/727
f 728/728 717/717 715/715
f 729/729 728/728 715/715
f 729/729 715/715 727/727
f 730/730 729/729 727/727
f 731/731 730/730 727/727
f 733/733 732/732 718/718
f 734/734 733/733 718/718
f 721/721 734/734 718/718
f 735/735 732/732 733/733
f 718/718 736/736 722/722
f 718/718 732/732 736/736
f 722/722 737/737 723/723
f 722/722 736/736 737/737
f 723/723 738/738 724/724
f 723/723 737/737 738/738
f 724/724 739/739 725/725
f 724/724 738/738 739/739
f 725/725 740/740 726/726
f 725/725 739/739 740/740
f 741/741 727/727 726/726
f 742/742 741/741 726/726
f 742/742 726/726 740/740
f 743/743 742/742 740/740
f 744/744 743/743 740/740
f 731/731 727/727 745/745
f 745/745 727/727 741/741
f 747/747 746/746 732/732
f 748/748 747/747 732/732
f 735/735 748/748 732/732
f 749/749 746/746 747/747
f 732/732 750/750 736/736
f 732/732 746/746 750/750
f 736/736 751/751 737/737
f 736/736 750/750 751/751
f 737/737 752/752 738/738
f 737/737 751/751 752/752
f 738/738 753/753 739/739
f 738/738 752/752 753/753
f 739/739 754/754 740/740
f 739/739 753/753 754/754
f 744/744 740/740 755/755
f 755/755 740/740 754/754
f 756/756 755/755 754/754
f 757/757 756/756 754/754
f 760/760 759/759 758/758
f 761/761 759/759 760/760
f 763/763 762/762 746/746
f 749/749 763/763 746/746
f 758/758 759/759 762/762
f 764/764 758/758 762/762
f 763/763 764/764 762/762
f 746/746 765/765 750/750
f 746/746 762/762 765/765
f 750/750 766/766 751/751
f 750/750 765/765 766/766
f 751/751 767/767 752/752
f 751/751 766/766 767/767
f 752/752 768/768 753/753
f 752/752 767/767 768/768
f 753/753 769/769 754/754
f 753/753 768/768 769/769
f 757/757 754/754 770/770
f 770/770 754/754 769/769
f 771/771 770/770 769/769
f 772/772 771/771 769/769
f 774/774 773/773 759/759
f 775/775 774/774 759/759
f 761/761 775/775 759/759
f 777/777 776/776 773/773
f 774/774 777/777 773/773
f 759/759 778/778 762/762
f 759/759 773/773 778/778
f 762/762 779/779 765/765
f 762/762 778/778 779/779
f 765/765 780/780 766/766
f 765/765 779/779 780/780
f 766/766 781/781 767/767
f 766/766 780/780 781/781
f 767/767 782/782 768/768
f 767/767 781/781 782/782
f 768/768 783/783 769/769
f 768/768 782/782 783/783
f 772/772 769/769 784/784
f 784/784 769/769 783/783
f 785/785 784/784 783/783
f 786/786 785/785 783/783
f 788/788 787/787 773/773
f 776/776 788/788 773/773
f 789/789 787/787 788/788
f 773/773 790/790 778/778
f 773/773 787/787 790/790
f 778/778 791/791 779/779
f 778/778 790/790 791/791
f 779/779 792/792 780/780
f 779/779 791/791 792/792
f 780/780 793/793 781/781
f 780/780 792/792 793/793
f 781/781 794/794 782/782
f 781/781 793/793 794/794
f 795/795 783/783 782/782
f 796/796 795/795 782/782
f 797/797 796/796 782/782
f 797/797 782/782 794/794
f 798/798 797/797 794/794
f 786/786 783/783 799/799
f 799/799 783/783 795/795
f 801/801 800/800 787/787
f 789/789 801/801 787/787
f 803/803 802/802 800/800
f 801/801 803/803 800/800
f 787/787 804/804 790/790
f 787/787 800/800 804/804
f 790/790 805/805 791/791
f 790/790 804/804 805/805
f 791/791 806/806 792/792
f 791/791 805/805 806/806
f 792/792 807/807 793/793
f 792/792 806/806 807/807
f 793/793 808/808 794/794
f 793/793 807/807 808/808
f 798/798 794/794 809/809
f 809/809 794/794 808/808
f 810/810 809/809 808/808
f 811/811 810/810 808/808
f 802/802 812/812 800/800
f 802/802 813/813 812/812
f 800/800 814/814 804/804
f 800/800 812/812 814/814
f 804/804 815/815 805/805
f 804/804 814/814 815/815
f 805/805 816/816 806/806
f 805/805 815/815 816/816
f 806/806 817/817 807/807
f 806/806 816/816 817/817
f 807/807 818/818 808/808
f 807/807 817/817 818/818
f 811/811 808/808 819/819
f 819/819 808/808 818/818
f 820/820 819/819 818/818
f 821/821 820/820 818/818
f 813/813 822/822 812/812
f 813/813 823/823 822/822
f 812/812 824/824 814/814
f 812/812 822/822 824/824
f 814/814 825/825 815/815
f 814/814 824/824 825/825
f 815/815 826/826 816/816
f 815/815 825/825 826/826
f 816/816 827/827 817/817
f 816/816 826/826 827/827
f 828/828 818/818 817/817
f 829/829 828/828 817/817
f 830/830 829/829 817/817
f 830/830 817/817 827/827
f 831/831 830/830 827/827
f 821/821 818/818 832/832
f 832/832 818/818 828/828
f 823/823 833/833 822/822
f 823/823 834/834 833/833
f 822/822 835/835 824/824
f 822/822 833/833 835/835
f 824/824 836/836 825/825
f 824/824 835/835 836/836
f 825/825 837/837 826/826
f 825/825 836/836 837/837
f 826/826 838/838 827/827
f 826/826 837/837 838/838
f 839/839 831/831 827/827
f 840/840 839/839 827/827
f 840/840 827/827 838/838
f 841/841 840/840 838/838
f 834/834 842/842 833/833
f 834/834 843/843 842/842
f 833/833 844/844 835/835
f 833/833 842/842 844/844
f 835/835 845/845 836/836
f 835/835 844/844 845/845
f 836/836 846/846 837/837
f 836/836 845/845 846/846
f 837/837 847/847 838/838
f 837/837 846/846 847/847
f 841/841 838/838 848/848
f 848/848 838/838 847/847
f 849/849 848/848 847/847
f 850/850 849/849 847/847
f 843/843 851/851 842/842
f 843/843 852/852 851/851
f 842/842 853/853 844/844
f 842/842 851/851 853/853
f 844/844 854/854 845/845
f 844/844 853/853 854/854
f 845/845 855/855 846/846
f 845/845 854/854 855/855
f 846/846 856/856 847/847
f 846/846 855/855 856/856
f 850/850 847/847 857/857
f 857/857 847/847 856/856
f 858/858 857/857 856/856
f 859/859 858/858 856/856
f 852/852 860/860 851/851
f 852/852 861/861 860/860
f 851/851 862/862 853/853
f 851/851 860/860 862/862
f 853/853 863/863 854/854
f 853/853 862/862 863/863
f 854/854 864/864 855/855
f 854/854 863/863 864/864
f 865/865 856/856 855/855
f 866/866 865/865 855/855
f 867/867 866/866 855/855
f 867/867 855/855 864/864
f 868/868 867/867 864/864
f 859/859 856/856 869/869
f 869/869 856/856 865/865
f 861/861 870/870 860/860
f 861/861 871/871 870/870
f 860/860 872/872 862/862
f 860/860 870/870 872/872
f 862/862 873/873 863/863
f 862/862 872/872 873/873
f 863/863 874/874 864/864
f 863/863 873/873 874/874
f 868/868 864/864 875/875
f 875/875 864/864 874/874
f 876/876 875/875 874/874
f 871/871 877/877 870/870
f 871/871 878/878 877/877
f 870/870 879/879 872/872
f 870/870 877/877 879/879
f 872/872 880/880 873/873
f 872/872 879/879 880/880
f 873/873 881/881 874/874
f 873/873 880/880 881/881
f 876/876 874/874 882/882
f 882/882 874/874 881/881
f 883/883 882/882 881/881
f 884/884 883/883 881/881
f 878/878 885/885 877/877
f 878/878 886/886 885/885
f 877/877 887/887 879/879
f 877/877 885/885 887/887
f 879/879 888/888 880/880
f 879/879 887/887 888/888
f 889/889 881/881 880/880
f 890/890 889/889 880/880
f 890/890 880/880 888/888
f 891/891 890/890 888/888
f 884/884 881/881 892/892
f 893/893 892/892 881/881
f 889/889 893/893 881/881
f 886/886 894/894 885/885
f 886/886 895/895 894/894
f 885/885 896/896 887/887
f 885/885 894/894 896/896
f 887/887 897/897 888/888
f 887/887 896/896 897/897
f 891/891 888/888 898/898
f 898/898 888/888 897/897
f 899/899 898/898 897/897
f 895/895 900/900 894/894
f 895/895 901/901 900/900
f 894/894 902/902 896/896
f 894/894 900/900 902/902
f 896/896 903/903 897/897
f 896/896 902/902 903/903
f 904/904 899/899 897/897
f 905/905 904/904 897/897
f 905/905 897/897 903/903
f 906/906 905/905 903/903
f 901/901 907/907 900/900
f 901/901 908/908 907/907
f 900/900 909/909 902/902
f 900/900 907/907 909/909
f 910/910 903/903 902/902
f 911/911 910/910 902/902
f 911/911 902/902 909/909
f 912/912 911/911 909/909
f 906/906 903/903 913/913
f 913/913 903/903 910/910
f 908/908 914/914 907/907
f 908/908 915/915 914/914
f 907/907 916/916 909/909
f 907/907 914/914 916/916
f 912/912 909/909 917/917
f 917/917 909/909 916/916
f 918/918 917/917 916/916
f 915/915 919/919 914/914
f 915/915 920/920 919/919
f 914/914 921/921 916/916
f 914/914 919/919 921/921
f 922/922 918/918 916/916
f 923/923 922/922 916/916
f 923/923 916/916 921/921
f 924/924 923/923 921/921
f 920/920 925/925 919/919
f 920/920 926/926 925/925
f 919/919 927/927 921/921
f 919/919 925/925 927/927
f 924/924 921/921 928/928
f 928/928 921/921 927/927
f 929/929 928/928 927/927
f 926/926 930/930 925/925
f 926/926 931/931 930/930
f 932/932 927/927 925/925
f 933/933 932/932 925/925
f 933/933 925/925 930/930
f 934/934 933/933 930/930
f 935/935 929/929 927/927
f 936/936 935/935 927/927
f 936/936 927/927 932/932
f 931/931 937/937 930/930
f 931/931 938/938 937/937
f 934/934 930/930 939/939
f 939/939 930/930 937/937
f 940/940 939/939 937/937
f 941/941 940/940 937/937
f 938/938 942/942 937/937
f 938/938 943/943 942/942
f 941/941 937/937 944/944
f 944/944 937/937 942/942
f 945/945 944/944 942/942
f 946/946 945/945 942/942
f 947/947 942/942 943/943
f 948/948 947/947 943/943
f 949/949 948/948 943/943
f 949/949 943/943 950/950
f 951/951 949/949 950/950
f 946/946 942/942 952/952
f 952/952 942/942 947/947
f 951/951 950/950 953/953
f 953/953 950/950 954/954
f 955/955 953/953 954/954
f 956/956 955/955 954/954
f 956/956 954/954 957/957
f 957/957 954/954 958/958
f 959/959 957/957 958/958
f 960/960 959/959 958/958
f 960/960 958/958 961/961
f 961/961 958/958 962/962
f 963/963 961/961 962/962
f 964/964 963/963 962/962
f 964/964 962/962 965/965
f 965/965 962/962 966/966
