# OSM contributors ODbL; elevations USGS 3DEP
# Centimeters, Z up, OBJ Y = negative source ENU Y. Apply source-to-world placement.
o EastsideTrail_Concrete_6_14
v 15989.145325 15764.696489 -262.885417
v 15989.145325 15698.029823 -263.927083
v 15955.610907 15731.564240 -264.713046
v 15956.207769 15732.408059 -264.676547
v 15979.046460 15764.696489 -263.279904
v 15931.890887 15698.029823 -266.163585
v 16055.811991 15764.696489 -261.843750
v 16055.811991 15698.029823 -262.364583
v 16122.478658 15764.696489 -261.583333
v 16122.478658 15698.029823 -261.843750
v 16189.145325 15764.696489 -261.062500
v 16189.145325 15698.029823 -260.802083
v 16255.811991 15764.696489 -259.500000
v 16255.811991 15698.029823 -258.979167
v 16322.478658 15764.696489 -257.156250
v 16322.478658 15698.029823 -256.114583
v 16389.145325 15764.696489 -254.812500
v 16389.145325 15698.029823 -253.770833
v 16455.811991 15764.696489 -253.770833
v 16455.811991 15711.422728 -252.730330
v 16452.803478 15707.169412 -252.694266
v 16450.263426 15703.578388 -252.663817
v 16446.338739 15698.029823 -252.653774
v 16477.882851 15742.625629 -253.167333
v 16493.494312 15764.696489 -253.770833
v 15922.478658 15631.363156 -266.531250
v 15898.431611 15655.410203 -267.470588
v 15922.174017 15684.292500 -266.543150
v 15922.478658 15684.723189 -266.531250
v 15878.239035 15631.363156 -267.913738
v 15886.519626 15640.919445 -267.729628
v 15989.145325 15631.363156 -264.187500
v 15927.991482 15692.516999 -266.337440
v 16055.811991 15631.363156 -262.625000
v 16122.478658 15631.363156 -261.843750
v 16189.145325 15631.363156 -260.541667
v 16255.811991 15631.363156 -257.416667
v 16322.478658 15631.363156 -254.552083
v 16389.145325 15631.363156 -252.208333
v 16422.644000 15664.531147 -252.069729
v 16414.377525 15652.844334 -252.021855
v 16399.183166 15631.363156 -251.933861
v 15855.811991 15605.481030 -268.513481
v 15855.811991 15564.696489 -268.354167
v 15836.878548 15583.629932 -269.019796
v 15844.729509 15592.691194 -268.809849
v 15820.474021 15564.696489 -269.458478
v 15922.478658 15564.696489 -266.531250
v 15867.827507 15619.347641 -268.239098
v 15989.145325 15564.696489 -264.447917
v 16055.811991 15564.696489 -262.625000
v 16122.478658 15564.696489 -261.322917
v 16189.145325 15564.696489 -257.416667
v 16255.811991 15564.696489 -253.510417
v 16322.478658 15564.696489 -251.166667
v 16389.145325 15617.172057 -251.598560
v 16375.951572 15598.519256 -251.260915
v 16367.405149 15586.436665 -251.042201
v 16352.027593 15564.696489 -250.358688
v 16395.024575 15625.483906 -251.863846
v 15789.145325 15528.537843 -270.013766
v 15789.145325 15498.029823 -269.656250
v 15774.983129 15512.192019 -270.209461
v 15762.712852 15498.029823 -270.482265
v 15855.811991 15498.029823 -268.093750
v 15805.930671 15547.911143 -269.847390
v 15801.150279 15542.393808 -269.894774
v 15922.478658 15498.029823 -266.270833
v 15989.145325 15498.029823 -264.187500
v 16055.811991 15498.029823 -262.625000
v 16122.478658 15498.029823 -258.197917
v 16189.145325 15498.029823 -248.822917
v 16255.811991 15498.029823 -244.395833
v 16322.478658 15522.921385 -247.739803
v 16312.166298 15508.342183 -246.906396
v 16304.872019 15498.029823 -245.354037
v 16339.785724 15547.389424 -249.814552
v 15722.478658 15431.363156 -271.479167
v 15710.762330 15443.079484 -271.708001
v 15718.617668 15451.247843 -271.617169
v 15722.478658 15455.326047 -271.572772
v 15699.494986 15431.363156 -272.197406
v 15789.145325 15431.363156 -269.656250
v 15743.246364 15477.262116 -271.090593
v 15760.608656 15495.601187 -270.548021
v 15855.811991 15431.363156 -268.093750
v 15922.478658 15431.363156 -265.750000
v 15989.145325 15431.363156 -263.666667
v 16055.811991 15431.363156 -260.281250
v 16122.478658 15431.363156 -250.385417
v 16189.145325 15431.363156 -240.750000
v 16255.811991 15431.363156 -239.708333
v 16299.099666 15489.869099 -244.731251
v 16284.546872 15469.294941 -243.161131
v 16260.673713 15435.544021 -240.135238
v 16257.483287 15431.363156 -239.754033
v 15655.811991 15385.939470 -273.562500
v 15655.811991 15364.696489 -273.562500
v 15645.397991 15375.110490 -273.562500
v 15635.383067 15364.696489 -274.041303
v 15722.478658 15364.696489 -271.479167
v 15678.080161 15409.094987 -272.866620
v 15673.062886 15403.877782 -273.023410
v 15789.145325 15364.696489 -269.916667
v 15855.811991 15364.696489 -267.572917
v 15922.478658 15364.696489 -265.489583
v 15989.145325 15364.696489 -262.364583
v 16055.811991 15364.696489 -253.510417
v 16122.478658 15364.696489 -241.010417
v 16189.145325 15364.696489 -236.062500
v 16255.811991 15429.173021 -239.639892
v 16251.451608 15423.458994 -239.529459
v 16226.907293 15393.601188 -238.979908
v 16209.236061 15372.104387 -237.054244
v 16205.719466 15367.937953 -236.678872
v 16202.910715 15364.696489 -236.385126
v 16256.759921 15430.415227 -239.712036
v 15589.145325 15298.029823 -275.385417
v 15580.033651 15307.141496 -275.065084
v 15580.814938 15307.953916 -275.086326
v 15589.145325 15316.616254 -275.312813
v 15571.271148 15298.029823 -275.385417
v 15655.811991 15298.029823 -273.562500
v 15612.715821 15341.125993 -274.572566
v 15626.938912 15355.915849 -274.239213
v 15722.478658 15298.029823 -272.000000
v 15789.145325 15298.029823 -269.656250
v 15855.811991 15298.029823 -267.572917
v 15922.478658 15298.029823 -264.708333
v 15989.145325 15298.029823 -256.635417
v 16055.811991 15298.029823 -241.531250
v 16122.478658 15298.029823 -231.375000
v 16189.145325 15348.810420 -235.069621
v 16165.570946 15321.604201 -235.118893
v 16162.146980 15317.652743 -234.521034
v 16145.145067 15298.029823 -231.552081
v 16196.520272 15357.321542 -236.062500
v 15522.478658 15247.293037 -276.772751
v 15522.478658 15231.363156 -277.208333
v 15514.669312 15239.172502 -276.384691
v 15507.159229 15231.363156 -276.789443
v 15589.145325 15231.363156 -275.906250
v 15547.351481 15273.156999 -275.579736
v 15534.690964 15259.991983 -276.186992
v 15655.811991 15231.363156 -274.343750
v 15722.478658 15231.363156 -272.000000
v 15789.145325 15231.363156 -269.656250
v 15855.811991 15231.363156 -266.791667
v 15922.478658 15231.363156 -259.500000
v 15989.145325 15231.363156 -246.218750
v 16055.811991 15231.363156 -233.979167
v 16122.478658 15271.869169 -229.944339
v 16118.577480 15267.366587 -230.292424
v 16103.675222 15250.166592 -231.622066
v 16087.383725 15231.363156 -231.019317
v 16134.622909 15285.885572 -231.090369
v 15455.811991 15177.969821 -277.262526
v 15455.811991 15164.696489 -277.729167
v 15449.304972 15171.203509 -276.737863
v 15443.047310 15164.696489 -276.931374
v 15522.478658 15164.696489 -277.729167
v 15481.987142 15205.188005 -276.305637
v 15488.566991 15212.030050 -276.432101
v 15589.145325 15164.696489 -276.166667
v 15655.811991 15164.696489 -274.343750
v 15722.478658 15164.696489 -272.000000
v 15789.145325 15164.696489 -268.875000
v 15855.811991 15164.696489 -261.583333
v 15922.478658 15164.696489 -248.302083
v 15989.145325 15164.696489 -236.322917
v 16055.811991 15196.506081 -232.617562
v 16040.342346 15180.166134 -234.819413
v 16025.696648 15164.696489 -233.610123
v 16072.673440 15214.501707 -232.859461
v 16075.005602 15217.076485 -232.570417
v 16068.788852 15210.213002 -232.798153
v 15389.145325 15108.646605 -277.065618
v 15389.145325 15098.029823 -277.729167
v 15383.940633 15103.234515 -276.448324
v 15378.935391 15098.029823 -276.652338
v 15455.811991 15098.029823 -278.510417
v 15416.622802 15137.219012 -275.601844
v 15442.443017 15164.068116 -276.900970
v 15396.319043 15116.106183 -276.683461
v 15522.478658 15098.029823 -277.468750
v 15589.145325 15098.029823 -275.906250
v 15655.811991 15098.029823 -274.083333
v 15722.478658 15098.029823 -271.479167
v 15789.145325 15098.029823 -264.187500
v 15855.811991 15098.029823 -250.125000
v 15922.478658 15098.029823 -235.802083
v 15989.145325 15126.635950 -231.268001
v 15975.791548 15112.750049 -231.823287
v 15975.121670 15112.053477 -231.851142
v 15961.635418 15098.029823 -230.907488
v 16007.803840 15146.037974 -233.917717
v 16023.049259 15161.900162 -233.653685
v 16021.915522 15160.711982 -233.672851
v 15322.478658 15039.323388 -276.201645
v 15322.478658 15031.363156 -276.947917
v 15318.576293 15035.265521 -275.606479
v 15314.823471 15031.363156 -275.721891
v 15389.145325 15031.363156 -279.552083
v 15351.258463 15069.250018 -274.520234
v 15455.811991 15031.363156 -278.770833
v 15522.478658 15031.363156 -277.208333
v 15589.145325 15031.363156 -275.645833
v 15655.811991 15031.363156 -273.302083
v 15722.478658 15031.363156 -267.052083
v 15789.145325 15031.363156 -253.250000
v 15855.811991 15031.363156 -236.583333
v 15922.478658 15057.312734 -228.644783
v 15909.757330 15044.084484 -229.052602
v 15897.523499 15031.363156 -228.762426
v 15942.439500 15078.068981 -231.669565
v 15255.811991 14970.000172 -273.461808
v 15255.811991 14964.696489 -274.083333
v 15253.211953 14967.296527 -272.864566
v 15250.711552 14964.696489 -272.688682
v 15322.478658 14964.696489 -279.552083
v 15285.894123 15001.281024 -272.263758
v 15304.071096 15020.182317 -274.436582
v 15257.947122 14972.220384 -273.376774
v 15389.145325 14964.696489 -280.072917
v 15455.811991 14964.696489 -279.031250
v 15522.478658 14964.696489 -277.468750
v 15589.145325 14964.696489 -275.125000
v 15655.811991 14964.696489 -269.395833
v 15722.478658 14964.696489 -256.375000
v 15789.145325 14964.696489 -238.145833
v 15855.811991 14987.989518 -227.773063
v 15844.392991 14976.115490 -228.215901
v 15837.419627 14968.864250 -228.152945
v 15833.411580 14964.696489 -228.116760
v 15877.075160 15010.099987 -229.938593
v 15189.145325 14900.676956 -269.358287
v 15189.145325 14898.029823 -269.916667
v 15187.847614 14899.327533 -269.136013
v 15186.599633 14898.029823 -269.031641
v 15255.811991 14898.029823 -280.072917
v 15220.529784 14933.312030 -267.255552
v 15211.823148 14924.258451 -267.838890
v 15322.478658 14898.029823 -281.375000
v 15389.145325 14898.029823 -280.333333
v 15455.811991 14898.029823 -279.031250
v 15522.478658 14898.029823 -277.468750
v 15589.145325 14898.029823 -272.260417
v 15655.811991 14898.029823 -260.020833
v 15722.478658 14898.029823 -241.791667
v 15789.145325 14918.666301 -228.975757
v 15779.028651 14908.146496 -229.646292
v 15769.299661 14898.029823 -229.903521
v 15811.710821 14942.130993 -229.419333
v 15791.295653 14920.902317 -229.018026
v 15189.145325 14831.363156 -278.510417
v 15155.165444 14865.343037 -262.316880
v 15165.699174 14876.296517 -264.567025
v 15122.487714 14831.363156 -264.449827
v 15255.811991 14831.363156 -282.416667
v 15322.478658 14831.363156 -281.635417
v 15389.145325 14831.363156 -280.593750
v 15455.811991 14831.363156 -279.291667
v 15522.478658 14831.363156 -274.604167
v 15589.145325 14831.363156 -262.104167
v 15655.811991 14831.363156 -245.177083
v 15722.478658 14849.343085 -231.902173
v 15713.664312 14840.177502 -232.450587
v 15705.187742 14831.363156 -232.640272
v 15746.346481 14874.161999 -232.468298
v 15122.478658 14831.353739 -264.449719
v 15122.478658 14764.696489 -277.208333
v 15089.801105 14797.374043 -257.295449
v 15058.375795 14764.696489 -259.429805
v 15189.145325 14764.696489 -283.197917
v 15122.483274 14831.358540 -264.449215
v 15255.811991 14764.696489 -283.197917
v 15322.478658 14764.696489 -282.156250
v 15389.145325 14764.696489 -281.375000
v 15455.811991 14764.696489 -277.468750
v 15522.478658 14764.696489 -265.750000
v 15589.145325 14764.696489 -247.520833
v 15655.811991 14780.019869 -232.341262
v 15648.299972 14772.208509 -232.295770
v 15641.075822 14764.696489 -232.712527
v 15680.982142 14806.193005 -234.263463
v 15055.811991 14698.029823 -275.645833
v 15024.436765 14729.405049 -252.114414
v 15027.327253 14732.410718 -252.785209
v 15055.811991 14762.030523 -259.395656
v 14994.263875 14698.029823 -254.969513
v 15122.478658 14698.029823 -284.500000
v 15057.118935 14763.389546 -259.224170
v 15189.145325 14698.029823 -285.281250
v 15255.811991 14698.029823 -283.979167
v 15322.478658 14698.029823 -282.937500
v 15389.145325 14698.029823 -280.333333
v 15455.811991 14698.029823 -270.437500
v 15522.478658 14698.029823 -252.468750
v 15589.145325 14710.696652 -235.497432
v 15582.935633 14704.239515 -235.757673
v 15576.963903 14698.029823 -236.293443
v 15615.617802 14738.224012 -235.318676
v 15606.799758 14729.054584 -235.378220
v 14989.145325 14692.707307 -254.871704
v 14989.145325 14631.363156 -273.562500
v 14959.916638 14660.591842 -251.298462
v 14975.005634 14677.716556 -252.976918
v 14981.203279 14684.448785 -253.758210
v 14934.162542 14631.363156 -254.232615
v 15055.811991 14631.363156 -283.718750
v 14991.754595 14695.420552 -254.442518
v 15122.478658 14631.363156 -286.583333
v 15189.145325 14631.363156 -286.062500
v 15255.811991 14631.363156 -285.281250
v 15322.478658 14631.363156 -282.416667
v 15389.145325 14631.363156 -272.781250
v 15455.811991 14631.363156 -254.812500
v 15522.478658 14641.373436 -237.198083
v 15517.571293 14636.270521 -237.145376
v 15514.551811 14633.130718 -237.329484
v 15512.851984 14631.363156 -237.433127
v 15560.675784 14681.092651 -237.159328
v 15550.253463 14670.255018 -237.713385
v 14922.478658 14617.514779 -254.939475
v 14922.478658 14564.696489 -273.302083
v 14898.918907 14588.256240 -254.159786
v 14879.947971 14564.696489 -256.522398
v 14989.145325 14564.696489 -286.322917
v 14928.746155 14625.095659 -253.528055
v 14931.057383 14627.839068 -253.815490
v 14925.054750 14620.713993 -254.330391
v 15055.811991 14564.696489 -288.666667
v 15122.478658 14564.696489 -288.406250
v 15189.145325 14564.696489 -287.885417
v 15255.811991 14564.696489 -285.802083
v 15322.478658 14564.696489 -276.427083
v 15389.145325 14564.696489 -258.979167
v 15455.811991 14572.050220 -239.057501
v 15452.206953 14568.301527 -239.033425
v 15448.740065 14564.696489 -239.424643
v 15484.889123 14602.286024 -239.706021
v 14855.811991 14498.029823 -264.447917
v 14839.445187 14514.396627 -250.958090
v 14841.588569 14517.058464 -251.467089
v 14855.811991 14534.722341 -254.844797
v 14826.266202 14498.029823 -241.942335
v 14922.478658 14498.029823 -287.885417
v 14869.182047 14551.326434 -255.199604
v 14989.145325 14498.029823 -290.750000
v 15055.811991 14498.029823 -290.750000
v 15122.478658 14498.029823 -290.489583
v 15189.145325 14498.029823 -289.447917
v 15255.811991 14498.029823 -282.677083
v 15322.478658 14498.029823 -265.489583
v 15389.145325 14502.727003 -242.760590
v 15386.842614 14500.332533 -242.736575
v 15384.628146 14498.029823 -243.154611
v 15419.524784 14534.317030 -240.704023
v 14789.145325 14450.903645 -215.875706
v 14789.145325 14431.363156 -216.791667
v 14780.942975 14439.565506 -209.454408
v 14775.009149 14431.363156 -204.643390
v 14855.811991 14431.363156 -269.916667
v 14809.708327 14477.466820 -231.016700
v 14793.275043 14456.612170 -218.898989
v 14799.855479 14465.230700 -223.738779
v 14922.478658 14431.363156 -291.010417
v 14989.145325 14431.363156 -292.312500
v 15055.811991 14431.363156 -292.312500
v 15122.478658 14431.363156 -292.312500
v 15189.145325 14431.363156 -288.927083
v 15255.811991 14431.363156 -274.604167
v 15322.478658 14433.403787 -251.100193
v 15321.478274 14432.363540 -251.126486
v 15320.516227 14431.363156 -251.351082
v 15376.179889 14489.244918 -243.514053
v 15354.160444 14466.348037 -244.450897
v 14789.145325 14364.696489 -255.333333
v 14752.983330 14400.858484 -203.350467
v 14754.302798 14402.740690 -203.396233
v 14728.355709 14364.696489 -208.791284
v 14750.718624 14397.627904 -203.787097
v 14855.811991 14364.696489 -286.322917
v 14922.478658 14364.696489 -293.614583
v 14989.145325 14364.696489 -293.875000
v 15055.811991 14364.696489 -294.395833
v 15122.478658 14364.696489 -293.614583
v 15189.145325 14364.696489 -285.802083
v 15255.811991 14364.696489 -260.541667
v 15288.796105 14398.379043 -252.314121
v 15287.104120 14396.619636 -252.729505
v 15258.975870 14364.696489 -259.070957
v 14722.478658 14298.029823 -248.302083
v 14699.016553 14321.491928 -212.192437
v 14713.336496 14342.579339 -210.857338
v 14722.478658 14356.042000 -210.004982
v 14683.084013 14298.029823 -211.985145
v 14789.145325 14298.029823 -288.406250
v 14725.978829 14361.196318 -208.707898
v 14855.811991 14298.029823 -294.656250
v 14922.478658 14298.029823 -295.177083
v 14989.145325 14298.029823 -295.437500
v 15055.811991 14298.029823 -295.697917
v 15122.478658 14298.029823 -291.270833
v 15189.145325 14298.029823 -268.614583
v 15255.811991 14361.105759 -258.970722
v 15249.261697 14353.671738 -258.200285
v 15227.364237 14326.477577 -254.599924
v 15210.450879 14305.473104 -258.632405
v 15204.457351 14298.029823 -260.061381
v 15257.493900 14363.014581 -258.886038
v 14655.811991 14257.869304 -200.648928
v 14655.811991 14231.363156 -209.760417
v 14645.092000 14242.083147 -197.156052
v 14637.812317 14231.363156 -196.401283
v 14638.572239 14232.482210 -196.480073
v 14722.478658 14231.363156 -257.677083
v 14672.054276 14281.787538 -204.101178
v 14675.954367 14287.530774 -206.888931
v 14789.145325 14231.363156 -287.885417
v 14855.811991 14231.363156 -294.916667
v 14922.478658 14231.363156 -296.479167
v 14989.145325 14231.363156 -297.260417
v 15055.811991 14231.363156 -295.437500
v 15122.478658 14231.363156 -277.729167
v 15189.145325 14279.014023 -258.438159
v 15168.717788 14253.645340 -251.804121
v 15167.890517 14252.617963 -251.535456
v 15150.775583 14231.363156 -258.717170
v 15197.627377 14289.547770 -257.978885
v 14655.811991 14164.696489 -205.333333
v 14618.129723 14202.378757 -179.868363
v 14592.540621 14164.696489 -170.484649
v 14601.190111 14177.433645 -173.656481
v 14722.478658 14164.696489 -239.708333
v 14789.145325 14164.696489 -270.697917
v 14855.811991 14164.696489 -291.791667
v 14922.478658 14164.696489 -297.781250
v 14989.145325 14164.696489 -297.781250
v 15055.811991 14164.696489 -288.666667
v 15122.478658 14195.111230 -264.984349
v 15109.711713 14177.463434 -262.171266
v 15100.475722 14164.696489 -265.636931
v 15138.153657 14215.688157 -260.400945
v 15130.386208 14206.041866 -262.865599
v 14589.145325 14159.696609 -169.356753
v 14589.145325 14098.029823 -178.510417
v 14564.205171 14122.969977 -160.097569
v 14547.268924 14098.029823 -156.590738
v 14655.811991 14098.029823 -213.406250
v 14591.167447 14162.674367 -169.973197
v 14722.478658 14098.029823 -249.864583
v 14789.145325 14098.029823 -281.635417
v 14855.811991 14098.029823 -296.479167
v 14922.478658 14098.029823 -292.572917
v 14989.145325 14098.029823 -284.500000
v 15055.811991 14099.291016 -266.694515
v 15055.301922 14098.539892 -266.511921
v 15054.955546 14098.029823 -266.505018
v 15096.422983 14159.094373 -265.319465
v 15082.264198 14138.244282 -263.661065
v 14522.478658 14061.523913 -157.446900
v 14522.478658 14031.363156 -168.875000
v 14510.280618 14043.561196 -158.201715
v 14501.997228 14031.363156 -158.234257
v 14589.145325 14031.363156 -203.510417
v 14537.242894 14083.265586 -156.879327
v 14526.425854 14067.336516 -157.295161
v 14655.811991 14031.363156 -238.927083
v 14722.478658 14031.363156 -274.604167
v 14789.145325 14031.363156 -295.958333
v 14855.811991 14031.363156 -297.781250
v 14922.478658 14031.363156 -276.687500
v 14989.145325 14031.363156 -251.687500
v 15028.339645 14058.835502 -252.195306
v 15023.412804 14051.580282 -250.260243
v 15009.683850 14031.363156 -244.868068
v 14522.478658 13964.696489 -195.177083
v 14483.318341 14003.856806 -159.382106
v 14489.043725 14012.287951 -159.030272
v 14456.725532 13964.696489 -163.071065
v 14589.145325 13964.696489 -229.291667
v 14655.811991 13964.696489 -265.229167
v 14722.478658 13964.696489 -293.614583
v 14789.145325 13964.696489 -301.166667
v 14855.811991 13964.696489 -291.270833
v 14922.478658 13964.696489 -255.333333
v 14989.145325 14001.118320 -237.982809
v 14986.030676 13996.531718 -237.072498
v 14974.415093 13979.426721 -233.677640
v 14964.412154 13964.696489 -234.038980
v 15001.377369 14019.131112 -241.557838
v 14455.811991 13963.351218 -163.218811
v 14455.811991 13898.029823 -192.052083
v 14429.393789 13924.448025 -167.594607
v 14411.453836 13898.029823 -175.071227
v 14414.279469 13902.190822 -173.893622
v 14522.478658 13898.029823 -220.437500
v 14456.356065 13964.152416 -163.096814
v 14589.145325 13898.029823 -255.593750
v 14655.811991 13898.029823 -288.406250
v 14722.478658 13898.029823 -302.208333
v 14789.145325 13898.029823 -300.125000
v 14855.811991 13898.029823 -275.645833
v 14922.478658 13902.945625 -233.624045
v 14920.490540 13900.017941 -233.666501
v 14919.140458 13898.029823 -234.086527
v 14947.452816 13939.722331 -232.212726
v 14389.145325 13831.363156 -208.979167
v 14375.469236 13845.039245 -193.967522
v 14376.897340 13847.142258 -193.286761
v 14389.145325 13865.178523 -187.448289
v 14366.182140 13831.363156 -202.789871
v 14455.811991 13831.363156 -223.041667
v 14402.431512 13884.743635 -177.793370
v 14522.478658 13831.363156 -247.260417
v 14589.145325 13831.363156 -281.114583
v 14655.811991 13831.363156 -301.427083
v 14722.478658 13831.363156 -304.291667
v 14789.145325 13831.363156 -291.791667
v 14855.811991 13831.363156 -254.552083
v 14911.266419 13886.434589 -235.358591
v 14893.528263 13860.313551 -238.224220
v 14873.884291 13831.386024 -242.346398
v 14873.868761 13831.363156 -242.349657
v 14322.478658 13767.005827 -249.837038
v 14322.478658 13764.696489 -251.947917
v 14321.544683 13765.630464 -250.769503
v 14320.910443 13764.696489 -251.482353
v 14389.145325 13764.696489 -259.760417
v 14348.506959 13805.334855 -217.852102
v 14339.515212 13792.093693 -228.901631
v 14455.811991 13764.696489 -259.239583
v 14522.478658 13764.696489 -275.645833
v 14589.145325 13764.696489 -299.083333
v 14655.811991 13764.696489 -306.114583
v 14722.478658 13764.696489 -301.947917
v 14789.145325 13764.696489 -275.385417
v 14855.811991 13804.772929 -245.931033
v 14839.603711 13780.904770 -247.246373
v 14836.502162 13776.337459 -248.097200
v 14828.597065 13764.696489 -250.265754
v 14866.565987 13820.609160 -243.924111
v 14322.478658 13698.029823 -289.187500
v 14294.582407 13725.926074 -265.323129
v 14302.133083 13737.045128 -261.353702
v 14275.638747 13698.029823 -271.988470
v 14389.145325 13698.029823 -300.125000
v 14455.811991 13698.029823 -296.218750
v 14522.478658 13698.029823 -299.604167
v 14589.145325 13698.029823 -306.895833
v 14655.811991 13698.029823 -306.895833
v 14722.478658 13698.029823 -292.312500
v 14789.145325 13706.600234 -257.457275
v 14785.679158 13701.495990 -257.263188
v 14783.325369 13698.029823 -258.086225
v 14812.641434 13741.200380 -253.082469
v 14799.120034 13721.288895 -255.600056
v 14255.811991 13668.833132 -273.718250
v 14255.811991 13631.363156 -285.281250
v 14240.657854 13646.517294 -274.803585
v 14230.367051 13631.363156 -278.224255
v 14322.478658 13631.363156 -301.687500
v 14267.620130 13686.221684 -271.258160
v 14264.750955 13681.996564 -271.855920
v 14389.145325 13631.363156 -306.895833
v 14455.811991 13631.363156 -306.895833
v 14522.478658 13631.363156 -307.937500
v 14589.145325 13631.363156 -308.979167
v 14655.811991 13631.363156 -303.510417
v 14722.478658 13631.363156 -275.906250
v 14758.716881 13661.791599 -260.745610
v 14738.053673 13631.363156 -266.171866
v 14189.145325 13570.660436 -294.060467
v 14189.145325 13564.696489 -296.739583
v 14186.733301 13567.108513 -295.279178
v 14185.095355 13564.696489 -296.486460
v 14255.811991 13564.696489 -303.510417
v 14213.695577 13606.812903 -280.313486
v 14227.368827 13626.947999 -278.599985
v 14189.986698 13571.899435 -293.589337
v 14322.478658 13564.696489 -307.416667
v 14389.145325 13564.696489 -307.677083
v 14455.811991 13564.696489 -307.937500
v 14522.478658 13564.696489 -308.718750
v 14589.145325 13564.696489 -306.635417
v 14655.811991 13564.696489 -289.447917
v 14722.478658 13608.427538 -267.842947
v 14704.792329 13582.382819 -266.009846
v 14692.781977 13564.696489 -268.941128
v 14731.754605 13622.087209 -266.702771
v 14189.145325 13498.029823 -306.895833
v 14159.771025 13527.404123 -300.584949
v 14139.823659 13498.029823 -306.895833
v 14152.604570 13516.850870 -302.852249
v 14255.811991 13498.029823 -308.197917
v 14322.478658 13498.029823 -308.718750
v 14389.145325 13498.029823 -308.979167
v 14455.811991 13498.029823 -309.500000
v 14522.478658 13498.029823 -308.718750
v 14589.145325 13498.029823 -291.270833
v 14655.811991 13510.254843 -250.743309
v 14650.867776 13502.974038 -246.841792
v 14649.591520 13501.094636 -247.350884
v 14647.510280 13498.029823 -248.181081
v 14686.973649 13556.143201 -264.712219
v 14677.830052 13542.678428 -258.054978
v 14122.478658 13431.363156 -305.333333
v 14105.846472 13447.995342 -305.853089
v 14115.222441 13461.802305 -306.103440
v 14122.478658 13472.487741 -306.297191
v 14094.551962 13431.363156 -305.878777
v 14189.145325 13431.363156 -306.375000
v 14132.808748 13487.699733 -306.815130
v 14255.811991 13431.363156 -308.718750
v 14322.478658 13431.363156 -309.760417
v 14389.145325 13431.363156 -310.541667
v 14455.811991 13431.363156 -310.802083
v 14522.478658 13431.363156 -305.593750
v 14589.145325 13431.363156 -266.791667
v 14623.905499 13463.269648 -241.710428
v 14612.209392 13446.046072 -247.767573
v 14602.238584 13431.363156 -252.931224
v 14055.811991 13374.315045 -308.195326
v 14055.811991 13364.696489 -308.458333
v 14051.921919 13368.586562 -308.534311
v 14049.280266 13364.696489 -308.534877
v 14122.478658 13364.696489 -308.979167
v 14078.884195 13408.290952 -307.446549
v 14077.840313 13406.753741 -307.480427
v 14189.145325 13364.696489 -310.020833
v 14255.811991 13364.696489 -310.541667
v 14322.478658 13364.696489 -311.062500
v 14389.145325 13364.696489 -312.104167
v 14455.811991 13364.696489 -311.583333
v 14522.478658 13364.696489 -300.125000
v 14589.145325 13412.082147 -261.971415
v 14574.827263 13390.997507 -265.033814
v 14569.980947 13383.860867 -266.070362
v 14556.966888 13364.696489 -274.258828
v 14596.943223 13423.565258 -256.922452
v 14055.811991 13298.029823 -310.020833
v 14024.959642 13328.882171 -309.659282
v 14040.458185 13351.705176 -308.942745
v 14004.008570 13298.029823 -310.223190
v 14122.478658 13298.029823 -310.802083
v 14189.145325 13298.029823 -311.583333
v 14255.811991 13298.029823 -311.843750
v 14322.478658 13298.029823 -312.625000
v 14389.145325 13298.029823 -313.145833
v 14455.811991 13298.029823 -311.583333
v 14522.478658 13313.909452 -293.776620
v 14516.056394 13304.452087 -293.698276
v 14511.695192 13298.029823 -294.993008
v 14543.018670 13344.156477 -281.992021
v 14537.445135 13335.948943 -285.189773
v 13989.145325 13276.142350 -310.965234
v 13989.145325 13231.363156 -312.364583
v 13971.035090 13249.473391 -312.010868
v 13958.736874 13231.363156 -312.364583
v 14055.811991 13231.363156 -312.104167
v 13997.997366 13289.177781 -310.523298
v 14003.076056 13296.656612 -310.269746
v 14122.478658 13231.363156 -311.583333
v 14189.145325 13231.363156 -311.843750
v 14255.811991 13231.363156 -312.885417
v 14322.478658 13231.363156 -313.406250
v 14389.145325 13231.363156 -311.843750
v 14455.811991 13231.363156 -304.552083
v 14489.094117 13264.747697 -293.512179
v 14466.423496 13231.363156 -299.909550
v 13922.478658 13177.969654 -312.990288
v 13922.478658 13164.696489 -313.145833
v 13917.110537 13170.064610 -313.082926
v 13913.465178 13164.696489 -313.110624
v 13989.145325 13164.696489 -312.885417
v 13944.072813 13209.769001 -312.533288
v 13928.311799 13186.559482 -312.866841
v 14055.811991 13164.696489 -313.145833
v 14122.478658 13164.696489 -312.885417
v 14189.145325 13164.696489 -313.145833
v 14255.811991 13164.696489 -313.927083
v 14322.478658 13164.696489 -312.625000
v 14389.145325 13164.696489 -306.635417
v 14455.811991 13215.736756 -300.279240
v 14435.169564 13185.338916 -294.225096
v 14425.298750 13170.803249 -296.097011
v 14421.151799 13164.696489 -296.883444
v 14462.131841 13225.043306 -299.392519
v 13922.478658 13098.029823 -313.145833
v 13890.148260 13130.360220 -313.019543
v 13890.929671 13131.510918 -313.022595
v 13868.193481 13098.029823 -313.357885
v 13989.145325 13098.029823 -312.625000
v 14055.811991 13098.029823 -313.406250
v 14122.478658 13098.029823 -313.666667
v 14189.145325 13098.029823 -314.187500
v 14255.811991 13098.029823 -312.885417
v 14322.478658 13098.029823 -308.197917
v 14389.145325 13117.564061 -297.245753
v 14387.916621 13115.754684 -296.995683
v 14381.245012 13105.930136 -295.637851
v 14375.880103 13098.029823 -296.307751
v 14408.207288 13145.634526 -293.679238
v 13855.811991 13079.796959 -313.762361
v 13855.811991 13031.363156 -314.708333
v 13836.223708 13050.951440 -314.096199
v 13822.921785 13031.363156 -314.451379
v 13922.478658 13031.363156 -314.968750
v 13863.185984 13090.655830 -313.579078
v 13989.145325 13031.363156 -314.447917
v 14055.811991 13031.363156 -314.447917
v 14122.478658 13031.363156 -314.708333
v 14189.145325 13031.363156 -313.927083
v 14255.811991 13031.363156 -308.718750
v 14322.478658 13031.363156 -296.218750
v 14354.282735 13066.225745 -290.308123
v 14350.534493 13060.706120 -290.751189
v 14330.608407 13031.363156 -293.106581
v 13789.145325 12981.624263 -315.158963
v 13789.145325 12964.696489 -315.489583
v 13782.299155 12971.542659 -315.275641
v 13777.650089 12964.696489 -315.354874
v 13778.783286 12966.365224 -315.335561
v 13855.811991 12964.696489 -315.229167
v 13809.261431 13011.247049 -314.501814
v 13816.165414 13021.413789 -314.476324
v 13922.478658 12964.696489 -315.229167
v 13989.145325 12964.696489 -314.968750
v 14055.811991 12964.696489 -315.229167
v 14122.478658 12964.696489 -315.229167
v 14189.145325 12964.696489 -311.843750
v 14255.811991 12964.696489 -301.687500
v 14322.478658 13019.391366 -293.132273
v 14313.152365 13005.657555 -291.340205
v 14300.358182 12986.816965 -288.881774
v 14285.336711 12964.696489 -291.653709
v 14327.320459 13026.521355 -292.549573
v 13789.145325 12898.029823 -316.531250
v 13755.336878 12931.838269 -315.606800
v 13732.378393 12898.029823 -315.866013
v 13855.811991 12898.029823 -316.270833
v 13922.478658 12898.029823 -315.489583
v 13989.145325 12898.029823 -316.010417
v 14055.811991 12898.029823 -316.270833
v 14122.478658 12898.029823 -314.708333
v 14189.145325 12898.029823 -307.156250
v 14255.811991 12921.218670 -294.044915
v 14246.433630 12907.408184 -293.046025
v 14240.065014 12898.029823 -294.028517
v 14275.770236 12950.608990 -290.722589
v 14273.395906 12947.112575 -290.491492
v 13789.145325 12831.363156 -316.791667
v 13728.374602 12892.133879 -315.842124
v 13722.478658 12831.363156 -316.270833
v 13722.478658 12883.451568 -315.863893
v 13855.811991 12831.363156 -316.791667
v 13922.478658 12831.363156 -316.531250
v 13989.145325 12831.363156 -317.312500
v 14055.811991 12831.363156 -316.531250
v 14122.478658 12831.363156 -311.322917
v 14189.145325 12831.363156 -297.781250
v 14219.471353 12867.703794 -290.571703
v 14201.005979 12840.511861 -294.249396
v 14194.793318 12831.363156 -295.486753
v 13789.145325 12764.696489 -316.791667
v 13722.478658 12764.696489 -316.791667
v 13855.811991 12764.696489 -316.791667
v 13922.478658 12764.696489 -317.572917
v 13989.145325 12764.696489 -318.093750
v 14055.811991 12764.696489 -314.968750
v 14122.478658 12764.696489 -303.770833
v 14189.145325 12823.045975 -295.961867
v 14165.546800 12788.295014 -293.153544
v 14163.623851 12785.463297 -293.426174
v 14149.521622 12764.696489 -295.425544
v 14192.509077 12827.999404 -295.166458
v 13789.145325 12698.029823 -317.572917
v 13722.478658 12698.029823 -317.833333
v 13855.811991 12698.029823 -317.833333
v 13922.478658 12698.029823 -318.354167
v 13989.145325 12698.029823 -316.531250
v 14055.811991 12698.029823 -309.760417
v 14122.478658 12724.873279 -297.081779
v 14111.622248 12708.886233 -296.219992
v 14104.249926 12698.029823 -297.272512
v 14138.584524 12748.590623 -293.893408
v 13789.145325 12631.363156 -318.354167
v 13722.478658 12631.363156 -318.093750
v 13855.811991 12631.363156 -319.135417
v 13922.478658 12631.363156 -318.614583
v 13989.145325 12631.363156 -311.843750
v 14055.811991 12631.363156 -298.302083
v 14088.859594 12675.366168 -295.131768
v 14084.659971 12669.181843 -294.547615
v 14058.978230 12631.363156 -297.176585
v 13789.145325 12564.696489 -319.395833
v 13722.478658 12564.696489 -318.614583
v 13855.811991 12564.696489 -319.916667
v 13922.478658 12564.696489 -316.270833
v 13989.145325 12564.696489 -305.854167
v 14055.811991 12626.700584 -297.537130
v 14052.066455 12621.184943 -297.393032
v 14031.008884 12589.499596 -296.471974
v 14016.426493 12567.557458 -298.544945
v 14014.568023 12564.696489 -298.803340
v 14057.697695 12629.477453 -297.145617
v 13789.145325 12498.029823 -320.697917
v 13722.478658 12498.029823 -319.656250
v 13855.811991 12498.029823 -318.614583
v 13922.478658 12498.029823 -311.322917
v 13989.145325 12525.560249 -300.809261
v 13980.776877 12512.677684 -300.456187
v 13978.304103 12508.871044 -300.351859
v 13971.261702 12498.029823 -301.032743
v 14004.556805 12549.285009 -297.847421
v 13789.145325 12431.363156 -319.656250
v 13722.478658 12431.363156 -320.958333
v 13855.811991 12431.363156 -314.187500
v 13922.478658 12431.363156 -303.510417
v 13952.051402 12468.457079 -298.500360
v 13944.528445 12456.876079 -299.523522
v 13927.955382 12431.363156 -301.777547
v 13789.145325 12364.696489 -317.312500
v 13722.478658 12364.696489 -321.479167
v 13855.811991 12364.696489 -307.937500
v 13922.478658 12422.932171 -301.863740
v 13908.280012 12401.074474 -299.868660
v 13899.545998 12387.629149 -298.641427
v 13884.649062 12364.696489 -300.390298
v 13925.798700 12428.043114 -301.435390
v 13789.145325 12298.029823 -311.583333
v 13722.478658 12298.029823 -320.437500
v 13855.811991 12320.304092 -299.960741
v 13847.040595 12306.801219 -298.767921
v 13841.342741 12298.029823 -299.349564
v 13873.293297 12347.215184 -298.240838
v 13872.031579 12345.272869 -298.364973
v 13789.145325 12231.363156 -300.645833
v 13722.478658 12231.363156 -315.489583
v 13820.787893 12266.387254 -295.885653
v 13799.534714 12233.669659 -297.574642
v 13798.036421 12231.363156 -297.693712
v 13789.145325 12217.676014 -297.865633
v 13768.282490 12185.559324 -295.987171
v 13722.478658 12164.696489 -307.677083
v 13763.286281 12177.868055 -296.627649
v 13754.730101 12164.696489 -297.724490
v 13794.535192 12225.973289 -297.403492
v 13742.029788 12145.145359 -297.214174
v 13722.478658 12115.047936 -299.143738
vt 79.945727 -78.823482
vt 79.945727 -78.490149
vt 79.778055 -78.657821
vt 79.781039 -78.662040
vt 79.895232 -78.823482
vt 79.659454 -78.490149
vt 80.279060 -78.823482
vt 80.279060 -78.490149
vt 80.612393 -78.823482
vt 80.612393 -78.490149
vt 80.945727 -78.823482
vt 80.945727 -78.490149
vt 81.279060 -78.823482
vt 81.279060 -78.490149
vt 81.612393 -78.823482
vt 81.612393 -78.490149
vt 81.945727 -78.823482
vt 81.945727 -78.490149
vt 82.279060 -78.823482
vt 82.279060 -78.557114
vt 82.264017 -78.535847
vt 82.251317 -78.517892
vt 82.231694 -78.490149
vt 82.389414 -78.713128
vt 82.467472 -78.823482
vt 79.612393 -78.156816
vt 79.492158 -78.277051
vt 79.610870 -78.421463
vt 79.612393 -78.423616
vt 79.391195 -78.156816
vt 79.432598 -78.204597
vt 79.945727 -78.156816
vt 79.639957 -78.462585
vt 80.279060 -78.156816
vt 80.612393 -78.156816
vt 80.945727 -78.156816
vt 81.279060 -78.156816
vt 81.612393 -78.156816
vt 81.945727 -78.156816
vt 82.113220 -78.322656
vt 82.071888 -78.264222
vt 81.995916 -78.156816
vt 79.279060 -78.027405
vt 79.279060 -77.823482
vt 79.184393 -77.918150
vt 79.223648 -77.963456
vt 79.102370 -77.823482
vt 79.612393 -77.823482
vt 79.339138 -78.096738
vt 79.945727 -77.823482
vt 80.279060 -77.823482
vt 80.612393 -77.823482
vt 80.945727 -77.823482
vt 81.279060 -77.823482
vt 81.612393 -77.823482
vt 81.945727 -78.085860
vt 81.879758 -77.992596
vt 81.837026 -77.932183
vt 81.760138 -77.823482
vt 81.975123 -78.127420
vt 78.945727 -77.642689
vt 78.945727 -77.490149
vt 78.874916 -77.560960
vt 78.813564 -77.490149
vt 79.279060 -77.490149
vt 79.029653 -77.739556
vt 79.005751 -77.711969
vt 79.612393 -77.490149
vt 79.945727 -77.490149
vt 80.279060 -77.490149
vt 80.612393 -77.490149
vt 80.945727 -77.490149
vt 81.279060 -77.490149
vt 81.612393 -77.614607
vt 81.560831 -77.541711
vt 81.524360 -77.490149
vt 81.698929 -77.736947
vt 78.612393 -77.156816
vt 78.553812 -77.215397
vt 78.593088 -77.256239
vt 78.612393 -77.276630
vt 78.497475 -77.156816
vt 78.945727 -77.156816
vt 78.716232 -77.386311
vt 78.803043 -77.478006
vt 79.279060 -77.156816
vt 79.612393 -77.156816
vt 79.945727 -77.156816
vt 80.279060 -77.156816
vt 80.612393 -77.156816
vt 80.945727 -77.156816
vt 81.279060 -77.156816
vt 81.495498 -77.449345
vt 81.422734 -77.346475
vt 81.303369 -77.177720
vt 81.287416 -77.156816
vt 78.279060 -76.929697
vt 78.279060 -76.823482
vt 78.226990 -76.875552
vt 78.176915 -76.823482
vt 78.612393 -76.823482
vt 78.390401 -77.045475
vt 78.365314 -77.019389
vt 78.945727 -76.823482
vt 79.279060 -76.823482
vt 79.612393 -76.823482
vt 79.945727 -76.823482
vt 80.279060 -76.823482
vt 80.612393 -76.823482
vt 80.945727 -76.823482
vt 81.279060 -77.145865
vt 81.257258 -77.117295
vt 81.134536 -76.968006
vt 81.046180 -76.860522
vt 81.028597 -76.839690
vt 81.014554 -76.823482
vt 81.283800 -77.152076
vt 77.945727 -76.490149
vt 77.900168 -76.535707
vt 77.904075 -76.539770
vt 77.945727 -76.583081
vt 77.856356 -76.490149
vt 78.279060 -76.490149
vt 78.063579 -76.705630
vt 78.134695 -76.779579
vt 78.612393 -76.490149
vt 78.945727 -76.490149
vt 79.279060 -76.490149
vt 79.612393 -76.490149
vt 79.945727 -76.490149
vt 80.279060 -76.490149
vt 80.612393 -76.490149
vt 80.945727 -76.744052
vt 80.827855 -76.608021
vt 80.810735 -76.588264
vt 80.725725 -76.490149
vt 80.982601 -76.786608
vt 77.612393 -76.236465
vt 77.612393 -76.156816
vt 77.573347 -76.195863
vt 77.535796 -76.156816
vt 77.945727 -76.156816
vt 77.736757 -76.365785
vt 77.673455 -76.299960
vt 78.279060 -76.156816
vt 78.612393 -76.156816
vt 78.945727 -76.156816
vt 79.279060 -76.156816
vt 79.612393 -76.156816
vt 79.945727 -76.156816
vt 80.279060 -76.156816
vt 80.612393 -76.359346
vt 80.592887 -76.336833
vt 80.518376 -76.250833
vt 80.436919 -76.156816
vt 80.673115 -76.429428
vt 77.279060 -75.889849
vt 77.279060 -75.823482
vt 77.246525 -75.856018
vt 77.215237 -75.823482
vt 77.612393 -75.823482
vt 77.409936 -76.025940
vt 77.442835 -76.060150
vt 77.945727 -75.823482
vt 78.279060 -75.823482
vt 78.612393 -75.823482
vt 78.945727 -75.823482
vt 79.279060 -75.823482
vt 79.612393 -75.823482
vt 79.945727 -75.823482
vt 80.279060 -75.982530
vt 80.201712 -75.900831
vt 80.128483 -75.823482
vt 80.363367 -76.072509
vt 80.375028 -76.085382
vt 80.343944 -76.051065
vt 76.945727 -75.543233
vt 76.945727 -75.490149
vt 76.919703 -75.516173
vt 76.894677 -75.490149
vt 77.279060 -75.490149
vt 77.083114 -75.686095
vt 77.212215 -75.820341
vt 76.981595 -75.580531
vt 77.612393 -75.490149
vt 77.945727 -75.490149
vt 78.279060 -75.490149
vt 78.612393 -75.490149
vt 78.945727 -75.490149
vt 79.279060 -75.490149
vt 79.612393 -75.490149
vt 79.945727 -75.633180
vt 79.878958 -75.563750
vt 79.875608 -75.560267
vt 79.808177 -75.490149
vt 80.039019 -75.730190
vt 80.115246 -75.809501
vt 80.109578 -75.803560
vt 76.612393 -75.196617
vt 76.612393 -75.156816
vt 76.592881 -75.176328
vt 76.574117 -75.156816
vt 76.945727 -75.156816
vt 76.756292 -75.346250
vt 77.279060 -75.156816
vt 77.612393 -75.156816
vt 77.945727 -75.156816
vt 78.279060 -75.156816
vt 78.612393 -75.156816
vt 78.945727 -75.156816
vt 79.279060 -75.156816
vt 79.612393 -75.286564
vt 79.548787 -75.220422
vt 79.487617 -75.156816
vt 79.712198 -75.390345
vt 76.279060 -74.850001
vt 76.279060 -74.823482
vt 76.266060 -74.836483
vt 76.253558 -74.823482
vt 76.612393 -74.823482
vt 76.429471 -75.006405
vt 76.520355 -75.100912
vt 76.289736 -74.861102
vt 76.945727 -74.823482
vt 77.279060 -74.823482
vt 77.612393 -74.823482
vt 77.945727 -74.823482
vt 78.279060 -74.823482
vt 78.612393 -74.823482
vt 78.945727 -74.823482
vt 79.279060 -74.939948
vt 79.221965 -74.880577
vt 79.187098 -74.844321
vt 79.167058 -74.823482
vt 79.385376 -75.050500
vt 75.945727 -74.503385
vt 75.945727 -74.490149
vt 75.939238 -74.496638
vt 75.932998 -74.490149
vt 76.279060 -74.490149
vt 76.102649 -74.666560
vt 76.059116 -74.621292
vt 76.612393 -74.490149
vt 76.945727 -74.490149
vt 77.279060 -74.490149
vt 77.612393 -74.490149
vt 77.945727 -74.490149
vt 78.279060 -74.490149
vt 78.612393 -74.490149
vt 78.945727 -74.593332
vt 78.895143 -74.540732
vt 78.846498 -74.490149
vt 79.058554 -74.710655
vt 78.956478 -74.604512
vt 75.945727 -74.156816
vt 75.775827 -74.326715
vt 75.828496 -74.381483
vt 75.612439 -74.156816
vt 76.279060 -74.156816
vt 76.612393 -74.156816
vt 76.945727 -74.156816
vt 77.279060 -74.156816
vt 77.612393 -74.156816
vt 77.945727 -74.156816
vt 78.279060 -74.156816
vt 78.612393 -74.246715
vt 78.568322 -74.200888
vt 78.525939 -74.156816
vt 78.731732 -74.370810
vt 75.612393 -74.156769
vt 75.612393 -73.823482
vt 75.449006 -73.986870
vt 75.291879 -73.823482
vt 75.945727 -73.823482
vt 75.612416 -74.156793
vt 76.279060 -73.823482
vt 76.612393 -73.823482
vt 76.945727 -73.823482
vt 77.279060 -73.823482
vt 77.612393 -73.823482
vt 77.945727 -73.823482
vt 78.279060 -73.900099
vt 78.241500 -73.861043
vt 78.205379 -73.823482
vt 78.404911 -74.030965
vt 75.279060 -73.490149
vt 75.122184 -73.647025
vt 75.136636 -73.662054
vt 75.279060 -73.810153
vt 74.971319 -73.490149
vt 75.612393 -73.490149
vt 75.285595 -73.816948
vt 75.945727 -73.490149
vt 76.279060 -73.490149
vt 76.612393 -73.490149
vt 76.945727 -73.490149
vt 77.279060 -73.490149
vt 77.612393 -73.490149
vt 77.945727 -73.553483
vt 77.914678 -73.521198
vt 77.884820 -73.490149
vt 78.078089 -73.691120
vt 78.033999 -73.645273
vt 74.945727 -73.463537
vt 74.945727 -73.156816
vt 74.799583 -73.302959
vt 74.875028 -73.388583
vt 74.906016 -73.422244
vt 74.670813 -73.156816
vt 75.279060 -73.156816
vt 74.958773 -73.477103
vt 75.612393 -73.156816
vt 75.945727 -73.156816
vt 76.279060 -73.156816
vt 76.612393 -73.156816
vt 76.945727 -73.156816
vt 77.279060 -73.156816
vt 77.612393 -73.206867
vt 77.587856 -73.181353
vt 77.572759 -73.165654
vt 77.564260 -73.156816
vt 77.803379 -73.405463
vt 77.751267 -73.351275
vt 74.612393 -73.087574
vt 74.612393 -72.823482
vt 74.494595 -72.941281
vt 74.399740 -72.823482
vt 74.945727 -72.823482
vt 74.643731 -73.125478
vt 74.655287 -73.139195
vt 74.625274 -73.103570
vt 75.279060 -72.823482
vt 75.612393 -72.823482
vt 75.945727 -72.823482
vt 76.279060 -72.823482
vt 76.612393 -72.823482
vt 76.945727 -72.823482
vt 77.279060 -72.860251
vt 77.261035 -72.841508
vt 77.243700 -72.823482
vt 77.424446 -73.011430
vt 74.279060 -72.490149
vt 74.197226 -72.571983
vt 74.207943 -72.585292
vt 74.279060 -72.673612
vt 74.131331 -72.490149
vt 74.612393 -72.490149
vt 74.345910 -72.756632
vt 74.945727 -72.490149
vt 75.279060 -72.490149
vt 75.612393 -72.490149
vt 75.945727 -72.490149
vt 76.279060 -72.490149
vt 76.612393 -72.490149
vt 76.945727 -72.513635
vt 76.934213 -72.501663
vt 76.923141 -72.490149
vt 77.097624 -72.671585
vt 73.945727 -72.254518
vt 73.945727 -72.156816
vt 73.904715 -72.197828
vt 73.875046 -72.156816
vt 74.279060 -72.156816
vt 74.048542 -72.387334
vt 73.966375 -72.283061
vt 73.999277 -72.326153
vt 74.612393 -72.156816
vt 74.945727 -72.156816
vt 75.279060 -72.156816
vt 75.612393 -72.156816
vt 75.945727 -72.156816
vt 76.279060 -72.156816
vt 76.612393 -72.167019
vt 76.607391 -72.161818
vt 76.602581 -72.156816
vt 76.880899 -72.446225
vt 76.770802 -72.331740
vt 73.945727 -71.823482
vt 73.764917 -72.004292
vt 73.771514 -72.013703
vt 73.641779 -71.823482
vt 73.753593 -71.988140
vt 74.279060 -71.823482
vt 74.612393 -71.823482
vt 74.945727 -71.823482
vt 75.279060 -71.823482
vt 75.612393 -71.823482
vt 75.945727 -71.823482
vt 76.279060 -71.823482
vt 76.443981 -71.991895
vt 76.435521 -71.983098
vt 76.294879 -71.823482
vt 73.612393 -71.490149
vt 73.495083 -71.607460
vt 73.566682 -71.712897
vt 73.612393 -71.780210
vt 73.415420 -71.490149
vt 73.945727 -71.490149
vt 73.629894 -71.805982
vt 74.279060 -71.490149
vt 74.612393 -71.490149
vt 74.945727 -71.490149
vt 75.279060 -71.490149
vt 75.612393 -71.490149
vt 75.945727 -71.490149
vt 76.279060 -71.805529
vt 76.246308 -71.768359
vt 76.136821 -71.632388
vt 76.052254 -71.527366
vt 76.022287 -71.490149
vt 76.287469 -71.815073
vt 73.279060 -71.289347
vt 73.279060 -71.156816
vt 73.225460 -71.210416
vt 73.189062 -71.156816
vt 73.192861 -71.162411
vt 73.612393 -71.156816
vt 73.360271 -71.408938
vt 73.379772 -71.437654
vt 73.945727 -71.156816
vt 74.279060 -71.156816
vt 74.612393 -71.156816
vt 74.945727 -71.156816
vt 75.279060 -71.156816
vt 75.612393 -71.156816
vt 75.945727 -71.395070
vt 75.843589 -71.268227
vt 75.839453 -71.263090
vt 75.753878 -71.156816
vt 75.988137 -71.447739
vt 73.279060 -70.823482
vt 73.090649 -71.011894
vt 72.962703 -70.823482
vt 73.005951 -70.887168
vt 73.612393 -70.823482
vt 73.945727 -70.823482
vt 74.279060 -70.823482
vt 74.612393 -70.823482
vt 74.945727 -70.823482
vt 75.279060 -70.823482
vt 75.612393 -70.975556
vt 75.548559 -70.887317
vt 75.502379 -70.823482
vt 75.690768 -71.078441
vt 75.651931 -71.030209
vt 72.945727 -70.798483
vt 72.945727 -70.490149
vt 72.821026 -70.614850
vt 72.736345 -70.490149
vt 73.279060 -70.490149
vt 72.955837 -70.813372
vt 73.612393 -70.490149
vt 73.945727 -70.490149
vt 74.279060 -70.490149
vt 74.612393 -70.490149
vt 74.945727 -70.490149
vt 75.279060 -70.496455
vt 75.276510 -70.492699
vt 75.274778 -70.490149
vt 75.482115 -70.795472
vt 75.411321 -70.691221
vt 72.612393 -70.307620
vt 72.612393 -70.156816
vt 72.551403 -70.217806
vt 72.509986 -70.156816
vt 72.945727 -70.156816
vt 72.686214 -70.416328
vt 72.632129 -70.336683
vt 73.279060 -70.156816
vt 73.612393 -70.156816
vt 73.945727 -70.156816
vt 74.279060 -70.156816
vt 74.612393 -70.156816
vt 74.945727 -70.156816
vt 75.141698 -70.294178
vt 75.117064 -70.257901
vt 75.048419 -70.156816
vt 72.612393 -69.823482
vt 72.416592 -70.019284
vt 72.445219 -70.061440
vt 72.283628 -69.823482
vt 72.945727 -69.823482
vt 73.279060 -69.823482
vt 73.612393 -69.823482
vt 73.945727 -69.823482
vt 74.279060 -69.823482
vt 74.612393 -69.823482
vt 74.945727 -70.005592
vt 74.930153 -69.982659
vt 74.872075 -69.897134
vt 74.822061 -69.823482
vt 75.006887 -70.095656
vt 72.279060 -69.816756
vt 72.279060 -69.490149
vt 72.146969 -69.622240
vt 72.057269 -69.490149
vt 72.071397 -69.510954
vt 72.612393 -69.490149
vt 72.281780 -69.820762
vt 72.945727 -69.490149
vt 73.279060 -69.490149
vt 73.612393 -69.490149
vt 73.945727 -69.490149
vt 74.279060 -69.490149
vt 74.612393 -69.514728
vt 74.602453 -69.500090
vt 74.595702 -69.490149
vt 74.737264 -69.698612
vt 71.945727 -69.156816
vt 71.877346 -69.225196
vt 71.884487 -69.235711
vt 71.945727 -69.325893
vt 71.830911 -69.156816
vt 72.279060 -69.156816
vt 72.012158 -69.423718
vt 72.612393 -69.156816
vt 72.945727 -69.156816
vt 73.279060 -69.156816
vt 73.612393 -69.156816
vt 73.945727 -69.156816
vt 74.279060 -69.156816
vt 74.556332 -69.432173
vt 74.467641 -69.301568
vt 74.369421 -69.156930
vt 74.369344 -69.156816
vt 71.612393 -68.835029
vt 71.612393 -68.823482
vt 71.607723 -68.828152
vt 71.604552 -68.823482
vt 71.945727 -68.823482
vt 71.742535 -69.026674
vt 71.697576 -68.960468
vt 72.279060 -68.823482
vt 72.612393 -68.823482
vt 72.945727 -68.823482
vt 73.279060 -68.823482
vt 73.612393 -68.823482
vt 73.945727 -68.823482
vt 74.279060 -69.023865
vt 74.198019 -68.904524
vt 74.182511 -68.881687
vt 74.142985 -68.823482
vt 74.332830 -69.103046
vt 71.612393 -68.490149
vt 71.472912 -68.629630
vt 71.510665 -68.685226
vt 71.378194 -68.490149
vt 71.945727 -68.490149
vt 72.279060 -68.490149
vt 72.612393 -68.490149
vt 72.945727 -68.490149
vt 73.279060 -68.490149
vt 73.612393 -68.490149
vt 73.945727 -68.533001
vt 73.928396 -68.507480
vt 73.916627 -68.490149
vt 74.063207 -68.706002
vt 73.995600 -68.606444
vt 71.279060 -68.344166
vt 71.279060 -68.156816
vt 71.203289 -68.232586
vt 71.151835 -68.156816
vt 71.612393 -68.156816
vt 71.338101 -68.431108
vt 71.323755 -68.409983
vt 71.945727 -68.156816
vt 72.279060 -68.156816
vt 72.612393 -68.156816
vt 72.945727 -68.156816
vt 73.279060 -68.156816
vt 73.612393 -68.156816
vt 73.793584 -68.308958
vt 73.690268 -68.156816
vt 70.945727 -67.853302
vt 70.945727 -67.823482
vt 70.933667 -67.835543
vt 70.925477 -67.823482
vt 71.279060 -67.823482
vt 71.068478 -68.034065
vt 71.136844 -68.134740
vt 70.949933 -67.859497
vt 71.612393 -67.823482
vt 71.945727 -67.823482
vt 72.279060 -67.823482
vt 72.612393 -67.823482
vt 72.945727 -67.823482
vt 73.279060 -67.823482
vt 73.612393 -68.042138
vt 73.523962 -67.911914
vt 73.463910 -67.823482
vt 73.658773 -68.110436
vt 70.945727 -67.490149
vt 70.798855 -67.637021
vt 70.699118 -67.490149
vt 70.763023 -67.584254
vt 71.279060 -67.490149
vt 71.612393 -67.490149
vt 71.945727 -67.490149
vt 72.279060 -67.490149
vt 72.612393 -67.490149
vt 72.945727 -67.490149
vt 73.279060 -67.551274
vt 73.254339 -67.514870
vt 73.247958 -67.505473
vt 73.237551 -67.490149
vt 73.434868 -67.780716
vt 73.389150 -67.713392
vt 70.612393 -67.156816
vt 70.529232 -67.239977
vt 70.576112 -67.309012
vt 70.612393 -67.362439
vt 70.472760 -67.156816
vt 70.945727 -67.156816
vt 70.664044 -67.438499
vt 71.279060 -67.156816
vt 71.612393 -67.156816
vt 71.945727 -67.156816
vt 72.279060 -67.156816
vt 72.612393 -67.156816
vt 72.945727 -67.156816
vt 73.119527 -67.316348
vt 73.061047 -67.230230
vt 73.011193 -67.156816
vt 70.279060 -66.871575
vt 70.279060 -66.823482
vt 70.259610 -66.842933
vt 70.246401 -66.823482
vt 70.612393 -66.823482
vt 70.394421 -67.041455
vt 70.389202 -67.033769
vt 70.945727 -66.823482
vt 71.279060 -66.823482
vt 71.612393 -66.823482
vt 71.945727 -66.823482
vt 72.279060 -66.823482
vt 72.612393 -66.823482
vt 72.945727 -67.060411
vt 72.874136 -66.954988
vt 72.849905 -66.919304
vt 72.784834 -66.823482
vt 72.984716 -67.117826
vt 70.279060 -66.490149
vt 70.124798 -66.644411
vt 70.202291 -66.758526
vt 70.020043 -66.490149
vt 70.612393 -66.490149
vt 70.945727 -66.490149
vt 71.279060 -66.490149
vt 71.612393 -66.490149
vt 71.945727 -66.490149
vt 72.279060 -66.490149
vt 72.612393 -66.569547
vt 72.580282 -66.522260
vt 72.558476 -66.490149
vt 72.715093 -66.720782
vt 72.687226 -66.679745
vt 69.945727 -66.380712
vt 69.945727 -66.156816
vt 69.855175 -66.247367
vt 69.793684 -66.156816
vt 70.279060 -66.156816
vt 69.989987 -66.445889
vt 70.015380 -66.483283
vt 70.612393 -66.156816
vt 70.945727 -66.156816
vt 71.279060 -66.156816
vt 71.612393 -66.156816
vt 71.945727 -66.156816
vt 72.279060 -66.156816
vt 72.445471 -66.323738
vt 72.332117 -66.156816
vt 69.612393 -65.889848
vt 69.612393 -65.823482
vt 69.585553 -65.850323
vt 69.567326 -65.823482
vt 69.945727 -65.823482
vt 69.720364 -66.048845
vt 69.641559 -65.932797
vt 70.279060 -65.823482
vt 70.612393 -65.823482
vt 70.945727 -65.823482
vt 71.279060 -65.823482
vt 71.612393 -65.823482
vt 71.945727 -65.823482
vt 72.279060 -66.078684
vt 72.175848 -65.926695
vt 72.126494 -65.854016
vt 72.105759 -65.823482
vt 72.310659 -66.125217
vt 69.612393 -65.490149
vt 69.450741 -65.651801
vt 69.454648 -65.657555
vt 69.340967 -65.490149
vt 69.945727 -65.490149
vt 70.279060 -65.490149
vt 70.612393 -65.490149
vt 70.945727 -65.490149
vt 71.279060 -65.490149
vt 71.612393 -65.490149
vt 71.945727 -65.587820
vt 71.939583 -65.578773
vt 71.906225 -65.529651
vt 71.879401 -65.490149
vt 72.041036 -65.728173
vt 69.279060 -65.398985
vt 69.279060 -65.156816
vt 69.181119 -65.254757
vt 69.114609 -65.156816
vt 69.612393 -65.156816
vt 69.315930 -65.453279
vt 69.945727 -65.156816
vt 70.279060 -65.156816
vt 70.612393 -65.156816
vt 70.945727 -65.156816
vt 71.279060 -65.156816
vt 71.612393 -65.156816
vt 71.771414 -65.331129
vt 71.752672 -65.303531
vt 71.653042 -65.156816
vt 68.945727 -64.908121
vt 68.945727 -64.823482
vt 68.911496 -64.857713
vt 68.888250 -64.823482
vt 68.893916 -64.831826
vt 69.279060 -64.823482
vt 69.046307 -65.056235
vt 69.080827 -65.107069
vt 69.612393 -64.823482
vt 69.945727 -64.823482
vt 70.279060 -64.823482
vt 70.612393 -64.823482
vt 70.945727 -64.823482
vt 71.279060 -64.823482
vt 71.612393 -65.096957
vt 71.565762 -65.028288
vt 71.501791 -64.934085
vt 71.426684 -64.823482
vt 71.636602 -65.132607
vt 68.945727 -64.490149
vt 68.776684 -64.659191
vt 68.661892 -64.490149
vt 69.279060 -64.490149
vt 69.612393 -64.490149
vt 69.945727 -64.490149
vt 70.279060 -64.490149
vt 70.612393 -64.490149
vt 70.945727 -64.490149
vt 71.279060 -64.606093
vt 71.232168 -64.537041
vt 71.200325 -64.490149
vt 71.378851 -64.753045
vt 71.366980 -64.735563
vt 68.945727 -64.156816
vt 68.641873 -64.460669
vt 68.612393 -64.156816
vt 68.612393 -64.417258
vt 69.279060 -64.156816
vt 69.612393 -64.156816
vt 69.945727 -64.156816
vt 70.279060 -64.156816
vt 70.612393 -64.156816
vt 70.945727 -64.156816
vt 71.097357 -64.338519
vt 71.005030 -64.202559
vt 70.973967 -64.156816
vt 68.945727 -63.823482
vt 68.612393 -63.823482
vt 69.279060 -63.823482
vt 69.612393 -63.823482
vt 69.945727 -63.823482
vt 70.279060 -63.823482
vt 70.612393 -63.823482
vt 70.945727 -64.115230
vt 70.827734 -63.941475
vt 70.818119 -63.927316
vt 70.747608 -63.823482
vt 70.962545 -64.139997
vt 68.945727 -63.490149
vt 68.612393 -63.490149
vt 69.279060 -63.490149
vt 69.612393 -63.490149
vt 69.945727 -63.490149
vt 70.279060 -63.490149
vt 70.612393 -63.624366
vt 70.558111 -63.544431
vt 70.521250 -63.490149
vt 70.692923 -63.742953
vt 68.945727 -63.156816
vt 68.612393 -63.156816
vt 69.279060 -63.156816
vt 69.612393 -63.156816
vt 69.945727 -63.156816
vt 70.279060 -63.156816
vt 70.444298 -63.376831
vt 70.423300 -63.345909
vt 70.294891 -63.156816
vt 68.945727 -62.823482
vt 68.612393 -62.823482
vt 69.279060 -62.823482
vt 69.612393 -62.823482
vt 69.945727 -62.823482
vt 70.279060 -63.133503
vt 70.260332 -63.105925
vt 70.155044 -62.947498
vt 70.082132 -62.837787
vt 70.072840 -62.823482
vt 70.288488 -63.147387
vt 68.945727 -62.490149
vt 68.612393 -62.490149
vt 69.279060 -62.490149
vt 69.612393 -62.490149
vt 69.945727 -62.627801
vt 69.903884 -62.563388
vt 69.891521 -62.544355
vt 69.856309 -62.490149
vt 70.022784 -62.746425
vt 68.945727 -62.156816
vt 68.612393 -62.156816
vt 69.279060 -62.156816
vt 69.612393 -62.156816
vt 69.760257 -62.342285
vt 69.722642 -62.284380
vt 69.639777 -62.156816
vt 68.945727 -61.823482
vt 68.612393 -61.823482
vt 69.279060 -61.823482
vt 69.612393 -62.114661
vt 69.541400 -62.005372
vt 69.497730 -61.938146
vt 69.423245 -61.823482
vt 69.628994 -62.140216
vt 68.945727 -61.490149
vt 68.612393 -61.490149
vt 69.279060 -61.601520
vt 69.235203 -61.534006
vt 69.206714 -61.490149
vt 69.366466 -61.736076
vt 69.360158 -61.726364
vt 68.945727 -61.156816
vt 68.612393 -61.156816
vt 69.103939 -61.331936
vt 68.997674 -61.168348
vt 68.990182 -61.156816
vt 68.945727 -61.088380
vt 68.841412 -60.927797
vt 68.612393 -60.823482
vt 68.816431 -60.889340
vt 68.773651 -60.823482
vt 68.972676 -61.129866
vt 68.710149 -60.725727
vt 68.612393 -60.575240
f 3/3 2/2 1/1
f 4/4 3/3 1/1
f 5/5 4/4 1/1
f 6/6 2/2 3/3
f 1/1 8/8 7/7
f 1/1 2/2 8/8
f 7/7 10/10 9/9
f 7/7 8/8 10/10
f 9/9 12/12 11/11
f 9/9 10/10 12/12
f 11/11 14/14 13/13
f 11/11 12/12 14/14
f 13/13 16/16 15/15
f 13/13 14/14 16/16
f 15/15 18/18 17/17
f 15/15 16/16 18/18
f 20/20 19/19 17/17
f 21/21 20/20 17/17
f 22/22 21/21 17/17
f 22/22 17/17 18/18
f 23/23 22/22 18/18
f 25/25 19/19 24/24
f 24/24 19/19 20/20
f 28/28 27/27 26/26
f 29/29 28/28 26/26
f 31/31 30/30 26/26
f 27/27 31/31 26/26
f 33/33 32/32 2/2
f 6/6 33/33 2/2
f 29/29 26/26 32/32
f 33/33 29/29 32/32
f 2/2 34/34 8/8
f 2/2 32/32 34/34
f 8/8 35/35 10/10
f 8/8 34/34 35/35
f 10/10 36/36 12/12
f 10/10 35/35 36/36
f 12/12 37/37 14/14
f 12/12 36/36 37/37
f 14/14 38/38 16/16
f 14/14 37/37 38/38
f 16/16 39/39 18/18
f 16/16 38/38 39/39
f 23/23 18/18 40/40
f 40/40 18/18 39/39
f 41/41 40/40 39/39
f 42/42 41/41 39/39
f 45/45 44/44 43/43
f 46/46 45/45 43/43
f 47/47 44/44 45/45
f 49/49 48/48 26/26
f 30/30 49/49 26/26
f 43/43 44/44 48/48
f 49/49 43/43 48/48
f 26/26 50/50 32/32
f 26/26 48/48 50/50
f 32/32 51/51 34/34
f 32/32 50/50 51/51
f 34/34 52/52 35/35
f 34/34 51/51 52/52
f 35/35 53/53 36/36
f 35/35 52/52 53/53
f 36/36 54/54 37/37
f 36/36 53/53 54/54
f 37/37 55/55 38/38
f 37/37 54/54 55/55
f 56/56 39/39 38/38
f 57/57 56/56 38/38
f 58/58 57/57 38/38
f 58/58 38/38 55/55
f 59/59 58/58 55/55
f 42/42 39/39 60/60
f 60/60 39/39 56/56
f 63/63 62/62 61/61
f 64/64 62/62 63/63
f 66/66 65/65 44/44
f 47/47 66/66 44/44
f 61/61 62/62 65/65
f 67/67 61/61 65/65
f 66/66 67/67 65/65
f 44/44 68/68 48/48
f 44/44 65/65 68/68
f 48/48 69/69 50/50
f 48/48 68/68 69/69
f 50/50 70/70 51/51
f 50/50 69/69 70/70
f 51/51 71/71 52/52
f 51/51 70/70 71/71
f 52/52 72/72 53/53
f 52/52 71/71 72/72
f 53/53 73/73 54/54
f 53/53 72/72 73/73
f 74/74 55/55 54/54
f 75/75 74/74 54/54
f 75/75 54/54 73/73
f 76/76 75/75 73/73
f 59/59 55/55 77/77
f 77/77 55/55 74/74
f 80/80 79/79 78/78
f 81/81 80/80 78/78
f 82/82 78/78 79/79
f 84/84 83/83 62/62
f 85/85 84/84 62/62
f 64/64 85/85 62/62
f 81/81 78/78 83/83
f 84/84 81/81 83/83
f 62/62 86/86 65/65
f 62/62 83/83 86/86
f 65/65 87/87 68/68
f 65/65 86/86 87/87
f 68/68 88/88 69/69
f 68/68 87/87 88/88
f 69/69 89/89 70/70
f 69/69 88/88 89/89
f 70/70 90/90 71/71
f 70/70 89/89 90/90
f 71/71 91/91 72/72
f 71/71 90/90 91/91
f 72/72 92/92 73/73
f 72/72 91/91 92/92
f 93/93 76/76 73/73
f 94/94 93/93 73/73
f 94/94 73/73 92/92
f 95/95 94/94 92/92
f 96/96 95/95 92/92
f 99/99 98/98 97/97
f 100/100 98/98 99/99
f 102/102 101/101 78/78
f 82/82 102/102 78/78
f 97/97 98/98 101/101
f 103/103 97/97 101/101
f 102/102 103/103 101/101
f 78/78 104/104 83/83
f 78/78 101/101 104/104
f 83/83 105/105 86/86
f 83/83 104/104 105/105
f 86/86 106/106 87/87
f 86/86 105/105 106/106
f 87/87 107/107 88/88
f 87/87 106/106 107/107
f 88/88 108/108 89/89
f 88/88 107/107 108/108
f 89/89 109/109 90/90
f 89/89 108/108 109/109
f 90/90 110/110 91/91
f 90/90 109/109 110/110
f 111/111 92/92 91/91
f 112/112 111/111 91/91
f 113/113 112/112 91/91
f 113/113 91/91 110/110
f 114/114 113/113 110/110
f 115/115 114/114 110/110
f 116/116 115/115 110/110
f 96/96 92/92 117/117
f 117/117 92/92 111/111
f 120/120 119/119 118/118
f 121/121 120/120 118/118
f 122/122 118/118 119/119
f 124/124 123/123 98/98
f 125/125 124/124 98/98
f 100/100 125/125 98/98
f 121/121 118/118 123/123
f 124/124 121/121 123/123
f 98/98 126/126 101/101
f 98/98 123/123 126/126
f 101/101 127/127 104/104
f 101/101 126/126 127/127
f 104/104 128/128 105/105
f 104/104 127/127 128/128
f 105/105 129/129 106/106
f 105/105 128/128 129/129
f 106/106 130/130 107/107
f 106/106 129/129 130/130
f 107/107 131/131 108/108
f 107/107 130/130 131/131
f 108/108 132/132 109/109
f 108/108 131/131 132/132
f 133/133 110/110 109/109
f 134/134 133/133 109/109
f 134/134 109/109 132/132
f 135/135 134/134 132/132
f 136/136 135/135 132/132
f 116/116 110/110 137/137
f 137/137 110/110 133/133
f 140/140 139/139 138/138
f 141/141 139/139 140/140
f 143/143 142/142 118/118
f 122/122 143/143 118/118
f 138/138 139/139 142/142
f 144/144 138/138 142/142
f 143/143 144/144 142/142
f 118/118 145/145 123/123
f 118/118 142/142 145/145
f 123/123 146/146 126/126
f 123/123 145/145 146/146
f 126/126 147/147 127/127
f 126/126 146/146 147/147
f 127/127 148/148 128/128
f 127/127 147/147 148/148
f 128/128 149/149 129/129
f 128/128 148/148 149/149
f 129/129 150/150 130/130
f 129/129 149/149 150/150
f 130/130 151/151 131/131
f 130/130 150/150 151/151
f 152/152 132/132 131/131
f 153/153 152/152 131/131
f 154/154 153/153 131/131
f 154/154 131/131 151/151
f 155/155 154/154 151/151
f 136/136 132/132 156/156
f 156/156 132/132 152/152
f 159/159 158/158 157/157
f 160/160 158/158 159/159
f 162/162 161/161 139/139
f 163/163 162/162 139/139
f 141/141 163/163 139/139
f 157/157 158/158 161/161
f 162/162 157/157 161/161
f 139/139 164/164 142/142
f 139/139 161/161 164/164
f 142/142 165/165 145/145
f 142/142 164/164 165/165
f 145/145 166/166 146/146
f 145/145 165/165 166/166
f 146/146 167/167 147/147
f 146/146 166/166 167/167
f 147/147 168/168 148/148
f 147/147 167/167 168/168
f 148/148 169/169 149/149
f 148/148 168/168 169/169
f 149/149 170/170 150/150
f 149/149 169/169 170/170
f 171/171 151/151 150/150
f 172/172 171/171 150/150
f 172/172 150/150 170/170
f 173/173 172/172 170/170
f 155/155 151/151 174/174
f 175/175 155/155 174/174
f 174/174 151/151 171/171
f 176/176 174/174 171/171
f 179/179 178/178 177/177
f 180/180 178/178 179/179
f 182/182 181/181 158/158
f 183/183 182/182 158/158
f 160/160 183/183 158/158
f 177/177 178/178 181/181
f 184/184 177/177 181/181
f 182/182 184/184 181/181
f 158/158 185/185 161/161
f 158/158 181/181 185/185
f 161/161 186/186 164/164
f 161/161 185/185 186/186
f 164/164 187/187 165/165
f 164/164 186/186 187/187
f 165/165 188/188 166/166
f 165/165 187/187 188/188
f 166/166 189/189 167/167
f 166/166 188/188 189/189
f 167/167 190/190 168/168
f 167/167 189/189 190/190
f 168/168 191/191 169/169
f 168/168 190/190 191/191
f 192/192 170/170 169/169
f 193/193 192/192 169/169
f 194/194 193/193 169/169
f 194/194 169/169 191/191
f 195/195 194/194 191/191
f 173/173 170/170 196/196
f 197/197 173/173 196/196
f 198/198 197/197 196/196
f 196/196 170/170 192/192
f 201/201 200/200 199/199
f 202/202 200/200 201/201
f 204/204 203/203 178/178
f 180/180 204/204 178/178
f 199/199 200/200 203/203
f 204/204 199/199 203/203
f 178/178 205/205 181/181
f 178/178 203/203 205/205
f 181/181 206/206 185/185
f 181/181 205/205 206/206
f 185/185 207/207 186/186
f 185/185 206/206 207/207
f 186/186 208/208 187/187
f 186/186 207/207 208/208
f 187/187 209/209 188/188
f 187/187 208/208 209/209
f 188/188 210/210 189/189
f 188/188 209/209 210/210
f 189/189 211/211 190/190
f 189/189 210/210 211/211
f 212/212 191/191 190/190
f 213/213 212/212 190/190
f 213/213 190/190 211/211
f 214/214 213/213 211/211
f 195/195 191/191 215/215
f 215/215 191/191 212/212
f 218/218 217/217 216/216
f 219/219 217/217 218/218
f 221/221 220/220 200/200
f 222/222 221/221 200/200
f 202/202 222/222 200/200
f 216/216 217/217 220/220
f 223/223 216/216 220/220
f 221/221 223/223 220/220
f 200/200 224/224 203/203
f 200/200 220/220 224/224
f 203/203 225/225 205/205
f 203/203 224/224 225/225
f 205/205 226/226 206/206
f 205/205 225/225 226/226
f 206/206 227/227 207/207
f 206/206 226/226 227/227
f 207/207 228/228 208/208
f 207/207 227/227 228/228
f 208/208 229/229 209/209
f 208/208 228/228 229/229
f 209/209 230/230 210/210
f 209/209 229/229 230/230
f 231/231 211/211 210/210
f 232/232 231/231 210/210
f 232/232 210/210 230/230
f 233/233 232/232 230/230
f 234/234 233/233 230/230
f 214/214 211/211 235/235
f 235/235 211/211 231/231
f 238/238 237/237 236/236
f 239/239 237/237 238/238
f 241/241 240/240 217/217
f 219/219 241/241 217/217
f 236/236 237/237 240/240
f 242/242 236/236 240/240
f 241/241 242/242 240/240
f 217/217 243/243 220/220
f 217/217 240/240 243/243
f 220/220 244/244 224/224
f 220/220 243/243 244/244
f 224/224 245/245 225/225
f 224/224 244/244 245/245
f 225/225 246/246 226/226
f 225/225 245/245 246/246
f 226/226 247/247 227/227
f 226/226 246/246 247/247
f 227/227 248/248 228/228
f 227/227 247/247 248/248
f 228/228 249/249 229/229
f 228/228 248/248 249/249
f 250/250 230/230 229/229
f 251/251 250/250 229/229
f 251/251 229/229 249/249
f 252/252 251/251 249/249
f 234/234 230/230 253/253
f 254/254 253/253 230/230
f 250/250 254/254 230/230
f 256/256 255/255 237/237
f 257/257 256/256 237/237
f 239/239 257/257 237/237
f 258/258 255/255 256/256
f 237/237 259/259 240/240
f 237/237 255/255 259/259
f 240/240 260/260 243/243
f 240/240 259/259 260/260
f 243/243 261/261 244/244
f 243/243 260/260 261/261
f 244/244 262/262 245/245
f 244/244 261/261 262/262
f 245/245 263/263 246/246
f 245/245 262/262 263/263
f 246/246 264/264 247/247
f 246/246 263/263 264/264
f 247/247 265/265 248/248
f 247/247 264/264 265/265
f 266/266 249/249 248/248
f 267/267 266/266 248/248
f 267/267 248/248 265/265
f 268/268 267/267 265/265
f 252/252 249/249 269/269
f 269/269 249/249 266/266
f 272/272 271/271 270/270
f 273/273 271/271 272/272
f 275/275 274/274 255/255
f 258/258 275/275 255/255
f 270/270 271/271 274/274
f 275/275 270/270 274/274
f 255/255 276/276 259/259
f 255/255 274/274 276/276
f 259/259 277/277 260/260
f 259/259 276/276 277/277
f 260/260 278/278 261/261
f 260/260 277/277 278/278
f 261/261 279/279 262/262
f 261/261 278/278 279/279
f 262/262 280/280 263/263
f 262/262 279/279 280/280
f 263/263 281/281 264/264
f 263/263 280/280 281/281
f 282/282 265/265 264/264
f 283/283 282/282 264/264
f 283/283 264/264 281/281
f 284/284 283/283 281/281
f 268/268 265/265 285/285
f 285/285 265/265 282/282
f 288/288 287/287 286/286
f 289/289 288/288 286/286
f 290/290 286/286 287/287
f 292/292 291/291 271/271
f 273/273 292/292 271/271
f 289/289 286/286 291/291
f 292/292 289/289 291/291
f 271/271 293/293 274/274
f 271/271 291/291 293/293
f 274/274 294/294 276/276
f 274/274 293/293 294/294
f 276/276 295/295 277/277
f 276/276 294/294 295/295
f 277/277 296/296 278/278
f 277/277 295/295 296/296
f 278/278 297/297 279/279
f 278/278 296/296 297/297
f 279/279 298/298 280/280
f 279/279 297/297 298/298
f 299/299 281/281 280/280
f 300/300 299/299 280/280
f 300/300 280/280 298/298
f 301/301 300/300 298/298
f 284/284 281/281 302/302
f 303/303 302/302 281/281
f 299/299 303/303 281/281
f 306/306 305/305 304/304
f 307/307 306/306 304/304
f 308/308 307/307 304/304
f 309/309 305/305 306/306
f 311/311 310/310 286/286
f 290/290 311/311 286/286
f 304/304 305/305 310/310
f 311/311 304/304 310/310
f 286/286 312/312 291/291
f 286/286 310/310 312/312
f 291/291 313/313 293/293
f 291/291 312/312 313/313
f 293/293 314/314 294/294
f 293/293 313/313 314/314
f 294/294 315/315 295/295
f 294/294 314/314 315/315
f 295/295 316/316 296/296
f 295/295 315/315 316/316
f 296/296 317/317 297/297
f 296/296 316/316 317/317
f 318/318 298/298 297/297
f 319/319 318/318 297/297
f 319/319 297/297 317/317
f 320/320 319/319 317/317
f 321/321 320/320 317/317
f 322/322 301/301 298/298
f 323/323 322/322 298/298
f 323/323 298/298 318/318
f 326/326 325/325 324/324
f 327/327 325/325 326/326
f 329/329 328/328 305/305
f 330/330 329/329 305/305
f 309/309 330/330 305/305
f 324/324 325/325 328/328
f 331/331 324/324 328/328
f 329/329 331/331 328/328
f 305/305 332/332 310/310
f 305/305 328/328 332/332
f 310/310 333/333 312/312
f 310/310 332/332 333/333
f 312/312 334/334 313/313
f 312/312 333/333 334/334
f 313/313 335/335 314/314
f 313/313 334/334 335/335
f 314/314 336/336 315/315
f 314/314 335/335 336/336
f 315/315 337/337 316/316
f 315/315 336/336 337/337
f 338/338 317/317 316/316
f 339/339 338/338 316/316
f 339/339 316/316 337/337
f 340/340 339/339 337/337
f 321/321 317/317 341/341
f 341/341 317/317 338/338
f 344/344 343/343 342/342
f 345/345 344/344 342/342
f 346/346 342/342 343/343
f 348/348 347/347 325/325
f 327/327 348/348 325/325
f 345/345 342/342 347/347
f 348/348 345/345 347/347
f 325/325 349/349 328/328
f 325/325 347/347 349/349
f 328/328 350/350 332/332
f 328/328 349/349 350/350
f 332/332 351/351 333/333
f 332/332 350/350 351/351
f 333/333 352/352 334/334
f 333/333 351/351 352/352
f 334/334 353/353 335/335
f 334/334 352/352 353/353
f 335/335 354/354 336/336
f 335/335 353/353 354/354
f 355/355 337/337 336/336
f 356/356 355/355 336/336
f 356/356 336/336 354/354
f 357/357 356/356 354/354
f 340/340 337/337 358/358
f 358/358 337/337 355/355
f 361/361 360/360 359/359
f 362/362 360/360 361/361
f 364/364 363/363 342/342
f 346/346 364/364 342/342
f 359/359 360/360 363/363
f 365/365 359/359 363/363
f 366/366 365/365 363/363
f 364/364 366/366 363/363
f 342/342 367/367 347/347
f 342/342 363/363 367/367
f 347/347 368/368 349/349
f 347/347 367/367 368/368
f 349/349 369/369 350/350
f 349/349 368/368 369/369
f 350/350 370/370 351/351
f 350/350 369/369 370/370
f 351/351 371/371 352/352
f 351/351 370/370 371/371
f 352/352 372/372 353/353
f 352/352 371/371 372/372
f 373/373 354/354 353/353
f 374/374 373/373 353/353
f 374/374 353/353 372/372
f 375/375 374/374 372/372
f 376/376 357/357 354/354
f 377/377 376/376 354/354
f 377/377 354/354 373/373
f 379/379 378/378 360/360
f 380/380 379/379 360/360
f 362/362 380/380 360/360
f 381/381 378/378 379/379
f 382/382 381/381 379/379
f 360/360 383/383 363/363
f 360/360 378/378 383/383
f 363/363 384/384 367/367
f 363/363 383/383 384/384
f 367/367 385/385 368/368
f 367/367 384/384 385/385
f 368/368 386/386 369/369
f 368/368 385/385 386/386
f 369/369 387/387 370/370
f 369/369 386/386 387/387
f 370/370 388/388 371/371
f 370/370 387/387 388/388
f 371/371 389/389 372/372
f 371/371 388/388 389/389
f 375/375 372/372 390/390
f 390/390 372/372 389/389
f 391/391 390/390 389/389
f 392/392 391/391 389/389
f 395/395 394/394 393/393
f 396/396 395/395 393/393
f 397/397 393/393 394/394
f 399/399 398/398 378/378
f 381/381 399/399 378/378
f 396/396 393/393 398/398
f 399/399 396/396 398/398
f 378/378 400/400 383/383
f 378/378 398/398 400/400
f 383/383 401/401 384/384
f 383/383 400/400 401/401
f 384/384 402/402 385/385
f 384/384 401/401 402/402
f 385/385 403/403 386/386
f 385/385 402/402 403/403
f 386/386 404/404 387/387
f 386/386 403/403 404/404
f 387/387 405/405 388/388
f 387/387 404/404 405/405
f 406/406 389/389 388/388
f 407/407 406/406 388/388
f 408/408 407/407 388/388
f 408/408 388/388 405/405
f 409/409 408/408 405/405
f 410/410 409/409 405/405
f 392/392 389/389 411/411
f 411/411 389/389 406/406
f 414/414 413/413 412/412
f 416/416 415/415 413/413
f 414/414 416/416 413/413
f 418/418 417/417 393/393
f 419/419 418/418 393/393
f 397/397 419/419 393/393
f 412/412 413/413 417/417
f 418/418 412/412 417/417
f 393/393 420/420 398/398
f 393/393 417/417 420/420
f 398/398 421/421 400/400
f 398/398 420/420 421/421
f 400/400 422/422 401/401
f 400/400 421/421 422/422
f 401/401 423/423 402/402
f 401/401 422/422 423/423
f 402/402 424/424 403/403
f 402/402 423/423 424/424
f 403/403 425/425 404/404
f 403/403 424/424 425/425
f 426/426 405/405 404/404
f 427/427 426/426 404/404
f 428/428 427/427 404/404
f 428/428 404/404 425/425
f 429/429 428/428 425/425
f 410/410 405/405 430/430
f 430/430 405/405 426/426
f 432/432 431/431 413/413
f 415/415 432/432 413/413
f 434/434 433/433 431/431
f 432/432 434/434 431/431
f 413/413 435/435 417/417
f 413/413 431/431 435/435
f 417/417 436/436 420/420
f 417/417 435/435 436/436
f 420/420 437/437 421/421
f 420/420 436/436 437/437
f 421/421 438/438 422/422
f 421/421 437/437 438/438
f 422/422 439/439 423/423
f 422/422 438/438 439/439
f 423/423 440/440 424/424
f 423/423 439/439 440/440
f 441/441 425/425 424/424
f 442/442 441/441 424/424
f 442/442 424/424 440/440
f 443/443 442/442 440/440
f 429/429 425/425 444/444
f 445/445 444/444 425/425
f 441/441 445/445 425/425
f 448/448 447/447 446/446
f 449/449 447/447 448/448
f 451/451 450/450 431/431
f 433/433 451/451 431/431
f 446/446 447/447 450/450
f 451/451 446/446 450/450
f 431/431 452/452 435/435
f 431/431 450/450 452/452
f 435/435 453/453 436/436
f 435/435 452/452 453/453
f 436/436 454/454 437/437
f 436/436 453/453 454/454
f 437/437 455/455 438/438
f 437/437 454/454 455/455
f 438/438 456/456 439/439
f 438/438 455/455 456/456
f 457/457 440/440 439/439
f 458/458 457/457 439/439
f 458/458 439/439 456/456
f 459/459 458/458 456/456
f 460/460 443/443 440/440
f 461/461 460/460 440/440
f 461/461 440/440 457/457
f 464/464 463/463 462/462
f 465/465 463/463 464/464
f 467/467 466/466 447/447
f 449/449 467/467 447/447
f 462/462 463/463 466/466
f 468/468 462/462 466/466
f 467/467 468/468 466/466
f 447/447 469/469 450/450
f 447/447 466/466 469/469
f 450/450 470/470 452/452
f 450/450 469/469 470/470
f 452/452 471/471 453/453
f 452/452 470/470 471/471
f 453/453 472/472 454/454
f 453/453 471/471 472/472
f 454/454 473/473 455/455
f 454/454 472/472 473/473
f 455/455 474/474 456/456
f 455/455 473/473 474/474
f 459/459 456/456 475/475
f 475/475 456/456 474/474
f 476/476 475/475 474/474
f 477/477 476/476 474/474
f 479/479 478/478 463/463
f 480/480 479/479 463/463
f 465/465 480/480 463/463
f 481/481 478/478 479/479
f 463/463 482/482 466/466
f 463/463 478/478 482/482
f 466/466 483/483 469/469
f 466/466 482/482 483/483
f 469/469 484/484 470/470
f 469/469 483/483 484/484
f 470/470 485/485 471/471
f 470/470 484/484 485/485
f 471/471 486/486 472/472
f 471/471 485/485 486/486
f 472/472 487/487 473/473
f 472/472 486/486 487/487
f 488/488 474/474 473/473
f 489/489 488/488 473/473
f 490/490 489/489 473/473
f 490/490 473/473 487/487
f 491/491 490/490 487/487
f 477/477 474/474 492/492
f 492/492 474/474 488/488
f 495/495 494/494 493/493
f 497/497 496/496 494/494
f 495/495 497/497 494/494
f 499/499 498/498 478/478
f 481/481 499/499 478/478
f 493/493 494/494 498/498
f 499/499 493/493 498/498
f 478/478 500/500 482/482
f 478/478 498/498 500/500
f 482/482 501/501 483/483
f 482/482 500/500 501/501
f 483/483 502/502 484/484
f 483/483 501/501 502/502
f 484/484 503/503 485/485
f 484/484 502/502 503/503
f 485/485 504/504 486/486
f 485/485 503/503 504/504
f 505/505 487/487 486/486
f 506/506 505/505 486/486
f 506/506 486/486 504/504
f 507/507 506/506 504/504
f 491/491 487/487 508/508
f 508/508 487/487 505/505
f 511/511 510/510 509/509
f 512/512 511/511 509/509
f 513/513 509/509 510/510
f 515/515 514/514 494/494
f 496/496 515/515 494/494
f 512/512 509/509 514/514
f 515/515 512/512 514/514
f 494/494 516/516 498/498
f 494/494 514/514 516/516
f 498/498 517/517 500/500
f 498/498 516/516 517/517
f 500/500 518/518 501/501
f 500/500 517/517 518/518
f 501/501 519/519 502/502
f 501/501 518/518 519/519
f 502/502 520/520 503/503
f 502/502 519/519 520/520
f 503/503 521/521 504/504
f 503/503 520/520 521/521
f 522/522 507/507 504/504
f 523/523 522/522 504/504
f 523/523 504/504 521/521
f 524/524 523/523 521/521
f 525/525 524/524 521/521
f 528/528 527/527 526/526
f 529/529 527/527 528/528
f 531/531 530/530 509/509
f 513/513 531/531 509/509
f 526/526 527/527 530/530
f 532/532 526/526 530/530
f 531/531 532/532 530/530
f 509/509 533/533 514/514
f 509/509 530/530 533/533
f 514/514 534/534 516/516
f 514/514 533/533 534/534
f 516/516 535/535 517/517
f 516/516 534/534 535/535
f 517/517 536/536 518/518
f 517/517 535/535 536/536
f 518/518 537/537 519/519
f 518/518 536/536 537/537
f 519/519 538/538 520/520
f 519/519 537/537 538/538
f 539/539 521/521 520/520
f 540/540 539/539 520/520
f 540/540 520/520 538/538
f 541/541 540/540 538/538
f 542/542 541/541 538/538
f 525/525 521/521 543/543
f 543/543 521/521 539/539
f 545/545 544/544 527/527
f 546/546 545/545 527/527
f 529/529 546/546 527/527
f 547/547 544/544 545/545
f 527/527 548/548 530/530
f 527/527 544/544 548/548
f 530/530 549/549 533/533
f 530/530 548/548 549/549
f 533/533 550/550 534/534
f 533/533 549/549 550/550
f 534/534 551/551 535/535
f 534/534 550/550 551/551
f 535/535 552/552 536/536
f 535/535 551/551 552/552
f 536/536 553/553 537/537
f 536/536 552/552 553/553
f 554/554 538/538 537/537
f 555/555 554/554 537/537
f 555/555 537/537 553/553
f 556/556 555/555 553/553
f 542/542 538/538 557/557
f 558/558 557/557 538/538
f 554/554 558/558 538/538
f 561/561 560/560 559/559
f 562/562 560/560 561/561
f 564/564 563/563 544/544
f 547/547 564/564 544/544
f 559/559 560/560 563/563
f 565/565 559/559 563/563
f 564/564 565/565 563/563
f 544/544 566/566 548/548
f 544/544 563/563 566/566
f 548/548 567/567 549/549
f 548/548 566/566 567/567
f 549/549 568/568 550/550
f 549/549 567/567 568/568
f 550/550 569/569 551/551
f 550/550 568/568 569/569
f 551/551 570/570 552/552
f 551/551 569/569 570/570
f 552/552 571/571 553/553
f 552/552 570/570 571/571
f 556/556 553/553 572/572
f 572/572 553/553 571/571
f 573/573 572/572 571/571
f 576/576 575/575 574/574
f 577/577 575/575 576/576
f 579/579 578/578 560/560
f 580/580 579/579 560/560
f 562/562 580/580 560/560
f 574/574 575/575 578/578
f 581/581 574/574 578/578
f 579/579 581/581 578/578
f 560/560 582/582 563/563
f 560/560 578/578 582/582
f 563/563 583/583 566/566
f 563/563 582/582 583/583
f 566/566 584/584 567/567
f 566/566 583/583 584/584
f 567/567 585/585 568/568
f 567/567 584/584 585/585
f 568/568 586/586 569/569
f 568/568 585/585 586/586
f 569/569 587/587 570/570
f 569/569 586/586 587/587
f 588/588 571/571 570/570
f 589/589 588/588 570/570
f 589/589 570/570 587/587
f 590/590 589/589 587/587
f 573/573 571/571 591/591
f 591/591 571/571 588/588
f 593/593 592/592 575/575
f 577/577 593/593 575/575
f 595/595 594/594 592/592
f 593/593 595/595 592/592
f 575/575 596/596 578/578
f 575/575 592/592 596/596
f 578/578 597/597 582/582
f 578/578 596/596 597/597
f 582/582 598/598 583/583
f 582/582 597/597 598/598
f 583/583 599/599 584/584
f 583/583 598/598 599/599
f 584/584 600/600 585/585
f 584/584 599/599 600/600
f 585/585 601/601 586/586
f 585/585 600/600 601/601
f 602/602 587/587 586/586
f 603/603 602/602 586/586
f 603/603 586/586 601/601
f 604/604 603/603 601/601
f 605/605 604/604 601/601
f 606/606 590/590 587/587
f 607/607 606/606 587/587
f 607/607 587/587 602/602
f 610/610 609/609 608/608
f 611/611 610/610 608/608
f 612/612 608/608 609/609
f 614/614 613/613 592/592
f 594/594 614/614 592/592
f 611/611 608/608 613/613
f 614/614 611/611 613/613
f 592/592 615/615 596/596
f 592/592 613/613 615/615
f 596/596 616/616 597/597
f 596/596 615/615 616/616
f 597/597 617/617 598/598
f 597/597 616/616 617/617
f 598/598 618/618 599/599
f 598/598 617/617 618/618
f 599/599 619/619 600/600
f 599/599 618/618 619/619
f 600/600 620/620 601/601
f 600/600 619/619 620/620
f 605/605 601/601 621/621
f 621/621 601/601 620/620
f 622/622 621/621 620/620
f 623/623 622/622 620/620
f 626/626 625/625 624/624
f 627/627 625/625 626/626
f 629/629 628/628 608/608
f 612/612 629/629 608/608
f 624/624 625/625 628/628
f 630/630 624/624 628/628
f 629/629 630/630 628/628
f 608/608 631/631 613/613
f 608/608 628/628 631/631
f 613/613 632/632 615/615
f 613/613 631/631 632/632
f 615/615 633/633 616/616
f 615/615 632/632 633/633
f 616/616 634/634 617/617
f 616/616 633/633 634/634
f 617/617 635/635 618/618
f 617/617 634/634 635/635
f 618/618 636/636 619/619
f 618/618 635/635 636/636
f 637/637 620/620 619/619
f 638/638 637/637 619/619
f 639/639 638/638 619/619
f 639/639 619/619 636/636
f 640/640 639/639 636/636
f 623/623 620/620 641/641
f 641/641 620/620 637/637
f 643/643 642/642 625/625
f 644/644 643/643 625/625
f 627/627 644/644 625/625
f 645/645 642/642 643/643
f 625/625 646/646 628/628
f 625/625 642/642 646/646
f 628/628 647/647 631/631
f 628/628 646/646 647/647
f 631/631 648/648 632/632
f 631/631 647/647 648/648
f 632/632 649/649 633/633
f 632/632 648/648 649/649
f 633/633 650/650 634/634
f 633/633 649/649 650/650
f 634/634 651/651 635/635
f 634/634 650/650 651/651
f 652/652 636/636 635/635
f 653/653 652/652 635/635
f 653/653 635/635 651/651
f 654/654 653/653 651/651
f 640/640 636/636 655/655
f 656/656 655/655 636/636
f 652/652 656/656 636/636
f 659/659 658/658 657/657
f 660/660 658/658 659/659
f 662/662 661/661 642/642
f 663/663 662/662 642/642
f 645/645 663/663 642/642
f 657/657 658/658 661/661
f 662/662 657/657 661/661
f 642/642 664/664 646/646
f 642/642 661/661 664/664
f 646/646 665/665 647/647
f 646/646 664/664 665/665
f 647/647 666/666 648/648
f 647/647 665/665 666/666
f 648/648 667/667 649/649
f 648/648 666/666 667/667
f 649/649 668/668 650/650
f 649/649 667/667 668/668
f 650/650 669/669 651/651
f 650/650 668/668 669/669
f 654/654 651/651 670/670
f 670/670 651/651 669/669
f 671/671 670/670 669/669
f 674/674 673/673 672/672
f 675/675 673/673 674/674
f 677/677 676/676 658/658
f 660/660 677/677 658/658
f 672/672 673/673 676/676
f 678/678 672/672 676/676
f 677/677 678/678 676/676
f 658/658 679/679 661/661
f 658/658 676/676 679/679
f 661/661 680/680 664/664
f 661/661 679/679 680/680
f 664/664 681/681 665/665
f 664/664 680/680 681/681
f 665/665 682/682 666/666
f 665/665 681/681 682/682
f 666/666 683/683 667/667
f 666/666 682/682 683/683
f 667/667 684/684 668/668
f 667/667 683/683 684/684
f 685/685 669/669 668/668
f 686/686 685/685 668/668
f 686/686 668/668 684/684
f 687/687 686/686 684/684
f 688/688 687/687 684/684
f 671/671 669/669 689/689
f 689/689 669/669 685/685
f 691/691 690/690 673/673
f 692/692 691/691 673/673
f 675/675 692/692 673/673
f 693/693 690/690 691/691
f 673/673 694/694 676/676
f 673/673 690/690 694/694
f 676/676 695/695 679/679
f 676/676 694/694 695/695
f 679/679 696/696 680/680
f 679/679 695/695 696/696
f 680/680 697/697 681/681
f 680/680 696/696 697/697
f 681/681 698/698 682/682
f 681/681 697/697 698/698
f 682/682 699/699 683/683
f 682/682 698/698 699/699
f 700/700 684/684 683/683
f 701/701 700/700 683/683
f 702/702 701/701 683/683
f 702/702 683/683 699/699
f 703/703 702/702 699/699
f 688/688 684/684 704/704
f 704/704 684/684 700/700
f 707/707 706/706 705/705
f 708/708 706/706 707/707
f 710/710 709/709 690/690
f 693/693 710/710 690/690
f 705/705 706/706 709/709
f 710/710 705/705 709/709
f 690/690 711/711 694/694
f 690/690 709/709 711/711
f 694/694 712/712 695/695
f 694/694 711/711 712/712
f 695/695 713/713 696/696
f 695/695 712/712 713/713
f 696/696 714/714 697/697
f 696/696 713/713 714/714
f 697/697 715/715 698/698
f 697/697 714/714 715/715
f 698/698 716/716 699/699
f 698/698 715/715 716/716
f 703/703 699/699 717/717
f 717/717 699/699 716/716
f 718/718 717/717 716/716
f 719/719 718/718 716/716
f 722/722 721/721 720/720
f 724/724 723/723 721/721
f 722/722 724/724 721/721
f 726/726 725/725 706/706
f 727/727 726/726 706/706
f 708/708 727/727 706/706
f 720/720 721/721 725/725
f 726/726 720/720 725/725
f 706/706 728/728 709/709
f 706/706 725/725 728/728
f 709/709 729/729 711/711
f 709/709 728/728 729/729
f 711/711 730/730 712/712
f 711/711 729/729 730/730
f 712/712 731/731 713/713
f 712/712 730/730 731/731
f 713/713 732/732 714/714
f 713/713 731/731 732/732
f 714/714 733/733 715/715
f 714/714 732/732 733/733
f 734/734 716/716 715/715
f 735/735 734/734 715/715
f 736/736 735/735 715/715
f 736/736 715/715 733/733
f 737/737 736/736 733/733
f 719/719 716/716 738/738
f 738/738 716/716 734/734
f 740/740 739/739 721/721
f 723/723 740/740 721/721
f 741/741 739/739 740/740
f 721/721 742/742 725/725
f 721/721 739/739 742/742
f 725/725 743/743 728/728
f 725/725 742/742 743/743
f 728/728 744/744 729/729
f 728/728 743/743 744/744
f 729/729 745/745 730/730
f 729/729 744/744 745/745
f 730/730 746/746 731/731
f 730/730 745/745 746/746
f 731/731 747/747 732/732
f 731/731 746/746 747/747
f 748/748 733/733 732/732
f 749/749 748/748 732/732
f 749/749 732/732 747/747
f 750/750 749/749 747/747
f 751/751 737/737 733/733
f 752/752 751/751 733/733
f 752/752 733/733 748/748
f 754/754 753/753 739/739
f 741/741 754/754 739/739
f 756/756 755/755 753/753
f 754/754 756/756 753/753
f 739/739 757/757 742/742
f 739/739 753/753 757/757
f 742/742 758/758 743/743
f 742/742 757/757 758/758
f 743/743 759/759 744/744
f 743/743 758/758 759/759
f 744/744 760/760 745/745
f 744/744 759/759 760/760
f 745/745 761/761 746/746
f 745/745 760/760 761/761
f 746/746 762/762 747/747
f 746/746 761/761 762/762
f 750/750 747/747 763/763
f 763/763 747/747 762/762
f 764/764 763/763 762/762
f 765/765 764/764 762/762
f 755/755 766/766 753/753
f 755/755 767/767 766/766
f 753/753 768/768 757/757
f 753/753 766/766 768/768
f 757/757 769/769 758/758
f 757/757 768/768 769/769
f 758/758 770/770 759/759
f 758/758 769/769 770/770
f 759/759 771/771 760/760
f 759/759 770/770 771/771
f 760/760 772/772 761/761
f 760/760 771/771 772/772
f 773/773 762/762 761/761
f 774/774 773/773 761/761
f 774/774 761/761 772/772
f 775/775 774/774 772/772
f 776/776 775/775 772/772
f 765/765 762/762 777/777
f 777/777 762/762 773/773
f 767/767 778/778 766/766
f 767/767 779/779 778/778
f 766/766 780/780 768/768
f 766/766 778/778 780/780
f 768/768 781/781 769/769
f 768/768 780/780 781/781
f 769/769 782/782 770/770
f 769/769 781/781 782/782
f 770/770 783/783 771/771
f 770/770 782/782 783/783
f 784/784 772/772 771/771
f 785/785 784/784 771/771
f 785/785 771/771 783/783
f 786/786 785/785 783/783
f 776/776 772/772 787/787
f 787/787 772/772 784/784
f 779/779 788/788 778/778
f 779/779 789/789 788/788
f 778/778 790/790 780/780
f 778/778 788/788 790/790
f 780/780 791/791 781/781
f 780/780 790/790 791/791
f 781/781 792/792 782/782
f 781/781 791/791 792/792
f 782/782 793/793 783/783
f 782/782 792/792 793/793
f 794/794 786/786 783/783
f 795/795 794/794 783/783
f 795/795 783/783 793/793
f 796/796 795/795 793/793
f 789/789 797/797 788/788
f 789/789 798/798 797/797
f 788/788 799/799 790/790
f 788/788 797/797 799/799
f 790/790 800/800 791/791
f 790/790 799/799 800/800
f 791/791 801/801 792/792
f 791/791 800/800 801/801
f 802/802 793/793 792/792
f 803/803 802/802 792/792
f 804/804 803/803 792/792
f 804/804 792/792 801/801
f 805/805 804/804 801/801
f 806/806 805/805 801/801
f 796/796 793/793 807/807
f 807/807 793/793 802/802
f 798/798 808/808 797/797
f 798/798 809/809 808/808
f 797/797 810/810 799/799
f 797/797 808/808 810/810
f 799/799 811/811 800/800
f 799/799 810/810 811/811
f 812/812 801/801 800/800
f 813/813 812/812 800/800
f 814/814 813/813 800/800
f 814/814 800/800 811/811
f 815/815 814/814 811/811
f 806/806 801/801 816/816
f 816/816 801/801 812/812
f 809/809 817/817 808/808
f 809/809 818/818 817/817
f 808/808 819/819 810/810
f 808/808 817/817 819/819
f 810/810 820/820 811/811
f 810/810 819/819 820/820
f 815/815 811/811 821/821
f 821/821 811/811 820/820
f 822/822 821/821 820/820
f 823/823 822/822 820/820
f 818/818 824/824 817/817
f 818/818 825/825 824/824
f 817/817 826/826 819/819
f 817/817 824/824 826/826
f 827/827 820/820 819/819
f 828/828 827/827 819/819
f 829/829 828/828 819/819
f 829/829 819/819 826/826
f 830/830 829/829 826/826
f 823/823 820/820 831/831
f 831/831 820/820 827/827
f 825/825 832/832 824/824
f 825/825 833/833 832/832
f 834/834 826/826 824/824
f 835/835 834/834 824/824
f 835/835 824/824 832/832
f 836/836 835/835 832/832
f 830/830 826/826 837/837
f 838/838 837/837 826/826
f 834/834 838/838 826/826
f 833/833 839/839 832/832
f 833/833 840/840 839/839
f 836/836 832/832 841/841
f 841/841 832/832 839/839
f 842/842 841/841 839/839
f 843/843 842/842 839/839
f 844/844 839/839 840/840
f 845/845 844/844 840/840
f 845/845 840/840 846/846
f 847/847 845/845 846/846
f 848/848 847/847 846/846
f 843/843 839/839 849/849
f 849/849 839/839 844/844
f 848/848 846/846 850/850
f 850/850 846/846 851/851
