o Pothole_Surface
v -38.903047 75.459303 -0.598018
v -36.442453 72.998709 -0.665342
v -42.505303 72.998709 -0.469027
v -11.442453 47.998709 -4.670272
v -36.442453 47.998709 -2.911662
v -36.442453 72.998709 -0.665342
v 13.557547 22.998709 -7.800752
v -11.442453 22.998709 -7.380992
v -11.442453 47.998709 -4.670272
v -11.442453 22.998709 -7.380992
v -36.442453 22.998709 -4.851492
v -36.442453 47.998709 -2.911662
v -11.442453 22.998709 -7.380992
v -36.442453 47.998709 -2.911662
v -11.442453 47.998709 -4.670272
v -61.442453 47.998709 -0.457102
v -66.542877 48.346230 -0.264633
v -64.553506 51.109762 -0.347048
v -66.542877 48.346230 -0.264633
v -61.442453 47.998709 -0.457102
v -66.727423 47.998709 -0.256757
v -36.442453 22.998709 -4.851492
v -61.442453 22.998709 -1.109342
v -61.442453 47.998709 -0.457102
v -61.442453 22.998709 -1.109342
v -72.760107 30.138223 -0.344445
v -72.141553 33.697808 -0.424621
v -61.442453 22.998709 -1.109342
v -73.150724 22.998709 -0.246293
v -73.136750 23.763571 -0.254753
v -73.136750 23.763571 -0.254753
v -72.760107 30.138223 -0.344445
v -61.442453 22.998709 -1.109342
v -69.575314 42.635807 -0.288714
v -66.727423 47.998709 -0.256757
v -61.442453 47.998709 -0.457102
v -61.442453 47.998709 -0.457102
v -71.653039 36.509047 -0.369796
v -69.575314 42.635807 -0.288714
v -71.653039 36.509047 -0.369796
v -61.442453 22.998709 -1.109342
v -72.141553 33.697808 -0.424621
v -61.442453 47.998709 -0.457102
v -61.442453 22.998709 -1.109342
v -71.653039 36.509047 -0.369796
v -44.076137 71.925719 -0.514575
v -42.505303 72.998709 -0.469027
v -36.442453 72.998709 -0.665342
v -36.442453 47.998709 -2.911662
v -49.155435 67.656652 -0.733694
v -44.076137 71.925719 -0.514575
v -49.155435 67.656652 -0.733694
v -36.442453 47.998709 -2.911662
v -52.730513 64.286769 -0.920727
v -44.076137 71.925719 -0.514575
v -36.442453 72.998709 -0.665342
v -36.442453 47.998709 -2.911662
v -36.442453 22.998709 -4.851492
v -61.442453 47.998709 -0.457102
v -36.442453 47.998709 -2.911662
v -61.442453 47.998709 -0.457102
v -62.759601 53.601763 -0.307430
v -61.442453 55.110186 -0.286068
v -62.759601 53.601763 -0.307430
v -61.442453 47.998709 -0.457102
v -64.553506 51.109762 -0.347048
v -53.935778 63.150682 -0.829714
v -52.730513 64.286769 -0.920727
v -36.442453 47.998709 -2.911662
v -36.442453 47.998709 -2.911662
v -58.490649 58.490649 -0.494582
v -53.935778 63.150682 -0.829714
v -58.490649 58.490649 -0.494582
v -61.442453 47.998709 -0.457102
v -61.442453 55.110186 -0.286068
v -36.442453 47.998709 -2.911662
v -61.442453 47.998709 -0.457102
v -58.490649 58.490649 -0.494582
v -11.442453 47.998709 -4.670272
v 11.389895 71.912967 -1.256039
v 12.572733 72.013895 -1.251316
v -11.442453 47.998709 -4.670272
v -36.442453 72.998709 -0.665342
v 4.709381 72.998709 -1.032227
v 5.719444 72.672424 -1.090593
v 11.389895 71.912967 -1.256039
v -11.442453 47.998709 -4.670272
v 4.709381 72.998709 -1.032227
v 5.719444 72.672424 -1.090593
v -11.442453 47.998709 -4.670272
v 13.557547 35.498709 -6.338952
v 13.557547 22.998709 -7.800752
v -11.442453 47.998709 -4.670272
v 13.557547 47.998709 -4.409492
v 12.572733 72.013895 -1.251316
v 13.557547 72.097925 -1.229957
v 12.572733 72.013895 -1.251316
v 13.557547 47.998709 -4.409492
v -11.442453 47.998709 -4.670272
v 13.557547 35.498709 -6.338952
v -11.442453 47.998709 -4.670272
v 13.557547 47.998709 -4.409492
v -36.442453 72.998709 -0.665342
v -38.565808 75.689661 -0.598056
v -36.442453 76.700007 -0.605418
v -38.565808 75.689661 -0.598056
v -36.442453 72.998709 -0.665342
v -38.903047 75.459303 -0.598018
v -36.442453 72.998709 -0.665342
v 0.000000 74.520000 -0.965611
v 4.709381 72.998709 -1.032227
v -19.272719 80.276650 -0.700587
v -12.518907 79.041265 -0.780801
v -36.442453 72.998709 -0.665342
v -36.442453 72.998709 -0.665342
v -26.042877 80.151732 -0.642251
v -19.272719 80.276650 -0.700587
v -36.442453 72.998709 -0.665342
v -36.442453 76.700007 -0.605418
v -32.539441 78.557159 -0.610148
v -6.051501 76.891616 -0.873263
v 0.000000 74.520000 -0.965611
v -36.442453 72.998709 -0.665342
v -12.518907 79.041265 -0.780801
v -6.051501 76.891616 -0.873263
v -36.442453 72.998709 -0.665342
v -32.539441 78.557159 -0.610148
v -26.042877 80.151732 -0.642251
v -36.442453 72.998709 -0.665342
v -61.442453 -27.001291 -0.582072
v -85.316320 -25.875158 2.033164
v -61.442453 -2.001291 -1.447512
v -85.316320 -25.875158 2.033164
v -61.442453 -27.001291 -0.582072
v -85.403235 -27.001291 2.081811
v -48.942453 -14.501291 -3.551282
v -36.442453 -27.001291 -3.103812
v -61.442453 -27.001291 -0.582072
v -84.892268 -20.380830 1.822895
v -82.712370 -13.100352 1.355747
v -61.442453 -2.001291 -1.447512
v -61.442453 -2.001291 -1.447512
v -85.316320 -25.875158 2.033164
v -84.892268 -20.380830 1.822895
v -61.442453 -2.001291 -1.447512
v -74.835612 5.889690 -0.118009
v -73.905982 10.462237 -0.360199
v -82.712370 -13.100352 1.355747
v -79.779901 -6.278814 0.814347
v -61.442453 -2.001291 -1.447512
v -76.950000 -0.000000 0.300788
v -74.835612 5.889690 -0.118009
v -61.442453 -2.001291 -1.447512
v -79.779901 -6.278814 0.814347
v -76.950000 -0.000000 0.300788
v -61.442453 -2.001291 -1.447512
v -61.442453 -2.001291 -1.447512
v -48.942453 -14.501291 -3.551282
v -61.442453 -27.001291 -0.582072
v -11.442453 -52.001291 -1.756132
v -36.442453 -52.001291 2.109538
v -36.442453 -27.001291 -3.103812
v 13.557547 -77.001291 2.261678
v -11.442453 -77.001291 2.549848
v -11.442453 -52.001291 -1.756132
v -34.405392 -67.524385 3.492444
v -36.442453 -64.059662 3.313967
v -36.442453 -52.001291 2.109538
v -11.442453 -77.001291 2.549848
v -28.388441 -77.001291 3.944008
v -30.641493 -73.975107 3.827103
v -36.442453 -52.001291 2.109538
v -11.442453 -77.001291 2.549848
v -34.405392 -67.524385 3.492444
v -30.641493 -73.975107 3.827103
v -34.405392 -67.524385 3.492444
v -11.442453 -77.001291 2.549848
v -11.442453 -77.001291 2.549848
v -36.442453 -52.001291 2.109538
v -11.442453 -52.001291 -1.756132
v -85.396706 -28.047039 2.251974
v -79.818315 -40.669463 3.096896
v -83.822159 -34.720275 2.734882
v -85.396706 -28.047039 2.251974
v -66.542877 -48.346230 3.350416
v -73.804049 -45.227179 3.296606
v -66.542877 -48.346230 3.350416
v -85.396706 -28.047039 2.251974
v -64.564789 -48.878955 3.340167
v -73.804049 -45.227179 3.296606
v -79.818315 -40.669463 3.096896
v -85.396706 -28.047039 2.251974
v -36.442453 -52.001291 2.109538
v -61.442453 -27.001291 -0.582072
v -36.442453 -27.001291 -3.103812
v -36.442453 -52.001291 2.109538
v -52.010649 -52.010649 2.978387
v -52.050712 -52.001291 2.979686
v -37.820012 -61.716650 3.156737
v -36.442453 -52.001291 2.109538
v -36.442453 -64.059662 3.313967
v -36.442453 -52.001291 2.109538
v -46.159626 -54.045978 2.855492
v -52.010649 -52.010649 2.978387
v -41.537738 -57.171792 2.910042
v -36.442453 -52.001291 2.109538
v -37.820012 -61.716650 3.156737
v -36.442453 -52.001291 2.109538
v -41.537738 -57.171792 2.910042
v -46.159626 -54.045978 2.855492
v -64.564789 -48.878955 3.340167
v -61.442453 -27.001291 -0.582072
v -61.442453 -49.719841 3.130448
v -85.396706 -28.047039 2.251974
v -85.462443 -27.768431 2.213755
v -85.403235 -27.001291 2.081811
v -61.442453 -27.001291 -0.582072
v -64.564789 -48.878955 3.340167
v -85.396706 -28.047039 2.251974
v -85.403235 -27.001291 2.081811
v -61.442453 -27.001291 -0.582072
v -85.396706 -28.047039 2.251974
v -61.442453 -27.001291 -0.582072
v -52.050712 -52.001291 2.979686
v -58.988308 -50.380775 3.101637
v -52.050712 -52.001291 2.979686
v -61.442453 -27.001291 -0.582072
v -36.442453 -52.001291 2.109538
v -58.988308 -50.380775 3.101637
v -61.442453 -49.719841 3.130448
v -61.442453 -27.001291 -0.582072
v -11.442453 -52.001291 -1.756132
v 13.557547 -52.001291 -1.705452
v 13.557547 -77.001291 2.261678
v -36.442453 -27.001291 -3.103812
v -11.442453 -27.001291 -5.496482
v -11.442453 -52.001291 -1.756132
v -11.442453 -27.001291 -5.496482
v 13.557547 -27.001291 -6.082452
v 13.557547 -52.001291 -1.705452
v -11.442453 -27.001291 -5.496482
v 13.557547 -52.001291 -1.705452
v -11.442453 -52.001291 -1.756132
v -48.942453 -14.501291 -3.551282
v -36.442453 -14.501291 -5.239592
v -36.442453 -27.001291 -3.103812
v -61.442453 -2.001291 -1.447512
v -48.942453 -2.001291 -3.434322
v -48.942453 -14.501291 -3.551282
v -48.942453 -2.001291 -3.434322
v -36.442453 -2.001291 -5.408092
v -36.442453 -14.501291 -5.239592
v -48.942453 -2.001291 -3.434322
v -36.442453 -14.501291 -5.239592
v -48.942453 -14.501291 -3.551282
v -73.661092 11.666771 -0.361957
v -61.442453 -2.001291 -1.447512
v -73.905982 10.462237 -0.360199
v -73.249618 17.585677 -0.312224
v -73.150724 22.998709 -0.246293
v -61.442453 22.998709 -1.109342
v -61.442453 22.998709 -1.109342
v -61.442453 -2.001291 -1.447512
v -73.661092 11.666771 -0.361957
v -73.661092 11.666771 -0.361957
v -73.249618 17.585677 -0.312224
v -61.442453 22.998709 -1.109342
v -61.442453 22.998709 -1.109342
v -36.442453 22.998709 -4.851492
v -36.442453 -2.001291 -5.408092
v -61.442453 22.998709 -1.109342
v -36.442453 -2.001291 -5.408092
v -48.942453 -2.001291 -3.434322
v -48.942453 -2.001291 -3.434322
v -61.442453 -2.001291 -1.447512
v -61.442453 22.998709 -1.109342
v -11.442453 -2.001291 -8.180422
v 13.557547 -2.001291 -8.581812
v 13.557547 -27.001291 -6.082452
v -36.442453 22.998709 -4.851492
v -11.442453 22.998709 -7.380992
v -11.442453 -2.001291 -8.180422
v -11.442453 22.998709 -7.380992
v 13.557547 22.998709 -7.800752
v 13.557547 -2.001291 -8.581812
v -11.442453 22.998709 -7.380992
v 13.557547 -2.001291 -8.581812
v -11.442453 -2.001291 -8.180422
v -36.442453 -14.501291 -5.239592
v -36.442453 -2.001291 -5.408092
v -11.442453 -27.001291 -5.496482
v -11.442453 -27.001291 -5.496482
v -36.442453 -27.001291 -3.103812
v -36.442453 -14.501291 -5.239592
v -36.442453 22.998709 -4.851492
v -11.442453 -2.001291 -8.180422
v -36.442453 -2.001291 -5.408092
v -11.442453 -2.001291 -8.180422
v 13.557547 -27.001291 -6.082452
v -11.442453 -27.001291 -5.496482
v -11.442453 -2.001291 -8.180422
v -11.442453 -27.001291 -5.496482
v -36.442453 -2.001291 -5.408092
v 13.557547 -77.001291 2.261678
v 6.658872 -84.608992 3.521381
v 6.493467 -84.680308 3.538889
v 13.557547 -77.001291 2.261678
v 13.557547 -80.487396 2.660072
v 12.823477 -80.964246 2.756097
v 12.823477 -80.964246 2.756097
v 6.658872 -84.608992 3.521381
v 13.557547 -77.001291 2.261678
v -11.442453 -77.001291 2.549848
v -13.952488 -88.092544 4.305922
v -17.045196 -86.663472 4.119034
v -11.442453 -77.001291 2.549848
v 0.000000 -87.480000 4.049708
v -6.990930 -88.828184 4.340232
v -11.442453 -77.001291 2.549848
v 13.557547 -77.001291 2.261678
v 6.493467 -84.680308 3.538889
v -6.990930 -88.828184 4.340232
v -13.952488 -88.092544 4.305922
v -11.442453 -77.001291 2.549848
v 6.493467 -84.680308 3.538889
v 0.000000 -87.480000 4.049708
v -11.442453 -77.001291 2.549848
v -11.442453 -77.001291 2.549848
v -20.430509 -85.099194 4.218125
v -26.042877 -80.151732 4.112390
v -20.430509 -85.099194 4.218125
v -11.442453 -77.001291 2.549848
v -17.045196 -86.663472 4.119034
v -26.042877 -80.151732 4.112390
v -28.388441 -77.001291 3.944008
v -11.442453 -77.001291 2.549848
v 38.557547 72.998709 -1.765332
v 31.353223 75.693377 -1.533320
v 36.815575 76.482653 -1.663526
v 24.017877 73.919423 -1.369989
v 38.557547 72.998709 -1.765332
v 19.933716 72.998709 -1.277969
v 38.557547 72.998709 -1.765332
v 24.017877 73.919423 -1.369989
v 31.353223 75.693377 -1.533320
v 38.557547 72.998709 -1.765332
v 53.683473 73.888961 -1.589624
v 54.689631 72.998709 -1.610245
v 38.557547 72.998709 -1.765332
v 39.141069 76.818672 -1.629736
v 46.824756 76.411057 -1.569738
v 39.141069 76.818672 -1.629736
v 38.557547 72.998709 -1.765332
v 36.815575 76.482653 -1.663526
v 46.824756 76.411057 -1.569738
v 53.683473 73.888961 -1.589624
v 38.557547 72.998709 -1.765332
v 63.557547 47.998709 -2.044832
v 64.491421 47.531772 -2.055681
v 64.517877 46.874981 -2.069892
v 64.323658 39.417588 -2.230843
v 63.557547 22.998709 -2.584932
v 63.557547 47.998709 -2.044832
v 63.557547 22.998709 -2.584932
v 65.846325 27.274441 -2.494425
v 68.217049 22.998709 -2.588730
v 64.517877 46.874981 -2.069892
v 64.323658 39.417588 -2.230843
v 63.557547 47.998709 -2.044832
v 63.557547 22.998709 -2.584932
v 64.524741 32.876998 -2.372310
v 65.846325 27.274441 -2.494425
v 64.524741 32.876998 -2.372310
v 63.557547 22.998709 -2.584932
v 64.323658 39.417588 -2.230843
v 63.557547 47.998709 -2.044832
v 64.197458 54.829809 -1.903570
v 64.491421 47.531772 -2.055681
v 64.197458 54.829809 -1.903570
v 63.557547 47.998709 -2.044832
v 63.557547 57.807975 -1.840862
v 13.557547 47.998709 -4.409492
v 13.557547 72.097925 -1.229957
v 13.989510 72.134783 -1.242576
v 13.989510 72.134783 -1.242576
v 26.057547 47.998709 -4.915372
v 13.557547 47.998709 -4.409492
v 14.387512 72.168743 -1.223962
v 26.057547 47.998709 -4.915372
v 13.989510 72.134783 -1.242576
v 26.057547 47.998709 -4.915372
v 14.387512 72.168743 -1.223962
v 38.557547 47.998709 -4.510352
v 63.557547 22.998709 -2.584932
v 38.557547 22.998709 -5.306922
v 38.557547 35.498709 -5.213952
v 38.557547 35.498709 -5.213952
v 38.557547 47.998709 -4.510352
v 63.557547 22.998709 -2.584932
v 26.057547 35.498709 -6.392742
v 13.557547 35.498709 -6.338952
v 13.557547 47.998709 -4.409492
v 38.557547 22.998709 -5.306922
v 26.057547 22.998709 -7.066072
v 26.057547 35.498709 -6.392742
v 26.057547 22.998709 -7.066072
v 13.557547 22.998709 -7.800752
v 13.557547 35.498709 -6.338952
v 26.057547 22.998709 -7.066072
v 13.557547 35.498709 -6.338952
v 26.057547 35.498709 -6.392742
v 38.557547 35.498709 -5.213952
v 26.057547 47.998709 -4.915372
v 38.557547 47.998709 -4.510352
v 38.557547 22.998709 -5.306922
v 26.057547 35.498709 -6.392742
v 38.557547 35.498709 -5.213952
v 26.057547 35.498709 -6.392742
v 13.557547 47.998709 -4.409492
v 26.057547 47.998709 -4.915372
v 26.057547 35.498709 -6.392742
v 26.057547 47.998709 -4.915372
v 38.557547 35.498709 -5.213952
v 59.050958 69.139789 -1.648557
v 62.540649 62.540649 -1.752229
v 38.557547 72.998709 -1.765332
v 38.557547 72.998709 -1.765332
v 54.689631 72.998709 -1.610245
v 59.050958 69.139789 -1.648557
v 63.557547 57.807975 -1.840862
v 63.557547 47.998709 -2.044832
v 38.557547 72.998709 -1.765332
v 62.540649 62.540649 -1.752229
v 63.557547 57.807975 -1.840862
v 38.557547 72.998709 -1.765332
v 63.557547 22.998709 -2.584932
v 38.557547 47.998709 -4.510352
v 63.557547 47.998709 -2.044832
v 38.557547 47.998709 -4.510352
v 19.933716 72.998709 -1.277969
v 38.557547 72.998709 -1.765332
v 17.387640 72.424733 -1.274364
v 38.557547 47.998709 -4.510352
v 14.387512 72.168743 -1.223962
v 38.557547 47.998709 -4.510352
v 17.387640 72.424733 -1.274364
v 19.933716 72.998709 -1.277969
v 38.557547 47.998709 -4.510352
v 38.557547 72.998709 -1.765332
v 63.557547 47.998709 -2.044832
v 38.557547 -2.001291 -7.204322
v 13.557547 -2.001291 -8.581812
v 13.557547 22.998709 -7.800752
v 63.557547 -27.001291 -3.017312
v 38.557547 -27.001291 -4.766332
v 38.557547 -2.001291 -7.204322
v 38.557547 -27.001291 -4.766332
v 13.557547 -27.001291 -6.082452
v 13.557547 -2.001291 -8.581812
v 38.557547 -27.001291 -4.766332
v 13.557547 -2.001291 -8.581812
v 38.557547 -2.001291 -7.204322
v 63.557547 -27.001291 -3.017312
v 64.517877 -46.874981 -1.068579
v 63.557547 -47.986019 -0.941243
v 63.557547 -27.001291 -3.017312
v 73.095573 -36.539317 -2.246701
v 72.690018 -37.037414 -2.190066
v 63.557547 -27.001291 -3.017312
v 68.552392 -42.008960 -1.623168
v 64.517877 -46.874981 -1.068579
v 72.690018 -37.037414 -2.190066
v 68.552392 -42.008960 -1.623168
v 63.557547 -27.001291 -3.017312
v 38.557547 -52.001291 -1.028402
v 13.557547 -52.001291 -1.705452
v 13.557547 -27.001291 -6.082452
v 38.557547 -52.001291 -1.028402
v 40.568630 -66.201988 0.496038
v 38.557547 -67.084237 0.674185
v 38.557547 -52.001291 -1.028402
v 48.430765 -61.874509 -0.299569
v 46.065776 -63.404101 -0.034524
v 46.065776 -63.404101 -0.034524
v 40.568630 -66.201988 0.496038
v 38.557547 -52.001291 -1.028402
v 29.455275 -71.111325 1.029397
v 13.557547 -52.001291 -1.705452
v 31.678565 -70.122309 0.830831
v 24.017877 -73.919423 1.576797
v 18.949939 -77.001291 2.160724
v 13.557547 -77.001291 2.261678
v 24.017877 -73.919423 1.576797
v 13.557547 -52.001291 -1.705452
v 29.455275 -71.111325 1.029397
v 13.557547 -77.001291 2.261678
v 13.557547 -52.001291 -1.705452
v 24.017877 -73.919423 1.576797
v 34.980652 -68.653396 0.754445
v 38.557547 -52.001291 -1.028402
v 38.557547 -67.084237 0.674185
v 38.557547 -52.001291 -1.028402
v 31.678565 -70.122309 0.830831
v 13.557547 -52.001291 -1.705452
v 31.678565 -70.122309 0.830831
v 38.557547 -52.001291 -1.028402
v 34.980652 -68.653396 0.754445
v 38.557547 -27.001291 -4.766332
v 63.557547 -27.001291 -3.017312
v 63.557547 -47.986019 -0.941243
v 63.557547 -47.986019 -0.941243
v 61.695983 -50.139727 -0.858408
v 38.557547 -27.001291 -4.766332
v 38.557547 -52.001291 -1.028402
v 56.060649 -56.060649 -0.468257
v 51.274806 -60.035084 -0.344607
v 56.060649 -56.060649 -0.468257
v 38.557547 -52.001291 -1.028402
v 60.041305 -52.001291 -0.612133
v 51.274806 -60.035084 -0.344607
v 48.430765 -61.874509 -0.299569
v 38.557547 -52.001291 -1.028402
v 38.557547 -52.001291 -1.028402
v 13.557547 -27.001291 -6.082452
v 38.557547 -27.001291 -4.766332
v 38.557547 -52.001291 -1.028402
v 60.426166 -51.608821 -0.663357
v 60.041305 -52.001291 -0.612133
v 38.557547 -52.001291 -1.028402
v 38.557547 -27.001291 -4.766332
v 61.695983 -50.139727 -0.858408
v 61.695983 -50.139727 -0.858408
v 60.426166 -51.608821 -0.663357
v 38.557547 -52.001291 -1.028402
v 63.557547 -27.001291 -3.017312
v 76.908377 -31.856493 -2.310613
v 73.095573 -36.539317 -2.246701
v 76.908377 -31.856493 -2.310613
v 63.557547 -27.001291 -3.017312
v 80.424493 -27.001291 -2.393053
v 38.557547 -2.001291 -7.204322
v 63.557547 -2.001291 -4.744632
v 63.557547 -27.001291 -3.017312
v 26.057547 22.998709 -7.066072
v 38.557547 22.998709 -5.306922
v 38.557547 -2.001291 -7.204322
v 38.557547 -2.001291 -7.204322
v 13.557547 22.998709 -7.800752
v 26.057547 22.998709 -7.066072
v 38.557547 22.998709 -5.306922
v 63.557547 22.998709 -2.584932
v 63.557547 -2.001291 -4.744632
v 38.557547 22.998709 -5.306922
v 63.557547 -2.001291 -4.744632
v 38.557547 -2.001291 -7.204322
v 83.433515 3.122740 -2.811319
v 77.293141 12.242031 -2.709879
v 81.720707 6.431559 -2.774933
v 68.608713 22.292322 -2.596520
v 63.557547 22.998709 -2.584932
v 68.217049 22.998709 -2.588730
v 63.557547 22.998709 -2.584932
v 77.293141 12.242031 -2.709879
v 83.433515 3.122740 -2.811319
v 72.631659 17.437318 -2.651140
v 63.557547 22.998709 -2.584932
v 68.608713 22.292322 -2.596520
v 63.557547 22.998709 -2.584932
v 72.631659 17.437318 -2.651140
v 77.293141 12.242031 -2.709879
v 80.934405 -26.297182 -2.422829
v 80.424493 -27.001291 -2.393053
v 63.557547 -27.001291 -3.017312
v 63.557547 -27.001291 -3.017312
v 83.391593 -21.835337 -2.640168
v 80.934405 -26.297182 -2.422829
v 63.557547 -27.001291 -3.017312
v 63.557547 -2.001291 -4.744632
v 83.391593 -21.835337 -2.640168
v 85.050000 -0.000000 -2.959853
v 85.523864 -2.001291 -3.097202
v 63.557547 -2.001291 -4.744632
v 63.557547 -2.001291 -4.744632
v 83.433515 3.122740 -2.811319
v 85.050000 -0.000000 -2.959853
v 63.557547 -2.001291 -4.744632
v 63.557547 22.998709 -2.584932
v 83.433515 3.122740 -2.811319
v 63.557547 -2.001291 -4.744632
v 84.274309 -20.232472 -2.623824
v 83.391593 -21.835337 -2.640168
v 63.557547 -2.001291 -4.744632
v 86.664996 -6.820683 -2.861709
v 86.344419 -13.675613 -2.672525
v 86.664996 -6.820683 -2.861709
v 63.557547 -2.001291 -4.744632
v 85.523864 -2.001291 -3.097202
v 86.344419 -13.675613 -2.672525
v 84.274309 -20.232472 -2.623824
v 63.557547 -2.001291 -4.744632
v 13.557547 -80.487396 2.660072
v 13.557547 -77.001291 2.261678
v 14.763054 -79.704301 2.500268
v 18.545430 -77.247277 2.192063
v 13.557547 -77.001291 2.261678
v 18.949939 -77.001291 2.160724
v 13.557547 -77.001291 2.261678
v 18.545430 -77.247277 2.192063
v 14.763054 -79.704301 2.500268
vt 0.305485 0.122703
vt 0.317788 0.135006
vt 0.287473 0.135006
vt 0.442788 0.260006
vt 0.317788 0.260006
vt 0.317788 0.135006
vt 0.567788 0.385006
vt 0.442788 0.385006
vt 0.442788 0.260006
vt 0.442788 0.385006
vt 0.317788 0.385006
vt 0.317788 0.260006
vt 0.442788 0.385006
vt 0.317788 0.260006
vt 0.442788 0.260006
vt 0.192788 0.260006
vt 0.167286 0.258269
vt 0.177232 0.244451
vt 0.167286 0.258269
vt 0.192788 0.260006
vt 0.166363 0.260006
vt 0.317788 0.385006
vt 0.192788 0.385006
vt 0.192788 0.260006
vt 0.192788 0.385006
vt 0.136199 0.349309
vt 0.139292 0.331511
vt 0.192788 0.385006
vt 0.134246 0.385006
vt 0.134316 0.381182
vt 0.134316 0.381182
vt 0.136199 0.349309
vt 0.192788 0.385006
vt 0.152123 0.286821
vt 0.166363 0.260006
vt 0.192788 0.260006
vt 0.192788 0.260006
vt 0.141735 0.317455
vt 0.152123 0.286821
vt 0.141735 0.317455
vt 0.192788 0.385006
vt 0.139292 0.331511
vt 0.192788 0.260006
vt 0.192788 0.385006
vt 0.141735 0.317455
vt 0.279619 0.140371
vt 0.287473 0.135006
vt 0.317788 0.135006
vt 0.317788 0.260006
vt 0.254223 0.161717
vt 0.279619 0.140371
vt 0.254223 0.161717
vt 0.317788 0.260006
vt 0.236347 0.178566
vt 0.279619 0.140371
vt 0.317788 0.135006
vt 0.317788 0.260006
vt 0.317788 0.385006
vt 0.192788 0.260006
vt 0.317788 0.260006
vt 0.192788 0.260006
vt 0.186202 0.231991
vt 0.192788 0.224449
vt 0.186202 0.231991
vt 0.192788 0.260006
vt 0.177232 0.244451
vt 0.230321 0.184247
vt 0.236347 0.178566
vt 0.317788 0.260006
vt 0.317788 0.260006
vt 0.207547 0.207547
vt 0.230321 0.184247
vt 0.207547 0.207547
vt 0.192788 0.260006
vt 0.192788 0.224449
vt 0.317788 0.260006
vt 0.192788 0.260006
vt 0.207547 0.207547
vt 0.442788 0.260006
vt 0.556949 0.140435
vt 0.562864 0.139931
vt 0.442788 0.260006
vt 0.317788 0.135006
vt 0.523547 0.135006
vt 0.528597 0.136638
vt 0.556949 0.140435
vt 0.442788 0.260006
vt 0.523547 0.135006
vt 0.528597 0.136638
vt 0.442788 0.260006
vt 0.567788 0.322506
vt 0.567788 0.385006
vt 0.442788 0.260006
vt 0.567788 0.260006
vt 0.562864 0.139931
vt 0.567788 0.139510
vt 0.562864 0.139931
vt 0.567788 0.260006
vt 0.442788 0.260006
vt 0.567788 0.322506
vt 0.442788 0.260006
vt 0.567788 0.260006
vt 0.317788 0.135006
vt 0.307171 0.121552
vt 0.317788 0.116500
vt 0.307171 0.121552
vt 0.317788 0.135006
vt 0.305485 0.122703
vt 0.317788 0.135006
vt 0.500000 0.127400
vt 0.523547 0.135006
vt 0.403636 0.098617
vt 0.437405 0.104794
vt 0.317788 0.135006
vt 0.317788 0.135006
vt 0.369786 0.099241
vt 0.403636 0.098617
vt 0.317788 0.135006
vt 0.317788 0.116500
vt 0.337303 0.107214
vt 0.469742 0.115542
vt 0.500000 0.127400
vt 0.317788 0.135006
vt 0.437405 0.104794
vt 0.469742 0.115542
vt 0.317788 0.135006
vt 0.337303 0.107214
vt 0.369786 0.099241
vt 0.317788 0.135006
vt 0.192788 0.635006
vt 0.073418 0.629376
vt 0.192788 0.510006
vt 0.073418 0.629376
vt 0.192788 0.635006
vt 0.072984 0.635006
vt 0.255288 0.572506
vt 0.317788 0.635006
vt 0.192788 0.635006
vt 0.075539 0.601904
vt 0.086438 0.565502
vt 0.192788 0.510006
vt 0.192788 0.510006
vt 0.073418 0.629376
vt 0.075539 0.601904
vt 0.192788 0.510006
vt 0.125822 0.470552
vt 0.130470 0.447689
vt 0.086438 0.565502
vt 0.101100 0.531394
vt 0.192788 0.510006
vt 0.115250 0.500000
vt 0.125822 0.470552
vt 0.192788 0.510006
vt 0.101100 0.531394
vt 0.115250 0.500000
vt 0.192788 0.510006
vt 0.192788 0.510006
vt 0.255288 0.572506
vt 0.192788 0.635006
vt 0.442788 0.760006
vt 0.317788 0.760006
vt 0.317788 0.635006
vt 0.567788 0.885006
vt 0.442788 0.885006
vt 0.442788 0.760006
vt 0.327973 0.837622
vt 0.317788 0.820298
vt 0.317788 0.760006
vt 0.442788 0.885006
vt 0.358058 0.885006
vt 0.346793 0.869876
vt 0.317788 0.760006
vt 0.442788 0.885006
vt 0.327973 0.837622
vt 0.346793 0.869876
vt 0.327973 0.837622
vt 0.442788 0.885006
vt 0.442788 0.885006
vt 0.317788 0.760006
vt 0.442788 0.760006
vt 0.073016 0.640235
vt 0.100908 0.703347
vt 0.080889 0.673601
vt 0.073016 0.640235
vt 0.167286 0.741731
vt 0.130980 0.726136
vt 0.167286 0.741731
vt 0.073016 0.640235
vt 0.177176 0.744395
vt 0.130980 0.726136
vt 0.100908 0.703347
vt 0.073016 0.640235
vt 0.317788 0.760006
vt 0.192788 0.635006
vt 0.317788 0.635006
vt 0.317788 0.760006
vt 0.239947 0.760053
vt 0.239746 0.760006
vt 0.310900 0.808583
vt 0.317788 0.760006
vt 0.317788 0.820298
vt 0.317788 0.760006
vt 0.269202 0.770230
vt 0.239947 0.760053
vt 0.292311 0.785859
vt 0.317788 0.760006
vt 0.310900 0.808583
vt 0.317788 0.760006
vt 0.292311 0.785859
vt 0.269202 0.770230
vt 0.177176 0.744395
vt 0.192788 0.635006
vt 0.192788 0.748599
vt 0.073016 0.640235
vt 0.072688 0.638842
vt 0.072984 0.635006
vt 0.192788 0.635006
vt 0.177176 0.744395
vt 0.073016 0.640235
vt 0.072984 0.635006
vt 0.192788 0.635006
vt 0.073016 0.640235
vt 0.192788 0.635006
vt 0.239746 0.760006
vt 0.205058 0.751904
vt 0.239746 0.760006
vt 0.192788 0.635006
vt 0.317788 0.760006
vt 0.205058 0.751904
vt 0.192788 0.748599
vt 0.192788 0.635006
vt 0.442788 0.760006
vt 0.567788 0.760006
vt 0.567788 0.885006
vt 0.317788 0.635006
vt 0.442788 0.635006
vt 0.442788 0.760006
vt 0.442788 0.635006
vt 0.567788 0.635006
vt 0.567788 0.760006
vt 0.442788 0.635006
vt 0.567788 0.760006
vt 0.442788 0.760006
vt 0.255288 0.572506
vt 0.317788 0.572506
vt 0.317788 0.635006
vt 0.192788 0.510006
vt 0.255288 0.510006
vt 0.255288 0.572506
vt 0.255288 0.510006
vt 0.317788 0.510006
vt 0.317788 0.572506
vt 0.255288 0.510006
vt 0.317788 0.572506
vt 0.255288 0.572506
vt 0.131695 0.441666
vt 0.192788 0.510006
vt 0.130470 0.447689
vt 0.133752 0.412072
vt 0.134246 0.385006
vt 0.192788 0.385006
vt 0.192788 0.385006
vt 0.192788 0.510006
vt 0.131695 0.441666
vt 0.131695 0.441666
vt 0.133752 0.412072
vt 0.192788 0.385006
vt 0.192788 0.385006
vt 0.317788 0.385006
vt 0.317788 0.510006
vt 0.192788 0.385006
vt 0.317788 0.510006
vt 0.255288 0.510006
vt 0.255288 0.510006
vt 0.192788 0.510006
vt 0.192788 0.385006
vt 0.442788 0.510006
vt 0.567788 0.510006
vt 0.567788 0.635006
vt 0.317788 0.385006
vt 0.442788 0.385006
vt 0.442788 0.510006
vt 0.442788 0.385006
vt 0.567788 0.385006
vt 0.567788 0.510006
vt 0.442788 0.385006
vt 0.567788 0.510006
vt 0.442788 0.510006
vt 0.317788 0.572506
vt 0.317788 0.510006
vt 0.442788 0.635006
vt 0.442788 0.635006
vt 0.317788 0.635006
vt 0.317788 0.572506
vt 0.317788 0.385006
vt 0.442788 0.510006
vt 0.317788 0.510006
vt 0.442788 0.510006
vt 0.567788 0.635006
vt 0.442788 0.635006
vt 0.442788 0.510006
vt 0.442788 0.635006
vt 0.317788 0.510006
vt 0.567788 0.885006
vt 0.533294 0.923045
vt 0.532467 0.923402
vt 0.567788 0.885006
vt 0.567788 0.902437
vt 0.564117 0.904821
vt 0.564117 0.904821
vt 0.533294 0.923045
vt 0.567788 0.885006
vt 0.442788 0.885006
vt 0.430238 0.940463
vt 0.414774 0.933317
vt 0.442788 0.885006
vt 0.500000 0.937400
vt 0.465045 0.944141
vt 0.442788 0.885006
vt 0.567788 0.885006
vt 0.532467 0.923402
vt 0.465045 0.944141
vt 0.430238 0.940463
vt 0.442788 0.885006
vt 0.532467 0.923402
vt 0.500000 0.937400
vt 0.442788 0.885006
vt 0.442788 0.885006
vt 0.397847 0.925496
vt 0.369786 0.900759
vt 0.397847 0.925496
vt 0.442788 0.885006
vt 0.414774 0.933317
vt 0.369786 0.900759
vt 0.358058 0.885006
vt 0.442788 0.885006
vt 0.692788 0.135006
vt 0.656766 0.121533
vt 0.684078 0.117587
vt 0.620089 0.130403
vt 0.692788 0.135006
vt 0.599669 0.135006
vt 0.692788 0.135006
vt 0.620089 0.130403
vt 0.656766 0.121533
vt 0.692788 0.135006
vt 0.768417 0.130555
vt 0.773448 0.135006
vt 0.692788 0.135006
vt 0.695705 0.115907
vt 0.734124 0.117945
vt 0.695705 0.115907
vt 0.692788 0.135006
vt 0.684078 0.117587
vt 0.734124 0.117945
vt 0.768417 0.130555
vt 0.692788 0.135006
vt 0.817788 0.260006
vt 0.822457 0.262341
vt 0.822589 0.265625
vt 0.821618 0.302912
vt 0.817788 0.385006
vt 0.817788 0.260006
vt 0.817788 0.385006
vt 0.829232 0.363628
vt 0.841085 0.385006
vt 0.822589 0.265625
vt 0.821618 0.302912
vt 0.817788 0.260006
vt 0.817788 0.385006
vt 0.822624 0.335615
vt 0.829232 0.363628
vt 0.822624 0.335615
vt 0.817788 0.385006
vt 0.821618 0.302912
vt 0.817788 0.260006
vt 0.820987 0.225851
vt 0.822457 0.262341
vt 0.820987 0.225851
vt 0.817788 0.260006
vt 0.817788 0.210960
vt 0.567788 0.260006
vt 0.567788 0.139510
vt 0.569948 0.139326
vt 0.569948 0.139326
vt 0.630288 0.260006
vt 0.567788 0.260006
vt 0.571938 0.139156
vt 0.630288 0.260006
vt 0.569948 0.139326
vt 0.630288 0.260006
vt 0.571938 0.139156
vt 0.692788 0.260006
vt 0.817788 0.385006
vt 0.692788 0.385006
vt 0.692788 0.322506
vt 0.692788 0.322506
vt 0.692788 0.260006
vt 0.817788 0.385006
vt 0.630288 0.322506
vt 0.567788 0.322506
vt 0.567788 0.260006
vt 0.692788 0.385006
vt 0.630288 0.385006
vt 0.630288 0.322506
vt 0.630288 0.385006
vt 0.567788 0.385006
vt 0.567788 0.322506
vt 0.630288 0.385006
vt 0.567788 0.322506
vt 0.630288 0.322506
vt 0.692788 0.322506
vt 0.630288 0.260006
vt 0.692788 0.260006
vt 0.692788 0.385006
vt 0.630288 0.322506
vt 0.692788 0.322506
vt 0.630288 0.322506
vt 0.567788 0.260006
vt 0.630288 0.260006
vt 0.630288 0.322506
vt 0.630288 0.260006
vt 0.692788 0.322506
vt 0.795255 0.154301
vt 0.812703 0.187297
vt 0.692788 0.135006
vt 0.692788 0.135006
vt 0.773448 0.135006
vt 0.795255 0.154301
vt 0.817788 0.210960
vt 0.817788 0.260006
vt 0.692788 0.135006
vt 0.812703 0.187297
vt 0.817788 0.210960
vt 0.692788 0.135006
vt 0.817788 0.385006
vt 0.692788 0.260006
vt 0.817788 0.260006
vt 0.692788 0.260006
vt 0.599669 0.135006
vt 0.692788 0.135006
vt 0.586938 0.137876
vt 0.692788 0.260006
vt 0.571938 0.139156
vt 0.692788 0.260006
vt 0.586938 0.137876
vt 0.599669 0.135006
vt 0.692788 0.260006
vt 0.692788 0.135006
vt 0.817788 0.260006
vt 0.692788 0.510006
vt 0.567788 0.510006
vt 0.567788 0.385006
vt 0.817788 0.635006
vt 0.692788 0.635006
vt 0.692788 0.510006
vt 0.692788 0.635006
vt 0.567788 0.635006
vt 0.567788 0.510006
vt 0.692788 0.635006
vt 0.567788 0.510006
vt 0.692788 0.510006
vt 0.817788 0.635006
vt 0.822589 0.734375
vt 0.817788 0.739930
vt 0.817788 0.635006
vt 0.865478 0.682697
vt 0.863450 0.685187
vt 0.817788 0.635006
vt 0.842762 0.710045
vt 0.822589 0.734375
vt 0.863450 0.685187
vt 0.842762 0.710045
vt 0.817788 0.635006
vt 0.692788 0.760006
vt 0.567788 0.760006
vt 0.567788 0.635006
vt 0.692788 0.760006
vt 0.702843 0.831010
vt 0.692788 0.835421
vt 0.692788 0.760006
vt 0.742154 0.809373
vt 0.730329 0.817021
vt 0.730329 0.817021
vt 0.702843 0.831010
vt 0.692788 0.760006
vt 0.647276 0.855557
vt 0.567788 0.760006
vt 0.658393 0.850612
vt 0.620089 0.869597
vt 0.594750 0.885006
vt 0.567788 0.885006
vt 0.620089 0.869597
vt 0.567788 0.760006
vt 0.647276 0.855557
vt 0.567788 0.885006
vt 0.567788 0.760006
vt 0.620089 0.869597
vt 0.674903 0.843267
vt 0.692788 0.760006
vt 0.692788 0.835421
vt 0.692788 0.760006
vt 0.658393 0.850612
vt 0.567788 0.760006
vt 0.658393 0.850612
vt 0.692788 0.760006
vt 0.674903 0.843267
vt 0.692788 0.635006
vt 0.817788 0.635006
vt 0.817788 0.739930
vt 0.817788 0.739930
vt 0.808480 0.750699
vt 0.692788 0.635006
vt 0.692788 0.760006
vt 0.780303 0.780303
vt 0.756374 0.800175
vt 0.780303 0.780303
vt 0.692788 0.760006
vt 0.800207 0.760006
vt 0.756374 0.800175
vt 0.742154 0.809373
vt 0.692788 0.760006
vt 0.692788 0.760006
vt 0.567788 0.635006
vt 0.692788 0.635006
vt 0.692788 0.760006
vt 0.802131 0.758044
vt 0.800207 0.760006
vt 0.692788 0.760006
vt 0.692788 0.635006
vt 0.808480 0.750699
vt 0.808480 0.750699
vt 0.802131 0.758044
vt 0.692788 0.760006
vt 0.817788 0.635006
vt 0.884542 0.659282
vt 0.865478 0.682697
vt 0.884542 0.659282
vt 0.817788 0.635006
vt 0.902122 0.635006
vt 0.692788 0.510006
vt 0.817788 0.510006
vt 0.817788 0.635006
vt 0.630288 0.385006
vt 0.692788 0.385006
vt 0.692788 0.510006
vt 0.692788 0.510006
vt 0.567788 0.385006
vt 0.630288 0.385006
vt 0.692788 0.385006
vt 0.817788 0.385006
vt 0.817788 0.510006
vt 0.692788 0.385006
vt 0.817788 0.510006
vt 0.692788 0.510006
vt 0.917168 0.484386
vt 0.886466 0.438790
vt 0.908604 0.467842
vt 0.843044 0.388538
vt 0.817788 0.385006
vt 0.841085 0.385006
vt 0.817788 0.385006
vt 0.886466 0.438790
vt 0.917168 0.484386
vt 0.863158 0.412813
vt 0.817788 0.385006
vt 0.843044 0.388538
vt 0.817788 0.385006
vt 0.863158 0.412813
vt 0.886466 0.438790
vt 0.904672 0.631486
vt 0.902122 0.635006
vt 0.817788 0.635006
vt 0.817788 0.635006
vt 0.916958 0.609177
vt 0.904672 0.631486
vt 0.817788 0.635006
vt 0.817788 0.510006
vt 0.916958 0.609177
vt 0.925250 0.500000
vt 0.927619 0.510006
vt 0.817788 0.510006
vt 0.817788 0.510006
vt 0.917168 0.484386
vt 0.925250 0.500000
vt 0.817788 0.510006
vt 0.817788 0.385006
vt 0.917168 0.484386
vt 0.817788 0.510006
vt 0.921372 0.601162
vt 0.916958 0.609177
vt 0.817788 0.510006
vt 0.933325 0.534103
vt 0.931722 0.568378
vt 0.933325 0.534103
vt 0.817788 0.510006
vt 0.927619 0.510006
vt 0.931722 0.568378
vt 0.921372 0.601162
vt 0.817788 0.510006
vt 0.567788 0.902437
vt 0.567788 0.885006
vt 0.573815 0.898522
vt 0.592727 0.886236
vt 0.567788 0.885006
vt 0.594750 0.885006
vt 0.567788 0.885006
vt 0.592727 0.886236
vt 0.573815 0.898522
vn 0 0 1
f 3/3/1 2/2/1 1/1/1
f 6/6/1 5/5/1 4/4/1
f 9/9/1 8/8/1 7/7/1
f 12/12/1 11/11/1 10/10/1
f 15/15/1 14/14/1 13/13/1
f 18/18/1 17/17/1 16/16/1
f 21/21/1 20/20/1 19/19/1
f 24/24/1 23/23/1 22/22/1
f 27/27/1 26/26/1 25/25/1
f 30/30/1 29/29/1 28/28/1
f 33/33/1 32/32/1 31/31/1
f 36/36/1 35/35/1 34/34/1
f 39/39/1 38/38/1 37/37/1
f 42/42/1 41/41/1 40/40/1
f 45/45/1 44/44/1 43/43/1
f 48/48/1 47/47/1 46/46/1
f 51/51/1 50/50/1 49/49/1
f 54/54/1 53/53/1 52/52/1
f 57/57/1 56/56/1 55/55/1
f 60/60/1 59/59/1 58/58/1
f 63/63/1 62/62/1 61/61/1
f 66/66/1 65/65/1 64/64/1
f 69/69/1 68/68/1 67/67/1
f 72/72/1 71/71/1 70/70/1
f 75/75/1 74/74/1 73/73/1
f 78/78/1 77/77/1 76/76/1
f 81/81/1 80/80/1 79/79/1
f 84/84/1 83/83/1 82/82/1
f 87/87/1 86/86/1 85/85/1
f 90/90/1 89/89/1 88/88/1
f 93/93/1 92/92/1 91/91/1
f 96/96/1 95/95/1 94/94/1
f 99/99/1 98/98/1 97/97/1
f 102/102/1 101/101/1 100/100/1
f 105/105/1 104/104/1 103/103/1
f 108/108/1 107/107/1 106/106/1
f 111/111/1 110/110/1 109/109/1
f 114/114/1 113/113/1 112/112/1
f 117/117/1 116/116/1 115/115/1
f 120/120/1 119/119/1 118/118/1
f 123/123/1 122/122/1 121/121/1
f 126/126/1 125/125/1 124/124/1
f 129/129/1 128/128/1 127/127/1
f 132/132/1 131/131/1 130/130/1
f 135/135/1 134/134/1 133/133/1
f 138/138/1 137/137/1 136/136/1
f 141/141/1 140/140/1 139/139/1
f 144/144/1 143/143/1 142/142/1
f 147/147/1 146/146/1 145/145/1
f 150/150/1 149/149/1 148/148/1
f 153/153/1 152/152/1 151/151/1
f 156/156/1 155/155/1 154/154/1
f 159/159/1 158/158/1 157/157/1
f 162/162/1 161/161/1 160/160/1
f 165/165/1 164/164/1 163/163/1
f 168/168/1 167/167/1 166/166/1
f 171/171/1 170/170/1 169/169/1
f 174/174/1 173/173/1 172/172/1
f 177/177/1 176/176/1 175/175/1
f 180/180/1 179/179/1 178/178/1
f 183/183/1 182/182/1 181/181/1
f 186/186/1 185/185/1 184/184/1
f 189/189/1 188/188/1 187/187/1
f 192/192/1 191/191/1 190/190/1
f 195/195/1 194/194/1 193/193/1
f 198/198/1 197/197/1 196/196/1
f 201/201/1 200/200/1 199/199/1
f 204/204/1 203/203/1 202/202/1
f 207/207/1 206/206/1 205/205/1
f 210/210/1 209/209/1 208/208/1
f 213/213/1 212/212/1 211/211/1
f 216/216/1 215/215/1 214/214/1
f 219/219/1 218/218/1 217/217/1
f 222/222/1 221/221/1 220/220/1
f 225/225/1 224/224/1 223/223/1
f 228/228/1 227/227/1 226/226/1
f 231/231/1 230/230/1 229/229/1
f 234/234/1 233/233/1 232/232/1
f 237/237/1 236/236/1 235/235/1
f 240/240/1 239/239/1 238/238/1
f 243/243/1 242/242/1 241/241/1
f 246/246/1 245/245/1 244/244/1
f 249/249/1 248/248/1 247/247/1
f 252/252/1 251/251/1 250/250/1
f 255/255/1 254/254/1 253/253/1
f 258/258/1 257/257/1 256/256/1
f 261/261/1 260/260/1 259/259/1
f 264/264/1 263/263/1 262/262/1
f 267/267/1 266/266/1 265/265/1
f 270/270/1 269/269/1 268/268/1
f 273/273/1 272/272/1 271/271/1
f 276/276/1 275/275/1 274/274/1
f 279/279/1 278/278/1 277/277/1
f 282/282/1 281/281/1 280/280/1
f 285/285/1 284/284/1 283/283/1
f 288/288/1 287/287/1 286/286/1
f 291/291/1 290/290/1 289/289/1
f 294/294/1 293/293/1 292/292/1
f 297/297/1 296/296/1 295/295/1
f 300/300/1 299/299/1 298/298/1
f 303/303/1 302/302/1 301/301/1
f 306/306/1 305/305/1 304/304/1
f 309/309/1 308/308/1 307/307/1
f 312/312/1 311/311/1 310/310/1
f 315/315/1 314/314/1 313/313/1
f 318/318/1 317/317/1 316/316/1
f 321/321/1 320/320/1 319/319/1
f 324/324/1 323/323/1 322/322/1
f 327/327/1 326/326/1 325/325/1
f 330/330/1 329/329/1 328/328/1
f 333/333/1 332/332/1 331/331/1
f 336/336/1 335/335/1 334/334/1
f 339/339/1 338/338/1 337/337/1
f 342/342/1 341/341/1 340/340/1
f 345/345/1 344/344/1 343/343/1
f 348/348/1 347/347/1 346/346/1
f 351/351/1 350/350/1 349/349/1
f 354/354/1 353/353/1 352/352/1
f 357/357/1 356/356/1 355/355/1
f 360/360/1 359/359/1 358/358/1
f 363/363/1 362/362/1 361/361/1
f 366/366/1 365/365/1 364/364/1
f 369/369/1 368/368/1 367/367/1
f 372/372/1 371/371/1 370/370/1
f 375/375/1 374/374/1 373/373/1
f 378/378/1 377/377/1 376/376/1
f 381/381/1 380/380/1 379/379/1
f 384/384/1 383/383/1 382/382/1
f 387/387/1 386/386/1 385/385/1
f 390/390/1 389/389/1 388/388/1
f 393/393/1 392/392/1 391/391/1
f 396/396/1 395/395/1 394/394/1
f 399/399/1 398/398/1 397/397/1
f 402/402/1 401/401/1 400/400/1
f 405/405/1 404/404/1 403/403/1
f 408/408/1 407/407/1 406/406/1
f 411/411/1 410/410/1 409/409/1
f 414/414/1 413/413/1 412/412/1
f 417/417/1 416/416/1 415/415/1
f 420/420/1 419/419/1 418/418/1
f 423/423/1 422/422/1 421/421/1
f 426/426/1 425/425/1 424/424/1
f 429/429/1 428/428/1 427/427/1
f 432/432/1 431/431/1 430/430/1
f 435/435/1 434/434/1 433/433/1
f 438/438/1 437/437/1 436/436/1
f 441/441/1 440/440/1 439/439/1
f 444/444/1 443/443/1 442/442/1
f 447/447/1 446/446/1 445/445/1
f 450/450/1 449/449/1 448/448/1
f 453/453/1 452/452/1 451/451/1
f 456/456/1 455/455/1 454/454/1
f 459/459/1 458/458/1 457/457/1
f 462/462/1 461/461/1 460/460/1
f 465/465/1 464/464/1 463/463/1
f 468/468/1 467/467/1 466/466/1
f 471/471/1 470/470/1 469/469/1
f 474/474/1 473/473/1 472/472/1
f 477/477/1 476/476/1 475/475/1
f 480/480/1 479/479/1 478/478/1
f 483/483/1 482/482/1 481/481/1
f 486/486/1 485/485/1 484/484/1
f 489/489/1 488/488/1 487/487/1
f 492/492/1 491/491/1 490/490/1
f 495/495/1 494/494/1 493/493/1
f 498/498/1 497/497/1 496/496/1
f 501/501/1 500/500/1 499/499/1
f 504/504/1 503/503/1 502/502/1
f 507/507/1 506/506/1 505/505/1
f 510/510/1 509/509/1 508/508/1
f 513/513/1 512/512/1 511/511/1
f 516/516/1 515/515/1 514/514/1
f 519/519/1 518/518/1 517/517/1
f 522/522/1 521/521/1 520/520/1
f 525/525/1 524/524/1 523/523/1
f 528/528/1 527/527/1 526/526/1
f 531/531/1 530/530/1 529/529/1
f 534/534/1 533/533/1 532/532/1
f 537/537/1 536/536/1 535/535/1
f 540/540/1 539/539/1 538/538/1
f 543/543/1 542/542/1 541/541/1
f 546/546/1 545/545/1 544/544/1
f 549/549/1 548/548/1 547/547/1
f 552/552/1 551/551/1 550/550/1
f 555/555/1 554/554/1 553/553/1
f 558/558/1 557/557/1 556/556/1
f 561/561/1 560/560/1 559/559/1
f 564/564/1 563/563/1 562/562/1
f 567/567/1 566/566/1 565/565/1
f 570/570/1 569/569/1 568/568/1
f 573/573/1 572/572/1 571/571/1
f 576/576/1 575/575/1 574/574/1
f 579/579/1 578/578/1 577/577/1
f 582/582/1 581/581/1 580/580/1
f 585/585/1 584/584/1 583/583/1
f 588/588/1 587/587/1 586/586/1
f 591/591/1 590/590/1 589/589/1
f 594/594/1 593/593/1 592/592/1
f 597/597/1 596/596/1 595/595/1
f 600/600/1 599/599/1 598/598/1
f 603/603/1 602/602/1 601/601/1
f 606/606/1 605/605/1 604/604/1
f 609/609/1 608/608/1 607/607/1
