# OSM contributors ODbL; authored deck elevation
o LakeBridge_Wood
v -3591.177827 -428.338042 -326.609195
v -3334.948159 -315.438276 -326.609195
v -3308.569095 -375.306414 -326.609195
v -3564.798763 -488.206180 -326.609195
v -3564.798763 -488.206180 -346.609195
v -3308.569095 -375.306414 -346.609195
v -3334.948159 -315.438276 -346.609195
v -3591.177827 -428.338042 -346.609195
v -3564.798763 -488.206180 -326.609195
v -3591.177827 -428.338042 -326.609195
v -3591.177827 -428.338042 -346.609195
v -3564.798763 -488.206180 -346.609195
v -3334.948159 -315.438276 -326.609195
v -3308.569095 -375.306414 -326.609195
v -3308.569095 -375.306414 -346.609195
v -3334.948159 -315.438276 -346.609195
v -3617.556890 -368.469905 -326.609195
v -3361.327222 -255.570139 -326.609195
v -3334.948159 -315.438276 -326.609195
v -3591.177827 -428.338042 -326.609195
v -3591.177827 -428.338042 -346.609195
v -3334.948159 -315.438276 -346.609195
v -3361.327222 -255.570139 -346.609195
v -3617.556890 -368.469905 -346.609195
v -3591.177827 -428.338042 -326.609195
v -3617.556890 -368.469905 -326.609195
v -3617.556890 -368.469905 -346.609195
v -3591.177827 -428.338042 -346.609195
v -3361.327222 -255.570139 -326.609195
v -3334.948159 -315.438276 -326.609195
v -3334.948159 -315.438276 -346.609195
v -3361.327222 -255.570139 -346.609195
v -3643.935954 -308.601768 -326.609195
v -3387.706286 -195.702002 -326.609195
v -3361.327222 -255.570139 -326.609195
v -3617.556890 -368.469905 -326.609195
v -3617.556890 -368.469905 -346.609195
v -3361.327222 -255.570139 -346.609195
v -3387.706286 -195.702002 -346.609195
v -3643.935954 -308.601768 -346.609195
v -3617.556890 -368.469905 -326.609195
v -3643.935954 -308.601768 -326.609195
v -3643.935954 -308.601768 -346.609195
v -3617.556890 -368.469905 -346.609195
v -3387.706286 -195.702002 -326.609195
v -3361.327222 -255.570139 -326.609195
v -3361.327222 -255.570139 -346.609195
v -3387.706286 -195.702002 -346.609195
vt -17.955889 2.141690
vt -16.674741 1.577191
vt -16.542845 1.876532
vt -17.823994 2.441031
vt -17.823994 2.441031
vt -16.542845 1.876532
vt -16.674741 1.577191
vt -17.955889 2.141690
vt -17.823994 2.441031
vt -17.955889 2.141690
vt -17.955889 2.141690
vt -17.823994 2.441031
vt -16.674741 1.577191
vt -16.542845 1.876532
vt -16.542845 1.876532
vt -16.674741 1.577191
vt -18.087784 1.842350
vt -16.806636 1.277851
vt -16.674741 1.577191
vt -17.955889 2.141690
vt -17.955889 2.141690
vt -16.674741 1.577191
vt -16.806636 1.277851
vt -18.087784 1.842350
vt -17.955889 2.141690
vt -18.087784 1.842350
vt -18.087784 1.842350
vt -17.955889 2.141690
vt -16.806636 1.277851
vt -16.674741 1.577191
vt -16.674741 1.577191
vt -16.806636 1.277851
vt -18.219680 1.543009
vt -16.938531 0.978510
vt -16.806636 1.277851
vt -18.087784 1.842350
vt -18.087784 1.842350
vt -16.806636 1.277851
vt -16.938531 0.978510
vt -18.219680 1.543009
vt -18.087784 1.842350
vt -18.219680 1.543009
vt -18.219680 1.543009
vt -18.087784 1.842350
vt -16.938531 0.978510
vt -16.806636 1.277851
vt -16.806636 1.277851
vt -16.938531 0.978510
f 3/3 2/2 1/1
f 4/4 3/3 1/1
f 7/7 6/6 5/5
f 8/8 7/7 5/5
f 11/11 10/10 9/9
f 12/12 11/11 9/9
f 15/15 14/14 13/13
f 16/16 15/15 13/13
f 19/19 18/18 17/17
f 20/20 19/19 17/17
f 23/23 22/22 21/21
f 24/24 23/23 21/21
f 27/27 26/26 25/25
f 28/28 27/27 25/25
f 31/31 30/30 29/29
f 32/32 31/31 29/29
f 35/35 34/34 33/33
f 36/36 35/35 33/33
f 39/39 38/38 37/37
f 40/40 39/39 37/37
f 43/43 42/42 41/41
f 44/44 43/43 41/41
f 47/47 46/46 45/45
f 48/48 47/47 45/45
