# OSM contributors ODbL; authored deck elevation
o LakeBridge_Deck
v -2636.379290 -105.383062 -341.511756
v -2784.625569 132.152284 -341.511756
v -2731.232554 165.474970 -343.180216
v -2582.986274 -72.060376 -343.180216
v -2582.986274 -72.060376 -363.180216
v -2731.232554 165.474970 -363.180216
v -2784.625569 132.152284 -361.511756
v -2636.379290 -105.383062 -361.511756
v -2582.986274 -72.060376 -343.180216
v -2636.379290 -105.383062 -341.511756
v -2636.379290 -105.383062 -361.511756
v -2582.986274 -72.060376 -363.180216
v -2784.625569 132.152284 -341.511756
v -2731.232554 165.474970 -343.180216
v -2731.232554 165.474970 -363.180216
v -2784.625569 132.152284 -361.511756
v -2689.772306 -138.705749 -339.860509
v -2838.018585 98.829597 -339.860509
v -2784.625569 132.152284 -341.511756
v -2636.379290 -105.383062 -341.511756
v -2636.379290 -105.383062 -361.511756
v -2784.625569 132.152284 -361.511756
v -2838.018585 98.829597 -359.860509
v -2689.772306 -138.705749 -359.860509
v -2636.379290 -105.383062 -341.511756
v -2689.772306 -138.705749 -339.860509
v -2689.772306 -138.705749 -359.860509
v -2636.379290 -105.383062 -361.511756
v -2838.018585 98.829597 -339.860509
v -2784.625569 132.152284 -341.511756
v -2784.625569 132.152284 -361.511756
v -2838.018585 98.829597 -359.860509
v -2743.165321 -172.028436 -338.243473
v -2891.411601 65.506910 -338.243473
v -2838.018585 98.829597 -339.860509
v -2689.772306 -138.705749 -339.860509
v -2689.772306 -138.705749 -359.860509
v -2838.018585 98.829597 -359.860509
v -2891.411601 65.506910 -358.243473
v -2743.165321 -172.028436 -358.243473
v -2689.772306 -138.705749 -339.860509
v -2743.165321 -172.028436 -338.243473
v -2743.165321 -172.028436 -358.243473
v -2689.772306 -138.705749 -359.860509
v -2891.411601 65.506910 -338.243473
v -2838.018585 98.829597 -339.860509
v -2838.018585 98.829597 -359.860509
v -2891.411601 65.506910 -358.243473
v -2796.558337 -205.351123 -336.677207
v -2944.804616 32.184223 -336.677207
v -2891.411601 65.506910 -338.243473
v -2743.165321 -172.028436 -338.243473
v -2743.165321 -172.028436 -358.243473
v -2891.411601 65.506910 -358.243473
v -2944.804616 32.184223 -356.677207
v -2796.558337 -205.351123 -356.677207
v -2743.165321 -172.028436 -338.243473
v -2796.558337 -205.351123 -336.677207
v -2796.558337 -205.351123 -356.677207
v -2743.165321 -172.028436 -358.243473
v -2944.804616 32.184223 -336.677207
v -2891.411601 65.506910 -338.243473
v -2891.411601 65.506910 -358.243473
v -2944.804616 32.184223 -356.677207
v -2849.951353 -238.673809 -335.177624
v -2998.197632 -1.138463 -335.177624
v -2944.804616 32.184223 -336.677207
v -2796.558337 -205.351123 -336.677207
v -2796.558337 -205.351123 -356.677207
v -2944.804616 32.184223 -356.677207
v -2998.197632 -1.138463 -355.177624
v -2849.951353 -238.673809 -355.177624
v -2796.558337 -205.351123 -336.677207
v -2849.951353 -238.673809 -335.177624
v -2849.951353 -238.673809 -355.177624
v -2796.558337 -205.351123 -356.677207
v -2998.197632 -1.138463 -335.177624
v -2944.804616 32.184223 -336.677207
v -2944.804616 32.184223 -356.677207
v -2998.197632 -1.138463 -355.177624
v -2903.344368 -271.996496 -333.759789
v -3051.590648 -34.461150 -333.759789
v -2998.197632 -1.138463 -335.177624
v -2849.951353 -238.673809 -335.177624
v -2849.951353 -238.673809 -355.177624
v -2998.197632 -1.138463 -355.177624
v -3051.590648 -34.461150 -353.759789
v -2903.344368 -271.996496 -353.759789
v -2849.951353 -238.673809 -335.177624
v -2903.344368 -271.996496 -333.759789
v -2903.344368 -271.996496 -353.759789
v -2849.951353 -238.673809 -355.177624
v -3051.590648 -34.461150 -333.759789
v -2998.197632 -1.138463 -335.177624
v -2998.197632 -1.138463 -355.177624
v -3051.590648 -34.461150 -353.759789
v -2956.737384 -305.319183 -332.437725
v -3104.983663 -67.783837 -332.437725
v -3051.590648 -34.461150 -333.759789
v -2903.344368 -271.996496 -333.759789
v -2903.344368 -271.996496 -353.759789
v -3051.590648 -34.461150 -353.759789
v -3104.983663 -67.783837 -352.437725
v -2956.737384 -305.319183 -352.437725
v -2903.344368 -271.996496 -333.759789
v -2956.737384 -305.319183 -332.437725
v -2956.737384 -305.319183 -352.437725
v -2903.344368 -271.996496 -353.759789
v -3104.983663 -67.783837 -332.437725
v -3051.590648 -34.461150 -333.759789
v -3051.590648 -34.461150 -353.759789
v -3104.983663 -67.783837 -352.437725
v -3010.130400 -338.641870 -331.224235
v -3158.376679 -101.106524 -331.224235
v -3104.983663 -67.783837 -332.437725
v -2956.737384 -305.319183 -332.437725
v -2956.737384 -305.319183 -352.437725
v -3104.983663 -67.783837 -352.437725
v -3158.376679 -101.106524 -351.224235
v -3010.130400 -338.641870 -351.224235
v -2956.737384 -305.319183 -332.437725
v -3010.130400 -338.641870 -331.224235
v -3010.130400 -338.641870 -351.224235
v -2956.737384 -305.319183 -352.437725
v -3158.376679 -101.106524 -331.224235
v -3104.983663 -67.783837 -332.437725
v -3104.983663 -67.783837 -352.437725
v -3158.376679 -101.106524 -351.224235
v -3063.523415 -371.964556 -330.130742
v -3211.769695 -134.429210 -330.130742
v -3158.376679 -101.106524 -331.224235
v -3010.130400 -338.641870 -331.224235
v -3010.130400 -338.641870 -351.224235
v -3158.376679 -101.106524 -351.224235
v -3211.769695 -134.429210 -350.130742
v -3063.523415 -371.964556 -350.130742
v -3010.130400 -338.641870 -331.224235
v -3063.523415 -371.964556 -330.130742
v -3063.523415 -371.964556 -350.130742
v -3010.130400 -338.641870 -351.224235
v -3211.769695 -134.429210 -330.130742
v -3158.376679 -101.106524 -331.224235
v -3158.376679 -101.106524 -351.224235
v -3211.769695 -134.429210 -350.130742
v -3116.916431 -405.287243 -329.167139
v -3265.162711 -167.751897 -329.167139
v -3211.769695 -134.429210 -330.130742
v -3063.523415 -371.964556 -330.130742
v -3063.523415 -371.964556 -350.130742
v -3211.769695 -134.429210 -350.130742
v -3265.162711 -167.751897 -349.167139
v -3116.916431 -405.287243 -349.167139
v -3063.523415 -371.964556 -330.130742
v -3116.916431 -405.287243 -329.167139
v -3116.916431 -405.287243 -349.167139
v -3063.523415 -371.964556 -350.130742
v -3265.162711 -167.751897 -329.167139
v -3211.769695 -134.429210 -330.130742
v -3211.769695 -134.429210 -350.130742
v -3265.162711 -167.751897 -349.167139
v -3170.309447 -438.609930 -328.341665
v -3318.555726 -201.074584 -328.341665
v -3265.162711 -167.751897 -329.167139
v -3116.916431 -405.287243 -329.167139
v -3116.916431 -405.287243 -349.167139
v -3265.162711 -167.751897 -349.167139
v -3318.555726 -201.074584 -348.341665
v -3170.309447 -438.609930 -348.341665
v -3116.916431 -405.287243 -329.167139
v -3170.309447 -438.609930 -328.341665
v -3170.309447 -438.609930 -348.341665
v -3116.916431 -405.287243 -349.167139
v -3318.555726 -201.074584 -328.341665
v -3265.162711 -167.751897 -329.167139
v -3265.162711 -167.751897 -349.167139
v -3318.555726 -201.074584 -348.341665
v -3226.051431 -473.366726 -327.660800
v -3369.599773 -232.963162 -327.660800
v -3318.555726 -201.074584 -328.341665
v -3170.309447 -438.609930 -328.341665
v -3170.309447 -438.609930 -348.341665
v -3318.555726 -201.074584 -348.341665
v -3369.599773 -232.963162 -347.660800
v -3226.051431 -473.366726 -347.660800
v -3170.309447 -438.609930 -328.341665
v -3226.051431 -473.366726 -327.660800
v -3226.051431 -473.366726 -347.660800
v -3170.309447 -438.609930 -348.341665
v -3369.599773 -232.963162 -327.660800
v -3318.555726 -201.074584 -328.341665
v -3318.555726 -201.074584 -348.341665
v -3369.599773 -232.963162 -347.660800
v -3275.153077 -501.200917 -327.201658
v -3413.070345 -257.523205 -327.201658
v -3369.599773 -232.963162 -327.660800
v -3226.051431 -473.366726 -327.660800
v -3226.051431 -473.366726 -347.660800
v -3369.599773 -232.963162 -347.660800
v -3413.070345 -257.523205 -347.201658
v -3275.153077 -501.200917 -347.201658
v -3226.051431 -473.366726 -327.660800
v -3275.153077 -501.200917 -327.201658
v -3275.153077 -501.200917 -347.201658
v -3226.051431 -473.366726 -347.660800
v -3413.070345 -257.523205 -327.201658
v -3369.599773 -232.963162 -327.660800
v -3369.599773 -232.963162 -347.660800
v -3413.070345 -257.523205 -347.201658
v -3321.439187 -527.398035 -326.850871
v -3459.356454 -283.720323 -326.850871
v -3413.070345 -257.523205 -327.201658
v -3275.153077 -501.200917 -327.201658
v -3275.153077 -501.200917 -347.201658
v -3413.070345 -257.523205 -347.201658
v -3459.356454 -283.720323 -346.850871
v -3321.439187 -527.398035 -346.850871
v -3275.153077 -501.200917 -327.201658
v -3321.439187 -527.398035 -326.850871
v -3321.439187 -527.398035 -346.850871
v -3275.153077 -501.200917 -347.201658
v -3459.356454 -283.720323 -326.850871
v -3413.070345 -257.523205 -327.201658
v -3413.070345 -257.523205 -347.201658
v -3459.356454 -283.720323 -346.850871
v -3374.774395 -557.323846 -326.609195
v -3498.593464 -306.188747 -326.609195
v -3459.356454 -283.720323 -326.850871
v -3321.439187 -527.398035 -326.850871
v -3321.439187 -527.398035 -346.850871
v -3459.356454 -283.720323 -346.850871
v -3498.593464 -306.188747 -346.609195
v -3374.774395 -557.323846 -346.609195
v -3321.439187 -527.398035 -326.850871
v -3374.774395 -557.323846 -326.609195
v -3374.774395 -557.323846 -346.609195
v -3321.439187 -527.398035 -346.850871
v -3498.593464 -306.188747 -326.609195
v -3459.356454 -283.720323 -326.850871
v -3459.356454 -283.720323 -346.850871
v -3498.593464 -306.188747 -346.609195
v -3430.385545 -581.104939 -326.477586
v -3539.481351 -323.232674 -326.477586
v -3498.593464 -306.188747 -326.609195
v -3374.774395 -557.323846 -326.609195
v -3374.774395 -557.323846 -346.609195
v -3498.593464 -306.188747 -346.609195
v -3539.481351 -323.232674 -346.477586
v -3430.385545 -581.104939 -346.477586
v -3374.774395 -557.323846 -326.609195
v -3430.385545 -581.104939 -326.477586
v -3430.385545 -581.104939 -346.477586
v -3374.774395 -557.323846 -346.609195
v -3539.481351 -323.232674 -326.477586
v -3498.593464 -306.188747 -326.609195
v -3498.593464 -306.188747 -346.609195
v -3539.481351 -323.232674 -346.477586
v -3482.467762 -603.072573 -326.450460
v -3583.898172 -342.090060 -326.450460
v -3539.481351 -323.232674 -326.477586
v -3430.385545 -581.104939 -326.477586
v -3430.385545 -581.104939 -346.477586
v -3539.481351 -323.232674 -346.477586
v -3583.898172 -342.090060 -346.450460
v -3482.467762 -603.072573 -346.450460
v -3430.385545 -581.104939 -326.477586
v -3482.467762 -603.072573 -326.450460
v -3482.467762 -603.072573 -346.450460
v -3430.385545 -581.104939 -346.477586
v -3583.898172 -342.090060 -326.450460
v -3539.481351 -323.232674 -326.477586
v -3539.481351 -323.232674 -346.477586
v -3583.898172 -342.090060 -346.450460
v -3535.897078 -622.112343 -326.526238
v -3629.604915 -358.258517 -326.526238
v -3583.898172 -342.090060 -326.450460
v -3482.467762 -603.072573 -326.450460
v -3482.467762 -603.072573 -346.450460
v -3583.898172 -342.090060 -346.450460
v -3629.604915 -358.258517 -346.526238
v -3535.897078 -622.112343 -346.526238
v -3482.467762 -603.072573 -326.450460
v -3535.897078 -622.112343 -326.526238
v -3535.897078 -622.112343 -346.526238
v -3482.467762 -603.072573 -346.450460
v -3629.604915 -358.258517 -326.526238
v -3583.898172 -342.090060 -326.450460
v -3583.898172 -342.090060 -346.450460
v -3629.604915 -358.258517 -346.526238
v -3590.923315 -641.529572 -326.702213
v -3673.714736 -374.049516 -326.702213
v -3629.604915 -358.258517 -326.526238
v -3535.897078 -622.112343 -326.526238
v -3535.897078 -622.112343 -346.526238
v -3629.604915 -358.258517 -346.526238
v -3673.714736 -374.049516 -346.702213
v -3590.923315 -641.529572 -346.702213
v -3535.897078 -622.112343 -326.526238
v -3590.923315 -641.529572 -326.702213
v -3590.923315 -641.529572 -346.702213
v -3535.897078 -622.112343 -346.526238
v -3673.714736 -374.049516 -326.702213
v -3629.604915 -358.258517 -326.526238
v -3629.604915 -358.258517 -346.526238
v -3673.714736 -374.049516 -346.702213
v -3653.345321 -658.492746 -327.017774
v -3726.388079 -388.187815 -327.017774
v -3673.714736 -374.049516 -326.702213
v -3590.923315 -641.529572 -326.702213
v -3590.923315 -641.529572 -346.702213
v -3673.714736 -374.049516 -346.702213
v -3726.388079 -388.187815 -347.017774
v -3653.345321 -658.492746 -347.017774
v -3590.923315 -641.529572 -326.702213
v -3653.345321 -658.492746 -327.017774
v -3653.345321 -658.492746 -347.017774
v -3590.923315 -641.529572 -346.702213
v -3726.388079 -388.187815 -327.017774
v -3673.714736 -374.049516 -326.702213
v -3673.714736 -374.049516 -346.702213
v -3726.388079 -388.187815 -347.017774
v -3719.231812 -676.025051 -327.449930
v -3775.596937 -401.756984 -327.449930
v -3726.388079 -388.187815 -327.017774
v -3653.345321 -658.492746 -327.017774
v -3653.345321 -658.492746 -347.017774
v -3726.388079 -388.187815 -347.017774
v -3775.596937 -401.756984 -347.449930
v -3719.231812 -676.025051 -347.449930
v -3653.345321 -658.492746 -327.017774
v -3719.231812 -676.025051 -327.449930
v -3719.231812 -676.025051 -347.449930
v -3653.345321 -658.492746 -347.017774
v -3775.596937 -401.756984 -327.449930
v -3726.388079 -388.187815 -327.017774
v -3726.388079 -388.187815 -347.017774
v -3775.596937 -401.756984 -347.449930
v -3791.857471 -687.005735 -328.050978
v -3832.901702 -410.030337 -328.050978
v -3775.596937 -401.756984 -327.449930
v -3719.231812 -676.025051 -327.449930
v -3719.231812 -676.025051 -347.449930
v -3775.596937 -401.756984 -347.449930
v -3832.901702 -410.030337 -348.050978
v -3791.857471 -687.005735 -348.050978
v -3719.231812 -676.025051 -327.449930
v -3791.857471 -687.005735 -328.050978
v -3791.857471 -687.005735 -348.050978
v -3719.231812 -676.025051 -347.449930
v -3832.901702 -410.030337 -328.050978
v -3775.596937 -401.756984 -327.449930
v -3775.596937 -401.756984 -347.449930
v -3832.901702 -410.030337 -348.050978
v -3865.049746 -697.604122 -328.770456
v -3889.639850 -418.685986 -328.770456
v -3832.901702 -410.030337 -328.050978
v -3791.857471 -687.005735 -328.050978
v -3791.857471 -687.005735 -348.050978
v -3832.901702 -410.030337 -348.050978
v -3889.639850 -418.685986 -348.770456
v -3865.049746 -697.604122 -348.770456
v -3791.857471 -687.005735 -328.050978
v -3865.049746 -697.604122 -328.770456
v -3865.049746 -697.604122 -348.770456
v -3791.857471 -687.005735 -348.050978
v -3889.639850 -418.685986 -328.770456
v -3832.901702 -410.030337 -328.050978
v -3832.901702 -410.030337 -348.050978
v -3889.639850 -418.685986 -348.770456
v -3923.048728 -698.321149 -329.340268
v -3924.121254 -418.323203 -329.340268
v -3889.639850 -418.685986 -328.770456
v -3865.049746 -697.604122 -328.770456
v -3865.049746 -697.604122 -348.770456
v -3889.639850 -418.685986 -348.770456
v -3924.121254 -418.323203 -349.340268
v -3923.048728 -698.321149 -349.340268
v -3865.049746 -697.604122 -328.770456
v -3923.048728 -698.321149 -329.340268
v -3923.048728 -698.321149 -349.340268
v -3865.049746 -697.604122 -348.770456
v -3924.121254 -418.323203 -329.340268
v -3889.639850 -418.685986 -328.770456
v -3889.639850 -418.685986 -348.770456
v -3924.121254 -418.323203 -349.340268
v -3969.288922 -698.498271 -329.956089
v -3970.361448 -418.500325 -329.956089
v -3924.121254 -418.323203 -329.340268
v -3923.048728 -698.321149 -329.340268
v -3923.048728 -698.321149 -349.340268
v -3924.121254 -418.323203 -349.340268
v -3970.361448 -418.500325 -349.956089
v -3969.288922 -698.498271 -349.956089
v -3923.048728 -698.321149 -329.340268
v -3969.288922 -698.498271 -329.956089
v -3969.288922 -698.498271 -349.956089
v -3923.048728 -698.321149 -349.340268
v -3970.361448 -418.500325 -329.956089
v -3924.121254 -418.323203 -329.340268
v -3924.121254 -418.323203 -349.340268
v -3970.361448 -418.500325 -349.956089
v -4022.129693 -698.545016 -330.612084
v -4010.001064 -418.807824 -330.612084
v -3970.361448 -418.500325 -329.956089
v -3969.288922 -698.498271 -329.956089
v -3969.288922 -698.498271 -349.956089
v -3970.361448 -418.500325 -349.956089
v -4010.001064 -418.807824 -350.612084
v -4022.129693 -698.545016 -350.612084
v -3969.288922 -698.498271 -329.956089
v -4022.129693 -698.545016 -330.612084
v -4022.129693 -698.545016 -350.612084
v -3969.288922 -698.498271 -349.956089
v -4010.001064 -418.807824 -330.612084
v -3970.361448 -418.500325 -329.956089
v -3970.361448 -418.500325 -349.956089
v -4010.001064 -418.807824 -350.612084
v -4086.382037 -693.482544 -331.502416
v -4063.979144 -414.380215 -331.502416
v -4010.001064 -418.807824 -330.612084
v -4022.129693 -698.545016 -330.612084
v -4022.129693 -698.545016 -350.612084
v -4010.001064 -418.807824 -350.612084
v -4063.979144 -414.380215 -351.502416
v -4086.382037 -693.482544 -351.502416
v -4022.129693 -698.545016 -330.612084
v -4086.382037 -693.482544 -331.502416
v -4086.382037 -693.482544 -351.502416
v -4022.129693 -698.545016 -350.612084
v -4063.979144 -414.380215 -331.502416
v -4010.001064 -418.807824 -330.612084
v -4010.001064 -418.807824 -350.612084
v -4063.979144 -414.380215 -351.502416
v -4145.497250 -688.737504 -332.435321
v -4123.094356 -409.635174 -332.435321
v -4063.979144 -414.380215 -331.502416
v -4086.382037 -693.482544 -331.502416
v -4086.382037 -693.482544 -351.502416
v -4063.979144 -414.380215 -351.502416
v -4123.094356 -409.635174 -352.435321
v -4145.497250 -688.737504 -352.435321
v -4086.382037 -693.482544 -331.502416
v -4145.497250 -688.737504 -332.435321
v -4145.497250 -688.737504 -352.435321
v -4086.382037 -693.482544 -351.502416
v -4123.094356 -409.635174 -332.435321
v -4063.979144 -414.380215 -331.502416
v -4063.979144 -414.380215 -351.502416
v -4123.094356 -409.635174 -352.435321
v -4204.612462 -683.992464 -333.396878
v -4182.209568 -404.890134 -333.396878
v -4123.094356 -409.635174 -332.435321
v -4145.497250 -688.737504 -332.435321
v -4145.497250 -688.737504 -352.435321
v -4123.094356 -409.635174 -352.435321
v -4182.209568 -404.890134 -353.396878
v -4204.612462 -683.992464 -353.396878
v -4145.497250 -688.737504 -332.435321
v -4204.612462 -683.992464 -333.396878
v -4204.612462 -683.992464 -353.396878
v -4145.497250 -688.737504 -352.435321
v -4182.209568 -404.890134 -333.396878
v -4123.094356 -409.635174 -332.435321
v -4123.094356 -409.635174 -352.435321
v -4182.209568 -404.890134 -353.396878
v -4263.727674 -679.247423 -334.372843
v -4241.324780 -400.145094 -334.372843
v -4182.209568 -404.890134 -333.396878
v -4204.612462 -683.992464 -333.396878
v -4204.612462 -683.992464 -353.396878
v -4182.209568 -404.890134 -353.396878
v -4241.324780 -400.145094 -354.372843
v -4263.727674 -679.247423 -354.372843
v -4204.612462 -683.992464 -333.396878
v -4263.727674 -679.247423 -334.372843
v -4263.727674 -679.247423 -354.372843
v -4204.612462 -683.992464 -353.396878
v -4241.324780 -400.145094 -334.372843
v -4182.209568 -404.890134 -333.396878
v -4182.209568 -404.890134 -353.396878
v -4241.324780 -400.145094 -354.372843
vt -13.181896 0.526915
vt -13.923128 -0.660761
vt -13.656163 -0.827375
vt -12.914931 0.360302
vt -12.914931 0.360302
vt -13.656163 -0.827375
vt -13.923128 -0.660761
vt -13.181896 0.526915
vt -12.914931 0.360302
vt -13.181896 0.526915
vt -13.181896 0.526915
vt -12.914931 0.360302
vt -13.923128 -0.660761
vt -13.656163 -0.827375
vt -13.656163 -0.827375
vt -13.923128 -0.660761
vt -13.448862 0.693529
vt -14.190093 -0.494148
vt -13.923128 -0.660761
vt -13.181896 0.526915
vt -13.181896 0.526915
vt -13.923128 -0.660761
vt -14.190093 -0.494148
vt -13.448862 0.693529
vt -13.181896 0.526915
vt -13.448862 0.693529
vt -13.448862 0.693529
vt -13.181896 0.526915
vt -14.190093 -0.494148
vt -13.923128 -0.660761
vt -13.923128 -0.660761
vt -14.190093 -0.494148
vt -13.715827 0.860142
vt -14.457058 -0.327535
vt -14.190093 -0.494148
vt -13.448862 0.693529
vt -13.448862 0.693529
vt -14.190093 -0.494148
vt -14.457058 -0.327535
vt -13.715827 0.860142
vt -13.448862 0.693529
vt -13.715827 0.860142
vt -13.715827 0.860142
vt -13.448862 0.693529
vt -14.457058 -0.327535
vt -14.190093 -0.494148
vt -14.190093 -0.494148
vt -14.457058 -0.327535
vt -13.982792 1.026756
vt -14.724023 -0.160921
vt -14.457058 -0.327535
vt -13.715827 0.860142
vt -13.715827 0.860142
vt -14.457058 -0.327535
vt -14.724023 -0.160921
vt -13.982792 1.026756
vt -13.715827 0.860142
vt -13.982792 1.026756
vt -13.982792 1.026756
vt -13.715827 0.860142
vt -14.724023 -0.160921
vt -14.457058 -0.327535
vt -14.457058 -0.327535
vt -14.724023 -0.160921
vt -14.249757 1.193369
vt -14.990988 0.005692
vt -14.724023 -0.160921
vt -13.982792 1.026756
vt -13.982792 1.026756
vt -14.724023 -0.160921
vt -14.990988 0.005692
vt -14.249757 1.193369
vt -13.982792 1.026756
vt -14.249757 1.193369
vt -14.249757 1.193369
vt -13.982792 1.026756
vt -14.990988 0.005692
vt -14.724023 -0.160921
vt -14.724023 -0.160921
vt -14.990988 0.005692
vt -14.516722 1.359982
vt -15.257953 0.172306
vt -14.990988 0.005692
vt -14.249757 1.193369
vt -14.249757 1.193369
vt -14.990988 0.005692
vt -15.257953 0.172306
vt -14.516722 1.359982
vt -14.249757 1.193369
vt -14.516722 1.359982
vt -14.516722 1.359982
vt -14.249757 1.193369
vt -15.257953 0.172306
vt -14.990988 0.005692
vt -14.990988 0.005692
vt -15.257953 0.172306
vt -14.783687 1.526596
vt -15.524918 0.338919
vt -15.257953 0.172306
vt -14.516722 1.359982
vt -14.516722 1.359982
vt -15.257953 0.172306
vt -15.524918 0.338919
vt -14.783687 1.526596
vt -14.516722 1.359982
vt -14.783687 1.526596
vt -14.783687 1.526596
vt -14.516722 1.359982
vt -15.524918 0.338919
vt -15.257953 0.172306
vt -15.257953 0.172306
vt -15.524918 0.338919
vt -15.050652 1.693209
vt -15.791883 0.505533
vt -15.524918 0.338919
vt -14.783687 1.526596
vt -14.783687 1.526596
vt -15.524918 0.338919
vt -15.791883 0.505533
vt -15.050652 1.693209
vt -14.783687 1.526596
vt -15.050652 1.693209
vt -15.050652 1.693209
vt -14.783687 1.526596
vt -15.791883 0.505533
vt -15.524918 0.338919
vt -15.524918 0.338919
vt -15.791883 0.505533
vt -15.317617 1.859823
vt -16.058848 0.672146
vt -15.791883 0.505533
vt -15.050652 1.693209
vt -15.050652 1.693209
vt -15.791883 0.505533
vt -16.058848 0.672146
vt -15.317617 1.859823
vt -15.050652 1.693209
vt -15.317617 1.859823
vt -15.317617 1.859823
vt -15.050652 1.693209
vt -16.058848 0.672146
vt -15.791883 0.505533
vt -15.791883 0.505533
vt -16.058848 0.672146
vt -15.584582 2.026436
vt -16.325814 0.838759
vt -16.058848 0.672146
vt -15.317617 1.859823
vt -15.317617 1.859823
vt -16.058848 0.672146
vt -16.325814 0.838759
vt -15.584582 2.026436
vt -15.317617 1.859823
vt -15.584582 2.026436
vt -15.584582 2.026436
vt -15.317617 1.859823
vt -16.325814 0.838759
vt -16.058848 0.672146
vt -16.058848 0.672146
vt -16.325814 0.838759
vt -15.851547 2.193050
vt -16.592779 1.005373
vt -16.325814 0.838759
vt -15.584582 2.026436
vt -15.584582 2.026436
vt -16.325814 0.838759
vt -16.592779 1.005373
vt -15.851547 2.193050
vt -15.584582 2.026436
vt -15.851547 2.193050
vt -15.851547 2.193050
vt -15.584582 2.026436
vt -16.592779 1.005373
vt -16.325814 0.838759
vt -16.325814 0.838759
vt -16.592779 1.005373
vt -16.130257 2.366834
vt -16.847999 1.164816
vt -16.592779 1.005373
vt -15.851547 2.193050
vt -15.851547 2.193050
vt -16.592779 1.005373
vt -16.847999 1.164816
vt -16.130257 2.366834
vt -15.851547 2.193050
vt -16.130257 2.366834
vt -16.130257 2.366834
vt -15.851547 2.193050
vt -16.847999 1.164816
vt -16.592779 1.005373
vt -16.592779 1.005373
vt -16.847999 1.164816
vt -16.375765 2.506005
vt -17.065352 1.287616
vt -16.847999 1.164816
vt -16.130257 2.366834
vt -16.130257 2.366834
vt -16.847999 1.164816
vt -17.065352 1.287616
vt -16.375765 2.506005
vt -16.130257 2.366834
vt -16.375765 2.506005
vt -16.375765 2.506005
vt -16.130257 2.366834
vt -17.065352 1.287616
vt -16.847999 1.164816
vt -16.847999 1.164816
vt -17.065352 1.287616
vt -16.607196 2.636990
vt -17.296782 1.418602
vt -17.065352 1.287616
vt -16.375765 2.506005
vt -16.375765 2.506005
vt -17.065352 1.287616
vt -17.296782 1.418602
vt -16.607196 2.636990
vt -16.375765 2.506005
vt -16.607196 2.636990
vt -16.607196 2.636990
vt -16.375765 2.506005
vt -17.296782 1.418602
vt -17.065352 1.287616
vt -17.065352 1.287616
vt -17.296782 1.418602
vt -16.873872 2.786619
vt -17.492967 1.530944
vt -17.296782 1.418602
vt -16.607196 2.636990
vt -16.607196 2.636990
vt -17.296782 1.418602
vt -17.492967 1.530944
vt -16.873872 2.786619
vt -16.607196 2.636990
vt -16.873872 2.786619
vt -16.873872 2.786619
vt -16.607196 2.636990
vt -17.492967 1.530944
vt -17.296782 1.418602
vt -17.296782 1.418602
vt -17.492967 1.530944
vt -17.151928 2.905525
vt -17.697407 1.616163
vt -17.492967 1.530944
vt -16.873872 2.786619
vt -16.873872 2.786619
vt -17.492967 1.530944
vt -17.697407 1.616163
vt -17.151928 2.905525
vt -16.873872 2.786619
vt -17.151928 2.905525
vt -17.151928 2.905525
vt -16.873872 2.786619
vt -17.697407 1.616163
vt -17.492967 1.530944
vt -17.492967 1.530944
vt -17.697407 1.616163
vt -17.412339 3.015363
vt -17.919491 1.710450
vt -17.697407 1.616163
vt -17.151928 2.905525
vt -17.151928 2.905525
vt -17.697407 1.616163
vt -17.919491 1.710450
vt -17.412339 3.015363
vt -17.151928 2.905525
vt -17.412339 3.015363
vt -17.412339 3.015363
vt -17.151928 2.905525
vt -17.919491 1.710450
vt -17.697407 1.616163
vt -17.697407 1.616163
vt -17.919491 1.710450
vt -17.679485 3.110562
vt -18.148025 1.791293
vt -17.919491 1.710450
vt -17.412339 3.015363
vt -17.412339 3.015363
vt -17.919491 1.710450
vt -18.148025 1.791293
vt -17.679485 3.110562
vt -17.412339 3.015363
vt -17.679485 3.110562
vt -17.679485 3.110562
vt -17.412339 3.015363
vt -18.148025 1.791293
vt -17.919491 1.710450
vt -17.919491 1.710450
vt -18.148025 1.791293
vt -17.954617 3.207648
vt -18.368574 1.870248
vt -18.148025 1.791293
vt -17.679485 3.110562
vt -17.679485 3.110562
vt -18.148025 1.791293
vt -18.368574 1.870248
vt -17.954617 3.207648
vt -17.679485 3.110562
vt -17.954617 3.207648
vt -17.954617 3.207648
vt -17.679485 3.110562
vt -18.368574 1.870248
vt -18.148025 1.791293
vt -18.148025 1.791293
vt -18.368574 1.870248
vt -18.266727 3.292464
vt -18.631940 1.940939
vt -18.368574 1.870248
vt -17.954617 3.207648
vt -17.954617 3.207648
vt -18.368574 1.870248
vt -18.631940 1.940939
vt -18.266727 3.292464
vt -17.954617 3.207648
vt -18.266727 3.292464
vt -18.266727 3.292464
vt -17.954617 3.207648
vt -18.631940 1.940939
vt -18.368574 1.870248
vt -18.368574 1.870248
vt -18.631940 1.940939
vt -18.596159 3.380125
vt -18.877985 2.008785
vt -18.631940 1.940939
vt -18.266727 3.292464
vt -18.266727 3.292464
vt -18.631940 1.940939
vt -18.877985 2.008785
vt -18.596159 3.380125
vt -18.266727 3.292464
vt -18.596159 3.380125
vt -18.596159 3.380125
vt -18.266727 3.292464
vt -18.877985 2.008785
vt -18.631940 1.940939
vt -18.631940 1.940939
vt -18.877985 2.008785
vt -18.959287 3.435029
vt -19.164509 2.050152
vt -18.877985 2.008785
vt -18.596159 3.380125
vt -18.596159 3.380125
vt -18.877985 2.008785
vt -19.164509 2.050152
vt -18.959287 3.435029
vt -18.596159 3.380125
vt -18.959287 3.435029
vt -18.959287 3.435029
vt -18.596159 3.380125
vt -19.164509 2.050152
vt -18.877985 2.008785
vt -18.877985 2.008785
vt -19.164509 2.050152
vt -19.325249 3.488021
vt -19.448199 2.093430
vt -19.164509 2.050152
vt -18.959287 3.435029
vt -18.959287 3.435029
vt -19.164509 2.050152
vt -19.448199 2.093430
vt -19.325249 3.488021
vt -18.959287 3.435029
vt -19.325249 3.488021
vt -19.325249 3.488021
vt -18.959287 3.435029
vt -19.448199 2.093430
vt -19.164509 2.050152
vt -19.164509 2.050152
vt -19.448199 2.093430
vt -19.615244 3.491606
vt -19.620606 2.091616
vt -19.448199 2.093430
vt -19.325249 3.488021
vt -19.325249 3.488021
vt -19.448199 2.093430
vt -19.620606 2.091616
vt -19.615244 3.491606
vt -19.325249 3.488021
vt -19.615244 3.491606
vt -19.615244 3.491606
vt -19.325249 3.488021
vt -19.620606 2.091616
vt -19.448199 2.093430
vt -19.448199 2.093430
vt -19.620606 2.091616
vt -19.846445 3.492491
vt -19.851807 2.092502
vt -19.620606 2.091616
vt -19.615244 3.491606
vt -19.615244 3.491606
vt -19.620606 2.091616
vt -19.851807 2.092502
vt -19.846445 3.492491
vt -19.615244 3.491606
vt -19.846445 3.492491
vt -19.846445 3.492491
vt -19.615244 3.491606
vt -19.851807 2.092502
vt -19.620606 2.091616
vt -19.620606 2.091616
vt -19.851807 2.092502
vt -20.110648 3.492725
vt -20.050005 2.094039
vt -19.851807 2.092502
vt -19.846445 3.492491
vt -19.846445 3.492491
vt -19.851807 2.092502
vt -20.050005 2.094039
vt -20.110648 3.492725
vt -19.846445 3.492491
vt -20.110648 3.492725
vt -20.110648 3.492725
vt -19.846445 3.492491
vt -20.050005 2.094039
vt -19.851807 2.092502
vt -19.851807 2.092502
vt -20.050005 2.094039
vt -20.431910 3.467413
vt -20.319896 2.071901
vt -20.050005 2.094039
vt -20.110648 3.492725
vt -20.110648 3.492725
vt -20.050005 2.094039
vt -20.319896 2.071901
vt -20.431910 3.467413
vt -20.110648 3.492725
vt -20.431910 3.467413
vt -20.431910 3.467413
vt -20.110648 3.492725
vt -20.319896 2.071901
vt -20.050005 2.094039
vt -20.050005 2.094039
vt -20.319896 2.071901
vt -20.727486 3.443688
vt -20.615472 2.048176
vt -20.319896 2.071901
vt -20.431910 3.467413
vt -20.431910 3.467413
vt -20.319896 2.071901
vt -20.615472 2.048176
vt -20.727486 3.443688
vt -20.431910 3.467413
vt -20.727486 3.443688
vt -20.727486 3.443688
vt -20.431910 3.467413
vt -20.615472 2.048176
vt -20.319896 2.071901
vt -20.319896 2.071901
vt -20.615472 2.048176
vt -21.023062 3.419962
vt -20.911048 2.024451
vt -20.615472 2.048176
vt -20.727486 3.443688
vt -20.727486 3.443688
vt -20.615472 2.048176
vt -20.911048 2.024451
vt -21.023062 3.419962
vt -20.727486 3.443688
vt -21.023062 3.419962
vt -21.023062 3.419962
vt -20.727486 3.443688
vt -20.911048 2.024451
vt -20.615472 2.048176
vt -20.615472 2.048176
vt -20.911048 2.024451
vt -21.318638 3.396237
vt -21.206624 2.000725
vt -20.911048 2.024451
vt -21.023062 3.419962
vt -21.023062 3.419962
vt -20.911048 2.024451
vt -21.206624 2.000725
vt -21.318638 3.396237
vt -21.023062 3.419962
vt -21.318638 3.396237
vt -21.318638 3.396237
vt -21.023062 3.419962
vt -21.206624 2.000725
vt -20.911048 2.024451
vt -20.911048 2.024451
vt -21.206624 2.000725
f 3/3 2/2 1/1
f 4/4 3/3 1/1
f 7/7 6/6 5/5
f 8/8 7/7 5/5
f 11/11 10/10 9/9
f 12/12 11/11 9/9
f 15/15 14/14 13/13
f 16/16 15/15 13/13
f 19/19 18/18 17/17
f 20/20 19/19 17/17
f 23/23 22/22 21/21
f 24/24 23/23 21/21
f 27/27 26/26 25/25
f 28/28 27/27 25/25
f 31/31 30/30 29/29
f 32/32 31/31 29/29
f 35/35 34/34 33/33
f 36/36 35/35 33/33
f 39/39 38/38 37/37
f 40/40 39/39 37/37
f 43/43 42/42 41/41
f 44/44 43/43 41/41
f 47/47 46/46 45/45
f 48/48 47/47 45/45
f 51/51 50/50 49/49
f 52/52 51/51 49/49
f 55/55 54/54 53/53
f 56/56 55/55 53/53
f 59/59 58/58 57/57
f 60/60 59/59 57/57
f 63/63 62/62 61/61
f 64/64 63/63 61/61
f 67/67 66/66 65/65
f 68/68 67/67 65/65
f 71/71 70/70 69/69
f 72/72 71/71 69/69
f 75/75 74/74 73/73
f 76/76 75/75 73/73
f 79/79 78/78 77/77
f 80/80 79/79 77/77
f 83/83 82/82 81/81
f 84/84 83/83 81/81
f 87/87 86/86 85/85
f 88/88 87/87 85/85
f 91/91 90/90 89/89
f 92/92 91/91 89/89
f 95/95 94/94 93/93
f 96/96 95/95 93/93
f 99/99 98/98 97/97
f 100/100 99/99 97/97
f 103/103 102/102 101/101
f 104/104 103/103 101/101
f 107/107 106/106 105/105
f 108/108 107/107 105/105
f 111/111 110/110 109/109
f 112/112 111/111 109/109
f 115/115 114/114 113/113
f 116/116 115/115 113/113
f 119/119 118/118 117/117
f 120/120 119/119 117/117
f 123/123 122/122 121/121
f 124/124 123/123 121/121
f 127/127 126/126 125/125
f 128/128 127/127 125/125
f 131/131 130/130 129/129
f 132/132 131/131 129/129
f 135/135 134/134 133/133
f 136/136 135/135 133/133
f 139/139 138/138 137/137
f 140/140 139/139 137/137
f 143/143 142/142 141/141
f 144/144 143/143 141/141
f 147/147 146/146 145/145
f 148/148 147/147 145/145
f 151/151 150/150 149/149
f 152/152 151/151 149/149
f 155/155 154/154 153/153
f 156/156 155/155 153/153
f 159/159 158/158 157/157
f 160/160 159/159 157/157
f 163/163 162/162 161/161
f 164/164 163/163 161/161
f 167/167 166/166 165/165
f 168/168 167/167 165/165
f 171/171 170/170 169/169
f 172/172 171/171 169/169
f 175/175 174/174 173/173
f 176/176 175/175 173/173
f 179/179 178/178 177/177
f 180/180 179/179 177/177
f 183/183 182/182 181/181
f 184/184 183/183 181/181
f 187/187 186/186 185/185
f 188/188 187/187 185/185
f 191/191 190/190 189/189
f 192/192 191/191 189/189
f 195/195 194/194 193/193
f 196/196 195/195 193/193
f 199/199 198/198 197/197
f 200/200 199/199 197/197
f 203/203 202/202 201/201
f 204/204 203/203 201/201
f 207/207 206/206 205/205
f 208/208 207/207 205/205
f 211/211 210/210 209/209
f 212/212 211/211 209/209
f 215/215 214/214 213/213
f 216/216 215/215 213/213
f 219/219 218/218 217/217
f 220/220 219/219 217/217
f 223/223 222/222 221/221
f 224/224 223/223 221/221
f 227/227 226/226 225/225
f 228/228 227/227 225/225
f 231/231 230/230 229/229
f 232/232 231/231 229/229
f 235/235 234/234 233/233
f 236/236 235/235 233/233
f 239/239 238/238 237/237
f 240/240 239/239 237/237
f 243/243 242/242 241/241
f 244/244 243/243 241/241
f 247/247 246/246 245/245
f 248/248 247/247 245/245
f 251/251 250/250 249/249
f 252/252 251/251 249/249
f 255/255 254/254 253/253
f 256/256 255/255 253/253
f 259/259 258/258 257/257
f 260/260 259/259 257/257
f 263/263 262/262 261/261
f 264/264 263/263 261/261
f 267/267 266/266 265/265
f 268/268 267/267 265/265
f 271/271 270/270 269/269
f 272/272 271/271 269/269
f 275/275 274/274 273/273
f 276/276 275/275 273/273
f 279/279 278/278 277/277
f 280/280 279/279 277/277
f 283/283 282/282 281/281
f 284/284 283/283 281/281
f 287/287 286/286 285/285
f 288/288 287/287 285/285
f 291/291 290/290 289/289
f 292/292 291/291 289/289
f 295/295 294/294 293/293
f 296/296 295/295 293/293
f 299/299 298/298 297/297
f 300/300 299/299 297/297
f 303/303 302/302 301/301
f 304/304 303/303 301/301
f 307/307 306/306 305/305
f 308/308 307/307 305/305
f 311/311 310/310 309/309
f 312/312 311/311 309/309
f 315/315 314/314 313/313
f 316/316 315/315 313/313
f 319/319 318/318 317/317
f 320/320 319/319 317/317
f 323/323 322/322 321/321
f 324/324 323/323 321/321
f 327/327 326/326 325/325
f 328/328 327/327 325/325
f 331/331 330/330 329/329
f 332/332 331/331 329/329
f 335/335 334/334 333/333
f 336/336 335/335 333/333
f 339/339 338/338 337/337
f 340/340 339/339 337/337
f 343/343 342/342 341/341
f 344/344 343/343 341/341
f 347/347 346/346 345/345
f 348/348 347/347 345/345
f 351/351 350/350 349/349
f 352/352 351/351 349/349
f 355/355 354/354 353/353
f 356/356 355/355 353/353
f 359/359 358/358 357/357
f 360/360 359/359 357/357
f 363/363 362/362 361/361
f 364/364 363/363 361/361
f 367/367 366/366 365/365
f 368/368 367/367 365/365
f 371/371 370/370 369/369
f 372/372 371/371 369/369
f 375/375 374/374 373/373
f 376/376 375/375 373/373
f 379/379 378/378 377/377
f 380/380 379/379 377/377
f 383/383 382/382 381/381
f 384/384 383/383 381/381
f 387/387 386/386 385/385
f 388/388 387/387 385/385
f 391/391 390/390 389/389
f 392/392 391/391 389/389
f 395/395 394/394 393/393
f 396/396 395/395 393/393
f 399/399 398/398 397/397
f 400/400 399/399 397/397
f 403/403 402/402 401/401
f 404/404 403/403 401/401
f 407/407 406/406 405/405
f 408/408 407/407 405/405
f 411/411 410/410 409/409
f 412/412 411/411 409/409
f 415/415 414/414 413/413
f 416/416 415/415 413/413
f 419/419 418/418 417/417
f 420/420 419/419 417/417
f 423/423 422/422 421/421
f 424/424 423/423 421/421
f 427/427 426/426 425/425
f 428/428 427/427 425/425
f 431/431 430/430 429/429
f 432/432 431/431 429/429
f 435/435 434/434 433/433
f 436/436 435/435 433/433
f 439/439 438/438 437/437
f 440/440 439/439 437/437
f 443/443 442/442 441/441
f 444/444 443/443 441/441
f 447/447 446/446 445/445
f 448/448 447/447 445/445
f 451/451 450/450 449/449
f 452/452 451/451 449/449
f 455/455 454/454 453/453
f 456/456 455/455 453/453
f 459/459 458/458 457/457
f 460/460 459/459 457/457
f 463/463 462/462 461/461
f 464/464 463/463 461/461
f 467/467 466/466 465/465
f 468/468 467/467 465/465
f 471/471 470/470 469/469
f 472/472 471/471 469/469
f 475/475 474/474 473/473
f 476/476 475/475 473/473
f 479/479 478/478 477/477
f 480/480 479/479 477/477
