{"accessors": [{"bufferView": 2, "componentType": 5126, "count": 12532, "max": [0.7519842386245728, 0.17168065905570984, 0.0817764401435852], "min": [-0.6592936515808105, -0.2552114427089691, -0.08177643269300461], "type": "VEC3"}, {"bufferView": 2, "byteOffset": 150384, "componentType": 5126, "count": 12532, "max": [1.0, 1.0, 1.0], "min": [-0.9999932050704956, -0.9999964833259583, -1.0], "type": "VEC3"}, {"bufferView": 3, "componentType": 5126, "count": 12532, "max": [0.9998409748077393, 1.0, 1.0, 1.0], "min": [-0.9998656511306763, -1.0, -1.0, -1.0], "type": "VEC4"}, {"bufferView": 1, "componentType": 5126, "count": 12532, "max": [0.9019129276275635, 0.9975529313087463], "min": [0.049319613724946976, 0.000872872129548341], "type": "VEC2"}, {"bufferView": 1, "byteOffset": 100256, "componentType": 5126, "count": 12532, "max": [0.9019129276275635, 0.9975529313087463], "min": [0.049319613724946976, 0.000872872129548341], "type": "VEC2"}, {"bufferView": 1, "byteOffset": 200512, "componentType": 5126, "count": 12532, "max": [0.9019129276275635, 0.9975529313087463], "min": [0.049319613724946976, 0.000872872129548341], "type": "VEC2"}, {"bufferView": 1, "byteOffset": 300768, "componentType": 5126, "count": 12532, "max": [0.9019129276275635, 0.9975529313087463], "min": [0.049319613724946976, 0.000872872129548341], "type": "VEC2"}, {"bufferView": 0, "componentType": 5125, "count": 66528, "type": "SCALAR"}, {"bufferView": 2, "byteOffset": 300768, "componentType": 5126, "count": 2799, "max": [-0.28138256072998047, 0.1161498948931694, 0.025789899751544], "min": [-0.4643508195877075, -0.19935286045074463, -0.02578989788889885], "type": "VEC3"}, {"bufferView": 2, "byteOffset": 334356, "componentType": 5126, "count": 2799, "max": [0.9983267784118652, 0.9966415762901306, 1.0], "min": [-0.9999275803565979, -0.9988017678260803, -1.0], "type": "VEC3"}, {"bufferView": 3, "byteOffset": 200512, "componentType": 5126, "count": 2799, "max": [0.9999933242797852, 0.9994587898254395, 1.0, 1.0], "min": [-0.999679684638977, -0.9994584918022156, -0.9988347291946411, -1.0], "type": "VEC4"}, {"bufferView": 1, "byteOffset": 401024, "componentType": 5126, "count": 2799, "max": [0.8236768841743469, 0.8269088268280029], "min": [0.1808115392923355, 0.2535393238067627], "type": "VEC2"}, {"bufferView": 1, "byteOffset": 423416, "componentType": 5126, "count": 2799, "max": [0.8236768841743469, 0.8269088268280029], "min": [0.1808115392923355, 0.2535393238067627], "type": "VEC2"}, {"bufferView": 1, "byteOffset": 445808, "componentType": 5126, "count": 2799, "max": [0.8236768841743469, 0.8269088268280029], "min": [0.1808115392923355, 0.2535393238067627], "type": "VEC2"}, {"bufferView": 1, "byteOffset": 468200, "componentType": 5126, "count": 2799, "max": [0.8236768841743469, 0.8269088268280029], "min": [0.1808115392923355, 0.2535393238067627], "type": "VEC2"}, {"bufferView": 0, "byteOffset": 266112, "componentType": 5125, "count": 14592, "type": "SCALAR"}, {"bufferView": 2, "byteOffset": 367944, "componentType": 5126, "count": 31226, "max": [0.05603097751736641, 0.05603097751736641, 0.067223459482193], "min": [-0.05603097751736641, -0.05603097751736641, -0.067223459482193], "type": "VEC3"}, {"bufferView": 2, "byteOffset": 742656, "componentType": 5126, "count": 31226, "max": [1.0, 1.0, 1.0], "min": [-1.0, -1.0, -1.0], "type": "VEC3"}, {"bufferView": 1, "byteOffset": 490592, "componentType": 5126, "count": 31226, "max": [1.0000001192092896, 0.9424516558647156], "min": [0.0, 0.0], "type": "VEC2"}, {"bufferView": 0, "byteOffset": 324480, "componentType": 5125, "count": 152832, "type": "SCALAR"}, {"bufferView": 2, "byteOffset": 1117368, "componentType": 5126, "count": 1906, "max": [0.831859827041626, 0.17400826513767242, 0.14024919271469116], "min": [-0.5236543416976929, -0.17291393876075745, -0.1402548998594284], "type": "VEC3"}, {"bufferView": 2, "byteOffset": 1140240, "componentType": 5126, "count": 1906, "max": [0.9976510405540466, 0.9990190863609314, 1.0], "min": [-0.9999421238899231, -0.9995872378349304, -1.0], "type": "VEC3"}, {"bufferView": 3, "byteOffset": 245296, "componentType": 5126, "count": 1906, "max": [1.0, 0.9999436736106873, 1.0, 1.0], "min": [-0.9995697736740112, -0.9967619180679321, -1.0, -1.0], "type": "VEC4"}, {"bufferView": 1, "byteOffset": 740400, "componentType": 5126, "count": 1906, "max": [0.4171031415462494, 0.9999980330467224], "min": [0.0, -2.5479884868673253e-08], "type": "VEC2"}, {"bufferView": 1, "byteOffset": 755648, "componentType": 5126, "count": 1906, "max": [0.4171031415462494, 0.9999980330467224], "min": [0.0, -2.5479884868673253e-08], "type": "VEC2"}, {"bufferView": 1, "byteOffset": 770896, "componentType": 5126, "count": 1906, "max": [0.4171031415462494, 0.9999980330467224], "min": [0.0, -2.5479884868673253e-08], "type": "VEC2"}, {"bufferView": 1, "byteOffset": 786144, "componentType": 5126, "count": 1906, "max": [0.4171031415462494, 0.9999980330467224], "min": [0.0, -2.5479884868673253e-08], "type": "VEC2"}, {"bufferView": 0, "byteOffset": 935808, "componentType": 5125, "count": 8844, "type": "SCALAR"}, {"bufferView": 2, "byteOffset": 1163112, "componentType": 5126, "count": 7910, "max": [11.922771453857422, 1.5073587894439697, 1.4099266529083252], "min": [-1.2440540790557861, -1.0000001192092896, -1.2293789386749268], "type": "VEC3"}, {"bufferView": 2, "byteOffset": 1258032, "componentType": 5126, "count": 7910, "max": [1.0, 1.0, 1.0], "min": [-1.0, -1.0, -1.0], "type": "VEC3"}, {"bufferView": 1, "byteOffset": 801392, "componentType": 5126, "count": 7910, "max": [1.0000001192092896, 0.9811607599258423], "min": [1.6516469258931465e-05, 0.0], "type": "VEC2"}, {"bufferView": 0, "byteOffset": 971184, "componentType": 5125, "count": 35724, "type": "SCALAR"}, {"bufferView": 2, "byteOffset": 1352952, "componentType": 5126, "count": 65532, "max": [8.272884368896484, 0.10833757370710373, 0.900839626789093], "min": [-168.5453643798828, -10.139677047729492, -5.402892112731934], "type": "VEC3"}, {"bufferView": 2, "byteOffset": 2139336, "componentType": 5126, "count": 65532, "max": [1.0, 1.0, 1.0], "min": [-1.0, -1.0, -1.0], "type": "VEC3"}, {"bufferView": 1, "byteOffset": 864672, "componentType": 5126, "count": 65532, "max": [0.9821200370788574, 1.0000001192092896], "min": [0.0, 0.0], "type": "VEC2"}, {"bufferView": 0, "byteOffset": 1114080, "componentType": 5125, "count": 374052, "type": "SCALAR"}, {"bufferView": 2, "byteOffset": 2925720, "componentType": 5126, "count": 14189, "max": [-6.501406192779541, -3.10715913772583, 0.8705970048904419], "min": [-168.54539489746094, -10.131949424743652, -5.402892589569092], "type": "VEC3"}, {"bufferView": 2, "byteOffset": 3095988, "componentType": 5126, "count": 14189, "max": [1.0, 1.0, 1.0], "min": [-0.9999999403953552, -0.9994307160377502, -1.0], "type": "VEC3"}, {"bufferView": 1, "byteOffset": 1388928, "componentType": 5126, "count": 14189, "max": [0.9830910563468933, 1.0000001192092896], "min": [5.364418598219345e-07, 0.0], "type": "VEC2"}, {"bufferView": 0, "byteOffset": 2610288, "componentType": 5125, "count": 79836, "type": "SCALAR"}, {"bufferView": 2, "byteOffset": 3266256, "componentType": 5126, "count": 9315, "max": [5.30557107925415, 0.8282372951507568, 0.1689755916595459], "min": [-1.0608930587768555, 0.053592704236507416, -0.16897542774677277], "type": "VEC3"}, {"bufferView": 2, "byteOffset": 3378036, "componentType": 5126, "count": 9315, "max": [1.0, 1.0, 1.0], "min": [-1.0, -1.0, -1.0], "type": "VEC3"}, {"bufferView": 3, "byteOffset": 275792, "componentType": 5126, "count": 9315, "max": [1.0, 1.0, 1.0, 1.0], "min": [-0.9999998211860657, -1.0, -1.0, -1.0], "type": "VEC4"}, {"bufferView": 1, "byteOffset": 1502440, "componentType": 5126, "count": 9315, "max": [0.8898165822029114, 1.0000001192092896], "min": [0.05365538224577904, 0.0], "type": "VEC2"}, {"bufferView": 1, "byteOffset": 1576960, "componentType": 5126, "count": 9315, "max": [0.8898165822029114, 1.0000001192092896], "min": [0.05365538224577904, 0.0], "type": "VEC2"}, {"bufferView": 1, "byteOffset": 1651480, "componentType": 5126, "count": 9315, "max": [0.8898165822029114, 1.0000001192092896], "min": [0.05365538224577904, 0.0], "type": "VEC2"}, {"bufferView": 1, "byteOffset": 1726000, "componentType": 5126, "count": 9315, "max": [0.8898165822029114, 1.0000001192092896], "min": [0.05365538224577904, 0.0], "type": "VEC2"}, {"bufferView": 0, "byteOffset": 2929632, "componentType": 5125, "count": 48384, "type": "SCALAR"}, {"bufferView": 2, "byteOffset": 3489816, "componentType": 5126, "count": 9834, "max": [-0.870540201663971, 0.8873697519302368, 0.20124880969524384], "min": [-3.7890429496765137, 0.03728474676609039, -0.1855415552854538], "type": "VEC3"}, {"bufferView": 2, "byteOffset": 3607824, "componentType": 5126, "count": 9834, "max": [1.0, 1.0, 1.0], "min": [-1.0, -1.0, -1.0], "type": "VEC3"}, {"bufferView": 3, "byteOffset": 424832, "componentType": 5126, "count": 9834, "max": [0.9999291300773621, 1.0, 1.0, 1.0], "min": [-0.9999558925628662, -1.0, -1.0, -1.0], "type": "VEC4"}, {"bufferView": 1, "byteOffset": 1800520, "componentType": 5126, "count": 9834, "max": [0.8815162777900696, 0.8810648322105408], "min": [0.0, 0.0], "type": "VEC2"}, {"bufferView": 1, "byteOffset": 1879192, "componentType": 5126, "count": 9834, "max": [0.8815162777900696, 0.8810648322105408], "min": [0.0, 0.0], "type": "VEC2"}, {"bufferView": 1, "byteOffset": 1957864, "componentType": 5126, "count": 9834, "max": [0.8815162777900696, 0.8810648322105408], "min": [0.0, 0.0], "type": "VEC2"}, {"bufferView": 1, "byteOffset": 2036536, "componentType": 5126, "count": 9834, "max": [0.8815162777900696, 0.8810648322105408], "min": [0.0, 0.0], "type": "VEC2"}, {"bufferView": 0, "byteOffset": 3123168, "componentType": 5125, "count": 52320, "type": "SCALAR"}, {"bufferView": 2, "byteOffset": 3725832, "componentType": 5126, "count": 12784, "max": [-3.5808205604553223, 0.6762616634368896, 0.19858407974243164], "min": [-4.793994903564453, -1.3940343856811523, -0.19858410954475403], "type": "VEC3"}, {"bufferView": 2, "byteOffset": 3879240, "componentType": 5126, "count": 12784, "max": [0.9999979734420776, 0.9999679327011108, 1.0], "min": [-0.9998895525932312, -0.999954879283905, -1.0], "type": "VEC3"}, {"bufferView": 1, "byteOffset": 2115208, "componentType": 5126, "count": 12784, "max": [1.0, 0.9937688112258911], "min": [0.0, 0.0], "type": "VEC2"}, {"bufferView": 0, "byteOffset": 3332448, "componentType": 5125, "count": 68352, "type": "SCALAR"}, {"bufferView": 2, "byteOffset": 4032648, "componentType": 5126, "count": 3978, "max": [0.19296254217624664, 0.7265387177467346, 0.19296219944953918], "min": [-0.19296200573444366, -0.6007099747657776, -0.192962184548378], "type": "VEC3"}, {"bufferView": 2, "byteOffset": 4080384, "componentType": 5126, "count": 3978, "max": [1.0, 1.0, 1.0], "min": [-1.0, -1.0, -1.0], "type": "VEC3"}, {"bufferView": 3, "byteOffset": 582176, "componentType": 5126, "count": 3978, "max": [0.9283671975135803, 0.9985020756721497, 0.9999977946281433, 1.0], "min": [-0.9999978542327881, -0.9986646175384521, -0.9999030828475952, -1.0], "type": "VEC4"}, {"bufferView": 1, "byteOffset": 2217480, "componentType": 5126, "count": 3978, "max": [0.9902671575546265, 0.9994032979011536], "min": [0.648413896560669, 0.6734312772750854], "type": "VEC2"}, {"bufferView": 1, "byteOffset": 2249304, "componentType": 5126, "count": 3978, "max": [0.9902671575546265, 0.9994032979011536], "min": [0.648413896560669, 0.6734312772750854], "type": "VEC2"}, {"bufferView": 1, "byteOffset": 2281128, "componentType": 5126, "count": 3978, "max": [0.9902671575546265, 0.9994032979011536], "min": [0.648413896560669, 0.6734312772750854], "type": "VEC2"}, {"bufferView": 1, "byteOffset": 2312952, "componentType": 5126, "count": 3978, "max": [0.9902671575546265, 0.9994032979011536], "min": [0.648413896560669, 0.6734312772750854], "type": "VEC2"}, {"bufferView": 0, "byteOffset": 3605856, "componentType": 5125, "count": 20736, "type": "SCALAR"}, {"bufferView": 2, "byteOffset": 4128120, "componentType": 5126, "count": 4958, "max": [0.6192159056663513, 0.501650869846344, 0.10134969651699066], "min": [-1.117656946182251, 0.37460383772850037, -0.10134958475828171], "type": "VEC3"}, {"bufferView": 2, "byteOffset": 4187616, "componentType": 5126, "count": 4958, "max": [0.9999879002571106, 0.999997615814209, 0.9999959468841553], "min": [-0.9999879002571106, -0.999997615814209, -0.9999958276748657], "type": "VEC3"}, {"bufferView": 3, "byteOffset": 645824, "componentType": 5126, "count": 4958, "max": [1.0, 0.9999990463256836, 1.0, 1.0], "min": [-0.9999979734420776, -0.9999992251396179, -1.0, -1.0], "type": "VEC4"}, {"bufferView": 1, "byteOffset": 2344776, "componentType": 5126, "count": 4958, "max": [1.0000001192092896, 0.9605150818824768], "min": [0.2596473693847656, 0.20506933331489563], "type": "VEC2"}, {"bufferView": 1, "byteOffset": 2384440, "componentType": 5126, "count": 4958, "max": [1.0000001192092896, 0.9605150818824768], "min": [0.2596473693847656, 0.20506933331489563], "type": "VEC2"}, {"bufferView": 1, "byteOffset": 2424104, "componentType": 5126, "count": 4958, "max": [1.0000001192092896, 0.9605150818824768], "min": [0.2596473693847656, 0.20506933331489563], "type": "VEC2"}, {"bufferView": 1, "byteOffset": 2463768, "componentType": 5126, "count": 4958, "max": [1.0000001192092896, 0.9605150818824768], "min": [0.2596473693847656, 0.20506933331489563], "type": "VEC2"}, {"bufferView": 0, "byteOffset": 3688800, "componentType": 5125, "count": 7440, "type": "SCALAR"}, {"bufferView": 2, "byteOffset": 4247112, "componentType": 5126, "count": 5532, "max": [2.986611843109131, 0.5366151928901672, 0.21491000056266785], "min": [2.7203574180603027, 0.007658322807401419, -0.21490982174873352], "type": "VEC3"}, {"bufferView": 2, "byteOffset": 4313496, "componentType": 5126, "count": 5532, "max": [1.0, 1.0, 1.0], "min": [-1.0, -1.0, -1.0], "type": "VEC3"}, {"bufferView": 3, "byteOffset": 725152, "componentType": 5126, "count": 5532, "max": [1.0, 0.9999969601631165, 1.0, 1.0], "min": [-1.0, -1.0, -1.0, 1.0], "type": "VEC4"}, {"bufferView": 1, "byteOffset": 2503432, "componentType": 5126, "count": 5532, "max": [0.9863629937171936, 1.000000238418579], "min": [0.0, 0.0], "type": "VEC2"}, {"bufferView": 1, "byteOffset": 2547688, "componentType": 5126, "count": 5532, "max": [0.9863629937171936, 1.000000238418579], "min": [0.0, 0.0], "type": "VEC2"}, {"bufferView": 1, "byteOffset": 2591944, "componentType": 5126, "count": 5532, "max": [0.9863629937171936, 1.000000238418579], "min": [0.0, 0.0], "type": "VEC2"}, {"bufferView": 1, "byteOffset": 2636200, "componentType": 5126, "count": 5532, "max": [0.9863629937171936, 1.000000238418579], "min": [0.0, 0.0], "type": "VEC2"}, {"bufferView": 0, "byteOffset": 3718560, "componentType": 5125, "count": 29952, "type": "SCALAR"}, {"bufferView": 2, "byteOffset": 4379880, "componentType": 5126, "count": 9650, "max": [2.9865903854370117, 0.8030210137367249, 0.21491000056266785], "min": [2.7204482555389404, -0.04004790261387825, -0.21490982174873352], "type": "VEC3"}, {"bufferView": 2, "byteOffset": 4495680, "componentType": 5126, "count": 9650, "max": [1.0, 1.0, 1.0], "min": [-1.0, -1.0, -1.0], "type": "VEC3"}, {"bufferView": 3, "byteOffset": 813664, "componentType": 5126, "count": 9650, "max": [1.0, 1.0, 0.9999996423721313, 1.0], "min": [-1.0, -1.0, -1.0, 1.0], "type": "VEC4"}, {"bufferView": 1, "byteOffset": 2680456, "componentType": 5126, "count": 9650, "max": [0.9994683265686035, 1.0000001192092896], "min": [0.0, 0.0], "type": "VEC2"}, {"bufferView": 1, "byteOffset": 2757656, "componentType": 5126, "count": 9650, "max": [0.9994683265686035, 1.0000001192092896], "min": [0.0, 0.0], "type": "VEC2"}, {"bufferView": 1, "byteOffset": 2834856, "componentType": 5126, "count": 9650, "max": [0.9994683265686035, 1.0000001192092896], "min": [0.0, 0.0], "type": "VEC2"}, {"bufferView": 1, "byteOffset": 2912056, "componentType": 5126, "count": 9650, "max": [0.9994683265686035, 1.0000001192092896], "min": [0.0, 0.0], "type": "VEC2"}, {"bufferView": 0, "byteOffset": 3838368, "componentType": 5125, "count": 51840, "type": "SCALAR"}, {"bufferView": 2, "byteOffset": 4611480, "componentType": 5126, "count": 8324, "max": [3.227154493331909, 0.45458656549453735, 0.23201841115951538], "min": [2.9876444339752197, -0.009450098499655724, -0.23201823234558105], "type": "VEC3"}, {"bufferView": 2, "byteOffset": 4711368, "componentType": 5126, "count": 8324, "max": [1.0, 1.0, 1.0], "min": [-1.0, -1.0, -1.0], "type": "VEC3"}, {"bufferView": 1, "byteOffset": 2989256, "componentType": 5126, "count": 8324, "max": [0.9975661039352417, 1.0000001192092896], "min": [0.0, 0.0], "type": "VEC2"}, {"bufferView": 0, "byteOffset": 4045728, "componentType": 5125, "count": 43776, "type": "SCALAR"}, {"bufferView": 2, "byteOffset": 4811256, "componentType": 5126, "count": 12492, "max": [2.73215913772583, 0.4539230763912201, 0.23827771842479706], "min": [0.6626700758934021, -1.5160682201385498, -0.23827773332595825], "type": "VEC3"}, {"bufferView": 2, "byteOffset": 4961160, "componentType": 5126, "count": 12492, "max": [1.0, 1.0, 1.0], "min": [-0.9999998807907104, -1.0, -1.0], "type": "VEC3"}, {"bufferView": 1, "byteOffset": 3055848, "componentType": 5126, "count": 12492, "max": [1.0000001192092896, 0.9997369050979614], "min": [0.0, 0.0], "type": "VEC2"}, {"bufferView": 0, "byteOffset": 4220832, "componentType": 5125, "count": 66816, "type": "SCALAR"}, {"bufferView": 2, "byteOffset": 5111064, "componentType": 5126, "count": 4190, "max": [0.67032790184021, 0.47417116165161133, 0.2690640687942505], "min": [0.46431782841682434, -0.05341847985982895, -0.2690640687942505], "type": "VEC3"}, {"bufferView": 2, "byteOffset": 5161344, "componentType": 5126, "count": 4190, "max": [1.0, 1.0, 1.0], "min": [-1.0, -1.0, -1.0], "type": "VEC3"}, {"bufferView": 3, "byteOffset": 968064, "componentType": 5126, "count": 4190, "max": [1.0, 0.9951645731925964, 1.0, 1.0], "min": [-1.0, -0.999923050403595, -1.0, -1.0], "type": "VEC4"}, {"bufferView": 1, "byteOffset": 3155784, "componentType": 5126, "count": 4190, "max": [0.7947689294815063, 0.8359829783439636], "min": [0.0, 0.25792455673217773], "type": "VEC2"}, {"bufferView": 1, "byteOffset": 3189304, "componentType": 5126, "count": 4190, "max": [0.7947689294815063, 0.8359829783439636], "min": [0.0, 0.25792455673217773], "type": "VEC2"}, {"bufferView": 1, "byteOffset": 3222824, "componentType": 5126, "count": 4190, "max": [0.7947689294815063, 0.8359829783439636], "min": [0.0, 0.25792455673217773], "type": "VEC2"}, {"bufferView": 1, "byteOffset": 3256344, "componentType": 5126, "count": 4190, "max": [0.7947689294815063, 0.8359829783439636], "min": [0.0, 0.25792455673217773], "type": "VEC2"}, {"bufferView": 0, "byteOffset": 4488096, "componentType": 5125, "count": 20928, "type": "SCALAR"}, {"bufferView": 2, "byteOffset": 5211624, "componentType": 5126, "count": 1666, "max": [2.7684452533721924, 0.4096972644329071, 0.19405189156532288], "min": [2.725778341293335, 0.021593648940324783, -0.19405187666416168], "type": "VEC3"}, {"bufferView": 2, "byteOffset": 5231616, "componentType": 5126, "count": 1666, "max": [1.0, 0.9999379515647888, 0.999937891960144], "min": [-1.0, -0.999937891960144, -0.9999380111694336], "type": "VEC3"}, {"bufferView": 3, "byteOffset": 1035104, "componentType": 5126, "count": 1666, "max": [1.0, 0.0, -0.0, -1.0], "min": [1.0, 0.0, -0.0, -1.0], "type": "VEC4"}, {"bufferView": 1, "byteOffset": 3289864, "componentType": 5126, "count": 1666, "max": [0.0, 0.0], "min": [0.0, 0.0], "type": "VEC2"}, {"bufferView": 1, "byteOffset": 3303192, "componentType": 5126, "count": 1666, "max": [0.0, 0.0], "min": [0.0, 0.0], "type": "VEC2"}, {"bufferView": 1, "byteOffset": 3316520, "componentType": 5126, "count": 1666, "max": [0.0, 0.0], "min": [0.0, 0.0], "type": "VEC2"}, {"bufferView": 1, "byteOffset": 3329848, "componentType": 5126, "count": 1666, "max": [0.0, 0.0], "min": [0.0, 0.0], "type": "VEC2"}, {"bufferView": 0, "byteOffset": 4571808, "componentType": 5125, "count": 9984, "type": "SCALAR"}, {"bufferView": 2, "byteOffset": 5251608, "componentType": 5126, "count": 8027, "max": [5.147350788116455, 0.8740893602371216, 0.05480993166565895], "min": [4.997935771942139, 0.7877036929130554, -0.05481136962771416], "type": "VEC3"}, {"bufferView": 2, "byteOffset": 5347932, "componentType": 5126, "count": 8027, "max": [1.0, 1.0, 0.999998927116394], "min": [-1.0, -1.0, -0.999998927116394], "type": "VEC3"}, {"bufferView": 3, "byteOffset": 1061760, "componentType": 5126, "count": 8027, "max": [1.0, 0.9999999403953552, 1.0, 1.0], "min": [-1.0, -0.9999997019767761, -1.0, -1.0], "type": "VEC4"}, {"bufferView": 1, "byteOffset": 3343176, "componentType": 5126, "count": 8027, "max": [1.0000001192092896, 0.8162404298782349], "min": [0.0, 0.0], "type": "VEC2"}, {"bufferView": 1, "byteOffset": 3407392, "componentType": 5126, "count": 8027, "max": [1.0000001192092896, 0.8162404298782349], "min": [0.0, 0.0], "type": "VEC2"}, {"bufferView": 1, "byteOffset": 3471608, "componentType": 5126, "count": 8027, "max": [1.0000001192092896, 0.8162404298782349], "min": [0.0, 0.0], "type": "VEC2"}, {"bufferView": 1, "byteOffset": 3535824, "componentType": 5126, "count": 8027, "max": [1.0000001192092896, 0.8162404298782349], "min": [0.0, 0.0], "type": "VEC2"}, {"bufferView": 0, "byteOffset": 4611744, "componentType": 5125, "count": 42336, "type": "SCALAR"}, {"bufferView": 4, "componentType": 5126, "count": 12532, "type": "VEC3", "min": [-0.39006197452545166, -0.0020074276253581047, 0.007906831800937653], "max": [-0.2503255009651184, 0.040260933339595795, 0.024100881069898605]}, {"bufferView": 5, "componentType": 5126, "count": 12532, "type": "VEC3", "min": [-0.9999931454658508, -0.9999963641166687, -1.0], "max": [1.0, 1.0, 1.0]}, {"bufferView": 6, "componentType": 5126, "count": 2799, "type": "VEC3", "min": [-0.37075987458229065, 0.0035233628004789352, 0.013450291007757187], "max": [-0.3526434302330017, 0.03476260229945183, 0.01855742186307907]}, {"bufferView": 7, "componentType": 5126, "count": 2799, "type": "VEC3", "min": [-0.9999275207519531, -0.9988017678260803, -1.0], "max": [0.9983267784118652, 0.9966415762901306, 1.0]}, {"bufferView": 8, "componentType": 5126, "count": 31226, "type": "VEC3", "min": [-0.3841492533683777, 0.02331535704433918, 0.009347782470285892], "max": [-0.37305352091789246, 0.034411076456308365, 0.02265992946922779]}, {"bufferView": 9, "componentType": 5126, "count": 31226, "type": "VEC3", "min": [-1.0, -1.0, -1.0], "max": [1.0, 1.0, 1.0]}, {"bufferView": 10, "componentType": 5126, "count": 1906, "type": "VEC3", "min": [-0.27898940443992615, 0.036136988550424576, 0.002116635674610734], "max": [-0.14477431774139404, 0.07048720121383667, 0.0298905111849308]}, {"bufferView": 11, "componentType": 5126, "count": 1906, "type": "VEC3", "min": [-0.9999421238899231, -0.9995872378349304, -0.9999999403953552], "max": [0.9976509809494019, 0.9990190267562866, 0.9999999403953552]}, {"bufferView": 12, "componentType": 5126, "count": 7910, "type": "VEC3", "min": [-0.38444820046424866, 0.05032781511545181, -0.042645007371902466], "max": [-0.19040244817733765, 0.10470398515462875, -0.0037483088672161102]}, {"bufferView": 13, "componentType": 5126, "count": 7910, "type": "VEC3", "min": [-1.0, -1.0, -1.0], "max": [1.0, 1.0, 1.0]}, {"bufferView": 14, "componentType": 5126, "count": 65532, "type": "VEC3", "min": [-0.372200071811676, 0.052297599613666534, -0.00866922177374363], "max": [0.4214264154434204, 0.08059098571538925, 0.03732770308852196]}, {"bufferView": 15, "componentType": 5126, "count": 65532, "type": "VEC3", "min": [-0.9999999403953552, -1.0, -1.0], "max": [1.0, 1.0, 1.0]}, {"bufferView": 16, "componentType": 5126, "count": 14189, "type": "VEC3", "min": [-0.30588752031326294, 0.05243333801627159, 0.00576301384717226], "max": [0.42142653465270996, 0.08059099316596985, 0.03729302063584328]}, {"bufferView": 17, "componentType": 5126, "count": 14189, "type": "VEC3", "min": [-1.0, -1.0, -1.0], "max": [0.9999998807907104, 0.9999999403953552, 0.9994307160377502]}, {"bufferView": 18, "componentType": 5126, "count": 9315, "type": "VEC3", "min": [-0.13037006556987762, 0.03708893433213234, -0.0007271032081916928], "max": [0.5, 0.11378971487283707, 0.03273482993245125]}, {"bufferView": 19, "componentType": 5126, "count": 9315, "type": "VEC3", "min": [-1.0, -1.0, -1.0], "max": [1.0, 1.0, 1.0]}, {"bufferView": 20, "componentType": 5126, "count": 9834, "type": "VEC3", "min": [-0.4007609784603119, 0.033525727689266205, -0.0023673842661082745], "max": [-0.11178790032863617, 0.11769617348909378, 0.035930335521698]}, {"bufferView": 21, "componentType": 5126, "count": 9834, "type": "VEC3", "min": [-1.0, -1.0, -1.0], "max": [1.0, 1.0, 1.0]}, {"bufferView": 22, "componentType": 5126, "count": 12784, "type": "VEC3", "min": [-0.5, -0.10869110375642776, -0.003658781759440899], "max": [-0.37987858057022095, 0.09629750996828079, 0.03566649183630943]}, {"bufferView": 23, "componentType": 5126, "count": 12784, "type": "VEC3", "min": [-0.9998894929885864, -0.999954879283905, -1.0], "max": [0.9999979138374329, 0.9999678134918213, 1.0]}, {"bufferView": 24, "componentType": 5126, "count": 3978, "type": "VEC3", "min": [-0.25892069935798645, 0.07760259509086609, -0.0010078508639708161], "max": [-0.14182762801647186, 0.111626036465168, 0.03301559016108513]}, {"bufferView": 25, "componentType": 5126, "count": 3978, "type": "VEC3", "min": [-1.0, -0.9993671178817749, -0.9993671178817749], "max": [1.0, 0.9993671774864197, 0.9993671774864197]}, {"bufferView": 26, "componentType": 5126, "count": 4958, "type": "VEC3", "min": [-0.13599050045013428, 0.0688735768198967, 0.005968812387436628], "max": [0.035984497517347336, 0.08145303279161453, 0.026038911193609238]}, {"bufferView": 27, "componentType": 5126, "count": 4958, "type": "VEC3", "min": [-0.9999878406524658, -0.9999974966049194, -0.999995768070221], "max": [0.9999878406524658, 0.9999974966049194, 0.9999958872795105]}, {"bufferView": 28, "componentType": 5126, "count": 5532, "type": "VEC3", "min": [0.2440272569656372, 0.03254077956080437, -0.005275258328765631], "max": [0.27039021253585815, 0.08491499722003937, 0.03728298842906952]}, {"bufferView": 29, "componentType": 5126, "count": 5532, "type": "VEC3", "min": [-1.0, -1.0, -1.0], "max": [0.9999999403953552, 1.0, 1.0]}, {"bufferView": 30, "componentType": 5126, "count": 9650, "type": "VEC3", "min": [0.4042370617389679, 0.02781718783080578, -0.005275258328765631], "max": [0.43058890104293823, 0.11129294335842133, 0.03728298842906952]}, {"bufferView": 31, "componentType": 5126, "count": 9650, "type": "VEC3", "min": [-1.0, -1.0, -1.0], "max": [1.0, 1.0, 1.0]}, {"bufferView": 32, "componentType": 5126, "count": 8324, "type": "VEC3", "min": [0.27049246430397034, 0.03084680438041687, -0.00696923304349184], "max": [0.2942073345184326, 0.07679300010204315, 0.038976963609457016]}, {"bufferView": 33, "componentType": 5126, "count": 8324, "type": "VEC3", "min": [-1.0, -1.0, -1.0], "max": [1.0, 1.0, 1.0]}, {"bufferView": 34, "componentType": 5126, "count": 12492, "type": "VEC3", "min": [0.03487182781100273, -0.118329718708992, -0.007589012384414673], "max": [0.23978054523468018, 0.07672730833292007, 0.03959672152996063]}, {"bufferView": 35, "componentType": 5126, "count": 12492, "type": "VEC3", "min": [-0.9999998807907104, -1.0, -1.0], "max": [1.0, 1.0, 1.0]}, {"bufferView": 36, "componentType": 5126, "count": 4190, "type": "VEC3", "min": [0.015232148580253124, 0.026493310928344727, -0.010637295432388783], "max": [0.035630062222480774, 0.07873215526342392, 0.042645007371902466]}, {"bufferView": 37, "componentType": 5126, "count": 4190, "type": "VEC3", "min": [-1.0, -1.0, -1.0], "max": [1.0, 1.0, 1.0]}, {"bufferView": 38, "componentType": 5126, "count": 1666, "type": "VEC3", "min": [0.23914875090122223, 0.03392057493329048, -0.0032100265379995108], "max": [0.24337337911128998, 0.07234832644462585, 0.03521773964166641]}, {"bufferView": 39, "componentType": 5126, "count": 1666, "type": "VEC3", "min": [-1.0, -0.999937891960144, -0.999937891960144], "max": [1.0, 0.999937891960144, 0.999937891960144]}, {"bufferView": 40, "componentType": 5126, "count": 8027, "type": "VEC3", "min": [0.4695397615432739, 0.10977631062269211, 0.010576754808425903], "max": [0.48433396220207214, 0.118329718708992, 0.021430814638733864]}, {"bufferView": 41, "componentType": 5126, "count": 8027, "type": "VEC3", "min": [-1.0, -1.0, -0.999998927116394], "max": [1.0, 1.0, 0.999998927116394]}], "asset": {"extras": {"author": "britdawgmasterfunk (https://sketchfab.com/britdawgmasterfunk)", "license": "CC-BY-4.0 (http://creativecommons.org/licenses/by/4.0/)", "source": "https://sketchfab.com/3d-models/remington-model-870-cc0-d9a309a2f57b4a87ac38cc440a3deaa7", "title": "Remington Model 870 (CC0)"}, "generator": "Sketchfab-14.32.1", "version": "2.0"}, "bufferViews": [{"buffer": 0, "byteLength": 4781088, "name": "floatBufferViews", "target": 34963}, {"buffer": 0, "byteLength": 3600040, "byteOffset": 4781088, "byteStride": 8, "name": "floatBufferViews", "target": 34962}, {"buffer": 0, "byteLength": 5444256, "byteOffset": 8381128, "byteStride": 12, "name": "floatBufferViews", "target": 34962}, {"buffer": 0, "byteLength": 1190192, "byteOffset": 13825384, "byteStride": 16, "name": "floatBufferViews", "target": 34962}, {"buffer": 0, "byteOffset": 15015576, "byteLength": 150384, "target": 34962}, {"buffer": 0, "byteOffset": 15165960, "byteLength": 150384, "target": 34962}, {"buffer": 0, "byteOffset": 15316344, "byteLength": 33588, "target": 34962}, {"buffer": 0, "byteOffset": 15349932, "byteLength": 33588, "target": 34962}, {"buffer": 0, "byteOffset": 15383520, "byteLength": 374712, "target": 34962}, {"buffer": 0, "byteOffset": 15758232, "byteLength": 374712, "target": 34962}, {"buffer": 0, "byteOffset": 16132944, "byteLength": 22872, "target": 34962}, {"buffer": 0, "byteOffset": 16155816, "byteLength": 22872, "target": 34962}, {"buffer": 0, "byteOffset": 16178688, "byteLength": 94920, "target": 34962}, {"buffer": 0, "byteOffset": 16273608, "byteLength": 94920, "target": 34962}, {"buffer": 0, "byteOffset": 16368528, "byteLength": 786384, "target": 34962}, {"buffer": 0, "byteOffset": 17154912, "byteLength": 786384, "target": 34962}, {"buffer": 0, "byteOffset": 17941296, "byteLength": 170268, "target": 34962}, {"buffer": 0, "byteOffset": 18111564, "byteLength": 170268, "target": 34962}, {"buffer": 0, "byteOffset": 18281832, "byteLength": 111780, "target": 34962}, {"buffer": 0, "byteOffset": 18393612, "byteLength": 111780, "target": 34962}, {"buffer": 0, "byteOffset": 18505392, "byteLength": 118008, "target": 34962}, {"buffer": 0, "byteOffset": 18623400, "byteLength": 118008, "target": 34962}, {"buffer": 0, "byteOffset": 18741408, "byteLength": 153408, "target": 34962}, {"buffer": 0, "byteOffset": 18894816, "byteLength": 153408, "target": 34962}, {"buffer": 0, "byteOffset": 19048224, "byteLength": 47736, "target": 34962}, {"buffer": 0, "byteOffset": 19095960, "byteLength": 47736, "target": 34962}, {"buffer": 0, "byteOffset": 19143696, "byteLength": 59496, "target": 34962}, {"buffer": 0, "byteOffset": 19203192, "byteLength": 59496, "target": 34962}, {"buffer": 0, "byteOffset": 19262688, "byteLength": 66384, "target": 34962}, {"buffer": 0, "byteOffset": 19329072, "byteLength": 66384, "target": 34962}, {"buffer": 0, "byteOffset": 19395456, "byteLength": 115800, "target": 34962}, {"buffer": 0, "byteOffset": 19511256, "byteLength": 115800, "target": 34962}, {"buffer": 0, "byteOffset": 19627056, "byteLength": 99888, "target": 34962}, {"buffer": 0, "byteOffset": 19726944, "byteLength": 99888, "target": 34962}, {"buffer": 0, "byteOffset": 19826832, "byteLength": 149904, "target": 34962}, {"buffer": 0, "byteOffset": 19976736, "byteLength": 149904, "target": 34962}, {"buffer": 0, "byteOffset": 20126640, "byteLength": 50280, "target": 34962}, {"buffer": 0, "byteOffset": 20176920, "byteLength": 50280, "target": 34962}, {"buffer": 0, "byteOffset": 20227200, "byteLength": 19992, "target": 34962}, {"buffer": 0, "byteOffset": 20247192, "byteLength": 19992, "target": 34962}, {"buffer": 0, "byteOffset": 20267184, "byteLength": 96324, "target": 34962}, {"buffer": 0, "byteOffset": 20363508, "byteLength": 96324, "target": 34962}], "buffers": [{"uri": "Remington870.bin", "byteLength": 20459832}], "images": [{"uri": "textures/gunmetal_silver_baseColor.jpeg"}, {"uri": "textures/gunmetal_silver_metallicRoughness.png"}, {"uri": "textures/gunmetal_silver_normal.jpeg"}], "materials": [{"doubleSided": true, "name": "gunmetal_silver", "normalTexture": {"index": 2}, "pbrMetallicRoughness": {"baseColorTexture": {"index": 0}, "metallicRoughnessTexture": {"index": 1}}}, {"doubleSided": true, "name": "plastic", "pbrMetallicRoughness": {"baseColorFactor": [0.036325460590018475, 0.036325460590018475, 0.036325460590018475, 1.0], "metallicFactor": 0.0, "roughnessFactor": 0.5903020457507697}}, {"doubleSided": true, "name": "shinny_metal", "normalTexture": {"index": 2}, "pbrMetallicRoughness": {"baseColorTexture": {"index": 0}, "metallicRoughnessTexture": {"index": 1}}}, {"doubleSided": true, "name": "Steel"}, {"doubleSided": true, "name": "gunmetal1", "normalTexture": {"index": 2}, "pbrMetallicRoughness": {"baseColorTexture": {"index": 0}, "metallicRoughnessTexture": {"index": 1}}}], "meshes": [{"name": "ShotgunBody", "primitives": [{"attributes": {"NORMAL": 125, "POSITION": 124, "TEXCOORD_0": 3, "TEXCOORD_1": 4, "TEXCOORD_2": 5, "TEXCOORD_3": 6}, "indices": 7, "material": 0, "mode": 4}, {"attributes": {"NORMAL": 127, "POSITION": 126, "TEXCOORD_0": 11, "TEXCOORD_1": 12, "TEXCOORD_2": 13, "TEXCOORD_3": 14}, "indices": 15, "material": 0, "mode": 4}, {"attributes": {"NORMAL": 129, "POSITION": 128, "TEXCOORD_0": 18}, "indices": 19, "material": 1, "mode": 4}, {"attributes": {"NORMAL": 131, "POSITION": 130, "TEXCOORD_0": 23, "TEXCOORD_1": 24, "TEXCOORD_2": 25, "TEXCOORD_3": 26}, "indices": 27, "material": 2, "mode": 4}, {"attributes": {"NORMAL": 133, "POSITION": 132, "TEXCOORD_0": 30}, "indices": 31, "material": 1, "mode": 4}, {"attributes": {"NORMAL": 135, "POSITION": 134, "TEXCOORD_0": 34}, "indices": 35, "material": 3, "mode": 4}, {"attributes": {"NORMAL": 137, "POSITION": 136, "TEXCOORD_0": 38}, "indices": 39, "material": 3, "mode": 4}, {"attributes": {"NORMAL": 139, "POSITION": 138, "TEXCOORD_0": 43, "TEXCOORD_1": 44, "TEXCOORD_2": 45, "TEXCOORD_3": 46}, "indices": 47, "material": 4, "mode": 4}, {"attributes": {"NORMAL": 141, "POSITION": 140, "TEXCOORD_0": 51, "TEXCOORD_1": 52, "TEXCOORD_2": 53, "TEXCOORD_3": 54}, "indices": 55, "material": 4, "mode": 4}, {"attributes": {"NORMAL": 143, "POSITION": 142, "TEXCOORD_0": 58}, "indices": 59, "material": 1, "mode": 4}, {"attributes": {"NORMAL": 145, "POSITION": 144, "TEXCOORD_0": 63, "TEXCOORD_1": 64, "TEXCOORD_2": 65, "TEXCOORD_3": 66}, "indices": 67, "material": 2, "mode": 4}, {"attributes": {"NORMAL": 147, "POSITION": 146, "TEXCOORD_0": 71, "TEXCOORD_1": 72, "TEXCOORD_2": 73, "TEXCOORD_3": 74}, "indices": 75, "material": 0, "mode": 4}, {"attributes": {"NORMAL": 149, "POSITION": 148, "TEXCOORD_0": 79, "TEXCOORD_1": 80, "TEXCOORD_2": 81, "TEXCOORD_3": 82}, "indices": 83, "material": 0, "mode": 4}, {"attributes": {"NORMAL": 151, "POSITION": 150, "TEXCOORD_0": 87, "TEXCOORD_1": 88, "TEXCOORD_2": 89, "TEXCOORD_3": 90}, "indices": 91, "material": 0, "mode": 4}, {"attributes": {"NORMAL": 153, "POSITION": 152, "TEXCOORD_0": 94}, "indices": 95, "material": 1, "mode": 4}, {"attributes": {"NORMAL": 161, "POSITION": 160, "TEXCOORD_0": 119, "TEXCOORD_1": 120, "TEXCOORD_2": 121, "TEXCOORD_3": 122}, "indices": 123, "material": 4, "mode": 4}]}, {"name": "ShotgunPump", "primitives": [{"attributes": {"NORMAL": 155, "POSITION": 154, "TEXCOORD_0": 98}, "indices": 99, "material": 1, "mode": 4}, {"attributes": {"NORMAL": 157, "POSITION": 156, "TEXCOORD_0": 103, "TEXCOORD_1": 104, "TEXCOORD_2": 105, "TEXCOORD_3": 106}, "indices": 107, "material": 0, "mode": 4}, {"attributes": {"NORMAL": 159, "POSITION": 158, "TEXCOORD_0": 111, "TEXCOORD_1": 112, "TEXCOORD_2": 113, "TEXCOORD_3": 114}, "indices": 115, "material": 0, "mode": 4}]}], "nodes": [{"name": "ShotgunBody", "mesh": 0}, {"name": "ShotgunPump", "mesh": 1}], "samplers": [{"magFilter": 9729, "minFilter": 9987, "wrapS": 10497, "wrapT": 10497}], "scene": 0, "scenes": [{"nodes": [0, 1]}], "textures": [{"sampler": 0, "source": 0}, {"sampler": 0, "source": 1}, {"sampler": 0, "source": 2}]}