# Authored arcade structure on OSM alignment; ODbL
o KrogTunnel_Columns
v 29808.545388 116427.075699 1227.672816
v 29808.545388 116391.075699 1227.672816
v 29772.545388 116391.075699 1227.672816
v 29772.545388 116427.075699 1227.672816
v 29772.545388 116427.075699 945.672816
v 29772.545388 116391.075699 945.672816
v 29808.545388 116391.075699 945.672816
v 29808.545388 116427.075699 945.672816
v 29772.545388 116427.075699 1227.672816
v 29772.545388 116427.075699 945.672816
v 29772.545388 116391.075699 945.672816
v 29772.545388 116391.075699 1227.672816
v 29772.545388 116391.075699 1227.672816
v 29772.545388 116391.075699 945.672816
v 29808.545388 116391.075699 945.672816
v 29808.545388 116391.075699 1227.672816
v 29808.545388 116391.075699 1227.672816
v 29808.545388 116391.075699 945.672816
v 29808.545388 116427.075699 945.672816
v 29808.545388 116427.075699 1227.672816
v 29808.545388 116427.075699 1227.672816
v 29808.545388 116427.075699 945.672816
v 29772.545388 116427.075699 945.672816
v 29772.545388 116427.075699 1227.672816
v 29911.251966 116681.025938 1228.068015
v 29911.251966 116645.025938 1228.068015
v 29875.251966 116645.025938 1228.068015
v 29875.251966 116681.025938 1228.068015
v 29875.251966 116681.025938 946.068015
v 29875.251966 116645.025938 946.068015
v 29911.251966 116645.025938 946.068015
v 29911.251966 116681.025938 946.068015
v 29875.251966 116681.025938 1228.068015
v 29875.251966 116681.025938 946.068015
v 29875.251966 116645.025938 946.068015
v 29875.251966 116645.025938 1228.068015
v 29875.251966 116645.025938 1228.068015
v 29875.251966 116645.025938 946.068015
v 29911.251966 116645.025938 946.068015
v 29911.251966 116645.025938 1228.068015
v 29911.251966 116645.025938 1228.068015
v 29911.251966 116645.025938 946.068015
v 29911.251966 116681.025938 946.068015
v 29911.251966 116681.025938 1228.068015
v 29911.251966 116681.025938 1228.068015
v 29911.251966 116681.025938 946.068015
v 29875.251966 116681.025938 946.068015
v 29875.251966 116681.025938 1228.068015
v 30013.958545 116934.976178 1228.463213
v 30013.958545 116898.976178 1228.463213
v 29977.958545 116898.976178 1228.463213
v 29977.958545 116934.976178 1228.463213
v 29977.958545 116934.976178 946.463213
v 29977.958545 116898.976178 946.463213
v 30013.958545 116898.976178 946.463213
v 30013.958545 116934.976178 946.463213
v 29977.958545 116934.976178 1228.463213
v 29977.958545 116934.976178 946.463213
v 29977.958545 116898.976178 946.463213
v 29977.958545 116898.976178 1228.463213
v 29977.958545 116898.976178 1228.463213
v 29977.958545 116898.976178 946.463213
v 30013.958545 116898.976178 946.463213
v 30013.958545 116898.976178 1228.463213
v 30013.958545 116898.976178 1228.463213
v 30013.958545 116898.976178 946.463213
v 30013.958545 116934.976178 946.463213
v 30013.958545 116934.976178 1228.463213
v 30013.958545 116934.976178 1228.463213
v 30013.958545 116934.976178 946.463213
v 29977.958545 116934.976178 946.463213
v 29977.958545 116934.976178 1228.463213
v 30116.665123 117188.926417 1228.858411
v 30116.665123 117152.926417 1228.858411
v 30080.665123 117152.926417 1228.858411
v 30080.665123 117188.926417 1228.858411
v 30080.665123 117188.926417 946.858411
v 30080.665123 117152.926417 946.858411
v 30116.665123 117152.926417 946.858411
v 30116.665123 117188.926417 946.858411
v 30080.665123 117188.926417 1228.858411
v 30080.665123 117188.926417 946.858411
v 30080.665123 117152.926417 946.858411
v 30080.665123 117152.926417 1228.858411
v 30080.665123 117152.926417 1228.858411
v 30080.665123 117152.926417 946.858411
v 30116.665123 117152.926417 946.858411
v 30116.665123 117152.926417 1228.858411
v 30116.665123 117152.926417 1228.858411
v 30116.665123 117152.926417 946.858411
v 30116.665123 117188.926417 946.858411
v 30116.665123 117188.926417 1228.858411
v 30116.665123 117188.926417 1228.858411
v 30116.665123 117188.926417 946.858411
v 30080.665123 117188.926417 946.858411
v 30080.665123 117188.926417 1228.858411
v 30219.371702 117442.876657 1229.253610
v 30219.371702 117406.876657 1229.253610
v 30183.371702 117406.876657 1229.253610
v 30183.371702 117442.876657 1229.253610
v 30183.371702 117442.876657 947.253610
v 30183.371702 117406.876657 947.253610
v 30219.371702 117406.876657 947.253610
v 30219.371702 117442.876657 947.253610
v 30183.371702 117442.876657 1229.253610
v 30183.371702 117442.876657 947.253610
v 30183.371702 117406.876657 947.253610
v 30183.371702 117406.876657 1229.253610
v 30183.371702 117406.876657 1229.253610
v 30183.371702 117406.876657 947.253610
v 30219.371702 117406.876657 947.253610
v 30219.371702 117406.876657 1229.253610
v 30219.371702 117406.876657 1229.253610
v 30219.371702 117406.876657 947.253610
v 30219.371702 117442.876657 947.253610
v 30219.371702 117442.876657 1229.253610
v 30219.371702 117442.876657 1229.253610
v 30219.371702 117442.876657 947.253610
v 30183.371702 117442.876657 947.253610
v 30183.371702 117442.876657 1229.253610
v 30322.078280 117696.826896 1229.648808
v 30322.078280 117660.826896 1229.648808
v 30286.078280 117660.826896 1229.648808
v 30286.078280 117696.826896 1229.648808
v 30286.078280 117696.826896 947.648808
v 30286.078280 117660.826896 947.648808
v 30322.078280 117660.826896 947.648808
v 30322.078280 117696.826896 947.648808
v 30286.078280 117696.826896 1229.648808
v 30286.078280 117696.826896 947.648808
v 30286.078280 117660.826896 947.648808
v 30286.078280 117660.826896 1229.648808
v 30286.078280 117660.826896 1229.648808
v 30286.078280 117660.826896 947.648808
v 30322.078280 117660.826896 947.648808
v 30322.078280 117660.826896 1229.648808
v 30322.078280 117660.826896 1229.648808
v 30322.078280 117660.826896 947.648808
v 30322.078280 117696.826896 947.648808
v 30322.078280 117696.826896 1229.648808
v 30322.078280 117696.826896 1229.648808
v 30322.078280 117696.826896 947.648808
v 30286.078280 117696.826896 947.648808
v 30286.078280 117696.826896 1229.648808
v 30424.784859 117950.777135 1230.044007
v 30424.784859 117914.777135 1230.044007
v 30388.784859 117914.777135 1230.044007
v 30388.784859 117950.777135 1230.044007
v 30388.784859 117950.777135 948.044007
v 30388.784859 117914.777135 948.044007
v 30424.784859 117914.777135 948.044007
v 30424.784859 117950.777135 948.044007
v 30388.784859 117950.777135 1230.044007
v 30388.784859 117950.777135 948.044007
v 30388.784859 117914.777135 948.044007
v 30388.784859 117914.777135 1230.044007
v 30388.784859 117914.777135 1230.044007
v 30388.784859 117914.777135 948.044007
v 30424.784859 117914.777135 948.044007
v 30424.784859 117914.777135 1230.044007
v 30424.784859 117914.777135 1230.044007
v 30424.784859 117914.777135 948.044007
v 30424.784859 117950.777135 948.044007
v 30424.784859 117950.777135 1230.044007
v 30424.784859 117950.777135 1230.044007
v 30424.784859 117950.777135 948.044007
v 30388.784859 117950.777135 948.044007
v 30388.784859 117950.777135 1230.044007
v 30527.491437 118204.727375 1230.439205
v 30527.491437 118168.727375 1230.439205
v 30491.491437 118168.727375 1230.439205
v 30491.491437 118204.727375 1230.439205
v 30491.491437 118204.727375 948.439205
v 30491.491437 118168.727375 948.439205
v 30527.491437 118168.727375 948.439205
v 30527.491437 118204.727375 948.439205
v 30491.491437 118204.727375 1230.439205
v 30491.491437 118204.727375 948.439205
v 30491.491437 118168.727375 948.439205
v 30491.491437 118168.727375 1230.439205
v 30491.491437 118168.727375 1230.439205
v 30491.491437 118168.727375 948.439205
v 30527.491437 118168.727375 948.439205
v 30527.491437 118168.727375 1230.439205
v 30527.491437 118168.727375 1230.439205
v 30527.491437 118168.727375 948.439205
v 30527.491437 118204.727375 948.439205
v 30527.491437 118204.727375 1230.439205
v 30527.491437 118204.727375 1230.439205
v 30527.491437 118204.727375 948.439205
v 30491.491437 118204.727375 948.439205
v 30491.491437 118204.727375 1230.439205
v 30630.534765 118458.902934 1230.834403
v 30630.534765 118422.902934 1230.834403
v 30594.534765 118422.902934 1230.834403
v 30594.534765 118458.902934 1230.834403
v 30594.534765 118458.902934 948.834403
v 30594.534765 118422.902934 948.834403
v 30630.534765 118422.902934 948.834403
v 30630.534765 118458.902934 948.834403
v 30594.534765 118458.902934 1230.834403
v 30594.534765 118458.902934 948.834403
v 30594.534765 118422.902934 948.834403
v 30594.534765 118422.902934 1230.834403
v 30594.534765 118422.902934 1230.834403
v 30594.534765 118422.902934 948.834403
v 30630.534765 118422.902934 948.834403
v 30630.534765 118422.902934 1230.834403
v 30630.534765 118422.902934 1230.834403
v 30630.534765 118422.902934 948.834403
v 30630.534765 118458.902934 948.834403
v 30630.534765 118458.902934 1230.834403
v 30630.534765 118458.902934 1230.834403
v 30630.534765 118458.902934 948.834403
v 30594.534765 118458.902934 948.834403
v 30594.534765 118458.902934 1230.834403
v 30733.525084 118712.738234 1231.229602
v 30733.525084 118676.738234 1231.229602
v 30697.525084 118676.738234 1231.229602
v 30697.525084 118712.738234 1231.229602
v 30697.525084 118712.738234 949.229602
v 30697.525084 118676.738234 949.229602
v 30733.525084 118676.738234 949.229602
v 30733.525084 118712.738234 949.229602
v 30697.525084 118712.738234 1231.229602
v 30697.525084 118712.738234 949.229602
v 30697.525084 118676.738234 949.229602
v 30697.525084 118676.738234 1231.229602
v 30697.525084 118676.738234 1231.229602
v 30697.525084 118676.738234 949.229602
v 30733.525084 118676.738234 949.229602
v 30733.525084 118676.738234 1231.229602
v 30733.525084 118676.738234 1231.229602
v 30733.525084 118676.738234 949.229602
v 30733.525084 118712.738234 949.229602
v 30733.525084 118712.738234 1231.229602
v 30733.525084 118712.738234 1231.229602
v 30733.525084 118712.738234 949.229602
v 30697.525084 118712.738234 949.229602
v 30697.525084 118712.738234 1231.229602
v 30836.515404 118966.573534 1231.624800
v 30836.515404 118930.573534 1231.624800
v 30800.515404 118930.573534 1231.624800
v 30800.515404 118966.573534 1231.624800
v 30800.515404 118966.573534 949.624800
v 30800.515404 118930.573534 949.624800
v 30836.515404 118930.573534 949.624800
v 30836.515404 118966.573534 949.624800
v 30800.515404 118966.573534 1231.624800
v 30800.515404 118966.573534 949.624800
v 30800.515404 118930.573534 949.624800
v 30800.515404 118930.573534 1231.624800
v 30800.515404 118930.573534 1231.624800
v 30800.515404 118930.573534 949.624800
v 30836.515404 118930.573534 949.624800
v 30836.515404 118930.573534 1231.624800
v 30836.515404 118930.573534 1231.624800
v 30836.515404 118930.573534 949.624800
v 30836.515404 118966.573534 949.624800
v 30836.515404 118966.573534 1231.624800
v 30836.515404 118966.573534 1231.624800
v 30836.515404 118966.573534 949.624800
v 30800.515404 118966.573534 949.624800
v 30800.515404 118966.573534 1231.624800
v 30939.505724 119220.408834 1232.019998
v 30939.505724 119184.408834 1232.019998
v 30903.505724 119184.408834 1232.019998
v 30903.505724 119220.408834 1232.019998
v 30903.505724 119220.408834 950.019998
v 30903.505724 119184.408834 950.019998
v 30939.505724 119184.408834 950.019998
v 30939.505724 119220.408834 950.019998
v 30903.505724 119220.408834 1232.019998
v 30903.505724 119220.408834 950.019998
v 30903.505724 119184.408834 950.019998
v 30903.505724 119184.408834 1232.019998
v 30903.505724 119184.408834 1232.019998
v 30903.505724 119184.408834 950.019998
v 30939.505724 119184.408834 950.019998
v 30939.505724 119184.408834 1232.019998
v 30939.505724 119184.408834 1232.019998
v 30939.505724 119184.408834 950.019998
v 30939.505724 119220.408834 950.019998
v 30939.505724 119220.408834 1232.019998
v 30939.505724 119220.408834 1232.019998
v 30939.505724 119220.408834 950.019998
v 30903.505724 119220.408834 950.019998
v 30903.505724 119220.408834 1232.019998
v 31042.496043 119474.244134 1232.415197
v 31042.496043 119438.244134 1232.415197
v 31006.496043 119438.244134 1232.415197
v 31006.496043 119474.244134 1232.415197
v 31006.496043 119474.244134 950.415197
v 31006.496043 119438.244134 950.415197
v 31042.496043 119438.244134 950.415197
v 31042.496043 119474.244134 950.415197
v 31006.496043 119474.244134 1232.415197
v 31006.496043 119474.244134 950.415197
v 31006.496043 119438.244134 950.415197
v 31006.496043 119438.244134 1232.415197
v 31006.496043 119438.244134 1232.415197
v 31006.496043 119438.244134 950.415197
v 31042.496043 119438.244134 950.415197
v 31042.496043 119438.244134 1232.415197
v 31042.496043 119438.244134 1232.415197
v 31042.496043 119438.244134 950.415197
v 31042.496043 119474.244134 950.415197
v 31042.496043 119474.244134 1232.415197
v 31042.496043 119474.244134 1232.415197
v 31042.496043 119474.244134 950.415197
v 31006.496043 119474.244134 950.415197
v 31006.496043 119474.244134 1232.415197
v 31145.486363 119728.079433 1232.810395
v 31145.486363 119692.079433 1232.810395
v 31109.486363 119692.079433 1232.810395
v 31109.486363 119728.079433 1232.810395
v 31109.486363 119728.079433 950.810395
v 31109.486363 119692.079433 950.810395
v 31145.486363 119692.079433 950.810395
v 31145.486363 119728.079433 950.810395
v 31109.486363 119728.079433 1232.810395
v 31109.486363 119728.079433 950.810395
v 31109.486363 119692.079433 950.810395
v 31109.486363 119692.079433 1232.810395
v 31109.486363 119692.079433 1232.810395
v 31109.486363 119692.079433 950.810395
v 31145.486363 119692.079433 950.810395
v 31145.486363 119692.079433 1232.810395
v 31145.486363 119692.079433 1232.810395
v 31145.486363 119692.079433 950.810395
v 31145.486363 119728.079433 950.810395
v 31145.486363 119728.079433 1232.810395
v 31145.486363 119728.079433 1232.810395
v 31145.486363 119728.079433 950.810395
v 31109.486363 119728.079433 950.810395
v 31109.486363 119728.079433 1232.810395
vt 149.042727 6.138364
vt 149.042727 6.138364
vt 148.862727 6.138364
vt 148.862727 6.138364
vt 148.862727 4.728364
vt 148.862727 4.728364
vt 149.042727 4.728364
vt 149.042727 4.728364
vt 148.862727 6.138364
vt 148.862727 4.728364
vt 148.862727 4.728364
vt 148.862727 6.138364
vt 148.862727 6.138364
vt 148.862727 4.728364
vt 149.042727 4.728364
vt 149.042727 6.138364
vt 149.042727 6.138364
vt 149.042727 4.728364
vt 149.042727 4.728364
vt 149.042727 6.138364
vt 149.042727 6.138364
vt 149.042727 4.728364
vt 148.862727 4.728364
vt 148.862727 6.138364
vt 149.556260 6.140340
vt 149.556260 6.140340
vt 149.376260 6.140340
vt 149.376260 6.140340
vt 149.376260 4.730340
vt 149.376260 4.730340
vt 149.556260 4.730340
vt 149.556260 4.730340
vt 149.376260 6.140340
vt 149.376260 4.730340
vt 149.376260 4.730340
vt 149.376260 6.140340
vt 149.376260 6.140340
vt 149.376260 4.730340
vt 149.556260 4.730340
vt 149.556260 6.140340
vt 149.556260 6.140340
vt 149.556260 4.730340
vt 149.556260 4.730340
vt 149.556260 6.140340
vt 149.556260 6.140340
vt 149.556260 4.730340
vt 149.376260 4.730340
vt 149.376260 6.140340
vt 150.069793 6.142316
vt 150.069793 6.142316
vt 149.889793 6.142316
vt 149.889793 6.142316
vt 149.889793 4.732316
vt 149.889793 4.732316
vt 150.069793 4.732316
vt 150.069793 4.732316
vt 149.889793 6.142316
vt 149.889793 4.732316
vt 149.889793 4.732316
vt 149.889793 6.142316
vt 149.889793 6.142316
vt 149.889793 4.732316
vt 150.069793 4.732316
vt 150.069793 6.142316
vt 150.069793 6.142316
vt 150.069793 4.732316
vt 150.069793 4.732316
vt 150.069793 6.142316
vt 150.069793 6.142316
vt 150.069793 4.732316
vt 149.889793 4.732316
vt 149.889793 6.142316
vt 150.583326 6.144292
vt 150.583326 6.144292
vt 150.403326 6.144292
vt 150.403326 6.144292
vt 150.403326 4.734292
vt 150.403326 4.734292
vt 150.583326 4.734292
vt 150.583326 4.734292
vt 150.403326 6.144292
vt 150.403326 4.734292
vt 150.403326 4.734292
vt 150.403326 6.144292
vt 150.403326 6.144292
vt 150.403326 4.734292
vt 150.583326 4.734292
vt 150.583326 6.144292
vt 150.583326 6.144292
vt 150.583326 4.734292
vt 150.583326 4.734292
vt 150.583326 6.144292
vt 150.583326 6.144292
vt 150.583326 4.734292
vt 150.403326 4.734292
vt 150.403326 6.144292
vt 151.096859 6.146268
vt 151.096859 6.146268
vt 150.916859 6.146268
vt 150.916859 6.146268
vt 150.916859 4.736268
vt 150.916859 4.736268
vt 151.096859 4.736268
vt 151.096859 4.736268
vt 150.916859 6.146268
vt 150.916859 4.736268
vt 150.916859 4.736268
vt 150.916859 6.146268
vt 150.916859 6.146268
vt 150.916859 4.736268
vt 151.096859 4.736268
vt 151.096859 6.146268
vt 151.096859 6.146268
vt 151.096859 4.736268
vt 151.096859 4.736268
vt 151.096859 6.146268
vt 151.096859 6.146268
vt 151.096859 4.736268
vt 150.916859 4.736268
vt 150.916859 6.146268
vt 151.610391 6.148244
vt 151.610391 6.148244
vt 151.430391 6.148244
vt 151.430391 6.148244
vt 151.430391 4.738244
vt 151.430391 4.738244
vt 151.610391 4.738244
vt 151.610391 4.738244
vt 151.430391 6.148244
vt 151.430391 4.738244
vt 151.430391 4.738244
vt 151.430391 6.148244
vt 151.430391 6.148244
vt 151.430391 4.738244
vt 151.610391 4.738244
vt 151.610391 6.148244
vt 151.610391 6.148244
vt 151.610391 4.738244
vt 151.610391 4.738244
vt 151.610391 6.148244
vt 151.610391 6.148244
vt 151.610391 4.738244
vt 151.430391 4.738244
vt 151.430391 6.148244
vt 152.123924 6.150220
vt 152.123924 6.150220
vt 151.943924 6.150220
vt 151.943924 6.150220
vt 151.943924 4.740220
vt 151.943924 4.740220
vt 152.123924 4.740220
vt 152.123924 4.740220
vt 151.943924 6.150220
vt 151.943924 4.740220
vt 151.943924 4.740220
vt 151.943924 6.150220
vt 151.943924 6.150220
vt 151.943924 4.740220
vt 152.123924 4.740220
vt 152.123924 6.150220
vt 152.123924 6.150220
vt 152.123924 4.740220
vt 152.123924 4.740220
vt 152.123924 6.150220
vt 152.123924 6.150220
vt 152.123924 4.740220
vt 151.943924 4.740220
vt 151.943924 6.150220
vt 152.637457 6.152196
vt 152.637457 6.152196
vt 152.457457 6.152196
vt 152.457457 6.152196
vt 152.457457 4.742196
vt 152.457457 4.742196
vt 152.637457 4.742196
vt 152.637457 4.742196
vt 152.457457 6.152196
vt 152.457457 4.742196
vt 152.457457 4.742196
vt 152.457457 6.152196
vt 152.457457 6.152196
vt 152.457457 4.742196
vt 152.637457 4.742196
vt 152.637457 6.152196
vt 152.637457 6.152196
vt 152.637457 4.742196
vt 152.637457 4.742196
vt 152.637457 6.152196
vt 152.637457 6.152196
vt 152.637457 4.742196
vt 152.457457 4.742196
vt 152.457457 6.152196
vt 153.152674 6.154172
vt 153.152674 6.154172
vt 152.972674 6.154172
vt 152.972674 6.154172
vt 152.972674 4.744172
vt 152.972674 4.744172
vt 153.152674 4.744172
vt 153.152674 4.744172
vt 152.972674 6.154172
vt 152.972674 4.744172
vt 152.972674 4.744172
vt 152.972674 6.154172
vt 152.972674 6.154172
vt 152.972674 4.744172
vt 153.152674 4.744172
vt 153.152674 6.154172
vt 153.152674 6.154172
vt 153.152674 4.744172
vt 153.152674 4.744172
vt 153.152674 6.154172
vt 153.152674 6.154172
vt 153.152674 4.744172
vt 152.972674 4.744172
vt 152.972674 6.154172
vt 153.667625 6.156148
vt 153.667625 6.156148
vt 153.487625 6.156148
vt 153.487625 6.156148
vt 153.487625 4.746148
vt 153.487625 4.746148
vt 153.667625 4.746148
vt 153.667625 4.746148
vt 153.487625 6.156148
vt 153.487625 4.746148
vt 153.487625 4.746148
vt 153.487625 6.156148
vt 153.487625 6.156148
vt 153.487625 4.746148
vt 153.667625 4.746148
vt 153.667625 6.156148
vt 153.667625 6.156148
vt 153.667625 4.746148
vt 153.667625 4.746148
vt 153.667625 6.156148
vt 153.667625 6.156148
vt 153.667625 4.746148
vt 153.487625 4.746148
vt 153.487625 6.156148
vt 154.182577 6.158124
vt 154.182577 6.158124
vt 154.002577 6.158124
vt 154.002577 6.158124
vt 154.002577 4.748124
vt 154.002577 4.748124
vt 154.182577 4.748124
vt 154.182577 4.748124
vt 154.002577 6.158124
vt 154.002577 4.748124
vt 154.002577 4.748124
vt 154.002577 6.158124
vt 154.002577 6.158124
vt 154.002577 4.748124
vt 154.182577 4.748124
vt 154.182577 6.158124
vt 154.182577 6.158124
vt 154.182577 4.748124
vt 154.182577 4.748124
vt 154.182577 6.158124
vt 154.182577 6.158124
vt 154.182577 4.748124
vt 154.002577 4.748124
vt 154.002577 6.158124
vt 154.697529 6.160100
vt 154.697529 6.160100
vt 154.517529 6.160100
vt 154.517529 6.160100
vt 154.517529 4.750100
vt 154.517529 4.750100
vt 154.697529 4.750100
vt 154.697529 4.750100
vt 154.517529 6.160100
vt 154.517529 4.750100
vt 154.517529 4.750100
vt 154.517529 6.160100
vt 154.517529 6.160100
vt 154.517529 4.750100
vt 154.697529 4.750100
vt 154.697529 6.160100
vt 154.697529 6.160100
vt 154.697529 4.750100
vt 154.697529 4.750100
vt 154.697529 6.160100
vt 154.697529 6.160100
vt 154.697529 4.750100
vt 154.517529 4.750100
vt 154.517529 6.160100
vt 155.212480 6.162076
vt 155.212480 6.162076
vt 155.032480 6.162076
vt 155.032480 6.162076
vt 155.032480 4.752076
vt 155.032480 4.752076
vt 155.212480 4.752076
vt 155.212480 4.752076
vt 155.032480 6.162076
vt 155.032480 4.752076
vt 155.032480 4.752076
vt 155.032480 6.162076
vt 155.032480 6.162076
vt 155.032480 4.752076
vt 155.212480 4.752076
vt 155.212480 6.162076
vt 155.212480 6.162076
vt 155.212480 4.752076
vt 155.212480 4.752076
vt 155.212480 6.162076
vt 155.212480 6.162076
vt 155.212480 4.752076
vt 155.032480 4.752076
vt 155.032480 6.162076
vt 155.727432 6.164052
vt 155.727432 6.164052
vt 155.547432 6.164052
vt 155.547432 6.164052
vt 155.547432 4.754052
vt 155.547432 4.754052
vt 155.727432 4.754052
vt 155.727432 4.754052
vt 155.547432 6.164052
vt 155.547432 4.754052
vt 155.547432 4.754052
vt 155.547432 6.164052
vt 155.547432 6.164052
vt 155.547432 4.754052
vt 155.727432 4.754052
vt 155.727432 6.164052
vt 155.727432 6.164052
vt 155.727432 4.754052
vt 155.727432 4.754052
vt 155.727432 6.164052
vt 155.727432 6.164052
vt 155.727432 4.754052
vt 155.547432 4.754052
vt 155.547432 6.164052
f 3/3 2/2 1/1
f 4/4 3/3 1/1
f 7/7 6/6 5/5
f 8/8 7/7 5/5
f 11/11 10/10 9/9
f 12/12 11/11 9/9
f 15/15 14/14 13/13
f 16/16 15/15 13/13
f 19/19 18/18 17/17
f 20/20 19/19 17/17
f 23/23 22/22 21/21
f 24/24 23/23 21/21
f 27/27 26/26 25/25
f 28/28 27/27 25/25
f 31/31 30/30 29/29
f 32/32 31/31 29/29
f 35/35 34/34 33/33
f 36/36 35/35 33/33
f 39/39 38/38 37/37
f 40/40 39/39 37/37
f 43/43 42/42 41/41
f 44/44 43/43 41/41
f 47/47 46/46 45/45
f 48/48 47/47 45/45
f 51/51 50/50 49/49
f 52/52 51/51 49/49
f 55/55 54/54 53/53
f 56/56 55/55 53/53
f 59/59 58/58 57/57
f 60/60 59/59 57/57
f 63/63 62/62 61/61
f 64/64 63/63 61/61
f 67/67 66/66 65/65
f 68/68 67/67 65/65
f 71/71 70/70 69/69
f 72/72 71/71 69/69
f 75/75 74/74 73/73
f 76/76 75/75 73/73
f 79/79 78/78 77/77
f 80/80 79/79 77/77
f 83/83 82/82 81/81
f 84/84 83/83 81/81
f 87/87 86/86 85/85
f 88/88 87/87 85/85
f 91/91 90/90 89/89
f 92/92 91/91 89/89
f 95/95 94/94 93/93
f 96/96 95/95 93/93
f 99/99 98/98 97/97
f 100/100 99/99 97/97
f 103/103 102/102 101/101
f 104/104 103/103 101/101
f 107/107 106/106 105/105
f 108/108 107/107 105/105
f 111/111 110/110 109/109
f 112/112 111/111 109/109
f 115/115 114/114 113/113
f 116/116 115/115 113/113
f 119/119 118/118 117/117
f 120/120 119/119 117/117
f 123/123 122/122 121/121
f 124/124 123/123 121/121
f 127/127 126/126 125/125
f 128/128 127/127 125/125
f 131/131 130/130 129/129
f 132/132 131/131 129/129
f 135/135 134/134 133/133
f 136/136 135/135 133/133
f 139/139 138/138 137/137
f 140/140 139/139 137/137
f 143/143 142/142 141/141
f 144/144 143/143 141/141
f 147/147 146/146 145/145
f 148/148 147/147 145/145
f 151/151 150/150 149/149
f 152/152 151/151 149/149
f 155/155 154/154 153/153
f 156/156 155/155 153/153
f 159/159 158/158 157/157
f 160/160 159/159 157/157
f 163/163 162/162 161/161
f 164/164 163/163 161/161
f 167/167 166/166 165/165
f 168/168 167/167 165/165
f 171/171 170/170 169/169
f 172/172 171/171 169/169
f 175/175 174/174 173/173
f 176/176 175/175 173/173
f 179/179 178/178 177/177
f 180/180 179/179 177/177
f 183/183 182/182 181/181
f 184/184 183/183 181/181
f 187/187 186/186 185/185
f 188/188 187/187 185/185
f 191/191 190/190 189/189
f 192/192 191/191 189/189
f 195/195 194/194 193/193
f 196/196 195/195 193/193
f 199/199 198/198 197/197
f 200/200 199/199 197/197
f 203/203 202/202 201/201
f 204/204 203/203 201/201
f 207/207 206/206 205/205
f 208/208 207/207 205/205
f 211/211 210/210 209/209
f 212/212 211/211 209/209
f 215/215 214/214 213/213
f 216/216 215/215 213/213
f 219/219 218/218 217/217
f 220/220 219/219 217/217
f 223/223 222/222 221/221
f 224/224 223/223 221/221
f 227/227 226/226 225/225
f 228/228 227/227 225/225
f 231/231 230/230 229/229
f 232/232 231/231 229/229
f 235/235 234/234 233/233
f 236/236 235/235 233/233
f 239/239 238/238 237/237
f 240/240 239/239 237/237
f 243/243 242/242 241/241
f 244/244 243/243 241/241
f 247/247 246/246 245/245
f 248/248 247/247 245/245
f 251/251 250/250 249/249
f 252/252 251/251 249/249
f 255/255 254/254 253/253
f 256/256 255/255 253/253
f 259/259 258/258 257/257
f 260/260 259/259 257/257
f 263/263 262/262 261/261
f 264/264 263/263 261/261
f 267/267 266/266 265/265
f 268/268 267/267 265/265
f 271/271 270/270 269/269
f 272/272 271/271 269/269
f 275/275 274/274 273/273
f 276/276 275/275 273/273
f 279/279 278/278 277/277
f 280/280 279/279 277/277
f 283/283 282/282 281/281
f 284/284 283/283 281/281
f 287/287 286/286 285/285
f 288/288 287/287 285/285
f 291/291 290/290 289/289
f 292/292 291/291 289/289
f 295/295 294/294 293/293
f 296/296 295/295 293/293
f 299/299 298/298 297/297
f 300/300 299/299 297/297
f 303/303 302/302 301/301
f 304/304 303/303 301/301
f 307/307 306/306 305/305
f 308/308 307/307 305/305
f 311/311 310/310 309/309
f 312/312 311/311 309/309
f 315/315 314/314 313/313
f 316/316 315/315 313/313
f 319/319 318/318 317/317
f 320/320 319/319 317/317
f 323/323 322/322 321/321
f 324/324 323/323 321/321
f 327/327 326/326 325/325
f 328/328 327/327 325/325
f 331/331 330/330 329/329
f 332/332 331/331 329/329
f 335/335 334/334 333/333
f 336/336 335/335 333/333
