# Authored arcade structure on OSM alignment; ODbL
o KrogTunnel_Road
v 29601.196062 116419.311059 945.005221
v 30050.088906 115570.726817 945.005221
v 29946.443504 115515.899404 944.836061
v 29497.550660 116364.483645 944.836061
v 29497.550660 116364.483645 924.836061
v 29946.443504 115515.899404 924.836061
v 30050.088906 115570.726817 925.005221
v 29601.196062 116419.311059 925.005221
v 29497.550660 116364.483645 944.836061
v 29497.550660 116364.483645 924.836061
v 29946.443504 115515.899404 924.836061
v 29946.443504 115515.899404 944.836061
v 29946.443504 115515.899404 944.836061
v 29946.443504 115515.899404 924.836061
v 30050.088906 115570.726817 925.005221
v 30050.088906 115570.726817 945.005221
v 30050.088906 115570.726817 945.005221
v 30050.088906 115570.726817 925.005221
v 29601.196062 116419.311059 925.005221
v 29601.196062 116419.311059 945.005221
v 29601.196062 116419.311059 945.005221
v 29601.196062 116419.311059 925.005221
v 29497.550660 116364.483645 924.836061
v 29497.550660 116364.483645 944.836061
v 29364.352147 116208.764568 945.174380
v 30254.321975 115848.828873 945.174380
v 30050.088906 115570.726817 945.005221
v 29601.196062 116419.311059 945.005221
v 29601.196062 116419.311059 925.005221
v 30050.088906 115570.726817 925.005221
v 30254.321975 115848.828873 925.174380
v 29364.352147 116208.764568 925.174380
v 29601.196062 116419.311059 945.005221
v 29601.196062 116419.311059 925.005221
v 30050.088906 115570.726817 925.005221
v 30050.088906 115570.726817 945.005221
v 30050.088906 115570.726817 945.005221
v 30050.088906 115570.726817 925.005221
v 30254.321975 115848.828873 925.174380
v 30254.321975 115848.828873 945.174380
v 30254.321975 115848.828873 945.174380
v 30254.321975 115848.828873 925.174380
v 29364.352147 116208.764568 925.174380
v 29364.352147 116208.764568 945.174380
v 29364.352147 116208.764568 945.174380
v 29364.352147 116208.764568 925.174380
v 29601.196062 116419.311059 925.005221
v 29601.196062 116419.311059 945.005221
v 29408.314405 116317.464773 945.343540
v 30298.284234 115957.529078 945.343540
v 30254.321975 115848.828873 945.174380
v 29364.352147 116208.764568 945.174380
v 29364.352147 116208.764568 925.174380
v 30254.321975 115848.828873 925.174380
v 30298.284234 115957.529078 925.343540
v 29408.314405 116317.464773 925.343540
v 29364.352147 116208.764568 945.174380
v 29364.352147 116208.764568 925.174380
v 30254.321975 115848.828873 925.174380
v 30254.321975 115848.828873 945.174380
v 30254.321975 115848.828873 945.174380
v 30254.321975 115848.828873 925.174380
v 30298.284234 115957.529078 925.343540
v 30298.284234 115957.529078 945.343540
v 30298.284234 115957.529078 945.343540
v 30298.284234 115957.529078 925.343540
v 29408.314405 116317.464773 925.343540
v 29408.314405 116317.464773 945.343540
v 29408.314405 116317.464773 945.343540
v 29408.314405 116317.464773 925.343540
v 29364.352147 116208.764568 925.174380
v 29364.352147 116208.764568 945.174380
v 29452.276664 116426.164978 945.512700
v 30342.246492 116066.229283 945.512700
v 30298.284234 115957.529078 945.343540
v 29408.314405 116317.464773 945.343540
v 29408.314405 116317.464773 925.343540
v 30298.284234 115957.529078 925.343540
v 30342.246492 116066.229283 925.512700
v 29452.276664 116426.164978 925.512700
v 29408.314405 116317.464773 945.343540
v 29408.314405 116317.464773 925.343540
v 30298.284234 115957.529078 925.343540
v 30298.284234 115957.529078 945.343540
v 30298.284234 115957.529078 945.343540
v 30298.284234 115957.529078 925.343540
v 30342.246492 116066.229283 925.512700
v 30342.246492 116066.229283 945.512700
v 30342.246492 116066.229283 945.512700
v 30342.246492 116066.229283 925.512700
v 29452.276664 116426.164978 925.512700
v 29452.276664 116426.164978 945.512700
v 29452.276664 116426.164978 945.512700
v 29452.276664 116426.164978 925.512700
v 29408.314405 116317.464773 925.343540
v 29408.314405 116317.464773 945.343540
v 29496.238923 116534.865183 945.681859
v 30386.208751 116174.929488 945.681859
v 30342.246492 116066.229283 945.512700
v 29452.276664 116426.164978 945.512700
v 29452.276664 116426.164978 925.512700
v 30342.246492 116066.229283 925.512700
v 30386.208751 116174.929488 925.681859
v 29496.238923 116534.865183 925.681859
v 29452.276664 116426.164978 945.512700
v 29452.276664 116426.164978 925.512700
v 30342.246492 116066.229283 925.512700
v 30342.246492 116066.229283 945.512700
v 30342.246492 116066.229283 945.512700
v 30342.246492 116066.229283 925.512700
v 30386.208751 116174.929488 925.681859
v 30386.208751 116174.929488 945.681859
v 30386.208751 116174.929488 945.681859
v 30386.208751 116174.929488 925.681859
v 29496.238923 116534.865183 925.681859
v 29496.238923 116534.865183 945.681859
v 29496.238923 116534.865183 945.681859
v 29496.238923 116534.865183 925.681859
v 29452.276664 116426.164978 925.512700
v 29452.276664 116426.164978 945.512700
v 29540.201181 116643.565387 945.851019
v 30430.171009 116283.629692 945.851019
v 30386.208751 116174.929488 945.681859
v 29496.238923 116534.865183 945.681859
v 29496.238923 116534.865183 925.681859
v 30386.208751 116174.929488 925.681859
v 30430.171009 116283.629692 925.851019
v 29540.201181 116643.565387 925.851019
v 29496.238923 116534.865183 945.681859
v 29496.238923 116534.865183 925.681859
v 30386.208751 116174.929488 925.681859
v 30386.208751 116174.929488 945.681859
v 30386.208751 116174.929488 945.681859
v 30386.208751 116174.929488 925.681859
v 30430.171009 116283.629692 925.851019
v 30430.171009 116283.629692 945.851019
v 30430.171009 116283.629692 945.851019
v 30430.171009 116283.629692 925.851019
v 29540.201181 116643.565387 925.851019
v 29540.201181 116643.565387 945.851019
v 29540.201181 116643.565387 945.851019
v 29540.201181 116643.565387 925.851019
v 29496.238923 116534.865183 925.681859
v 29496.238923 116534.865183 945.681859
v 29584.163440 116752.265592 946.020179
v 30474.133268 116392.329897 946.020179
v 30430.171009 116283.629692 945.851019
v 29540.201181 116643.565387 945.851019
v 29540.201181 116643.565387 925.851019
v 30430.171009 116283.629692 925.851019
v 30474.133268 116392.329897 926.020179
v 29584.163440 116752.265592 926.020179
v 29540.201181 116643.565387 945.851019
v 29540.201181 116643.565387 925.851019
v 30430.171009 116283.629692 925.851019
v 30430.171009 116283.629692 945.851019
v 30430.171009 116283.629692 945.851019
v 30430.171009 116283.629692 925.851019
v 30474.133268 116392.329897 926.020179
v 30474.133268 116392.329897 946.020179
v 30474.133268 116392.329897 946.020179
v 30474.133268 116392.329897 926.020179
v 29584.163440 116752.265592 926.020179
v 29584.163440 116752.265592 946.020179
v 29584.163440 116752.265592 946.020179
v 29584.163440 116752.265592 926.020179
v 29540.201181 116643.565387 925.851019
v 29540.201181 116643.565387 945.851019
v 29628.125698 116860.965797 946.189338
v 30518.095527 116501.030102 946.189338
v 30474.133268 116392.329897 946.020179
v 29584.163440 116752.265592 946.020179
v 29584.163440 116752.265592 926.020179
v 30474.133268 116392.329897 926.020179
v 30518.095527 116501.030102 926.189338
v 29628.125698 116860.965797 926.189338
v 29584.163440 116752.265592 946.020179
v 29584.163440 116752.265592 926.020179
v 30474.133268 116392.329897 926.020179
v 30474.133268 116392.329897 946.020179
v 30474.133268 116392.329897 946.020179
v 30474.133268 116392.329897 926.020179
v 30518.095527 116501.030102 926.189338
v 30518.095527 116501.030102 946.189338
v 30518.095527 116501.030102 946.189338
v 30518.095527 116501.030102 926.189338
v 29628.125698 116860.965797 926.189338
v 29628.125698 116860.965797 946.189338
v 29628.125698 116860.965797 946.189338
v 29628.125698 116860.965797 926.189338
v 29584.163440 116752.265592 926.020179
v 29584.163440 116752.265592 946.020179
v 29672.087957 116969.666002 946.358498
v 30562.057785 116609.730306 946.358498
v 30518.095527 116501.030102 946.189338
v 29628.125698 116860.965797 946.189338
v 29628.125698 116860.965797 926.189338
v 30518.095527 116501.030102 926.189338
v 30562.057785 116609.730306 926.358498
v 29672.087957 116969.666002 926.358498
v 29628.125698 116860.965797 946.189338
v 29628.125698 116860.965797 926.189338
v 30518.095527 116501.030102 926.189338
v 30518.095527 116501.030102 946.189338
v 30518.095527 116501.030102 946.189338
v 30518.095527 116501.030102 926.189338
v 30562.057785 116609.730306 926.358498
v 30562.057785 116609.730306 946.358498
v 30562.057785 116609.730306 946.358498
v 30562.057785 116609.730306 926.358498
v 29672.087957 116969.666002 926.358498
v 29672.087957 116969.666002 946.358498
v 29672.087957 116969.666002 946.358498
v 29672.087957 116969.666002 926.358498
v 29628.125698 116860.965797 926.189338
v 29628.125698 116860.965797 946.189338
v 29716.050216 117078.366206 946.527658
v 30606.020044 116718.430511 946.527658
v 30562.057785 116609.730306 946.358498
v 29672.087957 116969.666002 946.358498
v 29672.087957 116969.666002 926.358498
v 30562.057785 116609.730306 926.358498
v 30606.020044 116718.430511 926.527658
v 29716.050216 117078.366206 926.527658
v 29672.087957 116969.666002 946.358498
v 29672.087957 116969.666002 926.358498
v 30562.057785 116609.730306 926.358498
v 30562.057785 116609.730306 946.358498
v 30562.057785 116609.730306 946.358498
v 30562.057785 116609.730306 926.358498
v 30606.020044 116718.430511 926.527658
v 30606.020044 116718.430511 946.527658
v 30606.020044 116718.430511 946.527658
v 30606.020044 116718.430511 926.527658
v 29716.050216 117078.366206 926.527658
v 29716.050216 117078.366206 946.527658
v 29716.050216 117078.366206 946.527658
v 29716.050216 117078.366206 926.527658
v 29672.087957 116969.666002 926.358498
v 29672.087957 116969.666002 946.358498
v 29760.012474 117187.066411 946.696817
v 30649.982303 116827.130716 946.696817
v 30606.020044 116718.430511 946.527658
v 29716.050216 117078.366206 946.527658
v 29716.050216 117078.366206 926.527658
v 30606.020044 116718.430511 926.527658
v 30649.982303 116827.130716 926.696817
v 29760.012474 117187.066411 926.696817
v 29716.050216 117078.366206 946.527658
v 29716.050216 117078.366206 926.527658
v 30606.020044 116718.430511 926.527658
v 30606.020044 116718.430511 946.527658
v 30606.020044 116718.430511 946.527658
v 30606.020044 116718.430511 926.527658
v 30649.982303 116827.130716 926.696817
v 30649.982303 116827.130716 946.696817
v 30649.982303 116827.130716 946.696817
v 30649.982303 116827.130716 926.696817
v 29760.012474 117187.066411 926.696817
v 29760.012474 117187.066411 946.696817
v 29760.012474 117187.066411 946.696817
v 29760.012474 117187.066411 926.696817
v 29716.050216 117078.366206 926.527658
v 29716.050216 117078.366206 946.527658
v 29803.974733 117295.766616 946.865977
v 30693.944561 116935.830921 946.865977
v 30649.982303 116827.130716 946.696817
v 29760.012474 117187.066411 946.696817
v 29760.012474 117187.066411 926.696817
v 30649.982303 116827.130716 926.696817
v 30693.944561 116935.830921 926.865977
v 29803.974733 117295.766616 926.865977
v 29760.012474 117187.066411 946.696817
v 29760.012474 117187.066411 926.696817
v 30649.982303 116827.130716 926.696817
v 30649.982303 116827.130716 946.696817
v 30649.982303 116827.130716 946.696817
v 30649.982303 116827.130716 926.696817
v 30693.944561 116935.830921 926.865977
v 30693.944561 116935.830921 946.865977
v 30693.944561 116935.830921 946.865977
v 30693.944561 116935.830921 926.865977
v 29803.974733 117295.766616 926.865977
v 29803.974733 117295.766616 946.865977
v 29803.974733 117295.766616 946.865977
v 29803.974733 117295.766616 926.865977
v 29760.012474 117187.066411 926.696817
v 29760.012474 117187.066411 946.696817
v 29847.936991 117404.466820 947.035137
v 30737.906820 117044.531125 947.035137
v 30693.944561 116935.830921 946.865977
v 29803.974733 117295.766616 946.865977
v 29803.974733 117295.766616 926.865977
v 30693.944561 116935.830921 926.865977
v 30737.906820 117044.531125 927.035137
v 29847.936991 117404.466820 927.035137
v 29803.974733 117295.766616 946.865977
v 29803.974733 117295.766616 926.865977
v 30693.944561 116935.830921 926.865977
v 30693.944561 116935.830921 946.865977
v 30693.944561 116935.830921 946.865977
v 30693.944561 116935.830921 926.865977
v 30737.906820 117044.531125 927.035137
v 30737.906820 117044.531125 947.035137
v 30737.906820 117044.531125 947.035137
v 30737.906820 117044.531125 927.035137
v 29847.936991 117404.466820 927.035137
v 29847.936991 117404.466820 947.035137
v 29847.936991 117404.466820 947.035137
v 29847.936991 117404.466820 927.035137
v 29803.974733 117295.766616 926.865977
v 29803.974733 117295.766616 946.865977
v 29891.899250 117513.167025 947.204297
v 30781.869078 117153.231330 947.204297
v 30737.906820 117044.531125 947.035137
v 29847.936991 117404.466820 947.035137
v 29847.936991 117404.466820 927.035137
v 30737.906820 117044.531125 927.035137
v 30781.869078 117153.231330 927.204297
v 29891.899250 117513.167025 927.204297
v 29847.936991 117404.466820 947.035137
v 29847.936991 117404.466820 927.035137
v 30737.906820 117044.531125 927.035137
v 30737.906820 117044.531125 947.035137
v 30737.906820 117044.531125 947.035137
v 30737.906820 117044.531125 927.035137
v 30781.869078 117153.231330 927.204297
v 30781.869078 117153.231330 947.204297
v 30781.869078 117153.231330 947.204297
v 30781.869078 117153.231330 927.204297
v 29891.899250 117513.167025 927.204297
v 29891.899250 117513.167025 947.204297
v 29891.899250 117513.167025 947.204297
v 29891.899250 117513.167025 927.204297
v 29847.936991 117404.466820 927.035137
v 29847.936991 117404.466820 947.035137
v 29935.861509 117621.867230 947.373456
v 30825.831337 117261.931535 947.373456
v 30781.869078 117153.231330 947.204297
v 29891.899250 117513.167025 947.204297
v 29891.899250 117513.167025 927.204297
v 30781.869078 117153.231330 927.204297
v 30825.831337 117261.931535 927.373456
v 29935.861509 117621.867230 927.373456
v 29891.899250 117513.167025 947.204297
v 29891.899250 117513.167025 927.204297
v 30781.869078 117153.231330 927.204297
v 30781.869078 117153.231330 947.204297
v 30781.869078 117153.231330 947.204297
v 30781.869078 117153.231330 927.204297
v 30825.831337 117261.931535 927.373456
v 30825.831337 117261.931535 947.373456
v 30825.831337 117261.931535 947.373456
v 30825.831337 117261.931535 927.373456
v 29935.861509 117621.867230 927.373456
v 29935.861509 117621.867230 947.373456
v 29935.861509 117621.867230 947.373456
v 29935.861509 117621.867230 927.373456
v 29891.899250 117513.167025 927.204297
v 29891.899250 117513.167025 947.204297
v 29979.823767 117730.567435 947.542616
v 30869.793596 117370.631740 947.542616
v 30825.831337 117261.931535 947.373456
v 29935.861509 117621.867230 947.373456
v 29935.861509 117621.867230 927.373456
v 30825.831337 117261.931535 927.373456
v 30869.793596 117370.631740 927.542616
v 29979.823767 117730.567435 927.542616
v 29935.861509 117621.867230 947.373456
v 29935.861509 117621.867230 927.373456
v 30825.831337 117261.931535 927.373456
v 30825.831337 117261.931535 947.373456
v 30825.831337 117261.931535 947.373456
v 30825.831337 117261.931535 927.373456
v 30869.793596 117370.631740 927.542616
v 30869.793596 117370.631740 947.542616
v 30869.793596 117370.631740 947.542616
v 30869.793596 117370.631740 927.542616
v 29979.823767 117730.567435 927.542616
v 29979.823767 117730.567435 947.542616
v 29979.823767 117730.567435 947.542616
v 29979.823767 117730.567435 927.542616
v 29935.861509 117621.867230 927.373456
v 29935.861509 117621.867230 947.373456
v 30023.786026 117839.267639 947.711776
v 30913.755854 117479.331944 947.711776
v 30869.793596 117370.631740 947.542616
v 29979.823767 117730.567435 947.542616
v 29979.823767 117730.567435 927.542616
v 30869.793596 117370.631740 927.542616
v 30913.755854 117479.331944 927.711776
v 30023.786026 117839.267639 927.711776
v 29979.823767 117730.567435 947.542616
v 29979.823767 117730.567435 927.542616
v 30869.793596 117370.631740 927.542616
v 30869.793596 117370.631740 947.542616
v 30869.793596 117370.631740 947.542616
v 30869.793596 117370.631740 927.542616
v 30913.755854 117479.331944 927.711776
v 30913.755854 117479.331944 947.711776
v 30913.755854 117479.331944 947.711776
v 30913.755854 117479.331944 927.711776
v 30023.786026 117839.267639 927.711776
v 30023.786026 117839.267639 947.711776
v 30023.786026 117839.267639 947.711776
v 30023.786026 117839.267639 927.711776
v 29979.823767 117730.567435 927.542616
v 29979.823767 117730.567435 947.542616
v 30067.748284 117947.967844 947.880935
v 30957.718113 117588.032149 947.880935
v 30913.755854 117479.331944 947.711776
v 30023.786026 117839.267639 947.711776
v 30023.786026 117839.267639 927.711776
v 30913.755854 117479.331944 927.711776
v 30957.718113 117588.032149 927.880935
v 30067.748284 117947.967844 927.880935
v 30023.786026 117839.267639 947.711776
v 30023.786026 117839.267639 927.711776
v 30913.755854 117479.331944 927.711776
v 30913.755854 117479.331944 947.711776
v 30913.755854 117479.331944 947.711776
v 30913.755854 117479.331944 927.711776
v 30957.718113 117588.032149 927.880935
v 30957.718113 117588.032149 947.880935
v 30957.718113 117588.032149 947.880935
v 30957.718113 117588.032149 927.880935
v 30067.748284 117947.967844 927.880935
v 30067.748284 117947.967844 947.880935
v 30067.748284 117947.967844 947.880935
v 30067.748284 117947.967844 927.880935
v 30023.786026 117839.267639 927.711776
v 30023.786026 117839.267639 947.711776
v 30111.710543 118056.668049 948.050095
v 31001.680371 117696.732354 948.050095
v 30957.718113 117588.032149 947.880935
v 30067.748284 117947.967844 947.880935
v 30067.748284 117947.967844 927.880935
v 30957.718113 117588.032149 927.880935
v 31001.680371 117696.732354 928.050095
v 30111.710543 118056.668049 928.050095
v 30067.748284 117947.967844 947.880935
v 30067.748284 117947.967844 927.880935
v 30957.718113 117588.032149 927.880935
v 30957.718113 117588.032149 947.880935
v 30957.718113 117588.032149 947.880935
v 30957.718113 117588.032149 927.880935
v 31001.680371 117696.732354 928.050095
v 31001.680371 117696.732354 948.050095
v 31001.680371 117696.732354 948.050095
v 31001.680371 117696.732354 928.050095
v 30111.710543 118056.668049 928.050095
v 30111.710543 118056.668049 948.050095
v 30111.710543 118056.668049 948.050095
v 30111.710543 118056.668049 928.050095
v 30067.748284 117947.967844 927.880935
v 30067.748284 117947.967844 947.880935
v 30155.672802 118165.368254 948.219255
v 31045.642630 117805.432558 948.219255
v 31001.680371 117696.732354 948.050095
v 30111.710543 118056.668049 948.050095
v 30111.710543 118056.668049 928.050095
v 31001.680371 117696.732354 928.050095
v 31045.642630 117805.432558 928.219255
v 30155.672802 118165.368254 928.219255
v 30111.710543 118056.668049 948.050095
v 30111.710543 118056.668049 928.050095
v 31001.680371 117696.732354 928.050095
v 31001.680371 117696.732354 948.050095
v 31001.680371 117696.732354 948.050095
v 31001.680371 117696.732354 928.050095
v 31045.642630 117805.432558 928.219255
v 31045.642630 117805.432558 948.219255
v 31045.642630 117805.432558 948.219255
v 31045.642630 117805.432558 928.219255
v 30155.672802 118165.368254 928.219255
v 30155.672802 118165.368254 948.219255
v 30155.672802 118165.368254 948.219255
v 30155.672802 118165.368254 928.219255
v 30111.710543 118056.668049 928.050095
v 30111.710543 118056.668049 948.050095
v 30199.635060 118274.068458 948.388414
v 31089.604889 117914.132763 948.388414
v 31045.642630 117805.432558 948.219255
v 30155.672802 118165.368254 948.219255
v 30155.672802 118165.368254 928.219255
v 31045.642630 117805.432558 928.219255
v 31089.604889 117914.132763 928.388414
v 30199.635060 118274.068458 928.388414
v 30155.672802 118165.368254 948.219255
v 30155.672802 118165.368254 928.219255
v 31045.642630 117805.432558 928.219255
v 31045.642630 117805.432558 948.219255
v 31045.642630 117805.432558 948.219255
v 31045.642630 117805.432558 928.219255
v 31089.604889 117914.132763 928.388414
v 31089.604889 117914.132763 948.388414
v 31089.604889 117914.132763 948.388414
v 31089.604889 117914.132763 928.388414
v 30199.635060 118274.068458 928.388414
v 30199.635060 118274.068458 948.388414
v 30199.635060 118274.068458 948.388414
v 30199.635060 118274.068458 928.388414
v 30155.672802 118165.368254 928.219255
v 30155.672802 118165.368254 948.219255
v 30243.869581 118383.405954 948.557574
v 31133.436603 118022.475886 948.557574
v 31089.604889 117914.132763 948.388414
v 30199.635060 118274.068458 948.388414
v 30199.635060 118274.068458 928.388414
v 31089.604889 117914.132763 928.388414
v 31133.436603 118022.475886 928.557574
v 30243.869581 118383.405954 928.557574
v 30199.635060 118274.068458 948.388414
v 30199.635060 118274.068458 928.388414
v 31089.604889 117914.132763 928.388414
v 31089.604889 117914.132763 948.388414
v 31089.604889 117914.132763 948.388414
v 31089.604889 117914.132763 928.388414
v 31133.436603 118022.475886 928.557574
v 31133.436603 118022.475886 948.557574
v 31133.436603 118022.475886 948.557574
v 31133.436603 118022.475886 928.557574
v 30243.869581 118383.405954 928.557574
v 30243.869581 118383.405954 948.557574
v 30243.869581 118383.405954 948.557574
v 30243.869581 118383.405954 928.557574
v 30199.635060 118274.068458 928.388414
v 30199.635060 118274.068458 948.388414
v 30287.953292 118492.056960 948.726734
v 31177.520314 118131.126892 948.726734
v 31133.436603 118022.475886 948.557574
v 30243.869581 118383.405954 948.557574
v 30243.869581 118383.405954 928.557574
v 31133.436603 118022.475886 928.557574
v 31177.520314 118131.126892 928.726734
v 30287.953292 118492.056960 928.726734
v 30243.869581 118383.405954 948.557574
v 30243.869581 118383.405954 928.557574
v 31133.436603 118022.475886 928.557574
v 31133.436603 118022.475886 948.557574
v 31133.436603 118022.475886 948.557574
v 31133.436603 118022.475886 928.557574
v 31177.520314 118131.126892 928.726734
v 31177.520314 118131.126892 948.726734
v 31177.520314 118131.126892 948.726734
v 31177.520314 118131.126892 928.726734
v 30287.953292 118492.056960 928.726734
v 30287.953292 118492.056960 948.726734
v 30287.953292 118492.056960 948.726734
v 30287.953292 118492.056960 928.726734
v 30243.869581 118383.405954 928.557574
v 30243.869581 118383.405954 948.557574
v 30332.037002 118600.707966 948.895893
v 31221.604024 118239.777898 948.895893
v 31177.520314 118131.126892 948.726734
v 30287.953292 118492.056960 948.726734
v 30287.953292 118492.056960 928.726734
v 31177.520314 118131.126892 928.726734
v 31221.604024 118239.777898 928.895893
v 30332.037002 118600.707966 928.895893
v 30287.953292 118492.056960 948.726734
v 30287.953292 118492.056960 928.726734
v 31177.520314 118131.126892 928.726734
v 31177.520314 118131.126892 948.726734
v 31177.520314 118131.126892 948.726734
v 31177.520314 118131.126892 928.726734
v 31221.604024 118239.777898 928.895893
v 31221.604024 118239.777898 948.895893
v 31221.604024 118239.777898 948.895893
v 31221.604024 118239.777898 928.895893
v 30332.037002 118600.707966 928.895893
v 30332.037002 118600.707966 948.895893
v 30332.037002 118600.707966 948.895893
v 30332.037002 118600.707966 928.895893
v 30287.953292 118492.056960 928.726734
v 30287.953292 118492.056960 948.726734
v 30376.120713 118709.358972 949.065053
v 31265.687735 118348.428905 949.065053
v 31221.604024 118239.777898 948.895893
v 30332.037002 118600.707966 948.895893
v 30332.037002 118600.707966 928.895893
v 31221.604024 118239.777898 928.895893
v 31265.687735 118348.428905 929.065053
v 30376.120713 118709.358972 929.065053
v 30332.037002 118600.707966 948.895893
v 30332.037002 118600.707966 928.895893
v 31221.604024 118239.777898 928.895893
v 31221.604024 118239.777898 948.895893
v 31221.604024 118239.777898 948.895893
v 31221.604024 118239.777898 928.895893
v 31265.687735 118348.428905 929.065053
v 31265.687735 118348.428905 949.065053
v 31265.687735 118348.428905 949.065053
v 31265.687735 118348.428905 929.065053
v 30376.120713 118709.358972 929.065053
v 30376.120713 118709.358972 949.065053
v 30376.120713 118709.358972 949.065053
v 30376.120713 118709.358972 929.065053
v 30332.037002 118600.707966 928.895893
v 30332.037002 118600.707966 948.895893
v 30420.204423 118818.009979 949.234213
v 31309.771445 118457.079911 949.234213
v 31265.687735 118348.428905 949.065053
v 30376.120713 118709.358972 949.065053
v 30376.120713 118709.358972 929.065053
v 31265.687735 118348.428905 929.065053
v 31309.771445 118457.079911 929.234213
v 30420.204423 118818.009979 929.234213
v 30376.120713 118709.358972 949.065053
v 30376.120713 118709.358972 929.065053
v 31265.687735 118348.428905 929.065053
v 31265.687735 118348.428905 949.065053
v 31265.687735 118348.428905 949.065053
v 31265.687735 118348.428905 929.065053
v 31309.771445 118457.079911 929.234213
v 31309.771445 118457.079911 949.234213
v 31309.771445 118457.079911 949.234213
v 31309.771445 118457.079911 929.234213
v 30420.204423 118818.009979 929.234213
v 30420.204423 118818.009979 949.234213
v 30420.204423 118818.009979 949.234213
v 30420.204423 118818.009979 929.234213
v 30376.120713 118709.358972 929.065053
v 30376.120713 118709.358972 949.065053
v 30464.288134 118926.660985 949.403372
v 31353.855156 118565.730917 949.403372
v 31309.771445 118457.079911 949.234213
v 30420.204423 118818.009979 949.234213
v 30420.204423 118818.009979 929.234213
v 31309.771445 118457.079911 929.234213
v 31353.855156 118565.730917 929.403372
v 30464.288134 118926.660985 929.403372
v 30420.204423 118818.009979 949.234213
v 30420.204423 118818.009979 929.234213
v 31309.771445 118457.079911 929.234213
v 31309.771445 118457.079911 949.234213
v 31309.771445 118457.079911 949.234213
v 31309.771445 118457.079911 929.234213
v 31353.855156 118565.730917 929.403372
v 31353.855156 118565.730917 949.403372
v 31353.855156 118565.730917 949.403372
v 31353.855156 118565.730917 929.403372
v 30464.288134 118926.660985 929.403372
v 30464.288134 118926.660985 949.403372
v 30464.288134 118926.660985 949.403372
v 30464.288134 118926.660985 929.403372
v 30420.204423 118818.009979 929.234213
v 30420.204423 118818.009979 949.234213
v 30508.371844 119035.311991 949.572532
v 31397.938866 118674.381923 949.572532
v 31353.855156 118565.730917 949.403372
v 30464.288134 118926.660985 949.403372
v 30464.288134 118926.660985 929.403372
v 31353.855156 118565.730917 929.403372
v 31397.938866 118674.381923 929.572532
v 30508.371844 119035.311991 929.572532
v 30464.288134 118926.660985 949.403372
v 30464.288134 118926.660985 929.403372
v 31353.855156 118565.730917 929.403372
v 31353.855156 118565.730917 949.403372
v 31353.855156 118565.730917 949.403372
v 31353.855156 118565.730917 929.403372
v 31397.938866 118674.381923 929.572532
v 31397.938866 118674.381923 949.572532
v 31397.938866 118674.381923 949.572532
v 31397.938866 118674.381923 929.572532
v 30508.371844 119035.311991 929.572532
v 30508.371844 119035.311991 949.572532
v 30508.371844 119035.311991 949.572532
v 30508.371844 119035.311991 929.572532
v 30464.288134 118926.660985 929.403372
v 30464.288134 118926.660985 949.403372
v 30552.455555 119143.962997 949.741692
v 31442.022576 118783.032930 949.741692
v 31397.938866 118674.381923 949.572532
v 30508.371844 119035.311991 949.572532
v 30508.371844 119035.311991 929.572532
v 31397.938866 118674.381923 929.572532
v 31442.022576 118783.032930 929.741692
v 30552.455555 119143.962997 929.741692
v 30508.371844 119035.311991 949.572532
v 30508.371844 119035.311991 929.572532
v 31397.938866 118674.381923 929.572532
v 31397.938866 118674.381923 949.572532
v 31397.938866 118674.381923 949.572532
v 31397.938866 118674.381923 929.572532
v 31442.022576 118783.032930 929.741692
v 31442.022576 118783.032930 949.741692
v 31442.022576 118783.032930 949.741692
v 31442.022576 118783.032930 929.741692
v 30552.455555 119143.962997 929.741692
v 30552.455555 119143.962997 949.741692
v 30552.455555 119143.962997 949.741692
v 30552.455555 119143.962997 929.741692
v 30508.371844 119035.311991 929.572532
v 30508.371844 119035.311991 949.572532
v 30596.539265 119252.614004 949.910852
v 31486.106287 118891.683936 949.910852
v 31442.022576 118783.032930 949.741692
v 30552.455555 119143.962997 949.741692
v 30552.455555 119143.962997 929.741692
v 31442.022576 118783.032930 929.741692
v 31486.106287 118891.683936 929.910852
v 30596.539265 119252.614004 929.910852
v 30552.455555 119143.962997 949.741692
v 30552.455555 119143.962997 929.741692
v 31442.022576 118783.032930 929.741692
v 31442.022576 118783.032930 949.741692
v 31442.022576 118783.032930 949.741692
v 31442.022576 118783.032930 929.741692
v 31486.106287 118891.683936 929.910852
v 31486.106287 118891.683936 949.910852
v 31486.106287 118891.683936 949.910852
v 31486.106287 118891.683936 929.910852
v 30596.539265 119252.614004 929.910852
v 30596.539265 119252.614004 949.910852
v 30596.539265 119252.614004 949.910852
v 30596.539265 119252.614004 929.910852
v 30552.455555 119143.962997 929.741692
v 30552.455555 119143.962997 949.741692
v 30640.622976 119361.265010 950.080011
v 31530.189997 119000.334942 950.080011
v 31486.106287 118891.683936 949.910852
v 30596.539265 119252.614004 949.910852
v 30596.539265 119252.614004 929.910852
v 31486.106287 118891.683936 929.910852
v 31530.189997 119000.334942 930.080011
v 30640.622976 119361.265010 930.080011
v 30596.539265 119252.614004 949.910852
v 30596.539265 119252.614004 929.910852
v 31486.106287 118891.683936 929.910852
v 31486.106287 118891.683936 949.910852
v 31486.106287 118891.683936 949.910852
v 31486.106287 118891.683936 929.910852
v 31530.189997 119000.334942 930.080011
v 31530.189997 119000.334942 950.080011
v 31530.189997 119000.334942 950.080011
v 31530.189997 119000.334942 930.080011
v 30640.622976 119361.265010 930.080011
v 30640.622976 119361.265010 950.080011
v 30640.622976 119361.265010 950.080011
v 30640.622976 119361.265010 930.080011
v 30596.539265 119252.614004 929.910852
v 30596.539265 119252.614004 949.910852
v 30684.706686 119469.916016 950.249171
v 31574.273708 119108.985949 950.249171
v 31530.189997 119000.334942 950.080011
v 30640.622976 119361.265010 950.080011
v 30640.622976 119361.265010 930.080011
v 31530.189997 119000.334942 930.080011
v 31574.273708 119108.985949 930.249171
v 30684.706686 119469.916016 930.249171
v 30640.622976 119361.265010 950.080011
v 30640.622976 119361.265010 930.080011
v 31530.189997 119000.334942 930.080011
v 31530.189997 119000.334942 950.080011
v 31530.189997 119000.334942 950.080011
v 31530.189997 119000.334942 930.080011
v 31574.273708 119108.985949 930.249171
v 31574.273708 119108.985949 950.249171
v 31574.273708 119108.985949 950.249171
v 31574.273708 119108.985949 930.249171
v 30684.706686 119469.916016 930.249171
v 30684.706686 119469.916016 950.249171
v 30684.706686 119469.916016 950.249171
v 30684.706686 119469.916016 930.249171
v 30640.622976 119361.265010 930.080011
v 30640.622976 119361.265010 950.080011
v 30728.790397 119578.567022 950.418331
v 31618.357418 119217.636955 950.418331
v 31574.273708 119108.985949 950.249171
v 30684.706686 119469.916016 950.249171
v 30684.706686 119469.916016 930.249171
v 31574.273708 119108.985949 930.249171
v 31618.357418 119217.636955 930.418331
v 30728.790397 119578.567022 930.418331
v 30684.706686 119469.916016 950.249171
v 30684.706686 119469.916016 930.249171
v 31574.273708 119108.985949 930.249171
v 31574.273708 119108.985949 950.249171
v 31574.273708 119108.985949 950.249171
v 31574.273708 119108.985949 930.249171
v 31618.357418 119217.636955 930.418331
v 31618.357418 119217.636955 950.418331
v 31618.357418 119217.636955 950.418331
v 31618.357418 119217.636955 930.418331
v 30728.790397 119578.567022 930.418331
v 30728.790397 119578.567022 950.418331
v 30728.790397 119578.567022 950.418331
v 30728.790397 119578.567022 930.418331
v 30684.706686 119469.916016 930.249171
v 30684.706686 119469.916016 950.249171
v 30772.874107 119687.218029 950.587490
v 31662.441129 119326.287961 950.587490
v 31618.357418 119217.636955 950.418331
v 30728.790397 119578.567022 950.418331
v 30728.790397 119578.567022 930.418331
v 31618.357418 119217.636955 930.418331
v 31662.441129 119326.287961 930.587490
v 30772.874107 119687.218029 930.587490
v 30728.790397 119578.567022 950.418331
v 30728.790397 119578.567022 930.418331
v 31618.357418 119217.636955 930.418331
v 31618.357418 119217.636955 950.418331
v 31618.357418 119217.636955 950.418331
v 31618.357418 119217.636955 930.418331
v 31662.441129 119326.287961 930.587490
v 31662.441129 119326.287961 950.587490
v 31662.441129 119326.287961 950.587490
v 31662.441129 119326.287961 930.587490
v 30772.874107 119687.218029 930.587490
v 30772.874107 119687.218029 950.587490
v 30772.874107 119687.218029 950.587490
v 30772.874107 119687.218029 930.587490
v 30728.790397 119578.567022 930.418331
v 30728.790397 119578.567022 950.418331
v 30816.957818 119795.869035 950.756650
v 31706.524839 119434.938967 950.756650
v 31662.441129 119326.287961 950.587490
v 30772.874107 119687.218029 950.587490
v 30772.874107 119687.218029 930.587490
v 31662.441129 119326.287961 930.587490
v 31706.524839 119434.938967 930.756650
v 30816.957818 119795.869035 930.756650
v 30772.874107 119687.218029 950.587490
v 30772.874107 119687.218029 930.587490
v 31662.441129 119326.287961 930.587490
v 31662.441129 119326.287961 950.587490
v 31662.441129 119326.287961 950.587490
v 31662.441129 119326.287961 930.587490
v 31706.524839 119434.938967 930.756650
v 31706.524839 119434.938967 950.756650
v 31706.524839 119434.938967 950.756650
v 31706.524839 119434.938967 930.756650
v 30816.957818 119795.869035 930.756650
v 30816.957818 119795.869035 950.756650
v 30816.957818 119795.869035 950.756650
v 30816.957818 119795.869035 930.756650
v 30772.874107 119687.218029 930.587490
v 30772.874107 119687.218029 950.587490
v 30861.041528 119904.520041 950.925810
v 31750.608550 119543.589974 950.925810
v 31706.524839 119434.938967 950.756650
v 30816.957818 119795.869035 950.756650
v 30816.957818 119795.869035 930.756650
v 31706.524839 119434.938967 930.756650
v 31750.608550 119543.589974 930.925810
v 30861.041528 119904.520041 930.925810
v 30816.957818 119795.869035 950.756650
v 30816.957818 119795.869035 930.756650
v 31706.524839 119434.938967 930.756650
v 31706.524839 119434.938967 950.756650
v 31706.524839 119434.938967 950.756650
v 31706.524839 119434.938967 930.756650
v 31750.608550 119543.589974 930.925810
v 31750.608550 119543.589974 950.925810
v 31750.608550 119543.589974 950.925810
v 31750.608550 119543.589974 930.925810
v 30861.041528 119904.520041 930.925810
v 30861.041528 119904.520041 950.925810
v 30861.041528 119904.520041 950.925810
v 30861.041528 119904.520041 930.925810
v 30816.957818 119795.869035 930.756650
v 30816.957818 119795.869035 950.756650
vt 148.005980 4.725026
vt 150.250445 4.725026
vt 149.732218 4.724180
vt 147.487753 4.724180
vt 147.487753 4.624180
vt 149.732218 4.624180
vt 150.250445 4.625026
vt 148.005980 4.625026
vt 147.487753 4.724180
vt 147.487753 4.624180
vt 149.732218 4.624180
vt 149.732218 4.724180
vt 149.732218 4.724180
vt 149.732218 4.624180
vt 150.250445 4.625026
vt 150.250445 4.725026
vt 150.250445 4.725026
vt 150.250445 4.625026
vt 148.005980 4.625026
vt 148.005980 4.725026
vt 148.005980 4.725026
vt 148.005980 4.625026
vt 147.487753 4.624180
vt 147.487753 4.724180
vt 146.821761 4.725872
vt 151.271610 4.725872
vt 150.250445 4.725026
vt 148.005980 4.725026
vt 148.005980 4.625026
vt 150.250445 4.625026
vt 151.271610 4.625872
vt 146.821761 4.625872
vt 148.005980 4.725026
vt 148.005980 4.625026
vt 150.250445 4.625026
vt 150.250445 4.725026
vt 150.250445 4.725026
vt 150.250445 4.625026
vt 151.271610 4.625872
vt 151.271610 4.725872
vt 151.271610 4.725872
vt 151.271610 4.625872
vt 146.821761 4.625872
vt 146.821761 4.725872
vt 146.821761 4.725872
vt 146.821761 4.625872
vt 148.005980 4.625026
vt 148.005980 4.725026
vt 147.041572 4.726718
vt 151.491421 4.726718
vt 151.271610 4.725872
vt 146.821761 4.725872
vt 146.821761 4.625872
vt 151.271610 4.625872
vt 151.491421 4.626718
vt 147.041572 4.626718
vt 146.821761 4.725872
vt 146.821761 4.625872
vt 151.271610 4.625872
vt 151.271610 4.725872
vt 151.271610 4.725872
vt 151.271610 4.625872
vt 151.491421 4.626718
vt 151.491421 4.726718
vt 151.491421 4.726718
vt 151.491421 4.626718
vt 147.041572 4.626718
vt 147.041572 4.726718
vt 147.041572 4.726718
vt 147.041572 4.626718
vt 146.821761 4.625872
vt 146.821761 4.725872
vt 147.261383 4.727563
vt 151.711232 4.727563
vt 151.491421 4.726718
vt 147.041572 4.726718
vt 147.041572 4.626718
vt 151.491421 4.626718
vt 151.711232 4.627563
vt 147.261383 4.627563
vt 147.041572 4.726718
vt 147.041572 4.626718
vt 151.491421 4.626718
vt 151.491421 4.726718
vt 151.491421 4.726718
vt 151.491421 4.626718
vt 151.711232 4.627563
vt 151.711232 4.727563
vt 151.711232 4.727563
vt 151.711232 4.627563
vt 147.261383 4.627563
vt 147.261383 4.727563
vt 147.261383 4.727563
vt 147.261383 4.627563
vt 147.041572 4.626718
vt 147.041572 4.726718
vt 147.481195 4.728409
vt 151.931044 4.728409
vt 151.711232 4.727563
vt 147.261383 4.727563
vt 147.261383 4.627563
vt 151.711232 4.627563
vt 151.931044 4.628409
vt 147.481195 4.628409
vt 147.261383 4.727563
vt 147.261383 4.627563
vt 151.711232 4.627563
vt 151.711232 4.727563
vt 151.711232 4.727563
vt 151.711232 4.627563
vt 151.931044 4.628409
vt 151.931044 4.728409
vt 151.931044 4.728409
vt 151.931044 4.628409
vt 147.481195 4.628409
vt 147.481195 4.728409
vt 147.481195 4.728409
vt 147.481195 4.628409
vt 147.261383 4.627563
vt 147.261383 4.727563
vt 147.701006 4.729255
vt 152.150855 4.729255
vt 151.931044 4.728409
vt 147.481195 4.728409
vt 147.481195 4.628409
vt 151.931044 4.628409
vt 152.150855 4.629255
vt 147.701006 4.629255
vt 147.481195 4.728409
vt 147.481195 4.628409
vt 151.931044 4.628409
vt 151.931044 4.728409
vt 151.931044 4.728409
vt 151.931044 4.628409
vt 152.150855 4.629255
vt 152.150855 4.729255
vt 152.150855 4.729255
vt 152.150855 4.629255
vt 147.701006 4.629255
vt 147.701006 4.729255
vt 147.701006 4.729255
vt 147.701006 4.629255
vt 147.481195 4.628409
vt 147.481195 4.728409
vt 147.920817 4.730101
vt 152.370666 4.730101
vt 152.150855 4.729255
vt 147.701006 4.729255
vt 147.701006 4.629255
vt 152.150855 4.629255
vt 152.370666 4.630101
vt 147.920817 4.630101
vt 147.701006 4.729255
vt 147.701006 4.629255
vt 152.150855 4.629255
vt 152.150855 4.729255
vt 152.150855 4.729255
vt 152.150855 4.629255
vt 152.370666 4.630101
vt 152.370666 4.730101
vt 152.370666 4.730101
vt 152.370666 4.630101
vt 147.920817 4.630101
vt 147.920817 4.730101
vt 147.920817 4.730101
vt 147.920817 4.630101
vt 147.701006 4.629255
vt 147.701006 4.729255
vt 148.140628 4.730947
vt 152.590478 4.730947
vt 152.370666 4.730101
vt 147.920817 4.730101
vt 147.920817 4.630101
vt 152.370666 4.630101
vt 152.590478 4.630947
vt 148.140628 4.630947
vt 147.920817 4.730101
vt 147.920817 4.630101
vt 152.370666 4.630101
vt 152.370666 4.730101
vt 152.370666 4.730101
vt 152.370666 4.630101
vt 152.590478 4.630947
vt 152.590478 4.730947
vt 152.590478 4.730947
vt 152.590478 4.630947
vt 148.140628 4.630947
vt 148.140628 4.730947
vt 148.140628 4.730947
vt 148.140628 4.630947
vt 147.920817 4.630101
vt 147.920817 4.730101
vt 148.360440 4.731792
vt 152.810289 4.731792
vt 152.590478 4.730947
vt 148.140628 4.730947
vt 148.140628 4.630947
vt 152.590478 4.630947
vt 152.810289 4.631792
vt 148.360440 4.631792
vt 148.140628 4.730947
vt 148.140628 4.630947
vt 152.590478 4.630947
vt 152.590478 4.730947
vt 152.590478 4.730947
vt 152.590478 4.630947
vt 152.810289 4.631792
vt 152.810289 4.731792
vt 152.810289 4.731792
vt 152.810289 4.631792
vt 148.360440 4.631792
vt 148.360440 4.731792
vt 148.360440 4.731792
vt 148.360440 4.631792
vt 148.140628 4.630947
vt 148.140628 4.730947
vt 148.580251 4.732638
vt 153.030100 4.732638
vt 152.810289 4.731792
vt 148.360440 4.731792
vt 148.360440 4.631792
vt 152.810289 4.631792
vt 153.030100 4.632638
vt 148.580251 4.632638
vt 148.360440 4.731792
vt 148.360440 4.631792
vt 152.810289 4.631792
vt 152.810289 4.731792
vt 152.810289 4.731792
vt 152.810289 4.631792
vt 153.030100 4.632638
vt 153.030100 4.732638
vt 153.030100 4.732638
vt 153.030100 4.632638
vt 148.580251 4.632638
vt 148.580251 4.732638
vt 148.580251 4.732638
vt 148.580251 4.632638
vt 148.360440 4.631792
vt 148.360440 4.731792
vt 148.800062 4.733484
vt 153.249912 4.733484
vt 153.030100 4.732638
vt 148.580251 4.732638
vt 148.580251 4.632638
vt 153.030100 4.632638
vt 153.249912 4.633484
vt 148.800062 4.633484
vt 148.580251 4.732638
vt 148.580251 4.632638
vt 153.030100 4.632638
vt 153.030100 4.732638
vt 153.030100 4.732638
vt 153.030100 4.632638
vt 153.249912 4.633484
vt 153.249912 4.733484
vt 153.249912 4.733484
vt 153.249912 4.633484
vt 148.800062 4.633484
vt 148.800062 4.733484
vt 148.800062 4.733484
vt 148.800062 4.633484
vt 148.580251 4.632638
vt 148.580251 4.732638
vt 149.019874 4.734330
vt 153.469723 4.734330
vt 153.249912 4.733484
vt 148.800062 4.733484
vt 148.800062 4.633484
vt 153.249912 4.633484
vt 153.469723 4.634330
vt 149.019874 4.634330
vt 148.800062 4.733484
vt 148.800062 4.633484
vt 153.249912 4.633484
vt 153.249912 4.733484
vt 153.249912 4.733484
vt 153.249912 4.633484
vt 153.469723 4.634330
vt 153.469723 4.734330
vt 153.469723 4.734330
vt 153.469723 4.634330
vt 149.019874 4.634330
vt 149.019874 4.734330
vt 149.019874 4.734330
vt 149.019874 4.634330
vt 148.800062 4.633484
vt 148.800062 4.733484
vt 149.239685 4.735176
vt 153.689534 4.735176
vt 153.469723 4.734330
vt 149.019874 4.734330
vt 149.019874 4.634330
vt 153.469723 4.634330
vt 153.689534 4.635176
vt 149.239685 4.635176
vt 149.019874 4.734330
vt 149.019874 4.634330
vt 153.469723 4.634330
vt 153.469723 4.734330
vt 153.469723 4.734330
vt 153.469723 4.634330
vt 153.689534 4.635176
vt 153.689534 4.735176
vt 153.689534 4.735176
vt 153.689534 4.635176
vt 149.239685 4.635176
vt 149.239685 4.735176
vt 149.239685 4.735176
vt 149.239685 4.635176
vt 149.019874 4.634330
vt 149.019874 4.734330
vt 149.459496 4.736021
vt 153.909345 4.736021
vt 153.689534 4.735176
vt 149.239685 4.735176
vt 149.239685 4.635176
vt 153.689534 4.635176
vt 153.909345 4.636021
vt 149.459496 4.636021
vt 149.239685 4.735176
vt 149.239685 4.635176
vt 153.689534 4.635176
vt 153.689534 4.735176
vt 153.689534 4.735176
vt 153.689534 4.635176
vt 153.909345 4.636021
vt 153.909345 4.736021
vt 153.909345 4.736021
vt 153.909345 4.636021
vt 149.459496 4.636021
vt 149.459496 4.736021
vt 149.459496 4.736021
vt 149.459496 4.636021
vt 149.239685 4.635176
vt 149.239685 4.735176
vt 149.679308 4.736867
vt 154.129157 4.736867
vt 153.909345 4.736021
vt 149.459496 4.736021
vt 149.459496 4.636021
vt 153.909345 4.636021
vt 154.129157 4.636867
vt 149.679308 4.636867
vt 149.459496 4.736021
vt 149.459496 4.636021
vt 153.909345 4.636021
vt 153.909345 4.736021
vt 153.909345 4.736021
vt 153.909345 4.636021
vt 154.129157 4.636867
vt 154.129157 4.736867
vt 154.129157 4.736867
vt 154.129157 4.636867
vt 149.679308 4.636867
vt 149.679308 4.736867
vt 149.679308 4.736867
vt 149.679308 4.636867
vt 149.459496 4.636021
vt 149.459496 4.736021
vt 149.899119 4.737713
vt 154.348968 4.737713
vt 154.129157 4.736867
vt 149.679308 4.736867
vt 149.679308 4.636867
vt 154.129157 4.636867
vt 154.348968 4.637713
vt 149.899119 4.637713
vt 149.679308 4.736867
vt 149.679308 4.636867
vt 154.129157 4.636867
vt 154.129157 4.736867
vt 154.129157 4.736867
vt 154.129157 4.636867
vt 154.348968 4.637713
vt 154.348968 4.737713
vt 154.348968 4.737713
vt 154.348968 4.637713
vt 149.899119 4.637713
vt 149.899119 4.737713
vt 149.899119 4.737713
vt 149.899119 4.637713
vt 149.679308 4.636867
vt 149.679308 4.736867
vt 150.118930 4.738559
vt 154.568779 4.738559
vt 154.348968 4.737713
vt 149.899119 4.737713
vt 149.899119 4.637713
vt 154.348968 4.637713
vt 154.568779 4.638559
vt 150.118930 4.638559
vt 149.899119 4.737713
vt 149.899119 4.637713
vt 154.348968 4.637713
vt 154.348968 4.737713
vt 154.348968 4.737713
vt 154.348968 4.637713
vt 154.568779 4.638559
vt 154.568779 4.738559
vt 154.568779 4.738559
vt 154.568779 4.638559
vt 150.118930 4.638559
vt 150.118930 4.738559
vt 150.118930 4.738559
vt 150.118930 4.638559
vt 149.899119 4.637713
vt 149.899119 4.737713
vt 150.338741 4.739405
vt 154.788591 4.739405
vt 154.568779 4.738559
vt 150.118930 4.738559
vt 150.118930 4.638559
vt 154.568779 4.638559
vt 154.788591 4.639405
vt 150.338741 4.639405
vt 150.118930 4.738559
vt 150.118930 4.638559
vt 154.568779 4.638559
vt 154.568779 4.738559
vt 154.568779 4.738559
vt 154.568779 4.638559
vt 154.788591 4.639405
vt 154.788591 4.739405
vt 154.788591 4.739405
vt 154.788591 4.639405
vt 150.338741 4.639405
vt 150.338741 4.739405
vt 150.338741 4.739405
vt 150.338741 4.639405
vt 150.118930 4.638559
vt 150.118930 4.738559
vt 150.558553 4.740250
vt 155.008402 4.740250
vt 154.788591 4.739405
vt 150.338741 4.739405
vt 150.338741 4.639405
vt 154.788591 4.639405
vt 155.008402 4.640250
vt 150.558553 4.640250
vt 150.338741 4.739405
vt 150.338741 4.639405
vt 154.788591 4.639405
vt 154.788591 4.739405
vt 154.788591 4.739405
vt 154.788591 4.639405
vt 155.008402 4.640250
vt 155.008402 4.740250
vt 155.008402 4.740250
vt 155.008402 4.640250
vt 150.558553 4.640250
vt 150.558553 4.740250
vt 150.558553 4.740250
vt 150.558553 4.640250
vt 150.338741 4.639405
vt 150.338741 4.739405
vt 150.778364 4.741096
vt 155.228213 4.741096
vt 155.008402 4.740250
vt 150.558553 4.740250
vt 150.558553 4.640250
vt 155.008402 4.640250
vt 155.228213 4.641096
vt 150.778364 4.641096
vt 150.558553 4.740250
vt 150.558553 4.640250
vt 155.008402 4.640250
vt 155.008402 4.740250
vt 155.008402 4.740250
vt 155.008402 4.640250
vt 155.228213 4.641096
vt 155.228213 4.741096
vt 155.228213 4.741096
vt 155.228213 4.641096
vt 150.778364 4.641096
vt 150.778364 4.741096
vt 150.778364 4.741096
vt 150.778364 4.641096
vt 150.558553 4.640250
vt 150.558553 4.740250
vt 150.998175 4.741942
vt 155.448024 4.741942
vt 155.228213 4.741096
vt 150.778364 4.741096
vt 150.778364 4.641096
vt 155.228213 4.641096
vt 155.448024 4.641942
vt 150.998175 4.641942
vt 150.778364 4.741096
vt 150.778364 4.641096
vt 155.228213 4.641096
vt 155.228213 4.741096
vt 155.228213 4.741096
vt 155.228213 4.641096
vt 155.448024 4.641942
vt 155.448024 4.741942
vt 155.448024 4.741942
vt 155.448024 4.641942
vt 150.998175 4.641942
vt 150.998175 4.741942
vt 150.998175 4.741942
vt 150.998175 4.641942
vt 150.778364 4.641096
vt 150.778364 4.741096
vt 151.219348 4.742788
vt 155.667183 4.742788
vt 155.448024 4.741942
vt 150.998175 4.741942
vt 150.998175 4.641942
vt 155.448024 4.641942
vt 155.667183 4.642788
vt 151.219348 4.642788
vt 150.998175 4.741942
vt 150.998175 4.641942
vt 155.448024 4.641942
vt 155.448024 4.741942
vt 155.448024 4.741942
vt 155.448024 4.641942
vt 155.667183 4.642788
vt 155.667183 4.742788
vt 155.667183 4.742788
vt 155.667183 4.642788
vt 151.219348 4.642788
vt 151.219348 4.742788
vt 151.219348 4.742788
vt 151.219348 4.642788
vt 150.998175 4.641942
vt 150.998175 4.741942
vt 151.439766 4.743634
vt 155.887602 4.743634
vt 155.667183 4.742788
vt 151.219348 4.742788
vt 151.219348 4.642788
vt 155.667183 4.642788
vt 155.887602 4.643634
vt 151.439766 4.643634
vt 151.219348 4.742788
vt 151.219348 4.642788
vt 155.667183 4.642788
vt 155.667183 4.742788
vt 155.667183 4.742788
vt 155.667183 4.642788
vt 155.887602 4.643634
vt 155.887602 4.743634
vt 155.887602 4.743634
vt 155.887602 4.643634
vt 151.439766 4.643634
vt 151.439766 4.743634
vt 151.439766 4.743634
vt 151.439766 4.643634
vt 151.219348 4.642788
vt 151.219348 4.742788
vt 151.660185 4.744479
vt 156.108020 4.744479
vt 155.887602 4.743634
vt 151.439766 4.743634
vt 151.439766 4.643634
vt 155.887602 4.643634
vt 156.108020 4.644479
vt 151.660185 4.644479
vt 151.439766 4.743634
vt 151.439766 4.643634
vt 155.887602 4.643634
vt 155.887602 4.743634
vt 155.887602 4.743634
vt 155.887602 4.643634
vt 156.108020 4.644479
vt 156.108020 4.744479
vt 156.108020 4.744479
vt 156.108020 4.644479
vt 151.660185 4.644479
vt 151.660185 4.744479
vt 151.660185 4.744479
vt 151.660185 4.644479
vt 151.439766 4.643634
vt 151.439766 4.743634
vt 151.880604 4.745325
vt 156.328439 4.745325
vt 156.108020 4.744479
vt 151.660185 4.744479
vt 151.660185 4.644479
vt 156.108020 4.644479
vt 156.328439 4.645325
vt 151.880604 4.645325
vt 151.660185 4.744479
vt 151.660185 4.644479
vt 156.108020 4.644479
vt 156.108020 4.744479
vt 156.108020 4.744479
vt 156.108020 4.644479
vt 156.328439 4.645325
vt 156.328439 4.745325
vt 156.328439 4.745325
vt 156.328439 4.645325
vt 151.880604 4.645325
vt 151.880604 4.745325
vt 151.880604 4.745325
vt 151.880604 4.645325
vt 151.660185 4.644479
vt 151.660185 4.744479
vt 152.101022 4.746171
vt 156.548857 4.746171
vt 156.328439 4.745325
vt 151.880604 4.745325
vt 151.880604 4.645325
vt 156.328439 4.645325
vt 156.548857 4.646171
vt 152.101022 4.646171
vt 151.880604 4.745325
vt 151.880604 4.645325
vt 156.328439 4.645325
vt 156.328439 4.745325
vt 156.328439 4.745325
vt 156.328439 4.645325
vt 156.548857 4.646171
vt 156.548857 4.746171
vt 156.548857 4.746171
vt 156.548857 4.646171
vt 152.101022 4.646171
vt 152.101022 4.746171
vt 152.101022 4.746171
vt 152.101022 4.646171
vt 151.880604 4.645325
vt 151.880604 4.745325
vt 152.321441 4.747017
vt 156.769276 4.747017
vt 156.548857 4.746171
vt 152.101022 4.746171
vt 152.101022 4.646171
vt 156.548857 4.646171
vt 156.769276 4.647017
vt 152.321441 4.647017
vt 152.101022 4.746171
vt 152.101022 4.646171
vt 156.548857 4.646171
vt 156.548857 4.746171
vt 156.548857 4.746171
vt 156.548857 4.646171
vt 156.769276 4.647017
vt 156.769276 4.747017
vt 156.769276 4.747017
vt 156.769276 4.647017
vt 152.321441 4.647017
vt 152.321441 4.747017
vt 152.321441 4.747017
vt 152.321441 4.647017
vt 152.101022 4.646171
vt 152.101022 4.746171
vt 152.541859 4.747863
vt 156.989694 4.747863
vt 156.769276 4.747017
vt 152.321441 4.747017
vt 152.321441 4.647017
vt 156.769276 4.647017
vt 156.989694 4.647863
vt 152.541859 4.647863
vt 152.321441 4.747017
vt 152.321441 4.647017
vt 156.769276 4.647017
vt 156.769276 4.747017
vt 156.769276 4.747017
vt 156.769276 4.647017
vt 156.989694 4.647863
vt 156.989694 4.747863
vt 156.989694 4.747863
vt 156.989694 4.647863
vt 152.541859 4.647863
vt 152.541859 4.747863
vt 152.541859 4.747863
vt 152.541859 4.647863
vt 152.321441 4.647017
vt 152.321441 4.747017
vt 152.762278 4.748708
vt 157.210113 4.748708
vt 156.989694 4.747863
vt 152.541859 4.747863
vt 152.541859 4.647863
vt 156.989694 4.647863
vt 157.210113 4.648708
vt 152.762278 4.648708
vt 152.541859 4.747863
vt 152.541859 4.647863
vt 156.989694 4.647863
vt 156.989694 4.747863
vt 156.989694 4.747863
vt 156.989694 4.647863
vt 157.210113 4.648708
vt 157.210113 4.748708
vt 157.210113 4.748708
vt 157.210113 4.648708
vt 152.762278 4.648708
vt 152.762278 4.748708
vt 152.762278 4.748708
vt 152.762278 4.648708
vt 152.541859 4.647863
vt 152.541859 4.747863
vt 152.982696 4.749554
vt 157.430531 4.749554
vt 157.210113 4.748708
vt 152.762278 4.748708
vt 152.762278 4.648708
vt 157.210113 4.648708
vt 157.430531 4.649554
vt 152.982696 4.649554
vt 152.762278 4.748708
vt 152.762278 4.648708
vt 157.210113 4.648708
vt 157.210113 4.748708
vt 157.210113 4.748708
vt 157.210113 4.648708
vt 157.430531 4.649554
vt 157.430531 4.749554
vt 157.430531 4.749554
vt 157.430531 4.649554
vt 152.982696 4.649554
vt 152.982696 4.749554
vt 152.982696 4.749554
vt 152.982696 4.649554
vt 152.762278 4.648708
vt 152.762278 4.748708
vt 153.203115 4.750400
vt 157.650950 4.750400
vt 157.430531 4.749554
vt 152.982696 4.749554
vt 152.982696 4.649554
vt 157.430531 4.649554
vt 157.650950 4.650400
vt 153.203115 4.650400
vt 152.982696 4.749554
vt 152.982696 4.649554
vt 157.430531 4.649554
vt 157.430531 4.749554
vt 157.430531 4.749554
vt 157.430531 4.649554
vt 157.650950 4.650400
vt 157.650950 4.750400
vt 157.650950 4.750400
vt 157.650950 4.650400
vt 153.203115 4.650400
vt 153.203115 4.750400
vt 153.203115 4.750400
vt 153.203115 4.650400
vt 152.982696 4.649554
vt 152.982696 4.749554
vt 153.423533 4.751246
vt 157.871369 4.751246
vt 157.650950 4.750400
vt 153.203115 4.750400
vt 153.203115 4.650400
vt 157.650950 4.650400
vt 157.871369 4.651246
vt 153.423533 4.651246
vt 153.203115 4.750400
vt 153.203115 4.650400
vt 157.650950 4.650400
vt 157.650950 4.750400
vt 157.650950 4.750400
vt 157.650950 4.650400
vt 157.871369 4.651246
vt 157.871369 4.751246
vt 157.871369 4.751246
vt 157.871369 4.651246
vt 153.423533 4.651246
vt 153.423533 4.751246
vt 153.423533 4.751246
vt 153.423533 4.651246
vt 153.203115 4.650400
vt 153.203115 4.750400
vt 153.643952 4.752092
vt 158.091787 4.752092
vt 157.871369 4.751246
vt 153.423533 4.751246
vt 153.423533 4.651246
vt 157.871369 4.651246
vt 158.091787 4.652092
vt 153.643952 4.652092
vt 153.423533 4.751246
vt 153.423533 4.651246
vt 157.871369 4.651246
vt 157.871369 4.751246
vt 157.871369 4.751246
vt 157.871369 4.651246
vt 158.091787 4.652092
vt 158.091787 4.752092
vt 158.091787 4.752092
vt 158.091787 4.652092
vt 153.643952 4.652092
vt 153.643952 4.752092
vt 153.643952 4.752092
vt 153.643952 4.652092
vt 153.423533 4.651246
vt 153.423533 4.751246
vt 153.864371 4.752937
vt 158.312206 4.752937
vt 158.091787 4.752092
vt 153.643952 4.752092
vt 153.643952 4.652092
vt 158.091787 4.652092
vt 158.312206 4.652937
vt 153.864371 4.652937
vt 153.643952 4.752092
vt 153.643952 4.652092
vt 158.091787 4.652092
vt 158.091787 4.752092
vt 158.091787 4.752092
vt 158.091787 4.652092
vt 158.312206 4.652937
vt 158.312206 4.752937
vt 158.312206 4.752937
vt 158.312206 4.652937
vt 153.864371 4.652937
vt 153.864371 4.752937
vt 153.864371 4.752937
vt 153.864371 4.652937
vt 153.643952 4.652092
vt 153.643952 4.752092
vt 154.084789 4.753783
vt 158.532624 4.753783
vt 158.312206 4.752937
vt 153.864371 4.752937
vt 153.864371 4.652937
vt 158.312206 4.652937
vt 158.532624 4.653783
vt 154.084789 4.653783
vt 153.864371 4.752937
vt 153.864371 4.652937
vt 158.312206 4.652937
vt 158.312206 4.752937
vt 158.312206 4.752937
vt 158.312206 4.652937
vt 158.532624 4.653783
vt 158.532624 4.753783
vt 158.532624 4.753783
vt 158.532624 4.653783
vt 154.084789 4.653783
vt 154.084789 4.753783
vt 154.084789 4.753783
vt 154.084789 4.653783
vt 153.864371 4.652937
vt 153.864371 4.752937
vt 154.305208 4.754629
vt 158.753043 4.754629
vt 158.532624 4.753783
vt 154.084789 4.753783
vt 154.084789 4.653783
vt 158.532624 4.653783
vt 158.753043 4.654629
vt 154.305208 4.654629
vt 154.084789 4.753783
vt 154.084789 4.653783
vt 158.532624 4.653783
vt 158.532624 4.753783
vt 158.532624 4.753783
vt 158.532624 4.653783
vt 158.753043 4.654629
vt 158.753043 4.754629
vt 158.753043 4.754629
vt 158.753043 4.654629
vt 154.305208 4.654629
vt 154.305208 4.754629
vt 154.305208 4.754629
vt 154.305208 4.654629
vt 154.084789 4.653783
vt 154.084789 4.753783
f 3/3 2/2 1/1
f 4/4 3/3 1/1
f 7/7 6/6 5/5
f 8/8 7/7 5/5
f 11/11 10/10 9/9
f 12/12 11/11 9/9
f 15/15 14/14 13/13
f 16/16 15/15 13/13
f 19/19 18/18 17/17
f 20/20 19/19 17/17
f 23/23 22/22 21/21
f 24/24 23/23 21/21
f 27/27 26/26 25/25
f 28/28 27/27 25/25
f 31/31 30/30 29/29
f 32/32 31/31 29/29
f 35/35 34/34 33/33
f 36/36 35/35 33/33
f 39/39 38/38 37/37
f 40/40 39/39 37/37
f 43/43 42/42 41/41
f 44/44 43/43 41/41
f 47/47 46/46 45/45
f 48/48 47/47 45/45
f 51/51 50/50 49/49
f 52/52 51/51 49/49
f 55/55 54/54 53/53
f 56/56 55/55 53/53
f 59/59 58/58 57/57
f 60/60 59/59 57/57
f 63/63 62/62 61/61
f 64/64 63/63 61/61
f 67/67 66/66 65/65
f 68/68 67/67 65/65
f 71/71 70/70 69/69
f 72/72 71/71 69/69
f 75/75 74/74 73/73
f 76/76 75/75 73/73
f 79/79 78/78 77/77
f 80/80 79/79 77/77
f 83/83 82/82 81/81
f 84/84 83/83 81/81
f 87/87 86/86 85/85
f 88/88 87/87 85/85
f 91/91 90/90 89/89
f 92/92 91/91 89/89
f 95/95 94/94 93/93
f 96/96 95/95 93/93
f 99/99 98/98 97/97
f 100/100 99/99 97/97
f 103/103 102/102 101/101
f 104/104 103/103 101/101
f 107/107 106/106 105/105
f 108/108 107/107 105/105
f 111/111 110/110 109/109
f 112/112 111/111 109/109
f 115/115 114/114 113/113
f 116/116 115/115 113/113
f 119/119 118/118 117/117
f 120/120 119/119 117/117
f 123/123 122/122 121/121
f 124/124 123/123 121/121
f 127/127 126/126 125/125
f 128/128 127/127 125/125
f 131/131 130/130 129/129
f 132/132 131/131 129/129
f 135/135 134/134 133/133
f 136/136 135/135 133/133
f 139/139 138/138 137/137
f 140/140 139/139 137/137
f 143/143 142/142 141/141
f 144/144 143/143 141/141
f 147/147 146/146 145/145
f 148/148 147/147 145/145
f 151/151 150/150 149/149
f 152/152 151/151 149/149
f 155/155 154/154 153/153
f 156/156 155/155 153/153
f 159/159 158/158 157/157
f 160/160 159/159 157/157
f 163/163 162/162 161/161
f 164/164 163/163 161/161
f 167/167 166/166 165/165
f 168/168 167/167 165/165
f 171/171 170/170 169/169
f 172/172 171/171 169/169
f 175/175 174/174 173/173
f 176/176 175/175 173/173
f 179/179 178/178 177/177
f 180/180 179/179 177/177
f 183/183 182/182 181/181
f 184/184 183/183 181/181
f 187/187 186/186 185/185
f 188/188 187/187 185/185
f 191/191 190/190 189/189
f 192/192 191/191 189/189
f 195/195 194/194 193/193
f 196/196 195/195 193/193
f 199/199 198/198 197/197
f 200/200 199/199 197/197
f 203/203 202/202 201/201
f 204/204 203/203 201/201
f 207/207 206/206 205/205
f 208/208 207/207 205/205
f 211/211 210/210 209/209
f 212/212 211/211 209/209
f 215/215 214/214 213/213
f 216/216 215/215 213/213
f 219/219 218/218 217/217
f 220/220 219/219 217/217
f 223/223 222/222 221/221
f 224/224 223/223 221/221
f 227/227 226/226 225/225
f 228/228 227/227 225/225
f 231/231 230/230 229/229
f 232/232 231/231 229/229
f 235/235 234/234 233/233
f 236/236 235/235 233/233
f 239/239 238/238 237/237
f 240/240 239/239 237/237
f 243/243 242/242 241/241
f 244/244 243/243 241/241
f 247/247 246/246 245/245
f 248/248 247/247 245/245
f 251/251 250/250 249/249
f 252/252 251/251 249/249
f 255/255 254/254 253/253
f 256/256 255/255 253/253
f 259/259 258/258 257/257
f 260/260 259/259 257/257
f 263/263 262/262 261/261
f 264/264 263/263 261/261
f 267/267 266/266 265/265
f 268/268 267/267 265/265
f 271/271 270/270 269/269
f 272/272 271/271 269/269
f 275/275 274/274 273/273
f 276/276 275/275 273/273
f 279/279 278/278 277/277
f 280/280 279/279 277/277
f 283/283 282/282 281/281
f 284/284 283/283 281/281
f 287/287 286/286 285/285
f 288/288 287/287 285/285
f 291/291 290/290 289/289
f 292/292 291/291 289/289
f 295/295 294/294 293/293
f 296/296 295/295 293/293
f 299/299 298/298 297/297
f 300/300 299/299 297/297
f 303/303 302/302 301/301
f 304/304 303/303 301/301
f 307/307 306/306 305/305
f 308/308 307/307 305/305
f 311/311 310/310 309/309
f 312/312 311/311 309/309
f 315/315 314/314 313/313
f 316/316 315/315 313/313
f 319/319 318/318 317/317
f 320/320 319/319 317/317
f 323/323 322/322 321/321
f 324/324 323/323 321/321
f 327/327 326/326 325/325
f 328/328 327/327 325/325
f 331/331 330/330 329/329
f 332/332 331/331 329/329
f 335/335 334/334 333/333
f 336/336 335/335 333/333
f 339/339 338/338 337/337
f 340/340 339/339 337/337
f 343/343 342/342 341/341
f 344/344 343/343 341/341
f 347/347 346/346 345/345
f 348/348 347/347 345/345
f 351/351 350/350 349/349
f 352/352 351/351 349/349
f 355/355 354/354 353/353
f 356/356 355/355 353/353
f 359/359 358/358 357/357
f 360/360 359/359 357/357
f 363/363 362/362 361/361
f 364/364 363/363 361/361
f 367/367 366/366 365/365
f 368/368 367/367 365/365
f 371/371 370/370 369/369
f 372/372 371/371 369/369
f 375/375 374/374 373/373
f 376/376 375/375 373/373
f 379/379 378/378 377/377
f 380/380 379/379 377/377
f 383/383 382/382 381/381
f 384/384 383/383 381/381
f 387/387 386/386 385/385
f 388/388 387/387 385/385
f 391/391 390/390 389/389
f 392/392 391/391 389/389
f 395/395 394/394 393/393
f 396/396 395/395 393/393
f 399/399 398/398 397/397
f 400/400 399/399 397/397
f 403/403 402/402 401/401
f 404/404 403/403 401/401
f 407/407 406/406 405/405
f 408/408 407/407 405/405
f 411/411 410/410 409/409
f 412/412 411/411 409/409
f 415/415 414/414 413/413
f 416/416 415/415 413/413
f 419/419 418/418 417/417
f 420/420 419/419 417/417
f 423/423 422/422 421/421
f 424/424 423/423 421/421
f 427/427 426/426 425/425
f 428/428 427/427 425/425
f 431/431 430/430 429/429
f 432/432 431/431 429/429
f 435/435 434/434 433/433
f 436/436 435/435 433/433
f 439/439 438/438 437/437
f 440/440 439/439 437/437
f 443/443 442/442 441/441
f 444/444 443/443 441/441
f 447/447 446/446 445/445
f 448/448 447/447 445/445
f 451/451 450/450 449/449
f 452/452 451/451 449/449
f 455/455 454/454 453/453
f 456/456 455/455 453/453
f 459/459 458/458 457/457
f 460/460 459/459 457/457
f 463/463 462/462 461/461
f 464/464 463/463 461/461
f 467/467 466/466 465/465
f 468/468 467/467 465/465
f 471/471 470/470 469/469
f 472/472 471/471 469/469
f 475/475 474/474 473/473
f 476/476 475/475 473/473
f 479/479 478/478 477/477
f 480/480 479/479 477/477
f 483/483 482/482 481/481
f 484/484 483/483 481/481
f 487/487 486/486 485/485
f 488/488 487/487 485/485
f 491/491 490/490 489/489
f 492/492 491/491 489/489
f 495/495 494/494 493/493
f 496/496 495/495 493/493
f 499/499 498/498 497/497
f 500/500 499/499 497/497
f 503/503 502/502 501/501
f 504/504 503/503 501/501
f 507/507 506/506 505/505
f 508/508 507/507 505/505
f 511/511 510/510 509/509
f 512/512 511/511 509/509
f 515/515 514/514 513/513
f 516/516 515/515 513/513
f 519/519 518/518 517/517
f 520/520 519/519 517/517
f 523/523 522/522 521/521
f 524/524 523/523 521/521
f 527/527 526/526 525/525
f 528/528 527/527 525/525
f 531/531 530/530 529/529
f 532/532 531/531 529/529
f 535/535 534/534 533/533
f 536/536 535/535 533/533
f 539/539 538/538 537/537
f 540/540 539/539 537/537
f 543/543 542/542 541/541
f 544/544 543/543 541/541
f 547/547 546/546 545/545
f 548/548 547/547 545/545
f 551/551 550/550 549/549
f 552/552 551/551 549/549
f 555/555 554/554 553/553
f 556/556 555/555 553/553
f 559/559 558/558 557/557
f 560/560 559/559 557/557
f 563/563 562/562 561/561
f 564/564 563/563 561/561
f 567/567 566/566 565/565
f 568/568 567/567 565/565
f 571/571 570/570 569/569
f 572/572 571/571 569/569
f 575/575 574/574 573/573
f 576/576 575/575 573/573
f 579/579 578/578 577/577
f 580/580 579/579 577/577
f 583/583 582/582 581/581
f 584/584 583/583 581/581
f 587/587 586/586 585/585
f 588/588 587/587 585/585
f 591/591 590/590 589/589
f 592/592 591/591 589/589
f 595/595 594/594 593/593
f 596/596 595/595 593/593
f 599/599 598/598 597/597
f 600/600 599/599 597/597
f 603/603 602/602 601/601
f 604/604 603/603 601/601
f 607/607 606/606 605/605
f 608/608 607/607 605/605
f 611/611 610/610 609/609
f 612/612 611/611 609/609
f 615/615 614/614 613/613
f 616/616 615/615 613/613
f 619/619 618/618 617/617
f 620/620 619/619 617/617
f 623/623 622/622 621/621
f 624/624 623/623 621/621
f 627/627 626/626 625/625
f 628/628 627/627 625/625
f 631/631 630/630 629/629
f 632/632 631/631 629/629
f 635/635 634/634 633/633
f 636/636 635/635 633/633
f 639/639 638/638 637/637
f 640/640 639/639 637/637
f 643/643 642/642 641/641
f 644/644 643/643 641/641
f 647/647 646/646 645/645
f 648/648 647/647 645/645
f 651/651 650/650 649/649
f 652/652 651/651 649/649
f 655/655 654/654 653/653
f 656/656 655/655 653/653
f 659/659 658/658 657/657
f 660/660 659/659 657/657
f 663/663 662/662 661/661
f 664/664 663/663 661/661
f 667/667 666/666 665/665
f 668/668 667/667 665/665
f 671/671 670/670 669/669
f 672/672 671/671 669/669
f 675/675 674/674 673/673
f 676/676 675/675 673/673
f 679/679 678/678 677/677
f 680/680 679/679 677/677
f 683/683 682/682 681/681
f 684/684 683/683 681/681
f 687/687 686/686 685/685
f 688/688 687/687 685/685
f 691/691 690/690 689/689
f 692/692 691/691 689/689
f 695/695 694/694 693/693
f 696/696 695/695 693/693
f 699/699 698/698 697/697
f 700/700 699/699 697/697
f 703/703 702/702 701/701
f 704/704 703/703 701/701
f 707/707 706/706 705/705
f 708/708 707/707 705/705
f 711/711 710/710 709/709
f 712/712 711/711 709/709
f 715/715 714/714 713/713
f 716/716 715/715 713/713
f 719/719 718/718 717/717
f 720/720 719/719 717/717
f 723/723 722/722 721/721
f 724/724 723/723 721/721
f 727/727 726/726 725/725
f 728/728 727/727 725/725
f 731/731 730/730 729/729
f 732/732 731/731 729/729
f 735/735 734/734 733/733
f 736/736 735/735 733/733
f 739/739 738/738 737/737
f 740/740 739/739 737/737
f 743/743 742/742 741/741
f 744/744 743/743 741/741
f 747/747 746/746 745/745
f 748/748 747/747 745/745
f 751/751 750/750 749/749
f 752/752 751/751 749/749
f 755/755 754/754 753/753
f 756/756 755/755 753/753
f 759/759 758/758 757/757
f 760/760 759/759 757/757
f 763/763 762/762 761/761
f 764/764 763/763 761/761
f 767/767 766/766 765/765
f 768/768 767/767 765/765
f 771/771 770/770 769/769
f 772/772 771/771 769/769
f 775/775 774/774 773/773
f 776/776 775/775 773/773
f 779/779 778/778 777/777
f 780/780 779/779 777/777
f 783/783 782/782 781/781
f 784/784 783/783 781/781
f 787/787 786/786 785/785
f 788/788 787/787 785/785
f 791/791 790/790 789/789
f 792/792 791/791 789/789
f 795/795 794/794 793/793
f 796/796 795/795 793/793
f 799/799 798/798 797/797
f 800/800 799/799 797/797
f 803/803 802/802 801/801
f 804/804 803/803 801/801
f 807/807 806/806 805/805
f 808/808 807/807 805/805
f 811/811 810/810 809/809
f 812/812 811/811 809/809
f 815/815 814/814 813/813
f 816/816 815/815 813/813
f 819/819 818/818 817/817
f 820/820 819/819 817/817
f 823/823 822/822 821/821
f 824/824 823/823 821/821
f 827/827 826/826 825/825
f 828/828 827/827 825/825
f 831/831 830/830 829/829
f 832/832 831/831 829/829
f 835/835 834/834 833/833
f 836/836 835/835 833/833
f 839/839 838/838 837/837
f 840/840 839/839 837/837
f 843/843 842/842 841/841
f 844/844 843/843 841/841
f 847/847 846/846 845/845
f 848/848 847/847 845/845
f 851/851 850/850 849/849
f 852/852 851/851 849/849
f 855/855 854/854 853/853
f 856/856 855/855 853/853
f 859/859 858/858 857/857
f 860/860 859/859 857/857
f 863/863 862/862 861/861
f 864/864 863/863 861/861
