# OSM contributors ODbL; elevations USGS 3DEP
# Centimeters, Z up, OBJ Y = negative source ENU Y. Apply source-to-world placement.
o EastsideTrailRealistic_Concrete_7_12
v 23255.811991 32564.696489 -36.062500
v 23255.811991 32498.029823 -36.062500
v 23234.136472 32519.705342 -36.570520
v 23244.586272 32564.696489 -36.325603
v 23229.102040 32498.029823 -36.688514
v 23322.478658 32564.696489 -35.020833
v 23322.478658 32498.029823 -35.541667
v 23389.145325 32564.696489 -33.979167
v 23389.145325 32498.029823 -33.979167
v 23455.811991 32564.696489 -29.552083
v 23455.811991 32498.029823 -25.125000
v 23522.478658 32564.696489 -15.229167
v 23522.478658 32498.029823 -8.458333
v 23573.104313 32564.696489 -2.572753
v 23564.907013 32529.403381 -4.070623
v 23563.562124 32523.613023 -4.316371
v 23557.620081 32498.029823 -2.692944
v 23255.811991 32431.363156 -37.104167
v 23221.570789 32465.604358 -37.371676
v 23213.617809 32431.363156 -37.763451
v 23322.478658 32431.363156 -36.322917
v 23389.145325 32431.363156 -34.239583
v 23455.811991 32431.363156 -21.479167
v 23522.478658 32431.363156 -1.687500
v 23550.996442 32469.512039 -3.111249
v 23542.135850 32431.363156 0.001790
v 23255.811991 32364.696489 -37.364583
v 23209.005107 32411.503374 -37.913102
v 23198.133578 32364.696489 -38.040502
v 23208.040925 32407.352132 -37.924401
v 23322.478658 32364.696489 -36.583333
v 23389.145325 32364.696489 -34.760417
v 23455.811991 32364.696489 -18.875000
v 23522.478658 32364.696489 7.166667
v 23538.430759 32415.411055 1.365832
v 23526.651618 32364.696489 7.411176
v 23189.145325 32325.997968 -37.994667
v 23189.145325 32298.029823 -37.885417
v 23183.873742 32303.301405 -38.008969
v 23182.649346 32298.029823 -38.063041
v 23255.811991 32298.029823 -37.104167
v 23196.439425 32357.402389 -38.031863
v 23192.986503 32342.535989 -38.014255
v 23322.478658 32298.029823 -36.583333
v 23389.145325 32298.029823 -32.937500
v 23455.811991 32298.029823 -11.843750
v 23522.478658 32346.729995 8.500117
v 23519.743746 32334.954953 8.305721
v 23513.299395 32307.209086 7.847660
v 23511.167387 32298.029823 8.049595
v 23525.865077 32361.310070 7.576741
v 23189.145325 32231.363156 -38.145833
v 23171.308060 32249.200421 -38.563894
v 23167.165115 32231.363156 -38.746855
v 23255.811991 32231.363156 -37.625000
v 23322.478658 32231.363156 -37.104167
v 23389.145325 32231.363156 -27.729167
v 23455.811991 32231.363156 -0.906250
v 23504.689324 32270.138810 6.484186
v 23500.733712 32253.108102 5.528322
v 23495.683156 32231.363156 7.971314
v 23189.145325 32164.696489 -38.406250
v 23158.742377 32195.099437 -39.118819
v 23151.680883 32164.696489 -39.430668
v 23255.811991 32164.696489 -38.145833
v 23322.478658 32164.696489 -37.104167
v 23389.145325 32164.696489 -25.125000
v 23455.811991 32164.696489 3.520833
v 23488.168030 32199.007118 6.677196
v 23480.198924 32164.696489 7.617076
v 23189.145325 32098.029823 -39.447917
v 23146.176695 32140.998452 -39.951455
v 23147.823236 32148.087561 -39.795665
v 23136.196652 32098.029823 -40.275240
v 23255.811991 32098.029823 -38.927083
v 23322.478658 32098.029823 -37.625000
v 23389.145325 32098.029823 -26.427083
v 23455.811991 32098.029823 2.479167
v 23475.602347 32144.906133 6.999607
v 23464.714693 32098.029823 4.183199
v 23122.478658 32038.967614 -40.258872
v 23122.478658 32031.363156 -40.229167
v 23121.045330 32032.796484 -40.251562
v 23120.712420 32031.363156 -40.270563
v 23189.145325 32031.363156 -39.708333
v 23133.611012 32086.897468 -40.359126
v 23132.768814 32083.271419 -40.351541
v 23255.811991 32031.363156 -39.447917
v 23322.478658 32031.363156 -37.885417
v 23389.145325 32031.363156 -27.729167
v 23455.811991 32059.699640 -0.215924
v 23450.470982 32036.704165 -4.148622
v 23449.230461 32031.363156 -4.727825
v 23463.036665 32090.805149 3.777350
v 23122.478658 31964.696489 -40.489583
v 23108.479648 31978.695500 -40.763002
v 23105.228189 31964.696489 -40.826507
v 23189.145325 31964.696489 -40.229167
v 23255.811991 31964.696489 -39.968750
v 23322.478658 31964.696489 -36.322917
v 23389.145325 31964.696489 -18.093750
v 23444.471634 32010.874239 -4.308589
v 23437.905300 31982.603181 -3.730116
v 23433.746230 31964.696489 -2.587967
v 23122.478658 31898.029823 -41.010417
v 23095.913965 31924.594516 -41.321722
v 23102.659969 31953.639133 -40.963053
v 23089.743957 31898.029823 -41.521896
v 23189.145325 31898.029823 -41.010417
v 23255.811991 31898.029823 -40.489583
v 23322.478658 31898.029823 -33.979167
v 23389.145325 31898.029823 -7.416667
v 23425.339618 31928.502196 -0.986291
v 23418.261998 31898.029823 1.682294
v 23122.478658 31831.363156 -41.531250
v 23083.348283 31870.493531 -41.836956
v 23087.605546 31888.822990 -41.627237
v 23074.259726 31831.363156 -42.096316
v 23189.145325 31831.363156 -41.531250
v 23255.811991 31831.363156 -40.750000
v 23322.478658 31831.363156 -31.375000
v 23389.145325 31831.363156 -1.687500
v 23412.773935 31874.401212 0.705668
v 23402.777767 31831.363156 1.827114
v 23122.478658 31764.696489 -41.531250
v 23070.782600 31816.392547 -42.137063
v 23058.775494 31764.696489 -42.277771
v 23189.145325 31764.696489 -42.052083
v 23255.811991 31764.696489 -40.750000
v 23322.478658 31764.696489 -27.208333
v 23389.145325 31772.669286 2.668686
v 23387.642570 31766.199244 2.479689
v 23387.293535 31764.696489 2.414091
v 23400.208253 31820.300228 1.337519
v 23399.308367 31816.425811 1.445800
v 23055.811991 31751.937259 -42.561704
v 23055.811991 31698.029823 -43.614583
v 23045.651235 31708.190579 -43.654274
v 23043.291263 31698.029823 -43.859129
v 23122.478658 31698.029823 -43.093750
v 23058.216918 31762.291563 -42.340683
v 23189.145325 31698.029823 -42.572917
v 23255.811991 31698.029823 -40.229167
v 23322.478658 31698.029823 -21.739583
v 23375.076888 31712.098259 0.118091
v 23371.809304 31698.029823 -0.157426
v 23055.811991 31631.363156 -44.135417
v 23033.085553 31654.089594 -44.401742
v 23042.442279 31694.374562 -43.904267
v 23027.807031 31631.363156 -44.682389
v 23122.478658 31631.363156 -43.875000
v 23189.145325 31631.363156 -43.093750
v 23255.811991 31631.363156 -36.583333
v 23322.478658 31631.363156 -7.156250
v 23362.511205 31657.997275 -0.003161
v 23356.325072 31631.363156 3.817392
v 23055.811991 31564.696489 -44.395833
v 23020.519871 31599.988610 -44.947273
v 23027.387857 31629.558420 -44.697625
v 23012.322800 31564.696489 -45.245232
v 23122.478658 31564.696489 -44.135417
v 23189.145325 31564.696489 -43.093750
v 23255.811991 31564.696489 -35.541667
v 23322.478658 31564.696489 -6.895833
v 23349.945523 31603.896291 1.963608
v 23340.840841 31564.696489 -0.870742
v 23055.811991 31498.029823 -44.656250
v 23007.954188 31545.887626 -45.404028
v 22996.838569 31498.029823 -46.038440
v 23122.478658 31498.029823 -44.395833
v 23189.145325 31498.029823 -43.093750
v 23255.811991 31498.029823 -34.239583
v 23322.478658 31498.029823 -6.895833
v 23339.090678 31557.161240 -1.415580
v 23337.379841 31549.795307 -1.948175
v 23325.356609 31498.029823 -5.940264
v 22989.145325 31464.906905 -46.348136
v 22989.145325 31431.363156 -46.479167
v 22982.822823 31437.685657 -46.503864
v 22981.354337 31431.363156 -46.600901
v 22982.224590 31435.109991 -46.543395
v 23055.811991 31431.363156 -45.697917
v 22995.388506 31491.786642 -46.169975
v 23122.478658 31431.363156 -44.916667
v 23189.145325 31431.363156 -43.093750
v 23255.811991 31431.363156 -30.072917
v 23322.478658 31485.638931 -5.540580
v 23312.248476 31441.593338 -4.919066
v 23309.872378 31431.363156 -5.365631
v 23324.814158 31495.694323 -6.010898
v 22989.145325 31364.696489 -46.479167
v 22970.257141 31383.584673 -46.774295
v 22965.870106 31364.696489 -46.933761
v 23055.811991 31364.696489 -46.218750
v 23122.478658 31364.696489 -45.177083
v 23189.145325 31364.696489 -41.791667
v 23255.811991 31364.696489 -23.562500
v 23299.682793 31387.492354 -5.909702
v 23294.388147 31364.696489 -6.082680
v 22989.145325 31298.029823 -46.218750
v 22957.691458 31329.483689 -46.955950
v 22950.385874 31298.029823 -47.278579
v 23055.811991 31298.029823 -46.218750
v 23122.478658 31298.029823 -45.437500
v 23189.145325 31298.029823 -39.187500
v 23255.811991 31298.029823 -17.312500
v 23287.117111 31333.391370 -8.521368
v 23278.903915 31298.029823 -8.382420
v 22989.145325 31231.363156 -46.739583
v 22945.125776 31275.382705 -47.599340
v 22934.901643 31231.363156 -48.010920
v 22937.061323 31240.661563 -47.923980
v 23055.811991 31231.363156 -46.739583
v 23122.478658 31231.363156 -45.437500
v 23189.145325 31231.363156 -37.364583
v 23255.811991 31231.363156 -14.447917
v 23278.872988 31297.896669 -8.391779
v 23274.551428 31279.290386 -9.699604
v 23263.419684 31231.363156 -11.684185
v 22922.478658 31177.876550 -48.302083
v 22922.478658 31164.696489 -48.302083
v 22919.994411 31167.180736 -48.360308
v 22919.417411 31164.696489 -48.397747
v 22989.145325 31164.696489 -47.260417
v 22932.560094 31221.281720 -48.144561
v 23055.811991 31164.696489 -47.000000
v 23122.478658 31164.696489 -45.177083
v 23189.145325 31164.696489 -32.156250
v 23255.811991 31198.608577 -8.306433
v 23249.420064 31171.088417 -5.343628
v 23248.764144 31168.264384 -5.420214
v 23247.935452 31164.696489 -5.516973
v 23261.985746 31225.189401 -11.602202
v 22922.478658 31098.029823 -48.562500
v 22907.428729 31113.079752 -48.974022
v 22903.933180 31098.029823 -49.214489
v 22989.145325 31098.029823 -47.781250
v 23055.811991 31098.029823 -47.520833
v 23122.478658 31098.029823 -44.656250
v 23189.145325 31098.029823 -24.343750
v 23236.854381 31116.987433 -3.456271
v 23233.709721 31103.448241 -3.392841
v 23232.451221 31098.029823 -3.367457
v 22922.478658 31031.363156 -48.562500
v 22894.863046 31058.978768 -49.533361
v 22888.448948 31031.363156 -49.758857
v 22989.145325 31031.363156 -47.781250
v 23055.811991 31031.363156 -47.520833
v 23122.478658 31031.363156 -42.312500
v 23189.145325 31031.363156 -14.447917
v 23224.288699 31062.886449 -4.301045
v 23216.966989 31031.363156 -2.710652
v 22922.478658 30964.696489 -48.562500
v 22882.297364 31004.877783 -49.975124
v 22872.964717 30964.696489 -50.109811
v 22876.843634 30981.396992 -50.053831
v 22989.145325 30964.696489 -48.302083
v 23055.811991 30964.696489 -47.260417
v 23122.478658 30964.696489 -33.718750
v 23189.145325 30964.696489 1.177083
v 23211.723016 31008.785464 -3.688236
v 23201.482758 30964.696489 4.165055
v 22922.478658 30898.029823 -49.083333
v 22869.731681 30950.776799 -50.319591
v 22857.480485 30898.029823 -50.860627
v 22989.145325 30898.029823 -48.562500
v 23055.811991 30898.029823 -47.000000
v 23122.478658 30898.029823 -29.031250
v 23189.145325 30911.578222 5.741934
v 23188.546454 30908.999813 5.650045
v 23186.591651 30900.583496 5.350105
v 23185.998526 30898.029823 5.209929
v 23199.157334 30954.684480 3.875633
v 22855.811991 30890.846196 -50.906250
v 22855.811991 30831.363156 -50.906250
v 22844.600317 30842.574831 -51.300410
v 22841.996254 30831.363156 -51.445927
v 22922.478658 30831.363156 -49.343750
v 22857.165999 30896.675815 -50.874515
v 22989.145325 30831.363156 -48.822917
v 23055.811991 30831.363156 -47.000000
v 23122.478658 30831.363156 -27.468750
v 23174.025969 30846.482512 0.568182
v 23173.492032 30844.183670 0.327979
v 23170.514295 30831.363156 -1.011622
v 22855.811991 30764.696489 -50.645833
v 22832.034634 30788.473847 -51.667517
v 22826.512023 30764.696489 -51.904816
v 22922.478658 30764.696489 -49.604167
v 22989.145325 30764.696489 -49.083333
v 23055.811991 30764.696489 -46.739583
v 23122.478658 30764.696489 -20.697917
v 23161.460287 30792.381527 -2.343872
v 23155.030063 30764.696489 -3.023521
v 22855.811991 30698.029823 -50.385417
v 22819.468952 30734.372862 -52.088997
v 22811.027791 30698.029823 -52.134799
v 22816.625944 30722.132422 -52.104423
v 22922.478658 30698.029823 -49.864583
v 22989.145325 30698.029823 -49.083333
v 23055.811991 30698.029823 -44.916667
v 23122.478658 30698.029823 -13.927083
v 23148.894604 30738.280543 -5.323011
v 23139.545832 30698.029823 -5.726840
v 22855.811991 30631.363156 -50.645833
v 22806.903269 30680.271878 -52.365281
v 22795.543560 30631.363156 -52.764645
v 22922.478658 30631.363156 -49.864583
v 22989.145325 30631.363156 -48.822917
v 23055.811991 30631.363156 -35.281250
v 23122.478658 30631.363156 0.916667
v 23136.328922 30684.179559 -7.001952
v 23128.328765 30649.735242 -1.551503
v 23124.061601 30631.363156 1.355686
v 22789.145325 30603.815841 -52.881977
v 22789.145325 30564.696489 -52.729167
v 22781.771904 30572.069910 -53.045993
v 22780.059328 30564.696489 -53.084088
v 22855.811991 30564.696489 -50.906250
v 22794.337587 30626.170894 -52.827325
v 22922.478658 30564.696489 -50.125000
v 22989.145325 30564.696489 -48.041667
v 23055.811991 30564.696489 -28.250000
v 23122.478658 30624.547868 1.475733
v 23113.274343 30584.919100 -0.271125
v 23111.197557 30575.977590 -0.665272
v 23108.577369 30564.696489 -0.836737
v 23123.763239 30630.078575 1.262901
v 22789.145325 30498.029823 -52.468750
v 22769.206222 30517.968925 -53.325508
v 22771.462677 30527.683993 -53.275315
v 22764.575097 30498.029823 -53.428525
v 22855.811991 30498.029823 -51.166667
v 22922.478658 30498.029823 -50.385417
v 22989.145325 30498.029823 -47.260417
v 23055.811991 30498.029823 -24.083333
v 23098.631874 30521.876606 -4.498346
v 23093.093138 30498.029823 -5.734019
v 22789.145325 30431.363156 -52.468750
v 22756.640540 30463.867941 -53.738468
v 22749.090865 30431.363156 -53.876915
v 22855.811991 30431.363156 -51.427083
v 22922.478658 30431.363156 -50.385417
v 22989.145325 30431.363156 -44.135417
v 23055.811991 30431.363156 -17.052083
v 23086.066192 30467.775622 -8.128970
v 23083.165498 30455.286814 -8.035521
v 23077.608906 30431.363156 -7.856510
v 22789.145325 30364.696489 -52.729167
v 22744.074857 30409.766957 -54.137619
v 22733.606634 30364.696489 -54.464751
v 22855.811991 30364.696489 -51.427083
v 22922.478658 30364.696489 -50.385417
v 22989.145325 30364.696489 -40.750000
v 23055.811991 30364.696489 -10.281250
v 23073.500510 30413.674638 -10.211602
v 23068.111076 30390.470671 -9.391780
v 23062.124675 30364.696489 -8.481149
v 22722.478658 30316.785487 -54.999652
v 22722.478658 30298.029823 -55.072917
v 22718.943492 30301.564988 -55.197200
v 22718.122402 30298.029823 -55.226066
v 22789.145325 30298.029823 -53.510417
v 22731.509175 30355.665973 -54.636123
v 22855.811991 30298.029823 -51.947917
v 22922.478658 30298.029823 -50.385417
v 22989.145325 30298.029823 -44.395833
v 23055.811991 30337.517513 -15.589644
v 23048.369145 30305.472669 -25.250016
v 23046.640443 30298.029823 -26.204018
v 23060.934827 30359.573654 -10.461350
v 22722.478658 30231.363156 -54.552083
v 22706.230456 30247.611358 -55.250248
v 22711.390200 30269.044627 -55.236298
v 22702.318940 30231.363156 -55.339572
v 22789.145325 30231.363156 -53.250000
v 22855.811991 30231.363156 -52.208333
v 22922.478658 30231.363156 -50.645833
v 22989.145325 30231.363156 -47.781250
v 23035.803462 30251.371685 -42.208733
v 23031.156212 30231.363156 -43.678624
v 22722.478658 30164.696489 -54.552083
v 22693.041005 30194.134142 -55.701992
v 22696.406294 30206.802377 -55.570535
v 22685.220957 30164.696489 -55.716387
v 22789.145325 30164.696489 -53.510417
v 22855.811991 30164.696489 -52.468750
v 22922.478658 30164.696489 -50.906250
v 22989.145325 30164.696489 -47.520833
v 23023.237780 30197.270701 -44.052388
v 23022.947809 30196.022243 -44.078094
v 23022.652373 30194.773019 -44.104373
v 23015.411891 30164.696489 -44.750531
v 22722.478658 30098.029823 -54.812500
v 22679.048286 30141.460195 -56.000049
v 22679.803089 30144.301564 -55.965363
v 22667.511102 30098.029823 -56.315519
v 22789.145325 30098.029823 -54.031250
v 22855.811991 30098.029823 -52.989583
v 22922.478658 30098.029823 -51.166667
v 22989.145325 30098.029823 -46.739583
v 23010.315486 30143.526328 -44.626475
v 23007.079881 30130.085819 -44.873420
v 23006.160651 30126.454719 -44.945772
v 22998.609639 30098.029823 -45.556544
v 22655.811991 30053.989895 -56.979479
v 22655.811991 30031.363156 -57.156250
v 22651.062847 30036.112300 -57.304661
v 22649.801247 30031.363156 -57.367565
v 22722.478658 30031.363156 -55.333333
v 22665.055566 30088.786248 -56.454878
v 22662.719017 30079.990582 -56.587484
v 22789.145325 30031.363156 -54.552083
v 22855.811991 30031.363156 -53.510417
v 22922.478658 30031.363156 -50.645833
v 22989.145325 30062.402523 -45.904568
v 22989.076579 30062.143736 -45.903068
v 22982.630448 30037.878033 -45.762404
v 22980.899785 30031.363156 -45.853475
v 22996.623167 30090.551981 -45.746432
v 22655.811991 29964.696489 -57.677083
v 22637.070128 29983.438353 -58.189556
v 22645.634945 30015.679599 -57.636565
v 22632.091393 29964.696489 -58.418352
v 22722.478658 29964.696489 -56.375000
v 22789.145325 29964.696489 -55.333333
v 22855.811991 29964.696489 -54.031250
v 22922.478658 29964.696489 -49.864583
v 22971.992507 29997.832754 -45.667304
v 22968.637728 29985.204086 -45.597185
v 22963.189930 29964.696489 -45.888873
v 22655.811991 29898.029823 -58.197917
v 22622.776470 29931.065344 -58.972187
v 22628.888107 29952.638095 -58.612661
v 22613.417391 29898.029823 -59.522748
v 22722.478658 29898.029823 -57.156250
v 22789.145325 29898.029823 -56.375000
v 22855.811991 29898.029823 -54.812500
v 22922.478658 29898.029823 -49.864583
v 22954.645009 29932.530138 -46.723338
v 22945.480076 29898.029823 -47.618351
v 22655.811991 29831.363156 -58.979167
v 22607.996435 29879.178712 -59.913064
v 22611.253905 29890.393187 -59.679849
v 22594.107443 29831.363156 -60.666400
v 22722.478658 29831.363156 -57.937500
v 22789.145325 29831.363156 -57.416667
v 22855.811991 29831.363156 -54.291667
v 22922.478658 29831.363156 -48.041667
v 22940.652290 29879.856191 -47.379907
v 22937.824362 29869.210789 -47.398126
v 22937.129097 29866.677540 -47.404903
v 22927.124408 29831.363156 -47.533538
v 22589.145325 29814.280100 -60.935545
v 22589.145325 29764.696489 -61.322917
v 22577.984618 29775.857196 -61.497303
v 22574.742765 29764.696489 -61.604217
v 22655.811991 29764.696489 -59.760417
v 22592.990526 29827.517954 -60.742002
v 22592.840530 29827.001564 -60.749552
v 22722.478658 29764.696489 -58.979167
v 22789.145325 29764.696489 -57.937500
v 22855.811991 29764.696489 -52.729167
v 22922.478658 29814.964666 -47.016761
v 22918.992473 29802.659187 -46.574498
v 22918.700316 29801.640807 -46.538239
v 22911.235032 29775.940115 -45.631817
v 22907.969094 29764.696489 -45.802051
v 22926.098807 29827.743007 -47.334606
v 22589.145325 29698.029823 -61.583333
v 22562.978709 29724.196438 -61.992187
v 22574.279392 29763.101235 -61.619498
v 22555.378088 29698.029823 -62.242850
v 22555.718253 29699.200905 -62.231631
v 22655.811991 29698.029823 -60.541667
v 22722.478658 29698.029823 -59.760417
v 22789.145325 29698.029823 -57.677083
v 22855.811991 29698.029823 -49.083333
v 22896.229124 29724.279357 -44.203678
v 22888.604417 29698.029823 -43.959517
v 22589.145325 29631.363156 -62.104167
v 22547.972801 29672.535680 -62.586657
v 22536.013411 29631.363156 -63.141899
v 22655.811991 29631.363156 -61.583333
v 22722.478658 29631.363156 -60.541667
v 22789.145325 29631.363156 -57.156250
v 22855.811991 29631.363156 -46.739583
v 22881.223215 29672.618599 -44.120204
v 22869.239740 29631.363156 -44.589045
v 22522.478658 29584.767137 -63.952297
v 22522.478658 29564.696489 -64.187500
v 22517.960983 29569.214164 -64.240441
v 22516.648734 29564.696489 -64.346912
v 22589.145325 29564.696489 -62.885417
v 22532.966892 29620.874922 -63.324311
v 22655.811991 29564.696489 -62.364583
v 22722.478658 29564.696489 -61.062500
v 22789.145325 29564.696489 -56.114583
v 22855.811991 29585.135521 -46.378430
v 22851.211398 29569.297083 -46.973535
v 22849.875063 29564.696489 -47.100013
v 22866.217306 29620.957841 -45.154399
v 22522.478658 29498.029823 -64.708333
v 22502.955075 29517.553406 -65.089653
v 22497.284056 29498.029823 -65.594081
v 22500.034836 29507.499917 -65.349404
v 22589.145325 29498.029823 -63.927083
v 22655.811991 29498.029823 -63.406250
v 22722.478658 29498.029823 -61.583333
v 22789.145325 29498.029823 -55.854167
v 22844.455761 29546.039489 -47.831562
v 22836.205489 29517.636325 -48.945261
v 22830.510385 29498.029823 -49.714040
v 22522.478658 29431.363156 -66.270833
v 22487.949166 29465.892648 -66.675476
v 22477.919379 29431.363156 -67.315191
v 22481.473697 29443.599587 -67.088491
v 22589.145325 29431.363156 -65.489583
v 22655.811991 29431.363156 -64.708333
v 22722.478658 29431.363156 -62.625000
v 22789.145325 29431.363156 -55.854167
v 22825.894622 29482.139159 -50.212974
v 22821.199581 29465.975567 -50.720477
v 22811.145708 29431.363156 -52.330668
v 22522.478658 29364.696489 -66.791667
v 22472.943258 29414.231890 -67.565657
v 22458.554702 29364.696489 -68.040181
v 22589.145325 29364.696489 -66.531250
v 22655.811991 29364.696489 -65.750000
v 22722.478658 29364.696489 -63.927083
v 22789.145325 29364.696489 -56.114583
v 22806.193672 29414.314809 -52.923982
v 22791.781031 29364.696489 -55.651276
v 22455.811991 29298.029823 -68.354167
v 22442.931440 29310.910374 -68.454796
v 22444.351420 29315.798928 -68.419060
v 22455.811991 29355.254175 -68.130634
v 22439.190025 29298.029823 -68.613885
v 22522.478658 29298.029823 -67.572917
v 22457.937349 29362.571132 -68.077146
v 22589.145325 29298.029823 -67.833333
v 22655.811991 29298.029823 -66.791667
v 22722.478658 29298.029823 -63.145833
v 22789.145325 29355.622558 -55.795578
v 22788.772344 29354.338500 -55.794144
v 22776.181855 29310.993293 -55.745737
v 22772.416354 29298.029823 -56.123345
v 22791.187763 29362.654051 -55.675778
v 22455.811991 29231.363156 -69.916667
v 22427.925532 29259.249616 -69.698804
v 22419.825347 29231.363156 -70.057239
v 22522.478658 29231.363156 -69.656250
v 22589.145325 29231.363156 -69.135417
v 22655.811991 29231.363156 -67.312500
v 22722.478658 29231.363156 -61.322917
v 22770.211205 29290.438171 -56.136895
v 22761.175946 29259.332534 -56.192414
v 22753.051676 29231.363156 -56.665308
v 22455.811991 29164.696489 -70.437500
v 22412.919623 29207.588858 -70.269952
v 22400.460670 29164.696489 -70.653716
v 22407.229142 29187.998269 -70.445232
v 22522.478658 29164.696489 -70.697917
v 22589.145325 29164.696489 -70.177083
v 22655.811991 29164.696489 -67.572917
v 22722.478658 29164.696489 -60.802083
v 22746.170038 29207.671776 -57.528594
v 22733.686999 29164.696489 -59.094563
v 22389.145325 29125.741213 -71.002255
v 22389.145325 29098.029823 -71.218750
v 22382.907806 29104.267341 -71.218750
v 22381.095993 29098.029823 -71.344521
v 22455.811991 29098.029823 -71.218750
v 22397.913715 29155.928099 -70.766420
v 22522.478658 29098.029823 -71.739583
v 22589.145325 29098.029823 -70.697917
v 22655.811991 29098.029823 -68.093750
v 22722.478658 29126.109596 -60.199163
v 22716.158220 29104.350260 -60.501093
v 22714.527789 29098.737182 -60.748749
v 22714.322322 29098.029823 -60.779959
v 22733.088928 29162.637512 -59.040903
v 22731.164129 29156.011018 -58.868209
v 22389.145325 29031.363156 -73.041667
v 22367.901897 29052.606583 -72.792720
v 22370.106864 29060.197610 -72.550701
v 22361.731316 29031.363156 -73.255839
v 22455.811991 29031.363156 -72.781250
v 22522.478658 29031.363156 -72.520833
v 22589.145325 29031.363156 -71.479167
v 22655.811991 29031.363156 -68.093750
v 22701.152312 29052.689502 -58.352666
v 22695.966650 29034.836853 -59.466773
v 22694.957645 29031.363156 -59.683551
v 22389.145325 28964.696489 -75.645833
v 22352.895989 29000.945825 -74.513042
v 22342.366638 28964.696489 -75.463104
v 22351.545725 28996.297280 -74.634876
v 22455.811991 28964.696489 -74.343750
v 22522.478658 28964.696489 -73.302083
v 22589.145325 28964.696489 -72.000000
v 22655.811991 28964.696489 -66.010417
v 22686.146403 29001.028744 -58.614246
v 22677.405511 28970.936523 -60.132240
v 22675.592967 28964.696489 -60.447017
v 22389.145325 28898.029823 -75.645833
v 22337.890080 28949.285067 -75.445618
v 22323.001961 28898.029823 -75.387461
v 22455.811991 28898.029823 -74.864583
v 22522.478658 28898.029823 -74.083333
v 22589.145325 28898.029823 -71.218750
v 22655.811991 28898.029823 -59.239583
v 22671.140495 28949.367986 -60.082597
v 22658.844372 28907.036194 -59.289591
v 22656.228290 28898.029823 -59.120873
v 22322.478658 28896.228250 -75.392454
v 22322.478658 28831.363156 -75.645833
v 22307.878263 28845.963551 -75.588801
v 22303.637284 28831.363156 -75.866631
v 22389.145325 28831.363156 -75.906250
v 22322.884171 28897.624309 -75.388585
v 22455.811991 28831.363156 -75.645833
v 22522.478658 28831.363156 -74.604167
v 22589.145325 28831.363156 -70.177083
v 22655.811991 28896.596634 -59.189198
v 22641.128677 28846.046470 -60.050452
v 22640.283233 28843.135864 -60.173402
v 22636.863613 28831.363156 -60.670706
v 22656.134586 28897.707228 -59.131212
v 22322.478658 28764.696489 -77.468750
v 22292.872354 28794.302793 -77.006152
v 22295.862309 28804.596292 -76.689650
v 22284.272607 28764.696489 -77.617992
v 22389.145325 28764.696489 -77.208333
v 22455.811991 28764.696489 -76.427083
v 22522.478658 28764.696489 -75.385417
v 22589.145325 28764.696489 -70.958333
v 22626.122769 28794.385712 -62.232711
v 22621.722094 28779.235535 -63.407280
v 22617.498935 28764.696489 -64.534468
v 22322.478658 28698.029823 -79.031250
v 22277.866446 28742.642035 -78.159918
v 22264.907929 28698.029823 -78.581479
v 22389.145325 28698.029823 -78.250000
v 22455.811991 28698.029823 -76.947917
v 22522.478658 28698.029823 -76.166667
v 22589.145325 28698.029823 -70.958333
v 22611.116860 28742.724954 -64.607186
v 22603.160955 28715.335205 -66.906940
v 22598.134258 28698.029823 -68.359970
v 22255.811991 28666.715288 -78.755061
v 22255.811991 28631.363156 -79.031250
v 22247.854628 28639.320519 -79.000167
v 22245.543252 28631.363156 -79.031250
v 22322.478658 28631.363156 -79.291667
v 22262.860537 28690.981277 -78.593017
v 22258.740031 28676.795633 -78.687746
v 22389.145325 28631.363156 -78.770833
v 22455.811991 28631.363156 -77.729167
v 22522.478658 28631.363156 -76.427083
v 22589.145325 28667.083671 -69.507732
v 22584.599817 28651.434876 -69.129313
v 22581.105043 28639.403438 -68.838369
v 22578.769581 28631.363156 -69.170832
v 22596.110951 28691.064196 -68.346223
v 22255.811991 28564.696489 -79.812500
v 22232.848720 28587.659761 -79.543399
v 22240.178892 28612.895303 -79.247670
v 22226.178575 28564.696489 -79.812500
v 22322.478658 28564.696489 -80.072917
v 22389.145325 28564.696489 -79.031250
v 22455.811991 28564.696489 -77.989583
v 22522.478658 28564.696489 -74.864583
v 22566.099134 28587.742680 -67.737067
v 22566.038678 28587.534546 -67.742816
v 22559.404904 28564.696489 -68.373642
v 22255.811991 28498.029823 -81.895833
v 22217.842811 28535.999003 -80.709296
v 22221.617753 28548.994974 -80.303172
v 22206.813897 28498.029823 -81.704435
v 22322.478658 28498.029823 -81.114583
v 22389.145325 28498.029823 -79.812500
v 22455.811991 28498.029823 -78.770833
v 22522.478658 28498.029823 -73.562500
v 22551.093226 28536.081922 -67.822717
v 22547.477539 28523.634217 -68.398777
v 22540.040226 28498.029823 -69.583707
v 22189.145325 28437.202325 -81.873024
v 22189.145325 28431.363156 -81.895833
v 22187.830994 28432.677487 -81.890699
v 22187.449220 28431.363156 -81.902459
v 22255.811991 28431.363156 -82.416667
v 22202.836903 28484.338245 -81.795865
v 22203.056614 28485.094644 -81.790814
v 22322.478658 28431.363156 -81.635417
v 22389.145325 28431.363156 -80.333333
v 22455.811991 28431.363156 -79.031250
v 22522.478658 28437.570709 -73.090163
v 22521.081408 28432.760406 -73.161743
v 22520.675549 28431.363156 -73.203665
v 22536.087317 28484.421164 -69.628747
v 22528.916400 28459.733887 -71.452698
v 22189.145325 28364.696489 -82.416667
v 22172.825085 28381.016729 -82.352916
v 22184.495475 28421.194315 -81.993441
v 22168.084543 28364.696489 -82.581204
v 22255.811991 28364.696489 -82.677083
v 22322.478658 28364.696489 -81.895833
v 22389.145325 28364.696489 -80.854167
v 22455.811991 28364.696489 -79.291667
v 22506.075500 28381.099647 -73.337337
v 22501.310872 28364.696489 -73.959767
v 22189.145325 28298.029823 -83.979167
v 22157.819177 28329.355970 -83.489696
v 22165.934336 28357.293985 -82.771499
v 22148.719866 28298.029823 -83.821255
v 22255.811991 28298.029823 -83.718750
v 22322.478658 28298.029823 -82.416667
v 22389.145325 28298.029823 -81.375000
v 22455.811991 28298.029823 -78.770833
v 22491.794122 28331.933228 -72.771344
v 22491.069591 28329.438889 -72.680867
v 22481.946195 28298.029823 -74.074844
v 22189.145325 28231.363156 -85.020833
v 22142.813268 28277.695212 -84.115910
v 22147.373198 28293.393656 -83.888434
v 22129.355188 28231.363156 -84.787278
v 22255.811991 28231.363156 -84.239583
v 22322.478658 28231.363156 -82.937500
v 22389.145325 28231.363156 -81.635417
v 22455.811991 28231.363156 -77.989583
v 22476.063683 28277.778131 -73.787019
v 22473.232983 28268.032899 -74.336262
v 22462.581517 28231.363156 -76.402976
v 22189.145325 28164.696489 -85.281250
v 22127.807360 28226.034454 -84.802047
v 22128.812059 28229.493326 -84.792461
v 22122.478658 28164.696489 -84.760417
v 22122.478658 28207.689363 -84.760417
v 22255.811991 28164.696489 -84.760417
v 22322.478658 28164.696489 -83.458333
v 22389.145325 28164.696489 -81.375000
v 22455.811991 28208.057746 -77.079216
v 22454.671844 28204.132569 -76.988240
v 22446.051865 28174.456615 -76.300428
v 22443.216840 28164.696489 -76.517012
v 22461.057774 28226.117373 -76.411750
v 22189.145325 28098.029823 -86.062500
v 22122.478658 28098.029823 -85.541667
v 22255.811991 28098.029823 -85.281250
v 22322.478658 28098.029823 -83.718750
v 22389.145325 28098.029823 -79.812500
v 22436.110706 28140.232240 -75.817565
v 22431.045957 28122.795857 -75.319049
v 22423.852163 28098.029823 -75.609719
v 22189.145325 28031.363156 -86.583333
v 22122.478658 28031.363156 -87.104167
v 22255.811991 28031.363156 -85.541667
v 22322.478658 28031.363156 -82.937500
v 22389.145325 28031.363156 -76.947917
v 22416.040048 28071.135099 -74.874797
v 22404.487486 28031.363156 -74.790425
v 22189.145325 27964.696489 -86.843750
v 22122.478658 27964.696489 -88.145833
v 22255.811991 27964.696489 -85.802083
v 22322.478658 27964.696489 -82.937500
v 22389.145325 27978.544784 -75.709986
v 22386.028231 27967.813583 -75.738525
v 22385.122808 27964.696489 -75.841092
v 22401.034140 28019.474341 -74.486560
v 22398.988428 28012.431581 -74.697076
v 22189.145325 27898.029823 -87.364583
v 22122.478658 27898.029823 -88.406250
v 22255.811991 27898.029823 -86.583333
v 22322.478658 27898.029823 -85.020833
v 22371.022322 27916.152825 -78.955403
v 22365.758131 27898.029823 -80.118081
v 22189.145325 27831.363156 -87.885417
v 22122.478658 27831.363156 -89.187500
v 22255.811991 27831.363156 -87.364583
v 22322.478658 27831.363156 -85.802083
v 22356.016414 27864.492067 -80.828614
v 22346.393454 27831.363156 -82.532482
v 22189.145325 27764.696489 -88.666667
v 22122.478658 27764.696489 -89.968750
v 22255.811991 27764.696489 -88.145833
v 22322.478658 27764.696489 -85.541667
v 22343.305011 27820.730592 -82.539396
v 22341.010505 27812.831309 -82.544532
v 22327.028777 27764.696489 -84.759615
v 22189.145325 27698.029823 -89.447917
v 22122.478658 27698.029823 -90.489583
v 22255.811991 27698.029823 -88.666667
v 22322.478658 27749.031822 -85.480477
v 22310.998688 27709.509793 -85.774530
v 22307.664099 27698.029823 -86.033552
v 22326.004597 27761.170551 -84.921873
v 22189.145325 27631.363156 -89.708333
v 22122.478658 27631.363156 -91.010417
v 22255.811991 27631.363156 -87.885417
v 22306.182734 27692.929933 -85.909563
v 22295.992779 27657.849035 -85.056674
v 22288.299422 27631.363156 -85.347336
v 22189.145325 27564.696489 -89.708333
v 22122.478658 27564.696489 -91.531250
v 22255.811991 27564.696489 -86.322917
v 22280.986871 27606.188277 -84.640217
v 22269.060456 27565.129274 -84.935761
v 22268.934745 27564.696489 -84.938876
v 22189.145325 27498.029823 -89.968750
v 22122.478658 27498.029823 -92.052083
v 22255.811991 27519.518859 -85.969966
v 22250.975054 27502.866760 -86.085498
v 22250.499317 27501.228944 -86.121629
v 22249.570067 27498.029823 -86.192204
v 22265.980962 27554.527518 -84.892905
v 22189.145325 27431.363156 -89.968750
v 22122.478658 27431.363156 -92.572917
v 22235.969145 27451.206002 -86.127733
v 22231.938178 27437.328615 -86.458399
v 22230.205390 27431.363156 -86.600542
v 22189.145325 27364.696489 -90.229167
v 22122.478658 27364.696489 -93.093750
v 22220.963236 27399.545244 -86.737243
v 22213.377039 27373.428285 -87.639369
v 22210.840713 27364.696489 -87.940981
v 22189.145325 27298.029823 -91.010417
v 22122.478658 27298.029823 -93.875000
v 22205.957328 27347.884486 -88.324682
v 22194.815900 27309.527956 -90.166851
v 22191.476036 27298.029823 -90.719078
v 22189.145325 27290.005897 -91.135791
v 22176.254761 27245.627626 -92.383092
v 22175.945511 27244.562970 -92.413016
v 22122.478658 27231.363156 -94.916667
v 22172.111358 27231.363156 -92.784012
v 22190.951419 27296.223728 -90.749380
v 22160.939602 27192.902212 -93.113810
v 22122.478658 27164.696489 -97.000000
v 22157.693623 27181.727297 -93.716618
v 22152.746681 27164.696489 -94.635311
v 22145.933693 27141.241454 -93.793257
v 22122.478658 27098.029823 -95.958333
v 22139.132484 27117.826967 -94.250990
v 22133.382004 27098.029823 -94.638006
v 22130.927785 27089.580696 -94.209100
v 22122.478658 27060.492934 -94.931934
vt 116.279060 -162.823482
vt 116.279060 -162.490149
vt 116.170682 -162.598527
vt 116.222931 -162.823482
vt 116.145510 -162.490149
vt 116.612393 -162.823482
vt 116.612393 -162.490149
vt 116.945727 -162.823482
vt 116.945727 -162.490149
vt 117.279060 -162.823482
vt 117.279060 -162.490149
vt 117.612393 -162.823482
vt 117.612393 -162.490149
vt 117.865522 -162.823482
vt 117.824535 -162.647017
vt 117.817811 -162.618065
vt 117.788100 -162.490149
vt 116.279060 -162.156816
vt 116.107854 -162.328022
vt 116.068089 -162.156816
vt 116.612393 -162.156816
vt 116.945727 -162.156816
vt 117.279060 -162.156816
vt 117.612393 -162.156816
vt 117.754982 -162.347560
vt 117.710679 -162.156816
vt 116.279060 -161.823482
vt 116.045026 -162.057517
vt 115.990668 -161.823482
vt 116.040205 -162.036761
vt 116.612393 -161.823482
vt 116.945727 -161.823482
vt 117.279060 -161.823482
vt 117.612393 -161.823482
vt 117.692154 -162.077055
vt 117.633258 -161.823482
vt 115.945727 -161.629990
vt 115.945727 -161.490149
vt 115.919369 -161.516507
vt 115.913247 -161.490149
vt 116.279060 -161.490149
vt 115.982197 -161.787012
vt 115.964933 -161.712680
vt 116.612393 -161.490149
vt 116.945727 -161.490149
vt 117.279060 -161.490149
vt 117.612393 -161.733650
vt 117.598719 -161.674775
vt 117.566497 -161.536045
vt 117.555837 -161.490149
vt 117.629325 -161.806550
vt 115.945727 -161.156816
vt 115.856540 -161.246002
vt 115.835826 -161.156816
vt 116.279060 -161.156816
vt 116.612393 -161.156816
vt 116.945727 -161.156816
vt 117.279060 -161.156816
vt 117.523447 -161.350694
vt 117.503669 -161.265541
vt 117.478416 -161.156816
vt 115.945727 -160.823482
vt 115.793712 -160.975497
vt 115.758404 -160.823482
vt 116.279060 -160.823482
vt 116.612393 -160.823482
vt 116.945727 -160.823482
vt 117.279060 -160.823482
vt 117.440840 -160.995036
vt 117.400995 -160.823482
vt 115.945727 -160.490149
vt 115.730883 -160.704992
vt 115.739116 -160.740438
vt 115.680983 -160.490149
vt 116.279060 -160.490149
vt 116.612393 -160.490149
vt 116.945727 -160.490149
vt 117.279060 -160.490149
vt 117.378012 -160.724531
vt 117.323573 -160.490149
vt 115.612393 -160.194838
vt 115.612393 -160.156816
vt 115.605227 -160.163982
vt 115.603562 -160.156816
vt 115.945727 -160.156816
vt 115.668055 -160.434487
vt 115.663844 -160.416357
vt 116.279060 -160.156816
vt 116.612393 -160.156816
vt 116.945727 -160.156816
vt 117.279060 -160.298498
vt 117.252355 -160.183521
vt 117.246152 -160.156816
vt 117.315183 -160.454026
vt 115.612393 -159.823482
vt 115.542398 -159.893477
vt 115.526141 -159.823482
vt 115.945727 -159.823482
vt 116.279060 -159.823482
vt 116.612393 -159.823482
vt 116.945727 -159.823482
vt 117.222358 -160.054371
vt 117.189526 -159.913016
vt 117.168731 -159.823482
vt 115.612393 -159.490149
vt 115.479570 -159.622973
vt 115.513300 -159.768196
vt 115.448720 -159.490149
vt 115.945727 -159.490149
vt 116.279060 -159.490149
vt 116.612393 -159.490149
vt 116.945727 -159.490149
vt 117.126698 -159.642511
vt 117.091310 -159.490149
vt 115.612393 -159.156816
vt 115.416741 -159.352468
vt 115.438028 -159.444115
vt 115.371299 -159.156816
vt 115.945727 -159.156816
vt 116.279060 -159.156816
vt 116.612393 -159.156816
vt 116.945727 -159.156816
vt 117.063870 -159.372006
vt 117.013889 -159.156816
vt 115.612393 -158.823482
vt 115.353913 -159.081963
vt 115.293877 -158.823482
vt 115.945727 -158.823482
vt 116.279060 -158.823482
vt 116.612393 -158.823482
vt 116.945727 -158.863346
vt 116.938213 -158.830996
vt 116.936468 -158.823482
vt 117.001041 -159.101501
vt 116.996542 -159.082129
vt 115.279060 -158.759686
vt 115.279060 -158.490149
vt 115.228256 -158.540953
vt 115.216456 -158.490149
vt 115.612393 -158.490149
vt 115.291085 -158.811458
vt 115.945727 -158.490149
vt 116.279060 -158.490149
vt 116.612393 -158.490149
vt 116.875384 -158.560491
vt 116.859047 -158.490149
vt 115.279060 -158.156816
vt 115.165428 -158.270448
vt 115.212211 -158.471873
vt 115.139035 -158.156816
vt 115.612393 -158.156816
vt 115.945727 -158.156816
vt 116.279060 -158.156816
vt 116.612393 -158.156816
vt 116.812556 -158.289986
vt 116.781625 -158.156816
vt 115.279060 -157.823482
vt 115.102599 -157.999943
vt 115.136939 -158.147792
vt 115.061614 -157.823482
vt 115.612393 -157.823482
vt 115.945727 -157.823482
vt 116.279060 -157.823482
vt 116.612393 -157.823482
vt 116.749728 -158.019481
vt 116.704204 -157.823482
vt 115.279060 -157.490149
vt 115.039771 -157.729438
vt 114.984193 -157.490149
vt 115.612393 -157.490149
vt 115.945727 -157.490149
vt 116.279060 -157.490149
vt 116.612393 -157.490149
vt 116.695453 -157.785806
vt 116.686899 -157.748977
vt 116.626783 -157.490149
vt 114.945727 -157.324535
vt 114.945727 -157.156816
vt 114.914114 -157.188428
vt 114.906772 -157.156816
vt 114.911123 -157.175550
vt 115.279060 -157.156816
vt 114.976943 -157.458933
vt 115.612393 -157.156816
vt 115.945727 -157.156816
vt 116.279060 -157.156816
vt 116.612393 -157.428195
vt 116.561242 -157.207967
vt 116.549362 -157.156816
vt 116.624071 -157.478472
vt 114.945727 -156.823482
vt 114.851286 -156.917923
vt 114.829351 -156.823482
vt 115.279060 -156.823482
vt 115.612393 -156.823482
vt 115.945727 -156.823482
vt 116.279060 -156.823482
vt 116.498414 -156.937462
vt 116.471941 -156.823482
vt 114.945727 -156.490149
vt 114.788457 -156.647418
vt 114.751929 -156.490149
vt 115.279060 -156.490149
vt 115.612393 -156.490149
vt 115.945727 -156.490149
vt 116.279060 -156.490149
vt 116.435586 -156.666957
vt 116.394520 -156.490149
vt 114.945727 -156.156816
vt 114.725629 -156.376914
vt 114.674508 -156.156816
vt 114.685307 -156.203308
vt 115.279060 -156.156816
vt 115.612393 -156.156816
vt 115.945727 -156.156816
vt 116.279060 -156.156816
vt 116.394365 -156.489483
vt 116.372757 -156.396452
vt 116.317098 -156.156816
vt 114.612393 -155.889383
vt 114.612393 -155.823482
vt 114.599972 -155.835904
vt 114.597087 -155.823482
vt 114.945727 -155.823482
vt 114.662800 -156.106409
vt 115.279060 -155.823482
vt 115.612393 -155.823482
vt 115.945727 -155.823482
vt 116.279060 -155.993043
vt 116.247100 -155.855442
vt 116.243821 -155.841322
vt 116.239677 -155.823482
vt 116.309929 -156.125947
vt 114.612393 -155.490149
vt 114.537144 -155.565399
vt 114.519666 -155.490149
vt 114.945727 -155.490149
vt 115.279060 -155.490149
vt 115.612393 -155.490149
vt 115.945727 -155.490149
vt 116.184272 -155.584937
vt 116.168549 -155.517241
vt 116.162256 -155.490149
vt 114.612393 -155.156816
vt 114.474315 -155.294894
vt 114.442245 -155.156816
vt 114.945727 -155.156816
vt 115.279060 -155.156816
vt 115.612393 -155.156816
vt 115.945727 -155.156816
vt 116.121443 -155.314432
vt 116.084835 -155.156816
vt 114.612393 -154.823482
vt 114.411487 -155.024389
vt 114.364824 -154.823482
vt 114.384218 -154.906985
vt 114.945727 -154.823482
vt 115.279060 -154.823482
vt 115.612393 -154.823482
vt 115.945727 -154.823482
vt 116.058615 -155.043927
vt 116.007414 -154.823482
vt 114.612393 -154.490149
vt 114.348658 -154.753884
vt 114.287402 -154.490149
vt 114.945727 -154.490149
vt 115.279060 -154.490149
vt 115.612393 -154.490149
vt 115.945727 -154.557891
vt 115.942732 -154.544999
vt 115.932958 -154.502917
vt 115.929993 -154.490149
vt 115.995787 -154.773422
vt 114.279060 -154.454231
vt 114.279060 -154.156816
vt 114.223002 -154.212874
vt 114.209981 -154.156816
vt 114.612393 -154.156816
vt 114.285830 -154.483379
vt 114.945727 -154.156816
vt 115.279060 -154.156816
vt 115.612393 -154.156816
vt 115.870130 -154.232413
vt 115.867460 -154.220918
vt 115.852571 -154.156816
vt 114.279060 -153.823482
vt 114.160173 -153.942369
vt 114.132560 -153.823482
vt 114.612393 -153.823482
vt 114.945727 -153.823482
vt 115.279060 -153.823482
vt 115.612393 -153.823482
vt 115.807301 -153.961908
vt 115.775150 -153.823482
vt 114.279060 -153.490149
vt 114.097345 -153.671864
vt 114.055139 -153.490149
vt 114.083130 -153.610662
vt 114.612393 -153.490149
vt 114.945727 -153.490149
vt 115.279060 -153.490149
vt 115.612393 -153.490149
vt 115.744473 -153.691403
vt 115.697729 -153.490149
vt 114.279060 -153.156816
vt 114.034516 -153.401359
vt 113.977718 -153.156816
vt 114.612393 -153.156816
vt 114.945727 -153.156816
vt 115.279060 -153.156816
vt 115.612393 -153.156816
vt 115.681645 -153.420898
vt 115.641644 -153.248676
vt 115.620308 -153.156816
vt 113.945727 -153.019079
vt 113.945727 -152.823482
vt 113.908860 -152.860350
vt 113.900297 -152.823482
vt 114.279060 -152.823482
vt 113.971688 -153.130854
vt 114.612393 -152.823482
vt 114.945727 -152.823482
vt 115.279060 -152.823482
vt 115.612393 -153.122739
vt 115.566372 -152.924595
vt 115.555988 -152.879888
vt 115.542887 -152.823482
vt 115.618816 -153.150393
vt 113.945727 -152.490149
vt 113.846031 -152.589845
vt 113.857313 -152.638420
vt 113.822875 -152.490149
vt 114.279060 -152.490149
vt 114.612393 -152.490149
vt 114.945727 -152.490149
vt 115.279060 -152.490149
vt 115.493159 -152.609383
vt 115.465466 -152.490149
vt 113.945727 -152.156816
vt 113.783203 -152.319340
vt 113.745454 -152.156816
vt 114.279060 -152.156816
vt 114.612393 -152.156816
vt 114.945727 -152.156816
vt 115.279060 -152.156816
vt 115.430331 -152.338878
vt 115.415827 -152.276434
vt 115.388045 -152.156816
vt 113.945727 -151.823482
vt 113.720374 -152.048835
vt 113.668033 -151.823482
vt 114.279060 -151.823482
vt 114.612393 -151.823482
vt 114.945727 -151.823482
vt 115.279060 -151.823482
vt 115.367503 -152.068373
vt 115.340555 -151.952353
vt 115.310623 -151.823482
vt 113.612393 -151.583927
vt 113.612393 -151.490149
vt 113.594717 -151.507825
vt 113.590612 -151.490149
vt 113.945727 -151.490149
vt 113.657546 -151.778330
vt 114.279060 -151.490149
vt 114.612393 -151.490149
vt 114.945727 -151.490149
vt 115.279060 -151.687588
vt 115.241846 -151.527363
vt 115.233202 -151.490149
vt 115.304674 -151.797868
vt 113.612393 -151.156816
vt 113.531152 -151.238057
vt 113.556951 -151.345223
vt 113.511595 -151.156816
vt 113.945727 -151.156816
vt 114.279060 -151.156816
vt 114.612393 -151.156816
vt 114.945727 -151.156816
vt 115.179017 -151.256858
vt 115.155781 -151.156816
vt 113.612393 -150.823482
vt 113.465205 -150.970671
vt 113.482031 -151.034012
vt 113.426105 -150.823482
vt 113.945727 -150.823482
vt 114.279060 -150.823482
vt 114.612393 -150.823482
vt 114.945727 -150.823482
vt 115.116189 -150.986354
vt 115.114739 -150.980111
vt 115.113262 -150.973865
vt 115.077059 -150.823482
vt 113.612393 -150.490149
vt 113.395241 -150.707301
vt 113.399015 -150.721508
vt 113.337556 -150.490149
vt 113.945727 -150.490149
vt 114.279060 -150.490149
vt 114.612393 -150.490149
vt 114.945727 -150.490149
vt 115.051577 -150.717632
vt 115.035399 -150.650429
vt 115.030803 -150.632274
vt 114.993048 -150.490149
vt 113.279060 -150.269949
vt 113.279060 -150.156816
vt 113.255314 -150.180562
vt 113.249006 -150.156816
vt 113.612393 -150.156816
vt 113.325278 -150.443931
vt 113.313595 -150.399953
vt 113.945727 -150.156816
vt 114.279060 -150.156816
vt 114.612393 -150.156816
vt 114.945727 -150.312013
vt 114.945383 -150.310719
vt 114.913152 -150.189390
vt 114.904499 -150.156816
vt 114.983116 -150.452760
vt 113.279060 -149.823482
vt 113.185351 -149.917192
vt 113.228175 -150.078398
vt 113.160457 -149.823482
vt 113.612393 -149.823482
vt 113.945727 -149.823482
vt 114.279060 -149.823482
vt 114.612393 -149.823482
vt 114.859963 -149.989164
vt 114.843189 -149.926020
vt 114.815950 -149.823482
vt 113.279060 -149.490149
vt 113.113882 -149.655327
vt 113.144441 -149.763190
vt 113.067087 -149.490149
vt 113.612393 -149.490149
vt 113.945727 -149.490149
vt 114.279060 -149.490149
vt 114.612393 -149.490149
vt 114.773225 -149.662651
vt 114.727400 -149.490149
vt 113.279060 -149.156816
vt 113.039982 -149.395894
vt 113.056270 -149.451966
vt 112.970537 -149.156816
vt 113.612393 -149.156816
vt 113.945727 -149.156816
vt 114.279060 -149.156816
vt 114.612393 -149.156816
vt 114.703261 -149.399281
vt 114.689122 -149.346054
vt 114.685645 -149.333388
vt 114.635622 -149.156816
vt 112.945727 -149.071400
vt 112.945727 -148.823482
vt 112.889923 -148.879286
vt 112.873714 -148.823482
vt 113.279060 -148.823482
vt 112.964953 -149.137590
vt 112.964203 -149.135008
vt 113.612393 -148.823482
vt 113.945727 -148.823482
vt 114.279060 -148.823482
vt 114.612393 -149.074823
vt 114.594962 -149.013296
vt 114.593502 -149.008204
vt 114.556175 -148.879701
vt 114.539845 -148.823482
vt 114.630494 -149.138715
vt 112.945727 -148.490149
vt 112.814894 -148.620982
vt 112.871397 -148.815506
vt 112.776890 -148.490149
vt 112.778591 -148.496005
vt 113.279060 -148.490149
vt 113.612393 -148.490149
vt 113.945727 -148.490149
vt 114.279060 -148.490149
vt 114.481146 -148.621397
vt 114.443022 -148.490149
vt 112.945727 -148.156816
vt 112.739864 -148.362678
vt 112.680067 -148.156816
vt 113.279060 -148.156816
vt 113.612393 -148.156816
vt 113.945727 -148.156816
vt 114.279060 -148.156816
vt 114.406116 -148.363093
vt 114.346199 -148.156816
vt 112.612393 -147.923836
vt 112.612393 -147.823482
vt 112.589805 -147.846071
vt 112.583244 -147.823482
vt 112.945727 -147.823482
vt 112.664834 -148.104375
vt 113.279060 -147.823482
vt 113.612393 -147.823482
vt 113.945727 -147.823482
vt 114.279060 -147.925678
vt 114.256057 -147.846485
vt 114.249375 -147.823482
vt 114.331087 -148.104789
vt 112.612393 -147.490149
vt 112.514775 -147.587767
vt 112.486420 -147.490149
vt 112.500174 -147.537500
vt 112.945727 -147.490149
vt 113.279060 -147.490149
vt 113.612393 -147.490149
vt 113.945727 -147.490149
vt 114.222279 -147.730197
vt 114.181027 -147.588182
vt 114.152552 -147.490149
vt 112.612393 -147.156816
vt 112.439746 -147.329463
vt 112.389597 -147.156816
vt 112.407368 -147.217998
vt 112.945727 -147.156816
vt 113.279060 -147.156816
vt 113.612393 -147.156816
vt 113.945727 -147.156816
vt 114.129473 -147.410696
vt 114.105998 -147.329878
vt 114.055729 -147.156816
vt 112.612393 -146.823482
vt 112.364716 -147.071159
vt 112.292774 -146.823482
vt 112.945727 -146.823482
vt 113.279060 -146.823482
vt 113.612393 -146.823482
vt 113.945727 -146.823482
vt 114.030968 -147.071574
vt 113.958905 -146.823482
vt 112.279060 -146.490149
vt 112.214657 -146.554552
vt 112.221757 -146.578995
vt 112.279060 -146.776271
vt 112.195950 -146.490149
vt 112.612393 -146.490149
vt 112.289687 -146.812856
vt 112.945727 -146.490149
vt 113.279060 -146.490149
vt 113.612393 -146.490149
vt 113.945727 -146.778113
vt 113.943862 -146.771693
vt 113.880909 -146.554966
vt 113.862082 -146.490149
vt 113.955939 -146.813270
vt 112.279060 -146.156816
vt 112.139628 -146.296248
vt 112.099127 -146.156816
vt 112.612393 -146.156816
vt 112.945727 -146.156816
vt 113.279060 -146.156816
vt 113.612393 -146.156816
vt 113.851056 -146.452191
vt 113.805880 -146.296663
vt 113.765258 -146.156816
vt 112.279060 -145.823482
vt 112.064598 -146.037944
vt 112.002303 -145.823482
vt 112.036146 -145.939991
vt 112.612393 -145.823482
vt 112.945727 -145.823482
vt 113.279060 -145.823482
vt 113.612393 -145.823482
vt 113.730850 -146.038359
vt 113.668435 -145.823482
vt 111.945727 -145.628706
vt 111.945727 -145.490149
vt 111.914539 -145.521337
vt 111.905480 -145.490149
vt 112.279060 -145.490149
vt 111.989569 -145.779640
vt 112.612393 -145.490149
vt 112.945727 -145.490149
vt 113.279060 -145.490149
vt 113.612393 -145.630548
vt 113.580791 -145.521751
vt 113.572639 -145.493686
vt 113.571612 -145.490149
vt 113.665445 -145.813188
vt 113.655821 -145.780055
vt 111.945727 -145.156816
vt 111.839509 -145.263033
vt 111.850534 -145.300988
vt 111.808657 -145.156816
vt 112.279060 -145.156816
vt 112.612393 -145.156816
vt 112.945727 -145.156816
vt 113.279060 -145.156816
vt 113.505762 -145.263448
vt 113.479833 -145.174184
vt 113.474788 -145.156816
vt 111.945727 -144.823482
vt 111.764480 -145.004729
vt 111.711833 -144.823482
vt 111.757729 -144.981486
vt 112.279060 -144.823482
vt 112.612393 -144.823482
vt 112.945727 -144.823482
vt 113.279060 -144.823482
vt 113.430732 -145.005144
vt 113.387028 -144.854683
vt 113.377965 -144.823482
vt 111.945727 -144.490149
vt 111.689450 -144.746425
vt 111.615010 -144.490149
vt 112.279060 -144.490149
vt 112.612393 -144.490149
vt 112.945727 -144.490149
vt 113.279060 -144.490149
vt 113.355702 -144.746840
vt 113.294222 -144.535181
vt 113.281141 -144.490149
vt 111.612393 -144.481141
vt 111.612393 -144.156816
vt 111.539391 -144.229818
vt 111.518186 -144.156816
vt 111.945727 -144.156816
vt 111.614421 -144.488122
vt 112.279060 -144.156816
vt 112.612393 -144.156816
vt 112.945727 -144.156816
vt 113.279060 -144.482983
vt 113.205643 -144.230232
vt 113.201416 -144.215679
vt 113.184318 -144.156816
vt 113.280673 -144.488536
vt 111.612393 -143.823482
vt 111.464362 -143.971514
vt 111.479312 -144.022981
vt 111.421363 -143.823482
vt 111.945727 -143.823482
vt 112.279060 -143.823482
vt 112.612393 -143.823482
vt 112.945727 -143.823482
vt 113.130614 -143.971929
vt 113.108610 -143.896178
vt 113.087495 -143.823482
vt 111.612393 -143.490149
vt 111.389332 -143.713210
vt 111.324540 -143.490149
vt 111.945727 -143.490149
vt 112.279060 -143.490149
vt 112.612393 -143.490149
vt 112.945727 -143.490149
vt 113.055584 -143.713625
vt 113.015805 -143.576676
vt 112.990671 -143.490149
vt 111.279060 -143.333576
vt 111.279060 -143.156816
vt 111.239273 -143.196603
vt 111.227716 -143.156816
vt 111.612393 -143.156816
vt 111.314303 -143.454906
vt 111.293700 -143.383978
vt 111.945727 -143.156816
vt 112.279060 -143.156816
vt 112.612393 -143.156816
vt 112.945727 -143.335418
vt 112.922999 -143.257174
vt 112.905525 -143.197017
vt 112.893848 -143.156816
vt 112.980555 -143.455321
vt 111.279060 -142.823482
vt 111.164244 -142.938299
vt 111.200894 -143.064477
vt 111.130893 -142.823482
vt 111.612393 -142.823482
vt 111.945727 -142.823482
vt 112.279060 -142.823482
vt 112.612393 -142.823482
vt 112.830496 -142.938713
vt 112.830193 -142.937673
vt 112.797025 -142.823482
vt 111.279060 -142.490149
vt 111.089214 -142.679995
vt 111.108089 -142.744975
vt 111.034069 -142.490149
vt 111.612393 -142.490149
vt 111.945727 -142.490149
vt 112.279060 -142.490149
vt 112.612393 -142.490149
vt 112.755466 -142.680410
vt 112.737388 -142.618171
vt 112.700201 -142.490149
vt 110.945727 -142.186012
vt 110.945727 -142.156816
vt 110.939155 -142.163387
vt 110.937246 -142.156816
vt 111.279060 -142.156816
vt 111.014185 -142.421691
vt 111.015283 -142.425473
vt 111.612393 -142.156816
vt 111.945727 -142.156816
vt 112.279060 -142.156816
vt 112.612393 -142.187854
vt 112.605407 -142.163802
vt 112.603378 -142.156816
vt 112.680437 -142.422106
vt 112.644582 -142.298669
vt 110.945727 -141.823482
vt 110.864125 -141.905084
vt 110.922477 -142.105972
vt 110.840423 -141.823482
vt 111.279060 -141.823482
vt 111.612393 -141.823482
vt 111.945727 -141.823482
vt 112.279060 -141.823482
vt 112.530377 -141.905498
vt 112.506554 -141.823482
vt 110.945727 -141.490149
vt 110.789096 -141.646780
vt 110.829672 -141.786470
vt 110.743599 -141.490149
vt 111.279060 -141.490149
vt 111.612393 -141.490149
vt 111.945727 -141.490149
vt 112.279060 -141.490149
vt 112.458971 -141.659666
vt 112.455348 -141.647194
vt 112.409731 -141.490149
vt 110.945727 -141.156816
vt 110.714066 -141.388476
vt 110.736866 -141.466968
vt 110.646776 -141.156816
vt 111.279060 -141.156816
vt 111.612393 -141.156816
vt 111.945727 -141.156816
vt 112.279060 -141.156816
vt 112.380318 -141.388891
vt 112.366165 -141.340164
vt 112.312908 -141.156816
vt 110.945727 -140.823482
vt 110.639037 -141.130172
vt 110.644060 -141.147467
vt 110.612393 -140.823482
vt 110.612393 -141.038447
vt 111.279060 -140.823482
vt 111.612393 -140.823482
vt 111.945727 -140.823482
vt 112.279060 -141.040289
vt 112.273359 -141.020663
vt 112.230259 -140.872283
vt 112.216084 -140.823482
vt 112.305289 -141.130587
vt 110.945727 -140.490149
vt 110.612393 -140.490149
vt 111.279060 -140.490149
vt 111.612393 -140.490149
vt 111.945727 -140.490149
vt 112.180554 -140.701161
vt 112.155230 -140.613979
vt 112.119261 -140.490149
vt 110.945727 -140.156816
vt 110.612393 -140.156816
vt 111.279060 -140.156816
vt 111.612393 -140.156816
vt 111.945727 -140.156816
vt 112.080200 -140.355675
vt 112.022437 -140.156816
vt 110.945727 -139.823482
vt 110.612393 -139.823482
vt 111.279060 -139.823482
vt 111.612393 -139.823482
vt 111.945727 -139.892724
vt 111.930141 -139.839068
vt 111.925614 -139.823482
vt 112.005171 -140.097372
vt 111.994942 -140.062158
vt 110.945727 -139.490149
vt 110.612393 -139.490149
vt 111.279060 -139.490149
vt 111.612393 -139.490149
vt 111.855112 -139.580764
vt 111.828791 -139.490149
vt 110.945727 -139.156816
vt 110.612393 -139.156816
vt 111.279060 -139.156816
vt 111.612393 -139.156816
vt 111.780082 -139.322460
vt 111.731967 -139.156816
vt 110.945727 -138.823482
vt 110.612393 -138.823482
vt 111.279060 -138.823482
vt 111.612393 -138.823482
vt 111.716525 -139.103653
vt 111.705053 -139.064157
vt 111.635144 -138.823482
vt 110.945727 -138.490149
vt 110.612393 -138.490149
vt 111.279060 -138.490149
vt 111.612393 -138.745159
vt 111.554993 -138.547549
vt 111.538320 -138.490149
vt 111.630023 -138.805853
vt 110.945727 -138.156816
vt 110.612393 -138.156816
vt 111.279060 -138.156816
vt 111.530914 -138.464650
vt 111.479964 -138.289245
vt 111.441497 -138.156816
vt 110.945727 -137.823482
vt 110.612393 -137.823482
vt 111.279060 -137.823482
vt 111.404934 -138.030941
vt 111.345302 -137.825646
vt 111.344674 -137.823482
vt 110.945727 -137.490149
vt 110.612393 -137.490149
vt 111.279060 -137.597594
vt 111.254875 -137.514334
vt 111.252497 -137.506145
vt 111.247850 -137.490149
vt 111.329905 -137.772638
vt 110.945727 -137.156816
vt 110.612393 -137.156816
vt 111.179846 -137.256030
vt 111.159691 -137.186643
vt 111.151027 -137.156816
vt 110.945727 -136.823482
vt 110.612393 -136.823482
vt 111.104816 -136.997726
vt 111.066885 -136.867141
vt 111.054204 -136.823482
vt 110.945727 -136.490149
vt 110.612393 -136.490149
vt 111.029787 -136.739422
vt 110.974080 -136.547640
vt 110.957380 -136.490149
vt 110.945727 -136.450029
vt 110.881274 -136.228138
vt 110.879728 -136.222815
vt 110.612393 -136.156816
vt 110.860557 -136.156816
vt 110.954757 -136.481119
vt 110.804698 -135.964511
vt 110.612393 -135.823482
vt 110.788468 -135.908636
vt 110.763733 -135.823482
vt 110.729668 -135.706207
vt 110.612393 -135.490149
vt 110.695662 -135.589135
vt 110.666910 -135.490149
vt 110.654639 -135.447903
vt 110.612393 -135.302465
f 3/3 2/2 1/1
f 4/4 3/3 1/1
f 5/5 2/2 3/3
f 1/1 7/7 6/6
f 1/1 2/2 7/7
f 6/6 9/9 8/8
f 6/6 7/7 9/9
f 8/8 11/11 10/10
f 8/8 9/9 11/11
f 10/10 13/13 12/12
f 10/10 11/11 13/13
f 15/15 14/14 12/12
f 16/16 15/15 12/12
f 16/16 12/12 13/13
f 17/17 16/16 13/13
f 19/19 18/18 2/2
f 5/5 19/19 2/2
f 20/20 18/18 19/19
f 2/2 21/21 7/7
f 2/2 18/18 21/21
f 7/7 22/22 9/9
f 7/7 21/21 22/22
f 9/9 23/23 11/11
f 9/9 22/22 23/23
f 11/11 24/24 13/13
f 11/11 23/23 24/24
f 17/17 13/13 25/25
f 25/25 13/13 24/24
f 26/26 25/25 24/24
f 28/28 27/27 18/18
f 20/20 28/28 18/18
f 30/30 29/29 27/27
f 28/28 30/30 27/27
f 18/18 31/31 21/21
f 18/18 27/27 31/31
f 21/21 32/32 22/22
f 21/21 31/31 32/32
f 22/22 33/33 23/23
f 22/22 32/32 33/33
f 23/23 34/34 24/24
f 23/23 33/33 34/34
f 26/26 24/24 35/35
f 35/35 24/24 34/34
f 36/36 35/35 34/34
f 39/39 38/38 37/37
f 40/40 38/38 39/39
f 42/42 41/41 27/27
f 29/29 42/42 27/27
f 37/37 38/38 41/41
f 43/43 37/37 41/41
f 42/42 43/43 41/41
f 27/27 44/44 31/31
f 27/27 41/41 44/44
f 31/31 45/45 32/32
f 31/31 44/44 45/45
f 32/32 46/46 33/33
f 32/32 45/45 46/46
f 47/47 34/34 33/33
f 48/48 47/47 33/33
f 49/49 48/48 33/33
f 49/49 33/33 46/46
f 50/50 49/49 46/46
f 36/36 34/34 51/51
f 51/51 34/34 47/47
f 53/53 52/52 38/38
f 40/40 53/53 38/38
f 54/54 52/52 53/53
f 38/38 55/55 41/41
f 38/38 52/52 55/55
f 41/41 56/56 44/44
f 41/41 55/55 56/56
f 44/44 57/57 45/45
f 44/44 56/56 57/57
f 45/45 58/58 46/46
f 45/45 57/57 58/58
f 59/59 50/50 46/46
f 60/60 59/59 46/46
f 60/60 46/46 58/58
f 61/61 60/60 58/58
f 63/63 62/62 52/52
f 54/54 63/63 52/52
f 64/64 62/62 63/63
f 52/52 65/65 55/55
f 52/52 62/62 65/65
f 55/55 66/66 56/56
f 55/55 65/65 66/66
f 56/56 67/67 57/57
f 56/56 66/66 67/67
f 57/57 68/68 58/58
f 57/57 67/67 68/68
f 61/61 58/58 69/69
f 69/69 58/58 68/68
f 70/70 69/69 68/68
f 72/72 71/71 62/62
f 73/73 72/72 62/62
f 64/64 73/73 62/62
f 74/74 71/71 72/72
f 62/62 75/75 65/65
f 62/62 71/71 75/75
f 65/65 76/76 66/66
f 65/65 75/75 76/76
f 66/66 77/77 67/67
f 66/66 76/76 77/77
f 67/67 78/78 68/68
f 67/67 77/77 78/78
f 70/70 68/68 79/79
f 79/79 68/68 78/78
f 80/80 79/79 78/78
f 83/83 82/82 81/81
f 84/84 82/82 83/83
f 86/86 85/85 71/71
f 74/74 86/86 71/71
f 81/81 82/82 85/85
f 87/87 81/81 85/85
f 86/86 87/87 85/85
f 71/71 88/88 75/75
f 71/71 85/85 88/88
f 75/75 89/89 76/76
f 75/75 88/88 89/89
f 76/76 90/90 77/77
f 76/76 89/89 90/90
f 91/91 78/78 77/77
f 92/92 91/91 77/77
f 92/92 77/77 90/90
f 93/93 92/92 90/90
f 80/80 78/78 94/94
f 94/94 78/78 91/91
f 96/96 95/95 82/82
f 84/84 96/96 82/82
f 97/97 95/95 96/96
f 82/82 98/98 85/85
f 82/82 95/95 98/98
f 85/85 99/99 88/88
f 85/85 98/98 99/99
f 88/88 100/100 89/89
f 88/88 99/99 100/100
f 89/89 101/101 90/90
f 89/89 100/100 101/101
f 102/102 93/93 90/90
f 103/103 102/102 90/90
f 103/103 90/90 101/101
f 104/104 103/103 101/101
f 106/106 105/105 95/95
f 107/107 106/106 95/95
f 97/97 107/107 95/95
f 108/108 105/105 106/106
f 95/95 109/109 98/98
f 95/95 105/105 109/109
f 98/98 110/110 99/99
f 98/98 109/109 110/110
f 99/99 111/111 100/100
f 99/99 110/110 111/111
f 100/100 112/112 101/101
f 100/100 111/111 112/112
f 104/104 101/101 113/113
f 113/113 101/101 112/112
f 114/114 113/113 112/112
f 116/116 115/115 105/105
f 117/117 116/116 105/105
f 108/108 117/117 105/105
f 118/118 115/115 116/116
f 105/105 119/119 109/109
f 105/105 115/115 119/119
f 109/109 120/120 110/110
f 109/109 119/119 120/120
f 110/110 121/121 111/111
f 110/110 120/120 121/121
f 111/111 122/122 112/112
f 111/111 121/121 122/122
f 114/114 112/112 123/123
f 123/123 112/112 122/122
f 124/124 123/123 122/122
f 126/126 125/125 115/115
f 118/118 126/126 115/115
f 127/127 125/125 126/126
f 115/115 128/128 119/119
f 115/115 125/125 128/128
f 119/119 129/129 120/120
f 119/119 128/128 129/129
f 120/120 130/130 121/121
f 120/120 129/129 130/130
f 131/131 122/122 121/121
f 132/132 131/131 121/121
f 132/132 121/121 130/130
f 133/133 132/132 130/130
f 124/124 122/122 134/134
f 135/135 134/134 122/122
f 131/131 135/135 122/122
f 138/138 137/137 136/136
f 139/139 137/137 138/138
f 141/141 140/140 125/125
f 127/127 141/141 125/125
f 136/136 137/137 140/140
f 141/141 136/136 140/140
f 125/125 142/142 128/128
f 125/125 140/140 142/142
f 128/128 143/143 129/129
f 128/128 142/142 143/143
f 129/129 144/144 130/130
f 129/129 143/143 144/144
f 133/133 130/130 145/145
f 145/145 130/130 144/144
f 146/146 145/145 144/144
f 148/148 147/147 137/137
f 149/149 148/148 137/137
f 139/139 149/149 137/137
f 150/150 147/147 148/148
f 137/137 151/151 140/140
f 137/137 147/147 151/151
f 140/140 152/152 142/142
f 140/140 151/151 152/152
f 142/142 153/153 143/143
f 142/142 152/152 153/153
f 143/143 154/154 144/144
f 143/143 153/153 154/154
f 146/146 144/144 155/155
f 155/155 144/144 154/154
f 156/156 155/155 154/154
f 158/158 157/157 147/147
f 159/159 158/158 147/147
f 150/150 159/159 147/147
f 160/160 157/157 158/158
f 147/147 161/161 151/151
f 147/147 157/157 161/161
f 151/151 162/162 152/152
f 151/151 161/161 162/162
f 152/152 163/163 153/153
f 152/152 162/162 163/163
f 153/153 164/164 154/154
f 153/153 163/163 164/164
f 156/156 154/154 165/165
f 165/165 154/154 164/164
f 166/166 165/165 164/164
f 168/168 167/167 157/157
f 160/160 168/168 157/157
f 169/169 167/167 168/168
f 157/157 170/170 161/161
f 157/157 167/167 170/170
f 161/161 171/171 162/162
f 161/161 170/170 171/171
f 162/162 172/172 163/163
f 162/162 171/171 172/172
f 163/163 173/173 164/164
f 163/163 172/172 173/173
f 174/174 166/166 164/164
f 175/175 174/174 164/164
f 175/175 164/164 173/173
f 176/176 175/175 173/173
f 179/179 178/178 177/177
f 181/181 180/180 178/178
f 179/179 181/181 178/178
f 183/183 182/182 167/167
f 169/169 183/183 167/167
f 177/177 178/178 182/182
f 183/183 177/177 182/182
f 167/167 184/184 170/170
f 167/167 182/182 184/184
f 170/170 185/185 171/171
f 170/170 184/184 185/185
f 171/171 186/186 172/172
f 171/171 185/185 186/186
f 187/187 173/173 172/172
f 188/188 187/187 172/172
f 188/188 172/172 186/186
f 189/189 188/188 186/186
f 176/176 173/173 190/190
f 190/190 173/173 187/187
f 192/192 191/191 178/178
f 180/180 192/192 178/178
f 193/193 191/191 192/192
f 178/178 194/194 182/182
f 178/178 191/191 194/194
f 182/182 195/195 184/184
f 182/182 194/194 195/195
f 184/184 196/196 185/185
f 184/184 195/195 196/196
f 185/185 197/197 186/186
f 185/185 196/196 197/197
f 189/189 186/186 198/198
f 198/198 186/186 197/197
f 199/199 198/198 197/197
f 201/201 200/200 191/191
f 193/193 201/201 191/191
f 202/202 200/200 201/201
f 191/191 203/203 194/194
f 191/191 200/200 203/203
f 194/194 204/204 195/195
f 194/194 203/203 204/204
f 195/195 205/205 196/196
f 195/195 204/204 205/205
f 196/196 206/206 197/197
f 196/196 205/205 206/206
f 199/199 197/197 207/207
f 207/207 197/197 206/206
f 208/208 207/207 206/206
f 210/210 209/209 200/200
f 202/202 210/210 200/200
f 212/212 211/211 209/209
f 210/210 212/212 209/209
f 200/200 213/213 203/203
f 200/200 209/209 213/213
f 203/203 214/214 204/204
f 203/203 213/213 214/214
f 204/204 215/215 205/205
f 204/204 214/214 215/215
f 205/205 216/216 206/206
f 205/205 215/215 216/216
f 217/217 208/208 206/206
f 218/218 217/217 206/206
f 218/218 206/206 216/216
f 219/219 218/218 216/216
f 222/222 221/221 220/220
f 223/223 221/221 222/222
f 225/225 224/224 209/209
f 211/211 225/225 209/209
f 220/220 221/221 224/224
f 225/225 220/220 224/224
f 209/209 226/226 213/213
f 209/209 224/224 226/226
f 213/213 227/227 214/214
f 213/213 226/226 227/227
f 214/214 228/228 215/215
f 214/214 227/227 228/228
f 229/229 216/216 215/215
f 230/230 229/229 215/215
f 230/230 215/215 228/228
f 231/231 230/230 228/228
f 232/232 231/231 228/228
f 219/219 216/216 233/233
f 233/233 216/216 229/229
f 235/235 234/234 221/221
f 223/223 235/235 221/221
f 236/236 234/234 235/235
f 221/221 237/237 224/224
f 221/221 234/234 237/237
f 224/224 238/238 226/226
f 224/224 237/237 238/238
f 226/226 239/239 227/227
f 226/226 238/238 239/239
f 227/227 240/240 228/228
f 227/227 239/239 240/240
f 232/232 228/228 241/241
f 241/241 228/228 240/240
f 242/242 241/241 240/240
f 243/243 242/242 240/240
f 245/245 244/244 234/234
f 236/236 245/245 234/234
f 246/246 244/244 245/245
f 234/234 247/247 237/237
f 234/234 244/244 247/247
f 237/237 248/248 238/238
f 237/237 247/247 248/248
f 238/238 249/249 239/239
f 238/238 248/248 249/249
f 239/239 250/250 240/240
f 239/239 249/249 250/250
f 243/243 240/240 251/251
f 251/251 240/240 250/250
f 252/252 251/251 250/250
f 254/254 253/253 244/244
f 246/246 254/254 244/244
f 256/256 255/255 253/253
f 254/254 256/256 253/253
f 244/244 257/257 247/247
f 244/244 253/253 257/257
f 247/247 258/258 248/248
f 247/247 257/257 258/258
f 248/248 259/259 249/249
f 248/248 258/258 259/259
f 249/249 260/260 250/250
f 249/249 259/259 260/260
f 252/252 250/250 261/261
f 261/261 250/250 260/260
f 262/262 261/261 260/260
f 264/264 263/263 253/253
f 255/255 264/264 253/253
f 265/265 263/263 264/264
f 253/253 266/266 257/257
f 253/253 263/263 266/266
f 257/257 267/267 258/258
f 257/257 266/266 267/267
f 258/258 268/268 259/259
f 258/258 267/267 268/268
f 269/269 260/260 259/259
f 270/270 269/269 259/259
f 271/271 270/270 259/259
f 271/271 259/259 268/268
f 272/272 271/271 268/268
f 262/262 260/260 273/273
f 273/273 260/260 269/269
f 276/276 275/275 274/274
f 277/277 275/275 276/276
f 279/279 278/278 263/263
f 265/265 279/279 263/263
f 274/274 275/275 278/278
f 279/279 274/274 278/278
f 263/263 280/280 266/266
f 263/263 278/278 280/280
f 266/266 281/281 267/267
f 266/266 280/280 281/281
f 267/267 282/282 268/268
f 267/267 281/281 282/282
f 272/272 268/268 283/283
f 283/283 268/268 282/282
f 284/284 283/283 282/282
f 285/285 284/284 282/282
f 287/287 286/286 275/275
f 277/277 287/287 275/275
f 288/288 286/286 287/287
f 275/275 289/289 278/278
f 275/275 286/286 289/289
f 278/278 290/290 280/280
f 278/278 289/289 290/290
f 280/280 291/291 281/281
f 280/280 290/290 291/291
f 281/281 292/292 282/282
f 281/281 291/291 292/292
f 285/285 282/282 293/293
f 293/293 282/282 292/292
f 294/294 293/293 292/292
f 296/296 295/295 286/286
f 288/288 296/296 286/286
f 298/298 297/297 295/295
f 296/296 298/298 295/295
f 286/286 299/299 289/289
f 286/286 295/295 299/299
f 289/289 300/300 290/290
f 289/289 299/299 300/300
f 290/290 301/301 291/291
f 290/290 300/300 301/301
f 291/291 302/302 292/292
f 291/291 301/301 302/302
f 294/294 292/292 303/303
f 303/303 292/292 302/302
f 304/304 303/303 302/302
f 306/306 305/305 295/295
f 297/297 306/306 295/295
f 307/307 305/305 306/306
f 295/295 308/308 299/299
f 295/295 305/305 308/308
f 299/299 309/309 300/300
f 299/299 308/308 309/309
f 300/300 310/310 301/301
f 300/300 309/309 310/310
f 301/301 311/311 302/302
f 301/301 310/310 311/311
f 304/304 302/302 312/312
f 312/312 302/302 311/311
f 313/313 312/312 311/311
f 314/314 313/313 311/311
f 317/317 316/316 315/315
f 318/318 316/316 317/317
f 320/320 319/319 305/305
f 307/307 320/320 305/305
f 315/315 316/316 319/319
f 320/320 315/315 319/319
f 305/305 321/321 308/308
f 305/305 319/319 321/321
f 308/308 322/322 309/309
f 308/308 321/321 322/322
f 309/309 323/323 310/310
f 309/309 322/322 323/323
f 324/324 311/311 310/310
f 325/325 324/324 310/310
f 326/326 325/325 310/310
f 326/326 310/310 323/323
f 327/327 326/326 323/323
f 314/314 311/311 328/328
f 328/328 311/311 324/324
f 330/330 329/329 316/316
f 331/331 330/330 316/316
f 318/318 331/331 316/316
f 332/332 329/329 330/330
f 316/316 333/333 319/319
f 316/316 329/329 333/333
f 319/319 334/334 321/321
f 319/319 333/333 334/334
f 321/321 335/335 322/322
f 321/321 334/334 335/335
f 322/322 336/336 323/323
f 322/322 335/335 336/336
f 327/327 323/323 337/337
f 337/337 323/323 336/336
f 338/338 337/337 336/336
f 340/340 339/339 329/329
f 332/332 340/340 329/329
f 341/341 339/339 340/340
f 329/329 342/342 333/333
f 329/329 339/339 342/342
f 333/333 343/343 334/334
f 333/333 342/342 343/343
f 334/334 344/344 335/335
f 334/334 343/343 344/344
f 335/335 345/345 336/336
f 335/335 344/344 345/345
f 338/338 336/336 346/346
f 346/346 336/336 345/345
f 347/347 346/346 345/345
f 348/348 347/347 345/345
f 350/350 349/349 339/339
f 341/341 350/350 339/339
f 351/351 349/349 350/350
f 339/339 352/352 342/342
f 339/339 349/349 352/352
f 342/342 353/353 343/343
f 342/342 352/352 353/353
f 343/343 354/354 344/344
f 343/343 353/353 354/354
f 344/344 355/355 345/345
f 344/344 354/354 355/355
f 348/348 345/345 356/356
f 356/356 345/345 355/355
f 357/357 356/356 355/355
f 358/358 357/357 355/355
f 361/361 360/360 359/359
f 362/362 360/360 361/361
f 364/364 363/363 349/349
f 351/351 364/364 349/349
f 359/359 360/360 363/363
f 364/364 359/359 363/363
f 349/349 365/365 352/352
f 349/349 363/363 365/365
f 352/352 366/366 353/353
f 352/352 365/365 366/366
f 353/353 367/367 354/354
f 353/353 366/366 367/367
f 368/368 355/355 354/354
f 369/369 368/368 354/354
f 369/369 354/354 367/367
f 370/370 369/369 367/367
f 358/358 355/355 371/371
f 371/371 355/355 368/368
f 373/373 372/372 360/360
f 374/374 373/373 360/360
f 362/362 374/374 360/360
f 375/375 372/372 373/373
f 360/360 376/376 363/363
f 360/360 372/372 376/376
f 363/363 377/377 365/365
f 363/363 376/376 377/377
f 365/365 378/378 366/366
f 365/365 377/377 378/378
f 366/366 379/379 367/367
f 366/366 378/378 379/379
f 370/370 367/367 380/380
f 380/380 367/367 379/379
f 381/381 380/380 379/379
f 383/383 382/382 372/372
f 384/384 383/383 372/372
f 375/375 384/384 372/372
f 385/385 382/382 383/383
f 372/372 386/386 376/376
f 372/372 382/382 386/386
f 376/376 387/387 377/377
f 376/376 386/386 387/387
f 377/377 388/388 378/378
f 377/377 387/387 388/388
f 378/378 389/389 379/379
f 378/378 388/388 389/389
f 381/381 379/379 390/390
f 390/390 379/379 389/389
f 391/391 390/390 389/389
f 392/392 391/391 389/389
f 393/393 392/392 389/389
f 395/395 394/394 382/382
f 396/396 395/395 382/382
f 385/385 396/396 382/382
f 397/397 394/394 395/395
f 382/382 398/398 386/386
f 382/382 394/394 398/398
f 386/386 399/399 387/387
f 386/386 398/398 399/399
f 387/387 400/400 388/388
f 387/387 399/399 400/400
f 388/388 401/401 389/389
f 388/388 400/400 401/401
f 393/393 389/389 402/402
f 402/402 389/389 401/401
f 403/403 402/402 401/401
f 404/404 403/403 401/401
f 405/405 404/404 401/401
f 408/408 407/407 406/406
f 409/409 407/407 408/408
f 411/411 410/410 394/394
f 397/397 411/411 394/394
f 406/406 407/407 410/410
f 412/412 406/406 410/410
f 411/411 412/412 410/410
f 394/394 413/413 398/398
f 394/394 410/410 413/413
f 398/398 414/414 399/399
f 398/398 413/413 414/414
f 399/399 415/415 400/400
f 399/399 414/414 415/415
f 416/416 401/401 400/400
f 417/417 416/416 400/400
f 418/418 417/417 400/400
f 418/418 400/400 415/415
f 419/419 418/418 415/415
f 405/405 401/401 420/420
f 420/420 401/401 416/416
f 422/422 421/421 407/407
f 423/423 422/422 407/407
f 409/409 423/423 407/407
f 424/424 421/421 422/422
f 407/407 425/425 410/410
f 407/407 421/421 425/425
f 410/410 426/426 413/413
f 410/410 425/425 426/426
f 413/413 427/427 414/414
f 413/413 426/426 427/427
f 414/414 428/428 415/415
f 414/414 427/427 428/428
f 429/429 419/419 415/415
f 430/430 429/429 415/415
f 430/430 415/415 428/428
f 431/431 430/430 428/428
f 433/433 432/432 421/421
f 434/434 433/433 421/421
f 424/424 434/434 421/421
f 435/435 432/432 433/433
f 421/421 436/436 425/425
f 421/421 432/432 436/436
f 425/425 437/437 426/426
f 425/425 436/436 437/437
f 426/426 438/438 427/427
f 426/426 437/437 438/438
f 427/427 439/439 428/428
f 427/427 438/438 439/439
f 431/431 428/428 440/440
f 440/440 428/428 439/439
f 441/441 440/440 439/439
f 443/443 442/442 432/432
f 444/444 443/443 432/432
f 435/435 444/444 432/432
f 445/445 442/442 443/443
f 432/432 446/446 436/436
f 432/432 442/442 446/446
f 436/436 447/447 437/437
f 436/436 446/446 447/447
f 437/437 448/448 438/438
f 437/437 447/447 448/448
f 438/438 449/449 439/439
f 438/438 448/448 449/449
f 441/441 439/439 450/450
f 450/450 439/439 449/449
f 451/451 450/450 449/449
f 452/452 451/451 449/449
f 453/453 452/452 449/449
f 456/456 455/455 454/454
f 457/457 455/455 456/456
f 459/459 458/458 442/442
f 445/445 459/459 442/442
f 454/454 455/455 458/458
f 460/460 454/454 458/458
f 459/459 460/460 458/458
f 442/442 461/461 446/446
f 442/442 458/458 461/461
f 446/446 462/462 447/447
f 446/446 461/461 462/462
f 447/447 463/463 448/448
f 447/447 462/462 463/463
f 464/464 449/449 448/448
f 465/465 464/464 448/448
f 466/466 465/465 448/448
f 467/467 466/466 448/448
f 467/467 448/448 463/463
f 468/468 467/467 463/463
f 453/453 449/449 469/469
f 469/469 449/449 464/464
f 471/471 470/470 455/455
f 472/472 471/471 455/455
f 457/457 472/472 455/455
f 474/474 473/473 470/470
f 471/471 474/474 470/470
f 455/455 475/475 458/458
f 455/455 470/470 475/475
f 458/458 476/476 461/461
f 458/458 475/475 476/476
f 461/461 477/477 462/462
f 461/461 476/476 477/477
f 462/462 478/478 463/463
f 462/462 477/477 478/478
f 468/468 463/463 479/479
f 479/479 463/463 478/478
f 480/480 479/479 478/478
f 482/482 481/481 470/470
f 473/473 482/482 470/470
f 483/483 481/481 482/482
f 470/470 484/484 475/475
f 470/470 481/481 484/484
f 475/475 485/485 476/476
f 475/475 484/484 485/485
f 476/476 486/486 477/477
f 476/476 485/485 486/486
f 477/477 487/487 478/478
f 477/477 486/486 487/487
f 480/480 478/478 488/488
f 488/488 478/478 487/487
f 489/489 488/488 487/487
f 492/492 491/491 490/490
f 493/493 491/491 492/492
f 495/495 494/494 481/481
f 483/483 495/495 481/481
f 490/490 491/491 494/494
f 495/495 490/490 494/494
f 481/481 496/496 484/484
f 481/481 494/494 496/496
f 484/484 497/497 485/485
f 484/484 496/496 497/497
f 485/485 498/498 486/486
f 485/485 497/497 498/498
f 499/499 487/487 486/486
f 500/500 499/499 486/486
f 500/500 486/486 498/498
f 501/501 500/500 498/498
f 489/489 487/487 502/502
f 502/502 487/487 499/499
f 504/504 503/503 491/491
f 493/493 504/504 491/491
f 506/506 505/505 503/503
f 504/504 506/506 503/503
f 491/491 507/507 494/494
f 491/491 503/503 507/507
f 494/494 508/508 496/496
f 494/494 507/507 508/508
f 496/496 509/509 497/497
f 496/496 508/508 509/509
f 497/497 510/510 498/498
f 497/497 509/509 510/510
f 511/511 501/501 498/498
f 512/512 511/511 498/498
f 512/512 498/498 510/510
f 513/513 512/512 510/510
f 515/515 514/514 503/503
f 505/505 515/515 503/503
f 517/517 516/516 514/514
f 515/515 517/517 514/514
f 503/503 518/518 507/507
f 503/503 514/514 518/518
f 507/507 519/519 508/508
f 507/507 518/518 519/519
f 508/508 520/520 509/509
f 508/508 519/519 520/520
f 509/509 521/521 510/510
f 509/509 520/520 521/521
f 522/522 513/513 510/510
f 523/523 522/522 510/510
f 523/523 510/510 521/521
f 524/524 523/523 521/521
f 526/526 525/525 514/514
f 516/516 526/526 514/514
f 527/527 525/525 526/526
f 514/514 528/528 518/518
f 514/514 525/525 528/528
f 518/518 529/529 519/519
f 518/518 528/528 529/529
f 519/519 530/530 520/520
f 519/519 529/529 530/530
f 520/520 531/531 521/521
f 520/520 530/530 531/531
f 524/524 521/521 532/532
f 532/532 521/521 531/531
f 533/533 532/532 531/531
f 536/536 535/535 534/534
f 537/537 536/536 534/534
f 538/538 534/534 535/535
f 540/540 539/539 525/525
f 527/527 540/540 525/525
f 537/537 534/534 539/539
f 540/540 537/537 539/539
f 525/525 541/541 528/528
f 525/525 539/539 541/541
f 528/528 542/542 529/529
f 528/528 541/541 542/542
f 529/529 543/543 530/530
f 529/529 542/542 543/543
f 544/544 531/531 530/530
f 545/545 544/544 530/530
f 546/546 545/545 530/530
f 546/546 530/530 543/543
f 547/547 546/546 543/543
f 533/533 531/531 548/548
f 548/548 531/531 544/544
f 550/550 549/549 534/534
f 538/538 550/550 534/534
f 551/551 549/549 550/550
f 534/534 552/552 539/539
f 534/534 549/549 552/552
f 539/539 553/553 541/541
f 539/539 552/552 553/553
f 541/541 554/554 542/542
f 541/541 553/553 554/554
f 542/542 555/555 543/543
f 542/542 554/554 555/555
f 556/556 547/547 543/543
f 557/557 556/556 543/543
f 557/557 543/543 555/555
f 558/558 557/557 555/555
f 560/560 559/559 549/549
f 551/551 560/560 549/549
f 562/562 561/561 559/559
f 560/560 562/562 559/559
f 549/549 563/563 552/552
f 549/549 559/559 563/563
f 552/552 564/564 553/553
f 552/552 563/563 564/564
f 553/553 565/565 554/554
f 553/553 564/564 565/565
f 554/554 566/566 555/555
f 554/554 565/565 566/566
f 558/558 555/555 567/567
f 567/567 555/555 566/566
f 568/568 567/567 566/566
f 571/571 570/570 569/569
f 572/572 570/570 571/571
f 574/574 573/573 559/559
f 561/561 574/574 559/559
f 569/569 570/570 573/573
f 574/574 569/569 573/573
f 559/559 575/575 563/563
f 559/559 573/573 575/575
f 563/563 576/576 564/564
f 563/563 575/575 576/576
f 564/564 577/577 565/565
f 564/564 576/576 577/577
f 578/578 566/566 565/565
f 579/579 578/578 565/565
f 579/579 565/565 577/577
f 580/580 579/579 577/577
f 581/581 580/580 577/577
f 582/582 568/568 566/566
f 583/583 582/582 566/566
f 583/583 566/566 578/578
f 585/585 584/584 570/570
f 586/586 585/585 570/570
f 572/572 586/586 570/570
f 587/587 584/584 585/585
f 570/570 588/588 573/573
f 570/570 584/584 588/588
f 573/573 589/589 575/575
f 573/573 588/588 589/589
f 575/575 590/590 576/576
f 575/575 589/589 590/590
f 576/576 591/591 577/577
f 576/576 590/590 591/591
f 581/581 577/577 592/592
f 592/592 577/577 591/591
f 593/593 592/592 591/591
f 594/594 593/593 591/591
f 596/596 595/595 584/584
f 587/587 596/596 584/584
f 598/598 597/597 595/595
f 596/596 598/598 595/595
f 584/584 599/599 588/588
f 584/584 595/595 599/599
f 588/588 600/600 589/589
f 588/588 599/599 600/600
f 589/589 601/601 590/590
f 589/589 600/600 601/601
f 590/590 602/602 591/591
f 590/590 601/601 602/602
f 594/594 591/591 603/603
f 603/603 591/591 602/602
f 604/604 603/603 602/602
f 605/605 604/604 602/602
f 607/607 606/606 595/595
f 597/597 607/607 595/595
f 608/608 606/606 607/607
f 595/595 609/609 599/599
f 595/595 606/606 609/609
f 599/599 610/610 600/600
f 599/599 609/609 610/610
f 600/600 611/611 601/601
f 600/600 610/610 611/611
f 601/601 612/612 602/602
f 601/601 611/611 612/612
f 605/605 602/602 613/613
f 613/613 602/602 612/612
f 614/614 613/613 612/612
f 615/615 614/614 612/612
f 618/618 617/617 616/616
f 619/619 617/617 618/618
f 621/621 620/620 606/606
f 608/608 621/621 606/606
f 616/616 617/617 620/620
f 621/621 616/616 620/620
f 606/606 622/622 609/609
f 606/606 620/620 622/622
f 609/609 623/623 610/610
f 609/609 622/622 623/623
f 610/610 624/624 611/611
f 610/610 623/623 624/624
f 625/625 612/612 611/611
f 626/626 625/625 611/611
f 626/626 611/611 624/624
f 627/627 626/626 624/624
f 628/628 627/627 624/624
f 615/615 612/612 629/629
f 629/629 612/612 625/625
f 631/631 630/630 617/617
f 632/632 631/631 617/617
f 619/619 632/632 617/617
f 633/633 630/630 631/631
f 617/617 634/634 620/620
f 617/617 630/630 634/634
f 620/620 635/635 622/622
f 620/620 634/634 635/635
f 622/622 636/636 623/623
f 622/622 635/635 636/636
f 623/623 637/637 624/624
f 623/623 636/636 637/637
f 628/628 624/624 638/638
f 638/638 624/624 637/637
f 639/639 638/638 637/637
f 640/640 639/639 637/637
f 642/642 641/641 630/630
f 633/633 642/642 630/630
f 643/643 641/641 642/642
f 630/630 644/644 634/634
f 630/630 641/641 644/644
f 634/634 645/645 635/635
f 634/634 644/644 645/645
f 635/635 646/646 636/636
f 635/635 645/645 646/646
f 636/636 647/647 637/637
f 636/636 646/646 647/647
f 640/640 637/637 648/648
f 648/648 637/637 647/647
f 649/649 648/648 647/647
f 650/650 649/649 647/647
f 653/653 652/652 651/651
f 654/654 652/652 653/653
f 656/656 655/655 641/641
f 643/643 656/656 641/641
f 651/651 652/652 655/655
f 657/657 651/651 655/655
f 656/656 657/657 655/655
f 641/641 658/658 644/644
f 641/641 655/655 658/658
f 644/644 659/659 645/645
f 644/644 658/658 659/659
f 645/645 660/660 646/646
f 645/645 659/659 660/660
f 661/661 647/647 646/646
f 662/662 661/661 646/646
f 663/663 662/662 646/646
f 663/663 646/646 660/660
f 664/664 663/663 660/660
f 650/650 647/647 665/665
f 665/665 647/647 661/661
f 667/667 666/666 652/652
f 668/668 667/667 652/652
f 654/654 668/668 652/652
f 669/669 666/666 667/667
f 652/652 670/670 655/655
f 652/652 666/666 670/670
f 655/655 671/671 658/658
f 655/655 670/670 671/671
f 658/658 672/672 659/659
f 658/658 671/671 672/672
f 659/659 673/673 660/660
f 659/659 672/672 673/673
f 664/664 660/660 674/674
f 674/674 660/660 673/673
f 675/675 674/674 673/673
f 676/676 675/675 673/673
f 678/678 677/677 666/666
f 679/679 678/678 666/666
f 669/669 679/679 666/666
f 680/680 677/677 678/678
f 666/666 681/681 670/670
f 666/666 677/677 681/681
f 670/670 682/682 671/671
f 670/670 681/681 682/682
f 671/671 683/683 672/672
f 671/671 682/682 683/683
f 672/672 684/684 673/673
f 672/672 683/683 684/684
f 676/676 673/673 685/685
f 685/685 673/673 684/684
f 686/686 685/685 684/684
f 687/687 686/686 684/684
f 690/690 689/689 688/688
f 691/691 689/689 690/690
f 693/693 692/692 677/677
f 694/694 693/693 677/677
f 680/680 694/694 677/677
f 688/688 689/689 692/692
f 693/693 688/688 692/692
f 677/677 695/695 681/681
f 677/677 692/692 695/695
f 681/681 696/696 682/682
f 681/681 695/695 696/696
f 682/682 697/697 683/683
f 682/682 696/696 697/697
f 698/698 684/684 683/683
f 699/699 698/698 683/683
f 699/699 683/683 697/697
f 700/700 699/699 697/697
f 687/687 684/684 701/701
f 702/702 701/701 684/684
f 698/698 702/702 684/684
f 704/704 703/703 689/689
f 705/705 704/704 689/689
f 691/691 705/705 689/689
f 706/706 703/703 704/704
f 689/689 707/707 692/692
f 689/689 703/703 707/707
f 692/692 708/708 695/695
f 692/692 707/707 708/708
f 695/695 709/709 696/696
f 695/695 708/708 709/709
f 696/696 710/710 697/697
f 696/696 709/709 710/710
f 700/700 697/697 711/711
f 711/711 697/697 710/710
f 712/712 711/711 710/710
f 714/714 713/713 703/703
f 715/715 714/714 703/703
f 706/706 715/715 703/703
f 716/716 713/713 714/714
f 703/703 717/717 707/707
f 703/703 713/713 717/717
f 707/707 718/718 708/708
f 707/707 717/717 718/718
f 708/708 719/719 709/709
f 708/708 718/718 719/719
f 709/709 720/720 710/710
f 709/709 719/719 720/720
f 721/721 712/712 710/710
f 722/722 721/721 710/710
f 722/722 710/710 720/720
f 723/723 722/722 720/720
f 725/725 724/724 713/713
f 726/726 725/725 713/713
f 716/716 726/726 713/713
f 727/727 724/724 725/725
f 713/713 728/728 717/717
f 713/713 724/724 728/728
f 717/717 729/729 718/718
f 717/717 728/728 729/729
f 718/718 730/730 719/719
f 718/718 729/729 730/730
f 719/719 731/731 720/720
f 719/719 730/730 731/731
f 723/723 720/720 732/732
f 732/732 720/720 731/731
f 733/733 732/732 731/731
f 734/734 733/733 731/731
f 736/736 735/735 724/724
f 737/737 736/736 724/724
f 727/727 737/737 724/724
f 739/739 738/738 735/735
f 736/736 739/739 735/735
f 724/724 740/740 728/728
f 724/724 735/735 740/740
f 728/728 741/741 729/729
f 728/728 740/740 741/741
f 729/729 742/742 730/730
f 729/729 741/741 742/742
f 743/743 731/731 730/730
f 744/744 743/743 730/730
f 745/745 744/744 730/730
f 745/745 730/730 742/742
f 746/746 745/745 742/742
f 734/734 731/731 747/747
f 747/747 731/731 743/743
f 738/738 748/748 735/735
f 738/738 749/749 748/748
f 735/735 750/750 740/740
f 735/735 748/748 750/750
f 740/740 751/751 741/741
f 740/740 750/750 751/751
f 741/741 752/752 742/742
f 741/741 751/751 752/752
f 753/753 746/746 742/742
f 754/754 753/753 742/742
f 754/754 742/742 752/752
f 755/755 754/754 752/752
f 749/749 756/756 748/748
f 749/749 757/757 756/756
f 748/748 758/758 750/750
f 748/748 756/756 758/758
f 750/750 759/759 751/751
f 750/750 758/758 759/759
f 751/751 760/760 752/752
f 751/751 759/759 760/760
f 755/755 752/752 761/761
f 761/761 752/752 760/760
f 762/762 761/761 760/760
f 757/757 763/763 756/756
f 757/757 764/764 763/763
f 756/756 765/765 758/758
f 756/756 763/763 765/765
f 758/758 766/766 759/759
f 758/758 765/765 766/766
f 767/767 760/760 759/759
f 768/768 767/767 759/759
f 768/768 759/759 766/766
f 769/769 768/768 766/766
f 762/762 760/760 770/770
f 771/771 770/770 760/760
f 767/767 771/771 760/760
f 764/764 772/772 763/763
f 764/764 773/773 772/772
f 763/763 774/774 765/765
f 763/763 772/772 774/774
f 765/765 775/775 766/766
f 765/765 774/774 775/775
f 769/769 766/766 776/776
f 776/776 766/766 775/775
f 777/777 776/776 775/775
f 773/773 778/778 772/772
f 773/773 779/779 778/778
f 772/772 780/780 774/774
f 772/772 778/778 780/780
f 774/774 781/781 775/775
f 774/774 780/780 781/781
f 777/777 775/775 782/782
f 782/782 775/775 781/781
f 783/783 782/782 781/781
f 779/779 784/784 778/778
f 779/779 785/785 784/784
f 778/778 786/786 780/780
f 778/778 784/784 786/786
f 780/780 787/787 781/781
f 780/780 786/786 787/787
f 788/788 783/783 781/781
f 789/789 788/788 781/781
f 789/789 781/781 787/787
f 790/790 789/789 787/787
f 785/785 791/791 784/784
f 785/785 792/792 791/791
f 784/784 793/793 786/786
f 784/784 791/791 793/793
f 794/794 787/787 786/786
f 795/795 794/794 786/786
f 795/795 786/786 793/793
f 796/796 795/795 793/793
f 790/790 787/787 797/797
f 797/797 787/787 794/794
f 792/792 798/798 791/791
f 792/792 799/799 798/798
f 791/791 800/800 793/793
f 791/791 798/798 800/800
f 801/801 796/796 793/793
f 802/802 801/801 793/793
f 802/802 793/793 800/800
f 803/803 802/802 800/800
f 799/799 804/804 798/798
f 799/799 805/805 804/804
f 798/798 806/806 800/800
f 798/798 804/804 806/806
f 803/803 800/800 807/807
f 807/807 800/800 806/806
f 808/808 807/807 806/806
f 809/809 808/808 806/806
f 805/805 810/810 804/804
f 805/805 811/811 810/810
f 812/812 806/806 804/804
f 813/813 812/812 804/804
f 813/813 804/804 810/810
f 814/814 813/813 810/810
f 815/815 814/814 810/810
f 809/809 806/806 816/816
f 816/816 806/806 812/812
f 811/811 817/817 810/810
f 811/811 818/818 817/817
f 815/815 810/810 819/819
f 819/819 810/810 817/817
f 820/820 819/819 817/817
f 821/821 820/820 817/817
f 818/818 822/822 817/817
f 818/818 823/823 822/822
f 821/821 817/817 824/824
f 824/824 817/817 822/822
f 825/825 824/824 822/822
f 826/826 825/825 822/822
f 823/823 827/827 822/822
f 823/823 828/828 827/827
f 826/826 822/822 829/829
f 829/829 822/822 827/827
f 830/830 829/829 827/827
f 831/831 830/830 827/827
f 832/832 827/827 828/828
f 833/833 832/832 828/828
f 834/834 833/833 828/828
f 834/834 828/828 835/835
f 836/836 834/834 835/835
f 831/831 827/827 837/837
f 837/837 827/827 832/832
f 836/836 835/835 838/838
f 838/838 835/835 839/839
f 840/840 838/838 839/839
f 841/841 840/840 839/839
f 841/841 839/839 842/842
f 842/842 839/839 843/843
f 844/844 842/842 843/843
f 845/845 844/844 843/843
f 845/845 843/843 846/846
f 846/846 843/843 847/847
