# OSM contributors ODbL; elevations USGS 3DEP
# Centimeters, Z up, OBJ Y = negative source ENU Y. Apply source-to-world placement.
o EastsideTrailRealistic_Concrete_6_14
v 16055.811991 15764.696489 -261.843750
v 16055.811991 15698.029823 -262.364583
v 16019.101349 15734.740465 -262.651385
v 16035.454186 15757.859451 -262.215255
v 16040.290252 15764.696489 -262.086277
v 15993.134679 15698.029823 -263.833583
v 16122.478658 15764.696489 -261.583333
v 16122.478658 15698.029823 -261.843750
v 16189.145325 15764.696489 -261.062500
v 16189.145325 15698.029823 -260.802083
v 16255.811991 15764.696489 -259.500000
v 16255.811991 15698.029823 -258.979167
v 16322.478658 15764.696489 -257.156250
v 16322.478658 15698.029823 -256.114583
v 16389.145325 15764.696489 -254.812500
v 16389.145325 15703.756085 -253.860306
v 16386.772984 15700.402164 -253.891304
v 16385.094947 15698.029823 -253.913229
v 16414.392409 15739.449405 -253.924907
v 16432.250520 15764.696489 -254.138981
v 15989.145325 15692.389833 -263.949115
v 15989.145325 15631.363156 -264.187500
v 15963.862498 15656.645982 -265.076349
v 15943.389353 15631.363156 -265.796108
v 15961.948719 15653.940357 -265.143631
v 16055.811991 15631.363156 -262.625000
v 15991.481924 15695.693224 -263.881447
v 16122.478658 15631.363156 -261.843750
v 16189.145325 15631.363156 -260.541667
v 16255.811991 15631.363156 -257.416667
v 16322.478658 15631.363156 -254.552083
v 16373.557061 15681.718020 -253.936550
v 16359.153558 15661.354923 -253.965663
v 16337.939374 15631.363156 -254.008543
v 15922.478658 15606.066273 -266.531250
v 15922.478658 15564.696489 -266.531250
v 15903.273154 15583.901993 -267.131422
v 15886.631451 15564.696489 -267.511447
v 15989.145325 15564.696489 -264.447917
v 15933.955187 15619.886627 -266.172608
v 15924.732148 15608.666933 -266.460828
v 16055.811991 15564.696489 -262.625000
v 16122.478658 15564.696489 -261.322917
v 16189.145325 15564.696489 -257.416667
v 16255.811991 15564.696489 -253.510417
v 16322.478658 15609.505413 -253.442120
v 16303.914707 15583.260440 -252.907037
v 16296.705155 15573.067863 -252.563277
v 16290.783801 15564.696489 -252.280939
v 16331.534133 15622.307681 -253.844624
v 15855.811991 15529.126329 -268.215221
v 15855.811991 15498.029823 -268.093750
v 15841.376428 15512.465386 -268.601250
v 15828.869245 15498.029823 -268.725221
v 15838.939135 15509.652360 -268.625409
v 15922.478658 15498.029823 -266.270833
v 15872.324306 15548.184175 -267.838157
v 15882.516950 15559.948113 -267.605405
v 15989.145325 15498.029823 -264.187500
v 16055.811991 15498.029823 -262.625000
v 16122.478658 15498.029823 -258.197917
v 16189.145325 15498.029823 -248.822917
v 16255.811991 15515.254742 -246.750803
v 16248.675856 15505.165958 -245.789610
v 16243.628227 15498.029823 -245.204911
v 16276.295281 15544.213199 -251.110031
v 16258.279202 15518.742785 -247.275871
v 15789.145325 15453.016364 -269.656250
v 15789.145325 15431.363156 -269.656250
v 15778.614934 15441.893547 -269.985325
v 15768.645414 15431.363156 -270.216794
v 15855.811991 15431.363156 -268.093750
v 15810.428916 15476.746232 -269.157416
v 15797.675829 15462.026783 -269.456316
v 15922.478658 15431.363156 -265.750000
v 15989.145325 15431.363156 -263.666667
v 16055.811991 15431.363156 -260.281250
v 16122.478658 15431.363156 -250.385417
v 16189.145325 15431.363156 -240.750000
v 16221.056430 15466.118717 -244.460070
v 16219.853249 15464.417707 -244.272888
v 16212.826883 15455.210067 -243.267688
v 16193.223765 15431.363156 -240.686274
v 15722.478658 15383.129401 -271.479167
v 15722.478658 15364.696489 -271.479167
v 15713.442245 15373.732902 -271.761555
v 15704.752118 15364.696489 -272.033121
v 15789.145325 15364.696489 -269.916667
v 15746.124415 15407.717399 -270.924969
v 15754.792316 15416.730701 -270.652748
v 15855.811991 15364.696489 -267.572917
v 15922.478658 15364.696489 -265.489583
v 15989.145325 15364.696489 -262.364583
v 16055.811991 15364.696489 -253.510417
v 16122.478658 15364.696489 -241.010417
v 16189.145325 15426.401791 -240.401154
v 16170.611336 15403.855460 -241.494606
v 16167.932026 15400.681035 -241.658648
v 16161.074624 15392.767190 -242.093315
v 16136.751166 15364.696489 -239.951129
v 16191.383717 15429.124764 -240.645075
v 15655.811991 15313.806184 -273.562500
v 15655.811991 15298.029823 -273.562500
v 15648.077905 15305.763909 -273.743768
v 15640.640199 15298.029823 -273.977354
v 15722.478658 15298.029823 -272.000000
v 15680.760075 15339.748405 -272.977779
v 15662.978038 15321.257786 -273.394546
v 15789.145325 15298.029823 -269.656250
v 15855.811991 15298.029823 -267.572917
v 15922.478658 15298.029823 -264.708333
v 15989.145325 15298.029823 -256.635417
v 16055.811991 15298.029823 -241.531250
v 16122.478658 15348.224987 -238.629770
v 16099.177151 15321.331329 -239.111828
v 16080.788431 15300.107811 -238.099634
v 16078.988040 15298.029823 -238.000524
v 16130.125298 15357.049849 -239.964978
v 16124.358832 15350.395008 -238.958095
v 15589.145325 15244.482968 -275.803751
v 15589.145325 15231.363156 -275.906250
v 15582.713566 15237.794915 -275.856002
v 15576.528280 15231.363156 -276.152677
v 15655.811991 15231.363156 -274.343750
v 15615.395736 15271.779412 -274.975254
v 15616.854065 15273.295853 -274.917607
v 15722.478658 15231.363156 -272.000000
v 15789.145325 15231.363156 -269.656250
v 15855.811991 15231.363156 -266.791667
v 15922.478658 15231.363156 -259.500000
v 15989.145325 15231.363156 -246.218750
v 16055.811991 15271.280325 -238.501034
v 16037.281953 15249.893194 -240.276484
v 16037.216360 15249.817486 -240.276698
v 16032.479788 15244.588166 -240.329221
v 16019.959171 15231.363156 -240.561520
v 16068.229435 15285.612379 -238.960451
v 15522.478658 15175.159752 -277.647422
v 15522.478658 15164.696489 -277.729167
v 15517.349226 15169.825921 -277.548835
v 15512.416361 15164.696489 -277.729167
v 15589.145325 15164.696489 -276.166667
v 15550.031396 15203.810418 -276.777822
v 15570.730091 15225.333919 -276.289474
v 15524.606117 15177.371986 -277.580277
v 15655.811991 15164.696489 -274.343750
v 15722.478658 15164.696489 -272.000000
v 15789.145325 15164.696489 -268.875000
v 15855.811991 15164.696489 -261.583333
v 15922.478658 15164.696489 -248.302083
v 15989.145325 15198.815764 -241.387497
v 15986.740195 15196.275325 -241.489547
v 15985.876395 15195.370046 -241.527255
v 15972.441755 15181.400059 -242.130017
v 15956.378287 15164.696489 -242.210744
v 16004.973777 15215.534704 -242.694446
v 15455.811991 15105.836535 -278.418932
v 15455.811991 15098.029823 -278.510417
v 15451.984887 15101.856927 -278.226374
v 15448.304441 15098.029823 -278.422438
v 15522.478658 15098.029823 -277.468750
v 15484.667057 15135.841424 -277.616452
v 15478.482143 15129.410053 -277.788458
v 15589.145325 15098.029823 -275.906250
v 15655.811991 15098.029823 -274.083333
v 15722.478658 15098.029823 -271.479167
v 15789.145325 15098.029823 -264.187500
v 15855.811991 15098.029823 -250.125000
v 15922.478658 15129.446020 -241.692620
v 15907.077416 15113.431065 -241.758033
v 15893.628448 15099.446180 -242.243807
v 15892.266367 15098.029823 -242.293005
v 15939.759585 15147.415562 -242.901794
v 15939.752422 15147.408113 -242.901292
v 15389.145325 15036.513319 -279.411259
v 15389.145325 15031.363156 -279.552083
v 15386.620547 15033.887933 -279.216761
v 15384.192522 15031.363156 -279.358614
v 15455.811991 15031.363156 -278.770833
v 15419.302717 15067.872430 -278.200376
v 15432.358170 15081.448120 -278.300339
v 15522.478658 15031.363156 -277.208333
v 15589.145325 15031.363156 -275.645833
v 15655.811991 15031.363156 -273.302083
v 15722.478658 15031.363156 -267.052083
v 15789.145325 15031.363156 -253.250000
v 15855.811991 15060.122804 -242.425137
v 15847.504474 15051.484246 -242.422797
v 15841.713076 15045.462071 -242.421165
v 15828.154448 15031.363156 -243.497719
v 15874.395246 15079.446568 -242.865916
v 15322.478658 14967.190102 -279.454677
v 15322.478658 14964.696489 -279.552083
v 15321.256208 14965.918940 -279.308548
v 15320.080603 14964.696489 -279.355368
v 15389.145325 14964.696489 -280.072917
v 15353.938377 14999.903437 -278.422591
v 15340.110222 14985.524254 -278.876245
v 15455.811991 14964.696489 -279.031250
v 15522.478658 14964.696489 -277.468750
v 15589.145325 14964.696489 -275.125000
v 15655.811991 14964.696489 -269.395833
v 15722.478658 14964.696489 -256.375000
v 15789.145325 14990.799587 -244.059816
v 15776.348736 14977.493077 -243.694354
v 15764.042529 14964.696489 -245.009879
v 15809.030906 15011.477574 -244.239346
v 15801.380500 15003.522313 -244.170277
v 15322.478658 14898.029823 -281.375000
v 15288.574038 14931.934443 -277.666682
v 15293.986248 14937.562320 -277.956765
v 15255.968684 14898.029823 -280.075977
v 15389.145325 14898.029823 -280.333333
v 15455.811991 14898.029823 -279.031250
v 15522.478658 14898.029823 -277.468750
v 15589.145325 14898.029823 -272.260417
v 15655.811991 14898.029823 -260.020833
v 15722.478658 14921.476371 -246.920599
v 15710.984397 14909.524084 -246.551009
v 15709.132553 14907.598447 -246.786580
v 15699.930610 14898.029823 -247.957149
v 15755.256527 14955.560380 -245.592217
v 15743.666567 14943.508581 -246.360403
v 15255.811991 14831.363156 -282.416667
v 15223.209698 14863.965449 -276.303737
v 15247.862275 14889.600387 -279.158174
v 15255.811991 14897.866886 -280.078645
v 15191.856765 14831.363156 -278.669290
v 15201.738301 14841.638454 -277.923736
v 15322.478658 14831.363156 -281.635417
v 15255.891868 14897.949946 -280.074789
v 15389.145325 14831.363156 -280.593750
v 15455.811991 14831.363156 -279.291667
v 15522.478658 14831.363156 -274.604167
v 15589.145325 14831.363156 -262.104167
v 15655.811991 14852.153155 -249.806106
v 15645.620057 14841.555090 -249.317557
v 15635.818691 14831.363156 -250.253507
v 15678.302227 14875.539587 -249.302830
v 15189.145325 14828.543670 -278.708662
v 15189.145325 14764.696489 -283.197917
v 15157.845359 14795.996455 -274.394801
v 15127.744846 14764.696489 -277.681467
v 15255.811991 14764.696489 -283.197917
v 15190.527529 14829.980952 -278.607603
v 15322.478658 14764.696489 -282.156250
v 15389.145325 14764.696489 -281.375000
v 15455.811991 14764.696489 -277.468750
v 15522.478658 14764.696489 -265.750000
v 15589.145325 14782.829938 -251.487525
v 15580.255718 14773.586096 -251.132236
v 15571.706772 14764.696489 -252.289188
v 15612.937888 14807.570593 -250.114945
v 15122.478658 14759.220453 -277.807275
v 15122.478658 14698.029823 -284.500000
v 15092.481019 14728.027461 -272.899351
v 15063.632926 14698.029823 -276.684551
v 15189.145325 14698.029823 -285.281250
v 15125.163189 14762.011958 -277.533413
v 15255.811991 14698.029823 -283.979167
v 15322.478658 14698.029823 -282.937500
v 15389.145325 14698.029823 -280.333333
v 15455.811991 14698.029823 -270.437500
v 15522.478658 14713.506722 -255.552039
v 15514.891378 14705.617102 -255.313980
v 15507.594852 14698.029823 -256.480401
v 15570.760632 14763.712647 -252.328839
v 15547.573548 14739.601599 -253.300582
v 15524.636658 14715.750714 -255.358428
v 15055.811991 14689.897237 -276.630639
v 15055.811991 14631.363156 -283.718750
v 15027.116680 14660.058468 -270.604096
v 15000.802985 14631.363156 -275.338472
v 15012.520390 14644.661404 -273.071735
v 15017.242406 14649.790721 -272.228266
v 15122.478658 14631.363156 -286.583333
v 15059.798849 14694.042964 -276.299927
v 15063.366380 14697.752654 -276.657812
v 15189.145325 14631.363156 -286.062500
v 15255.811991 14631.363156 -285.281250
v 15322.478658 14631.363156 -282.416667
v 15389.145325 14631.363156 -272.781250
v 15455.811991 14644.183505 -257.817269
v 15449.527039 14637.648109 -257.218458
v 15443.482933 14631.363156 -258.135566
v 15482.209209 14671.632605 -256.207750
v 14989.145325 14618.132713 -276.094889
v 14989.145325 14564.696489 -286.322917
v 14964.221761 14589.620053 -272.790200
v 14968.572139 14594.783916 -273.331235
v 14944.142786 14564.696489 -277.533358
v 14963.998705 14589.355287 -272.838682
v 15055.811991 14564.696489 -288.666667
v 14995.342503 14625.165978 -274.966548
v 15122.478658 14564.696489 -288.406250
v 15189.145325 14564.696489 -287.885417
v 15255.811991 14564.696489 -285.802083
v 15322.478658 14564.696489 -276.427083
v 15389.145325 14574.860289 -261.083391
v 15384.162699 14569.679115 -260.730871
v 15379.371014 14564.696489 -261.537287
v 15416.844869 14603.663612 -257.957666
v 14922.478658 14537.792099 -279.187419
v 14922.478658 14498.029823 -287.885417
v 14904.742579 14515.765901 -277.008212
v 14890.461018 14498.029823 -276.629215
v 14989.145325 14498.029823 -290.750000
v 14934.479439 14552.695708 -276.442913
v 15055.811991 14498.029823 -290.750000
v 15122.478658 14498.029823 -290.489583
v 15189.145325 14498.029823 -289.447917
v 15255.811991 14498.029823 -282.677083
v 15322.478658 14505.537073 -266.721242
v 15318.798360 14501.710121 -266.610924
v 15315.259095 14498.029823 -267.350877
v 15351.480529 14535.694618 -261.246416
v 15340.140763 14523.902982 -263.387080
v 14855.811991 14454.999662 -267.977735
v 14855.811991 14431.363156 -269.916667
v 14845.268859 14441.906288 -261.020899
v 14836.883880 14431.363156 -254.833328
v 14838.799433 14433.871995 -256.242183
v 14922.478658 14431.363156 -291.010417
v 14875.005719 14478.836095 -272.095418
v 14880.532524 14485.699759 -273.716701
v 14989.145325 14431.363156 -292.312500
v 15055.811991 14431.363156 -292.312500
v 15122.478658 14431.363156 -292.312500
v 15189.145325 14431.363156 -288.927083
v 15255.811991 14436.213856 -275.191556
v 15253.434020 14433.741127 -275.133637
v 15251.147176 14431.363156 -275.606373
v 15286.116190 14467.725624 -268.116863
v 14789.145325 14365.212974 -255.034741
v 14789.145325 14364.696489 -255.333333
v 14788.936441 14364.905373 -255.033063
v 14788.794593 14364.696489 -255.064804
v 14855.811991 14364.696489 -286.322917
v 14816.750668 14403.757813 -245.583177
v 14833.785768 14427.305496 -253.363085
v 14792.082724 14369.538559 -253.899443
v 14794.813523 14373.434016 -252.916777
v 14922.478658 14364.696489 -293.614583
v 14989.145325 14364.696489 -293.875000
v 15055.811991 14364.696489 -294.395833
v 15122.478658 14364.696489 -293.614583
v 15189.145325 14364.696489 -285.802083
v 15250.309713 14430.492322 -275.602605
v 15222.068035 14398.440445 -274.909210
v 15211.013522 14385.894522 -278.509745
v 15193.944303 14364.696489 -283.983720
v 14789.145325 14298.029823 -288.406250
v 14761.974164 14325.200983 -254.123888
v 14743.522897 14298.029823 -260.961508
v 14754.700595 14314.489995 -256.819307
v 14855.811991 14298.029823 -294.656250
v 14922.478658 14298.029823 -295.177083
v 14989.145325 14298.029823 -295.437500
v 15055.811991 14298.029823 -295.697917
v 15122.478658 14298.029823 -291.270833
v 15189.145325 14358.736702 -284.265576
v 15171.506924 14336.831809 -280.685221
v 15162.066845 14325.108302 -278.769013
v 15140.262535 14298.029823 -285.227094
v 15191.803705 14362.038109 -283.631765
v 14722.478658 14267.040278 -252.659988
v 14722.478658 14231.363156 -257.677083
v 14708.049612 14245.792202 -242.346221
v 14698.251200 14231.363156 -240.263598
v 14789.145325 14231.363156 -287.885417
v 14735.011888 14285.496593 -255.743689
v 14855.811991 14231.363156 -294.916667
v 14922.478658 14231.363156 -296.479167
v 14989.145325 14231.363156 -297.260417
v 15055.811991 14231.363156 -295.437500
v 15122.478658 14275.944265 -286.784704
v 15102.593125 14251.248689 -283.088939
v 15090.632370 14236.394788 -286.207992
v 15086.992337 14231.363156 -287.155221
v 15132.329985 14288.178495 -282.650922
v 14655.811991 14168.867583 -205.610320
v 14655.811991 14164.696489 -205.333333
v 14654.125059 14166.383422 -204.193336
v 14652.979504 14164.696489 -203.773253
v 14722.478658 14164.696489 -239.708333
v 14681.087335 14206.087812 -221.114575
v 14679.936339 14204.392866 -220.408537
v 14789.145325 14164.696489 -270.697917
v 14855.811991 14164.696489 -291.791667
v 14922.478658 14164.696489 -297.781250
v 14989.145325 14164.696489 -297.781250
v 15055.811991 14188.262449 -291.060084
v 15055.476521 14187.798727 -291.022161
v 15046.268863 14174.239618 -289.896836
v 15039.788359 14164.696489 -290.857398
v 15073.904020 14213.271127 -284.271326
v 14655.811991 14098.029823 -213.406250
v 14627.162782 14126.679032 -194.157563
v 14642.554210 14149.344301 -199.890250
v 14607.707808 14098.029823 -188.226717
v 14722.478658 14098.029823 -249.864583
v 14789.145325 14098.029823 -281.635417
v 14855.811991 14098.029823 -296.479167
v 14922.478658 14098.029823 -292.572917
v 14989.145325 14098.029823 -284.500000
v 15019.306587 14134.535227 -283.525341
v 14994.516663 14098.029823 -283.031275
v 14589.145325 14070.694887 -188.761017
v 14589.145325 14031.363156 -203.510417
v 14573.238230 14047.270251 -189.218886
v 14562.436112 14031.363156 -189.634146
v 14655.811991 14031.363156 -238.927083
v 14600.200506 14086.974641 -188.529175
v 14605.172082 14094.295736 -188.328877
v 14722.478658 14031.363156 -274.604167
v 14789.145325 14031.363156 -295.958333
v 14855.811991 14031.363156 -297.781250
v 14922.478658 14031.363156 -276.687500
v 14989.145325 14090.120042 -280.606905
v 14982.048705 14079.669627 -276.322697
v 14965.382034 14055.126447 -266.261081
v 14949.244966 14031.363156 -266.650134
v 14992.344310 14094.830837 -281.863336
v 14522.478658 13972.522192 -192.089599
v 14522.478658 13964.696489 -195.177083
v 14519.313677 13967.861471 -192.284093
v 14517.164416 13964.696489 -192.582238
v 14589.145325 13964.696489 -229.291667
v 14546.275953 14007.565861 -190.441299
v 14530.407825 13984.198607 -191.540392
v 14655.811991 13964.696489 -265.229167
v 14722.478658 13964.696489 -293.614583
v 14789.145325 13964.696489 -301.166667
v 14855.811991 13964.696489 -291.270833
v 14922.478658 13991.947346 -264.062123
v 14911.457481 13975.717666 -262.350723
v 14907.284448 13969.572498 -264.000135
v 14903.973270 13964.696489 -265.308894
v 14938.419757 14015.422057 -263.486277
v 14522.478658 13898.029823 -220.437500
v 14492.351400 13928.157080 -194.311519
v 14493.025697 13929.150043 -194.264525
v 14471.892719 13898.029823 -198.898956
v 14589.145325 13898.029823 -255.593750
v 14655.811991 13898.029823 -288.406250
v 14722.478658 13898.029823 -302.208333
v 14789.145325 13898.029823 -300.125000
v 14855.811991 13898.029823 -275.645833
v 14884.495205 13936.013276 -265.724847
v 14869.902319 13914.523933 -270.264863
v 14858.701574 13898.029823 -273.749545
v 14455.811991 13831.363156 -223.041667
v 14438.426847 13848.748300 -208.305041
v 14455.643568 13874.101478 -203.110550
v 14455.811991 13874.349496 -203.059735
v 14426.621023 13831.363156 -216.884197
v 14522.478658 13831.363156 -247.260417
v 14465.389124 13888.452690 -199.983146
v 14589.145325 13831.363156 -281.114583
v 14655.811991 13831.363156 -301.427083
v 14722.478658 13831.363156 -304.291667
v 14789.145325 13831.363156 -291.791667
v 14855.811991 13893.774651 -274.299470
v 14832.520191 13859.475368 -271.999421
v 14830.570652 13856.604496 -271.806905
v 14813.429878 13831.363156 -278.226467
v 14857.532928 13896.308886 -273.938341
v 14389.145325 13776.176801 -251.015648
v 14389.145325 13764.696489 -259.760417
v 14384.502295 13769.339519 -254.972292
v 14381.349327 13764.696489 -258.846823
v 14455.811991 13764.696489 -259.239583
v 14411.464571 13809.043910 -225.805786
v 14418.261440 13819.052913 -221.804924
v 14522.478658 13764.696489 -275.645833
v 14589.145325 13764.696489 -299.083333
v 14655.811991 13764.696489 -306.114583
v 14722.478658 13764.696489 -301.947917
v 14789.145325 13795.601955 -282.991059
v 14776.646099 13777.195715 -280.805003
v 14768.158182 13764.696489 -283.747481
v 14803.608375 13816.900105 -279.023505
v 14389.145325 13698.029823 -300.125000
v 14357.540018 13729.635129 -277.285228
v 14380.879311 13764.004349 -259.210813
v 14336.077631 13698.029823 -291.418581
v 14343.497183 13708.955784 -286.532678
v 14455.811991 13698.029823 -296.218750
v 14522.478658 13698.029823 -299.604167
v 14589.145325 13698.029823 -306.895833
v 14655.811991 13698.029823 -306.895833
v 14722.478658 13698.029823 -292.312500
v 14757.755934 13749.378239 -283.165011
v 14749.683823 13737.491325 -282.713015
v 14722.886485 13698.029823 -292.083097
v 14322.478658 13631.363156 -301.687500
v 14303.615465 13650.226349 -291.224323
v 14306.115055 13653.907220 -291.451977
v 14322.478658 13678.004105 -292.942322
v 14290.805935 13631.363156 -293.893041
v 14389.145325 13631.363156 -306.895833
v 14330.577742 13689.930739 -291.338819
v 14455.811991 13631.363156 -306.895833
v 14522.478658 13631.363156 -307.937500
v 14589.145325 13631.363156 -308.979167
v 14655.811991 13631.363156 -303.510417
v 14722.478658 13697.429260 -292.164705
v 14720.373806 13694.329675 -291.862353
v 14695.759270 13658.082544 -288.326591
v 14682.991677 13639.281110 -292.658412
v 14677.614789 13631.363156 -294.482696
v 14722.721546 13697.786935 -292.100922
v 14255.811991 13579.831410 -299.371962
v 14255.811991 13564.696489 -303.510417
v 14249.690913 13570.817568 -300.139041
v 14245.534238 13564.696489 -302.466582
v 14322.478658 13564.696489 -307.416667
v 14276.653189 13610.521958 -292.201179
v 14268.732926 13598.858655 -294.926286
v 14389.145325 13564.696489 -307.677083
v 14455.811991 13564.696489 -307.937500
v 14522.478658 13564.696489 -308.718750
v 14589.145325 13564.696489 -306.635417
v 14655.811991 13599.256564 -296.737933
v 14645.609549 13584.232545 -294.405723
v 14641.834717 13578.673764 -293.542821
v 14632.343093 13564.696489 -295.498492
v 14668.796993 13618.378154 -293.568775
v 14255.811991 13498.029823 -308.197917
v 14222.728636 13531.113178 -302.511715
v 14231.350798 13543.810090 -302.494652
v 14200.262542 13498.029823 -307.112966
v 14322.478658 13498.029823 -308.718750
v 14389.145325 13498.029823 -308.979167
v 14455.811991 13498.029823 -309.500000
v 14522.478658 13498.029823 -308.718750
v 14589.145325 13501.083869 -291.974696
v 14587.910164 13499.264983 -291.594098
v 14587.071397 13498.029823 -291.813619
v 14614.872440 13538.969374 -281.712273
v 14189.145325 13481.658715 -306.767934
v 14189.145325 13431.363156 -306.375000
v 14168.804083 13451.704397 -306.533916
v 14154.990846 13431.363156 -305.841336
v 14156.586541 13433.712961 -305.921343
v 14255.811991 13431.363156 -308.718750
v 14195.766360 13491.408788 -307.076877
v 14193.968669 13488.761526 -306.992995
v 14322.478658 13431.363156 -309.760417
v 14389.145325 13431.363156 -310.541667
v 14455.811991 13431.363156 -310.802083
v 14522.478658 13431.363156 -305.593750
v 14560.947888 13459.560593 -284.525211
v 14541.799701 13431.363156 -294.348299
v 14122.478658 13383.486019 -307.951614
v 14122.478658 13364.696489 -308.979167
v 14114.879531 13372.295617 -308.712010
v 14109.719150 13364.696489 -308.879483
v 14189.145325 13364.696489 -310.020833
v 14141.841807 13412.000007 -306.694805
v 14255.811991 13364.696489 -310.541667
v 14322.478658 13364.696489 -311.062500
v 14389.145325 13364.696489 -312.104167
v 14455.811991 13364.696489 -311.583333
v 14522.478658 13402.911174 -303.259798
v 14507.023335 13380.151812 -302.600267
v 14496.528004 13364.696489 -304.585269
v 14533.985611 13419.856203 -296.019605
v 14533.463164 13419.086852 -296.348330
v 14122.478658 13298.029823 -310.802083
v 14087.917254 13332.591226 -309.587034
v 14064.447454 13298.029823 -310.122030
v 14189.145325 13298.029823 -311.583333
v 14255.811991 13298.029823 -311.843750
v 14322.478658 13298.029823 -312.625000
v 14389.145325 13298.029823 -313.145833
v 14455.811991 13304.738478 -311.583333
v 14453.098782 13300.743032 -311.604530
v 14451.256308 13298.029823 -311.690107
v 14496.081035 13364.038287 -304.579816
v 14480.061058 13340.447422 -304.384392
v 14055.811991 13231.363156 -312.104167
v 14033.992701 13253.182446 -311.507545
v 14044.440156 13268.567267 -310.985959
v 14055.811991 13285.313324 -310.418224
v 14019.175757 13231.363156 -312.247277
v 14122.478658 13231.363156 -311.583333
v 14060.954978 13292.886836 -310.141372
v 14189.145325 13231.363156 -311.843750
v 14255.811991 13231.363156 -312.885417
v 14322.478658 13231.363156 -313.406250
v 14389.145325 13231.363156 -311.843750
v 14426.136506 13261.038642 -308.377439
v 14421.316779 13253.941158 -308.765974
v 14405.984612 13231.363156 -310.001953
v 13989.145325 13187.140628 -312.710072
v 13989.145325 13164.696489 -312.885417
v 13980.068149 13173.773665 -312.814501
v 13973.904061 13164.696489 -312.944953
v 14055.811991 13164.696489 -313.145833
v 14007.030425 13213.478056 -312.574174
v 14007.058027 13213.518703 -312.573431
v 14122.478658 13164.696489 -312.885417
v 14189.145325 13164.696489 -313.145833
v 14255.811991 13164.696489 -313.927083
v 14322.478658 13164.696489 -312.625000
v 14389.145325 13206.565783 -309.906455
v 14383.934650 13198.892593 -309.429112
v 14372.211953 13181.629861 -308.355212
v 14360.712916 13164.696489 -309.189891
v 14399.174229 13221.334251 -308.004560
v 13989.145325 13098.029823 -312.625000
v 13953.105872 13134.069275 -312.906558
v 13969.675899 13158.470138 -312.937147
v 13928.632365 13098.029823 -313.097757
v 13932.293771 13103.421574 -313.069153
v 14055.811991 13098.029823 -313.406250
v 14122.478658 13098.029823 -313.666667
v 14189.145325 13098.029823 -314.187500
v 14255.811991 13098.029823 -312.885417
v 14322.478658 13108.393087 -308.886102
v 14318.287400 13102.221081 -308.558103
v 14315.441220 13098.029823 -308.692737
v 14346.552522 13143.844029 -306.307913
v 14345.249676 13141.925471 -306.042753
v 13922.478658 13088.967933 -313.393619
v 13922.478658 13031.363156 -314.968750
v 13899.181319 13054.660495 -314.422719
v 13883.360669 13031.363156 -314.815945
v 13989.145325 13031.363156 -314.447917
v 13926.143596 13094.364885 -313.217414
v 14055.811991 13031.363156 -314.447917
v 14122.478658 13031.363156 -314.708333
v 14189.145325 13031.363156 -313.927083
v 14255.811991 13031.363156 -308.718750
v 14291.325124 13062.516690 -304.007134
v 14271.788265 13033.746899 -305.872183
v 14270.169523 13031.363156 -306.026713
v 13855.811991 12990.795237 -315.025270
v 13855.811991 12964.696489 -315.229167
v 13845.256766 12975.251714 -315.064241
v 13838.088973 12964.696489 -315.298397
v 13922.478658 12964.696489 -315.229167
v 13872.219043 13014.956104 -314.836513
v 13857.529514 12993.324444 -315.005511
v 13989.145325 12964.696489 -314.968750
v 14055.811991 12964.696489 -315.229167
v 14122.478658 12964.696489 -315.229167
v 14189.145325 12964.696489 -311.843750
v 14255.811991 13010.220392 -306.488849
v 14237.400571 12983.107910 -305.067722
v 14234.406137 12978.698335 -305.386106
v 14224.897827 12964.696489 -306.397080
v 14264.362847 13022.812300 -304.910947
v 13855.811991 12898.029823 -316.270833
v 13818.294490 12935.547324 -315.831175
v 13820.147385 12938.275880 -315.781304
v 13792.817276 12898.029823 -316.516906
v 13922.478658 12898.029823 -315.489583
v 13989.145325 12898.029823 -316.010417
v 14055.811991 12898.029823 -316.270833
v 14122.478658 12898.029823 -314.708333
v 14189.145325 12912.047696 -308.141882
v 14183.476018 12903.699129 -307.842768
v 14179.626131 12898.029823 -308.234596
v 14210.438294 12943.403520 -304.856994
v 13789.145325 12892.622542 -316.552372
v 13789.145325 12831.363156 -316.791667
v 13764.369937 12856.138543 -316.404551
v 13747.545580 12831.363156 -316.466669
v 13855.811991 12831.363156 -316.791667
v 13791.332214 12895.842934 -316.539793
v 13922.478658 12831.363156 -316.531250
v 13989.145325 12831.363156 -317.312500
v 14055.811991 12831.363156 -316.531250
v 14122.478658 12831.363156 -311.322917
v 14159.641880 12868.601206 -306.360038
v 14156.513742 12863.994739 -306.066613
v 14134.354435 12831.363156 -308.910650
v 13789.145325 12764.696489 -316.791667
v 13737.504154 12816.337660 -316.388220
v 13744.492242 12826.852642 -316.442814
v 13745.383129 12828.178751 -316.449775
v 13722.478658 12764.696489 -316.791667
v 13722.478658 12793.728781 -316.564852
v 13855.811991 12764.696489 -316.791667
v 13922.478658 12764.696489 -317.572917
v 13989.145325 12764.696489 -318.093750
v 14055.811991 12764.696489 -314.968750
v 14122.478658 12813.875001 -309.341837
v 14122.259751 12813.552641 -309.322421
v 14102.589189 12784.585959 -307.577802
v 14089.082739 12764.696489 -309.380304
v 14129.551465 12824.290349 -308.339076
v 13789.145325 12698.029823 -317.572917
v 13722.478658 12698.029823 -317.833333
v 13855.811991 12698.029823 -317.833333
v 13922.478658 12698.029823 -318.354167
v 13989.145325 12698.029823 -316.531250
v 14055.811991 12715.702305 -311.141079
v 14048.664636 12705.177178 -310.653836
v 14047.495495 12703.455512 -310.732225
v 14043.811042 12698.029823 -310.979263
v 14075.626912 12744.881568 -308.312175
v 13789.145325 12631.363156 -318.354167
v 13722.478658 12631.363156 -318.093750
v 13855.811991 12631.363156 -319.135417
v 13922.478658 12631.363156 -318.614583
v 13989.145325 12631.363156 -311.843750
v 14021.702359 12665.472788 -307.628936
v 14010.562120 12649.067778 -308.738320
v 13998.795914 12631.363156 -309.883474
v 13789.145325 12564.696489 -319.395833
v 13722.478658 12564.696489 -318.614583
v 13855.811991 12564.696489 -319.916667
v 13922.478658 12564.696489 -316.270833
v 13989.145325 12616.841905 -310.539106
v 13974.639126 12595.014415 -310.051329
v 13968.412618 12585.429196 -309.822536
v 13954.944759 12564.696489 -311.198005
v 13994.942923 12625.565557 -309.714944
v 13789.145325 12498.029823 -320.697917
v 13722.478658 12498.029823 -319.656250
v 13855.811991 12498.029823 -318.614583
v 13922.478658 12514.717485 -312.561454
v 13915.907215 12504.601266 -312.170017
v 13911.638439 12498.029823 -312.508566
v 13942.159916 12545.015231 -310.658600
v 13789.145325 12431.363156 -319.656250
v 13722.478658 12431.363156 -320.958333
v 13855.811991 12431.363156 -314.187500
v 13902.598502 12484.113552 -311.866496
v 13889.654513 12464.187301 -310.947137
v 13868.332119 12431.363156 -312.182323
v 13789.145325 12364.696489 -317.312500
v 13722.478658 12364.696489 -321.479167
v 13855.811991 12412.089407 -312.380586
v 13837.149110 12383.359371 -311.218085
v 13830.101637 12372.510342 -311.827724
v 13825.025798 12364.696489 -312.266808
v 13863.401811 12423.773336 -311.489556
v 13789.145325 12309.461328 -312.565728
v 13784.643706 12302.531441 -312.251542
v 13722.478658 12298.029823 -320.437500
v 13781.719478 12298.029823 -312.569579
v 13810.896408 12342.945406 -310.345356
v 13758.391004 12262.117476 -309.776022
v 13722.478658 12231.363156 -315.489583
v 13757.604771 12260.907132 -309.861252
v 13738.413158 12231.363156 -311.941667
v 13732.138303 12221.703511 -311.376688
v 13722.478658 12206.833250 -312.614985
vt 80.279060 -78.823482
vt 80.279060 -78.490149
vt 80.095507 -78.673702
vt 80.177271 -78.789297
vt 80.201451 -78.823482
vt 79.965673 -78.490149
vt 80.612393 -78.823482
vt 80.612393 -78.490149
vt 80.945727 -78.823482
vt 80.945727 -78.490149
vt 81.279060 -78.823482
vt 81.279060 -78.490149
vt 81.612393 -78.823482
vt 81.612393 -78.490149
vt 81.945727 -78.823482
vt 81.945727 -78.518780
vt 81.933865 -78.502011
vt 81.925475 -78.490149
vt 82.071962 -78.697247
vt 82.161253 -78.823482
vt 79.945727 -78.461949
vt 79.945727 -78.156816
vt 79.819312 -78.283230
vt 79.716947 -78.156816
vt 79.809744 -78.269702
vt 80.279060 -78.156816
vt 79.957410 -78.478466
vt 80.612393 -78.156816
vt 80.945727 -78.156816
vt 81.279060 -78.156816
vt 81.612393 -78.156816
vt 81.867785 -78.408590
vt 81.795768 -78.306775
vt 81.689697 -78.156816
vt 79.612393 -78.030331
vt 79.612393 -77.823482
vt 79.516366 -77.919510
vt 79.433157 -77.823482
vt 79.945727 -77.823482
vt 79.669776 -78.099433
vt 79.623661 -78.043335
vt 80.279060 -77.823482
vt 80.612393 -77.823482
vt 80.945727 -77.823482
vt 81.279060 -77.823482
vt 81.612393 -78.047527
vt 81.519574 -77.916302
vt 81.483526 -77.865339
vt 81.453919 -77.823482
vt 81.657671 -78.111538
vt 79.279060 -77.645632
vt 79.279060 -77.490149
vt 79.206882 -77.562327
vt 79.144346 -77.490149
vt 79.194696 -77.548262
vt 79.612393 -77.490149
vt 79.361622 -77.740921
vt 79.412585 -77.799741
vt 79.945727 -77.490149
vt 80.279060 -77.490149
vt 80.612393 -77.490149
vt 80.945727 -77.490149
vt 81.279060 -77.576274
vt 81.243379 -77.525830
vt 81.218141 -77.490149
vt 81.381476 -77.721066
vt 81.291396 -77.593714
vt 78.945727 -77.265082
vt 78.945727 -77.156816
vt 78.893075 -77.209468
vt 78.843227 -77.156816
vt 79.279060 -77.156816
vt 79.052145 -77.383731
vt 78.988379 -77.310134
vt 79.612393 -77.156816
vt 79.945727 -77.156816
vt 80.279060 -77.156816
vt 80.612393 -77.156816
vt 80.945727 -77.156816
vt 81.105282 -77.330594
vt 81.099266 -77.322089
vt 81.064134 -77.276050
vt 80.966119 -77.156816
vt 78.612393 -76.915647
vt 78.612393 -76.823482
vt 78.567211 -76.868665
vt 78.523761 -76.823482
vt 78.945727 -76.823482
vt 78.730622 -77.038587
vt 78.773962 -77.083654
vt 79.279060 -76.823482
vt 79.612393 -76.823482
vt 79.945727 -76.823482
vt 80.279060 -76.823482
vt 80.612393 -76.823482
vt 80.945727 -77.132009
vt 80.853057 -77.019277
vt 80.839660 -77.003405
vt 80.805373 -76.963836
vt 80.683756 -76.823482
vt 80.956919 -77.145624
vt 78.279060 -76.569031
vt 78.279060 -76.490149
vt 78.240390 -76.528820
vt 78.203201 -76.490149
vt 78.612393 -76.490149
vt 78.403800 -76.698742
vt 78.314890 -76.606289
vt 78.945727 -76.490149
vt 79.279060 -76.490149
vt 79.612393 -76.490149
vt 79.945727 -76.490149
vt 80.279060 -76.490149
vt 80.612393 -76.741125
vt 80.495886 -76.606657
vt 80.403942 -76.500539
vt 80.394940 -76.490149
vt 80.650626 -76.785249
vt 80.621794 -76.751975
vt 77.945727 -76.222415
vt 77.945727 -76.156816
vt 77.913568 -76.188975
vt 77.882641 -76.156816
vt 78.279060 -76.156816
vt 78.076979 -76.358897
vt 78.084270 -76.366479
vt 78.612393 -76.156816
vt 78.945727 -76.156816
vt 79.279060 -76.156816
vt 79.612393 -76.156816
vt 79.945727 -76.156816
vt 80.279060 -76.356402
vt 80.186410 -76.249466
vt 80.186082 -76.249087
vt 80.162399 -76.222941
vt 80.099796 -76.156816
vt 80.341147 -76.428062
vt 77.612393 -75.875799
vt 77.612393 -75.823482
vt 77.586746 -75.849130
vt 77.562082 -75.823482
vt 77.945727 -75.823482
vt 77.750157 -76.019052
vt 77.853650 -76.126670
vt 77.623031 -75.886860
vt 78.279060 -75.823482
vt 78.612393 -75.823482
vt 78.945727 -75.823482
vt 79.279060 -75.823482
vt 79.612393 -75.823482
vt 79.945727 -75.994079
vt 79.933701 -75.981377
vt 79.929382 -75.976850
vt 79.862209 -75.907000
vt 79.781891 -75.823482
vt 80.024869 -76.077674
vt 77.279060 -75.529183
vt 77.279060 -75.490149
vt 77.259924 -75.509285
vt 77.241522 -75.490149
vt 77.612393 -75.490149
vt 77.423335 -75.679207
vt 77.392411 -75.647050
vt 77.945727 -75.490149
vt 78.279060 -75.490149
vt 78.612393 -75.490149
vt 78.945727 -75.490149
vt 79.279060 -75.490149
vt 79.612393 -75.647230
vt 79.535387 -75.567155
vt 79.468142 -75.497231
vt 79.461332 -75.490149
vt 79.698798 -75.737078
vt 79.698762 -75.737041
vt 76.945727 -75.182567
vt 76.945727 -75.156816
vt 76.933103 -75.169440
vt 76.920963 -75.156816
vt 77.279060 -75.156816
vt 77.096514 -75.339362
vt 77.161791 -75.407241
vt 77.612393 -75.156816
vt 77.945727 -75.156816
vt 78.279060 -75.156816
vt 78.612393 -75.156816
vt 78.945727 -75.156816
vt 79.279060 -75.300614
vt 79.237522 -75.257421
vt 79.208565 -75.227310
vt 79.140772 -75.156816
vt 79.371976 -75.397233
vt 76.612393 -74.835951
vt 76.612393 -74.823482
vt 76.606281 -74.829595
vt 76.600403 -74.823482
vt 76.945727 -74.823482
vt 76.769692 -74.999517
vt 76.700551 -74.927621
vt 77.279060 -74.823482
vt 77.612393 -74.823482
vt 77.945727 -74.823482
vt 78.279060 -74.823482
vt 78.612393 -74.823482
vt 78.945727 -74.953998
vt 78.881744 -74.887465
vt 78.820213 -74.823482
vt 79.045155 -75.057388
vt 79.006903 -75.017612
vt 76.612393 -74.490149
vt 76.442870 -74.659672
vt 76.469931 -74.687812
vt 76.279843 -74.490149
vt 76.945727 -74.490149
vt 77.279060 -74.490149
vt 77.612393 -74.490149
vt 77.945727 -74.490149
vt 78.279060 -74.490149
vt 78.612393 -74.607382
vt 78.554922 -74.547620
vt 78.545663 -74.537992
vt 78.499653 -74.490149
vt 78.776283 -74.777802
vt 78.718333 -74.717543
vt 76.279060 -74.156816
vt 76.116048 -74.319827
vt 76.239311 -74.448002
vt 76.279060 -74.489334
vt 75.959284 -74.156816
vt 76.008692 -74.208192
vt 76.612393 -74.156816
vt 76.279459 -74.489750
vt 76.945727 -74.156816
vt 77.279060 -74.156816
vt 77.612393 -74.156816
vt 77.945727 -74.156816
vt 78.279060 -74.260766
vt 78.228100 -74.207775
vt 78.179093 -74.156816
vt 78.391511 -74.377698
vt 75.945727 -74.142718
vt 75.945727 -73.823482
vt 75.789227 -73.979982
vt 75.638724 -73.823482
vt 76.279060 -73.823482
vt 75.952638 -74.149905
vt 76.612393 -73.823482
vt 76.945727 -73.823482
vt 77.279060 -73.823482
vt 77.612393 -73.823482
vt 77.945727 -73.914150
vt 77.901279 -73.867930
vt 77.858534 -73.823482
vt 78.064689 -74.037853
vt 75.612393 -73.796102
vt 75.612393 -73.490149
vt 75.462405 -73.640137
vt 75.318165 -73.490149
vt 75.945727 -73.490149
vt 75.625816 -73.810060
vt 76.279060 -73.490149
vt 76.612393 -73.490149
vt 76.945727 -73.490149
vt 77.279060 -73.490149
vt 77.612393 -73.567534
vt 77.574457 -73.528086
vt 77.537974 -73.490149
vt 77.853803 -73.818563
vt 77.737868 -73.698008
vt 77.623183 -73.578754
vt 75.279060 -73.449486
vt 75.279060 -73.156816
vt 75.135583 -73.300292
vt 75.004015 -73.156816
vt 75.062602 -73.223307
vt 75.086212 -73.248954
vt 75.612393 -73.156816
vt 75.298994 -73.470215
vt 75.316832 -73.488763
vt 75.945727 -73.156816
vt 76.279060 -73.156816
vt 76.612393 -73.156816
vt 76.945727 -73.156816
vt 77.279060 -73.220918
vt 77.247635 -73.188241
vt 77.217415 -73.156816
vt 77.411046 -73.358163
vt 74.945727 -73.090664
vt 74.945727 -72.823482
vt 74.821109 -72.948100
vt 74.842861 -72.973920
vt 74.720714 -72.823482
vt 74.819994 -72.946776
vt 75.279060 -72.823482
vt 74.976713 -73.125830
vt 75.612393 -72.823482
vt 75.945727 -72.823482
vt 76.279060 -72.823482
vt 76.612393 -72.823482
vt 76.945727 -72.874301
vt 76.920813 -72.848396
vt 76.896855 -72.823482
vt 77.084224 -73.018318
vt 74.612393 -72.688960
vt 74.612393 -72.490149
vt 74.523713 -72.578830
vt 74.452305 -72.490149
vt 74.945727 -72.490149
vt 74.672397 -72.763479
vt 75.279060 -72.490149
vt 75.612393 -72.490149
vt 75.945727 -72.490149
vt 76.279060 -72.490149
vt 76.612393 -72.527685
vt 76.593992 -72.508551
vt 76.576295 -72.490149
vt 76.757403 -72.678473
vt 76.700704 -72.619515
vt 74.279060 -72.274998
vt 74.279060 -72.156816
vt 74.226344 -72.209531
vt 74.184419 -72.156816
vt 74.193997 -72.169360
vt 74.612393 -72.156816
vt 74.375029 -72.394180
vt 74.402663 -72.428499
vt 74.945727 -72.156816
vt 75.279060 -72.156816
vt 75.612393 -72.156816
vt 75.945727 -72.156816
vt 76.279060 -72.181069
vt 76.267170 -72.168706
vt 76.255736 -72.156816
vt 76.430581 -72.338628
vt 73.945727 -71.826065
vt 73.945727 -71.823482
vt 73.944682 -71.824527
vt 73.943973 -71.823482
vt 74.279060 -71.823482
vt 74.083753 -72.018789
vt 74.168929 -72.136527
vt 73.960414 -71.847693
vt 73.974068 -71.867170
vt 74.612393 -71.823482
vt 74.945727 -71.823482
vt 75.279060 -71.823482
vt 75.612393 -71.823482
vt 75.945727 -71.823482
vt 76.251549 -72.152462
vt 76.110340 -71.992202
vt 76.055068 -71.929473
vt 75.969722 -71.823482
vt 73.945727 -71.490149
vt 73.809871 -71.626005
vt 73.717614 -71.490149
vt 73.773503 -71.572450
vt 74.279060 -71.490149
vt 74.612393 -71.490149
vt 74.945727 -71.490149
vt 75.279060 -71.490149
vt 75.612393 -71.490149
vt 75.945727 -71.793684
vt 75.857535 -71.684159
vt 75.810334 -71.625542
vt 75.701313 -71.490149
vt 75.959019 -71.810191
vt 73.612393 -71.335201
vt 73.612393 -71.156816
vt 73.540248 -71.228961
vt 73.491256 -71.156816
vt 73.945727 -71.156816
vt 73.675059 -71.427483
vt 74.279060 -71.156816
vt 74.612393 -71.156816
vt 74.945727 -71.156816
vt 75.279060 -71.156816
vt 75.612393 -71.379721
vt 75.512966 -71.256243
vt 75.453162 -71.181974
vt 75.434962 -71.156816
vt 75.661650 -71.440892
vt 73.279060 -70.844338
vt 73.279060 -70.823482
vt 73.270625 -70.831917
vt 73.264898 -70.823482
vt 73.612393 -70.823482
vt 73.405437 -71.030439
vt 73.399682 -71.021964
vt 73.945727 -70.823482
vt 74.279060 -70.823482
vt 74.612393 -70.823482
vt 74.945727 -70.823482
vt 75.279060 -70.941312
vt 75.277383 -70.938994
vt 75.231344 -70.871198
vt 75.198942 -70.823482
vt 75.369520 -71.066356
vt 73.279060 -70.490149
vt 73.135814 -70.633395
vt 73.212771 -70.746722
vt 73.038539 -70.490149
vt 73.612393 -70.490149
vt 73.945727 -70.490149
vt 74.279060 -70.490149
vt 74.612393 -70.490149
vt 74.945727 -70.490149
vt 75.096533 -70.672676
vt 74.972583 -70.490149
vt 72.945727 -70.353474
vt 72.945727 -70.156816
vt 72.866191 -70.236351
vt 72.812181 -70.156816
vt 73.279060 -70.156816
vt 73.001003 -70.434873
vt 73.025860 -70.471479
vt 73.612393 -70.156816
vt 73.945727 -70.156816
vt 74.279060 -70.156816
vt 74.612393 -70.156816
vt 74.945727 -70.450600
vt 74.910244 -70.398348
vt 74.826910 -70.275632
vt 74.746225 -70.156816
vt 74.961722 -70.474154
vt 72.612393 -69.862611
vt 72.612393 -69.823482
vt 72.596568 -69.839307
vt 72.585822 -69.823482
vt 72.945727 -69.823482
vt 72.731380 -70.037829
vt 72.652039 -69.920993
vt 73.279060 -69.823482
vt 73.612393 -69.823482
vt 73.945727 -69.823482
vt 74.279060 -69.823482
vt 74.612393 -69.959737
vt 74.557287 -69.878588
vt 74.536422 -69.847862
vt 74.519866 -69.823482
vt 74.692099 -70.077110
vt 72.612393 -69.490149
vt 72.461757 -69.640785
vt 72.465128 -69.645750
vt 72.359464 -69.490149
vt 72.945727 -69.490149
vt 73.279060 -69.490149
vt 73.612393 -69.490149
vt 73.945727 -69.490149
vt 74.279060 -69.490149
vt 74.422476 -69.680066
vt 74.349512 -69.572620
vt 74.293508 -69.490149
vt 72.279060 -69.156816
vt 72.192134 -69.243741
vt 72.278218 -69.370507
vt 72.279060 -69.371747
vt 72.133105 -69.156816
vt 72.612393 -69.156816
vt 72.326946 -69.442263
vt 72.945727 -69.156816
vt 73.279060 -69.156816
vt 73.612393 -69.156816
vt 73.945727 -69.156816
vt 74.279060 -69.468873
vt 74.162601 -69.297377
vt 74.152853 -69.283022
vt 74.067149 -69.156816
vt 74.287665 -69.481544
vt 71.945727 -68.880884
vt 71.945727 -68.823482
vt 71.922511 -68.846698
vt 71.906747 -68.823482
vt 72.279060 -68.823482
vt 72.057323 -69.045220
vt 72.091307 -69.095265
vt 72.612393 -68.823482
vt 72.945727 -68.823482
vt 73.279060 -68.823482
vt 73.612393 -68.823482
vt 73.945727 -68.978010
vt 73.883230 -68.885979
vt 73.840791 -68.823482
vt 74.018042 -69.084501
vt 71.945727 -68.490149
vt 71.787700 -68.648176
vt 71.904397 -68.820022
vt 71.680388 -68.490149
vt 71.717486 -68.544779
vt 72.279060 -68.490149
vt 72.612393 -68.490149
vt 72.945727 -68.490149
vt 73.279060 -68.490149
vt 73.612393 -68.490149
vt 73.788780 -68.746891
vt 73.748419 -68.687457
vt 73.614432 -68.490149
vt 71.612393 -68.156816
vt 71.518077 -68.251132
vt 71.530575 -68.269536
vt 71.612393 -68.390021
vt 71.454030 -68.156816
vt 71.945727 -68.156816
vt 71.652889 -68.449654
vt 72.279060 -68.156816
vt 72.612393 -68.156816
vt 72.945727 -68.156816
vt 73.279060 -68.156816
vt 73.612393 -68.487146
vt 73.601869 -68.471648
vt 73.478796 -68.290413
vt 73.414958 -68.196406
vt 73.388074 -68.156816
vt 73.613608 -68.488935
vt 71.279060 -67.899157
vt 71.279060 -67.823482
vt 71.248455 -67.854088
vt 71.227671 -67.823482
vt 71.612393 -67.823482
vt 71.383266 -68.052610
vt 71.343665 -67.994293
vt 71.945727 -67.823482
vt 72.279060 -67.823482
vt 72.612393 -67.823482
vt 72.945727 -67.823482
vt 73.279060 -67.996283
vt 73.228048 -67.921163
vt 73.209174 -67.893369
vt 73.161715 -67.823482
vt 73.343985 -68.091891
vt 71.279060 -67.490149
vt 71.113643 -67.655566
vt 71.156754 -67.719050
vt 71.001313 -67.490149
vt 71.612393 -67.490149
vt 71.945727 -67.490149
vt 72.279060 -67.490149
vt 72.612393 -67.490149
vt 72.945727 -67.505419
vt 72.939551 -67.496325
vt 72.935357 -67.490149
vt 73.074362 -67.694847
vt 70.945727 -67.408294
vt 70.945727 -67.156816
vt 70.844020 -67.258522
vt 70.774954 -67.156816
vt 70.782933 -67.168565
vt 71.279060 -67.156816
vt 70.978832 -67.457044
vt 70.969843 -67.443808
vt 71.612393 -67.156816
vt 71.945727 -67.156816
vt 72.279060 -67.156816
vt 72.612393 -67.156816
vt 72.804739 -67.297803
vt 72.708999 -67.156816
vt 70.612393 -66.917430
vt 70.612393 -66.823482
vt 70.574398 -66.861478
vt 70.548596 -66.823482
vt 70.945727 -66.823482
vt 70.709209 -67.060000
vt 71.279060 -66.823482
vt 71.612393 -66.823482
vt 71.945727 -66.823482
vt 72.279060 -66.823482
vt 72.612393 -67.014556
vt 72.535117 -66.900759
vt 72.482640 -66.823482
vt 72.669928 -67.099281
vt 72.667316 -67.095434
vt 70.612393 -66.490149
vt 70.439586 -66.662956
vt 70.322237 -66.490149
vt 70.945727 -66.490149
vt 71.279060 -66.490149
vt 71.612393 -66.490149
vt 71.945727 -66.490149
vt 72.279060 -66.523692
vt 72.265494 -66.503715
vt 72.256282 -66.490149
vt 72.480405 -66.820191
vt 72.400305 -66.702237
vt 70.279060 -66.156816
vt 70.169964 -66.265912
vt 70.222201 -66.342836
vt 70.279060 -66.426567
vt 70.095879 -66.156816
vt 70.612393 -66.156816
vt 70.304775 -66.464434
vt 70.945727 -66.156816
vt 71.279060 -66.156816
vt 71.612393 -66.156816
vt 71.945727 -66.156816
vt 72.130683 -66.305193
vt 72.106584 -66.269706
vt 72.029923 -66.156816
vt 69.945727 -65.935703
vt 69.945727 -65.823482
vt 69.900341 -65.868868
vt 69.869520 -65.823482
vt 70.279060 -65.823482
vt 70.035152 -66.067390
vt 70.035290 -66.067594
vt 70.612393 -65.823482
vt 70.945727 -65.823482
vt 71.279060 -65.823482
vt 71.612393 -65.823482
vt 71.945727 -66.032829
vt 71.919673 -65.994463
vt 71.861060 -65.908149
vt 71.803565 -65.823482
vt 71.995871 -66.106671
vt 69.945727 -65.490149
vt 69.765529 -65.670346
vt 69.848379 -65.792351
vt 69.643162 -65.490149
vt 69.661469 -65.517108
vt 70.279060 -65.490149
vt 70.612393 -65.490149
vt 70.945727 -65.490149
vt 71.279060 -65.490149
vt 71.612393 -65.541965
vt 71.591437 -65.511105
vt 71.577206 -65.490149
vt 71.732763 -65.719220
vt 71.726248 -65.709627
vt 69.612393 -65.444840
vt 69.612393 -65.156816
vt 69.495907 -65.273302
vt 69.416803 -65.156816
vt 69.945727 -65.156816
vt 69.630718 -65.471824
vt 70.279060 -65.156816
vt 70.612393 -65.156816
vt 70.945727 -65.156816
vt 71.279060 -65.156816
vt 71.456626 -65.312583
vt 71.358941 -65.168734
vt 71.350848 -65.156816
vt 69.279060 -64.953976
vt 69.279060 -64.823482
vt 69.226284 -64.876259
vt 69.190445 -64.823482
vt 69.612393 -64.823482
vt 69.361095 -65.074781
vt 69.287648 -64.966622
vt 69.945727 -64.823482
vt 70.279060 -64.823482
vt 70.612393 -64.823482
vt 70.945727 -64.823482
vt 71.279060 -65.051102
vt 71.187003 -64.915540
vt 71.172031 -64.893492
vt 71.124489 -64.823482
vt 71.321814 -65.114062
vt 69.279060 -64.490149
vt 69.091472 -64.677737
vt 69.100737 -64.691379
vt 68.964086 -64.490149
vt 69.612393 -64.490149
vt 69.945727 -64.490149
vt 70.279060 -64.490149
vt 70.612393 -64.490149
vt 70.945727 -64.560238
vt 70.917380 -64.518496
vt 70.898131 -64.490149
vt 71.052191 -64.717018
vt 68.945727 -64.463113
vt 68.945727 -64.156816
vt 68.821850 -64.280693
vt 68.737728 -64.156816
vt 69.279060 -64.156816
vt 68.956661 -64.479215
vt 69.612393 -64.156816
vt 69.945727 -64.156816
vt 70.279060 -64.156816
vt 70.612393 -64.156816
vt 70.798209 -64.343006
vt 70.782569 -64.319974
vt 70.671772 -64.156816
vt 68.945727 -63.823482
vt 68.687521 -64.081688
vt 68.722461 -64.134263
vt 68.726916 -64.140894
vt 68.612393 -63.823482
vt 68.612393 -63.968644
vt 69.279060 -63.823482
vt 69.612393 -63.823482
vt 69.945727 -63.823482
vt 70.279060 -63.823482
vt 70.612393 -64.069375
vt 70.611299 -64.067763
vt 70.512946 -63.922930
vt 70.445414 -63.823482
vt 70.647757 -64.121452
vt 68.945727 -63.490149
vt 68.612393 -63.490149
vt 69.279060 -63.490149
vt 69.612393 -63.490149
vt 69.945727 -63.490149
vt 70.279060 -63.578512
vt 70.243323 -63.525886
vt 70.237477 -63.517278
vt 70.219055 -63.490149
vt 70.378135 -63.724408
vt 68.945727 -63.156816
vt 68.612393 -63.156816
vt 69.279060 -63.156816
vt 69.612393 -63.156816
vt 69.945727 -63.156816
vt 70.108512 -63.327364
vt 70.052811 -63.245339
vt 69.993980 -63.156816
vt 68.945727 -62.823482
vt 68.612393 -62.823482
vt 69.279060 -62.823482
vt 69.612393 -62.823482
vt 69.945727 -63.084210
vt 69.873196 -62.975072
vt 69.842063 -62.927146
vt 69.774724 -62.823482
vt 69.974715 -63.127828
vt 68.945727 -62.490149
vt 68.612393 -62.490149
vt 69.279060 -62.490149
vt 69.612393 -62.573587
vt 69.579536 -62.523006
vt 69.558192 -62.490149
vt 69.710800 -62.725076
vt 68.945727 -62.156816
vt 68.612393 -62.156816
vt 69.279060 -62.156816
vt 69.512993 -62.420568
vt 69.448273 -62.320937
vt 69.341661 -62.156816
vt 68.945727 -61.823482
vt 68.612393 -61.823482
vt 69.279060 -62.060447
vt 69.185746 -61.916797
vt 69.150508 -61.862552
vt 69.125129 -61.823482
vt 69.317009 -62.118867
vt 68.945727 -61.547307
vt 68.923219 -61.512657
vt 68.612393 -61.490149
vt 68.908597 -61.490149
vt 69.054482 -61.714727
vt 68.791955 -61.310587
vt 68.612393 -61.156816
vt 68.788024 -61.304536
vt 68.692066 -61.156816
vt 68.660692 -61.108518
vt 68.612393 -61.034166
f 3/3 2/2 1/1
f 4/4 3/3 1/1
f 5/5 4/4 1/1
f 6/6 2/2 3/3
f 1/1 8/8 7/7
f 1/1 2/2 8/8
f 7/7 10/10 9/9
f 7/7 8/8 10/10
f 9/9 12/12 11/11
f 9/9 10/10 12/12
f 11/11 14/14 13/13
f 11/11 12/12 14/14
f 16/16 15/15 13/13
f 17/17 16/16 13/13
f 17/17 13/13 14/14
f 18/18 17/17 14/14
f 20/20 15/15 19/19
f 19/19 15/15 16/16
f 23/23 22/22 21/21
f 25/25 24/24 22/22
f 23/23 25/25 22/22
f 27/27 26/26 2/2
f 6/6 27/27 2/2
f 21/21 22/22 26/26
f 27/27 21/21 26/26
f 2/2 28/28 8/8
f 2/2 26/26 28/28
f 8/8 29/29 10/10
f 8/8 28/28 29/29
f 10/10 30/30 12/12
f 10/10 29/29 30/30
f 12/12 31/31 14/14
f 12/12 30/30 31/31
f 32/32 18/18 14/14
f 33/33 32/32 14/14
f 33/33 14/14 31/31
f 34/34 33/33 31/31
f 37/37 36/36 35/35
f 38/38 36/36 37/37
f 40/40 39/39 22/22
f 24/24 40/40 22/22
f 35/35 36/36 39/39
f 41/41 35/35 39/39
f 40/40 41/41 39/39
f 22/22 42/42 26/26
f 22/22 39/39 42/42
f 26/26 43/43 28/28
f 26/26 42/42 43/43
f 28/28 44/44 29/29
f 28/28 43/43 44/44
f 29/29 45/45 30/30
f 29/29 44/44 45/45
f 46/46 31/31 30/30
f 47/47 46/46 30/30
f 47/47 30/30 45/45
f 48/48 47/47 45/45
f 49/49 48/48 45/45
f 34/34 31/31 50/50
f 50/50 31/31 46/46
f 53/53 52/52 51/51
f 54/54 52/52 53/53
f 55/55 54/54 53/53
f 57/57 56/56 36/36
f 58/58 57/57 36/36
f 38/38 58/58 36/36
f 51/51 52/52 56/56
f 57/57 51/51 56/56
f 36/36 59/59 39/39
f 36/36 56/56 59/59
f 39/39 60/60 42/42
f 39/39 59/59 60/60
f 42/42 61/61 43/43
f 42/42 60/60 61/61
f 43/43 62/62 44/44
f 43/43 61/61 62/62
f 63/63 45/45 44/44
f 64/64 63/63 44/44
f 64/64 44/44 62/62
f 65/65 64/64 62/62
f 49/49 45/45 66/66
f 67/67 66/66 45/45
f 63/63 67/67 45/45
f 70/70 69/69 68/68
f 71/71 69/69 70/70
f 73/73 72/72 52/52
f 54/54 73/73 52/52
f 68/68 69/69 72/72
f 74/74 68/68 72/72
f 73/73 74/74 72/72
f 52/52 75/75 56/56
f 52/52 72/72 75/75
f 56/56 76/76 59/59
f 56/56 75/75 76/76
f 59/59 77/77 60/60
f 59/59 76/76 77/77
f 60/60 78/78 61/61
f 60/60 77/77 78/78
f 61/61 79/79 62/62
f 61/61 78/78 79/79
f 65/65 62/62 80/80
f 80/80 62/62 79/79
f 81/81 80/80 79/79
f 82/82 81/81 79/79
f 83/83 82/82 79/79
f 86/86 85/85 84/84
f 87/87 85/85 86/86
f 89/89 88/88 69/69
f 90/90 89/89 69/69
f 71/71 90/90 69/69
f 84/84 85/85 88/88
f 89/89 84/84 88/88
f 69/69 91/91 72/72
f 69/69 88/88 91/91
f 72/72 92/92 75/75
f 72/72 91/91 92/92
f 75/75 93/93 76/76
f 75/75 92/92 93/93
f 76/76 94/94 77/77
f 76/76 93/93 94/94
f 77/77 95/95 78/78
f 77/77 94/94 95/95
f 96/96 79/79 78/78
f 97/97 96/96 78/78
f 98/98 97/97 78/78
f 99/99 98/98 78/78
f 99/99 78/78 95/95
f 100/100 99/99 95/95
f 83/83 79/79 101/101
f 101/101 79/79 96/96
f 104/104 103/103 102/102
f 105/105 103/103 104/104
f 107/107 106/106 85/85
f 87/87 107/107 85/85
f 102/102 103/103 106/106
f 108/108 102/102 106/106
f 107/107 108/108 106/106
f 85/85 109/109 88/88
f 85/85 106/106 109/109
f 88/88 110/110 91/91
f 88/88 109/109 110/110
f 91/91 111/111 92/92
f 91/91 110/110 111/111
f 92/92 112/112 93/93
f 92/92 111/111 112/112
f 93/93 113/113 94/94
f 93/93 112/112 113/113
f 114/114 95/95 94/94
f 115/115 114/114 94/94
f 115/115 94/94 113/113
f 116/116 115/115 113/113
f 117/117 116/116 113/113
f 100/100 95/95 118/118
f 119/119 118/118 95/95
f 114/114 119/119 95/95
f 122/122 121/121 120/120
f 123/123 121/121 122/122
f 125/125 124/124 103/103
f 126/126 125/125 103/103
f 105/105 126/126 103/103
f 120/120 121/121 124/124
f 125/125 120/120 124/124
f 103/103 127/127 106/106
f 103/103 124/124 127/127
f 106/106 128/128 109/109
f 106/106 127/127 128/128
f 109/109 129/129 110/110
f 109/109 128/128 129/129
f 110/110 130/130 111/111
f 110/110 129/129 130/130
f 111/111 131/131 112/112
f 111/111 130/130 131/131
f 132/132 113/113 112/112
f 133/133 132/132 112/112
f 133/133 112/112 131/131
f 134/134 133/133 131/131
f 135/135 134/134 131/131
f 136/136 135/135 131/131
f 117/117 113/113 137/137
f 137/137 113/113 132/132
f 140/140 139/139 138/138
f 141/141 139/139 140/140
f 143/143 142/142 121/121
f 144/144 143/143 121/121
f 123/123 144/144 121/121
f 138/138 139/139 142/142
f 145/145 138/138 142/142
f 143/143 145/145 142/142
f 121/121 146/146 124/124
f 121/121 142/142 146/146
f 124/124 147/147 127/127
f 124/124 146/146 147/147
f 127/127 148/148 128/128
f 127/127 147/147 148/148
f 128/128 149/149 129/129
f 128/128 148/148 149/149
f 129/129 150/150 130/130
f 129/129 149/149 150/150
f 151/151 131/131 130/130
f 152/152 151/151 130/130
f 153/153 152/152 130/130
f 154/154 153/153 130/130
f 154/154 130/130 150/150
f 155/155 154/154 150/150
f 136/136 131/131 156/156
f 156/156 131/131 151/151
f 159/159 158/158 157/157
f 160/160 158/158 159/159
f 162/162 161/161 139/139
f 141/141 162/162 139/139
f 157/157 158/158 161/161
f 163/163 157/157 161/161
f 162/162 163/163 161/161
f 139/139 164/164 142/142
f 139/139 161/161 164/164
f 142/142 165/165 146/146
f 142/142 164/164 165/165
f 146/146 166/166 147/147
f 146/146 165/165 166/166
f 147/147 167/167 148/148
f 147/147 166/166 167/167
f 148/148 168/168 149/149
f 148/148 167/167 168/168
f 169/169 150/150 149/149
f 170/170 169/169 149/149
f 170/170 149/149 168/168
f 171/171 170/170 168/168
f 172/172 171/171 168/168
f 155/155 150/150 173/173
f 174/174 173/173 150/150
f 169/169 174/174 150/150
f 177/177 176/176 175/175
f 178/178 176/176 177/177
f 180/180 179/179 158/158
f 181/181 180/180 158/158
f 160/160 181/181 158/158
f 175/175 176/176 179/179
f 180/180 175/175 179/179
f 158/158 182/182 161/161
f 158/158 179/179 182/182
f 161/161 183/183 164/164
f 161/161 182/182 183/183
f 164/164 184/184 165/165
f 164/164 183/183 184/184
f 165/165 185/185 166/166
f 165/165 184/184 185/185
f 166/166 186/186 167/167
f 166/166 185/185 186/186
f 187/187 168/168 167/167
f 188/188 187/187 167/167
f 189/189 188/188 167/167
f 189/189 167/167 186/186
f 190/190 189/189 186/186
f 172/172 168/168 191/191
f 191/191 168/168 187/187
f 194/194 193/193 192/192
f 195/195 193/193 194/194
f 197/197 196/196 176/176
f 178/178 197/197 176/176
f 192/192 193/193 196/196
f 198/198 192/192 196/196
f 197/197 198/198 196/196
f 176/176 199/199 179/179
f 176/176 196/196 199/199
f 179/179 200/200 182/182
f 179/179 199/199 200/200
f 182/182 201/201 183/183
f 182/182 200/200 201/201
f 183/183 202/202 184/184
f 183/183 201/201 202/202
f 184/184 203/203 185/185
f 184/184 202/202 203/203
f 204/204 186/186 185/185
f 205/205 204/204 185/185
f 205/205 185/185 203/203
f 206/206 205/205 203/203
f 190/190 186/186 207/207
f 208/208 207/207 186/186
f 204/204 208/208 186/186
f 210/210 209/209 193/193
f 211/211 210/210 193/193
f 195/195 211/211 193/193
f 212/212 209/209 210/210
f 193/193 213/213 196/196
f 193/193 209/209 213/213
f 196/196 214/214 199/199
f 196/196 213/213 214/214
f 199/199 215/215 200/200
f 199/199 214/214 215/215
f 200/200 216/216 201/201
f 200/200 215/215 216/216
f 201/201 217/217 202/202
f 201/201 216/216 217/217
f 218/218 203/203 202/202
f 219/219 218/218 202/202
f 219/219 202/202 217/217
f 220/220 219/219 217/217
f 221/221 220/220 217/217
f 222/222 206/206 203/203
f 223/223 222/222 203/203
f 223/223 203/203 218/218
f 226/226 225/225 224/224
f 227/227 226/226 224/224
f 229/229 228/228 224/224
f 225/225 229/229 224/224
f 231/231 230/230 209/209
f 212/212 231/231 209/209
f 227/227 224/224 230/230
f 231/231 227/227 230/230
f 209/209 232/232 213/213
f 209/209 230/230 232/232
f 213/213 233/233 214/214
f 213/213 232/232 233/233
f 214/214 234/234 215/215
f 214/214 233/233 234/234
f 215/215 235/235 216/216
f 215/215 234/234 235/235
f 236/236 217/217 216/216
f 237/237 236/236 216/216
f 237/237 216/216 235/235
f 238/238 237/237 235/235
f 221/221 217/217 239/239
f 239/239 217/217 236/236
f 242/242 241/241 240/240
f 243/243 241/241 242/242
f 245/245 244/244 224/224
f 228/228 245/245 224/224
f 240/240 241/241 244/244
f 245/245 240/240 244/244
f 224/224 246/246 230/230
f 224/224 244/244 246/246
f 230/230 247/247 232/232
f 230/230 246/246 247/247
f 232/232 248/248 233/233
f 232/232 247/247 248/248
f 233/233 249/249 234/234
f 233/233 248/248 249/249
f 250/250 235/235 234/234
f 251/251 250/250 234/234
f 251/251 234/234 249/249
f 252/252 251/251 249/249
f 238/238 235/235 253/253
f 253/253 235/235 250/250
f 256/256 255/255 254/254
f 257/257 255/255 256/256
f 259/259 258/258 241/241
f 243/243 259/259 241/241
f 254/254 255/255 258/258
f 259/259 254/254 258/258
f 241/241 260/260 244/244
f 241/241 258/258 260/260
f 244/244 261/261 246/246
f 244/244 260/260 261/261
f 246/246 262/262 247/247
f 246/246 261/261 262/262
f 247/247 263/263 248/248
f 247/247 262/262 263/263
f 264/264 249/249 248/248
f 265/265 264/264 248/248
f 265/265 248/248 263/263
f 266/266 265/265 263/263
f 267/267 252/252 249/249
f 268/268 267/267 249/249
f 269/269 268/268 249/249
f 264/264 269/269 249/249
f 272/272 271/271 270/270
f 273/273 271/271 272/272
f 274/274 273/273 272/272
f 275/275 274/274 272/272
f 277/277 276/276 255/255
f 278/278 277/277 255/255
f 257/257 278/278 255/255
f 270/270 271/271 276/276
f 277/277 270/270 276/276
f 255/255 279/279 258/258
f 255/255 276/276 279/279
f 258/258 280/280 260/260
f 258/258 279/279 280/280
f 260/260 281/281 261/261
f 260/260 280/280 281/281
f 261/261 282/282 262/262
f 261/261 281/281 282/282
f 283/283 263/263 262/262
f 284/284 283/283 262/262
f 284/284 262/262 282/282
f 285/285 284/284 282/282
f 266/266 263/263 286/286
f 286/286 263/263 283/283
f 289/289 288/288 287/287
f 290/290 289/289 287/287
f 291/291 288/288 289/289
f 292/292 291/291 289/289
f 294/294 293/293 271/271
f 273/273 294/294 271/271
f 287/287 288/288 293/293
f 294/294 287/287 293/293
f 271/271 295/295 276/276
f 271/271 293/293 295/295
f 276/276 296/296 279/279
f 276/276 295/295 296/296
f 279/279 297/297 280/280
f 279/279 296/296 297/297
f 280/280 298/298 281/281
f 280/280 297/297 298/298
f 299/299 282/282 281/281
f 300/300 299/299 281/281
f 300/300 281/281 298/298
f 301/301 300/300 298/298
f 285/285 282/282 302/302
f 302/302 282/282 299/299
f 305/305 304/304 303/303
f 306/306 304/304 305/305
f 308/308 307/307 288/288
f 291/291 308/308 288/288
f 303/303 304/304 307/307
f 308/308 303/303 307/307
f 288/288 309/309 293/293
f 288/288 307/307 309/309
f 293/293 310/310 295/295
f 293/293 309/309 310/310
f 295/295 311/311 296/296
f 295/295 310/310 311/311
f 296/296 312/312 297/297
f 296/296 311/311 312/312
f 313/313 298/298 297/297
f 314/314 313/313 297/297
f 314/314 297/297 312/312
f 315/315 314/314 312/312
f 301/301 298/298 316/316
f 317/317 316/316 298/298
f 313/313 317/317 298/298
f 320/320 319/319 318/318
f 321/321 319/319 320/320
f 322/322 321/321 320/320
f 324/324 323/323 304/304
f 325/325 324/324 304/304
f 306/306 325/325 304/304
f 318/318 319/319 323/323
f 324/324 318/318 323/323
f 304/304 326/326 307/307
f 304/304 323/323 326/326
f 307/307 327/327 309/309
f 307/307 326/326 327/327
f 309/309 328/328 310/310
f 309/309 327/327 328/328
f 310/310 329/329 311/311
f 310/310 328/328 329/329
f 330/330 312/312 311/311
f 331/331 330/330 311/311
f 331/331 311/311 329/329
f 332/332 331/331 329/329
f 315/315 312/312 333/333
f 333/333 312/312 330/330
f 336/336 335/335 334/334
f 337/337 335/335 336/336
f 339/339 338/338 319/319
f 340/340 339/339 319/319
f 321/321 340/340 319/319
f 334/334 335/335 338/338
f 341/341 334/334 338/338
f 342/342 341/341 338/338
f 339/339 342/342 338/338
f 319/319 343/343 323/323
f 319/319 338/338 343/343
f 323/323 344/344 326/326
f 323/323 343/343 344/344
f 326/326 345/345 327/327
f 326/326 344/344 345/345
f 327/327 346/346 328/328
f 327/327 345/345 346/346
f 328/328 347/347 329/329
f 328/328 346/346 347/347
f 348/348 332/332 329/329
f 349/349 348/348 329/329
f 349/349 329/329 347/347
f 350/350 349/349 347/347
f 351/351 350/350 347/347
f 353/353 352/352 335/335
f 337/337 353/353 335/335
f 355/355 354/354 352/352
f 353/353 355/355 352/352
f 335/335 356/356 338/338
f 335/335 352/352 356/356
f 338/338 357/357 343/343
f 338/338 356/356 357/357
f 343/343 358/358 344/344
f 343/343 357/357 358/358
f 344/344 359/359 345/345
f 344/344 358/358 359/359
f 345/345 360/360 346/346
f 345/345 359/359 360/360
f 361/361 347/347 346/346
f 362/362 361/361 346/346
f 363/363 362/362 346/346
f 363/363 346/346 360/360
f 364/364 363/363 360/360
f 351/351 347/347 365/365
f 365/365 347/347 361/361
f 368/368 367/367 366/366
f 369/369 367/367 368/368
f 371/371 370/370 352/352
f 354/354 371/371 352/352
f 366/366 367/367 370/370
f 371/371 366/366 370/370
f 352/352 372/372 356/356
f 352/352 370/370 372/372
f 356/356 373/373 357/357
f 356/356 372/372 373/373
f 357/357 374/374 358/358
f 357/357 373/373 374/374
f 358/358 375/375 359/359
f 358/358 374/374 375/375
f 376/376 360/360 359/359
f 377/377 376/376 359/359
f 377/377 359/359 375/375
f 378/378 377/377 375/375
f 379/379 378/378 375/375
f 364/364 360/360 380/380
f 380/380 360/360 376/376
f 383/383 382/382 381/381
f 384/384 382/382 383/383
f 386/386 385/385 367/367
f 369/369 386/386 367/367
f 381/381 382/382 385/385
f 387/387 381/381 385/385
f 386/386 387/387 385/385
f 367/367 388/388 370/370
f 367/367 385/385 388/388
f 370/370 389/389 372/372
f 370/370 388/388 389/389
f 372/372 390/390 373/373
f 372/372 389/389 390/390
f 373/373 391/391 374/374
f 373/373 390/390 391/391
f 392/392 375/375 374/374
f 393/393 392/392 374/374
f 394/394 393/393 374/374
f 394/394 374/374 391/391
f 395/395 394/394 391/391
f 379/379 375/375 396/396
f 396/396 375/375 392/392
f 398/398 397/397 382/382
f 399/399 398/398 382/382
f 384/384 399/399 382/382
f 400/400 397/397 398/398
f 382/382 401/401 385/385
f 382/382 397/397 401/401
f 385/385 402/402 388/388
f 385/385 401/401 402/402
f 388/388 403/403 389/389
f 388/388 402/402 403/403
f 389/389 404/404 390/390
f 389/389 403/403 404/404
f 390/390 405/405 391/391
f 390/390 404/404 405/405
f 395/395 391/391 406/406
f 406/406 391/391 405/405
f 407/407 406/406 405/405
f 410/410 409/409 408/408
f 411/411 409/409 410/410
f 413/413 412/412 397/397
f 414/414 413/413 397/397
f 400/400 414/414 397/397
f 408/408 409/409 412/412
f 413/413 408/408 412/412
f 397/397 415/415 401/401
f 397/397 412/412 415/415
f 401/401 416/416 402/402
f 401/401 415/415 416/416
f 402/402 417/417 403/403
f 402/402 416/416 417/417
f 403/403 418/418 404/404
f 403/403 417/417 418/418
f 419/419 405/405 404/404
f 420/420 419/419 404/404
f 421/421 420/420 404/404
f 421/421 404/404 418/418
f 422/422 421/421 418/418
f 407/407 405/405 423/423
f 423/423 405/405 419/419
f 426/426 425/425 424/424
f 427/427 425/425 426/426
f 429/429 428/428 409/409
f 411/411 429/429 409/409
f 424/424 425/425 428/428
f 430/430 424/424 428/428
f 429/429 430/430 428/428
f 409/409 431/431 412/412
f 409/409 428/428 431/431
f 412/412 432/432 415/415
f 412/412 431/431 432/432
f 415/415 433/433 416/416
f 415/415 432/432 433/433
f 416/416 434/434 417/417
f 416/416 433/433 434/434
f 435/435 418/418 417/417
f 436/436 435/435 417/417
f 436/436 417/417 434/434
f 437/437 436/436 434/434
f 438/438 437/437 434/434
f 422/422 418/418 439/439
f 439/439 418/418 435/435
f 441/441 440/440 425/425
f 442/442 441/441 425/425
f 427/427 442/442 425/425
f 443/443 440/440 441/441
f 425/425 444/444 428/428
f 425/425 440/440 444/444
f 428/428 445/445 431/431
f 428/428 444/444 445/445
f 431/431 446/446 432/432
f 431/431 445/445 446/446
f 432/432 447/447 433/433
f 432/432 446/446 447/447
f 433/433 448/448 434/434
f 433/433 447/447 448/448
f 438/438 434/434 449/449
f 449/449 434/434 448/448
f 450/450 449/449 448/448
f 451/451 450/450 448/448
f 454/454 453/453 452/452
f 455/455 454/454 452/452
f 456/456 452/452 453/453
f 458/458 457/457 440/440
f 443/443 458/458 440/440
f 455/455 452/452 457/457
f 458/458 455/455 457/457
f 440/440 459/459 444/444
f 440/440 457/457 459/459
f 444/444 460/460 445/445
f 444/444 459/459 460/460
f 445/445 461/461 446/446
f 445/445 460/460 461/461
f 446/446 462/462 447/447
f 446/446 461/461 462/462
f 463/463 448/448 447/447
f 464/464 463/463 447/447
f 465/465 464/464 447/447
f 465/465 447/447 462/462
f 466/466 465/465 462/462
f 451/451 448/448 467/467
f 467/467 448/448 463/463
f 470/470 469/469 468/468
f 471/471 469/469 470/470
f 473/473 472/472 452/452
f 474/474 473/473 452/452
f 456/456 474/474 452/452
f 468/468 469/469 472/472
f 473/473 468/468 472/472
f 452/452 475/475 457/457
f 452/452 472/472 475/475
f 457/457 476/476 459/459
f 457/457 475/475 476/476
f 459/459 477/477 460/460
f 459/459 476/476 477/477
f 460/460 478/478 461/461
f 460/460 477/477 478/478
f 479/479 462/462 461/461
f 480/480 479/479 461/461
f 480/480 461/461 478/478
f 481/481 480/480 478/478
f 466/466 462/462 482/482
f 482/482 462/462 479/479
f 484/484 483/483 469/469
f 485/485 484/484 469/469
f 471/471 485/485 469/469
f 487/487 486/486 483/483
f 484/484 487/487 483/483
f 469/469 488/488 472/472
f 469/469 483/483 488/488
f 472/472 489/489 475/475
f 472/472 488/488 489/489
f 475/475 490/490 476/476
f 475/475 489/489 490/490
f 476/476 491/491 477/477
f 476/476 490/490 491/491
f 477/477 492/492 478/478
f 477/477 491/491 492/492
f 493/493 481/481 478/478
f 494/494 493/493 478/478
f 494/494 478/478 492/492
f 495/495 494/494 492/492
f 498/498 497/497 496/496
f 499/499 498/498 496/496
f 500/500 496/496 497/497
f 502/502 501/501 483/483
f 486/486 502/502 483/483
f 499/499 496/496 501/501
f 502/502 499/499 501/501
f 483/483 503/503 488/488
f 483/483 501/501 503/503
f 488/488 504/504 489/489
f 488/488 503/503 504/504
f 489/489 505/505 490/490
f 489/489 504/504 505/505
f 490/490 506/506 491/491
f 490/490 505/505 506/506
f 507/507 492/492 491/491
f 508/508 507/507 491/491
f 509/509 508/508 491/491
f 509/509 491/491 506/506
f 510/510 509/509 506/506
f 511/511 510/510 506/506
f 495/495 492/492 512/512
f 512/512 492/492 507/507
f 515/515 514/514 513/513
f 516/516 514/514 515/515
f 518/518 517/517 496/496
f 500/500 518/518 496/496
f 513/513 514/514 517/517
f 519/519 513/513 517/517
f 518/518 519/519 517/517
f 496/496 520/520 501/501
f 496/496 517/517 520/520
f 501/501 521/521 503/503
f 501/501 520/520 521/521
f 503/503 522/522 504/504
f 503/503 521/521 522/522
f 504/504 523/523 505/505
f 504/504 522/522 523/523
f 524/524 506/506 505/505
f 525/525 524/524 505/505
f 526/526 525/525 505/505
f 526/526 505/505 523/523
f 527/527 526/526 523/523
f 511/511 506/506 528/528
f 528/528 506/506 524/524
f 530/530 529/529 514/514
f 531/531 530/530 514/514
f 516/516 531/531 514/514
f 532/532 529/529 530/530
f 514/514 533/533 517/517
f 514/514 529/529 533/533
f 517/517 534/534 520/520
f 517/517 533/533 534/534
f 520/520 535/535 521/521
f 520/520 534/534 535/535
f 521/521 536/536 522/522
f 521/521 535/535 536/536
f 537/537 523/523 522/522
f 538/538 537/537 522/522
f 538/538 522/522 536/536
f 539/539 538/538 536/536
f 527/527 523/523 540/540
f 540/540 523/523 537/537
f 543/543 542/542 541/541
f 545/545 544/544 542/542
f 543/543 545/545 542/542
f 547/547 546/546 529/529
f 532/532 547/547 529/529
f 541/541 542/542 546/546
f 548/548 541/541 546/546
f 547/547 548/548 546/546
f 529/529 549/549 533/533
f 529/529 546/546 549/549
f 533/533 550/550 534/534
f 533/533 549/549 550/550
f 534/534 551/551 535/535
f 534/534 550/550 551/551
f 535/535 552/552 536/536
f 535/535 551/551 552/552
f 539/539 536/536 553/553
f 553/553 536/536 552/552
f 554/554 553/553 552/552
f 557/557 556/556 555/555
f 558/558 556/556 557/557
f 560/560 559/559 542/542
f 544/544 560/560 542/542
f 555/555 556/556 559/559
f 560/560 555/555 559/559
f 542/542 561/561 546/546
f 542/542 559/559 561/561
f 546/546 562/562 549/549
f 546/546 561/561 562/562
f 549/549 563/563 550/550
f 549/549 562/562 563/563
f 550/550 564/564 551/551
f 550/550 563/563 564/564
f 565/565 552/552 551/551
f 566/566 565/565 551/551
f 566/566 551/551 564/564
f 567/567 566/566 564/564
f 554/554 552/552 568/568
f 569/569 568/568 552/552
f 565/565 569/569 552/552
f 571/571 570/570 556/556
f 558/558 571/571 556/556
f 572/572 570/570 571/571
f 556/556 573/573 559/559
f 556/556 570/570 573/573
f 559/559 574/574 561/561
f 559/559 573/573 574/574
f 561/561 575/575 562/562
f 561/561 574/574 575/575
f 562/562 576/576 563/563
f 562/562 575/575 576/576
f 577/577 564/564 563/563
f 578/578 577/577 563/563
f 578/578 563/563 576/576
f 579/579 578/578 576/576
f 580/580 567/567 564/564
f 581/581 580/580 564/564
f 581/581 564/564 577/577
f 584/584 583/583 582/582
f 585/585 584/584 582/582
f 586/586 582/582 583/583
f 588/588 587/587 570/570
f 572/572 588/588 570/570
f 585/585 582/582 587/587
f 588/588 585/585 587/587
f 570/570 589/589 573/573
f 570/570 587/587 589/589
f 573/573 590/590 574/574
f 573/573 589/589 590/590
f 574/574 591/591 575/575
f 574/574 590/590 591/591
f 575/575 592/592 576/576
f 575/575 591/591 592/592
f 579/579 576/576 593/593
f 593/593 576/576 592/592
f 594/594 593/593 592/592
f 595/595 594/594 592/592
f 598/598 597/597 596/596
f 599/599 597/597 598/598
f 601/601 600/600 582/582
f 602/602 601/601 582/582
f 586/586 602/602 582/582
f 596/596 597/597 600/600
f 601/601 596/596 600/600
f 582/582 603/603 587/587
f 582/582 600/600 603/603
f 587/587 604/604 589/589
f 587/587 603/603 604/604
f 589/589 605/605 590/590
f 589/589 604/604 605/605
f 590/590 606/606 591/591
f 590/590 605/605 606/606
f 607/607 592/592 591/591
f 608/608 607/607 591/591
f 609/609 608/608 591/591
f 609/609 591/591 606/606
f 610/610 609/609 606/606
f 595/595 592/592 611/611
f 611/611 592/592 607/607
f 613/613 612/612 597/597
f 614/614 613/613 597/597
f 599/599 614/614 597/597
f 616/616 615/615 612/612
f 613/613 616/616 612/612
f 597/597 617/617 600/600
f 597/597 612/612 617/617
f 600/600 618/618 603/603
f 600/600 617/617 618/618
f 603/603 619/619 604/604
f 603/603 618/618 619/619
f 604/604 620/620 605/605
f 604/604 619/619 620/620
f 621/621 606/606 605/605
f 622/622 621/621 605/605
f 622/622 605/605 620/620
f 623/623 622/622 620/620
f 624/624 610/610 606/606
f 625/625 624/624 606/606
f 625/625 606/606 621/621
f 628/628 627/627 626/626
f 629/629 627/627 628/628
f 631/631 630/630 612/612
f 615/615 631/631 612/612
f 626/626 627/627 630/630
f 631/631 626/626 630/630
f 612/612 632/632 617/617
f 612/612 630/630 632/632
f 617/617 633/633 618/618
f 617/617 632/632 633/633
f 618/618 634/634 619/619
f 618/618 633/633 634/634
f 619/619 635/635 620/620
f 619/619 634/634 635/635
f 623/623 620/620 636/636
f 636/636 620/620 635/635
f 637/637 636/636 635/635
f 638/638 637/637 635/635
f 641/641 640/640 639/639
f 642/642 640/640 641/641
f 644/644 643/643 627/627
f 629/629 644/644 627/627
f 639/639 640/640 643/643
f 645/645 639/639 643/643
f 644/644 645/645 643/643
f 627/627 646/646 630/630
f 627/627 643/643 646/646
f 630/630 647/647 632/632
f 630/630 646/646 647/647
f 632/632 648/648 633/633
f 632/632 647/647 648/648
f 633/633 649/649 634/634
f 633/633 648/648 649/649
f 650/650 635/635 634/634
f 651/651 650/650 634/634
f 651/651 634/634 649/649
f 652/652 651/651 649/649
f 653/653 652/652 649/649
f 638/638 635/635 654/654
f 654/654 635/635 650/650
f 656/656 655/655 640/640
f 657/657 656/656 640/640
f 642/642 657/657 640/640
f 658/658 655/655 656/656
f 640/640 659/659 643/643
f 640/640 655/655 659/659
f 643/643 660/660 646/646
f 643/643 659/659 660/660
f 646/646 661/661 647/647
f 646/646 660/660 661/661
f 647/647 662/662 648/648
f 647/647 661/661 662/662
f 663/663 649/649 648/648
f 664/664 663/663 648/648
f 664/664 648/648 662/662
f 665/665 664/664 662/662
f 653/653 649/649 666/666
f 666/666 649/649 663/663
f 669/669 668/668 667/667
f 670/670 668/668 669/669
f 672/672 671/671 655/655
f 658/658 672/672 655/655
f 667/667 668/668 671/671
f 672/672 667/667 671/671
f 655/655 673/673 659/659
f 655/655 671/671 673/673
f 659/659 674/674 660/660
f 659/659 673/673 674/674
f 660/660 675/675 661/661
f 660/660 674/674 675/675
f 661/661 676/676 662/662
f 661/661 675/675 676/676
f 677/677 665/665 662/662
f 678/678 677/677 662/662
f 678/678 662/662 676/676
f 679/679 678/678 676/676
f 681/681 680/680 668/668
f 682/682 681/681 668/668
f 683/683 682/682 668/668
f 670/670 683/683 668/668
f 685/685 684/684 680/680
f 681/681 685/685 680/680
f 668/668 686/686 671/671
f 668/668 680/680 686/686
f 671/671 687/687 673/673
f 671/671 686/686 687/687
f 673/673 688/688 674/674
f 673/673 687/687 688/688
f 674/674 689/689 675/675
f 674/674 688/688 689/689
f 690/690 676/676 675/675
f 691/691 690/690 675/675
f 692/692 691/691 675/675
f 692/692 675/675 689/689
f 693/693 692/692 689/689
f 679/679 676/676 694/694
f 694/694 676/676 690/690
f 684/684 695/695 680/680
f 684/684 696/696 695/695
f 680/680 697/697 686/686
f 680/680 695/695 697/697
f 686/686 698/698 687/687
f 686/686 697/697 698/698
f 687/687 699/699 688/688
f 687/687 698/698 699/699
f 700/700 689/689 688/688
f 701/701 700/700 688/688
f 701/701 688/688 699/699
f 702/702 701/701 699/699
f 703/703 702/702 699/699
f 693/693 689/689 704/704
f 704/704 689/689 700/700
f 696/696 705/705 695/695
f 696/696 706/706 705/705
f 695/695 707/707 697/697
f 695/695 705/705 707/707
f 697/697 708/708 698/698
f 697/697 707/707 708/708
f 698/698 709/709 699/699
f 698/698 708/708 709/709
f 703/703 699/699 710/710
f 710/710 699/699 709/709
f 711/711 710/710 709/709
f 712/712 711/711 709/709
f 706/706 713/713 705/705
f 706/706 714/714 713/713
f 705/705 715/715 707/707
f 705/705 713/713 715/715
f 707/707 716/716 708/708
f 707/707 715/715 716/716
f 717/717 709/709 708/708
f 718/718 717/717 708/708
f 719/719 718/718 708/708
f 719/719 708/708 716/716
f 720/720 719/719 716/716
f 712/712 709/709 721/721
f 721/721 709/709 717/717
f 714/714 722/722 713/713
f 714/714 723/723 722/722
f 713/713 724/724 715/715
f 713/713 722/722 724/724
f 725/725 716/716 715/715
f 726/726 725/725 715/715
f 726/726 715/715 724/724
f 727/727 726/726 724/724
f 720/720 716/716 728/728
f 728/728 716/716 725/725
f 723/723 729/729 722/722
f 723/723 730/730 729/729
f 722/722 731/731 724/724
f 722/722 729/729 731/731
f 732/732 727/727 724/724
f 733/733 732/732 724/724
f 733/733 724/724 731/731
f 734/734 733/733 731/731
f 730/730 735/735 729/729
f 730/730 736/736 735/735
f 737/737 731/731 729/729
f 738/738 737/737 729/729
f 738/738 729/729 735/735
f 739/739 738/738 735/735
f 740/740 739/739 735/735
f 734/734 731/731 741/741
f 741/741 731/731 737/737
f 742/742 735/735 736/736
f 743/743 742/742 736/736
f 743/743 736/736 744/744
f 745/745 743/743 744/744
f 740/740 735/735 746/746
f 746/746 735/735 742/742
f 745/745 744/744 747/747
f 747/747 744/744 748/748
f 749/749 747/747 748/748
f 750/750 749/749 748/748
f 750/750 748/748 751/751
f 751/751 748/748 752/752
