# Authored arcade rail dimensions; OSM alignment, ODbL
o EastsideBridgeRealistic_83294497_Rails
v 27487.896354 50346.194920 203.335575
v 27495.401431 50343.424756 203.335575
v 27428.497586 50162.165246 201.855677
v 27420.992508 50164.935410 201.855677
v 27420.992508 50164.935410 193.855677
v 27428.497586 50162.165246 193.855677
v 27495.401431 50343.424756 195.335575
v 27487.896354 50346.194920 195.335575
v 27420.992508 50164.935410 201.855677
v 27420.992508 50164.935410 193.855677
v 27428.497586 50162.165246 193.855677
v 27428.497586 50162.165246 201.855677
v 27428.497586 50162.165246 201.855677
v 27428.497586 50162.165246 193.855677
v 27495.401431 50343.424756 195.335575
v 27495.401431 50343.424756 203.335575
v 27495.401431 50343.424756 203.335575
v 27495.401431 50343.424756 195.335575
v 27487.896354 50346.194920 195.335575
v 27487.896354 50346.194920 203.335575
v 27487.896354 50346.194920 203.335575
v 27487.896354 50346.194920 195.335575
v 27420.992508 50164.935410 193.855677
v 27420.992508 50164.935410 201.855677
v 27487.896354 50346.194920 255.335575
v 27495.401431 50343.424756 255.335575
v 27428.497586 50162.165246 253.855677
v 27420.992508 50164.935410 253.855677
v 27420.992508 50164.935410 245.855677
v 27428.497586 50162.165246 245.855677
v 27495.401431 50343.424756 247.335575
v 27487.896354 50346.194920 247.335575
v 27420.992508 50164.935410 253.855677
v 27420.992508 50164.935410 245.855677
v 27428.497586 50162.165246 245.855677
v 27428.497586 50162.165246 253.855677
v 27428.497586 50162.165246 253.855677
v 27428.497586 50162.165246 245.855677
v 27495.401431 50343.424756 247.335575
v 27495.401431 50343.424756 255.335575
v 27495.401431 50343.424756 255.335575
v 27495.401431 50343.424756 247.335575
v 27487.896354 50346.194920 247.335575
v 27487.896354 50346.194920 255.335575
v 27487.896354 50346.194920 255.335575
v 27487.896354 50346.194920 247.335575
v 27420.992508 50164.935410 245.855677
v 27420.992508 50164.935410 253.855677
v 27547.284338 50500.974978 204.815472
v 27554.753404 50498.109135 204.815472
v 27495.383425 50343.376917 203.335575
v 27487.914360 50346.242760 203.335575
v 27487.914360 50346.242760 195.335575
v 27495.383425 50343.376917 195.335575
v 27554.753404 50498.109135 196.815472
v 27547.284338 50500.974978 196.815472
v 27487.914360 50346.242760 203.335575
v 27487.914360 50346.242760 195.335575
v 27495.383425 50343.376917 195.335575
v 27495.383425 50343.376917 203.335575
v 27495.383425 50343.376917 203.335575
v 27495.383425 50343.376917 195.335575
v 27554.753404 50498.109135 196.815472
v 27554.753404 50498.109135 204.815472
v 27554.753404 50498.109135 204.815472
v 27554.753404 50498.109135 196.815472
v 27547.284338 50500.974978 196.815472
v 27547.284338 50500.974978 204.815472
v 27547.284338 50500.974978 204.815472
v 27547.284338 50500.974978 196.815472
v 27487.914360 50346.242760 195.335575
v 27487.914360 50346.242760 203.335575
v 27547.284338 50500.974978 256.815472
v 27554.753404 50498.109135 256.815472
v 27495.383425 50343.376917 255.335575
v 27487.914360 50346.242760 255.335575
v 27487.914360 50346.242760 247.335575
v 27495.383425 50343.376917 247.335575
v 27554.753404 50498.109135 248.815472
v 27547.284338 50500.974978 248.815472
v 27487.914360 50346.242760 255.335575
v 27487.914360 50346.242760 247.335575
v 27495.383425 50343.376917 247.335575
v 27495.383425 50343.376917 255.335575
v 27495.383425 50343.376917 255.335575
v 27495.383425 50343.376917 247.335575
v 27554.753404 50498.109135 248.815472
v 27554.753404 50498.109135 256.815472
v 27554.753404 50498.109135 256.815472
v 27554.753404 50498.109135 248.815472
v 27547.284338 50500.974978 248.815472
v 27547.284338 50500.974978 256.815472
v 27547.284338 50500.974978 256.815472
v 27547.284338 50500.974978 248.815472
v 27487.914360 50346.242760 247.335575
v 27487.914360 50346.242760 255.335575
v 27606.654317 50655.707196 206.295369
v 27614.123382 50652.841353 206.295369
v 27554.753404 50498.109135 204.815472
v 27547.284338 50500.974978 204.815472
v 27547.284338 50500.974978 196.815472
v 27554.753404 50498.109135 196.815472
v 27614.123382 50652.841353 198.295369
v 27606.654317 50655.707196 198.295369
v 27547.284338 50500.974978 204.815472
v 27547.284338 50500.974978 196.815472
v 27554.753404 50498.109135 196.815472
v 27554.753404 50498.109135 204.815472
v 27554.753404 50498.109135 204.815472
v 27554.753404 50498.109135 196.815472
v 27614.123382 50652.841353 198.295369
v 27614.123382 50652.841353 206.295369
v 27614.123382 50652.841353 206.295369
v 27614.123382 50652.841353 198.295369
v 27606.654317 50655.707196 198.295369
v 27606.654317 50655.707196 206.295369
v 27606.654317 50655.707196 206.295369
v 27606.654317 50655.707196 198.295369
v 27547.284338 50500.974978 196.815472
v 27547.284338 50500.974978 204.815472
v 27606.654317 50655.707196 258.295369
v 27614.123382 50652.841353 258.295369
v 27554.753404 50498.109135 256.815472
v 27547.284338 50500.974978 256.815472
v 27547.284338 50500.974978 248.815472
v 27554.753404 50498.109135 248.815472
v 27614.123382 50652.841353 250.295369
v 27606.654317 50655.707196 250.295369
v 27547.284338 50500.974978 256.815472
v 27547.284338 50500.974978 248.815472
v 27554.753404 50498.109135 248.815472
v 27554.753404 50498.109135 256.815472
v 27554.753404 50498.109135 256.815472
v 27554.753404 50498.109135 248.815472
v 27614.123382 50652.841353 250.295369
v 27614.123382 50652.841353 258.295369
v 27614.123382 50652.841353 258.295369
v 27614.123382 50652.841353 250.295369
v 27606.654317 50655.707196 250.295369
v 27606.654317 50655.707196 258.295369
v 27606.654317 50655.707196 258.295369
v 27606.654317 50655.707196 250.295369
v 27547.284338 50500.974978 248.815472
v 27547.284338 50500.974978 256.815472
v 27666.024295 50810.439415 207.775267
v 27673.493361 50807.573571 207.775267
v 27614.123382 50652.841353 206.295369
v 27606.654317 50655.707196 206.295369
v 27606.654317 50655.707196 198.295369
v 27614.123382 50652.841353 198.295369
v 27673.493361 50807.573571 199.775267
v 27666.024295 50810.439415 199.775267
v 27606.654317 50655.707196 206.295369
v 27606.654317 50655.707196 198.295369
v 27614.123382 50652.841353 198.295369
v 27614.123382 50652.841353 206.295369
v 27614.123382 50652.841353 206.295369
v 27614.123382 50652.841353 198.295369
v 27673.493361 50807.573571 199.775267
v 27673.493361 50807.573571 207.775267
v 27673.493361 50807.573571 207.775267
v 27673.493361 50807.573571 199.775267
v 27666.024295 50810.439415 199.775267
v 27666.024295 50810.439415 207.775267
v 27666.024295 50810.439415 207.775267
v 27666.024295 50810.439415 199.775267
v 27606.654317 50655.707196 198.295369
v 27606.654317 50655.707196 206.295369
v 27666.024295 50810.439415 259.775267
v 27673.493361 50807.573571 259.775267
v 27614.123382 50652.841353 258.295369
v 27606.654317 50655.707196 258.295369
v 27606.654317 50655.707196 250.295369
v 27614.123382 50652.841353 250.295369
v 27673.493361 50807.573571 251.775267
v 27666.024295 50810.439415 251.775267
v 27606.654317 50655.707196 258.295369
v 27606.654317 50655.707196 250.295369
v 27614.123382 50652.841353 250.295369
v 27614.123382 50652.841353 258.295369
v 27614.123382 50652.841353 258.295369
v 27614.123382 50652.841353 250.295369
v 27673.493361 50807.573571 251.775267
v 27673.493361 50807.573571 259.775267
v 27673.493361 50807.573571 259.775267
v 27673.493361 50807.573571 251.775267
v 27666.024295 50810.439415 251.775267
v 27666.024295 50810.439415 259.775267
v 27666.024295 50810.439415 259.775267
v 27666.024295 50810.439415 251.775267
v 27606.654317 50655.707196 250.295369
v 27606.654317 50655.707196 258.295369
v 27725.394274 50965.171633 209.255164
v 27732.863339 50962.305790 209.255164
v 27673.493361 50807.573571 207.775267
v 27666.024295 50810.439415 207.775267
v 27666.024295 50810.439415 199.775267
v 27673.493361 50807.573571 199.775267
v 27732.863339 50962.305790 201.255164
v 27725.394274 50965.171633 201.255164
v 27666.024295 50810.439415 207.775267
v 27666.024295 50810.439415 199.775267
v 27673.493361 50807.573571 199.775267
v 27673.493361 50807.573571 207.775267
v 27673.493361 50807.573571 207.775267
v 27673.493361 50807.573571 199.775267
v 27732.863339 50962.305790 201.255164
v 27732.863339 50962.305790 209.255164
v 27732.863339 50962.305790 209.255164
v 27732.863339 50962.305790 201.255164
v 27725.394274 50965.171633 201.255164
v 27725.394274 50965.171633 209.255164
v 27725.394274 50965.171633 209.255164
v 27725.394274 50965.171633 201.255164
v 27666.024295 50810.439415 199.775267
v 27666.024295 50810.439415 207.775267
v 27725.394274 50965.171633 261.255164
v 27732.863339 50962.305790 261.255164
v 27673.493361 50807.573571 259.775267
v 27666.024295 50810.439415 259.775267
v 27666.024295 50810.439415 251.775267
v 27673.493361 50807.573571 251.775267
v 27732.863339 50962.305790 253.255164
v 27725.394274 50965.171633 253.255164
v 27666.024295 50810.439415 259.775267
v 27666.024295 50810.439415 251.775267
v 27673.493361 50807.573571 251.775267
v 27673.493361 50807.573571 259.775267
v 27673.493361 50807.573571 259.775267
v 27673.493361 50807.573571 251.775267
v 27732.863339 50962.305790 253.255164
v 27732.863339 50962.305790 261.255164
v 27732.863339 50962.305790 261.255164
v 27732.863339 50962.305790 253.255164
v 27725.394274 50965.171633 253.255164
v 27725.394274 50965.171633 261.255164
v 27725.394274 50965.171633 261.255164
v 27725.394274 50965.171633 253.255164
v 27666.024295 50810.439415 251.775267
v 27666.024295 50810.439415 259.775267
v 27789.028975 51129.942276 210.735061
v 27796.491767 51127.060133 210.735061
v 27732.860202 50962.297640 209.255164
v 27725.397411 50965.179783 209.255164
v 27725.397411 50965.179783 201.255164
v 27732.860202 50962.297640 201.255164
v 27796.491767 51127.060133 202.735061
v 27789.028975 51129.942276 202.735061
v 27725.397411 50965.179783 209.255164
v 27725.397411 50965.179783 201.255164
v 27732.860202 50962.297640 201.255164
v 27732.860202 50962.297640 209.255164
v 27732.860202 50962.297640 209.255164
v 27732.860202 50962.297640 201.255164
v 27796.491767 51127.060133 202.735061
v 27796.491767 51127.060133 210.735061
v 27796.491767 51127.060133 210.735061
v 27796.491767 51127.060133 202.735061
v 27789.028975 51129.942276 202.735061
v 27789.028975 51129.942276 210.735061
v 27789.028975 51129.942276 210.735061
v 27789.028975 51129.942276 202.735061
v 27725.397411 50965.179783 201.255164
v 27725.397411 50965.179783 209.255164
v 27789.028975 51129.942276 262.735061
v 27796.491767 51127.060133 262.735061
v 27732.860202 50962.297640 261.255164
v 27725.397411 50965.179783 261.255164
v 27725.397411 50965.179783 253.255164
v 27732.860202 50962.297640 253.255164
v 27796.491767 51127.060133 254.735061
v 27789.028975 51129.942276 254.735061
v 27725.397411 50965.179783 261.255164
v 27725.397411 50965.179783 253.255164
v 27732.860202 50962.297640 253.255164
v 27732.860202 50962.297640 261.255164
v 27732.860202 50962.297640 261.255164
v 27732.860202 50962.297640 253.255164
v 27796.491767 51127.060133 254.735061
v 27796.491767 51127.060133 262.735061
v 27796.491767 51127.060133 262.735061
v 27796.491767 51127.060133 254.735061
v 27789.028975 51129.942276 254.735061
v 27789.028975 51129.942276 262.735061
v 27789.028975 51129.942276 262.735061
v 27789.028975 51129.942276 254.735061
v 27725.397411 50965.179783 253.255164
v 27725.397411 50965.179783 261.255164
v 27429.745047 50168.550328 257.855677
v 27429.745047 50158.550328 257.855677
v 27419.745047 50158.550328 257.855677
v 27419.745047 50168.550328 257.855677
v 27419.745047 50168.550328 153.855677
v 27419.745047 50158.550328 153.855677
v 27429.745047 50158.550328 153.855677
v 27429.745047 50168.550328 153.855677
v 27419.745047 50168.550328 257.855677
v 27419.745047 50168.550328 153.855677
v 27419.745047 50158.550328 153.855677
v 27419.745047 50158.550328 257.855677
v 27419.745047 50158.550328 257.855677
v 27419.745047 50158.550328 153.855677
v 27429.745047 50158.550328 153.855677
v 27429.745047 50158.550328 257.855677
v 27429.745047 50158.550328 257.855677
v 27429.745047 50158.550328 153.855677
v 27429.745047 50168.550328 153.855677
v 27429.745047 50168.550328 257.855677
v 27429.745047 50168.550328 257.855677
v 27429.745047 50168.550328 153.855677
v 27419.745047 50168.550328 153.855677
v 27419.745047 50168.550328 257.855677
v 27496.648892 50349.809838 259.335575
v 27496.648892 50339.809838 259.335575
v 27486.648892 50339.809838 259.335575
v 27486.648892 50349.809838 259.335575
v 27486.648892 50349.809838 155.335575
v 27486.648892 50339.809838 155.335575
v 27496.648892 50339.809838 155.335575
v 27496.648892 50349.809838 155.335575
v 27486.648892 50349.809838 259.335575
v 27486.648892 50349.809838 155.335575
v 27486.648892 50339.809838 155.335575
v 27486.648892 50339.809838 259.335575
v 27486.648892 50339.809838 259.335575
v 27486.648892 50339.809838 155.335575
v 27496.648892 50339.809838 155.335575
v 27496.648892 50339.809838 259.335575
v 27496.648892 50339.809838 259.335575
v 27496.648892 50339.809838 155.335575
v 27496.648892 50349.809838 155.335575
v 27496.648892 50349.809838 259.335575
v 27496.648892 50349.809838 259.335575
v 27496.648892 50349.809838 155.335575
v 27486.648892 50349.809838 155.335575
v 27486.648892 50349.809838 259.335575
v 27556.018871 50504.542057 260.815472
v 27556.018871 50494.542057 260.815472
v 27546.018871 50494.542057 260.815472
v 27546.018871 50504.542057 260.815472
v 27546.018871 50504.542057 156.815472
v 27546.018871 50494.542057 156.815472
v 27556.018871 50494.542057 156.815472
v 27556.018871 50504.542057 156.815472
v 27546.018871 50504.542057 260.815472
v 27546.018871 50504.542057 156.815472
v 27546.018871 50494.542057 156.815472
v 27546.018871 50494.542057 260.815472
v 27546.018871 50494.542057 260.815472
v 27546.018871 50494.542057 156.815472
v 27556.018871 50494.542057 156.815472
v 27556.018871 50494.542057 260.815472
v 27556.018871 50494.542057 260.815472
v 27556.018871 50494.542057 156.815472
v 27556.018871 50504.542057 156.815472
v 27556.018871 50504.542057 260.815472
v 27556.018871 50504.542057 260.815472
v 27556.018871 50504.542057 156.815472
v 27546.018871 50504.542057 156.815472
v 27546.018871 50504.542057 260.815472
v 27615.388850 50659.274275 262.295369
v 27615.388850 50649.274275 262.295369
v 27605.388850 50649.274275 262.295369
v 27605.388850 50659.274275 262.295369
v 27605.388850 50659.274275 158.295369
v 27605.388850 50649.274275 158.295369
v 27615.388850 50649.274275 158.295369
v 27615.388850 50659.274275 158.295369
v 27605.388850 50659.274275 262.295369
v 27605.388850 50659.274275 158.295369
v 27605.388850 50649.274275 158.295369
v 27605.388850 50649.274275 262.295369
v 27605.388850 50649.274275 262.295369
v 27605.388850 50649.274275 158.295369
v 27615.388850 50649.274275 158.295369
v 27615.388850 50649.274275 262.295369
v 27615.388850 50649.274275 262.295369
v 27615.388850 50649.274275 158.295369
v 27615.388850 50659.274275 158.295369
v 27615.388850 50659.274275 262.295369
v 27615.388850 50659.274275 262.295369
v 27615.388850 50659.274275 158.295369
v 27605.388850 50659.274275 158.295369
v 27605.388850 50659.274275 262.295369
v 27674.758828 50814.006493 263.775267
v 27674.758828 50804.006493 263.775267
v 27664.758828 50804.006493 263.775267
v 27664.758828 50814.006493 263.775267
v 27664.758828 50814.006493 159.775267
v 27664.758828 50804.006493 159.775267
v 27674.758828 50804.006493 159.775267
v 27674.758828 50814.006493 159.775267
v 27664.758828 50814.006493 263.775267
v 27664.758828 50814.006493 159.775267
v 27664.758828 50804.006493 159.775267
v 27664.758828 50804.006493 263.775267
v 27664.758828 50804.006493 263.775267
v 27664.758828 50804.006493 159.775267
v 27674.758828 50804.006493 159.775267
v 27674.758828 50804.006493 263.775267
v 27674.758828 50804.006493 263.775267
v 27674.758828 50804.006493 159.775267
v 27674.758828 50814.006493 159.775267
v 27674.758828 50814.006493 263.775267
v 27674.758828 50814.006493 263.775267
v 27674.758828 50814.006493 159.775267
v 27664.758828 50814.006493 159.775267
v 27664.758828 50814.006493 263.775267
v 27734.128807 50968.738711 265.255164
v 27734.128807 50958.738711 265.255164
v 27724.128807 50958.738711 265.255164
v 27724.128807 50968.738711 265.255164
v 27724.128807 50968.738711 161.255164
v 27724.128807 50958.738711 161.255164
v 27734.128807 50958.738711 161.255164
v 27734.128807 50968.738711 161.255164
v 27724.128807 50968.738711 265.255164
v 27724.128807 50968.738711 161.255164
v 27724.128807 50958.738711 161.255164
v 27724.128807 50958.738711 265.255164
v 27724.128807 50958.738711 265.255164
v 27724.128807 50958.738711 161.255164
v 27734.128807 50958.738711 161.255164
v 27734.128807 50958.738711 265.255164
v 27734.128807 50958.738711 265.255164
v 27734.128807 50958.738711 161.255164
v 27734.128807 50968.738711 161.255164
v 27734.128807 50968.738711 265.255164
v 27734.128807 50968.738711 265.255164
v 27734.128807 50968.738711 161.255164
v 27724.128807 50968.738711 161.255164
v 27724.128807 50968.738711 265.255164
v 27797.760371 51133.501204 266.735061
v 27797.760371 51123.501204 266.735061
v 27787.760371 51123.501204 266.735061
v 27787.760371 51133.501204 266.735061
v 27787.760371 51133.501204 162.735061
v 27787.760371 51123.501204 162.735061
v 27797.760371 51123.501204 162.735061
v 27797.760371 51133.501204 162.735061
v 27787.760371 51133.501204 266.735061
v 27787.760371 51133.501204 162.735061
v 27787.760371 51123.501204 162.735061
v 27787.760371 51123.501204 266.735061
v 27787.760371 51123.501204 266.735061
v 27787.760371 51123.501204 162.735061
v 27797.760371 51123.501204 162.735061
v 27797.760371 51123.501204 266.735061
v 27797.760371 51123.501204 266.735061
v 27797.760371 51123.501204 162.735061
v 27797.760371 51133.501204 162.735061
v 27797.760371 51133.501204 266.735061
v 27797.760371 51133.501204 266.735061
v 27797.760371 51133.501204 162.735061
v 27787.760371 51133.501204 162.735061
v 27787.760371 51133.501204 266.735061
v 27775.499569 50235.974246 203.335575
v 27782.916277 50232.975506 203.335575
v 27731.080165 50104.770580 201.855677
v 27723.663457 50107.769321 201.855677
v 27723.663457 50107.769321 193.855677
v 27731.080165 50104.770580 193.855677
v 27782.916277 50232.975506 195.335575
v 27775.499569 50235.974246 195.335575
v 27723.663457 50107.769321 201.855677
v 27723.663457 50107.769321 193.855677
v 27731.080165 50104.770580 193.855677
v 27731.080165 50104.770580 201.855677
v 27731.080165 50104.770580 201.855677
v 27731.080165 50104.770580 193.855677
v 27782.916277 50232.975506 195.335575
v 27782.916277 50232.975506 203.335575
v 27782.916277 50232.975506 203.335575
v 27782.916277 50232.975506 195.335575
v 27775.499569 50235.974246 195.335575
v 27775.499569 50235.974246 203.335575
v 27775.499569 50235.974246 203.335575
v 27775.499569 50235.974246 195.335575
v 27723.663457 50107.769321 193.855677
v 27723.663457 50107.769321 201.855677
v 27775.499569 50235.974246 255.335575
v 27782.916277 50232.975506 255.335575
v 27731.080165 50104.770580 253.855677
v 27723.663457 50107.769321 253.855677
v 27723.663457 50107.769321 245.855677
v 27731.080165 50104.770580 245.855677
v 27782.916277 50232.975506 247.335575
v 27775.499569 50235.974246 247.335575
v 27723.663457 50107.769321 253.855677
v 27723.663457 50107.769321 245.855677
v 27731.080165 50104.770580 245.855677
v 27731.080165 50104.770580 253.855677
v 27731.080165 50104.770580 253.855677
v 27731.080165 50104.770580 245.855677
v 27782.916277 50232.975506 247.335575
v 27782.916277 50232.975506 255.335575
v 27782.916277 50232.975506 255.335575
v 27782.916277 50232.975506 247.335575
v 27775.499569 50235.974246 247.335575
v 27775.499569 50235.974246 255.335575
v 27775.499569 50235.974246 255.335575
v 27775.499569 50235.974246 247.335575
v 27723.663457 50107.769321 245.855677
v 27723.663457 50107.769321 253.855677
v 27834.843369 50390.640016 204.815472
v 27842.312434 50387.774173 204.815472
v 27782.942456 50233.041954 203.335575
v 27775.473390 50235.907798 203.335575
v 27775.473390 50235.907798 195.335575
v 27782.942456 50233.041954 195.335575
v 27842.312434 50387.774173 196.815472
v 27834.843369 50390.640016 196.815472
v 27775.473390 50235.907798 203.335575
v 27775.473390 50235.907798 195.335575
v 27782.942456 50233.041954 195.335575
v 27782.942456 50233.041954 203.335575
v 27782.942456 50233.041954 203.335575
v 27782.942456 50233.041954 195.335575
v 27842.312434 50387.774173 196.815472
v 27842.312434 50387.774173 204.815472
v 27842.312434 50387.774173 204.815472
v 27842.312434 50387.774173 196.815472
v 27834.843369 50390.640016 196.815472
v 27834.843369 50390.640016 204.815472
v 27834.843369 50390.640016 204.815472
v 27834.843369 50390.640016 196.815472
v 27775.473390 50235.907798 195.335575
v 27775.473390 50235.907798 203.335575
v 27834.843369 50390.640016 256.815472
v 27842.312434 50387.774173 256.815472
v 27782.942456 50233.041954 255.335575
v 27775.473390 50235.907798 255.335575
v 27775.473390 50235.907798 247.335575
v 27782.942456 50233.041954 247.335575
v 27842.312434 50387.774173 248.815472
v 27834.843369 50390.640016 248.815472
v 27775.473390 50235.907798 255.335575
v 27775.473390 50235.907798 247.335575
v 27782.942456 50233.041954 247.335575
v 27782.942456 50233.041954 255.335575
v 27782.942456 50233.041954 255.335575
v 27782.942456 50233.041954 247.335575
v 27842.312434 50387.774173 248.815472
v 27842.312434 50387.774173 256.815472
v 27842.312434 50387.774173 256.815472
v 27842.312434 50387.774173 248.815472
v 27834.843369 50390.640016 248.815472
v 27834.843369 50390.640016 256.815472
v 27834.843369 50390.640016 256.815472
v 27834.843369 50390.640016 248.815472
v 27775.473390 50235.907798 247.335575
v 27775.473390 50235.907798 255.335575
v 27894.213347 50545.372234 206.295369
v 27901.682413 50542.506391 206.295369
v 27842.312434 50387.774173 204.815472
v 27834.843369 50390.640016 204.815472
v 27834.843369 50390.640016 196.815472
v 27842.312434 50387.774173 196.815472
v 27901.682413 50542.506391 198.295369
v 27894.213347 50545.372234 198.295369
v 27834.843369 50390.640016 204.815472
v 27834.843369 50390.640016 196.815472
v 27842.312434 50387.774173 196.815472
v 27842.312434 50387.774173 204.815472
v 27842.312434 50387.774173 204.815472
v 27842.312434 50387.774173 196.815472
v 27901.682413 50542.506391 198.295369
v 27901.682413 50542.506391 206.295369
v 27901.682413 50542.506391 206.295369
v 27901.682413 50542.506391 198.295369
v 27894.213347 50545.372234 198.295369
v 27894.213347 50545.372234 206.295369
v 27894.213347 50545.372234 206.295369
v 27894.213347 50545.372234 198.295369
v 27834.843369 50390.640016 196.815472
v 27834.843369 50390.640016 204.815472
v 27894.213347 50545.372234 258.295369
v 27901.682413 50542.506391 258.295369
v 27842.312434 50387.774173 256.815472
v 27834.843369 50390.640016 256.815472
v 27834.843369 50390.640016 248.815472
v 27842.312434 50387.774173 248.815472
v 27901.682413 50542.506391 250.295369
v 27894.213347 50545.372234 250.295369
v 27834.843369 50390.640016 256.815472
v 27834.843369 50390.640016 248.815472
v 27842.312434 50387.774173 248.815472
v 27842.312434 50387.774173 256.815472
v 27842.312434 50387.774173 256.815472
v 27842.312434 50387.774173 248.815472
v 27901.682413 50542.506391 250.295369
v 27901.682413 50542.506391 258.295369
v 27901.682413 50542.506391 258.295369
v 27901.682413 50542.506391 250.295369
v 27894.213347 50545.372234 250.295369
v 27894.213347 50545.372234 258.295369
v 27894.213347 50545.372234 258.295369
v 27894.213347 50545.372234 250.295369
v 27834.843369 50390.640016 248.815472
v 27834.843369 50390.640016 256.815472
v 27953.583326 50700.104452 207.775267
v 27961.052391 50697.238609 207.775267
v 27901.682413 50542.506391 206.295369
v 27894.213347 50545.372234 206.295369
v 27894.213347 50545.372234 198.295369
v 27901.682413 50542.506391 198.295369
v 27961.052391 50697.238609 199.775267
v 27953.583326 50700.104452 199.775267
v 27894.213347 50545.372234 206.295369
v 27894.213347 50545.372234 198.295369
v 27901.682413 50542.506391 198.295369
v 27901.682413 50542.506391 206.295369
v 27901.682413 50542.506391 206.295369
v 27901.682413 50542.506391 198.295369
v 27961.052391 50697.238609 199.775267
v 27961.052391 50697.238609 207.775267
v 27961.052391 50697.238609 207.775267
v 27961.052391 50697.238609 199.775267
v 27953.583326 50700.104452 199.775267
v 27953.583326 50700.104452 207.775267
v 27953.583326 50700.104452 207.775267
v 27953.583326 50700.104452 199.775267
v 27894.213347 50545.372234 198.295369
v 27894.213347 50545.372234 206.295369
v 27953.583326 50700.104452 259.775267
v 27961.052391 50697.238609 259.775267
v 27901.682413 50542.506391 258.295369
v 27894.213347 50545.372234 258.295369
v 27894.213347 50545.372234 250.295369
v 27901.682413 50542.506391 250.295369
v 27961.052391 50697.238609 251.775267
v 27953.583326 50700.104452 251.775267
v 27894.213347 50545.372234 258.295369
v 27894.213347 50545.372234 250.295369
v 27901.682413 50542.506391 250.295369
v 27901.682413 50542.506391 258.295369
v 27901.682413 50542.506391 258.295369
v 27901.682413 50542.506391 250.295369
v 27961.052391 50697.238609 251.775267
v 27961.052391 50697.238609 259.775267
v 27961.052391 50697.238609 259.775267
v 27961.052391 50697.238609 251.775267
v 27953.583326 50700.104452 251.775267
v 27953.583326 50700.104452 259.775267
v 27953.583326 50700.104452 259.775267
v 27953.583326 50700.104452 251.775267
v 27894.213347 50545.372234 250.295369
v 27894.213347 50545.372234 258.295369
v 28012.953304 50854.836670 209.255164
v 28020.422370 50851.970827 209.255164
v 27961.052391 50697.238609 207.775267
v 27953.583326 50700.104452 207.775267
v 27953.583326 50700.104452 199.775267
v 27961.052391 50697.238609 199.775267
v 28020.422370 50851.970827 201.255164
v 28012.953304 50854.836670 201.255164
v 27953.583326 50700.104452 207.775267
v 27953.583326 50700.104452 199.775267
v 27961.052391 50697.238609 199.775267
v 27961.052391 50697.238609 207.775267
v 27961.052391 50697.238609 207.775267
v 27961.052391 50697.238609 199.775267
v 28020.422370 50851.970827 201.255164
v 28020.422370 50851.970827 209.255164
v 28020.422370 50851.970827 209.255164
v 28020.422370 50851.970827 201.255164
v 28012.953304 50854.836670 201.255164
v 28012.953304 50854.836670 209.255164
v 28012.953304 50854.836670 209.255164
v 28012.953304 50854.836670 201.255164
v 27953.583326 50700.104452 199.775267
v 27953.583326 50700.104452 207.775267
v 28012.953304 50854.836670 261.255164
v 28020.422370 50851.970827 261.255164
v 27961.052391 50697.238609 259.775267
v 27953.583326 50700.104452 259.775267
v 27953.583326 50700.104452 251.775267
v 27961.052391 50697.238609 251.775267
v 28020.422370 50851.970827 253.255164
v 28012.953304 50854.836670 253.255164
v 27953.583326 50700.104452 259.775267
v 27953.583326 50700.104452 251.775267
v 27961.052391 50697.238609 251.775267
v 27961.052391 50697.238609 259.775267
v 27961.052391 50697.238609 259.775267
v 27961.052391 50697.238609 251.775267
v 28020.422370 50851.970827 253.255164
v 28020.422370 50851.970827 261.255164
v 28020.422370 50851.970827 261.255164
v 28020.422370 50851.970827 253.255164
v 28012.953304 50854.836670 253.255164
v 28012.953304 50854.836670 261.255164
v 28012.953304 50854.836670 261.255164
v 28012.953304 50854.836670 253.255164
v 27953.583326 50700.104452 251.775267
v 27953.583326 50700.104452 259.775267
v 28068.058140 50999.529309 210.735061
v 28075.534320 50996.682075 210.735061
v 28020.425927 50851.980132 209.255164
v 28012.949747 50854.827366 209.255164
v 28012.949747 50854.827366 201.255164
v 28020.425927 50851.980132 201.255164
v 28075.534320 50996.682075 202.735061
v 28068.058140 50999.529309 202.735061
v 28012.949747 50854.827366 209.255164
v 28012.949747 50854.827366 201.255164
v 28020.425927 50851.980132 201.255164
v 28020.425927 50851.980132 209.255164
v 28020.425927 50851.980132 209.255164
v 28020.425927 50851.980132 201.255164
v 28075.534320 50996.682075 202.735061
v 28075.534320 50996.682075 210.735061
v 28075.534320 50996.682075 210.735061
v 28075.534320 50996.682075 202.735061
v 28068.058140 50999.529309 202.735061
v 28068.058140 50999.529309 210.735061
v 28068.058140 50999.529309 210.735061
v 28068.058140 50999.529309 202.735061
v 28012.949747 50854.827366 201.255164
v 28012.949747 50854.827366 209.255164
v 28068.058140 50999.529309 262.735061
v 28075.534320 50996.682075 262.735061
v 28020.425927 50851.980132 261.255164
v 28012.949747 50854.827366 261.255164
v 28012.949747 50854.827366 253.255164
v 28020.425927 50851.980132 253.255164
v 28075.534320 50996.682075 254.735061
v 28068.058140 50999.529309 254.735061
v 28012.949747 50854.827366 261.255164
v 28012.949747 50854.827366 253.255164
v 28020.425927 50851.980132 253.255164
v 28020.425927 50851.980132 261.255164
v 28020.425927 50851.980132 261.255164
v 28020.425927 50851.980132 253.255164
v 28075.534320 50996.682075 254.735061
v 28075.534320 50996.682075 262.735061
v 28075.534320 50996.682075 262.735061
v 28075.534320 50996.682075 254.735061
v 28068.058140 50999.529309 254.735061
v 28068.058140 50999.529309 262.735061
v 28068.058140 50999.529309 262.735061
v 28068.058140 50999.529309 254.735061
v 28012.949747 50854.827366 253.255164
v 28012.949747 50854.827366 261.255164
v 27732.371811 50111.269950 257.855677
v 27732.371811 50101.269950 257.855677
v 27722.371811 50101.269950 257.855677
v 27722.371811 50111.269950 257.855677
v 27722.371811 50111.269950 153.855677
v 27722.371811 50101.269950 153.855677
v 27732.371811 50101.269950 153.855677
v 27732.371811 50111.269950 153.855677
v 27722.371811 50111.269950 257.855677
v 27722.371811 50111.269950 153.855677
v 27722.371811 50101.269950 153.855677
v 27722.371811 50101.269950 257.855677
v 27722.371811 50101.269950 257.855677
v 27722.371811 50101.269950 153.855677
v 27732.371811 50101.269950 153.855677
v 27732.371811 50101.269950 257.855677
v 27732.371811 50101.269950 257.855677
v 27732.371811 50101.269950 153.855677
v 27732.371811 50111.269950 153.855677
v 27732.371811 50111.269950 257.855677
v 27732.371811 50111.269950 257.855677
v 27732.371811 50111.269950 153.855677
v 27722.371811 50111.269950 153.855677
v 27722.371811 50111.269950 257.855677
v 27784.207923 50239.474876 259.335575
v 27784.207923 50229.474876 259.335575
v 27774.207923 50229.474876 259.335575
v 27774.207923 50239.474876 259.335575
v 27774.207923 50239.474876 155.335575
v 27774.207923 50229.474876 155.335575
v 27784.207923 50229.474876 155.335575
v 27784.207923 50239.474876 155.335575
v 27774.207923 50239.474876 259.335575
v 27774.207923 50239.474876 155.335575
v 27774.207923 50229.474876 155.335575
v 27774.207923 50229.474876 259.335575
v 27774.207923 50229.474876 259.335575
v 27774.207923 50229.474876 155.335575
v 27784.207923 50229.474876 155.335575
v 27784.207923 50229.474876 259.335575
v 27784.207923 50229.474876 259.335575
v 27784.207923 50229.474876 155.335575
v 27784.207923 50239.474876 155.335575
v 27784.207923 50239.474876 259.335575
v 27784.207923 50239.474876 259.335575
v 27784.207923 50239.474876 155.335575
v 27774.207923 50239.474876 155.335575
v 27774.207923 50239.474876 259.335575
v 27843.577902 50394.207094 260.815472
v 27843.577902 50384.207094 260.815472
v 27833.577902 50384.207094 260.815472
v 27833.577902 50394.207094 260.815472
v 27833.577902 50394.207094 156.815472
v 27833.577902 50384.207094 156.815472
v 27843.577902 50384.207094 156.815472
v 27843.577902 50394.207094 156.815472
v 27833.577902 50394.207094 260.815472
v 27833.577902 50394.207094 156.815472
v 27833.577902 50384.207094 156.815472
v 27833.577902 50384.207094 260.815472
v 27833.577902 50384.207094 260.815472
v 27833.577902 50384.207094 156.815472
v 27843.577902 50384.207094 156.815472
v 27843.577902 50384.207094 260.815472
v 27843.577902 50384.207094 260.815472
v 27843.577902 50384.207094 156.815472
v 27843.577902 50394.207094 156.815472
v 27843.577902 50394.207094 260.815472
v 27843.577902 50394.207094 260.815472
v 27843.577902 50394.207094 156.815472
v 27833.577902 50394.207094 156.815472
v 27833.577902 50394.207094 260.815472
v 27902.947880 50548.939312 262.295369
v 27902.947880 50538.939312 262.295369
v 27892.947880 50538.939312 262.295369
v 27892.947880 50548.939312 262.295369
v 27892.947880 50548.939312 158.295369
v 27892.947880 50538.939312 158.295369
v 27902.947880 50538.939312 158.295369
v 27902.947880 50548.939312 158.295369
v 27892.947880 50548.939312 262.295369
v 27892.947880 50548.939312 158.295369
v 27892.947880 50538.939312 158.295369
v 27892.947880 50538.939312 262.295369
v 27892.947880 50538.939312 262.295369
v 27892.947880 50538.939312 158.295369
v 27902.947880 50538.939312 158.295369
v 27902.947880 50538.939312 262.295369
v 27902.947880 50538.939312 262.295369
v 27902.947880 50538.939312 158.295369
v 27902.947880 50548.939312 158.295369
v 27902.947880 50548.939312 262.295369
v 27902.947880 50548.939312 262.295369
v 27902.947880 50548.939312 158.295369
v 27892.947880 50548.939312 158.295369
v 27892.947880 50548.939312 262.295369
v 27962.317859 50703.671531 263.775267
v 27962.317859 50693.671531 263.775267
v 27952.317859 50693.671531 263.775267
v 27952.317859 50703.671531 263.775267
v 27952.317859 50703.671531 159.775267
v 27952.317859 50693.671531 159.775267
v 27962.317859 50693.671531 159.775267
v 27962.317859 50703.671531 159.775267
v 27952.317859 50703.671531 263.775267
v 27952.317859 50703.671531 159.775267
v 27952.317859 50693.671531 159.775267
v 27952.317859 50693.671531 263.775267
v 27952.317859 50693.671531 263.775267
v 27952.317859 50693.671531 159.775267
v 27962.317859 50693.671531 159.775267
v 27962.317859 50693.671531 263.775267
v 27962.317859 50693.671531 263.775267
v 27962.317859 50693.671531 159.775267
v 27962.317859 50703.671531 159.775267
v 27962.317859 50703.671531 263.775267
v 27962.317859 50703.671531 263.775267
v 27962.317859 50703.671531 159.775267
v 27952.317859 50703.671531 159.775267
v 27952.317859 50703.671531 263.775267
v 28021.687837 50858.403749 265.255164
v 28021.687837 50848.403749 265.255164
v 28011.687837 50848.403749 265.255164
v 28011.687837 50858.403749 265.255164
v 28011.687837 50858.403749 161.255164
v 28011.687837 50848.403749 161.255164
v 28021.687837 50848.403749 161.255164
v 28021.687837 50858.403749 161.255164
v 28011.687837 50858.403749 265.255164
v 28011.687837 50858.403749 161.255164
v 28011.687837 50848.403749 161.255164
v 28011.687837 50848.403749 265.255164
v 28011.687837 50848.403749 265.255164
v 28011.687837 50848.403749 161.255164
v 28021.687837 50848.403749 161.255164
v 28021.687837 50848.403749 265.255164
v 28021.687837 50848.403749 265.255164
v 28021.687837 50848.403749 161.255164
v 28021.687837 50858.403749 161.255164
v 28021.687837 50858.403749 265.255164
v 28021.687837 50858.403749 265.255164
v 28021.687837 50858.403749 161.255164
v 28011.687837 50858.403749 161.255164
v 28011.687837 50858.403749 265.255164
v 28076.796230 51003.105692 266.735061
v 28076.796230 50993.105692 266.735061
v 28066.796230 50993.105692 266.735061
v 28066.796230 51003.105692 266.735061
v 28066.796230 51003.105692 162.735061
v 28066.796230 50993.105692 162.735061
v 28076.796230 50993.105692 162.735061
v 28076.796230 51003.105692 162.735061
v 28066.796230 51003.105692 266.735061
v 28066.796230 51003.105692 162.735061
v 28066.796230 50993.105692 162.735061
v 28066.796230 50993.105692 266.735061
v 28066.796230 50993.105692 266.735061
v 28066.796230 50993.105692 162.735061
v 28076.796230 50993.105692 162.735061
v 28076.796230 50993.105692 266.735061
v 28076.796230 50993.105692 266.735061
v 28076.796230 50993.105692 162.735061
v 28076.796230 51003.105692 162.735061
v 28076.796230 51003.105692 266.735061
v 28076.796230 51003.105692 266.735061
v 28076.796230 51003.105692 162.735061
v 28066.796230 51003.105692 162.735061
v 28066.796230 51003.105692 266.735061
vt 137.439482 -251.730975
vt 137.477007 -251.717124
vt 137.142488 -250.810826
vt 137.104963 -250.824677
vt 137.104963 -250.824677
vt 137.142488 -250.810826
vt 137.477007 -251.717124
vt 137.439482 -251.730975
vt 137.104963 -250.824677
vt 137.104963 -250.824677
vt 137.142488 -250.810826
vt 137.142488 -250.810826
vt 137.142488 -250.810826
vt 137.142488 -250.810826
vt 137.477007 -251.717124
vt 137.477007 -251.717124
vt 137.477007 -251.717124
vt 137.477007 -251.717124
vt 137.439482 -251.730975
vt 137.439482 -251.730975
vt 137.439482 -251.730975
vt 137.439482 -251.730975
vt 137.104963 -250.824677
vt 137.104963 -250.824677
vt 137.439482 -251.730975
vt 137.477007 -251.717124
vt 137.142488 -250.810826
vt 137.104963 -250.824677
vt 137.104963 -250.824677
vt 137.142488 -250.810826
vt 137.477007 -251.717124
vt 137.439482 -251.730975
vt 137.104963 -250.824677
vt 137.104963 -250.824677
vt 137.142488 -250.810826
vt 137.142488 -250.810826
vt 137.142488 -250.810826
vt 137.142488 -250.810826
vt 137.477007 -251.717124
vt 137.477007 -251.717124
vt 137.477007 -251.717124
vt 137.477007 -251.717124
vt 137.439482 -251.730975
vt 137.439482 -251.730975
vt 137.439482 -251.730975
vt 137.439482 -251.730975
vt 137.104963 -250.824677
vt 137.104963 -250.824677
vt 137.736422 -252.504875
vt 137.773767 -252.490546
vt 137.476917 -251.716885
vt 137.439572 -251.731214
vt 137.439572 -251.731214
vt 137.476917 -251.716885
vt 137.773767 -252.490546
vt 137.736422 -252.504875
vt 137.439572 -251.731214
vt 137.439572 -251.731214
vt 137.476917 -251.716885
vt 137.476917 -251.716885
vt 137.476917 -251.716885
vt 137.476917 -251.716885
vt 137.773767 -252.490546
vt 137.773767 -252.490546
vt 137.773767 -252.490546
vt 137.773767 -252.490546
vt 137.736422 -252.504875
vt 137.736422 -252.504875
vt 137.736422 -252.504875
vt 137.736422 -252.504875
vt 137.439572 -251.731214
vt 137.439572 -251.731214
vt 137.736422 -252.504875
vt 137.773767 -252.490546
vt 137.476917 -251.716885
vt 137.439572 -251.731214
vt 137.439572 -251.731214
vt 137.476917 -251.716885
vt 137.773767 -252.490546
vt 137.736422 -252.504875
vt 137.439572 -251.731214
vt 137.439572 -251.731214
vt 137.476917 -251.716885
vt 137.476917 -251.716885
vt 137.476917 -251.716885
vt 137.476917 -251.716885
vt 137.773767 -252.490546
vt 137.773767 -252.490546
vt 137.773767 -252.490546
vt 137.773767 -252.490546
vt 137.736422 -252.504875
vt 137.736422 -252.504875
vt 137.736422 -252.504875
vt 137.736422 -252.504875
vt 137.439572 -251.731214
vt 137.439572 -251.731214
vt 138.033272 -253.278536
vt 138.070617 -253.264207
vt 137.773767 -252.490546
vt 137.736422 -252.504875
vt 137.736422 -252.504875
vt 137.773767 -252.490546
vt 138.070617 -253.264207
vt 138.033272 -253.278536
vt 137.736422 -252.504875
vt 137.736422 -252.504875
vt 137.773767 -252.490546
vt 137.773767 -252.490546
vt 137.773767 -252.490546
vt 137.773767 -252.490546
vt 138.070617 -253.264207
vt 138.070617 -253.264207
vt 138.070617 -253.264207
vt 138.070617 -253.264207
vt 138.033272 -253.278536
vt 138.033272 -253.278536
vt 138.033272 -253.278536
vt 138.033272 -253.278536
vt 137.736422 -252.504875
vt 137.736422 -252.504875
vt 138.033272 -253.278536
vt 138.070617 -253.264207
vt 137.773767 -252.490546
vt 137.736422 -252.504875
vt 137.736422 -252.504875
vt 137.773767 -252.490546
vt 138.070617 -253.264207
vt 138.033272 -253.278536
vt 137.736422 -252.504875
vt 137.736422 -252.504875
vt 137.773767 -252.490546
vt 137.773767 -252.490546
vt 137.773767 -252.490546
vt 137.773767 -252.490546
vt 138.070617 -253.264207
vt 138.070617 -253.264207
vt 138.070617 -253.264207
vt 138.070617 -253.264207
vt 138.033272 -253.278536
vt 138.033272 -253.278536
vt 138.033272 -253.278536
vt 138.033272 -253.278536
vt 137.736422 -252.504875
vt 137.736422 -252.504875
vt 138.330121 -254.052197
vt 138.367467 -254.037868
vt 138.070617 -253.264207
vt 138.033272 -253.278536
vt 138.033272 -253.278536
vt 138.070617 -253.264207
vt 138.367467 -254.037868
vt 138.330121 -254.052197
vt 138.033272 -253.278536
vt 138.033272 -253.278536
vt 138.070617 -253.264207
vt 138.070617 -253.264207
vt 138.070617 -253.264207
vt 138.070617 -253.264207
vt 138.367467 -254.037868
vt 138.367467 -254.037868
vt 138.367467 -254.037868
vt 138.367467 -254.037868
vt 138.330121 -254.052197
vt 138.330121 -254.052197
vt 138.330121 -254.052197
vt 138.330121 -254.052197
vt 138.033272 -253.278536
vt 138.033272 -253.278536
vt 138.330121 -254.052197
vt 138.367467 -254.037868
vt 138.070617 -253.264207
vt 138.033272 -253.278536
vt 138.033272 -253.278536
vt 138.070617 -253.264207
vt 138.367467 -254.037868
vt 138.330121 -254.052197
vt 138.033272 -253.278536
vt 138.033272 -253.278536
vt 138.070617 -253.264207
vt 138.070617 -253.264207
vt 138.070617 -253.264207
vt 138.070617 -253.264207
vt 138.367467 -254.037868
vt 138.367467 -254.037868
vt 138.367467 -254.037868
vt 138.367467 -254.037868
vt 138.330121 -254.052197
vt 138.330121 -254.052197
vt 138.330121 -254.052197
vt 138.330121 -254.052197
vt 138.033272 -253.278536
vt 138.033272 -253.278536
vt 138.626971 -254.825858
vt 138.664317 -254.811529
vt 138.367467 -254.037868
vt 138.330121 -254.052197
vt 138.330121 -254.052197
vt 138.367467 -254.037868
vt 138.664317 -254.811529
vt 138.626971 -254.825858
vt 138.330121 -254.052197
vt 138.330121 -254.052197
vt 138.367467 -254.037868
vt 138.367467 -254.037868
vt 138.367467 -254.037868
vt 138.367467 -254.037868
vt 138.664317 -254.811529
vt 138.664317 -254.811529
vt 138.664317 -254.811529
vt 138.664317 -254.811529
vt 138.626971 -254.825858
vt 138.626971 -254.825858
vt 138.626971 -254.825858
vt 138.626971 -254.825858
vt 138.330121 -254.052197
vt 138.330121 -254.052197
vt 138.626971 -254.825858
vt 138.664317 -254.811529
vt 138.367467 -254.037868
vt 138.330121 -254.052197
vt 138.330121 -254.052197
vt 138.367467 -254.037868
vt 138.664317 -254.811529
vt 138.626971 -254.825858
vt 138.330121 -254.052197
vt 138.330121 -254.052197
vt 138.367467 -254.037868
vt 138.367467 -254.037868
vt 138.367467 -254.037868
vt 138.367467 -254.037868
vt 138.664317 -254.811529
vt 138.664317 -254.811529
vt 138.664317 -254.811529
vt 138.664317 -254.811529
vt 138.626971 -254.825858
vt 138.626971 -254.825858
vt 138.626971 -254.825858
vt 138.626971 -254.825858
vt 138.330121 -254.052197
vt 138.330121 -254.052197
vt 138.945145 -255.649711
vt 138.982459 -255.635301
vt 138.664301 -254.811488
vt 138.626987 -254.825899
vt 138.626987 -254.825899
vt 138.664301 -254.811488
vt 138.982459 -255.635301
vt 138.945145 -255.649711
vt 138.626987 -254.825899
vt 138.626987 -254.825899
vt 138.664301 -254.811488
vt 138.664301 -254.811488
vt 138.664301 -254.811488
vt 138.664301 -254.811488
vt 138.982459 -255.635301
vt 138.982459 -255.635301
vt 138.982459 -255.635301
vt 138.982459 -255.635301
vt 138.945145 -255.649711
vt 138.945145 -255.649711
vt 138.945145 -255.649711
vt 138.945145 -255.649711
vt 138.626987 -254.825899
vt 138.626987 -254.825899
vt 138.945145 -255.649711
vt 138.982459 -255.635301
vt 138.664301 -254.811488
vt 138.626987 -254.825899
vt 138.626987 -254.825899
vt 138.664301 -254.811488
vt 138.982459 -255.635301
vt 138.945145 -255.649711
vt 138.626987 -254.825899
vt 138.626987 -254.825899
vt 138.664301 -254.811488
vt 138.664301 -254.811488
vt 138.664301 -254.811488
vt 138.664301 -254.811488
vt 138.982459 -255.635301
vt 138.982459 -255.635301
vt 138.982459 -255.635301
vt 138.982459 -255.635301
vt 138.945145 -255.649711
vt 138.945145 -255.649711
vt 138.945145 -255.649711
vt 138.945145 -255.649711
vt 138.626987 -254.825899
vt 138.626987 -254.825899
vt 137.148725 -250.842752
vt 137.148725 -250.792752
vt 137.098725 -250.792752
vt 137.098725 -250.842752
vt 137.098725 -250.842752
vt 137.098725 -250.792752
vt 137.148725 -250.792752
vt 137.148725 -250.842752
vt 137.098725 -250.842752
vt 137.098725 -250.842752
vt 137.098725 -250.792752
vt 137.098725 -250.792752
vt 137.098725 -250.792752
vt 137.098725 -250.792752
vt 137.148725 -250.792752
vt 137.148725 -250.792752
vt 137.148725 -250.792752
vt 137.148725 -250.792752
vt 137.148725 -250.842752
vt 137.148725 -250.842752
vt 137.148725 -250.842752
vt 137.148725 -250.842752
vt 137.098725 -250.842752
vt 137.098725 -250.842752
vt 137.483244 -251.749049
vt 137.483244 -251.699049
vt 137.433244 -251.699049
vt 137.433244 -251.749049
vt 137.433244 -251.749049
vt 137.433244 -251.699049
vt 137.483244 -251.699049
vt 137.483244 -251.749049
vt 137.433244 -251.749049
vt 137.433244 -251.749049
vt 137.433244 -251.699049
vt 137.433244 -251.699049
vt 137.433244 -251.699049
vt 137.433244 -251.699049
vt 137.483244 -251.699049
vt 137.483244 -251.699049
vt 137.483244 -251.699049
vt 137.483244 -251.699049
vt 137.483244 -251.749049
vt 137.483244 -251.749049
vt 137.483244 -251.749049
vt 137.483244 -251.749049
vt 137.433244 -251.749049
vt 137.433244 -251.749049
vt 137.780094 -252.522710
vt 137.780094 -252.472710
vt 137.730094 -252.472710
vt 137.730094 -252.522710
vt 137.730094 -252.522710
vt 137.730094 -252.472710
vt 137.780094 -252.472710
vt 137.780094 -252.522710
vt 137.730094 -252.522710
vt 137.730094 -252.522710
vt 137.730094 -252.472710
vt 137.730094 -252.472710
vt 137.730094 -252.472710
vt 137.730094 -252.472710
vt 137.780094 -252.472710
vt 137.780094 -252.472710
vt 137.780094 -252.472710
vt 137.780094 -252.472710
vt 137.780094 -252.522710
vt 137.780094 -252.522710
vt 137.780094 -252.522710
vt 137.780094 -252.522710
vt 137.730094 -252.522710
vt 137.730094 -252.522710
vt 138.076944 -253.296371
vt 138.076944 -253.246371
vt 138.026944 -253.246371
vt 138.026944 -253.296371
vt 138.026944 -253.296371
vt 138.026944 -253.246371
vt 138.076944 -253.246371
vt 138.076944 -253.296371
vt 138.026944 -253.296371
vt 138.026944 -253.296371
vt 138.026944 -253.246371
vt 138.026944 -253.246371
vt 138.026944 -253.246371
vt 138.026944 -253.246371
vt 138.076944 -253.246371
vt 138.076944 -253.246371
vt 138.076944 -253.246371
vt 138.076944 -253.246371
vt 138.076944 -253.296371
vt 138.076944 -253.296371
vt 138.076944 -253.296371
vt 138.076944 -253.296371
vt 138.026944 -253.296371
vt 138.026944 -253.296371
vt 138.373794 -254.070032
vt 138.373794 -254.020032
vt 138.323794 -254.020032
vt 138.323794 -254.070032
vt 138.323794 -254.070032
vt 138.323794 -254.020032
vt 138.373794 -254.020032
vt 138.373794 -254.070032
vt 138.323794 -254.070032
vt 138.323794 -254.070032
vt 138.323794 -254.020032
vt 138.323794 -254.020032
vt 138.323794 -254.020032
vt 138.323794 -254.020032
vt 138.373794 -254.020032
vt 138.373794 -254.020032
vt 138.373794 -254.020032
vt 138.373794 -254.020032
vt 138.373794 -254.070032
vt 138.373794 -254.070032
vt 138.373794 -254.070032
vt 138.373794 -254.070032
vt 138.323794 -254.070032
vt 138.323794 -254.070032
vt 138.670644 -254.843694
vt 138.670644 -254.793694
vt 138.620644 -254.793694
vt 138.620644 -254.843694
vt 138.620644 -254.843694
vt 138.620644 -254.793694
vt 138.670644 -254.793694
vt 138.670644 -254.843694
vt 138.620644 -254.843694
vt 138.620644 -254.843694
vt 138.620644 -254.793694
vt 138.620644 -254.793694
vt 138.620644 -254.793694
vt 138.620644 -254.793694
vt 138.670644 -254.793694
vt 138.670644 -254.793694
vt 138.670644 -254.793694
vt 138.670644 -254.793694
vt 138.670644 -254.843694
vt 138.670644 -254.843694
vt 138.670644 -254.843694
vt 138.670644 -254.843694
vt 138.620644 -254.843694
vt 138.620644 -254.843694
vt 138.988802 -255.667506
vt 138.988802 -255.617506
vt 138.938802 -255.617506
vt 138.938802 -255.667506
vt 138.938802 -255.667506
vt 138.938802 -255.617506
vt 138.988802 -255.617506
vt 138.988802 -255.667506
vt 138.938802 -255.667506
vt 138.938802 -255.667506
vt 138.938802 -255.617506
vt 138.938802 -255.617506
vt 138.938802 -255.617506
vt 138.938802 -255.617506
vt 138.988802 -255.617506
vt 138.988802 -255.617506
vt 138.988802 -255.617506
vt 138.988802 -255.617506
vt 138.988802 -255.667506
vt 138.988802 -255.667506
vt 138.988802 -255.667506
vt 138.988802 -255.667506
vt 138.938802 -255.667506
vt 138.938802 -255.667506
vt 138.877498 -251.179871
vt 138.914581 -251.164878
vt 138.655401 -250.523853
vt 138.618317 -250.538847
vt 138.618317 -250.538847
vt 138.655401 -250.523853
vt 138.914581 -251.164878
vt 138.877498 -251.179871
vt 138.618317 -250.538847
vt 138.618317 -250.538847
vt 138.655401 -250.523853
vt 138.655401 -250.523853
vt 138.655401 -250.523853
vt 138.655401 -250.523853
vt 138.914581 -251.164878
vt 138.914581 -251.164878
vt 138.914581 -251.164878
vt 138.914581 -251.164878
vt 138.877498 -251.179871
vt 138.877498 -251.179871
vt 138.877498 -251.179871
vt 138.877498 -251.179871
vt 138.618317 -250.538847
vt 138.618317 -250.538847
vt 138.877498 -251.179871
vt 138.914581 -251.164878
vt 138.655401 -250.523853
vt 138.618317 -250.538847
vt 138.618317 -250.538847
vt 138.655401 -250.523853
vt 138.914581 -251.164878
vt 138.877498 -251.179871
vt 138.618317 -250.538847
vt 138.618317 -250.538847
vt 138.655401 -250.523853
vt 138.655401 -250.523853
vt 138.655401 -250.523853
vt 138.655401 -250.523853
vt 138.914581 -251.164878
vt 138.914581 -251.164878
vt 138.914581 -251.164878
vt 138.914581 -251.164878
vt 138.877498 -251.179871
vt 138.877498 -251.179871
vt 138.877498 -251.179871
vt 138.877498 -251.179871
vt 138.618317 -250.538847
vt 138.618317 -250.538847
vt 139.174217 -251.953200
vt 139.211562 -251.938871
vt 138.914712 -251.165210
vt 138.877367 -251.179539
vt 138.877367 -251.179539
vt 138.914712 -251.165210
vt 139.211562 -251.938871
vt 139.174217 -251.953200
vt 138.877367 -251.179539
vt 138.877367 -251.179539
vt 138.914712 -251.165210
vt 138.914712 -251.165210
vt 138.914712 -251.165210
vt 138.914712 -251.165210
vt 139.211562 -251.938871
vt 139.211562 -251.938871
vt 139.211562 -251.938871
vt 139.211562 -251.938871
vt 139.174217 -251.953200
vt 139.174217 -251.953200
vt 139.174217 -251.953200
vt 139.174217 -251.953200
vt 138.877367 -251.179539
vt 138.877367 -251.179539
vt 139.174217 -251.953200
vt 139.211562 -251.938871
vt 138.914712 -251.165210
vt 138.877367 -251.179539
vt 138.877367 -251.179539
vt 138.914712 -251.165210
vt 139.211562 -251.938871
vt 139.174217 -251.953200
vt 138.877367 -251.179539
vt 138.877367 -251.179539
vt 138.914712 -251.165210
vt 138.914712 -251.165210
vt 138.914712 -251.165210
vt 138.914712 -251.165210
vt 139.211562 -251.938871
vt 139.211562 -251.938871
vt 139.211562 -251.938871
vt 139.211562 -251.938871
vt 139.174217 -251.953200
vt 139.174217 -251.953200
vt 139.174217 -251.953200
vt 139.174217 -251.953200
vt 138.877367 -251.179539
vt 138.877367 -251.179539
vt 139.471067 -252.726861
vt 139.508412 -252.712532
vt 139.211562 -251.938871
vt 139.174217 -251.953200
vt 139.174217 -251.953200
vt 139.211562 -251.938871
vt 139.508412 -252.712532
vt 139.471067 -252.726861
vt 139.174217 -251.953200
vt 139.174217 -251.953200
vt 139.211562 -251.938871
vt 139.211562 -251.938871
vt 139.211562 -251.938871
vt 139.211562 -251.938871
vt 139.508412 -252.712532
vt 139.508412 -252.712532
vt 139.508412 -252.712532
vt 139.508412 -252.712532
vt 139.471067 -252.726861
vt 139.471067 -252.726861
vt 139.471067 -252.726861
vt 139.471067 -252.726861
vt 139.174217 -251.953200
vt 139.174217 -251.953200
vt 139.471067 -252.726861
vt 139.508412 -252.712532
vt 139.211562 -251.938871
vt 139.174217 -251.953200
vt 139.174217 -251.953200
vt 139.211562 -251.938871
vt 139.508412 -252.712532
vt 139.471067 -252.726861
vt 139.174217 -251.953200
vt 139.174217 -251.953200
vt 139.211562 -251.938871
vt 139.211562 -251.938871
vt 139.211562 -251.938871
vt 139.211562 -251.938871
vt 139.508412 -252.712532
vt 139.508412 -252.712532
vt 139.508412 -252.712532
vt 139.508412 -252.712532
vt 139.471067 -252.726861
vt 139.471067 -252.726861
vt 139.471067 -252.726861
vt 139.471067 -252.726861
vt 139.174217 -251.953200
vt 139.174217 -251.953200
vt 139.767917 -253.500522
vt 139.805262 -253.486193
vt 139.508412 -252.712532
vt 139.471067 -252.726861
vt 139.471067 -252.726861
vt 139.508412 -252.712532
vt 139.805262 -253.486193
vt 139.767917 -253.500522
vt 139.471067 -252.726861
vt 139.471067 -252.726861
vt 139.508412 -252.712532
vt 139.508412 -252.712532
vt 139.508412 -252.712532
vt 139.508412 -252.712532
vt 139.805262 -253.486193
vt 139.805262 -253.486193
vt 139.805262 -253.486193
vt 139.805262 -253.486193
vt 139.767917 -253.500522
vt 139.767917 -253.500522
vt 139.767917 -253.500522
vt 139.767917 -253.500522
vt 139.471067 -252.726861
vt 139.471067 -252.726861
vt 139.767917 -253.500522
vt 139.805262 -253.486193
vt 139.508412 -252.712532
vt 139.471067 -252.726861
vt 139.471067 -252.726861
vt 139.508412 -252.712532
vt 139.805262 -253.486193
vt 139.767917 -253.500522
vt 139.471067 -252.726861
vt 139.471067 -252.726861
vt 139.508412 -252.712532
vt 139.508412 -252.712532
vt 139.508412 -252.712532
vt 139.508412 -252.712532
vt 139.805262 -253.486193
vt 139.805262 -253.486193
vt 139.805262 -253.486193
vt 139.805262 -253.486193
vt 139.767917 -253.500522
vt 139.767917 -253.500522
vt 139.767917 -253.500522
vt 139.767917 -253.500522
vt 139.471067 -252.726861
vt 139.471067 -252.726861
vt 140.064767 -254.274183
vt 140.102112 -254.259854
vt 139.805262 -253.486193
vt 139.767917 -253.500522
vt 139.767917 -253.500522
vt 139.805262 -253.486193
vt 140.102112 -254.259854
vt 140.064767 -254.274183
vt 139.767917 -253.500522
vt 139.767917 -253.500522
vt 139.805262 -253.486193
vt 139.805262 -253.486193
vt 139.805262 -253.486193
vt 139.805262 -253.486193
vt 140.102112 -254.259854
vt 140.102112 -254.259854
vt 140.102112 -254.259854
vt 140.102112 -254.259854
vt 140.064767 -254.274183
vt 140.064767 -254.274183
vt 140.064767 -254.274183
vt 140.064767 -254.274183
vt 139.767917 -253.500522
vt 139.767917 -253.500522
vt 140.064767 -254.274183
vt 140.102112 -254.259854
vt 139.805262 -253.486193
vt 139.767917 -253.500522
vt 139.767917 -253.500522
vt 139.805262 -253.486193
vt 140.102112 -254.259854
vt 140.064767 -254.274183
vt 139.767917 -253.500522
vt 139.767917 -253.500522
vt 139.805262 -253.486193
vt 139.805262 -253.486193
vt 139.805262 -253.486193
vt 139.805262 -253.486193
vt 140.102112 -254.259854
vt 140.102112 -254.259854
vt 140.102112 -254.259854
vt 140.102112 -254.259854
vt 140.064767 -254.274183
vt 140.064767 -254.274183
vt 140.064767 -254.274183
vt 140.064767 -254.274183
vt 139.767917 -253.500522
vt 139.767917 -253.500522
vt 140.340291 -254.997647
vt 140.377672 -254.983410
vt 140.102130 -254.259901
vt 140.064749 -254.274137
vt 140.064749 -254.274137
vt 140.102130 -254.259901
vt 140.377672 -254.983410
vt 140.340291 -254.997647
vt 140.064749 -254.274137
vt 140.064749 -254.274137
vt 140.102130 -254.259901
vt 140.102130 -254.259901
vt 140.102130 -254.259901
vt 140.102130 -254.259901
vt 140.377672 -254.983410
vt 140.377672 -254.983410
vt 140.377672 -254.983410
vt 140.377672 -254.983410
vt 140.340291 -254.997647
vt 140.340291 -254.997647
vt 140.340291 -254.997647
vt 140.340291 -254.997647
vt 140.064749 -254.274137
vt 140.064749 -254.274137
vt 140.340291 -254.997647
vt 140.377672 -254.983410
vt 140.102130 -254.259901
vt 140.064749 -254.274137
vt 140.064749 -254.274137
vt 140.102130 -254.259901
vt 140.377672 -254.983410
vt 140.340291 -254.997647
vt 140.064749 -254.274137
vt 140.064749 -254.274137
vt 140.102130 -254.259901
vt 140.102130 -254.259901
vt 140.102130 -254.259901
vt 140.102130 -254.259901
vt 140.377672 -254.983410
vt 140.377672 -254.983410
vt 140.377672 -254.983410
vt 140.377672 -254.983410
vt 140.340291 -254.997647
vt 140.340291 -254.997647
vt 140.340291 -254.997647
vt 140.340291 -254.997647
vt 140.064749 -254.274137
vt 140.064749 -254.274137
vt 138.661859 -250.556350
vt 138.661859 -250.506350
vt 138.611859 -250.506350
vt 138.611859 -250.556350
vt 138.611859 -250.556350
vt 138.611859 -250.506350
vt 138.661859 -250.506350
vt 138.661859 -250.556350
vt 138.611859 -250.556350
vt 138.611859 -250.556350
vt 138.611859 -250.506350
vt 138.611859 -250.506350
vt 138.611859 -250.506350
vt 138.611859 -250.506350
vt 138.661859 -250.506350
vt 138.661859 -250.506350
vt 138.661859 -250.506350
vt 138.661859 -250.506350
vt 138.661859 -250.556350
vt 138.661859 -250.556350
vt 138.661859 -250.556350
vt 138.661859 -250.556350
vt 138.611859 -250.556350
vt 138.611859 -250.556350
vt 138.921040 -251.197374
vt 138.921040 -251.147374
vt 138.871040 -251.147374
vt 138.871040 -251.197374
vt 138.871040 -251.197374
vt 138.871040 -251.147374
vt 138.921040 -251.147374
vt 138.921040 -251.197374
vt 138.871040 -251.197374
vt 138.871040 -251.197374
vt 138.871040 -251.147374
vt 138.871040 -251.147374
vt 138.871040 -251.147374
vt 138.871040 -251.147374
vt 138.921040 -251.147374
vt 138.921040 -251.147374
vt 138.921040 -251.147374
vt 138.921040 -251.147374
vt 138.921040 -251.197374
vt 138.921040 -251.197374
vt 138.921040 -251.197374
vt 138.921040 -251.197374
vt 138.871040 -251.197374
vt 138.871040 -251.197374
vt 139.217890 -251.971035
vt 139.217890 -251.921035
vt 139.167890 -251.921035
vt 139.167890 -251.971035
vt 139.167890 -251.971035
vt 139.167890 -251.921035
vt 139.217890 -251.921035
vt 139.217890 -251.971035
vt 139.167890 -251.971035
vt 139.167890 -251.971035
vt 139.167890 -251.921035
vt 139.167890 -251.921035
vt 139.167890 -251.921035
vt 139.167890 -251.921035
vt 139.217890 -251.921035
vt 139.217890 -251.921035
vt 139.217890 -251.921035
vt 139.217890 -251.921035
vt 139.217890 -251.971035
vt 139.217890 -251.971035
vt 139.217890 -251.971035
vt 139.217890 -251.971035
vt 139.167890 -251.971035
vt 139.167890 -251.971035
vt 139.514739 -252.744697
vt 139.514739 -252.694697
vt 139.464739 -252.694697
vt 139.464739 -252.744697
vt 139.464739 -252.744697
vt 139.464739 -252.694697
vt 139.514739 -252.694697
vt 139.514739 -252.744697
vt 139.464739 -252.744697
vt 139.464739 -252.744697
vt 139.464739 -252.694697
vt 139.464739 -252.694697
vt 139.464739 -252.694697
vt 139.464739 -252.694697
vt 139.514739 -252.694697
vt 139.514739 -252.694697
vt 139.514739 -252.694697
vt 139.514739 -252.694697
vt 139.514739 -252.744697
vt 139.514739 -252.744697
vt 139.514739 -252.744697
vt 139.514739 -252.744697
vt 139.464739 -252.744697
vt 139.464739 -252.744697
vt 139.811589 -253.518358
vt 139.811589 -253.468358
vt 139.761589 -253.468358
vt 139.761589 -253.518358
vt 139.761589 -253.518358
vt 139.761589 -253.468358
vt 139.811589 -253.468358
vt 139.811589 -253.518358
vt 139.761589 -253.518358
vt 139.761589 -253.518358
vt 139.761589 -253.468358
vt 139.761589 -253.468358
vt 139.761589 -253.468358
vt 139.761589 -253.468358
vt 139.811589 -253.468358
vt 139.811589 -253.468358
vt 139.811589 -253.468358
vt 139.811589 -253.468358
vt 139.811589 -253.518358
vt 139.811589 -253.518358
vt 139.811589 -253.518358
vt 139.811589 -253.518358
vt 139.761589 -253.518358
vt 139.761589 -253.518358
vt 140.108439 -254.292019
vt 140.108439 -254.242019
vt 140.058439 -254.242019
vt 140.058439 -254.292019
vt 140.058439 -254.292019
vt 140.058439 -254.242019
vt 140.108439 -254.242019
vt 140.108439 -254.292019
vt 140.058439 -254.292019
vt 140.058439 -254.292019
vt 140.058439 -254.242019
vt 140.058439 -254.242019
vt 140.058439 -254.242019
vt 140.058439 -254.242019
vt 140.108439 -254.242019
vt 140.108439 -254.242019
vt 140.108439 -254.242019
vt 140.108439 -254.242019
vt 140.108439 -254.292019
vt 140.108439 -254.292019
vt 140.108439 -254.292019
vt 140.108439 -254.292019
vt 140.058439 -254.292019
vt 140.058439 -254.292019
vt 140.383981 -255.015528
vt 140.383981 -254.965528
vt 140.333981 -254.965528
vt 140.333981 -255.015528
vt 140.333981 -255.015528
vt 140.333981 -254.965528
vt 140.383981 -254.965528
vt 140.383981 -255.015528
vt 140.333981 -255.015528
vt 140.333981 -255.015528
vt 140.333981 -254.965528
vt 140.333981 -254.965528
vt 140.333981 -254.965528
vt 140.333981 -254.965528
vt 140.383981 -254.965528
vt 140.383981 -254.965528
vt 140.383981 -254.965528
vt 140.383981 -254.965528
vt 140.383981 -255.015528
vt 140.383981 -255.015528
vt 140.383981 -255.015528
vt 140.383981 -255.015528
vt 140.333981 -255.015528
vt 140.333981 -255.015528
f 3/3 2/2 1/1
f 4/4 3/3 1/1
f 7/7 6/6 5/5
f 8/8 7/7 5/5
f 11/11 10/10 9/9
f 12/12 11/11 9/9
f 15/15 14/14 13/13
f 16/16 15/15 13/13
f 19/19 18/18 17/17
f 20/20 19/19 17/17
f 23/23 22/22 21/21
f 24/24 23/23 21/21
f 27/27 26/26 25/25
f 28/28 27/27 25/25
f 31/31 30/30 29/29
f 32/32 31/31 29/29
f 35/35 34/34 33/33
f 36/36 35/35 33/33
f 39/39 38/38 37/37
f 40/40 39/39 37/37
f 43/43 42/42 41/41
f 44/44 43/43 41/41
f 47/47 46/46 45/45
f 48/48 47/47 45/45
f 51/51 50/50 49/49
f 52/52 51/51 49/49
f 55/55 54/54 53/53
f 56/56 55/55 53/53
f 59/59 58/58 57/57
f 60/60 59/59 57/57
f 63/63 62/62 61/61
f 64/64 63/63 61/61
f 67/67 66/66 65/65
f 68/68 67/67 65/65
f 71/71 70/70 69/69
f 72/72 71/71 69/69
f 75/75 74/74 73/73
f 76/76 75/75 73/73
f 79/79 78/78 77/77
f 80/80 79/79 77/77
f 83/83 82/82 81/81
f 84/84 83/83 81/81
f 87/87 86/86 85/85
f 88/88 87/87 85/85
f 91/91 90/90 89/89
f 92/92 91/91 89/89
f 95/95 94/94 93/93
f 96/96 95/95 93/93
f 99/99 98/98 97/97
f 100/100 99/99 97/97
f 103/103 102/102 101/101
f 104/104 103/103 101/101
f 107/107 106/106 105/105
f 108/108 107/107 105/105
f 111/111 110/110 109/109
f 112/112 111/111 109/109
f 115/115 114/114 113/113
f 116/116 115/115 113/113
f 119/119 118/118 117/117
f 120/120 119/119 117/117
f 123/123 122/122 121/121
f 124/124 123/123 121/121
f 127/127 126/126 125/125
f 128/128 127/127 125/125
f 131/131 130/130 129/129
f 132/132 131/131 129/129
f 135/135 134/134 133/133
f 136/136 135/135 133/133
f 139/139 138/138 137/137
f 140/140 139/139 137/137
f 143/143 142/142 141/141
f 144/144 143/143 141/141
f 147/147 146/146 145/145
f 148/148 147/147 145/145
f 151/151 150/150 149/149
f 152/152 151/151 149/149
f 155/155 154/154 153/153
f 156/156 155/155 153/153
f 159/159 158/158 157/157
f 160/160 159/159 157/157
f 163/163 162/162 161/161
f 164/164 163/163 161/161
f 167/167 166/166 165/165
f 168/168 167/167 165/165
f 171/171 170/170 169/169
f 172/172 171/171 169/169
f 175/175 174/174 173/173
f 176/176 175/175 173/173
f 179/179 178/178 177/177
f 180/180 179/179 177/177
f 183/183 182/182 181/181
f 184/184 183/183 181/181
f 187/187 186/186 185/185
f 188/188 187/187 185/185
f 191/191 190/190 189/189
f 192/192 191/191 189/189
f 195/195 194/194 193/193
f 196/196 195/195 193/193
f 199/199 198/198 197/197
f 200/200 199/199 197/197
f 203/203 202/202 201/201
f 204/204 203/203 201/201
f 207/207 206/206 205/205
f 208/208 207/207 205/205
f 211/211 210/210 209/209
f 212/212 211/211 209/209
f 215/215 214/214 213/213
f 216/216 215/215 213/213
f 219/219 218/218 217/217
f 220/220 219/219 217/217
f 223/223 222/222 221/221
f 224/224 223/223 221/221
f 227/227 226/226 225/225
f 228/228 227/227 225/225
f 231/231 230/230 229/229
f 232/232 231/231 229/229
f 235/235 234/234 233/233
f 236/236 235/235 233/233
f 239/239 238/238 237/237
f 240/240 239/239 237/237
f 243/243 242/242 241/241
f 244/244 243/243 241/241
f 247/247 246/246 245/245
f 248/248 247/247 245/245
f 251/251 250/250 249/249
f 252/252 251/251 249/249
f 255/255 254/254 253/253
f 256/256 255/255 253/253
f 259/259 258/258 257/257
f 260/260 259/259 257/257
f 263/263 262/262 261/261
f 264/264 263/263 261/261
f 267/267 266/266 265/265
f 268/268 267/267 265/265
f 271/271 270/270 269/269
f 272/272 271/271 269/269
f 275/275 274/274 273/273
f 276/276 275/275 273/273
f 279/279 278/278 277/277
f 280/280 279/279 277/277
f 283/283 282/282 281/281
f 284/284 283/283 281/281
f 287/287 286/286 285/285
f 288/288 287/287 285/285
f 291/291 290/290 289/289
f 292/292 291/291 289/289
f 295/295 294/294 293/293
f 296/296 295/295 293/293
f 299/299 298/298 297/297
f 300/300 299/299 297/297
f 303/303 302/302 301/301
f 304/304 303/303 301/301
f 307/307 306/306 305/305
f 308/308 307/307 305/305
f 311/311 310/310 309/309
f 312/312 311/311 309/309
f 315/315 314/314 313/313
f 316/316 315/315 313/313
f 319/319 318/318 317/317
f 320/320 319/319 317/317
f 323/323 322/322 321/321
f 324/324 323/323 321/321
f 327/327 326/326 325/325
f 328/328 327/327 325/325
f 331/331 330/330 329/329
f 332/332 331/331 329/329
f 335/335 334/334 333/333
f 336/336 335/335 333/333
f 339/339 338/338 337/337
f 340/340 339/339 337/337
f 343/343 342/342 341/341
f 344/344 343/343 341/341
f 347/347 346/346 345/345
f 348/348 347/347 345/345
f 351/351 350/350 349/349
f 352/352 351/351 349/349
f 355/355 354/354 353/353
f 356/356 355/355 353/353
f 359/359 358/358 357/357
f 360/360 359/359 357/357
f 363/363 362/362 361/361
f 364/364 363/363 361/361
f 367/367 366/366 365/365
f 368/368 367/367 365/365
f 371/371 370/370 369/369
f 372/372 371/371 369/369
f 375/375 374/374 373/373
f 376/376 375/375 373/373
f 379/379 378/378 377/377
f 380/380 379/379 377/377
f 383/383 382/382 381/381
f 384/384 383/383 381/381
f 387/387 386/386 385/385
f 388/388 387/387 385/385
f 391/391 390/390 389/389
f 392/392 391/391 389/389
f 395/395 394/394 393/393
f 396/396 395/395 393/393
f 399/399 398/398 397/397
f 400/400 399/399 397/397
f 403/403 402/402 401/401
f 404/404 403/403 401/401
f 407/407 406/406 405/405
f 408/408 407/407 405/405
f 411/411 410/410 409/409
f 412/412 411/411 409/409
f 415/415 414/414 413/413
f 416/416 415/415 413/413
f 419/419 418/418 417/417
f 420/420 419/419 417/417
f 423/423 422/422 421/421
f 424/424 423/423 421/421
f 427/427 426/426 425/425
f 428/428 427/427 425/425
f 431/431 430/430 429/429
f 432/432 431/431 429/429
f 435/435 434/434 433/433
f 436/436 435/435 433/433
f 439/439 438/438 437/437
f 440/440 439/439 437/437
f 443/443 442/442 441/441
f 444/444 443/443 441/441
f 447/447 446/446 445/445
f 448/448 447/447 445/445
f 451/451 450/450 449/449
f 452/452 451/451 449/449
f 455/455 454/454 453/453
f 456/456 455/455 453/453
f 459/459 458/458 457/457
f 460/460 459/459 457/457
f 463/463 462/462 461/461
f 464/464 463/463 461/461
f 467/467 466/466 465/465
f 468/468 467/467 465/465
f 471/471 470/470 469/469
f 472/472 471/471 469/469
f 475/475 474/474 473/473
f 476/476 475/475 473/473
f 479/479 478/478 477/477
f 480/480 479/479 477/477
f 483/483 482/482 481/481
f 484/484 483/483 481/481
f 487/487 486/486 485/485
f 488/488 487/487 485/485
f 491/491 490/490 489/489
f 492/492 491/491 489/489
f 495/495 494/494 493/493
f 496/496 495/495 493/493
f 499/499 498/498 497/497
f 500/500 499/499 497/497
f 503/503 502/502 501/501
f 504/504 503/503 501/501
f 507/507 506/506 505/505
f 508/508 507/507 505/505
f 511/511 510/510 509/509
f 512/512 511/511 509/509
f 515/515 514/514 513/513
f 516/516 515/515 513/513
f 519/519 518/518 517/517
f 520/520 519/519 517/517
f 523/523 522/522 521/521
f 524/524 523/523 521/521
f 527/527 526/526 525/525
f 528/528 527/527 525/525
f 531/531 530/530 529/529
f 532/532 531/531 529/529
f 535/535 534/534 533/533
f 536/536 535/535 533/533
f 539/539 538/538 537/537
f 540/540 539/539 537/537
f 543/543 542/542 541/541
f 544/544 543/543 541/541
f 547/547 546/546 545/545
f 548/548 547/547 545/545
f 551/551 550/550 549/549
f 552/552 551/551 549/549
f 555/555 554/554 553/553
f 556/556 555/555 553/553
f 559/559 558/558 557/557
f 560/560 559/559 557/557
f 563/563 562/562 561/561
f 564/564 563/563 561/561
f 567/567 566/566 565/565
f 568/568 567/567 565/565
f 571/571 570/570 569/569
f 572/572 571/571 569/569
f 575/575 574/574 573/573
f 576/576 575/575 573/573
f 579/579 578/578 577/577
f 580/580 579/579 577/577
f 583/583 582/582 581/581
f 584/584 583/583 581/581
f 587/587 586/586 585/585
f 588/588 587/587 585/585
f 591/591 590/590 589/589
f 592/592 591/591 589/589
f 595/595 594/594 593/593
f 596/596 595/595 593/593
f 599/599 598/598 597/597
f 600/600 599/599 597/597
f 603/603 602/602 601/601
f 604/604 603/603 601/601
f 607/607 606/606 605/605
f 608/608 607/607 605/605
f 611/611 610/610 609/609
f 612/612 611/611 609/609
f 615/615 614/614 613/613
f 616/616 615/615 613/613
f 619/619 618/618 617/617
f 620/620 619/619 617/617
f 623/623 622/622 621/621
f 624/624 623/623 621/621
f 627/627 626/626 625/625
f 628/628 627/627 625/625
f 631/631 630/630 629/629
f 632/632 631/631 629/629
f 635/635 634/634 633/633
f 636/636 635/635 633/633
f 639/639 638/638 637/637
f 640/640 639/639 637/637
f 643/643 642/642 641/641
f 644/644 643/643 641/641
f 647/647 646/646 645/645
f 648/648 647/647 645/645
f 651/651 650/650 649/649
f 652/652 651/651 649/649
f 655/655 654/654 653/653
f 656/656 655/655 653/653
f 659/659 658/658 657/657
f 660/660 659/659 657/657
f 663/663 662/662 661/661
f 664/664 663/663 661/661
f 667/667 666/666 665/665
f 668/668 667/667 665/665
f 671/671 670/670 669/669
f 672/672 671/671 669/669
f 675/675 674/674 673/673
f 676/676 675/675 673/673
f 679/679 678/678 677/677
f 680/680 679/679 677/677
f 683/683 682/682 681/681
f 684/684 683/683 681/681
f 687/687 686/686 685/685
f 688/688 687/687 685/685
f 691/691 690/690 689/689
f 692/692 691/691 689/689
f 695/695 694/694 693/693
f 696/696 695/695 693/693
f 699/699 698/698 697/697
f 700/700 699/699 697/697
f 703/703 702/702 701/701
f 704/704 703/703 701/701
f 707/707 706/706 705/705
f 708/708 707/707 705/705
f 711/711 710/710 709/709
f 712/712 711/711 709/709
f 715/715 714/714 713/713
f 716/716 715/715 713/713
f 719/719 718/718 717/717
f 720/720 719/719 717/717
f 723/723 722/722 721/721
f 724/724 723/723 721/721
f 727/727 726/726 725/725
f 728/728 727/727 725/725
f 731/731 730/730 729/729
f 732/732 731/731 729/729
f 735/735 734/734 733/733
f 736/736 735/735 733/733
f 739/739 738/738 737/737
f 740/740 739/739 737/737
f 743/743 742/742 741/741
f 744/744 743/743 741/741
f 747/747 746/746 745/745
f 748/748 747/747 745/745
f 751/751 750/750 749/749
f 752/752 751/751 749/749
f 755/755 754/754 753/753
f 756/756 755/755 753/753
f 759/759 758/758 757/757
f 760/760 759/759 757/757
f 763/763 762/762 761/761
f 764/764 763/763 761/761
f 767/767 766/766 765/765
f 768/768 767/767 765/765
f 771/771 770/770 769/769
f 772/772 771/771 769/769
f 775/775 774/774 773/773
f 776/776 775/775 773/773
f 779/779 778/778 777/777
f 780/780 779/779 777/777
f 783/783 782/782 781/781
f 784/784 783/783 781/781
f 787/787 786/786 785/785
f 788/788 787/787 785/785
f 791/791 790/790 789/789
f 792/792 791/791 789/789
f 795/795 794/794 793/793
f 796/796 795/795 793/793
f 799/799 798/798 797/797
f 800/800 799/799 797/797
f 803/803 802/802 801/801
f 804/804 803/803 801/801
f 807/807 806/806 805/805
f 808/808 807/807 805/805
f 811/811 810/810 809/809
f 812/812 811/811 809/809
f 815/815 814/814 813/813
f 816/816 815/815 813/813
f 819/819 818/818 817/817
f 820/820 819/819 817/817
f 823/823 822/822 821/821
f 824/824 823/823 821/821
f 827/827 826/826 825/825
f 828/828 827/827 825/825
f 831/831 830/830 829/829
f 832/832 831/831 829/829
f 835/835 834/834 833/833
f 836/836 835/835 833/833
f 839/839 838/838 837/837
f 840/840 839/839 837/837
f 843/843 842/842 841/841
f 844/844 843/843 841/841
f 847/847 846/846 845/845
f 848/848 847/847 845/845
f 851/851 850/850 849/849
f 852/852 851/851 849/849
f 855/855 854/854 853/853
f 856/856 855/855 853/853
f 859/859 858/858 857/857
f 860/860 859/859 857/857
f 863/863 862/862 861/861
f 864/864 863/863 861/861
f 867/867 866/866 865/865
f 868/868 867/867 865/865
f 871/871 870/870 869/869
f 872/872 871/871 869/869
f 875/875 874/874 873/873
f 876/876 875/875 873/873
f 879/879 878/878 877/877
f 880/880 879/879 877/877
f 883/883 882/882 881/881
f 884/884 883/883 881/881
f 887/887 886/886 885/885
f 888/888 887/887 885/885
f 891/891 890/890 889/889
f 892/892 891/891 889/889
f 895/895 894/894 893/893
f 896/896 895/895 893/893
f 899/899 898/898 897/897
f 900/900 899/899 897/897
f 903/903 902/902 901/901
f 904/904 903/903 901/901
f 907/907 906/906 905/905
f 908/908 907/907 905/905
f 911/911 910/910 909/909
f 912/912 911/911 909/909
