o DeKalb_Crowned_Road
v 25301.79891 -116660.96482 1014.14080
v 25439.63723 -117089.33452 1023.14080
v 25577.47554 -117517.70422 1014.14080
v 25349.39555 -116645.64945 1013.39659
v 25487.23386 -117074.01915 1022.39659
v 25625.07217 -117502.38885 1013.39659
v 25396.99218 -116630.33409 1012.70844
v 25534.83049 -117058.70379 1021.70844
v 25672.66881 -117487.07348 1012.70844
v 25444.58881 -116615.01872 1012.24441
v 25582.42713 -117043.38842 1021.24441
v 25720.26544 -117471.75812 1012.24441
v 25492.18544 -116599.70335 1011.95303
v 25630.02376 -117028.07305 1020.95303
v 25767.86207 -117456.44275 1011.95303
v 25539.78208 -116584.38798 1011.55634
v 25677.62039 -117012.75768 1020.55634
v 25815.45871 -117441.12738 1011.55634
v 25587.37871 -116569.07261 1011.08447
v 25725.21703 -116997.44231 1020.08447
v 25863.05534 -117425.81201 1011.08447
v 25634.97534 -116553.75724 1010.44713
v 25772.81366 -116982.12694 1019.44713
v 25910.65197 -117410.49664 1010.44713
v 25682.57198 -116538.44188 1009.72847
v 25820.41029 -116966.81158 1018.72847
v 25958.24861 -117395.18127 1009.72847
v 25730.16861 -116523.12651 1009.12117
v 25868.00693 -116951.49621 1018.12117
v 26005.84524 -117379.86591 1009.12117
v 25777.76524 -116507.81114 1008.58246
v 25915.60356 -116936.18084 1017.58246
v 26053.44187 -117364.55054 1008.58246
v 25825.36188 -116492.49577 1008.28505
v 25963.20019 -116920.86547 1017.28505
v 26101.03851 -117349.23517 1008.28505
v 25872.95851 -116477.18040 1008.09499
v 26010.79683 -116905.55010 1017.09499
v 26148.63514 -117333.91980 1008.09499
v 25920.55514 -116461.86504 1007.74582
v 26058.39346 -116890.23473 1016.74582
v 26196.23177 -117318.60443 1007.74582
v 25969.54809 -116446.10288 1007.24742
v 26105.99009 -116874.91937 1016.24742
v 26242.43209 -117303.73585 1007.24742
v 26018.64127 -116430.65572 1006.68414
v 26153.68551 -116859.91445 1015.68414
v 26288.72974 -117289.17318 1006.68414
v 26066.40514 -116415.62928 1007.10703
v 26201.38092 -116844.90954 1016.10703
v 26336.35670 -117274.18979 1007.10703
v 26114.17379 -116400.61806 1006.89559
v 26249.08112 -116829.91983 1015.89559
v 26383.98844 -117259.22161 1006.89559
v 26161.87399 -116385.62836 1006.57590
v 26296.78131 -116814.93013 1015.57590
v 26431.68864 -117244.23190 1006.57590
v 26209.57419 -116370.63865 1006.40050
v 26344.48151 -116799.94043 1015.40050
v 26479.38884 -117229.24220 1006.40050
v 26257.27438 -116355.64895 1006.02127
v 26392.18171 -116784.95072 1015.02127
v 26527.08903 -117214.25250 1006.02127
v 26304.97458 -116340.65925 1005.44021
v 26439.88191 -116769.96102 1014.44021
v 26574.78923 -117199.26280 1005.44021
v 26352.67478 -116325.66954 1004.99099
v 26487.58210 -116754.97132 1013.99099
v 26622.48943 -117184.27309 1004.99099
v 26400.37498 -116310.67984 1004.37628
v 26535.28230 -116739.98162 1013.37628
v 26670.18962 -117169.28339 1004.37628
v 26448.07517 -116295.69014 1003.99831
v 26582.98250 -116724.99191 1012.99831
v 26717.88982 -117154.29369 1003.99831
v 26495.77537 -116280.70044 1003.73129
v 26630.68269 -116710.00221 1012.73129
v 26765.59002 -117139.30399 1003.73129
v 26543.47557 -116265.71073 1003.29257
v 26678.38289 -116695.01251 1012.29257
v 26813.29022 -117124.31428 1003.29257
v 26591.17576 -116250.72103 1002.25203
v 26726.08309 -116680.02281 1011.25203
v 26860.99041 -117109.32458 1002.25203
v 26638.87596 -116235.73133 1001.35484
v 26773.78329 -116665.03310 1010.35484
v 26908.69061 -117094.33488 1001.35484
v 26686.57616 -116220.74162 1000.80197
v 26821.48348 -116650.04340 1009.80197
v 26956.39081 -117079.34517 1000.80197
v 26734.27636 -116205.75192 999.71236
v 26869.18368 -116635.05370 1008.71236
v 27004.09101 -117064.35547 999.71236
v 26781.97655 -116190.76222 998.66081
v 26916.88388 -116620.06399 1007.66081
v 27051.79120 -117049.36577 998.66081
v 26829.67675 -116175.77252 997.83782
v 26964.58407 -116605.07429 1006.83782
v 27099.49140 -117034.37607 997.83782
v 26877.37695 -116160.78281 996.77733
v 27012.28427 -116590.08459 1005.77733
v 27147.19160 -117019.38636 996.77733
v 26925.07714 -116145.79311 995.53483
v 27059.98447 -116575.09489 1004.53483
v 27194.89179 -117004.39666 995.53483
v 26972.77734 -116130.80341 994.58036
v 27107.68467 -116560.10518 1003.58036
v 27242.59199 -116989.40696 994.58036
v 27020.47754 -116115.81371 993.49955
v 27155.38486 -116545.11548 1002.49955
v 27290.29219 -116974.41726 993.49955
v 27068.17774 -116100.82400 992.71000
v 27203.08506 -116530.12578 1001.71000
v 27337.99239 -116959.42755 992.71000
v 27115.71592 -116085.88525 991.85677
v 27250.78526 -116515.13607 1000.85677
v 27385.85460 -116944.38690 991.85677
v 27163.24279 -116070.91055 991.21969
v 27298.47413 -116500.11037 1000.21969
v 27433.70546 -116929.31019 991.21969
v 27208.78347 -116056.56761 990.10578
v 27346.16299 -116485.08466 999.10578
v 27483.54252 -116913.60172 990.10578
v 27254.17477 -116041.75841 988.96598
v 27393.69895 -116469.58198 997.96598
v 27533.22312 -116897.40554 988.96598
v 27301.71072 -116026.25572 987.62037
v 27441.23490 -116454.07929 996.62037
v 27580.75908 -116881.90286 987.62037
v 27349.24667 -116010.75304 986.65448
v 27488.77085 -116438.57660 995.65448
v 27628.29503 -116866.40017 986.65448
v 27396.78262 -115995.25035 985.58408
v 27536.30680 -116423.07392 994.58408
v 27675.83098 -116850.89748 985.58408
v 27444.31858 -115979.74766 984.86680
v 27583.84275 -116407.57123 993.86680
v 27723.36693 -116835.39480 984.86680
v 27491.85453 -115964.24498 983.91789
v 27631.37870 -116392.06854 992.91789
v 27770.90288 -116819.89211 983.91789
v 27539.39048 -115948.74229 982.80280
v 27678.91466 -116376.56586 991.80280
v 27818.43883 -116804.38942 982.80280
v 27586.92643 -115933.23960 981.71872
v 27726.45061 -116361.06317 990.71872
v 27865.97479 -116788.88674 981.71872
v 27634.46238 -115917.73692 980.75418
v 27773.98656 -116345.56048 989.75418
v 27913.51074 -116773.38405 980.75418
v 27681.99833 -115902.23423 979.88226
v 27821.52251 -116330.05780 988.88226
v 27961.04669 -116757.88136 979.88226
v 27729.53429 -115886.73155 979.30067
v 27869.05846 -116314.55511 988.30067
v 28008.58264 -116742.37868 979.30067
v 27777.07024 -115871.22886 978.49259
v 27916.59442 -116299.05242 987.49259
v 28056.11859 -116726.87599 978.49259
v 27824.60619 -115855.72617 977.21469
v 27964.13037 -116283.54974 986.21469
v 28103.65455 -116711.37330 977.21469
v 27872.15587 -115840.21901 976.13039
v 28011.66632 -116268.04705 985.13039
v 28151.17677 -116695.87510 976.13039
v 27919.70801 -115824.71451 974.87621
v 28059.20329 -116252.54750 983.87621
v 28198.69857 -116680.38049 974.87621
v 27967.24501 -115809.21503 973.79692
v 28106.74029 -116237.04802 982.79692
v 28246.23557 -116664.88101 973.79692
v 28014.78201 -115793.71556 972.71618
v 28154.27729 -116221.54854 981.71618
v 28293.77257 -116649.38153 972.71618
v 28062.31901 -115778.21608 971.77316
v 28201.81429 -116206.04907 980.77316
v 28341.30957 -116633.88206 971.77316
v 28109.85601 -115762.71660 971.36255
v 28249.35129 -116190.54959 980.36255
v 28388.84657 -116618.38258 971.36255
v 28157.39300 -115747.21713 971.04231
v 28296.88829 -116175.05012 980.04231
v 28436.38357 -116602.88311 971.04231
v 28204.93000 -115731.71765 971.19865
v 28344.42528 -116159.55064 980.19865
v 28483.92057 -116587.38363 971.19865
v 28252.46700 -115716.21818 972.40169
v 28391.96228 -116144.05117 981.40169
v 28531.45757 -116571.88416 972.40169
v 28300.00400 -115700.71870 973.75840
v 28439.49928 -116128.55169 982.75840
v 28578.99456 -116556.38468 973.75840
v 28347.54100 -115685.21923 976.01109
v 28487.03628 -116113.05221 985.01109
v 28626.53156 -116540.88520 976.01109
v 28395.07800 -115669.71975 978.25001
v 28534.57328 -116097.55274 987.25001
v 28674.06856 -116525.38573 978.25001
v 28442.61500 -115654.22027 980.50201
v 28582.11028 -116082.05326 989.50201
v 28721.60556 -116509.88625 980.50201
v 28490.15200 -115638.72080 982.85559
v 28629.64728 -116066.55379 991.85559
v 28769.14256 -116494.38678 982.85559
v 28537.68899 -115623.22132 985.16274
v 28677.18428 -116051.05431 994.16274
v 28816.67956 -116478.88730 985.16274
v 28585.22599 -115607.72185 987.32795
v 28724.72127 -116035.55484 996.32795
v 28864.21656 -116463.38782 987.32795
v 28632.76299 -115592.22237 989.10262
v 28772.25827 -116020.05536 998.10262
v 28911.75356 -116447.88835 989.10262
v 28680.29999 -115576.72290 990.38565
v 28819.79527 -116004.55588 999.38565
v 28959.29055 -116432.38887 990.38565
v 28727.83699 -115561.22342 990.79960
v 28867.33227 -115989.05641 999.79960
v 29006.82755 -116416.88940 990.79960
v 28775.37399 -115545.72394 991.00000
v 28914.86927 -115973.55693 1000.00000
v 29054.36455 -116401.38992 991.00000
v 28822.91099 -115530.22447 991.00000
v 28962.40627 -115958.05746 1000.00000
v 29101.90155 -116385.89045 991.00000
v 28870.44799 -115514.72499 991.00000
v 29009.94327 -115942.55798 1000.00000
v 29149.43855 -116370.39097 991.00000
v 28917.98498 -115499.22552 991.00000
v 29057.48027 -115927.05851 1000.00000
v 29196.97555 -116354.89149 991.00000
v 28965.52198 -115483.72604 991.00000
v 29105.01726 -115911.55903 1000.00000
v 29244.51255 -116339.39202 991.00000
v 29013.05898 -115468.22657 991.00000
v 29152.55426 -115896.05955 1000.00000
v 29292.04955 -116323.89254 991.00000
v 29060.59598 -115452.72709 991.00000
v 29200.09126 -115880.56008 1000.00000
v 29339.58654 -116308.39307 991.00000
v 29108.13298 -115437.22761 991.00000
v 29247.62826 -115865.06060 1000.00000
v 29387.12354 -116292.89359 991.00000
v 29155.66998 -115421.72814 991.00000
v 29295.16526 -115849.56113 1000.00000
v 29434.66054 -116277.39412 991.00000
v 29200.41154 -115407.15024 991.00000
v 29342.70226 -115834.06165 1000.00000
v 29484.99298 -116260.97306 991.00000
v 29244.65538 -115392.05327 991.00000
v 29390.02681 -115817.92549 1000.00000
v 29535.39824 -116243.79771 991.00000
v 29280.65172 -115379.93556 991.00000
v 29437.34594 -115801.77311 1000.00000
v 29594.04017 -116223.61066 991.00000
v 29314.67491 -115366.00843 991.00000
v 29483.70805 -115783.05494 1000.00000
v 29652.74120 -116200.10146 991.00000
v 29361.01341 -115347.22697 991.00000
v 29530.04655 -115764.27348 1000.00000
v 29699.07970 -116181.32000 991.00000
v 29407.35191 -115328.44551 991.00000
v 29576.38505 -115745.49202 1000.00000
v 29745.41820 -116162.53854 991.00000
v 29484.74818 -115298.79457 991.00000
v 29622.84609 -115727.08065 1000.00000
v 29760.94400 -116155.36673 991.00000
v 29557.99371 -115278.98003 991.00000
v 29671.23698 -115714.49807 1000.00000
v 29784.48025 -116150.01610 991.00000
v 29606.51064 -115266.36628 991.00000
v 29719.62826 -115701.91697 1000.00000
v 29832.74589 -116137.46766 991.00000
v 29655.00686 -115253.78298 991.00000
v 29768.02564 -115689.35933 1000.00000
v 29881.04441 -116124.93568 991.00000
v 29707.95690 -115240.12658 991.00000
v 29816.43645 -115676.85555 1000.00000
v 29924.91600 -116113.58451 991.00000
v 29760.15834 -115227.59752 991.00000
v 29865.05894 -115665.19993 1000.00000
v 29969.95954 -116102.80233 991.00000
v 29803.02791 -115217.28884 991.00000
v 29913.66431 -115653.47640 1000.00000
v 30024.30070 -116089.66396 991.00000
v 29846.86511 -115205.66186 991.00000
v 29962.00006 -115640.68363 1000.00000
v 30077.13501 -116075.70540 991.00000
v 29891.47163 -115193.82566 991.00000
v 30010.32374 -115627.84660 1000.00000
v 30129.17584 -116061.86754 991.00000
v 29936.69267 -115181.10454 991.00000
v 30058.45846 -115614.31707 1000.00000
v 30180.22425 -116047.52959 991.00000
v 29984.82740 -115167.57501 991.00000
v 30106.59319 -115600.78754 1000.00000
v 30228.35898 -116034.00006 991.00000
v 30032.96212 -115154.04548 991.00000
v 30154.72791 -115587.25800 1000.00000
v 30276.49370 -116020.47053 991.00000
v 30081.09685 -115140.51595 991.00000
v 30202.86264 -115573.72847 1000.00000
v 30324.62843 -116006.94100 991.00000
v 30129.23157 -115126.98641 991.00000
v 30250.99736 -115560.19894 1000.00000
v 30372.76315 -115993.41146 991.00000
v 30177.36630 -115113.45688 991.00000
v 30299.13209 -115546.66941 1000.00000
v 30420.89788 -115979.88193 991.00000
v 30225.50102 -115099.92735 991.00000
v 30347.26681 -115533.13987 1000.00000
v 30469.03260 -115966.35240 991.00000
v 30273.63575 -115086.39782 991.00179
v 30395.40154 -115519.61034 1000.00179
v 30517.16733 -115952.82287 991.00179
v 30321.77047 -115072.86828 991.02137
v 30443.53626 -115506.08081 1000.02137
v 30565.30205 -115939.29333 991.02137
v 30369.90520 -115059.33875 991.28902
v 30491.67099 -115492.55128 1000.28902
v 30613.43678 -115925.76380 991.28902
v 30418.03992 -115045.80922 991.50494
v 30539.80571 -115479.02174 1000.50494
v 30661.57150 -115912.23427 991.50494
v 30466.17465 -115032.27969 992.12581
v 30587.94044 -115465.49221 1001.12581
v 30709.70623 -115898.70474 992.12581
v 30514.30937 -115018.75015 993.51260
v 30636.07516 -115451.96268 1002.51260
v 30757.84095 -115885.17521 993.51260
v 30562.44410 -115005.22062 995.09345
v 30684.20989 -115438.43315 1004.09345
v 30805.97568 -115871.64567 995.09345
v 30610.57882 -114991.69109 997.47207
v 30732.34461 -115424.90362 1006.47207
v 30854.11040 -115858.11614 997.47207
v 30658.71355 -114978.16156 1000.33229
v 30780.47934 -115411.37408 1009.33229
v 30902.24513 -115844.58661 1000.33229
v 30706.84827 -114964.63203 1003.79339
v 30828.61406 -115397.84455 1012.79339
v 30950.37985 -115831.05708 1003.79339
v 30754.98300 -114951.10249 1007.77711
v 30876.74879 -115384.31502 1016.77711
v 30998.51458 -115817.52754 1007.77711
v 30803.11772 -114937.57296 1012.05858
v 30924.88351 -115370.78549 1021.05858
v 31046.64930 -115803.99801 1012.05858
v 30851.25245 -114924.04343 1016.04861
v 30973.01824 -115357.25595 1025.04861
v 31094.78403 -115790.46848 1016.04861
v 30899.38717 -114910.51390 1019.35117
v 31021.15296 -115343.72642 1028.35117
v 31142.91875 -115776.93895 1019.35117
v 30947.52190 -114896.98436 1021.67252
v 31069.28769 -115330.19689 1030.67252
v 31191.05348 -115763.40941 1021.67252
v 30995.65662 -114883.45483 1023.61488
v 31117.42241 -115316.66736 1032.61488
v 31239.18820 -115749.87988 1023.61488
v 31043.79135 -114869.92530 1025.73138
v 31165.55714 -115303.13782 1034.73138
v 31287.32293 -115736.35035 1025.73138
v 31091.92607 -114856.39577 1028.55089
v 31213.69186 -115289.60829 1037.55089
v 31335.45765 -115722.82082 1028.55089
v 31140.06080 -114842.86623 1031.47090
v 31261.82659 -115276.07876 1040.47090
v 31383.59238 -115709.29129 1031.47090
v 31188.19552 -114829.33670 1034.24513
v 31309.96131 -115262.54923 1043.24513
v 31431.72710 -115695.76175 1034.24513
v 31236.33025 -114815.80717 1037.62866
v 31358.09604 -115249.01970 1046.62866
v 31479.86183 -115682.23222 1037.62866
v 31284.46497 -114802.27764 1040.16153
v 31406.23076 -115235.49016 1049.16153
v 31527.99655 -115668.70269 1040.16153
v 31332.65076 -114788.73441 1042.77044
v 31454.36566 -115221.96124 1051.77044
v 31576.08056 -115655.18806 1042.77044
v 31380.82829 -114775.20375 1045.50670
v 31502.50322 -115208.44180 1054.50670
v 31624.17815 -115641.67986 1045.50670
v 31428.98414 -114761.67941 1048.28401
v 31550.64084 -115194.92258 1057.28401
v 31672.29755 -115628.16575 1048.28401
v 31477.13703 -114748.15957 1051.04158
v 31598.77942 -115181.40676 1060.04158
v 31720.42181 -115614.65395 1051.04158
v 31525.27560 -114734.64375 1053.71872
v 31646.91800 -115167.89094 1062.71872
v 31768.56039 -115601.13813 1053.71872
v 31573.41418 -114721.12793 1056.29275
v 31695.05657 -115154.37512 1065.29275
v 31816.69897 -115587.62231 1056.29275
v 31621.55276 -114707.61211 1058.96203
v 31743.19515 -115140.85930 1067.96203
v 31864.83754 -115574.10649 1058.96203
v 31669.69133 -114694.09628 1061.33230
v 31791.33373 -115127.34347 1070.33230
v 31912.97612 -115560.59066 1061.33230
v 31717.82991 -114680.58046 1063.81598
v 31839.47230 -115113.82765 1072.81598
v 31961.11470 -115547.07484 1063.81598
v 31765.96849 -114667.06464 1066.50728
v 31887.61088 -115100.31183 1075.50728
v 32009.25327 -115533.55902 1066.50728
v 31814.10706 -114653.54882 1069.70043
v 31935.74946 -115086.79601 1078.70043
v 32057.39185 -115520.04320 1069.70043
v 31862.16863 -114640.05173 1072.77621
v 31983.88728 -115073.27750 1081.77621
v 32105.60592 -115506.50327 1072.77621
v 31910.27610 -114626.53217 1075.16184
v 32032.02261 -115059.75011 1084.16184
v 32153.76911 -115492.96805 1075.16184
v 31958.41142 -114613.00478 1077.24567
v 32080.15793 -115046.22272 1086.24567
v 32201.90444 -115479.44066 1077.24567
v 32006.54675 -114599.47739 1079.49498
v 32128.29326 -115032.69533 1088.49498
v 32250.03977 -115465.91328 1079.49498
v 32054.68208 -114585.95000 1081.90200
v 32176.42859 -115019.16794 1090.90200
v 32298.17510 -115452.38589 1081.90200
v 32102.81741 -114572.42261 1084.24489
v 32224.56391 -115005.64055 1093.24489
v 32346.31042 -115438.85850 1084.24489
v 32150.95273 -114558.89522 1086.63746
v 32272.69924 -114992.11316 1095.63746
v 32394.44575 -115425.33111 1086.63746
v 32199.08806 -114545.36783 1088.86169
v 32320.83457 -114978.58577 1097.86169
v 32442.58108 -115411.80372 1088.86169
v 32247.22339 -114531.84044 1091.17534
v 32368.96990 -114965.05838 1100.17534
v 32490.71640 -115398.27633 1091.17534
v 32295.35871 -114518.31305 1093.06777
v 32417.10522 -114951.53099 1102.06777
v 32538.85173 -115384.74894 1093.06777
v 32343.49404 -114504.78566 1095.38035
v 32465.24055 -114938.00360 1104.38035
v 32586.98706 -115371.22155 1095.38035
v 32391.62937 -114491.25827 1097.69633
v 32513.37588 -114924.47621 1106.69633
v 32635.12239 -115357.69416 1097.69633
v 32439.76470 -114477.73088 1099.89561
v 32561.51120 -114910.94882 1108.89561
v 32683.25771 -115344.16677 1099.89561
v 32487.90002 -114464.20349 1102.13781
v 32609.64653 -114897.42143 1111.13781
v 32731.39304 -115330.63938 1102.13781
v 32536.03535 -114450.67610 1104.59534
v 32657.78186 -114883.89404 1113.59534
v 32779.52837 -115317.11199 1104.59534
v 32584.17068 -114437.14871 1106.70492
v 32705.91719 -114870.36665 1115.70492
v 32827.66369 -115303.58460 1106.70492
v 32632.30601 -114423.62132 1108.95019
v 32754.05251 -114856.83926 1117.95019
v 32875.79902 -115290.05721 1108.95019
v 32680.44133 -114410.09393 1111.34199
v 32802.18784 -114843.31187 1120.34199
v 32923.93435 -115276.52982 1111.34199
v 32728.57666 -114396.56654 1113.85177
v 32850.32317 -114829.78448 1122.85177
v 32972.06968 -115263.00243 1113.85177
v 32776.71199 -114383.03915 1115.73329
v 32898.45850 -114816.25709 1124.73329
v 33020.20500 -115249.47504 1115.73329
v 32824.84731 -114369.51176 1117.66527
v 32946.59382 -114802.72970 1126.66527
v 33068.34033 -115235.94765 1117.66527
v 32872.98264 -114355.98437 1119.75644
v 32994.72915 -114789.20231 1128.75644
v 33116.47566 -115222.42026 1119.75644
v 32921.11797 -114342.45698 1121.47245
v 33042.86448 -114775.67492 1130.47245
v 33164.61099 -115208.89287 1121.47245
v 32969.25330 -114328.92959 1123.43328
v 33090.99980 -114762.14753 1132.43328
v 33212.74631 -115195.36548 1123.43328
v 33017.38862 -114315.40220 1124.71888
v 33139.13513 -114748.62014 1133.71888
v 33260.88164 -115181.83809 1124.71888
v 33065.52395 -114301.87481 1126.08565
v 33187.27046 -114735.09275 1135.08565
v 33309.01697 -115168.31070 1126.08565
v 33113.65928 -114288.34742 1127.39199
v 33235.40579 -114721.56536 1136.39199
v 33357.15229 -115154.78331 1127.39199
v 33170.42075 -114272.49003 1128.79270
v 33283.54161 -114708.03987 1137.79270
v 33396.66247 -115143.58972 1128.79270
v 33227.69015 -114258.72861 1130.11824
v 33332.17514 -114696.43043 1139.11824
v 33436.66014 -115134.13225 1130.11824
v 33276.32368 -114247.11916 1131.40868
v 33380.80868 -114684.82099 1140.40868
v 33485.29367 -115122.52281 1131.40868
v 33324.95722 -114235.50972 1132.55983
v 33429.44221 -114673.21154 1141.55983
v 33533.92721 -115110.91337 1132.55983
v 33373.59076 -114223.90028 1133.74290
v 33478.07575 -114661.60210 1142.74290
v 33582.56074 -115099.30392 1133.74290
v 33422.22429 -114212.29083 1134.89646
v 33526.70929 -114649.99266 1143.89646
v 33631.19428 -115087.69448 1134.89646
v 33470.85783 -114200.68139 1135.60214
v 33575.34282 -114638.38321 1144.60214
v 33679.82782 -115076.08504 1135.60214
v 33519.49136 -114189.07195 1136.27066
v 33623.97636 -114626.77377 1145.27066
v 33728.46135 -115064.47559 1136.27066
v 33568.12490 -114177.46250 1136.83533
v 33672.60989 -114615.16432 1145.83533
v 33777.09489 -115052.86615 1136.83533
v 33616.75843 -114165.85306 1137.48083
v 33721.24343 -114603.55488 1146.48083
v 33825.72842 -115041.25670 1137.48083
v 33665.39197 -114154.24361 1138.25319
v 33769.87697 -114591.94544 1147.25319
v 33874.36196 -115029.64726 1138.25319
v 33714.02551 -114142.63417 1138.93973
v 33818.51050 -114580.33599 1147.93973
v 33922.99550 -115018.03782 1138.93973
vt 126.50899 583.30482
vt 127.19819 585.44667
vt 127.88738 587.58852
vt 126.74698 583.22825
vt 127.43617 585.37010
vt 128.12536 587.51194
vt 126.98496 583.15167
vt 127.67415 585.29352
vt 128.36334 587.43537
vt 127.22294 583.07509
vt 127.91214 585.21694
vt 128.60133 587.35879
vt 127.46093 582.99852
vt 128.15012 585.14037
vt 128.83931 587.28221
vt 127.69891 582.92194
vt 128.38810 585.06379
vt 129.07729 587.20564
vt 127.93689 582.84536
vt 128.62609 584.98721
vt 129.31528 587.12906
vt 128.17488 582.76879
vt 128.86407 584.91063
vt 129.55326 587.05248
vt 128.41286 582.69221
vt 129.10205 584.83406
vt 129.79124 586.97591
vt 128.65084 582.61563
vt 129.34003 584.75748
vt 130.02923 586.89933
vt 128.88883 582.53906
vt 129.57802 584.68090
vt 130.26721 586.82275
vt 129.12681 582.46248
vt 129.81600 584.60433
vt 130.50519 586.74618
vt 129.36479 582.38590
vt 130.05398 584.52775
vt 130.74318 586.66960
vt 129.60278 582.30933
vt 130.29197 584.45117
vt 130.98116 586.59302
vt 129.84774 582.23051
vt 130.52995 584.37460
vt 131.21216 586.51868
vt 130.09321 582.15328
vt 130.76843 584.29957
vt 131.44365 586.44587
vt 130.33203 582.07815
vt 131.00690 584.22455
vt 131.68178 586.37095
vt 130.57087 582.00309
vt 131.24541 584.14960
vt 131.91994 586.29611
vt 130.80937 581.92814
vt 131.48391 584.07465
vt 132.15844 586.22116
vt 131.04787 581.85319
vt 131.72241 583.99970
vt 132.39694 586.14621
vt 131.28637 581.77824
vt 131.96091 583.92475
vt 132.63545 586.07126
vt 131.52487 581.70330
vt 132.19941 583.84981
vt 132.87395 585.99631
vt 131.76337 581.62835
vt 132.43791 583.77486
vt 133.11245 585.92137
vt 132.00187 581.55340
vt 132.67641 583.69991
vt 133.35095 585.84642
vt 132.24038 581.47845
vt 132.91491 583.62496
vt 133.58945 585.77147
vt 132.47888 581.40350
vt 133.15341 583.55001
vt 133.82795 585.69652
vt 132.71738 581.32855
vt 133.39191 583.47506
vt 134.06645 585.62157
vt 132.95588 581.25361
vt 133.63042 583.40011
vt 134.30495 585.54662
vt 133.19438 581.17866
vt 133.86892 583.32517
vt 134.54345 585.47167
vt 133.43288 581.10371
vt 134.10742 583.25022
vt 134.78195 585.39673
vt 133.67138 581.02876
vt 134.34592 583.17527
vt 135.02046 585.32178
vt 133.90988 580.95381
vt 134.58442 583.10032
vt 135.25896 585.24683
vt 134.14838 580.87886
vt 134.82292 583.02537
vt 135.49746 585.17188
vt 134.38688 580.80391
vt 135.06142 582.95042
vt 135.73596 585.09693
vt 134.62539 580.72897
vt 135.29992 582.87547
vt 135.97446 585.02198
vt 134.86389 580.65402
vt 135.53842 582.80053
vt 136.21296 584.94703
vt 135.10239 580.57907
vt 135.77692 582.72558
vt 136.45146 584.87209
vt 135.34089 580.50412
vt 136.01543 582.65063
vt 136.68996 584.79714
vt 135.57858 580.42943
vt 136.25393 582.57568
vt 136.92927 584.72193
vt 135.81621 580.35455
vt 136.49237 582.50055
vt 137.16853 584.64655
vt 136.04392 580.28284
vt 136.73081 582.42542
vt 137.41771 584.56801
vt 136.27087 580.20879
vt 136.96849 582.34791
vt 137.66612 584.48703
vt 136.50855 580.13128
vt 137.20617 582.27040
vt 137.90380 584.40951
vt 136.74623 580.05377
vt 137.44385 582.19288
vt 138.14148 584.33200
vt 136.98391 579.97625
vt 137.68153 582.11537
vt 138.37915 584.25449
vt 137.22159 579.89874
vt 137.91921 582.03786
vt 138.61683 584.17697
vt 137.45927 579.82122
vt 138.15689 581.96034
vt 138.85451 584.09946
vt 137.69695 579.74371
vt 138.39457 581.88283
vt 139.09219 584.02195
vt 137.93463 579.66620
vt 138.63225 581.80532
vt 139.32987 583.94443
vt 138.17231 579.58868
vt 138.86993 581.72780
vt 139.56755 583.86692
vt 138.40999 579.51117
vt 139.10761 581.65029
vt 139.80523 583.78941
vt 138.64767 579.43366
vt 139.34529 581.57278
vt 140.04291 583.71189
vt 138.88535 579.35614
vt 139.58297 581.49526
vt 140.28059 583.63438
vt 139.12303 579.27863
vt 139.82065 581.41775
vt 140.51827 583.55687
vt 139.36078 579.20110
vt 140.05833 581.34024
vt 140.75588 583.47938
vt 139.59854 579.12357
vt 140.29602 581.26274
vt 140.99349 583.40190
vt 139.83623 579.04608
vt 140.53370 581.18524
vt 141.23118 583.32441
vt 140.07391 578.96858
vt 140.77139 581.10774
vt 141.46886 583.24691
vt 140.31160 578.89108
vt 141.00907 581.03025
vt 141.70655 583.16941
vt 140.54928 578.81358
vt 141.24676 580.95275
vt 141.94423 583.09191
vt 140.78697 578.73609
vt 141.48444 580.87525
vt 142.18192 583.01442
vt 141.02465 578.65859
vt 141.72213 580.79775
vt 142.41960 582.93692
vt 141.26234 578.58109
vt 141.95981 580.72026
vt 142.65729 582.85942
vt 141.50002 578.50359
vt 142.19750 580.64276
vt 142.89497 582.78192
vt 141.73770 578.42610
vt 142.43518 580.56526
vt 143.13266 582.70443
vt 141.97539 578.34860
vt 142.67287 580.48776
vt 143.37034 582.62693
vt 142.21307 578.27110
vt 142.91055 580.41027
vt 143.60803 582.54943
vt 142.45076 578.19360
vt 143.14824 580.33277
vt 143.84571 582.47193
vt 142.68844 578.11611
vt 143.38592 580.25527
vt 144.08340 582.39444
vt 142.92613 578.03861
vt 143.62361 580.17777
vt 144.32108 582.31694
vt 143.16381 577.96111
vt 143.86129 580.10028
vt 144.55877 582.23944
vt 143.40150 577.88361
vt 144.09898 580.02278
vt 144.79645 582.16194
vt 143.63918 577.80612
vt 144.33666 579.94528
vt 145.03414 582.08445
vt 143.87687 577.72862
vt 144.57435 579.86778
vt 145.27182 582.00695
vt 144.11455 577.65112
vt 144.81203 579.79029
vt 145.50951 581.92945
vt 144.35224 577.57362
vt 145.04972 579.71279
vt 145.74719 581.85195
vt 144.58992 577.49613
vt 145.28740 579.63529
vt 145.98488 581.77446
vt 144.82761 577.41863
vt 145.52509 579.55780
vt 146.22256 581.69696
vt 145.06529 577.34113
vt 145.76277 579.48030
vt 146.46025 581.61946
vt 145.30298 577.26364
vt 146.00046 579.40280
vt 146.69793 581.54197
vt 145.54066 577.18614
vt 146.23814 579.32530
vt 146.93562 581.46447
vt 145.77835 577.10864
vt 146.47583 579.24781
vt 147.17330 581.38697
vt 146.00206 577.03575
vt 146.71351 579.17031
vt 147.42496 581.30487
vt 146.22328 576.96027
vt 146.95013 579.08963
vt 147.67699 581.21899
vt 146.40326 576.89968
vt 147.18673 579.00887
vt 147.97020 581.11805
vt 146.57337 576.83004
vt 147.41854 578.91527
vt 148.26371 581.00051
vt 146.80507 576.73613
vt 147.65023 578.82137
vt 148.49540 580.90660
vt 147.03676 576.64223
vt 147.88193 578.72746
vt 148.72709 580.81269
vt 147.42374 576.49397
vt 148.11423 578.63540
vt 148.80472 580.77683
vt 147.78997 576.39490
vt 148.35618 578.57249
vt 148.92240 580.75008
vt 148.03255 576.33183
vt 148.59814 578.50958
vt 149.16373 580.68734
vt 148.27503 576.26891
vt 148.84013 578.44680
vt 149.40522 580.62468
vt 148.53978 576.20063
vt 149.08218 578.38428
vt 149.62458 580.56792
vt 148.80079 576.13799
vt 149.32529 578.32600
vt 149.84980 580.51401
vt 149.01514 576.08644
vt 149.56832 578.26738
vt 150.12150 580.44832
vt 149.23433 576.02831
vt 149.81000 578.20342
vt 150.38568 580.37853
vt 149.45736 575.96913
vt 150.05162 578.13923
vt 150.64588 580.30934
vt 149.68346 575.90552
vt 150.29229 578.07159
vt 150.90112 580.23765
vt 149.92414 575.83788
vt 150.53297 578.00394
vt 151.14179 580.17000
vt 150.16481 575.77023
vt 150.77364 577.93629
vt 151.38247 580.10235
vt 150.40548 575.70258
vt 151.01431 577.86864
vt 151.62314 580.03470
vt 150.64616 575.63493
vt 151.25499 577.80099
vt 151.86382 579.96706
vt 150.88683 575.56728
vt 151.49566 577.73335
vt 152.10449 579.89941
vt 151.12751 575.49964
vt 151.73633 577.66570
vt 152.34516 579.83176
vt 151.36818 575.43199
vt 151.97701 577.59805
vt 152.58584 579.76411
vt 151.60885 575.36434
vt 152.21768 577.53040
vt 152.82651 579.69647
vt 151.84953 575.29669
vt 152.45835 577.46276
vt 153.06718 579.62882
vt 152.09020 575.22905
vt 152.69903 577.39511
vt 153.30786 579.56117
vt 152.33087 575.16140
vt 152.93970 577.32746
vt 153.54853 579.49352
vt 152.57155 575.09375
vt 153.18038 577.25981
vt 153.78920 579.42588
vt 152.81222 575.02610
vt 153.42105 577.19217
vt 154.02988 579.35823
vt 153.05289 574.95846
vt 153.66172 577.12452
vt 154.27055 579.29058
vt 153.29357 574.89081
vt 153.90240 577.05687
vt 154.51123 579.22293
vt 153.53424 574.82316
vt 154.14307 576.98922
vt 154.75190 579.15529
vt 153.77491 574.75551
vt 154.38374 576.92158
vt 154.99257 579.08764
vt 154.01559 574.68786
vt 154.62442 576.85393
vt 155.23325 579.01999
vt 154.25626 574.62022
vt 154.86509 576.78628
vt 155.47392 578.95234
vt 154.49694 574.55257
vt 155.10576 576.71863
vt 155.71459 578.88469
vt 154.73761 574.48492
vt 155.34644 576.65098
vt 155.95527 578.81705
vt 154.97828 574.41727
vt 155.58711 576.58334
vt 156.19594 578.74940
vt 155.21896 574.34963
vt 155.82779 576.51569
vt 156.43661 578.68175
vt 155.45963 574.28198
vt 156.06846 576.44804
vt 156.67729 578.61410
vt 155.70030 574.21433
vt 156.30913 576.38039
vt 156.91796 578.54646
vt 155.94098 574.14668
vt 156.54981 576.31275
vt 157.15864 578.47881
vt 156.18165 574.07904
vt 156.79048 576.24510
vt 157.39931 578.41116
vt 156.42232 574.01139
vt 157.03115 576.17745
vt 157.63998 578.34351
vt 156.66325 573.94367
vt 157.27183 576.10981
vt 157.88040 578.27594
vt 156.90414 573.87602
vt 157.51252 576.04221
vt 158.12089 578.20840
vt 157.14492 573.80840
vt 157.75320 575.97461
vt 158.36149 578.14083
vt 157.38569 573.74080
vt 157.99390 575.90703
vt 158.60211 578.07327
vt 157.62638 573.67322
vt 158.23459 575.83945
vt 158.84280 578.00569
vt 157.86707 573.60564
vt 158.47528 575.77188
vt 159.08349 577.93811
vt 158.10776 573.53806
vt 158.71598 575.70430
vt 159.32419 577.87053
vt 158.34846 573.47048
vt 158.95667 575.63672
vt 159.56488 577.80295
vt 158.58915 573.40290
vt 159.19736 575.56914
vt 159.80557 577.73537
vt 158.82984 573.33532
vt 159.43805 575.50156
vt 160.04627 577.66780
vt 159.07054 573.26774
vt 159.67875 575.43398
vt 160.28696 577.60022
vt 159.31084 573.20026
vt 159.91944 575.36639
vt 160.52803 577.53252
vt 159.55138 573.13266
vt 160.16011 575.29875
vt 160.76885 577.46484
vt 159.79206 573.06502
vt 160.40079 575.23111
vt 161.00952 577.39720
vt 160.03273 572.99739
vt 160.64147 575.16348
vt 161.25020 577.32957
vt 160.27341 572.92975
vt 160.88214 575.09584
vt 161.49088 577.26193
vt 160.51409 572.86211
vt 161.12282 575.02820
vt 161.73155 577.19429
vt 160.75476 572.79448
vt 161.36350 574.96057
vt 161.97223 577.12666
vt 160.99544 572.72684
vt 161.60417 574.89293
vt 162.21291 577.05902
vt 161.23612 572.65920
vt 161.84485 574.82529
vt 162.45358 576.99138
vt 161.47679 572.59157
vt 162.08553 574.75765
vt 162.69426 576.92374
vt 161.71747 572.52393
vt 162.32620 574.69002
vt 162.93494 576.85611
vt 161.95815 572.45629
vt 162.56688 574.62238
vt 163.17561 576.78847
vt 162.19882 572.38865
vt 162.80756 574.55474
vt 163.41629 576.72083
vt 162.43950 572.32102
vt 163.04823 574.48711
vt 163.65697 576.65320
vt 162.68018 572.25338
vt 163.28891 574.41947
vt 163.89764 576.58556
vt 162.92085 572.18574
vt 163.52959 574.35183
vt 164.13832 576.51792
vt 163.16153 572.11811
vt 163.77026 574.28420
vt 164.37900 576.45029
vt 163.40221 572.05047
vt 164.01094 574.21656
vt 164.61967 576.38265
vt 163.64288 571.98283
vt 164.25162 574.14892
vt 164.86035 576.31501
vt 163.88356 571.91520
vt 164.49229 574.08129
vt 165.10103 576.24738
vt 164.12424 571.84756
vt 164.73297 574.01365
vt 165.34170 576.17974
vt 164.36491 571.77992
vt 164.97365 573.94601
vt 165.58238 576.11210
vt 164.60559 571.71228
vt 165.21432 573.87837
vt 165.82305 576.04446
vt 164.84627 571.64465
vt 165.45500 573.81074
vt 166.06373 575.97683
vt 165.08694 571.57701
vt 165.69568 573.74310
vt 166.30441 575.90919
vt 165.32762 571.50937
vt 165.93635 573.67546
vt 166.54508 575.84155
vt 165.56830 571.44174
vt 166.17703 573.60783
vt 166.78576 575.77392
vt 165.85210 571.36245
vt 166.41771 573.54020
vt 166.98331 575.71795
vt 166.13845 571.29364
vt 166.66088 573.48215
vt 167.18330 575.67066
vt 166.38162 571.23560
vt 166.90404 573.42410
vt 167.42647 575.61261
vt 166.62479 571.17755
vt 167.14721 573.36606
vt 167.66964 575.55457
vt 166.86795 571.11950
vt 167.39038 573.30801
vt 167.91280 575.49652
vt 167.11112 571.06145
vt 167.63355 573.24996
vt 168.15597 575.43847
vt 167.35429 571.00341
vt 167.87671 573.19192
vt 168.39914 575.38043
vt 167.59746 570.94536
vt 168.11988 573.13387
vt 168.64231 575.32238
vt 167.84062 570.88731
vt 168.36305 573.07582
vt 168.88547 575.26433
vt 168.08379 570.82927
vt 168.60622 573.01777
vt 169.12864 575.20628
vt 168.32696 570.77122
vt 168.84938 572.95973
vt 169.37181 575.14824
vt 168.57013 570.71317
vt 169.09255 572.90168
vt 169.61498 575.09019
f 2/2 4/4 1/1
f 5/5 4/4 2/2
f 3/3 5/5 2/2
f 6/6 5/5 3/3
f 5/5 7/7 4/4
f 8/8 7/7 5/5
f 6/6 8/8 5/5
f 9/9 8/8 6/6
f 8/8 10/10 7/7
f 11/11 10/10 8/8
f 9/9 11/11 8/8
f 12/12 11/11 9/9
f 11/11 13/13 10/10
f 14/14 13/13 11/11
f 12/12 14/14 11/11
f 15/15 14/14 12/12
f 14/14 16/16 13/13
f 17/17 16/16 14/14
f 15/15 17/17 14/14
f 18/18 17/17 15/15
f 17/17 19/19 16/16
f 20/20 19/19 17/17
f 18/18 20/20 17/17
f 21/21 20/20 18/18
f 20/20 22/22 19/19
f 23/23 22/22 20/20
f 21/21 23/23 20/20
f 24/24 23/23 21/21
f 23/23 25/25 22/22
f 26/26 25/25 23/23
f 24/24 26/26 23/23
f 27/27 26/26 24/24
f 26/26 28/28 25/25
f 29/29 28/28 26/26
f 27/27 29/29 26/26
f 30/30 29/29 27/27
f 29/29 31/31 28/28
f 32/32 31/31 29/29
f 30/30 32/32 29/29
f 33/33 32/32 30/30
f 32/32 34/34 31/31
f 35/35 34/34 32/32
f 33/33 35/35 32/32
f 36/36 35/35 33/33
f 35/35 37/37 34/34
f 38/38 37/37 35/35
f 36/36 38/38 35/35
f 39/39 38/38 36/36
f 38/38 40/40 37/37
f 41/41 40/40 38/38
f 39/39 41/41 38/38
f 42/42 41/41 39/39
f 41/41 43/43 40/40
f 44/44 43/43 41/41
f 42/42 44/44 41/41
f 45/45 44/44 42/42
f 44/44 46/46 43/43
f 47/47 46/46 44/44
f 45/45 47/47 44/44
f 48/48 47/47 45/45
f 47/47 49/49 46/46
f 50/50 49/49 47/47
f 48/48 50/50 47/47
f 51/51 50/50 48/48
f 50/50 52/52 49/49
f 53/53 52/52 50/50
f 51/51 53/53 50/50
f 54/54 53/53 51/51
f 53/53 55/55 52/52
f 56/56 55/55 53/53
f 54/54 56/56 53/53
f 57/57 56/56 54/54
f 56/56 58/58 55/55
f 59/59 58/58 56/56
f 57/57 59/59 56/56
f 60/60 59/59 57/57
f 59/59 61/61 58/58
f 62/62 61/61 59/59
f 60/60 62/62 59/59
f 63/63 62/62 60/60
f 62/62 64/64 61/61
f 65/65 64/64 62/62
f 63/63 65/65 62/62
f 66/66 65/65 63/63
f 65/65 67/67 64/64
f 68/68 67/67 65/65
f 66/66 68/68 65/65
f 69/69 68/68 66/66
f 68/68 70/70 67/67
f 71/71 70/70 68/68
f 69/69 71/71 68/68
f 72/72 71/71 69/69
f 71/71 73/73 70/70
f 74/74 73/73 71/71
f 72/72 74/74 71/71
f 75/75 74/74 72/72
f 74/74 76/76 73/73
f 77/77 76/76 74/74
f 75/75 77/77 74/74
f 78/78 77/77 75/75
f 77/77 79/79 76/76
f 80/80 79/79 77/77
f 78/78 80/80 77/77
f 81/81 80/80 78/78
f 80/80 82/82 79/79
f 83/83 82/82 80/80
f 81/81 83/83 80/80
f 84/84 83/83 81/81
f 83/83 85/85 82/82
f 86/86 85/85 83/83
f 84/84 86/86 83/83
f 87/87 86/86 84/84
f 86/86 88/88 85/85
f 89/89 88/88 86/86
f 87/87 89/89 86/86
f 90/90 89/89 87/87
f 89/89 91/91 88/88
f 92/92 91/91 89/89
f 90/90 92/92 89/89
f 93/93 92/92 90/90
f 92/92 94/94 91/91
f 95/95 94/94 92/92
f 93/93 95/95 92/92
f 96/96 95/95 93/93
f 95/95 97/97 94/94
f 98/98 97/97 95/95
f 96/96 98/98 95/95
f 99/99 98/98 96/96
f 98/98 100/100 97/97
f 101/101 100/100 98/98
f 99/99 101/101 98/98
f 102/102 101/101 99/99
f 101/101 103/103 100/100
f 104/104 103/103 101/101
f 102/102 104/104 101/101
f 105/105 104/104 102/102
f 104/104 106/106 103/103
f 107/107 106/106 104/104
f 105/105 107/107 104/104
f 108/108 107/107 105/105
f 107/107 109/109 106/106
f 110/110 109/109 107/107
f 108/108 110/110 107/107
f 111/111 110/110 108/108
f 110/110 112/112 109/109
f 113/113 112/112 110/110
f 111/111 113/113 110/110
f 114/114 113/113 111/111
f 113/113 115/115 112/112
f 116/116 115/115 113/113
f 114/114 116/116 113/113
f 117/117 116/116 114/114
f 116/116 118/118 115/115
f 119/119 118/118 116/116
f 117/117 119/119 116/116
f 120/120 119/119 117/117
f 119/119 121/121 118/118
f 122/122 121/121 119/119
f 120/120 122/122 119/119
f 123/123 122/122 120/120
f 122/122 124/124 121/121
f 125/125 124/124 122/122
f 123/123 125/125 122/122
f 126/126 125/125 123/123
f 125/125 127/127 124/124
f 128/128 127/127 125/125
f 126/126 128/128 125/125
f 129/129 128/128 126/126
f 128/128 130/130 127/127
f 131/131 130/130 128/128
f 129/129 131/131 128/128
f 132/132 131/131 129/129
f 131/131 133/133 130/130
f 134/134 133/133 131/131
f 132/132 134/134 131/131
f 135/135 134/134 132/132
f 134/134 136/136 133/133
f 137/137 136/136 134/134
f 135/135 137/137 134/134
f 138/138 137/137 135/135
f 137/137 139/139 136/136
f 140/140 139/139 137/137
f 138/138 140/140 137/137
f 141/141 140/140 138/138
f 140/140 142/142 139/139
f 143/143 142/142 140/140
f 141/141 143/143 140/140
f 144/144 143/143 141/141
f 143/143 145/145 142/142
f 146/146 145/145 143/143
f 144/144 146/146 143/143
f 147/147 146/146 144/144
f 146/146 148/148 145/145
f 149/149 148/148 146/146
f 147/147 149/149 146/146
f 150/150 149/149 147/147
f 149/149 151/151 148/148
f 152/152 151/151 149/149
f 150/150 152/152 149/149
f 153/153 152/152 150/150
f 152/152 154/154 151/151
f 155/155 154/154 152/152
f 153/153 155/155 152/152
f 156/156 155/155 153/153
f 155/155 157/157 154/154
f 158/158 157/157 155/155
f 156/156 158/158 155/155
f 159/159 158/158 156/156
f 158/158 160/160 157/157
f 161/161 160/160 158/158
f 159/159 161/161 158/158
f 162/162 161/161 159/159
f 161/161 163/163 160/160
f 164/164 163/163 161/161
f 162/162 164/164 161/161
f 165/165 164/164 162/162
f 164/164 166/166 163/163
f 167/167 166/166 164/164
f 165/165 167/167 164/164
f 168/168 167/167 165/165
f 167/167 169/169 166/166
f 170/170 169/169 167/167
f 168/168 170/170 167/167
f 171/171 170/170 168/168
f 170/170 172/172 169/169
f 173/173 172/172 170/170
f 171/171 173/173 170/170
f 174/174 173/173 171/171
f 173/173 175/175 172/172
f 176/176 175/175 173/173
f 174/174 176/176 173/173
f 177/177 176/176 174/174
f 176/176 178/178 175/175
f 179/179 178/178 176/176
f 177/177 179/179 176/176
f 180/180 179/179 177/177
f 179/179 181/181 178/178
f 182/182 181/181 179/179
f 180/180 182/182 179/179
f 183/183 182/182 180/180
f 182/182 184/184 181/181
f 185/185 184/184 182/182
f 183/183 185/185 182/182
f 186/186 185/185 183/183
f 185/185 187/187 184/184
f 188/188 187/187 185/185
f 186/186 188/188 185/185
f 189/189 188/188 186/186
f 188/188 190/190 187/187
f 191/191 190/190 188/188
f 189/189 191/191 188/188
f 192/192 191/191 189/189
f 191/191 193/193 190/190
f 194/194 193/193 191/191
f 192/192 194/194 191/191
f 195/195 194/194 192/192
f 194/194 196/196 193/193
f 197/197 196/196 194/194
f 195/195 197/197 194/194
f 198/198 197/197 195/195
f 197/197 199/199 196/196
f 200/200 199/199 197/197
f 198/198 200/200 197/197
f 201/201 200/200 198/198
f 200/200 202/202 199/199
f 203/203 202/202 200/200
f 201/201 203/203 200/200
f 204/204 203/203 201/201
f 203/203 205/205 202/202
f 206/206 205/205 203/203
f 204/204 206/206 203/203
f 207/207 206/206 204/204
f 206/206 208/208 205/205
f 209/209 208/208 206/206
f 207/207 209/209 206/206
f 210/210 209/209 207/207
f 209/209 211/211 208/208
f 212/212 211/211 209/209
f 210/210 212/212 209/209
f 213/213 212/212 210/210
f 212/212 214/214 211/211
f 215/215 214/214 212/212
f 213/213 215/215 212/212
f 216/216 215/215 213/213
f 215/215 217/217 214/214
f 218/218 217/217 215/215
f 216/216 218/218 215/215
f 219/219 218/218 216/216
f 218/218 220/220 217/217
f 221/221 220/220 218/218
f 219/219 221/221 218/218
f 222/222 221/221 219/219
f 221/221 223/223 220/220
f 224/224 223/223 221/221
f 222/222 224/224 221/221
f 225/225 224/224 222/222
f 224/224 226/226 223/223
f 227/227 226/226 224/224
f 225/225 227/227 224/224
f 228/228 227/227 225/225
f 227/227 229/229 226/226
f 230/230 229/229 227/227
f 228/228 230/230 227/227
f 231/231 230/230 228/228
f 230/230 232/232 229/229
f 233/233 232/232 230/230
f 231/231 233/233 230/230
f 234/234 233/233 231/231
f 233/233 235/235 232/232
f 236/236 235/235 233/233
f 234/234 236/236 233/233
f 237/237 236/236 234/234
f 236/236 238/238 235/235
f 239/239 238/238 236/236
f 237/237 239/239 236/236
f 240/240 239/239 237/237
f 239/239 241/241 238/238
f 242/242 241/241 239/239
f 240/240 242/242 239/239
f 243/243 242/242 240/240
f 242/242 244/244 241/241
f 245/245 244/244 242/242
f 243/243 245/245 242/242
f 246/246 245/245 243/243
f 245/245 247/247 244/244
f 248/248 247/247 245/245
f 246/246 248/248 245/245
f 249/249 248/248 246/246
f 248/248 250/250 247/247
f 251/251 250/250 248/248
f 249/249 251/251 248/248
f 252/252 251/251 249/249
f 251/251 253/253 250/250
f 254/254 253/253 251/251
f 252/252 254/254 251/251
f 255/255 254/254 252/252
f 254/254 256/256 253/253
f 257/257 256/256 254/254
f 255/255 257/257 254/254
f 258/258 257/257 255/255
f 257/257 259/259 256/256
f 260/260 259/259 257/257
f 258/258 260/260 257/257
f 261/261 260/260 258/258
f 260/260 262/262 259/259
f 263/263 262/262 260/260
f 261/261 263/263 260/260
f 264/264 263/263 261/261
f 263/263 265/265 262/262
f 266/266 265/265 263/263
f 264/264 266/266 263/263
f 267/267 266/266 264/264
f 266/266 268/268 265/265
f 269/269 268/268 266/266
f 267/267 269/269 266/266
f 270/270 269/269 267/267
f 269/269 271/271 268/268
f 272/272 271/271 269/269
f 270/270 272/272 269/269
f 273/273 272/272 270/270
f 272/272 274/274 271/271
f 275/275 274/274 272/272
f 273/273 275/275 272/272
f 276/276 275/275 273/273
f 275/275 277/277 274/274
f 278/278 277/277 275/275
f 276/276 278/278 275/275
f 279/279 278/278 276/276
f 278/278 280/280 277/277
f 281/281 280/280 278/278
f 279/279 281/281 278/278
f 282/282 281/281 279/279
f 281/281 283/283 280/280
f 284/284 283/283 281/281
f 282/282 284/284 281/281
f 285/285 284/284 282/282
f 284/284 286/286 283/283
f 287/287 286/286 284/284
f 285/285 287/287 284/284
f 288/288 287/287 285/285
f 287/287 289/289 286/286
f 290/290 289/289 287/287
f 288/288 290/290 287/287
f 291/291 290/290 288/288
f 290/290 292/292 289/289
f 293/293 292/292 290/290
f 291/291 293/293 290/290
f 294/294 293/293 291/291
f 293/293 295/295 292/292
f 296/296 295/295 293/293
f 294/294 296/296 293/293
f 297/297 296/296 294/294
f 296/296 298/298 295/295
f 299/299 298/298 296/296
f 297/297 299/299 296/296
f 300/300 299/299 297/297
f 299/299 301/301 298/298
f 302/302 301/301 299/299
f 300/300 302/302 299/299
f 303/303 302/302 300/300
f 302/302 304/304 301/301
f 305/305 304/304 302/302
f 303/303 305/305 302/302
f 306/306 305/305 303/303
f 305/305 307/307 304/304
f 308/308 307/307 305/305
f 306/306 308/308 305/305
f 309/309 308/308 306/306
f 308/308 310/310 307/307
f 311/311 310/310 308/308
f 309/309 311/311 308/308
f 312/312 311/311 309/309
f 311/311 313/313 310/310
f 314/314 313/313 311/311
f 312/312 314/314 311/311
f 315/315 314/314 312/312
f 314/314 316/316 313/313
f 317/317 316/316 314/314
f 315/315 317/317 314/314
f 318/318 317/317 315/315
f 317/317 319/319 316/316
f 320/320 319/319 317/317
f 318/318 320/320 317/317
f 321/321 320/320 318/318
f 320/320 322/322 319/319
f 323/323 322/322 320/320
f 321/321 323/323 320/320
f 324/324 323/323 321/321
f 323/323 325/325 322/322
f 326/326 325/325 323/323
f 324/324 326/326 323/323
f 327/327 326/326 324/324
f 326/326 328/328 325/325
f 329/329 328/328 326/326
f 327/327 329/329 326/326
f 330/330 329/329 327/327
f 329/329 331/331 328/328
f 332/332 331/331 329/329
f 330/330 332/332 329/329
f 333/333 332/332 330/330
f 332/332 334/334 331/331
f 335/335 334/334 332/332
f 333/333 335/335 332/332
f 336/336 335/335 333/333
f 335/335 337/337 334/334
f 338/338 337/337 335/335
f 336/336 338/338 335/335
f 339/339 338/338 336/336
f 338/338 340/340 337/337
f 341/341 340/340 338/338
f 339/339 341/341 338/338
f 342/342 341/341 339/339
f 341/341 343/343 340/340
f 344/344 343/343 341/341
f 342/342 344/344 341/341
f 345/345 344/344 342/342
f 344/344 346/346 343/343
f 347/347 346/346 344/344
f 345/345 347/347 344/344
f 348/348 347/347 345/345
f 347/347 349/349 346/346
f 350/350 349/349 347/347
f 348/348 350/350 347/347
f 351/351 350/350 348/348
f 350/350 352/352 349/349
f 353/353 352/352 350/350
f 351/351 353/353 350/350
f 354/354 353/353 351/351
f 353/353 355/355 352/352
f 356/356 355/355 353/353
f 354/354 356/356 353/353
f 357/357 356/356 354/354
f 356/356 358/358 355/355
f 359/359 358/358 356/356
f 357/357 359/359 356/356
f 360/360 359/359 357/357
f 359/359 361/361 358/358
f 362/362 361/361 359/359
f 360/360 362/362 359/359
f 363/363 362/362 360/360
f 362/362 364/364 361/361
f 365/365 364/364 362/362
f 363/363 365/365 362/362
f 366/366 365/365 363/363
f 365/365 367/367 364/364
f 368/368 367/367 365/365
f 366/366 368/368 365/365
f 369/369 368/368 366/366
f 368/368 370/370 367/367
f 371/371 370/370 368/368
f 369/369 371/371 368/368
f 372/372 371/371 369/369
f 371/371 373/373 370/370
f 374/374 373/373 371/371
f 372/372 374/374 371/371
f 375/375 374/374 372/372
f 374/374 376/376 373/373
f 377/377 376/376 374/374
f 375/375 377/377 374/374
f 378/378 377/377 375/375
f 377/377 379/379 376/376
f 380/380 379/379 377/377
f 378/378 380/380 377/377
f 381/381 380/380 378/378
f 380/380 382/382 379/379
f 383/383 382/382 380/380
f 381/381 383/383 380/380
f 384/384 383/383 381/381
f 383/383 385/385 382/382
f 386/386 385/385 383/383
f 384/384 386/386 383/383
f 387/387 386/386 384/384
f 386/386 388/388 385/385
f 389/389 388/388 386/386
f 387/387 389/389 386/386
f 390/390 389/389 387/387
f 389/389 391/391 388/388
f 392/392 391/391 389/389
f 390/390 392/392 389/389
f 393/393 392/392 390/390
f 392/392 394/394 391/391
f 395/395 394/394 392/392
f 393/393 395/395 392/392
f 396/396 395/395 393/393
f 395/395 397/397 394/394
f 398/398 397/397 395/395
f 396/396 398/398 395/395
f 399/399 398/398 396/396
f 398/398 400/400 397/397
f 401/401 400/400 398/398
f 399/399 401/401 398/398
f 402/402 401/401 399/399
f 401/401 403/403 400/400
f 404/404 403/403 401/401
f 402/402 404/404 401/401
f 405/405 404/404 402/402
f 404/404 406/406 403/403
f 407/407 406/406 404/404
f 405/405 407/407 404/404
f 408/408 407/407 405/405
f 407/407 409/409 406/406
f 410/410 409/409 407/407
f 408/408 410/410 407/407
f 411/411 410/410 408/408
f 410/410 412/412 409/409
f 413/413 412/412 410/410
f 411/411 413/413 410/410
f 414/414 413/413 411/411
f 413/413 415/415 412/412
f 416/416 415/415 413/413
f 414/414 416/416 413/413
f 417/417 416/416 414/414
f 416/416 418/418 415/415
f 419/419 418/418 416/416
f 417/417 419/419 416/416
f 420/420 419/419 417/417
f 419/419 421/421 418/418
f 422/422 421/421 419/419
f 420/420 422/422 419/419
f 423/423 422/422 420/420
f 422/422 424/424 421/421
f 425/425 424/424 422/422
f 423/423 425/425 422/422
f 426/426 425/425 423/423
f 425/425 427/427 424/424
f 428/428 427/427 425/425
f 426/426 428/428 425/425
f 429/429 428/428 426/426
f 428/428 430/430 427/427
f 431/431 430/430 428/428
f 429/429 431/431 428/428
f 432/432 431/431 429/429
f 431/431 433/433 430/430
f 434/434 433/433 431/431
f 432/432 434/434 431/431
f 435/435 434/434 432/432
f 434/434 436/436 433/433
f 437/437 436/436 434/434
f 435/435 437/437 434/434
f 438/438 437/437 435/435
f 437/437 439/439 436/436
f 440/440 439/439 437/437
f 438/438 440/440 437/437
f 441/441 440/440 438/438
f 440/440 442/442 439/439
f 443/443 442/442 440/440
f 441/441 443/443 440/440
f 444/444 443/443 441/441
f 443/443 445/445 442/442
f 446/446 445/445 443/443
f 444/444 446/446 443/443
f 447/447 446/446 444/444
f 446/446 448/448 445/445
f 449/449 448/448 446/446
f 447/447 449/449 446/446
f 450/450 449/449 447/447
f 449/449 451/451 448/448
f 452/452 451/451 449/449
f 450/450 452/452 449/449
f 453/453 452/452 450/450
f 452/452 454/454 451/451
f 455/455 454/454 452/452
f 453/453 455/455 452/452
f 456/456 455/455 453/453
f 455/455 457/457 454/454
f 458/458 457/457 455/455
f 456/456 458/458 455/455
f 459/459 458/458 456/456
f 458/458 460/460 457/457
f 461/461 460/460 458/458
f 459/459 461/461 458/458
f 462/462 461/461 459/459
f 461/461 463/463 460/460
f 464/464 463/463 461/461
f 462/462 464/464 461/461
f 465/465 464/464 462/462
f 464/464 466/466 463/463
f 467/467 466/466 464/464
f 465/465 467/467 464/464
f 468/468 467/467 465/465
f 467/467 469/469 466/466
f 470/470 469/469 467/467
f 468/468 470/470 467/467
f 471/471 470/470 468/468
f 470/470 472/472 469/469
f 473/473 472/472 470/470
f 471/471 473/473 470/470
f 474/474 473/473 471/471
f 473/473 475/475 472/472
f 476/476 475/475 473/473
f 474/474 476/476 473/473
f 477/477 476/476 474/474
f 476/476 478/478 475/475
f 479/479 478/478 476/476
f 477/477 479/479 476/476
f 480/480 479/479 477/477
f 479/479 481/481 478/478
f 482/482 481/481 479/479
f 480/480 482/482 479/479
f 483/483 482/482 480/480
f 482/482 484/484 481/481
f 485/485 484/484 482/482
f 483/483 485/485 482/482
f 486/486 485/485 483/483
f 485/485 487/487 484/484
f 488/488 487/487 485/485
f 486/486 488/488 485/485
f 489/489 488/488 486/486
f 488/488 490/490 487/487
f 491/491 490/490 488/488
f 489/489 491/491 488/488
f 492/492 491/491 489/489
f 491/491 493/493 490/490
f 494/494 493/493 491/491
f 492/492 494/494 491/491
f 495/495 494/494 492/492
f 494/494 496/496 493/493
f 497/497 496/496 494/494
f 495/495 497/497 494/494
f 498/498 497/497 495/495
f 497/497 499/499 496/496
f 500/500 499/499 497/497
f 498/498 500/500 497/497
f 501/501 500/500 498/498
f 500/500 502/502 499/499
f 503/503 502/502 500/500
f 501/501 503/503 500/500
f 504/504 503/503 501/501
f 503/503 505/505 502/502
f 506/506 505/505 503/503
f 504/504 506/506 503/503
f 507/507 506/506 504/504
f 506/506 508/508 505/505
f 509/509 508/508 506/506
f 507/507 509/509 506/506
f 510/510 509/509 507/507
f 509/509 511/511 508/508
f 512/512 511/511 509/509
f 510/510 512/512 509/509
f 513/513 512/512 510/510
f 512/512 514/514 511/511
f 515/515 514/514 512/512
f 513/513 515/515 512/512
f 516/516 515/515 513/513
f 515/515 517/517 514/514
f 518/518 517/517 515/515
f 516/516 518/518 515/515
f 519/519 518/518 516/516
f 518/518 520/520 517/517
f 521/521 520/520 518/518
f 519/519 521/521 518/518
f 522/522 521/521 519/519
f 521/521 523/523 520/520
f 524/524 523/523 521/521
f 522/522 524/524 521/521
f 525/525 524/524 522/522
f 524/524 526/526 523/523
f 527/527 526/526 524/524
f 525/525 527/527 524/524
f 528/528 527/527 525/525
