o FancyRoach_Brick
v -20743.2868 -11941.4269 290.9760
v -20751.2528 -11543.0233 290.9760
v -20779.2472 -11543.5831 290.9760
v -20771.2812 -11941.9867 290.9760
v -20771.2812 -11941.9867 570.9760
v -20779.2472 -11543.5831 570.9760
v -20751.2528 -11543.0233 570.9760
v -20743.2868 -11941.4269 570.9760
v -20771.2812 -11941.9867 290.9760
v -20779.2472 -11543.5831 290.9760
v -20779.2472 -11543.5831 570.9760
v -20771.2812 -11941.9867 570.9760
v -20779.2472 -11543.5831 290.9760
v -20751.2528 -11543.0233 290.9760
v -20751.2528 -11543.0233 570.9760
v -20779.2472 -11543.5831 570.9760
v -20751.2528 -11543.0233 290.9760
v -20743.2868 -11941.4269 290.9760
v -20743.2868 -11941.4269 570.9760
v -20751.2528 -11543.0233 570.9760
v -20743.2868 -11941.4269 290.9760
v -20771.2812 -11941.9867 290.9760
v -20771.2812 -11941.9867 570.9760
v -20743.2868 -11941.4269 570.9760
v -20751.2125 -11545.0179 290.9760
v -20753.7223 -11421.7313 290.9760
v -20781.7165 -11422.3011 290.9760
v -20779.2067 -11545.5877 290.9760
v -20779.2067 -11545.5877 570.9760
v -20781.7165 -11422.3011 570.9760
v -20753.7223 -11421.7313 570.9760
v -20751.2125 -11545.0179 570.9760
v -20779.2067 -11545.5877 290.9760
v -20781.7165 -11422.3011 290.9760
v -20781.7165 -11422.3011 570.9760
v -20779.2067 -11545.5877 570.9760
v -20781.7165 -11422.3011 290.9760
v -20753.7223 -11421.7313 290.9760
v -20753.7223 -11421.7313 570.9760
v -20781.7165 -11422.3011 570.9760
v -20753.7223 -11421.7313 290.9760
v -20751.2125 -11545.0179 290.9760
v -20751.2125 -11545.0179 570.9760
v -20753.7223 -11421.7313 570.9760
v -20751.2125 -11545.0179 290.9760
v -20779.2067 -11545.5877 290.9760
v -20779.2067 -11545.5877 570.9760
v -20751.2125 -11545.0179 570.9760
v -20753.6806 -11423.7121 290.9760
v -20768.0040 -10763.5326 290.9760
v -20795.9974 -10764.1399 290.9760
v -20781.6740 -11424.3194 290.9760
v -20781.6740 -11424.3194 570.9760
v -20795.9974 -10764.1399 570.9760
v -20768.0040 -10763.5326 570.9760
v -20753.6806 -11423.7121 570.9760
v -20781.6740 -11424.3194 290.9760
v -20795.9974 -10764.1399 290.9760
v -20795.9974 -10764.1399 570.9760
v -20781.6740 -11424.3194 570.9760
v -20795.9974 -10764.1399 290.9760
v -20768.0040 -10763.5326 290.9760
v -20768.0040 -10763.5326 570.9760
v -20795.9974 -10764.1399 570.9760
v -20768.0040 -10763.5326 290.9760
v -20753.6806 -11423.7121 290.9760
v -20753.6806 -11423.7121 570.9760
v -20768.0040 -10763.5326 570.9760
v -20753.6806 -11423.7121 290.9760
v -20781.6740 -11424.3194 290.9760
v -20781.6740 -11424.3194 570.9760
v -20753.6806 -11423.7121 570.9760
v -20767.9610 -10765.5393 290.9760
v -20787.9193 -9823.2168 290.9760
v -20815.9130 -9823.8097 290.9760
v -20795.9547 -10766.1322 290.9760
v -20795.9547 -10766.1322 570.9760
v -20815.9130 -9823.8097 570.9760
v -20787.9193 -9823.2168 570.9760
v -20767.9610 -10765.5393 570.9760
v -20795.9547 -10766.1322 290.9760
v -20815.9130 -9823.8097 290.9760
v -20815.9130 -9823.8097 570.9760
v -20795.9547 -10766.1322 570.9760
v -20815.9130 -9823.8097 290.9760
v -20787.9193 -9823.2168 290.9760
v -20787.9193 -9823.2168 570.9760
v -20815.9130 -9823.8097 570.9760
v -20787.9193 -9823.2168 290.9760
v -20767.9610 -10765.5393 290.9760
v -20767.9610 -10765.5393 570.9760
v -20787.9193 -9823.2168 570.9760
v -20767.9610 -10765.5393 290.9760
v -20795.9547 -10766.1322 290.9760
v -20795.9547 -10766.1322 570.9760
v -20767.9610 -10765.5393 570.9760
v -20802.5905 -9838.5314 290.9760
v -19904.2550 -9819.0030 290.9760
v -19904.8635 -9791.0096 290.9760
v -20803.1990 -9810.5380 290.9760
v -20803.1990 -9810.5380 570.9760
v -19904.8635 -9791.0096 570.9760
v -19904.2550 -9819.0030 570.9760
v -20802.5905 -9838.5314 570.9760
v -20803.1990 -9810.5380 290.9760
v -19904.8635 -9791.0096 290.9760
v -19904.8635 -9791.0096 570.9760
v -20803.1990 -9810.5380 570.9760
v -19904.8635 -9791.0096 290.9760
v -19904.2550 -9819.0030 290.9760
v -19904.2550 -9819.0030 570.9760
v -19904.8635 -9791.0096 570.9760
v -19904.2550 -9819.0030 290.9760
v -20802.5905 -9838.5314 290.9760
v -20802.5905 -9838.5314 570.9760
v -19904.2550 -9819.0030 570.9760
v -20802.5905 -9838.5314 290.9760
v -20803.1990 -9810.5380 290.9760
v -20803.1990 -9810.5380 570.9760
v -20802.5905 -9838.5314 570.9760
v -19915.8298 -9814.5941 290.9760
v -19808.3619 -9914.6308 290.9760
v -19789.2842 -9894.1359 290.9760
v -19896.7521 -9794.0992 290.9760
v -19896.7521 -9794.0992 570.9760
v -19789.2842 -9894.1359 570.9760
v -19808.3619 -9914.6308 570.9760
v -19915.8298 -9814.5941 570.9760
v -19896.7521 -9794.0992 290.9760
v -19789.2842 -9894.1359 290.9760
v -19789.2842 -9894.1359 570.9760
v -19896.7521 -9794.0992 570.9760
v -19789.2842 -9894.1359 290.9760
v -19808.3619 -9914.6308 290.9760
v -19808.3619 -9914.6308 570.9760
v -19789.2842 -9894.1359 570.9760
v -19808.3619 -9914.6308 290.9760
v -19915.8298 -9814.5941 290.9760
v -19915.8298 -9814.5941 570.9760
v -19808.3619 -9914.6308 570.9760
v -19915.8298 -9814.5941 290.9760
v -19896.7521 -9794.0992 290.9760
v -19896.7521 -9794.0992 570.9760
v -19915.8298 -9814.5941 570.9760
v -19800.2376 -9917.7211 290.9760
v -19533.6351 -9911.6798 290.9760
v -19534.2694 -9883.6869 290.9760
v -19800.8719 -9889.7282 290.9760
v -19800.8719 -9889.7282 570.9760
v -19534.2694 -9883.6869 570.9760
v -19533.6351 -9911.6798 570.9760
v -19800.2376 -9917.7211 570.9760
v -19800.8719 -9889.7282 290.9760
v -19534.2694 -9883.6869 290.9760
v -19534.2694 -9883.6869 570.9760
v -19800.8719 -9889.7282 570.9760
v -19534.2694 -9883.6869 290.9760
v -19533.6351 -9911.6798 290.9760
v -19533.6351 -9911.6798 570.9760
v -19534.2694 -9883.6869 570.9760
v -19533.6351 -9911.6798 290.9760
v -19800.2376 -9917.7211 290.9760
v -19800.2376 -9917.7211 570.9760
v -19533.6351 -9911.6798 570.9760
v -19800.2376 -9917.7211 290.9760
v -19800.8719 -9889.7282 290.9760
v -19800.8719 -9889.7282 570.9760
v -19800.2376 -9917.7211 570.9760
v -19520.9352 -9898.4336 290.9760
v -19523.9731 -9742.2330 290.9760
v -19551.9678 -9742.7774 290.9760
v -19548.9299 -9898.9780 290.9760
v -19548.9299 -9898.9780 570.9760
v -19551.9678 -9742.7774 570.9760
v -19523.9731 -9742.2330 570.9760
v -19520.9352 -9898.4336 570.9760
v -19548.9299 -9898.9780 290.9760
v -19551.9678 -9742.7774 290.9760
v -19551.9678 -9742.7774 570.9760
v -19548.9299 -9898.9780 570.9760
v -19551.9678 -9742.7774 290.9760
v -19523.9731 -9742.2330 290.9760
v -19523.9731 -9742.2330 570.9760
v -19551.9678 -9742.7774 570.9760
v -19523.9731 -9742.2330 290.9760
v -19520.9352 -9898.4336 290.9760
v -19520.9352 -9898.4336 570.9760
v -19523.9731 -9742.2330 570.9760
v -19520.9352 -9898.4336 290.9760
v -19548.9299 -9898.9780 290.9760
v -19548.9299 -9898.9780 570.9760
v -19520.9352 -9898.4336 570.9760
v -19538.6691 -9757.5223 290.9760
v -17801.3565 -9722.5550 290.9760
v -17801.9199 -9694.5607 290.9760
v -19539.2325 -9729.5280 290.9760
v -19539.2325 -9729.5280 570.9760
v -17801.9199 -9694.5607 570.9760
v -17801.3565 -9722.5550 570.9760
v -19538.6691 -9757.5223 570.9760
v -19539.2325 -9729.5280 290.9760
v -17801.9199 -9694.5607 290.9760
v -17801.9199 -9694.5607 570.9760
v -19539.2325 -9729.5280 570.9760
v -17801.9199 -9694.5607 290.9760
v -17801.3565 -9722.5550 290.9760
v -17801.3565 -9722.5550 570.9760
v -17801.9199 -9694.5607 570.9760
v -17801.3565 -9722.5550 290.9760
v -19538.6691 -9757.5223 290.9760
v -19538.6691 -9757.5223 570.9760
v -17801.3565 -9722.5550 570.9760
v -19538.6691 -9757.5223 290.9760
v -19539.2325 -9729.5280 290.9760
v -19539.2325 -9729.5280 570.9760
v -19538.6691 -9757.5223 570.9760
v -17816.6532 -9707.8197 290.9760
v -17815.9677 -9747.5394 290.9760
v -17787.9718 -9747.0563 290.9760
v -17788.6573 -9707.3366 290.9760
v -17788.6573 -9707.3366 570.9760
v -17787.9718 -9747.0563 570.9760
v -17815.9677 -9747.5394 570.9760
v -17816.6532 -9707.8197 570.9760
v -17788.6573 -9707.3366 290.9760
v -17787.9718 -9747.0563 290.9760
v -17787.9718 -9747.0563 570.9760
v -17788.6573 -9707.3366 570.9760
v -17787.9718 -9747.0563 290.9760
v -17815.9677 -9747.5394 290.9760
v -17815.9677 -9747.5394 570.9760
v -17787.9718 -9747.0563 570.9760
v -17815.9677 -9747.5394 290.9760
v -17816.6532 -9707.8197 290.9760
v -17816.6532 -9707.8197 570.9760
v -17815.9677 -9747.5394 570.9760
v -17816.6532 -9707.8197 290.9760
v -17788.6573 -9707.3366 290.9760
v -17788.6573 -9707.3366 570.9760
v -17816.6532 -9707.8197 570.9760
v -17802.7262 -9760.3142 290.9760
v -17692.6506 -9758.2650 290.9760
v -17693.1718 -9730.2698 290.9760
v -17803.2474 -9732.3190 290.9760
v -17803.2474 -9732.3190 570.9760
v -17693.1718 -9730.2698 570.9760
v -17692.6506 -9758.2650 570.9760
v -17802.7262 -9760.3142 570.9760
v -17803.2474 -9732.3190 290.9760
v -17693.1718 -9730.2698 290.9760
v -17693.1718 -9730.2698 570.9760
v -17803.2474 -9732.3190 570.9760
v -17693.1718 -9730.2698 290.9760
v -17692.6506 -9758.2650 290.9760
v -17692.6506 -9758.2650 570.9760
v -17693.1718 -9730.2698 570.9760
v -17692.6506 -9758.2650 290.9760
v -17802.7262 -9760.3142 290.9760
v -17802.7262 -9760.3142 570.9760
v -17692.6506 -9758.2650 570.9760
v -17802.7262 -9760.3142 290.9760
v -17803.2474 -9732.3190 290.9760
v -17803.2474 -9732.3190 570.9760
v -17802.7262 -9760.3142 570.9760
v -17707.9283 -9743.5687 290.9760
v -17665.3830 -11851.8283 290.9760
v -17637.3887 -11851.2633 290.9760
v -17679.9340 -9743.0037 290.9760
v -17679.9340 -9743.0037 570.9760
v -17637.3887 -11851.2633 570.9760
v -17665.3830 -11851.8283 570.9760
v -17707.9283 -9743.5687 570.9760
v -17679.9340 -9743.0037 290.9760
v -17637.3887 -11851.2633 290.9760
v -17637.3887 -11851.2633 570.9760
v -17679.9340 -9743.0037 570.9760
v -17637.3887 -11851.2633 290.9760
v -17665.3830 -11851.8283 290.9760
v -17665.3830 -11851.8283 570.9760
v -17637.3887 -11851.2633 570.9760
v -17665.3830 -11851.8283 290.9760
v -17707.9283 -9743.5687 290.9760
v -17707.9283 -9743.5687 570.9760
v -17665.3830 -11851.8283 570.9760
v -17707.9283 -9743.5687 290.9760
v -17679.9340 -9743.0037 290.9760
v -17679.9340 -9743.0037 570.9760
v -17707.9283 -9743.5687 570.9760
v -17650.7038 -11836.5279 290.9760
v -17740.7024 -11838.4414 290.9760
v -17740.1072 -11866.4351 290.9760
v -17650.1086 -11864.5216 290.9760
v -17650.1086 -11864.5216 570.9760
v -17740.1072 -11866.4351 570.9760
v -17740.7024 -11838.4414 570.9760
v -17650.7038 -11836.5279 570.9760
v -17650.1086 -11864.5216 290.9760
v -17740.1072 -11866.4351 290.9760
v -17740.1072 -11866.4351 570.9760
v -17650.1086 -11864.5216 570.9760
v -17740.1072 -11866.4351 290.9760
v -17740.7024 -11838.4414 290.9760
v -17740.7024 -11838.4414 570.9760
v -17740.1072 -11866.4351 570.9760
v -17740.7024 -11838.4414 290.9760
v -17650.7038 -11836.5279 290.9760
v -17650.7038 -11836.5279 570.9760
v -17740.7024 -11838.4414 570.9760
v -17650.7038 -11836.5279 290.9760
v -17650.1086 -11864.5216 290.9760
v -17650.1086 -11864.5216 570.9760
v -17650.7038 -11836.5279 570.9760
v -17753.4202 -11851.6587 290.9760
v -17752.7347 -11891.3784 290.9760
v -17724.7388 -11890.8953 290.9760
v -17725.4243 -11851.1756 290.9760
v -17725.4243 -11851.1756 570.9760
v -17724.7388 -11890.8953 570.9760
v -17752.7347 -11891.3784 570.9760
v -17753.4202 -11851.6587 570.9760
v -17725.4243 -11851.1756 290.9760
v -17724.7388 -11890.8953 290.9760
v -17724.7388 -11890.8953 570.9760
v -17725.4243 -11851.1756 570.9760
v -17724.7388 -11890.8953 290.9760
v -17752.7347 -11891.3784 290.9760
v -17752.7347 -11891.3784 570.9760
v -17724.7388 -11890.8953 570.9760
v -17752.7347 -11891.3784 290.9760
v -17753.4202 -11851.6587 290.9760
v -17753.4202 -11851.6587 570.9760
v -17752.7347 -11891.3784 570.9760
v -17753.4202 -11851.6587 290.9760
v -17725.4243 -11851.1756 290.9760
v -17725.4243 -11851.1756 570.9760
v -17753.4202 -11851.6587 570.9760
v -17738.0355 -11876.1197 290.9760
v -19466.0971 -11910.8519 290.9760
v -19465.5345 -11938.8463 290.9760
v -17737.4729 -11904.1141 290.9760
v -17737.4729 -11904.1141 570.9760
v -19465.5345 -11938.8463 570.9760
v -19466.0971 -11910.8519 570.9760
v -17738.0355 -11876.1197 570.9760
v -17737.4729 -11904.1141 290.9760
v -19465.5345 -11938.8463 290.9760
v -19465.5345 -11938.8463 570.9760
v -17737.4729 -11904.1141 570.9760
v -19465.5345 -11938.8463 290.9760
v -19466.0971 -11910.8519 290.9760
v -19466.0971 -11910.8519 570.9760
v -19465.5345 -11938.8463 570.9760
v -19466.0971 -11910.8519 290.9760
v -17738.0355 -11876.1197 290.9760
v -17738.0355 -11876.1197 570.9760
v -19466.0971 -11910.8519 570.9760
v -17738.0355 -11876.1197 290.9760
v -17737.4729 -11904.1141 290.9760
v -17737.4729 -11904.1141 570.9760
v -17738.0355 -11876.1197 570.9760
v -19450.7991 -11925.5553 290.9760
v -19451.8572 -11871.4156 290.9760
v -19479.8519 -11871.9627 290.9760
v -19478.7938 -11926.1024 290.9760
v -19478.7938 -11926.1024 570.9760
v -19479.8519 -11871.9627 570.9760
v -19451.8572 -11871.4156 570.9760
v -19450.7991 -11925.5553 570.9760
v -19478.7938 -11926.1024 290.9760
v -19479.8519 -11871.9627 290.9760
v -19479.8519 -11871.9627 570.9760
v -19478.7938 -11926.1024 570.9760
v -19479.8519 -11871.9627 290.9760
v -19451.8572 -11871.4156 290.9760
v -19451.8572 -11871.4156 570.9760
v -19479.8519 -11871.9627 570.9760
v -19451.8572 -11871.4156 290.9760
v -19450.7991 -11925.5553 290.9760
v -19450.7991 -11925.5553 570.9760
v -19451.8572 -11871.4156 570.9760
v -19450.7991 -11925.5553 290.9760
v -19478.7938 -11926.1024 290.9760
v -19478.7938 -11926.1024 570.9760
v -19450.7991 -11925.5553 570.9760
v -19465.1107 -11858.6720 290.9760
v -19595.2533 -11861.2334 290.9760
v -19594.7023 -11889.2280 290.9760
v -19464.5597 -11886.6666 290.9760
v -19464.5597 -11886.6666 570.9760
v -19594.7023 -11889.2280 570.9760
v -19595.2533 -11861.2334 570.9760
v -19465.1107 -11858.6720 570.9760
v -19464.5597 -11886.6666 290.9760
v -19594.7023 -11889.2280 290.9760
v -19594.7023 -11889.2280 570.9760
v -19464.5597 -11886.6666 570.9760
v -19594.7023 -11889.2280 290.9760
v -19595.2533 -11861.2334 290.9760
v -19595.2533 -11861.2334 570.9760
v -19594.7023 -11889.2280 570.9760
v -19595.2533 -11861.2334 290.9760
v -19465.1107 -11858.6720 290.9760
v -19465.1107 -11858.6720 570.9760
v -19595.2533 -11861.2334 570.9760
v -19465.1107 -11858.6720 290.9760
v -19464.5597 -11886.6666 290.9760
v -19464.5597 -11886.6666 570.9760
v -19465.1107 -11858.6720 570.9760
v -19607.9989 -11874.5674 290.9760
v -19606.8850 -11918.3458 290.9760
v -19578.8941 -11917.6336 290.9760
v -19580.0080 -11873.8552 290.9760
v -19580.0080 -11873.8552 570.9760
v -19578.8941 -11917.6336 570.9760
v -19606.8850 -11918.3458 570.9760
v -19607.9989 -11874.5674 570.9760
v -19580.0080 -11873.8552 290.9760
v -19578.8941 -11917.6336 290.9760
v -19578.8941 -11917.6336 570.9760
v -19580.0080 -11873.8552 570.9760
v -19578.8941 -11917.6336 290.9760
v -19606.8850 -11918.3458 290.9760
v -19606.8850 -11918.3458 570.9760
v -19578.8941 -11917.6336 570.9760
v -19606.8850 -11918.3458 290.9760
v -19607.9989 -11874.5674 290.9760
v -19607.9989 -11874.5674 570.9760
v -19606.8850 -11918.3458 570.9760
v -19607.9989 -11874.5674 290.9760
v -19580.0080 -11873.8552 290.9760
v -19580.0080 -11873.8552 570.9760
v -19607.9989 -11874.5674 570.9760
v -19592.2003 -11902.9725 290.9760
v -20758.5889 -11926.7303 290.9760
v -20758.0187 -11954.7245 290.9760
v -19591.6301 -11930.9667 290.9760
v -19591.6301 -11930.9667 570.9760
v -20758.0187 -11954.7245 570.9760
v -20758.5889 -11926.7303 570.9760
v -19592.2003 -11902.9725 570.9760
v -19591.6301 -11930.9667 290.9760
v -20758.0187 -11954.7245 290.9760
v -20758.0187 -11954.7245 570.9760
v -19591.6301 -11930.9667 570.9760
v -20758.0187 -11954.7245 290.9760
v -20758.5889 -11926.7303 290.9760
v -20758.5889 -11926.7303 570.9760
v -20758.0187 -11954.7245 570.9760
v -20758.5889 -11926.7303 290.9760
v -19592.2003 -11902.9725 290.9760
v -19592.2003 -11902.9725 570.9760
v -20758.5889 -11926.7303 570.9760
v -19592.2003 -11902.9725 290.9760
v -19591.6301 -11930.9667 290.9760
v -19591.6301 -11930.9667 570.9760
v -19592.2003 -11902.9725 570.9760
v -22303.3561 -11271.5054 264.7660
v -21823.0996 -11260.3991 264.7660
v -21823.7469 -11232.4066 264.7660
v -22304.0034 -11243.5129 264.7660
v -22304.0034 -11243.5129 544.7660
v -21823.7469 -11232.4066 544.7660
v -21823.0996 -11260.3991 544.7660
v -22303.3561 -11271.5054 544.7660
v -22304.0034 -11243.5129 264.7660
v -21823.7469 -11232.4066 264.7660
v -21823.7469 -11232.4066 544.7660
v -22304.0034 -11243.5129 544.7660
v -21823.7469 -11232.4066 264.7660
v -21823.0996 -11260.3991 264.7660
v -21823.0996 -11260.3991 544.7660
v -21823.7469 -11232.4066 544.7660
v -21823.0996 -11260.3991 264.7660
v -22303.3561 -11271.5054 264.7660
v -22303.3561 -11271.5054 544.7660
v -21823.0996 -11260.3991 544.7660
v -22303.3561 -11271.5054 264.7660
v -22304.0034 -11243.5129 264.7660
v -22304.0034 -11243.5129 544.7660
v -22303.3561 -11271.5054 544.7660
v -21810.5047 -11248.2376 264.7660
v -21789.5396 -10887.9510 264.7660
v -21817.4923 -10886.3244 264.7660
v -21838.4574 -11246.6110 264.7660
v -21838.4574 -11246.6110 544.7660
v -21817.4923 -10886.3244 544.7660
v -21789.5396 -10887.9510 544.7660
v -21810.5047 -11248.2376 544.7660
v -21838.4574 -11246.6110 264.7660
v -21817.4923 -10886.3244 264.7660
v -21817.4923 -10886.3244 544.7660
v -21838.4574 -11246.6110 544.7660
v -21817.4923 -10886.3244 264.7660
v -21789.5396 -10887.9510 264.7660
v -21789.5396 -10887.9510 544.7660
v -21817.4923 -10886.3244 544.7660
v -21789.5396 -10887.9510 264.7660
v -21810.5047 -11248.2376 264.7660
v -21810.5047 -11248.2376 544.7660
v -21789.5396 -10887.9510 544.7660
v -21810.5047 -11248.2376 264.7660
v -21838.4574 -11246.6110 264.7660
v -21838.4574 -11246.6110 544.7660
v -21810.5047 -11248.2376 544.7660
v -21804.5969 -10902.1343 264.7660
v -21105.9219 -10903.2766 264.7660
v -21105.8761 -10875.2767 264.7660
v -21804.5511 -10874.1344 264.7660
v -21804.5511 -10874.1344 544.7660
v -21105.8761 -10875.2767 544.7660
v -21105.9219 -10903.2766 544.7660
v -21804.5969 -10902.1343 544.7660
v -21804.5511 -10874.1344 264.7660
v -21105.8761 -10875.2767 264.7660
v -21105.8761 -10875.2767 544.7660
v -21804.5511 -10874.1344 544.7660
v -21105.8761 -10875.2767 264.7660
v -21105.9219 -10903.2766 264.7660
v -21105.9219 -10903.2766 544.7660
v -21105.8761 -10875.2767 544.7660
v -21105.9219 -10903.2766 264.7660
v -21804.5969 -10902.1343 264.7660
v -21804.5969 -10902.1343 544.7660
v -21105.9219 -10903.2766 544.7660
v -21804.5969 -10902.1343 264.7660
v -21804.5511 -10874.1344 264.7660
v -21804.5511 -10874.1344 544.7660
v -21804.5969 -10902.1343 544.7660
v -21120.8623 -10887.8514 264.7660
v -21140.4019 -11532.6115 264.7660
v -21112.4147 -11533.4596 264.7660
v -21092.8751 -10888.6995 264.7660
v -21092.8751 -10888.6995 544.7660
v -21112.4147 -11533.4596 544.7660
v -21140.4019 -11532.6115 544.7660
v -21120.8623 -10887.8514 544.7660
v -21092.8751 -10888.6995 264.7660
v -21112.4147 -11533.4596 264.7660
v -21112.4147 -11533.4596 544.7660
v -21092.8751 -10888.6995 544.7660
v -21112.4147 -11533.4596 264.7660
v -21140.4019 -11532.6115 264.7660
v -21140.4019 -11532.6115 544.7660
v -21112.4147 -11533.4596 544.7660
v -21140.4019 -11532.6115 264.7660
v -21120.8623 -10887.8514 264.7660
v -21120.8623 -10887.8514 544.7660
v -21140.4019 -11532.6115 544.7660
v -21120.8623 -10887.8514 264.7660
v -21092.8751 -10888.6995 264.7660
v -21092.8751 -10888.6995 544.7660
v -21120.8623 -10887.8514 544.7660
v -21125.7344 -11518.0151 264.7660
v -21168.1778 -11519.0950 264.7660
v -21167.4656 -11547.0859 264.7660
v -21125.0222 -11546.0060 264.7660
v -21125.0222 -11546.0060 544.7660
v -21167.4656 -11547.0859 544.7660
v -21168.1778 -11519.0950 544.7660
v -21125.7344 -11518.0151 544.7660
v -21125.0222 -11546.0060 264.7660
v -21167.4656 -11547.0859 264.7660
v -21167.4656 -11547.0859 544.7660
v -21125.0222 -11546.0060 544.7660
v -21167.4656 -11547.0859 264.7660
v -21168.1778 -11519.0950 264.7660
v -21168.1778 -11519.0950 544.7660
v -21167.4656 -11547.0859 544.7660
v -21168.1778 -11519.0950 264.7660
v -21125.7344 -11518.0151 264.7660
v -21125.7344 -11518.0151 544.7660
v -21168.1778 -11519.0950 544.7660
v -21125.7344 -11518.0151 264.7660
v -21125.0222 -11546.0060 264.7660
v -21125.0222 -11546.0060 544.7660
v -21125.7344 -11518.0151 544.7660
v -21180.7519 -11531.3450 264.7660
v -21200.9219 -11922.3204 264.7660
v -21172.9591 -11923.7630 264.7660
v -21152.7891 -11532.7876 264.7660
v -21152.7891 -11532.7876 544.7660
v -21172.9591 -11923.7630 544.7660
v -21200.9219 -11922.3204 544.7660
v -21180.7519 -11531.3450 544.7660
v -21152.7891 -11532.7876 264.7660
v -21172.9591 -11923.7630 264.7660
v -21172.9591 -11923.7630 544.7660
v -21152.7891 -11532.7876 544.7660
v -21172.9591 -11923.7630 264.7660
v -21200.9219 -11922.3204 264.7660
v -21200.9219 -11922.3204 544.7660
v -21172.9591 -11923.7630 544.7660
v -21200.9219 -11922.3204 264.7660
v -21180.7519 -11531.3450 264.7660
v -21180.7519 -11531.3450 544.7660
v -21200.9219 -11922.3204 544.7660
v -21180.7519 -11531.3450 264.7660
v -21152.7891 -11532.7876 264.7660
v -21152.7891 -11532.7876 544.7660
v -21180.7519 -11531.3450 544.7660
v -21186.2454 -11908.0221 264.7660
v -21296.9198 -11910.8380 264.7660
v -21296.2076 -11938.8289 264.7660
v -21185.5332 -11936.0130 264.7660
v -21185.5332 -11936.0130 544.7660
v -21296.2076 -11938.8289 544.7660
v -21296.9198 -11910.8380 544.7660
v -21186.2454 -11908.0221 544.7660
v -21185.5332 -11936.0130 264.7660
v -21296.2076 -11938.8289 264.7660
v -21296.2076 -11938.8289 544.7660
v -21185.5332 -11936.0130 544.7660
v -21296.2076 -11938.8289 264.7660
v -21296.9198 -11910.8380 264.7660
v -21296.9198 -11910.8380 544.7660
v -21296.2076 -11938.8289 544.7660
v -21296.9198 -11910.8380 264.7660
v -21186.2454 -11908.0221 264.7660
v -21186.2454 -11908.0221 544.7660
v -21296.9198 -11910.8380 544.7660
v -21186.2454 -11908.0221 264.7660
v -21185.5332 -11936.0130 264.7660
v -21185.5332 -11936.0130 544.7660
v -21186.2454 -11908.0221 544.7660
v -21309.5716 -11923.9208 264.7660
v -21309.1265 -11979.1857 264.7660
v -21281.1274 -11978.9602 264.7660
v -21281.5725 -11923.6953 264.7660
v -21281.5725 -11923.6953 544.7660
v -21281.1274 -11978.9602 544.7660
v -21309.1265 -11979.1857 544.7660
v -21309.5716 -11923.9208 544.7660
v -21281.5725 -11923.6953 264.7660
v -21281.1274 -11978.9602 264.7660
v -21281.1274 -11978.9602 544.7660
v -21281.5725 -11923.6953 544.7660
v -21281.1274 -11978.9602 264.7660
v -21309.1265 -11979.1857 264.7660
v -21309.1265 -11979.1857 544.7660
v -21281.1274 -11978.9602 544.7660
v -21309.1265 -11979.1857 264.7660
v -21309.5716 -11923.9208 264.7660
v -21309.5716 -11923.9208 544.7660
v -21309.1265 -11979.1857 544.7660
v -21309.5716 -11923.9208 264.7660
v -21281.5725 -11923.6953 264.7660
v -21281.5725 -11923.6953 544.7660
v -21309.5716 -11923.9208 544.7660
v -21294.4816 -11964.0525 264.7660
v -22350.2120 -11990.1770 264.7660
v -22349.5194 -12018.1685 264.7660
v -21293.7890 -11992.0440 264.7660
v -21293.7890 -11992.0440 544.7660
v -22349.5194 -12018.1685 544.7660
v -22350.2120 -11990.1770 544.7660
v -21294.4816 -11964.0525 544.7660
v -21293.7890 -11992.0440 264.7660
v -22349.5194 -12018.1685 264.7660
v -22349.5194 -12018.1685 544.7660
v -21293.7890 -11992.0440 544.7660
v -22349.5194 -12018.1685 264.7660
v -22350.2120 -11990.1770 264.7660
v -22350.2120 -11990.1770 544.7660
v -22349.5194 -12018.1685 544.7660
v -22350.2120 -11990.1770 264.7660
v -21294.4816 -11964.0525 264.7660
v -21294.4816 -11964.0525 544.7660
v -22350.2120 -11990.1770 544.7660
v -21294.4816 -11964.0525 264.7660
v -21293.7890 -11992.0440 264.7660
v -21293.7890 -11992.0440 544.7660
v -21294.4816 -11964.0525 544.7660
v -22334.9544 -12006.0104 264.7660
v -22288.6450 -11257.3522 264.7660
v -22316.5916 -11255.6236 264.7660
v -22362.9010 -12004.2818 264.7660
v -22362.9010 -12004.2818 544.7660
v -22316.5916 -11255.6236 544.7660
v -22288.6450 -11257.3522 544.7660
v -22334.9544 -12006.0104 544.7660
v -22362.9010 -12004.2818 264.7660
v -22316.5916 -11255.6236 264.7660
v -22316.5916 -11255.6236 544.7660
v -22362.9010 -12004.2818 544.7660
v -22316.5916 -11255.6236 264.7660
v -22288.6450 -11257.3522 264.7660
v -22288.6450 -11257.3522 544.7660
v -22316.5916 -11255.6236 544.7660
v -22288.6450 -11257.3522 264.7660
v -22334.9544 -12006.0104 264.7660
v -22334.9544 -12006.0104 544.7660
v -22288.6450 -11257.3522 544.7660
v -22334.9544 -12006.0104 264.7660
v -22362.9010 -12004.2818 264.7660
v -22362.9010 -12004.2818 544.7660
v -22334.9544 -12006.0104 544.7660
vt 0 0
vt 1 0
vt 1 1
vt 0 1
f 4/4 3/3 2/2 1/1
f 8/4 7/3 6/2 5/1
f 12/4 11/3 10/2 9/1
f 16/4 15/3 14/2 13/1
f 20/4 19/3 18/2 17/1
f 24/4 23/3 22/2 21/1
f 28/4 27/3 26/2 25/1
f 32/4 31/3 30/2 29/1
f 36/4 35/3 34/2 33/1
f 40/4 39/3 38/2 37/1
f 44/4 43/3 42/2 41/1
f 48/4 47/3 46/2 45/1
f 52/4 51/3 50/2 49/1
f 56/4 55/3 54/2 53/1
f 60/4 59/3 58/2 57/1
f 64/4 63/3 62/2 61/1
f 68/4 67/3 66/2 65/1
f 72/4 71/3 70/2 69/1
f 76/4 75/3 74/2 73/1
f 80/4 79/3 78/2 77/1
f 84/4 83/3 82/2 81/1
f 88/4 87/3 86/2 85/1
f 92/4 91/3 90/2 89/1
f 96/4 95/3 94/2 93/1
f 100/4 99/3 98/2 97/1
f 104/4 103/3 102/2 101/1
f 108/4 107/3 106/2 105/1
f 112/4 111/3 110/2 109/1
f 116/4 115/3 114/2 113/1
f 120/4 119/3 118/2 117/1
f 124/4 123/3 122/2 121/1
f 128/4 127/3 126/2 125/1
f 132/4 131/3 130/2 129/1
f 136/4 135/3 134/2 133/1
f 140/4 139/3 138/2 137/1
f 144/4 143/3 142/2 141/1
f 148/4 147/3 146/2 145/1
f 152/4 151/3 150/2 149/1
f 156/4 155/3 154/2 153/1
f 160/4 159/3 158/2 157/1
f 164/4 163/3 162/2 161/1
f 168/4 167/3 166/2 165/1
f 172/4 171/3 170/2 169/1
f 176/4 175/3 174/2 173/1
f 180/4 179/3 178/2 177/1
f 184/4 183/3 182/2 181/1
f 188/4 187/3 186/2 185/1
f 192/4 191/3 190/2 189/1
f 196/4 195/3 194/2 193/1
f 200/4 199/3 198/2 197/1
f 204/4 203/3 202/2 201/1
f 208/4 207/3 206/2 205/1
f 212/4 211/3 210/2 209/1
f 216/4 215/3 214/2 213/1
f 220/4 219/3 218/2 217/1
f 224/4 223/3 222/2 221/1
f 228/4 227/3 226/2 225/1
f 232/4 231/3 230/2 229/1
f 236/4 235/3 234/2 233/1
f 240/4 239/3 238/2 237/1
f 244/4 243/3 242/2 241/1
f 248/4 247/3 246/2 245/1
f 252/4 251/3 250/2 249/1
f 256/4 255/3 254/2 253/1
f 260/4 259/3 258/2 257/1
f 264/4 263/3 262/2 261/1
f 268/4 267/3 266/2 265/1
f 272/4 271/3 270/2 269/1
f 276/4 275/3 274/2 273/1
f 280/4 279/3 278/2 277/1
f 284/4 283/3 282/2 281/1
f 288/4 287/3 286/2 285/1
f 292/4 291/3 290/2 289/1
f 296/4 295/3 294/2 293/1
f 300/4 299/3 298/2 297/1
f 304/4 303/3 302/2 301/1
f 308/4 307/3 306/2 305/1
f 312/4 311/3 310/2 309/1
f 316/4 315/3 314/2 313/1
f 320/4 319/3 318/2 317/1
f 324/4 323/3 322/2 321/1
f 328/4 327/3 326/2 325/1
f 332/4 331/3 330/2 329/1
f 336/4 335/3 334/2 333/1
f 340/4 339/3 338/2 337/1
f 344/4 343/3 342/2 341/1
f 348/4 347/3 346/2 345/1
f 352/4 351/3 350/2 349/1
f 356/4 355/3 354/2 353/1
f 360/4 359/3 358/2 357/1
f 364/4 363/3 362/2 361/1
f 368/4 367/3 366/2 365/1
f 372/4 371/3 370/2 369/1
f 376/4 375/3 374/2 373/1
f 380/4 379/3 378/2 377/1
f 384/4 383/3 382/2 381/1
f 388/4 387/3 386/2 385/1
f 392/4 391/3 390/2 389/1
f 396/4 395/3 394/2 393/1
f 400/4 399/3 398/2 397/1
f 404/4 403/3 402/2 401/1
f 408/4 407/3 406/2 405/1
f 412/4 411/3 410/2 409/1
f 416/4 415/3 414/2 413/1
f 420/4 419/3 418/2 417/1
f 424/4 423/3 422/2 421/1
f 428/4 427/3 426/2 425/1
f 432/4 431/3 430/2 429/1
f 436/4 435/3 434/2 433/1
f 440/4 439/3 438/2 437/1
f 444/4 443/3 442/2 441/1
f 448/4 447/3 446/2 445/1
f 452/4 451/3 450/2 449/1
f 456/4 455/3 454/2 453/1
f 460/4 459/3 458/2 457/1
f 464/4 463/3 462/2 461/1
f 468/4 467/3 466/2 465/1
f 472/4 471/3 470/2 469/1
f 476/4 475/3 474/2 473/1
f 480/4 479/3 478/2 477/1
f 484/4 483/3 482/2 481/1
f 488/4 487/3 486/2 485/1
f 492/4 491/3 490/2 489/1
f 496/4 495/3 494/2 493/1
f 500/4 499/3 498/2 497/1
f 504/4 503/3 502/2 501/1
f 508/4 507/3 506/2 505/1
f 512/4 511/3 510/2 509/1
f 516/4 515/3 514/2 513/1
f 520/4 519/3 518/2 517/1
f 524/4 523/3 522/2 521/1
f 528/4 527/3 526/2 525/1
f 532/4 531/3 530/2 529/1
f 536/4 535/3 534/2 533/1
f 540/4 539/3 538/2 537/1
f 544/4 543/3 542/2 541/1
f 548/4 547/3 546/2 545/1
f 552/4 551/3 550/2 549/1
f 556/4 555/3 554/2 553/1
f 560/4 559/3 558/2 557/1
f 564/4 563/3 562/2 561/1
f 568/4 567/3 566/2 565/1
f 572/4 571/3 570/2 569/1
f 576/4 575/3 574/2 573/1
f 580/4 579/3 578/2 577/1
f 584/4 583/3 582/2 581/1
f 588/4 587/3 586/2 585/1
f 592/4 591/3 590/2 589/1
f 596/4 595/3 594/2 593/1
f 600/4 599/3 598/2 597/1
f 604/4 603/3 602/2 601/1
f 608/4 607/3 606/2 605/1
f 612/4 611/3 610/2 609/1
f 616/4 615/3 614/2 613/1
f 620/4 619/3 618/2 617/1
f 624/4 623/3 622/2 621/1
f 628/4 627/3 626/2 625/1
f 632/4 631/3 630/2 629/1
f 636/4 635/3 634/2 633/1
f 640/4 639/3 638/2 637/1
f 644/4 643/3 642/2 641/1
f 648/4 647/3 646/2 645/1
f 652/4 651/3 650/2 649/1
f 656/4 655/3 654/2 653/1
f 660/4 659/3 658/2 657/1
f 664/4 663/3 662/2 661/1
f 668/4 667/3 666/2 665/1
f 672/4 671/3 670/2 669/1
f 676/4 675/3 674/2 673/1
f 680/4 679/3 678/2 677/1
f 684/4 683/3 682/2 681/1
f 688/4 687/3 686/2 685/1
f 692/4 691/3 690/2 689/1
f 696/4 695/3 694/2 693/1
