o FancyRoach_WarmGlass
v -18530.9240 -9700.7318 1478.4760
v -18424.9454 -9698.5988 1478.4760
v -18425.1266 -9689.6006 1478.4760
v -18531.1051 -9691.7336 1478.4760
v -18531.1051 -9691.7336 1653.4760
v -18425.1266 -9689.6006 1653.4760
v -18424.9454 -9698.5988 1653.4760
v -18530.9240 -9700.7318 1653.4760
v -18531.1051 -9691.7336 1478.4760
v -18425.1266 -9689.6006 1478.4760
v -18425.1266 -9689.6006 1653.4760
v -18531.1051 -9691.7336 1653.4760
v -18425.1266 -9689.6006 1478.4760
v -18424.9454 -9698.5988 1478.4760
v -18424.9454 -9698.5988 1653.4760
v -18425.1266 -9689.6006 1653.4760
v -18424.9454 -9698.5988 1478.4760
v -18530.9240 -9700.7318 1478.4760
v -18530.9240 -9700.7318 1653.4760
v -18424.9454 -9698.5988 1653.4760
v -18530.9240 -9700.7318 1478.4760
v -18531.1051 -9691.7336 1478.4760
v -18531.1051 -9691.7336 1653.4760
v -18530.9240 -9700.7318 1653.4760
v -18338.1114 -9696.8510 1198.4760
v -18232.1329 -9694.7180 1198.4760
v -18232.3140 -9685.7198 1198.4760
v -18338.2925 -9687.8528 1198.4760
v -18338.2925 -9687.8528 1373.4760
v -18232.3140 -9685.7198 1373.4760
v -18232.1329 -9694.7180 1373.4760
v -18338.1114 -9696.8510 1373.4760
v -18338.2925 -9687.8528 1198.4760
v -18232.3140 -9685.7198 1198.4760
v -18232.3140 -9685.7198 1373.4760
v -18338.2925 -9687.8528 1373.4760
v -18232.3140 -9685.7198 1198.4760
v -18232.1329 -9694.7180 1198.4760
v -18232.1329 -9694.7180 1373.4760
v -18232.3140 -9685.7198 1373.4760
v -18232.1329 -9694.7180 1198.4760
v -18338.1114 -9696.8510 1198.4760
v -18338.1114 -9696.8510 1373.4760
v -18232.1329 -9694.7180 1373.4760
v -18338.1114 -9696.8510 1198.4760
v -18338.2925 -9687.8528 1198.4760
v -18338.2925 -9687.8528 1373.4760
v -18338.1114 -9696.8510 1373.4760
v -18145.2989 -9692.9702 918.4760
v -18039.3203 -9690.8372 918.4760
v -18039.5014 -9681.8390 918.4760
v -18145.4800 -9683.9721 918.4760
v -18145.4800 -9683.9721 1093.4760
v -18039.5014 -9681.8390 1093.4760
v -18039.3203 -9690.8372 1093.4760
v -18145.2989 -9692.9702 1093.4760
v -18145.4800 -9683.9721 918.4760
v -18039.5014 -9681.8390 918.4760
v -18039.5014 -9681.8390 1093.4760
v -18145.4800 -9683.9721 1093.4760
v -18039.5014 -9681.8390 918.4760
v -18039.3203 -9690.8372 918.4760
v -18039.3203 -9690.8372 1093.4760
v -18039.5014 -9681.8390 1093.4760
v -18039.3203 -9690.8372 918.4760
v -18145.2989 -9692.9702 918.4760
v -18145.2989 -9692.9702 1093.4760
v -18039.3203 -9690.8372 1093.4760
v -18145.2989 -9692.9702 918.4760
v -18145.4800 -9683.9721 918.4760
v -18145.4800 -9683.9721 1093.4760
v -18145.2989 -9692.9702 1093.4760
v -17952.4863 -9689.0895 638.4760
v -17846.5078 -9686.9564 638.4760
v -17846.6889 -9677.9582 638.4760
v -17952.6674 -9680.0913 638.4760
v -17952.6674 -9680.0913 813.4760
v -17846.6889 -9677.9582 813.4760
v -17846.5078 -9686.9564 813.4760
v -17952.4863 -9689.0895 813.4760
v -17952.6674 -9680.0913 638.4760
v -17846.6889 -9677.9582 638.4760
v -17846.6889 -9677.9582 813.4760
v -17952.6674 -9680.0913 813.4760
v -17846.6889 -9677.9582 638.4760
v -17846.5078 -9686.9564 638.4760
v -17846.5078 -9686.9564 813.4760
v -17846.6889 -9677.9582 813.4760
v -17846.5078 -9686.9564 638.4760
v -17952.4863 -9689.0895 638.4760
v -17952.4863 -9689.0895 813.4760
v -17846.5078 -9686.9564 813.4760
v -17952.4863 -9689.0895 638.4760
v -17952.6674 -9680.0913 638.4760
v -17952.6674 -9680.0913 813.4760
v -17952.4863 -9689.0895 813.4760
v -17651.2324 -10743.9728 1478.4760
v -17649.0937 -10849.9512 1478.4760
v -17640.0956 -10849.7697 1478.4760
v -17642.2343 -10743.7912 1478.4760
v -17642.2343 -10743.7912 1653.4760
v -17640.0956 -10849.7697 1653.4760
v -17649.0937 -10849.9512 1653.4760
v -17651.2324 -10743.9728 1653.4760
v -17642.2343 -10743.7912 1478.4760
v -17640.0956 -10849.7697 1478.4760
v -17640.0956 -10849.7697 1653.4760
v -17642.2343 -10743.7912 1653.4760
v -17640.0956 -10849.7697 1478.4760
v -17649.0937 -10849.9512 1478.4760
v -17649.0937 -10849.9512 1653.4760
v -17640.0956 -10849.7697 1653.4760
v -17649.0937 -10849.9512 1478.4760
v -17651.2324 -10743.9728 1478.4760
v -17651.2324 -10743.9728 1653.4760
v -17649.0937 -10849.9512 1653.4760
v -17651.2324 -10743.9728 1478.4760
v -17642.2343 -10743.7912 1478.4760
v -17642.2343 -10743.7912 1653.4760
v -17651.2324 -10743.9728 1653.4760
v -17647.3683 -10935.4510 1198.4760
v -17645.2296 -11041.4294 1198.4760
v -17636.2315 -11041.2478 1198.4760
v -17638.3702 -10935.2694 1198.4760
v -17638.3702 -10935.2694 1373.4760
v -17636.2315 -11041.2478 1373.4760
v -17645.2296 -11041.4294 1373.4760
v -17647.3683 -10935.4510 1373.4760
v -17638.3702 -10935.2694 1198.4760
v -17636.2315 -11041.2478 1198.4760
v -17636.2315 -11041.2478 1373.4760
v -17638.3702 -10935.2694 1373.4760
v -17636.2315 -11041.2478 1198.4760
v -17645.2296 -11041.4294 1198.4760
v -17645.2296 -11041.4294 1373.4760
v -17636.2315 -11041.2478 1373.4760
v -17645.2296 -11041.4294 1198.4760
v -17647.3683 -10935.4510 1198.4760
v -17647.3683 -10935.4510 1373.4760
v -17645.2296 -11041.4294 1373.4760
v -17647.3683 -10935.4510 1198.4760
v -17638.3702 -10935.2694 1198.4760
v -17638.3702 -10935.2694 1373.4760
v -17647.3683 -10935.4510 1373.4760
v -17643.5042 -11126.9292 918.4760
v -17641.3656 -11232.9076 918.4760
v -17632.3674 -11232.7260 918.4760
v -17634.5061 -11126.7476 918.4760
v -17634.5061 -11126.7476 1093.4760
v -17632.3674 -11232.7260 1093.4760
v -17641.3656 -11232.9076 1093.4760
v -17643.5042 -11126.9292 1093.4760
v -17634.5061 -11126.7476 918.4760
v -17632.3674 -11232.7260 918.4760
v -17632.3674 -11232.7260 1093.4760
v -17634.5061 -11126.7476 1093.4760
v -17632.3674 -11232.7260 918.4760
v -17641.3656 -11232.9076 918.4760
v -17641.3656 -11232.9076 1093.4760
v -17632.3674 -11232.7260 1093.4760
v -17641.3656 -11232.9076 918.4760
v -17643.5042 -11126.9292 918.4760
v -17643.5042 -11126.9292 1093.4760
v -17641.3656 -11232.9076 1093.4760
v -17643.5042 -11126.9292 918.4760
v -17634.5061 -11126.7476 918.4760
v -17634.5061 -11126.7476 1093.4760
v -17643.5042 -11126.9292 1093.4760
v -17639.6401 -11318.4074 638.4760
v -17637.5015 -11424.3858 638.4760
v -17628.5033 -11424.2042 638.4760
v -17630.6420 -11318.2258 638.4760
v -17630.6420 -11318.2258 813.4760
v -17628.5033 -11424.2042 813.4760
v -17637.5015 -11424.3858 813.4760
v -17639.6401 -11318.4074 813.4760
v -17630.6420 -11318.2258 638.4760
v -17628.5033 -11424.2042 638.4760
v -17628.5033 -11424.2042 813.4760
v -17630.6420 -11318.2258 813.4760
v -17628.5033 -11424.2042 638.4760
v -17637.5015 -11424.3858 638.4760
v -17637.5015 -11424.3858 813.4760
v -17628.5033 -11424.2042 813.4760
v -17637.5015 -11424.3858 638.4760
v -17639.6401 -11318.4074 638.4760
v -17639.6401 -11318.4074 813.4760
v -17637.5015 -11424.3858 813.4760
v -17639.6401 -11318.4074 638.4760
v -17630.6420 -11318.2258 638.4760
v -17630.6420 -11318.2258 813.4760
v -17639.6401 -11318.4074 813.4760
v -17635.7761 -11509.8856 355.9760
v -17633.6374 -11615.8640 355.9760
v -17624.6392 -11615.6824 355.9760
v -17626.7779 -11509.7040 355.9760
v -17626.7779 -11509.7040 535.9760
v -17624.6392 -11615.6824 535.9760
v -17633.6374 -11615.8640 535.9760
v -17635.7761 -11509.8856 535.9760
v -17626.7779 -11509.7040 355.9760
v -17624.6392 -11615.6824 355.9760
v -17624.6392 -11615.6824 535.9760
v -17626.7779 -11509.7040 535.9760
v -17624.6392 -11615.6824 355.9760
v -17633.6374 -11615.8640 355.9760
v -17633.6374 -11615.8640 535.9760
v -17624.6392 -11615.6824 535.9760
v -17633.6374 -11615.8640 355.9760
v -17635.7761 -11509.8856 355.9760
v -17635.7761 -11509.8856 535.9760
v -17633.6374 -11615.8640 535.9760
v -17635.7761 -11509.8856 355.9760
v -17626.7779 -11509.7040 355.9760
v -17626.7779 -11509.7040 535.9760
v -17635.7761 -11509.8856 535.9760
v -18740.1282 -11932.7681 1478.4760
v -18846.1068 -11934.8982 1478.4760
v -18845.9260 -11943.8963 1478.4760
v -18739.9474 -11941.7663 1478.4760
v -18739.9474 -11941.7663 1653.4760
v -18845.9260 -11943.8963 1653.4760
v -18846.1068 -11934.8982 1653.4760
v -18740.1282 -11932.7681 1653.4760
v -18739.9474 -11941.7663 1478.4760
v -18845.9260 -11943.8963 1478.4760
v -18845.9260 -11943.8963 1653.4760
v -18739.9474 -11941.7663 1653.4760
v -18845.9260 -11943.8963 1478.4760
v -18846.1068 -11934.8982 1478.4760
v -18846.1068 -11934.8982 1653.4760
v -18845.9260 -11943.8963 1653.4760
v -18846.1068 -11934.8982 1478.4760
v -18740.1282 -11932.7681 1478.4760
v -18740.1282 -11932.7681 1653.4760
v -18846.1068 -11934.8982 1653.4760
v -18740.1282 -11932.7681 1478.4760
v -18739.9474 -11941.7663 1478.4760
v -18739.9474 -11941.7663 1653.4760
v -18740.1282 -11932.7681 1653.4760
v -18931.9129 -11936.6228 1198.4760
v -19037.8915 -11938.7528 1198.4760
v -19037.7106 -11947.7510 1198.4760
v -18931.7320 -11945.6209 1198.4760
v -18931.7320 -11945.6209 1373.4760
v -19037.7106 -11947.7510 1373.4760
v -19037.8915 -11938.7528 1373.4760
v -18931.9129 -11936.6228 1373.4760
v -18931.7320 -11945.6209 1198.4760
v -19037.7106 -11947.7510 1198.4760
v -19037.7106 -11947.7510 1373.4760
v -18931.7320 -11945.6209 1373.4760
v -19037.7106 -11947.7510 1198.4760
v -19037.8915 -11938.7528 1198.4760
v -19037.8915 -11938.7528 1373.4760
v -19037.7106 -11947.7510 1373.4760
v -19037.8915 -11938.7528 1198.4760
v -18931.9129 -11936.6228 1198.4760
v -18931.9129 -11936.6228 1373.4760
v -19037.8915 -11938.7528 1373.4760
v -18931.9129 -11936.6228 1198.4760
v -18931.7320 -11945.6209 1198.4760
v -18931.7320 -11945.6209 1373.4760
v -18931.9129 -11936.6228 1373.4760
v -19123.6976 -11940.4774 918.4760
v -19229.6762 -11942.6075 918.4760
v -19229.4953 -11951.6057 918.4760
v -19123.5167 -11949.4756 918.4760
v -19123.5167 -11949.4756 1093.4760
v -19229.4953 -11951.6057 1093.4760
v -19229.6762 -11942.6075 1093.4760
v -19123.6976 -11940.4774 1093.4760
v -19123.5167 -11949.4756 918.4760
v -19229.4953 -11951.6057 918.4760
v -19229.4953 -11951.6057 1093.4760
v -19123.5167 -11949.4756 1093.4760
v -19229.4953 -11951.6057 918.4760
v -19229.6762 -11942.6075 918.4760
v -19229.6762 -11942.6075 1093.4760
v -19229.4953 -11951.6057 1093.4760
v -19229.6762 -11942.6075 918.4760
v -19123.6976 -11940.4774 918.4760
v -19123.6976 -11940.4774 1093.4760
v -19229.6762 -11942.6075 1093.4760
v -19123.6976 -11940.4774 918.4760
v -19123.5167 -11949.4756 918.4760
v -19123.5167 -11949.4756 1093.4760
v -19123.6976 -11940.4774 1093.4760
v -19315.4822 -11944.3321 638.4760
v -19421.4608 -11946.4622 638.4760
v -19421.2800 -11955.4603 638.4760
v -19315.3014 -11953.3303 638.4760
v -19315.3014 -11953.3303 813.4760
v -19421.2800 -11955.4603 813.4760
v -19421.4608 -11946.4622 813.4760
v -19315.4822 -11944.3321 813.4760
v -19315.3014 -11953.3303 638.4760
v -19421.2800 -11955.4603 638.4760
v -19421.2800 -11955.4603 813.4760
v -19315.3014 -11953.3303 813.4760
v -19421.2800 -11955.4603 638.4760
v -19421.4608 -11946.4622 638.4760
v -19421.4608 -11946.4622 813.4760
v -19421.2800 -11955.4603 813.4760
v -19421.4608 -11946.4622 638.4760
v -19315.4822 -11944.3321 638.4760
v -19315.4822 -11944.3321 813.4760
v -19421.4608 -11946.4622 813.4760
v -19315.4822 -11944.3321 638.4760
v -19315.3014 -11953.3303 638.4760
v -19315.3014 -11953.3303 813.4760
v -19315.4822 -11944.3321 813.4760
v -20606.8244 -11960.1466 1478.4760
v -20712.8024 -11962.3052 1478.4760
v -20712.6191 -11971.3034 1478.4760
v -20606.6411 -11969.1447 1478.4760
v -20606.6411 -11969.1447 1653.4760
v -20712.6191 -11971.3034 1653.4760
v -20712.8024 -11962.3052 1653.4760
v -20606.8244 -11960.1466 1653.4760
v -20606.6411 -11969.1447 1478.4760
v -20712.6191 -11971.3034 1478.4760
v -20712.6191 -11971.3034 1653.4760
v -20606.6411 -11969.1447 1653.4760
v -20712.6191 -11971.3034 1478.4760
v -20712.8024 -11962.3052 1478.4760
v -20712.8024 -11962.3052 1653.4760
v -20712.6191 -11971.3034 1653.4760
v -20712.8024 -11962.3052 1478.4760
v -20606.8244 -11960.1466 1478.4760
v -20606.8244 -11960.1466 1653.4760
v -20712.8024 -11962.3052 1653.4760
v -20606.8244 -11960.1466 1478.4760
v -20606.6411 -11969.1447 1478.4760
v -20606.6411 -11969.1447 1653.4760
v -20606.8244 -11960.1466 1653.4760
v -22236.6218 -11233.4523 1452.2660
v -22130.6501 -11231.0017 1452.2660
v -22130.8582 -11222.0041 1452.2660
v -22236.8298 -11224.4548 1452.2660
v -22236.8298 -11224.4548 1627.2660
v -22130.8582 -11222.0041 1627.2660
v -22130.6501 -11231.0017 1627.2660
v -22236.6218 -11233.4523 1627.2660
v -22236.8298 -11224.4548 1452.2660
v -22130.8582 -11222.0041 1452.2660
v -22130.8582 -11222.0041 1627.2660
v -22236.8298 -11224.4548 1627.2660
v -22130.8582 -11222.0041 1452.2660
v -22130.6501 -11231.0017 1452.2660
v -22130.6501 -11231.0017 1627.2660
v -22130.8582 -11222.0041 1627.2660
v -22130.6501 -11231.0017 1452.2660
v -22236.6218 -11233.4523 1452.2660
v -22236.6218 -11233.4523 1627.2660
v -22130.6501 -11231.0017 1627.2660
v -22236.6218 -11233.4523 1452.2660
v -22236.8298 -11224.4548 1452.2660
v -22236.8298 -11224.4548 1627.2660
v -22236.6218 -11233.4523 1627.2660
v -21997.4933 -11227.9223 1172.2660
v -21891.5216 -11225.4717 1172.2660
v -21891.7297 -11216.4741 1172.2660
v -21997.7013 -11218.9248 1172.2660
v -21997.7013 -11218.9248 1347.2660
v -21891.7297 -11216.4741 1347.2660
v -21891.5216 -11225.4717 1347.2660
v -21997.4933 -11227.9223 1347.2660
v -21997.7013 -11218.9248 1172.2660
v -21891.7297 -11216.4741 1172.2660
v -21891.7297 -11216.4741 1347.2660
v -21997.7013 -11218.9248 1347.2660
v -21891.7297 -11216.4741 1172.2660
v -21891.5216 -11225.4717 1172.2660
v -21891.5216 -11225.4717 1347.2660
v -21891.7297 -11216.4741 1347.2660
v -21891.5216 -11225.4717 1172.2660
v -21997.4933 -11227.9223 1172.2660
v -21997.4933 -11227.9223 1347.2660
v -21891.5216 -11225.4717 1347.2660
v -21997.4933 -11227.9223 1172.2660
v -21997.7013 -11218.9248 1172.2660
v -21997.7013 -11218.9248 1347.2660
v -21997.4933 -11227.9223 1347.2660
v -21839.5394 -11118.8844 1452.2660
v -21833.3816 -11013.0634 1452.2660
v -21842.3664 -11012.5406 1452.2660
v -21848.5242 -11118.3616 1452.2660
v -21848.5242 -11118.3616 1627.2660
v -21842.3664 -11012.5406 1627.2660
v -21833.3816 -11013.0634 1627.2660
v -21839.5394 -11118.8844 1627.2660
v -21848.5242 -11118.3616 1452.2660
v -21842.3664 -11012.5406 1452.2660
v -21842.3664 -11012.5406 1627.2660
v -21848.5242 -11118.3616 1627.2660
v -21842.3664 -11012.5406 1452.2660
v -21833.3816 -11013.0634 1452.2660
v -21833.3816 -11013.0634 1627.2660
v -21842.3664 -11012.5406 1627.2660
v -21833.3816 -11013.0634 1452.2660
v -21839.5394 -11118.8844 1452.2660
v -21839.5394 -11118.8844 1627.2660
v -21833.3816 -11013.0634 1627.2660
v -21839.5394 -11118.8844 1452.2660
v -21848.5242 -11118.3616 1452.2660
v -21848.5242 -11118.3616 1627.2660
v -21839.5394 -11118.8844 1627.2660
v -21740.4246 -10865.7392 1452.2660
v -21634.4248 -10865.9125 1452.2660
v -21634.4101 -10856.9125 1452.2660
v -21740.4099 -10856.7392 1452.2660
v -21740.4099 -10856.7392 1627.2660
v -21634.4101 -10856.9125 1627.2660
v -21634.4248 -10865.9125 1627.2660
v -21740.4246 -10865.7392 1627.2660
v -21740.4099 -10856.7392 1452.2660
v -21634.4101 -10856.9125 1452.2660
v -21634.4101 -10856.9125 1627.2660
v -21740.4099 -10856.7392 1627.2660
v -21634.4101 -10856.9125 1452.2660
v -21634.4248 -10865.9125 1452.2660
v -21634.4248 -10865.9125 1627.2660
v -21634.4101 -10856.9125 1627.2660
v -21634.4248 -10865.9125 1452.2660
v -21740.4246 -10865.7392 1452.2660
v -21740.4246 -10865.7392 1627.2660
v -21634.4248 -10865.9125 1627.2660
v -21740.4246 -10865.7392 1452.2660
v -21740.4099 -10856.7392 1452.2660
v -21740.4099 -10856.7392 1627.2660
v -21740.4246 -10865.7392 1627.2660
v -21508.1996 -10866.1189 1172.2660
v -21402.1998 -10866.2922 1172.2660
v -21402.1851 -10857.2922 1172.2660
v -21508.1849 -10857.1189 1172.2660
v -21508.1849 -10857.1189 1347.2660
v -21402.1851 -10857.2922 1347.2660
v -21402.1998 -10866.2922 1347.2660
v -21508.1996 -10866.1189 1347.2660
v -21508.1849 -10857.1189 1172.2660
v -21402.1851 -10857.2922 1172.2660
v -21402.1851 -10857.2922 1347.2660
v -21508.1849 -10857.1189 1347.2660
v -21402.1851 -10857.2922 1172.2660
v -21402.1998 -10866.2922 1172.2660
v -21402.1998 -10866.2922 1347.2660
v -21402.1851 -10857.2922 1347.2660
v -21402.1998 -10866.2922 1172.2660
v -21508.1996 -10866.1189 1172.2660
v -21508.1996 -10866.1189 1347.2660
v -21402.1998 -10866.2922 1347.2660
v -21508.1996 -10866.1189 1172.2660
v -21508.1849 -10857.1189 1172.2660
v -21508.1849 -10857.1189 1347.2660
v -21508.1996 -10866.1189 1347.2660
v -21275.9746 -10866.4985 892.2660
v -21169.9748 -10866.6718 892.2660
v -21169.9601 -10857.6719 892.2660
v -21275.9599 -10857.4986 892.2660
v -21275.9599 -10857.4986 1067.2660
v -21169.9601 -10857.6719 1067.2660
v -21169.9748 -10866.6718 1067.2660
v -21275.9746 -10866.4985 1067.2660
v -21275.9599 -10857.4986 892.2660
v -21169.9601 -10857.6719 892.2660
v -21169.9601 -10857.6719 1067.2660
v -21275.9599 -10857.4986 1067.2660
v -21169.9601 -10857.6719 892.2660
v -21169.9748 -10866.6718 892.2660
v -21169.9748 -10866.6718 1067.2660
v -21169.9601 -10857.6719 1067.2660
v -21169.9748 -10866.6718 892.2660
v -21275.9746 -10866.4985 892.2660
v -21275.9746 -10866.4985 1067.2660
v -21169.9748 -10866.6718 1067.2660
v -21275.9746 -10866.4985 892.2660
v -21275.9599 -10857.4986 892.2660
v -21275.9599 -10857.4986 1067.2660
v -21275.9746 -10866.4985 1067.2660
v -21086.0504 -10944.1077 1452.2660
v -21089.2613 -11050.0591 1452.2660
v -21080.2654 -11050.3317 1452.2660
v -21077.0545 -10944.3803 1452.2660
v -21077.0545 -10944.3803 1627.2660
v -21080.2654 -11050.3317 1627.2660
v -21089.2613 -11050.0591 1627.2660
v -21086.0504 -10944.1077 1627.2660
v -21077.0545 -10944.3803 1452.2660
v -21080.2654 -11050.3317 1452.2660
v -21080.2654 -11050.3317 1627.2660
v -21077.0545 -10944.3803 1627.2660
v -21080.2654 -11050.3317 1452.2660
v -21089.2613 -11050.0591 1452.2660
v -21089.2613 -11050.0591 1627.2660
v -21080.2654 -11050.3317 1627.2660
v -21089.2613 -11050.0591 1452.2660
v -21086.0504 -10944.1077 1452.2660
v -21086.0504 -10944.1077 1627.2660
v -21089.2613 -11050.0591 1627.2660
v -21086.0504 -10944.1077 1452.2660
v -21077.0545 -10944.3803 1452.2660
v -21077.0545 -10944.3803 1627.2660
v -21086.0504 -10944.1077 1627.2660
v -21092.5434 -11158.3614 1172.2660
v -21095.7543 -11264.3127 1172.2660
v -21086.7584 -11264.5854 1172.2660
v -21083.5475 -11158.6340 1172.2660
v -21083.5475 -11158.6340 1347.2660
v -21086.7584 -11264.5854 1347.2660
v -21095.7543 -11264.3127 1347.2660
v -21092.5434 -11158.3614 1347.2660
v -21083.5475 -11158.6340 1172.2660
v -21086.7584 -11264.5854 1172.2660
v -21086.7584 -11264.5854 1347.2660
v -21083.5475 -11158.6340 1347.2660
v -21086.7584 -11264.5854 1172.2660
v -21095.7543 -11264.3127 1172.2660
v -21095.7543 -11264.3127 1347.2660
v -21086.7584 -11264.5854 1347.2660
v -21095.7543 -11264.3127 1172.2660
v -21092.5434 -11158.3614 1172.2660
v -21092.5434 -11158.3614 1347.2660
v -21095.7543 -11264.3127 1347.2660
v -21092.5434 -11158.3614 1172.2660
v -21083.5475 -11158.6340 1172.2660
v -21083.5475 -11158.6340 1347.2660
v -21092.5434 -11158.3614 1347.2660
v -21099.0364 -11372.6150 892.2660
v -21102.2473 -11478.5664 892.2660
v -21093.2514 -11478.8390 892.2660
v -21090.0405 -11372.8877 892.2660
v -21090.0405 -11372.8877 1067.2660
v -21093.2514 -11478.8390 1067.2660
v -21102.2473 -11478.5664 1067.2660
v -21099.0364 -11372.6150 1067.2660
v -21090.0405 -11372.8877 892.2660
v -21093.2514 -11478.8390 892.2660
v -21093.2514 -11478.8390 1067.2660
v -21090.0405 -11372.8877 1067.2660
v -21093.2514 -11478.8390 892.2660
v -21102.2473 -11478.5664 892.2660
v -21102.2473 -11478.5664 1067.2660
v -21093.2514 -11478.8390 1067.2660
v -21102.2473 -11478.5664 892.2660
v -21099.0364 -11372.6150 892.2660
v -21099.0364 -11372.6150 1067.2660
v -21102.2473 -11478.5664 1067.2660
v -21099.0364 -11372.6150 892.2660
v -21090.0405 -11372.8877 892.2660
v -21090.0405 -11372.8877 1067.2660
v -21099.0364 -11372.6150 1067.2660
v -21146.6380 -11578.5391 1452.2660
v -21152.0992 -11684.3983 1452.2660
v -21143.1112 -11684.8620 1452.2660
v -21137.6500 -11579.0028 1452.2660
v -21137.6500 -11579.0028 1627.2660
v -21143.1112 -11684.8620 1627.2660
v -21152.0992 -11684.3983 1627.2660
v -21146.6380 -11578.5391 1627.2660
v -21137.6500 -11579.0028 1452.2660
v -21143.1112 -11684.8620 1452.2660
v -21143.1112 -11684.8620 1627.2660
v -21137.6500 -11579.0028 1627.2660
v -21143.1112 -11684.8620 1452.2660
v -21152.0992 -11684.3983 1452.2660
v -21152.0992 -11684.3983 1627.2660
v -21143.1112 -11684.8620 1627.2660
v -21152.0992 -11684.3983 1452.2660
v -21146.6380 -11578.5391 1452.2660
v -21146.6380 -11578.5391 1627.2660
v -21152.0992 -11684.3983 1627.2660
v -21146.6380 -11578.5391 1452.2660
v -21137.6500 -11579.0028 1452.2660
v -21137.6500 -11579.0028 1627.2660
v -21146.6380 -11578.5391 1627.2660
v -21156.6715 -11773.0281 1172.2660
v -21162.1327 -11878.8873 1172.2660
v -21153.1447 -11879.3510 1172.2660
v -21147.6835 -11773.4918 1172.2660
v -21147.6835 -11773.4918 1347.2660
v -21153.1447 -11879.3510 1347.2660
v -21162.1327 -11878.8873 1347.2660
v -21156.6715 -11773.0281 1347.2660
v -21147.6835 -11773.4918 1172.2660
v -21153.1447 -11879.3510 1172.2660
v -21153.1447 -11879.3510 1347.2660
v -21147.6835 -11773.4918 1347.2660
v -21153.1447 -11879.3510 1172.2660
v -21162.1327 -11878.8873 1172.2660
v -21162.1327 -11878.8873 1347.2660
v -21153.1447 -11879.3510 1347.2660
v -21162.1327 -11878.8873 1172.2660
v -21156.6715 -11773.0281 1172.2660
v -21156.6715 -11773.0281 1347.2660
v -21162.1327 -11878.8873 1347.2660
v -21156.6715 -11773.0281 1172.2660
v -21147.6835 -11773.4918 1172.2660
v -21147.6835 -11773.4918 1347.2660
v -21156.6715 -11773.0281 1347.2660
v -21346.9677 -12001.8625 1452.2660
v -21452.9353 -12004.4847 1452.2660
v -21452.7126 -12013.4820 1452.2660
v -21346.7451 -12010.8598 1452.2660
v -21346.7451 -12010.8598 1627.2660
v -21452.7126 -12013.4820 1627.2660
v -21452.9353 -12004.4847 1627.2660
v -21346.9677 -12001.8625 1627.2660
v -21346.7451 -12010.8598 1452.2660
v -21452.7126 -12013.4820 1452.2660
v -21452.7126 -12013.4820 1627.2660
v -21346.7451 -12010.8598 1627.2660
v -21452.7126 -12013.4820 1452.2660
v -21452.9353 -12004.4847 1452.2660
v -21452.9353 -12004.4847 1627.2660
v -21452.7126 -12013.4820 1627.2660
v -21452.9353 -12004.4847 1452.2660
v -21346.9677 -12001.8625 1452.2660
v -21346.9677 -12001.8625 1627.2660
v -21452.9353 -12004.4847 1627.2660
v -21346.9677 -12001.8625 1452.2660
v -21346.7451 -12010.8598 1452.2660
v -21346.7451 -12010.8598 1627.2660
v -21346.9677 -12001.8625 1627.2660
v -21557.7139 -12007.0775 1172.2660
v -21663.6815 -12009.6997 1172.2660
v -21663.4588 -12018.6970 1172.2660
v -21557.4913 -12016.0748 1172.2660
v -21557.4913 -12016.0748 1347.2660
v -21663.4588 -12018.6970 1347.2660
v -21663.6815 -12009.6997 1347.2660
v -21557.7139 -12007.0775 1347.2660
v -21557.4913 -12016.0748 1172.2660
v -21663.4588 -12018.6970 1172.2660
v -21663.4588 -12018.6970 1347.2660
v -21557.4913 -12016.0748 1347.2660
v -21663.4588 -12018.6970 1172.2660
v -21663.6815 -12009.6997 1172.2660
v -21663.6815 -12009.6997 1347.2660
v -21663.4588 -12018.6970 1347.2660
v -21663.6815 -12009.6997 1172.2660
v -21557.7139 -12007.0775 1172.2660
v -21557.7139 -12007.0775 1347.2660
v -21663.6815 -12009.6997 1347.2660
v -21557.7139 -12007.0775 1172.2660
v -21557.4913 -12016.0748 1172.2660
v -21557.4913 -12016.0748 1347.2660
v -21557.7139 -12007.0775 1347.2660
v -21768.4601 -12012.2925 892.2660
v -21874.4277 -12014.9147 892.2660
v -21874.2050 -12023.9120 892.2660
v -21768.2375 -12021.2898 892.2660
v -21768.2375 -12021.2898 1067.2660
v -21874.2050 -12023.9120 1067.2660
v -21874.4277 -12014.9147 1067.2660
v -21768.4601 -12012.2925 1067.2660
v -21768.2375 -12021.2898 892.2660
v -21874.2050 -12023.9120 892.2660
v -21874.2050 -12023.9120 1067.2660
v -21768.2375 -12021.2898 1067.2660
v -21874.2050 -12023.9120 892.2660
v -21874.4277 -12014.9147 892.2660
v -21874.4277 -12014.9147 1067.2660
v -21874.2050 -12023.9120 1067.2660
v -21874.4277 -12014.9147 892.2660
v -21768.4601 -12012.2925 892.2660
v -21768.4601 -12012.2925 1067.2660
v -21874.4277 -12014.9147 1067.2660
v -21768.4601 -12012.2925 892.2660
v -21768.2375 -12021.2898 892.2660
v -21768.2375 -12021.2898 1067.2660
v -21768.4601 -12012.2925 1067.2660
v -21979.2063 -12017.5075 612.2660
v -22085.1739 -12020.1297 612.2660
v -22084.9512 -12029.1270 612.2660
v -21978.9837 -12026.5048 612.2660
v -21978.9837 -12026.5048 787.2660
v -22084.9512 -12029.1270 787.2660
v -22085.1739 -12020.1297 787.2660
v -21979.2063 -12017.5075 787.2660
v -21978.9837 -12026.5048 612.2660
v -22084.9512 -12029.1270 612.2660
v -22084.9512 -12029.1270 787.2660
v -21978.9837 -12026.5048 787.2660
v -22084.9512 -12029.1270 612.2660
v -22085.1739 -12020.1297 612.2660
v -22085.1739 -12020.1297 787.2660
v -22084.9512 -12029.1270 787.2660
v -22085.1739 -12020.1297 612.2660
v -21979.2063 -12017.5075 612.2660
v -21979.2063 -12017.5075 787.2660
v -22085.1739 -12020.1297 787.2660
v -21979.2063 -12017.5075 612.2660
v -21978.9837 -12026.5048 612.2660
v -21978.9837 -12026.5048 787.2660
v -21979.2063 -12017.5075 787.2660
v -22189.9525 -12022.7225 329.7660
v -22295.9201 -12025.3447 329.7660
v -22295.6974 -12034.3420 329.7660
v -22189.7299 -12031.7198 329.7660
v -22189.7299 -12031.7198 509.7660
v -22295.6974 -12034.3420 509.7660
v -22295.9201 -12025.3447 509.7660
v -22189.9525 -12022.7225 509.7660
v -22189.7299 -12031.7198 329.7660
v -22295.6974 -12034.3420 329.7660
v -22295.6974 -12034.3420 509.7660
v -22189.7299 -12031.7198 509.7660
v -22295.6974 -12034.3420 329.7660
v -22295.9201 -12025.3447 329.7660
v -22295.9201 -12025.3447 509.7660
v -22295.6974 -12034.3420 509.7660
v -22295.9201 -12025.3447 329.7660
v -22189.9525 -12022.7225 329.7660
v -22189.9525 -12022.7225 509.7660
v -22295.9201 -12025.3447 509.7660
v -22189.9525 -12022.7225 329.7660
v -22189.7299 -12031.7198 329.7660
v -22189.7299 -12031.7198 509.7660
v -22189.9525 -12022.7225 509.7660
v -22368.8220 -11962.3250 1452.2660
v -22362.2777 -11856.5272 1452.2660
v -22371.2605 -11855.9716 1452.2660
v -22377.8048 -11961.7694 1452.2660
v -22377.8048 -11961.7694 1627.2660
v -22371.2605 -11855.9716 1627.2660
v -22362.2777 -11856.5272 1627.2660
v -22368.8220 -11962.3250 1627.2660
v -22377.8048 -11961.7694 1452.2660
v -22371.2605 -11855.9716 1452.2660
v -22371.2605 -11855.9716 1627.2660
v -22377.8048 -11961.7694 1627.2660
v -22371.2605 -11855.9716 1452.2660
v -22362.2777 -11856.5272 1452.2660
v -22362.2777 -11856.5272 1627.2660
v -22371.2605 -11855.9716 1627.2660
v -22362.2777 -11856.5272 1452.2660
v -22368.8220 -11962.3250 1452.2660
v -22368.8220 -11962.3250 1627.2660
v -22362.2777 -11856.5272 1627.2660
v -22368.8220 -11962.3250 1452.2660
v -22377.8048 -11961.7694 1452.2660
v -22377.8048 -11961.7694 1627.2660
v -22368.8220 -11962.3250 1627.2660
v -22357.2755 -11775.6595 1172.2660
v -22350.7312 -11669.8617 1172.2660
v -22359.7140 -11669.3061 1172.2660
v -22366.2583 -11775.1039 1172.2660
v -22366.2583 -11775.1039 1347.2660
v -22359.7140 -11669.3061 1347.2660
v -22350.7312 -11669.8617 1347.2660
v -22357.2755 -11775.6595 1347.2660
v -22366.2583 -11775.1039 1172.2660
v -22359.7140 -11669.3061 1172.2660
v -22359.7140 -11669.3061 1347.2660
v -22366.2583 -11775.1039 1347.2660
v -22359.7140 -11669.3061 1172.2660
v -22350.7312 -11669.8617 1172.2660
v -22350.7312 -11669.8617 1347.2660
v -22359.7140 -11669.3061 1347.2660
v -22350.7312 -11669.8617 1172.2660
v -22357.2755 -11775.6595 1172.2660
v -22357.2755 -11775.6595 1347.2660
v -22350.7312 -11669.8617 1347.2660
v -22357.2755 -11775.6595 1172.2660
v -22366.2583 -11775.1039 1172.2660
v -22366.2583 -11775.1039 1347.2660
v -22357.2755 -11775.6595 1347.2660
v -22345.7290 -11588.9940 892.2660
v -22339.1847 -11483.1962 892.2660
v -22348.1675 -11482.6406 892.2660
v -22354.7118 -11588.4384 892.2660
v -22354.7118 -11588.4384 1067.2660
v -22348.1675 -11482.6406 1067.2660
v -22339.1847 -11483.1962 1067.2660
v -22345.7290 -11588.9940 1067.2660
v -22354.7118 -11588.4384 892.2660
v -22348.1675 -11482.6406 892.2660
v -22348.1675 -11482.6406 1067.2660
v -22354.7118 -11588.4384 1067.2660
v -22348.1675 -11482.6406 892.2660
v -22339.1847 -11483.1962 892.2660
v -22339.1847 -11483.1962 1067.2660
v -22348.1675 -11482.6406 1067.2660
v -22339.1847 -11483.1962 892.2660
v -22345.7290 -11588.9940 892.2660
v -22345.7290 -11588.9940 1067.2660
v -22339.1847 -11483.1962 1067.2660
v -22345.7290 -11588.9940 892.2660
v -22354.7118 -11588.4384 892.2660
v -22354.7118 -11588.4384 1067.2660
v -22345.7290 -11588.9940 1067.2660
v -22334.1825 -11402.3285 612.2660
v -22327.6382 -11296.5307 612.2660
v -22336.6210 -11295.9751 612.2660
v -22343.1653 -11401.7729 612.2660
v -22343.1653 -11401.7729 787.2660
v -22336.6210 -11295.9751 787.2660
v -22327.6382 -11296.5307 787.2660
v -22334.1825 -11402.3285 787.2660
v -22343.1653 -11401.7729 612.2660
v -22336.6210 -11295.9751 612.2660
v -22336.6210 -11295.9751 787.2660
v -22343.1653 -11401.7729 787.2660
v -22336.6210 -11295.9751 612.2660
v -22327.6382 -11296.5307 612.2660
v -22327.6382 -11296.5307 787.2660
v -22336.6210 -11295.9751 787.2660
v -22327.6382 -11296.5307 612.2660
v -22334.1825 -11402.3285 612.2660
v -22334.1825 -11402.3285 787.2660
v -22327.6382 -11296.5307 787.2660
v -22334.1825 -11402.3285 612.2660
v -22343.1653 -11401.7729 612.2660
v -22343.1653 -11401.7729 787.2660
v -22334.1825 -11402.3285 787.2660
vt 0 0
vt 1 0
vt 1 1
vt 0 1
f 4/4 3/3 2/2 1/1
f 8/4 7/3 6/2 5/1
f 12/4 11/3 10/2 9/1
f 16/4 15/3 14/2 13/1
f 20/4 19/3 18/2 17/1
f 24/4 23/3 22/2 21/1
f 28/4 27/3 26/2 25/1
f 32/4 31/3 30/2 29/1
f 36/4 35/3 34/2 33/1
f 40/4 39/3 38/2 37/1
f 44/4 43/3 42/2 41/1
f 48/4 47/3 46/2 45/1
f 52/4 51/3 50/2 49/1
f 56/4 55/3 54/2 53/1
f 60/4 59/3 58/2 57/1
f 64/4 63/3 62/2 61/1
f 68/4 67/3 66/2 65/1
f 72/4 71/3 70/2 69/1
f 76/4 75/3 74/2 73/1
f 80/4 79/3 78/2 77/1
f 84/4 83/3 82/2 81/1
f 88/4 87/3 86/2 85/1
f 92/4 91/3 90/2 89/1
f 96/4 95/3 94/2 93/1
f 100/4 99/3 98/2 97/1
f 104/4 103/3 102/2 101/1
f 108/4 107/3 106/2 105/1
f 112/4 111/3 110/2 109/1
f 116/4 115/3 114/2 113/1
f 120/4 119/3 118/2 117/1
f 124/4 123/3 122/2 121/1
f 128/4 127/3 126/2 125/1
f 132/4 131/3 130/2 129/1
f 136/4 135/3 134/2 133/1
f 140/4 139/3 138/2 137/1
f 144/4 143/3 142/2 141/1
f 148/4 147/3 146/2 145/1
f 152/4 151/3 150/2 149/1
f 156/4 155/3 154/2 153/1
f 160/4 159/3 158/2 157/1
f 164/4 163/3 162/2 161/1
f 168/4 167/3 166/2 165/1
f 172/4 171/3 170/2 169/1
f 176/4 175/3 174/2 173/1
f 180/4 179/3 178/2 177/1
f 184/4 183/3 182/2 181/1
f 188/4 187/3 186/2 185/1
f 192/4 191/3 190/2 189/1
f 196/4 195/3 194/2 193/1
f 200/4 199/3 198/2 197/1
f 204/4 203/3 202/2 201/1
f 208/4 207/3 206/2 205/1
f 212/4 211/3 210/2 209/1
f 216/4 215/3 214/2 213/1
f 220/4 219/3 218/2 217/1
f 224/4 223/3 222/2 221/1
f 228/4 227/3 226/2 225/1
f 232/4 231/3 230/2 229/1
f 236/4 235/3 234/2 233/1
f 240/4 239/3 238/2 237/1
f 244/4 243/3 242/2 241/1
f 248/4 247/3 246/2 245/1
f 252/4 251/3 250/2 249/1
f 256/4 255/3 254/2 253/1
f 260/4 259/3 258/2 257/1
f 264/4 263/3 262/2 261/1
f 268/4 267/3 266/2 265/1
f 272/4 271/3 270/2 269/1
f 276/4 275/3 274/2 273/1
f 280/4 279/3 278/2 277/1
f 284/4 283/3 282/2 281/1
f 288/4 287/3 286/2 285/1
f 292/4 291/3 290/2 289/1
f 296/4 295/3 294/2 293/1
f 300/4 299/3 298/2 297/1
f 304/4 303/3 302/2 301/1
f 308/4 307/3 306/2 305/1
f 312/4 311/3 310/2 309/1
f 316/4 315/3 314/2 313/1
f 320/4 319/3 318/2 317/1
f 324/4 323/3 322/2 321/1
f 328/4 327/3 326/2 325/1
f 332/4 331/3 330/2 329/1
f 336/4 335/3 334/2 333/1
f 340/4 339/3 338/2 337/1
f 344/4 343/3 342/2 341/1
f 348/4 347/3 346/2 345/1
f 352/4 351/3 350/2 349/1
f 356/4 355/3 354/2 353/1
f 360/4 359/3 358/2 357/1
f 364/4 363/3 362/2 361/1
f 368/4 367/3 366/2 365/1
f 372/4 371/3 370/2 369/1
f 376/4 375/3 374/2 373/1
f 380/4 379/3 378/2 377/1
f 384/4 383/3 382/2 381/1
f 388/4 387/3 386/2 385/1
f 392/4 391/3 390/2 389/1
f 396/4 395/3 394/2 393/1
f 400/4 399/3 398/2 397/1
f 404/4 403/3 402/2 401/1
f 408/4 407/3 406/2 405/1
f 412/4 411/3 410/2 409/1
f 416/4 415/3 414/2 413/1
f 420/4 419/3 418/2 417/1
f 424/4 423/3 422/2 421/1
f 428/4 427/3 426/2 425/1
f 432/4 431/3 430/2 429/1
f 436/4 435/3 434/2 433/1
f 440/4 439/3 438/2 437/1
f 444/4 443/3 442/2 441/1
f 448/4 447/3 446/2 445/1
f 452/4 451/3 450/2 449/1
f 456/4 455/3 454/2 453/1
f 460/4 459/3 458/2 457/1
f 464/4 463/3 462/2 461/1
f 468/4 467/3 466/2 465/1
f 472/4 471/3 470/2 469/1
f 476/4 475/3 474/2 473/1
f 480/4 479/3 478/2 477/1
f 484/4 483/3 482/2 481/1
f 488/4 487/3 486/2 485/1
f 492/4 491/3 490/2 489/1
f 496/4 495/3 494/2 493/1
f 500/4 499/3 498/2 497/1
f 504/4 503/3 502/2 501/1
f 508/4 507/3 506/2 505/1
f 512/4 511/3 510/2 509/1
f 516/4 515/3 514/2 513/1
f 520/4 519/3 518/2 517/1
f 524/4 523/3 522/2 521/1
f 528/4 527/3 526/2 525/1
f 532/4 531/3 530/2 529/1
f 536/4 535/3 534/2 533/1
f 540/4 539/3 538/2 537/1
f 544/4 543/3 542/2 541/1
f 548/4 547/3 546/2 545/1
f 552/4 551/3 550/2 549/1
f 556/4 555/3 554/2 553/1
f 560/4 559/3 558/2 557/1
f 564/4 563/3 562/2 561/1
f 568/4 567/3 566/2 565/1
f 572/4 571/3 570/2 569/1
f 576/4 575/3 574/2 573/1
f 580/4 579/3 578/2 577/1
f 584/4 583/3 582/2 581/1
f 588/4 587/3 586/2 585/1
f 592/4 591/3 590/2 589/1
f 596/4 595/3 594/2 593/1
f 600/4 599/3 598/2 597/1
f 604/4 603/3 602/2 601/1
f 608/4 607/3 606/2 605/1
f 612/4 611/3 610/2 609/1
f 616/4 615/3 614/2 613/1
f 620/4 619/3 618/2 617/1
f 624/4 623/3 622/2 621/1
f 628/4 627/3 626/2 625/1
f 632/4 631/3 630/2 629/1
f 636/4 635/3 634/2 633/1
f 640/4 639/3 638/2 637/1
f 644/4 643/3 642/2 641/1
f 648/4 647/3 646/2 645/1
f 652/4 651/3 650/2 649/1
f 656/4 655/3 654/2 653/1
f 660/4 659/3 658/2 657/1
f 664/4 663/3 662/2 661/1
f 668/4 667/3 666/2 665/1
f 672/4 671/3 670/2 669/1
f 676/4 675/3 674/2 673/1
f 680/4 679/3 678/2 677/1
f 684/4 683/3 682/2 681/1
f 688/4 687/3 686/2 685/1
f 692/4 691/3 690/2 689/1
f 696/4 695/3 694/2 693/1
f 700/4 699/3 698/2 697/1
f 704/4 703/3 702/2 701/1
f 708/4 707/3 706/2 705/1
f 712/4 711/3 710/2 709/1
f 716/4 715/3 714/2 713/1
f 720/4 719/3 718/2 717/1
f 724/4 723/3 722/2 721/1
f 728/4 727/3 726/2 725/1
f 732/4 731/3 730/2 729/1
f 736/4 735/3 734/2 733/1
f 740/4 739/3 738/2 737/1
f 744/4 743/3 742/2 741/1
f 748/4 747/3 746/2 745/1
f 752/4 751/3 750/2 749/1
f 756/4 755/3 754/2 753/1
f 760/4 759/3 758/2 757/1
f 764/4 763/3 762/2 761/1
f 768/4 767/3 766/2 765/1
f 772/4 771/3 770/2 769/1
f 776/4 775/3 774/2 773/1
f 780/4 779/3 778/2 777/1
f 784/4 783/3 782/2 781/1
f 788/4 787/3 786/2 785/1
f 792/4 791/3 790/2 789/1
f 796/4 795/3 794/2 793/1
f 800/4 799/3 798/2 797/1
f 804/4 803/3 802/2 801/1
f 808/4 807/3 806/2 805/1
f 812/4 811/3 810/2 809/1
f 816/4 815/3 814/2 813/1
