o FancyRoach_Roof
v -20725.0705 -11952.0649 1749.9760
v -20733.4763 -11531.6657 1749.9760
v -20833.4563 -11533.6648 1749.9760
v -20825.0505 -11954.0640 1749.9760
v -20825.0505 -11954.0640 1771.9760
v -20833.4563 -11533.6648 1771.9760
v -20733.4763 -11531.6657 1771.9760
v -20725.0705 -11952.0649 1771.9760
v -20825.0505 -11954.0640 1749.9760
v -20833.4563 -11533.6648 1749.9760
v -20833.4563 -11533.6648 1771.9760
v -20825.0505 -11954.0640 1771.9760
v -20833.4563 -11533.6648 1749.9760
v -20733.4763 -11531.6657 1749.9760
v -20733.4763 -11531.6657 1771.9760
v -20833.4563 -11533.6648 1771.9760
v -20733.4763 -11531.6657 1749.9760
v -20725.0705 -11952.0649 1749.9760
v -20725.0705 -11952.0649 1771.9760
v -20733.4763 -11531.6657 1771.9760
v -20725.0705 -11952.0649 1749.9760
v -20825.0505 -11954.0640 1749.9760
v -20825.0505 -11954.0640 1771.9760
v -20725.0705 -11952.0649 1771.9760
v -20732.9924 -11555.6492 1749.9760
v -20735.9499 -11410.3672 1749.9760
v -20835.9291 -11412.4025 1749.9760
v -20832.9717 -11557.6845 1749.9760
v -20832.9717 -11557.6845 1771.9760
v -20835.9291 -11412.4025 1771.9760
v -20735.9499 -11410.3672 1771.9760
v -20732.9924 -11555.6492 1771.9760
v -20832.9717 -11557.6845 1749.9760
v -20835.9291 -11412.4025 1749.9760
v -20835.9291 -11412.4025 1771.9760
v -20832.9717 -11557.6845 1771.9760
v -20835.9291 -11412.4025 1749.9760
v -20735.9499 -11410.3672 1749.9760
v -20735.9499 -11410.3672 1771.9760
v -20835.9291 -11412.4025 1771.9760
v -20735.9499 -11410.3672 1749.9760
v -20732.9924 -11555.6492 1749.9760
v -20732.9924 -11555.6492 1771.9760
v -20735.9499 -11410.3672 1771.9760
v -20732.9924 -11555.6492 1749.9760
v -20832.9717 -11557.6845 1749.9760
v -20832.9717 -11557.6845 1771.9760
v -20732.9924 -11555.6492 1771.9760
v -20735.4462 -11434.3191 1749.9760
v -20750.2468 -10752.1447 1749.9760
v -20850.2233 -10754.3138 1749.9760
v -20835.4227 -11436.4882 1749.9760
v -20835.4227 -11436.4882 1771.9760
v -20850.2233 -10754.3138 1771.9760
v -20750.2468 -10752.1447 1771.9760
v -20735.4462 -11434.3191 1771.9760
v -20835.4227 -11436.4882 1749.9760
v -20850.2233 -10754.3138 1749.9760
v -20850.2233 -10754.3138 1771.9760
v -20835.4227 -11436.4882 1771.9760
v -20850.2233 -10754.3138 1749.9760
v -20750.2468 -10752.1447 1749.9760
v -20750.2468 -10752.1447 1771.9760
v -20850.2233 -10754.3138 1771.9760
v -20750.2468 -10752.1447 1749.9760
v -20735.4462 -11434.3191 1749.9760
v -20735.4462 -11434.3191 1771.9760
v -20750.2468 -10752.1447 1771.9760
v -20735.4462 -11434.3191 1749.9760
v -20835.4227 -11436.4882 1749.9760
v -20835.4227 -11436.4882 1771.9760
v -20735.4462 -11434.3191 1771.9760
v -20749.7321 -10776.1557 1749.9760
v -20770.1563 -9811.8381 1749.9760
v -20870.1339 -9813.9556 1749.9760
v -20849.7097 -10778.2732 1749.9760
v -20849.7097 -10778.2732 1771.9760
v -20870.1339 -9813.9556 1771.9760
v -20770.1563 -9811.8381 1771.9760
v -20749.7321 -10776.1557 1771.9760
v -20849.7097 -10778.2732 1749.9760
v -20870.1339 -9813.9556 1749.9760
v -20870.1339 -9813.9556 1771.9760
v -20849.7097 -10778.2732 1771.9760
v -20870.1339 -9813.9556 1749.9760
v -20770.1563 -9811.8381 1749.9760
v -20770.1563 -9811.8381 1771.9760
v -20870.1339 -9813.9556 1771.9760
v -20770.1563 -9811.8381 1749.9760
v -20749.7321 -10776.1557 1749.9760
v -20749.7321 -10776.1557 1771.9760
v -20770.1563 -9811.8381 1771.9760
v -20749.7321 -10776.1557 1749.9760
v -20849.7097 -10778.2732 1749.9760
v -20849.7097 -10778.2732 1771.9760
v -20749.7321 -10776.1557 1771.9760
v -20813.1967 -9856.7662 1749.9760
v -19892.8664 -9836.7596 1749.9760
v -19895.0397 -9736.7833 1749.9760
v -20815.3700 -9756.7899 1749.9760
v -20815.3700 -9756.7899 1771.9760
v -19895.0397 -9736.7833 1771.9760
v -19892.8664 -9836.7596 1771.9760
v -20813.1967 -9856.7662 1771.9760
v -20815.3700 -9756.7899 1749.9760
v -19895.0397 -9736.7833 1749.9760
v -19895.0397 -9736.7833 1771.9760
v -20815.3700 -9756.7899 1771.9760
v -19895.0397 -9736.7833 1749.9760
v -19892.8664 -9836.7596 1749.9760
v -19892.8664 -9836.7596 1771.9760
v -19895.0397 -9736.7833 1771.9760
v -19892.8664 -9836.7596 1749.9760
v -20813.1967 -9856.7662 1749.9760
v -20813.1967 -9856.7662 1771.9760
v -19892.8664 -9836.7596 1771.9760
v -20813.1967 -9856.7662 1749.9760
v -20815.3700 -9756.7899 1749.9760
v -20815.3700 -9756.7899 1771.9760
v -20813.1967 -9856.7662 1771.9760
v -19936.1456 -9820.2746 1749.9760
v -19812.5746 -9935.3009 1749.9760
v -19744.4399 -9862.1048 1749.9760
v -19868.0109 -9747.0785 1749.9760
v -19868.0109 -9747.0785 1771.9760
v -19744.4399 -9862.1048 1771.9760
v -19812.5746 -9935.3009 1771.9760
v -19936.1456 -9820.2746 1771.9760
v -19868.0109 -9747.0785 1749.9760
v -19744.4399 -9862.1048 1749.9760
v -19744.4399 -9862.1048 1771.9760
v -19868.0109 -9747.0785 1771.9760
v -19744.4399 -9862.1048 1749.9760
v -19812.5746 -9935.3009 1749.9760
v -19812.5746 -9935.3009 1771.9760
v -19744.4399 -9862.1048 1771.9760
v -19812.5746 -9935.3009 1749.9760
v -19936.1456 -9820.2746 1749.9760
v -19936.1456 -9820.2746 1771.9760
v -19812.5746 -9935.3009 1771.9760
v -19936.1456 -9820.2746 1749.9760
v -19868.0109 -9747.0785 1749.9760
v -19868.0109 -9747.0785 1771.9760
v -19936.1456 -9820.2746 1771.9760
v -19810.8270 -9935.9656 1749.9760
v -19522.2301 -9929.4259 1749.9760
v -19524.4956 -9829.4516 1749.9760
v -19813.0924 -9835.9913 1749.9760
v -19813.0924 -9835.9913 1771.9760
v -19524.4956 -9829.4516 1771.9760
v -19522.2301 -9929.4259 1771.9760
v -19810.8270 -9935.9656 1771.9760
v -19813.0924 -9835.9913 1749.9760
v -19524.4956 -9829.4516 1749.9760
v -19524.4956 -9829.4516 1771.9760
v -19813.0924 -9835.9913 1771.9760
v -19524.4956 -9829.4516 1749.9760
v -19522.2301 -9929.4259 1749.9760
v -19522.2301 -9929.4259 1771.9760
v -19524.4956 -9829.4516 1771.9760
v -19522.2301 -9929.4259 1749.9760
v -19810.8270 -9935.9656 1749.9760
v -19810.8270 -9935.9656 1771.9760
v -19522.2301 -9929.4259 1771.9760
v -19810.8270 -9935.9656 1749.9760
v -19813.0924 -9835.9913 1749.9760
v -19813.0924 -9835.9913 1771.9760
v -19810.8270 -9935.9656 1771.9760
v -19502.7247 -9909.0815 1749.9760
v -19506.1904 -9730.8850 1749.9760
v -19606.1715 -9732.8295 1749.9760
v -19602.7058 -9911.0260 1749.9760
v -19602.7058 -9911.0260 1771.9760
v -19606.1715 -9732.8295 1771.9760
v -19506.1904 -9730.8850 1771.9760
v -19502.7247 -9909.0815 1771.9760
v -19602.7058 -9911.0260 1749.9760
v -19606.1715 -9732.8295 1749.9760
v -19606.1715 -9732.8295 1771.9760
v -19602.7058 -9911.0260 1771.9760
v -19606.1715 -9732.8295 1749.9760
v -19506.1904 -9730.8850 1749.9760
v -19506.1904 -9730.8850 1771.9760
v -19606.1715 -9732.8295 1771.9760
v -19506.1904 -9730.8850 1749.9760
v -19502.7247 -9909.0815 1749.9760
v -19502.7247 -9909.0815 1771.9760
v -19506.1904 -9730.8850 1771.9760
v -19502.7247 -9909.0815 1749.9760
v -19602.7058 -9911.0260 1749.9760
v -19602.7058 -9911.0260 1771.9760
v -19502.7247 -9909.0815 1771.9760
v -19549.3046 -9775.7400 1749.9760
v -17789.9965 -9740.3300 1749.9760
v -17792.0088 -9640.3503 1749.9760
v -19551.3169 -9675.7602 1749.9760
v -19551.3169 -9675.7602 1771.9760
v -17792.0088 -9640.3503 1771.9760
v -17789.9965 -9740.3300 1771.9760
v -19549.3046 -9775.7400 1771.9760
v -19551.3169 -9675.7602 1749.9760
v -17792.0088 -9640.3503 1749.9760
v -17792.0088 -9640.3503 1771.9760
v -19551.3169 -9675.7602 1771.9760
v -17792.0088 -9640.3503 1749.9760
v -17789.9965 -9740.3300 1749.9760
v -17789.9965 -9740.3300 1771.9760
v -17792.0088 -9640.3503 1771.9760
v -17789.9965 -9740.3300 1749.9760
v -19549.3046 -9775.7400 1749.9760
v -19549.3046 -9775.7400 1771.9760
v -17789.9965 -9740.3300 1771.9760
v -19549.3046 -9775.7400 1749.9760
v -19551.3169 -9675.7602 1749.9760
v -19551.3169 -9675.7602 1771.9760
v -19549.3046 -9775.7400 1771.9760
v -17834.8403 -9697.1320 1749.9760
v -17833.7752 -9758.8484 1749.9760
v -17733.7901 -9757.1228 1749.9760
v -17734.8552 -9695.4064 1749.9760
v -17734.8552 -9695.4064 1771.9760
v -17733.7901 -9757.1228 1771.9760
v -17833.7752 -9758.8484 1771.9760
v -17834.8403 -9697.1320 1771.9760
v -17734.8552 -9695.4064 1749.9760
v -17733.7901 -9757.1228 1749.9760
v -17733.7901 -9757.1228 1771.9760
v -17734.8552 -9695.4064 1771.9760
v -17733.7901 -9757.1228 1749.9760
v -17833.7752 -9758.8484 1749.9760
v -17833.7752 -9758.8484 1771.9760
v -17733.7901 -9757.1228 1771.9760
v -17833.7752 -9758.8484 1749.9760
v -17834.8403 -9697.1320 1749.9760
v -17834.8403 -9697.1320 1771.9760
v -17833.7752 -9758.8484 1771.9760
v -17834.8403 -9697.1320 1749.9760
v -17734.8552 -9695.4064 1749.9760
v -17734.8552 -9695.4064 1771.9760
v -17834.8403 -9697.1320 1771.9760
v -17813.3893 -9778.5158 1749.9760
v -17681.3175 -9776.0571 1749.9760
v -17683.1788 -9676.0744 1749.9760
v -17815.2506 -9678.5331 1749.9760
v -17815.2506 -9678.5331 1771.9760
v -17683.1788 -9676.0744 1771.9760
v -17681.3175 -9776.0571 1771.9760
v -17813.3893 -9778.5158 1771.9760
v -17815.2506 -9678.5331 1749.9760
v -17683.1788 -9676.0744 1749.9760
v -17683.1788 -9676.0744 1771.9760
v -17815.2506 -9678.5331 1771.9760
v -17683.1788 -9676.0744 1749.9760
v -17681.3175 -9776.0571 1749.9760
v -17681.3175 -9776.0571 1771.9760
v -17683.1788 -9676.0744 1771.9760
v -17681.3175 -9776.0571 1749.9760
v -17813.3893 -9778.5158 1749.9760
v -17813.3893 -9778.5158 1771.9760
v -17681.3175 -9776.0571 1771.9760
v -17813.3893 -9778.5158 1749.9760
v -17815.2506 -9678.5331 1749.9760
v -17815.2506 -9678.5331 1771.9760
v -17813.3893 -9778.5158 1771.9760
v -17726.1466 -9732.9341 1749.9760
v -17683.1574 -11863.1892 1749.9760
v -17583.1777 -11861.1716 1749.9760
v -17626.1670 -9730.9165 1749.9760
v -17626.1670 -9730.9165 1771.9760
v -17583.1777 -11861.1716 1771.9760
v -17683.1574 -11863.1892 1771.9760
v -17726.1466 -9732.9341 1771.9760
v -17626.1670 -9730.9165 1749.9760
v -17583.1777 -11861.1716 1749.9760
v -17583.1777 -11861.1716 1771.9760
v -17626.1670 -9730.9165 1771.9760
v -17583.1777 -11861.1716 1749.9760
v -17683.1574 -11863.1892 1749.9760
v -17683.1574 -11863.1892 1771.9760
v -17583.1777 -11861.1716 1771.9760
v -17683.1574 -11863.1892 1749.9760
v -17726.1466 -9732.9341 1749.9760
v -17726.1466 -9732.9341 1771.9760
v -17683.1574 -11863.1892 1771.9760
v -17726.1466 -9732.9341 1749.9760
v -17626.1670 -9730.9165 1749.9760
v -17626.1670 -9730.9165 1771.9760
v -17726.1466 -9732.9341 1771.9760
v -17640.0889 -11818.2981 1749.9760
v -17752.0825 -11820.6793 1749.9760
v -17749.9568 -11920.6567 1749.9760
v -17637.9632 -11918.2756 1749.9760
v -17637.9632 -11918.2756 1771.9760
v -17749.9568 -11920.6567 1771.9760
v -17752.0825 -11820.6793 1771.9760
v -17640.0889 -11818.2981 1771.9760
v -17637.9632 -11918.2756 1749.9760
v -17749.9568 -11920.6567 1749.9760
v -17749.9568 -11920.6567 1771.9760
v -17637.9632 -11918.2756 1771.9760
v -17749.9568 -11920.6567 1749.9760
v -17752.0825 -11820.6793 1749.9760
v -17752.0825 -11820.6793 1771.9760
v -17749.9568 -11920.6567 1771.9760
v -17752.0825 -11820.6793 1749.9760
v -17640.0889 -11818.2981 1749.9760
v -17640.0889 -11818.2981 1771.9760
v -17752.0825 -11820.6793 1771.9760
v -17640.0889 -11818.2981 1749.9760
v -17637.9632 -11918.2756 1749.9760
v -17637.9632 -11918.2756 1771.9760
v -17640.0889 -11818.2981 1771.9760
v -17771.6073 -11840.9710 1749.9760
v -17770.5422 -11902.6874 1749.9760
v -17670.5571 -11900.9618 1749.9760
v -17671.6222 -11839.2454 1749.9760
v -17671.6222 -11839.2454 1771.9760
v -17670.5571 -11900.9618 1771.9760
v -17770.5422 -11902.6874 1771.9760
v -17771.6073 -11840.9710 1771.9760
v -17671.6222 -11839.2454 1749.9760
v -17670.5571 -11900.9618 1749.9760
v -17670.5571 -11900.9618 1771.9760
v -17671.6222 -11839.2454 1771.9760
v -17670.5571 -11900.9618 1749.9760
v -17770.5422 -11902.6874 1749.9760
v -17770.5422 -11902.6874 1771.9760
v -17670.5571 -11900.9618 1771.9760
v -17770.5422 -11902.6874 1749.9760
v -17771.6073 -11840.9710 1749.9760
v -17771.6073 -11840.9710 1771.9760
v -17770.5422 -11902.6874 1771.9760
v -17771.6073 -11840.9710 1749.9760
v -17671.6222 -11839.2454 1749.9760
v -17671.6222 -11839.2454 1771.9760
v -17771.6073 -11840.9710 1771.9760
v -17727.3995 -11857.9023 1749.9760
v -19477.4566 -11893.0766 1749.9760
v -19475.4471 -11993.0564 1749.9760
v -17725.3900 -11957.8821 1749.9760
v -17725.3900 -11957.8821 1771.9760
v -19475.4471 -11993.0564 1771.9760
v -19477.4566 -11893.0766 1771.9760
v -17727.3995 -11857.9023 1771.9760
v -17725.3900 -11957.8821 1749.9760
v -19475.4471 -11993.0564 1749.9760
v -19475.4471 -11993.0564 1771.9760
v -17725.3900 -11957.8821 1771.9760
v -19475.4471 -11993.0564 1749.9760
v -19477.4566 -11893.0766 1749.9760
v -19477.4566 -11893.0766 1771.9760
v -19475.4471 -11993.0564 1771.9760
v -19477.4566 -11893.0766 1749.9760
v -17727.3995 -11857.9023 1749.9760
v -17727.3995 -11857.9023 1771.9760
v -19477.4566 -11893.0766 1771.9760
v -17727.3995 -11857.9023 1749.9760
v -17725.3900 -11957.8821 1749.9760
v -17725.3900 -11957.8821 1771.9760
v -17727.3995 -11857.9023 1771.9760
v -19432.5876 -11936.2014 1749.9760
v -19434.0756 -11860.0660 1749.9760
v -19534.0565 -11862.0200 1749.9760
v -19532.5685 -11938.1554 1749.9760
v -19532.5685 -11938.1554 1771.9760
v -19534.0565 -11862.0200 1771.9760
v -19434.0756 -11860.0660 1771.9760
v -19432.5876 -11936.2014 1771.9760
v -19532.5685 -11938.1554 1749.9760
v -19534.0565 -11862.0200 1749.9760
v -19534.0565 -11862.0200 1771.9760
v -19532.5685 -11938.1554 1771.9760
v -19534.0565 -11862.0200 1749.9760
v -19434.0756 -11860.0660 1749.9760
v -19434.0756 -11860.0660 1771.9760
v -19534.0565 -11862.0200 1771.9760
v -19434.0756 -11860.0660 1749.9760
v -19432.5876 -11936.2014 1749.9760
v -19432.5876 -11936.2014 1771.9760
v -19434.0756 -11860.0660 1771.9760
v -19432.5876 -11936.2014 1749.9760
v -19532.5685 -11938.1554 1749.9760
v -19532.5685 -11938.1554 1771.9760
v -19432.5876 -11936.2014 1771.9760
v -19454.4670 -11840.4591 1749.9760
v -19606.6054 -11843.4533 1749.9760
v -19604.6376 -11943.4340 1749.9760
v -19452.4993 -11940.4397 1749.9760
v -19452.4993 -11940.4397 1771.9760
v -19604.6376 -11943.4340 1771.9760
v -19606.6054 -11843.4533 1771.9760
v -19454.4670 -11840.4591 1771.9760
v -19452.4993 -11940.4397 1749.9760
v -19604.6376 -11943.4340 1749.9760
v -19604.6376 -11943.4340 1771.9760
v -19452.4993 -11940.4397 1771.9760
v -19604.6376 -11943.4340 1749.9760
v -19606.6054 -11843.4533 1749.9760
v -19606.6054 -11843.4533 1771.9760
v -19604.6376 -11943.4340 1771.9760
v -19606.6054 -11843.4533 1749.9760
v -19454.4670 -11840.4591 1749.9760
v -19454.4670 -11840.4591 1771.9760
v -19606.6054 -11843.4533 1771.9760
v -19454.4670 -11840.4591 1749.9760
v -19452.4993 -11940.4397 1749.9760
v -19452.4993 -11940.4397 1771.9760
v -19454.4670 -11840.4591 1771.9760
v -19626.2729 -11864.0288 1749.9760
v -19624.5994 -11929.8000 1749.9760
v -19524.6318 -11927.2565 1749.9760
v -19526.3052 -11861.4853 1749.9760
v -19526.3052 -11861.4853 1771.9760
v -19524.6318 -11927.2565 1771.9760
v -19624.5994 -11929.8000 1771.9760
v -19626.2729 -11864.0288 1771.9760
v -19526.3052 -11861.4853 1749.9760
v -19524.6318 -11927.2565 1749.9760
v -19524.6318 -11927.2565 1771.9760
v -19526.3052 -11861.4853 1771.9760
v -19524.6318 -11927.2565 1749.9760
v -19624.5994 -11929.8000 1749.9760
v -19624.5994 -11929.8000 1771.9760
v -19524.6318 -11927.2565 1771.9760
v -19624.5994 -11929.8000 1749.9760
v -19626.2729 -11864.0288 1749.9760
v -19626.2729 -11864.0288 1771.9760
v -19624.5994 -11929.8000 1771.9760
v -19626.2729 -11864.0288 1749.9760
v -19526.3052 -11861.4853 1749.9760
v -19526.3052 -11861.4853 1771.9760
v -19626.2729 -11864.0288 1771.9760
v -19581.5691 -11884.7523 1749.9760
v -20769.9532 -11908.9580 1749.9760
v -20767.9167 -12008.9373 1749.9760
v -19579.5327 -11984.7315 1749.9760
v -19579.5327 -11984.7315 1771.9760
v -20767.9167 -12008.9373 1771.9760
v -20769.9532 -11908.9580 1771.9760
v -19581.5691 -11884.7523 1771.9760
v -19579.5327 -11984.7315 1749.9760
v -20767.9167 -12008.9373 1749.9760
v -20767.9167 -12008.9373 1771.9760
v -19579.5327 -11984.7315 1771.9760
v -20767.9167 -12008.9373 1749.9760
v -20769.9532 -11908.9580 1749.9760
v -20769.9532 -11908.9580 1771.9760
v -20767.9167 -12008.9373 1771.9760
v -20769.9532 -11908.9580 1749.9760
v -19581.5691 -11884.7523 1749.9760
v -19581.5691 -11884.7523 1771.9760
v -20769.9532 -11908.9580 1771.9760
v -19581.5691 -11884.7523 1749.9760
v -19579.5327 -11984.7315 1749.9760
v -19579.5327 -11984.7315 1771.9760
v -19581.5691 -11884.7523 1771.9760
v -20757.3040 -11940.7070 1740.9760
v -20765.2300 -11544.3030 1740.9760
v -19593.9780 -11875.2110 1740.9760
v -20757.3040 -11940.7070 1740.9760
v -19593.9780 -11875.2110 1740.9760
v -19592.9150 -11916.9900 1740.9760
v -19464.8160 -11924.8290 1740.9760
v -19465.8350 -11872.6890 1740.9760
v -17739.4050 -11852.4170 1740.9760
v -19464.8160 -11924.8290 1740.9760
v -17739.4050 -11852.4170 1740.9760
v -17738.7540 -11890.1370 1740.9760
v -17651.4060 -11850.5460 1740.9760
v -17739.4050 -11852.4170 1740.9760
v -17693.9110 -9744.2860 1740.9760
v -17693.9110 -9744.2860 1740.9760
v -17739.4050 -11852.4170 1740.9760
v -17801.9870 -9746.2980 1740.9760
v -17802.6380 -9708.5780 1740.9760
v -17801.9870 -9746.2980 1740.9760
v -19537.9510 -9743.5050 1740.9760
v -19537.9510 -9743.5050 1740.9760
v -17801.9870 -9746.2980 1740.9760
v -19534.9520 -9897.7060 1740.9760
v -20801.8950 -9824.5130 1740.9760
v -19905.5590 -9805.0280 1740.9760
v -20781.9790 -10764.8360 1740.9760
v -20781.9790 -10764.8360 1740.9760
v -19905.5590 -9805.0280 1740.9760
v -19799.5550 -9903.7020 1740.9760
v -20781.9790 -10764.8360 1740.9760
v -19799.5550 -9903.7020 1740.9760
v -19593.9780 -11875.2110 1740.9760
v -20781.9790 -10764.8360 1740.9760
v -19593.9780 -11875.2110 1740.9760
v -20767.6990 -11423.0160 1740.9760
v -20765.2300 -11544.3030 1740.9760
v -20767.6990 -11423.0160 1740.9760
v -19593.9780 -11875.2110 1740.9760
v -19593.9780 -11875.2110 1740.9760
v -19799.5550 -9903.7020 1740.9760
v -19534.9520 -9897.7060 1740.9760
v -19593.9780 -11875.2110 1740.9760
v -19534.9520 -9897.7060 1740.9760
v -19465.8350 -11872.6890 1740.9760
v -19465.8350 -11872.6890 1740.9760
v -19534.9520 -9897.7060 1740.9760
v -17739.4050 -11852.4170 1740.9760
v -17739.4050 -11852.4170 1740.9760
v -19534.9520 -9897.7060 1740.9760
v -17801.9870 -9746.2980 1740.9760
v -22313.9370 -11289.7549 1723.7660
v -21811.6864 -11278.1400 1723.7660
v -21813.9983 -11178.1667 1723.7660
v -22316.2489 -11189.7816 1723.7660
v -22316.2489 -11189.7816 1745.7660
v -21813.9983 -11178.1667 1745.7660
v -21811.6864 -11278.1400 1745.7660
v -22313.9370 -11289.7549 1745.7660
v -22316.2489 -11189.7816 1723.7660
v -21813.9983 -11178.1667 1723.7660
v -21813.9983 -11178.1667 1745.7660
v -22316.2489 -11189.7816 1745.7660
v -21813.9983 -11178.1667 1723.7660
v -21811.6864 -11278.1400 1723.7660
v -21811.6864 -11278.1400 1745.7660
v -21813.9983 -11178.1667 1745.7660
v -21811.6864 -11278.1400 1723.7660
v -22313.9370 -11289.7549 1723.7660
v -22313.9370 -11289.7549 1745.7660
v -21811.6864 -11278.1400 1745.7660
v -22313.9370 -11289.7549 1723.7660
v -22316.2489 -11189.7816 1723.7660
v -22316.2489 -11189.7816 1745.7660
v -22313.9370 -11289.7549 1745.7660
v -21793.1741 -11260.2647 1723.7660
v -21770.9309 -10878.0152 1723.7660
v -21870.7621 -10872.2060 1723.7660
v -21893.0053 -11254.4555 1723.7660
v -21893.0053 -11254.4555 1745.7660
v -21870.7621 -10872.2060 1745.7660
v -21770.9309 -10878.0152 1745.7660
v -21793.1741 -11260.2647 1745.7660
v -21893.0053 -11254.4555 1723.7660
v -21870.7621 -10872.2060 1723.7660
v -21870.7621 -10872.2060 1745.7660
v -21893.0053 -11254.4555 1745.7660
v -21870.7621 -10872.2060 1723.7660
v -21770.9309 -10878.0152 1723.7660
v -21770.9309 -10878.0152 1745.7660
v -21870.7621 -10872.2060 1745.7660
v -21770.9309 -10878.0152 1723.7660
v -21793.1741 -11260.2647 1723.7660
v -21793.1741 -11260.2647 1745.7660
v -21770.9309 -10878.0152 1745.7660
v -21793.1741 -11260.2647 1723.7660
v -21893.0053 -11254.4555 1723.7660
v -21893.0053 -11254.4555 1745.7660
v -21793.1741 -11260.2647 1745.7660
v -21815.6263 -10920.1163 1723.7660
v -21094.9513 -10921.2946 1723.7660
v -21094.7878 -10821.2947 1723.7660
v -21815.4628 -10820.1165 1723.7660
v -21815.4628 -10820.1165 1745.7660
v -21094.7878 -10821.2947 1745.7660
v -21094.9513 -10921.2946 1745.7660
v -21815.6263 -10920.1163 1745.7660
v -21815.4628 -10820.1165 1723.7660
v -21094.7878 -10821.2947 1723.7660
v -21094.7878 -10821.2947 1745.7660
v -21815.4628 -10820.1165 1745.7660
v -21094.7878 -10821.2947 1723.7660
v -21094.9513 -10921.2946 1723.7660
v -21094.9513 -10921.2946 1745.7660
v -21094.7878 -10821.2947 1745.7660
v -21094.9513 -10921.2946 1723.7660
v -21815.6263 -10920.1163 1723.7660
v -21815.6263 -10920.1163 1745.7660
v -21094.9513 -10921.2946 1745.7660
v -21815.6263 -10920.1163 1723.7660
v -21815.4628 -10820.1165 1723.7660
v -21815.4628 -10820.1165 1745.7660
v -21815.6263 -10920.1163 1745.7660
v -21138.5208 -10876.3112 1723.7660
v -21158.7268 -11543.0612 1723.7660
v -21058.7727 -11546.0903 1723.7660
v -21038.5667 -10879.3403 1723.7660
v -21038.5667 -10879.3403 1745.7660
v -21058.7727 -11546.0903 1745.7660
v -21158.7268 -11543.0612 1745.7660
v -21138.5208 -10876.3112 1745.7660
v -21038.5667 -10879.3403 1723.7660
v -21058.7727 -11546.0903 1723.7660
v -21058.7727 -11546.0903 1745.7660
v -21038.5667 -10879.3403 1745.7660
v -21058.7727 -11546.0903 1723.7660
v -21158.7268 -11543.0612 1723.7660
v -21158.7268 -11543.0612 1745.7660
v -21058.7727 -11546.0903 1745.7660
v -21158.7268 -11543.0612 1723.7660
v -21138.5208 -10876.3112 1723.7660
v -21138.5208 -10876.3112 1745.7660
v -21158.7268 -11543.0612 1745.7660
v -21138.5208 -10876.3112 1723.7660
v -21038.5667 -10879.3403 1723.7660
v -21038.5667 -10879.3403 1745.7660
v -21138.5208 -10876.3112 1745.7660
v -21115.1958 -11499.7411 1723.7660
v -21179.6320 -11501.3806 1723.7660
v -21177.0886 -11601.3482 1723.7660
v -21112.6523 -11599.7088 1723.7660
v -21112.6523 -11599.7088 1745.7660
v -21177.0886 -11601.3482 1745.7660
v -21179.6320 -11501.3806 1745.7660
v -21115.1958 -11499.7411 1745.7660
v -21112.6523 -11599.7088 1723.7660
v -21177.0886 -11601.3482 1723.7660
v -21177.0886 -11601.3482 1745.7660
v -21112.6523 -11599.7088 1745.7660
v -21177.0886 -11601.3482 1723.7660
v -21179.6320 -11501.3806 1723.7660
v -21179.6320 -11501.3806 1745.7660
v -21177.0886 -11601.3482 1745.7660
v -21179.6320 -11501.3806 1723.7660
v -21115.1958 -11499.7411 1723.7660
v -21115.1958 -11499.7411 1745.7660
v -21179.6320 -11501.3806 1745.7660
v -21115.1958 -11499.7411 1723.7660
v -21112.6523 -11599.7088 1723.7660
v -21112.6523 -11599.7088 1745.7660
v -21115.1958 -11499.7411 1745.7660
v -21198.1613 -11519.4323 1723.7660
v -21219.4647 -11932.3784 1723.7660
v -21119.5976 -11937.5305 1723.7660
v -21098.2941 -11524.5843 1723.7660
v -21098.2941 -11524.5843 1745.7660
v -21119.5976 -11937.5305 1745.7660
v -21219.4647 -11932.3784 1745.7660
v -21198.1613 -11519.4323 1745.7660
v -21098.2941 -11524.5843 1723.7660
v -21119.5976 -11937.5305 1723.7660
v -21119.5976 -11937.5305 1745.7660
v -21098.2941 -11524.5843 1745.7660
v -21119.5976 -11937.5305 1723.7660
v -21219.4647 -11932.3784 1723.7660
v -21219.4647 -11932.3784 1745.7660
v -21119.5976 -11937.5305 1745.7660
v -21219.4647 -11932.3784 1723.7660
v -21198.1613 -11519.4323 1723.7660
v -21198.1613 -11519.4323 1745.7660
v -21219.4647 -11932.3784 1745.7660
v -21198.1613 -11519.4323 1723.7660
v -21098.2941 -11524.5843 1723.7660
v -21098.2941 -11524.5843 1745.7660
v -21198.1613 -11519.4323 1745.7660
v -21175.7068 -11889.7481 1723.7660
v -21308.3740 -11893.1236 1723.7660
v -21305.8306 -11993.0912 1723.7660
v -21173.1633 -11989.7158 1723.7660
v -21173.1633 -11989.7158 1745.7660
v -21305.8306 -11993.0912 1745.7660
v -21308.3740 -11893.1236 1745.7660
v -21175.7068 -11889.7481 1745.7660
v -21173.1633 -11989.7158 1723.7660
v -21305.8306 -11993.0912 1723.7660
v -21305.8306 -11993.0912 1745.7660
v -21173.1633 -11989.7158 1745.7660
v -21305.8306 -11993.0912 1723.7660
v -21308.3740 -11893.1236 1723.7660
v -21308.3740 -11893.1236 1745.7660
v -21305.8306 -11993.0912 1745.7660
v -21308.3740 -11893.1236 1723.7660
v -21175.7068 -11889.7481 1723.7660
v -21175.7068 -11889.7481 1745.7660
v -21308.3740 -11893.1236 1745.7660
v -21175.7068 -11889.7481 1723.7660
v -21173.1633 -11989.7158 1723.7660
v -21173.1633 -11989.7158 1745.7660
v -21175.7068 -11889.7481 1745.7660
v -21327.6596 -11913.0661 1723.7660
v -21327.0373 -11990.3303 1723.7660
v -21227.0406 -11989.5250 1723.7660
v -21227.6629 -11912.2607 1723.7660
v -21227.6629 -11912.2607 1745.7660
v -21227.0406 -11989.5250 1745.7660
v -21327.0373 -11990.3303 1745.7660
v -21327.6596 -11913.0661 1745.7660
v -21227.6629 -11912.2607 1723.7660
v -21227.0406 -11989.5250 1723.7660
v -21227.0406 -11989.5250 1745.7660
v -21227.6629 -11912.2607 1745.7660
v -21227.0406 -11989.5250 1723.7660
v -21327.0373 -11990.3303 1723.7660
v -21327.0373 -11990.3303 1745.7660
v -21227.0406 -11989.5250 1745.7660
v -21327.0373 -11990.3303 1723.7660
v -21327.6596 -11913.0661 1723.7660
v -21327.6596 -11913.0661 1745.7660
v -21327.0373 -11990.3303 1745.7660
v -21327.6596 -11913.0661 1723.7660
v -21227.6629 -11912.2607 1723.7660
v -21227.6629 -11912.2607 1745.7660
v -21327.6596 -11913.0661 1745.7660
v -21283.9303 -11945.7859 1723.7660
v -22361.6539 -11972.4546 1723.7660
v -22359.1802 -12072.4240 1723.7660
v -21281.4565 -12045.7553 1723.7660
v -21281.4565 -12045.7553 1745.7660
v -22359.1802 -12072.4240 1745.7660
v -22361.6539 -11972.4546 1745.7660
v -21283.9303 -11945.7859 1745.7660
v -21281.4565 -12045.7553 1723.7660
v -22359.1802 -12072.4240 1723.7660
v -22359.1802 -12072.4240 1745.7660
v -21281.4565 -12045.7553 1745.7660
v -22359.1802 -12072.4240 1723.7660
v -22361.6539 -11972.4546 1723.7660
v -22361.6539 -11972.4546 1745.7660
v -22359.1802 -12072.4240 1745.7660
v -22361.6539 -11972.4546 1723.7660
v -21283.9303 -11945.7859 1723.7660
v -21283.9303 -11945.7859 1745.7660
v -22361.6539 -11972.4546 1745.7660
v -21283.9303 -11945.7859 1723.7660
v -21281.4565 -12045.7553 1723.7660
v -21281.4565 -12045.7553 1745.7660
v -21283.9303 -11945.7859 1745.7660
v -22317.6679 -12018.1007 1723.7660
v -22270.0002 -11247.4845 1723.7660
v -22369.8094 -11241.3107 1723.7660
v -22417.4771 -12011.9269 1723.7660
v -22417.4771 -12011.9269 1745.7660
v -22369.8094 -11241.3107 1745.7660
v -22270.0002 -11247.4845 1745.7660
v -22317.6679 -12018.1007 1745.7660
v -22417.4771 -12011.9269 1723.7660
v -22369.8094 -11241.3107 1723.7660
v -22369.8094 -11241.3107 1745.7660
v -22417.4771 -12011.9269 1745.7660
v -22369.8094 -11241.3107 1723.7660
v -22270.0002 -11247.4845 1723.7660
v -22270.0002 -11247.4845 1745.7660
v -22369.8094 -11241.3107 1745.7660
v -22270.0002 -11247.4845 1723.7660
v -22317.6679 -12018.1007 1723.7660
v -22317.6679 -12018.1007 1745.7660
v -22270.0002 -11247.4845 1745.7660
v -22317.6679 -12018.1007 1723.7660
v -22417.4771 -12011.9269 1723.7660
v -22417.4771 -12011.9269 1745.7660
v -22317.6679 -12018.1007 1745.7660
v -22348.8660 -12004.1480 1714.7660
v -22302.6800 -11257.4860 1714.7660
v -21824.4230 -11246.4260 1714.7660
v -22348.8660 -12004.1480 1714.7660
v -21824.4230 -11246.4260 1714.7660
v -21295.5640 -11924.8080 1714.7660
v -22348.8660 -12004.1480 1714.7660
v -21295.5640 -11924.8080 1714.7660
v -21295.1350 -11978.0730 1714.7660
v -21186.8890 -11922.0430 1714.7660
v -21295.5640 -11924.8080 1714.7660
v -21166.8220 -11533.0650 1714.7660
v -21126.3780 -11532.0360 1714.7660
v -21166.8220 -11533.0650 1714.7660
v -21106.8990 -10889.2750 1714.7660
v -21106.8990 -10889.2750 1714.7660
v -21166.8220 -11533.0650 1714.7660
v -21824.4230 -11246.4260 1714.7660
v -21106.8990 -10889.2750 1714.7660
v -21824.4230 -11246.4260 1714.7660
v -21803.5740 -10888.1360 1714.7660
v -21824.4230 -11246.4260 1714.7660
v -21166.8220 -11533.0650 1714.7660
v -21295.5640 -11924.8080 1714.7660
vt 0 0
vt 1 0
vt 1 1
vt 0 1
f 4/4 3/3 2/2 1/1
f 8/4 7/3 6/2 5/1
f 12/4 11/3 10/2 9/1
f 16/4 15/3 14/2 13/1
f 20/4 19/3 18/2 17/1
f 24/4 23/3 22/2 21/1
f 28/4 27/3 26/2 25/1
f 32/4 31/3 30/2 29/1
f 36/4 35/3 34/2 33/1
f 40/4 39/3 38/2 37/1
f 44/4 43/3 42/2 41/1
f 48/4 47/3 46/2 45/1
f 52/4 51/3 50/2 49/1
f 56/4 55/3 54/2 53/1
f 60/4 59/3 58/2 57/1
f 64/4 63/3 62/2 61/1
f 68/4 67/3 66/2 65/1
f 72/4 71/3 70/2 69/1
f 76/4 75/3 74/2 73/1
f 80/4 79/3 78/2 77/1
f 84/4 83/3 82/2 81/1
f 88/4 87/3 86/2 85/1
f 92/4 91/3 90/2 89/1
f 96/4 95/3 94/2 93/1
f 100/4 99/3 98/2 97/1
f 104/4 103/3 102/2 101/1
f 108/4 107/3 106/2 105/1
f 112/4 111/3 110/2 109/1
f 116/4 115/3 114/2 113/1
f 120/4 119/3 118/2 117/1
f 124/4 123/3 122/2 121/1
f 128/4 127/3 126/2 125/1
f 132/4 131/3 130/2 129/1
f 136/4 135/3 134/2 133/1
f 140/4 139/3 138/2 137/1
f 144/4 143/3 142/2 141/1
f 148/4 147/3 146/2 145/1
f 152/4 151/3 150/2 149/1
f 156/4 155/3 154/2 153/1
f 160/4 159/3 158/2 157/1
f 164/4 163/3 162/2 161/1
f 168/4 167/3 166/2 165/1
f 172/4 171/3 170/2 169/1
f 176/4 175/3 174/2 173/1
f 180/4 179/3 178/2 177/1
f 184/4 183/3 182/2 181/1
f 188/4 187/3 186/2 185/1
f 192/4 191/3 190/2 189/1
f 196/4 195/3 194/2 193/1
f 200/4 199/3 198/2 197/1
f 204/4 203/3 202/2 201/1
f 208/4 207/3 206/2 205/1
f 212/4 211/3 210/2 209/1
f 216/4 215/3 214/2 213/1
f 220/4 219/3 218/2 217/1
f 224/4 223/3 222/2 221/1
f 228/4 227/3 226/2 225/1
f 232/4 231/3 230/2 229/1
f 236/4 235/3 234/2 233/1
f 240/4 239/3 238/2 237/1
f 244/4 243/3 242/2 241/1
f 248/4 247/3 246/2 245/1
f 252/4 251/3 250/2 249/1
f 256/4 255/3 254/2 253/1
f 260/4 259/3 258/2 257/1
f 264/4 263/3 262/2 261/1
f 268/4 267/3 266/2 265/1
f 272/4 271/3 270/2 269/1
f 276/4 275/3 274/2 273/1
f 280/4 279/3 278/2 277/1
f 284/4 283/3 282/2 281/1
f 288/4 287/3 286/2 285/1
f 292/4 291/3 290/2 289/1
f 296/4 295/3 294/2 293/1
f 300/4 299/3 298/2 297/1
f 304/4 303/3 302/2 301/1
f 308/4 307/3 306/2 305/1
f 312/4 311/3 310/2 309/1
f 316/4 315/3 314/2 313/1
f 320/4 319/3 318/2 317/1
f 324/4 323/3 322/2 321/1
f 328/4 327/3 326/2 325/1
f 332/4 331/3 330/2 329/1
f 336/4 335/3 334/2 333/1
f 340/4 339/3 338/2 337/1
f 344/4 343/3 342/2 341/1
f 348/4 347/3 346/2 345/1
f 352/4 351/3 350/2 349/1
f 356/4 355/3 354/2 353/1
f 360/4 359/3 358/2 357/1
f 364/4 363/3 362/2 361/1
f 368/4 367/3 366/2 365/1
f 372/4 371/3 370/2 369/1
f 376/4 375/3 374/2 373/1
f 380/4 379/3 378/2 377/1
f 384/4 383/3 382/2 381/1
f 388/4 387/3 386/2 385/1
f 392/4 391/3 390/2 389/1
f 396/4 395/3 394/2 393/1
f 400/4 399/3 398/2 397/1
f 404/4 403/3 402/2 401/1
f 408/4 407/3 406/2 405/1
f 412/4 411/3 410/2 409/1
f 416/4 415/3 414/2 413/1
f 420/4 419/3 418/2 417/1
f 424/4 423/3 422/2 421/1
f 428/4 427/3 426/2 425/1
f 432/4 431/3 430/2 429/1
f 436/4 435/3 434/2 433/1
f 440/4 439/3 438/2 437/1
f 444/4 443/3 442/2 441/1
f 448/4 447/3 446/2 445/1
f 452/4 451/3 450/2 449/1
f 456/4 455/3 454/2 453/1
f 459/3 458/2 457/1
f 462/3 461/2 460/1
f 465/3 464/2 463/1
f 468/3 467/2 466/1
f 471/3 470/2 469/1
f 474/3 473/2 472/1
f 477/3 476/2 475/1
f 480/3 479/2 478/1
f 483/3 482/2 481/1
f 486/3 485/2 484/1
f 489/3 488/2 487/1
f 492/3 491/2 490/1
f 495/3 494/2 493/1
f 498/3 497/2 496/1
f 501/3 500/2 499/1
f 504/3 503/2 502/1
f 507/3 506/2 505/1
f 511/4 510/3 509/2 508/1
f 515/4 514/3 513/2 512/1
f 519/4 518/3 517/2 516/1
f 523/4 522/3 521/2 520/1
f 527/4 526/3 525/2 524/1
f 531/4 530/3 529/2 528/1
f 535/4 534/3 533/2 532/1
f 539/4 538/3 537/2 536/1
f 543/4 542/3 541/2 540/1
f 547/4 546/3 545/2 544/1
f 551/4 550/3 549/2 548/1
f 555/4 554/3 553/2 552/1
f 559/4 558/3 557/2 556/1
f 563/4 562/3 561/2 560/1
f 567/4 566/3 565/2 564/1
f 571/4 570/3 569/2 568/1
f 575/4 574/3 573/2 572/1
f 579/4 578/3 577/2 576/1
f 583/4 582/3 581/2 580/1
f 587/4 586/3 585/2 584/1
f 591/4 590/3 589/2 588/1
f 595/4 594/3 593/2 592/1
f 599/4 598/3 597/2 596/1
f 603/4 602/3 601/2 600/1
f 607/4 606/3 605/2 604/1
f 611/4 610/3 609/2 608/1
f 615/4 614/3 613/2 612/1
f 619/4 618/3 617/2 616/1
f 623/4 622/3 621/2 620/1
f 627/4 626/3 625/2 624/1
f 631/4 630/3 629/2 628/1
f 635/4 634/3 633/2 632/1
f 639/4 638/3 637/2 636/1
f 643/4 642/3 641/2 640/1
f 647/4 646/3 645/2 644/1
f 651/4 650/3 649/2 648/1
f 655/4 654/3 653/2 652/1
f 659/4 658/3 657/2 656/1
f 663/4 662/3 661/2 660/1
f 667/4 666/3 665/2 664/1
f 671/4 670/3 669/2 668/1
f 675/4 674/3 673/2 672/1
f 679/4 678/3 677/2 676/1
f 683/4 682/3 681/2 680/1
f 687/4 686/3 685/2 684/1
f 691/4 690/3 689/2 688/1
f 695/4 694/3 693/2 692/1
f 699/4 698/3 697/2 696/1
f 703/4 702/3 701/2 700/1
f 707/4 706/3 705/2 704/1
f 711/4 710/3 709/2 708/1
f 715/4 714/3 713/2 712/1
f 719/4 718/3 717/2 716/1
f 723/4 722/3 721/2 720/1
f 727/4 726/3 725/2 724/1
f 731/4 730/3 729/2 728/1
f 735/4 734/3 733/2 732/1
f 739/4 738/3 737/2 736/1
f 743/4 742/3 741/2 740/1
f 747/4 746/3 745/2 744/1
f 750/3 749/2 748/1
f 753/3 752/2 751/1
f 756/3 755/2 754/1
f 759/3 758/2 757/1
f 762/3 761/2 760/1
f 765/3 764/2 763/1
f 768/3 767/2 766/1
f 771/3 770/2 769/1
