# OSM contributors ODbL; elevations USGS 3DEP
# Centimeters, Z up, OBJ Y = negative Unreal Y.
o Park_Asphalt_5_17
v 5324.954837 -13968.636844 -699.556547
v 5322.478658 -13968.636844 -699.343750
v 5322.478658 -13943.826949 -699.634491
v 5325.229375 -13971.387561 -699.730570
v 5322.478658 -14035.303511 -698.041667
v 5327.473639 -13993.873796 -699.650818
v 5331.693309 -14035.303511 -699.517451
v 5332.738263 -14045.563116 -699.925266
v 5322.478658 -14101.970177 -699.604167
v 5334.076344 -14058.700702 -700.447480
v 5338.483396 -14101.970177 -702.167425
v 5340.298355 -14119.789875 -702.945360
v 5322.478658 -14168.636844 -700.125000
v 5340.695460 -14123.688744 -703.047175
v 5345.273483 -14168.636844 -704.220945
v 5347.858447 -14194.016633 -704.685431
v 5322.478658 -14235.303511 -698.041667
v 5352.063569 -14235.303511 -704.282234
v 5355.418539 -14268.243392 -704.089223
v 5322.478658 -14301.970177 -694.916667
v 5358.853656 -14301.970177 -703.299967
v 5360.146310 -14314.661758 -703.002966
v 5364.651342 -14344.142861 -702.659308
v 5322.478658 -14368.636844 -693.093750
v 5368.318743 -14368.142478 -702.776661
v 5368.394287 -14368.636844 -702.779078
v 5376.676269 -14422.834455 -702.408964
v 5322.478658 -14435.303511 -692.312500
v 5377.097181 -14425.588924 -702.453962
v 5378.581675 -14435.303511 -702.612663
v 5385.875620 -14483.035369 -706.002764
v 5388.701196 -14501.526048 -707.316044
v 5322.478658 -14501.970177 -692.052083
v 5388.769063 -14501.970177 -707.329950
v 5389.145325 -14568.636844 -707.156250
v 5389.145325 -14504.432447 -707.407048
v 5322.478658 -14568.636844 -689.187500
v 5398.956451 -14568.636844 -707.616147
v 5389.145325 -14635.303511 -705.333333
v 5322.478658 -14635.303511 -686.843750
v 5400.726122 -14580.217642 -707.699100
v 5403.432496 -14597.928259 -707.415689
v 5409.143839 -14635.303511 -706.817598
v 5389.145325 -14701.970177 -703.770833
v 5322.478658 -14701.970177 -684.760417
v 5411.557643 -14651.099536 -707.552077
v 5413.301959 -14659.460145 -707.975465
v 5422.171042 -14701.970177 -708.157061
v 5389.145325 -14768.636844 -702.989583
v 5322.478658 -14768.636844 -682.416667
v 5423.767012 -14709.619754 -708.637957
v 5430.877926 -14743.702779 -710.780606
v 5436.080047 -14768.636844 -711.423166
v 5389.145325 -14835.303511 -700.385417
v 5322.478658 -14835.303511 -677.729167
v 5448.453894 -14827.945413 -713.878266
v 5449.952320 -14835.127457 -713.931351
v 5449.989051 -14835.303511 -713.932653
v 5389.145325 -14901.970177 -699.604167
v 5322.478658 -14901.970177 -677.989583
v 5455.811991 -14901.970177 -716.010417
v 5455.811991 -14863.213202 -715.556233
v 5463.044974 -14897.881308 -715.030124
v 5463.898055 -14901.970177 -714.968072
v 5389.145325 -14968.636844 -701.427083
v 5322.478658 -14968.636844 -680.593750
v 5455.811991 -14968.636844 -716.270833
v 5466.029861 -14912.188047 -714.932751
v 5476.137628 -14960.635160 -714.016460
v 5477.807060 -14968.636844 -713.865123
v 5389.145325 -15035.303511 -700.125000
v 5322.478658 -15035.303511 -678.770833
v 5455.811991 -15035.303511 -717.052083
v 5483.605829 -14996.430681 -715.185137
v 5489.230282 -15023.389011 -715.215438
v 5491.716064 -15035.303511 -715.228830
v 5389.145325 -15101.970177 -698.822917
v 5322.478658 -15101.970177 -676.687500
v 5455.811991 -15101.970177 -717.572917
v 5501.181796 -15080.673316 -719.001567
v 5501.823972 -15083.751300 -719.048190
v 5506.209519 -15101.970177 -719.344705
v 5389.145325 -15168.636844 -698.562500
v 5322.478658 -15168.636844 -676.427083
v 5455.811991 -15168.636844 -717.312500
v 5514.657637 -15137.066191 -720.738459
v 5522.186926 -15168.345112 -721.980627
v 5522.257150 -15168.636844 -721.984425
v 5989.145325 -15151.759845 -683.402267
v 5989.145325 -15168.636844 -682.677083
v 5977.398620 -15156.890140 -678.272069
v 5950.502488 -15168.636844 -667.733174
v 6055.811991 -15155.255550 -717.732539
v 6055.811991 -15168.636844 -716.791667
v 6037.910453 -15150.735305 -708.400320
v 6043.986175 -15150.619391 -711.683665
v 5989.370823 -15151.661360 -683.521891
v 6089.944710 -15168.636844 -734.658012
v 5389.145325 -15235.303511 -699.343750
v 5322.478658 -15235.303511 -675.645833
v 5455.811991 -15235.303511 -717.052083
v 5522.478658 -15235.303511 -723.562500
v 5522.478658 -15169.557055 -722.021567
v 5538.304781 -15235.303511 -719.544149
v 5855.811991 -15234.833278 -647.509812
v 5855.811991 -15235.303511 -647.520833
v 5855.576234 -15235.067753 -647.519912
v 5855.339188 -15235.303511 -647.531915
v 5922.478658 -15185.242313 -657.025564
v 5922.478658 -15235.303511 -657.416667
v 5892.963723 -15205.788576 -652.343787
v 5866.475143 -15224.228099 -648.844065
v 5989.145325 -15235.303511 -684.500000
v 5932.268862 -15178.427048 -660.949590
v 5939.311562 -15173.524405 -663.539077
v 6055.811991 -15235.303511 -715.229167
v 6122.478658 -15235.303511 -746.479167
v 6094.842925 -15170.557126 -737.071899
v 6122.478658 -15197.158113 -749.459276
v 6145.931389 -15235.303511 -757.106185
v 6134.198594 -15208.439228 -753.888535
v 5389.145325 -15301.970177 -696.218750
v 5322.478658 -15301.970177 -671.479167
v 5455.811991 -15301.970177 -714.708333
v 5522.478658 -15301.970177 -723.822917
v 5541.468465 -15248.446403 -719.356942
v 5543.322098 -15256.146951 -719.247257
v 5554.352412 -15301.970177 -717.099547
v 5855.811991 -15301.970177 -648.302083
v 5823.882774 -15270.040960 -648.676254
v 5831.998079 -15258.517719 -648.351013
v 5801.396449 -15301.970177 -650.002569
v 5922.478658 -15301.970177 -660.281250
v 5989.145325 -15301.970177 -684.500000
v 6055.811991 -15301.970177 -710.802083
v 6122.478658 -15301.970177 -741.791667
v 6156.263679 -15269.088532 -759.808413
v 6156.061639 -15258.498489 -760.337374
v 6156.891006 -15301.970177 -757.788032
v 5389.145325 -15368.636844 -692.052083
v 5322.478658 -15368.636844 -668.875000
v 5455.811991 -15368.636844 -712.625000
v 5522.478658 -15368.636844 -724.864583
v 5564.457271 -15343.948790 -717.099779
v 5568.279293 -15359.826614 -716.676031
v 5569.822528 -15368.636844 -716.542419
v 5789.145325 -15319.064139 -650.719283
v 5789.145325 -15368.636844 -651.687500
v 5768.372613 -15347.864133 -655.095523
v 5753.389780 -15368.636844 -658.251995
v 5855.811991 -15368.636844 -649.083333
v 5796.308297 -15309.133150 -650.245515
v 5798.155606 -15306.571978 -650.157773
v 5922.478658 -15368.636844 -658.197917
v 5989.145325 -15368.636844 -675.906250
v 6055.811991 -15368.636844 -702.729167
v 6122.478658 -15368.636844 -737.364583
v 6150.490612 -15329.982131 -753.499788
v 6157.103609 -15313.113840 -757.364499
v 6137.165873 -15363.970590 -744.788572
v 6132.674335 -15368.636844 -742.303114
v 5389.145325 -15435.303511 -689.447917
v 5322.478658 -15435.303511 -669.135417
v 5455.811991 -15435.303511 -710.020833
v 5522.478658 -15435.303511 -725.645833
v 5576.528120 -15422.686306 -718.952923
v 5571.745180 -15379.613142 -716.933347
v 5577.856409 -15434.648327 -718.932256
v 5577.929162 -15435.303511 -718.931124
v 5722.478658 -15428.649565 -666.036906
v 5722.478658 -15435.303511 -666.270833
v 5721.072564 -15433.897416 -666.688268
v 5721.156924 -15431.542890 -666.577481
v 5721.022185 -15435.303511 -666.822700
v 5789.145325 -15435.303511 -652.468750
v 5741.297107 -15387.455293 -660.692662
v 5743.854734 -15381.856556 -660.157488
v 5855.811991 -15435.303511 -649.343750
v 5922.478658 -15435.303511 -655.593750
v 5989.145325 -15435.303511 -672.000000
v 6055.811991 -15433.588316 -698.923416
v 6054.800752 -15434.292271 -698.475303
v 6053.348096 -15435.303511 -697.831584
v 6122.478658 -15379.229120 -736.785318
v 6099.283772 -15403.326260 -723.417038
v 6094.105891 -15406.930743 -720.529846
v 6062.865562 -15428.678107 -702.903227
v 6127.673755 -15373.831941 -739.617145
v 5389.145325 -15501.970177 -685.802083
v 5322.478658 -15501.970177 -667.312500
v 5455.811991 -15501.970177 -706.895833
v 5522.478658 -15501.970177 -728.250000
v 5584.855641 -15497.680494 -723.452893
v 5585.331977 -15501.970177 -723.585105
v 5722.478658 -15494.923895 -667.901078
v 5719.201018 -15486.133152 -668.902625
v 5789.145325 -15501.970177 -652.729167
v 5725.105874 -15501.970177 -667.488259
v 5855.811991 -15501.970177 -649.864583
v 5922.478658 -15501.970177 -654.812500
v 5989.145325 -15501.970177 -670.697917
v 6046.709238 -15439.925025 -695.016059
v 6026.627054 -15468.440510 -686.045008
v 6025.710013 -15469.727167 -685.635835
v 6024.812845 -15470.971031 -685.235994
v 6002.453941 -15501.970177 -675.896595
v 5389.145325 -15568.636844 -683.197917
v 5322.478658 -15568.636844 -664.708333
v 5455.811991 -15568.636844 -707.416667
v 5522.478658 -15568.636844 -732.416667
v 5589.145325 -15568.636844 -728.510417
v 5589.145325 -15536.311597 -725.985007
v 5590.448619 -15568.636844 -727.909680
v 5590.078868 -15544.718697 -726.211506
v 5789.145325 -15568.636844 -653.770833
v 5726.667801 -15506.159321 -667.193739
v 5767.438445 -15568.636844 -658.858383
v 5738.284786 -15537.316471 -665.079546
v 5855.811991 -15568.636844 -650.385417
v 5922.478658 -15568.636844 -654.812500
v 5989.145325 -15520.421697 -670.265459
v 5970.946990 -15545.652487 -665.337791
v 5968.468240 -15547.959760 -664.693074
v 5946.254425 -15568.636844 -659.920575
v 5998.328502 -15507.689827 -674.061671
v 5996.877162 -15509.702014 -673.416141
v 5389.145325 -15635.303511 -683.197917
v 5322.478658 -15635.303511 -663.927083
v 5455.811991 -15635.303511 -708.458333
v 5522.478658 -15635.303511 -733.979167
v 5589.145325 -15592.688060 -729.168067
v 5586.460899 -15626.309523 -730.244695
v 5585.994376 -15632.152562 -730.431800
v 5585.742796 -15635.303511 -730.519409
v 5590.469083 -15569.960602 -727.936443
v 5590.548706 -15575.111213 -728.040579
v 5789.145325 -15583.532811 -654.236332
v 5775.502897 -15577.300650 -657.239021
v 5855.811991 -15601.095638 -651.019377
v 5825.189230 -15599.998460 -652.553010
v 5816.569055 -15596.060575 -652.913842
v 5922.478658 -15586.033926 -654.948415
v 5886.590150 -15599.415003 -652.669733
v 5879.779493 -15601.954366 -652.346872
v 5933.940612 -15580.098798 -657.051163
v 5930.962812 -15582.870598 -656.514480
v 5389.145325 -15701.970177 -681.114583
v 5322.478658 -15701.970177 -661.843750
v 5455.811991 -15701.970177 -703.250000
v 5522.478658 -15701.970177 -727.208333
v 5582.373092 -15677.507834 -730.209108
v 5581.065101 -15693.889953 -730.088661
v 5580.419955 -15701.970177 -729.245332
v 5389.145325 -15768.636844 -677.208333
v 5322.478658 -15768.636844 -659.239583
v 5455.811991 -15768.636844 -696.218750
v 5522.478658 -15768.636844 -716.531250
v 5573.728069 -15753.219588 -723.805052
v 5578.285285 -15728.706144 -726.454913
v 5572.205645 -15761.408767 -722.350777
v 5570.064875 -15768.636844 -720.992458
v 5389.145325 -15835.303511 -672.520833
v 5322.478658 -15835.303511 -656.114583
v 5455.811991 -15835.303511 -691.531250
v 5522.478658 -15835.303511 -708.197917
v 5559.191483 -15805.349669 -715.097155
v 5550.319927 -15835.303511 -710.590526
v 5389.145325 -15901.970177 -669.916667
v 5322.478658 -15901.970177 -655.593750
v 5455.811991 -15901.970177 -686.322917
v 5522.478658 -15901.970177 -701.427083
v 5543.958231 -15856.783083 -707.694489
v 5530.574978 -15901.970177 -702.059608
v 5389.145325 -15968.636844 -669.395833
v 5322.478658 -15968.636844 -659.239583
v 5455.811991 -15968.636844 -684.239583
v 5522.478658 -15922.441252 -699.907746
v 5511.822506 -15946.460684 -695.710769
v 5507.461238 -15953.619424 -694.191357
v 5498.312282 -15968.636844 -692.042371
v 5528.724979 -15908.216498 -701.353884
v 5528.595541 -15908.653530 -701.313358
v 5389.145325 -16035.303511 -671.739583
v 5322.478658 -16035.303511 -664.968750
v 5455.811991 -16035.303511 -682.937500
v 5482.222435 -15995.047288 -687.025060
v 5457.697423 -16035.303511 -683.173179
v 5389.145325 -16101.970177 -673.562500
v 5322.478658 -16101.970177 -669.135417
v 5455.811991 -16038.398325 -682.768252
v 5431.744830 -16077.903016 -676.565308
v 5429.925984 -16080.888533 -676.490637
v 5414.513237 -16101.970177 -675.742555
v 5456.983632 -16036.475152 -682.955807
v 5389.145325 -16168.636844 -673.302083
v 5322.478658 -16168.636844 -669.656250
v 5414.057715 -16102.593242 -675.671769
v 5408.191562 -16109.343812 -674.824844
v 5428.116420 -16121.576277 -675.915956
v 5455.811991 -16138.579414 -677.432604
v 5455.811991 -16168.636844 -675.906250
v 5522.478658 -16163.241224 -678.235006
v 5522.478658 -16168.636844 -677.729167
v 5514.564360 -16160.722546 -677.914658
v 5467.464712 -16145.733367 -677.387946
v 5496.076535 -16154.838907 -677.707910
v 5539.433010 -16168.636844 -677.927850
v 5389.145325 -16235.303511 -672.781250
v 5322.478658 -16235.303511 -669.916667
v 5455.811991 -16235.303511 -674.604167
v 5522.478658 -16235.303511 -675.125000
v 5589.145325 -16235.303511 -675.125000
v 5543.265133 -16169.856394 -677.910828
v 5589.145325 -16184.457489 -677.707025
v 5655.811991 -16211.916783 -674.306982
v 5655.811991 -16235.303511 -673.302083
v 5615.099007 -16194.590526 -676.482785
v 5590.453730 -16184.873881 -677.650103
v 5604.586208 -16190.116587 -676.997437
v 5710.765785 -16235.303511 -670.511461
v 5389.145325 -16301.970177 -672.781250
v 5322.478658 -16301.970177 -670.437500
v 5455.811991 -16301.970177 -673.822917
v 5522.478658 -16301.970177 -674.604167
v 5589.145325 -16301.970177 -674.083333
v 5655.811991 -16301.970177 -672.781250
v 5722.478658 -16301.970177 -669.656250
v 5716.309328 -16237.662681 -670.220737
v 5722.478658 -16240.288167 -669.897195
v 5789.145325 -16268.659552 -665.229167
v 5789.145325 -16301.970177 -665.229167
v 5731.156240 -16243.981092 -669.306524
v 5855.811991 -16297.030937 -660.522373
v 5855.811991 -16301.970177 -660.541667
v 5847.213472 -16293.371658 -661.146250
v 5828.032447 -16285.208774 -662.494916
v 5867.418147 -16301.970177 -660.133638
v 5389.145325 -16368.636844 -670.958333
v 5322.478658 -16368.636844 -669.135417
v 5455.811991 -16368.636844 -672.781250
v 5522.478658 -16368.636844 -673.822917
v 5589.145325 -16368.636844 -673.562500
v 5655.811991 -16368.636844 -672.260417
v 5722.478658 -16368.636844 -669.395833
v 5789.145325 -16368.636844 -664.968750
v 5855.811991 -16368.636844 -660.802083
v 5922.478658 -16368.636844 -658.458333
v 5883.894006 -16308.981821 -659.581798
v 5905.423580 -16320.141349 -658.868490
v 5922.478658 -16330.693448 -658.310117
v 5977.744224 -16368.636844 -660.617145
v 5935.986057 -16339.050572 -658.870395
v 5966.548534 -16357.959794 -660.138106
v 5389.145325 -16435.303511 -668.875000
v 5331.208017 -16435.303511 -667.969730
v 5322.478658 -16431.306865 -667.911393
v 5455.811991 -16435.303511 -670.177083
v 5522.478658 -16435.303511 -670.958333
v 5589.145325 -16435.303511 -671.218750
v 5655.811991 -16435.303511 -670.437500
v 5722.478658 -16435.303511 -668.093750
v 5789.145325 -16435.303511 -664.708333
v 5855.811991 -16435.303511 -661.322917
v 5922.478658 -16435.303511 -658.718750
v 5989.145325 -16435.303511 -659.760417
v 5989.145325 -16379.509788 -660.850138
v 6036.122491 -16435.303511 -666.917094
v 6014.285509 -16403.485353 -664.211815
v 5389.145325 -16456.622620 -668.625167
v 5351.845556 -16444.752193 -668.181464
v 5455.811991 -16477.838885 -668.847853
v 5446.222751 -16474.787167 -668.755929
v 5420.416202 -16466.574388 -668.508544
v 5399.034153 -16459.769680 -668.588287
v 5522.478658 -16501.970177 -668.093750
v 5520.184473 -16501.970177 -668.093750
v 5486.221493 -16487.516525 -668.545427
v 5589.145325 -16501.970177 -667.833333
v 5655.811991 -16501.970177 -667.572917
v 5722.478658 -16501.970177 -666.531250
v 5789.145325 -16501.970177 -663.927083
v 5855.811991 -16501.970177 -660.802083
v 5922.478658 -16501.970177 -657.937500
v 5989.145325 -16501.970177 -658.458333
v 6055.811991 -16501.970177 -669.395833
v 6045.557229 -16449.050647 -668.247018
v 6055.811991 -16469.423356 -669.650105
v 6069.896470 -16501.970177 -674.127338
v 6064.942262 -16487.562086 -672.575597
v 5522.478658 -16502.946515 -668.082309
v 5589.145325 -16531.317900 -667.145496
v 5535.140429 -16508.334995 -667.895115
v 5524.178324 -16503.669843 -668.047275
v 5655.811991 -16559.689285 -665.543729
v 5646.863548 -16555.881089 -665.712566
v 5640.235557 -16553.060409 -665.837621
v 5722.478658 -16568.636844 -664.187500
v 5676.836836 -16568.636844 -664.900653
v 5789.145325 -16568.636844 -662.364583
v 5855.811991 -16568.636844 -659.500000
v 5922.478658 -16568.636844 -656.375000
v 5989.145325 -16568.636844 -656.635417
v 6055.811991 -16568.636844 -668.875000
v 6077.277291 -16523.435477 -676.522984
v 6087.658709 -16553.627273 -679.815170
v 6091.021678 -16568.636844 -680.840792
v 5722.478658 -16588.060669 -663.884003
v 5789.145325 -16635.303511 -661.843750
v 5771.175211 -16617.333397 -662.475512
v 5769.447087 -16612.307575 -662.562029
v 5767.619570 -16611.176877 -662.620834
v 5760.798359 -16606.956545 -662.840323
v 5747.397821 -16598.665537 -663.231599
v 5777.354216 -16635.303511 -662.074045
v 5773.689983 -16624.646991 -662.312120
v 5855.811991 -16635.303511 -658.979167
v 5922.478658 -16635.303511 -655.333333
v 5989.145325 -16635.303511 -656.635417
v 6055.811991 -16635.303511 -668.614583
v 6097.875677 -16610.700530 -681.034034
v 6095.392661 -16588.145373 -681.335576
v 6099.905888 -16629.142507 -681.556784
v 6100.584131 -16635.303511 -681.731421
v 5789.145325 -16701.970177 -661.322917
v 5785.599697 -16698.424549 -661.419867
v 5781.827483 -16664.158619 -661.761246
v 5779.261591 -16640.850640 -661.993455
v 5785.990022 -16701.970177 -661.384544
v 5855.811991 -16701.970177 -658.197917
v 5922.478658 -16701.970177 -655.333333
v 5989.145325 -16701.970177 -656.895833
v 6055.811991 -16701.970177 -664.968750
v 6104.419116 -16670.139641 -678.772593
v 6104.344894 -16670.993529 -678.650783
v 6104.594479 -16671.813492 -678.627814
v 6105.949793 -16685.441312 -677.427869
v 6107.593621 -16701.970177 -676.902798
v 5789.145325 -16733.445881 -661.077013
v 5786.248627 -16704.319289 -661.361140
v 5855.811991 -16768.636844 -657.937500
v 5792.645136 -16768.636844 -660.651701
v 5792.520642 -16767.385045 -660.666830
v 5922.478658 -16768.636844 -655.854167
v 5989.145325 -16768.636844 -657.156250
v 6055.811991 -16768.636844 -662.885417
v 6110.949774 -16735.716636 -675.039844
v 6113.312124 -16759.470310 -673.728536
v 6114.223754 -16768.636844 -673.609451
v 5855.811991 -16835.303511 -658.458333
v 5793.031637 -16772.523157 -660.665455
v 5799.275268 -16835.303511 -660.445953
v 5798.875936 -16831.288189 -660.459992
v 5922.478658 -16835.303511 -656.375000
v 5989.145325 -16835.303511 -656.635417
v 6055.811991 -16835.303511 -660.020833
v 6120.674454 -16833.499307 -667.952797
v 6120.853886 -16835.303511 -667.897000
v 5855.811991 -16901.970177 -659.500000
v 5800.393968 -16846.552154 -660.582383
v 5805.905401 -16901.970177 -661.059581
v 5922.478658 -16901.970177 -657.416667
v 5989.145325 -16901.970177 -656.895833
v 6055.811991 -16901.970177 -658.197917
v 6122.478658 -16901.970177 -661.583333
v 6122.478658 -16851.640762 -666.498315
v 6127.484018 -16901.970177 -662.326317
v 5855.811991 -16968.636844 -660.802083
v 5807.756299 -16920.581152 -661.365236
v 5812.535533 -16968.636844 -662.492570
v 5922.478658 -16968.636844 -658.458333
v 5989.145325 -16968.636844 -657.677083
v 6055.811991 -16968.636844 -658.718750
v 6122.478658 -16968.636844 -659.760417
v 6128.036785 -16907.528304 -661.583333
v 6130.015657 -16927.426066 -661.093364
v 6134.114151 -16968.636844 -660.078575
v 5855.811991 -17035.303511 -661.583333
v 5815.118630 -16994.610149 -662.696042
v 5819.165665 -17035.303511 -663.157980
v 5922.478658 -17035.303511 -658.979167
v 5989.145325 -17035.303511 -657.937500
v 6055.811991 -17035.303511 -659.239583
v 6122.478658 -17035.303511 -661.062500
v 6135.399116 -16981.557302 -660.214652
v 6136.370951 -16991.329210 -660.420694
v 6140.744283 -17035.303511 -661.347900
v 5855.811991 -17101.970177 -662.364583
v 5822.480960 -17068.639146 -663.406178
v 5825.795798 -17101.970177 -664.006094
v 5922.478658 -17101.970177 -659.760417
v 5989.145325 -17101.970177 -658.979167
v 6055.811991 -17101.970177 -660.020833
v 6122.478658 -17101.970177 -662.364583
v 6142.726246 -17055.232353 -662.079492
v 6142.761447 -17055.586299 -662.092485
v 6147.374415 -17101.970177 -663.142576
v 5855.811991 -17168.636844 -664.187500
v 5829.843291 -17142.668144 -664.897582
v 5832.154704 -17168.636844 -665.481258
v 5830.540122 -17149.674850 -665.051063
v 5922.478658 -17168.636844 -660.802083
v 5989.145325 -17168.636844 -660.020833
v 6055.811991 -17168.636844 -661.322917
v 6122.478658 -17168.636844 -663.406250
v 6149.977579 -17129.469099 -663.868431
v 6149.081540 -17119.135496 -663.598236
v 6149.290090 -17121.395086 -663.657712
v 6153.312648 -17168.636844 -664.610703
v 5855.811991 -17235.303511 -665.750000
v 5836.157733 -17215.649253 -666.364196
v 5835.632048 -17209.475497 -666.248247
v 5837.831261 -17235.303511 -666.803558
v 5922.478658 -17235.303511 -661.843750
v 5989.145325 -17235.303511 -660.541667
v 6055.811991 -17235.303511 -662.104167
v 6122.478658 -17235.303511 -664.447917
v 6154.478280 -17182.326267 -664.816658
v 6156.182472 -17202.340658 -665.117772
v 6158.989205 -17235.303511 -665.731491
v 5855.811991 -17301.970177 -666.531250
v 5842.362626 -17288.520812 -667.161689
v 5840.820238 -17270.406678 -667.039788
v 5843.507818 -17301.970177 -667.300261
v 5922.478658 -17301.970177 -662.885417
v 5989.145325 -17301.970177 -661.322917
v 6055.811991 -17301.970177 -662.364583
v 6122.478658 -17301.970177 -664.708333
v 6159.666469 -17243.257448 -665.848511
v 6162.387365 -17275.212218 -666.318637
v 6164.665761 -17301.970177 -666.521060
v 5855.811991 -17368.636844 -667.572917
v 5848.567519 -17361.392372 -667.912501
v 5846.008427 -17331.337860 -667.602843
v 5849.184374 -17368.636844 -667.987143
v 5922.478658 -17368.636844 -664.187500
v 5989.145325 -17368.636844 -662.885417
v 6055.811991 -17368.636844 -663.145833
v 6122.478658 -17368.636844 -665.489583
v 6168.592258 -17348.083777 -667.410302
v 6170.042848 -17365.119811 -667.677940
v 6170.342318 -17368.636844 -667.733192
v 5855.811991 -17435.303511 -669.135417
v 5854.772412 -17434.263932 -669.176025
v 5851.196617 -17392.269041 -668.415257
v 5854.860931 -17435.303511 -669.213433
v 5922.478658 -17435.303511 -665.229167
v 5989.145325 -17435.303511 -664.447917
v 6055.811991 -17435.303511 -664.447917
v 6122.478658 -17435.303511 -666.531250
v 6174.797151 -17420.955337 -668.759489
v 6175.231037 -17426.050992 -668.859447
v 6176.018874 -17435.303511 -669.040948
v 5855.811991 -17446.472967 -669.571724
v 5922.478658 -17501.970177 -667.052083
v 5860.537487 -17501.970177 -671.407322
v 5856.384806 -17453.200222 -669.794231
v 5989.145325 -17501.970177 -665.750000
v 6055.811991 -17501.970177 -665.750000
v 6122.478658 -17501.970177 -667.833333
v 6179.789193 -17492.614046 -670.113158
v 6180.419227 -17486.982173 -670.054693
v 6178.742530 -17501.970177 -670.250922
v 5922.478658 -17568.636844 -669.135417
v 5860.977305 -17507.135491 -671.537813
v 5877.322602 -17568.636844 -672.663234
v 5861.572995 -17514.131403 -671.764553
v 5989.145325 -17568.636844 -666.791667
v 6055.811991 -17568.636844 -666.531250
v 6122.478658 -17568.636844 -668.614583
v 6172.075717 -17551.567237 -670.545673
v 6173.478645 -17549.024065 -670.576152
v 6162.659356 -17568.636844 -670.341098
v 5922.478658 -17625.429400 -670.688338
v 5917.865647 -17622.884657 -670.979147
v 5878.903138 -17574.106682 -672.689320
v 5989.145325 -17635.303511 -668.093750
v 5940.378056 -17635.303511 -670.189219
v 6055.811991 -17635.303511 -667.572917
v 6122.478658 -17620.337924 -669.018498
v 6114.158770 -17626.983623 -668.810421
v 6103.742929 -17635.303511 -668.696298
v 6148.374209 -17594.532395 -670.030746
v 6143.323980 -17603.687252 -669.865539
v 5989.145325 -17654.898197 -668.706084
v 5972.528835 -17653.039322 -669.361984
v 6055.811991 -17653.842139 -668.152249
v 6034.570726 -17659.979904 -668.510001
v 6011.208165 -17657.366351 -668.610848
v 6070.194675 -17649.686194 -668.359470
v 6094.546005 -17642.649762 -668.710315
vt 26.624774 69.843184
vt 26.612393 69.843184
vt 26.612393 69.719135
vt 26.626147 69.856938
vt 26.612393 70.176518
vt 26.637368 69.969369
vt 26.658467 70.176518
vt 26.663691 70.227816
vt 26.612393 70.509851
vt 26.670382 70.293504
vt 26.692417 70.509851
vt 26.701492 70.598949
vt 26.612393 70.843184
vt 26.703477 70.618444
vt 26.726367 70.843184
vt 26.739292 70.970083
vt 26.612393 71.176518
vt 26.760318 71.176518
vt 26.777093 71.341217
vt 26.612393 71.509851
vt 26.794268 71.509851
vt 26.800732 71.573309
vt 26.823257 71.720714
vt 26.612393 71.843184
vt 26.841594 71.840712
vt 26.841971 71.843184
vt 26.883381 72.114172
vt 26.612393 72.176518
vt 26.885486 72.127945
vt 26.892908 72.176518
vt 26.929378 72.415177
vt 26.943506 72.507630
vt 26.612393 72.509851
vt 26.943845 72.509851
vt 26.945727 72.843184
vt 26.945727 72.522162
vt 26.612393 72.843184
vt 26.994782 72.843184
vt 26.945727 73.176518
vt 26.612393 73.176518
vt 27.003631 72.901088
vt 27.017162 72.989641
vt 27.045719 73.176518
vt 26.945727 73.509851
vt 26.612393 73.509851
vt 27.057788 73.255498
vt 27.066510 73.297301
vt 27.110855 73.509851
vt 26.945727 73.843184
vt 26.612393 73.843184
vt 27.118835 73.548099
vt 27.154390 73.718514
vt 27.180400 73.843184
vt 26.945727 74.176518
vt 26.612393 74.176518
vt 27.242269 74.139727
vt 27.249762 74.175637
vt 27.249945 74.176518
vt 26.945727 74.509851
vt 26.612393 74.509851
vt 27.279060 74.509851
vt 27.279060 74.316066
vt 27.315225 74.489407
vt 27.319490 74.509851
vt 26.945727 74.843184
vt 26.612393 74.843184
vt 27.279060 74.843184
vt 27.330149 74.560940
vt 27.380688 74.803176
vt 27.389035 74.843184
vt 26.945727 75.176518
vt 26.612393 75.176518
vt 27.279060 75.176518
vt 27.418029 74.982153
vt 27.446151 75.116945
vt 27.458580 75.176518
vt 26.945727 75.509851
vt 26.612393 75.509851
vt 27.279060 75.509851
vt 27.505909 75.403367
vt 27.509120 75.418756
vt 27.531048 75.509851
vt 26.945727 75.843184
vt 26.612393 75.843184
vt 27.279060 75.843184
vt 27.573288 75.685331
vt 27.610935 75.841726
vt 27.611286 75.843184
vt 29.945727 75.758799
vt 29.945727 75.843184
vt 29.886993 75.784451
vt 29.752512 75.843184
vt 30.279060 75.776278
vt 30.279060 75.843184
vt 30.189552 75.753677
vt 30.219931 75.753097
vt 29.946854 75.758307
vt 30.449724 75.843184
vt 26.945727 76.176518
vt 26.612393 76.176518
vt 27.279060 76.176518
vt 27.612393 76.176518
vt 27.612393 75.847785
vt 27.691524 76.176518
vt 29.279060 76.174166
vt 29.279060 76.176518
vt 29.277881 76.175339
vt 29.276696 76.176518
vt 29.612393 75.926212
vt 29.612393 76.176518
vt 29.464819 76.028943
vt 29.332376 76.121140
vt 29.945727 76.176518
vt 29.661344 75.892135
vt 29.696558 75.867622
vt 30.279060 76.176518
vt 30.612393 76.176518
vt 30.474215 75.852786
vt 30.612393 75.985791
vt 30.729657 76.176518
vt 30.670993 76.042196
vt 26.945727 76.509851
vt 26.612393 76.509851
vt 27.279060 76.509851
vt 27.612393 76.509851
vt 27.707342 76.242232
vt 27.716610 76.280735
vt 27.771762 76.509851
vt 29.279060 76.509851
vt 29.119414 76.350205
vt 29.159990 76.292589
vt 29.006982 76.509851
vt 29.612393 76.509851
vt 29.945727 76.509851
vt 30.279060 76.509851
vt 30.612393 76.509851
vt 30.781318 76.345443
vt 30.780308 76.292492
vt 30.784455 76.509851
vt 26.945727 76.843184
vt 26.612393 76.843184
vt 27.279060 76.843184
vt 27.612393 76.843184
vt 27.822286 76.719744
vt 27.841396 76.799133
vt 27.849113 76.843184
vt 28.945727 76.595321
vt 28.945727 76.843184
vt 28.841863 76.739321
vt 28.766949 76.843184
vt 29.279060 76.843184
vt 28.981541 76.545666
vt 28.990778 76.532860
vt 29.612393 76.843184
vt 29.945727 76.843184
vt 30.279060 76.843184
vt 30.612393 76.843184
vt 30.752453 76.649911
vt 30.785518 76.565569
vt 30.685829 76.819853
vt 30.663372 76.843184
vt 26.945727 77.176518
vt 26.612393 77.176518
vt 27.279060 77.176518
vt 27.612393 77.176518
vt 27.882641 77.113432
vt 27.858726 76.898066
vt 27.889282 77.173242
vt 27.889646 77.176518
vt 28.612393 77.143248
vt 28.612393 77.176518
vt 28.605363 77.169487
vt 28.605785 77.157714
vt 28.605111 77.176518
vt 28.945727 77.176518
vt 28.706486 76.937276
vt 28.719274 76.909283
vt 29.279060 77.176518
vt 29.612393 77.176518
vt 29.945727 77.176518
vt 30.279060 77.167942
vt 30.274004 77.171461
vt 30.266740 77.176518
vt 30.612393 76.896146
vt 30.496419 77.016631
vt 30.470529 77.034654
vt 30.314328 77.143391
vt 30.638369 76.869160
vt 26.945727 77.509851
vt 26.612393 77.509851
vt 27.279060 77.509851
vt 27.612393 77.509851
vt 27.924278 77.488402
vt 27.926660 77.509851
vt 28.612393 77.474619
vt 28.596005 77.430666
vt 28.945727 77.509851
vt 28.625529 77.509851
vt 29.279060 77.509851
vt 29.612393 77.509851
vt 29.945727 77.509851
vt 30.233546 77.199625
vt 30.133135 77.342203
vt 30.128550 77.348636
vt 30.124064 77.354855
vt 30.012270 77.509851
vt 26.945727 77.843184
vt 26.612393 77.843184
vt 27.279060 77.843184
vt 27.612393 77.843184
vt 27.945727 77.843184
vt 27.945727 77.681558
vt 27.952243 77.843184
vt 27.950394 77.723593
vt 28.945727 77.843184
vt 28.633339 77.530797
vt 28.837192 77.843184
vt 28.691424 77.686582
vt 29.279060 77.843184
vt 29.612393 77.843184
vt 29.945727 77.602108
vt 29.854735 77.728262
vt 29.842341 77.739799
vt 29.731272 77.843184
vt 29.991643 77.538449
vt 29.984386 77.548510
vt 26.945727 78.176518
vt 26.612393 78.176518
vt 27.279060 78.176518
vt 27.612393 78.176518
vt 27.945727 77.963440
vt 27.932304 78.131548
vt 27.929972 78.160763
vt 27.928714 78.176518
vt 27.952345 77.849803
vt 27.952744 77.875556
vt 28.945727 77.917664
vt 28.877514 77.886503
vt 29.279060 78.005478
vt 29.125946 77.999992
vt 29.082845 77.980303
vt 29.612393 77.930170
vt 29.432951 77.997075
vt 29.398897 78.009772
vt 29.669703 77.900494
vt 29.654814 77.914353
vt 26.945727 78.509851
vt 26.612393 78.509851
vt 27.279060 78.509851
vt 27.612393 78.509851
vt 27.911865 78.387539
vt 27.905326 78.469450
vt 27.902100 78.509851
vt 26.945727 78.843184
vt 26.612393 78.843184
vt 27.279060 78.843184
vt 27.612393 78.843184
vt 27.868640 78.766098
vt 27.891426 78.643531
vt 27.861028 78.807044
vt 27.850324 78.843184
vt 26.945727 79.176518
vt 26.612393 79.176518
vt 27.279060 79.176518
vt 27.612393 79.176518
vt 27.795957 79.026748
vt 27.751600 79.176518
vt 26.945727 79.509851
vt 26.612393 79.509851
vt 27.279060 79.509851
vt 27.612393 79.509851
vt 27.719791 79.283915
vt 27.652875 79.509851
vt 26.945727 79.843184
vt 26.612393 79.843184
vt 27.279060 79.843184
vt 27.612393 79.612206
vt 27.559113 79.732303
vt 27.537306 79.768097
vt 27.491561 79.843184
vt 27.643625 79.541082
vt 27.642978 79.543268
vt 26.945727 80.176518
vt 26.612393 80.176518
vt 27.279060 80.176518
vt 27.411112 79.975236
vt 27.288487 80.176518
vt 26.945727 80.509851
vt 26.612393 80.509851
vt 27.279060 80.191992
vt 27.158724 80.389515
vt 27.149630 80.404443
vt 27.072566 80.509851
vt 27.284918 80.182376
vt 26.945727 80.843184
vt 26.612393 80.843184
vt 27.070289 80.512966
vt 27.040958 80.546719
vt 27.140582 80.607881
vt 27.279060 80.692897
vt 27.279060 80.843184
vt 27.612393 80.816206
vt 27.612393 80.843184
vt 27.572822 80.803613
vt 27.337324 80.728667
vt 27.480383 80.774195
vt 27.697165 80.843184
vt 26.945727 81.176518
vt 26.612393 81.176518
vt 27.279060 81.176518
vt 27.612393 81.176518
vt 27.945727 81.176518
vt 27.716326 80.849282
vt 27.945727 80.922287
vt 28.279060 81.059584
vt 28.279060 81.176518
vt 28.075495 80.972953
vt 27.952269 80.924369
vt 28.022931 80.950583
vt 28.553829 81.176518
vt 26.945727 81.509851
vt 26.612393 81.509851
vt 27.279060 81.509851
vt 27.612393 81.509851
vt 27.945727 81.509851
vt 28.279060 81.509851
vt 28.612393 81.509851
vt 28.581547 81.188313
vt 28.612393 81.201441
vt 28.945727 81.343298
vt 28.945727 81.509851
vt 28.655781 81.219905
vt 29.279060 81.485155
vt 29.279060 81.509851
vt 29.236067 81.466858
vt 29.140162 81.426044
vt 29.337091 81.509851
vt 26.945727 81.843184
vt 26.612393 81.843184
vt 27.279060 81.843184
vt 27.612393 81.843184
vt 27.945727 81.843184
vt 28.279060 81.843184
vt 28.612393 81.843184
vt 28.945727 81.843184
vt 29.279060 81.843184
vt 29.612393 81.843184
vt 29.419470 81.544909
vt 29.527118 81.600707
vt 29.612393 81.653467
vt 29.888721 81.843184
vt 29.679930 81.695253
vt 29.832743 81.789799
vt 26.945727 82.176518
vt 26.656040 82.176518
vt 26.612393 82.156534
vt 27.279060 82.176518
vt 27.612393 82.176518
vt 27.945727 82.176518
vt 28.279060 82.176518
vt 28.612393 82.176518
vt 28.945727 82.176518
vt 29.279060 82.176518
vt 29.612393 82.176518
vt 29.945727 82.176518
vt 29.945727 81.897549
vt 30.180612 82.176518
vt 30.071428 82.017427
vt 26.945727 82.283113
vt 26.759228 82.223761
vt 27.279060 82.389194
vt 27.231114 82.373936
vt 27.102081 82.332872
vt 26.995171 82.298848
vt 27.612393 82.509851
vt 27.600922 82.509851
vt 27.431107 82.437583
vt 27.945727 82.509851
vt 28.279060 82.509851
vt 28.612393 82.509851
vt 28.945727 82.509851
vt 29.279060 82.509851
vt 29.612393 82.509851
vt 29.945727 82.509851
vt 30.279060 82.509851
vt 30.227786 82.245253
vt 30.279060 82.347117
vt 30.349482 82.509851
vt 30.324711 82.437810
vt 27.612393 82.514733
vt 27.945727 82.656589
vt 27.675702 82.541675
vt 27.620892 82.518349
vt 28.279060 82.798446
vt 28.234318 82.779405
vt 28.201178 82.765302
vt 28.612393 82.843184
vt 28.384184 82.843184
vt 28.945727 82.843184
vt 29.279060 82.843184
vt 29.612393 82.843184
vt 29.945727 82.843184
vt 30.279060 82.843184
vt 30.386386 82.617177
vt 30.438294 82.768136
vt 30.455108 82.843184
vt 28.612393 82.940303
vt 28.945727 83.176518
vt 28.855876 83.086667
vt 28.847235 83.061538
vt 28.838098 83.055884
vt 28.803992 83.034783
vt 28.736989 82.993328
vt 28.886771 83.176518
vt 28.868450 83.123235
vt 29.279060 83.176518
vt 29.612393 83.176518
vt 29.945727 83.176518
vt 30.279060 83.176518
vt 30.489378 83.053503
vt 30.476963 82.940727
vt 30.499529 83.145713
vt 30.502921 83.176518
vt 28.945727 83.509851
vt 28.927998 83.492123
vt 28.909137 83.320793
vt 28.896308 83.204253
vt 28.929950 83.509851
vt 29.279060 83.509851
vt 29.612393 83.509851
vt 29.945727 83.509851
vt 30.279060 83.509851
vt 30.522096 83.350698
vt 30.521724 83.354968
vt 30.522972 83.359067
vt 30.529749 83.427207
vt 30.537968 83.509851
vt 28.945727 83.667229
vt 28.931243 83.521596
vt 29.279060 83.843184
vt 28.963226 83.843184
vt 28.962603 83.836925
vt 29.612393 83.843184
vt 29.945727 83.843184
vt 30.279060 83.843184
vt 30.554749 83.678583
vt 30.566561 83.797352
vt 30.571119 83.843184
vt 29.279060 84.176518
vt 28.965158 83.862616
vt 28.996376 84.176518
vt 28.994380 84.156441
vt 29.612393 84.176518
vt 29.945727 84.176518
vt 30.279060 84.176518
vt 30.603372 84.167497
vt 30.604269 84.176518
vt 29.279060 84.509851
vt 29.001970 84.232761
vt 29.029527 84.509851
vt 29.612393 84.509851
vt 29.945727 84.509851
vt 30.279060 84.509851
vt 30.612393 84.509851
vt 30.612393 84.258204
vt 30.637420 84.509851
vt 29.279060 84.843184
vt 29.038781 84.602906
vt 29.062678 84.843184
vt 29.612393 84.843184
vt 29.945727 84.843184
vt 30.279060 84.843184
vt 30.612393 84.843184
vt 30.640184 84.537642
vt 30.650078 84.637130
vt 30.670571 84.843184
vt 29.279060 85.176518
vt 29.075593 84.973051
vt 29.095828 85.176518
vt 29.612393 85.176518
vt 29.945727 85.176518
vt 30.279060 85.176518
vt 30.612393 85.176518
vt 30.676996 84.907787
vt 30.681855 84.956646
vt 30.703721 85.176518
vt 29.279060 85.509851
vt 29.112405 85.343196
vt 29.128979 85.509851
vt 29.612393 85.509851
vt 29.945727 85.509851
vt 30.279060 85.509851
vt 30.612393 85.509851
vt 30.713631 85.276162
vt 30.713807 85.277931
vt 30.736872 85.509851
vt 29.279060 85.843184
vt 29.149216 85.713341
vt 29.160774 85.843184
vt 29.152701 85.748374
vt 29.612393 85.843184
vt 29.945727 85.843184
vt 30.279060 85.843184
vt 30.612393 85.843184
vt 30.749888 85.647345
vt 30.745408 85.595677
vt 30.746450 85.606975
vt 30.766563 85.843184
vt 29.279060 86.176518
vt 29.180789 86.078246
vt 29.178160 86.047377
vt 29.189156 86.176518
vt 29.612393 86.176518
vt 29.945727 86.176518
vt 30.279060 86.176518
vt 30.612393 86.176518
vt 30.772391 85.911631
vt 30.780912 86.011703
vt 30.794946 86.176518
vt 29.279060 86.509851
vt 29.211813 86.442604
vt 29.204101 86.352033
vt 29.217539 86.509851
vt 29.612393 86.509851
vt 29.945727 86.509851
vt 30.279060 86.509851
vt 30.612393 86.509851
vt 30.798332 86.216287
vt 30.811937 86.376061
vt 30.823329 86.509851
vt 29.279060 86.843184
vt 29.242838 86.806962
vt 29.230042 86.656689
vt 29.245922 86.843184
vt 29.612393 86.843184
vt 29.945727 86.843184
vt 30.279060 86.843184
vt 30.612393 86.843184
vt 30.842961 86.740419
vt 30.850214 86.825599
vt 30.851712 86.843184
vt 29.279060 87.176518
vt 29.273862 87.171320
vt 29.255983 86.961345
vt 29.274305 87.176518
vt 29.612393 87.176518
vt 29.945727 87.176518
vt 30.279060 87.176518
vt 30.612393 87.176518
vt 30.873986 87.104777
vt 30.876155 87.130255
vt 30.880094 87.176518
vt 29.279060 87.232365
vt 29.612393 87.509851
vt 29.302687 87.509851
vt 29.281924 87.266001
vt 29.945727 87.509851
vt 30.279060 87.509851
vt 30.612393 87.509851
vt 30.898946 87.463070
vt 30.902096 87.434911
vt 30.893713 87.509851
vt 29.612393 87.843184
vt 29.304887 87.535677
vt 29.386613 87.843184
vt 29.307865 87.570657
vt 29.945727 87.843184
vt 30.279060 87.843184
vt 30.612393 87.843184
vt 30.860379 87.757836
vt 30.867393 87.745120
vt 30.813297 87.843184
vt 29.612393 88.127147
vt 29.589328 88.114423
vt 29.394516 87.870533
vt 29.945727 88.176518
vt 29.701890 88.176518
vt 30.279060 88.176518
vt 30.612393 88.101690
vt 30.570794 88.134918
vt 30.518715 88.176518
vt 30.741871 87.972662
vt 30.716620 88.018436
vt 29.945727 88.274491
vt 29.862644 88.265197
vt 30.279060 88.269211
vt 30.172854 88.299900
vt 30.056041 88.286832
vt 30.350973 88.248431
vt 30.472730 88.213249
f 3/3 2/2 1/1
f 1/1 2/2 4/4
f 4/4 2/2 5/5
f 6/6 4/4 5/5
f 7/7 6/6 5/5
f 7/7 5/5 8/8
f 8/8 5/5 9/9
f 10/10 8/8 9/9
f 11/11 10/10 9/9
f 11/11 9/9 12/12
f 12/12 9/9 13/13
f 14/14 12/12 13/13
f 15/15 14/14 13/13
f 15/15 13/13 16/16
f 16/16 13/13 17/17
f 18/18 16/16 17/17
f 18/18 17/17 19/19
f 19/19 17/17 20/20
f 21/21 19/19 20/20
f 22/22 21/21 20/20
f 23/23 22/22 20/20
f 23/23 20/20 24/24
f 25/25 23/23 24/24
f 26/26 25/25 24/24
f 26/26 24/24 27/27
f 27/27 24/24 28/28
f 29/29 27/27 28/28
f 30/30 29/29 28/28
f 31/31 30/30 28/28
f 32/32 31/31 28/28
f 32/32 28/28 33/33
f 34/34 32/32 33/33
f 34/34 33/33 35/35
f 36/36 34/34 35/35
f 33/33 37/37 35/35
f 36/36 35/35 38/38
f 37/37 39/39 35/35
f 37/37 40/40 39/39
f 38/38 35/35 41/41
f 41/41 35/35 39/39
f 42/42 41/41 39/39
f 43/43 42/42 39/39
f 40/40 44/44 39/39
f 40/40 45/45 44/44
f 46/46 43/43 39/39
f 47/47 46/46 39/39
f 47/47 39/39 44/44
f 48/48 47/47 44/44
f 45/45 49/49 44/44
f 45/45 50/50 49/49
f 51/51 48/48 44/44
f 52/52 51/51 44/44
f 52/52 44/44 49/49
f 53/53 52/52 49/49
f 50/50 54/54 49/49
f 50/50 55/55 54/54
f 53/53 49/49 56/56
f 56/56 49/49 54/54
f 57/57 56/56 54/54
f 58/58 57/57 54/54
f 55/55 59/59 54/54
f 55/55 60/60 59/59
f 58/58 54/54 61/61
f 62/62 58/58 61/61
f 54/54 59/59 61/61
f 63/63 62/62 61/61
f 64/64 63/63 61/61
f 60/60 65/65 59/59
f 60/60 66/66 65/65
f 59/59 67/67 61/61
f 59/59 65/65 67/67
f 64/64 61/61 68/68
f 68/68 61/61 67/67
f 69/69 68/68 67/67
f 70/70 69/69 67/67
f 66/66 71/71 65/65
f 66/66 72/72 71/71
f 65/65 73/73 67/67
f 65/65 71/71 73/73
f 70/70 67/67 74/74
f 74/74 67/67 73/73
f 75/75 74/74 73/73
f 76/76 75/75 73/73
f 72/72 77/77 71/71
f 72/72 78/78 77/77
f 71/71 79/79 73/73
f 71/71 77/77 79/79
f 76/76 73/73 80/80
f 80/80 73/73 79/79
f 81/81 80/80 79/79
f 82/82 81/81 79/79
f 78/78 83/83 77/77
f 78/78 84/84 83/83
f 77/77 85/85 79/79
f 77/77 83/83 85/85
f 86/86 82/82 79/79
f 87/87 86/86 79/79
f 87/87 79/79 85/85
f 88/88 87/87 85/85
f 91/91 90/90 89/89
f 92/92 90/90 91/91
f 95/95 94/94 93/93
f 96/96 95/95 93/93
f 89/89 90/90 94/94
f 97/97 89/89 94/94
f 95/95 97/97 94/94
f 93/93 94/94 98/98
f 84/84 99/99 83/83
f 84/84 100/100 99/99
f 83/83 101/101 85/85
f 83/83 99/99 101/101
f 88/88 85/85 102/102
f 103/103 88/88 102/102
f 85/85 101/101 102/102
f 103/103 102/102 104/104
f 107/107 106/106 105/105
f 108/108 106/106 107/107
f 111/111 110/110 109/109
f 105/105 106/106 110/110
f 112/112 105/105 110/110
f 111/111 112/112 110/110
f 114/114 113/113 90/90
f 115/115 114/114 90/90
f 92/92 115/115 90/90
f 109/109 110/110 113/113
f 114/114 109/109 113/113
f 90/90 116/116 94/94
f 90/90 113/113 116/116
f 98/98 94/94 117/117
f 118/118 98/98 117/117
f 119/119 118/118 117/117
f 94/94 116/116 117/117
f 119/119 117/117 120/120
f 121/121 119/119 120/120
f 100/100 122/122 99/99
f 100/100 123/123 122/122
f 99/99 124/124 101/101
f 99/99 122/122 124/124
f 101/101 125/125 102/102
f 101/101 124/124 125/125
f 126/126 104/104 102/102
f 127/127 126/126 102/102
f 127/127 102/102 125/125
f 128/128 127/127 125/125
f 130/130 129/129 106/106
f 131/131 130/130 106/106
f 108/108 131/131 106/106
f 132/132 129/129 130/130
f 106/106 133/133 110/110
f 106/106 129/129 133/133
f 110/110 134/134 113/113
f 110/110 133/133 134/134
f 113/113 135/135 116/116
f 113/113 134/134 135/135
f 116/116 136/136 117/117
f 116/116 135/135 136/136
f 120/120 117/117 137/137
f 138/138 120/120 137/137
f 137/137 117/117 136/136
f 139/139 137/137 136/136
f 123/123 140/140 122/122
f 123/123 141/141 140/140
f 122/122 142/142 124/124
f 122/122 140/140 142/142
f 124/124 143/143 125/125
f 124/124 142/142 143/143
f 128/128 125/125 144/144
f 144/144 125/125 143/143
f 145/145 144/144 143/143
f 146/146 145/145 143/143
f 149/149 148/148 147/147
f 150/150 148/148 149/149
f 152/152 151/151 129/129
f 153/153 152/152 129/129
f 132/132 153/153 129/129
f 147/147 148/148 151/151
f 152/152 147/147 151/151
f 129/129 154/154 133/133
f 129/129 151/151 154/154
f 133/133 155/155 134/134
f 133/133 154/154 155/155
f 134/134 156/156 135/135
f 134/134 155/155 156/156
f 135/135 157/157 136/136
f 135/135 156/156 157/157
f 139/139 136/136 158/158
f 159/159 139/139 158/158
f 158/158 136/136 157/157
f 160/160 158/158 157/157
f 161/161 160/160 157/157
f 141/141 162/162 140/140
f 141/141 163/163 162/162
f 140/140 164/164 142/142
f 140/140 162/162 164/164
f 142/142 165/165 143/143
f 142/142 164/164 165/165
f 146/146 143/143 166/166
f 167/167 146/146 166/166
f 166/166 143/143 165/165
f 168/168 166/166 165/165
f 169/169 168/168 165/165
f 172/172 171/171 170/170
f 173/173 172/172 170/170
f 174/174 171/171 172/172
f 176/176 175/175 148/148
f 177/177 176/176 148/148
f 150/150 177/177 148/148
f 170/170 171/171 175/175
f 176/176 170/170 175/175
f 148/148 178/178 151/151
f 148/148 175/175 178/178
f 151/151 179/179 154/154
f 151/151 178/178 179/179
f 154/154 180/180 155/155
f 154/154 179/179 180/180
f 181/181 156/156 155/155
f 182/182 181/181 155/155
f 182/182 155/155 180/180
f 183/183 182/182 180/180
f 184/184 157/157 156/156
f 185/185 184/184 156/156
f 186/186 185/185 156/156
f 187/187 186/186 156/156
f 181/181 187/187 156/156
f 161/161 157/157 188/188
f 188/188 157/157 184/184
f 163/163 189/189 162/162
f 163/163 190/190 189/189
f 162/162 191/191 164/164
f 162/162 189/189 191/191
f 164/164 192/192 165/165
f 164/164 191/191 192/192
f 169/169 165/165 193/193
f 193/193 165/165 192/192
f 194/194 193/193 192/192
f 195/195 171/171 174/174
f 196/196 195/195 174/174
f 171/171 197/197 175/175
f 198/198 197/197 171/171
f 195/195 198/198 171/171
f 175/175 199/199 178/178
f 175/175 197/197 199/199
f 178/178 200/200 179/179
f 178/178 199/199 200/200
f 179/179 201/201 180/180
f 179/179 200/200 201/201
f 202/202 183/183 180/180
f 203/203 202/202 180/180
f 204/204 203/203 180/180
f 205/205 204/204 180/180
f 205/205 180/180 201/201
f 206/206 205/205 201/201
f 190/190 207/207 189/189
f 190/190 208/208 207/207
f 189/189 209/209 191/191
f 189/189 207/207 209/209
f 191/191 210/210 192/192
f 191/191 209/209 210/210
f 194/194 192/192 211/211
f 212/212 194/194 211/211
f 192/192 210/210 211/211
f 212/212 211/211 213/213
f 214/214 212/212 213/213
f 216/216 215/215 197/197
f 198/198 216/216 197/197
f 217/217 215/215 216/216
f 218/218 217/217 216/216
f 197/197 219/219 199/199
f 197/197 215/215 219/219
f 199/199 220/220 200/200
f 199/199 219/219 220/220
f 221/221 201/201 200/200
f 222/222 221/221 200/200
f 223/223 222/222 200/200
f 223/223 200/200 220/220
f 224/224 223/223 220/220
f 225/225 206/206 201/201
f 226/226 225/225 201/201
f 226/226 201/201 221/221
f 208/208 227/227 207/207
f 208/208 228/228 227/227
f 207/207 229/229 209/209
f 207/207 227/227 229/229
f 209/209 230/230 210/210
f 209/209 229/229 230/230
f 231/231 211/211 210/210
f 232/232 231/231 210/210
f 233/233 232/232 210/210
f 233/233 210/210 230/230
f 234/234 233/233 230/230
f 213/213 211/211 235/235
f 235/235 211/211 231/231
f 236/236 235/235 231/231
f 237/237 215/215 217/217
f 238/238 237/237 217/217
f 239/239 219/219 215/215
f 240/240 239/239 215/215
f 241/241 240/240 215/215
f 241/241 215/215 237/237
f 242/242 220/220 219/219
f 243/243 242/242 219/219
f 243/243 219/219 239/239
f 244/244 243/243 239/239
f 224/224 220/220 245/245
f 245/245 220/220 242/242
f 246/246 245/245 242/242
f 228/228 247/247 227/227
f 228/228 248/248 247/247
f 227/227 249/249 229/229
f 227/227 247/247 249/249
f 229/229 250/250 230/230
f 229/229 249/249 250/250
f 251/251 234/234 230/230
f 252/252 251/251 230/230
f 252/252 230/230 250/250
f 253/253 252/252 250/250
f 248/248 254/254 247/247
f 248/248 255/255 254/254
f 247/247 256/256 249/249
f 247/247 254/254 256/256
f 249/249 257/257 250/250
f 249/249 256/256 257/257
f 253/253 250/250 258/258
f 259/259 253/253 258/258
f 258/258 250/250 257/257
f 260/260 258/258 257/257
f 261/261 260/260 257/257
f 255/255 262/262 254/254
f 255/255 263/263 262/262
f 254/254 264/264 256/256
f 254/254 262/262 264/264
f 256/256 265/265 257/257
f 256/256 264/264 265/265
f 261/261 257/257 266/266
f 266/266 257/257 265/265
f 267/267 266/266 265/265
f 263/263 268/268 262/262
f 263/263 269/269 268/268
f 262/262 270/270 264/264
f 262/262 268/268 270/270
f 264/264 271/271 265/265
f 264/264 270/270 271/271
f 267/267 265/265 272/272
f 272/272 265/265 271/271
f 273/273 272/272 271/271
f 269/269 274/274 268/268
f 269/269 275/275 274/274
f 268/268 276/276 270/270
f 268/268 274/274 276/276
f 277/277 271/271 270/270
f 278/278 277/277 270/270
f 279/279 278/278 270/270
f 279/279 270/270 276/276
f 280/280 279/279 276/276
f 273/273 271/271 281/281
f 281/281 271/271 277/277
f 282/282 281/281 277/277
f 275/275 283/283 274/274
f 275/275 284/284 283/283
f 274/274 285/285 276/276
f 274/274 283/283 285/285
f 280/280 276/276 286/286
f 286/286 276/276 285/285
f 287/287 286/286 285/285
f 284/284 288/288 283/283
f 284/284 289/289 288/288
f 290/290 285/285 283/283
f 291/291 290/290 283/283
f 291/291 283/283 288/288
f 292/292 291/291 288/288
f 293/293 292/292 288/288
f 287/287 285/285 294/294
f 294/294 285/285 290/290
f 289/289 295/295 288/288
f 289/289 296/296 295/295
f 297/297 293/293 288/288
f 298/298 297/297 288/288
f 299/299 298/298 288/288
f 300/300 299/299 288/288
f 301/301 300/300 288/288
f 288/288 295/295 301/301
f 304/304 303/303 302/302
f 305/305 300/300 301/301
f 306/306 305/305 301/301
f 304/304 306/306 301/301
f 303/303 304/304 301/301
f 302/302 303/303 307/307
f 296/296 308/308 295/295
f 296/296 309/309 308/308
f 295/295 310/310 301/301
f 295/295 308/308 310/310
f 301/301 311/311 303/303
f 301/301 310/310 311/311
f 307/307 303/303 312/312
f 313/313 307/307 312/312
f 314/314 313/313 312/312
f 303/303 311/311 312/312
f 317/317 316/316 315/315
f 314/314 312/312 316/316
f 318/318 314/314 316/316
f 319/319 318/318 316/316
f 317/317 319/319 316/316
f 315/315 316/316 320/320
f 309/309 321/321 308/308
f 309/309 322/322 321/321
f 308/308 323/323 310/310
f 308/308 321/321 323/323
f 310/310 324/324 311/311
f 310/310 323/323 324/324
f 311/311 325/325 312/312
f 311/311 324/324 325/325
f 312/312 326/326 316/316
f 312/312 325/325 326/326
f 320/320 316/316 327/327
f 328/328 320/320 327/327
f 329/329 328/328 327/327
f 316/316 326/326 327/327
f 332/332 331/331 330/330
f 329/329 327/327 331/331
f 332/332 329/329 331/331
f 335/335 334/334 333/333
f 330/330 331/331 334/334
f 336/336 330/330 334/334
f 335/335 336/336 334/334
f 333/333 334/334 337/337
f 322/322 338/338 321/321
f 322/322 339/339 338/338
f 321/321 340/340 323/323
f 321/321 338/338 340/340
f 323/323 341/341 324/324
f 323/323 340/340 341/341
f 324/324 342/342 325/325
f 324/324 341/341 342/342
f 325/325 343/343 326/326
f 325/325 342/342 343/343
f 326/326 344/344 327/327
f 326/326 343/343 344/344
f 327/327 345/345 331/331
f 327/327 344/344 345/345
f 331/331 346/346 334/334
f 331/331 345/345 346/346
f 337/337 334/334 347/347
f 348/348 337/337 347/347
f 349/349 348/348 347/347
f 350/350 349/349 347/347
f 334/334 346/346 347/347
f 350/350 347/347 351/351
f 352/352 350/350 351/351
f 353/353 352/352 351/351
f 339/339 354/354 338/338
f 355/355 354/354 339/339
f 356/356 355/355 339/339
f 338/338 357/357 340/340
f 338/338 354/354 357/357
f 340/340 358/358 341/341
f 340/340 357/357 358/358
f 341/341 359/359 342/342
f 341/341 358/358 359/359
f 342/342 360/360 343/343
f 342/342 359/359 360/360
f 343/343 361/361 344/344
f 343/343 360/360 361/361
f 344/344 362/362 345/345
f 344/344 361/361 362/362
f 345/345 363/363 346/346
f 345/345 362/362 363/363
f 346/346 364/364 347/347
f 346/346 363/363 364/364
f 351/351 347/347 365/365
f 366/366 351/351 365/365
f 347/347 364/364 365/365
f 366/366 365/365 367/367
f 368/368 366/366 367/367
f 369/369 354/354 355/355
f 370/370 369/369 355/355
f 371/371 357/357 354/354
f 372/372 371/371 354/354
f 373/373 372/372 354/354
f 374/374 373/373 354/354
f 369/369 374/374 354/354
f 357/357 375/375 358/358
f 376/376 375/375 357/357
f 377/377 376/376 357/357
f 371/371 377/377 357/357
f 358/358 378/378 359/359
f 358/358 375/375 378/378
f 359/359 379/379 360/360
f 359/359 378/378 379/379
f 360/360 380/380 361/361
f 360/360 379/379 380/380
f 361/361 381/381 362/362
f 361/361 380/380 381/381
f 362/362 382/382 363/363
f 362/362 381/381 382/382
f 363/363 383/383 364/364
f 363/363 382/382 383/383
f 364/364 384/384 365/365
f 364/364 383/383 384/384
f 367/367 365/365 385/385
f 386/386 367/367 385/385
f 387/387 386/386 385/385
f 365/365 384/384 385/385
f 387/387 385/385 388/388
f 389/389 387/387 388/388
f 390/390 375/375 376/376
f 391/391 378/378 375/375
f 392/392 391/391 375/375
f 393/393 392/392 375/375
f 393/393 375/375 390/390
f 394/394 379/379 378/378
f 395/395 394/394 378/378
f 396/396 395/395 378/378
f 396/396 378/378 391/391
f 379/379 397/397 380/380
f 398/398 397/397 379/379
f 394/394 398/398 379/379
f 380/380 399/399 381/381
f 380/380 397/397 399/399
f 381/381 400/400 382/382
f 381/381 399/399 400/400
f 382/382 401/401 383/383
f 382/382 400/400 401/401
f 383/383 402/402 384/384
f 383/383 401/401 402/402
f 384/384 403/403 385/385
f 384/384 402/402 403/403
f 388/388 385/385 404/404
f 404/404 385/385 403/403
f 405/405 404/404 403/403
f 406/406 405/405 403/403
f 407/407 397/397 398/398
f 409/409 408/408 399/399
f 410/410 409/409 399/399
f 411/411 410/410 399/399
f 412/412 411/411 399/399
f 397/397 412/412 399/399
f 413/413 412/412 397/397
f 407/407 413/413 397/397
f 415/415 414/414 408/408
f 409/409 415/415 408/408
f 399/399 416/416 400/400
f 399/399 408/408 416/416
f 400/400 417/417 401/401
f 400/400 416/416 417/417
f 401/401 418/418 402/402
f 401/401 417/417 418/418
f 402/402 419/419 403/403
f 402/402 418/418 419/419
f 406/406 403/403 420/420
f 421/421 406/406 420/420
f 420/420 403/403 419/419
f 422/422 420/420 419/419
f 423/423 422/422 419/419
f 425/425 424/424 408/408
f 426/426 425/425 408/408
f 427/427 426/426 408/408
f 414/414 427/427 408/408
f 428/428 424/424 425/425
f 408/408 429/429 416/416
f 408/408 424/424 429/429
f 416/416 430/430 417/417
f 416/416 429/429 430/430
f 417/417 431/431 418/418
f 417/417 430/430 431/431
f 418/418 432/432 419/419
f 418/418 431/431 432/432
f 433/433 423/423 419/419
f 434/434 433/433 419/419
f 435/435 434/434 419/419
f 436/436 435/435 419/419
f 436/436 419/419 432/432
f 437/437 436/436 432/432
f 439/439 438/438 424/424
f 428/428 439/439 424/424
f 424/424 440/440 429/429
f 441/441 440/440 424/424
f 442/442 441/441 424/424
f 438/438 442/442 424/424
f 429/429 443/443 430/430
f 429/429 440/440 443/443
f 430/430 444/444 431/431
f 430/430 443/443 444/444
f 431/431 445/445 432/432
f 431/431 444/444 445/445
f 446/446 437/437 432/432
f 447/447 446/446 432/432
f 447/447 432/432 445/445
f 448/448 447/447 445/445
f 450/450 449/449 440/440
f 441/441 450/450 440/440
f 452/452 451/451 449/449
f 450/450 452/452 449/449
f 440/440 453/453 443/443
f 440/440 449/449 453/453
f 443/443 454/454 444/444
f 443/443 453/453 454/454
f 444/444 455/455 445/445
f 444/444 454/454 455/455
f 448/448 445/445 456/456
f 456/456 445/445 455/455
f 457/457 456/456 455/455
f 459/459 458/458 449/449
f 451/451 459/459 449/449
f 460/460 458/458 459/459
f 449/449 461/461 453/453
f 449/449 458/458 461/461
f 453/453 462/462 454/454
f 453/453 461/461 462/462
f 454/454 463/463 455/455
f 454/454 462/462 463/463
f 457/457 455/455 464/464
f 465/465 457/457 464/464
f 455/455 463/463 464/464
f 465/465 464/464 466/466
f 468/468 467/467 458/458
f 460/460 468/468 458/458
f 469/469 467/467 468/468
f 458/458 470/470 461/461
f 458/458 467/467 470/470
f 461/461 471/471 462/462
f 461/461 470/470 471/471
f 462/462 472/472 463/463
f 462/462 471/471 472/472
f 463/463 473/473 464/464
f 463/463 472/472 473/473
f 466/466 464/464 474/474
f 474/474 464/464 473/473
f 475/475 474/474 473/473
f 476/476 475/475 473/473
f 478/478 477/477 467/467
f 469/469 478/478 467/467
f 479/479 477/477 478/478
f 467/467 480/480 470/470
f 467/467 477/477 480/480
f 470/470 481/481 471/471
f 470/470 480/480 481/481
f 471/471 482/482 472/472
f 471/471 481/481 482/482
f 472/472 483/483 473/473
f 472/472 482/482 483/483
f 476/476 473/473 484/484
f 484/484 473/473 483/483
f 485/485 484/484 483/483
f 486/486 485/485 483/483
f 488/488 487/487 477/477
f 479/479 488/488 477/477
f 489/489 487/487 488/488
f 477/477 490/490 480/480
f 477/477 487/487 490/490
f 480/480 491/491 481/481
f 480/480 490/490 491/491
f 481/481 492/492 482/482
f 481/481 491/491 492/492
f 482/482 493/493 483/483
f 482/482 492/492 493/493
f 494/494 486/486 483/483
f 495/495 494/494 483/483
f 495/495 483/483 493/493
f 496/496 495/495 493/493
f 498/498 497/497 487/487
f 489/489 498/498 487/487
f 500/500 499/499 497/497
f 498/498 500/500 497/497
f 487/487 501/501 490/490
f 487/487 497/497 501/501
f 490/490 502/502 491/491
f 490/490 501/501 502/502
f 491/491 503/503 492/492
f 491/491 502/502 503/503
f 492/492 504/504 493/493
f 492/492 503/503 504/504
f 496/496 493/493 505/505
f 506/506 496/496 505/505
f 507/507 506/506 505/505
f 505/505 493/493 504/504
f 508/508 505/505 504/504
f 510/510 509/509 497/497
f 511/511 510/510 497/497
f 499/499 511/511 497/497
f 512/512 509/509 510/510
f 497/497 513/513 501/501
f 497/497 509/509 513/513
f 501/501 514/514 502/502
f 501/501 513/513 514/514
f 502/502 515/515 503/503
f 502/502 514/514 515/515
f 503/503 516/516 504/504
f 503/503 515/515 516/516
f 517/517 508/508 504/504
f 518/518 517/517 504/504
f 518/518 504/504 516/516
f 519/519 518/518 516/516
f 521/521 520/520 509/509
f 522/522 521/521 509/509
f 512/512 522/522 509/509
f 523/523 520/520 521/521
f 509/509 524/524 513/513
f 509/509 520/520 524/524
f 513/513 525/525 514/514
f 513/513 524/524 525/525
f 514/514 526/526 515/515
f 514/514 525/525 526/526
f 515/515 527/527 516/516
f 515/515 526/526 527/527
f 528/528 519/519 516/516
f 529/529 528/528 516/516
f 529/529 516/516 527/527
f 530/530 529/529 527/527
f 532/532 531/531 520/520
f 533/533 532/532 520/520
f 523/523 533/533 520/520
f 534/534 531/531 532/532
f 520/520 535/535 524/524
f 520/520 531/531 535/535
f 524/524 536/536 525/525
f 524/524 535/535 536/536
f 525/525 537/537 526/526
f 525/525 536/536 537/537
f 526/526 538/538 527/527
f 526/526 537/537 538/538
f 530/530 527/527 539/539
f 539/539 527/527 538/538
f 540/540 539/539 538/538
f 541/541 540/540 538/538
f 543/543 542/542 531/531
f 544/544 543/543 531/531
f 534/534 544/544 531/531
f 545/545 542/542 543/543
f 531/531 546/546 535/535
f 531/531 542/542 546/546
f 535/535 547/547 536/536
f 535/535 546/546 547/547
f 536/536 548/548 537/537
f 536/536 547/547 548/548
f 537/537 549/549 538/538
f 537/537 548/548 549/549
f 541/541 538/538 550/550
f 550/550 538/538 549/549
f 551/551 550/550 549/549
f 552/552 551/551 549/549
f 553/553 542/542 545/545
f 542/542 554/554 546/546
f 555/555 554/554 542/542
f 556/556 555/555 542/542
f 553/553 556/556 542/542
f 546/546 557/557 547/547
f 546/546 554/554 557/557
f 547/547 558/558 548/548
f 547/547 557/557 558/558
f 548/548 559/559 549/549
f 548/548 558/558 559/559
f 552/552 549/549 560/560
f 561/561 552/552 560/560
f 560/560 549/549 559/559
f 562/562 560/560 559/559
f 564/564 563/563 554/554
f 555/555 564/564 554/554
f 565/565 563/563 564/564
f 566/566 565/565 564/564
f 554/554 567/567 557/557
f 554/554 563/563 567/567
f 557/557 568/568 558/558
f 557/557 567/567 568/568
f 558/558 569/569 559/559
f 558/558 568/568 569/569
f 562/562 559/559 570/570
f 571/571 562/562 570/570
f 570/570 559/559 569/569
f 572/572 570/570 569/569
f 573/573 563/563 565/565
f 574/574 573/573 565/565
f 575/575 574/574 565/565
f 563/563 576/576 567/567
f 577/577 576/576 563/563
f 573/573 577/577 563/563
f 567/567 578/578 568/568
f 567/567 576/576 578/578
f 579/579 569/569 568/568
f 580/580 579/579 568/568
f 580/580 568/568 578/578
f 581/581 580/580 578/578
f 572/572 569/569 582/582
f 582/582 569/569 579/579
f 583/583 582/582 579/579
f 584/584 576/576 577/577
f 585/585 584/584 577/577
f 586/586 578/578 576/576
f 587/587 586/586 576/576
f 588/588 587/587 576/576
f 588/588 576/576 584/584
f 581/581 578/578 589/589
f 590/590 581/581 589/589
f 589/589 578/578 586/586
