# OSM contributors ODbL; elevations USGS 3DEP
# Centimeters, Z up. Explicit orientation verification required on import.
o Park_Gravel_4_17
v 5189.145325 9435.303511 -598.302083
v 5189.145325 9501.970177 -599.604167
v 5151.053055 9463.877907 -607.341659
v 5148.048727 9435.303511 -607.452498
v 5155.058096 9501.970177 -607.193901
v 5255.811991 9435.303511 -583.197917
v 5255.811991 9501.970177 -584.500000
v 5322.478658 9435.303511 -574.604167
v 5322.478658 9501.970177 -575.385417
v 5189.145325 9568.636844 -601.687500
v 5158.885981 9538.377501 -607.479327
v 5158.755032 9537.132026 -607.469563
v 5162.067465 9568.636844 -607.505009
v 5255.811991 9568.636844 -586.062500
v 5322.478658 9568.636844 -576.427083
v 5189.145325 9635.303511 -604.031250
v 5166.718908 9612.877094 -608.060997
v 5165.677469 9602.971883 -607.936513
v 5169.076834 9635.303511 -607.637307
v 5255.811991 9635.303511 -588.927083
v 5322.478658 9635.303511 -577.989583
v 5189.145325 9701.970177 -603.770833
v 5174.551835 9687.376688 -606.450107
v 5172.599907 9668.811740 -606.873363
v 5176.086203 9701.970177 -605.862333
v 5255.811991 9701.970177 -589.447917
v 5322.478658 9701.970177 -579.291667
v 5189.145325 9768.636844 -602.729167
v 5182.384762 9761.876282 -603.917547
v 5179.522345 9734.651597 -604.801367
v 5183.095571 9768.636844 -603.627177
v 5255.811991 9768.636844 -590.750000
v 5322.478658 9768.636844 -581.375000
v 5189.145325 9826.176530 -602.953931
v 5255.811991 9835.303511 -593.354167
v 5190.104940 9835.303511 -602.850889
v 5322.478658 9835.303511 -583.979167
v 5255.811991 9901.970177 -596.479167
v 5190.217689 9836.375875 -602.884860
v 5197.114309 9901.970177 -604.504240
v 5322.478658 9901.970177 -586.322917
v 5255.811991 9968.636844 -599.864583
v 5198.050616 9910.875469 -604.828452
v 5204.123678 9968.636844 -607.940882
v 5200.289657 9932.171169 -605.975955
v 5322.478658 9968.636844 -587.885417
v 5255.811991 10035.303511 -602.208333
v 5205.883543 9985.375063 -608.254356
v 5211.133047 10035.303511 -610.411108
v 5322.478658 10035.303511 -589.708333
v 5255.811991 10101.970177 -604.291667
v 5213.716470 10059.874656 -610.704656
v 5218.142416 10101.970177 -611.649006
v 5214.134533 10063.850883 -610.793857
v 5322.478658 10101.970177 -591.531250
v 5255.811991 10168.636844 -606.895833
v 5221.549397 10134.374250 -612.249364
v 5221.056970 10129.690740 -612.162591
v 5225.151784 10168.636844 -613.123688
v 5322.478658 10168.636844 -593.093750
v 5255.811991 10235.303511 -608.458333
v 5229.382324 10208.873843 -613.207414
v 5227.979408 10195.530597 -613.179649
v 5232.161153 10235.303511 -613.816726
v 5322.478658 10235.303511 -594.656250
v 5255.811991 10301.970177 -609.239583
v 5237.215251 10283.373437 -613.234977
v 5234.901846 10261.370454 -613.501260
v 5239.170522 10301.970177 -613.204933
v 5322.478658 10301.970177 -595.697917
v 5255.811991 10368.636844 -610.802083
v 5245.048178 10357.873031 -613.114621
v 5241.824283 10327.210311 -613.164158
v 5246.179891 10368.636844 -613.097232
v 5322.478658 10368.636844 -596.739583
v 5255.811991 10435.303511 -612.885417
v 5252.881105 10432.372624 -613.492202
v 5248.746721 10393.050168 -613.248521
v 5253.189260 10435.303511 -613.520609
v 5322.478658 10435.303511 -597.520833
v 5255.811991 10460.248520 -613.664948
v 5255.669159 10458.890025 -613.657088
v 5322.478658 10501.970177 -599.343750
v 5260.198629 10501.970177 -613.940632
v 5322.478658 10568.636844 -599.343750
v 5260.714032 10506.872218 -613.819834
v 5267.207998 10568.636844 -612.729613
v 5322.478658 10635.303511 -601.947917
v 5268.546959 10581.371811 -612.902793
v 5274.217366 10635.303511 -612.693595
v 5269.514034 10590.569740 -612.867115
v 5322.478658 10701.970177 -606.375000
v 5276.379886 10655.871405 -613.577933
v 5281.226735 10701.970177 -616.204560
v 5322.478658 10768.636844 -608.458333
v 5284.212813 10730.370999 -616.380559
v 5283.358909 10722.249454 -616.330230
v 5288.236104 10768.636844 -617.152732
v 5322.478658 10835.303511 -611.843750
v 5292.045740 10804.870592 -618.025437
v 5290.281347 10788.089311 -617.621252
v 5295.245473 10835.303511 -618.226528
v 5322.478658 10901.970177 -614.968750
v 5299.878667 10879.370186 -619.206248
v 5297.203784 10853.929168 -618.640626
v 5302.254842 10901.970177 -619.550708
v 5322.478658 10968.636844 -616.270833
v 5307.457231 10953.615417 -619.380738
v 5304.071388 10919.247497 -619.476595
v 5308.937105 10968.636844 -619.550428
v 5322.478658 11035.303511 -617.833333
v 5314.742825 11027.567677 -619.525547
v 5315.504940 11035.303511 -619.522281
v 5322.478658 11101.970177 -620.958333
v 5322.028418 11101.519938 -621.046271
v 5316.653890 11046.965905 -619.790694
v 5322.072775 11101.970177 -621.062975
v 5322.478658 11106.090085 -621.151454
v 4312.309642 13568.058997 -612.058995
v 4312.712475 13568.636844 -612.021241
v 4277.902971 13568.636844 -610.797469
v 4302.431440 13553.889106 -612.984790
v 4622.916117 13524.554490 -624.982098
v 4629.191038 13542.015890 -624.129524
v 4628.322616 13541.147469 -624.241469
v 4619.635617 13520.945015 -625.406260
v 4631.709294 13549.023515 -623.682149
v 4189.145325 13622.002365 -605.173689
v 4189.145325 13635.303511 -603.770833
v 4180.838598 13626.996784 -604.938967
v 4167.022832 13635.303511 -605.067073
v 4255.811991 13581.919042 -608.775627
v 4255.811991 13635.303511 -603.770833
v 4222.472742 13601.964261 -607.287082
v 4207.279009 13611.099490 -606.323601
v 4264.106885 13576.931738 -609.696814
v 4322.478658 13582.646049 -611.324838
v 4322.478658 13635.303511 -607.416667
v 4263.157676 13577.502450 -609.591400
v 4350.197824 13622.408098 -612.271756
v 4359.187554 13635.303511 -612.578855
v 4122.478658 13662.085689 -606.317051
v 4122.478658 13701.970177 -604.291667
v 4097.570310 13677.061829 -609.837666
v 4056.142693 13701.970177 -615.174911
v 4095.521676 13678.293570 -610.101598
v 4189.145325 13701.970177 -602.468750
v 4139.204454 13652.029306 -606.370381
v 4151.400343 13644.696530 -605.798996
v 4255.811991 13701.970177 -602.989583
v 4322.478658 13701.970177 -604.552083
v 4379.765013 13692.589866 -610.773289
v 4371.631332 13653.153619 -612.864495
v 4381.699692 13701.970177 -610.566720
v 3989.145325 13768.636844 -624.604167
v 3972.667878 13752.159397 -639.472488
v 3983.764342 13745.487650 -633.277052
v 3989.145325 13742.252335 -630.272714
v 3945.262555 13768.636844 -670.201107
v 4055.811991 13702.169012 -615.200429
v 4055.811991 13768.636844 -605.593750
v 4014.302022 13727.126875 -626.348735
v 4122.478658 13768.636844 -602.989583
v 4055.936166 13702.094352 -615.206369
v 4189.145325 13768.636844 -603.250000
v 4255.811991 13768.636844 -604.031250
v 4322.478658 13768.636844 -604.552083
v 4389.145325 13768.636844 -608.197917
v 4389.145325 13738.070412 -609.630718
v 4392.207576 13752.917773 -609.293606
v 4395.449617 13768.636844 -608.936701
v 3922.478658 13783.869425 -686.318212
v 3922.478658 13835.303511 -660.802083
v 3895.191399 13808.016252 -702.585698
v 3878.023059 13835.303511 -731.826849
v 3889.710386 13812.866468 -711.664559
v 3989.145325 13835.303511 -606.895833
v 3931.033734 13777.191920 -682.713299
v 3927.885675 13779.084690 -684.319809
v 4055.811991 13835.303511 -602.468750
v 4122.478658 13835.303511 -602.989583
v 4189.145325 13835.303511 -603.770833
v 4255.811991 13835.303511 -603.510417
v 4322.478658 13835.303511 -602.729167
v 4389.145325 13828.465891 -605.393430
v 4384.875148 13831.033334 -605.039556
v 4377.772982 13835.303511 -604.673108
v 4397.087728 13776.579248 -608.756367
v 4405.401731 13816.889785 -607.841108
v 4405.732378 13818.492928 -607.804708
v 3922.478658 13901.970177 -630.593750
v 3870.415944 13849.907464 -737.362987
v 3861.132035 13901.970177 -745.379034
v 3866.160611 13858.076747 -743.857196
v 3989.145325 13901.970177 -601.947917
v 4055.811991 13901.970177 -602.208333
v 4122.478658 13901.970177 -602.729167
v 4189.145325 13901.970177 -602.729167
v 4255.811991 13901.970177 -601.427083
v 4322.478658 13868.549214 -601.820104
v 4301.606860 13881.098380 -601.721555
v 4295.679623 13884.662130 -601.656494
v 4266.892843 13901.970177 -601.340514
v 4343.241004 13856.065857 -602.566961
v 3922.478658 13968.636844 -636.583333
v 3860.585200 13906.743386 -746.831055
v 3864.500050 13968.636844 -750.502238
v 3860.358573 13908.721565 -747.639523
v 3989.145325 13968.636844 -601.947917
v 4055.811991 13968.636844 -602.208333
v 4122.478658 13968.636844 -602.208333
v 4189.145325 13948.715861 -601.816165
v 4183.922290 13951.856210 -601.754830
v 4176.704429 13956.195948 -601.670070
v 4156.012704 13968.636844 -601.815356
v 4255.811991 13908.632538 -601.375034
v 4239.800956 13918.259170 -601.612541
v 4218.338572 13931.163425 -601.930914
v 4259.972716 13906.130902 -601.378325
v 3922.478658 14035.303511 -629.031250
v 3865.145181 13977.970034 -748.177382
v 3864.606967 13970.183627 -750.116942
v 3869.108198 14035.303511 -729.934776
v 3868.855361 14031.645689 -731.098637
v 3989.145325 14035.303511 -601.427083
v 4055.811991 14035.303511 -601.947917
v 4122.478658 14035.303511 -601.947917
v 4145.600869 13974.896958 -601.912916
v 4146.852962 13993.011148 -601.827485
v 4148.188845 14012.337540 -601.736336
v 4149.776304 14035.303511 -601.628022
v 3922.478658 14101.970177 -635.802083
v 3870.095506 14049.587026 -729.518816
v 3873.716346 14101.970177 -727.993330
v 3989.145325 14101.970177 -601.427083
v 4055.811991 14101.970177 -601.947917
v 4122.478658 14101.970177 -602.468750
v 4151.803288 14064.628140 -601.833367
v 4154.384452 14101.970177 -602.094854
v 3922.478658 14168.636844 -647.000000
v 3875.045831 14121.204017 -728.710455
v 3878.324493 14168.636844 -732.376217
v 3989.145325 14168.636844 -601.947917
v 4055.811991 14168.636844 -601.687500
v 4122.478658 14168.636844 -602.468750
v 4156.685633 14135.261664 -602.197932
v 4156.753613 14136.245132 -602.200977
v 4158.992600 14168.636844 -602.183485
v 3922.478658 14235.303511 -641.791667
v 3879.996157 14192.821009 -727.254511
v 3882.932641 14235.303511 -718.257598
v 3881.600543 14216.031875 -722.338931
v 3989.145325 14235.303511 -601.687500
v 4055.811991 14235.303511 -601.427083
v 4122.478658 14235.303511 -602.208333
v 4161.703938 14207.862124 -601.855855
v 4163.600747 14235.303511 -601.726434
v 3922.478658 14301.970177 -635.020833
v 3884.946482 14264.438001 -711.404677
v 3887.955122 14301.970177 -705.416482
v 3886.041938 14279.967336 -709.231634
v 3885.848937 14277.493937 -709.615514
v 3989.145325 14301.970177 -600.906250
v 4055.811991 14301.970177 -601.166667
v 4122.478658 14301.970177 -601.687500
v 4165.096879 14256.948234 -601.624351
v 4167.094232 14279.919085 -601.511215
v 4169.011611 14301.970177 -601.323961
v 3922.478658 14368.636844 -642.052083
v 3891.016185 14337.174371 -702.887725
v 3893.751899 14368.636844 -700.739954
v 3891.772813 14345.876081 -702.293707
v 3989.145325 14368.636844 -600.906250
v 4055.811991 14368.636844 -600.645833
v 4122.478658 14368.636844 -601.166667
v 4173.443050 14352.934569 -601.289341
v 4174.808389 14368.636844 -601.166667
v 3922.478658 14435.303511 -655.333333
v 3897.365002 14410.189855 -701.636636
v 3899.548676 14435.303511 -701.282867
v 3897.503688 14411.784826 -701.614168
v 3989.145325 14435.303511 -602.208333
v 4055.811991 14435.303511 -600.645833
v 4122.478658 14435.303511 -601.166667
v 4179.791867 14425.950053 -600.942787
v 4180.605166 14435.303511 -600.939610
v 3922.478658 14501.970177 -662.364583
v 3903.713820 14483.205339 -697.988456
v 3903.234562 14477.693571 -698.367524
v 3905.345453 14501.970177 -696.229433
v 3989.145325 14501.970177 -602.989583
v 4055.811991 14501.970177 -600.385417
v 4122.478658 14501.970177 -600.385417
v 4182.182044 14453.438624 -600.650089
v 4186.140685 14498.965537 -599.923268
v 4186.401943 14501.970177 -599.886016
v 3922.478658 14568.636844 -659.760417
v 3910.130045 14556.288231 -684.650590
v 3909.027146 14544.292228 -687.299133
v 3908.965437 14543.602316 -687.448054
v 3911.265363 14568.636844 -681.617582
v 3989.145325 14568.636844 -602.989583
v 4055.811991 14568.636844 -599.864583
v 4122.478658 14568.636844 -600.125000
v 4189.145325 14568.636844 -599.864583
v 4187.882917 14519.002337 -599.874446
v 4189.145325 14532.733277 -599.864583
v 4192.446258 14568.636844 -599.903266
v 3922.478658 14635.303511 -664.968750
v 3916.879875 14629.704728 -675.444597
v 3913.681085 14594.912157 -678.961569
v 3917.394621 14635.303511 -674.739633
v 3989.145325 14635.303511 -603.770833
v 4055.811991 14635.303511 -599.604167
v 4122.478658 14635.303511 -600.125000
v 4189.145325 14635.303511 -599.864583
v 4192.780470 14572.271989 -599.907183
v 4255.811991 14595.186713 -600.645833
v 4255.811991 14635.303511 -600.645833
v 4215.430956 14594.922476 -600.172618
v 4194.850548 14594.787805 -599.931441
v 4322.478658 14595.622954 -601.377496
v 4322.478658 14635.303511 -601.687500
v 4282.536737 14595.361590 -601.063407
v 4256.272588 14595.189727 -600.653030
v 4389.145325 14635.303511 -601.427083
v 4349.642518 14595.800704 -601.272775
v 4381.806965 14596.011175 -601.273598
v 4389.145325 14596.059195 -601.273785
v 4455.811991 14596.495436 -600.949021
v 4455.811991 14635.303511 -600.645833
v 4416.748299 14596.239818 -600.951018
v 4483.687718 14635.303511 -601.516950
v 4480.719997 14596.658424 -601.726123
v 3922.478658 14690.601519 -679.657283
v 3989.145325 14701.970177 -607.156250
v 3923.523880 14701.970177 -681.493043
v 3922.988964 14696.152015 -680.553552
v 4055.811991 14701.970177 -599.343750
v 4122.478658 14701.970177 -600.125000
v 4189.145325 14701.970177 -600.645833
v 4255.811991 14701.970177 -600.906250
v 4322.478658 14701.970177 -601.427083
v 4389.145325 14701.970177 -601.687500
v 4455.811991 14701.970177 -601.947917
v 4486.006482 14665.498001 -601.825306
v 4487.520206 14685.209412 -602.239859
v 4488.807336 14701.970177 -602.592357
v 3989.145325 14768.636844 -610.802083
v 3923.629706 14703.121225 -681.436110
v 3927.918117 14768.636844 -691.401962
v 3927.223594 14742.211195 -686.019500
v 4055.811991 14768.636844 -599.604167
v 4122.478658 14768.636844 -600.125000
v 4189.145325 14768.636844 -600.906250
v 4255.811991 14768.636844 -600.906250
v 4322.478658 14768.636844 -600.906250
v 4389.145325 14768.636844 -601.427083
v 4455.811991 14768.636844 -602.208333
v 4491.551961 14737.710147 -602.925181
v 4491.988685 14743.397075 -602.957632
v 4492.125305 14768.636844 -603.059427
v 3989.145325 14835.303511 -615.489583
v 3928.064937 14774.223123 -691.601473
v 3929.670262 14835.303511 -709.348666
v 3928.630902 14795.757303 -697.858330
v 4055.811991 14835.303511 -599.604167
v 4122.478658 14835.303511 -600.125000
v 4189.145325 14835.303511 -600.385417
v 4255.811991 14835.303511 -600.125000
v 4322.478658 14835.303511 -599.864583
v 4389.145325 14835.303511 -600.906250
v 4455.811991 14835.303511 -602.208333
v 4492.322935 14805.147788 -603.206679
v 4492.486165 14835.303511 -603.211143
v 3989.145325 14901.970177 -623.041667
v 3929.864375 14842.689228 -709.878995
v 3931.422407 14901.970177 -721.576490
v 4055.811991 14901.970177 -600.125000
v 4122.478658 14901.970177 -600.385417
v 4189.145325 14901.970177 -601.166667
v 4255.811991 14875.192708 -600.592452
v 4254.440416 14875.183733 -600.597704
v 4228.858146 14875.016333 -600.695673
v 4210.807586 14874.898217 -600.764799
v 4211.519096 14901.970177 -601.079269
v 4322.478658 14875.628949 -600.337147
v 4317.207604 14875.594457 -600.357333
v 4295.963927 14875.455447 -600.438687
v 4389.145325 14876.065189 -600.906250
v 4379.974793 14876.005181 -600.762960
v 4363.069708 14875.894561 -600.498818
v 4455.811991 14876.501430 -601.725545
v 4442.741982 14876.415905 -601.471274
v 4430.175489 14876.333675 -601.226798
v 4492.685759 14872.177279 -603.648715
v 4492.710472 14876.742879 -603.596467
v 3989.145325 14968.636844 -630.593750
v 3931.663813 14911.155333 -722.204909
v 3933.174552 14968.636844 -733.789861
v 3931.686179 14912.006324 -722.376420
v 4055.811991 14968.636844 -600.645833
v 4122.478658 14968.636844 -600.645833
v 4189.145325 14968.636844 -601.166667
v 4212.122999 14924.947852 -601.256423
v 4213.117162 14962.774366 -601.260307
v 4213.151012 14964.439265 -601.260439
v 4213.211384 14968.636844 -601.260675
v 3989.145325 15035.303511 -620.177083
v 3933.338619 14979.496805 -731.790495
v 3933.191942 14969.298486 -733.654418
v 3934.141256 15035.303511 -724.384010
v 3934.098194 15032.309441 -724.781373
v 4055.811991 15035.303511 -600.645833
v 4122.478658 15035.303511 -600.906250
v 4189.145325 15035.303511 -601.166667
v 4213.562564 14993.054083 -601.166667
v 4214.069239 15028.282770 -601.166667
v 4214.170214 15035.303511 -601.166667
v 3989.145325 15101.970177 -618.875000
v 3934.311441 15047.136293 -723.830481
v 3935.100086 15101.970177 -724.643220
v 4055.811991 15101.970177 -601.166667
v 4122.478658 15101.970177 -601.166667
v 4189.145325 15101.970177 -601.687500
v 4214.535386 15060.693572 -601.464206
v 4214.987465 15092.126276 -601.711540
v 4215.129045 15101.970177 -601.788999
v 3989.145325 15168.636844 -629.291667
v 3935.284263 15114.775782 -726.283658
v 3936.058917 15168.636844 -735.257114
v 3935.934647 15159.996452 -733.817592
v 4055.811991 15168.636844 -601.947917
v 4122.478658 15168.636844 -601.427083
v 4189.145325 15168.636844 -602.208333
v 4215.508208 15128.333060 -602.099420
v 4255.811991 15168.636844 -602.729167
v 4219.319776 15132.144629 -602.158976
v 4228.219118 15136.120439 -602.240330
v 4255.811991 15148.447646 -602.492574
v 4215.538733 15130.455435 -602.116240
v 4269.110198 15154.388663 -602.666088
v 4311.749112 15168.636844 -603.166175
v 3989.145325 15235.303511 -642.572917
v 3936.257084 15182.415270 -737.606473
v 3939.221545 15235.303511 -745.150683
v 3936.852873 15223.839958 -747.062116
v 4055.811991 15235.303511 -602.989583
v 4122.478658 15235.303511 -601.687500
v 4189.145325 15235.303511 -602.208333
v 4255.811991 15235.303511 -602.989583
v 4322.478658 15235.303511 -603.510417
v 4320.562662 15171.581972 -603.246536
v 4322.478658 15172.222219 -603.264005
v 4389.145325 15235.303511 -605.072917
v 4327.863391 15174.021577 -603.397239
v 4378.503873 15190.943555 -604.650227
v 4389.145325 15194.499492 -604.913526
v 4455.811991 15216.776765 -607.980806
v 4455.811991 15235.303511 -608.197917
v 4427.987408 15207.478928 -606.784950
v 4461.681897 15235.303511 -608.679432
v 4465.357137 15219.966362 -608.801185
v 3989.145325 15301.970177 -648.302083
v 3943.582064 15256.406917 -738.004753
v 3964.983486 15301.970177 -696.153850
v 3947.518692 15275.458835 -730.431649
v 4055.811991 15301.970177 -603.510417
v 4122.478658 15301.970177 -601.947917
v 4189.145325 15301.970177 -602.208333
v 4255.811991 15301.970177 -602.729167
v 4322.478658 15301.970177 -603.510417
v 4389.145325 15301.970177 -604.291667
v 4455.811991 15259.799219 -608.197917
v 4447.660023 15293.818209 -607.815793
v 4445.706567 15301.970177 -607.605802
v 4460.547199 15240.038719 -608.808315
v 4456.998291 15254.848670 -608.350838
v 3989.145325 15328.293878 -652.209508
v 3976.515368 15319.475433 -675.913753
v 4055.811991 15365.769026 -606.999416
v 4050.628376 15363.453228 -610.355513
v 4019.732671 15349.650471 -631.961190
v 4122.478658 15368.636844 -603.250000
v 4062.231236 15368.636844 -606.780122
v 4189.145325 15368.636844 -602.729167
v 4255.811991 15368.636844 -603.510417
v 4322.478658 15368.636844 -604.552083
v 4389.145325 15368.636844 -606.114583
v 4434.772846 15347.597699 -609.103944
v 4429.752516 15368.548041 -609.284592
v 4429.731313 15368.636844 -609.285364
v 4122.478658 15395.552578 -603.670558
v 4114.007670 15391.768136 -604.107773
v 4066.870171 15370.709303 -606.540692
v 4189.145325 15422.886786 -602.941081
v 4173.880336 15417.785851 -603.040413
v 4170.191153 15416.349339 -603.063623
v 4161.145169 15412.826969 -603.185265
v 4255.811991 15435.303511 -603.770833
v 4226.303448 15435.303511 -603.425030
v 4322.478658 15435.303511 -606.375000
v 4389.145325 15435.303511 -610.281250
v 4429.699124 15368.771662 -609.291802
v 4421.931546 15401.423066 -610.853217
v 4416.664223 15423.564525 -611.804973
v 4413.871587 15435.303511 -612.309576
v 4255.811991 15445.164059 -603.847869
v 4231.821548 15437.147434 -603.504101
v 4322.478658 15467.441332 -607.128230
v 4289.762759 15456.509017 -605.594039
v 4270.621157 15450.112676 -604.696406
v 4389.145325 15489.718605 -613.469634
v 4370.745174 15483.570027 -612.031232
v 4347.703971 15475.870599 -609.690664
v 4409.119780 15455.277966 -613.636334
v 4403.629321 15478.357388 -614.388125
v 4400.058979 15493.365501 -614.877001
vt 25.945727 47.176518
vt 25.945727 47.509851
vt 25.755265 47.319390
vt 25.740244 47.176518
vt 25.775290 47.509851
vt 26.279060 47.176518
vt 26.279060 47.509851
vt 26.612393 47.176518
vt 26.612393 47.509851
vt 25.945727 47.843184
vt 25.794430 47.691888
vt 25.793775 47.685660
vt 25.810337 47.843184
vt 26.279060 47.843184
vt 26.612393 47.843184
vt 25.945727 48.176518
vt 25.833595 48.064385
vt 25.828387 48.014859
vt 25.845384 48.176518
vt 26.279060 48.176518
vt 26.612393 48.176518
vt 25.945727 48.509851
vt 25.872759 48.436883
vt 25.863000 48.344059
vt 25.880431 48.509851
vt 26.279060 48.509851
vt 26.612393 48.509851
vt 25.945727 48.843184
vt 25.911924 48.809381
vt 25.897612 48.673258
vt 25.915478 48.843184
vt 26.279060 48.843184
vt 26.612393 48.843184
vt 25.945727 49.130883
vt 26.279060 49.176518
vt 25.950525 49.176518
vt 26.612393 49.176518
vt 26.279060 49.509851
vt 25.951088 49.181879
vt 25.985572 49.509851
vt 26.612393 49.509851
vt 26.279060 49.843184
vt 25.990253 49.554377
vt 26.020618 49.843184
vt 26.001448 49.660856
vt 26.612393 49.843184
vt 26.279060 50.176518
vt 26.029418 49.926875
vt 26.055665 50.176518
vt 26.612393 50.176518
vt 26.279060 50.509851
vt 26.068582 50.299373
vt 26.090712 50.509851
vt 26.070673 50.319254
vt 26.612393 50.509851
vt 26.279060 50.843184
vt 26.107747 50.671871
vt 26.105285 50.648454
vt 26.125759 50.843184
vt 26.612393 50.843184
vt 26.279060 51.176518
vt 26.146912 51.044369
vt 26.139897 50.977653
vt 26.160806 51.176518
vt 26.612393 51.176518
vt 26.279060 51.509851
vt 26.186076 51.416867
vt 26.174509 51.306852
vt 26.195853 51.509851
vt 26.612393 51.509851
vt 26.279060 51.843184
vt 26.225241 51.789365
vt 26.209121 51.636052
vt 26.230899 51.843184
vt 26.612393 51.843184
vt 26.279060 52.176518
vt 26.264406 52.161863
vt 26.243734 51.965251
vt 26.265946 52.176518
vt 26.612393 52.176518
vt 26.279060 52.301243
vt 26.278346 52.294450
vt 26.612393 52.509851
vt 26.300993 52.509851
vt 26.612393 52.843184
vt 26.303570 52.534361
vt 26.336040 52.843184
vt 26.612393 53.176518
vt 26.342735 52.906859
vt 26.371087 53.176518
vt 26.347570 52.952849
vt 26.612393 53.509851
vt 26.381899 53.279357
vt 26.406134 53.509851
vt 26.612393 53.843184
vt 26.421064 53.651855
vt 26.416795 53.611247
vt 26.441181 53.843184
vt 26.612393 54.176518
vt 26.460229 54.024353
vt 26.451407 53.940447
vt 26.476227 54.176518
vt 26.612393 54.509851
vt 26.499393 54.396851
vt 26.486019 54.269646
vt 26.511274 54.509851
vt 26.612393 54.843184
vt 26.537286 54.768077
vt 26.520357 54.596237
vt 26.544686 54.843184
vt 26.612393 55.176518
vt 26.573714 55.137838
vt 26.577525 55.176518
vt 26.612393 55.509851
vt 26.610142 55.507600
vt 26.583269 55.234830
vt 26.610364 55.509851
vt 26.612393 55.530450
vt 21.561548 67.840295
vt 21.563562 67.843184
vt 21.389515 67.843184
vt 21.512157 67.769446
vt 23.114581 67.622772
vt 23.145955 67.710079
vt 23.141613 67.705737
vt 23.098178 67.604725
vt 23.158546 67.745118
vt 20.945727 68.110012
vt 20.945727 68.176518
vt 20.904193 68.134984
vt 20.835114 68.176518
vt 21.279060 67.909595
vt 21.279060 68.176518
vt 21.112364 68.009821
vt 21.036395 68.055497
vt 21.320534 67.884659
vt 21.612393 67.913230
vt 21.612393 68.176518
vt 21.315788 67.887512
vt 21.750989 68.112040
vt 21.795938 68.176518
vt 20.612393 68.310428
vt 20.612393 68.509851
vt 20.487852 68.385309
vt 20.280713 68.509851
vt 20.477608 68.391468
vt 20.945727 68.509851
vt 20.696022 68.260147
vt 20.757002 68.223483
vt 21.279060 68.509851
vt 21.612393 68.509851
vt 21.898825 68.462949
vt 21.858157 68.265768
vt 21.908498 68.509851
vt 19.945727 68.843184
vt 19.863339 68.760797
vt 19.918822 68.727438
vt 19.945727 68.711262
vt 19.726313 68.843184
vt 20.279060 68.510845
vt 20.279060 68.843184
vt 20.071510 68.635634
vt 20.612393 68.843184
vt 20.279681 68.510472
vt 20.945727 68.843184
vt 21.279060 68.843184
vt 21.612393 68.843184
vt 21.945727 68.843184
vt 21.945727 68.690352
vt 21.961038 68.764589
vt 21.977248 68.843184
vt 19.612393 68.919347
vt 19.612393 69.176518
vt 19.475957 69.040081
vt 19.390115 69.176518
vt 19.448552 69.064332
vt 19.945727 69.176518
vt 19.655169 68.885960
vt 19.639428 68.895423
vt 20.279060 69.176518
vt 20.612393 69.176518
vt 20.945727 69.176518
vt 21.279060 69.176518
vt 21.612393 69.176518
vt 21.945727 69.142329
vt 21.924376 69.155167
vt 21.888865 69.176518
vt 21.985439 68.882896
vt 22.027009 69.084449
vt 22.028662 69.092465
vt 19.612393 69.509851
vt 19.352080 69.249537
vt 19.305660 69.509851
vt 19.330803 69.290384
vt 19.945727 69.509851
vt 20.279060 69.509851
vt 20.612393 69.509851
vt 20.945727 69.509851
vt 21.279060 69.509851
vt 21.612393 69.342746
vt 21.508034 69.405492
vt 21.478398 69.423311
vt 21.334464 69.509851
vt 21.716205 69.280329
vt 19.612393 69.843184
vt 19.302926 69.533717
vt 19.322500 69.843184
vt 19.301793 69.543608
vt 19.945727 69.843184
vt 20.279060 69.843184
vt 20.612393 69.843184
vt 20.945727 69.743579
vt 20.919611 69.759281
vt 20.883522 69.780980
vt 20.780064 69.843184
vt 21.279060 69.543163
vt 21.199005 69.591296
vt 21.091693 69.655817
vt 21.299864 69.530655
vt 19.612393 70.176518
vt 19.325726 69.889850
vt 19.323035 69.850918
vt 19.345541 70.176518
vt 19.344277 70.158228
vt 19.945727 70.176518
vt 20.279060 70.176518
vt 20.612393 70.176518
vt 20.728004 69.874485
vt 20.734265 69.965056
vt 20.740944 70.061688
vt 20.748882 70.176518
vt 19.612393 70.509851
vt 19.350478 70.247935
vt 19.368582 70.509851
vt 19.945727 70.509851
vt 20.279060 70.509851
vt 20.612393 70.509851
vt 20.759016 70.323141
vt 20.771922 70.509851
vt 19.612393 70.843184
vt 19.375229 70.606020
vt 19.391622 70.843184
vt 19.945727 70.843184
vt 20.279060 70.843184
vt 20.612393 70.843184
vt 20.783428 70.676308
vt 20.783768 70.681226
vt 20.794963 70.843184
vt 19.612393 71.176518
vt 19.399981 70.964105
vt 19.414663 71.176518
vt 19.408003 71.080159
vt 19.945727 71.176518
vt 20.279060 71.176518
vt 20.612393 71.176518
vt 20.808520 71.039311
vt 20.818004 71.176518
vt 19.612393 71.509851
vt 19.424732 71.322190
vt 19.439776 71.509851
vt 19.430210 71.399837
vt 19.429245 71.387470
vt 19.945727 71.509851
vt 20.279060 71.509851
vt 20.612393 71.509851
vt 20.825484 71.284741
vt 20.835471 71.399595
vt 20.845058 71.509851
vt 19.612393 71.843184
vt 19.455081 71.685872
vt 19.468759 71.843184
vt 19.458864 71.729380
vt 19.945727 71.843184
vt 20.279060 71.843184
vt 20.612393 71.843184
vt 20.867215 71.764673
vt 20.874042 71.843184
vt 19.612393 72.176518
vt 19.486825 72.050949
vt 19.497743 72.176518
vt 19.487518 72.058924
vt 19.945727 72.176518
vt 20.279060 72.176518
vt 20.612393 72.176518
vt 20.898959 72.129750
vt 20.903026 72.176518
vt 19.612393 72.509851
vt 19.518569 72.416027
vt 19.516173 72.388468
vt 19.526727 72.509851
vt 19.945727 72.509851
vt 20.279060 72.509851
vt 20.612393 72.509851
vt 20.910910 72.267193
vt 20.930703 72.494828
vt 20.932010 72.509851
vt 19.612393 72.843184
vt 19.550650 72.781441
vt 19.545136 72.721461
vt 19.544827 72.718012
vt 19.556327 72.843184
vt 19.945727 72.843184
vt 20.279060 72.843184
vt 20.612393 72.843184
vt 20.945727 72.843184
vt 20.939415 72.595012
vt 20.945727 72.663666
vt 20.962231 72.843184
vt 19.612393 73.176518
vt 19.584399 73.148524
vt 19.568405 72.974561
vt 19.586973 73.176518
vt 19.945727 73.176518
vt 20.279060 73.176518
vt 20.612393 73.176518
vt 20.945727 73.176518
vt 20.963902 72.861360
vt 21.279060 72.975934
vt 21.279060 73.176518
vt 21.077155 72.974612
vt 20.974253 72.973939
vt 21.612393 72.978115
vt 21.612393 73.176518
vt 21.412684 72.976808
vt 21.281363 72.975949
vt 21.945727 73.176518
vt 21.748213 72.979004
vt 21.909035 72.980056
vt 21.945727 72.980296
vt 22.279060 72.982477
vt 22.279060 73.176518
vt 22.083741 72.981199
vt 22.418439 73.176518
vt 22.403600 72.983292
vt 19.612393 73.453008
vt 19.945727 73.509851
vt 19.617619 73.509851
vt 19.614945 73.480760
vt 20.279060 73.509851
vt 20.612393 73.509851
vt 20.945727 73.509851
vt 21.279060 73.509851
vt 21.612393 73.509851
vt 21.945727 73.509851
vt 22.279060 73.509851
vt 22.430032 73.327490
vt 22.437601 73.426047
vt 22.444037 73.509851
vt 19.945727 73.843184
vt 19.618149 73.515606
vt 19.639591 73.843184
vt 19.636118 73.711056
vt 20.279060 73.843184
vt 20.612393 73.843184
vt 20.945727 73.843184
vt 21.279060 73.843184
vt 21.612393 73.843184
vt 21.945727 73.843184
vt 22.279060 73.843184
vt 22.457760 73.688551
vt 22.459943 73.716985
vt 22.460627 73.843184
vt 19.945727 74.176518
vt 19.640325 73.871116
vt 19.648351 74.176518
vt 19.643155 73.978787
vt 20.279060 74.176518
vt 20.612393 74.176518
vt 20.945727 74.176518
vt 21.279060 74.176518
vt 21.612393 74.176518
vt 21.945727 74.176518
vt 22.279060 74.176518
vt 22.461615 74.025739
vt 22.462431 74.176518
vt 19.945727 74.509851
vt 19.649322 74.213446
vt 19.657112 74.509851
vt 20.279060 74.509851
vt 20.612393 74.509851
vt 20.945727 74.509851
vt 21.279060 74.375964
vt 21.272202 74.375919
vt 21.144291 74.375082
vt 21.054038 74.374491
vt 21.057595 74.509851
vt 21.612393 74.378145
vt 21.586038 74.377972
vt 21.479820 74.377277
vt 21.945727 74.380326
vt 21.899874 74.380026
vt 21.815349 74.379473
vt 22.279060 74.382507
vt 22.213710 74.382080
vt 22.150877 74.381668
vt 22.463429 74.360886
vt 22.463552 74.383714
vt 19.945727 74.843184
vt 19.658319 74.555777
vt 19.665873 74.843184
vt 19.658431 74.560032
vt 20.279060 74.843184
vt 20.612393 74.843184
vt 20.945727 74.843184
vt 21.060615 74.624739
vt 21.065586 74.813872
vt 21.065755 74.822196
vt 21.066057 74.843184
vt 19.945727 75.176518
vt 19.666693 74.897484
vt 19.665960 74.846492
vt 19.670706 75.176518
vt 19.670491 75.161547
vt 20.279060 75.176518
vt 20.612393 75.176518
vt 20.945727 75.176518
vt 21.067813 74.965270
vt 21.070346 75.141414
vt 21.070851 75.176518
vt 19.945727 75.509851
vt 19.671557 75.235681
vt 19.675500 75.509851
vt 20.279060 75.509851
vt 20.612393 75.509851
vt 20.945727 75.509851
vt 21.072677 75.303468
vt 21.074937 75.460631
vt 21.075645 75.509851
vt 19.945727 75.843184
vt 19.676421 75.573879
vt 19.680295 75.843184
vt 19.679673 75.799982
vt 20.279060 75.843184
vt 20.612393 75.843184
vt 20.945727 75.843184
vt 21.077541 75.641665
vt 21.279060 75.843184
vt 21.096599 75.660723
vt 21.141096 75.680602
vt 21.279060 75.742238
vt 21.077694 75.652277
vt 21.345551 75.771943
vt 21.558746 75.843184
vt 19.945727 76.176518
vt 19.681285 75.912076
vt 19.696108 76.176518
vt 19.684264 76.119200
vt 20.279060 76.176518
vt 20.612393 76.176518
vt 20.945727 76.176518
vt 21.279060 76.176518
vt 21.612393 76.176518
vt 21.602813 75.857910
vt 21.612393 75.861111
vt 21.945727 76.176518
vt 21.639317 75.870108
vt 21.892519 75.954718
vt 21.945727 75.972497
vt 22.279060 76.083884
vt 22.279060 76.176518
vt 22.139937 76.037395
vt 22.308409 76.176518
vt 22.326786 76.099832
vt 19.945727 76.509851
vt 19.717910 76.282035
vt 19.824917 76.509851
vt 19.737593 76.377294
vt 20.279060 76.509851
vt 20.612393 76.509851
vt 20.945727 76.509851
vt 21.279060 76.509851
vt 21.612393 76.509851
vt 21.945727 76.509851
vt 22.279060 76.298996
vt 22.238300 76.469091
vt 22.228533 76.509851
vt 22.302736 76.200194
vt 22.284991 76.274243
vt 19.945727 76.641469
vt 19.882577 76.597377
vt 20.279060 76.828845
vt 20.253142 76.817266
vt 20.098663 76.748252
vt 20.612393 76.843184
vt 20.311156 76.843184
vt 20.945727 76.843184
vt 21.279060 76.843184
vt 21.612393 76.843184
vt 21.945727 76.843184
vt 22.173864 76.737988
vt 22.148763 76.842740
vt 22.148657 76.843184
vt 20.612393 76.977763
vt 20.570038 76.958841
vt 20.334351 76.853547
vt 20.945727 77.114434
vt 20.869402 77.088929
vt 20.850956 77.081747
vt 20.805726 77.064135
vt 21.279060 77.176518
vt 21.131517 77.176518
vt 21.612393 77.176518
vt 21.945727 77.176518
vt 22.148496 76.843858
vt 22.109658 77.007115
vt 22.083321 77.117823
vt 22.069358 77.176518
vt 21.279060 77.225820
vt 21.159108 77.185737
vt 21.612393 77.337207
vt 21.448814 77.282545
vt 21.353106 77.250563
vt 21.945727 77.448593
vt 21.853726 77.417850
vt 21.738520 77.379353
vt 22.045599 77.276390
vt 22.018147 77.391787
vt 22.000295 77.466828
f 1/1 2/2 3/3
f 1/1 3/3 4/4
f 3/3 2/2 5/5
f 6/6 7/7 1/1
f 7/7 2/2 1/1
f 8/8 9/9 6/6
f 9/9 7/7 6/6
f 2/2 10/10 11/11
f 2/2 11/11 12/12
f 2/2 12/12 5/5
f 11/11 10/10 13/13
f 7/7 14/14 2/2
f 14/14 10/10 2/2
f 9/9 15/15 7/7
f 15/15 14/14 7/7
f 10/10 16/16 17/17
f 10/10 17/17 18/18
f 10/10 18/18 13/13
f 17/17 16/16 19/19
f 14/14 20/20 10/10
f 20/20 16/16 10/10
f 15/15 21/21 14/14
f 21/21 20/20 14/14
f 16/16 22/22 23/23
f 16/16 23/23 24/24
f 16/16 24/24 19/19
f 23/23 22/22 25/25
f 20/20 26/26 16/16
f 26/26 22/22 16/16
f 21/21 27/27 20/20
f 27/27 26/26 20/20
f 22/22 28/28 29/29
f 22/22 29/29 30/30
f 22/22 30/30 25/25
f 29/29 28/28 31/31
f 26/26 32/32 22/22
f 32/32 28/28 22/22
f 27/27 33/33 26/26
f 33/33 32/32 26/26
f 31/31 28/28 34/34
f 32/32 35/35 28/28
f 28/28 35/35 36/36
f 28/28 36/36 34/34
f 33/33 37/37 32/32
f 37/37 35/35 32/32
f 35/35 38/38 39/39
f 35/35 39/39 36/36
f 39/39 38/38 40/40
f 37/37 41/41 35/35
f 41/41 38/38 35/35
f 38/38 42/42 43/43
f 38/38 43/43 40/40
f 42/42 44/44 45/45
f 42/42 45/45 43/43
f 41/41 46/46 38/38
f 46/46 42/42 38/38
f 42/42 47/47 48/48
f 42/42 48/48 44/44
f 48/48 47/47 49/49
f 46/46 50/50 42/42
f 50/50 47/47 42/42
f 47/47 51/51 52/52
f 47/47 52/52 49/49
f 51/51 53/53 54/54
f 51/51 54/54 52/52
f 50/50 55/55 47/47
f 55/55 51/51 47/47
f 51/51 56/56 57/57
f 51/51 57/57 58/58
f 51/51 58/58 53/53
f 57/57 56/56 59/59
f 55/55 60/60 51/51
f 60/60 56/56 51/51
f 56/56 61/61 62/62
f 56/56 62/62 63/63
f 56/56 63/63 59/59
f 62/62 61/61 64/64
f 60/60 65/65 56/56
f 65/65 61/61 56/56
f 61/61 66/66 67/67
f 61/61 67/67 68/68
f 61/61 68/68 64/64
f 67/67 66/66 69/69
f 65/65 70/70 61/61
f 70/70 66/66 61/61
f 66/66 71/71 72/72
f 66/66 72/72 73/73
f 66/66 73/73 69/69
f 72/72 71/71 74/74
f 70/70 75/75 66/66
f 75/75 71/71 66/66
f 71/71 76/76 77/77
f 71/71 77/77 78/78
f 71/71 78/78 74/74
f 77/77 76/76 79/79
f 75/75 80/80 71/71
f 80/80 76/76 71/71
f 76/76 81/81 82/82
f 76/76 82/82 79/79
f 80/80 83/83 76/76
f 76/76 83/83 84/84
f 76/76 84/84 81/81
f 83/83 85/85 86/86
f 83/83 86/86 84/84
f 86/86 85/85 87/87
f 85/85 88/88 89/89
f 85/85 89/89 87/87
f 88/88 90/90 91/91
f 88/88 91/91 89/89
f 88/88 92/92 93/93
f 88/88 93/93 90/90
f 93/93 92/92 94/94
f 92/92 95/95 96/96
f 92/92 96/96 97/97
f 92/92 97/97 94/94
f 96/96 95/95 98/98
f 95/95 99/99 100/100
f 95/95 100/100 101/101
f 95/95 101/101 98/98
f 100/100 99/99 102/102
f 99/99 103/103 104/104
f 99/99 104/104 105/105
f 99/99 105/105 102/102
f 104/104 103/103 106/106
f 103/103 107/107 108/108
f 103/103 108/108 109/109
f 103/103 109/109 106/106
f 108/108 107/107 110/110
f 107/107 111/111 112/112
f 107/107 112/112 110/110
f 112/112 111/111 113/113
f 111/111 114/114 115/115
f 111/111 115/115 116/116
f 111/111 116/116 113/113
f 115/115 114/114 117/117
f 117/117 114/114 118/118
f 119/119 120/120 121/121
f 119/119 121/121 122/122
f 123/123 124/124 125/125
f 123/123 125/125 126/126
f 127/127 125/125 124/124
f 128/128 129/129 130/130
f 130/130 129/129 131/131
f 132/132 133/133 134/134
f 133/133 129/129 128/128
f 133/133 128/128 135/135
f 133/133 135/135 134/134
f 136/136 121/121 120/120
f 136/136 120/120 137/137
f 136/136 137/137 138/138
f 138/138 133/133 132/132
f 138/138 132/132 139/139
f 138/138 139/139 136/136
f 138/138 137/137 140/140
f 138/138 140/140 141/141
f 142/142 143/143 144/144
f 143/143 145/145 146/146
f 143/143 146/146 144/144
f 129/129 147/147 148/148
f 129/129 148/148 149/149
f 129/129 149/149 131/131
f 147/147 143/143 142/142
f 147/147 142/142 148/148
f 133/133 150/150 129/129
f 150/150 147/147 129/129
f 138/138 151/151 133/133
f 151/151 150/150 133/133
f 152/152 138/138 141/141
f 152/152 141/141 153/153
f 151/151 138/138 152/152
f 151/151 152/152 154/154
f 155/155 156/156 157/157
f 155/155 157/157 158/158
f 156/156 155/155 159/159
f 160/160 161/161 162/162
f 161/161 155/155 158/158
f 161/161 158/158 162/162
f 143/143 163/163 164/164
f 143/143 164/164 145/145
f 163/163 161/161 160/160
f 163/163 160/160 164/164
f 147/147 165/165 143/143
f 165/165 163/163 143/143
f 150/150 166/166 147/147
f 166/166 165/165 147/147
f 151/151 167/167 150/150
f 167/167 166/166 150/150
f 168/168 151/151 154/154
f 168/168 154/154 169/169
f 168/168 167/167 151/151
f 168/168 169/169 170/170
f 168/168 170/170 171/171
f 172/172 173/173 174/174
f 174/174 173/173 175/175
f 174/174 175/175 176/176
f 155/155 177/177 178/178
f 155/155 178/178 159/159
f 177/177 173/173 172/172
f 177/177 172/172 179/179
f 177/177 179/179 178/178
f 161/161 180/180 155/155
f 180/180 177/177 155/155
f 163/163 181/181 161/161
f 181/181 180/180 161/161
f 165/165 182/182 163/163
f 182/182 181/181 163/163
f 166/166 183/183 165/165
f 183/183 182/182 165/165
f 167/167 184/184 166/166
f 184/184 183/183 166/166
f 167/167 168/168 185/185
f 167/167 185/185 186/186
f 184/184 167/167 186/186
f 184/184 186/186 187/187
f 188/188 168/168 171/171
f 185/185 168/168 188/188
f 185/185 188/188 189/189
f 185/185 189/189 190/190
f 173/173 191/191 192/192
f 173/173 192/192 175/175
f 192/192 191/191 193/193
f 192/192 193/193 194/194
f 177/177 195/195 173/173
f 195/195 191/191 173/173
f 180/180 196/196 177/177
f 196/196 195/195 177/177
f 181/181 197/197 180/180
f 197/197 196/196 180/180
f 182/182 198/198 181/181
f 198/198 197/197 181/181
f 183/183 199/199 182/182
f 199/199 198/198 182/182
f 183/183 184/184 200/200
f 183/183 200/200 201/201
f 199/199 183/183 201/201
f 199/199 201/201 202/202
f 199/199 202/202 203/203
f 204/204 184/184 187/187
f 200/200 184/184 204/204
f 191/191 205/205 206/206
f 191/191 206/206 193/193
f 206/206 205/205 207/207
f 206/206 207/207 208/208
f 195/195 209/209 191/191
f 209/209 205/205 191/191
f 196/196 210/210 195/195
f 210/210 209/209 195/195
f 197/197 211/211 196/196
f 211/211 210/210 196/196
f 197/197 198/198 212/212
f 197/197 212/212 213/213
f 197/197 213/213 214/214
f 211/211 197/197 214/214
f 211/211 214/214 215/215
f 198/198 199/199 216/216
f 198/198 216/216 217/217
f 198/198 217/217 218/218
f 212/212 198/198 218/218
f 219/219 199/199 203/203
f 216/216 199/199 219/219
f 205/205 220/220 221/221
f 205/205 221/221 222/222
f 205/205 222/222 207/207
f 220/220 223/223 224/224
f 220/220 224/224 221/221
f 209/209 225/225 205/205
f 225/225 220/220 205/205
f 210/210 226/226 209/209
f 226/226 225/225 209/209
f 211/211 227/227 210/210
f 227/227 226/226 210/210
f 211/211 215/215 228/228
f 211/211 228/228 229/229
f 227/227 211/211 229/229
f 227/227 229/229 230/230
f 227/227 230/230 231/231
f 220/220 232/232 233/233
f 220/220 233/233 223/223
f 233/233 232/232 234/234
f 225/225 235/235 220/220
f 235/235 232/232 220/220
f 226/226 236/236 225/225
f 236/236 235/235 225/225
f 227/227 237/237 226/226
f 237/237 236/236 226/226
f 238/238 227/227 231/231
f 237/237 227/227 238/238
f 237/237 238/238 239/239
f 232/232 240/240 241/241
f 232/232 241/241 234/234
f 241/241 240/240 242/242
f 235/235 243/243 232/232
f 243/243 240/240 232/232
f 236/236 244/244 235/235
f 244/244 243/243 235/235
f 237/237 245/245 236/236
f 245/245 244/244 236/236
f 237/237 239/239 246/246
f 237/237 246/246 247/247
f 245/245 237/237 247/247
f 245/245 247/247 248/248
f 240/240 249/249 250/250
f 240/240 250/250 242/242
f 249/249 251/251 252/252
f 249/249 252/252 250/250
f 243/243 253/253 240/240
f 253/253 249/249 240/240
f 244/244 254/254 243/243
f 254/254 253/253 243/243
f 245/245 255/255 244/244
f 255/255 254/254 244/244
f 256/256 245/245 248/248
f 255/255 245/245 256/256
f 255/255 256/256 257/257
f 249/249 258/258 259/259
f 249/249 259/259 251/251
f 259/259 258/258 260/260
f 259/259 260/260 261/261
f 259/259 261/261 262/262
f 253/253 263/263 249/249
f 263/263 258/258 249/249
f 254/254 264/264 253/253
f 264/264 263/263 253/253
f 255/255 265/265 254/254
f 265/265 264/264 254/254
f 255/255 257/257 266/266
f 255/255 266/266 267/267
f 265/265 255/255 267/267
f 265/265 267/267 268/268
f 258/258 269/269 270/270
f 258/258 270/270 260/260
f 269/269 271/271 272/272
f 269/269 272/272 270/270
f 263/263 273/273 258/258
f 273/273 269/269 258/258
f 264/264 274/274 263/263
f 274/274 273/273 263/263
f 265/265 275/275 264/264
f 275/275 274/274 264/264
f 276/276 265/265 268/268
f 275/275 265/265 276/276
f 275/275 276/276 277/277
f 269/269 278/278 279/279
f 269/269 279/279 271/271
f 278/278 280/280 281/281
f 278/278 281/281 279/279
f 273/273 282/282 269/269
f 282/282 278/278 269/269
f 274/274 283/283 273/273
f 283/283 282/282 273/273
f 275/275 284/284 274/274
f 284/284 283/283 274/274
f 285/285 275/275 277/277
f 284/284 275/275 285/285
f 284/284 285/285 286/286
f 278/278 287/287 288/288
f 278/278 288/288 289/289
f 278/278 289/289 280/280
f 288/288 287/287 290/290
f 282/282 291/291 278/278
f 291/291 287/287 278/278
f 283/283 292/292 282/282
f 292/292 291/291 282/282
f 284/284 293/293 283/283
f 293/293 292/292 283/283
f 284/284 286/286 294/294
f 284/284 294/294 295/295
f 293/293 284/284 295/295
f 293/293 295/295 296/296
f 287/287 297/297 298/298
f 287/287 298/298 299/299
f 287/287 299/299 300/300
f 287/287 300/300 290/290
f 298/298 297/297 301/301
f 291/291 302/302 287/287
f 302/302 297/297 287/287
f 292/292 303/303 291/291
f 303/303 302/302 291/291
f 293/293 304/304 292/292
f 304/304 303/303 292/292
f 305/305 293/293 296/296
f 305/305 296/296 306/306
f 305/305 306/306 307/307
f 305/305 304/304 293/293
f 308/308 305/305 307/307
f 297/297 309/309 310/310
f 297/297 310/310 311/311
f 297/297 311/311 301/301
f 310/310 309/309 312/312
f 302/302 313/313 297/297
f 313/313 309/309 297/297
f 303/303 314/314 302/302
f 314/314 313/313 302/302
f 304/304 315/315 303/303
f 315/315 314/314 303/303
f 305/305 316/316 304/304
f 316/316 315/315 304/304
f 317/317 305/305 308/308
f 318/318 319/319 320/320
f 316/316 305/305 317/317
f 316/316 317/317 321/321
f 316/316 321/321 320/320
f 316/316 320/320 319/319
f 322/322 323/323 324/324
f 323/323 319/319 318/318
f 323/323 318/318 325/325
f 323/323 325/325 324/324
f 326/326 327/327 328/328
f 326/326 328/328 329/329
f 326/326 323/323 322/322
f 326/326 322/322 327/327
f 330/330 331/331 332/332
f 331/331 326/326 329/329
f 331/331 329/329 332/332
f 333/333 331/331 330/330
f 333/333 330/330 334/334
f 312/312 309/309 335/335
f 313/313 336/336 309/309
f 309/309 336/336 337/337
f 309/309 337/337 338/338
f 309/309 338/338 335/335
f 314/314 339/339 313/313
f 339/339 336/336 313/313
f 315/315 340/340 314/314
f 340/340 339/339 314/314
f 316/316 341/341 315/315
f 341/341 340/340 315/315
f 319/319 342/342 316/316
f 342/342 341/341 316/316
f 323/323 343/343 319/319
f 343/343 342/342 319/319
f 326/326 344/344 323/323
f 344/344 343/343 323/323
f 331/331 345/345 326/326
f 345/345 344/344 326/326
f 346/346 331/331 333/333
f 345/345 331/331 346/346
f 345/345 346/346 347/347
f 345/345 347/347 348/348
f 336/336 349/349 350/350
f 336/336 350/350 337/337
f 349/349 351/351 352/352
f 349/349 352/352 350/350
f 339/339 353/353 336/336
f 353/353 349/349 336/336
f 340/340 354/354 339/339
f 354/354 353/353 339/339
f 341/341 355/355 340/340
f 355/355 354/354 340/340
f 342/342 356/356 341/341
f 356/356 355/355 341/341
f 343/343 357/357 342/342
f 357/357 356/356 342/342
f 344/344 358/358 343/343
f 358/358 357/357 343/343
f 345/345 359/359 344/344
f 359/359 358/358 344/344
f 360/360 345/345 348/348
f 359/359 345/345 360/360
f 359/359 360/360 361/361
f 359/359 361/361 362/362
f 349/349 363/363 364/364
f 349/349 364/364 351/351
f 363/363 365/365 366/366
f 363/363 366/366 364/364
f 353/353 367/367 349/349
f 367/367 363/363 349/349
f 354/354 368/368 353/353
f 368/368 367/367 353/353
f 355/355 369/369 354/354
f 369/369 368/368 354/354
f 356/356 370/370 355/355
f 370/370 369/369 355/355
f 357/357 371/371 356/356
f 371/371 370/370 356/356
f 358/358 372/372 357/357
f 372/372 371/371 357/357
f 359/359 373/373 358/358
f 373/373 372/372 358/358
f 374/374 359/359 362/362
f 373/373 359/359 374/374
f 373/373 374/374 375/375
f 363/363 376/376 377/377
f 363/363 377/377 365/365
f 377/377 376/376 378/378
f 367/367 379/379 363/363
f 379/379 376/376 363/363
f 368/368 380/380 367/367
f 380/380 379/379 367/367
f 369/369 381/381 368/368
f 381/381 380/380 368/368
f 369/369 370/370 382/382
f 369/369 382/382 383/383
f 369/369 383/383 384/384
f 369/369 384/384 385/385
f 369/369 385/385 386/386
f 369/369 386/386 381/381
f 370/370 371/371 387/387
f 370/370 387/387 388/388
f 370/370 388/388 389/389
f 382/382 370/370 389/389
f 371/371 372/372 390/390
f 371/371 390/390 391/391
f 371/371 391/391 392/392
f 387/387 371/371 392/392
f 372/372 373/373 393/393
f 372/372 393/393 394/394
f 372/372 394/394 395/395
f 390/390 372/372 395/395
f 396/396 373/373 375/375
f 393/393 373/373 396/396
f 393/393 396/396 397/397
f 376/376 398/398 399/399
f 376/376 399/399 378/378
f 398/398 400/400 401/401
f 398/398 401/401 399/399
f 379/379 402/402 376/376
f 402/402 398/398 376/376
f 380/380 403/403 379/379
f 403/403 402/402 379/379
f 381/381 404/404 380/380
f 404/404 403/403 380/380
f 405/405 381/381 386/386
f 404/404 381/381 405/405
f 404/404 405/405 406/406
f 404/404 406/406 407/407
f 404/404 407/407 408/408
f 398/398 409/409 410/410
f 398/398 410/410 411/411
f 398/398 411/411 400/400
f 409/409 412/412 413/413
f 409/409 413/413 410/410
f 402/402 414/414 398/398
f 414/414 409/409 398/398
f 403/403 415/415 402/402
f 415/415 414/414 402/402
f 404/404 416/416 403/403
f 416/416 415/415 403/403
f 417/417 404/404 408/408
f 416/416 404/404 417/417
f 416/416 417/417 418/418
f 416/416 418/418 419/419
f 409/409 420/420 421/421
f 409/409 421/421 412/412
f 421/421 420/420 422/422
f 414/414 423/423 409/409
f 423/423 420/420 409/409
f 415/415 424/424 414/414
f 424/424 423/423 414/414
f 416/416 425/425 415/415
f 425/425 424/424 415/415
f 426/426 416/416 419/419
f 425/425 416/416 426/426
f 425/425 426/426 427/427
f 425/425 427/427 428/428
f 420/420 429/429 430/430
f 420/420 430/430 422/422
f 429/429 431/431 432/432
f 429/429 432/432 430/430
f 423/423 433/433 420/420
f 433/433 429/429 420/420
f 424/424 434/434 423/423
f 434/434 433/433 423/423
f 425/425 435/435 424/424
f 435/435 434/434 424/424
f 436/436 425/425 428/428
f 437/437 438/438 439/439
f 437/437 439/439 440/440
f 435/435 425/425 436/436
f 435/435 436/436 441/441
f 435/435 441/441 438/438
f 435/435 438/438 437/437
f 437/437 440/440 442/442
f 437/437 442/442 443/443
f 429/429 444/444 445/445
f 429/429 445/445 431/431
f 445/445 444/444 446/446
f 445/445 446/446 447/447
f 433/433 448/448 429/429
f 448/448 444/444 429/429
f 434/434 449/449 433/433
f 449/449 448/448 433/433
f 435/435 450/450 434/434
f 450/450 449/449 434/434
f 437/437 451/451 435/435
f 451/451 450/450 435/435
f 452/452 437/437 443/443
f 452/452 443/443 453/453
f 452/452 453/453 454/454
f 452/452 451/451 437/437
f 455/455 456/456 457/457
f 455/455 457/457 458/458
f 455/455 452/452 454/454
f 455/455 454/454 456/456
f 459/459 460/460 461/461
f 460/460 455/455 458/458
f 460/460 458/458 461/461
f 462/462 460/460 459/459
f 462/462 459/459 463/463
f 444/444 464/464 465/465
f 444/444 465/465 446/446
f 465/465 464/464 466/466
f 465/465 466/466 467/467
f 448/448 468/468 444/444
f 468/468 464/464 444/444
f 449/449 469/469 448/448
f 469/469 468/468 448/448
f 450/450 470/470 449/449
f 470/470 469/469 449/449
f 451/451 471/471 450/450
f 471/471 470/470 450/450
f 452/452 472/472 451/451
f 472/472 471/471 451/451
f 455/455 473/473 452/452
f 473/473 472/472 452/452
f 455/455 460/460 474/474
f 455/455 474/474 475/475
f 473/473 455/455 475/475
f 473/473 475/475 476/476
f 477/477 460/460 462/462
f 460/460 477/477 478/478
f 460/460 478/478 474/474
f 466/466 464/464 479/479
f 466/466 479/479 480/480
f 464/464 468/468 481/481
f 464/464 481/481 482/482
f 479/479 464/464 482/482
f 479/479 482/482 483/483
f 469/469 484/484 468/468
f 468/468 484/484 485/485
f 468/468 485/485 481/481
f 470/470 486/486 469/469
f 486/486 484/484 469/469
f 471/471 487/487 470/470
f 487/487 486/486 470/470
f 472/472 488/488 471/471
f 488/488 487/487 471/471
f 473/473 489/489 472/472
f 489/489 488/488 472/472
f 490/490 473/473 476/476
f 489/489 473/473 490/490
f 489/489 490/490 491/491
f 489/489 491/491 492/492
f 484/484 493/493 494/494
f 484/484 494/494 495/495
f 484/484 495/495 485/485
f 484/484 486/486 496/496
f 484/484 496/496 497/497
f 484/484 497/497 498/498
f 493/493 484/484 498/498
f 493/493 498/498 499/499
f 487/487 500/500 486/486
f 486/486 500/500 501/501
f 486/486 501/501 496/496
f 488/488 502/502 487/487
f 502/502 500/500 487/487
f 489/489 503/503 488/488
f 503/503 502/502 488/488
f 489/489 492/492 504/504
f 489/489 504/504 505/505
f 503/503 489/489 505/505
f 503/503 505/505 506/506
f 503/503 506/506 507/507
f 500/500 508/508 509/509
f 500/500 509/509 501/501
f 500/500 502/502 510/510
f 500/500 510/510 511/511
f 500/500 511/511 512/512
f 508/508 500/500 512/512
f 502/502 503/503 513/513
f 502/502 513/513 514/514
f 502/502 514/514 515/515
f 502/502 515/515 510/510
f 516/516 503/503 507/507
f 513/513 503/503 516/516
f 513/513 516/516 517/517
f 513/513 517/517 518/518
