# OSM contributors ODbL; elevations USGS 3DEP
# Centimeters, Z up. Explicit orientation verification required on import.
o Park_Asphalt_5_18
v 6522.478658 20230.566163 -740.936396
v 6522.478658 20235.303511 -741.010417
v 6518.884310 20231.709163 -740.589204
v 6507.581302 20235.303511 -739.264633
v 6589.145325 20229.320994 -739.544749
v 6589.145325 20235.303511 -739.708333
v 6582.606940 20228.765126 -739.733874
v 6539.631621 20225.111534 -740.516148
v 6604.814505 20235.303511 -738.300555
v 6594.060566 20229.738868 -739.114571
v 6455.811991 20268.450964 -733.068434
v 6455.811991 20301.970177 -732.937500
v 6440.669019 20286.827205 -729.092605
v 6445.815932 20276.880547 -730.458397
v 6432.833264 20301.970177 -727.192818
v 6522.478658 20301.970177 -741.791667
v 6473.794751 20253.286270 -735.516007
v 6487.575028 20241.665490 -736.994702
v 6589.145325 20301.970177 -741.010417
v 6655.811991 20301.970177 -735.020833
v 6642.575551 20254.843023 -735.289593
v 6655.811991 20270.539201 -734.406947
v 6679.497646 20301.970177 -731.875082
v 6677.790608 20296.602119 -731.996953
v 6455.811991 20368.636844 -731.114583
v 6420.073884 20332.898737 -723.157270
v 6420.711777 20325.395532 -723.521909
v 6417.035571 20368.636844 -721.420478
v 6522.478658 20368.636844 -741.791667
v 6589.145325 20368.636844 -741.531250
v 6655.811991 20368.636844 -735.541667
v 6690.541651 20336.699837 -731.493602
v 6694.344564 20348.658712 -731.171087
v 6696.582160 20368.636844 -731.082429
v 6455.811991 20435.303511 -729.291667
v 6418.071162 20397.562681 -720.888435
v 6416.084443 20379.824477 -720.876784
v 6422.298221 20435.303511 -722.091442
v 6522.478658 20435.303511 -741.010417
v 6589.145325 20435.303511 -741.791667
v 6655.811991 20435.303511 -736.322917
v 6701.384770 20411.516423 -732.064629
v 6701.724461 20414.549314 -732.134101
v 6704.048978 20435.303511 -732.177551
v 6455.811991 20501.970177 -729.812500
v 6426.479762 20472.637948 -723.281496
v 6423.124649 20442.682189 -722.326641
v 6429.765039 20501.970177 -724.725205
v 6522.478658 20501.970177 -741.531250
v 6589.145325 20501.970177 -743.093750
v 6655.811991 20501.970177 -738.666667
v 6710.133061 20489.624581 -734.201000
v 6711.515796 20501.970177 -734.532400
v 6455.811991 20568.636844 -730.072917
v 6434.888363 20547.713215 -725.904538
v 6430.164856 20505.539900 -724.817238
v 6437.231857 20568.636844 -726.226248
v 6522.478658 20568.636844 -742.312500
v 6589.145325 20568.636844 -744.395833
v 6655.811991 20568.636844 -741.531250
v 6715.465183 20537.231846 -736.580876
v 6718.541662 20564.699848 -738.176591
v 6718.982614 20568.636844 -738.323367
v 6455.811991 20635.303511 -729.812500
v 6443.296963 20622.788482 -727.270385
v 6444.698675 20635.303511 -727.381462
v 6522.478658 20635.303511 -742.312500
v 6589.145325 20635.303511 -745.177083
v 6655.811991 20635.303511 -742.833333
v 6722.478658 20635.303511 -740.229167
v 6722.478658 20599.850887 -739.121272
v 6722.505390 20600.089557 -739.127478
v 6726.449432 20635.303511 -740.043037
v 6455.811991 20701.970177 -729.812500
v 6451.705564 20697.863750 -728.914219
v 6451.285475 20694.113034 -728.822325
v 6452.165493 20701.970177 -728.972096
v 6522.478658 20701.970177 -742.312500
v 6589.145325 20701.970177 -745.437500
v 6655.811991 20701.970177 -744.135417
v 6722.478658 20701.970177 -742.833333
v 6726.950262 20639.775115 -740.264101
v 6729.545596 20662.947268 -741.088159
v 6733.916250 20701.970177 -742.475909
v 6455.811991 20734.527541 -728.795082
v 6522.478658 20768.636844 -741.270833
v 6459.632311 20768.636844 -728.505169
v 6589.145325 20768.636844 -745.697917
v 6655.811991 20768.636844 -745.177083
v 6722.478658 20768.636844 -744.135417
v 6735.358863 20714.850382 -742.732707
v 6741.383069 20768.636844 -743.618499
v 6522.478658 20835.303511 -740.229167
v 6460.114164 20772.939017 -728.535824
v 6467.099129 20835.303511 -729.412852
v 6589.145325 20835.303511 -745.437500
v 6655.811991 20835.303511 -745.437500
v 6722.478658 20835.303511 -744.395833
v 6743.767463 20789.925649 -744.052257
v 6748.849887 20835.303511 -744.189808
v 6522.478658 20901.970177 -738.145833
v 6468.522764 20848.014284 -729.293695
v 6474.565947 20901.970177 -729.723677
v 6589.145325 20901.970177 -744.916667
v 6655.811991 20901.970177 -745.437500
v 6722.478658 20901.970177 -745.437500
v 6750.666215 20851.520402 -744.619049
v 6752.176063 20865.000916 -744.975861
v 6756.316705 20901.970177 -745.569680
v 6522.478658 20968.636844 -734.760417
v 6476.931365 20923.089551 -729.067005
v 6482.032765 20968.636844 -728.124762
v 6479.446300 20945.543879 -728.602489
v 6589.145325 20968.636844 -743.875000
v 6655.811991 20968.636844 -745.697917
v 6722.478658 20968.636844 -746.218750
v 6760.584664 20940.076183 -746.628313
v 6763.783523 20968.636844 -747.025486
v 6522.478658 21035.303511 -732.416667
v 6485.339965 20998.164818 -727.629257
v 6489.499583 21035.303511 -726.233090
v 6589.145325 21035.303511 -743.093750
v 6655.811991 21035.303511 -745.437500
v 6722.478658 21035.303511 -746.739583
v 6768.993264 21015.151450 -748.035727
v 6771.250341 21035.303511 -748.263698
v 6522.478658 21101.970177 -729.291667
v 6493.748565 21073.240085 -725.251497
v 6493.526713 21071.259301 -725.302749
v 6496.966401 21101.970177 -724.308804
v 6589.145325 21101.970177 -742.052083
v 6655.811991 21101.970177 -745.177083
v 6722.478658 21101.970177 -746.739583
v 6771.786834 21040.093536 -748.280464
v 6777.401865 21090.226717 -748.455934
v 6778.717159 21101.970177 -748.497036
v 6522.478658 21168.636844 -730.593750
v 6502.157166 21148.315352 -726.227804
v 6500.566920 21134.117013 -725.639898
v 6504.433219 21168.636844 -727.280720
v 6589.145325 21168.636844 -742.052083
v 6655.811991 21168.636844 -745.697917
v 6722.478658 21168.636844 -746.739583
v 6785.810465 21165.301984 -748.718702
v 6785.867247 21165.808958 -748.720477
v 6786.183977 21168.636844 -748.730375
v 6522.478658 21235.303511 -731.895833
v 6510.565766 21223.390619 -729.476027
v 6507.607126 21196.974724 -728.416904
v 6511.900037 21235.303511 -730.366892
v 6589.145325 21235.303511 -740.750000
v 6655.811991 21235.303511 -744.916667
v 6722.478658 21235.303511 -745.697917
v 6789.145325 21235.303511 -745.958333
v 6789.145325 21195.076913 -747.686820
v 6792.907454 21228.666670 -746.243510
v 6793.650795 21235.303511 -745.958333
v 6522.478658 21301.970177 -730.593750
v 6518.974367 21298.465886 -730.155714
v 6514.647332 21259.832435 -730.284882
v 6519.366855 21301.970177 -730.241241
v 6589.145325 21301.970177 -737.885417
v 6655.811991 21301.970177 -743.614583
v 6722.478658 21301.970177 -744.916667
v 6789.145325 21301.970177 -744.135417
v 6794.219065 21240.377251 -745.819598
v 6799.947660 21291.524381 -744.421044
v 6801.117613 21301.970177 -744.135417
v 6522.478658 21329.753567 -730.485221
v 6521.687539 21322.690146 -730.423194
v 6522.478658 21362.131507 -730.358745
v 6522.478658 21368.636844 -730.333333
v 6520.811513 21366.969699 -730.150989
v 6520.237049 21368.636844 -730.105670
v 6589.145325 21368.636844 -737.364583
v 6525.215483 21354.189012 -730.678420
v 6655.811991 21368.636844 -743.614583
v 6722.478658 21368.636844 -744.916667
v 6789.145325 21368.636844 -743.875000
v 6802.390962 21313.339133 -744.046597
v 6808.065506 21320.281353 -743.992361
v 6810.791621 21323.616474 -743.966305
v 6839.877460 21359.200001 -743.713690
v 6844.897746 21368.636844 -743.657217
v 6522.478658 21435.303511 -730.593750
v 6503.726623 21416.551476 -728.615996
v 6514.542936 21385.161633 -729.591912
v 6497.265046 21435.303511 -728.328465
v 6589.145325 21435.303511 -737.885417
v 6655.811991 21435.303511 -743.614583
v 6722.478658 21435.303511 -744.916667
v 6789.145325 21435.303511 -744.135417
v 6855.811991 21435.303511 -742.572917
v 6855.811991 21389.152814 -743.294021
v 6868.223379 21435.303511 -742.282025
v 6865.532946 21407.425703 -742.780673
v 6522.478658 21501.970177 -729.812500
v 6486.641733 21466.133252 -727.012740
v 6493.590379 21445.967702 -727.873348
v 6474.293044 21501.970177 -725.859774
v 6589.145325 21501.970177 -737.885417
v 6655.811991 21501.970177 -743.093750
v 6722.478658 21501.970177 -744.135417
v 6789.145325 21501.970177 -743.614583
v 6855.811991 21501.970177 -742.052083
v 6869.549123 21449.040642 -741.875328
v 6870.780346 21461.798372 -741.722754
v 6858.508124 21501.970177 -741.936234
v 6455.811991 21555.603732 -724.343750
v 6455.811991 21568.636844 -724.343750
v 6452.471952 21565.296805 -724.226327
v 6451.321041 21568.636844 -724.203408
v 6451.685263 21567.579840 -724.210661
v 6522.478658 21568.636844 -729.812500
v 6469.556842 21515.715028 -725.471257
v 6472.637821 21506.773771 -725.723994
v 6589.145325 21568.636844 -737.885417
v 6655.811991 21568.636844 -742.833333
v 6722.478658 21568.636844 -743.614583
v 6789.145325 21568.636844 -743.354167
v 6855.811991 21510.795679 -742.017609
v 6854.820793 21514.040261 -742.028166
v 6830.604777 21543.429629 -742.480926
v 6820.083983 21556.198017 -742.677631
v 6796.702192 21568.636844 -743.177053
v 6857.877213 21504.035399 -741.955276
v 6455.811991 21635.303511 -724.604167
v 6435.387061 21614.878581 -723.886103
v 6426.068632 21635.303511 -723.674687
v 6433.624244 21619.994424 -723.850998
v 6522.478658 21635.303511 -730.333333
v 6589.145325 21635.303511 -737.885417
v 6655.811991 21635.303511 -742.312500
v 6722.478658 21635.303511 -743.614583
v 6789.145325 21572.657005 -743.338463
v 6771.858280 21581.853502 -743.370067
v 6741.928341 21584.741983 -743.475697
v 6741.071223 21587.229409 -743.469329
v 6737.362445 21597.992593 -743.498304
v 6724.505847 21635.303511 -743.598746
v 6791.769472 21571.260991 -743.292663
v 6455.811991 21701.970177 -724.864583
v 6413.867370 21660.025556 -723.389968
v 6393.166117 21701.970177 -722.662189
v 6411.165316 21665.500425 -723.294974
v 6522.478658 21701.970177 -730.854167
v 6589.145325 21701.970177 -738.145833
v 6655.811991 21701.970177 -741.791667
v 6722.478658 21641.186584 -743.568622
v 6716.409887 21658.798662 -743.312497
v 6706.901442 21686.392962 -742.911205
v 6701.533845 21701.970177 -742.684672
v 6723.986333 21636.811186 -743.602805
v 6389.145325 21710.117057 -722.457186
v 6389.145325 21768.636844 -722.000000
v 6369.807532 21749.299051 -722.830921
v 6360.263602 21768.636844 -722.000000
v 6455.811991 21768.636844 -724.343750
v 6391.837451 21704.662304 -722.594446
v 6522.478658 21768.636844 -729.812500
v 6589.145325 21768.636844 -736.843750
v 6655.811991 21768.636844 -741.531250
v 6688.978934 21735.137120 -742.439459
v 6695.457330 21719.604731 -742.565990
v 6688.637659 21735.955350 -742.428264
v 6672.508108 21768.636844 -741.922565
v 6389.145325 21835.303511 -722.000000
v 6347.777613 21793.935799 -722.000000
v 6358.391194 21772.430693 -722.000000
v 6327.361087 21835.303511 -721.758655
v 6455.811991 21835.303511 -724.343750
v 6522.478658 21835.303511 -729.031250
v 6589.145325 21835.303511 -735.802083
v 6655.811991 21802.466309 -741.663396
v 6644.960978 21824.452497 -740.986318
v 6639.605593 21835.303511 -740.335623
v 6666.990897 21779.815750 -741.880591
v 6322.478658 21901.970177 -722.520833
v 6303.717775 21883.209295 -725.159082
v 6305.617073 21879.360962 -724.824639
v 6322.478658 21845.196227 -721.855514
v 6294.458572 21901.970177 -725.585530
v 6389.145325 21901.970177 -722.520833
v 6325.747694 21838.572547 -721.777892
v 6455.811991 21901.970177 -724.604167
v 6522.478658 21901.970177 -728.510417
v 6589.145325 21901.970177 -736.062500
v 6635.863537 21842.885618 -740.088276
v 6622.931059 21869.089245 -739.233447
v 6609.476476 21896.350753 -738.026013
v 6606.703078 21901.970177 -737.777124
v 6322.478658 21968.636844 -720.437500
v 6281.687856 21927.846042 -726.173707
v 6269.622440 21968.636844 -724.360422
v 6279.230012 21932.826096 -726.025418
v 6389.145325 21968.636844 -722.000000
v 6455.811991 21968.636844 -724.343750
v 6522.478658 21968.636844 -728.250000
v 6589.145325 21937.545479 -736.618364
v 6578.871221 21958.362740 -735.779770
v 6573.800563 21968.636844 -735.066191
v 6600.901140 21913.725993 -737.348292
v 6322.478658 22035.303511 -720.958333
v 6266.701044 21979.525897 -724.662315
v 6271.604827 22035.303511 -724.734125
v 6265.075299 21985.585611 -724.830318
v 6389.145325 22035.303511 -722.260417
v 6455.811991 22035.303511 -724.604167
v 6522.478658 22035.303511 -729.031250
v 6556.841302 22002.999488 -733.350705
v 6556.702355 22003.281021 -733.335007
v 6540.898048 22035.303511 -731.549526
v 6322.478658 22101.970177 -724.343750
v 6288.462238 22067.953757 -725.141010
v 6272.188243 22039.745821 -724.916411
v 6318.902867 22101.970177 -724.762788
v 6299.485961 22087.061325 -725.640502
v 6389.145325 22101.970177 -724.343750
v 6455.811991 22101.970177 -725.906250
v 6522.478658 22066.952389 -729.649392
v 6507.269234 22086.760753 -729.026273
v 6497.047853 22100.072818 -728.607511
v 6493.759133 22101.970177 -728.426177
v 6534.811383 22047.636236 -730.958238
v 6530.315294 22056.746155 -730.521467
v 6322.478658 22104.715771 -724.408100
v 6389.145325 22132.759246 -725.305908
v 6342.812623 22120.328767 -724.917456
v 6334.304366 22113.795885 -724.713303
v 6455.811991 22123.863009 -726.761439
v 6449.732349 22127.370536 -726.755960
v 6418.630355 22131.455208 -726.186564
v 6395.572138 22134.483479 -725.560629
v 6469.695193 22115.853379 -727.099338
v 7122.478658 24228.897290 -771.554240
v 7122.478658 24235.303511 -771.479167
v 7116.942350 24229.767203 -771.262905
v 7081.708117 24235.303511 -769.249528
v 7189.145325 24218.422047 -774.801996
v 7189.145325 24235.303511 -774.604167
v 7174.556226 24220.714412 -774.091269
v 7130.300477 24227.668258 -771.935290
v 7255.811991 24235.303511 -776.947917
v 7232.170102 24211.661621 -776.393810
v 7253.842572 24208.256255 -777.097679
v 7255.811991 24207.946803 -777.161641
v 7322.478658 24235.303511 -779.291667
v 7289.783977 24202.608830 -778.397671
v 7315.613620 24198.550253 -779.103951
v 7322.478658 24197.471559 -779.291667
v 7389.145325 24186.996315 -781.186300
v 7389.145325 24235.303511 -781.375000
v 7347.397853 24193.556039 -780.070392
v 7455.811991 24178.910360 -782.717214
v 7455.811991 24235.303511 -782.937500
v 7405.011729 24184.503248 -781.548430
v 7439.155715 24179.138249 -782.327723
v 7522.478658 24189.687887 -783.965442
v 7522.478658 24235.303511 -784.500000
v 7465.946843 24178.771695 -782.954208
v 7478.826543 24178.595476 -783.153388
v 7496.210668 24180.841575 -783.451337
v 7589.145325 24234.214136 -785.259973
v 7589.145325 24235.303511 -785.281250
v 7580.494950 24226.653136 -785.078507
v 7589.135183 24234.193695 -785.259534
v 7547.979124 24198.275718 -784.364914
v 7589.685809 24235.303511 -785.289695
v 6855.811991 24300.088309 -751.999374
v 6855.811991 24301.970177 -751.947917
v 6854.365779 24300.523965 -751.897073
v 6849.564902 24301.970177 -751.557474
v 6922.478658 24280.005691 -758.112118
v 6922.478658 24301.970177 -758.197917
v 6905.598990 24285.090510 -757.077001
v 6897.888431 24287.413233 -756.290624
v 6989.145325 24259.923074 -763.530514
v 6989.145325 24301.970177 -764.187500
v 6956.832202 24269.657055 -761.158145
v 6948.552196 24272.151318 -760.423981
v 7055.811991 24240.274583 -767.891588
v 7055.811991 24301.970177 -768.614583
v 7008.065414 24254.223600 -764.697872
v 7049.879726 24241.627488 -767.490330
v 6999.215961 24256.889403 -764.151866
v 7122.478658 24301.970177 -772.781250
v 7059.859902 24239.351421 -768.133764
v 7068.529430 24237.374260 -768.569263
v 7189.145325 24301.970177 -775.906250
v 7255.811991 24301.970177 -778.250000
v 7322.478658 24301.970177 -780.072917
v 7389.145325 24301.970177 -781.114583
v 7455.811991 24301.970177 -782.156250
v 7522.478658 24301.970177 -783.718750
v 7589.145325 24301.970177 -785.281250
v 7590.218017 24236.376203 -785.310581
v 7613.413209 24283.127322 -785.944825
v 7614.693801 24301.970177 -785.979841
v 6722.478658 24347.733638 -745.340390
v 6722.478658 24368.636844 -745.177083
v 6707.143055 24353.301241 -745.177083
v 6664.902135 24368.636844 -744.952175
v 6789.145325 24368.636844 -746.739583
v 6756.052945 24335.544464 -746.222515
v 6783.498986 24325.580155 -747.235896
v 6789.145325 24323.530247 -747.444374
v 6855.811991 24368.636844 -750.645833
v 6804.962834 24317.787687 -748.460909
v 6839.829780 24305.129212 -750.887329
v 6847.224667 24302.675148 -751.397440
v 6922.478658 24368.636844 -757.677083
v 6989.145325 24368.636844 -764.187500
v 7055.811991 24368.636844 -769.135417
v 7122.478658 24368.636844 -773.041667
v 7189.145325 24368.636844 -775.645833
v 7255.811991 24368.636844 -777.729167
v 7322.478658 24368.636844 -779.291667
v 7389.145325 24368.636844 -779.812500
v 7455.811991 24368.636844 -780.333333
v 7522.478658 24368.636844 -781.635417
v 7589.145325 24368.636844 -783.979167
v 7616.556727 24329.381579 -785.602477
v 7617.117092 24337.626896 -785.458947
v 7606.673824 24368.636844 -784.526932
v 6522.478658 24420.343810 -744.943338
v 6522.478658 24435.303511 -745.177083
v 6511.503498 24424.328351 -744.791238
v 6489.514514 24435.303511 -744.146954
v 6501.845019 24427.834870 -744.503108
v 6589.145325 24396.140419 -744.978558
v 6589.145325 24435.303511 -745.437500
v 6560.413388 24406.571574 -744.876329
v 6558.175813 24407.383927 -744.880282
v 6655.811991 24371.937028 -744.942449
v 6655.811991 24435.303511 -745.437500
v 6609.323277 24388.814796 -744.892710
v 6722.478658 24435.303511 -745.697917
v 6658.233166 24371.058019 -744.945040
v 6789.145325 24435.303511 -746.739583
v 6855.811991 24435.303511 -749.604167
v 6922.478658 24435.303511 -755.072917
v 6989.145325 24435.303511 -761.843750
v 7055.811991 24435.303511 -768.093750
v 7122.478658 24435.303511 -773.822917
v 7189.145325 24435.303511 -776.687500
v 7255.811991 24435.303511 -779.291667
v 7322.478658 24435.303511 -781.895833
v 7389.145325 24435.303511 -783.458333
v 7455.811991 24435.303511 -783.979167
v 7522.478658 24435.303511 -786.062500
v 7589.145325 24401.469726 -785.902968
v 7573.378133 24419.536319 -786.407242
v 7563.764972 24430.551411 -786.875854
v 7554.186867 24435.303511 -786.929521
v 7602.257887 24381.749406 -784.952365
v 7599.682950 24389.395352 -785.360136
v 6455.811991 24455.717276 -743.253233
v 6455.811991 24501.970177 -743.614583
v 6436.005055 24482.163241 -742.608762
v 6455.122213 24456.135077 -743.226858
v 6422.341754 24501.970177 -742.568638
v 6422.785989 24500.161103 -742.547187
v 6522.478658 24501.970177 -745.697917
v 6468.525269 24448.016788 -743.590362
v 6589.145325 24501.970177 -746.739583
v 6655.811991 24501.970177 -747.260417
v 6722.478658 24501.970177 -748.041667
v 6789.145325 24501.970177 -749.343750
v 6855.811991 24501.970177 -751.427083
v 6922.478658 24501.970177 -754.552083
v 6989.145325 24501.970177 -760.020833
v 7055.811991 24501.970177 -767.572917
v 7122.478658 24501.970177 -774.604167
v 7189.145325 24501.857489 -779.807218
v 7189.047939 24501.872791 -779.803750
v 7188.428153 24501.970177 -779.756471
v 7255.811991 24491.382245 -782.139415
v 7246.661814 24492.820000 -781.854997
v 7322.478658 24480.907001 -784.389774
v 7304.275690 24483.767209 -783.835138
v 7389.145325 24470.431758 -786.751606
v 7361.889566 24474.714418 -786.514299
v 7455.811991 24459.956514 -786.675589
v 7420.847428 24465.450449 -787.003327
v 7419.503441 24465.661627 -787.015925
v 7522.478658 24451.035284 -787.967519
v 7514.831346 24454.829437 -788.187989
v 7477.851153 24457.342673 -787.336695
v 7468.328086 24457.989877 -786.998289
v 7532.993551 24445.818404 -787.500083
v 6455.811991 24568.636844 -744.395833
v 6415.797150 24528.622003 -742.676446
v 6412.120781 24568.636844 -743.883827
v 6409.759244 24553.210384 -743.374076
v 6522.478658 24568.636844 -745.697917
v 6589.145325 24568.636844 -746.479167
v 6655.811991 24568.636844 -747.520833
v 6722.478658 24568.636844 -748.822917
v 6789.145325 24568.636844 -750.906250
v 6855.811991 24568.636844 -752.989583
v 6922.478658 24568.636844 -754.552083
v 6989.145325 24552.351553 -759.036822
v 6978.650600 24555.512976 -758.114180
v 6976.630108 24556.121627 -757.936549
v 6935.084339 24568.636844 -755.339938
v 7055.811991 24532.268935 -766.271017
v 7029.314365 24540.251061 -762.926351
v 7027.863320 24540.688172 -762.743192
v 7122.478658 24512.332733 -774.239858
v 7121.462665 24512.492375 -774.127090
v 7079.978130 24524.989145 -769.312428
v 7079.096531 24525.254717 -769.210111
v 7173.763238 24504.274456 -778.574770
v 7131.434063 24510.925582 -775.163879
v 6455.811991 24635.303511 -745.697917
v 6416.273686 24595.765206 -744.462345
v 6435.043574 24635.303511 -745.860170
v 6418.025183 24607.206649 -744.895592
v 6522.478658 24635.303511 -745.958333
v 6589.145325 24635.303511 -746.479167
v 6655.811991 24635.303511 -747.781250
v 6722.478658 24635.303511 -749.604167
v 6789.145325 24621.412077 -751.937016
v 6778.953898 24625.112084 -751.690800
v 6766.389342 24629.673656 -751.253453
v 6750.882274 24635.303511 -750.713683
v 6855.811991 24597.208686 -753.436018
v 6827.863787 24607.355306 -752.721178
v 6922.478658 24573.005296 -754.603276
v 6879.050929 24588.771770 -753.770202
v 6876.773676 24589.598529 -753.726518
v 6931.718436 24569.650786 -755.117687
v 6925.683565 24571.841751 -754.714833
v 6455.811991 24660.897172 -746.297768
v 6446.325390 24653.929455 -746.208576
v 6522.478658 24694.154822 -746.877885
v 6512.119520 24691.611040 -746.797673
v 6490.351416 24686.265679 -746.757423
v 6589.145325 24692.289675 -747.146973
v 6580.750007 24693.574860 -747.096446
v 6543.400697 24699.292424 -747.039887
v 6655.811991 24669.818859 -748.185727
v 6653.727755 24670.575542 -748.153886
v 6632.224230 24678.382416 -747.825382
v 6597.396962 24691.026485 -747.293335
v 6722.478658 24645.615468 -749.805572
v 6710.058548 24650.124599 -749.554029
v 6681.134119 24660.625638 -748.968225
v 6730.044008 24642.868861 -750.017897
vt 32.612393 101.152831
vt 32.612393 101.176518
vt 32.594422 101.158546
vt 32.537907 101.176518
vt 32.945727 101.146605
vt 32.945727 101.176518
vt 32.913035 101.143826
vt 32.698158 101.125558
vt 33.024073 101.176518
vt 32.970303 101.148694
vt 32.279060 101.342255
vt 32.279060 101.509851
vt 32.203345 101.434136
vt 32.229080 101.384403
vt 32.164166 101.509851
vt 32.612393 101.509851
vt 32.368974 101.266431
vt 32.437875 101.208327
vt 32.945727 101.509851
vt 33.279060 101.509851
vt 33.212878 101.274215
vt 33.279060 101.352696
vt 33.397488 101.509851
vt 33.388953 101.483011
vt 32.279060 101.843184
vt 32.100369 101.664494
vt 32.103559 101.626978
vt 32.085178 101.843184
vt 32.612393 101.843184
vt 32.945727 101.843184
vt 33.279060 101.843184
vt 33.452708 101.683499
vt 33.471723 101.743294
vt 33.482911 101.843184
vt 32.279060 102.176518
vt 32.090356 101.987813
vt 32.080422 101.899122
vt 32.111491 102.176518
vt 32.612393 102.176518
vt 32.945727 102.176518
vt 33.279060 102.176518
vt 33.506924 102.057582
vt 33.508622 102.072747
vt 33.520245 102.176518
vt 32.279060 102.509851
vt 32.132399 102.363190
vt 32.115623 102.213411
vt 32.148825 102.509851
vt 32.612393 102.509851
vt 32.945727 102.509851
vt 33.279060 102.509851
vt 33.550665 102.448123
vt 33.557579 102.509851
vt 32.279060 102.843184
vt 32.174442 102.738566
vt 32.150824 102.527699
vt 32.186159 102.843184
vt 32.612393 102.843184
vt 32.945727 102.843184
vt 33.279060 102.843184
vt 33.577326 102.686159
vt 33.592708 102.823499
vt 33.594913 102.843184
vt 32.279060 103.176518
vt 32.216485 103.113942
vt 32.223493 103.176518
vt 32.612393 103.176518
vt 32.945727 103.176518
vt 33.279060 103.176518
vt 33.612393 103.176518
vt 33.612393 102.999254
vt 33.612527 103.000448
vt 33.632247 103.176518
vt 32.279060 103.509851
vt 32.258528 103.489319
vt 32.256427 103.470565
vt 32.260827 103.509851
vt 32.612393 103.509851
vt 32.945727 103.509851
vt 33.279060 103.509851
vt 33.612393 103.509851
vt 33.634751 103.198876
vt 33.647728 103.314736
vt 33.669581 103.509851
vt 32.279060 103.672638
vt 32.612393 103.843184
vt 32.298162 103.843184
vt 32.945727 103.843184
vt 33.279060 103.843184
vt 33.612393 103.843184
vt 33.676794 103.574252
vt 33.706915 103.843184
vt 32.612393 104.176518
vt 32.300571 103.864695
vt 32.335496 104.176518
vt 32.945727 104.176518
vt 33.279060 104.176518
vt 33.612393 104.176518
vt 33.718837 103.949628
vt 33.744249 104.176518
vt 32.612393 104.509851
vt 32.342614 104.240071
vt 32.372830 104.509851
vt 32.945727 104.509851
vt 33.279060 104.509851
vt 33.612393 104.509851
vt 33.753331 104.257602
vt 33.760880 104.325005
vt 33.781584 104.509851
vt 32.612393 104.843184
vt 32.384657 104.615448
vt 32.410164 104.843184
vt 32.397232 104.727719
vt 32.945727 104.843184
vt 33.279060 104.843184
vt 33.612393 104.843184
vt 33.802923 104.700381
vt 33.818918 104.843184
vt 32.612393 105.176518
vt 32.426700 104.990824
vt 32.447498 105.176518
vt 32.945727 105.176518
vt 33.279060 105.176518
vt 33.612393 105.176518
vt 33.844966 105.075757
vt 33.856252 105.176518
vt 32.612393 105.509851
vt 32.468743 105.366200
vt 32.467634 105.356297
vt 32.484832 105.509851
vt 32.945727 105.509851
vt 33.279060 105.509851
vt 33.612393 105.509851
vt 33.858934 105.200468
vt 33.887009 105.451134
vt 33.893586 105.509851
vt 32.612393 105.843184
vt 32.510786 105.741577
vt 32.502835 105.670585
vt 32.522166 105.843184
vt 32.945727 105.843184
vt 33.279060 105.843184
vt 33.612393 105.843184
vt 33.929052 105.826510
vt 33.929336 105.829045
vt 33.930920 105.843184
vt 32.612393 106.176518
vt 32.552829 106.116953
vt 32.538036 105.984874
vt 32.559500 106.176518
vt 32.945727 106.176518
vt 33.279060 106.176518
vt 33.612393 106.176518
vt 33.945727 106.176518
vt 33.945727 105.975385
vt 33.964537 106.143333
vt 33.968254 106.176518
vt 32.612393 106.509851
vt 32.594872 106.492329
vt 32.573237 106.299162
vt 32.596834 106.509851
vt 32.945727 106.509851
vt 33.279060 106.509851
vt 33.612393 106.509851
vt 33.945727 106.509851
vt 33.971095 106.201886
vt 33.999738 106.457622
vt 34.005588 106.509851
vt 32.612393 106.648768
vt 32.608438 106.613451
vt 32.612393 106.810658
vt 32.612393 106.843184
vt 32.604058 106.834848
vt 32.601185 106.843184
vt 32.945727 106.843184
vt 32.626077 106.770945
vt 33.279060 106.843184
vt 33.612393 106.843184
vt 33.945727 106.843184
vt 34.011955 106.566696
vt 34.040328 106.601407
vt 34.053958 106.618082
vt 34.199387 106.796000
vt 34.224489 106.843184
vt 32.612393 107.176518
vt 32.518633 107.082757
vt 32.572715 106.925808
vt 32.486325 107.176518
vt 32.945727 107.176518
vt 33.279060 107.176518
vt 33.612393 107.176518
vt 33.945727 107.176518
vt 34.279060 107.176518
vt 34.279060 106.945764
vt 34.341117 107.176518
vt 34.327665 107.037129
vt 32.612393 107.509851
vt 32.433209 107.330666
vt 32.467952 107.229839
vt 32.371465 107.509851
vt 32.945727 107.509851
vt 33.279060 107.509851
vt 33.612393 107.509851
vt 33.945727 107.509851
vt 34.279060 107.509851
vt 34.347746 107.245203
vt 34.353902 107.308992
vt 34.292541 107.509851
vt 32.279060 107.778019
vt 32.279060 107.843184
vt 32.262360 107.826484
vt 32.256605 107.843184
vt 32.258426 107.837899
vt 32.612393 107.843184
vt 32.347784 107.578575
vt 32.363189 107.533869
vt 32.945727 107.843184
vt 33.279060 107.843184
vt 33.612393 107.843184
vt 33.945727 107.843184
vt 34.279060 107.553978
vt 34.274104 107.570201
vt 34.153024 107.717148
vt 34.100420 107.780990
vt 33.983511 107.843184
vt 34.289386 107.520177
vt 32.279060 108.176518
vt 32.176935 108.074393
vt 32.130343 108.176518
vt 32.168121 108.099972
vt 32.612393 108.176518
vt 32.945727 108.176518
vt 33.279060 108.176518
vt 33.612393 108.176518
vt 33.945727 107.863285
vt 33.859291 107.909268
vt 33.709642 107.923710
vt 33.705356 107.936147
vt 33.686812 107.989963
vt 33.622529 108.176518
vt 33.958847 107.856305
vt 32.279060 108.509851
vt 32.069337 108.300128
vt 31.965831 108.509851
vt 32.055827 108.327502
vt 32.612393 108.509851
vt 32.945727 108.509851
vt 33.279060 108.509851
vt 33.612393 108.205933
vt 33.582049 108.293993
vt 33.534507 108.431965
vt 33.507669 108.509851
vt 33.619932 108.184056
vt 31.945727 108.550585
vt 31.945727 108.843184
vt 31.849038 108.746495
vt 31.801318 108.843184
vt 32.279060 108.843184
vt 31.959187 108.523312
vt 32.612393 108.843184
vt 32.945727 108.843184
vt 33.279060 108.843184
vt 33.444895 108.675686
vt 33.477287 108.598024
vt 33.443188 108.679777
vt 33.362541 108.843184
vt 31.945727 109.176518
vt 31.738888 108.969679
vt 31.791956 108.862153
vt 31.636805 109.176518
vt 32.279060 109.176518
vt 32.612393 109.176518
vt 32.945727 109.176518
vt 33.279060 109.012332
vt 33.224805 109.122262
vt 33.198028 109.176518
vt 33.334954 108.899079
vt 31.612393 109.509851
vt 31.518589 109.416046
vt 31.528085 109.396805
vt 31.612393 109.225981
vt 31.472293 109.509851
vt 31.945727 109.509851
vt 31.628738 109.192863
vt 32.279060 109.509851
vt 32.612393 109.509851
vt 32.945727 109.509851
vt 33.179318 109.214428
vt 33.114655 109.345446
vt 33.047382 109.481754
vt 33.033515 109.509851
vt 31.612393 109.843184
vt 31.408439 109.639230
vt 31.348112 109.843184
vt 31.396150 109.664130
vt 31.945727 109.843184
vt 32.279060 109.843184
vt 32.612393 109.843184
vt 32.945727 109.687727
vt 32.894356 109.791814
vt 32.869003 109.843184
vt 33.004506 109.568630
vt 31.612393 110.176518
vt 31.333505 109.897629
vt 31.358024 110.176518
vt 31.325376 109.927928
vt 31.945727 110.176518
vt 32.279060 110.176518
vt 32.612393 110.176518
vt 32.784207 110.014997
vt 32.783512 110.016405
vt 32.704490 110.176518
vt 31.612393 110.509851
vt 31.442311 110.339769
vt 31.360941 110.198729
vt 31.594514 110.509851
vt 31.497430 110.435307
vt 31.945727 110.509851
vt 32.279060 110.509851
vt 32.612393 110.334762
vt 32.536346 110.433804
vt 32.485239 110.500364
vt 32.468796 110.509851
vt 32.674057 110.238181
vt 32.651576 110.283731
vt 31.612393 110.523579
vt 31.945727 110.663796
vt 31.714063 110.601644
vt 31.671522 110.568979
vt 32.279060 110.619315
vt 32.248662 110.636853
vt 32.093152 110.657276
vt 31.977861 110.672417
vt 32.348476 110.579267
vt 35.612393 121.144486
vt 35.612393 121.176518
vt 35.584712 121.148836
vt 35.408541 121.176518
vt 35.945727 121.092110
vt 35.945727 121.176518
vt 35.872781 121.103572
vt 35.651502 121.138341
vt 36.279060 121.176518
vt 36.160851 121.058308
vt 36.269213 121.041281
vt 36.279060 121.039734
vt 36.612393 121.176518
vt 36.448920 121.013044
vt 36.578068 120.992751
vt 36.612393 120.987358
vt 36.945727 120.934982
vt 36.945727 121.176518
vt 36.736989 120.967780
vt 37.279060 120.894552
vt 37.279060 121.176518
vt 37.025059 120.922516
vt 37.195779 120.895691
vt 37.612393 120.948439
vt 37.612393 121.176518
vt 37.329734 120.893858
vt 37.394133 120.892977
vt 37.481053 120.904208
vt 37.945727 121.171071
vt 37.945727 121.176518
vt 37.902475 121.133266
vt 37.945676 121.170968
vt 37.739896 120.991379
vt 37.948429 121.176518
vt 34.279060 121.500442
vt 34.279060 121.509851
vt 34.271829 121.502620
vt 34.247825 121.509851
vt 34.612393 121.400028
vt 34.612393 121.509851
vt 34.527995 121.425453
vt 34.489442 121.437066
vt 34.945727 121.299615
vt 34.945727 121.509851
vt 34.784161 121.348285
vt 34.742761 121.360757
vt 35.279060 121.201373
vt 35.279060 121.509851
vt 35.040327 121.271118
vt 35.249399 121.208137
vt 34.996080 121.284447
vt 35.612393 121.509851
vt 35.299300 121.196757
vt 35.342647 121.186871
vt 35.945727 121.509851
vt 36.279060 121.509851
vt 36.612393 121.509851
vt 36.945727 121.509851
vt 37.279060 121.509851
vt 37.612393 121.509851
vt 37.945727 121.509851
vt 37.951090 121.181881
vt 38.067066 121.415637
vt 38.073469 121.509851
vt 33.612393 121.738668
vt 33.612393 121.843184
vt 33.535715 121.766506
vt 33.324511 121.843184
vt 33.945727 121.843184
vt 33.780265 121.677722
vt 33.917495 121.627901
vt 33.945727 121.617651
vt 34.279060 121.843184
vt 34.024814 121.588938
vt 34.199149 121.525646
vt 34.236123 121.513376
vt 34.612393 121.843184
vt 34.945727 121.843184
vt 35.279060 121.843184
vt 35.612393 121.843184
vt 35.945727 121.843184
vt 36.279060 121.843184
vt 36.612393 121.843184
vt 36.945727 121.843184
vt 37.279060 121.843184
vt 37.612393 121.843184
vt 37.945727 121.843184
vt 38.082784 121.646908
vt 38.085585 121.688134
vt 38.033369 121.843184
vt 32.612393 122.101719
vt 32.612393 122.176518
vt 32.557517 122.121642
vt 32.447573 122.176518
vt 32.509225 122.139174
vt 32.945727 121.980702
vt 32.945727 122.176518
vt 32.802067 122.032858
vt 32.790879 122.036920
vt 33.279060 121.859685
vt 33.279060 122.176518
vt 33.046616 121.944074
vt 33.612393 122.176518
vt 33.291166 121.855290
vt 33.945727 122.176518
vt 34.279060 122.176518
vt 34.612393 122.176518
vt 34.945727 122.176518
vt 35.279060 122.176518
vt 35.612393 122.176518
vt 35.945727 122.176518
vt 36.279060 122.176518
vt 36.612393 122.176518
vt 36.945727 122.176518
vt 37.279060 122.176518
vt 37.612393 122.176518
vt 37.945727 122.007349
vt 37.866891 122.097682
vt 37.818825 122.152757
vt 37.770934 122.176518
vt 38.011289 121.908747
vt 37.998415 121.946977
vt 32.279060 122.278586
vt 32.279060 122.509851
vt 32.180025 122.410816
vt 32.275611 122.280675
vt 32.111709 122.509851
vt 32.113930 122.500806
vt 32.612393 122.509851
vt 32.342626 122.240084
vt 32.945727 122.509851
vt 33.279060 122.509851
vt 33.612393 122.509851
vt 33.945727 122.509851
vt 34.279060 122.509851
vt 34.612393 122.509851
vt 34.945727 122.509851
vt 35.279060 122.509851
vt 35.612393 122.509851
vt 35.945727 122.509287
vt 35.945240 122.509364
vt 35.942141 122.509851
vt 36.279060 122.456911
vt 36.233309 122.464100
vt 36.612393 122.404535
vt 36.521378 122.418836
vt 36.945727 122.352159
vt 36.809448 122.373572
vt 37.279060 122.299783
vt 37.104237 122.327252
vt 37.097517 122.328308
vt 37.612393 122.255176
vt 37.574157 122.274147
vt 37.389256 122.286713
vt 37.341640 122.289949
vt 37.664968 122.229092
vt 32.279060 122.843184
vt 32.078986 122.643110
vt 32.060604 122.843184
vt 32.048796 122.766052
vt 32.612393 122.843184
vt 32.945727 122.843184
vt 33.279060 122.843184
vt 33.612393 122.843184
vt 33.945727 122.843184
vt 34.279060 122.843184
vt 34.612393 122.843184
vt 34.945727 122.761758
vt 34.893253 122.777565
vt 34.883151 122.780608
vt 34.675422 122.843184
vt 35.279060 122.661345
vt 35.146572 122.701255
vt 35.139317 122.703441
vt 35.612393 122.561664
vt 35.607313 122.562462
vt 35.399891 122.624946
vt 35.395483 122.626274
vt 35.868816 122.521372
vt 35.657170 122.554628
vt 32.279060 123.176518
vt 32.081368 122.978826
vt 32.175218 123.176518
vt 32.090126 123.036033
vt 32.612393 123.176518
vt 32.945727 123.176518
vt 33.279060 123.176518
vt 33.612393 123.176518
vt 33.945727 123.107060
vt 33.894769 123.125560
vt 33.831947 123.148368
vt 33.754411 123.176518
vt 34.279060 122.986043
vt 34.139319 123.036777
vt 34.612393 122.865026
vt 34.395255 122.943859
vt 34.383868 122.947993
vt 34.658592 122.848254
vt 34.628418 122.859209
vt 32.279060 123.304486
vt 32.231627 123.269647
vt 32.612393 123.470774
vt 32.560598 123.458055
vt 32.451757 123.431328
vt 32.945727 123.461448
vt 32.903750 123.467874
vt 32.717003 123.496462
vt 33.279060 123.349094
vt 33.268639 123.352878
vt 33.161121 123.391912
vt 32.986985 123.455132
vt 33.612393 123.228077
vt 33.550293 123.250623
vt 33.405671 123.303128
vt 33.650220 123.214344
f 1/1 2/2 3/3
f 3/3 2/2 4/4
f 5/5 6/6 7/7
f 6/6 2/2 1/1
f 6/6 1/1 8/8
f 6/6 8/8 7/7
f 9/9 6/6 5/5
f 9/9 5/5 10/10
f 11/11 12/12 13/13
f 11/11 13/13 14/14
f 13/13 12/12 15/15
f 2/2 16/16 17/17
f 2/2 17/17 18/18
f 2/2 18/18 4/4
f 16/16 12/12 11/11
f 16/16 11/11 17/17
f 6/6 19/19 2/2
f 19/19 16/16 2/2
f 20/20 6/6 9/9
f 20/20 9/9 21/21
f 20/20 21/21 22/22
f 20/20 19/19 6/6
f 23/23 20/20 22/22
f 23/23 22/22 24/24
f 12/12 25/25 26/26
f 12/12 26/26 27/27
f 12/12 27/27 15/15
f 26/26 25/25 28/28
f 16/16 29/29 12/12
f 29/29 25/25 12/12
f 19/19 30/30 16/16
f 30/30 29/29 16/16
f 20/20 31/31 19/19
f 31/31 30/30 19/19
f 32/32 20/20 23/23
f 31/31 20/20 32/32
f 31/31 32/32 33/33
f 31/31 33/33 34/34
f 25/25 35/35 36/36
f 25/25 36/36 37/37
f 25/25 37/37 28/28
f 36/36 35/35 38/38
f 29/29 39/39 25/25
f 39/39 35/35 25/25
f 30/30 40/40 29/29
f 40/40 39/39 29/29
f 31/31 41/41 30/30
f 41/41 40/40 30/30
f 31/31 34/34 42/42
f 31/31 42/42 43/43
f 41/41 31/31 43/43
f 41/41 43/43 44/44
f 35/35 45/45 46/46
f 35/35 46/46 47/47
f 35/35 47/47 38/38
f 46/46 45/45 48/48
f 39/39 49/49 35/35
f 49/49 45/45 35/35
f 40/40 50/50 39/39
f 50/50 49/49 39/39
f 41/41 51/51 40/40
f 51/51 50/50 40/40
f 52/52 41/41 44/44
f 51/51 41/41 52/52
f 51/51 52/52 53/53
f 45/45 54/54 55/55
f 45/45 55/55 56/56
f 45/45 56/56 48/48
f 55/55 54/54 57/57
f 49/49 58/58 45/45
f 58/58 54/54 45/45
f 50/50 59/59 49/49
f 59/59 58/58 49/49
f 51/51 60/60 50/50
f 60/60 59/59 50/50
f 51/51 53/53 61/61
f 51/51 61/61 62/62
f 60/60 51/51 62/62
f 60/60 62/62 63/63
f 54/54 64/64 65/65
f 54/54 65/65 57/57
f 65/65 64/64 66/66
f 58/58 67/67 54/54
f 67/67 64/64 54/54
f 59/59 68/68 58/58
f 68/68 67/67 58/58
f 60/60 69/69 59/59
f 69/69 68/68 59/59
f 70/70 60/60 63/63
f 70/70 63/63 71/71
f 70/70 69/69 60/60
f 70/70 71/71 72/72
f 70/70 72/72 73/73
f 64/64 74/74 75/75
f 64/64 75/75 76/76
f 64/64 76/76 66/66
f 75/75 74/74 77/77
f 67/67 78/78 64/64
f 78/78 74/74 64/64
f 68/68 79/79 67/67
f 79/79 78/78 67/67
f 69/69 80/80 68/68
f 80/80 79/79 68/68
f 70/70 81/81 69/69
f 81/81 80/80 69/69
f 82/82 70/70 73/73
f 81/81 70/70 82/82
f 81/81 82/82 83/83
f 81/81 83/83 84/84
f 77/77 74/74 85/85
f 78/78 86/86 74/74
f 74/74 86/86 87/87
f 74/74 87/87 85/85
f 79/79 88/88 78/78
f 88/88 86/86 78/78
f 80/80 89/89 79/79
f 89/89 88/88 79/79
f 81/81 90/90 80/80
f 90/90 89/89 80/80
f 91/91 81/81 84/84
f 90/90 81/81 91/91
f 90/90 91/91 92/92
f 86/86 93/93 94/94
f 86/86 94/94 87/87
f 94/94 93/93 95/95
f 88/88 96/96 86/86
f 96/96 93/93 86/86
f 89/89 97/97 88/88
f 97/97 96/96 88/88
f 90/90 98/98 89/89
f 98/98 97/97 89/89
f 99/99 90/90 92/92
f 98/98 90/90 99/99
f 98/98 99/99 100/100
f 93/93 101/101 102/102
f 93/93 102/102 95/95
f 102/102 101/101 103/103
f 96/96 104/104 93/93
f 104/104 101/101 93/93
f 97/97 105/105 96/96
f 105/105 104/104 96/96
f 98/98 106/106 97/97
f 106/106 105/105 97/97
f 98/98 100/100 107/107
f 98/98 107/107 108/108
f 106/106 98/98 108/108
f 106/106 108/108 109/109
f 101/101 110/110 111/111
f 101/101 111/111 103/103
f 110/110 112/112 113/113
f 110/110 113/113 111/111
f 104/104 114/114 101/101
f 114/114 110/110 101/101
f 105/105 115/115 104/104
f 115/115 114/114 104/104
f 106/106 116/116 105/105
f 116/116 115/115 105/105
f 117/117 106/106 109/109
f 116/116 106/106 117/117
f 116/116 117/117 118/118
f 110/110 119/119 120/120
f 110/110 120/120 112/112
f 120/120 119/119 121/121
f 114/114 122/122 110/110
f 122/122 119/119 110/110
f 115/115 123/123 114/114
f 123/123 122/122 114/114
f 116/116 124/124 115/115
f 124/124 123/123 115/115
f 125/125 116/116 118/118
f 124/124 116/116 125/125
f 124/124 125/125 126/126
f 119/119 127/127 128/128
f 119/119 128/128 129/129
f 119/119 129/129 121/121
f 128/128 127/127 130/130
f 122/122 131/131 119/119
f 131/131 127/127 119/119
f 123/123 132/132 122/122
f 132/132 131/131 122/122
f 124/124 133/133 123/123
f 133/133 132/132 123/123
f 124/124 126/126 134/134
f 124/124 134/134 135/135
f 133/133 124/124 135/135
f 133/133 135/135 136/136
f 127/127 137/137 138/138
f 127/127 138/138 139/139
f 127/127 139/139 130/130
f 138/138 137/137 140/140
f 131/131 141/141 127/127
f 141/141 137/137 127/127
f 132/132 142/142 131/131
f 142/142 141/141 131/131
f 133/133 143/143 132/132
f 143/143 142/142 132/132
f 144/144 133/133 136/136
f 143/143 133/133 144/144
f 143/143 144/144 145/145
f 143/143 145/145 146/146
f 137/137 147/147 148/148
f 137/137 148/148 149/149
f 137/137 149/149 140/140
f 148/148 147/147 150/150
f 141/141 151/151 137/137
f 151/151 147/147 137/137
f 142/142 152/152 141/141
f 152/152 151/151 141/141
f 143/143 153/153 142/142
f 153/153 152/152 142/142
f 154/154 143/143 146/146
f 154/154 146/146 155/155
f 154/154 153/153 143/143
f 154/154 155/155 156/156
f 154/154 156/156 157/157
f 147/147 158/158 159/159
f 147/147 159/159 160/160
f 147/147 160/160 150/150
f 159/159 158/158 161/161
f 151/151 162/162 147/147
f 162/162 158/158 147/147
f 152/152 163/163 151/151
f 163/163 162/162 151/151
f 153/153 164/164 152/152
f 164/164 163/163 152/152
f 154/154 165/165 153/153
f 165/165 164/164 153/153
f 166/166 154/154 157/157
f 165/165 154/154 166/166
f 165/165 166/166 167/167
f 165/165 167/167 168/168
f 158/158 169/169 170/170
f 158/158 170/170 161/161
f 171/171 172/172 173/173
f 173/173 172/172 174/174
f 162/162 175/175 158/158
f 175/175 172/172 171/171
f 175/175 171/171 176/176
f 175/175 176/176 169/169
f 175/175 169/169 158/158
f 163/163 177/177 162/162
f 177/177 175/175 162/162
f 164/164 178/178 163/163
f 178/178 177/177 163/163
f 165/165 179/179 164/164
f 179/179 178/178 164/164
f 165/165 168/168 180/180
f 165/165 180/180 181/181
f 165/165 181/181 182/182
f 179/179 165/165 182/182
f 179/179 182/182 183/183
f 179/179 183/183 184/184
f 172/172 185/185 186/186
f 172/172 186/186 187/187
f 172/172 187/187 174/174
f 186/186 185/185 188/188
f 175/175 189/189 172/172
f 189/189 185/185 172/172
f 177/177 190/190 175/175
f 190/190 189/189 175/175
f 178/178 191/191 177/177
f 191/191 190/190 177/177
f 179/179 192/192 178/178
f 192/192 191/191 178/178
f 193/193 179/179 184/184
f 193/193 184/184 194/194
f 193/193 192/192 179/179
f 195/195 193/193 194/194
f 195/195 194/194 196/196
f 185/185 197/197 198/198
f 185/185 198/198 199/199
f 185/185 199/199 188/188
f 198/198 197/197 200/200
f 189/189 201/201 185/185
f 201/201 197/197 185/185
f 190/190 202/202 189/189
f 202/202 201/201 189/189
f 191/191 203/203 190/190
f 203/203 202/202 190/190
f 192/192 204/204 191/191
f 204/204 203/203 191/191
f 193/193 205/205 192/192
f 205/205 204/204 192/192
f 206/206 193/193 195/195
f 205/205 193/193 206/206
f 205/205 206/206 207/207
f 205/205 207/207 208/208
f 209/209 210/210 211/211
f 210/210 212/212 213/213
f 210/210 213/213 211/211
f 197/197 214/214 215/215
f 197/197 215/215 216/216
f 197/197 216/216 200/200
f 214/214 210/210 209/209
f 214/214 209/209 215/215
f 201/201 217/217 197/197
f 217/217 214/214 197/197
f 202/202 218/218 201/201
f 218/218 217/217 201/201
f 203/203 219/219 202/202
f 219/219 218/218 202/202
f 204/204 220/220 203/203
f 220/220 219/219 203/203
f 204/204 205/205 221/221
f 204/204 221/221 222/222
f 204/204 222/222 223/223
f 220/220 204/204 223/223
f 220/220 223/223 224/224
f 220/220 224/224 225/225
f 226/226 205/205 208/208
f 221/221 205/205 226/226
f 210/210 227/227 228/228
f 210/210 228/228 212/212
f 227/227 229/229 230/230
f 227/227 230/230 228/228
f 214/214 231/231 210/210
f 231/231 227/227 210/210
f 217/217 232/232 214/214
f 232/232 231/231 214/214
f 218/218 233/233 217/217
f 233/233 232/232 217/217
f 219/219 234/234 218/218
f 234/234 233/233 218/218
f 219/219 220/220 235/235
f 219/219 235/235 236/236
f 219/219 236/236 237/237
f 219/219 237/237 238/238
f 234/234 219/219 238/238
f 234/234 238/238 239/239
f 234/234 239/239 240/240
f 241/241 220/220 225/225
f 235/235 220/220 241/241
f 227/227 242/242 243/243
f 227/227 243/243 229/229
f 242/242 244/244 245/245
f 242/242 245/245 243/243
f 231/231 246/246 227/227
f 246/246 242/242 227/227
f 232/232 247/247 231/231
f 247/247 246/246 231/231
f 233/233 248/248 232/232
f 248/248 247/247 232/232
f 233/233 234/234 249/249
f 233/233 249/249 250/250
f 233/233 250/250 251/251
f 248/248 233/233 251/251
f 248/248 251/251 252/252
f 253/253 234/234 240/240
f 249/249 234/234 253/253
f 254/254 255/255 256/256
f 256/256 255/255 257/257
f 242/242 258/258 259/259
f 242/242 259/259 244/244
f 258/258 255/255 254/254
f 258/258 254/254 259/259
f 246/246 260/260 242/242
f 260/260 258/258 242/242
f 247/247 261/261 246/246
f 261/261 260/260 246/246
f 248/248 262/262 247/247
f 262/262 261/261 247/247
f 263/263 248/248 252/252
f 263/263 252/252 264/264
f 262/262 248/248 263/263
f 262/262 263/263 265/265
f 262/262 265/265 266/266
f 255/255 267/267 268/268
f 255/255 268/268 269/269
f 255/255 269/269 257/257
f 268/268 267/267 270/270
f 258/258 271/271 255/255
f 271/271 267/267 255/255
f 260/260 272/272 258/258
f 272/272 271/271 258/258
f 261/261 273/273 260/260
f 273/273 272/272 260/260
f 261/261 262/262 274/274
f 261/261 274/274 275/275
f 273/273 261/261 275/275
f 273/273 275/275 276/276
f 277/277 262/262 266/266
f 274/274 262/262 277/277
f 278/278 279/279 280/280
f 278/278 280/280 281/281
f 279/279 278/278 282/282
f 267/267 283/283 284/284
f 267/267 284/284 270/270
f 283/283 278/278 281/281
f 283/283 281/281 284/284
f 271/271 285/285 267/267
f 285/285 283/283 267/267
f 272/272 286/286 271/271
f 286/286 285/285 271/271
f 273/273 287/287 272/272
f 287/287 286/286 272/272
f 273/273 276/276 288/288
f 273/273 288/288 289/289
f 287/287 273/273 289/289
f 287/287 289/289 290/290
f 287/287 290/290 291/291
f 278/278 292/292 293/293
f 278/278 293/293 282/282
f 293/293 292/292 294/294
f 293/293 294/294 295/295
f 283/283 296/296 278/278
f 296/296 292/292 278/278
f 285/285 297/297 283/283
f 297/297 296/296 283/283
f 286/286 298/298 285/285
f 298/298 297/297 285/285
f 286/286 287/287 299/299
f 286/286 299/299 300/300
f 298/298 286/286 300/300
f 298/298 300/300 301/301
f 302/302 287/287 291/291
f 299/299 287/287 302/302
f 292/292 303/303 304/304
f 292/292 304/304 294/294
f 304/304 303/303 305/305
f 304/304 305/305 306/306
f 296/296 307/307 292/292
f 307/307 303/303 292/292
f 297/297 308/308 296/296
f 308/308 307/307 296/296
f 298/298 309/309 297/297
f 309/309 308/308 297/297
f 310/310 298/298 301/301
f 309/309 298/298 310/310
f 309/309 310/310 311/311
f 309/309 311/311 312/312
f 303/303 313/313 314/314
f 303/303 314/314 315/315
f 303/303 315/315 305/305
f 314/314 313/313 316/316
f 314/314 316/316 317/317
f 307/307 318/318 303/303
f 318/318 313/313 303/303
f 308/308 319/319 307/307
f 319/319 318/318 307/307
f 308/308 309/309 320/320
f 308/308 320/320 321/321
f 319/319 308/308 321/321
f 319/319 321/321 322/322
f 319/319 322/322 323/323
f 324/324 309/309 312/312
f 320/320 309/309 324/324
f 320/320 324/324 325/325
f 316/316 313/313 326/326
f 313/313 318/318 327/327
f 313/313 327/327 328/328
f 313/313 328/328 329/329
f 326/326 313/313 329/329
f 318/318 319/319 330/330
f 318/318 330/330 331/331
f 318/318 331/331 332/332
f 327/327 318/318 332/332
f 327/327 332/332 333/333
f 334/334 319/319 323/323
f 330/330 319/319 334/334
f 335/335 336/336 337/337
f 337/337 336/336 338/338
f 339/339 340/340 341/341
f 340/340 336/336 335/335
f 340/340 335/335 342/342
f 340/340 342/342 341/341
f 343/343 344/344 345/345
f 343/343 345/345 346/346
f 343/343 340/340 339/339
f 343/343 339/339 344/344
f 347/347 348/348 349/349
f 347/347 349/349 350/350
f 347/347 343/343 346/346
f 347/347 346/346 348/348
f 351/351 352/352 353/353
f 352/352 347/347 350/350
f 352/352 350/350 353/353
f 354/354 355/355 356/356
f 354/354 356/356 357/357
f 355/355 352/352 351/351
f 355/355 351/351 356/356
f 358/358 359/359 360/360
f 358/358 360/360 361/361
f 358/358 361/361 362/362
f 359/359 355/355 354/354
f 359/359 354/354 360/360
f 363/363 364/364 365/365
f 363/363 365/365 366/366
f 364/364 359/359 358/358
f 364/364 358/358 367/367
f 364/364 367/367 365/365
f 368/368 364/364 363/363
f 369/369 370/370 371/371
f 371/371 370/370 372/372
f 373/373 374/374 375/375
f 374/374 370/370 369/369
f 374/374 369/369 376/376
f 374/374 376/376 375/375
f 377/377 378/378 379/379
f 378/378 374/374 373/373
f 378/378 373/373 380/380
f 378/378 380/380 379/379
f 381/381 382/382 383/383
f 381/381 383/383 384/384
f 382/382 378/378 377/377
f 382/382 377/377 385/385
f 382/382 385/385 383/383
f 336/336 386/386 387/387
f 336/336 387/387 388/388
f 336/336 388/388 338/338
f 386/386 382/382 381/381
f 386/386 381/381 387/387
f 340/340 389/389 336/336
f 389/389 386/386 336/336
f 343/343 390/390 340/340
f 390/390 389/389 340/340
f 347/347 391/391 343/343
f 391/391 390/390 343/343
f 352/352 392/392 347/347
f 392/392 391/391 347/347
f 355/355 393/393 352/352
f 393/393 392/392 352/352
f 359/359 394/394 355/355
f 394/394 393/393 355/355
f 364/364 395/395 359/359
f 395/395 394/394 359/359
f 396/396 364/364 368/368
f 395/395 364/364 396/396
f 395/395 396/396 397/397
f 395/395 397/397 398/398
f 399/399 400/400 401/401
f 401/401 400/400 402/402
f 403/403 404/404 405/405
f 403/403 405/405 406/406
f 403/403 400/400 399/399
f 403/403 399/399 404/404
f 370/370 407/407 408/408
f 370/370 408/408 409/409
f 370/370 409/409 410/410
f 370/370 410/410 372/372
f 407/407 403/403 406/406
f 407/407 406/406 408/408
f 374/374 411/411 370/370
f 411/411 407/407 370/370
f 378/378 412/412 374/374
f 412/412 411/411 374/374
f 382/382 413/413 378/378
f 413/413 412/412 378/378
f 386/386 414/414 382/382
f 414/414 413/413 382/382
f 389/389 415/415 386/386
f 415/415 414/414 386/386
f 390/390 416/416 389/389
f 416/416 415/415 389/389
f 391/391 417/417 390/390
f 417/417 416/416 390/390
f 392/392 418/418 391/391
f 418/418 417/417 391/391
f 393/393 419/419 392/392
f 419/419 418/418 392/392
f 394/394 420/420 393/393
f 420/420 419/419 393/393
f 395/395 421/421 394/394
f 421/421 420/420 394/394
f 422/422 395/395 398/398
f 421/421 395/395 422/422
f 421/421 422/422 423/423
f 421/421 423/423 424/424
f 425/425 426/426 427/427
f 427/427 426/426 428/428
f 427/427 428/428 429/429
f 430/430 431/431 432/432
f 431/431 426/426 425/425
f 431/431 425/425 433/433
f 431/431 433/433 432/432
f 434/434 435/435 436/436
f 435/435 431/431 430/430
f 435/435 430/430 436/436
f 400/400 437/437 438/438
f 400/400 438/438 402/402
f 437/437 435/435 434/434
f 437/437 434/434 438/438
f 403/403 439/439 400/400
f 439/439 437/437 400/400
f 407/407 440/440 403/403
f 440/440 439/439 403/403
f 411/411 441/441 407/407
f 441/441 440/440 407/407
f 412/412 442/442 411/411
f 442/442 441/441 411/411
f 413/413 443/443 412/412
f 443/443 442/442 412/412
f 414/414 444/444 413/413
f 444/444 443/443 413/413
f 415/415 445/445 414/414
f 445/445 444/444 414/414
f 416/416 446/446 415/415
f 446/446 445/445 415/415
f 417/417 447/447 416/416
f 447/447 446/446 416/416
f 418/418 448/448 417/417
f 448/448 447/447 417/417
f 419/419 449/449 418/418
f 449/449 448/448 418/418
f 420/420 450/450 419/419
f 450/450 449/449 419/419
f 420/420 421/421 451/451
f 420/420 451/451 452/452
f 450/450 420/420 452/452
f 450/450 452/452 453/453
f 450/450 453/453 454/454
f 455/455 421/421 424/424
f 451/451 421/421 455/455
f 451/451 455/455 456/456
f 457/457 458/458 459/459
f 457/457 459/459 460/460
f 459/459 458/458 461/461
f 459/459 461/461 462/462
f 426/426 463/463 464/464
f 426/426 464/464 428/428
f 463/463 458/458 457/457
f 463/463 457/457 464/464
f 431/431 465/465 426/426
f 465/465 463/463 426/426
f 435/435 466/466 431/431
f 466/466 465/465 431/431
f 437/437 467/467 435/435
f 467/467 466/466 435/435
f 439/439 468/468 437/437
f 468/468 467/467 437/437
f 440/440 469/469 439/439
f 469/469 468/468 439/439
f 441/441 470/470 440/440
f 470/470 469/469 440/440
f 442/442 471/471 441/441
f 471/471 470/470 441/441
f 443/443 472/472 442/442
f 472/472 471/471 442/442
f 444/444 473/473 443/443
f 473/473 472/472 443/443
f 444/444 445/445 474/474
f 444/444 474/474 475/475
f 473/473 444/444 475/475
f 473/473 475/475 476/476
f 445/445 446/446 477/477
f 445/445 477/477 478/478
f 474/474 445/445 478/478
f 446/446 447/447 479/479
f 446/446 479/479 480/480
f 477/477 446/446 480/480
f 447/447 448/448 481/481
f 447/447 481/481 482/482
f 479/479 447/447 482/482
f 448/448 449/449 483/483
f 448/448 483/483 484/484
f 448/448 484/484 485/485
f 481/481 448/448 485/485
f 449/449 450/450 486/486
f 449/449 486/486 487/487
f 449/449 487/487 488/488
f 449/449 488/488 489/489
f 449/449 489/489 483/483
f 490/490 450/450 454/454
f 486/486 450/450 490/490
f 458/458 491/491 492/492
f 458/458 492/492 461/461
f 492/492 491/491 493/493
f 492/492 493/493 494/494
f 463/463 495/495 458/458
f 495/495 491/491 458/458
f 465/465 496/496 463/463
f 496/496 495/495 463/463
f 466/466 497/497 465/465
f 497/497 496/496 465/465
f 467/467 498/498 466/466
f 498/498 497/497 466/466
f 468/468 499/499 467/467
f 499/499 498/498 467/467
f 469/469 500/500 468/468
f 500/500 499/499 468/468
f 470/470 501/501 469/469
f 501/501 500/500 469/469
f 470/470 471/471 502/502
f 470/470 502/502 503/503
f 470/470 503/503 504/504
f 501/501 470/470 504/504
f 501/501 504/504 505/505
f 471/471 472/472 506/506
f 471/471 506/506 507/507
f 471/471 507/507 508/508
f 502/502 471/471 508/508
f 472/472 473/473 509/509
f 472/472 509/509 510/510
f 472/472 510/510 511/511
f 472/472 511/511 512/512
f 506/506 472/472 512/512
f 473/473 476/476 513/513
f 473/473 513/513 514/514
f 509/509 473/473 514/514
f 491/491 515/515 516/516
f 491/491 516/516 493/493
f 516/516 515/515 517/517
f 516/516 517/517 518/518
f 495/495 519/519 491/491
f 519/519 515/515 491/491
f 496/496 520/520 495/495
f 520/520 519/519 495/495
f 497/497 521/521 496/496
f 521/521 520/520 496/496
f 498/498 522/522 497/497
f 522/522 521/521 497/497
f 498/498 499/499 523/523
f 498/498 523/523 524/524
f 522/522 498/498 524/524
f 522/522 524/524 525/525
f 522/522 525/525 526/526
f 499/499 500/500 527/527
f 499/499 527/527 528/528
f 523/523 499/499 528/528
f 500/500 501/501 529/529
f 500/500 529/529 530/530
f 500/500 530/530 531/531
f 527/527 500/500 531/531
f 501/501 505/505 532/532
f 501/501 532/532 533/533
f 529/529 501/501 533/533
f 517/517 515/515 534/534
f 517/517 534/534 535/535
f 515/515 519/519 536/536
f 515/515 536/536 537/537
f 534/534 515/515 537/537
f 534/534 537/537 538/538
f 519/519 520/520 539/539
f 519/519 539/539 540/540
f 536/536 519/519 540/540
f 536/536 540/540 541/541
f 520/520 521/521 542/542
f 520/520 542/542 543/543
f 520/520 543/543 544/544
f 539/539 520/520 544/544
f 539/539 544/544 545/545
f 521/521 522/522 546/546
f 521/521 546/546 547/547
f 521/521 547/547 548/548
f 542/542 521/521 548/548
f 549/549 522/522 526/526
f 546/546 522/522 549/549
