# OSM contributors ODbL; elevations USGS 3DEP
# Centimeters, Z up. Explicit orientation verification required on import.
o Park_Concrete_5_14
v 5389.145325 -11632.282201 -500.617113
v 5389.145325 -11631.363156 -500.645833
v 5388.205983 -11632.302497 -500.634825
v 5322.478658 -11631.363156 -502.208333
v 5322.478658 -11633.722692 -502.125381
v 5339.220377 -11633.360948 -501.745714
v 5431.679166 -11631.363156 -500.147390
v 5389.145325 -11564.696489 -500.125000
v 5322.478658 -11564.696489 -501.427083
v 5455.811991 -11564.696489 -499.343750
v 5455.811991 -11630.841709 -499.860510
v 5522.478658 -11564.696489 -498.302083
v 5456.344954 -11630.830193 -499.852092
v 5471.589494 -11630.500799 -499.553060
v 5522.478658 -11629.401217 -498.554836
v 5589.145325 -11627.960726 -497.480961
v 5589.145325 -11564.696489 -496.739583
v 5524.483925 -11629.357889 -498.507668
v 5655.811991 -11564.696489 -495.697917
v 5592.622896 -11627.885585 -497.425743
v 5603.958610 -11627.640650 -497.289076
v 5655.811991 -11626.520234 -496.663913
v 5722.478658 -11564.696489 -494.916667
v 5660.761867 -11626.413280 -496.604235
v 5670.143168 -11626.210575 -496.455277
v 5722.478658 -11625.079742 -495.624283
v 5789.145325 -11623.639251 -494.626078
v 5789.145325 -11564.696489 -494.395833
v 5728.900838 -11624.940976 -495.572483
v 5855.811991 -11564.696489 -493.614583
v 5797.039809 -11623.468672 -494.532899
v 5802.512285 -11623.350426 -494.510136
v 5855.811991 -11622.198759 -494.288438
v 5922.478658 -11620.758268 -493.750724
v 5922.478658 -11564.696489 -493.093750
v 5865.178780 -11621.996368 -494.212888
v 5989.145325 -11564.696489 -492.572917
v 5933.317751 -11620.524063 -493.663299
v 5934.881401 -11620.490277 -493.638735
v 5989.145325 -11619.317776 -492.786281
v 6055.811991 -11617.877284 -492.052083
v 6055.811991 -11564.696489 -492.052083
v 6001.456722 -11619.051759 -492.689059
v 6001.065959 -11619.060202 -492.692145
v 6122.478658 -11616.436793 -491.472944
v 6122.478658 -11564.696489 -491.270833
v 6069.595693 -11617.579455 -491.890556
v 6067.250517 -11617.630128 -491.918038
v 6189.145325 -11614.996301 -490.946484
v 6189.145325 -11564.696489 -490.750000
v 6137.734663 -11616.107151 -491.352469
v 6133.435076 -11616.200053 -491.386422
v 6255.811991 -11613.555810 -490.420023
v 6255.811991 -11564.696489 -490.229167
v 6205.873634 -11614.634846 -490.814382
v 6199.619634 -11614.769979 -490.863769
v 6322.478658 -11612.115318 -489.818376
v 6322.478658 -11564.696489 -489.447917
v 6274.012605 -11613.162542 -490.205199
v 6265.804192 -11613.339904 -490.302084
v 6389.145325 -11610.674826 -489.385078
v 6389.145325 -11564.696489 -488.666667
v 6342.151576 -11611.690238 -489.584513
v 6331.988750 -11611.909830 -489.705324
v 6455.811991 -11609.234335 -488.667761
v 6455.811991 -11564.696489 -488.145833
v 6410.290547 -11610.217934 -489.212742
v 6398.173308 -11610.479755 -489.311499
v 6522.478658 -11607.793843 -487.961698
v 6522.478658 -11564.696489 -487.625000
v 6478.429518 -11608.745629 -488.485335
v 6464.357866 -11609.049681 -488.598833
v 6589.145325 -11606.353351 -487.169194
v 6589.145325 -11564.696489 -486.843750
v 6546.568489 -11607.273325 -487.675329
v 6530.542425 -11607.619606 -487.865840
v 6655.811991 -11604.912860 -486.376690
v 6655.811991 -11564.696489 -486.062500
v 6614.707460 -11605.801021 -486.865323
v 6596.726983 -11606.189532 -487.079067
v 6722.478658 -11603.472368 -485.844603
v 6722.478658 -11564.696489 -485.541667
v 6682.846431 -11604.328717 -486.160920
v 6662.911541 -11604.759457 -486.320027
v 6789.145325 -11602.031877 -485.427091
v 6789.145325 -11564.696489 -485.281250
v 6750.985402 -11602.856412 -485.728437
v 6729.096099 -11603.329383 -485.817637
v 6855.811991 -11600.591385 -484.900631
v 6855.811991 -11564.696489 -484.760417
v 6819.124373 -11601.384108 -485.190350
v 6795.280657 -11601.899308 -485.378641
v 6922.478658 -11599.150893 -483.987925
v 6922.478658 -11564.696489 -483.718750
v 6887.263344 -11599.911804 -484.406549
v 6861.465216 -11600.469234 -484.811822
v 6989.145325 -11597.710402 -483.197917
v 6989.145325 -11564.696489 -483.197917
v 6955.402314 -11598.439500 -483.725151
v 6927.649774 -11599.039159 -483.946653
v 7055.811991 -11596.269910 -482.416667
v 7055.811991 -11564.696489 -482.416667
v 7023.541285 -11596.967195 -482.794839
v 6993.834332 -11597.609085 -483.142967
v 7122.478658 -11594.829418 -481.635417
v 7122.478658 -11564.696489 -481.635417
v 7091.680256 -11595.494891 -481.996335
v 7060.018890 -11596.179010 -482.367367
v 7189.145325 -11593.388927 -481.002503
v 7189.145325 -11564.696489 -481.114583
v 7159.819227 -11594.022587 -481.343693
v 7126.203448 -11594.748935 -481.606317
v 7255.811991 -11591.948435 -479.706047
v 7255.811991 -11564.696489 -479.812500
v 7227.958198 -11592.550283 -480.247716
v 7192.388006 -11593.318861 -480.939444
v 7322.478658 -11590.507944 -478.409591
v 7322.478658 -11564.696489 -478.510417
v 7296.097169 -11591.077978 -478.922627
v 7258.572565 -11591.888786 -479.652363
v 7389.145325 -11589.067452 -477.799185
v 7389.145325 -11564.696489 -477.989583
v 7364.236140 -11589.605674 -478.086885
v 7324.757123 -11590.458712 -478.391982
v 7455.811991 -11587.626960 -476.597928
v 7455.811991 -11564.696489 -476.687500
v 7432.375111 -11588.133370 -476.962151
v 7390.941681 -11589.028637 -477.764403
v 7522.478658 -11586.186469 -475.301471
v 7522.478658 -11564.696489 -475.385417
v 7500.514082 -11586.661066 -475.728613
v 7457.126239 -11587.598563 -476.572370
v 7589.145325 -11584.745977 -474.447530
v 7589.145325 -11564.696489 -474.604167
v 7568.653053 -11585.188761 -474.764263
v 7523.310797 -11586.168488 -475.291790
v 7655.811991 -11564.696489 -473.562500
v 7636.792024 -11583.716457 -473.711093
v 7655.679914 -11583.308339 -473.346972
v 7655.811991 -11583.305485 -473.344426
v 7589.495356 -11584.738414 -474.442120
v 7722.478658 -11581.864994 -472.059223
v 7722.478658 -11564.696489 -472.260417
v 7704.930995 -11582.244153 -472.397508
v 7789.145325 -11564.696489 -470.958333
v 7773.069965 -11580.771849 -471.083922
v 7788.049030 -11580.448190 -470.737907
v 7789.145325 -11580.424502 -470.712583
v 7855.811991 -11564.696489 -469.656250
v 7841.208936 -11579.299544 -469.713293
v 7854.233588 -11579.018116 -469.463303
v 7855.811991 -11578.984011 -469.433007
v 7922.478658 -11577.543519 -468.464032
v 7922.478658 -11564.696489 -468.614583
v 7909.347907 -11577.827240 -468.614583
v 7989.145325 -11576.103027 -466.702553
v 7989.145325 -11564.696489 -466.791667
v 7977.486878 -11576.354936 -466.973830
v 8055.811991 -11564.696489 -465.229167
v 8045.625849 -11574.882632 -465.388325
v 8052.787263 -11574.727892 -465.194319
v 8055.811991 -11574.662536 -465.112377
v 8122.478658 -11573.222044 -463.793872
v 8122.478658 -11564.696489 -463.927083
v 8113.764820 -11573.410327 -463.995160
v 8189.145325 -11564.696489 -462.364583
v 8181.903791 -11571.938023 -462.421158
v 8185.156379 -11571.867743 -462.358454
v 8189.145325 -11571.781552 -462.281555
v 8255.811991 -11570.341061 -460.996353
v 8255.811991 -11564.696489 -461.062500
v 8250.042762 -11570.465719 -461.107572
v 8322.478658 -11568.900569 -459.694728
v 8322.478658 -11564.696489 -459.760417
v 8318.181733 -11568.993415 -459.793986
v 8317.525495 -11569.007594 -459.806637
v 8389.145325 -11567.460078 -458.653978
v 8389.145325 -11564.696489 -458.718750
v 8386.320704 -11567.521110 -458.718750
v 8383.710054 -11567.577520 -458.758660
v 8455.811991 -11566.019586 -457.120072
v 8455.811991 -11564.696489 -457.156250
v 8454.459675 -11566.048806 -457.156250
v 8449.894612 -11566.147445 -457.260932
v 8516.079170 -11564.717371 -455.978586
v 8517.045563 -11564.696489 -455.960282
v 5389.145325 -11498.029823 -497.520833
v 5322.478658 -11498.029823 -498.302083
v 5455.811991 -11498.029823 -496.479167
v 5522.478658 -11498.029823 -495.697917
v 5589.145325 -11498.029823 -494.395833
v 5655.811991 -11498.029823 -492.833333
v 5722.478658 -11498.029823 -491.791667
v 5789.145325 -11498.029823 -491.270833
v 5855.811991 -11498.029823 -490.489583
v 5922.478658 -11498.029823 -490.229167
v 5989.145325 -11498.029823 -489.708333
v 6055.811991 -11498.029823 -488.927083
v 6122.478658 -11498.029823 -488.406250
v 6189.145325 -11498.029823 -487.625000
v 6255.811991 -11498.029823 -487.104167
v 6322.478658 -11498.029823 -486.062500
v 6389.145325 -11498.029823 -484.760417
v 6455.811991 -11498.029823 -484.239583
v 6522.478658 -11498.029823 -483.979167
v 6589.145325 -11498.029823 -483.458333
v 6655.811991 -11498.029823 -482.677083
v 6722.478658 -11498.029823 -482.156250
v 6789.145325 -11498.029823 -481.635417
v 6855.811991 -11498.029823 -480.854167
v 6922.478658 -11498.029823 -480.072917
v 6989.145325 -11498.029823 -479.291667
v 7055.811991 -11498.029823 -478.770833
v 7122.478658 -11498.029823 -477.989583
v 7189.145325 -11498.029823 -476.947917
v 7255.811991 -11498.029823 -476.166667
v 7322.478658 -11498.029823 -475.645833
v 7389.145325 -11498.029823 -475.906250
v 7455.811991 -11498.029823 -474.864583
v 7522.478658 -11498.029823 -473.041667
v 7589.145325 -11498.029823 -471.739583
v 7655.811991 -11498.029823 -470.177083
v 7722.478658 -11498.029823 -468.875000
v 7789.145325 -11498.029823 -468.093750
v 7855.811991 -11498.029823 -467.312500
v 7922.478658 -11498.029823 -466.010417
v 7989.145325 -11498.029823 -464.187500
v 8055.811991 -11498.029823 -462.885417
v 8122.478658 -11498.029823 -461.843750
v 8189.145325 -11498.029823 -460.281250
v 8255.811991 -11498.029823 -459.239583
v 8322.478658 -11498.029823 -458.718750
v 8389.145325 -11498.029823 -457.677083
v 8455.811991 -11498.029823 -456.375000
v 8522.478658 -11498.029823 -455.333333
v 8522.478658 -11564.579094 -455.853250
v 8589.145325 -11563.138603 -454.279496
v 8589.145325 -11498.029823 -453.770833
v 8522.598646 -11564.576502 -455.850417
v 8655.811991 -11561.666424 -452.977747
v 8655.811991 -11498.029823 -452.729167
v 8590.737616 -11563.104198 -454.254347
v 8648.448286 -11561.857221 -453.122315
v 8649.077066 -11561.842222 -453.109975
v 8722.478658 -11559.926257 -451.445717
v 8722.478658 -11498.029823 -451.687500
v 8658.923269 -11561.585212 -452.928816
v 8789.145325 -11498.029823 -449.604167
v 8727.376743 -11559.798405 -451.293151
v 8770.826294 -11558.664263 -450.270372
v 8789.145325 -11558.186090 -449.839152
v 8855.811991 -11556.445924 -448.237626
v 8855.811991 -11498.029823 -447.781250
v 8795.830216 -11558.011598 -449.655680
v 8922.478658 -11498.029823 -446.479167
v 8864.283689 -11556.224791 -448.070435
v 8892.575523 -11555.486304 -447.619721
v 8922.478658 -11554.705757 -447.143338
v 8989.145325 -11552.965590 -445.652093
v 8989.145325 -11498.029823 -445.437500
v 8932.737163 -11554.437984 -446.979911
v 9055.811991 -11498.029823 -444.135417
v 9001.190636 -11552.651178 -445.415605
v 9014.324751 -11552.308344 -445.107774
v 9055.811991 -11551.225424 -444.135417
v 9122.478658 -11549.485257 -442.371919
v 9122.478658 -11498.029823 -442.572917
v 9069.644110 -11550.864371 -443.811226
v 9189.145325 -11547.745090 -440.162950
v 9189.145325 -11498.029823 -439.968750
v 9138.097583 -11549.077564 -441.763397
v 9136.073980 -11549.130385 -441.842238
v 9255.811991 -11531.544478 -439.446500
v 9255.811991 -11498.029823 -439.708333
v 9209.033997 -11544.807817 -440.073786
v 9250.227956 -11535.490186 -439.502925
v 9196.948594 -11547.541405 -440.131673
v 9298.586753 -11498.029823 -439.207067
v 9294.839866 -11503.967181 -439.204590
v 5389.145325 -11431.363156 -497.781250
v 5322.478658 -11431.363156 -498.562500
v 5455.811991 -11431.363156 -497.260417
v 5522.478658 -11431.363156 -496.218750
v 5589.145325 -11431.363156 -494.916667
v 5655.811991 -11431.363156 -493.614583
v 5722.478658 -11431.363156 -492.572917
v 5789.145325 -11431.363156 -491.270833
v 5855.811991 -11431.363156 -490.489583
v 5922.478658 -11431.363156 -490.489583
v 5989.145325 -11431.363156 -490.489583
v 6055.811991 -11431.363156 -490.489583
v 6122.478658 -11431.363156 -490.229167
v 6189.145325 -11431.363156 -488.927083
v 6255.811991 -11431.363156 -487.885417
v 6322.478658 -11431.363156 -486.843750
v 6389.145325 -11431.363156 -486.062500
v 6455.811991 -11431.363156 -485.281250
v 6522.478658 -11431.363156 -484.500000
v 6589.145325 -11431.363156 -483.979167
v 6655.811991 -11431.363156 -483.197917
v 6722.478658 -11431.363156 -481.895833
v 6789.145325 -11431.363156 -480.854167
v 6855.811991 -11431.363156 -480.333333
v 6922.478658 -11431.363156 -479.552083
v 6989.145325 -11431.363156 -478.510417
v 7055.811991 -11431.363156 -477.468750
v 7122.478658 -11431.363156 -476.687500
v 7189.145325 -11431.363156 -475.645833
v 7255.811991 -11431.363156 -474.864583
v 7322.478658 -11431.363156 -476.166667
v 7389.145325 -11431.363156 -477.208333
v 7455.811991 -11431.363156 -474.604167
v 7522.478658 -11431.363156 -471.218750
v 7589.145325 -11431.363156 -468.875000
v 7655.811991 -11431.363156 -467.833333
v 7722.478658 -11431.363156 -466.791667
v 7789.145325 -11431.363156 -466.270833
v 7855.811991 -11431.363156 -466.270833
v 7922.478658 -11431.363156 -464.447917
v 7989.145325 -11431.363156 -462.104167
v 8055.811991 -11431.363156 -460.281250
v 8122.478658 -11431.363156 -458.979167
v 8189.145325 -11431.363156 -457.677083
v 8255.811991 -11431.363156 -457.156250
v 8322.478658 -11431.363156 -456.114583
v 8389.145325 -11431.363156 -454.552083
v 8455.811991 -11431.363156 -453.250000
v 8522.478658 -11431.363156 -451.687500
v 8589.145325 -11431.363156 -450.125000
v 8655.811991 -11431.363156 -449.083333
v 8722.478658 -11431.363156 -448.302083
v 8789.145325 -11431.363156 -446.479167
v 8855.811991 -11431.363156 -444.656250
v 8922.478658 -11431.363156 -443.354167
v 8989.145325 -11431.363156 -442.052083
v 9055.811991 -11431.363156 -440.489583
v 9122.478658 -11431.363156 -439.447917
v 9189.145325 -11431.363156 -438.666667
v 9255.811991 -11431.363156 -437.625000
v 9322.478658 -11431.363156 -436.062500
v 9322.478658 -11460.170438 -437.300313
v 9328.532613 -11431.363156 -435.896962
v 9323.992565 -11457.771484 -437.155837
v 5389.145325 -11364.696489 -498.302083
v 5322.478658 -11364.696489 -499.083333
v 5455.811991 -11364.696489 -497.781250
v 5522.478658 -11364.696489 -496.739583
v 5589.145325 -11364.696489 -495.697917
v 5655.811991 -11364.696489 -494.916667
v 5722.478658 -11364.696489 -493.875000
v 5789.145325 -11364.696489 -492.572917
v 5855.811991 -11364.696489 -492.052083
v 5922.478658 -11364.696489 -492.312500
v 5989.145325 -11364.696489 -493.354167
v 6055.811991 -11364.696489 -495.177083
v 6122.478658 -11364.696489 -495.437500
v 6189.145325 -11364.696489 -494.135417
v 6255.811991 -11364.696489 -492.312500
v 6322.478658 -11364.696489 -491.270833
v 6389.145325 -11364.696489 -490.489583
v 6455.811991 -11364.696489 -489.968750
v 6522.478658 -11364.696489 -489.187500
v 6589.145325 -11364.696489 -488.666667
v 6655.811991 -11364.696489 -487.885417
v 6722.478658 -11364.696489 -486.583333
v 6789.145325 -11364.696489 -485.802083
v 6855.811991 -11364.696489 -484.760417
v 6922.478658 -11364.696489 -483.458333
v 6989.145325 -11364.696489 -481.895833
v 7055.811991 -11364.696489 -480.854167
v 7122.478658 -11364.696489 -480.072917
v 7189.145325 -11364.696489 -478.510417
v 7255.811991 -11364.696489 -477.989583
v 7322.478658 -11364.696489 -479.812500
v 7389.145325 -11364.696489 -478.770833
v 7455.811991 -11364.696489 -475.645833
v 7522.478658 -11364.696489 -472.781250
v 7589.145325 -11364.696489 -471.218750
v 7655.811991 -11364.696489 -470.177083
v 7722.478658 -11364.696489 -469.656250
v 7789.145325 -11364.696489 -470.177083
v 7855.811991 -11364.696489 -469.395833
v 7922.478658 -11364.696489 -467.052083
v 7989.145325 -11364.696489 -464.708333
v 8055.811991 -11364.696489 -461.843750
v 8122.478658 -11364.696489 -459.760417
v 8189.145325 -11364.696489 -458.718750
v 8255.811991 -11364.696489 -457.677083
v 8322.478658 -11364.696489 -456.635417
v 8389.145325 -11364.696489 -456.114583
v 8455.811991 -11364.696489 -455.333333
v 8522.478658 -11364.696489 -453.510417
v 8589.145325 -11364.696489 -450.645833
v 8655.811991 -11364.696489 -449.604167
v 8722.478658 -11364.696489 -449.604167
v 8789.145325 -11364.696489 -449.083333
v 8855.811991 -11364.696489 -447.781250
v 8922.478658 -11364.696489 -446.479167
v 8989.145325 -11364.696489 -443.875000
v 9055.811991 -11364.696489 -442.052083
v 9122.478658 -11364.696489 -441.791667
v 9189.145325 -11364.696489 -441.791667
v 9255.811991 -11364.696489 -439.708333
v 9322.478658 -11364.696489 -437.364583
v 9329.789467 -11424.052347 -436.062500
v 9333.247819 -11403.935969 -436.387852
v 9324.372270 -11364.696489 -437.327599
v 5389.145325 -11352.216845 -498.545826
v 5333.761605 -11353.413542 -499.171481
v 5322.478658 -11353.657337 -499.169577
v 5455.811991 -11350.776354 -498.161879
v 5401.900576 -11351.941238 -498.551209
v 5399.356283 -11351.996213 -498.550136
v 5522.478658 -11349.335862 -497.159600
v 5470.039547 -11350.468933 -497.947979
v 5589.145325 -11347.895370 -496.026064
v 5538.178518 -11348.996629 -496.800911
v 5531.725399 -11349.136064 -496.948343
v 5655.811991 -11346.454879 -495.272948
v 5606.317489 -11347.524325 -495.832074
v 5597.909957 -11347.705990 -495.927052
v 5722.478658 -11345.014387 -494.490066
v 5674.456460 -11346.052021 -495.207986
v 5789.145325 -11343.573895 -493.480528
v 5742.595431 -11344.579716 -494.346487
v 5730.279074 -11344.845841 -494.434392
v 5855.811991 -11342.133404 -493.109728
v 5810.734402 -11343.107412 -493.416240
v 5922.478658 -11340.692912 -493.343904
v 5878.873373 -11341.635108 -493.133086
v 5862.648190 -11341.985692 -493.116652
v 5989.145325 -11339.252421 -494.149294
v 5947.012344 -11340.162804 -493.462517
v 6055.811991 -11337.811929 -496.227261
v 6015.151315 -11338.690499 -495.081127
v 6122.478658 -11336.371437 -497.097171
v 6083.290285 -11337.218195 -496.894477
v 6061.201864 -11337.695468 -496.358136
v 6189.145325 -11334.930946 -496.228306
v 6151.429256 -11335.745891 -496.907648
v 6255.811991 -11333.490454 -494.628573
v 6219.568227 -11334.273587 -495.561490
v 6193.570981 -11334.835319 -496.131304
v 6322.478658 -11332.049962 -493.693818
v 6287.707198 -11332.801282 -494.181360
v 6389.145325 -11330.609471 -493.285784
v 6355.846169 -11331.328978 -493.616986
v 6455.811991 -11329.168979 -493.021895
v 6423.985140 -11329.856674 -493.211444
v 6392.124655 -11330.545095 -493.279427
v 6522.478658 -11327.728488 -492.653250
v 6492.124111 -11328.384370 -492.947479
v 6589.145325 -11326.287996 -491.967397
v 6560.263082 -11326.912065 -492.139408
v 6655.811991 -11324.847504 -491.309939
v 6628.402053 -11325.439761 -491.580252
v 6590.678330 -11326.254872 -491.952278
v 6722.478658 -11323.407013 -490.615509
v 6696.541024 -11323.967457 -491.067372
v 6789.145325 -11321.966521 -490.308760
v 6764.679995 -11322.495153 -490.539709
v 6723.047446 -11323.394723 -490.614487
v 6855.811991 -11320.526030 -489.073938
v 6855.416563 -11320.534574 -489.079282
v 6832.818966 -11321.022848 -489.384687
v 6922.478658 -11319.085538 -487.021689
v 6921.601121 -11319.104499 -487.037347
v 6900.957936 -11319.550544 -487.405687
v 6989.145325 -11317.645046 -485.204138
v 6987.785679 -11317.674425 -485.233939
v 6969.096907 -11318.078240 -485.643564
v 7055.811991 -11316.204555 -484.263756
v 7053.970237 -11316.244350 -484.289735
v 7037.235878 -11316.605936 -484.525785
v 7122.478658 -11314.764063 -483.778839
v 7120.154795 -11314.814276 -483.802345
v 7105.374849 -11315.133631 -483.951845
v 7189.145325 -11313.323571 -482.724601
v 7186.339353 -11313.384201 -482.785393
v 7173.513820 -11313.661327 -483.063258
v 7255.811991 -11311.883080 -482.115631
v 7252.523912 -11311.954127 -482.135769
v 7241.652791 -11312.189023 -482.202348
v 7322.478658 -11310.442588 -482.567581
v 7318.708470 -11310.524052 -482.460353
v 7309.791762 -11310.716719 -482.206753
v 7389.145325 -11309.002097 -480.946396
v 7384.893028 -11309.093978 -481.009249
v 7377.930733 -11309.244414 -481.112158
v 7455.811991 -11307.561605 -478.100848
v 7451.077586 -11307.663903 -478.318378
v 7446.069704 -11307.772110 -478.548472
v 7522.478658 -11306.121113 -475.984591
v 7517.262144 -11306.233828 -476.202574
v 7514.208675 -11306.299806 -476.330169
v 7589.145325 -11304.680622 -474.969742
v 7583.446703 -11304.803754 -475.095607
v 7582.347646 -11304.827502 -475.119882
v 7655.811991 -11303.240130 -474.258170
v 7650.486617 -11303.355197 -474.333737
v 7722.478658 -11301.799638 -473.587303
v 7718.625587 -11301.882893 -473.612202
v 7715.815819 -11301.943605 -473.641097
v 7789.145325 -11300.359147 -473.946849
v 7786.764558 -11300.410589 -473.925236
v 7855.811991 -11298.918655 -472.479169
v 7854.903529 -11298.938285 -472.488895
v 7922.478658 -11298.029823 -469.916667
v 7896.947604 -11298.029823 -470.913973
v 7989.145325 -11298.029823 -467.572917
v 8055.811991 -11298.029823 -465.750000
v 8122.478658 -11298.029823 -463.666667
v 8189.145325 -11298.029823 -461.843750
v 8255.811991 -11298.029823 -460.541667
v 8322.478658 -11298.029823 -458.979167
v 8389.145325 -11298.029823 -458.197917
v 8455.811991 -11298.029823 -457.677083
v 8522.478658 -11298.029823 -455.854167
v 8589.145325 -11298.029823 -454.291667
v 8655.811991 -11298.029823 -454.291667
v 8722.478658 -11298.029823 -455.333333
v 8789.145325 -11298.029823 -456.114583
v 8855.811991 -11298.029823 -457.156250
v 8922.478658 -11298.029823 -456.635417
v 8989.145325 -11298.029823 -454.291667
v 9055.811991 -11298.029823 -453.250000
v 9122.478658 -11298.029823 -452.729167
v 9189.145325 -11298.029823 -452.468750
v 9255.811991 -11298.029823 -452.729167
v 9322.478658 -11356.324687 -439.457534
v 9321.196599 -11350.656607 -440.919626
v 9299.937759 -11320.570722 -449.188479
v 9289.673595 -11306.044697 -451.825121
v 9276.973134 -11298.029823 -453.142470
v 9324.022964 -11363.152183 -437.756692
v 7922.478658 -11297.478164 -469.936061
v 7914.369493 -11297.653381 -470.246665
v 7989.145325 -11296.037672 -467.642953
v 7980.554052 -11296.223307 -467.938464
v 7923.042500 -11297.465980 -469.916667
v 8055.811991 -11294.597180 -465.857270
v 8046.738610 -11294.793232 -466.099244
v 7991.181471 -11295.993676 -467.580870
v 8122.478658 -11293.156689 -463.837988
v 8112.923168 -11293.363158 -464.129338
v 8059.320442 -11294.521372 -465.763705
v 8189.145325 -11291.716197 -462.090376
v 8179.107726 -11291.933083 -462.356369
v 8127.459413 -11293.049068 -463.725035
v 8255.811991 -11290.275705 -460.874851
v 8245.292284 -11290.503009 -461.070547
v 8195.598384 -11291.576763 -461.994994
v 8322.478658 -11288.835214 -459.410164
v 8311.476842 -11289.072934 -459.656876
v 8263.737355 -11290.104459 -460.727417
v 8389.145325 -11287.394722 -458.571807
v 8377.661401 -11287.642860 -458.697661
v 8331.876326 -11288.632155 -459.199425
v 8455.811991 -11285.954231 -458.007275
v 8443.845959 -11286.212785 -458.093690
v 8400.015297 -11287.159851 -458.410221
v 8522.478658 -11284.513739 -456.382139
v 8510.030517 -11284.782711 -456.712011
v 8468.154268 -11285.687546 -457.821719
v 8589.145325 -11283.073247 -455.168028
v 8576.215075 -11283.352636 -455.454711
v 8536.293238 -11284.215242 -456.339836
v 8655.811991 -11281.571052 -455.706092
v 8642.085227 -11281.929355 -455.675301
v 8604.432209 -11282.742938 -455.605383
v 8722.478658 -11279.830886 -457.394932
v 8702.645469 -11280.348581 -457.026393
v 8672.711891 -11281.129923 -456.470169
v 8789.145325 -11278.090719 -458.840633
v 8763.520083 -11278.759602 -458.448888
v 8741.165365 -11279.343116 -458.107141
v 8855.811991 -11276.350552 -460.713005
v 8824.394697 -11277.170622 -460.087567
v 8809.618838 -11277.556309 -459.793418
v 8922.478658 -11274.610386 -461.941383
v 8885.269311 -11275.581643 -462.012030
v 8878.072312 -11275.769502 -462.025695
v 8989.145325 -11272.870219 -461.171246
v 8946.525785 -11273.982695 -462.365396
v 8946.143926 -11273.992663 -462.358663
v 9055.811991 -11271.130052 -460.395252
v 9014.979259 -11272.195889 -460.750150
v 9122.478658 -11269.389886 -460.224775
v 9083.432732 -11270.409082 -460.263079
v 9067.893154 -11270.814704 -460.337440
v 9189.145325 -11267.649719 -460.894482
v 9151.886206 -11268.622275 -460.770293
v 9255.811991 -11284.675670 -457.006669
v 9243.477897 -11276.891998 -459.451696
v 9215.152733 -11272.022414 -460.900840
v 9189.642383 -11267.636744 -460.921380
v 9263.999351 -11289.842463 -455.543571
vt 26.945727 -58.161411
vt 26.945727 -58.156816
vt 26.941030 -58.161512
vt 26.612393 -58.156816
vt 26.612393 -58.168613
vt 26.696102 -58.166805
vt 27.158396 -58.156816
vt 26.945727 -57.823482
vt 26.612393 -57.823482
vt 27.279060 -57.823482
vt 27.279060 -58.154209
vt 27.612393 -57.823482
vt 27.281725 -58.154151
vt 27.357947 -58.152504
vt 27.612393 -58.147006
vt 27.945727 -58.139804
vt 27.945727 -57.823482
vt 27.622420 -58.146789
vt 28.279060 -57.823482
vt 27.963114 -58.139428
vt 28.019793 -58.138203
vt 28.279060 -58.132601
vt 28.612393 -57.823482
vt 28.303809 -58.132066
vt 28.350716 -58.131053
vt 28.612393 -58.125399
vt 28.945727 -58.118196
vt 28.945727 -57.823482
vt 28.644504 -58.124705
vt 29.279060 -57.823482
vt 28.985199 -58.117343
vt 29.012561 -58.116752
vt 29.279060 -58.110994
vt 29.612393 -58.103791
vt 29.612393 -57.823482
vt 29.325894 -58.109982
vt 29.945727 -57.823482
vt 29.666589 -58.102620
vt 29.674407 -58.102451
vt 29.945727 -58.096589
vt 30.279060 -58.089386
vt 30.279060 -57.823482
vt 30.007284 -58.095259
vt 30.005330 -58.095301
vt 30.612393 -58.082184
vt 30.612393 -57.823482
vt 30.347978 -58.087897
vt 30.336253 -58.088151
vt 30.945727 -58.074982
vt 30.945727 -57.823482
vt 30.688673 -58.080536
vt 30.667175 -58.081000
vt 31.279060 -58.067779
vt 31.279060 -57.823482
vt 31.029368 -58.073174
vt 30.998098 -58.073850
vt 31.612393 -58.060577
vt 31.612393 -57.823482
vt 31.370063 -58.065813
vt 31.329021 -58.066700
vt 31.945727 -58.053374
vt 31.945727 -57.823482
vt 31.710758 -58.058451
vt 31.659944 -58.059549
vt 32.279060 -58.046172
vt 32.279060 -57.823482
vt 32.051453 -58.051090
vt 31.990867 -58.052399
vt 32.612393 -58.038969
vt 32.612393 -57.823482
vt 32.392148 -58.043728
vt 32.321789 -58.045248
vt 32.945727 -58.031767
vt 32.945727 -57.823482
vt 32.732842 -58.036367
vt 32.652712 -58.038098
vt 33.279060 -58.024564
vt 33.279060 -57.823482
vt 33.073537 -58.029005
vt 32.983635 -58.030948
vt 33.612393 -58.017362
vt 33.612393 -57.823482
vt 33.414232 -58.021644
vt 33.314558 -58.023797
vt 33.945727 -58.010159
vt 33.945727 -57.823482
vt 33.754927 -58.014282
vt 33.645480 -58.016647
vt 34.279060 -58.002957
vt 34.279060 -57.823482
vt 34.095622 -58.006921
vt 33.976403 -58.009497
vt 34.612393 -57.995754
vt 34.612393 -57.823482
vt 34.436317 -57.999559
vt 34.307326 -58.002346
vt 34.945727 -57.988552
vt 34.945727 -57.823482
vt 34.777012 -57.992197
vt 34.638249 -57.995196
vt 35.279060 -57.981350
vt 35.279060 -57.823482
vt 35.117706 -57.984836
vt 34.969172 -57.988045
vt 35.612393 -57.974147
vt 35.612393 -57.823482
vt 35.458401 -57.977474
vt 35.300094 -57.980895
vt 35.945727 -57.966945
vt 35.945727 -57.823482
vt 35.799096 -57.970113
vt 35.631017 -57.973745
vt 36.279060 -57.959742
vt 36.279060 -57.823482
vt 36.139791 -57.962751
vt 35.961940 -57.966594
vt 36.612393 -57.952540
vt 36.612393 -57.823482
vt 36.480486 -57.955390
vt 36.292863 -57.959444
vt 36.945727 -57.945337
vt 36.945727 -57.823482
vt 36.821181 -57.948028
vt 36.623786 -57.952294
vt 37.279060 -57.938135
vt 37.279060 -57.823482
vt 37.161876 -57.940667
vt 36.954708 -57.945143
vt 37.612393 -57.930932
vt 37.612393 -57.823482
vt 37.502570 -57.933305
vt 37.285631 -57.937993
vt 37.945727 -57.923730
vt 37.945727 -57.823482
vt 37.843265 -57.925944
vt 37.616554 -57.930842
vt 38.279060 -57.823482
vt 38.183960 -57.918582
vt 38.278400 -57.916542
vt 38.279060 -57.916527
vt 37.947477 -57.923692
vt 38.612393 -57.909325
vt 38.612393 -57.823482
vt 38.524655 -57.911221
vt 38.945727 -57.823482
vt 38.865350 -57.903859
vt 38.940245 -57.902241
vt 38.945727 -57.902123
vt 39.279060 -57.823482
vt 39.206045 -57.896498
vt 39.271168 -57.895091
vt 39.279060 -57.894920
vt 39.612393 -57.887718
vt 39.612393 -57.823482
vt 39.546740 -57.889136
vt 39.945727 -57.880515
vt 39.945727 -57.823482
vt 39.887434 -57.881775
vt 40.279060 -57.823482
vt 40.228129 -57.874413
vt 40.263936 -57.873639
vt 40.279060 -57.873313
vt 40.612393 -57.866110
vt 40.612393 -57.823482
vt 40.568824 -57.867052
vt 40.945727 -57.823482
vt 40.909519 -57.859690
vt 40.925782 -57.859339
vt 40.945727 -57.858908
vt 41.279060 -57.851705
vt 41.279060 -57.823482
vt 41.250214 -57.852329
vt 41.612393 -57.844503
vt 41.612393 -57.823482
vt 41.590909 -57.844967
vt 41.587627 -57.845038
vt 41.945727 -57.837300
vt 41.945727 -57.823482
vt 41.931604 -57.837606
vt 41.918550 -57.837888
vt 42.279060 -57.830098
vt 42.279060 -57.823482
vt 42.272298 -57.830244
vt 42.249473 -57.830737
vt 42.580396 -57.823587
vt 42.585228 -57.823482
vt 26.945727 -57.490149
vt 26.612393 -57.490149
vt 27.279060 -57.490149
vt 27.612393 -57.490149
vt 27.945727 -57.490149
vt 28.279060 -57.490149
vt 28.612393 -57.490149
vt 28.945727 -57.490149
vt 29.279060 -57.490149
vt 29.612393 -57.490149
vt 29.945727 -57.490149
vt 30.279060 -57.490149
vt 30.612393 -57.490149
vt 30.945727 -57.490149
vt 31.279060 -57.490149
vt 31.612393 -57.490149
vt 31.945727 -57.490149
vt 32.279060 -57.490149
vt 32.612393 -57.490149
vt 32.945727 -57.490149
vt 33.279060 -57.490149
vt 33.612393 -57.490149
vt 33.945727 -57.490149
vt 34.279060 -57.490149
vt 34.612393 -57.490149
vt 34.945727 -57.490149
vt 35.279060 -57.490149
vt 35.612393 -57.490149
vt 35.945727 -57.490149
vt 36.279060 -57.490149
vt 36.612393 -57.490149
vt 36.945727 -57.490149
vt 37.279060 -57.490149
vt 37.612393 -57.490149
vt 37.945727 -57.490149
vt 38.279060 -57.490149
vt 38.612393 -57.490149
vt 38.945727 -57.490149
vt 39.279060 -57.490149
vt 39.612393 -57.490149
vt 39.945727 -57.490149
vt 40.279060 -57.490149
vt 40.612393 -57.490149
vt 40.945727 -57.490149
vt 41.279060 -57.490149
vt 41.612393 -57.490149
vt 41.945727 -57.490149
vt 42.279060 -57.490149
vt 42.612393 -57.490149
vt 42.612393 -57.822895
vt 42.945727 -57.815693
vt 42.945727 -57.490149
vt 42.612993 -57.822883
vt 43.279060 -57.808332
vt 43.279060 -57.490149
vt 42.953688 -57.815521
vt 43.242241 -57.809286
vt 43.245385 -57.809211
vt 43.612393 -57.799631
vt 43.612393 -57.490149
vt 43.294616 -57.807926
vt 43.945727 -57.490149
vt 43.636884 -57.798992
vt 43.854131 -57.793321
vt 43.945727 -57.790930
vt 44.279060 -57.782230
vt 44.279060 -57.490149
vt 43.979151 -57.790058
vt 44.612393 -57.490149
vt 44.321418 -57.781124
vt 44.462878 -57.777432
vt 44.612393 -57.773529
vt 44.945727 -57.764828
vt 44.945727 -57.490149
vt 44.663686 -57.772190
vt 45.279060 -57.490149
vt 45.005953 -57.763256
vt 45.071624 -57.761542
vt 45.279060 -57.756127
vt 45.612393 -57.747426
vt 45.612393 -57.490149
vt 45.348221 -57.754322
vt 45.945727 -57.738725
vt 45.945727 -57.490149
vt 45.690488 -57.745388
vt 45.680370 -57.745652
vt 46.279060 -57.657722
vt 46.279060 -57.490149
vt 46.045170 -57.724039
vt 46.251140 -57.677451
vt 45.984743 -57.737707
vt 46.492934 -57.490149
vt 46.474199 -57.519836
vt 26.945727 -57.156816
vt 26.612393 -57.156816
vt 27.279060 -57.156816
vt 27.612393 -57.156816
vt 27.945727 -57.156816
vt 28.279060 -57.156816
vt 28.612393 -57.156816
vt 28.945727 -57.156816
vt 29.279060 -57.156816
vt 29.612393 -57.156816
vt 29.945727 -57.156816
vt 30.279060 -57.156816
vt 30.612393 -57.156816
vt 30.945727 -57.156816
vt 31.279060 -57.156816
vt 31.612393 -57.156816
vt 31.945727 -57.156816
vt 32.279060 -57.156816
vt 32.612393 -57.156816
vt 32.945727 -57.156816
vt 33.279060 -57.156816
vt 33.612393 -57.156816
vt 33.945727 -57.156816
vt 34.279060 -57.156816
vt 34.612393 -57.156816
vt 34.945727 -57.156816
vt 35.279060 -57.156816
vt 35.612393 -57.156816
vt 35.945727 -57.156816
vt 36.279060 -57.156816
vt 36.612393 -57.156816
vt 36.945727 -57.156816
vt 37.279060 -57.156816
vt 37.612393 -57.156816
vt 37.945727 -57.156816
vt 38.279060 -57.156816
vt 38.612393 -57.156816
vt 38.945727 -57.156816
vt 39.279060 -57.156816
vt 39.612393 -57.156816
vt 39.945727 -57.156816
vt 40.279060 -57.156816
vt 40.612393 -57.156816
vt 40.945727 -57.156816
vt 41.279060 -57.156816
vt 41.612393 -57.156816
vt 41.945727 -57.156816
vt 42.279060 -57.156816
vt 42.612393 -57.156816
vt 42.945727 -57.156816
vt 43.279060 -57.156816
vt 43.612393 -57.156816
vt 43.945727 -57.156816
vt 44.279060 -57.156816
vt 44.612393 -57.156816
vt 44.945727 -57.156816
vt 45.279060 -57.156816
vt 45.612393 -57.156816
vt 45.945727 -57.156816
vt 46.279060 -57.156816
vt 46.612393 -57.156816
vt 46.612393 -57.300852
vt 46.642663 -57.156816
vt 46.619963 -57.288857
vt 26.945727 -56.823482
vt 26.612393 -56.823482
vt 27.279060 -56.823482
vt 27.612393 -56.823482
vt 27.945727 -56.823482
vt 28.279060 -56.823482
vt 28.612393 -56.823482
vt 28.945727 -56.823482
vt 29.279060 -56.823482
vt 29.612393 -56.823482
vt 29.945727 -56.823482
vt 30.279060 -56.823482
vt 30.612393 -56.823482
vt 30.945727 -56.823482
vt 31.279060 -56.823482
vt 31.612393 -56.823482
vt 31.945727 -56.823482
vt 32.279060 -56.823482
vt 32.612393 -56.823482
vt 32.945727 -56.823482
vt 33.279060 -56.823482
vt 33.612393 -56.823482
vt 33.945727 -56.823482
vt 34.279060 -56.823482
vt 34.612393 -56.823482
vt 34.945727 -56.823482
vt 35.279060 -56.823482
vt 35.612393 -56.823482
vt 35.945727 -56.823482
vt 36.279060 -56.823482
vt 36.612393 -56.823482
vt 36.945727 -56.823482
vt 37.279060 -56.823482
vt 37.612393 -56.823482
vt 37.945727 -56.823482
vt 38.279060 -56.823482
vt 38.612393 -56.823482
vt 38.945727 -56.823482
vt 39.279060 -56.823482
vt 39.612393 -56.823482
vt 39.945727 -56.823482
vt 40.279060 -56.823482
vt 40.612393 -56.823482
vt 40.945727 -56.823482
vt 41.279060 -56.823482
vt 41.612393 -56.823482
vt 41.945727 -56.823482
vt 42.279060 -56.823482
vt 42.612393 -56.823482
vt 42.945727 -56.823482
vt 43.279060 -56.823482
vt 43.612393 -56.823482
vt 43.945727 -56.823482
vt 44.279060 -56.823482
vt 44.612393 -56.823482
vt 44.945727 -56.823482
vt 45.279060 -56.823482
vt 45.612393 -56.823482
vt 45.945727 -56.823482
vt 46.279060 -56.823482
vt 46.612393 -56.823482
vt 46.648947 -57.120262
vt 46.666239 -57.019680
vt 46.621861 -56.823482
vt 26.945727 -56.761084
vt 26.668808 -56.767068
vt 26.612393 -56.768287
vt 27.279060 -56.753882
vt 27.009503 -56.759706
vt 26.996781 -56.759981
vt 27.612393 -56.746679
vt 27.350198 -56.752345
vt 27.945727 -56.739477
vt 27.690893 -56.744983
vt 27.658627 -56.745680
vt 28.279060 -56.732274
vt 28.031587 -56.737622
vt 27.989550 -56.738530
vt 28.612393 -56.725072
vt 28.372282 -56.730260
vt 28.945727 -56.717869
vt 28.712977 -56.722899
vt 28.651395 -56.724229
vt 29.279060 -56.710667
vt 29.053672 -56.715537
vt 29.612393 -56.703465
vt 29.394367 -56.708176
vt 29.313241 -56.709928
vt 29.945727 -56.696262
vt 29.735062 -56.700814
vt 30.279060 -56.689060
vt 30.075757 -56.693452
vt 30.612393 -56.681857
vt 30.416451 -56.686091
vt 30.306009 -56.688477
vt 30.945727 -56.674655
vt 30.757146 -56.678729
vt 31.279060 -56.667452
vt 31.097841 -56.671368
vt 30.967855 -56.674177
vt 31.612393 -56.660250
vt 31.438536 -56.664006
vt 31.945727 -56.653047
vt 31.779231 -56.656645
vt 32.279060 -56.645845
vt 32.119926 -56.649283
vt 31.960623 -56.652725
vt 32.612393 -56.638642
vt 32.460621 -56.641922
vt 32.945727 -56.631440
vt 32.801315 -56.634560
vt 33.279060 -56.624238
vt 33.142010 -56.627199
vt 32.953392 -56.631274
vt 33.612393 -56.617035
vt 33.482705 -56.619837
vt 33.945727 -56.609833
vt 33.823400 -56.612476
vt 33.615237 -56.616974
vt 34.279060 -56.602630
vt 34.277083 -56.602673
vt 34.164095 -56.605114
vt 34.612393 -56.595428
vt 34.608006 -56.595522
vt 34.504790 -56.597753
vt 34.945727 -56.588225
vt 34.938928 -56.588372
vt 34.845485 -56.590391
vt 35.279060 -56.581023
vt 35.269851 -56.581222
vt 35.186179 -56.583030
vt 35.612393 -56.573820
vt 35.600774 -56.574071
vt 35.526874 -56.575668
vt 35.945727 -56.566618
vt 35.931697 -56.566921
vt 35.867569 -56.568307
vt 36.279060 -56.559415
vt 36.262620 -56.559771
vt 36.208264 -56.560945
vt 36.612393 -56.552213
vt 36.593542 -56.552620
vt 36.548959 -56.553584
vt 36.945727 -56.545010
vt 36.924465 -56.545470
vt 36.889654 -56.546222
vt 37.279060 -56.537808
vt 37.255388 -56.538320
vt 37.230349 -56.538861
vt 37.612393 -56.530606
vt 37.586311 -56.531169
vt 37.571043 -56.531499
vt 37.945727 -56.523403
vt 37.917234 -56.524019
vt 37.911738 -56.524138
vt 38.279060 -56.516201
vt 38.252433 -56.516776
vt 38.612393 -56.508998
vt 38.593128 -56.509414
vt 38.579079 -56.509718
vt 38.945727 -56.501796
vt 38.933823 -56.502053
vt 39.279060 -56.494593
vt 39.274518 -56.494691
vt 39.612393 -56.490149
vt 39.484738 -56.490149
vt 39.945727 -56.490149
vt 40.279060 -56.490149
vt 40.612393 -56.490149
vt 40.945727 -56.490149
vt 41.279060 -56.490149
vt 41.612393 -56.490149
vt 41.945727 -56.490149
vt 42.279060 -56.490149
vt 42.612393 -56.490149
vt 42.945727 -56.490149
vt 43.279060 -56.490149
vt 43.612393 -56.490149
vt 43.945727 -56.490149
vt 44.279060 -56.490149
vt 44.612393 -56.490149
vt 44.945727 -56.490149
vt 45.279060 -56.490149
vt 45.612393 -56.490149
vt 45.945727 -56.490149
vt 46.279060 -56.490149
vt 46.612393 -56.781623
vt 46.605983 -56.753283
vt 46.499689 -56.602854
vt 46.448368 -56.530223
vt 46.384866 -56.490149
vt 46.620115 -56.815761
vt 39.612393 -56.487391
vt 39.571847 -56.488267
vt 39.945727 -56.480188
vt 39.902770 -56.481117
vt 39.615213 -56.487330
vt 40.279060 -56.472986
vt 40.233693 -56.473966
vt 39.955907 -56.479968
vt 40.612393 -56.465783
vt 40.564616 -56.466816
vt 40.296602 -56.472607
vt 40.945727 -56.458581
vt 40.895539 -56.459665
vt 40.637297 -56.465245
vt 41.279060 -56.451379
vt 41.226461 -56.452515
vt 40.977992 -56.457884
vt 41.612393 -56.444176
vt 41.557384 -56.445365
vt 41.318687 -56.450522
vt 41.945727 -56.436974
vt 41.888307 -56.438214
vt 41.659382 -56.443161
vt 42.279060 -56.429771
vt 42.219230 -56.431064
vt 42.000076 -56.435799
vt 42.612393 -56.422569
vt 42.550153 -56.423914
vt 42.340771 -56.428438
vt 42.945727 -56.415366
vt 42.881075 -56.416763
vt 42.681466 -56.421076
vt 43.279060 -56.407855
vt 43.210426 -56.409647
vt 43.022161 -56.413715
vt 43.612393 -56.399154
vt 43.513227 -56.401743
vt 43.363559 -56.405650
vt 43.945727 -56.390454
vt 43.817600 -56.393798
vt 43.705827 -56.396716
vt 44.279060 -56.381753
vt 44.121973 -56.385853
vt 44.048094 -56.387782
vt 44.612393 -56.373052
vt 44.426347 -56.377908
vt 44.390362 -56.378848
vt 44.945727 -56.364351
vt 44.732629 -56.369913
vt 44.730720 -56.369963
vt 45.279060 -56.355650
vt 45.074896 -56.360979
vt 45.612393 -56.346949
vt 45.417164 -56.352045
vt 45.339466 -56.354074
vt 45.945727 -56.338249
vt 45.759431 -56.343111
vt 46.279060 -56.423378
vt 46.217389 -56.384460
vt 46.075764 -56.360112
vt 45.948212 -56.338184
vt 46.319997 -56.449212
f 1/1 2/2 3/3
f 2/2 4/4 5/5
f 2/2 5/5 6/6
f 2/2 6/6 3/3
f 7/7 2/2 1/1
f 2/2 8/8 4/4
f 8/8 9/9 4/4
f 10/10 2/2 7/7
f 10/10 7/7 11/11
f 10/10 8/8 2/2
f 12/12 13/13 14/14
f 12/12 14/14 15/15
f 12/12 10/10 11/11
f 12/12 11/11 13/13
f 16/16 17/17 18/18
f 17/17 12/12 15/15
f 17/17 15/15 18/18
f 19/19 20/20 21/21
f 19/19 21/21 22/22
f 19/19 17/17 16/16
f 19/19 16/16 20/20
f 23/23 24/24 25/25
f 23/23 25/25 26/26
f 23/23 19/19 22/22
f 23/23 22/22 24/24
f 27/27 28/28 29/29
f 28/28 23/23 26/26
f 28/28 26/26 29/29
f 30/30 31/31 32/32
f 30/30 32/32 33/33
f 30/30 28/28 27/27
f 30/30 27/27 31/31
f 34/34 35/35 36/36
f 35/35 30/30 33/33
f 35/35 33/33 36/36
f 37/37 38/38 39/39
f 37/37 39/39 40/40
f 37/37 35/35 34/34
f 37/37 34/34 38/38
f 41/41 42/42 43/43
f 42/42 37/37 40/40
f 42/42 40/40 44/44
f 42/42 44/44 43/43
f 45/45 46/46 47/47
f 46/46 42/42 41/41
f 46/46 41/41 48/48
f 46/46 48/48 47/47
f 49/49 50/50 51/51
f 50/50 46/46 45/45
f 50/50 45/45 52/52
f 50/50 52/52 51/51
f 53/53 54/54 55/55
f 54/54 50/50 49/49
f 54/54 49/49 56/56
f 54/54 56/56 55/55
f 57/57 58/58 59/59
f 58/58 54/54 53/53
f 58/58 53/53 60/60
f 58/58 60/60 59/59
f 61/61 62/62 63/63
f 62/62 58/58 57/57
f 62/62 57/57 64/64
f 62/62 64/64 63/63
f 65/65 66/66 67/67
f 66/66 62/62 61/61
f 66/66 61/61 68/68
f 66/66 68/68 67/67
f 69/69 70/70 71/71
f 70/70 66/66 65/65
f 70/70 65/65 72/72
f 70/70 72/72 71/71
f 73/73 74/74 75/75
f 74/74 70/70 69/69
f 74/74 69/69 76/76
f 74/74 76/76 75/75
f 77/77 78/78 79/79
f 78/78 74/74 73/73
f 78/78 73/73 80/80
f 78/78 80/80 79/79
f 81/81 82/82 83/83
f 82/82 78/78 77/77
f 82/82 77/77 84/84
f 82/82 84/84 83/83
f 85/85 86/86 87/87
f 86/86 82/82 81/81
f 86/86 81/81 88/88
f 86/86 88/88 87/87
f 89/89 90/90 91/91
f 90/90 86/86 85/85
f 90/90 85/85 92/92
f 90/90 92/92 91/91
f 93/93 94/94 95/95
f 94/94 90/90 89/89
f 94/94 89/89 96/96
f 94/94 96/96 95/95
f 97/97 98/98 99/99
f 98/98 94/94 93/93
f 98/98 93/93 100/100
f 98/98 100/100 99/99
f 101/101 102/102 103/103
f 102/102 98/98 97/97
f 102/102 97/97 104/104
f 102/102 104/104 103/103
f 105/105 106/106 107/107
f 106/106 102/102 101/101
f 106/106 101/101 108/108
f 106/106 108/108 107/107
f 109/109 110/110 111/111
f 110/110 106/106 105/105
f 110/110 105/105 112/112
f 110/110 112/112 111/111
f 113/113 114/114 115/115
f 114/114 110/110 109/109
f 114/114 109/109 116/116
f 114/114 116/116 115/115
f 117/117 118/118 119/119
f 118/118 114/114 113/113
f 118/118 113/113 120/120
f 118/118 120/120 119/119
f 121/121 122/122 123/123
f 122/122 118/118 117/117
f 122/122 117/117 124/124
f 122/122 124/124 123/123
f 125/125 126/126 127/127
f 126/126 122/122 121/121
f 126/126 121/121 128/128
f 126/126 128/128 127/127
f 129/129 130/130 131/131
f 130/130 126/126 125/125
f 130/130 125/125 132/132
f 130/130 132/132 131/131
f 133/133 134/134 135/135
f 134/134 130/130 129/129
f 134/134 129/129 136/136
f 134/134 136/136 135/135
f 137/137 138/138 139/139
f 137/137 139/139 140/140
f 137/137 134/134 133/133
f 137/137 133/133 141/141
f 137/137 141/141 138/138
f 142/142 143/143 144/144
f 143/143 137/137 140/140
f 143/143 140/140 144/144
f 145/145 146/146 147/147
f 145/145 147/147 148/148
f 145/145 143/143 142/142
f 145/145 142/142 146/146
f 149/149 150/150 151/151
f 149/149 151/151 152/152
f 149/149 145/145 148/148
f 149/149 148/148 150/150
f 153/153 154/154 155/155
f 154/154 149/149 152/152
f 154/154 152/152 155/155
f 156/156 157/157 158/158
f 157/157 154/154 153/153
f 157/157 153/153 158/158
f 159/159 160/160 161/161
f 159/159 161/161 162/162
f 159/159 157/157 156/156
f 159/159 156/156 160/160
f 163/163 164/164 165/165
f 164/164 159/159 162/162
f 164/164 162/162 165/165
f 166/166 167/167 168/168
f 166/166 168/168 169/169
f 166/166 164/164 163/163
f 166/166 163/163 167/167
f 170/170 171/171 172/172
f 171/171 166/166 169/169
f 171/171 169/169 172/172
f 173/173 174/174 175/175
f 174/174 171/171 170/170
f 174/174 170/170 176/176
f 174/174 176/176 175/175
f 177/177 178/178 179/179
f 178/178 174/174 173/173
f 178/178 173/173 180/180
f 178/178 180/180 179/179
f 181/181 182/182 183/183
f 182/182 178/178 177/177
f 182/182 177/177 184/184
f 182/182 184/184 183/183
f 182/182 181/181 185/185
f 182/182 185/185 186/186
f 8/8 187/187 9/9
f 187/187 188/188 9/9
f 10/10 189/189 8/8
f 189/189 187/187 8/8
f 12/12 190/190 10/10
f 190/190 189/189 10/10
f 17/17 191/191 12/12
f 191/191 190/190 12/12
f 19/19 192/192 17/17
f 192/192 191/191 17/17
f 23/23 193/193 19/19
f 193/193 192/192 19/19
f 28/28 194/194 23/23
f 194/194 193/193 23/23
f 30/30 195/195 28/28
f 195/195 194/194 28/28
f 35/35 196/196 30/30
f 196/196 195/195 30/30
f 37/37 197/197 35/35
f 197/197 196/196 35/35
f 42/42 198/198 37/37
f 198/198 197/197 37/37
f 46/46 199/199 42/42
f 199/199 198/198 42/42
f 50/50 200/200 46/46
f 200/200 199/199 46/46
f 54/54 201/201 50/50
f 201/201 200/200 50/50
f 58/58 202/202 54/54
f 202/202 201/201 54/54
f 62/62 203/203 58/58
f 203/203 202/202 58/58
f 66/66 204/204 62/62
f 204/204 203/203 62/62
f 70/70 205/205 66/66
f 205/205 204/204 66/66
f 74/74 206/206 70/70
f 206/206 205/205 70/70
f 78/78 207/207 74/74
f 207/207 206/206 74/74
f 82/82 208/208 78/78
f 208/208 207/207 78/78
f 86/86 209/209 82/82
f 209/209 208/208 82/82
f 90/90 210/210 86/86
f 210/210 209/209 86/86
f 94/94 211/211 90/90
f 211/211 210/210 90/90
f 98/98 212/212 94/94
f 212/212 211/211 94/94
f 102/102 213/213 98/98
f 213/213 212/212 98/98
f 106/106 214/214 102/102
f 214/214 213/213 102/102
f 110/110 215/215 106/106
f 215/215 214/214 106/106
f 114/114 216/216 110/110
f 216/216 215/215 110/110
f 118/118 217/217 114/114
f 217/217 216/216 114/114
f 122/122 218/218 118/118
f 218/218 217/217 118/118
f 126/126 219/219 122/122
f 219/219 218/218 122/122
f 130/130 220/220 126/126
f 220/220 219/219 126/126
f 134/134 221/221 130/130
f 221/221 220/220 130/130
f 137/137 222/222 134/134
f 222/222 221/221 134/134
f 143/143 223/223 137/137
f 223/223 222/222 137/137
f 145/145 224/224 143/143
f 224/224 223/223 143/143
f 149/149 225/225 145/145
f 225/225 224/224 145/145
f 154/154 226/226 149/149
f 226/226 225/225 149/149
f 157/157 227/227 154/154
f 227/227 226/226 154/154
f 159/159 228/228 157/157
f 228/228 227/227 157/157
f 164/164 229/229 159/159
f 229/229 228/228 159/159
f 166/166 230/230 164/164
f 230/230 229/229 164/164
f 171/171 231/231 166/166
f 231/231 230/230 166/166
f 174/174 232/232 171/171
f 232/232 231/231 171/171
f 178/178 233/233 174/174
f 233/233 232/232 174/174
f 182/182 234/234 178/178
f 234/234 233/233 178/178
f 235/235 182/182 186/186
f 235/235 186/186 236/236
f 235/235 234/234 182/182
f 237/237 238/238 239/239
f 238/238 235/235 236/236
f 238/238 236/236 239/239
f 240/240 241/241 242/242
f 240/240 242/242 243/243
f 240/240 243/243 244/244
f 241/241 238/238 237/237
f 241/241 237/237 242/242
f 245/245 246/246 247/247
f 246/246 241/241 240/240
f 246/246 240/240 247/247
f 248/248 249/249 250/250
f 248/248 250/250 251/251
f 248/248 246/246 245/245
f 248/248 245/245 249/249
f 252/252 253/253 254/254
f 253/253 248/248 251/251
f 253/253 251/251 254/254
f 255/255 256/256 257/257
f 255/255 257/257 258/258
f 255/255 253/253 252/252
f 255/255 252/252 256/256
f 259/259 260/260 261/261
f 260/260 255/255 258/258
f 260/260 258/258 261/261
f 262/262 263/263 264/264
f 262/262 264/264 265/265
f 262/262 260/260 259/259
f 262/262 259/259 263/263
f 266/266 267/267 268/268
f 267/267 262/262 265/265
f 267/267 265/265 268/268
f 269/269 270/270 271/271
f 270/270 267/267 266/266
f 270/270 266/266 272/272
f 270/270 272/272 271/271
f 273/273 274/274 275/275
f 273/273 275/275 276/276
f 274/274 270/270 269/269
f 274/274 269/269 277/277
f 274/274 277/277 275/275
f 278/278 274/274 273/273
f 278/278 273/273 279/279
f 187/187 280/280 188/188
f 280/280 281/281 188/188
f 189/189 282/282 187/187
f 282/282 280/280 187/187
f 190/190 283/283 189/189
f 283/283 282/282 189/189
f 191/191 284/284 190/190
f 284/284 283/283 190/190
f 192/192 285/285 191/191
f 285/285 284/284 191/191
f 193/193 286/286 192/192
f 286/286 285/285 192/192
f 194/194 287/287 193/193
f 287/287 286/286 193/193
f 195/195 288/288 194/194
f 288/288 287/287 194/194
f 196/196 289/289 195/195
f 289/289 288/288 195/195
f 197/197 290/290 196/196
f 290/290 289/289 196/196
f 198/198 291/291 197/197
f 291/291 290/290 197/197
f 199/199 292/292 198/198
f 292/292 291/291 198/198
f 200/200 293/293 199/199
f 293/293 292/292 199/199
f 201/201 294/294 200/200
f 294/294 293/293 200/200
f 202/202 295/295 201/201
f 295/295 294/294 201/201
f 203/203 296/296 202/202
f 296/296 295/295 202/202
f 204/204 297/297 203/203
f 297/297 296/296 203/203
f 205/205 298/298 204/204
f 298/298 297/297 204/204
f 206/206 299/299 205/205
f 299/299 298/298 205/205
f 207/207 300/300 206/206
f 300/300 299/299 206/206
f 208/208 301/301 207/207
f 301/301 300/300 207/207
f 209/209 302/302 208/208
f 302/302 301/301 208/208
f 210/210 303/303 209/209
f 303/303 302/302 209/209
f 211/211 304/304 210/210
f 304/304 303/303 210/210
f 212/212 305/305 211/211
f 305/305 304/304 211/211
f 213/213 306/306 212/212
f 306/306 305/305 212/212
f 214/214 307/307 213/213
f 307/307 306/306 213/213
f 215/215 308/308 214/214
f 308/308 307/307 214/214
f 216/216 309/309 215/215
f 309/309 308/308 215/215
f 217/217 310/310 216/216
f 310/310 309/309 216/216
f 218/218 311/311 217/217
f 311/311 310/310 217/217
f 219/219 312/312 218/218
f 312/312 311/311 218/218
f 220/220 313/313 219/219
f 313/313 312/312 219/219
f 221/221 314/314 220/220
f 314/314 313/313 220/220
f 222/222 315/315 221/221
f 315/315 314/314 221/221
f 223/223 316/316 222/222
f 316/316 315/315 222/222
f 224/224 317/317 223/223
f 317/317 316/316 223/223
f 225/225 318/318 224/224
f 318/318 317/317 224/224
f 226/226 319/319 225/225
f 319/319 318/318 225/225
f 227/227 320/320 226/226
f 320/320 319/319 226/226
f 228/228 321/321 227/227
f 321/321 320/320 227/227
f 229/229 322/322 228/228
f 322/322 321/321 228/228
f 230/230 323/323 229/229
f 323/323 322/322 229/229
f 231/231 324/324 230/230
f 324/324 323/323 230/230
f 232/232 325/325 231/231
f 325/325 324/324 231/231
f 233/233 326/326 232/232
f 326/326 325/325 232/232
f 234/234 327/327 233/233
f 327/327 326/326 233/233
f 235/235 328/328 234/234
f 328/328 327/327 234/234
f 238/238 329/329 235/235
f 329/329 328/328 235/235
f 241/241 330/330 238/238
f 330/330 329/329 238/238
f 246/246 331/331 241/241
f 331/331 330/330 241/241
f 248/248 332/332 246/246
f 332/332 331/331 246/246
f 253/253 333/333 248/248
f 333/333 332/332 248/248
f 255/255 334/334 253/253
f 334/334 333/333 253/253
f 260/260 335/335 255/255
f 335/335 334/334 255/255
f 262/262 336/336 260/260
f 336/336 335/335 260/260
f 267/267 337/337 262/262
f 337/337 336/336 262/262
f 270/270 338/338 267/267
f 338/338 337/337 267/267
f 274/274 339/339 270/270
f 339/339 338/338 270/270
f 340/340 274/274 278/278
f 340/340 278/278 341/341
f 340/340 339/339 274/274
f 342/342 340/340 341/341
f 342/342 341/341 343/343
f 280/280 344/344 281/281
f 344/344 345/345 281/281
f 282/282 346/346 280/280
f 346/346 344/344 280/280
f 283/283 347/347 282/282
f 347/347 346/346 282/282
f 284/284 348/348 283/283
f 348/348 347/347 283/283
f 285/285 349/349 284/284
f 349/349 348/348 284/284
f 286/286 350/350 285/285
f 350/350 349/349 285/285
f 287/287 351/351 286/286
f 351/351 350/350 286/286
f 288/288 352/352 287/287
f 352/352 351/351 287/287
f 289/289 353/353 288/288
f 353/353 352/352 288/288
f 290/290 354/354 289/289
f 354/354 353/353 289/289
f 291/291 355/355 290/290
f 355/355 354/354 290/290
f 292/292 356/356 291/291
f 356/356 355/355 291/291
f 293/293 357/357 292/292
f 357/357 356/356 292/292
f 294/294 358/358 293/293
f 358/358 357/357 293/293
f 295/295 359/359 294/294
f 359/359 358/358 294/294
f 296/296 360/360 295/295
f 360/360 359/359 295/295
f 297/297 361/361 296/296
f 361/361 360/360 296/296
f 298/298 362/362 297/297
f 362/362 361/361 297/297
f 299/299 363/363 298/298
f 363/363 362/362 298/298
f 300/300 364/364 299/299
f 364/364 363/363 299/299
f 301/301 365/365 300/300
f 365/365 364/364 300/300
f 302/302 366/366 301/301
f 366/366 365/365 301/301
f 303/303 367/367 302/302
f 367/367 366/366 302/302
f 304/304 368/368 303/303
f 368/368 367/367 303/303
f 305/305 369/369 304/304
f 369/369 368/368 304/304
f 306/306 370/370 305/305
f 370/370 369/369 305/305
f 307/307 371/371 306/306
f 371/371 370/370 306/306
f 308/308 372/372 307/307
f 372/372 371/371 307/307
f 309/309 373/373 308/308
f 373/373 372/372 308/308
f 310/310 374/374 309/309
f 374/374 373/373 309/309
f 311/311 375/375 310/310
f 375/375 374/374 310/310
f 312/312 376/376 311/311
f 376/376 375/375 311/311
f 313/313 377/377 312/312
f 377/377 376/376 312/312
f 314/314 378/378 313/313
f 378/378 377/377 313/313
f 315/315 379/379 314/314
f 379/379 378/378 314/314
f 316/316 380/380 315/315
f 380/380 379/379 315/315
f 317/317 381/381 316/316
f 381/381 380/380 316/316
f 318/318 382/382 317/317
f 382/382 381/381 317/317
f 319/319 383/383 318/318
f 383/383 382/382 318/318
f 320/320 384/384 319/319
f 384/384 383/383 319/319
f 321/321 385/385 320/320
f 385/385 384/384 320/320
f 322/322 386/386 321/321
f 386/386 385/385 321/321
f 323/323 387/387 322/322
f 387/387 386/386 322/322
f 324/324 388/388 323/323
f 388/388 387/387 323/323
f 325/325 389/389 324/324
f 389/389 388/388 324/324
f 326/326 390/390 325/325
f 390/390 389/389 325/325
f 327/327 391/391 326/326
f 391/391 390/390 326/326
f 328/328 392/392 327/327
f 392/392 391/391 327/327
f 329/329 393/393 328/328
f 393/393 392/392 328/328
f 330/330 394/394 329/329
f 394/394 393/393 329/329
f 331/331 395/395 330/330
f 395/395 394/394 330/330
f 332/332 396/396 331/331
f 396/396 395/395 331/331
f 333/333 397/397 332/332
f 397/397 396/396 332/332
f 334/334 398/398 333/333
f 398/398 397/397 333/333
f 335/335 399/399 334/334
f 399/399 398/398 334/334
f 336/336 400/400 335/335
f 400/400 399/399 335/335
f 337/337 401/401 336/336
f 401/401 400/400 336/336
f 338/338 402/402 337/337
f 402/402 401/401 337/337
f 339/339 403/403 338/338
f 403/403 402/402 338/338
f 340/340 404/404 339/339
f 404/404 403/403 339/339
f 405/405 340/340 342/342
f 404/404 340/340 405/405
f 404/404 405/405 406/406
f 404/404 406/406 407/407
f 345/345 344/344 408/408
f 345/345 408/408 409/409
f 410/410 345/345 409/409
f 344/344 346/346 411/411
f 344/344 411/411 412/412
f 344/344 412/412 413/413
f 344/344 413/413 408/408
f 346/346 347/347 414/414
f 346/346 414/414 415/415
f 411/411 346/346 415/415
f 347/347 348/348 416/416
f 347/347 416/416 417/417
f 347/347 417/417 418/418
f 347/347 418/418 414/414
f 348/348 349/349 419/419
f 348/348 419/419 420/420
f 348/348 420/420 421/421
f 348/348 421/421 416/416
f 349/349 350/350 422/422
f 349/349 422/422 423/423
f 419/419 349/349 423/423
f 350/350 351/351 424/424
f 350/350 424/424 425/425
f 350/350 425/425 426/426
f 350/350 426/426 422/422
f 351/351 352/352 427/427
f 351/351 427/427 428/428
f 424/424 351/351 428/428
f 352/352 353/353 429/429
f 352/352 429/429 430/430
f 352/352 430/430 431/431
f 352/352 431/431 427/427
f 353/353 354/354 432/432
f 353/353 432/432 433/433
f 429/429 353/353 433/433
f 354/354 355/355 434/434
f 354/354 434/434 435/435
f 432/432 354/354 435/435
f 355/355 356/356 436/436
f 355/355 436/436 437/437
f 355/355 437/437 438/438
f 355/355 438/438 434/434
f 356/356 357/357 439/439
f 356/356 439/439 440/440
f 436/436 356/356 440/440
f 357/357 358/358 441/441
f 357/357 441/441 442/442
f 357/357 442/442 443/443
f 357/357 443/443 439/439
f 358/358 359/359 444/444
f 358/358 444/444 445/445
f 441/441 358/358 445/445
f 359/359 360/360 446/446
f 359/359 446/446 447/447
f 444/444 359/359 447/447
f 360/360 361/361 448/448
f 360/360 448/448 449/449
f 360/360 449/449 450/450
f 360/360 450/450 446/446
f 361/361 362/362 451/451
f 361/361 451/451 452/452
f 448/448 361/361 452/452
f 362/362 363/363 453/453
f 362/362 453/453 454/454
f 451/451 362/362 454/454
f 363/363 364/364 455/455
f 363/363 455/455 456/456
f 363/363 456/456 457/457
f 363/363 457/457 453/453
f 364/364 365/365 458/458
f 364/364 458/458 459/459
f 455/455 364/364 459/459
f 365/365 366/366 460/460
f 365/365 460/460 461/461
f 365/365 461/461 462/462
f 365/365 462/462 458/458
f 366/366 367/367 463/463
f 366/366 463/463 464/464
f 366/366 464/464 465/465
f 460/460 366/366 465/465
f 367/367 368/368 466/466
f 367/367 466/466 467/467
f 367/367 467/467 468/468
f 463/463 367/367 468/468
f 368/368 369/369 469/469
f 368/368 469/469 470/470
f 368/368 470/470 471/471
f 466/466 368/368 471/471
f 369/369 370/370 472/472
f 369/369 472/472 473/473
f 369/369 473/473 474/474
f 469/469 369/369 474/474
f 370/370 371/371 475/475
f 370/370 475/475 476/476
f 370/370 476/476 477/477
f 472/472 370/370 477/477
f 371/371 372/372 478/478
f 371/371 478/478 479/479
f 371/371 479/479 480/480
f 475/475 371/371 480/480
f 372/372 373/373 481/481
f 372/372 481/481 482/482
f 372/372 482/482 483/483
f 478/478 372/372 483/483
f 373/373 374/374 484/484
f 373/373 484/484 485/485
f 373/373 485/485 486/486
f 481/481 373/373 486/486
f 374/374 375/375 487/487
f 374/374 487/487 488/488
f 374/374 488/488 489/489
f 484/484 374/374 489/489
f 375/375 376/376 490/490
f 375/375 490/490 491/491
f 375/375 491/491 492/492
f 487/487 375/375 492/492
f 376/376 377/377 493/493
f 376/376 493/493 494/494
f 376/376 494/494 495/495
f 490/490 376/376 495/495
f 377/377 378/378 496/496
f 377/377 496/496 497/497
f 377/377 497/497 498/498
f 493/493 377/377 498/498
f 378/378 379/379 499/499
f 378/378 499/499 500/500
f 496/496 378/378 500/500
f 379/379 380/380 501/501
f 379/379 501/501 502/502
f 379/379 502/502 503/503
f 379/379 503/503 499/499
f 380/380 381/381 504/504
f 380/380 504/504 505/505
f 501/501 380/380 505/505
f 381/381 382/382 506/506
f 381/381 506/506 507/507
f 504/504 381/381 507/507
f 383/383 508/508 382/382
f 382/382 508/508 509/509
f 382/382 509/509 506/506
f 384/384 510/510 383/383
f 510/510 508/508 383/383
f 385/385 511/511 384/384
f 511/511 510/510 384/384
f 386/386 512/512 385/385
f 512/512 511/511 385/385
f 387/387 513/513 386/386
f 513/513 512/512 386/386
f 388/388 514/514 387/387
f 514/514 513/513 387/387
f 389/389 515/515 388/388
f 515/515 514/514 388/388
f 390/390 516/516 389/389
f 516/516 515/515 389/389
f 391/391 517/517 390/390
f 517/517 516/516 390/390
f 392/392 518/518 391/391
f 518/518 517/517 391/391
f 393/393 519/519 392/392
f 519/519 518/518 392/392
f 394/394 520/520 393/393
f 520/520 519/519 393/393
f 395/395 521/521 394/394
f 521/521 520/520 394/394
f 396/396 522/522 395/395
f 522/522 521/521 395/395
f 397/397 523/523 396/396
f 523/523 522/522 396/396
f 398/398 524/524 397/397
f 524/524 523/523 397/397
f 399/399 525/525 398/398
f 525/525 524/524 398/398
f 400/400 526/526 399/399
f 526/526 525/525 399/399
f 401/401 527/527 400/400
f 527/527 526/526 400/400
f 402/402 528/528 401/401
f 528/528 527/527 401/401
f 403/403 529/529 402/402
f 529/529 528/528 402/402
f 403/403 404/404 530/530
f 403/403 530/530 531/531
f 403/403 531/531 532/532
f 529/529 403/403 532/532
f 529/529 532/532 533/533
f 529/529 533/533 534/534
f 535/535 404/404 407/407
f 530/530 404/404 535/535
f 508/508 536/536 537/537
f 508/508 537/537 509/509
f 508/508 510/510 538/538
f 508/508 538/538 539/539
f 508/508 539/539 540/540
f 536/536 508/508 540/540
f 510/510 511/511 541/541
f 510/510 541/541 542/542
f 510/510 542/542 543/543
f 538/538 510/510 543/543
f 511/511 512/512 544/544
f 511/511 544/544 545/545
f 511/511 545/545 546/546
f 541/541 511/511 546/546
f 512/512 513/513 547/547
f 512/512 547/547 548/548
f 512/512 548/548 549/549
f 544/544 512/512 549/549
f 513/513 514/514 550/550
f 513/513 550/550 551/551
f 513/513 551/551 552/552
f 547/547 513/513 552/552
f 514/514 515/515 553/553
f 514/514 553/553 554/554
f 514/514 554/554 555/555
f 550/550 514/514 555/555
f 515/515 516/516 556/556
f 515/515 556/556 557/557
f 515/515 557/557 558/558
f 553/553 515/515 558/558
f 516/516 517/517 559/559
f 516/516 559/559 560/560
f 516/516 560/560 561/561
f 556/556 516/516 561/561
f 517/517 518/518 562/562
f 517/517 562/562 563/563
f 517/517 563/563 564/564
f 559/559 517/517 564/564
f 518/518 519/519 565/565
f 518/518 565/565 566/566
f 518/518 566/566 567/567
f 562/562 518/518 567/567
f 519/519 520/520 568/568
f 519/519 568/568 569/569
f 519/519 569/569 570/570
f 565/565 519/519 570/570
f 520/520 521/521 571/571
f 520/520 571/571 572/572
f 520/520 572/572 573/573
f 568/568 520/520 573/573
f 521/521 522/522 574/574
f 521/521 574/574 575/575
f 521/521 575/575 576/576
f 571/571 521/521 576/576
f 522/522 523/523 577/577
f 522/522 577/577 578/578
f 522/522 578/578 579/579
f 574/574 522/522 579/579
f 523/523 524/524 580/580
f 523/523 580/580 581/581
f 523/523 581/581 582/582
f 577/577 523/523 582/582
f 524/524 525/525 583/583
f 524/524 583/583 584/584
f 524/524 584/584 585/585
f 524/524 585/585 580/580
f 525/525 526/526 586/586
f 525/525 586/586 587/587
f 583/583 525/525 587/587
f 526/526 527/527 588/588
f 526/526 588/588 589/589
f 526/526 589/589 590/590
f 526/526 590/590 586/586
f 527/527 528/528 591/591
f 527/527 591/591 592/592
f 588/588 527/527 592/592
f 528/528 529/529 593/593
f 528/528 593/593 594/594
f 528/528 594/594 595/595
f 591/591 528/528 595/595
f 591/591 595/595 596/596
f 597/597 529/529 534/534
f 593/593 529/529 597/597
