# OSM contributors ODbL; elevations USGS 3DEP
# Centimeters, Z up. Explicit orientation verification required on import.
o Park_Concrete_2_14
v -17744.188009 -12113.181352 249.602746
v -17744.188009 -12098.029823 250.135417
v -17750.427307 -12104.269121 250.013555
v -17754.795331 -12098.029823 250.259721
v -17677.521342 -12156.331151 247.011417
v -17677.521342 -12098.029823 248.833333
v -17716.644960 -12137.153441 248.222027
v -17690.003354 -12154.129156 247.275261
v -17736.071395 -12124.775146 249.036624
v -17610.854675 -12163.068148 245.740137
v -17610.854675 -12098.029823 247.010417
v -17670.410459 -12157.585606 246.777777
v -17636.208740 -12163.619249 246.125530
v -17544.188009 -12161.619069 244.217960
v -17544.188009 -12098.029823 245.708333
v -17609.190154 -12163.031968 245.708333
v -17477.521342 -12098.029823 244.666667
v -17541.042211 -12161.550691 244.170410
v -17505.375987 -12160.775444 243.358709
v -17477.521342 -12160.169990 242.724786
v -17410.854675 -12158.720910 241.514671
v -17410.854675 -12098.029823 243.885417
v -17472.894267 -12160.069415 242.673706
v -17344.188009 -12098.029823 242.062500
v -17404.746324 -12158.588138 241.352832
v -17374.543234 -12157.931638 240.437195
v -17344.188009 -12157.271831 239.516945
v -17277.521342 -12155.822752 237.686967
v -17277.521342 -12098.029823 239.718750
v -17336.598381 -12157.106862 239.257211
v -17210.854675 -12154.373673 235.874671
v -17210.854675 -12098.029823 237.635417
v -17268.450438 -12155.625585 237.410433
v -17144.188009 -12098.029823 235.552083
v -17200.302495 -12154.144309 235.552083
v -17178.294105 -12153.665930 235.047474
v -17144.188009 -12152.924593 234.265487
v -17077.521342 -12098.029823 233.729167
v -17132.154551 -12152.663032 233.942578
v -17113.280806 -12152.252789 233.508237
v -17077.521342 -12151.681548 232.681281
v -17010.854675 -12098.029823 231.906250
v -17064.295118 -12151.470266 232.323753
v -17048.021261 -12151.210298 231.758734
v -17010.854675 -12150.616580 230.468331
v -16944.188009 -12149.551611 228.532437
v -16944.188009 -12098.029823 230.343750
v -16996.546195 -12150.388009 230.139226
v -16877.521342 -12098.029823 228.520833
v -16928.797271 -12149.305752 228.120240
v -16916.695929 -12149.112439 227.796140
v -16877.521342 -12148.486643 226.746961
v -16810.854675 -12147.421675 224.701068
v -16810.854675 -12098.029823 226.437500
v -16861.048348 -12148.223495 226.241431
v -16744.188009 -12098.029823 224.875000
v -16793.299424 -12147.141238 224.299476
v -16785.370596 -12147.014579 224.087619
v -16744.188009 -12146.356706 222.987231
v -16677.521342 -12145.291738 220.945498
v -16677.521342 -12098.029823 222.791667
v -16725.550500 -12146.058981 222.416439
v -16610.854675 -12144.226770 218.643348
v -16610.854675 -12098.029823 220.447917
v -16657.801577 -12144.976724 220.264530
v -16544.188009 -12143.161801 216.601615
v -16544.188009 -12098.029823 218.364583
v -16590.052653 -12143.894467 218.006266
v -16477.521342 -12142.096833 214.559882
v -16477.521342 -12098.029823 216.281250
v -16522.303730 -12142.812210 215.931388
v -16522.719931 -12142.818859 215.944134
v -16410.854675 -12141.031865 212.333270
v -16410.854675 -12098.029823 213.677083
v -16454.554806 -12141.729953 213.677083
v -16457.057265 -12141.769929 213.773274
v -16344.188009 -12139.966896 210.090017
v -16344.188009 -12098.029823 211.072917
v -16386.805883 -12140.647697 211.405869
v -16391.394599 -12140.720999 211.582825
v -16277.521342 -12138.901928 208.233163
v -16277.521342 -12098.029823 209.510417
v -16319.056959 -12139.565440 209.510417
v -16325.731932 -12139.672069 209.664362
v -16210.854675 -12137.836960 206.443527
v -16210.854675 -12098.029823 207.687500
v -16251.308035 -12138.483183 207.529479
v -16260.069266 -12138.623139 207.764670
v -16144.188009 -12136.771991 204.393474
v -16144.188009 -12098.029823 205.604167
v -16183.559112 -12137.400926 205.604167
v -16194.406600 -12137.574209 205.937736
v -16077.521342 -12135.707023 201.969764
v -16077.521342 -12098.029823 203.000000
v -16115.810188 -12136.318669 203.299132
v -16128.743934 -12136.525279 203.797899
v -16010.854675 -12134.642054 199.445950
v -16010.854675 -12098.029823 199.875000
v -16048.061265 -12135.236412 200.601691
v -16063.081267 -12135.476349 201.299193
v -15944.188009 -12133.577086 197.253537
v -15944.188009 -12098.029823 197.531250
v -15980.312341 -12134.154155 198.377914
v -15997.418601 -12134.427420 198.976104
v -15877.521342 -12132.512118 194.666667
v -15877.521342 -12098.029823 194.666667
v -15912.563418 -12133.071898 195.898615
v -15931.755935 -12133.378490 196.720898
v -15810.854675 -12131.285514 192.192405
v -15810.854675 -12098.029823 192.062500
v -15844.751408 -12131.926555 193.386591
v -15866.093269 -12132.329560 194.220258
v -15865.682269 -12132.322391 194.204203
v -15744.188009 -12130.024742 189.718750
v -15744.188009 -12098.029823 189.718750
v -15776.799666 -12130.641480 190.992643
v -15799.311313 -12131.067211 191.785731
v -15677.521342 -12128.763970 187.655723
v -15677.521342 -12098.029823 187.895833
v -15708.847925 -12129.356405 188.752420
v -15732.940356 -12129.812031 189.411197
v -15610.854675 -12127.503198 185.842656
v -15610.854675 -12098.029823 186.072917
v -15640.896183 -12128.071330 186.659665
v -15666.569400 -12128.556852 187.357874
v -15544.188009 -12126.242426 183.879378
v -15544.188009 -12098.029823 183.989583
v -15572.944442 -12126.786256 184.663562
v -15600.198444 -12127.301672 185.511223
v -15477.521342 -12124.981654 181.385417
v -15477.521342 -12098.029823 181.385417
v -15504.992700 -12125.501181 182.351207
v -15533.827487 -12126.046492 183.475435
v -15410.854675 -12123.720882 178.781250
v -15410.854675 -12098.029823 178.781250
v -15437.040959 -12124.216106 179.804152
v -15467.456531 -12124.791312 180.992260
v -15344.188009 -12122.460110 176.342069
v -15344.188009 -12098.029823 176.437500
v -15369.089217 -12122.931031 177.312933
v -15401.085575 -12123.536133 178.437805
v -15277.521342 -12121.199338 173.663423
v -15277.521342 -12098.029823 173.572917
v -15301.137476 -12121.645956 174.495422
v -15334.714618 -12122.280953 175.935709
v -15210.854675 -12119.938566 171.229167
v -15210.854675 -12098.029823 171.229167
v -15233.185734 -12120.360881 172.101474
v -15268.343662 -12121.025773 173.340092
v -15144.188009 -12118.677794 168.966073
v -15144.188009 -12098.029823 168.885417
v -15165.233993 -12119.075807 169.625315
v -15201.972706 -12119.770594 170.916910
v -15077.521342 -12117.417022 166.726352
v -15077.521342 -12098.029823 166.802083
v -15097.282251 -12117.790732 167.496803
v -15135.601749 -12118.515414 168.697118
v -15010.854675 -12116.156250 164.197917
v -15010.854675 -12098.029823 164.197917
v -15029.330510 -12116.505657 164.847458
v -15069.230793 -12117.260234 166.403115
v -14944.188009 -12114.895478 161.659631
v -14944.188009 -12098.029823 161.593750
v -14961.378768 -12115.220582 162.265264
v -15002.859837 -12116.005055 163.885618
v -14877.521342 -12113.634706 159.310957
v -14877.521342 -12098.029823 159.250000
v -14893.427027 -12113.935507 159.871316
v -14936.488880 -12114.749875 161.388390
v -14810.854675 -12112.373934 156.757897
v -14810.854675 -12098.029823 156.645833
v -14825.475285 -12112.650432 157.274063
v -14870.117924 -12113.494695 159.021214
v -14744.188009 -12111.113161 154.092773
v -14744.188009 -12098.029823 154.041667
v -14757.523544 -12111.365358 154.666770
v -14803.746968 -12112.239516 156.479202
v -14677.521342 -12109.852389 151.744099
v -14677.521342 -12098.029823 151.697917
v -14689.571802 -12110.080283 152.168638
v -14737.376011 -12110.984336 153.852786
v -14610.854675 -12108.591617 149.477938
v -14610.854675 -12098.029823 149.354167
v -14621.620060 -12108.795208 149.774690
v -14671.005055 -12109.729156 151.514529
v -14544.188009 -12107.330845 146.858996
v -14544.188009 -12098.029823 146.750000
v -14553.668319 -12107.510133 147.231422
v -14604.634099 -12108.473976 149.233568
v -14477.521342 -12106.070073 144.698074
v -14477.521342 -12098.029823 144.666667
v -14485.716577 -12106.225058 145.018806
v -14538.263142 -12107.218797 146.672531
v -14410.854675 -12104.809301 142.375881
v -14410.854675 -12098.029823 142.322917
v -14417.764836 -12104.939983 142.592845
v -14471.892186 -12105.963617 144.499758
v -14344.188009 -12103.548529 139.544563
v -14344.188009 -12098.029823 139.458333
v -14349.813094 -12103.654908 139.743982
v -14405.521230 -12104.708437 142.145922
v -14277.521342 -12102.287757 136.904064
v -14277.521342 -12098.029823 136.854167
v -14281.861353 -12102.369834 137.091511
v -14339.150273 -12103.453258 139.346288
v -14210.854675 -12101.026985 134.273415
v -14210.854675 -12098.029823 134.250000
v -14213.909611 -12101.084759 134.405133
v -14272.779317 -12102.198078 136.717778
v -14144.188009 -12099.766213 131.666182
v -14144.188009 -12098.029823 131.645833
v -14145.957870 -12099.799684 131.728796
v -14206.408361 -12100.942898 134.099074
v -14077.521342 -12098.505441 128.533839
v -14077.521342 -12098.029823 128.520833
v -14078.006128 -12098.514609 128.549239
v -14140.037405 -12099.687719 131.470702
v -14052.371759 -12098.029823 127.636668
v -17744.188009 -12031.363156 252.218750
v -17772.016481 -12059.191629 251.675225
v -17767.399423 -12080.026101 250.970042
v -17778.183457 -12031.363156 252.882724
v -17677.521342 -12031.363156 250.395833
v -17610.854675 -12031.363156 248.833333
v -17544.188009 -12031.363156 248.052083
v -17477.521342 -12031.363156 247.791667
v -17410.854675 -12031.363156 247.531250
v -17344.188009 -12031.363156 245.968750
v -17277.521342 -12031.363156 243.625000
v -17210.854675 -12031.363156 241.020833
v -17144.188009 -12031.363156 238.416667
v -17077.521342 -12031.363156 236.854167
v -17010.854675 -12031.363156 235.552083
v -16944.188009 -12031.363156 234.510417
v -16877.521342 -12031.363156 233.468750
v -16810.854675 -12031.363156 231.645833
v -16744.188009 -12031.363156 230.083333
v -16677.521342 -12031.363156 228.520833
v -16610.854675 -12031.363156 226.697917
v -16544.188009 -12031.363156 225.135417
v -16477.521342 -12031.363156 223.052083
v -16410.854675 -12031.363156 219.927083
v -16344.188009 -12031.363156 218.104167
v -16277.521342 -12031.363156 217.583333
v -16210.854675 -12031.363156 215.760417
v -16144.188009 -12031.363156 213.677083
v -16077.521342 -12031.363156 211.072917
v -16010.854675 -12031.363156 206.906250
v -15944.188009 -12031.363156 202.218750
v -15877.521342 -12031.363156 197.531250
v -15810.854675 -12031.363156 194.406250
v -15744.188009 -12031.363156 193.364583
v -15677.521342 -12031.363156 193.625000
v -15610.854675 -12031.363156 191.802083
v -15544.188009 -12031.363156 187.375000
v -15477.521342 -12031.363156 183.989583
v -15410.854675 -12031.363156 181.385417
v -15344.188009 -12031.363156 179.302083
v -15277.521342 -12031.363156 179.302083
v -15210.854675 -12031.363156 178.781250
v -15144.188009 -12031.363156 176.437500
v -15077.521342 -12031.363156 173.572917
v -15010.854675 -12031.363156 170.447917
v -14944.188009 -12031.363156 167.843750
v -14877.521342 -12031.363156 165.760417
v -14810.854675 -12031.363156 162.895833
v -14744.188009 -12031.363156 160.031250
v -14677.521342 -12031.363156 156.906250
v -14610.854675 -12031.363156 154.302083
v -14544.188009 -12031.363156 151.697917
v -14477.521342 -12031.363156 149.614583
v -14410.854675 -12031.363156 146.750000
v -14344.188009 -12031.363156 143.625000
v -14277.521342 -12031.363156 140.760417
v -14210.854675 -12031.363156 137.895833
v -14144.188009 -12031.363156 135.031250
v -14077.521342 -12031.363156 132.166667
v -14010.854675 -12031.363156 130.083333
v -14010.854675 -12097.244669 126.223088
v -13944.188009 -12095.983897 123.953212
v -13944.188009 -12031.363156 127.739583
v -14010.054387 -12097.229534 126.195840
v -13877.521342 -12094.723125 121.384168
v -13877.521342 -12031.363156 124.354167
v -13942.102645 -12095.944459 123.849625
v -13810.854675 -12093.462353 119.566825
v -13810.854675 -12031.363156 121.750000
v -13874.150904 -12094.659385 121.255498
v -13874.553579 -12094.667000 121.270871
v -13744.188009 -12092.201581 117.267399
v -13744.188009 -12031.363156 119.406250
v -13806.199162 -12093.374310 119.406250
v -13808.182623 -12093.411820 119.474662
v -13677.521342 -12090.940809 114.940282
v -13677.521342 -12031.363156 116.802083
v -13738.247421 -12092.089235 117.039295
v -13741.811667 -12092.156640 117.176153
v -13610.854675 -12089.680037 112.603314
v -13610.854675 -12031.363156 114.197917
v -13670.295679 -12090.804160 114.662300
v -13675.440710 -12090.901461 114.860237
v -13544.188009 -12088.188334 110.223467
v -13544.188009 -12031.363156 111.333333
v -13602.320267 -12089.495415 112.241650
v -13609.069754 -12089.646281 112.527542
v -13608.569853 -12089.635934 112.506344
v -13477.521342 -12031.363156 109.250000
v -13534.120148 -12087.961962 109.913267
v -13479.928652 -12086.743488 108.036655
v -13477.521342 -12086.689360 107.953292
v -13410.854675 -12085.190387 105.694828
v -13410.854675 -12031.363156 107.166667
v -13465.920029 -12086.428509 107.596865
v -13344.188009 -12031.363156 104.562500
v -13397.719910 -12084.895057 105.189827
v -13351.287450 -12083.851042 103.759204
v -13344.188009 -12083.691413 103.540464
v -13277.521342 -12082.192440 100.903709
v -13277.521342 -12031.363156 101.697917
v -13329.519790 -12083.361604 102.916630
v -13210.854675 -12031.363156 99.614583
v -13261.319671 -12081.828152 100.403099
v -13222.646249 -12080.958595 99.060470
v -13210.854675 -12080.693466 98.651101
v -13144.188009 -12031.363156 96.750000
v -13193.119552 -12080.294699 97.896833
v -13158.325649 -12079.512372 96.682778
v -13144.188009 -12079.194493 96.189477
v -13077.521342 -12077.695519 94.044278
v -13077.521342 -12031.363156 94.406250
v -13124.919433 -12078.761247 95.517143
v -13010.854675 -12031.363156 92.062500
v -13056.719313 -12077.227794 93.316611
v -13029.684447 -12076.619926 92.474146
v -13010.854675 -12076.196546 91.887370
v -12944.188009 -12074.697572 89.809892
v -12944.188009 -12031.363156 89.979167
v -12988.519194 -12075.694341 91.191348
v -12877.521342 -12031.363156 87.895833
v -12920.319075 -12074.160889 89.066084
v -12901.043246 -12073.727480 88.465407
v -12877.521342 -12073.198599 87.732414
v -12810.854675 -12031.363156 85.812500
v -12852.118956 -12072.627436 86.940820
v -12836.722645 -12072.281256 86.402248
v -12810.854675 -12071.699625 85.497371
v -12744.188009 -12070.200652 83.208333
v -12744.188009 -12031.363156 83.208333
v -12783.918836 -12071.093984 84.449922
v -12677.521342 -12068.701678 80.750020
v -12677.521342 -12031.363156 80.604167
v -12715.718717 -12069.560531 82.096252
v -12610.854675 -12031.363156 78.000000
v -12647.518598 -12068.027079 79.575403
v -12643.760844 -12067.942587 79.442634
v -12610.854675 -12067.202705 78.279996
v -12544.188009 -12065.703731 76.192821
v -12544.188009 -12031.363156 75.656250
v -12579.318479 -12066.493626 77.165762
v -12579.440243 -12066.496364 77.170065
v -12477.521342 -12064.204758 74.086067
v -12477.521342 -12031.363156 73.572917
v -12511.118360 -12064.960174 75.147777
v -12515.119642 -12065.050141 75.274223
v -12410.854675 -12062.705784 72.622577
v -12410.854675 -12031.363156 72.010417
v -12442.918240 -12063.426721 73.262900
v -12450.799042 -12063.603918 73.450375
v -12344.188009 -12061.206811 71.147377
v -12344.188009 -12031.363156 70.447917
v -12374.718121 -12061.893268 71.759757
v -12386.478441 -12062.157695 72.040555
v -12277.521342 -12059.707837 69.810162
v -12277.521342 -12031.363156 69.145833
v -12306.518002 -12060.359816 70.391784
v -12322.157840 -12060.711471 70.705491
v -12210.854675 -12058.208864 69.359062
v -12210.854675 -12031.363156 68.625000
v -12238.317883 -12058.826363 69.483225
v -12257.837240 -12059.265248 69.646007
v -12144.188009 -12056.709890 68.958647
v -12144.188009 -12031.363156 68.364583
v -12170.117763 -12057.292911 69.174888
v -12193.516639 -12057.819025 69.280676
v -12077.521342 -12055.210917 68.495837
v -12077.521342 -12031.363156 67.843750
v -12101.917644 -12055.759458 68.606134
v -12129.196038 -12056.372802 68.833622
v -12010.854675 -12053.711943 67.934016
v -12010.854675 -12031.363156 67.322917
v -12033.717525 -12054.226006 68.126689
v -12064.875438 -12054.926579 68.389266
v -11944.188009 -12052.096075 67.889832
v -11944.188009 -12031.363156 67.322917
v -11965.443032 -12052.618179 67.904109
v -12000.554837 -12053.480356 67.927684
v -12000.263992 -12053.473514 67.927497
v -11877.521342 -12050.458489 68.030880
v -11877.521342 -12031.363156 67.583333
v -11897.097540 -12050.939354 68.042150
v -11933.697594 -12051.838391 67.923765
v -11810.854675 -12048.820902 67.663888
v -11810.854675 -12031.363156 67.322917
v -11828.752049 -12049.260530 67.812298
v -11867.131197 -12050.203267 67.984312
v -11744.188009 -12047.183316 67.631904
v -11744.188009 -12031.363156 67.322917
v -11760.406558 -12047.581705 67.639685
v -11800.564799 -12048.568144 67.658952
v -11677.521342 -12045.545730 67.339503
v -11677.521342 -12031.363156 67.062500
v -11692.061067 -12045.902881 67.403275
v -11733.998401 -12046.933021 67.587212
v -11610.854675 -12043.908144 67.047103
v -11610.854675 -12031.363156 66.802083
v -11623.715575 -12044.224056 67.103511
v -11667.432004 -12045.297897 67.295251
v -11544.188009 -12042.270557 66.754702
v -11544.188009 -12031.363156 66.541667
v -11555.370084 -12042.545232 66.803747
v -11600.865606 -12043.662774 67.003290
v -11477.521342 -12040.632971 66.462301
v -11477.521342 -12031.363156 66.281250
v -11487.024593 -12040.866407 66.503982
v -11534.299208 -12042.027651 66.711329
v -17744.188009 -11964.696489 254.822917
v -17773.441411 -11993.949891 254.251561
v -17779.218028 -12026.694657 253.085293
v -17764.500727 -11964.696489 255.457689
v -17769.727935 -11972.900044 255.204453
v -17677.521342 -11964.696489 252.479167
v -17610.854675 -11964.696489 251.958333
v -17544.188009 -11964.696489 251.958333
v -17477.521342 -11964.696489 251.437500
v -17410.854675 -11964.696489 250.395833
v -17344.188009 -11964.696489 249.093750
v -17277.521342 -11964.696489 247.010417
v -17210.854675 -11964.696489 243.885417
v -17144.188009 -11964.696489 239.979167
v -17077.521342 -11964.696489 236.593750
v -17010.854675 -11964.696489 235.031250
v -16944.188009 -11964.696489 233.989583
v -16877.521342 -11964.696489 232.687500
v -16810.854675 -11964.696489 231.125000
v -16744.188009 -11964.696489 230.083333
v -16677.521342 -11964.696489 228.520833
v -16610.854675 -11964.696489 225.916667
v -16544.188009 -11964.696489 224.093750
v -16477.521342 -11964.696489 223.052083
v -16410.854675 -11964.696489 221.750000
v -16344.188009 -11964.696489 220.447917
v -16277.521342 -11964.696489 218.364583
v -16210.854675 -11964.696489 216.020833
v -16144.188009 -11964.696489 213.677083
v -16077.521342 -11964.696489 211.333333
v -16010.854675 -11964.696489 208.729167
v -15944.188009 -11964.696489 205.604167
v -15877.521342 -11964.696489 202.218750
v -15810.854675 -11964.696489 199.875000
v -15744.188009 -11964.696489 198.052083
v -15677.521342 -11964.696489 197.791667
v -15610.854675 -11964.696489 195.447917
v -15544.188009 -11964.696489 191.802083
v -15477.521342 -11964.696489 188.156250
v -15410.854675 -11964.696489 184.770833
v -15344.188009 -11964.696489 182.947917
v -15277.521342 -11964.696489 183.729167
v -15210.854675 -11964.696489 182.947917
v -15144.188009 -11964.696489 180.604167
v -15077.521342 -11964.696489 177.479167
v -15010.854675 -11964.696489 174.093750
v -14944.188009 -11964.696489 172.270833
v -14877.521342 -11964.696489 170.447917
v -14810.854675 -11964.696489 168.104167
v -14744.188009 -11964.696489 165.500000
v -14677.521342 -11964.696489 162.375000
v -14610.854675 -11964.696489 159.770833
v -14544.188009 -11964.696489 156.906250
v -14477.521342 -11964.696489 154.562500
v -14410.854675 -11964.696489 151.958333
v -14344.188009 -11964.696489 150.135417
v -14277.521342 -11964.696489 147.791667
v -14210.854675 -11964.696489 145.447917
v -14144.188009 -11964.696489 142.843750
v -14077.521342 -11964.696489 139.979167
v -14010.854675 -11964.696489 137.375000
v -13944.188009 -11964.696489 135.031250
v -13877.521342 -11964.696489 132.166667
v -13810.854675 -11964.696489 129.822917
v -13744.188009 -11964.696489 126.958333
v -13677.521342 -11964.696489 123.833333
v -13610.854675 -11964.696489 121.489583
v -13544.188009 -11964.696489 119.145833
v -13477.521342 -11964.696489 117.583333
v -13410.854675 -11964.696489 115.500000
v -13344.188009 -11964.696489 112.895833
v -13277.521342 -11964.696489 110.291667
v -13210.854675 -11964.696489 106.645833
v -13144.188009 -11964.696489 101.958333
v -13077.521342 -11964.696489 98.572917
v -13010.854675 -11964.696489 97.531250
v -12944.188009 -11964.696489 96.229167
v -12877.521342 -11964.696489 94.145833
v -12810.854675 -11964.696489 93.104167
v -12744.188009 -11964.696489 91.020833
v -12677.521342 -11964.696489 88.677083
v -12610.854675 -11964.696489 85.291667
v -12544.188009 -11964.696489 82.427083
v -12477.521342 -11964.696489 80.604167
v -12410.854675 -11964.696489 78.781250
v -12344.188009 -11964.696489 76.958333
v -12277.521342 -11964.696489 75.135417
v -12210.854675 -11964.696489 73.572917
v -12144.188009 -11964.696489 71.229167
v -12077.521342 -11964.696489 68.885417
v -12010.854675 -11964.696489 67.322917
v -11944.188009 -11964.696489 67.843750
v -11877.521342 -11964.696489 69.145833
v -11810.854675 -11964.696489 69.927083
v -11744.188009 -11964.696489 69.927083
v -11677.521342 -11964.696489 69.927083
v -11610.854675 -11964.696489 69.406250
v -11544.188009 -11964.696489 68.885417
v -11477.521342 -11964.696489 68.364583
v -17744.188009 -11932.817807 257.437965
v -17677.521342 -11898.029823 257.427083
v -17699.232808 -11898.029823 258.359998
v -17740.373925 -11926.832002 257.765101
v -17610.854675 -11898.029823 257.166667
v -17544.188009 -11898.029823 256.645833
v -17477.521342 -11898.029823 255.864583
v -17410.854675 -11898.029823 254.822917
v -17344.188009 -11898.029823 253.520833
v -17277.521342 -11898.029823 251.437500
v -17210.854675 -11898.029823 247.270833
v -17144.188009 -11898.029823 240.500000
v -17077.521342 -11898.029823 235.291667
v -17010.854675 -11898.029823 232.427083
v -16944.188009 -11898.029823 231.385417
v -16877.521342 -11898.029823 230.343750
v -16810.854675 -11898.029823 229.302083
v -16744.188009 -11898.029823 228.260417
v -16677.521342 -11898.029823 227.218750
v -16610.854675 -11898.029823 225.395833
v -16544.188009 -11898.029823 223.312500
v -16477.521342 -11898.029823 221.750000
v -16410.854675 -11898.029823 220.708333
v -16344.188009 -11898.029823 219.666667
v -16277.521342 -11898.029823 217.322917
v -16210.854675 -11898.029823 214.197917
v -16144.188009 -11898.029823 211.333333
v -16077.521342 -11898.029823 209.770833
v -16010.854675 -11898.029823 207.687500
v -15944.188009 -11898.029823 205.604167
v -15877.521342 -11898.029823 203.781250
v -15810.854675 -11898.029823 201.958333
v -15744.188009 -11898.029823 199.875000
v -15677.521342 -11898.029823 198.572917
v -15610.854675 -11898.029823 197.010417
v -15544.188009 -11898.029823 194.406250
v -15477.521342 -11898.029823 191.020833
v -15410.854675 -11898.029823 186.854167
v -15344.188009 -11898.029823 184.250000
v -15277.521342 -11898.029823 183.468750
v -15210.854675 -11898.029823 181.385417
v -15144.188009 -11898.029823 179.302083
v -15077.521342 -11898.029823 176.697917
v -15010.854675 -11898.029823 173.572917
v -14944.188009 -11898.029823 171.229167
v -14877.521342 -11898.029823 169.145833
v -14810.854675 -11898.029823 166.802083
v -14744.188009 -11898.029823 164.458333
v -14677.521342 -11898.029823 161.854167
v -14610.854675 -11898.029823 158.989583
v -14544.188009 -11898.029823 156.385417
v -14477.521342 -11898.029823 154.302083
v -14410.854675 -11898.029823 151.958333
v -14344.188009 -11898.029823 149.875000
v -14277.521342 -11898.029823 147.010417
v -14210.854675 -11898.029823 144.406250
v -14144.188009 -11898.029823 143.104167
v -14077.521342 -11898.029823 139.718750
v -14010.854675 -11898.029823 136.593750
v -13944.188009 -11898.029823 135.031250
v -13877.521342 -11898.029823 132.947917
v -13810.854675 -11898.029823 130.604167
v -13744.188009 -11898.029823 126.958333
v -13677.521342 -11898.029823 123.833333
v -13610.854675 -11898.029823 122.531250
v -13544.188009 -11898.029823 120.447917
v -13477.521342 -11898.029823 118.885417
v -13410.854675 -11898.029823 117.583333
v -13344.188009 -11898.029823 115.760417
v -13277.521342 -11898.029823 113.677083
v -13210.854675 -11898.029823 111.072917
v -13144.188009 -11898.029823 106.906250
v -13077.521342 -11898.029823 103.260417
v -13010.854675 -11898.029823 101.958333
v -12944.188009 -11898.029823 101.177083
v -12877.521342 -11898.029823 99.093750
v -12810.854675 -11898.029823 97.010417
v -12744.188009 -11898.029823 94.927083
v -12677.521342 -11898.029823 92.843750
v -12610.854675 -11898.029823 91.281250
v -12544.188009 -11898.029823 88.937500
v -12477.521342 -11898.029823 84.250000
v -12410.854675 -11898.029823 82.166667
v -12344.188009 -11898.029823 81.645833
v -12277.521342 -11898.029823 80.864583
v -12210.854675 -11898.029823 79.822917
v -12144.188009 -11898.029823 77.479167
v -12077.521342 -11898.029823 74.354167
v -12010.854675 -11898.029823 72.010417
v -11944.188009 -11898.029823 72.010417
v -11877.521342 -11898.029823 74.093750
v -11810.854675 -11898.029823 75.395833
v -11744.188009 -11898.029823 75.656250
v -11677.521342 -11898.029823 75.395833
v -11610.854675 -11898.029823 75.395833
v -11544.188009 -11898.029823 74.875000
v -11477.521342 -11898.029823 74.354167
v -17677.521342 -11891.492110 258.116608
v -17695.624880 -11895.503975 258.471368
v -17610.854675 -11883.002011 258.458119
v -17642.293436 -11883.685370 258.522201
v -17669.122358 -11889.630839 258.116062
v -17544.188009 -11881.552932 257.868728
v -17576.877059 -11882.263467 258.071376
v -17595.492959 -11882.668106 258.186781
v -17477.521342 -11880.103853 257.054980
v -17511.460683 -11880.841565 257.403718
v -17527.345016 -11881.186830 257.566935
v -17410.854675 -11878.654774 256.033857
v -17459.197072 -11879.705553 256.723533
v -17344.188009 -11877.205694 254.822341
v -17380.627930 -11877.997759 255.484554
v -17391.049129 -11878.224277 255.673936
v -17277.521342 -11875.756615 252.829575
v -17315.211553 -11876.575857 253.956192
v -17322.901186 -11876.743000 254.186047
v -17210.854675 -11874.307536 248.012155
v -17249.795177 -11875.153954 250.419486
v -17254.753243 -11875.261723 250.725997
v -17144.188009 -11872.858457 240.303349
v -17184.378800 -11873.732051 244.392051
v -17186.605300 -11873.780447 244.618558
v -17077.521342 -11871.645825 234.879417
v -17118.156224 -11872.294947 238.064159
v -17118.458839 -11872.300653 238.087890
v -17118.962424 -11872.310149 238.131241
v -17010.854675 -11870.580856 231.462081
v -17050.709030 -11871.217511 233.196955
v -17052.493558 -11871.246018 233.308933
v -16944.188009 -11869.515888 230.271591
v -16982.960106 -11870.135254 230.901599
v -16986.830892 -11870.197088 230.979374
v -16877.521342 -11868.450919 229.419409
v -16915.211183 -11869.052997 230.027128
v -16810.854675 -11867.385951 228.464165
v -16847.462259 -11867.970740 229.052149
v -16744.188009 -11866.320983 227.517241
v -16779.713336 -11866.888483 228.085625
v -16677.521342 -11865.256014 226.322591
v -16711.964412 -11865.806226 226.875809
v -16724.180227 -11866.001368 227.118973
v -16610.854675 -11864.191046 224.734920
v -16644.215489 -11864.723969 225.657538
v -16544.188009 -11863.126078 222.630786
v -16576.466565 -11863.641712 223.649562
v -16477.521342 -11862.061109 220.906983
v -16508.717641 -11862.559455 221.649827
v -16527.192228 -11862.854578 222.160755
v -16410.854675 -11860.996141 219.695694
v -16440.968718 -11861.477198 220.179379
v -16344.188009 -11859.931173 218.476084
v -16373.219794 -11860.394942 218.944198
v -16277.521342 -11858.866204 216.099054
v -16305.470871 -11859.312685 217.095607
v -16210.854675 -11857.801236 213.255059
v -16237.721947 -11858.230428 214.524522
v -16144.188009 -11856.736268 210.526819
v -16169.973024 -11857.148171 211.642813
v -16198.878896 -11857.609928 212.782772
v -16077.521342 -11855.671299 208.778055
v -16102.224100 -11856.065914 209.366275
v -16010.854675 -11854.606331 206.500139
v -16034.475176 -11854.983657 207.248597
v -16067.553564 -11855.512069 208.423894
v -15944.188009 -11853.541362 204.561468
v -15966.726253 -11853.901400 205.274227
v -15877.521342 -11852.476394 202.891535
v -15898.977329 -11852.819143 203.484916
v -15936.228231 -11853.414209 204.371931
v -15810.854675 -11851.235448 201.044381
v -15831.110028 -11851.618509 201.605720
v -15870.771070 -11852.368562 202.704851
v -15744.188009 -11849.974676 199.124138
v -15763.158287 -11850.333434 199.722565
v -15804.605608 -11851.117268 200.871200
v -15677.521342 -11848.713904 197.802355
v -15695.206545 -11849.048359 198.152995
v -15610.854675 -11847.453132 196.615286
v -15627.254804 -11847.763284 197.002087
v -15671.863696 -11848.606909 197.712283
v -15544.188009 -11846.192360 194.406250
v -15559.303062 -11846.478209 194.996682
v -15477.521342 -11844.931588 191.435663
v -15491.351320 -11845.193134 192.135924
v -15539.121783 -11846.096549 194.188561
v -15410.854675 -11843.670816 187.278846
v -15423.399579 -11843.908060 188.061049
v -15344.188009 -11842.410044 184.032735
v -15355.447837 -11842.622985 184.473404
v -15406.379871 -11843.586190 187.052271
v -15277.521342 -11841.149272 182.579991
v -15287.496096 -11841.337910 182.699831
v -15340.008914 -11842.331010 183.934479
v -15210.854675 -11839.888500 180.476958
v -15219.544354 -11840.052835 180.751079
v -15144.188009 -11838.627727 178.373926
v -15151.592613 -11838.767760 178.607507
v -15207.267002 -11839.820651 180.363784
v -15077.521342 -11837.366955 175.750059
v -15083.640871 -11837.482685 175.990912
v -15010.854675 -11836.106183 173.089138
v -15015.689130 -11836.197611 173.316468
v -14944.188009 -11834.845411 170.735538
v -14947.737388 -11834.912536 170.860846
v -14877.521342 -11833.584639 168.138877
v -14879.785647 -11833.627461 168.210306
v -14810.854675 -11832.323867 165.518764
v -14811.833905 -11832.342386 165.553552
v -14875.412220 -11833.544752 168.055867
v -14744.188009 -11831.363156 162.635417
v -14760.054516 -11831.363156 163.317181
v -14809.041264 -11832.289573 165.440174
v -14677.521342 -11831.363156 160.031250
v -14610.854675 -11831.363156 157.427083
v -14544.188009 -11831.363156 155.343750
v -14477.521342 -11831.363156 153.781250
v -14410.854675 -11831.363156 150.916667
v -14344.188009 -11831.363156 147.270833
v -14277.521342 -11831.363156 143.625000
v -14210.854675 -11831.363156 141.281250
v -14144.188009 -11831.363156 139.979167
v -14077.521342 -11831.363156 136.854167
v -14010.854675 -11831.363156 133.729167
v -13944.188009 -11831.363156 132.687500
v -13877.521342 -11831.363156 131.125000
v -13810.854675 -11831.363156 128.520833
v -13744.188009 -11831.363156 125.395833
v -13677.521342 -11831.363156 121.750000
v -13610.854675 -11831.363156 119.406250
v -13544.188009 -11831.363156 117.322917
v -13477.521342 -11831.363156 116.281250
v -13410.854675 -11831.363156 115.760417
v -13344.188009 -11831.363156 114.458333
v -13277.521342 -11831.363156 112.895833
v -13210.854675 -11831.363156 111.854167
v -13144.188009 -11831.363156 109.250000
v -13077.521342 -11831.363156 106.385417
v -13010.854675 -11831.363156 104.562500
v -12944.188009 -11831.363156 102.479167
v -12877.521342 -11831.363156 100.916667
v -12810.854675 -11831.363156 98.833333
v -12744.188009 -11831.363156 95.968750
v -12677.521342 -11831.363156 93.625000
v -12610.854675 -11831.363156 92.583333
v -12544.188009 -11831.363156 89.718750
v -12477.521342 -11831.363156 85.031250
v -12410.854675 -11831.363156 82.947917
v -12344.188009 -11831.363156 82.427083
v -12277.521342 -11831.363156 82.166667
v -12210.854675 -11831.363156 81.906250
v -12144.188009 -11831.363156 80.864583
v -12077.521342 -11831.363156 79.562500
v -12010.854675 -11831.363156 78.520833
v -11944.188009 -11831.363156 78.260417
v -11877.521342 -11831.363156 79.562500
v -11810.854675 -11831.363156 80.864583
v -11744.188009 -11831.363156 80.604167
v -11677.521342 -11831.363156 80.083333
v -11610.854675 -11831.363156 79.822917
v -11544.188009 -11831.363156 79.562500
v -11477.521342 -11831.363156 77.739583
v -14744.188009 -11831.063095 162.631900
v -14677.521342 -11829.802323 160.012959
v -14742.670307 -11831.034393 162.572279
v -14743.882164 -11831.057311 162.619885
v -14610.854675 -11828.541551 157.394018
v -14675.930422 -11829.772236 159.950461
v -14544.188009 -11827.280779 155.279963
v -14607.978681 -11828.487162 157.292271
v -14609.928395 -11828.524034 157.361248
v -14477.521342 -11826.020007 153.656020
v -14540.026939 -11827.202087 155.148700
v -14410.854675 -11824.759235 150.632904
v -14472.075198 -11825.917012 153.313222
v -14344.188009 -11823.498463 146.871454
v -14344.444569 -11823.503315 146.885731
v -14404.123456 -11824.631937 150.206733
v -14410.815526 -11824.758495 150.630426
v -14277.521342 -11822.237691 143.161597
v -14278.073613 -11822.248135 143.192330
v -14336.171715 -11823.346862 146.425365
v -14210.854675 -11820.976919 140.794395
v -14211.702657 -11820.992956 140.824959
v -14268.219973 -11822.061787 142.861997
v -14144.188009 -11819.716147 139.251229
v -14145.331700 -11819.737776 139.274918
v -14200.268232 -11820.776712 140.412831
v -14077.521342 -11818.455375 135.997009
v -14078.960744 -11818.482596 136.066289
v -14132.316490 -11819.491638 138.634346
v -14010.854675 -11817.194603 132.954324
v -14012.589788 -11817.227416 133.037452
v -14064.364749 -11818.206563 135.517950
v -13944.188009 -11815.933831 131.783438
v -13946.218831 -11815.972237 131.817420
v -13996.413007 -11816.921488 132.657324
v -13877.521342 -11814.673059 130.147065
v -13879.847875 -11814.717057 130.204171
v -13928.461266 -11815.636413 131.397416
v -13810.854675 -11813.412287 127.609266
v -13813.476919 -11813.461877 127.714215
v -13860.509524 -11814.351338 129.596595
v -13744.188009 -11812.151515 124.645379
v -13747.105962 -11812.206698 124.784313
v -13792.557783 -11813.066263 126.948444
v -13677.521342 -11810.890742 120.950296
v -13680.735006 -11810.951518 121.128418
v -13724.606041 -11811.781189 123.560024
v -13610.854675 -11809.616538 118.301930
v -13614.614010 -11809.701065 118.438386
v -13656.654300 -11810.496114 119.956739
v -13544.188009 -11808.117565 116.233280
v -13550.543350 -11808.260462 116.438582
v -13588.607847 -11809.116327 117.668217
v -13477.521342 -11806.618591 115.218007
v -13486.222750 -11806.814239 115.362373
v -13520.407727 -11807.582875 115.929541
v -13410.854675 -11805.119618 114.735278
v -13421.902149 -11805.368016 114.831290
v -13452.207608 -11806.049422 115.094669
v -13344.188009 -11803.620644 113.483011
v -13357.581548 -11803.921793 113.755190
v -13384.007489 -11804.515969 114.292211
v -13277.521342 -11802.121671 112.210486
v -13293.260948 -11802.475570 112.587678
v -13315.807370 -11802.982517 113.127991
v -13210.854675 -11800.622697 111.013607
v -13228.940347 -11801.029346 111.307315
v -13247.607250 -11801.449064 111.610462
v -13144.188009 -11799.123724 108.620324
v -13164.619746 -11799.583123 109.427411
v -13179.407131 -11799.915612 110.011537
v -13077.521342 -11797.624750 105.990045
v -13100.299146 -11798.136900 106.974780
v -13111.207012 -11798.382159 107.446352
v -13010.854675 -11796.125777 104.700146
v -13035.978545 -11796.690677 105.384920
v -13043.006893 -11796.848707 105.576484
v -12944.188009 -11794.626803 102.048663
v -12971.657945 -11795.244454 102.914336
v -12974.806773 -11795.315254 103.013567
v -12877.521342 -11793.127830 99.572456
v -12906.606654 -11793.781802 100.277134
v -12907.337344 -11793.798231 100.311578
v -12810.854675 -11791.628856 97.591636
v -12838.406535 -11792.248349 98.471991
v -12744.188009 -11790.129883 95.002345
v -12770.206416 -11790.714896 96.134035
v -12778.696143 -11790.905785 96.438467
v -12677.521342 -11788.630909 92.957309
v -12702.006297 -11789.181444 93.826710
v -12714.375542 -11789.459561 94.171450
v -12610.854675 -11787.131936 91.201108
v -12633.806177 -11787.647991 91.575852
v -12544.188009 -11785.632962 88.111048
v -12565.606058 -11786.114539 89.048285
v -12477.521342 -11784.133989 84.662272
v -12497.405939 -11784.581086 86.063901
v -12410.854675 -11782.635015 82.567228
v -12429.205820 -11783.047634 83.143925
v -12457.093139 -11783.674669 84.020302
v -12344.188009 -11781.136042 81.446085
v -12361.005700 -11781.514181 81.584859
v -12392.772539 -11782.228446 82.210885
v -12277.521342 -11779.637068 80.954336
v -12292.805581 -11779.980728 81.022095
v -12210.854675 -11778.138095 80.658788
v -12224.605462 -11778.447276 80.719748
v -12264.131338 -11779.335999 80.894975
v -12144.188009 -11776.639121 80.223286
v -12156.405343 -11776.913823 80.417401
v -12077.521342 -11775.140148 80.221363
v -12088.205223 -11775.380371 80.427218
v -12135.490136 -11776.443553 80.254970
v -12010.854675 -11773.641174 79.873692
v -12020.005104 -11773.846918 80.011846
v -11944.188009 -11772.011614 80.115152
v -11951.687346 -11772.195827 80.138690
v -12006.994361 -11773.554377 79.890806
v -11877.521342 -11770.374028 80.753694
v -11883.341855 -11770.517002 80.637220
v -11940.573383 -11771.922826 80.146166
v -11810.854675 -11768.736442 81.353855
v -11814.996364 -11768.838178 81.272167
v -11874.006985 -11770.287702 80.782836
v -11744.188009 -11767.098856 80.855199
v -11746.650872 -11767.159353 80.864583
v -11677.521342 -11765.461269 80.083333
v -11678.305381 -11765.480528 80.089459
v -11610.854675 -11764.696489 79.822917
v -11646.386895 -11764.696489 79.961714
v -11674.307792 -11765.382332 80.070780
v -11544.188009 -11764.696489 79.302083
v -11477.521342 -11764.696489 78.000000
v -11610.854675 -11763.823683 79.778594
v -11544.188009 -11762.186097 79.184409
v -11607.741394 -11763.747209 79.754097
v -11609.959890 -11763.801704 79.773983
v -11477.521342 -11760.548511 77.870376
v -11541.174997 -11762.112086 79.162473
v -11541.614399 -11762.122879 79.171392
vt -88.720940 -60.565907
vt -88.720940 -60.490149
vt -88.752137 -60.521346
vt -88.773977 -60.490149
vt -88.387607 -60.781656
vt -88.387607 -60.490149
vt -88.583225 -60.685767
vt -88.450017 -60.770646
vt -88.680357 -60.623876
vt -88.054273 -60.815341
vt -88.054273 -60.490149
vt -88.352052 -60.787928
vt -88.181044 -60.818096
vt -87.720940 -60.808095
vt -87.720940 -60.490149
vt -88.045951 -60.815160
vt -87.387607 -60.490149
vt -87.705211 -60.807753
vt -87.526880 -60.803877
vt -87.387607 -60.800850
vt -87.054273 -60.793605
vt -87.054273 -60.490149
vt -87.364471 -60.800347
vt -86.720940 -60.490149
vt -87.023732 -60.792941
vt -86.872716 -60.789658
vt -86.720940 -60.786359
vt -86.387607 -60.779114
vt -86.387607 -60.490149
vt -86.682992 -60.785534
vt -86.054273 -60.771868
vt -86.054273 -60.490149
vt -86.342252 -60.778128
vt -85.720940 -60.490149
vt -86.001512 -60.770722
vt -85.891471 -60.768330
vt -85.720940 -60.764623
vt -85.387607 -60.490149
vt -85.660773 -60.763315
vt -85.566404 -60.761264
vt -85.387607 -60.758408
vt -85.054273 -60.490149
vt -85.321476 -60.757351
vt -85.240106 -60.756051
vt -85.054273 -60.753083
vt -84.720940 -60.747758
vt -84.720940 -60.490149
vt -84.982731 -60.751940
vt -84.387607 -60.490149
vt -84.643986 -60.746529
vt -84.583480 -60.745562
vt -84.387607 -60.742433
vt -84.054273 -60.737108
vt -84.054273 -60.490149
vt -84.305242 -60.741117
vt -83.720940 -60.490149
vt -83.966497 -60.735706
vt -83.926853 -60.735073
vt -83.720940 -60.731784
vt -83.387607 -60.726459
vt -83.387607 -60.490149
vt -83.627753 -60.730295
vt -83.054273 -60.721134
vt -83.054273 -60.490149
vt -83.289008 -60.724884
vt -82.720940 -60.715809
vt -82.720940 -60.490149
vt -82.950263 -60.719472
vt -82.387607 -60.710484
vt -82.387607 -60.490149
vt -82.611519 -60.714061
vt -82.613600 -60.714094
vt -82.054273 -60.705159
vt -82.054273 -60.490149
vt -82.272774 -60.708650
vt -82.285286 -60.708850
vt -81.720940 -60.699834
vt -81.720940 -60.490149
vt -81.934029 -60.703238
vt -81.956973 -60.703605
vt -81.387607 -60.694510
vt -81.387607 -60.490149
vt -81.595285 -60.697827
vt -81.628660 -60.698360
vt -81.054273 -60.689185
vt -81.054273 -60.490149
vt -81.256540 -60.692416
vt -81.300346 -60.693116
vt -80.720940 -60.683860
vt -80.720940 -60.490149
vt -80.917796 -60.687005
vt -80.972033 -60.687871
vt -80.387607 -60.678535
vt -80.387607 -60.490149
vt -80.579051 -60.681593
vt -80.643720 -60.682626
vt -80.054273 -60.673210
vt -80.054273 -60.490149
vt -80.240306 -60.676182
vt -80.315406 -60.677382
vt -79.720940 -60.667885
vt -79.720940 -60.490149
vt -79.901562 -60.670771
vt -79.987093 -60.672137
vt -79.387607 -60.662561
vt -79.387607 -60.490149
vt -79.562817 -60.665359
vt -79.658780 -60.666892
vt -79.054273 -60.656428
vt -79.054273 -60.490149
vt -79.223757 -60.659633
vt -79.330466 -60.661648
vt -79.328411 -60.661612
vt -78.720940 -60.650124
vt -78.720940 -60.490149
vt -78.883998 -60.653207
vt -78.996557 -60.655336
vt -78.387607 -60.643820
vt -78.387607 -60.490149
vt -78.544240 -60.646782
vt -78.664702 -60.649060
vt -78.054273 -60.637516
vt -78.054273 -60.490149
vt -78.204481 -60.640357
vt -78.332847 -60.642784
vt -77.720940 -60.631212
vt -77.720940 -60.490149
vt -77.864722 -60.633931
vt -78.000992 -60.636508
vt -77.387607 -60.624908
vt -77.387607 -60.490149
vt -77.524964 -60.627506
vt -77.669137 -60.630232
vt -77.054273 -60.618604
vt -77.054273 -60.490149
vt -77.185205 -60.621081
vt -77.337283 -60.623957
vt -76.720940 -60.612301
vt -76.720940 -60.490149
vt -76.845446 -60.614655
vt -77.005428 -60.617681
vt -76.387607 -60.605997
vt -76.387607 -60.490149
vt -76.505687 -60.608230
vt -76.673573 -60.611405
vt -76.054273 -60.599693
vt -76.054273 -60.490149
vt -76.165929 -60.601804
vt -76.341718 -60.605129
vt -75.720940 -60.593389
vt -75.720940 -60.490149
vt -75.826170 -60.595379
vt -76.009864 -60.598853
vt -75.387607 -60.587085
vt -75.387607 -60.490149
vt -75.486411 -60.588954
vt -75.678009 -60.592577
vt -75.054273 -60.580781
vt -75.054273 -60.490149
vt -75.146653 -60.582528
vt -75.346154 -60.586301
vt -74.720940 -60.574477
vt -74.720940 -60.490149
vt -74.806894 -60.576103
vt -75.014299 -60.580025
vt -74.387607 -60.568174
vt -74.387607 -60.490149
vt -74.467135 -60.569678
vt -74.682444 -60.573749
vt -74.054273 -60.561870
vt -74.054273 -60.490149
vt -74.127376 -60.563252
vt -74.350590 -60.567473
vt -73.720940 -60.555566
vt -73.720940 -60.490149
vt -73.787618 -60.556827
vt -74.018735 -60.561198
vt -73.387607 -60.549262
vt -73.387607 -60.490149
vt -73.447859 -60.550401
vt -73.686880 -60.554922
vt -73.054273 -60.542958
vt -73.054273 -60.490149
vt -73.108100 -60.543976
vt -73.355025 -60.548646
vt -72.720940 -60.536654
vt -72.720940 -60.490149
vt -72.768342 -60.537551
vt -73.023170 -60.542370
vt -72.387607 -60.530350
vt -72.387607 -60.490149
vt -72.428583 -60.531125
vt -72.691316 -60.536094
vt -72.054273 -60.524047
vt -72.054273 -60.490149
vt -72.088824 -60.524700
vt -72.359461 -60.529818
vt -71.720940 -60.517743
vt -71.720940 -60.490149
vt -71.749065 -60.518275
vt -72.027606 -60.523542
vt -71.387607 -60.511439
vt -71.387607 -60.490149
vt -71.409307 -60.511849
vt -71.695751 -60.517266
vt -71.054273 -60.505135
vt -71.054273 -60.490149
vt -71.069548 -60.505424
vt -71.363897 -60.510990
vt -70.720940 -60.498831
vt -70.720940 -60.490149
vt -70.729789 -60.498998
vt -71.032042 -60.504714
vt -70.387607 -60.492527
vt -70.387607 -60.490149
vt -70.390031 -60.492573
vt -70.700187 -60.498439
vt -70.261859 -60.490149
vt -88.720940 -60.156816
vt -88.860082 -60.295958
vt -88.836997 -60.400131
vt -88.890917 -60.156816
vt -88.387607 -60.156816
vt -88.054273 -60.156816
vt -87.720940 -60.156816
vt -87.387607 -60.156816
vt -87.054273 -60.156816
vt -86.720940 -60.156816
vt -86.387607 -60.156816
vt -86.054273 -60.156816
vt -85.720940 -60.156816
vt -85.387607 -60.156816
vt -85.054273 -60.156816
vt -84.720940 -60.156816
vt -84.387607 -60.156816
vt -84.054273 -60.156816
vt -83.720940 -60.156816
vt -83.387607 -60.156816
vt -83.054273 -60.156816
vt -82.720940 -60.156816
vt -82.387607 -60.156816
vt -82.054273 -60.156816
vt -81.720940 -60.156816
vt -81.387607 -60.156816
vt -81.054273 -60.156816
vt -80.720940 -60.156816
vt -80.387607 -60.156816
vt -80.054273 -60.156816
vt -79.720940 -60.156816
vt -79.387607 -60.156816
vt -79.054273 -60.156816
vt -78.720940 -60.156816
vt -78.387607 -60.156816
vt -78.054273 -60.156816
vt -77.720940 -60.156816
vt -77.387607 -60.156816
vt -77.054273 -60.156816
vt -76.720940 -60.156816
vt -76.387607 -60.156816
vt -76.054273 -60.156816
vt -75.720940 -60.156816
vt -75.387607 -60.156816
vt -75.054273 -60.156816
vt -74.720940 -60.156816
vt -74.387607 -60.156816
vt -74.054273 -60.156816
vt -73.720940 -60.156816
vt -73.387607 -60.156816
vt -73.054273 -60.156816
vt -72.720940 -60.156816
vt -72.387607 -60.156816
vt -72.054273 -60.156816
vt -71.720940 -60.156816
vt -71.387607 -60.156816
vt -71.054273 -60.156816
vt -70.720940 -60.156816
vt -70.387607 -60.156816
vt -70.054273 -60.156816
vt -70.054273 -60.486223
vt -69.720940 -60.479919
vt -69.720940 -60.156816
vt -70.050272 -60.486148
vt -69.387607 -60.473616
vt -69.387607 -60.156816
vt -69.710513 -60.479722
vt -69.054273 -60.467312
vt -69.054273 -60.156816
vt -69.370755 -60.473297
vt -69.372768 -60.473335
vt -68.720940 -60.461008
vt -68.720940 -60.156816
vt -69.030996 -60.466872
vt -69.040913 -60.467059
vt -68.387607 -60.454704
vt -68.387607 -60.156816
vt -68.691237 -60.460446
vt -68.709058 -60.460783
vt -68.054273 -60.448400
vt -68.054273 -60.156816
vt -68.351478 -60.454021
vt -68.377204 -60.454507
vt -67.720940 -60.440942
vt -67.720940 -60.156816
vt -68.011601 -60.447477
vt -68.045349 -60.448231
vt -68.042849 -60.448180
vt -67.387607 -60.156816
vt -67.670601 -60.439810
vt -67.399643 -60.433717
vt -67.387607 -60.433447
vt -67.054273 -60.425952
vt -67.054273 -60.156816
vt -67.329600 -60.432143
vt -66.720940 -60.156816
vt -66.988600 -60.424475
vt -66.756437 -60.419255
vt -66.720940 -60.418457
vt -66.387607 -60.410962
vt -66.387607 -60.156816
vt -66.647599 -60.416808
vt -66.054273 -60.156816
vt -66.306598 -60.409141
vt -66.113231 -60.404793
vt -66.054273 -60.403467
vt -65.720940 -60.156816
vt -65.965598 -60.401473
vt -65.791628 -60.397562
vt -65.720940 -60.395972
vt -65.387607 -60.388478
vt -65.387607 -60.156816
vt -65.624597 -60.393806
vt -65.054273 -60.156816
vt -65.283597 -60.386139
vt -65.148422 -60.383100
vt -65.054273 -60.380983
vt -64.720940 -60.373488
vt -64.720940 -60.156816
vt -64.942596 -60.378472
vt -64.387607 -60.156816
vt -64.601595 -60.370804
vt -64.505216 -60.368637
vt -64.387607 -60.365993
vt -64.054273 -60.156816
vt -64.260595 -60.363137
vt -64.183613 -60.361406
vt -64.054273 -60.358498
vt -63.720940 -60.351003
vt -63.720940 -60.156816
vt -63.919594 -60.355470
vt -63.387607 -60.343508
vt -63.387607 -60.156816
vt -63.578594 -60.347803
vt -63.054273 -60.156816
vt -63.237593 -60.340135
vt -63.218804 -60.339713
vt -63.054273 -60.336014
vt -62.720940 -60.328519
vt -62.720940 -60.156816
vt -62.896592 -60.332468
vt -62.897201 -60.332482
vt -62.387607 -60.321024
vt -62.387607 -60.156816
vt -62.555592 -60.324801
vt -62.575598 -60.325251
vt -62.054273 -60.313529
vt -62.054273 -60.156816
vt -62.214591 -60.317134
vt -62.253995 -60.318020
vt -61.720940 -60.306034
vt -61.720940 -60.156816
vt -61.873591 -60.309466
vt -61.932392 -60.310788
vt -61.387607 -60.298539
vt -61.387607 -60.156816
vt -61.532590 -60.301799
vt -61.610789 -60.303557
vt -61.054273 -60.291044
vt -61.054273 -60.156816
vt -61.191589 -60.294132
vt -61.289186 -60.296326
vt -60.720940 -60.283549
vt -60.720940 -60.156816
vt -60.850589 -60.286465
vt -60.967583 -60.289095
vt -60.387607 -60.276055
vt -60.387607 -60.156816
vt -60.509588 -60.278797
vt -60.645980 -60.281864
vt -60.054273 -60.268560
vt -60.054273 -60.156816
vt -60.168588 -60.271130
vt -60.324377 -60.274633
vt -59.720940 -60.260480
vt -59.720940 -60.156816
vt -59.827215 -60.263091
vt -60.002774 -60.267402
vt -60.001320 -60.267368
vt -59.387607 -60.252292
vt -59.387607 -60.156816
vt -59.485488 -60.254697
vt -59.668488 -60.259192
vt -59.054273 -60.244105
vt -59.054273 -60.156816
vt -59.143760 -60.246303
vt -59.335656 -60.251016
vt -58.720940 -60.235917
vt -58.720940 -60.156816
vt -58.802033 -60.237909
vt -59.002824 -60.242841
vt -58.387607 -60.227729
vt -58.387607 -60.156816
vt -58.460305 -60.229514
vt -58.669992 -60.234665
vt -58.054273 -60.219541
vt -58.054273 -60.156816
vt -58.118578 -60.221120
vt -58.337160 -60.226489
vt -57.720940 -60.211353
vt -57.720940 -60.156816
vt -57.776850 -60.212726
vt -58.004328 -60.218314
vt -57.387607 -60.203165
vt -57.387607 -60.156816
vt -57.435123 -60.204332
vt -57.671496 -60.210138
vt -88.720940 -59.823482
vt -88.867207 -59.969749
vt -88.896090 -60.133473
vt -88.822504 -59.823482
vt -88.848640 -59.864500
vt -88.387607 -59.823482
vt -88.054273 -59.823482
vt -87.720940 -59.823482
vt -87.387607 -59.823482
vt -87.054273 -59.823482
vt -86.720940 -59.823482
vt -86.387607 -59.823482
vt -86.054273 -59.823482
vt -85.720940 -59.823482
vt -85.387607 -59.823482
vt -85.054273 -59.823482
vt -84.720940 -59.823482
vt -84.387607 -59.823482
vt -84.054273 -59.823482
vt -83.720940 -59.823482
vt -83.387607 -59.823482
vt -83.054273 -59.823482
vt -82.720940 -59.823482
vt -82.387607 -59.823482
vt -82.054273 -59.823482
vt -81.720940 -59.823482
vt -81.387607 -59.823482
vt -81.054273 -59.823482
vt -80.720940 -59.823482
vt -80.387607 -59.823482
vt -80.054273 -59.823482
vt -79.720940 -59.823482
vt -79.387607 -59.823482
vt -79.054273 -59.823482
vt -78.720940 -59.823482
vt -78.387607 -59.823482
vt -78.054273 -59.823482
vt -77.720940 -59.823482
vt -77.387607 -59.823482
vt -77.054273 -59.823482
vt -76.720940 -59.823482
vt -76.387607 -59.823482
vt -76.054273 -59.823482
vt -75.720940 -59.823482
vt -75.387607 -59.823482
vt -75.054273 -59.823482
vt -74.720940 -59.823482
vt -74.387607 -59.823482
vt -74.054273 -59.823482
vt -73.720940 -59.823482
vt -73.387607 -59.823482
vt -73.054273 -59.823482
vt -72.720940 -59.823482
vt -72.387607 -59.823482
vt -72.054273 -59.823482
vt -71.720940 -59.823482
vt -71.387607 -59.823482
vt -71.054273 -59.823482
vt -70.720940 -59.823482
vt -70.387607 -59.823482
vt -70.054273 -59.823482
vt -69.720940 -59.823482
vt -69.387607 -59.823482
vt -69.054273 -59.823482
vt -68.720940 -59.823482
vt -68.387607 -59.823482
vt -68.054273 -59.823482
vt -67.720940 -59.823482
vt -67.387607 -59.823482
vt -67.054273 -59.823482
vt -66.720940 -59.823482
vt -66.387607 -59.823482
vt -66.054273 -59.823482
vt -65.720940 -59.823482
vt -65.387607 -59.823482
vt -65.054273 -59.823482
vt -64.720940 -59.823482
vt -64.387607 -59.823482
vt -64.054273 -59.823482
vt -63.720940 -59.823482
vt -63.387607 -59.823482
vt -63.054273 -59.823482
vt -62.720940 -59.823482
vt -62.387607 -59.823482
vt -62.054273 -59.823482
vt -61.720940 -59.823482
vt -61.387607 -59.823482
vt -61.054273 -59.823482
vt -60.720940 -59.823482
vt -60.387607 -59.823482
vt -60.054273 -59.823482
vt -59.720940 -59.823482
vt -59.387607 -59.823482
vt -59.054273 -59.823482
vt -58.720940 -59.823482
vt -58.387607 -59.823482
vt -58.054273 -59.823482
vt -57.720940 -59.823482
vt -57.387607 -59.823482
vt -88.720940 -59.664089
vt -88.387607 -59.490149
vt -88.496164 -59.490149
vt -88.701870 -59.634160
vt -88.054273 -59.490149
vt -87.720940 -59.490149
vt -87.387607 -59.490149
vt -87.054273 -59.490149
vt -86.720940 -59.490149
vt -86.387607 -59.490149
vt -86.054273 -59.490149
vt -85.720940 -59.490149
vt -85.387607 -59.490149
vt -85.054273 -59.490149
vt -84.720940 -59.490149
vt -84.387607 -59.490149
vt -84.054273 -59.490149
vt -83.720940 -59.490149
vt -83.387607 -59.490149
vt -83.054273 -59.490149
vt -82.720940 -59.490149
vt -82.387607 -59.490149
vt -82.054273 -59.490149
vt -81.720940 -59.490149
vt -81.387607 -59.490149
vt -81.054273 -59.490149
vt -80.720940 -59.490149
vt -80.387607 -59.490149
vt -80.054273 -59.490149
vt -79.720940 -59.490149
vt -79.387607 -59.490149
vt -79.054273 -59.490149
vt -78.720940 -59.490149
vt -78.387607 -59.490149
vt -78.054273 -59.490149
vt -77.720940 -59.490149
vt -77.387607 -59.490149
vt -77.054273 -59.490149
vt -76.720940 -59.490149
vt -76.387607 -59.490149
vt -76.054273 -59.490149
vt -75.720940 -59.490149
vt -75.387607 -59.490149
vt -75.054273 -59.490149
vt -74.720940 -59.490149
vt -74.387607 -59.490149
vt -74.054273 -59.490149
vt -73.720940 -59.490149
vt -73.387607 -59.490149
vt -73.054273 -59.490149
vt -72.720940 -59.490149
vt -72.387607 -59.490149
vt -72.054273 -59.490149
vt -71.720940 -59.490149
vt -71.387607 -59.490149
vt -71.054273 -59.490149
vt -70.720940 -59.490149
vt -70.387607 -59.490149
vt -70.054273 -59.490149
vt -69.720940 -59.490149
vt -69.387607 -59.490149
vt -69.054273 -59.490149
vt -68.720940 -59.490149
vt -68.387607 -59.490149
vt -68.054273 -59.490149
vt -67.720940 -59.490149
vt -67.387607 -59.490149
vt -67.054273 -59.490149
vt -66.720940 -59.490149
vt -66.387607 -59.490149
vt -66.054273 -59.490149
vt -65.720940 -59.490149
vt -65.387607 -59.490149
vt -65.054273 -59.490149
vt -64.720940 -59.490149
vt -64.387607 -59.490149
vt -64.054273 -59.490149
vt -63.720940 -59.490149
vt -63.387607 -59.490149
vt -63.054273 -59.490149
vt -62.720940 -59.490149
vt -62.387607 -59.490149
vt -62.054273 -59.490149
vt -61.720940 -59.490149
vt -61.387607 -59.490149
vt -61.054273 -59.490149
vt -60.720940 -59.490149
vt -60.387607 -59.490149
vt -60.054273 -59.490149
vt -59.720940 -59.490149
vt -59.387607 -59.490149
vt -59.054273 -59.490149
vt -58.720940 -59.490149
vt -58.387607 -59.490149
vt -58.054273 -59.490149
vt -57.720940 -59.490149
vt -57.387607 -59.490149
vt -88.387607 -59.457461
vt -88.478124 -59.477520
vt -88.054273 -59.415010
vt -88.211467 -59.418427
vt -88.345612 -59.448154
vt -87.720940 -59.407765
vt -87.884385 -59.411317
vt -87.977465 -59.413341
vt -87.387607 -59.400519
vt -87.557303 -59.404208
vt -87.636725 -59.405934
vt -87.054273 -59.393274
vt -87.295985 -59.398528
vt -86.720940 -59.386028
vt -86.903140 -59.389989
vt -86.955246 -59.391121
vt -86.387607 -59.378783
vt -86.576058 -59.382879
vt -86.614506 -59.383715
vt -86.054273 -59.371538
vt -86.248976 -59.375770
vt -86.273766 -59.376309
vt -85.720940 -59.364292
vt -85.921894 -59.368660
vt -85.933026 -59.368902
vt -85.387607 -59.358229
vt -85.590781 -59.361475
vt -85.592294 -59.361503
vt -85.594812 -59.361551
vt -85.054273 -59.352904
vt -85.253545 -59.356088
vt -85.262468 -59.356230
vt -84.720940 -59.347579
vt -84.914801 -59.350676
vt -84.934154 -59.350985
vt -84.387607 -59.342255
vt -84.576056 -59.345265
vt -84.054273 -59.336930
vt -84.237311 -59.339854
vt -83.720940 -59.331605
vt -83.898567 -59.334442
vt -83.387607 -59.326280
vt -83.559822 -59.329031
vt -83.620901 -59.330007
vt -83.054273 -59.320955
vt -83.221077 -59.323620
vt -82.720940 -59.315630
vt -82.882333 -59.318209
vt -82.387607 -59.310306
vt -82.543588 -59.312797
vt -82.635961 -59.314273
vt -82.054273 -59.304981
vt -82.204844 -59.307386
vt -81.720940 -59.299656
vt -81.866099 -59.301975
vt -81.387607 -59.294331
vt -81.527354 -59.296563
vt -81.054273 -59.289006
vt -81.188610 -59.291152
vt -80.720940 -59.283681
vt -80.849865 -59.285741
vt -80.994394 -59.288050
vt -80.387607 -59.278356
vt -80.511121 -59.280330
vt -80.054273 -59.273032
vt -80.172376 -59.274918
vt -80.337768 -59.277560
vt -79.720940 -59.267707
vt -79.833631 -59.269507
vt -79.387607 -59.262382
vt -79.494887 -59.264096
vt -79.681141 -59.267071
vt -79.054273 -59.256177
vt -79.155550 -59.258093
vt -79.353855 -59.261843
vt -78.720940 -59.249873
vt -78.815791 -59.251667
vt -79.023028 -59.255586
vt -78.387607 -59.243570
vt -78.476033 -59.245242
vt -78.054273 -59.237266
vt -78.136274 -59.238816
vt -78.359318 -59.243035
vt -77.720940 -59.230962
vt -77.796515 -59.232391
vt -77.387607 -59.224658
vt -77.456757 -59.225966
vt -77.695609 -59.230483
vt -77.054273 -59.218354
vt -77.116998 -59.219540
vt -76.720940 -59.212050
vt -76.777239 -59.213115
vt -77.031899 -59.217931
vt -76.387607 -59.205746
vt -76.437480 -59.206690
vt -76.700045 -59.211655
vt -76.054273 -59.199442
vt -76.097722 -59.200264
vt -75.720940 -59.193139
vt -75.757963 -59.193839
vt -76.036335 -59.199103
vt -75.387607 -59.186835
vt -75.418204 -59.187413
vt -75.054273 -59.180531
vt -75.078446 -59.180988
vt -74.720940 -59.174227
vt -74.738687 -59.174563
vt -74.387607 -59.167923
vt -74.398928 -59.168137
vt -74.054273 -59.161619
vt -74.059170 -59.161712
vt -74.377061 -59.167724
vt -73.720940 -59.156816
vt -73.800273 -59.156816
vt -74.045206 -59.161448
vt -73.387607 -59.156816
vt -73.054273 -59.156816
vt -72.720940 -59.156816
vt -72.387607 -59.156816
vt -72.054273 -59.156816
vt -71.720940 -59.156816
vt -71.387607 -59.156816
vt -71.054273 -59.156816
vt -70.720940 -59.156816
vt -70.387607 -59.156816
vt -70.054273 -59.156816
vt -69.720940 -59.156816
vt -69.387607 -59.156816
vt -69.054273 -59.156816
vt -68.720940 -59.156816
vt -68.387607 -59.156816
vt -68.054273 -59.156816
vt -67.720940 -59.156816
vt -67.387607 -59.156816
vt -67.054273 -59.156816
vt -66.720940 -59.156816
vt -66.387607 -59.156816
vt -66.054273 -59.156816
vt -65.720940 -59.156816
vt -65.387607 -59.156816
vt -65.054273 -59.156816
vt -64.720940 -59.156816
vt -64.387607 -59.156816
vt -64.054273 -59.156816
vt -63.720940 -59.156816
vt -63.387607 -59.156816
vt -63.054273 -59.156816
vt -62.720940 -59.156816
vt -62.387607 -59.156816
vt -62.054273 -59.156816
vt -61.720940 -59.156816
vt -61.387607 -59.156816
vt -61.054273 -59.156816
vt -60.720940 -59.156816
vt -60.387607 -59.156816
vt -60.054273 -59.156816
vt -59.720940 -59.156816
vt -59.387607 -59.156816
vt -59.054273 -59.156816
vt -58.720940 -59.156816
vt -58.387607 -59.156816
vt -58.054273 -59.156816
vt -57.720940 -59.156816
vt -57.387607 -59.156816
vt -73.720940 -59.155315
vt -73.387607 -59.149012
vt -73.713352 -59.155172
vt -73.719411 -59.155287
vt -73.054273 -59.142708
vt -73.379652 -59.148861
vt -72.720940 -59.136404
vt -73.039893 -59.142436
vt -73.049642 -59.142620
vt -72.387607 -59.130100
vt -72.700135 -59.136010
vt -72.054273 -59.123796
vt -72.360376 -59.129585
vt -71.720940 -59.117492
vt -71.722223 -59.117517
vt -72.020617 -59.123160
vt -72.054078 -59.123792
vt -71.387607 -59.111188
vt -71.390368 -59.111241
vt -71.680859 -59.116734
vt -71.054273 -59.104885
vt -71.058513 -59.104965
vt -71.341100 -59.110309
vt -70.720940 -59.098581
vt -70.726659 -59.098689
vt -71.001341 -59.103884
vt -70.387607 -59.092277
vt -70.394804 -59.092413
vt -70.661582 -59.097458
vt -70.054273 -59.085973
vt -70.062949 -59.086137
vt -70.321824 -59.091033
vt -69.720940 -59.079669
vt -69.731094 -59.079861
vt -69.982065 -59.084607
vt -69.387607 -59.073365
vt -69.399239 -59.073585
vt -69.642306 -59.078182
vt -69.054273 -59.067061
vt -69.067385 -59.067309
vt -69.302548 -59.071757
vt -68.720940 -59.060758
vt -68.735530 -59.061033
vt -68.962789 -59.065331
vt -68.387607 -59.054454
vt -68.403675 -59.054758
vt -68.623030 -59.058906
vt -68.054273 -59.048083
vt -68.073070 -59.048505
vt -68.283271 -59.052481
vt -67.720940 -59.040588
vt -67.752717 -59.041302
vt -67.943039 -59.045582
vt -67.387607 -59.033093
vt -67.431114 -59.034071
vt -67.602039 -59.037914
vt -67.054273 -59.025598
vt -67.109511 -59.026840
vt -67.261038 -59.030247
vt -66.720940 -59.018103
vt -66.787908 -59.019609
vt -66.920037 -59.022580
vt -66.387607 -59.010608
vt -66.466305 -59.012378
vt -66.579037 -59.014913
vt -66.054273 -59.003113
vt -66.144702 -59.005147
vt -66.238036 -59.007245
vt -65.720940 -58.995619
vt -65.823099 -58.997916
vt -65.897036 -58.999578
vt -65.387607 -58.988124
vt -65.501496 -58.990685
vt -65.556035 -58.991911
vt -65.054273 -58.980629
vt -65.179893 -58.983453
vt -65.215034 -58.984244
vt -64.720940 -58.973134
vt -64.858290 -58.976222
vt -64.874034 -58.976576
vt -64.387607 -58.965639
vt -64.533033 -58.968909
vt -64.536687 -58.968991
vt -64.054273 -58.958144
vt -64.192033 -58.961242
vt -63.720940 -58.950649
vt -63.851032 -58.953574
vt -63.893481 -58.954529
vt -63.387607 -58.943155
vt -63.510031 -58.945907
vt -63.571878 -58.947298
vt -63.054273 -58.935660
vt -63.169031 -58.938240
vt -62.720940 -58.928165
vt -62.828030 -58.930573
vt -62.387607 -58.920670
vt -62.487030 -58.922905
vt -62.054273 -58.913175
vt -62.146029 -58.915238
vt -62.285466 -58.918373
vt -61.720940 -58.905680
vt -61.805029 -58.907571
vt -61.963863 -58.911142
vt -61.387607 -58.898185
vt -61.464028 -58.899904
vt -61.054273 -58.890690
vt -61.123027 -58.892236
vt -61.320657 -58.896680
vt -60.720940 -58.883196
vt -60.782027 -58.884569
vt -60.387607 -58.875701
vt -60.441026 -58.876902
vt -60.677451 -58.882218
vt -60.054273 -58.868206
vt -60.100026 -58.869235
vt -59.720940 -58.860058
vt -59.758437 -58.860979
vt -60.034972 -58.867772
vt -59.387607 -58.851870
vt -59.416709 -58.852585
vt -59.702867 -58.859614
vt -59.054273 -58.843682
vt -59.074982 -58.844191
vt -59.370035 -58.851439
vt -58.720940 -58.835494
vt -58.733254 -58.835797
vt -58.387607 -58.827306
vt -58.391527 -58.827403
vt -58.054273 -58.823482
vt -58.231934 -58.823482
vt -58.371539 -58.826912
vt -57.720940 -58.823482
vt -57.387607 -58.823482
vt -58.054273 -58.819118
vt -57.720940 -58.810930
vt -58.038707 -58.818736
vt -58.049799 -58.819009
vt -57.387607 -58.802743
vt -57.705875 -58.810560
vt -57.708072 -58.810614
f 1/1 2/2 3/3
f 3/3 2/2 4/4
f 5/5 6/6 7/7
f 5/5 7/7 8/8
f 6/6 2/2 1/1
f 6/6 1/1 9/9
f 6/6 9/9 7/7
f 10/10 11/11 12/12
f 10/10 12/12 13/13
f 11/11 6/6 5/5
f 11/11 5/5 12/12
f 14/14 15/15 16/16
f 15/15 11/11 10/10
f 15/15 10/10 16/16
f 17/17 18/18 19/19
f 17/17 19/19 20/20
f 17/17 15/15 14/14
f 17/17 14/14 18/18
f 21/21 22/22 23/23
f 22/22 17/17 20/20
f 22/22 20/20 23/23
f 24/24 25/25 26/26
f 24/24 26/26 27/27
f 24/24 22/22 21/21
f 24/24 21/21 25/25
f 28/28 29/29 30/30
f 29/29 24/24 27/27
f 29/29 27/27 30/30
f 31/31 32/32 33/33
f 32/32 29/29 28/28
f 32/32 28/28 33/33
f 34/34 35/35 36/36
f 34/34 36/36 37/37
f 34/34 32/32 31/31
f 34/34 31/31 35/35
f 38/38 39/39 40/40
f 38/38 40/40 41/41
f 38/38 34/34 37/37
f 38/38 37/37 39/39
f 42/42 43/43 44/44
f 42/42 44/44 45/45
f 42/42 38/38 41/41
f 42/42 41/41 43/43
f 46/46 47/47 48/48
f 47/47 42/42 45/45
f 47/47 45/45 48/48
f 49/49 50/50 51/51
f 49/49 51/51 52/52
f 49/49 47/47 46/46
f 49/49 46/46 50/50
f 53/53 54/54 55/55
f 54/54 49/49 52/52
f 54/54 52/52 55/55
f 56/56 57/57 58/58
f 56/56 58/58 59/59
f 56/56 54/54 53/53
f 56/56 53/53 57/57
f 60/60 61/61 62/62
f 61/61 56/56 59/59
f 61/61 59/59 62/62
f 63/63 64/64 65/65
f 64/64 61/61 60/60
f 64/64 60/60 65/65
f 66/66 67/67 68/68
f 67/67 64/64 63/63
f 67/67 63/63 68/68
f 69/69 70/70 71/71
f 70/70 67/67 66/66
f 70/70 66/66 72/72
f 70/70 72/72 71/71
f 73/73 74/74 75/75
f 74/74 70/70 69/69
f 74/74 69/69 76/76
f 74/74 76/76 75/75
f 77/77 78/78 79/79
f 78/78 74/74 73/73
f 78/78 73/73 80/80
f 78/78 80/80 79/79
f 81/81 82/82 83/83
f 82/82 78/78 77/77
f 82/82 77/77 84/84
f 82/82 84/84 83/83
f 85/85 86/86 87/87
f 86/86 82/82 81/81
f 86/86 81/81 88/88
f 86/86 88/88 87/87
f 89/89 90/90 91/91
f 90/90 86/86 85/85
f 90/90 85/85 92/92
f 90/90 92/92 91/91
f 93/93 94/94 95/95
f 94/94 90/90 89/89
f 94/94 89/89 96/96
f 94/94 96/96 95/95
f 97/97 98/98 99/99
f 98/98 94/94 93/93
f 98/98 93/93 100/100
f 98/98 100/100 99/99
f 101/101 102/102 103/103
f 102/102 98/98 97/97
f 102/102 97/97 104/104
f 102/102 104/104 103/103
f 105/105 106/106 107/107
f 106/106 102/102 101/101
f 106/106 101/101 108/108
f 106/106 108/108 107/107
f 109/109 110/110 111/111
f 110/110 106/106 105/105
f 110/110 105/105 112/112
f 110/110 112/112 113/113
f 110/110 113/113 111/111
f 114/114 115/115 116/116
f 115/115 110/110 109/109
f 115/115 109/109 117/117
f 115/115 117/117 116/116
f 118/118 119/119 120/120
f 119/119 115/115 114/114
f 119/119 114/114 121/121
f 119/119 121/121 120/120
f 122/122 123/123 124/124
f 123/123 119/119 118/118
f 123/123 118/118 125/125
f 123/123 125/125 124/124
f 126/126 127/127 128/128
f 127/127 123/123 122/122
f 127/127 122/122 129/129
f 127/127 129/129 128/128
f 130/130 131/131 132/132
f 131/131 127/127 126/126
f 131/131 126/126 133/133
f 131/131 133/133 132/132
f 134/134 135/135 136/136
f 135/135 131/131 130/130
f 135/135 130/130 137/137
f 135/135 137/137 136/136
f 138/138 139/139 140/140
f 139/139 135/135 134/134
f 139/139 134/134 141/141
f 139/139 141/141 140/140
f 142/142 143/143 144/144
f 143/143 139/139 138/138
f 143/143 138/138 145/145
f 143/143 145/145 144/144
f 146/146 147/147 148/148
f 147/147 143/143 142/142
f 147/147 142/142 149/149
f 147/147 149/149 148/148
f 150/150 151/151 152/152
f 151/151 147/147 146/146
f 151/151 146/146 153/153
f 151/151 153/153 152/152
f 154/154 155/155 156/156
f 155/155 151/151 150/150
f 155/155 150/150 157/157
f 155/155 157/157 156/156
f 158/158 159/159 160/160
f 159/159 155/155 154/154
f 159/159 154/154 161/161
f 159/159 161/161 160/160
f 162/162 163/163 164/164
f 163/163 159/159 158/158
f 163/163 158/158 165/165
f 163/163 165/165 164/164
f 166/166 167/167 168/168
f 167/167 163/163 162/162
f 167/167 162/162 169/169
f 167/167 169/169 168/168
f 170/170 171/171 172/172
f 171/171 167/167 166/166
f 171/171 166/166 173/173
f 171/171 173/173 172/172
f 174/174 175/175 176/176
f 175/175 171/171 170/170
f 175/175 170/170 177/177
f 175/175 177/177 176/176
f 178/178 179/179 180/180
f 179/179 175/175 174/174
f 179/179 174/174 181/181
f 179/179 181/181 180/180
f 182/182 183/183 184/184
f 183/183 179/179 178/178
f 183/183 178/178 185/185
f 183/183 185/185 184/184
f 186/186 187/187 188/188
f 187/187 183/183 182/182
f 187/187 182/182 189/189
f 187/187 189/189 188/188
f 190/190 191/191 192/192
f 191/191 187/187 186/186
f 191/191 186/186 193/193
f 191/191 193/193 192/192
f 194/194 195/195 196/196
f 195/195 191/191 190/190
f 195/195 190/190 197/197
f 195/195 197/197 196/196
f 198/198 199/199 200/200
f 199/199 195/195 194/194
f 199/199 194/194 201/201
f 199/199 201/201 200/200
f 202/202 203/203 204/204
f 203/203 199/199 198/198
f 203/203 198/198 205/205
f 203/203 205/205 204/204
f 206/206 207/207 208/208
f 207/207 203/203 202/202
f 207/207 202/202 209/209
f 207/207 209/209 208/208
f 210/210 211/211 212/212
f 211/211 207/207 206/206
f 211/211 206/206 213/213
f 211/211 213/213 212/212
f 214/214 215/215 216/216
f 215/215 211/211 210/210
f 215/215 210/210 217/217
f 215/215 217/217 216/216
f 218/218 215/215 214/214
f 2/2 219/219 220/220
f 2/2 220/220 221/221
f 2/2 221/221 4/4
f 220/220 219/219 222/222
f 6/6 223/223 2/2
f 223/223 219/219 2/2
f 11/11 224/224 6/6
f 224/224 223/223 6/6
f 15/15 225/225 11/11
f 225/225 224/224 11/11
f 17/17 226/226 15/15
f 226/226 225/225 15/15
f 22/22 227/227 17/17
f 227/227 226/226 17/17
f 24/24 228/228 22/22
f 228/228 227/227 22/22
f 29/29 229/229 24/24
f 229/229 228/228 24/24
f 32/32 230/230 29/29
f 230/230 229/229 29/29
f 34/34 231/231 32/32
f 231/231 230/230 32/32
f 38/38 232/232 34/34
f 232/232 231/231 34/34
f 42/42 233/233 38/38
f 233/233 232/232 38/38
f 47/47 234/234 42/42
f 234/234 233/233 42/42
f 49/49 235/235 47/47
f 235/235 234/234 47/47
f 54/54 236/236 49/49
f 236/236 235/235 49/49
f 56/56 237/237 54/54
f 237/237 236/236 54/54
f 61/61 238/238 56/56
f 238/238 237/237 56/56
f 64/64 239/239 61/61
f 239/239 238/238 61/61
f 67/67 240/240 64/64
f 240/240 239/239 64/64
f 70/70 241/241 67/67
f 241/241 240/240 67/67
f 74/74 242/242 70/70
f 242/242 241/241 70/70
f 78/78 243/243 74/74
f 243/243 242/242 74/74
f 82/82 244/244 78/78
f 244/244 243/243 78/78
f 86/86 245/245 82/82
f 245/245 244/244 82/82
f 90/90 246/246 86/86
f 246/246 245/245 86/86
f 94/94 247/247 90/90
f 247/247 246/246 90/90
f 98/98 248/248 94/94
f 248/248 247/247 94/94
f 102/102 249/249 98/98
f 249/249 248/248 98/98
f 106/106 250/250 102/102
f 250/250 249/249 102/102
f 110/110 251/251 106/106
f 251/251 250/250 106/106
f 115/115 252/252 110/110
f 252/252 251/251 110/110
f 119/119 253/253 115/115
f 253/253 252/252 115/115
f 123/123 254/254 119/119
f 254/254 253/253 119/119
f 127/127 255/255 123/123
f 255/255 254/254 123/123
f 131/131 256/256 127/127
f 256/256 255/255 127/127
f 135/135 257/257 131/131
f 257/257 256/256 131/131
f 139/139 258/258 135/135
f 258/258 257/257 135/135
f 143/143 259/259 139/139
f 259/259 258/258 139/139
f 147/147 260/260 143/143
f 260/260 259/259 143/143
f 151/151 261/261 147/147
f 261/261 260/260 147/147
f 155/155 262/262 151/151
f 262/262 261/261 151/151
f 159/159 263/263 155/155
f 263/263 262/262 155/155
f 163/163 264/264 159/159
f 264/264 263/263 159/159
f 167/167 265/265 163/163
f 265/265 264/264 163/163
f 171/171 266/266 167/167
f 266/266 265/265 167/167
f 175/175 267/267 171/171
f 267/267 266/266 171/171
f 179/179 268/268 175/175
f 268/268 267/267 175/175
f 183/183 269/269 179/179
f 269/269 268/268 179/179
f 187/187 270/270 183/183
f 270/270 269/269 183/183
f 191/191 271/271 187/187
f 271/271 270/270 187/187
f 195/195 272/272 191/191
f 272/272 271/271 191/191
f 199/199 273/273 195/195
f 273/273 272/272 195/195
f 203/203 274/274 199/199
f 274/274 273/273 199/199
f 207/207 275/275 203/203
f 275/275 274/274 203/203
f 211/211 276/276 207/207
f 276/276 275/275 207/207
f 215/215 277/277 211/211
f 277/277 276/276 211/211
f 278/278 215/215 218/218
f 278/278 218/218 279/279
f 278/278 277/277 215/215
f 280/280 281/281 282/282
f 281/281 278/278 279/279
f 281/281 279/279 282/282
f 283/283 284/284 285/285
f 284/284 281/281 280/280
f 284/284 280/280 285/285
f 286/286 287/287 288/288
f 287/287 284/284 283/283
f 287/287 283/283 289/289
f 287/287 289/289 288/288
f 290/290 291/291 292/292
f 291/291 287/287 286/286
f 291/291 286/286 293/293
f 291/291 293/293 292/292
f 294/294 295/295 296/296
f 295/295 291/291 290/290
f 295/295 290/290 297/297
f 295/295 297/297 296/296
f 298/298 299/299 300/300
f 299/299 295/295 294/294
f 299/299 294/294 301/301
f 299/299 301/301 300/300
f 302/302 303/303 304/304
f 303/303 299/299 298/298
f 303/303 298/298 305/305
f 303/303 305/305 306/306
f 303/303 306/306 304/304
f 307/307 308/308 309/309
f 307/307 309/309 310/310
f 307/307 303/303 302/302
f 307/307 302/302 308/308
f 311/311 312/312 313/313
f 312/312 307/307 310/310
f 312/312 310/310 313/313
f 314/314 315/315 316/316
f 314/314 316/316 317/317
f 314/314 312/312 311/311
f 314/314 311/311 315/315
f 318/318 319/319 320/320
f 319/319 314/314 317/317
f 319/319 317/317 320/320
f 321/321 322/322 323/323
f 321/321 323/323 324/324
f 321/321 319/319 318/318
f 321/321 318/318 322/322
f 325/325 326/326 327/327
f 325/325 327/327 328/328
f 325/325 321/321 324/324
f 325/325 324/324 326/326
f 329/329 330/330 331/331
f 330/330 325/325 328/328
f 330/330 328/328 331/331
f 332/332 333/333 334/334
f 332/332 334/334 335/335
f 332/332 330/330 329/329
f 332/332 329/329 333/333
f 336/336 337/337 338/338
f 337/337 332/332 335/335
f 337/337 335/335 338/338
f 339/339 340/340 341/341
f 339/339 341/341 342/342
f 339/339 337/337 336/336
f 339/339 336/336 340/340
f 343/343 344/344 345/345
f 343/343 345/345 346/346
f 343/343 339/339 342/342
f 343/343 342/342 344/344
f 347/347 348/348 349/349
f 348/348 343/343 346/346
f 348/348 346/346 349/349
f 350/350 351/351 352/352
f 351/351 348/348 347/347
f 351/351 347/347 352/352
f 353/353 354/354 355/355
f 353/353 355/355 356/356
f 353/353 351/351 350/350
f 353/353 350/350 354/354
f 357/357 358/358 359/359
f 358/358 353/353 356/356
f 358/358 356/356 360/360
f 358/358 360/360 359/359
f 361/361 362/362 363/363
f 362/362 358/358 357/357
f 362/362 357/357 364/364
f 362/362 364/364 363/363
f 365/365 366/366 367/367
f 366/366 362/362 361/361
f 366/366 361/361 368/368
f 366/366 368/368 367/367
f 369/369 370/370 371/371
f 370/370 366/366 365/365
f 370/370 365/365 372/372
f 370/370 372/372 371/371
f 373/373 374/374 375/375
f 374/374 370/370 369/369
f 374/374 369/369 376/376
f 374/374 376/376 375/375
f 377/377 378/378 379/379
f 378/378 374/374 373/373
f 378/378 373/373 380/380
f 378/378 380/380 379/379
f 381/381 382/382 383/383
f 382/382 378/378 377/377
f 382/382 377/377 384/384
f 382/382 384/384 383/383
f 385/385 386/386 387/387
f 386/386 382/382 381/381
f 386/386 381/381 388/388
f 386/386 388/388 387/387
f 389/389 390/390 391/391
f 390/390 386/386 385/385
f 390/390 385/385 392/392
f 390/390 392/392 391/391
f 393/393 394/394 395/395
f 394/394 390/390 389/389
f 394/394 389/389 396/396
f 394/394 396/396 397/397
f 394/394 397/397 395/395
f 398/398 399/399 400/400
f 399/399 394/394 393/393
f 399/399 393/393 401/401
f 399/399 401/401 400/400
f 402/402 403/403 404/404
f 403/403 399/399 398/398
f 403/403 398/398 405/405
f 403/403 405/405 404/404
f 406/406 407/407 408/408
f 407/407 403/403 402/402
f 407/407 402/402 409/409
f 407/407 409/409 408/408
f 410/410 411/411 412/412
f 411/411 407/407 406/406
f 411/411 406/406 413/413
f 411/411 413/413 412/412
f 414/414 415/415 416/416
f 415/415 411/411 410/410
f 415/415 410/410 417/417
f 415/415 417/417 416/416
f 418/418 419/419 420/420
f 419/419 415/415 414/414
f 419/419 414/414 421/421
f 419/419 421/421 420/420
f 422/422 423/423 424/424
f 423/423 419/419 418/418
f 423/423 418/418 425/425
f 423/423 425/425 424/424
f 219/219 426/426 427/427
f 219/219 427/427 428/428
f 219/219 428/428 222/222
f 427/427 426/426 429/429
f 427/427 429/429 430/430
f 223/223 431/431 219/219
f 431/431 426/426 219/219
f 224/224 432/432 223/223
f 432/432 431/431 223/223
f 225/225 433/433 224/224
f 433/433 432/432 224/224
f 226/226 434/434 225/225
f 434/434 433/433 225/225
f 227/227 435/435 226/226
f 435/435 434/434 226/226
f 228/228 436/436 227/227
f 436/436 435/435 227/227
f 229/229 437/437 228/228
f 437/437 436/436 228/228
f 230/230 438/438 229/229
f 438/438 437/437 229/229
f 231/231 439/439 230/230
f 439/439 438/438 230/230
f 232/232 440/440 231/231
f 440/440 439/439 231/231
f 233/233 441/441 232/232
f 441/441 440/440 232/232
f 234/234 442/442 233/233
f 442/442 441/441 233/233
f 235/235 443/443 234/234
f 443/443 442/442 234/234
f 236/236 444/444 235/235
f 444/444 443/443 235/235
f 237/237 445/445 236/236
f 445/445 444/444 236/236
f 238/238 446/446 237/237
f 446/446 445/445 237/237
f 239/239 447/447 238/238
f 447/447 446/446 238/238
f 240/240 448/448 239/239
f 448/448 447/447 239/239
f 241/241 449/449 240/240
f 449/449 448/448 240/240
f 242/242 450/450 241/241
f 450/450 449/449 241/241
f 243/243 451/451 242/242
f 451/451 450/450 242/242
f 244/244 452/452 243/243
f 452/452 451/451 243/243
f 245/245 453/453 244/244
f 453/453 452/452 244/244
f 246/246 454/454 245/245
f 454/454 453/453 245/245
f 247/247 455/455 246/246
f 455/455 454/454 246/246
f 248/248 456/456 247/247
f 456/456 455/455 247/247
f 249/249 457/457 248/248
f 457/457 456/456 248/248
f 250/250 458/458 249/249
f 458/458 457/457 249/249
f 251/251 459/459 250/250
f 459/459 458/458 250/250
f 252/252 460/460 251/251
f 460/460 459/459 251/251
f 253/253 461/461 252/252
f 461/461 460/460 252/252
f 254/254 462/462 253/253
f 462/462 461/461 253/253
f 255/255 463/463 254/254
f 463/463 462/462 254/254
f 256/256 464/464 255/255
f 464/464 463/463 255/255
f 257/257 465/465 256/256
f 465/465 464/464 256/256
f 258/258 466/466 257/257
f 466/466 465/465 257/257
f 259/259 467/467 258/258
f 467/467 466/466 258/258
f 260/260 468/468 259/259
f 468/468 467/467 259/259
f 261/261 469/469 260/260
f 469/469 468/468 260/260
f 262/262 470/470 261/261
f 470/470 469/469 261/261
f 263/263 471/471 262/262
f 471/471 470/470 262/262
f 264/264 472/472 263/263
f 472/472 471/471 263/263
f 265/265 473/473 264/264
f 473/473 472/472 264/264
f 266/266 474/474 265/265
f 474/474 473/473 265/265
f 267/267 475/475 266/266
f 475/475 474/474 266/266
f 268/268 476/476 267/267
f 476/476 475/475 267/267
f 269/269 477/477 268/268
f 477/477 476/476 268/268
f 270/270 478/478 269/269
f 478/478 477/477 269/269
f 271/271 479/479 270/270
f 479/479 478/478 270/270
f 272/272 480/480 271/271
f 480/480 479/479 271/271
f 273/273 481/481 272/272
f 481/481 480/480 272/272
f 274/274 482/482 273/273
f 482/482 481/481 273/273
f 275/275 483/483 274/274
f 483/483 482/482 274/274
f 276/276 484/484 275/275
f 484/484 483/483 275/275
f 277/277 485/485 276/276
f 485/485 484/484 276/276
f 278/278 486/486 277/277
f 486/486 485/485 277/277
f 281/281 487/487 278/278
f 487/487 486/486 278/278
f 284/284 488/488 281/281
f 488/488 487/487 281/281
f 287/287 489/489 284/284
f 489/489 488/488 284/284
f 291/291 490/490 287/287
f 490/490 489/489 287/287
f 295/295 491/491 291/291
f 491/491 490/490 291/291
f 299/299 492/492 295/295
f 492/492 491/491 295/295
f 303/303 493/493 299/299
f 493/493 492/492 299/299
f 307/307 494/494 303/303
f 494/494 493/493 303/303
f 312/312 495/495 307/307
f 495/495 494/494 307/307
f 314/314 496/496 312/312
f 496/496 495/495 312/312
f 319/319 497/497 314/314
f 497/497 496/496 314/314
f 321/321 498/498 319/319
f 498/498 497/497 319/319
f 325/325 499/499 321/321
f 499/499 498/498 321/321
f 330/330 500/500 325/325
f 500/500 499/499 325/325
f 332/332 501/501 330/330
f 501/501 500/500 330/330
f 337/337 502/502 332/332
f 502/502 501/501 332/332
f 339/339 503/503 337/337
f 503/503 502/502 337/337
f 343/343 504/504 339/339
f 504/504 503/503 339/339
f 348/348 505/505 343/343
f 505/505 504/504 343/343
f 351/351 506/506 348/348
f 506/506 505/505 348/348
f 353/353 507/507 351/351
f 507/507 506/506 351/351
f 358/358 508/508 353/353
f 508/508 507/507 353/353
f 362/362 509/509 358/358
f 509/509 508/508 358/358
f 366/366 510/510 362/362
f 510/510 509/509 362/362
f 370/370 511/511 366/366
f 511/511 510/510 366/366
f 374/374 512/512 370/370
f 512/512 511/511 370/370
f 378/378 513/513 374/374
f 513/513 512/512 374/374
f 382/382 514/514 378/378
f 514/514 513/513 378/378
f 386/386 515/515 382/382
f 515/515 514/514 382/382
f 390/390 516/516 386/386
f 516/516 515/515 386/386
f 394/394 517/517 390/390
f 517/517 516/516 390/390
f 399/399 518/518 394/394
f 518/518 517/517 394/394
f 403/403 519/519 399/399
f 519/519 518/518 399/399
f 407/407 520/520 403/403
f 520/520 519/519 403/403
f 411/411 521/521 407/407
f 521/521 520/520 407/407
f 415/415 522/522 411/411
f 522/522 521/521 411/411
f 419/419 523/523 415/415
f 523/523 522/522 415/415
f 423/423 524/524 419/419
f 524/524 523/523 419/419
f 429/429 426/426 525/525
f 431/431 526/526 426/426
f 426/426 526/526 527/527
f 426/426 527/527 528/528
f 426/426 528/528 525/525
f 432/432 529/529 431/431
f 529/529 526/526 431/431
f 433/433 530/530 432/432
f 530/530 529/529 432/432
f 434/434 531/531 433/433
f 531/531 530/530 433/433
f 435/435 532/532 434/434
f 532/532 531/531 434/434
f 436/436 533/533 435/435
f 533/533 532/532 435/435
f 437/437 534/534 436/436
f 534/534 533/533 436/436
f 438/438 535/535 437/437
f 535/535 534/534 437/437
f 439/439 536/536 438/438
f 536/536 535/535 438/438
f 440/440 537/537 439/439
f 537/537 536/536 439/439
f 441/441 538/538 440/440
f 538/538 537/537 440/440
f 442/442 539/539 441/441
f 539/539 538/538 441/441
f 443/443 540/540 442/442
f 540/540 539/539 442/442
f 444/444 541/541 443/443
f 541/541 540/540 443/443
f 445/445 542/542 444/444
f 542/542 541/541 444/444
f 446/446 543/543 445/445
f 543/543 542/542 445/445
f 447/447 544/544 446/446
f 544/544 543/543 446/446
f 448/448 545/545 447/447
f 545/545 544/544 447/447
f 449/449 546/546 448/448
f 546/546 545/545 448/448
f 450/450 547/547 449/449
f 547/547 546/546 449/449
f 451/451 548/548 450/450
f 548/548 547/547 450/450
f 452/452 549/549 451/451
f 549/549 548/548 451/451
f 453/453 550/550 452/452
f 550/550 549/549 452/452
f 454/454 551/551 453/453
f 551/551 550/550 453/453
f 455/455 552/552 454/454
f 552/552 551/551 454/454
f 456/456 553/553 455/455
f 553/553 552/552 455/455
f 457/457 554/554 456/456
f 554/554 553/553 456/456
f 458/458 555/555 457/457
f 555/555 554/554 457/457
f 459/459 556/556 458/458
f 556/556 555/555 458/458
f 460/460 557/557 459/459
f 557/557 556/556 459/459
f 461/461 558/558 460/460
f 558/558 557/557 460/460
f 462/462 559/559 461/461
f 559/559 558/558 461/461
f 463/463 560/560 462/462
f 560/560 559/559 462/462
f 464/464 561/561 463/463
f 561/561 560/560 463/463
f 465/465 562/562 464/464
f 562/562 561/561 464/464
f 466/466 563/563 465/465
f 563/563 562/562 465/465
f 467/467 564/564 466/466
f 564/564 563/563 466/466
f 468/468 565/565 467/467
f 565/565 564/564 467/467
f 469/469 566/566 468/468
f 566/566 565/565 468/468
f 470/470 567/567 469/469
f 567/567 566/566 469/469
f 471/471 568/568 470/470
f 568/568 567/567 470/470
f 472/472 569/569 471/471
f 569/569 568/568 471/471
f 473/473 570/570 472/472
f 570/570 569/569 472/472
f 474/474 571/571 473/473
f 571/571 570/570 473/473
f 475/475 572/572 474/474
f 572/572 571/571 474/474
f 476/476 573/573 475/475
f 573/573 572/572 475/475
f 477/477 574/574 476/476
f 574/574 573/573 476/476
f 478/478 575/575 477/477
f 575/575 574/574 477/477
f 479/479 576/576 478/478
f 576/576 575/575 478/478
f 480/480 577/577 479/479
f 577/577 576/576 479/479
f 481/481 578/578 480/480
f 578/578 577/577 480/480
f 482/482 579/579 481/481
f 579/579 578/578 481/481
f 483/483 580/580 482/482
f 580/580 579/579 482/482
f 484/484 581/581 483/483
f 581/581 580/580 483/483
f 485/485 582/582 484/484
f 582/582 581/581 484/484
f 486/486 583/583 485/485
f 583/583 582/582 485/485
f 487/487 584/584 486/486
f 584/584 583/583 486/486
f 488/488 585/585 487/487
f 585/585 584/584 487/487
f 489/489 586/586 488/488
f 586/586 585/585 488/488
f 490/490 587/587 489/489
f 587/587 586/586 489/489
f 491/491 588/588 490/490
f 588/588 587/587 490/490
f 492/492 589/589 491/491
f 589/589 588/588 491/491
f 493/493 590/590 492/492
f 590/590 589/589 492/492
f 494/494 591/591 493/493
f 591/591 590/590 493/493
f 495/495 592/592 494/494
f 592/592 591/591 494/494
f 496/496 593/593 495/495
f 593/593 592/592 495/495
f 497/497 594/594 496/496
f 594/594 593/593 496/496
f 498/498 595/595 497/497
f 595/595 594/594 497/497
f 499/499 596/596 498/498
f 596/596 595/595 498/498
f 500/500 597/597 499/499
f 597/597 596/596 499/499
f 501/501 598/598 500/500
f 598/598 597/597 500/500
f 502/502 599/599 501/501
f 599/599 598/598 501/501
f 503/503 600/600 502/502
f 600/600 599/599 502/502
f 504/504 601/601 503/503
f 601/601 600/600 503/503
f 505/505 602/602 504/504
f 602/602 601/601 504/504
f 506/506 603/603 505/505
f 603/603 602/602 505/505
f 507/507 604/604 506/506
f 604/604 603/603 506/506
f 508/508 605/605 507/507
f 605/605 604/604 507/507
f 509/509 606/606 508/508
f 606/606 605/605 508/508
f 510/510 607/607 509/509
f 607/607 606/606 509/509
f 511/511 608/608 510/510
f 608/608 607/607 510/510
f 512/512 609/609 511/511
f 609/609 608/608 511/511
f 513/513 610/610 512/512
f 610/610 609/609 512/512
f 514/514 611/611 513/513
f 611/611 610/610 513/513
f 515/515 612/612 514/514
f 612/612 611/611 514/514
f 516/516 613/613 515/515
f 613/613 612/612 515/515
f 517/517 614/614 516/516
f 614/614 613/613 516/516
f 518/518 615/615 517/517
f 615/615 614/614 517/517
f 519/519 616/616 518/518
f 616/616 615/615 518/518
f 520/520 617/617 519/519
f 617/617 616/616 519/519
f 521/521 618/618 520/520
f 618/618 617/617 520/520
f 522/522 619/619 521/521
f 619/619 618/618 521/521
f 523/523 620/620 522/522
f 620/620 619/619 522/522
f 524/524 621/621 523/523
f 621/621 620/620 523/523
f 527/527 526/526 622/622
f 527/527 622/622 623/623
f 526/526 529/529 624/624
f 526/526 624/624 625/625
f 526/526 625/625 626/626
f 622/622 526/526 626/626
f 529/529 530/530 627/627
f 529/529 627/627 628/628
f 529/529 628/628 629/629
f 624/624 529/529 629/629
f 530/530 531/531 630/630
f 530/530 630/630 631/631
f 530/530 631/631 632/632
f 627/627 530/530 632/632
f 531/531 532/532 633/633
f 531/531 633/633 634/634
f 630/630 531/531 634/634
f 532/532 533/533 635/635
f 532/532 635/635 636/636
f 532/532 636/636 637/637
f 633/633 532/532 637/637
f 533/533 534/534 638/638
f 533/533 638/638 639/639
f 533/533 639/639 640/640
f 635/635 533/533 640/640
f 534/534 535/535 641/641
f 534/534 641/641 642/642
f 534/534 642/642 643/643
f 638/638 534/534 643/643
f 535/535 536/536 644/644
f 535/535 644/644 645/645
f 535/535 645/645 646/646
f 641/641 535/535 646/646
f 536/536 537/537 647/647
f 536/536 647/647 648/648
f 536/536 648/648 649/649
f 644/644 536/536 649/649
f 644/644 649/649 650/650
f 537/537 538/538 651/651
f 537/537 651/651 652/652
f 537/537 652/652 653/653
f 537/537 653/653 647/647
f 538/538 539/539 654/654
f 538/538 654/654 655/655
f 538/538 655/655 656/656
f 538/538 656/656 651/651
f 539/539 540/540 657/657
f 539/539 657/657 658/658
f 654/654 539/539 658/658
f 540/540 541/541 659/659
f 540/540 659/659 660/660
f 657/657 540/540 660/660
f 541/541 542/542 661/661
f 541/541 661/661 662/662
f 659/659 541/541 662/662
f 542/542 543/543 663/663
f 542/542 663/663 664/664
f 542/542 664/664 665/665
f 542/542 665/665 661/661
f 543/543 544/544 666/666
f 543/543 666/666 667/667
f 663/663 543/543 667/667
f 544/544 545/545 668/668
f 544/544 668/668 669/669
f 666/666 544/544 669/669
f 545/545 546/546 670/670
f 545/545 670/670 671/671
f 545/545 671/671 672/672
f 545/545 672/672 668/668
f 546/546 547/547 673/673
f 546/546 673/673 674/674
f 670/670 546/546 674/674
f 547/547 548/548 675/675
f 547/547 675/675 676/676
f 673/673 547/547 676/676
f 548/548 549/549 677/677
f 548/548 677/677 678/678
f 675/675 548/548 678/678
f 549/549 550/550 679/679
f 549/549 679/679 680/680
f 677/677 549/549 680/680
f 550/550 551/551 681/681
f 550/550 681/681 682/682
f 550/550 682/682 683/683
f 550/550 683/683 679/679
f 551/551 552/552 684/684
f 551/551 684/684 685/685
f 681/681 551/551 685/685
f 552/552 553/553 686/686
f 552/552 686/686 687/687
f 552/552 687/687 688/688
f 552/552 688/688 684/684
f 553/553 554/554 689/689
f 553/553 689/689 690/690
f 686/686 553/553 690/690
f 554/554 555/555 691/691
f 554/554 691/691 692/692
f 554/554 692/692 693/693
f 554/554 693/693 689/689
f 555/555 556/556 694/694
f 555/555 694/694 695/695
f 555/555 695/695 696/696
f 555/555 696/696 691/691
f 556/556 557/557 697/697
f 556/556 697/697 698/698
f 556/556 698/698 699/699
f 556/556 699/699 694/694
f 557/557 558/558 700/700
f 557/557 700/700 701/701
f 697/697 557/557 701/701
f 558/558 559/559 702/702
f 558/558 702/702 703/703
f 558/558 703/703 704/704
f 558/558 704/704 700/700
f 559/559 560/560 705/705
f 559/559 705/705 706/706
f 702/702 559/559 706/706
f 560/560 561/561 707/707
f 560/560 707/707 708/708
f 560/560 708/708 709/709
f 560/560 709/709 705/705
f 561/561 562/562 710/710
f 561/561 710/710 711/711
f 707/707 561/561 711/711
f 562/562 563/563 712/712
f 562/562 712/712 713/713
f 562/562 713/713 714/714
f 562/562 714/714 710/710
f 563/563 564/564 715/715
f 563/563 715/715 716/716
f 563/563 716/716 717/717
f 563/563 717/717 712/712
f 564/564 565/565 718/718
f 564/564 718/718 719/719
f 715/715 564/564 719/719
f 565/565 566/566 720/720
f 565/565 720/720 721/721
f 565/565 721/721 722/722
f 565/565 722/722 718/718
f 566/566 567/567 723/723
f 566/566 723/723 724/724
f 720/720 566/566 724/724
f 567/567 568/568 725/725
f 567/567 725/725 726/726
f 723/723 567/567 726/726
f 568/568 569/569 727/727
f 568/568 727/727 728/728
f 725/725 568/568 728/728
f 569/569 570/570 729/729
f 569/569 729/729 730/730
f 727/727 569/569 730/730
f 570/570 571/571 731/731
f 570/570 731/731 732/732
f 570/570 732/732 733/733
f 570/570 733/733 729/729
f 572/572 734/734 571/571
f 571/571 734/734 735/735
f 571/571 735/735 736/736
f 571/571 736/736 731/731
f 573/573 737/737 572/572
f 737/737 734/734 572/572
f 574/574 738/738 573/573
f 738/738 737/737 573/573
f 575/575 739/739 574/574
f 739/739 738/738 574/574
f 576/576 740/740 575/575
f 740/740 739/739 575/575
f 577/577 741/741 576/576
f 741/741 740/740 576/576
f 578/578 742/742 577/577
f 742/742 741/741 577/577
f 579/579 743/743 578/578
f 743/743 742/742 578/578
f 580/580 744/744 579/579
f 744/744 743/743 579/579
f 581/581 745/745 580/580
f 745/745 744/744 580/580
f 582/582 746/746 581/581
f 746/746 745/745 581/581
f 583/583 747/747 582/582
f 747/747 746/746 582/582
f 584/584 748/748 583/583
f 748/748 747/747 583/583
f 585/585 749/749 584/584
f 749/749 748/748 584/584
f 586/586 750/750 585/585
f 750/750 749/749 585/585
f 587/587 751/751 586/586
f 751/751 750/750 586/586
f 588/588 752/752 587/587
f 752/752 751/751 587/587
f 589/589 753/753 588/588
f 753/753 752/752 588/588
f 590/590 754/754 589/589
f 754/754 753/753 589/589
f 591/591 755/755 590/590
f 755/755 754/754 590/590
f 592/592 756/756 591/591
f 756/756 755/755 591/591
f 593/593 757/757 592/592
f 757/757 756/756 592/592
f 594/594 758/758 593/593
f 758/758 757/757 593/593
f 595/595 759/759 594/594
f 759/759 758/758 594/594
f 596/596 760/760 595/595
f 760/760 759/759 595/595
f 597/597 761/761 596/596
f 761/761 760/760 596/596
f 598/598 762/762 597/597
f 762/762 761/761 597/597
f 599/599 763/763 598/598
f 763/763 762/762 598/598
f 600/600 764/764 599/599
f 764/764 763/763 599/599
f 601/601 765/765 600/600
f 765/765 764/764 600/600
f 602/602 766/766 601/601
f 766/766 765/765 601/601
f 603/603 767/767 602/602
f 767/767 766/766 602/602
f 604/604 768/768 603/603
f 768/768 767/767 603/603
f 605/605 769/769 604/604
f 769/769 768/768 604/604
f 606/606 770/770 605/605
f 770/770 769/769 605/605
f 607/607 771/771 606/606
f 771/771 770/770 606/606
f 608/608 772/772 607/607
f 772/772 771/771 607/607
f 609/609 773/773 608/608
f 773/773 772/772 608/608
f 610/610 774/774 609/609
f 774/774 773/773 609/609
f 611/611 775/775 610/610
f 775/775 774/774 610/610
f 612/612 776/776 611/611
f 776/776 775/775 611/611
f 613/613 777/777 612/612
f 777/777 776/776 612/612
f 614/614 778/778 613/613
f 778/778 777/777 613/613
f 615/615 779/779 614/614
f 779/779 778/778 614/614
f 616/616 780/780 615/615
f 780/780 779/779 615/615
f 617/617 781/781 616/616
f 781/781 780/780 616/616
f 618/618 782/782 617/617
f 782/782 781/781 617/617
f 619/619 783/783 618/618
f 783/783 782/782 618/618
f 620/620 784/784 619/619
f 784/784 783/783 619/619
f 621/621 785/785 620/620
f 785/785 784/784 620/620
f 735/735 734/734 786/786
f 734/734 737/737 787/787
f 734/734 787/787 788/788
f 734/734 788/788 789/789
f 786/786 734/734 789/789
f 737/737 738/738 790/790
f 737/737 790/790 791/791
f 787/787 737/737 791/791
f 738/738 739/739 792/792
f 738/738 792/792 793/793
f 738/738 793/793 794/794
f 738/738 794/794 790/790
f 739/739 740/740 795/795
f 739/739 795/795 796/796
f 792/792 739/739 796/796
f 740/740 741/741 797/797
f 740/740 797/797 798/798
f 795/795 740/740 798/798
f 741/741 742/742 799/799
f 741/741 799/799 800/800
f 741/741 800/800 801/801
f 741/741 801/801 802/802
f 741/741 802/802 797/797
f 742/742 743/743 803/803
f 742/742 803/803 804/804
f 742/742 804/804 805/805
f 799/799 742/742 805/805
f 743/743 744/744 806/806
f 743/743 806/806 807/807
f 743/743 807/807 808/808
f 803/803 743/743 808/808
f 744/744 745/745 809/809
f 744/744 809/809 810/810
f 744/744 810/810 811/811
f 806/806 744/744 811/811
f 745/745 746/746 812/812
f 745/745 812/812 813/813
f 745/745 813/813 814/814
f 809/809 745/745 814/814
f 746/746 747/747 815/815
f 746/746 815/815 816/816
f 746/746 816/816 817/817
f 812/812 746/746 817/817
f 747/747 748/748 818/818
f 747/747 818/818 819/819
f 747/747 819/819 820/820
f 815/815 747/747 820/820
f 748/748 749/749 821/821
f 748/748 821/821 822/822
f 748/748 822/822 823/823
f 818/818 748/748 823/823
f 749/749 750/750 824/824
f 749/749 824/824 825/825
f 749/749 825/825 826/826
f 821/821 749/749 826/826
f 750/750 751/751 827/827
f 750/750 827/827 828/828
f 750/750 828/828 829/829
f 824/824 750/750 829/829
f 751/751 752/752 830/830
f 751/751 830/830 831/831
f 751/751 831/831 832/832
f 827/827 751/751 832/832
f 752/752 753/753 833/833
f 752/752 833/833 834/834
f 752/752 834/834 835/835
f 830/830 752/752 835/835
f 753/753 754/754 836/836
f 753/753 836/836 837/837
f 753/753 837/837 838/838
f 833/833 753/753 838/838
f 754/754 755/755 839/839
f 754/754 839/839 840/840
f 754/754 840/840 841/841
f 836/836 754/754 841/841
f 755/755 756/756 842/842
f 755/755 842/842 843/843
f 755/755 843/843 844/844
f 839/839 755/755 844/844
f 756/756 757/757 845/845
f 756/756 845/845 846/846
f 756/756 846/846 847/847
f 842/842 756/756 847/847
f 757/757 758/758 848/848
f 757/757 848/848 849/849
f 757/757 849/849 850/850
f 845/845 757/757 850/850
f 758/758 759/759 851/851
f 758/758 851/851 852/852
f 758/758 852/852 853/853
f 848/848 758/758 853/853
f 759/759 760/760 854/854
f 759/759 854/854 855/855
f 759/759 855/855 856/856
f 851/851 759/759 856/856
f 760/760 761/761 857/857
f 760/760 857/857 858/858
f 760/760 858/858 859/859
f 854/854 760/760 859/859
f 761/761 762/762 860/860
f 761/761 860/860 861/861
f 761/761 861/861 862/862
f 857/857 761/761 862/862
f 762/762 763/763 863/863
f 762/762 863/863 864/864
f 762/762 864/864 865/865
f 860/860 762/762 865/865
f 763/763 764/764 866/866
f 763/763 866/866 867/867
f 763/763 867/867 868/868
f 763/763 868/868 863/863
f 764/764 765/765 869/869
f 764/764 869/869 870/870
f 866/866 764/764 870/870
f 765/765 766/766 871/871
f 765/765 871/871 872/872
f 765/765 872/872 873/873
f 765/765 873/873 869/869
f 766/766 767/767 874/874
f 766/766 874/874 875/875
f 766/766 875/875 876/876
f 766/766 876/876 871/871
f 767/767 768/768 877/877
f 767/767 877/877 878/878
f 874/874 767/767 878/878
f 768/768 769/769 879/879
f 768/768 879/879 880/880
f 877/877 768/768 880/880
f 769/769 770/770 881/881
f 769/769 881/881 882/882
f 879/879 769/769 882/882
f 770/770 771/771 883/883
f 770/770 883/883 884/884
f 770/770 884/884 885/885
f 770/770 885/885 881/881
f 771/771 772/772 886/886
f 771/771 886/886 887/887
f 771/771 887/887 888/888
f 771/771 888/888 883/883
f 772/772 773/773 889/889
f 772/772 889/889 890/890
f 886/886 772/772 890/890
f 773/773 774/774 891/891
f 773/773 891/891 892/892
f 773/773 892/892 893/893
f 773/773 893/893 889/889
f 774/774 775/775 894/894
f 774/774 894/894 895/895
f 891/891 774/774 895/895
f 775/775 776/776 896/896
f 775/775 896/896 897/897
f 775/775 897/897 898/898
f 775/775 898/898 894/894
f 776/776 777/777 899/899
f 776/776 899/899 900/900
f 896/896 776/776 900/900
f 777/777 778/778 901/901
f 777/777 901/901 902/902
f 777/777 902/902 903/903
f 777/777 903/903 899/899
f 778/778 779/779 904/904
f 778/778 904/904 905/905
f 778/778 905/905 906/906
f 778/778 906/906 901/901
f 779/779 780/780 907/907
f 779/779 907/907 908/908
f 779/779 908/908 909/909
f 779/779 909/909 904/904
f 780/780 781/781 910/910
f 780/780 910/910 911/911
f 907/907 780/780 911/911
f 781/781 782/782 912/912
f 781/781 912/912 913/913
f 910/910 781/781 913/913
f 783/783 914/914 782/782
f 782/782 914/914 915/915
f 782/782 915/915 916/916
f 782/782 916/916 912/912
f 784/784 917/917 783/783
f 917/917 914/914 783/783
f 785/785 918/918 784/784
f 918/918 917/917 784/784
f 915/915 914/914 919/919
f 914/914 917/917 920/920
f 914/914 920/920 921/921
f 914/914 921/921 922/922
f 919/919 914/914 922/922
f 917/917 918/918 923/923
f 917/917 923/923 924/924
f 917/917 924/924 925/925
f 920/920 917/917 925/925
