# OSM contributors ODbL; elevations USGS 3DEP
# Centimeters, Z up. Explicit orientation verification required on import.
o Park_Gravel_4_20
v 5322.478658 34968.636844 -794.916667
v 5315.177295 34961.335481 -795.030750
v 5317.310106 34954.384744 -794.997425
v 5322.478658 34937.540653 -794.916667
v 5312.936897 34968.636844 -795.177574
v 5322.478658 35035.303511 -792.833333
v 5299.524011 35012.348864 -794.178332
v 5292.480456 35035.303511 -793.770777
v 5322.478658 35101.970177 -791.791667
v 5283.870727 35063.362247 -793.601413
v 5272.024015 35101.970177 -793.368374
v 5278.674011 35080.298122 -793.499188
v 5255.811991 35154.804468 -794.494152
v 5255.811991 35168.636844 -794.656250
v 5252.564160 35165.389012 -794.706997
v 5251.567573 35168.636844 -794.788888
v 5322.478658 35168.636844 -792.052083
v 5268.217444 35114.375630 -793.535788
v 5259.355964 35143.254811 -794.220368
v 5255.811991 35235.303511 -794.656250
v 5236.096338 35215.587858 -795.272364
v 5241.586937 35201.163310 -795.100783
v 5228.591719 35235.303511 -795.400554
v 5322.478658 35235.303511 -792.833333
v 5255.811991 35301.970177 -794.916667
v 5217.716362 35263.874548 -795.809533
v 5221.446461 35254.075072 -795.669259
v 5203.215538 35301.970177 -795.943941
v 5322.478658 35301.970177 -793.354167
v 5189.145325 35338.934536 -796.651926
v 5189.145325 35368.636844 -797.000000
v 5180.956409 35360.447928 -797.095964
v 5177.839358 35368.636844 -797.132492
v 5255.811991 35368.636844 -795.697917
v 5199.336385 35312.161238 -796.139132
v 5199.427486 35311.921905 -796.134548
v 5322.478658 35368.636844 -793.614583
v 5189.145325 35435.303511 -796.739583
v 5162.576432 35408.734618 -797.154722
v 5177.408510 35369.768738 -797.133119
v 5152.463177 35435.303511 -796.882873
v 5255.811991 35435.303511 -795.697917
v 5322.478658 35435.303511 -793.614583
v 5189.145325 35501.970177 -796.739583
v 5144.196456 35457.021309 -796.915165
v 5127.086997 35501.970177 -797.466829
v 5133.370560 35485.462405 -797.264227
v 5255.811991 35501.970177 -795.437500
v 5322.478658 35501.970177 -793.614583
v 5122.478658 35514.076908 -797.378958
v 5122.478658 35568.636844 -796.739583
v 5107.436503 35553.594689 -797.327168
v 5101.710816 35568.636844 -797.145205
v 5189.145325 35568.636844 -795.958333
v 5125.816479 35505.307999 -797.442603
v 5255.811991 35568.636844 -795.437500
v 5322.478658 35568.636844 -793.354167
v 5122.478658 35635.303511 -794.395833
v 5089.056526 35601.881379 -796.223606
v 5089.332610 35601.156071 -796.243713
v 5076.334636 35635.303511 -795.297084
v 5189.145325 35635.303511 -793.875000
v 5255.811991 35635.303511 -794.656250
v 5322.478658 35635.303511 -793.614583
v 5055.811991 35686.007482 -793.519230
v 5055.811991 35701.970177 -792.833333
v 5051.075905 35697.234091 -793.184840
v 5049.077928 35701.970177 -793.122688
v 5122.478658 35701.970177 -791.531250
v 5070.676550 35650.168069 -794.768882
v 5068.324097 35656.348280 -794.549272
v 5189.145325 35701.970177 -792.312500
v 5255.811991 35701.970177 -794.395833
v 5322.478658 35701.970177 -794.135417
v 5055.811991 35768.636844 -791.791667
v 5031.296097 35744.120949 -793.228145
v 5044.644819 35712.478599 -793.148979
v 5020.953759 35768.636844 -793.697976
v 5122.478658 35768.636844 -791.010417
v 5189.145325 35768.636844 -792.833333
v 5255.811991 35768.636844 -794.916667
v 5322.478658 35768.636844 -794.656250
v 5055.811991 35835.303511 -793.354167
v 5011.516288 35791.007807 -794.738407
v 5019.861490 35771.226003 -793.818393
v 4992.829590 35835.303511 -795.322367
v 5122.478658 35835.303511 -793.354167
v 5189.145325 35835.303511 -794.395833
v 5255.811991 35835.303511 -795.697917
v 5322.478658 35835.303511 -795.177083
v 4989.145325 35844.036841 -795.437500
v 4989.145325 35901.970177 -795.437500
v 4971.956670 35884.781523 -796.377505
v 4964.705420 35901.970177 -796.296715
v 4970.294831 35888.720812 -796.358989
v 5055.811991 35901.970177 -793.875000
v 4991.736479 35837.894665 -795.376770
v 5122.478658 35901.970177 -794.656250
v 5189.145325 35901.970177 -795.437500
v 5255.811991 35901.970177 -796.218750
v 5322.478658 35877.166629 -795.340611
v 5315.119516 35894.611036 -795.466247
v 5314.699337 35895.607046 -795.478952
v 5312.014970 35901.970177 -795.560121
v 4989.145325 35968.636844 -795.177083
v 4952.176861 35931.668380 -796.621164
v 4936.581251 35968.636844 -797.025039
v 5055.811991 35968.636844 -793.614583
v 5122.478658 35968.636844 -794.656250
v 5189.145325 35968.636844 -796.218750
v 5255.811991 35968.636844 -796.739583
v 5295.339707 35941.497893 -796.064345
v 5289.916008 35954.354451 -796.228346
v 5283.890801 35968.636844 -796.410535
v 4922.478658 36035.303511 -796.218750
v 4912.617243 36025.442096 -796.719525
v 4920.728173 36006.215620 -796.841576
v 4922.478658 36002.066200 -796.867916
v 4908.457082 36035.303511 -796.821240
v 4989.145325 36035.303511 -793.614583
v 4932.397052 35978.555238 -796.939677
v 5055.811991 36035.303511 -792.833333
v 5122.478658 36035.303511 -794.135417
v 5189.145325 36035.303511 -796.218750
v 5255.811991 36035.195988 -796.999580
v 5255.780090 36035.271609 -796.999626
v 5255.766631 36035.303511 -796.999468
v 5275.559899 35988.384751 -796.585303
v 4922.478658 36101.970177 -792.833333
v 4892.837434 36072.328954 -795.612198
v 4895.944844 36064.963024 -795.852728
v 4880.332912 36101.970177 -794.479652
v 4989.145325 36101.970177 -792.052083
v 5055.811991 36101.970177 -792.312500
v 5122.478658 36101.970177 -793.093750
v 5189.145325 36101.970177 -795.697917
v 5240.349349 36071.849259 -797.104311
v 5236.000281 36082.158467 -797.133886
v 5227.642462 36101.970177 -796.750573
v 4855.811991 36157.380098 -792.407270
v 4855.811991 36168.636844 -791.791667
v 4852.297216 36165.122069 -792.203554
v 4850.701544 36168.636844 -792.051182
v 4922.478658 36168.636844 -791.010417
v 4873.057625 36119.215811 -794.292282
v 4871.999789 36121.723349 -794.167548
v 4989.145325 36168.636844 -790.750000
v 5055.811991 36168.636844 -790.489583
v 5122.478658 36168.636844 -791.531250
v 5189.145325 36168.636844 -795.437500
v 5216.220472 36129.045325 -796.544015
v 5215.566020 36130.596663 -796.514947
v 5199.518293 36168.636844 -795.802175
v 4855.811991 36235.303511 -792.052083
v 4831.481401 36210.972920 -793.192580
v 4846.306798 36178.317121 -792.312166
v 4820.435562 36235.303511 -793.986732
v 4922.478658 36235.303511 -790.750000
v 4989.145325 36235.303511 -789.968750
v 5055.811991 36235.303511 -789.447917
v 5122.478658 36235.303511 -791.531250
v 5189.145325 36193.225347 -795.725647
v 5176.660854 36222.819040 -795.340936
v 5171.394124 36235.303511 -794.970619
v 5196.440663 36175.932182 -795.750972
v 5190.782691 36189.344067 -795.731330
v 4855.811991 36301.970177 -793.875000
v 4810.665585 36256.823771 -795.109472
v 4819.722278 36236.874657 -794.068701
v 4790.169580 36301.970177 -797.721235
v 4793.137758 36295.432193 -797.343006
v 4922.478658 36301.970177 -792.312500
v 4989.145325 36301.970177 -791.010417
v 5055.811991 36301.970177 -790.489583
v 5122.478658 36301.970177 -793.093750
v 5156.447362 36269.272214 -794.317745
v 5165.999362 36248.091471 -794.741158
v 5164.269559 36252.042314 -794.665831
v 5141.602822 36301.970177 -794.214306
v 4789.145325 36304.226298 -797.772437
v 4789.145325 36368.636844 -797.520833
v 4769.033954 36348.525473 -799.170594
v 4759.903598 36368.636844 -799.119990
v 4855.811991 36368.636844 -795.177083
v 4789.849770 36302.674622 -797.753733
v 4922.478658 36368.636844 -793.875000
v 4989.145325 36368.636844 -792.572917
v 5055.811991 36368.636844 -791.791667
v 5122.478658 36344.094840 -793.751948
v 5114.815731 36360.973917 -793.716350
v 5111.336840 36368.636844 -793.743712
v 5137.685039 36310.599850 -794.085878
v 5135.631546 36315.123065 -794.018562
v 4789.145325 36435.303511 -798.822917
v 4748.218139 36394.376325 -800.261763
v 4729.637616 36435.303511 -800.914985
v 4739.968718 36412.547265 -800.551782
v 4855.811991 36435.303511 -796.739583
v 4922.478658 36435.303511 -795.177083
v 4989.145325 36435.303511 -793.875000
v 5055.811991 36435.303511 -793.354167
v 5093.999915 36406.824768 -794.178412
v 5084.516000 36427.714922 -794.297559
v 5081.070858 36435.303511 -794.340841
v 4722.478658 36501.970177 -802.468750
v 4706.586508 36486.078027 -802.841222
v 4713.384198 36471.104801 -802.256688
v 4722.478658 36451.072498 -801.474655
v 4699.371635 36501.970177 -803.100583
v 4789.145325 36501.970177 -800.385417
v 4727.402323 36440.227176 -801.108967
v 4855.811991 36501.970177 -798.562500
v 4922.478658 36501.970177 -796.479167
v 4989.145325 36501.970177 -795.177083
v 5055.811991 36490.941040 -795.527508
v 5052.368284 36498.526470 -795.850717
v 5050.804876 36501.970177 -795.899656
v 5073.184100 36452.675619 -794.711363
v 5057.931480 36486.272458 -795.427934
v 4722.478658 36568.636844 -802.729167
v 4685.770692 36531.928878 -803.589510
v 4686.799679 36529.662337 -803.552520
v 4669.105653 36568.636844 -804.397073
v 4789.145325 36568.636844 -800.645833
v 4855.811991 36568.636844 -799.083333
v 4922.478658 36568.636844 -797.520833
v 4989.145325 36568.636844 -796.479167
v 5031.552469 36544.377321 -796.667959
v 5031.346960 36544.829994 -796.673590
v 5020.538894 36568.636844 -796.969691
v 4655.811991 36597.918699 -805.041264
v 4655.811991 36635.303511 -805.333333
v 4644.139061 36623.630580 -805.196541
v 4638.839671 36635.303511 -805.333333
v 4722.478658 36635.303511 -803.770833
v 4664.954877 36577.779729 -804.669642
v 4660.215159 36588.219873 -804.862293
v 4789.145325 36635.303511 -800.385417
v 4855.811991 36635.303511 -797.520833
v 4922.478658 36635.303511 -795.958333
v 4989.145325 36635.303511 -795.958333
v 5010.736653 36590.228172 -797.153896
v 5004.762440 36603.387530 -796.817720
v 4990.272912 36635.303511 -796.002380
v 4655.811991 36701.970177 -805.333333
v 4623.323246 36669.481432 -805.333333
v 4633.630639 36646.777409 -805.333333
v 4608.573689 36701.970177 -805.517858
v 4722.478658 36701.970177 -804.552083
v 4789.145325 36701.970177 -802.468750
v 4855.811991 36701.970177 -798.302083
v 4922.478658 36701.970177 -794.916667
v 4989.145325 36637.787240 -795.938929
v 4978.177920 36661.945066 -795.750196
v 4969.105022 36681.929875 -795.594065
v 4960.006930 36701.970177 -795.209856
v 4989.920838 36636.079024 -795.988627
v 4589.145325 36744.764899 -805.593750
v 4589.145325 36768.636844 -805.593750
v 4581.691615 36761.183134 -804.749384
v 4578.307707 36768.636844 -804.874064
v 4580.461599 36763.892481 -804.794704
v 4655.811991 36768.636844 -805.333333
v 4602.507430 36715.332283 -805.541554
v 4607.046119 36705.334945 -805.523825
v 4722.478658 36768.636844 -804.552083
v 4789.145325 36768.636844 -803.770833
v 4855.811991 36768.636844 -801.427083
v 4922.478658 36768.636844 -797.520833
v 4948.289207 36727.780726 -796.126536
v 4929.740949 36768.636844 -797.577570
v 4589.145325 36835.303511 -804.552083
v 4560.875799 36807.033985 -803.116521
v 4548.041725 36835.303511 -805.515449
v 4553.877079 36822.450017 -804.424713
v 4655.811991 36835.303511 -804.031250
v 4722.478658 36835.303511 -803.250000
v 4789.145325 36835.303511 -802.989583
v 4855.811991 36835.303511 -802.208333
v 4922.478658 36784.633441 -798.333161
v 4906.657576 36819.482428 -801.029852
v 4899.474967 36835.303511 -801.355541
v 4927.473391 36773.631577 -797.696429
v 4522.478658 36891.611099 -805.234777
v 4522.478658 36901.970177 -805.072917
v 4519.244168 36898.735687 -805.161360
v 4517.775743 36901.970177 -805.348478
v 4589.145325 36901.970177 -801.947917
v 4540.059984 36852.884836 -805.015750
v 4527.292559 36881.007553 -805.174806
v 4655.811991 36901.970177 -801.166667
v 4722.478658 36901.970177 -800.645833
v 4789.145325 36901.970177 -800.385417
v 4855.811991 36901.970177 -800.125000
v 4898.424360 36837.617674 -801.348941
v 4885.841760 36865.333279 -801.269903
v 4871.839841 36896.175210 -800.306093
v 4869.208985 36901.970177 -800.125000
v 4522.478658 36968.636844 -803.250000
v 4498.428353 36944.586539 -805.316823
v 4500.708039 36939.565088 -805.320553
v 4487.509761 36968.636844 -805.435556
v 4589.145325 36968.636844 -799.604167
v 4655.811991 36968.636844 -798.562500
v 4722.478658 36968.636844 -798.302083
v 4789.145325 36968.636844 -798.041667
v 4855.811991 36931.479641 -799.318101
v 4845.255321 36954.732746 -798.723511
v 4844.210129 36957.034982 -798.664642
v 4838.943003 36968.636844 -798.236189
v 4865.025945 36911.184131 -800.017024
v 4522.478658 37035.303511 -801.687500
v 4477.612537 36990.437390 -805.543182
v 4457.243779 37035.303511 -806.529151
v 4589.145325 37035.303511 -798.302083
v 4655.811991 37035.303511 -797.781250
v 4722.478658 37035.303511 -798.562500
v 4789.145325 37035.303511 -798.562500
v 4823.394314 37002.885833 -798.576807
v 4818.670801 37013.290281 -798.621189
v 4808.677021 37035.303511 -798.715091
v 4455.811991 37038.457299 -806.573819
v 4455.811991 37101.970177 -805.333333
v 4435.980906 37082.139092 -805.643194
v 4426.977797 37101.970177 -807.248104
v 4522.478658 37101.970177 -799.604167
v 4456.796722 37036.288241 -806.531558
v 4589.145325 37101.970177 -798.302083
v 4655.811991 37101.970177 -799.604167
v 4722.478658 37101.970177 -799.343750
v 4789.145325 37078.325841 -798.730556
v 4781.762683 37094.587535 -798.794078
v 4778.411039 37101.970177 -798.906778
v 4802.578498 37048.736684 -798.719920
v 4455.811991 37168.636844 -803.770833
v 4415.165091 37127.989943 -807.422703
v 4420.954480 37115.237696 -807.337132
v 4396.711815 37168.636844 -808.618895
v 4522.478658 37168.636844 -799.604167
v 4589.145325 37168.636844 -798.041667
v 4655.811991 37168.636844 -798.302083
v 4722.478658 37168.636844 -798.562500
v 4765.501761 37130.405353 -798.896557
v 4760.946867 37140.438386 -798.892951
v 4748.145057 37168.636844 -798.562500
v 4389.145325 37185.163587 -808.981353
v 4389.145325 37235.303511 -808.197917
v 4373.361446 37219.519632 -808.321228
v 4366.110005 37235.303511 -809.817588
v 4455.811991 37235.303511 -804.552083
v 4394.347887 37173.839407 -808.873778
v 4394.518569 37173.467891 -808.855423
v 4522.478658 37235.303511 -802.468750
v 4589.145325 37235.303511 -800.125000
v 4655.811991 37235.303511 -798.822917
v 4722.478658 37225.172041 -798.120819
v 4719.315236 37232.140089 -798.054024
v 4717.879075 37235.303511 -798.095568
v 4740.131052 37186.289238 -798.148772
v 4738.917241 37188.962889 -798.146850
v 4389.145325 37301.970177 -806.895833
v 4352.375005 37265.199857 -810.199417
v 4335.481958 37301.970177 -810.669039
v 4343.873404 37283.704903 -810.435759
v 4455.811991 37301.970177 -804.291667
v 4522.478658 37301.970177 -802.729167
v 4589.145325 37301.970177 -801.166667
v 4655.811991 37301.970177 -799.864583
v 4698.499421 37277.990940 -798.489421
v 4687.613093 37301.970177 -799.119245
v 4322.478658 37368.636844 -808.979167
v 4310.402122 37356.560308 -809.875472
v 4318.475781 37338.986743 -810.278100
v 4322.478658 37330.273865 -810.477721
v 4304.853911 37368.636844 -810.011867
v 4389.145325 37368.636844 -804.552083
v 4331.388563 37310.880083 -810.643617
v 4455.811991 37368.636844 -802.468750
v 4522.478658 37368.636844 -800.906250
v 4589.145325 37368.636844 -799.604167
v 4655.811991 37368.636844 -798.822917
v 4677.618718 37323.776904 -799.353488
v 4685.748201 37306.077961 -799.162953
v 4685.449513 37306.731972 -799.169954
v 4660.051891 37362.013813 -798.893277
v 4657.009133 37368.636844 -798.813564
v 4322.478658 37435.303511 -805.854167
v 4289.415680 37402.240533 -809.341278
v 4293.078159 37394.268584 -809.500364
v 4274.225864 37435.303511 -809.435429
v 4389.145325 37435.303511 -801.427083
v 4455.811991 37435.303511 -799.864583
v 4522.478658 37435.303511 -799.083333
v 4589.145325 37435.303511 -798.822917
v 4655.811991 37371.242607 -798.812738
v 4635.645835 37415.137355 -798.877596
v 4634.654268 37417.295653 -798.856177
v 4626.381086 37435.303511 -798.677464
v 4656.632277 37369.457130 -798.813304
v 4255.811991 37475.384143 -807.983914
v 4255.811991 37501.970177 -806.114583
v 4247.442798 37493.600984 -806.441505
v 4243.597817 37501.970177 -805.780602
v 4322.478658 37501.970177 -801.687500
v 4268.429239 37447.920758 -809.077069
v 4267.680537 37449.550425 -809.012202
v 4389.145325 37501.970177 -799.343750
v 4455.811991 37501.970177 -798.822917
v 4522.478658 37501.970177 -798.562500
v 4589.145325 37501.970177 -798.302083
v 4614.659394 37460.817580 -798.523924
v 4609.256646 37472.577494 -798.453154
v 4595.753039 37501.970177 -798.276272
v 4255.811991 37568.636844 -800.125000
v 4226.456356 37539.281209 -801.959727
v 4242.282914 37504.832265 -805.487507
v 4212.969770 37568.636844 -801.965877
v 4216.885292 37560.114106 -801.964091
v 4322.478658 37568.636844 -791.010417
v 4389.145325 37568.636844 -792.833333
v 4455.811991 37568.636844 -797.260417
v 4522.478658 37568.636844 -798.041667
v 4589.145325 37516.352886 -798.245901
v 4583.859024 37527.859334 -798.221603
v 4572.686511 37552.178031 -798.170251
v 4565.124992 37568.636844 -798.041667
v 4593.672953 37506.497805 -798.249025
v 4189.145325 37620.494421 -804.002427
v 4189.145325 37635.303511 -804.291667
v 4184.483473 37630.641659 -803.727146
v 4182.341722 37635.303511 -803.919595
v 4255.811991 37635.303511 -792.833333
v 4205.469915 37584.961434 -800.502634
v 4191.487670 37615.395946 -803.500257
v 4322.478658 37635.303511 -775.385417
v 4389.145325 37635.303511 -774.083333
v 4455.811991 37635.303511 -783.718750
v 4522.478658 37635.303511 -791.531250
v 4551.700070 37597.858256 -797.014351
v 4534.496944 37635.303511 -792.282393
v 4189.145325 37701.970177 -800.645833
v 4163.497032 37676.321885 -800.645833
v 4166.090047 37670.677787 -801.096300
v 4151.713675 37701.970177 -804.008833
v 4255.811991 37701.970177 -782.677083
v 4322.478658 37701.970177 -760.802083
v 4389.145325 37701.970177 -753.250000
v 4455.811991 37701.970177 -761.843750
v 4522.478658 37661.463164 -783.867289
v 4509.727187 37689.218706 -774.241470
v 4507.666157 37693.704856 -772.455466
v 4503.868897 37701.970177 -769.164919
v 4533.063779 37638.423016 -791.546985
v 4530.713628 37643.538481 -790.341039
v 4122.478658 37765.604700 -806.386844
v 4122.478658 37768.636844 -806.375000
v 4121.524149 37767.682335 -806.255686
v 4121.085628 37768.636844 -806.407649
v 4189.145325 37768.636844 -793.614583
v 4142.510591 37722.002110 -802.722930
v 4140.692425 37725.959628 -803.055479
v 4255.811991 37768.636844 -771.479167
v 4322.478658 37768.636844 -748.822917
v 4389.145325 37768.636844 -734.500000
v 4455.811991 37768.636844 -738.927083
v 4488.740746 37734.898932 -755.412353
v 4482.268535 37748.986697 -749.608964
v 4473.240850 37768.636844 -741.514180
v 4122.478658 37835.303511 -802.208333
v 4106.261425 37819.086277 -803.602002
v 4115.294803 37781.241468 -805.755583
v 4102.390447 37835.303511 -804.719360
v 4189.145325 37835.303511 -783.718750
v 4255.811991 37835.303511 -760.802083
v 4322.478658 37835.303511 -736.843750
v 4389.145325 37835.303511 -717.312500
v 4455.811991 37806.573442 -726.034568
v 4446.767863 37826.259382 -718.743837
v 4442.612803 37835.303511 -716.477071
v 4467.754304 37780.579157 -736.547951
v 4456.870912 37804.268538 -726.966786
v 4122.478658 37901.970177 -794.656250
v 4108.086116 37887.577635 -798.085723
v 4100.800507 37841.964473 -804.163540
v 4110.384979 37901.970177 -797.254501
v 4189.145325 37901.970177 -773.041667
v 4255.811991 37901.970177 -749.343750
v 4322.478658 37901.970177 -724.604167
v 4389.145325 37901.970177 -701.427083
v 4425.781421 37871.939607 -705.005061
v 4411.984756 37901.970177 -699.196670
v 4122.478658 37922.862522 -791.718264
v 4110.647212 37903.611942 -796.967289
v 4189.145325 37968.636844 -761.843750
v 4159.674699 37968.636844 -772.204517
v 4143.335845 37956.798605 -779.613397
v 4255.811991 37968.636844 -737.625000
v 4322.478658 37968.636844 -712.364583
v 4389.145325 37938.199073 -694.351127
v 4376.357291 37955.848810 -695.349753
v 4369.446996 37965.386234 -696.082129
v 4364.158029 37968.636844 -697.386060
v 4404.366424 37917.191276 -695.659714
v 4406.075668 37914.832219 -696.156280
v 4189.145325 37989.989646 -758.006918
v 4255.811991 38007.730040 -730.753149
v 4254.612865 38007.921572 -731.155102
v 4220.220837 37999.712357 -745.092106
v 4193.889860 37993.427276 -755.684152
v 4322.478658 37994.253072 -707.961794
v 4316.260333 37998.074867 -709.661085
v 4289.520984 38002.345837 -719.058719
v 4338.344008 37984.502194 -703.688220
vt 26.612393 174.843184
vt 26.575886 174.806677
vt 26.586551 174.771924
vt 26.612393 174.687703
vt 26.564684 174.843184
vt 26.612393 175.176518
vt 26.497620 175.061744
vt 26.462402 175.176518
vt 26.612393 175.509851
vt 26.419354 175.316811
vt 26.360120 175.509851
vt 26.393370 175.401491
vt 26.279060 175.774022
vt 26.279060 175.843184
vt 26.262821 175.826945
vt 26.257838 175.843184
vt 26.612393 175.843184
vt 26.341087 175.571878
vt 26.296780 175.716274
vt 26.279060 176.176518
vt 26.180482 176.077939
vt 26.207935 176.005817
vt 26.142959 176.176518
vt 26.612393 176.176518
vt 26.279060 176.509851
vt 26.088582 176.319373
vt 26.107232 176.270375
vt 26.016078 176.509851
vt 26.612393 176.509851
vt 25.945727 176.694673
vt 25.945727 176.843184
vt 25.904782 176.802240
vt 25.889197 176.843184
vt 26.279060 176.843184
vt 25.996682 176.560806
vt 25.997137 176.559610
vt 26.612393 176.843184
vt 25.945727 177.176518
vt 25.812882 177.043673
vt 25.887043 176.848844
vt 25.762316 177.176518
vt 26.279060 177.176518
vt 26.612393 177.176518
vt 25.945727 177.509851
vt 25.720982 177.285107
vt 25.635435 177.509851
vt 25.666853 177.427312
vt 26.279060 177.509851
vt 26.612393 177.509851
vt 25.612393 177.570385
vt 25.612393 177.843184
vt 25.537183 177.767973
vt 25.508554 177.843184
vt 25.945727 177.843184
vt 25.629082 177.526540
vt 26.279060 177.843184
vt 26.612393 177.843184
vt 25.612393 178.176518
vt 25.445283 178.009407
vt 25.446663 178.005780
vt 25.381673 178.176518
vt 25.945727 178.176518
vt 26.279060 178.176518
vt 26.612393 178.176518
vt 25.279060 178.430037
vt 25.279060 178.509851
vt 25.255380 178.486170
vt 25.245390 178.509851
vt 25.612393 178.509851
vt 25.353383 178.250840
vt 25.341620 178.281741
vt 25.945727 178.509851
vt 26.279060 178.509851
vt 26.612393 178.509851
vt 25.279060 178.843184
vt 25.156480 178.720605
vt 25.223224 178.562393
vt 25.104769 178.843184
vt 25.612393 178.843184
vt 25.945727 178.843184
vt 26.279060 178.843184
vt 26.612393 178.843184
vt 25.279060 179.176518
vt 25.057581 178.955039
vt 25.099307 178.856130
vt 24.964148 179.176518
vt 25.612393 179.176518
vt 25.945727 179.176518
vt 26.279060 179.176518
vt 26.612393 179.176518
vt 24.945727 179.220184
vt 24.945727 179.509851
vt 24.859783 179.423908
vt 24.823527 179.509851
vt 24.851474 179.443604
vt 25.279060 179.509851
vt 24.958682 179.189473
vt 25.612393 179.509851
vt 25.945727 179.509851
vt 26.279060 179.509851
vt 26.612393 179.385833
vt 26.575598 179.473055
vt 26.573497 179.478035
vt 26.560075 179.509851
vt 24.945727 179.843184
vt 24.760884 179.658342
vt 24.682906 179.843184
vt 25.279060 179.843184
vt 25.612393 179.843184
vt 25.945727 179.843184
vt 26.279060 179.843184
vt 26.476699 179.707489
vt 26.449580 179.771772
vt 26.419454 179.843184
vt 24.612393 180.176518
vt 24.563086 180.127210
vt 24.603641 180.031078
vt 24.612393 180.010331
vt 24.542285 180.176518
vt 24.945727 180.176518
vt 24.661985 179.892776
vt 25.279060 180.176518
vt 25.612393 180.176518
vt 25.945727 180.176518
vt 26.279060 180.175980
vt 26.278900 180.176358
vt 26.278833 180.176518
vt 26.377799 179.941924
vt 24.612393 180.509851
vt 24.464187 180.361645
vt 24.479724 180.324815
vt 24.401665 180.509851
vt 24.945727 180.509851
vt 25.279060 180.509851
vt 25.612393 180.509851
vt 25.945727 180.509851
vt 26.201747 180.359246
vt 26.180001 180.410792
vt 26.138212 180.509851
vt 24.279060 180.786900
vt 24.279060 180.843184
vt 24.261486 180.825610
vt 24.253508 180.843184
vt 24.612393 180.843184
vt 24.365288 180.596079
vt 24.359999 180.608617
vt 24.945727 180.843184
vt 25.279060 180.843184
vt 25.612393 180.843184
vt 25.945727 180.843184
vt 26.081102 180.645227
vt 26.077830 180.652983
vt 25.997591 180.843184
vt 24.279060 181.176518
vt 24.157407 181.054865
vt 24.231534 180.891586
vt 24.102178 181.176518
vt 24.612393 181.176518
vt 24.945727 181.176518
vt 25.279060 181.176518
vt 25.612393 181.176518
vt 25.945727 180.966127
vt 25.883304 181.114095
vt 25.856971 181.176518
vt 25.982203 180.879661
vt 25.953913 180.946720
vt 24.279060 181.509851
vt 24.053328 181.284119
vt 24.098611 181.184373
vt 23.950848 181.509851
vt 23.965689 181.477161
vt 24.612393 181.509851
vt 24.945727 181.509851
vt 25.279060 181.509851
vt 25.612393 181.509851
vt 25.782237 181.346361
vt 25.829997 181.240457
vt 25.821348 181.260212
vt 25.708014 181.509851
vt 23.945727 181.521131
vt 23.945727 181.843184
vt 23.845170 181.742627
vt 23.799518 181.843184
vt 24.279060 181.843184
vt 23.949249 181.513373
vt 24.612393 181.843184
vt 24.945727 181.843184
vt 25.279060 181.843184
vt 25.612393 181.720474
vt 25.574079 181.804870
vt 25.556684 181.843184
vt 25.688425 181.552999
vt 25.678158 181.575615
vt 23.945727 182.176518
vt 23.741091 181.971882
vt 23.648188 182.176518
vt 23.699844 182.062736
vt 24.279060 182.176518
vt 24.612393 182.176518
vt 24.945727 182.176518
vt 25.279060 182.176518
vt 25.470000 182.034124
vt 25.422580 182.138575
vt 25.405354 182.176518
vt 23.612393 182.509851
vt 23.532933 182.430390
vt 23.566921 182.355524
vt 23.612393 182.255362
vt 23.496858 182.509851
vt 23.945727 182.509851
vt 23.637012 182.201136
vt 24.279060 182.509851
vt 24.612393 182.509851
vt 24.945727 182.509851
vt 25.279060 182.454705
vt 25.261841 182.492632
vt 25.254024 182.509851
vt 25.365920 182.263378
vt 25.289657 182.431362
vt 23.612393 182.843184
vt 23.428853 182.659644
vt 23.433998 182.648312
vt 23.345528 182.843184
vt 23.945727 182.843184
vt 24.279060 182.843184
vt 24.612393 182.843184
vt 24.945727 182.843184
vt 25.157762 182.721887
vt 25.156735 182.724150
vt 25.102694 182.843184
vt 23.279060 182.989593
vt 23.279060 183.176518
vt 23.220695 183.118153
vt 23.194198 183.176518
vt 23.612393 183.176518
vt 23.324774 182.888899
vt 23.301076 182.941099
vt 23.945727 183.176518
vt 24.279060 183.176518
vt 24.612393 183.176518
vt 24.945727 183.176518
vt 25.053683 182.951141
vt 25.023812 183.016938
vt 24.951365 183.176518
vt 23.279060 183.509851
vt 23.116616 183.347407
vt 23.168153 183.233887
vt 23.042868 183.509851
vt 23.612393 183.509851
vt 23.945727 183.509851
vt 24.279060 183.509851
vt 24.612393 183.509851
vt 24.945727 183.188936
vt 24.890890 183.309725
vt 24.845525 183.409649
vt 24.800035 183.509851
vt 24.949604 183.180395
vt 22.945727 183.723824
vt 22.945727 183.843184
vt 22.908458 183.805916
vt 22.891539 183.843184
vt 22.902308 183.819462
vt 23.279060 183.843184
vt 23.012537 183.576661
vt 23.035231 183.526675
vt 23.612393 183.843184
vt 23.945727 183.843184
vt 24.279060 183.843184
vt 24.612393 183.843184
vt 24.741446 183.638904
vt 24.648705 183.843184
vt 22.945727 184.176518
vt 22.804379 184.035170
vt 22.740209 184.176518
vt 22.769385 184.112250
vt 23.279060 184.176518
vt 23.612393 184.176518
vt 23.945727 184.176518
vt 24.279060 184.176518
vt 24.612393 183.923167
vt 24.533288 184.097412
vt 24.497375 184.176518
vt 24.637367 183.868158
vt 22.612393 184.458055
vt 22.612393 184.509851
vt 22.596221 184.493678
vt 22.588879 184.509851
vt 22.945727 184.509851
vt 22.700300 184.264424
vt 22.636463 184.405038
vt 23.279060 184.509851
vt 23.612393 184.509851
vt 23.945727 184.509851
vt 24.279060 184.509851
vt 24.492122 184.188088
vt 24.429209 184.326666
vt 24.359199 184.480876
vt 24.346045 184.509851
vt 22.612393 184.843184
vt 22.492142 184.722933
vt 22.503540 184.697825
vt 22.437549 184.843184
vt 22.945727 184.843184
vt 23.279060 184.843184
vt 23.612393 184.843184
vt 23.945727 184.843184
vt 24.279060 184.657398
vt 24.226277 184.773664
vt 24.221051 184.785175
vt 24.194715 184.843184
vt 24.325130 184.555921
vt 22.612393 185.176518
vt 22.388063 184.952187
vt 22.286219 185.176518
vt 22.945727 185.176518
vt 23.279060 185.176518
vt 23.612393 185.176518
vt 23.945727 185.176518
vt 24.116972 185.014429
vt 24.093354 185.066451
vt 24.043385 185.176518
vt 22.279060 185.192286
vt 22.279060 185.509851
vt 22.179905 185.410695
vt 22.134889 185.509851
vt 22.612393 185.509851
vt 22.283984 185.181441
vt 22.945727 185.509851
vt 23.279060 185.509851
vt 23.612393 185.509851
vt 23.945727 185.391629
vt 23.908813 185.472938
vt 23.892055 185.509851
vt 24.012892 185.243683
vt 22.279060 185.843184
vt 22.075825 185.639950
vt 22.104772 185.576188
vt 21.983559 185.843184
vt 22.612393 185.843184
vt 22.945727 185.843184
vt 23.279060 185.843184
vt 23.612393 185.843184
vt 23.827509 185.652027
vt 23.804734 185.702192
vt 23.740725 185.843184
vt 21.945727 185.925818
vt 21.945727 186.176518
vt 21.866807 186.097598
vt 21.830550 186.176518
vt 22.279060 186.176518
vt 21.971739 185.869197
vt 21.972593 185.867339
vt 22.612393 186.176518
vt 22.945727 186.176518
vt 23.279060 186.176518
vt 23.612393 186.125860
vt 23.596576 186.160700
vt 23.589395 186.176518
vt 23.700655 185.931446
vt 23.694586 185.944814
vt 21.945727 186.509851
vt 21.761875 186.325999
vt 21.677410 186.509851
vt 21.719367 186.418525
vt 22.279060 186.509851
vt 22.612393 186.509851
vt 22.945727 186.509851
vt 23.279060 186.509851
vt 23.492497 186.389955
vt 23.438065 186.509851
vt 21.612393 186.843184
vt 21.552011 186.782802
vt 21.592379 186.694934
vt 21.612393 186.651369
vt 21.524270 186.843184
vt 21.945727 186.843184
vt 21.656943 186.554400
vt 22.279060 186.843184
vt 22.612393 186.843184
vt 22.945727 186.843184
vt 23.279060 186.843184
vt 23.388094 186.618885
vt 23.428741 186.530390
vt 23.427248 186.533660
vt 23.300259 186.810069
vt 23.285046 186.843184
vt 21.612393 187.176518
vt 21.447078 187.011203
vt 21.465391 186.971343
vt 21.371129 187.176518
vt 21.945727 187.176518
vt 22.279060 187.176518
vt 22.612393 187.176518
vt 22.945727 187.176518
vt 23.279060 186.856213
vt 23.178229 187.075687
vt 23.173271 187.086478
vt 23.131905 187.176518
vt 23.283161 186.847286
vt 21.279060 187.376921
vt 21.279060 187.509851
vt 21.237214 187.468005
vt 21.217989 187.509851
vt 21.612393 187.509851
vt 21.342146 187.239604
vt 21.338403 187.247752
vt 21.945727 187.509851
vt 22.279060 187.509851
vt 22.612393 187.509851
vt 22.945727 187.509851
vt 23.073297 187.304088
vt 23.046283 187.362887
vt 22.978765 187.509851
vt 21.279060 187.843184
vt 21.132282 187.696406
vt 21.211415 187.524161
vt 21.064849 187.843184
vt 21.084426 187.800571
vt 21.612393 187.843184
vt 21.945727 187.843184
vt 22.279060 187.843184
vt 22.612393 187.843184
vt 22.945727 187.581764
vt 22.919295 187.639297
vt 22.863433 187.760890
vt 22.825625 187.843184
vt 22.968365 187.532489
vt 20.945727 188.102472
vt 20.945727 188.176518
vt 20.922417 188.153208
vt 20.911709 188.176518
vt 21.279060 188.176518
vt 21.027350 187.924807
vt 20.957438 188.076980
vt 21.612393 188.176518
vt 21.945727 188.176518
vt 22.279060 188.176518
vt 22.612393 188.176518
vt 22.758500 187.989291
vt 22.672485 188.176518
vt 20.945727 188.509851
vt 20.817485 188.381609
vt 20.830450 188.353389
vt 20.758568 188.509851
vt 21.279060 188.509851
vt 21.612393 188.509851
vt 21.945727 188.509851
vt 22.279060 188.509851
vt 22.612393 188.307316
vt 22.548636 188.446094
vt 22.538331 188.468524
vt 22.519344 188.509851
vt 22.665319 188.192115
vt 22.653568 188.217692
vt 20.612393 188.828023
vt 20.612393 188.843184
vt 20.607621 188.838412
vt 20.605428 188.843184
vt 20.945727 188.843184
vt 20.712553 188.610011
vt 20.703462 188.629798
vt 21.279060 188.843184
vt 21.612393 188.843184
vt 21.945727 188.843184
vt 22.279060 188.843184
vt 22.443704 188.674495
vt 22.411343 188.744933
vt 22.366204 188.843184
vt 20.612393 189.176518
vt 20.531307 189.095431
vt 20.576474 188.906207
vt 20.511952 189.176518
vt 20.945727 189.176518
vt 21.279060 189.176518
vt 21.612393 189.176518
vt 21.945727 189.176518
vt 22.279060 189.032867
vt 22.233839 189.131297
vt 22.213064 189.176518
vt 22.338772 188.902896
vt 22.284355 189.021343
vt 20.612393 189.509851
vt 20.540431 189.437888
vt 20.504003 189.209822
vt 20.551925 189.509851
vt 20.945727 189.509851
vt 21.279060 189.509851
vt 21.612393 189.509851
vt 21.945727 189.509851
vt 22.128907 189.359698
vt 22.059924 189.509851
vt 20.612393 189.614313
vt 20.553236 189.518060
vt 20.945727 189.843184
vt 20.798373 189.843184
vt 20.716679 189.783993
vt 21.279060 189.843184
vt 21.612393 189.843184
vt 21.945727 189.690995
vt 21.881786 189.779244
vt 21.847235 189.826931
vt 21.820790 189.843184
vt 22.021832 189.585956
vt 22.030378 189.574161
vt 20.945727 189.949948
vt 21.279060 190.038650
vt 21.273064 190.039608
vt 21.101104 189.998562
vt 20.969449 189.967136
vt 21.612393 189.971265
vt 21.581302 189.990374
vt 21.447605 190.011729
vt 21.691720 189.922511
f 1/1 2/2 3/3
f 1/1 3/3 4/4
f 2/2 1/1 5/5
f 1/1 6/6 7/7
f 1/1 7/7 5/5
f 7/7 6/6 8/8
f 6/6 9/9 10/10
f 6/6 10/10 8/8
f 9/9 11/11 12/12
f 9/9 12/12 10/10
f 13/13 14/14 15/15
f 15/15 14/14 16/16
f 9/9 17/17 18/18
f 9/9 18/18 11/11
f 17/17 14/14 13/13
f 17/17 13/13 19/19
f 17/17 19/19 18/18
f 14/14 20/20 21/21
f 14/14 21/21 22/22
f 14/14 22/22 16/16
f 21/21 20/20 23/23
f 17/17 24/24 14/14
f 24/24 20/20 14/14
f 20/20 25/25 26/26
f 20/20 26/26 27/27
f 20/20 27/27 23/23
f 26/26 25/25 28/28
f 24/24 29/29 20/20
f 29/29 25/25 20/20
f 30/30 31/31 32/32
f 32/32 31/31 33/33
f 25/25 34/34 35/35
f 25/25 35/35 36/36
f 25/25 36/36 28/28
f 34/34 31/31 30/30
f 34/34 30/30 35/35
f 29/29 37/37 25/25
f 37/37 34/34 25/25
f 31/31 38/38 39/39
f 31/31 39/39 40/40
f 31/31 40/40 33/33
f 39/39 38/38 41/41
f 34/34 42/42 31/31
f 42/42 38/38 31/31
f 37/37 43/43 34/34
f 43/43 42/42 34/34
f 38/38 44/44 45/45
f 38/38 45/45 41/41
f 44/44 46/46 47/47
f 44/44 47/47 45/45
f 42/42 48/48 38/38
f 48/48 44/44 38/38
f 43/43 49/49 42/42
f 49/49 48/48 42/42
f 50/50 51/51 52/52
f 52/52 51/51 53/53
f 44/44 54/54 55/55
f 44/44 55/55 46/46
f 54/54 51/51 50/50
f 54/54 50/50 55/55
f 48/48 56/56 44/44
f 56/56 54/54 44/44
f 49/49 57/57 48/48
f 57/57 56/56 48/48
f 51/51 58/58 59/59
f 51/51 59/59 60/60
f 51/51 60/60 53/53
f 59/59 58/58 61/61
f 54/54 62/62 51/51
f 62/62 58/58 51/51
f 56/56 63/63 54/54
f 63/63 62/62 54/54
f 57/57 64/64 56/56
f 64/64 63/63 56/56
f 65/65 66/66 67/67
f 67/67 66/66 68/68
f 58/58 69/69 70/70
f 58/58 70/70 61/61
f 69/69 66/66 65/65
f 69/69 65/65 71/71
f 69/69 71/71 70/70
f 62/62 72/72 58/58
f 72/72 69/69 58/58
f 63/63 73/73 62/62
f 73/73 72/72 62/62
f 64/64 74/74 63/63
f 74/74 73/73 63/63
f 66/66 75/75 76/76
f 66/66 76/76 77/77
f 66/66 77/77 68/68
f 76/76 75/75 78/78
f 69/69 79/79 66/66
f 79/79 75/75 66/66
f 72/72 80/80 69/69
f 80/80 79/79 69/69
f 73/73 81/81 72/72
f 81/81 80/80 72/72
f 74/74 82/82 73/73
f 82/82 81/81 73/73
f 75/75 83/83 84/84
f 75/75 84/84 85/85
f 75/75 85/85 78/78
f 84/84 83/83 86/86
f 79/79 87/87 75/75
f 87/87 83/83 75/75
f 80/80 88/88 79/79
f 88/88 87/87 79/79
f 81/81 89/89 80/80
f 89/89 88/88 80/80
f 82/82 90/90 81/81
f 90/90 89/89 81/81
f 91/91 92/92 93/93
f 92/92 94/94 95/95
f 92/92 95/95 93/93
f 83/83 96/96 97/97
f 83/83 97/97 86/86
f 96/96 92/92 91/91
f 96/96 91/91 97/97
f 87/87 98/98 83/83
f 98/98 96/96 83/83
f 88/88 99/99 87/87
f 99/99 98/98 87/87
f 89/89 100/100 88/88
f 100/100 99/99 88/88
f 89/89 90/90 101/101
f 89/89 101/101 102/102
f 100/100 89/89 102/102
f 100/100 102/102 103/103
f 100/100 103/103 104/104
f 92/92 105/105 106/106
f 92/92 106/106 94/94
f 106/106 105/105 107/107
f 96/96 108/108 92/92
f 108/108 105/105 92/92
f 98/98 109/109 96/96
f 109/109 108/108 96/96
f 99/99 110/110 98/98
f 110/110 109/109 98/98
f 100/100 111/111 99/99
f 111/111 110/110 99/99
f 112/112 100/100 104/104
f 111/111 100/100 112/112
f 111/111 112/112 113/113
f 111/111 113/113 114/114
f 115/115 116/116 117/117
f 115/115 117/117 118/118
f 116/116 115/115 119/119
f 105/105 120/120 121/121
f 105/105 121/121 107/107
f 120/120 115/115 118/118
f 120/120 118/118 121/121
f 108/108 122/122 105/105
f 122/122 120/120 105/105
f 109/109 123/123 108/108
f 123/123 122/122 108/108
f 110/110 124/124 109/109
f 124/124 123/123 109/109
f 110/110 111/111 125/125
f 110/110 125/125 126/126
f 124/124 110/110 126/126
f 124/124 126/126 127/127
f 128/128 111/111 114/114
f 125/125 111/111 128/128
f 115/115 129/129 130/130
f 115/115 130/130 131/131
f 115/115 131/131 119/119
f 130/130 129/129 132/132
f 120/120 133/133 115/115
f 133/133 129/129 115/115
f 122/122 134/134 120/120
f 134/134 133/133 120/120
f 123/123 135/135 122/122
f 135/135 134/134 122/122
f 124/124 136/136 123/123
f 136/136 135/135 123/123
f 124/124 127/127 137/137
f 124/124 137/137 138/138
f 136/136 124/124 138/138
f 136/136 138/138 139/139
f 140/140 141/141 142/142
f 142/142 141/141 143/143
f 129/129 144/144 145/145
f 129/129 145/145 132/132
f 144/144 141/141 140/140
f 144/144 140/140 146/146
f 144/144 146/146 145/145
f 133/133 147/147 129/129
f 147/147 144/144 129/129
f 134/134 148/148 133/133
f 148/148 147/147 133/133
f 135/135 149/149 134/134
f 149/149 148/148 134/134
f 136/136 150/150 135/135
f 150/150 149/149 135/135
f 151/151 136/136 139/139
f 150/150 136/136 151/151
f 150/150 151/151 152/152
f 150/150 152/152 153/153
f 141/141 154/154 155/155
f 141/141 155/155 156/156
f 141/141 156/156 143/143
f 155/155 154/154 157/157
f 144/144 158/158 141/141
f 158/158 154/154 141/141
f 147/147 159/159 144/144
f 159/159 158/158 144/144
f 148/148 160/160 147/147
f 160/160 159/159 147/147
f 149/149 161/161 148/148
f 161/161 160/160 148/148
f 149/149 150/150 162/162
f 149/149 162/162 163/163
f 161/161 149/149 163/163
f 161/161 163/163 164/164
f 165/165 150/150 153/153
f 150/150 165/165 166/166
f 150/150 166/166 162/162
f 154/154 167/167 168/168
f 154/154 168/168 169/169
f 154/154 169/169 157/157
f 167/167 170/170 171/171
f 167/167 171/171 168/168
f 158/158 172/172 154/154
f 172/172 167/167 154/154
f 159/159 173/173 158/158
f 173/173 172/172 158/158
f 160/160 174/174 159/159
f 174/174 173/173 159/159
f 161/161 175/175 160/160
f 175/175 174/174 160/160
f 176/176 161/161 164/164
f 176/176 164/164 177/177
f 176/176 177/177 178/178
f 175/175 161/161 176/176
f 175/175 176/176 179/179
f 180/180 181/181 182/182
f 182/182 181/181 183/183
f 167/167 184/184 185/185
f 167/167 185/185 170/170
f 184/184 181/181 180/180
f 184/184 180/180 185/185
f 172/172 186/186 167/167
f 186/186 184/184 167/167
f 173/173 187/187 172/172
f 187/187 186/186 172/172
f 174/174 188/188 173/173
f 188/188 187/187 173/173
f 174/174 175/175 189/189
f 174/174 189/189 190/190
f 188/188 174/174 190/190
f 188/188 190/190 191/191
f 175/175 179/179 192/192
f 175/175 192/192 193/193
f 189/189 175/175 193/193
f 181/181 194/194 195/195
f 181/181 195/195 183/183
f 194/194 196/196 197/197
f 194/194 197/197 195/195
f 184/184 198/198 181/181
f 198/198 194/194 181/181
f 186/186 199/199 184/184
f 199/199 198/198 184/184
f 187/187 200/200 186/186
f 200/200 199/199 186/186
f 188/188 201/201 187/187
f 201/201 200/200 187/187
f 202/202 188/188 191/191
f 201/201 188/188 202/202
f 201/201 202/202 203/203
f 201/201 203/203 204/204
f 205/205 206/206 207/207
f 205/205 207/207 208/208
f 206/206 205/205 209/209
f 194/194 210/210 211/211
f 194/194 211/211 196/196
f 210/210 205/205 208/208
f 210/210 208/208 211/211
f 198/198 212/212 194/194
f 212/212 210/210 194/194
f 199/199 213/213 198/198
f 213/213 212/212 198/198
f 200/200 214/214 199/199
f 214/214 213/213 199/199
f 200/200 201/201 215/215
f 200/200 215/215 216/216
f 214/214 200/200 216/216
f 214/214 216/216 217/217
f 218/218 201/201 204/204
f 201/201 218/218 219/219
f 201/201 219/219 215/215
f 205/205 220/220 221/221
f 205/205 221/221 222/222
f 205/205 222/222 209/209
f 221/221 220/220 223/223
f 210/210 224/224 205/205
f 224/224 220/220 205/205
f 212/212 225/225 210/210
f 225/225 224/224 210/210
f 213/213 226/226 212/212
f 226/226 225/225 212/212
f 214/214 227/227 213/213
f 227/227 226/226 213/213
f 228/228 214/214 217/217
f 227/227 214/214 228/228
f 227/227 228/228 229/229
f 227/227 229/229 230/230
f 231/231 232/232 233/233
f 233/233 232/232 234/234
f 220/220 235/235 236/236
f 220/220 236/236 223/223
f 235/235 232/232 231/231
f 235/235 231/231 237/237
f 235/235 237/237 236/236
f 224/224 238/238 220/220
f 238/238 235/235 220/220
f 225/225 239/239 224/224
f 239/239 238/238 224/224
f 226/226 240/240 225/225
f 240/240 239/239 225/225
f 227/227 241/241 226/226
f 241/241 240/240 226/226
f 242/242 227/227 230/230
f 241/241 227/227 242/242
f 241/241 242/242 243/243
f 241/241 243/243 244/244
f 232/232 245/245 246/246
f 232/232 246/246 247/247
f 232/232 247/247 234/234
f 246/246 245/245 248/248
f 235/235 249/249 232/232
f 249/249 245/245 232/232
f 238/238 250/250 235/235
f 250/250 249/249 235/235
f 239/239 251/251 238/238
f 251/251 250/250 238/238
f 240/240 252/252 239/239
f 252/252 251/251 239/239
f 240/240 241/241 253/253
f 240/240 253/253 254/254
f 240/240 254/254 255/255
f 252/252 240/240 255/255
f 252/252 255/255 256/256
f 257/257 241/241 244/244
f 253/253 241/241 257/257
f 258/258 259/259 260/260
f 259/259 261/261 262/262
f 259/259 262/262 260/260
f 245/245 263/263 264/264
f 245/245 264/264 265/265
f 245/245 265/265 248/248
f 263/263 259/259 258/258
f 263/263 258/258 264/264
f 249/249 266/266 245/245
f 266/266 263/263 245/245
f 250/250 267/267 249/249
f 267/267 266/266 249/249
f 251/251 268/268 250/250
f 268/268 267/267 250/250
f 252/252 269/269 251/251
f 269/269 268/268 251/251
f 270/270 252/252 256/256
f 269/269 252/252 270/270
f 269/269 270/270 271/271
f 259/259 272/272 273/273
f 259/259 273/273 261/261
f 272/272 274/274 275/275
f 272/272 275/275 273/273
f 263/263 276/276 259/259
f 276/276 272/272 259/259
f 266/266 277/277 263/263
f 277/277 276/276 263/263
f 267/267 278/278 266/266
f 278/278 277/277 266/266
f 268/268 279/279 267/267
f 279/279 278/278 267/267
f 268/268 269/269 280/280
f 268/268 280/280 281/281
f 279/279 268/268 281/281
f 279/279 281/281 282/282
f 283/283 269/269 271/271
f 280/280 269/269 283/283
f 284/284 285/285 286/286
f 286/286 285/285 287/287
f 272/272 288/288 289/289
f 272/272 289/289 274/274
f 288/288 285/285 284/284
f 288/288 284/284 290/290
f 288/288 290/290 289/289
f 276/276 291/291 272/272
f 291/291 288/288 272/272
f 277/277 292/292 276/276
f 292/292 291/291 276/276
f 278/278 293/293 277/277
f 293/293 292/292 277/277
f 279/279 294/294 278/278
f 294/294 293/293 278/278
f 279/279 282/282 295/295
f 279/279 295/295 296/296
f 294/294 279/279 296/296
f 294/294 296/296 297/297
f 294/294 297/297 298/298
f 285/285 299/299 300/300
f 285/285 300/300 301/301
f 285/285 301/301 287/287
f 300/300 299/299 302/302
f 288/288 303/303 285/285
f 303/303 299/299 285/285
f 291/291 304/304 288/288
f 304/304 303/303 288/288
f 292/292 305/305 291/291
f 305/305 304/304 291/291
f 293/293 306/306 292/292
f 306/306 305/305 292/292
f 293/293 294/294 307/307
f 293/293 307/307 308/308
f 293/293 308/308 309/309
f 306/306 293/293 309/309
f 306/306 309/309 310/310
f 311/311 294/294 298/298
f 307/307 294/294 311/311
f 299/299 312/312 313/313
f 299/299 313/313 302/302
f 313/313 312/312 314/314
f 303/303 315/315 299/299
f 315/315 312/312 299/299
f 304/304 316/316 303/303
f 316/316 315/315 303/303
f 305/305 317/317 304/304
f 317/317 316/316 304/304
f 306/306 318/318 305/305
f 318/318 317/317 305/305
f 319/319 306/306 310/310
f 318/318 306/306 319/319
f 318/318 319/319 320/320
f 318/318 320/320 321/321
f 322/322 323/323 324/324
f 324/324 323/323 325/325
f 312/312 326/326 327/327
f 312/312 327/327 314/314
f 326/326 323/323 322/322
f 326/326 322/322 327/327
f 315/315 328/328 312/312
f 328/328 326/326 312/312
f 316/316 329/329 315/315
f 329/329 328/328 315/315
f 317/317 330/330 316/316
f 330/330 329/329 316/316
f 317/317 318/318 331/331
f 317/317 331/331 332/332
f 330/330 317/317 332/332
f 330/330 332/332 333/333
f 334/334 318/318 321/321
f 331/331 318/318 334/334
f 323/323 335/335 336/336
f 323/323 336/336 337/337
f 323/323 337/337 325/325
f 336/336 335/335 338/338
f 326/326 339/339 323/323
f 339/339 335/335 323/323
f 328/328 340/340 326/326
f 340/340 339/339 326/326
f 329/329 341/341 328/328
f 341/341 340/340 328/328
f 330/330 342/342 329/329
f 342/342 341/341 329/329
f 330/330 333/333 343/343
f 330/330 343/343 344/344
f 342/342 330/330 344/344
f 342/342 344/344 345/345
f 346/346 347/347 348/348
f 348/348 347/347 349/349
f 335/335 350/350 351/351
f 335/335 351/351 352/352
f 335/335 352/352 338/338
f 350/350 347/347 346/346
f 350/350 346/346 351/351
f 339/339 353/353 335/335
f 353/353 350/350 335/335
f 340/340 354/354 339/339
f 354/354 353/353 339/339
f 341/341 355/355 340/340
f 355/355 354/354 340/340
f 341/341 342/342 356/356
f 341/341 356/356 357/357
f 355/355 341/341 357/357
f 355/355 357/357 358/358
f 359/359 342/342 345/345
f 342/342 359/359 360/360
f 342/342 360/360 356/356
f 347/347 361/361 362/362
f 347/347 362/362 349/349
f 361/361 363/363 364/364
f 361/361 364/364 362/362
f 350/350 365/365 347/347
f 365/365 361/361 347/347
f 353/353 366/366 350/350
f 366/366 365/365 350/350
f 354/354 367/367 353/353
f 367/367 366/366 353/353
f 355/355 368/368 354/354
f 368/368 367/367 354/354
f 369/369 355/355 358/358
f 368/368 355/355 369/369
f 368/368 369/369 370/370
f 371/371 372/372 373/373
f 371/371 373/373 374/374
f 372/372 371/371 375/375
f 361/361 376/376 377/377
f 361/361 377/377 363/363
f 376/376 371/371 374/374
f 376/376 374/374 377/377
f 365/365 378/378 361/361
f 378/378 376/376 361/361
f 366/366 379/379 365/365
f 379/379 378/378 365/365
f 367/367 380/380 366/366
f 380/380 379/379 366/366
f 368/368 381/381 367/367
f 381/381 380/380 367/367
f 382/382 368/368 370/370
f 382/382 370/370 383/383
f 382/382 383/383 384/384
f 381/381 368/368 382/382
f 381/381 382/382 385/385
f 381/381 385/385 386/386
f 371/371 387/387 388/388
f 371/371 388/388 389/389
f 371/371 389/389 375/375
f 388/388 387/387 390/390
f 376/376 391/391 371/371
f 391/391 387/387 371/371
f 378/378 392/392 376/376
f 392/392 391/391 376/376
f 379/379 393/393 378/378
f 393/393 392/392 378/378
f 380/380 394/394 379/379
f 394/394 393/393 379/379
f 380/380 381/381 395/395
f 380/380 395/395 396/396
f 394/394 380/380 396/396
f 394/394 396/396 397/397
f 394/394 397/397 398/398
f 399/399 381/381 386/386
f 395/395 381/381 399/399
f 400/400 401/401 402/402
f 402/402 401/401 403/403
f 387/387 404/404 405/405
f 387/387 405/405 390/390
f 404/404 401/401 400/400
f 404/404 400/400 406/406
f 404/404 406/406 405/405
f 391/391 407/407 387/387
f 407/407 404/404 387/387
f 392/392 408/408 391/391
f 408/408 407/407 391/391
f 393/393 409/409 392/392
f 409/409 408/408 392/392
f 394/394 410/410 393/393
f 410/410 409/409 393/393
f 411/411 394/394 398/398
f 410/410 394/394 411/411
f 410/410 411/411 412/412
f 410/410 412/412 413/413
f 401/401 414/414 415/415
f 401/401 415/415 416/416
f 401/401 416/416 403/403
f 414/414 417/417 418/418
f 414/414 418/418 415/415
f 404/404 419/419 401/401
f 419/419 414/414 401/401
f 407/407 420/420 404/404
f 420/420 419/419 404/404
f 408/408 421/421 407/407
f 421/421 420/420 407/407
f 409/409 422/422 408/408
f 422/422 421/421 408/408
f 409/409 410/410 423/423
f 409/409 423/423 424/424
f 409/409 424/424 425/425
f 422/422 409/409 425/425
f 422/422 425/425 426/426
f 427/427 410/410 413/413
f 423/423 410/410 427/427
f 428/428 429/429 430/430
f 430/430 429/429 431/431
f 414/414 432/432 433/433
f 414/414 433/433 417/417
f 432/432 429/429 428/428
f 432/432 428/428 434/434
f 432/432 434/434 433/433
f 419/419 435/435 414/414
f 435/435 432/432 414/414
f 420/420 436/436 419/419
f 436/436 435/435 419/419
f 421/421 437/437 420/420
f 437/437 436/436 420/420
f 422/422 438/438 421/421
f 438/438 437/437 421/421
f 439/439 422/422 426/426
f 438/438 422/422 439/439
f 438/438 439/439 440/440
f 429/429 441/441 442/442
f 429/429 442/442 443/443
f 429/429 443/443 431/431
f 442/442 441/441 444/444
f 432/432 445/445 429/429
f 445/445 441/441 429/429
f 435/435 446/446 432/432
f 446/446 445/445 432/432
f 436/436 447/447 435/435
f 447/447 446/446 435/435
f 437/437 448/448 436/436
f 448/448 447/447 436/436
f 437/437 438/438 449/449
f 437/437 449/449 450/450
f 448/448 437/437 450/450
f 448/448 450/450 451/451
f 448/448 451/451 452/452
f 438/438 440/440 453/453
f 438/438 453/453 454/454
f 449/449 438/438 454/454
f 455/455 456/456 457/457
f 457/457 456/456 458/458
f 441/441 459/459 460/460
f 441/441 460/460 444/444
f 459/459 456/456 455/455
f 459/459 455/455 461/461
f 459/459 461/461 460/460
f 445/445 462/462 441/441
f 462/462 459/459 441/441
f 446/446 463/463 445/445
f 463/463 462/462 445/445
f 447/447 464/464 446/446
f 464/464 463/463 446/446
f 448/448 465/465 447/447
f 465/465 464/464 447/447
f 466/466 448/448 452/452
f 465/465 448/448 466/466
f 465/465 466/466 467/467
f 465/465 467/467 468/468
f 456/456 469/469 470/470
f 456/456 470/470 471/471
f 456/456 471/471 458/458
f 470/470 469/469 472/472
f 459/459 473/473 456/456
f 473/473 469/469 456/456
f 462/462 474/474 459/459
f 474/474 473/473 459/459
f 463/463 475/475 462/462
f 475/475 474/474 462/462
f 464/464 476/476 463/463
f 476/476 475/475 463/463
f 464/464 465/465 477/477
f 464/464 477/477 478/478
f 476/476 464/464 478/478
f 476/476 478/478 479/479
f 480/480 465/465 468/468
f 465/465 480/480 481/481
f 465/465 481/481 477/477
f 469/469 482/482 483/483
f 469/469 483/483 484/484
f 469/469 484/484 472/472
f 483/483 482/482 485/485
f 473/473 486/486 469/469
f 486/486 482/482 469/469
f 474/474 487/487 473/473
f 487/487 486/486 473/473
f 475/475 488/488 474/474
f 488/488 487/487 474/474
f 476/476 489/489 475/475
f 489/489 488/488 475/475
f 490/490 476/476 479/479
f 489/489 476/476 490/490
f 489/489 490/490 491/491
f 485/485 482/482 492/492
f 485/485 492/492 493/493
f 486/486 494/494 482/482
f 482/482 494/494 495/495
f 482/482 495/495 496/496
f 482/482 496/496 492/492
f 487/487 497/497 486/486
f 497/497 494/494 486/486
f 488/488 498/498 487/487
f 498/498 497/497 487/487
f 488/488 489/489 499/499
f 488/488 499/499 500/500
f 498/498 488/488 500/500
f 498/498 500/500 501/501
f 498/498 501/501 502/502
f 503/503 489/489 491/491
f 503/503 491/491 504/504
f 499/499 489/489 503/503
f 495/495 494/494 505/505
f 494/494 497/497 506/506
f 494/494 506/506 507/507
f 494/494 507/507 508/508
f 505/505 494/494 508/508
f 505/505 508/508 509/509
f 497/497 498/498 510/510
f 497/497 510/510 511/511
f 497/497 511/511 512/512
f 506/506 497/497 512/512
f 513/513 498/498 502/502
f 510/510 498/498 513/513
