# OSM contributors ODbL; elevations USGS 3DEP
# Centimeters, Z up. Explicit orientation verification required on import.
o Park_Gravel_4_16
v 5322.478658 2568.636844 -492.312500
v 5317.052480 2563.210666 -492.333696
v 5317.273052 2562.666343 -492.314907
v 5322.478658 2549.820057 -491.871482
v 5314.853670 2568.636844 -492.520996
v 5322.478658 2635.303511 -493.093750
v 5301.068717 2613.893570 -493.428280
v 5306.919932 2588.215559 -492.967372
v 5296.190061 2635.303511 -493.709889
v 5322.478658 2701.970177 -494.656250
v 5288.696672 2668.188191 -494.656250
v 5294.336337 2643.438564 -493.944001
v 5280.998814 2701.970177 -495.628434
v 5322.478658 2768.636844 -495.958333
v 5276.324626 2722.482813 -496.138623
v 5280.883687 2702.475412 -495.641000
v 5266.041580 2768.636844 -497.281077
v 5267.431037 2761.512260 -497.109360
v 5255.811991 2831.009751 -497.033545
v 5255.811991 2835.303511 -497.000000
v 5255.211542 2834.703061 -497.023455
v 5255.113923 2835.303511 -497.029995
v 5322.478658 2835.303511 -495.697917
v 5264.534362 2777.359215 -497.282331
v 5265.505677 2771.384741 -497.282904
v 5255.811991 2901.970177 -497.260417
v 5245.888722 2892.046908 -497.648044
v 5254.944162 2836.347694 -497.041368
v 5244.275422 2901.970177 -497.801193
v 5322.478658 2901.970177 -495.177083
v 5255.811991 2968.636844 -497.520833
v 5236.565902 2949.390755 -498.347814
v 5233.436921 2968.636844 -498.657067
v 5322.478658 2968.636844 -494.656250
v 5255.811991 3035.303511 -498.302083
v 5227.243083 3006.734602 -499.418056
v 5222.598421 3035.303511 -499.988710
v 5223.259616 3031.236555 -499.907474
v 5322.478658 3035.303511 -494.916667
v 5255.811991 3101.970177 -499.864583
v 5217.920263 3064.078449 -500.900685
v 5211.759920 3101.970177 -501.929524
v 5322.478658 3101.970177 -496.218750
v 5255.811991 3168.636844 -500.645833
v 5208.597443 3121.422296 -502.305720
v 5200.921419 3168.636844 -503.218829
v 5202.136586 3161.162462 -503.074278
v 5322.478658 3168.636844 -496.739583
v 5255.811991 3235.303511 -499.864583
v 5199.274623 3178.766143 -503.177320
v 5190.082919 3235.303511 -503.459142
v 5322.478658 3235.303511 -496.739583
v 5189.145325 3301.970177 -504.812500
v 5180.628984 3293.453836 -505.111903
v 5181.013555 3291.088369 -505.044671
v 5189.145325 3241.070569 -503.623055
v 5179.244418 3301.970177 -505.353956
v 5255.811991 3301.970177 -500.385417
v 5189.951803 3236.109989 -503.472613
v 5322.478658 3301.970177 -497.520833
v 5189.145325 3368.636844 -507.416667
v 5171.306164 3350.797683 -507.695404
v 5168.405917 3368.636844 -508.631866
v 5170.452040 3356.051323 -507.971192
v 5255.811991 3368.636844 -501.947917
v 5322.478658 3368.636844 -498.562500
v 5189.145325 3435.303511 -506.895833
v 5161.983344 3408.141530 -508.699559
v 5157.567417 3435.303511 -508.499399
v 5255.811991 3435.303511 -503.510417
v 5322.478658 3435.303511 -500.125000
v 5189.145325 3501.970177 -505.333333
v 5152.660524 3465.485377 -508.041190
v 5146.728916 3501.970177 -506.990224
v 5149.329010 3485.977230 -507.450910
v 5255.811991 3501.970177 -504.291667
v 5322.478658 3501.970177 -502.208333
v 5189.145325 3568.636844 -504.031250
v 5143.337704 3522.829224 -506.715290
v 5135.890415 3568.636844 -506.735601
v 5138.767494 3550.940183 -506.727754
v 5255.811991 3568.636844 -503.510417
v 5322.478658 3568.636844 -502.468750
v 5189.145325 3635.303511 -505.333333
v 5134.014884 3580.173070 -507.056160
v 5125.051915 3635.303511 -508.588077
v 5255.811991 3635.303511 -503.770833
v 5322.478658 3635.303511 -502.468750
v 5122.478658 3651.131387 -508.656922
v 5122.478658 3701.970177 -508.458333
v 5115.369245 3694.860764 -508.985985
v 5114.213414 3701.970177 -508.878053
v 5189.145325 3701.970177 -506.114583
v 5124.692065 3637.516917 -508.632289
v 5255.811991 3701.970177 -504.291667
v 5322.478658 3701.970177 -502.989583
v 5122.478658 3768.636844 -506.114583
v 5106.046425 3752.204611 -507.526728
v 5107.082949 3745.829044 -507.698233
v 5103.374913 3768.636844 -507.383191
v 5189.145325 3768.636844 -504.291667
v 5255.811991 3768.636844 -503.510417
v 5322.478658 3768.636844 -502.989583
v 5122.478658 3835.303511 -506.114583
v 5096.723605 3809.548458 -507.824880
v 5092.536413 3835.303511 -508.570783
v 5189.145325 3835.303511 -503.510417
v 5255.811991 3835.303511 -503.510417
v 5322.478658 3835.303511 -503.510417
v 5122.478658 3901.970177 -508.979167
v 5087.400785 3866.892305 -510.349396
v 5081.697912 3901.970177 -512.165162
v 5085.959918 3875.754951 -510.808161
v 5189.145325 3901.970177 -505.333333
v 5255.811991 3901.970177 -504.812500
v 5322.478658 3901.970177 -504.291667
v 5122.478658 3968.636844 -510.541667
v 5078.077966 3924.236152 -512.969830
v 5070.859412 3968.636844 -514.171145
v 5189.145325 3968.636844 -507.416667
v 5255.811991 3968.636844 -506.895833
v 5322.478658 3968.636844 -505.593750
v 5122.478658 4035.303511 -511.843750
v 5068.755146 3981.579998 -514.571897
v 5060.020911 4035.303511 -515.503384
v 5064.836888 4005.680858 -514.989770
v 5189.145325 4035.303511 -508.458333
v 5255.811991 4035.303511 -507.156250
v 5322.478658 4035.303511 -506.114583
v 5055.811991 4101.970177 -514.968750
v 5050.109506 4096.267692 -515.369706
v 5054.275373 4070.643812 -515.425892
v 5055.811991 4061.192206 -515.446617
v 5049.182410 4101.970177 -515.408996
v 5122.478658 4101.970177 -512.104167
v 5059.432326 4038.923845 -515.552013
v 5189.145325 4101.970177 -509.239583
v 5255.811991 4101.970177 -506.375000
v 5322.478658 4101.970177 -500.906250
v 5055.811991 4168.636844 -514.968750
v 5040.786686 4153.611539 -515.966524
v 5043.713858 4135.606765 -515.772142
v 5038.343910 4168.636844 -516.469913
v 5122.478658 4168.636844 -512.104167
v 5189.145325 4168.636844 -508.718750
v 5255.811991 4168.636844 -501.166667
v 5322.478658 4168.636844 -490.489583
v 5055.811991 4235.303511 -516.010417
v 5031.767061 4211.258580 -517.701076
v 5032.003111 4209.072016 -517.646625
v 5033.152342 4200.569719 -517.415015
v 5029.171293 4235.303511 -518.507982
v 5122.478658 4235.303511 -513.406250
v 5189.145325 4235.303511 -509.500000
v 5255.811991 4235.303511 -501.166667
v 5322.478658 4235.303511 -491.531250
v 5055.811991 4301.970177 -517.052083
v 5025.271317 4271.429503 -519.438074
v 5021.974302 4301.970177 -520.488724
v 5025.095382 4273.059205 -519.494138
v 5122.478658 4301.970177 -513.927083
v 5189.145325 4301.970177 -510.541667
v 5255.811991 4301.970177 -503.250000
v 5322.478658 4301.970177 -488.406250
v 5055.811991 4368.636844 -518.354167
v 5018.775573 4331.600425 -521.392310
v 5014.777311 4368.636844 -524.124669
v 5122.478658 4368.636844 -514.447917
v 5189.145325 4368.636844 -511.322917
v 5255.811991 4368.636844 -502.468750
v 5322.478658 4368.636844 -478.510417
v 5055.811991 4435.303511 -521.739583
v 5012.279829 4391.771348 -525.650676
v 5007.580320 4435.303511 -529.464187
v 5122.478658 4435.303511 -517.312500
v 5189.145325 4435.303511 -512.625000
v 5255.811991 4435.303511 -500.125000
v 5322.478658 4435.303511 -475.125000
v 5055.811991 4501.970177 -524.343750
v 5005.784085 4451.942271 -530.401817
v 5000.383329 4501.970177 -533.004479
v 5004.372197 4465.020770 -531.082215
v 5122.478658 4501.970177 -520.177083
v 5189.145325 4501.970177 -513.145833
v 5255.811991 4501.970177 -494.916667
v 5322.478658 4499.783612 -472.606246
v 5322.265608 4501.757127 -472.609050
v 5322.242608 4501.970177 -472.600131
v 5055.811991 4568.636844 -526.947917
v 4999.288341 4512.113193 -533.571782
v 4993.186337 4568.636844 -536.243912
v 5122.478658 4568.636844 -522.520833
v 5189.145325 4568.636844 -514.708333
v 5255.811991 4544.527769 -494.085464
v 5238.489177 4551.314030 -498.689627
v 5233.077065 4553.434240 -500.451745
v 5217.242603 4568.636844 -505.818179
v 5286.855524 4533.013710 -482.547759
v 5319.513485 4527.250392 -471.936933
v 5319.026249 4527.241228 -472.101186
v 5283.806675 4533.560773 -483.692302
v 4989.145325 4606.069271 -538.159734
v 4989.145325 4635.303511 -539.187500
v 4986.296853 4632.455039 -539.688208
v 4985.989346 4635.303511 -539.828558
v 5055.811991 4635.303511 -529.552083
v 4992.792597 4572.284116 -536.444830
v 4990.556740 4592.995147 -537.496103
v 5122.478658 4635.303511 -524.343750
v 5189.145325 4601.702329 -515.741630
v 5178.886414 4625.044601 -517.673292
v 5174.377631 4635.303511 -518.464569
v 5202.907959 4582.399479 -510.891353
v 5193.775269 4591.167739 -513.983652
v 4989.145325 4701.970177 -541.270833
v 4979.801109 4692.625961 -542.876870
v 4983.649011 4656.982336 -540.981402
v 4978.792355 4701.970177 -543.373780
v 5055.811991 4701.970177 -531.635417
v 5122.478658 4701.970177 -526.166667
v 5171.853602 4641.046478 -518.862662
v 5170.896626 4683.721478 -519.804566
v 5170.632131 4695.516250 -520.159107
v 5173.129769 4701.970177 -520.033134
v 4989.145325 4768.636844 -543.354167
v 4973.305365 4752.796884 -546.076660
v 4976.741283 4720.969524 -544.384134
v 4971.595364 4768.636844 -546.850448
v 5055.811991 4768.636844 -533.718750
v 5122.478658 4768.636844 -527.208333
v 5189.145325 4768.636844 -519.395833
v 5189.145325 4743.354560 -518.902039
v 5190.295850 4746.327531 -518.627531
v 5211.538509 4768.636844 -512.922803
v 4989.145325 4835.303511 -545.697917
v 4966.809621 4812.967807 -549.362368
v 4969.833555 4784.956713 -547.775179
v 4964.398373 4835.303511 -550.531306
v 5055.811991 4835.303511 -535.281250
v 5122.478658 4835.303511 -528.250000
v 5189.145325 4835.303511 -520.437500
v 5255.811991 4835.303511 -503.250000
v 5227.866661 4785.784879 -509.006761
v 5255.811991 4798.204832 -501.510999
v 5286.257652 4835.303511 -488.621812
v 5277.654410 4807.912421 -491.471443
v 5289.181603 4808.218567 -485.947337
v 4989.145325 4901.970177 -550.385417
v 4960.313877 4873.138729 -553.989348
v 4962.925826 4848.943901 -551.778002
v 4957.201381 4901.970177 -556.624468
v 5055.811991 4901.970177 -536.062500
v 5122.478658 4901.970177 -528.770833
v 5189.145325 4901.970177 -521.739583
v 5255.811991 4901.970177 -505.593750
v 5283.291144 4862.782663 -491.013190
v 5281.077287 4883.289900 -492.797836
v 5279.060661 4901.970177 -494.423491
v 4989.145325 4968.636844 -551.166667
v 4953.818133 4933.309652 -557.652518
v 4956.018098 4912.931090 -556.984026
v 4950.004390 4968.636844 -560.340323
v 5055.811991 4968.636844 -532.937500
v 5122.478658 4968.636844 -525.645833
v 5189.145325 4968.636844 -522.000000
v 5255.811991 4968.636844 -507.156250
v 5276.795400 4922.953586 -496.331542
v 5274.169559 4947.277089 -498.122230
v 5271.863669 4968.636844 -499.694728
v 4989.145325 5035.303511 -546.739583
v 4947.322389 4993.480575 -559.319138
v 4949.110369 4976.918279 -559.999920
v 4942.807399 5035.303511 -560.496155
v 5055.811991 5035.303511 -526.427083
v 5122.478658 5035.303511 -518.875000
v 5189.145325 5035.303511 -518.354167
v 5255.811991 5035.303511 -510.020833
v 5270.299656 4983.124508 -502.289300
v 5267.261830 5011.264277 -504.649482
v 5264.666678 5035.303511 -506.665737
v 4989.145325 5101.970177 -544.916667
v 4940.826645 5053.651497 -560.582489
v 4942.202641 5040.905467 -560.522514
v 4935.610408 5101.970177 -561.228087
v 5055.811991 5101.970177 -525.385417
v 5122.478658 5101.970177 -518.354167
v 5189.145325 5101.970177 -517.833333
v 5255.811991 5101.970177 -516.531250
v 5263.803912 5043.295431 -508.740877
v 5260.354102 5075.251466 -512.750988
v 5257.469687 5101.970177 -516.103875
v 4989.145325 5168.636844 -546.739583
v 4934.888673 5114.380192 -561.787327
v 4935.294912 5104.892656 -561.404126
v 4935.354676 5168.636844 -562.078323
v 4934.409200 5125.578055 -562.011534
v 5055.811991 5168.636844 -526.427083
v 5122.478658 5168.636844 -520.177083
v 5189.145325 5168.636844 -519.656250
v 5255.811991 5117.325628 -516.591232
v 5254.559819 5128.924668 -516.660997
v 5255.423275 5168.248127 -516.797740
v 5255.431810 5168.636844 -516.808003
v 5257.308168 5103.466354 -516.186428
v 4989.145325 5235.303511 -545.958333
v 4935.643753 5181.801939 -561.841613
v 4936.818529 5235.303511 -562.310457
v 4935.837412 5190.621563 -561.918901
v 5055.811991 5235.303511 -525.385417
v 5122.478658 5235.303511 -520.177083
v 5189.145325 5235.303511 -520.177083
v 5255.811991 5235.303511 -517.833333
v 5255.760297 5183.596764 -517.027637
v 5255.811991 5185.951028 -517.062201
v 5256.895663 5235.303511 -517.685175
v 4989.145325 5301.970177 -545.697917
v 4937.140470 5249.965323 -562.152578
v 4938.282382 5301.970177 -562.784687
v 5055.811991 5301.970177 -525.906250
v 5122.478658 5301.970177 -520.697917
v 5189.145325 5301.970177 -520.958333
v 5255.811991 5301.970177 -520.177083
v 5256.919992 5236.411511 -517.777068
v 5257.188509 5248.640272 -518.183909
v 5258.359515 5301.970177 -519.958155
v 4989.145325 5368.636844 -547.000000
v 4938.637187 5318.128707 -562.981090
v 4939.746234 5368.636844 -563.209077
v 4938.693836 5320.708580 -562.992736
v 5055.811991 5368.636844 -528.510417
v 5122.478658 5368.636844 -522.000000
v 5189.145325 5368.636844 -522.520833
v 5255.811991 5368.636844 -523.822917
v 5258.416709 5304.574895 -520.238131
v 5258.616720 5313.683780 -520.730023
v 5259.823368 5368.636844 -523.697561
v 4989.145325 5435.303511 -546.739583
v 4940.133904 5386.292091 -563.012906
v 4940.122047 5385.752088 -563.018906
v 4941.210087 5435.303511 -562.655580
v 5055.811991 5435.303511 -528.770833
v 5122.478658 5435.303511 -522.781250
v 5189.145325 5435.303511 -523.302083
v 5255.811991 5435.303511 -524.343750
v 5259.913427 5372.738279 -523.710768
v 5260.044932 5378.727289 -523.752934
v 5261.287221 5435.303511 -524.151261
v 4989.145325 5501.970177 -549.343750
v 4941.630622 5454.455474 -563.264073
v 4941.550259 5450.795597 -563.147792
v 4942.673940 5501.970177 -565.318289
v 5055.811991 5501.970177 -530.593750
v 5122.478658 5501.970177 -523.041667
v 5189.145325 5501.970177 -523.041667
v 5255.811991 5501.970177 -523.822917
v 5261.410144 5440.901663 -524.146940
v 5261.473144 5443.770797 -524.122802
v 5262.751073 5501.970177 -523.633176
v 4989.145325 5568.636844 -555.593750
v 4943.127339 5522.618858 -567.098246
v 4942.978471 5515.839105 -566.513818
v 4944.137792 5568.636844 -569.658604
v 5055.811991 5568.636844 -532.937500
v 5122.478658 5568.636844 -523.302083
v 5189.145325 5568.636844 -523.302083
v 5255.811991 5568.636844 -524.343750
v 5262.901355 5508.814305 -523.816211
v 5262.906861 5509.065047 -523.822917
v 5264.214926 5568.636844 -524.278102
v 4989.145325 5635.303511 -557.677083
v 4944.624056 5590.782242 -570.198690
v 4944.406682 5580.882613 -569.957256
v 4945.601645 5635.303511 -570.434021
v 5055.811991 5635.303511 -535.281250
v 5122.478658 5635.303511 -524.083333
v 5189.145325 5635.303511 -523.822917
v 5255.811991 5635.303511 -526.166667
v 5264.329567 5573.857814 -524.440362
v 5264.403578 5577.228431 -524.545115
v 5265.678779 5635.303511 -526.128125
v 4989.145325 5701.970177 -558.979167
v 4946.120774 5658.945626 -570.743692
v 4945.834894 5645.926122 -570.573159
v 4947.065498 5701.970177 -572.129113
v 5055.811991 5701.970177 -536.322917
v 5122.478658 5701.970177 -525.385417
v 5189.145325 5701.970177 -524.604167
v 5255.811991 5701.970177 -527.989583
v 5265.900296 5645.391815 -526.560741
v 5267.142631 5701.970177 -528.122364
v 4989.145325 5768.636844 -558.979167
v 4947.617491 5727.109010 -571.956615
v 4947.263106 5710.969630 -572.067360
v 4948.529350 5768.636844 -573.416876
v 5055.811991 5768.636844 -534.239583
v 5122.478658 5768.636844 -526.166667
v 5189.145325 5768.636844 -527.208333
v 5255.811991 5768.636844 -530.854167
v 5267.185990 5703.944831 -528.284856
v 5267.397013 5713.555199 -529.075679
v 5268.606484 5768.636844 -531.503887
v 4989.145325 5835.303511 -557.677083
v 4949.114208 5795.272394 -572.688752
v 4948.691317 5776.013138 -573.215234
v 4949.993203 5835.303511 -572.359129
v 5055.811991 5835.303511 -534.500000
v 5122.478658 5835.303511 -526.687500
v 5189.145325 5835.303511 -527.729167
v 5255.811991 5835.303511 -532.156250
v 5268.614202 5768.988339 -531.523501
v 5268.893730 5781.718583 -532.233881
v 5270.042414 5834.031847 -533.354340
v 5270.070337 5835.303511 -533.381577
v 4989.145325 5901.970177 -559.239583
v 4950.610925 5863.435778 -572.786833
v 4950.119529 5841.056647 -572.446596
v 4951.457056 5901.970177 -572.489365
v 5055.811991 5901.970177 -537.364583
v 5122.478658 5901.970177 -527.729167
v 5189.145325 5901.970177 -526.947917
v 5255.811991 5901.970177 -532.156250
v 5270.390447 5849.881967 -533.522980
v 5271.470626 5899.075356 -533.624247
v 5271.534189 5901.970177 -533.630206
v 4989.145325 5968.636844 -562.625000
v 4952.107643 5931.599162 -573.765240
v 4951.547741 5906.100155 -572.667209
v 4952.920908 5968.636844 -574.794140
v 5055.811991 5968.636844 -538.927083
v 5122.478658 5968.636844 -528.510417
v 5189.145325 5968.636844 -526.427083
v 5255.811991 5968.636844 -532.156250
v 5271.887165 5918.045351 -533.663298
v 5272.898837 5964.118864 -533.758142
v 5272.998042 5968.636844 -533.767442
v 4989.145325 6035.303511 -564.187500
v 4953.604360 5999.762546 -575.294051
v 4952.975953 5971.143664 -574.834402
v 4954.384761 6035.303511 -576.272227
v 5055.811991 6035.303511 -541.010417
v 5122.478658 6035.303511 -531.114583
v 5189.145325 6035.303511 -527.989583
v 5255.811991 6035.303511 -532.937500
v 5273.383882 5986.208735 -534.215456
v 5274.327049 6029.162372 -534.818294
v 5274.461895 6035.303511 -534.904482
v 4989.145325 6101.970177 -567.052083
v 4955.101077 6067.925930 -577.424940
v 4954.404164 6036.187172 -576.303451
v 4955.848614 6101.970177 -578.888024
v 4955.832376 6101.230680 -578.856243
v 5055.811991 6101.970177 -544.395833
v 5122.478658 6101.970177 -533.718750
v 5189.145325 6101.970177 -529.812500
v 5255.811991 6101.970177 -533.979167
v 5274.880599 6054.372119 -535.097616
v 5275.755261 6094.205881 -535.805434
v 5275.925747 6101.970177 -535.943401
v 4989.145325 6168.636844 -569.656250
v 4956.597794 6136.089314 -579.954492
v 4957.312466 6168.636844 -581.220531
v 5055.811991 6168.636844 -543.875000
v 5122.478658 6168.636844 -530.854167
v 5189.145325 6168.636844 -531.895833
v 5255.811991 6168.636844 -538.145833
v 5276.377317 6122.535503 -537.112165
v 5277.183472 6159.249389 -539.479211
v 5277.389600 6168.636844 -540.084447
v 4989.145325 6235.303511 -573.302083
v 4958.094512 6204.252698 -582.884170
v 4958.776319 6235.303511 -584.334574
v 4958.688799 6231.317697 -584.148394
v 5055.811991 6235.303511 -545.177083
v 5122.478658 6235.303511 -531.635417
v 5189.145325 6235.303511 -532.416667
v 5255.811991 6235.303511 -539.447917
v 5277.874034 6190.698887 -541.248308
v 5278.611684 6224.292898 -541.993766
v 5278.853453 6235.303511 -542.238094
v 4989.145325 6301.970177 -572.520833
v 4959.591229 6272.416082 -583.603619
v 4960.240172 6301.970177 -583.021533
v 5055.811991 6301.970177 -546.479167
v 5122.478658 6301.970177 -532.677083
v 5189.145325 6301.970177 -532.156250
v 5255.811991 6301.970177 -538.666667
v 5279.370751 6258.862270 -542.300735
v 5280.039896 6289.336406 -542.032487
v 5280.317305 6301.970177 -541.921279
v 4989.145325 6368.636844 -570.958333
v 4961.087946 6340.579466 -581.808648
v 4961.704024 6368.636844 -580.498473
v 4961.545223 6361.404714 -580.836186
v 5055.811991 6368.636844 -547.520833
v 5122.478658 6368.636844 -533.458333
v 5189.145325 6368.636844 -532.677083
v 5255.811991 6368.636844 -538.927083
v 5280.867468 6327.025654 -542.287966
v 5281.468107 6354.379914 -542.479284
v 5281.781158 6368.636844 -542.578997
v 4989.145325 6435.303511 -570.437500
v 4962.584664 6408.742850 -579.878985
v 4963.167877 6435.303511 -579.367248
v 4962.973434 6426.448222 -579.537860
v 5055.811991 6435.303511 -547.520833
v 5122.478658 6435.303511 -533.979167
v 5189.145325 6435.303511 -533.458333
v 5255.811991 6435.303511 -539.968750
v 5282.364186 6395.189038 -543.490742
v 5282.896319 6419.423423 -543.952550
v 5283.245011 6435.303511 -544.255159
v 4989.145325 6501.970177 -571.218750
v 4964.081381 6476.906233 -579.540763
v 4964.631730 6501.970177 -578.879248
v 5055.811991 6501.970177 -549.343750
v 5122.478658 6501.970177 -535.281250
v 5189.145325 6501.970177 -533.458333
v 5255.811991 6501.970177 -540.750000
v 5283.860903 6463.352422 -544.899223
v 5284.324531 6484.466931 -545.222722
v 5284.708863 6501.970177 -545.490893
v 4989.145325 6568.636844 -571.479167
v 4965.578098 6545.069617 -578.751866
v 4966.095582 6568.636844 -578.772249
v 4965.829858 6556.535239 -578.761782
v 5055.811991 6568.636844 -550.385417
v 5122.478658 6568.636844 -537.104167
v 5189.145325 6568.636844 -534.500000
v 5255.811991 6568.636844 -541.531250
v 5285.357620 6531.515806 -545.712742
v 5285.752743 6549.510439 -545.985355
v 5286.172716 6568.636844 -546.275113
v 4989.145325 6635.303511 -570.958333
v 4967.074815 6613.233001 -578.114006
v 4967.559435 6635.303511 -577.956884
v 4967.258069 6621.578747 -578.054592
v 5055.811991 6635.303511 -550.645833
v 5122.478658 6635.303511 -537.625000
v 5189.145325 6635.303511 -534.760417
v 5255.811991 6635.303511 -541.270833
v 5286.854337 6599.679190 -546.260357
v 5287.180954 6614.553948 -546.253287
v 5287.636569 6635.303511 -546.243424
v 4989.145325 6701.970177 -572.000000
v 4968.571533 6681.396385 -578.348944
v 4969.375162 6701.970177 -578.023721
v 4968.836117 6690.871976 -578.231314
v 4968.686281 6686.622256 -578.293568
v 5055.811991 6701.970177 -550.645833
v 5122.478658 6701.970177 -537.625000
v 5189.145325 6701.970177 -535.802083
v 5255.811991 6701.970177 -541.791667
v 5288.351055 6667.842574 -546.609273
v 5288.562487 6677.471600 -546.717536
v 5289.752393 6701.970177 -547.094854
v 4989.145325 6768.636844 -572.520833
v 4971.769226 6751.260746 -577.679363
v 4972.613191 6768.636844 -577.622546
v 5055.811991 6768.636844 -551.166667
v 5122.478658 6768.636844 -538.145833
v 5189.145325 6768.636844 -536.322917
v 5255.811991 6768.636844 -542.312500
v 5291.485050 6737.643236 -547.644278
v 5292.990423 6768.636844 -548.121630
v 4989.145325 6835.303511 -574.604167
v 4975.172557 6821.330743 -578.479426
v 4975.851220 6835.303511 -578.862434
v 4975.234067 6822.597159 -578.514140
v 5055.811991 6835.303511 -552.208333
v 5122.478658 6835.303511 -539.187500
v 5189.145325 6835.303511 -538.145833
v 5255.811991 6835.303511 -543.875000
v 5294.888380 6807.713233 -549.028754
v 5296.228452 6835.303511 -549.874318
v 4989.145325 6901.970177 -574.604167
v 4978.575887 6891.400740 -577.989690
v 4978.433042 6888.459750 -578.035445
v 4979.089250 6901.970177 -577.707409
v 5055.811991 6901.970177 -553.250000
v 5122.478658 6901.970177 -540.750000
v 5189.145325 6901.970177 -538.927083
v 5255.811991 6901.970177 -543.093750
v 5298.056255 6872.935511 -550.292633
v 5298.291711 6877.783230 -550.346520
v 5299.466481 6901.970177 -550.255815
v 4989.145325 6968.636844 -572.520833
v 4981.979218 6961.470737 -574.956190
v 4981.632017 6954.322342 -575.286721
v 4982.327279 6968.636844 -574.518308
v 5055.811991 6968.636844 -554.291667
v 5122.478658 6968.636844 -541.531250
v 5189.145325 6968.636844 -539.968750
v 5255.811991 6968.636844 -543.354167
v 5301.695041 6947.853227 -550.800669
v 5302.704510 6968.636844 -551.047471
v 4989.145325 7035.303511 -569.916667
v 4985.382548 7031.540734 -571.166026
v 4984.830992 7020.184933 -571.771201
v 4985.565308 7035.303511 -570.895577
v 5055.811991 7035.303511 -551.687500
v 5122.478658 7035.303511 -541.270833
v 5189.145325 7035.303511 -540.750000
v 5255.811991 7035.303511 -545.437500
v 5305.098372 7017.923224 -552.595363
v 5305.942540 7035.303511 -553.270398
v 4989.145325 7101.970177 -568.354167
v 4988.785879 7101.610732 -568.460877
v 4988.029967 7086.047525 -569.032334
v 4988.803337 7101.970177 -568.449015
v 5055.811991 7101.970177 -551.687500
v 5122.478658 7101.970177 -542.312500
v 5189.145325 7101.970177 -541.531250
v 5255.811991 7101.970177 -546.218750
v 5307.653180 7070.523285 -553.675263
v 5308.501702 7087.993221 -553.876086
v 5309.180569 7101.970177 -554.140648
v 4989.145325 7109.011238 -568.189142
v 5055.811991 7168.636844 -550.645833
v 4992.041367 7168.636844 -566.090282
v 5122.478658 7168.636844 -542.833333
v 5189.145325 7168.636844 -542.312500
v 5255.811991 7168.636844 -547.520833
v 5311.905033 7158.063219 -555.421515
v 5312.418598 7168.636844 -555.702257
v 5055.811991 7235.303511 -551.166667
v 4992.189209 7171.680729 -566.078256
v 4995.279396 7235.303511 -567.009182
v 5122.478658 7235.303511 -542.833333
v 5189.145325 7235.303511 -542.833333
v 5255.811991 7235.303511 -548.302083
v 5315.308363 7228.133216 -555.887511
v 5315.656627 7235.303511 -556.016431
v 5055.811991 7301.970177 -553.250000
v 4995.592540 7241.750726 -567.128702
v 4998.517425 7301.970177 -569.587904
v 5122.478658 7301.970177 -543.614583
v 5189.145325 7301.970177 -542.833333
v 5255.811991 7301.970177 -547.260417
v 5318.711694 7298.203213 -554.690334
v 5318.894657 7301.970177 -554.652917
v 5055.811991 7368.636844 -554.031250
v 4998.995870 7311.820723 -569.566908
v 5001.755454 7368.636844 -569.023493
v 5000.825867 7349.497891 -569.206546
v 5122.478658 7368.636844 -544.656250
v 5189.145325 7368.636844 -543.354167
v 5255.811991 7368.636844 -545.958333
v 5322.115024 7368.273210 -554.512311
v 5322.132686 7368.636844 -554.507485
v 5055.811991 7435.303511 -556.114583
v 5002.399201 7381.890720 -569.259137
v 5004.993484 7435.303511 -569.811759
v 5122.478658 7435.303511 -545.958333
v 5189.145325 7435.303511 -544.656250
v 5255.811991 7435.303511 -546.218750
v 5322.478658 7435.303511 -554.291667
v 5322.478658 7375.759944 -554.524259
v 5055.811991 7501.970177 -557.937500
v 5005.802531 7451.960717 -570.049166
v 5008.231513 7501.970177 -571.691232
v 5122.478658 7501.970177 -547.260417
v 5189.145325 7501.970177 -545.697917
v 5255.811991 7501.970177 -546.479167
v 5322.478658 7501.970177 -553.770833
v 5055.811991 7568.636844 -558.979167
v 5009.205862 7522.030715 -571.723030
v 5011.469542 7568.636844 -572.143331
v 5010.422792 7547.085665 -571.948980
v 5122.478658 7568.636844 -547.520833
v 5189.145325 7568.636844 -545.697917
v 5255.811991 7568.636844 -547.260417
v 5322.478658 7568.636844 -554.552083
v 5055.811991 7635.303511 -562.104167
v 5012.609192 7592.100712 -572.904866
v 5014.707571 7635.303511 -573.504221
v 5122.478658 7635.303511 -548.822917
v 5189.145325 7635.303511 -545.958333
v 5255.811991 7635.303511 -548.041667
v 5322.478658 7635.303511 -554.552083
v 5055.811991 7701.970177 -564.187500
v 5016.012523 7662.170709 -573.981900
v 5017.945601 7701.970177 -574.985338
v 5016.820742 7678.810848 -574.401437
v 5122.478658 7701.970177 -551.166667
v 5189.145325 7701.970177 -547.260417
v 5255.811991 7701.970177 -548.822917
v 5322.478658 7701.970177 -554.552083
v 5055.811991 7768.636844 -568.354167
v 5019.415853 7732.240706 -576.457994
v 5021.183630 7768.636844 -577.417058
v 5122.478658 7768.636844 -554.031250
v 5189.145325 7768.636844 -548.822917
v 5255.811991 7768.636844 -549.604167
v 5322.478658 7768.636844 -554.552083
v 5055.811991 7835.303511 -568.354167
v 5022.819184 7802.310703 -576.989003
v 5024.421659 7835.303511 -576.324368
v 5122.478658 7835.303511 -554.812500
v 5189.145325 7835.303511 -549.604167
v 5255.811991 7835.303511 -550.645833
v 5322.478658 7835.303511 -555.072917
v 5055.811991 7901.970177 -569.656250
v 5026.222514 7872.380700 -576.591284
v 5027.659688 7901.970177 -576.804296
v 5026.417667 7876.398623 -576.620208
v 5122.478658 7901.970177 -556.375000
v 5189.145325 7901.970177 -551.166667
v 5255.811991 7901.970177 -551.947917
v 5322.478658 7901.970177 -555.854167
v 5055.811991 7968.636844 -572.260417
v 5029.625845 7942.450698 -577.886347
v 5029.616642 7942.261215 -577.881282
v 5030.897717 7968.636844 -578.683628
v 5122.478658 7968.636844 -558.458333
v 5189.145325 7968.636844 -552.729167
v 5255.811991 7968.636844 -552.729167
v 5322.478658 7968.636844 -555.854167
v 5055.811991 8035.303511 -574.604167
v 5033.094501 8012.586020 -579.662358
v 5033.068390 8012.235135 -579.656754
v 5032.815617 8008.123806 -579.577383
v 5034.785005 8035.303511 -579.778777
v 5122.478658 8035.303511 -560.541667
v 5189.145325 8035.303511 -553.770833
v 5255.811991 8035.303511 -552.468750
v 5322.478658 8035.303511 -554.552083
v 5055.811991 8101.970177 -576.687500
v 5038.454295 8084.612481 -580.416693
v 5037.992865 8078.411660 -580.336472
v 5039.745954 8101.970177 -580.578493
v 5122.478658 8101.970177 -563.145833
v 5189.145325 8101.970177 -555.333333
v 5255.811991 8101.970177 -552.989583
v 5322.478658 8101.970177 -555.072917
v 5055.811991 8168.636844 -577.989583
v 5043.814089 8156.638941 -580.660991
v 5042.917341 8144.588186 -580.642806
v 5044.706904 8168.636844 -581.026131
v 5122.478658 8168.636844 -564.708333
v 5189.145325 8168.636844 -556.895833
v 5255.811991 8168.636844 -554.291667
v 5322.478658 8168.636844 -556.114583
v 5055.811991 8235.303511 -579.552083
v 5049.173883 8228.665402 -581.211610
v 5047.841817 8210.764711 -581.156300
v 5049.667853 8235.303511 -581.160120
v 5122.478658 8235.303511 -567.312500
v 5189.145325 8235.303511 -559.239583
v 5255.811991 8235.303511 -555.854167
v 5322.478658 8235.303511 -557.156250
v 5055.811991 8301.970177 -581.635417
v 5054.533677 8300.691863 -581.930028
v 5052.766292 8276.941236 -581.650379
v 5054.628802 8301.970177 -581.921970
v 5122.478658 8301.970177 -569.656250
v 5189.145325 8301.970177 -561.062500
v 5255.811991 8301.970177 -556.895833
v 5322.478658 8301.970177 -558.197917
v 5055.811991 8317.870220 -582.256512
v 5122.478658 8368.636844 -570.697917
v 5059.589751 8368.636844 -583.472226
v 5057.690768 8343.117762 -582.861118
v 5189.145325 8368.636844 -562.104167
v 5255.811991 8368.636844 -557.937500
v 5322.478658 8368.636844 -559.500000
v 5122.478658 8435.303511 -573.302083
v 5059.893471 8372.718324 -583.569966
v 5064.550700 8435.303511 -584.842419
v 5062.615243 8409.294287 -584.313611
v 5189.145325 8435.303511 -562.885417
v 5255.811991 8435.303511 -558.718750
v 5322.478658 8435.303511 -559.239583
v 5122.478658 8501.970177 -575.906250
v 5065.253265 8444.744785 -585.071254
v 5069.511649 8501.970177 -587.492783
v 5189.145325 8501.970177 -565.489583
v 5255.811991 8501.970177 -560.281250
v 5322.478658 8501.970177 -560.020833
v 5122.478658 8568.636844 -575.385417
v 5070.613059 8516.771245 -587.136216
v 5074.472598 8568.636844 -587.949503
v 5189.145325 8568.636844 -566.791667
v 5255.811991 8568.636844 -562.104167
v 5322.478658 8568.636844 -561.583333
v 5122.478658 8635.303511 -579.291667
v 5075.972853 8588.797706 -588.738158
v 5079.433547 8635.303511 -590.052944
v 5077.388670 8607.823863 -589.276055
v 5189.145325 8635.303511 -568.354167
v 5255.811991 8635.303511 -563.406250
v 5322.478658 8635.303511 -562.625000
v 5122.478658 8701.970177 -585.020833
v 5081.332648 8660.824167 -591.771351
v 5084.394497 8701.970177 -594.095575
v 5082.313146 8674.000388 -592.515639
v 5189.145325 8701.970177 -571.739583
v 5255.811991 8701.970177 -564.708333
v 5322.478658 8701.970177 -563.406250
v 5122.478658 8768.636844 -589.447917
v 5086.692442 8732.850628 -595.598673
v 5089.355446 8768.636844 -596.952394
v 5189.145325 8768.636844 -575.906250
v 5255.811991 8768.636844 -567.052083
v 5322.478658 8768.636844 -564.968750
v 5122.478658 8835.303511 -592.312500
v 5092.052236 8804.877088 -597.898601
v 5094.316395 8835.303511 -598.583004
v 5189.145325 8835.303511 -577.989583
v 5255.811991 8835.303511 -568.875000
v 5322.478658 8835.303511 -566.531250
v 5122.478658 8901.970177 -593.875000
v 5097.412030 8876.903549 -598.868742
v 5097.086573 8872.529964 -598.838701
v 5099.277344 8901.970177 -599.222178
v 5189.145325 8901.970177 -578.510417
v 5255.811991 8901.970177 -569.656250
v 5322.478658 8901.970177 -567.312500
v 5122.478658 8968.636844 -596.739583
v 5102.771824 8948.930010 -600.434615
v 5102.011049 8938.706489 -600.170658
v 5104.238293 8968.636844 -601.014669
v 5189.145325 8968.636844 -581.114583
v 5255.811991 8968.636844 -570.958333
v 5322.478658 8968.636844 -568.093750
v 5122.478658 9035.303511 -598.302083
v 5108.131618 9020.956471 -601.328412
v 5106.935524 9004.883015 -601.232025
v 5109.199242 9035.303511 -601.673810
v 5189.145325 9035.303511 -582.677083
v 5255.811991 9035.303511 -572.520833
v 5322.478658 9035.303511 -568.614583
v 5122.478658 9101.970177 -598.822917
v 5113.491412 9092.982932 -601.034622
v 5111.860000 9071.059540 -601.277571
v 5114.160191 9101.970177 -601.032509
v 5189.145325 9101.970177 -584.500000
v 5255.811991 9101.970177 -574.343750
v 5322.478658 9101.970177 -568.875000
v 5122.478658 9168.636844 -601.427083
v 5119.721347 9165.879533 -602.051787
v 5117.220406 9142.092883 -601.786933
v 5116.784475 9137.236065 -601.713008
v 5120.011252 9168.636844 -602.101765
v 5189.145325 9168.636844 -587.885417
v 5255.811991 9168.636844 -577.208333
v 5322.478658 9168.636844 -570.177083
v 5122.478658 9192.104541 -602.710473
v 5189.145325 9235.303511 -589.968750
v 5127.020621 9235.303511 -604.043878
v 5124.142843 9207.932740 -603.199036
v 5255.811991 9235.303511 -579.031250
v 5322.478658 9235.303511 -571.739583
v 5189.145325 9301.970177 -594.395833
v 5127.554274 9240.379126 -604.260025
v 5134.029990 9301.970177 -607.098196
v 5255.811991 9301.970177 -581.635417
v 5322.478658 9301.970177 -573.302083
v 5189.145325 9368.636844 -596.479167
v 5135.387201 9314.878720 -607.188793
v 5141.039358 9368.636844 -607.566089
v 5137.987719 9339.612455 -607.362384
v 5255.811991 9368.636844 -582.156250
v 5322.478658 9368.636844 -574.083333
v 5189.145325 9435.303511 -598.302083
v 5143.220128 9389.378314 -607.630639
v 5148.048727 9435.303511 -607.452498
v 5144.910156 9405.452312 -607.568289
v 5255.811991 9435.303511 -583.197917
v 5322.478658 9435.303511 -574.604167
vt 26.612393 12.843184
vt 26.585262 12.816053
vt 26.586365 12.813332
vt 26.612393 12.749100
vt 26.574268 12.843184
vt 26.612393 13.176518
vt 26.505344 13.069468
vt 26.534600 12.941078
vt 26.480950 13.176518
vt 26.612393 13.509851
vt 26.443483 13.340941
vt 26.471682 13.217193
vt 26.404994 13.509851
vt 26.612393 13.843184
vt 26.381623 13.612414
vt 26.404418 13.512377
vt 26.330208 13.843184
vt 26.337155 13.807561
vt 26.279060 14.155049
vt 26.279060 14.176518
vt 26.276058 14.173515
vt 26.275570 14.176518
vt 26.612393 14.176518
vt 26.322672 13.886796
vt 26.327528 13.856924
vt 26.279060 14.509851
vt 26.229444 14.460235
vt 26.274721 14.181738
vt 26.221377 14.509851
vt 26.612393 14.509851
vt 26.279060 14.843184
vt 26.182830 14.746954
vt 26.167185 14.843184
vt 26.612393 14.843184
vt 26.279060 15.176518
vt 26.136215 15.033673
vt 26.112992 15.176518
vt 26.116298 15.156183
vt 26.612393 15.176518
vt 26.279060 15.509851
vt 26.089601 15.320392
vt 26.058800 15.509851
vt 26.612393 15.509851
vt 26.279060 15.843184
vt 26.042987 15.607111
vt 26.004607 15.843184
vt 26.010683 15.805812
vt 26.612393 15.843184
vt 26.279060 16.176518
vt 25.996373 15.893831
vt 25.950415 16.176518
vt 26.612393 16.176518
vt 25.945727 16.509851
vt 25.903145 16.467269
vt 25.905068 16.455442
vt 25.945727 16.205353
vt 25.896222 16.509851
vt 26.279060 16.509851
vt 25.949759 16.180550
vt 26.612393 16.509851
vt 25.945727 16.843184
vt 25.856531 16.753988
vt 25.842030 16.843184
vt 25.852260 16.780257
vt 26.279060 16.843184
vt 26.612393 16.843184
vt 25.945727 17.176518
vt 25.809917 17.040708
vt 25.787837 17.176518
vt 26.279060 17.176518
vt 26.612393 17.176518
vt 25.945727 17.509851
vt 25.763303 17.327427
vt 25.733645 17.509851
vt 25.746645 17.429886
vt 26.279060 17.509851
vt 26.612393 17.509851
vt 25.945727 17.843184
vt 25.716689 17.614146
vt 25.679452 17.843184
vt 25.693837 17.754701
vt 26.279060 17.843184
vt 26.612393 17.843184
vt 25.945727 18.176518
vt 25.670074 17.900865
vt 25.625260 18.176518
vt 26.279060 18.176518
vt 26.612393 18.176518
vt 25.612393 18.255657
vt 25.612393 18.509851
vt 25.576846 18.474304
vt 25.571067 18.509851
vt 25.945727 18.509851
vt 25.623460 18.187585
vt 26.279060 18.509851
vt 26.612393 18.509851
vt 25.612393 18.843184
vt 25.530232 18.761023
vt 25.535415 18.729145
vt 25.516875 18.843184
vt 25.945727 18.843184
vt 26.279060 18.843184
vt 26.612393 18.843184
vt 25.612393 19.176518
vt 25.483618 19.047742
vt 25.462682 19.176518
vt 25.945727 19.176518
vt 26.279060 19.176518
vt 26.612393 19.176518
vt 25.612393 19.509851
vt 25.437004 19.334462
vt 25.408490 19.509851
vt 25.429800 19.378775
vt 25.945727 19.509851
vt 26.279060 19.509851
vt 26.612393 19.509851
vt 25.612393 19.843184
vt 25.390390 19.621181
vt 25.354297 19.843184
vt 25.945727 19.843184
vt 26.279060 19.843184
vt 26.612393 19.843184
vt 25.612393 20.176518
vt 25.343776 19.907900
vt 25.300105 20.176518
vt 25.324184 20.028404
vt 25.945727 20.176518
vt 26.279060 20.176518
vt 26.612393 20.176518
vt 25.279060 20.509851
vt 25.250548 20.481338
vt 25.271377 20.353219
vt 25.279060 20.305961
vt 25.245912 20.509851
vt 25.612393 20.509851
vt 25.297162 20.194619
vt 25.945727 20.509851
vt 26.279060 20.509851
vt 26.612393 20.509851
vt 25.279060 20.843184
vt 25.203933 20.768058
vt 25.218569 20.678034
vt 25.191720 20.843184
vt 25.612393 20.843184
vt 25.945727 20.843184
vt 26.279060 20.843184
vt 26.612393 20.843184
vt 25.279060 21.176518
vt 25.158835 21.056293
vt 25.160016 21.045360
vt 25.165762 21.002849
vt 25.145856 21.176518
vt 25.612393 21.176518
vt 25.945727 21.176518
vt 26.279060 21.176518
vt 26.612393 21.176518
vt 25.279060 21.509851
vt 25.126357 21.357148
vt 25.109872 21.509851
vt 25.125477 21.365296
vt 25.612393 21.509851
vt 25.945727 21.509851
vt 26.279060 21.509851
vt 26.612393 21.509851
vt 25.279060 21.843184
vt 25.093878 21.658002
vt 25.073887 21.843184
vt 25.612393 21.843184
vt 25.945727 21.843184
vt 26.279060 21.843184
vt 26.612393 21.843184
vt 25.279060 22.176518
vt 25.061399 21.958857
vt 25.037902 22.176518
vt 25.612393 22.176518
vt 25.945727 22.176518
vt 26.279060 22.176518
vt 26.612393 22.176518
vt 25.279060 22.509851
vt 25.028920 22.259711
vt 25.001917 22.509851
vt 25.021861 22.325104
vt 25.612393 22.509851
vt 25.945727 22.509851
vt 26.279060 22.509851
vt 26.612393 22.498918
vt 26.611328 22.508786
vt 26.611213 22.509851
vt 25.279060 22.843184
vt 24.996442 22.560566
vt 24.965932 22.843184
vt 25.612393 22.843184
vt 25.945727 22.843184
vt 26.279060 22.722639
vt 26.192446 22.756570
vt 26.165385 22.767171
vt 26.086213 22.843184
vt 26.434278 22.665069
vt 26.597567 22.636252
vt 26.595131 22.636206
vt 26.419033 22.667804
vt 24.945727 23.030346
vt 24.945727 23.176518
vt 24.931484 23.162275
vt 24.929947 23.176518
vt 25.279060 23.176518
vt 24.963963 22.861421
vt 24.952784 22.964976
vt 25.612393 23.176518
vt 25.945727 23.008512
vt 25.894432 23.125223
vt 25.871888 23.176518
vt 26.014540 22.911997
vt 25.968876 22.955839
vt 24.945727 23.509851
vt 24.899006 23.463130
vt 24.918245 23.284912
vt 24.893962 23.509851
vt 25.279060 23.509851
vt 25.612393 23.509851
vt 25.859268 23.205232
vt 25.854483 23.418607
vt 25.853161 23.477581
vt 25.865649 23.509851
vt 24.945727 23.843184
vt 24.866527 23.763984
vt 24.883706 23.604848
vt 24.857977 23.843184
vt 25.279060 23.843184
vt 25.612393 23.843184
vt 25.945727 23.843184
vt 25.945727 23.716773
vt 25.951479 23.731638
vt 26.057693 23.843184
vt 24.945727 24.176518
vt 24.834048 24.064839
vt 24.849168 23.924784
vt 24.821992 24.176518
vt 25.279060 24.176518
vt 25.612393 24.176518
vt 25.945727 24.176518
vt 26.279060 24.176518
vt 26.139333 23.928924
vt 26.279060 23.991024
vt 26.431288 24.176518
vt 26.388272 24.039562
vt 26.445908 24.041093
vt 24.945727 24.509851
vt 24.801569 24.365694
vt 24.814629 24.244720
vt 24.786007 24.509851
vt 25.279060 24.509851
vt 25.612393 24.509851
vt 25.945727 24.509851
vt 26.279060 24.509851
vt 26.416456 24.313913
vt 26.405386 24.416450
vt 26.395303 24.509851
vt 24.945727 24.843184
vt 24.769091 24.666548
vt 24.780090 24.564655
vt 24.750022 24.843184
vt 25.279060 24.843184
vt 25.612393 24.843184
vt 25.945727 24.843184
vt 26.279060 24.843184
vt 26.383977 24.614768
vt 26.370848 24.736385
vt 26.359318 24.843184
vt 24.945727 25.176518
vt 24.736612 24.967403
vt 24.745552 24.884591
vt 24.714037 25.176518
vt 25.279060 25.176518
vt 25.612393 25.176518
vt 25.945727 25.176518
vt 26.279060 25.176518
vt 26.351498 24.915623
vt 26.336309 25.056321
vt 26.323333 25.176518
vt 24.945727 25.509851
vt 24.704133 25.268257
vt 24.711013 25.204527
vt 24.678052 25.509851
vt 25.279060 25.509851
vt 25.612393 25.509851
vt 25.945727 25.509851
vt 26.279060 25.509851
vt 26.319020 25.216477
vt 26.301771 25.376257
vt 26.287348 25.509851
vt 24.945727 25.843184
vt 24.674443 25.571901
vt 24.676475 25.524463
vt 24.676773 25.843184
vt 24.672046 25.627890
vt 25.279060 25.843184
vt 25.612393 25.843184
vt 25.945727 25.843184
vt 26.279060 25.586628
vt 26.272799 25.644623
vt 26.277116 25.841241
vt 26.277159 25.843184
vt 26.286541 25.517332
vt 24.945727 26.176518
vt 24.678219 25.909010
vt 24.684093 26.176518
vt 24.679187 25.953108
vt 25.279060 26.176518
vt 25.612393 26.176518
vt 25.945727 26.176518
vt 26.279060 26.176518
vt 26.278801 25.917984
vt 26.279060 25.929755
vt 26.284478 26.176518
vt 24.945727 26.509851
vt 24.685702 26.249827
vt 24.691412 26.509851
vt 25.279060 26.509851
vt 25.612393 26.509851
vt 25.945727 26.509851
vt 26.279060 26.509851
vt 26.284600 26.182058
vt 26.285943 26.243201
vt 26.291798 26.509851
vt 24.945727 26.843184
vt 24.693186 26.590644
vt 24.698731 26.843184
vt 24.693469 26.603543
vt 25.279060 26.843184
vt 25.612393 26.843184
vt 25.945727 26.843184
vt 26.279060 26.843184
vt 26.292084 26.522874
vt 26.293084 26.568419
vt 26.299117 26.843184
vt 24.945727 27.176518
vt 24.700670 26.931460
vt 24.700610 26.928760
vt 24.706050 27.176518
vt 25.279060 27.176518
vt 25.612393 27.176518
vt 25.945727 27.176518
vt 26.279060 27.176518
vt 26.299567 26.863691
vt 26.300225 26.893636
vt 26.306436 27.176518
vt 24.945727 27.509851
vt 24.708153 27.272277
vt 24.707751 27.253978
vt 24.713370 27.509851
vt 25.279060 27.509851
vt 25.612393 27.509851
vt 25.945727 27.509851
vt 26.279060 27.509851
vt 26.307051 27.204508
vt 26.307366 27.218854
vt 26.313755 27.509851
vt 24.945727 27.843184
vt 24.715637 27.613094
vt 24.714892 27.579196
vt 24.720689 27.843184
vt 25.279060 27.843184
vt 25.612393 27.843184
vt 25.945727 27.843184
vt 26.279060 27.843184
vt 26.314507 27.544072
vt 26.314534 27.545325
vt 26.321075 27.843184
vt 24.945727 28.176518
vt 24.723120 27.953911
vt 24.722033 27.904413
vt 24.728008 28.176518
vt 25.279060 28.176518
vt 25.612393 28.176518
vt 25.945727 28.176518
vt 26.279060 28.176518
vt 26.321648 27.869289
vt 26.322018 27.886142
vt 26.328394 28.176518
vt 24.945727 28.509851
vt 24.730604 28.294728
vt 24.729174 28.229631
vt 24.735327 28.509851
vt 25.279060 28.509851
vt 25.612393 28.509851
vt 25.945727 28.509851
vt 26.279060 28.509851
vt 26.329501 28.226959
vt 26.335713 28.509851
vt 24.945727 28.843184
vt 24.738087 28.635545
vt 24.736316 28.554848
vt 24.742647 28.843184
vt 25.279060 28.843184
vt 25.612393 28.843184
vt 25.945727 28.843184
vt 26.279060 28.843184
vt 26.335930 28.519724
vt 26.336985 28.567776
vt 26.343032 28.843184
vt 24.945727 29.176518
vt 24.745571 28.976362
vt 24.743457 28.880066
vt 24.749966 29.176518
vt 25.279060 29.176518
vt 25.612393 29.176518
vt 25.945727 29.176518
vt 26.279060 29.176518
vt 26.343071 28.844942
vt 26.344469 28.908593
vt 26.350212 29.170159
vt 26.350352 29.176518
vt 24.945727 29.509851
vt 24.753055 29.317179
vt 24.750598 29.205283
vt 24.757285 29.509851
vt 25.279060 29.509851
vt 25.612393 29.509851
vt 25.945727 29.509851
vt 26.279060 29.509851
vt 26.351952 29.249410
vt 26.357353 29.495377
vt 26.357671 29.509851
vt 24.945727 29.843184
vt 24.760538 29.657996
vt 24.757739 29.530501
vt 24.764605 29.843184
vt 25.279060 29.843184
vt 25.612393 29.843184
vt 25.945727 29.843184
vt 26.279060 29.843184
vt 26.359436 29.590227
vt 26.364494 29.820594
vt 26.364990 29.843184
vt 24.945727 30.176518
vt 24.768022 29.998813
vt 24.764880 29.855718
vt 24.771924 30.176518
vt 25.279060 30.176518
vt 25.612393 30.176518
vt 25.945727 30.176518
vt 26.279060 30.176518
vt 26.366919 29.931044
vt 26.371635 30.145812
vt 26.372309 30.176518
vt 24.945727 30.509851
vt 24.775505 30.339630
vt 24.772021 30.180936
vt 24.779243 30.509851
vt 24.779162 30.506153
vt 25.279060 30.509851
vt 25.612393 30.509851
vt 25.945727 30.509851
vt 26.279060 30.509851
vt 26.374403 30.271861
vt 26.378776 30.471029
vt 26.379629 30.509851
vt 24.945727 30.843184
vt 24.782989 30.680447
vt 24.786562 30.843184
vt 25.279060 30.843184
vt 25.612393 30.843184
vt 25.945727 30.843184
vt 26.279060 30.843184
vt 26.381887 30.612678
vt 26.385917 30.796247
vt 26.386948 30.843184
vt 24.945727 31.176518
vt 24.790473 31.021263
vt 24.793882 31.176518
vt 24.793444 31.156588
vt 25.279060 31.176518
vt 25.612393 31.176518
vt 25.945727 31.176518
vt 26.279060 31.176518
vt 26.389370 30.953494
vt 26.393058 31.121464
vt 26.394267 31.176518
vt 24.945727 31.509851
vt 24.797956 31.362080
vt 24.801201 31.509851
vt 25.279060 31.509851
vt 25.612393 31.509851
vt 25.945727 31.509851
vt 26.279060 31.509851
vt 26.396854 31.294311
vt 26.400199 31.446682
vt 26.401587 31.509851
vt 24.945727 31.843184
vt 24.805440 31.702897
vt 24.808520 31.843184
vt 24.807726 31.807024
vt 25.279060 31.843184
vt 25.612393 31.843184
vt 25.945727 31.843184
vt 26.279060 31.843184
vt 26.404337 31.635128
vt 26.407341 31.771900
vt 26.408906 31.843184
vt 24.945727 32.176518
vt 24.812923 32.043714
vt 24.815839 32.176518
vt 24.814867 32.132241
vt 25.279060 32.176518
vt 25.612393 32.176518
vt 25.945727 32.176518
vt 26.279060 32.176518
vt 26.411821 31.975945
vt 26.414482 32.097117
vt 26.416225 32.176518
vt 24.945727 32.509851
vt 24.820407 32.384531
vt 24.823159 32.509851
vt 25.279060 32.509851
vt 25.612393 32.509851
vt 25.945727 32.509851
vt 26.279060 32.509851
vt 26.419305 32.316762
vt 26.421623 32.422335
vt 26.423544 32.509851
vt 24.945727 32.843184
vt 24.827890 32.725348
vt 24.830478 32.843184
vt 24.829149 32.782676
vt 25.279060 32.843184
vt 25.612393 32.843184
vt 25.945727 32.843184
vt 26.279060 32.843184
vt 26.426788 32.657579
vt 26.428764 32.747552
vt 26.430864 32.843184
vt 24.945727 33.176518
vt 24.835374 33.066165
vt 24.837797 33.176518
vt 24.836290 33.107894
vt 25.279060 33.176518
vt 25.612393 33.176518
vt 25.945727 33.176518
vt 26.279060 33.176518
vt 26.434272 32.998396
vt 26.435905 33.072770
vt 26.438183 33.176518
vt 24.945727 33.509851
vt 24.842858 33.406982
vt 24.846876 33.509851
vt 24.844181 33.454360
vt 24.843431 33.433111
vt 25.279060 33.509851
vt 25.612393 33.509851
vt 25.945727 33.509851
vt 26.279060 33.509851
vt 26.441755 33.339213
vt 26.442812 33.387358
vt 26.448762 33.509851
vt 24.945727 33.843184
vt 24.858846 33.756304
vt 24.863066 33.843184
vt 25.279060 33.843184
vt 25.612393 33.843184
vt 25.945727 33.843184
vt 26.279060 33.843184
vt 26.457425 33.688216
vt 26.464952 33.843184
vt 24.945727 34.176518
vt 24.875863 34.106654
vt 24.879256 34.176518
vt 24.876170 34.112986
vt 25.279060 34.176518
vt 25.612393 34.176518
vt 25.945727 34.176518
vt 26.279060 34.176518
vt 26.474442 34.038566
vt 26.481142 34.176518
vt 24.945727 34.509851
vt 24.892879 34.457004
vt 24.892165 34.442299
vt 24.895446 34.509851
vt 25.279060 34.509851
vt 25.612393 34.509851
vt 25.945727 34.509851
vt 26.279060 34.509851
vt 26.490281 34.364678
vt 26.491459 34.388916
vt 26.497332 34.509851
vt 24.945727 34.843184
vt 24.909896 34.807354
vt 24.908160 34.771612
vt 24.911636 34.843184
vt 25.279060 34.843184
vt 25.612393 34.843184
vt 25.945727 34.843184
vt 26.279060 34.843184
vt 26.508475 34.739266
vt 26.513523 34.843184
vt 24.945727 35.176518
vt 24.926913 35.157704
vt 24.924155 35.100925
vt 24.927827 35.176518
vt 25.279060 35.176518
vt 25.612393 35.176518
vt 25.945727 35.176518
vt 26.279060 35.176518
vt 26.525492 35.089616
vt 26.529713 35.176518
vt 24.945727 35.509851
vt 24.943929 35.508054
vt 24.940150 35.430238
vt 24.944017 35.509851
vt 25.279060 35.509851
vt 25.612393 35.509851
vt 25.945727 35.509851
vt 26.279060 35.509851
vt 26.538266 35.352616
vt 26.542509 35.439966
vt 26.545903 35.509851
vt 24.945727 35.545056
vt 25.279060 35.843184
vt 24.960207 35.843184
vt 25.612393 35.843184
vt 25.945727 35.843184
vt 26.279060 35.843184
vt 26.559525 35.790316
vt 26.562093 35.843184
vt 25.279060 36.176518
vt 24.960946 35.858404
vt 24.976397 36.176518
vt 25.612393 36.176518
vt 25.945727 36.176518
vt 26.279060 36.176518
vt 26.576542 36.140666
vt 26.578283 36.176518
vt 25.279060 36.509851
vt 24.977963 36.208754
vt 24.992587 36.509851
vt 25.612393 36.509851
vt 25.945727 36.509851
vt 26.279060 36.509851
vt 26.593558 36.491016
vt 26.594473 36.509851
vt 25.279060 36.843184
vt 24.994979 36.559104
vt 25.008777 36.843184
vt 25.004129 36.747489
vt 25.612393 36.843184
vt 25.945727 36.843184
vt 26.279060 36.843184
vt 26.610575 36.841366
vt 26.610663 36.843184
vt 25.279060 37.176518
vt 25.011996 36.909454
vt 25.024967 37.176518
vt 25.612393 37.176518
vt 25.945727 37.176518
vt 26.279060 37.176518
vt 26.612393 37.176518
vt 26.612393 36.878800
vt 25.279060 37.509851
vt 25.029013 37.259804
vt 25.041158 37.509851
vt 25.612393 37.509851
vt 25.945727 37.509851
vt 26.279060 37.509851
vt 26.612393 37.509851
vt 25.279060 37.843184
vt 25.046029 37.610154
vt 25.057348 37.843184
vt 25.052114 37.735428
vt 25.612393 37.843184
vt 25.945727 37.843184
vt 26.279060 37.843184
vt 26.612393 37.843184
vt 25.279060 38.176518
vt 25.063046 37.960504
vt 25.073538 38.176518
vt 25.612393 38.176518
vt 25.945727 38.176518
vt 26.279060 38.176518
vt 26.612393 38.176518
vt 25.279060 38.509851
vt 25.080063 38.310854
vt 25.089728 38.509851
vt 25.084104 38.394054
vt 25.612393 38.509851
vt 25.945727 38.509851
vt 26.279060 38.509851
vt 26.612393 38.509851
vt 25.279060 38.843184
vt 25.097079 38.661204
vt 25.105918 38.843184
vt 25.612393 38.843184
vt 25.945727 38.843184
vt 26.279060 38.843184
vt 26.612393 38.843184
vt 25.279060 39.176518
vt 25.114096 39.011554
vt 25.122108 39.176518
vt 25.612393 39.176518
vt 25.945727 39.176518
vt 26.279060 39.176518
vt 26.612393 39.176518
vt 25.279060 39.509851
vt 25.131113 39.361904
vt 25.138298 39.509851
vt 25.132088 39.381993
vt 25.612393 39.509851
vt 25.945727 39.509851
vt 26.279060 39.509851
vt 26.612393 39.509851
vt 25.279060 39.843184
vt 25.148129 39.712253
vt 25.148083 39.711306
vt 25.154489 39.843184
vt 25.612393 39.843184
vt 25.945727 39.843184
vt 26.279060 39.843184
vt 26.612393 39.843184
vt 25.279060 40.176518
vt 25.165473 40.062930
vt 25.165342 40.061176
vt 25.164078 40.040619
vt 25.173925 40.176518
vt 25.612393 40.176518
vt 25.945727 40.176518
vt 26.279060 40.176518
vt 26.612393 40.176518
vt 25.279060 40.509851
vt 25.192271 40.423062
vt 25.189964 40.392058
vt 25.198730 40.509851
vt 25.612393 40.509851
vt 25.945727 40.509851
vt 26.279060 40.509851
vt 26.612393 40.509851
vt 25.279060 40.843184
vt 25.219070 40.783195
vt 25.214587 40.722941
vt 25.223535 40.843184
vt 25.612393 40.843184
vt 25.945727 40.843184
vt 26.279060 40.843184
vt 26.612393 40.843184
vt 25.279060 41.176518
vt 25.245869 41.143327
vt 25.239209 41.053824
vt 25.248339 41.176518
vt 25.612393 41.176518
vt 25.945727 41.176518
vt 26.279060 41.176518
vt 26.612393 41.176518
vt 25.279060 41.509851
vt 25.272668 41.503459
vt 25.263831 41.384706
vt 25.273144 41.509851
vt 25.612393 41.509851
vt 25.945727 41.509851
vt 26.279060 41.509851
vt 26.612393 41.509851
vt 25.279060 41.589351
vt 25.612393 41.843184
vt 25.297949 41.843184
vt 25.288454 41.715589
vt 25.945727 41.843184
vt 26.279060 41.843184
vt 26.612393 41.843184
vt 25.612393 42.176518
vt 25.299467 41.863592
vt 25.322754 42.176518
vt 25.313076 42.046471
vt 25.945727 42.176518
vt 26.279060 42.176518
vt 26.612393 42.176518
vt 25.612393 42.509851
vt 25.326266 42.223724
vt 25.347558 42.509851
vt 25.945727 42.509851
vt 26.279060 42.509851
vt 26.612393 42.509851
vt 25.612393 42.843184
vt 25.353065 42.583856
vt 25.372363 42.843184
vt 25.945727 42.843184
vt 26.279060 42.843184
vt 26.612393 42.843184
vt 25.612393 43.176518
vt 25.379864 42.943989
vt 25.397168 43.176518
vt 25.386943 43.039119
vt 25.945727 43.176518
vt 26.279060 43.176518
vt 26.612393 43.176518
vt 25.612393 43.509851
vt 25.406663 43.304121
vt 25.421972 43.509851
vt 25.411566 43.370002
vt 25.945727 43.509851
vt 26.279060 43.509851
vt 26.612393 43.509851
vt 25.612393 43.843184
vt 25.433462 43.664253
vt 25.446777 43.843184
vt 25.945727 43.843184
vt 26.279060 43.843184
vt 26.612393 43.843184
vt 25.612393 44.176518
vt 25.460261 44.024385
vt 25.471582 44.176518
vt 25.945727 44.176518
vt 26.279060 44.176518
vt 26.612393 44.176518
vt 25.612393 44.509851
vt 25.487060 44.384518
vt 25.485433 44.362650
vt 25.496387 44.509851
vt 25.945727 44.509851
vt 26.279060 44.509851
vt 26.612393 44.509851
vt 25.612393 44.843184
vt 25.513859 44.744650
vt 25.510055 44.693532
vt 25.521191 44.843184
vt 25.945727 44.843184
vt 26.279060 44.843184
vt 26.612393 44.843184
vt 25.612393 45.176518
vt 25.540658 45.104782
vt 25.534678 45.024415
vt 25.545996 45.176518
vt 25.945727 45.176518
vt 26.279060 45.176518
vt 26.612393 45.176518
vt 25.612393 45.509851
vt 25.567457 45.464915
vt 25.559300 45.355298
vt 25.570801 45.509851
vt 25.945727 45.509851
vt 26.279060 45.509851
vt 26.612393 45.509851
vt 25.612393 45.843184
vt 25.598607 45.829398
vt 25.586102 45.710464
vt 25.583922 45.686180
vt 25.600056 45.843184
vt 25.945727 45.843184
vt 26.279060 45.843184
vt 26.612393 45.843184
vt 25.612393 45.960523
vt 25.945727 46.176518
vt 25.635103 46.176518
vt 25.620714 46.039664
vt 26.279060 46.176518
vt 26.612393 46.176518
vt 25.945727 46.509851
vt 25.637771 46.201896
vt 25.670150 46.509851
vt 26.279060 46.509851
vt 26.612393 46.509851
vt 25.945727 46.843184
vt 25.676936 46.574394
vt 25.705197 46.843184
vt 25.689939 46.698062
vt 26.279060 46.843184
vt 26.612393 46.843184
vt 25.945727 47.176518
vt 25.716101 46.946892
vt 25.740244 47.176518
vt 25.724551 47.027262
vt 26.279060 47.176518
vt 26.612393 47.176518
f 1/1 2/2 3/3
f 1/1 3/3 4/4
f 2/2 1/1 5/5
f 1/1 6/6 7/7
f 1/1 7/7 8/8
f 1/1 8/8 5/5
f 7/7 6/6 9/9
f 6/6 10/10 11/11
f 6/6 11/11 12/12
f 6/6 12/12 9/9
f 11/11 10/10 13/13
f 10/10 14/14 15/15
f 10/10 15/15 16/16
f 10/10 16/16 13/13
f 15/15 14/14 17/17
f 15/15 17/17 18/18
f 19/19 20/20 21/21
f 21/21 20/20 22/22
f 14/14 23/23 24/24
f 14/14 24/24 25/25
f 14/14 25/25 17/17
f 23/23 20/20 19/19
f 23/23 19/19 24/24
f 20/20 26/26 27/27
f 20/20 27/27 28/28
f 20/20 28/28 22/22
f 27/27 26/26 29/29
f 23/23 30/30 20/20
f 30/30 26/26 20/20
f 26/26 31/31 32/32
f 26/26 32/32 29/29
f 32/32 31/31 33/33
f 30/30 34/34 26/26
f 34/34 31/31 26/26
f 31/31 35/35 36/36
f 31/31 36/36 33/33
f 35/35 37/37 38/38
f 35/35 38/38 36/36
f 34/34 39/39 31/31
f 39/39 35/35 31/31
f 35/35 40/40 41/41
f 35/35 41/41 37/37
f 41/41 40/40 42/42
f 39/39 43/43 35/35
f 43/43 40/40 35/35
f 40/40 44/44 45/45
f 40/40 45/45 42/42
f 44/44 46/46 47/47
f 44/44 47/47 45/45
f 43/43 48/48 40/40
f 48/48 44/44 40/40
f 44/44 49/49 50/50
f 44/44 50/50 46/46
f 50/50 49/49 51/51
f 48/48 52/52 44/44
f 52/52 49/49 44/44
f 53/53 54/54 55/55
f 53/53 55/55 56/56
f 54/54 53/53 57/57
f 49/49 58/58 59/59
f 49/49 59/59 51/51
f 58/58 53/53 56/56
f 58/58 56/56 59/59
f 52/52 60/60 49/49
f 60/60 58/58 49/49
f 53/53 61/61 62/62
f 53/53 62/62 57/57
f 61/61 63/63 64/64
f 61/61 64/64 62/62
f 58/58 65/65 53/53
f 65/65 61/61 53/53
f 60/60 66/66 58/58
f 66/66 65/65 58/58
f 61/61 67/67 68/68
f 61/61 68/68 63/63
f 68/68 67/67 69/69
f 65/65 70/70 61/61
f 70/70 67/67 61/61
f 66/66 71/71 65/65
f 71/71 70/70 65/65
f 67/67 72/72 73/73
f 67/67 73/73 69/69
f 72/72 74/74 75/75
f 72/72 75/75 73/73
f 70/70 76/76 67/67
f 76/76 72/72 67/67
f 71/71 77/77 70/70
f 77/77 76/76 70/70
f 72/72 78/78 79/79
f 72/72 79/79 74/74
f 78/78 80/80 81/81
f 78/78 81/81 79/79
f 76/76 82/82 72/72
f 82/82 78/78 72/72
f 77/77 83/83 76/76
f 83/83 82/82 76/76
f 78/78 84/84 85/85
f 78/78 85/85 80/80
f 85/85 84/84 86/86
f 82/82 87/87 78/78
f 87/87 84/84 78/78
f 83/83 88/88 82/82
f 88/88 87/87 82/82
f 89/89 90/90 91/91
f 91/91 90/90 92/92
f 84/84 93/93 94/94
f 84/84 94/94 86/86
f 93/93 90/90 89/89
f 93/93 89/89 94/94
f 87/87 95/95 84/84
f 95/95 93/93 84/84
f 88/88 96/96 87/87
f 96/96 95/95 87/87
f 90/90 97/97 98/98
f 90/90 98/98 99/99
f 90/90 99/99 92/92
f 98/98 97/97 100/100
f 93/93 101/101 90/90
f 101/101 97/97 90/90
f 95/95 102/102 93/93
f 102/102 101/101 93/93
f 96/96 103/103 95/95
f 103/103 102/102 95/95
f 97/97 104/104 105/105
f 97/97 105/105 100/100
f 105/105 104/104 106/106
f 101/101 107/107 97/97
f 107/107 104/104 97/97
f 102/102 108/108 101/101
f 108/108 107/107 101/101
f 103/103 109/109 102/102
f 109/109 108/108 102/102
f 104/104 110/110 111/111
f 104/104 111/111 106/106
f 110/110 112/112 113/113
f 110/110 113/113 111/111
f 107/107 114/114 104/104
f 114/114 110/110 104/104
f 108/108 115/115 107/107
f 115/115 114/114 107/107
f 109/109 116/116 108/108
f 116/116 115/115 108/108
f 110/110 117/117 118/118
f 110/110 118/118 112/112
f 118/118 117/117 119/119
f 114/114 120/120 110/110
f 120/120 117/117 110/110
f 115/115 121/121 114/114
f 121/121 120/120 114/114
f 116/116 122/122 115/115
f 122/122 121/121 115/115
f 117/117 123/123 124/124
f 117/117 124/124 119/119
f 123/123 125/125 126/126
f 123/123 126/126 124/124
f 120/120 127/127 117/117
f 127/127 123/123 117/117
f 121/121 128/128 120/120
f 128/128 127/127 120/120
f 122/122 129/129 121/121
f 129/129 128/128 121/121
f 130/130 131/131 132/132
f 130/130 132/132 133/133
f 131/131 130/130 134/134
f 123/123 135/135 136/136
f 123/123 136/136 125/125
f 135/135 130/130 133/133
f 135/135 133/133 136/136
f 127/127 137/137 123/123
f 137/137 135/135 123/123
f 128/128 138/138 127/127
f 138/138 137/137 127/127
f 129/129 139/139 128/128
f 139/139 138/138 128/128
f 130/130 140/140 141/141
f 130/130 141/141 142/142
f 130/130 142/142 134/134
f 141/141 140/140 143/143
f 135/135 144/144 130/130
f 144/144 140/140 130/130
f 137/137 145/145 135/135
f 145/145 144/144 135/135
f 138/138 146/146 137/137
f 146/146 145/145 137/137
f 139/139 147/147 138/138
f 147/147 146/146 138/138
f 140/140 148/148 149/149
f 140/140 149/149 150/150
f 140/140 150/150 151/151
f 140/140 151/151 143/143
f 149/149 148/148 152/152
f 144/144 153/153 140/140
f 153/153 148/148 140/140
f 145/145 154/154 144/144
f 154/154 153/153 144/144
f 146/146 155/155 145/145
f 155/155 154/154 145/145
f 147/147 156/156 146/146
f 156/156 155/155 146/146
f 148/148 157/157 158/158
f 148/148 158/158 152/152
f 157/157 159/159 160/160
f 157/157 160/160 158/158
f 153/153 161/161 148/148
f 161/161 157/157 148/148
f 154/154 162/162 153/153
f 162/162 161/161 153/153
f 155/155 163/163 154/154
f 163/163 162/162 154/154
f 156/156 164/164 155/155
f 164/164 163/163 155/155
f 157/157 165/165 166/166
f 157/157 166/166 159/159
f 166/166 165/165 167/167
f 161/161 168/168 157/157
f 168/168 165/165 157/157
f 162/162 169/169 161/161
f 169/169 168/168 161/161
f 163/163 170/170 162/162
f 170/170 169/169 162/162
f 164/164 171/171 163/163
f 171/171 170/170 163/163
f 165/165 172/172 173/173
f 165/165 173/173 167/167
f 173/173 172/172 174/174
f 168/168 175/175 165/165
f 175/175 172/172 165/165
f 169/169 176/176 168/168
f 176/176 175/175 168/168
f 170/170 177/177 169/169
f 177/177 176/176 169/169
f 171/171 178/178 170/170
f 178/178 177/177 170/170
f 172/172 179/179 180/180
f 172/172 180/180 174/174
f 179/179 181/181 182/182
f 179/179 182/182 180/180
f 175/175 183/183 172/172
f 183/183 179/179 172/172
f 176/176 184/184 175/175
f 184/184 183/183 175/175
f 177/177 185/185 176/176
f 185/185 184/184 176/176
f 177/177 178/178 186/186
f 177/177 186/186 187/187
f 185/185 177/177 187/187
f 185/185 187/187 188/188
f 179/179 189/189 190/190
f 179/179 190/190 181/181
f 190/190 189/189 191/191
f 183/183 192/192 179/179
f 192/192 189/189 179/179
f 184/184 193/193 183/183
f 193/193 192/192 183/183
f 184/184 185/185 194/194
f 184/184 194/194 195/195
f 193/193 184/184 195/195
f 193/193 195/195 196/196
f 193/193 196/196 197/197
f 198/198 185/185 188/188
f 188/188 199/199 200/200
f 188/188 200/200 198/198
f 185/185 198/198 201/201
f 185/185 201/201 194/194
f 202/202 203/203 204/204
f 204/204 203/203 205/205
f 189/189 206/206 207/207
f 189/189 207/207 191/191
f 206/206 203/203 202/202
f 206/206 202/202 208/208
f 206/206 208/208 207/207
f 192/192 209/209 189/189
f 209/209 206/206 189/189
f 192/192 193/193 210/210
f 192/192 210/210 211/211
f 209/209 192/192 211/211
f 209/209 211/211 212/212
f 213/213 193/193 197/197
f 193/193 213/213 214/214
f 193/193 214/214 210/210
f 203/203 215/215 216/216
f 203/203 216/216 217/217
f 203/203 217/217 205/205
f 216/216 215/215 218/218
f 206/206 219/219 203/203
f 219/219 215/215 203/203
f 209/209 220/220 206/206
f 220/220 219/219 206/206
f 209/209 212/212 221/221
f 209/209 221/221 222/222
f 220/220 209/209 222/222
f 220/220 222/222 223/223
f 220/220 223/223 224/224
f 215/215 225/225 226/226
f 215/215 226/226 227/227
f 215/215 227/227 218/218
f 226/226 225/225 228/228
f 219/219 229/229 215/215
f 229/229 225/225 215/215
f 220/220 230/230 219/219
f 230/230 229/229 219/219
f 231/231 220/220 224/224
f 231/231 224/224 232/232
f 231/231 230/230 220/220
f 231/231 232/232 233/233
f 231/231 233/233 234/234
f 225/225 235/235 236/236
f 225/225 236/236 237/237
f 225/225 237/237 228/228
f 236/236 235/235 238/238
f 229/229 239/239 225/225
f 239/239 235/235 225/225
f 230/230 240/240 229/229
f 240/240 239/239 229/229
f 231/231 241/241 230/230
f 241/241 240/240 230/230
f 242/242 231/231 234/234
f 242/242 234/234 243/243
f 242/242 243/243 244/244
f 242/242 241/241 231/231
f 245/245 242/242 244/244
f 245/245 244/244 246/246
f 245/245 246/246 247/247
f 235/235 248/248 249/249
f 235/235 249/249 250/250
f 235/235 250/250 238/238
f 249/249 248/248 251/251
f 239/239 252/252 235/235
f 252/252 248/248 235/235
f 240/240 253/253 239/239
f 253/253 252/252 239/239
f 241/241 254/254 240/240
f 254/254 253/253 240/240
f 242/242 255/255 241/241
f 255/255 254/254 241/241
f 256/256 242/242 245/245
f 255/255 242/242 256/256
f 255/255 256/256 257/257
f 255/255 257/257 258/258
f 248/248 259/259 260/260
f 248/248 260/260 261/261
f 248/248 261/261 251/251
f 260/260 259/259 262/262
f 252/252 263/263 248/248
f 263/263 259/259 248/248
f 253/253 264/264 252/252
f 264/264 263/263 252/252
f 254/254 265/265 253/253
f 265/265 264/264 253/253
f 255/255 266/266 254/254
f 266/266 265/265 254/254
f 267/267 255/255 258/258
f 266/266 255/255 267/267
f 266/266 267/267 268/268
f 266/266 268/268 269/269
f 259/259 270/270 271/271
f 259/259 271/271 272/272
f 259/259 272/272 262/262
f 271/271 270/270 273/273
f 263/263 274/274 259/259
f 274/274 270/270 259/259
f 264/264 275/275 263/263
f 275/275 274/274 263/263
f 265/265 276/276 264/264
f 276/276 275/275 264/264
f 266/266 277/277 265/265
f 277/277 276/276 265/265
f 278/278 266/266 269/269
f 277/277 266/266 278/278
f 277/277 278/278 279/279
f 277/277 279/279 280/280
f 270/270 281/281 282/282
f 270/270 282/282 283/283
f 270/270 283/283 273/273
f 282/282 281/281 284/284
f 274/274 285/285 270/270
f 285/285 281/281 270/270
f 275/275 286/286 274/274
f 286/286 285/285 274/274
f 276/276 287/287 275/275
f 287/287 286/286 275/275
f 277/277 288/288 276/276
f 288/288 287/287 276/276
f 289/289 277/277 280/280
f 288/288 277/277 289/289
f 288/288 289/289 290/290
f 288/288 290/290 291/291
f 281/281 292/292 293/293
f 281/281 293/293 294/294
f 281/281 294/294 284/284
f 293/293 292/292 295/295
f 293/293 295/295 296/296
f 285/285 297/297 281/281
f 297/297 292/292 281/281
f 286/286 298/298 285/285
f 298/298 297/297 285/285
f 287/287 299/299 286/286
f 299/299 298/298 286/286
f 287/287 288/288 300/300
f 287/287 300/300 301/301
f 287/287 301/301 302/302
f 299/299 287/287 302/302
f 299/299 302/302 303/303
f 304/304 288/288 291/291
f 300/300 288/288 304/304
f 292/292 305/305 306/306
f 292/292 306/306 295/295
f 305/305 307/307 308/308
f 305/305 308/308 306/306
f 297/297 309/309 292/292
f 309/309 305/305 292/292
f 298/298 310/310 297/297
f 310/310 309/309 297/297
f 299/299 311/311 298/298
f 311/311 310/310 298/298
f 312/312 299/299 303/303
f 312/312 303/303 313/313
f 312/312 313/313 314/314
f 312/312 311/311 299/299
f 315/315 312/312 314/314
f 305/305 316/316 317/317
f 305/305 317/317 307/307
f 317/317 316/316 318/318
f 309/309 319/319 305/305
f 319/319 316/316 305/305
f 310/310 320/320 309/309
f 320/320 319/319 309/309
f 311/311 321/321 310/310
f 321/321 320/320 310/310
f 312/312 322/322 311/311
f 322/322 321/321 311/311
f 323/323 312/312 315/315
f 322/322 312/312 323/323
f 322/322 323/323 324/324
f 322/322 324/324 325/325
f 316/316 326/326 327/327
f 316/316 327/327 318/318
f 326/326 328/328 329/329
f 326/326 329/329 327/327
f 319/319 330/330 316/316
f 330/330 326/326 316/316
f 320/320 331/331 319/319
f 331/331 330/330 319/319
f 321/321 332/332 320/320
f 332/332 331/331 320/320
f 322/322 333/333 321/321
f 333/333 332/332 321/321
f 334/334 322/322 325/325
f 333/333 322/322 334/334
f 333/333 334/334 335/335
f 333/333 335/335 336/336
f 326/326 337/337 338/338
f 326/326 338/338 339/339
f 326/326 339/339 328/328
f 338/338 337/337 340/340
f 330/330 341/341 326/326
f 341/341 337/337 326/326
f 331/331 342/342 330/330
f 342/342 341/341 330/330
f 332/332 343/343 331/331
f 343/343 342/342 331/331
f 333/333 344/344 332/332
f 344/344 343/343 332/332
f 345/345 333/333 336/336
f 344/344 333/333 345/345
f 344/344 345/345 346/346
f 344/344 346/346 347/347
f 337/337 348/348 349/349
f 337/337 349/349 350/350
f 337/337 350/350 340/340
f 349/349 348/348 351/351
f 341/341 352/352 337/337
f 352/352 348/348 337/337
f 342/342 353/353 341/341
f 353/353 352/352 341/341
f 343/343 354/354 342/342
f 354/354 353/353 342/342
f 344/344 355/355 343/343
f 355/355 354/354 343/343
f 356/356 344/344 347/347
f 355/355 344/344 356/356
f 355/355 356/356 357/357
f 355/355 357/357 358/358
f 348/348 359/359 360/360
f 348/348 360/360 361/361
f 348/348 361/361 351/351
f 360/360 359/359 362/362
f 352/352 363/363 348/348
f 363/363 359/359 348/348
f 353/353 364/364 352/352
f 364/364 363/363 352/352
f 354/354 365/365 353/353
f 365/365 364/364 353/353
f 355/355 366/366 354/354
f 366/366 365/365 354/354
f 355/355 358/358 367/367
f 355/355 367/367 368/368
f 366/366 355/355 368/368
f 366/366 368/368 369/369
f 359/359 370/370 371/371
f 359/359 371/371 372/372
f 359/359 372/372 362/362
f 371/371 370/370 373/373
f 363/363 374/374 359/359
f 374/374 370/370 359/359
f 364/364 375/375 363/363
f 375/375 374/374 363/363
f 365/365 376/376 364/364
f 376/376 375/375 364/364
f 366/366 377/377 365/365
f 377/377 376/376 365/365
f 366/366 369/369 378/378
f 366/366 378/378 379/379
f 377/377 366/366 379/379
f 377/377 379/379 380/380
f 370/370 381/381 382/382
f 370/370 382/382 383/383
f 370/370 383/383 373/373
f 382/382 381/381 384/384
f 374/374 385/385 370/370
f 385/385 381/381 370/370
f 375/375 386/386 374/374
f 386/386 385/385 374/374
f 376/376 387/387 375/375
f 387/387 386/386 375/375
f 377/377 388/388 376/376
f 388/388 387/387 376/376
f 389/389 377/377 380/380
f 388/388 377/377 389/389
f 388/388 389/389 390/390
f 381/381 391/391 392/392
f 381/381 392/392 393/393
f 381/381 393/393 384/384
f 392/392 391/391 394/394
f 385/385 395/395 381/381
f 395/395 391/391 381/381
f 386/386 396/396 385/385
f 396/396 395/395 385/385
f 387/387 397/397 386/386
f 397/397 396/396 386/386
f 388/388 398/398 387/387
f 398/398 397/397 387/387
f 388/388 390/390 399/399
f 388/388 399/399 400/400
f 398/398 388/388 400/400
f 398/398 400/400 401/401
f 391/391 402/402 403/403
f 391/391 403/403 404/404
f 391/391 404/404 394/394
f 403/403 402/402 405/405
f 395/395 406/406 391/391
f 406/406 402/402 391/391
f 396/396 407/407 395/395
f 407/407 406/406 395/395
f 397/397 408/408 396/396
f 408/408 407/407 396/396
f 398/398 409/409 397/397
f 409/409 408/408 397/397
f 398/398 401/401 410/410
f 398/398 410/410 411/411
f 409/409 398/398 411/411
f 409/409 411/411 412/412
f 409/409 412/412 413/413
f 402/402 414/414 415/415
f 402/402 415/415 416/416
f 402/402 416/416 405/405
f 415/415 414/414 417/417
f 406/406 418/418 402/402
f 418/418 414/414 402/402
f 407/407 419/419 406/406
f 419/419 418/418 406/406
f 408/408 420/420 407/407
f 420/420 419/419 407/407
f 409/409 421/421 408/408
f 421/421 420/420 408/408
f 422/422 409/409 413/413
f 421/421 409/409 422/422
f 421/421 422/422 423/423
f 421/421 423/423 424/424
f 414/414 425/425 426/426
f 414/414 426/426 427/427
f 414/414 427/427 417/417
f 426/426 425/425 428/428
f 418/418 429/429 414/414
f 429/429 425/425 414/414
f 419/419 430/430 418/418
f 430/430 429/429 418/418
f 420/420 431/431 419/419
f 431/431 430/430 419/419
f 421/421 432/432 420/420
f 432/432 431/431 420/420
f 433/433 421/421 424/424
f 432/432 421/421 433/433
f 432/432 433/433 434/434
f 432/432 434/434 435/435
f 425/425 436/436 437/437
f 425/425 437/437 438/438
f 425/425 438/438 428/428
f 437/437 436/436 439/439
f 429/429 440/440 425/425
f 440/440 436/436 425/425
f 430/430 441/441 429/429
f 441/441 440/440 429/429
f 431/431 442/442 430/430
f 442/442 441/441 430/430
f 432/432 443/443 431/431
f 443/443 442/442 431/431
f 444/444 432/432 435/435
f 443/443 432/432 444/444
f 443/443 444/444 445/445
f 443/443 445/445 446/446
f 436/436 447/447 448/448
f 436/436 448/448 449/449
f 436/436 449/449 439/439
f 447/447 450/450 451/451
f 447/447 451/451 448/448
f 440/440 452/452 436/436
f 452/452 447/447 436/436
f 441/441 453/453 440/440
f 453/453 452/452 440/440
f 442/442 454/454 441/441
f 454/454 453/453 441/441
f 443/443 455/455 442/442
f 455/455 454/454 442/442
f 456/456 443/443 446/446
f 455/455 443/443 456/456
f 455/455 456/456 457/457
f 455/455 457/457 458/458
f 447/447 459/459 460/460
f 447/447 460/460 450/450
f 460/460 459/459 461/461
f 452/452 462/462 447/447
f 462/462 459/459 447/447
f 453/453 463/463 452/452
f 463/463 462/462 452/452
f 454/454 464/464 453/453
f 464/464 463/463 453/453
f 455/455 465/465 454/454
f 465/465 464/464 454/454
f 466/466 455/455 458/458
f 465/465 455/455 466/466
f 465/465 466/466 467/467
f 465/465 467/467 468/468
f 459/459 469/469 470/470
f 459/459 470/470 461/461
f 469/469 471/471 472/472
f 469/469 472/472 470/470
f 462/462 473/473 459/459
f 473/473 469/469 459/459
f 463/463 474/474 462/462
f 474/474 473/473 462/462
f 464/464 475/475 463/463
f 475/475 474/474 463/463
f 465/465 476/476 464/464
f 476/476 475/475 464/464
f 477/477 465/465 468/468
f 476/476 465/465 477/477
f 476/476 477/477 478/478
f 476/476 478/478 479/479
f 469/469 480/480 481/481
f 469/469 481/481 471/471
f 481/481 480/480 482/482
f 473/473 483/483 469/469
f 483/483 480/480 469/469
f 474/474 484/484 473/473
f 484/484 483/483 473/473
f 475/475 485/485 474/474
f 485/485 484/484 474/474
f 476/476 486/486 475/475
f 486/486 485/485 475/475
f 487/487 476/476 479/479
f 486/486 476/476 487/487
f 486/486 487/487 488/488
f 486/486 488/488 489/489
f 480/480 490/490 491/491
f 480/480 491/491 482/482
f 490/490 492/492 493/493
f 490/490 493/493 491/491
f 483/483 494/494 480/480
f 494/494 490/490 480/480
f 484/484 495/495 483/483
f 495/495 494/494 483/483
f 485/485 496/496 484/484
f 496/496 495/495 484/484
f 486/486 497/497 485/485
f 497/497 496/496 485/485
f 498/498 486/486 489/489
f 497/497 486/486 498/498
f 497/497 498/498 499/499
f 497/497 499/499 500/500
f 490/490 501/501 502/502
f 490/490 502/502 492/492
f 501/501 503/503 504/504
f 501/501 504/504 502/502
f 494/494 505/505 490/490
f 505/505 501/501 490/490
f 495/495 506/506 494/494
f 506/506 505/505 494/494
f 496/496 507/507 495/495
f 507/507 506/506 495/495
f 497/497 508/508 496/496
f 508/508 507/507 496/496
f 509/509 497/497 500/500
f 508/508 497/497 509/509
f 508/508 509/509 510/510
f 508/508 510/510 511/511
f 501/501 512/512 513/513
f 501/501 513/513 503/503
f 513/513 512/512 514/514
f 505/505 515/515 501/501
f 515/515 512/512 501/501
f 506/506 516/516 505/505
f 516/516 515/515 505/505
f 507/507 517/517 506/506
f 517/517 516/516 506/506
f 508/508 518/518 507/507
f 518/518 517/517 507/507
f 519/519 508/508 511/511
f 518/518 508/508 519/519
f 518/518 519/519 520/520
f 518/518 520/520 521/521
f 512/512 522/522 523/523
f 512/512 523/523 514/514
f 522/522 524/524 525/525
f 522/522 525/525 523/523
f 515/515 526/526 512/512
f 526/526 522/522 512/512
f 516/516 527/527 515/515
f 527/527 526/526 515/515
f 517/517 528/528 516/516
f 528/528 527/527 516/516
f 518/518 529/529 517/517
f 529/529 528/528 517/517
f 530/530 518/518 521/521
f 529/529 518/518 530/530
f 529/529 530/530 531/531
f 529/529 531/531 532/532
f 522/522 533/533 534/534
f 522/522 534/534 524/524
f 533/533 535/535 536/536
f 533/533 536/536 534/534
f 526/526 537/537 522/522
f 537/537 533/533 522/522
f 527/527 538/538 526/526
f 538/538 537/537 526/526
f 528/528 539/539 527/527
f 539/539 538/538 527/527
f 529/529 540/540 528/528
f 540/540 539/539 528/528
f 541/541 529/529 532/532
f 540/540 529/529 541/541
f 540/540 541/541 542/542
f 540/540 542/542 543/543
f 533/533 544/544 545/545
f 533/533 545/545 535/535
f 545/545 544/544 546/546
f 545/545 546/546 547/547
f 545/545 547/547 548/548
f 537/537 549/549 533/533
f 549/549 544/544 533/533
f 538/538 550/550 537/537
f 550/550 549/549 537/537
f 539/539 551/551 538/538
f 551/551 550/550 538/538
f 540/540 552/552 539/539
f 552/552 551/551 539/539
f 553/553 540/540 543/543
f 552/552 540/540 553/553
f 552/552 553/553 554/554
f 552/552 554/554 555/555
f 544/544 556/556 557/557
f 544/544 557/557 546/546
f 557/557 556/556 558/558
f 549/549 559/559 544/544
f 559/559 556/556 544/544
f 550/550 560/560 549/549
f 560/560 559/559 549/549
f 551/551 561/561 550/550
f 561/561 560/560 550/550
f 552/552 562/562 551/551
f 562/562 561/561 551/551
f 563/563 552/552 555/555
f 562/562 552/552 563/563
f 562/562 563/563 564/564
f 556/556 565/565 566/566
f 556/556 566/566 558/558
f 565/565 567/567 568/568
f 565/565 568/568 566/566
f 559/559 569/569 556/556
f 569/569 565/565 556/556
f 560/560 570/570 559/559
f 570/570 569/569 559/559
f 561/561 571/571 560/560
f 571/571 570/570 560/560
f 562/562 572/572 561/561
f 572/572 571/571 561/561
f 573/573 562/562 564/564
f 572/572 562/562 573/573
f 572/572 573/573 574/574
f 565/565 575/575 576/576
f 565/565 576/576 577/577
f 565/565 577/577 567/567
f 576/576 575/575 578/578
f 569/569 579/579 565/565
f 579/579 575/575 565/565
f 570/570 580/580 569/569
f 580/580 579/579 569/569
f 571/571 581/581 570/570
f 581/581 580/580 570/570
f 572/572 582/582 571/571
f 582/582 581/581 571/571
f 572/572 574/574 583/583
f 572/572 583/583 584/584
f 582/582 572/572 584/584
f 582/582 584/584 585/585
f 575/575 586/586 587/587
f 575/575 587/587 588/588
f 575/575 588/588 578/578
f 587/587 586/586 589/589
f 579/579 590/590 575/575
f 590/590 586/586 575/575
f 580/580 591/591 579/579
f 591/591 590/590 579/579
f 581/581 592/592 580/580
f 592/592 591/591 580/580
f 582/582 593/593 581/581
f 593/593 592/592 581/581
f 594/594 582/582 585/585
f 593/593 582/582 594/594
f 593/593 594/594 595/595
f 586/586 596/596 597/597
f 586/586 597/597 598/598
f 586/586 598/598 589/589
f 597/597 596/596 599/599
f 590/590 600/600 586/586
f 600/600 596/596 586/586
f 591/591 601/601 590/590
f 601/601 600/600 590/590
f 592/592 602/602 591/591
f 602/602 601/601 591/591
f 593/593 603/603 592/592
f 603/603 602/602 592/592
f 604/604 593/593 595/595
f 603/603 593/593 604/604
f 603/603 604/604 605/605
f 596/596 606/606 607/607
f 596/596 607/607 608/608
f 596/596 608/608 599/599
f 607/607 606/606 609/609
f 600/600 610/610 596/596
f 610/610 606/606 596/596
f 601/601 611/611 600/600
f 611/611 610/610 600/600
f 602/602 612/612 601/601
f 612/612 611/611 601/601
f 603/603 613/613 602/602
f 613/613 612/612 602/602
f 603/603 605/605 614/614
f 603/603 614/614 615/615
f 613/613 603/603 615/615
f 613/613 615/615 616/616
f 609/609 606/606 617/617
f 610/610 618/618 606/606
f 606/606 618/618 619/619
f 606/606 619/619 617/617
f 611/611 620/620 610/610
f 620/620 618/618 610/610
f 612/612 621/621 611/611
f 621/621 620/620 611/611
f 613/613 622/622 612/612
f 622/622 621/621 612/612
f 623/623 613/613 616/616
f 622/622 613/613 623/623
f 622/622 623/623 624/624
f 618/618 625/625 626/626
f 618/618 626/626 619/619
f 626/626 625/625 627/627
f 620/620 628/628 618/618
f 628/628 625/625 618/618
f 621/621 629/629 620/620
f 629/629 628/628 620/620
f 622/622 630/630 621/621
f 630/630 629/629 621/621
f 631/631 622/622 624/624
f 630/630 622/622 631/631
f 630/630 631/631 632/632
f 625/625 633/633 634/634
f 625/625 634/634 627/627
f 634/634 633/633 635/635
f 628/628 636/636 625/625
f 636/636 633/633 625/625
f 629/629 637/637 628/628
f 637/637 636/636 628/628
f 630/630 638/638 629/629
f 638/638 637/637 629/629
f 639/639 630/630 632/632
f 638/638 630/630 639/639
f 638/638 639/639 640/640
f 633/633 641/641 642/642
f 633/633 642/642 635/635
f 641/641 643/643 644/644
f 641/641 644/644 642/642
f 636/636 645/645 633/633
f 645/645 641/641 633/633
f 637/637 646/646 636/636
f 646/646 645/645 636/636
f 638/638 647/647 637/637
f 647/647 646/646 637/637
f 648/648 638/638 640/640
f 647/647 638/638 648/648
f 647/647 648/648 649/649
f 641/641 650/650 651/651
f 641/641 651/651 643/643
f 651/651 650/650 652/652
f 645/645 653/653 641/641
f 653/653 650/650 641/641
f 646/646 654/654 645/645
f 654/654 653/653 645/645
f 647/647 655/655 646/646
f 655/655 654/654 646/646
f 656/656 647/647 649/649
f 656/656 649/649 657/657
f 656/656 655/655 647/647
f 650/650 658/658 659/659
f 650/650 659/659 652/652
f 659/659 658/658 660/660
f 653/653 661/661 650/650
f 661/661 658/658 650/650
f 654/654 662/662 653/653
f 662/662 661/661 653/653
f 655/655 663/663 654/654
f 663/663 662/662 654/654
f 656/656 664/664 655/655
f 664/664 663/663 655/655
f 658/658 665/665 666/666
f 658/658 666/666 660/660
f 665/665 667/667 668/668
f 665/665 668/668 666/666
f 661/661 669/669 658/658
f 669/669 665/665 658/658
f 662/662 670/670 661/661
f 670/670 669/669 661/661
f 663/663 671/671 662/662
f 671/671 670/670 662/662
f 664/664 672/672 663/663
f 672/672 671/671 663/663
f 665/665 673/673 674/674
f 665/665 674/674 667/667
f 674/674 673/673 675/675
f 669/669 676/676 665/665
f 676/676 673/673 665/665
f 670/670 677/677 669/669
f 677/677 676/676 669/669
f 671/671 678/678 670/670
f 678/678 677/677 670/670
f 672/672 679/679 671/671
f 679/679 678/678 671/671
f 673/673 680/680 681/681
f 673/673 681/681 675/675
f 680/680 682/682 683/683
f 680/680 683/683 681/681
f 676/676 684/684 673/673
f 684/684 680/680 673/673
f 677/677 685/685 676/676
f 685/685 684/684 676/676
f 678/678 686/686 677/677
f 686/686 685/685 677/677
f 679/679 687/687 678/678
f 687/687 686/686 678/678
f 680/680 688/688 689/689
f 680/680 689/689 682/682
f 689/689 688/688 690/690
f 684/684 691/691 680/680
f 691/691 688/688 680/680
f 685/685 692/692 684/684
f 692/692 691/691 684/684
f 686/686 693/693 685/685
f 693/693 692/692 685/685
f 687/687 694/694 686/686
f 694/694 693/693 686/686
f 688/688 695/695 696/696
f 688/688 696/696 690/690
f 696/696 695/695 697/697
f 691/691 698/698 688/688
f 698/698 695/695 688/688
f 692/692 699/699 691/691
f 699/699 698/698 691/691
f 693/693 700/700 692/692
f 700/700 699/699 692/692
f 694/694 701/701 693/693
f 701/701 700/700 693/693
f 695/695 702/702 703/703
f 695/695 703/703 697/697
f 702/702 704/704 705/705
f 702/702 705/705 703/703
f 698/698 706/706 695/695
f 706/706 702/702 695/695
f 699/699 707/707 698/698
f 707/707 706/706 698/698
f 700/700 708/708 699/699
f 708/708 707/707 699/699
f 701/701 709/709 700/700
f 709/709 708/708 700/700
f 702/702 710/710 711/711
f 702/702 711/711 712/712
f 702/702 712/712 704/704
f 711/711 710/710 713/713
f 706/706 714/714 702/702
f 714/714 710/710 702/702
f 707/707 715/715 706/706
f 715/715 714/714 706/706
f 708/708 716/716 707/707
f 716/716 715/715 707/707
f 709/709 717/717 708/708
f 717/717 716/716 708/708
f 710/710 718/718 719/719
f 710/710 719/719 720/720
f 710/710 720/720 721/721
f 710/710 721/721 713/713
f 719/719 718/718 722/722
f 714/714 723/723 710/710
f 723/723 718/718 710/710
f 715/715 724/724 714/714
f 724/724 723/723 714/714
f 716/716 725/725 715/715
f 725/725 724/724 715/715
f 717/717 726/726 716/716
f 726/726 725/725 716/716
f 718/718 727/727 728/728
f 718/718 728/728 729/729
f 718/718 729/729 722/722
f 728/728 727/727 730/730
f 723/723 731/731 718/718
f 731/731 727/727 718/718
f 724/724 732/732 723/723
f 732/732 731/731 723/723
f 725/725 733/733 724/724
f 733/733 732/732 724/724
f 726/726 734/734 725/725
f 734/734 733/733 725/725
f 727/727 735/735 736/736
f 727/727 736/736 737/737
f 727/727 737/737 730/730
f 736/736 735/735 738/738
f 731/731 739/739 727/727
f 739/739 735/735 727/727
f 732/732 740/740 731/731
f 740/740 739/739 731/731
f 733/733 741/741 732/732
f 741/741 740/740 732/732
f 734/734 742/742 733/733
f 742/742 741/741 733/733
f 735/735 743/743 744/744
f 735/735 744/744 745/745
f 735/735 745/745 738/738
f 744/744 743/743 746/746
f 739/739 747/747 735/735
f 747/747 743/743 735/735
f 740/740 748/748 739/739
f 748/748 747/747 739/739
f 741/741 749/749 740/740
f 749/749 748/748 740/740
f 742/742 750/750 741/741
f 750/750 749/749 741/741
f 743/743 751/751 752/752
f 743/743 752/752 753/753
f 743/743 753/753 746/746
f 752/752 751/751 754/754
f 747/747 755/755 743/743
f 755/755 751/751 743/743
f 748/748 756/756 747/747
f 756/756 755/755 747/747
f 749/749 757/757 748/748
f 757/757 756/756 748/748
f 750/750 758/758 749/749
f 758/758 757/757 749/749
f 754/754 751/751 759/759
f 755/755 760/760 751/751
f 751/751 760/760 761/761
f 751/751 761/761 762/762
f 751/751 762/762 759/759
f 756/756 763/763 755/755
f 763/763 760/760 755/755
f 757/757 764/764 756/756
f 764/764 763/763 756/756
f 758/758 765/765 757/757
f 765/765 764/764 757/757
f 760/760 766/766 767/767
f 760/760 767/767 761/761
f 766/766 768/768 769/769
f 766/766 769/769 767/767
f 763/763 770/770 760/760
f 770/770 766/766 760/760
f 764/764 771/771 763/763
f 771/771 770/770 763/763
f 765/765 772/772 764/764
f 772/772 771/771 764/764
f 766/766 773/773 774/774
f 766/766 774/774 768/768
f 774/774 773/773 775/775
f 770/770 776/776 766/766
f 776/776 773/773 766/766
f 771/771 777/777 770/770
f 777/777 776/776 770/770
f 772/772 778/778 771/771
f 778/778 777/777 771/771
f 773/773 779/779 780/780
f 773/773 780/780 775/775
f 780/780 779/779 781/781
f 776/776 782/782 773/773
f 782/782 779/779 773/773
f 777/777 783/783 776/776
f 783/783 782/782 776/776
f 778/778 784/784 777/777
f 784/784 783/783 777/777
f 779/779 785/785 786/786
f 779/779 786/786 781/781
f 785/785 787/787 788/788
f 785/785 788/788 786/786
f 782/782 789/789 779/779
f 789/789 785/785 779/779
f 783/783 790/790 782/782
f 790/790 789/789 782/782
f 784/784 791/791 783/783
f 791/791 790/790 783/783
f 785/785 792/792 793/793
f 785/785 793/793 787/787
f 792/792 794/794 795/795
f 792/792 795/795 793/793
f 789/789 796/796 785/785
f 796/796 792/792 785/785
f 790/790 797/797 789/789
f 797/797 796/796 789/789
f 791/791 798/798 790/790
f 798/798 797/797 790/790
f 792/792 799/799 800/800
f 792/792 800/800 794/794
f 800/800 799/799 801/801
f 796/796 802/802 792/792
f 802/802 799/799 792/792
f 797/797 803/803 796/796
f 803/803 802/802 796/796
f 798/798 804/804 797/797
f 804/804 803/803 797/797
f 799/799 805/805 806/806
f 799/799 806/806 801/801
f 806/806 805/805 807/807
f 802/802 808/808 799/799
f 808/808 805/805 799/799
f 803/803 809/809 802/802
f 809/809 808/808 802/802
f 804/804 810/810 803/803
f 810/810 809/809 803/803
f 805/805 811/811 812/812
f 805/805 812/812 813/813
f 805/805 813/813 807/807
f 812/812 811/811 814/814
f 808/808 815/815 805/805
f 815/815 811/811 805/805
f 809/809 816/816 808/808
f 816/816 815/815 808/808
f 810/810 817/817 809/809
f 817/817 816/816 809/809
f 811/811 818/818 819/819
f 811/811 819/819 820/820
f 811/811 820/820 814/814
f 819/819 818/818 821/821
f 815/815 822/822 811/811
f 822/822 818/818 811/811
f 816/816 823/823 815/815
f 823/823 822/822 815/815
f 817/817 824/824 816/816
f 824/824 823/823 816/816
f 818/818 825/825 826/826
f 818/818 826/826 827/827
f 818/818 827/827 821/821
f 826/826 825/825 828/828
f 822/822 829/829 818/818
f 829/829 825/825 818/818
f 823/823 830/830 822/822
f 830/830 829/829 822/822
f 824/824 831/831 823/823
f 831/831 830/830 823/823
f 825/825 832/832 833/833
f 825/825 833/833 834/834
f 825/825 834/834 828/828
f 833/833 832/832 835/835
f 829/829 836/836 825/825
f 836/836 832/832 825/825
f 830/830 837/837 829/829
f 837/837 836/836 829/829
f 831/831 838/838 830/830
f 838/838 837/837 830/830
f 832/832 839/839 840/840
f 832/832 840/840 841/841
f 832/832 841/841 842/842
f 832/832 842/842 835/835
f 840/840 839/839 843/843
f 836/836 844/844 832/832
f 844/844 839/839 832/832
f 837/837 845/845 836/836
f 845/845 844/844 836/836
f 838/838 846/846 837/837
f 846/846 845/845 837/837
f 843/843 839/839 847/847
f 844/844 848/848 839/839
f 839/839 848/848 849/849
f 839/839 849/849 850/850
f 839/839 850/850 847/847
f 845/845 851/851 844/844
f 851/851 848/848 844/844
f 846/846 852/852 845/845
f 852/852 851/851 845/845
f 848/848 853/853 854/854
f 848/848 854/854 849/849
f 854/854 853/853 855/855
f 851/851 856/856 848/848
f 856/856 853/853 848/848
f 852/852 857/857 851/851
f 857/857 856/856 851/851
f 853/853 858/858 859/859
f 853/853 859/859 855/855
f 858/858 860/860 861/861
f 858/858 861/861 859/859
f 856/856 862/862 853/853
f 862/862 858/858 853/853
f 857/857 863/863 856/856
f 863/863 862/862 856/856
f 858/858 864/864 865/865
f 858/858 865/865 860/860
f 864/864 866/866 867/867
f 864/864 867/867 865/865
f 862/862 868/868 858/858
f 868/868 864/864 858/858
f 863/863 869/869 862/862
f 869/869 868/868 862/862
