# OSM contributors ODbL; authored bridge elevation
o ParkBridge_146304984_Deck
v 4360.857267 528.198436 -573.561392
v 4568.773698 340.659753 -573.561392
v 4524.321828 291.377791 -575.425090
v 4316.405397 478.916474 -575.425090
v 4316.405397 478.916474 -593.425090
v 4524.321828 291.377791 -593.425090
v 4568.773698 340.659753 -591.561392
v 4360.857267 528.198436 -591.561392
v 4524.321828 291.377791 -575.425090
v 4568.773698 340.659753 -573.561392
v 4568.773698 340.659753 -591.561392
v 4524.321828 291.377791 -593.425090
v 4316.405397 478.916474 -575.425090
v 4360.857267 528.198436 -573.561392
v 4360.857267 528.198436 -591.561392
v 4316.405397 478.916474 -593.425090
v 4405.309137 577.480397 -571.880288
v 4613.225568 389.941714 -571.880288
v 4568.773698 340.659753 -573.561392
v 4360.857267 528.198436 -573.561392
v 4360.857267 528.198436 -591.561392
v 4568.773698 340.659753 -591.561392
v 4613.225568 389.941714 -589.880288
v 4405.309137 577.480397 -589.880288
v 4568.773698 340.659753 -573.561392
v 4613.225568 389.941714 -571.880288
v 4613.225568 389.941714 -589.880288
v 4568.773698 340.659753 -591.561392
v 4360.857267 528.198436 -573.561392
v 4405.309137 577.480397 -571.880288
v 4405.309137 577.480397 -589.880288
v 4360.857267 528.198436 -591.561392
v 4449.761007 626.762359 -570.549581
v 4657.677438 439.223676 -570.549581
v 4613.225568 389.941714 -571.880288
v 4405.309137 577.480397 -571.880288
v 4405.309137 577.480397 -589.880288
v 4613.225568 389.941714 -589.880288
v 4657.677438 439.223676 -588.549581
v 4449.761007 626.762359 -588.549581
v 4613.225568 389.941714 -571.880288
v 4657.677438 439.223676 -570.549581
v 4657.677438 439.223676 -588.549581
v 4613.225568 389.941714 -589.880288
v 4405.309137 577.480397 -571.880288
v 4449.761007 626.762359 -570.549581
v 4449.761007 626.762359 -588.549581
v 4405.309137 577.480397 -589.880288
v 4494.212877 676.044321 -569.708684
v 4702.129309 488.505638 -569.708684
v 4657.677438 439.223676 -570.549581
v 4449.761007 626.762359 -570.549581
v 4449.761007 626.762359 -588.549581
v 4657.677438 439.223676 -588.549581
v 4702.129309 488.505638 -587.708684
v 4494.212877 676.044321 -587.708684
v 4657.677438 439.223676 -570.549581
v 4702.129309 488.505638 -569.708684
v 4702.129309 488.505638 -587.708684
v 4657.677438 439.223676 -588.549581
v 4449.761007 626.762359 -570.549581
v 4494.212877 676.044321 -569.708684
v 4494.212877 676.044321 -587.708684
v 4449.761007 626.762359 -588.549581
v 4538.664748 725.326283 -569.457331
v 4746.581179 537.787600 -569.457331
v 4702.129309 488.505638 -569.708684
v 4494.212877 676.044321 -569.708684
v 4494.212877 676.044321 -587.708684
v 4702.129309 488.505638 -587.708684
v 4746.581179 537.787600 -587.457331
v 4538.664748 725.326283 -587.457331
v 4702.129309 488.505638 -569.708684
v 4746.581179 537.787600 -569.457331
v 4746.581179 537.787600 -587.457331
v 4702.129309 488.505638 -587.708684
v 4494.212877 676.044321 -569.708684
v 4538.664748 725.326283 -569.457331
v 4538.664748 725.326283 -587.457331
v 4494.212877 676.044321 -587.708684
v 4583.116618 774.608244 -569.847494
v 4791.033049 587.069561 -569.847494
v 4746.581179 537.787600 -569.457331
v 4538.664748 725.326283 -569.457331
v 4538.664748 725.326283 -587.457331
v 4746.581179 537.787600 -587.457331
v 4791.033049 587.069561 -587.847494
v 4583.116618 774.608244 -587.847494
v 4746.581179 537.787600 -569.457331
v 4791.033049 587.069561 -569.847494
v 4791.033049 587.069561 -587.847494
v 4746.581179 537.787600 -587.457331
v 4538.664748 725.326283 -569.457331
v 4583.116618 774.608244 -569.847494
v 4583.116618 774.608244 -587.847494
v 4538.664748 725.326283 -587.457331
v 4627.568488 823.890206 -570.879172
v 4835.484919 636.351523 -570.879172
v 4791.033049 587.069561 -569.847494
v 4583.116618 774.608244 -569.847494
v 4583.116618 774.608244 -587.847494
v 4791.033049 587.069561 -587.847494
v 4835.484919 636.351523 -588.879172
v 4627.568488 823.890206 -588.879172
v 4791.033049 587.069561 -569.847494
v 4835.484919 636.351523 -570.879172
v 4835.484919 636.351523 -588.879172
v 4791.033049 587.069561 -587.847494
v 4583.116618 774.608244 -569.847494
v 4627.568488 823.890206 -570.879172
v 4627.568488 823.890206 -588.879172
v 4583.116618 774.608244 -587.847494
v 4672.020358 873.172168 -572.500394
v 4879.936789 685.633485 -572.500394
v 4835.484919 636.351523 -570.879172
v 4627.568488 823.890206 -570.879172
v 4627.568488 823.890206 -588.879172
v 4835.484919 636.351523 -588.879172
v 4879.936789 685.633485 -590.500394
v 4672.020358 873.172168 -590.500394
v 4835.484919 636.351523 -570.879172
v 4879.936789 685.633485 -572.500394
v 4879.936789 685.633485 -590.500394
v 4835.484919 636.351523 -588.879172
v 4627.568488 823.890206 -570.879172
v 4672.020358 873.172168 -572.500394
v 4672.020358 873.172168 -590.500394
v 4627.568488 823.890206 -588.879172
v 4716.472228 922.454130 -574.611426
v 4924.388659 734.915447 -574.611426
v 4879.936789 685.633485 -572.500394
v 4672.020358 873.172168 -572.500394
v 4672.020358 873.172168 -590.500394
v 4879.936789 685.633485 -590.500394
v 4924.388659 734.915447 -592.611426
v 4716.472228 922.454130 -592.611426
v 4879.936789 685.633485 -572.500394
v 4924.388659 734.915447 -574.611426
v 4924.388659 734.915447 -592.611426
v 4879.936789 685.633485 -590.500394
v 4672.020358 873.172168 -572.500394
v 4716.472228 922.454130 -574.611426
v 4716.472228 922.454130 -592.611426
v 4672.020358 873.172168 -590.500394
v 4760.924098 971.736091 -577.072855
v 4968.840529 784.197408 -577.072855
v 4924.388659 734.915447 -574.611426
v 4716.472228 922.454130 -574.611426
v 4716.472228 922.454130 -592.611426
v 4924.388659 734.915447 -592.611426
v 4968.840529 784.197408 -595.072855
v 4760.924098 971.736091 -595.072855
v 4924.388659 734.915447 -574.611426
v 4968.840529 784.197408 -577.072855
v 4968.840529 784.197408 -595.072855
v 4924.388659 734.915447 -592.611426
v 4716.472228 922.454130 -574.611426
v 4760.924098 971.736091 -577.072855
v 4760.924098 971.736091 -595.072855
v 4716.472228 922.454130 -592.611426
v 4805.375968 1021.018053 -579.716878
v 5013.292400 833.479370 -579.716878
v 4968.840529 784.197408 -577.072855
v 4760.924098 971.736091 -577.072855
v 4760.924098 971.736091 -595.072855
v 4968.840529 784.197408 -595.072855
v 5013.292400 833.479370 -597.716878
v 4805.375968 1021.018053 -597.716878
v 4968.840529 784.197408 -577.072855
v 5013.292400 833.479370 -579.716878
v 5013.292400 833.479370 -597.716878
v 4968.840529 784.197408 -595.072855
v 4760.924098 971.736091 -577.072855
v 4805.375968 1021.018053 -579.716878
v 4805.375968 1021.018053 -597.716878
v 4760.924098 971.736091 -595.072855
v 4524.321828 291.377791 -575.425090
v 4316.405397 478.916474 -575.425090
v 4316.405397 478.916474 -593.425090
v 4524.321828 291.377791 -593.425090
v 5013.292400 833.479370 -579.716878
v 4805.375968 1021.018053 -579.716878
v 4805.375968 1021.018053 -597.716878
v 5013.292400 833.479370 -597.716878
vt 21.804286 -2.640992
vt 22.843868 -1.703299
vt 22.621609 -1.456889
vt 21.582027 -2.394582
vt 21.582027 -2.394582
vt 22.621609 -1.456889
vt 22.843868 -1.703299
vt 21.804286 -2.640992
vt 22.621609 -1.456889
vt 22.843868 -1.703299
vt 22.843868 -1.703299
vt 22.621609 -1.456889
vt 21.582027 -2.394582
vt 21.804286 -2.640992
vt 21.804286 -2.640992
vt 21.582027 -2.394582
vt 22.026546 -2.887402
vt 23.066128 -1.949709
vt 22.843868 -1.703299
vt 21.804286 -2.640992
vt 21.804286 -2.640992
vt 22.843868 -1.703299
vt 23.066128 -1.949709
vt 22.026546 -2.887402
vt 22.843868 -1.703299
vt 23.066128 -1.949709
vt 23.066128 -1.949709
vt 22.843868 -1.703299
vt 21.804286 -2.640992
vt 22.026546 -2.887402
vt 22.026546 -2.887402
vt 21.804286 -2.640992
vt 22.248805 -3.133812
vt 23.288387 -2.196118
vt 23.066128 -1.949709
vt 22.026546 -2.887402
vt 22.026546 -2.887402
vt 23.066128 -1.949709
vt 23.288387 -2.196118
vt 22.248805 -3.133812
vt 23.066128 -1.949709
vt 23.288387 -2.196118
vt 23.288387 -2.196118
vt 23.066128 -1.949709
vt 22.026546 -2.887402
vt 22.248805 -3.133812
vt 22.248805 -3.133812
vt 22.026546 -2.887402
vt 22.471064 -3.380222
vt 23.510647 -2.442528
vt 23.288387 -2.196118
vt 22.248805 -3.133812
vt 22.248805 -3.133812
vt 23.288387 -2.196118
vt 23.510647 -2.442528
vt 22.471064 -3.380222
vt 23.288387 -2.196118
vt 23.510647 -2.442528
vt 23.510647 -2.442528
vt 23.288387 -2.196118
vt 22.248805 -3.133812
vt 22.471064 -3.380222
vt 22.471064 -3.380222
vt 22.248805 -3.133812
vt 22.693324 -3.626631
vt 23.732906 -2.688938
vt 23.510647 -2.442528
vt 22.471064 -3.380222
vt 22.471064 -3.380222
vt 23.510647 -2.442528
vt 23.732906 -2.688938
vt 22.693324 -3.626631
vt 23.510647 -2.442528
vt 23.732906 -2.688938
vt 23.732906 -2.688938
vt 23.510647 -2.442528
vt 22.471064 -3.380222
vt 22.693324 -3.626631
vt 22.693324 -3.626631
vt 22.471064 -3.380222
vt 22.915583 -3.873041
vt 23.955165 -2.935348
vt 23.732906 -2.688938
vt 22.693324 -3.626631
vt 22.693324 -3.626631
vt 23.732906 -2.688938
vt 23.955165 -2.935348
vt 22.915583 -3.873041
vt 23.732906 -2.688938
vt 23.955165 -2.935348
vt 23.955165 -2.935348
vt 23.732906 -2.688938
vt 22.693324 -3.626631
vt 22.915583 -3.873041
vt 22.915583 -3.873041
vt 22.693324 -3.626631
vt 23.137842 -4.119451
vt 24.177425 -3.181758
vt 23.955165 -2.935348
vt 22.915583 -3.873041
vt 22.915583 -3.873041
vt 23.955165 -2.935348
vt 24.177425 -3.181758
vt 23.137842 -4.119451
vt 23.955165 -2.935348
vt 24.177425 -3.181758
vt 24.177425 -3.181758
vt 23.955165 -2.935348
vt 22.915583 -3.873041
vt 23.137842 -4.119451
vt 23.137842 -4.119451
vt 22.915583 -3.873041
vt 23.360102 -4.365861
vt 24.399684 -3.428167
vt 24.177425 -3.181758
vt 23.137842 -4.119451
vt 23.137842 -4.119451
vt 24.177425 -3.181758
vt 24.399684 -3.428167
vt 23.360102 -4.365861
vt 24.177425 -3.181758
vt 24.399684 -3.428167
vt 24.399684 -3.428167
vt 24.177425 -3.181758
vt 23.137842 -4.119451
vt 23.360102 -4.365861
vt 23.360102 -4.365861
vt 23.137842 -4.119451
vt 23.582361 -4.612271
vt 24.621943 -3.674577
vt 24.399684 -3.428167
vt 23.360102 -4.365861
vt 23.360102 -4.365861
vt 24.399684 -3.428167
vt 24.621943 -3.674577
vt 23.582361 -4.612271
vt 24.399684 -3.428167
vt 24.621943 -3.674577
vt 24.621943 -3.674577
vt 24.399684 -3.428167
vt 23.360102 -4.365861
vt 23.582361 -4.612271
vt 23.582361 -4.612271
vt 23.360102 -4.365861
vt 23.804620 -4.858680
vt 24.844203 -3.920987
vt 24.621943 -3.674577
vt 23.582361 -4.612271
vt 23.582361 -4.612271
vt 24.621943 -3.674577
vt 24.844203 -3.920987
vt 23.804620 -4.858680
vt 24.621943 -3.674577
vt 24.844203 -3.920987
vt 24.844203 -3.920987
vt 24.621943 -3.674577
vt 23.582361 -4.612271
vt 23.804620 -4.858680
vt 23.804620 -4.858680
vt 23.582361 -4.612271
vt 24.026880 -5.105090
vt 25.066462 -4.167397
vt 24.844203 -3.920987
vt 23.804620 -4.858680
vt 23.804620 -4.858680
vt 24.844203 -3.920987
vt 25.066462 -4.167397
vt 24.026880 -5.105090
vt 24.844203 -3.920987
vt 25.066462 -4.167397
vt 25.066462 -4.167397
vt 24.844203 -3.920987
vt 23.804620 -4.858680
vt 24.026880 -5.105090
vt 24.026880 -5.105090
vt 23.804620 -4.858680
vt 22.621609 -1.456889
vt 21.582027 -2.394582
vt 21.582027 -2.394582
vt 22.621609 -1.456889
vt 25.066462 -4.167397
vt 24.026880 -5.105090
vt 24.026880 -5.105090
vt 25.066462 -4.167397
f 3/3 2/2 1/1
f 4/4 3/3 1/1
f 7/7 6/6 5/5
f 8/8 7/7 5/5
f 11/11 10/10 9/9
f 12/12 11/11 9/9
f 15/15 14/14 13/13
f 16/16 15/15 13/13
f 19/19 18/18 17/17
f 20/20 19/19 17/17
f 23/23 22/22 21/21
f 24/24 23/23 21/21
f 27/27 26/26 25/25
f 28/28 27/27 25/25
f 31/31 30/30 29/29
f 32/32 31/31 29/29
f 35/35 34/34 33/33
f 36/36 35/35 33/33
f 39/39 38/38 37/37
f 40/40 39/39 37/37
f 43/43 42/42 41/41
f 44/44 43/43 41/41
f 47/47 46/46 45/45
f 48/48 47/47 45/45
f 51/51 50/50 49/49
f 52/52 51/51 49/49
f 55/55 54/54 53/53
f 56/56 55/55 53/53
f 59/59 58/58 57/57
f 60/60 59/59 57/57
f 63/63 62/62 61/61
f 64/64 63/63 61/61
f 67/67 66/66 65/65
f 68/68 67/67 65/65
f 71/71 70/70 69/69
f 72/72 71/71 69/69
f 75/75 74/74 73/73
f 76/76 75/75 73/73
f 79/79 78/78 77/77
f 80/80 79/79 77/77
f 83/83 82/82 81/81
f 84/84 83/83 81/81
f 87/87 86/86 85/85
f 88/88 87/87 85/85
f 91/91 90/90 89/89
f 92/92 91/91 89/89
f 95/95 94/94 93/93
f 96/96 95/95 93/93
f 99/99 98/98 97/97
f 100/100 99/99 97/97
f 103/103 102/102 101/101
f 104/104 103/103 101/101
f 107/107 106/106 105/105
f 108/108 107/107 105/105
f 111/111 110/110 109/109
f 112/112 111/111 109/109
f 115/115 114/114 113/113
f 116/116 115/115 113/113
f 119/119 118/118 117/117
f 120/120 119/119 117/117
f 123/123 122/122 121/121
f 124/124 123/123 121/121
f 127/127 126/126 125/125
f 128/128 127/127 125/125
f 131/131 130/130 129/129
f 132/132 131/131 129/129
f 135/135 134/134 133/133
f 136/136 135/135 133/133
f 139/139 138/138 137/137
f 140/140 139/139 137/137
f 143/143 142/142 141/141
f 144/144 143/143 141/141
f 147/147 146/146 145/145
f 148/148 147/147 145/145
f 151/151 150/150 149/149
f 152/152 151/151 149/149
f 155/155 154/154 153/153
f 156/156 155/155 153/153
f 159/159 158/158 157/157
f 160/160 159/159 157/157
f 163/163 162/162 161/161
f 164/164 163/163 161/161
f 167/167 166/166 165/165
f 168/168 167/167 165/165
f 171/171 170/170 169/169
f 172/172 171/171 169/169
f 175/175 174/174 173/173
f 176/176 175/175 173/173
f 179/179 178/178 177/177
f 180/180 179/179 177/177
f 183/183 182/182 181/181
f 184/184 183/183 181/181
