# OSM contributors ODbL; authored bridge elevation
o ParkBridge_1032063077_Deck
v 6500.251454 -26386.789266 -755.540109
v 6780.196048 -26381.219302 -755.540109
v 6781.386224 -26441.037151 -760.189697
v 6501.441630 -26446.607115 -760.189697
v 6501.441630 -26446.607115 -778.189697
v 6781.386224 -26441.037151 -778.189697
v 6780.196048 -26381.219302 -773.540109
v 6500.251454 -26386.789266 -773.540109
v 6781.386224 -26441.037151 -760.189697
v 6780.196048 -26381.219302 -755.540109
v 6780.196048 -26381.219302 -773.540109
v 6781.386224 -26441.037151 -778.189697
v 6501.441630 -26446.607115 -760.189697
v 6500.251454 -26386.789266 -755.540109
v 6500.251454 -26386.789266 -773.540109
v 6501.441630 -26446.607115 -778.189697
v 6499.061279 -26326.971417 -752.686633
v 6779.005872 -26321.401453 -752.686633
v 6780.196048 -26381.219302 -755.540109
v 6500.251454 -26386.789266 -755.540109
v 6500.251454 -26386.789266 -773.540109
v 6780.196048 -26381.219302 -773.540109
v 6779.005872 -26321.401453 -770.686633
v 6499.061279 -26326.971417 -770.686633
v 6780.196048 -26381.219302 -755.540109
v 6779.005872 -26321.401453 -752.686633
v 6779.005872 -26321.401453 -770.686633
v 6780.196048 -26381.219302 -773.540109
v 6500.251454 -26386.789266 -755.540109
v 6499.061279 -26326.971417 -752.686633
v 6499.061279 -26326.971417 -770.686633
v 6500.251454 -26386.789266 -773.540109
v 6497.871103 -26267.153568 -752.739326
v 6777.815696 -26261.583604 -752.739326
v 6779.005872 -26321.401453 -752.686633
v 6499.061279 -26326.971417 -752.686633
v 6499.061279 -26326.971417 -770.686633
v 6779.005872 -26321.401453 -770.686633
v 6777.815696 -26261.583604 -770.739326
v 6497.871103 -26267.153568 -770.739326
v 6779.005872 -26321.401453 -752.686633
v 6777.815696 -26261.583604 -752.739326
v 6777.815696 -26261.583604 -770.739326
v 6779.005872 -26321.401453 -770.686633
v 6499.061279 -26326.971417 -752.686633
v 6497.871103 -26267.153568 -752.739326
v 6497.871103 -26267.153568 -770.739326
v 6499.061279 -26326.971417 -770.686633
v 6496.680927 -26207.335719 -755.698190
v 6776.625521 -26201.765755 -755.698190
v 6777.815696 -26261.583604 -752.739326
v 6497.871103 -26267.153568 -752.739326
v 6497.871103 -26267.153568 -770.739326
v 6777.815696 -26261.583604 -770.739326
v 6776.625521 -26201.765755 -773.698190
v 6496.680927 -26207.335719 -773.698190
v 6777.815696 -26261.583604 -752.739326
v 6776.625521 -26201.765755 -755.698190
v 6776.625521 -26201.765755 -773.698190
v 6777.815696 -26261.583604 -770.739326
v 6497.871103 -26267.153568 -752.739326
v 6496.680927 -26207.335719 -755.698190
v 6496.680927 -26207.335719 -773.698190
v 6497.871103 -26267.153568 -770.739326
v 6495.490751 -26147.517870 -760.453166
v 6775.435345 -26141.947906 -760.453166
v 6776.625521 -26201.765755 -755.698190
v 6496.680927 -26207.335719 -755.698190
v 6496.680927 -26207.335719 -773.698190
v 6776.625521 -26201.765755 -773.698190
v 6775.435345 -26141.947906 -778.453166
v 6495.490751 -26147.517870 -778.453166
v 6776.625521 -26201.765755 -755.698190
v 6775.435345 -26141.947906 -760.453166
v 6775.435345 -26141.947906 -778.453166
v 6776.625521 -26201.765755 -773.698190
v 6496.680927 -26207.335719 -755.698190
v 6495.490751 -26147.517870 -760.453166
v 6495.490751 -26147.517870 -778.453166
v 6496.680927 -26207.335719 -773.698190
v 6781.386224 -26441.037151 -760.189697
v 6501.441630 -26446.607115 -760.189697
v 6501.441630 -26446.607115 -778.189697
v 6781.386224 -26441.037151 -778.189697
v 6775.435345 -26141.947906 -760.453166
v 6495.490751 -26147.517870 -760.453166
v 6495.490751 -26147.517870 -778.453166
v 6775.435345 -26141.947906 -778.453166
vt 32.501257 131.933946
vt 33.900980 131.906097
vt 33.906931 132.205186
vt 32.507208 132.233036
vt 32.507208 132.233036
vt 33.906931 132.205186
vt 33.900980 131.906097
vt 32.501257 131.933946
vt 33.906931 132.205186
vt 33.900980 131.906097
vt 33.900980 131.906097
vt 33.906931 132.205186
vt 32.507208 132.233036
vt 32.501257 131.933946
vt 32.501257 131.933946
vt 32.507208 132.233036
vt 32.495306 131.634857
vt 33.895029 131.607007
vt 33.900980 131.906097
vt 32.501257 131.933946
vt 32.501257 131.933946
vt 33.900980 131.906097
vt 33.895029 131.607007
vt 32.495306 131.634857
vt 33.900980 131.906097
vt 33.895029 131.607007
vt 33.895029 131.607007
vt 33.900980 131.906097
vt 32.501257 131.933946
vt 32.495306 131.634857
vt 32.495306 131.634857
vt 32.501257 131.933946
vt 32.489356 131.335768
vt 33.889078 131.307918
vt 33.895029 131.607007
vt 32.495306 131.634857
vt 32.495306 131.634857
vt 33.895029 131.607007
vt 33.889078 131.307918
vt 32.489356 131.335768
vt 33.895029 131.607007
vt 33.889078 131.307918
vt 33.889078 131.307918
vt 33.895029 131.607007
vt 32.495306 131.634857
vt 32.489356 131.335768
vt 32.489356 131.335768
vt 32.495306 131.634857
vt 32.483405 131.036679
vt 33.883128 131.008829
vt 33.889078 131.307918
vt 32.489356 131.335768
vt 32.489356 131.335768
vt 33.889078 131.307918
vt 33.883128 131.008829
vt 32.483405 131.036679
vt 33.889078 131.307918
vt 33.883128 131.008829
vt 33.883128 131.008829
vt 33.889078 131.307918
vt 32.489356 131.335768
vt 32.483405 131.036679
vt 32.483405 131.036679
vt 32.489356 131.335768
vt 32.477454 130.737589
vt 33.877177 130.709740
vt 33.883128 131.008829
vt 32.483405 131.036679
vt 32.483405 131.036679
vt 33.883128 131.008829
vt 33.877177 130.709740
vt 32.477454 130.737589
vt 33.883128 131.008829
vt 33.877177 130.709740
vt 33.877177 130.709740
vt 33.883128 131.008829
vt 32.483405 131.036679
vt 32.477454 130.737589
vt 32.477454 130.737589
vt 32.483405 131.036679
vt 33.906931 132.205186
vt 32.507208 132.233036
vt 32.507208 132.233036
vt 33.906931 132.205186
vt 33.877177 130.709740
vt 32.477454 130.737589
vt 32.477454 130.737589
vt 33.877177 130.709740
f 3/3 2/2 1/1
f 4/4 3/3 1/1
f 7/7 6/6 5/5
f 8/8 7/7 5/5
f 11/11 10/10 9/9
f 12/12 11/11 9/9
f 15/15 14/14 13/13
f 16/16 15/15 13/13
f 19/19 18/18 17/17
f 20/20 19/19 17/17
f 23/23 22/22 21/21
f 24/24 23/23 21/21
f 27/27 26/26 25/25
f 28/28 27/27 25/25
f 31/31 30/30 29/29
f 32/32 31/31 29/29
f 35/35 34/34 33/33
f 36/36 35/35 33/33
f 39/39 38/38 37/37
f 40/40 39/39 37/37
f 43/43 42/42 41/41
f 44/44 43/43 41/41
f 47/47 46/46 45/45
f 48/48 47/47 45/45
f 51/51 50/50 49/49
f 52/52 51/51 49/49
f 55/55 54/54 53/53
f 56/56 55/55 53/53
f 59/59 58/58 57/57
f 60/60 59/59 57/57
f 63/63 62/62 61/61
f 64/64 63/63 61/61
f 67/67 66/66 65/65
f 68/68 67/67 65/65
f 71/71 70/70 69/69
f 72/72 71/71 69/69
f 75/75 74/74 73/73
f 76/76 75/75 73/73
f 79/79 78/78 77/77
f 80/80 79/79 77/77
f 83/83 82/82 81/81
f 84/84 83/83 81/81
f 87/87 86/86 85/85
f 88/88 87/87 85/85
