# OSM contributors ODbL; authored bridge elevation
o ParkBridge_1384353622_Deck
v 4569.083181 -38135.723785 -677.793995
v 4787.493254 -37960.518076 -677.793995
v 4826.608467 -38009.278796 -668.365356
v 4608.198394 -38184.484505 -668.365356
v 4608.198394 -38184.484505 -686.365356
v 4826.608467 -38009.278796 -686.365356
v 4787.493254 -37960.518076 -695.793995
v 4569.083181 -38135.723785 -695.793995
v 4826.608467 -38009.278796 -668.365356
v 4787.493254 -37960.518076 -677.793995
v 4787.493254 -37960.518076 -695.793995
v 4826.608467 -38009.278796 -686.365356
v 4608.198394 -38184.484505 -668.365356
v 4569.083181 -38135.723785 -677.793995
v 4569.083181 -38135.723785 -695.793995
v 4608.198394 -38184.484505 -686.365356
v 4529.967968 -38086.963064 -687.405228
v 4748.378040 -37911.757356 -687.405228
v 4787.493254 -37960.518076 -677.793995
v 4569.083181 -38135.723785 -677.793995
v 4569.083181 -38135.723785 -695.793995
v 4787.493254 -37960.518076 -695.793995
v 4748.378040 -37911.757356 -705.405228
v 4529.967968 -38086.963064 -705.405228
v 4787.493254 -37960.518076 -677.793995
v 4748.378040 -37911.757356 -687.405228
v 4748.378040 -37911.757356 -705.405228
v 4787.493254 -37960.518076 -695.793995
v 4569.083181 -38135.723785 -677.793995
v 4529.967968 -38086.963064 -687.405228
v 4529.967968 -38086.963064 -705.405228
v 4569.083181 -38135.723785 -695.793995
v 4490.852755 -38038.202344 -697.366856
v 4709.262827 -37862.996636 -697.366856
v 4748.378040 -37911.757356 -687.405228
v 4529.967968 -38086.963064 -687.405228
v 4529.967968 -38086.963064 -705.405228
v 4748.378040 -37911.757356 -705.405228
v 4709.262827 -37862.996636 -715.366856
v 4490.852755 -38038.202344 -715.366856
v 4748.378040 -37911.757356 -687.405228
v 4709.262827 -37862.996636 -697.366856
v 4709.262827 -37862.996636 -715.366856
v 4748.378040 -37911.757356 -705.405228
v 4529.967968 -38086.963064 -687.405228
v 4490.852755 -38038.202344 -697.366856
v 4490.852755 -38038.202344 -715.366856
v 4529.967968 -38086.963064 -705.405228
v 4451.737542 -37989.441624 -707.818296
v 4670.147614 -37814.235915 -707.818296
v 4709.262827 -37862.996636 -697.366856
v 4490.852755 -38038.202344 -697.366856
v 4490.852755 -38038.202344 -715.366856
v 4709.262827 -37862.996636 -715.366856
v 4670.147614 -37814.235915 -725.818296
v 4451.737542 -37989.441624 -725.818296
v 4709.262827 -37862.996636 -697.366856
v 4670.147614 -37814.235915 -707.818296
v 4670.147614 -37814.235915 -725.818296
v 4709.262827 -37862.996636 -715.366856
v 4490.852755 -38038.202344 -697.366856
v 4451.737542 -37989.441624 -707.818296
v 4451.737542 -37989.441624 -725.818296
v 4490.852755 -38038.202344 -715.366856
v 4412.622329 -37940.680904 -718.859279
v 4631.032401 -37765.475195 -718.859279
v 4670.147614 -37814.235915 -707.818296
v 4451.737542 -37989.441624 -707.818296
v 4451.737542 -37989.441624 -725.818296
v 4670.147614 -37814.235915 -725.818296
v 4631.032401 -37765.475195 -736.859279
v 4412.622329 -37940.680904 -736.859279
v 4670.147614 -37814.235915 -707.818296
v 4631.032401 -37765.475195 -718.859279
v 4631.032401 -37765.475195 -736.859279
v 4670.147614 -37814.235915 -725.818296
v 4451.737542 -37989.441624 -707.818296
v 4412.622329 -37940.680904 -718.859279
v 4412.622329 -37940.680904 -736.859279
v 4451.737542 -37989.441624 -725.818296
v 4373.507116 -37891.920184 -730.541778
v 4591.917188 -37716.714475 -730.541778
v 4631.032401 -37765.475195 -718.859279
v 4412.622329 -37940.680904 -718.859279
v 4412.622329 -37940.680904 -736.859279
v 4631.032401 -37765.475195 -736.859279
v 4591.917188 -37716.714475 -748.541778
v 4373.507116 -37891.920184 -748.541778
v 4631.032401 -37765.475195 -718.859279
v 4591.917188 -37716.714475 -730.541778
v 4591.917188 -37716.714475 -748.541778
v 4631.032401 -37765.475195 -736.859279
v 4412.622329 -37940.680904 -718.859279
v 4373.507116 -37891.920184 -730.541778
v 4373.507116 -37891.920184 -748.541778
v 4412.622329 -37940.680904 -736.859279
v 4334.391902 -37843.159463 -742.450846
v 4552.801975 -37667.953755 -742.450846
v 4591.917188 -37716.714475 -730.541778
v 4373.507116 -37891.920184 -730.541778
v 4373.507116 -37891.920184 -748.541778
v 4591.917188 -37716.714475 -748.541778
v 4552.801975 -37667.953755 -760.450846
v 4334.391902 -37843.159463 -760.450846
v 4591.917188 -37716.714475 -730.541778
v 4552.801975 -37667.953755 -742.450846
v 4552.801975 -37667.953755 -760.450846
v 4591.917188 -37716.714475 -748.541778
v 4373.507116 -37891.920184 -730.541778
v 4334.391902 -37843.159463 -742.450846
v 4334.391902 -37843.159463 -760.450846
v 4373.507116 -37891.920184 -748.541778
v 4295.276689 -37794.398743 -753.820679
v 4513.686762 -37619.193035 -753.820679
v 4552.801975 -37667.953755 -742.450846
v 4334.391902 -37843.159463 -742.450846
v 4334.391902 -37843.159463 -760.450846
v 4552.801975 -37667.953755 -760.450846
v 4513.686762 -37619.193035 -771.820679
v 4295.276689 -37794.398743 -771.820679
v 4552.801975 -37667.953755 -742.450846
v 4513.686762 -37619.193035 -753.820679
v 4513.686762 -37619.193035 -771.820679
v 4552.801975 -37667.953755 -760.450846
v 4334.391902 -37843.159463 -742.450846
v 4295.276689 -37794.398743 -753.820679
v 4295.276689 -37794.398743 -771.820679
v 4334.391902 -37843.159463 -760.450846
v 4256.161476 -37745.638023 -768.212769
v 4474.571548 -37570.432314 -768.212769
v 4513.686762 -37619.193035 -753.820679
v 4295.276689 -37794.398743 -753.820679
v 4295.276689 -37794.398743 -771.820679
v 4513.686762 -37619.193035 -771.820679
v 4474.571548 -37570.432314 -786.212769
v 4256.161476 -37745.638023 -786.212769
v 4513.686762 -37619.193035 -753.820679
v 4474.571548 -37570.432314 -768.212769
v 4474.571548 -37570.432314 -786.212769
v 4513.686762 -37619.193035 -771.820679
v 4295.276689 -37794.398743 -753.820679
v 4256.161476 -37745.638023 -768.212769
v 4256.161476 -37745.638023 -786.212769
v 4295.276689 -37794.398743 -771.820679
v 4217.046263 -37696.877303 -781.443156
v 4435.456335 -37521.671594 -781.443156
v 4474.571548 -37570.432314 -768.212769
v 4256.161476 -37745.638023 -768.212769
v 4256.161476 -37745.638023 -786.212769
v 4474.571548 -37570.432314 -786.212769
v 4435.456335 -37521.671594 -799.443156
v 4217.046263 -37696.877303 -799.443156
v 4474.571548 -37570.432314 -768.212769
v 4435.456335 -37521.671594 -781.443156
v 4435.456335 -37521.671594 -799.443156
v 4474.571548 -37570.432314 -786.212769
v 4256.161476 -37745.638023 -768.212769
v 4217.046263 -37696.877303 -781.443156
v 4217.046263 -37696.877303 -799.443156
v 4256.161476 -37745.638023 -786.212769
v 4177.931050 -37648.116582 -796.872843
v 4396.341122 -37472.910874 -796.872843
v 4435.456335 -37521.671594 -781.443156
v 4217.046263 -37696.877303 -781.443156
v 4217.046263 -37696.877303 -799.443156
v 4435.456335 -37521.671594 -799.443156
v 4396.341122 -37472.910874 -814.872843
v 4177.931050 -37648.116582 -814.872843
v 4435.456335 -37521.671594 -781.443156
v 4396.341122 -37472.910874 -796.872843
v 4396.341122 -37472.910874 -814.872843
v 4435.456335 -37521.671594 -799.443156
v 4217.046263 -37696.877303 -781.443156
v 4177.931050 -37648.116582 -796.872843
v 4177.931050 -37648.116582 -814.872843
v 4217.046263 -37696.877303 -799.443156
v 4826.608467 -38009.278796 -668.365356
v 4608.198394 -38184.484505 -668.365356
v 4608.198394 -38184.484505 -686.365356
v 4826.608467 -38009.278796 -686.365356
v 4396.341122 -37472.910874 -796.872843
v 4177.931050 -37648.116582 -796.872843
v 4177.931050 -37648.116582 -814.872843
v 4396.341122 -37472.910874 -814.872843
vt 22.845416 190.678619
vt 23.937466 189.802590
vt 24.133042 190.046394
vt 23.040992 190.922423
vt 23.040992 190.922423
vt 24.133042 190.046394
vt 23.937466 189.802590
vt 22.845416 190.678619
vt 24.133042 190.046394
vt 23.937466 189.802590
vt 23.937466 189.802590
vt 24.133042 190.046394
vt 23.040992 190.922423
vt 22.845416 190.678619
vt 22.845416 190.678619
vt 23.040992 190.922423
vt 22.649840 190.434815
vt 23.741890 189.558787
vt 23.937466 189.802590
vt 22.845416 190.678619
vt 22.845416 190.678619
vt 23.937466 189.802590
vt 23.741890 189.558787
vt 22.649840 190.434815
vt 23.937466 189.802590
vt 23.741890 189.558787
vt 23.741890 189.558787
vt 23.937466 189.802590
vt 22.845416 190.678619
vt 22.649840 190.434815
vt 22.649840 190.434815
vt 22.845416 190.678619
vt 22.454264 190.191012
vt 23.546314 189.314983
vt 23.741890 189.558787
vt 22.649840 190.434815
vt 22.649840 190.434815
vt 23.741890 189.558787
vt 23.546314 189.314983
vt 22.454264 190.191012
vt 23.741890 189.558787
vt 23.546314 189.314983
vt 23.546314 189.314983
vt 23.741890 189.558787
vt 22.649840 190.434815
vt 22.454264 190.191012
vt 22.454264 190.191012
vt 22.649840 190.434815
vt 22.258688 189.947208
vt 23.350738 189.071180
vt 23.546314 189.314983
vt 22.454264 190.191012
vt 22.454264 190.191012
vt 23.546314 189.314983
vt 23.350738 189.071180
vt 22.258688 189.947208
vt 23.546314 189.314983
vt 23.350738 189.071180
vt 23.350738 189.071180
vt 23.546314 189.314983
vt 22.454264 190.191012
vt 22.258688 189.947208
vt 22.258688 189.947208
vt 22.454264 190.191012
vt 22.063112 189.703405
vt 23.155162 188.827376
vt 23.350738 189.071180
vt 22.258688 189.947208
vt 22.258688 189.947208
vt 23.350738 189.071180
vt 23.155162 188.827376
vt 22.063112 189.703405
vt 23.350738 189.071180
vt 23.155162 188.827376
vt 23.155162 188.827376
vt 23.350738 189.071180
vt 22.258688 189.947208
vt 22.063112 189.703405
vt 22.063112 189.703405
vt 22.258688 189.947208
vt 21.867536 189.459601
vt 22.959586 188.583572
vt 23.155162 188.827376
vt 22.063112 189.703405
vt 22.063112 189.703405
vt 23.155162 188.827376
vt 22.959586 188.583572
vt 21.867536 189.459601
vt 23.155162 188.827376
vt 22.959586 188.583572
vt 22.959586 188.583572
vt 23.155162 188.827376
vt 22.063112 189.703405
vt 21.867536 189.459601
vt 21.867536 189.459601
vt 22.063112 189.703405
vt 21.671960 189.215797
vt 22.764010 188.339769
vt 22.959586 188.583572
vt 21.867536 189.459601
vt 21.867536 189.459601
vt 22.959586 188.583572
vt 22.764010 188.339769
vt 21.671960 189.215797
vt 22.959586 188.583572
vt 22.764010 188.339769
vt 22.764010 188.339769
vt 22.959586 188.583572
vt 21.867536 189.459601
vt 21.671960 189.215797
vt 21.671960 189.215797
vt 21.867536 189.459601
vt 21.476383 188.971994
vt 22.568434 188.095965
vt 22.764010 188.339769
vt 21.671960 189.215797
vt 21.671960 189.215797
vt 22.764010 188.339769
vt 22.568434 188.095965
vt 21.476383 188.971994
vt 22.764010 188.339769
vt 22.568434 188.095965
vt 22.568434 188.095965
vt 22.764010 188.339769
vt 21.671960 189.215797
vt 21.476383 188.971994
vt 21.476383 188.971994
vt 21.671960 189.215797
vt 21.280807 188.728190
vt 22.372858 187.852162
vt 22.568434 188.095965
vt 21.476383 188.971994
vt 21.476383 188.971994
vt 22.568434 188.095965
vt 22.372858 187.852162
vt 21.280807 188.728190
vt 22.568434 188.095965
vt 22.372858 187.852162
vt 22.372858 187.852162
vt 22.568434 188.095965
vt 21.476383 188.971994
vt 21.280807 188.728190
vt 21.280807 188.728190
vt 21.476383 188.971994
vt 21.085231 188.484387
vt 22.177282 187.608358
vt 22.372858 187.852162
vt 21.280807 188.728190
vt 21.280807 188.728190
vt 22.372858 187.852162
vt 22.177282 187.608358
vt 21.085231 188.484387
vt 22.372858 187.852162
vt 22.177282 187.608358
vt 22.177282 187.608358
vt 22.372858 187.852162
vt 21.280807 188.728190
vt 21.085231 188.484387
vt 21.085231 188.484387
vt 21.280807 188.728190
vt 20.889655 188.240583
vt 21.981706 187.364554
vt 22.177282 187.608358
vt 21.085231 188.484387
vt 21.085231 188.484387
vt 22.177282 187.608358
vt 21.981706 187.364554
vt 20.889655 188.240583
vt 22.177282 187.608358
vt 21.981706 187.364554
vt 21.981706 187.364554
vt 22.177282 187.608358
vt 21.085231 188.484387
vt 20.889655 188.240583
vt 20.889655 188.240583
vt 21.085231 188.484387
vt 24.133042 190.046394
vt 23.040992 190.922423
vt 23.040992 190.922423
vt 24.133042 190.046394
vt 21.981706 187.364554
vt 20.889655 188.240583
vt 20.889655 188.240583
vt 21.981706 187.364554
f 3/3 2/2 1/1
f 4/4 3/3 1/1
f 7/7 6/6 5/5
f 8/8 7/7 5/5
f 11/11 10/10 9/9
f 12/12 11/11 9/9
f 15/15 14/14 13/13
f 16/16 15/15 13/13
f 19/19 18/18 17/17
f 20/20 19/19 17/17
f 23/23 22/22 21/21
f 24/24 23/23 21/21
f 27/27 26/26 25/25
f 28/28 27/27 25/25
f 31/31 30/30 29/29
f 32/32 31/31 29/29
f 35/35 34/34 33/33
f 36/36 35/35 33/33
f 39/39 38/38 37/37
f 40/40 39/39 37/37
f 43/43 42/42 41/41
f 44/44 43/43 41/41
f 47/47 46/46 45/45
f 48/48 47/47 45/45
f 51/51 50/50 49/49
f 52/52 51/51 49/49
f 55/55 54/54 53/53
f 56/56 55/55 53/53
f 59/59 58/58 57/57
f 60/60 59/59 57/57
f 63/63 62/62 61/61
f 64/64 63/63 61/61
f 67/67 66/66 65/65
f 68/68 67/67 65/65
f 71/71 70/70 69/69
f 72/72 71/71 69/69
f 75/75 74/74 73/73
f 76/76 75/75 73/73
f 79/79 78/78 77/77
f 80/80 79/79 77/77
f 83/83 82/82 81/81
f 84/84 83/83 81/81
f 87/87 86/86 85/85
f 88/88 87/87 85/85
f 91/91 90/90 89/89
f 92/92 91/91 89/89
f 95/95 94/94 93/93
f 96/96 95/95 93/93
f 99/99 98/98 97/97
f 100/100 99/99 97/97
f 103/103 102/102 101/101
f 104/104 103/103 101/101
f 107/107 106/106 105/105
f 108/108 107/107 105/105
f 111/111 110/110 109/109
f 112/112 111/111 109/109
f 115/115 114/114 113/113
f 116/116 115/115 113/113
f 119/119 118/118 117/117
f 120/120 119/119 117/117
f 123/123 122/122 121/121
f 124/124 123/123 121/121
f 127/127 126/126 125/125
f 128/128 127/127 125/125
f 131/131 130/130 129/129
f 132/132 131/131 129/129
f 135/135 134/134 133/133
f 136/136 135/135 133/133
f 139/139 138/138 137/137
f 140/140 139/139 137/137
f 143/143 142/142 141/141
f 144/144 143/143 141/141
f 147/147 146/146 145/145
f 148/148 147/147 145/145
f 151/151 150/150 149/149
f 152/152 151/151 149/149
f 155/155 154/154 153/153
f 156/156 155/155 153/153
f 159/159 158/158 157/157
f 160/160 159/159 157/157
f 163/163 162/162 161/161
f 164/164 163/163 161/161
f 167/167 166/166 165/165
f 168/168 167/167 165/165
f 171/171 170/170 169/169
f 172/172 171/171 169/169
f 175/175 174/174 173/173
f 176/176 175/175 173/173
f 179/179 178/178 177/177
f 180/180 179/179 177/177
f 183/183 182/182 181/181
f 184/184 183/183 181/181
