# OSM contributors ODbL; authored bridge elevation
o ParkBridge_226324512_Wood
v 8850.397539 -37508.997905 -906.553337
v 8726.009902 -37759.851879 -906.553337
v 8667.878755 -37731.027157 -907.908508
v 8792.266391 -37480.173183 -907.908508
v 8792.266391 -37480.173183 -925.908508
v 8667.878755 -37731.027157 -925.908508
v 8726.009902 -37759.851879 -924.553337
v 8850.397539 -37508.997905 -924.553337
v 8667.878755 -37731.027157 -907.908508
v 8726.009902 -37759.851879 -906.553337
v 8726.009902 -37759.851879 -924.553337
v 8667.878755 -37731.027157 -925.908508
v 8792.266391 -37480.173183 -907.908508
v 8850.397539 -37508.997905 -906.553337
v 8850.397539 -37508.997905 -924.553337
v 8792.266391 -37480.173183 -925.908508
v 8908.528686 -37537.822627 -905.234083
v 8784.141050 -37788.676601 -905.234083
v 8726.009902 -37759.851879 -906.553337
v 8850.397539 -37508.997905 -906.553337
v 8850.397539 -37508.997905 -924.553337
v 8726.009902 -37759.851879 -924.553337
v 8784.141050 -37788.676601 -923.234083
v 8908.528686 -37537.822627 -923.234083
v 8726.009902 -37759.851879 -906.553337
v 8784.141050 -37788.676601 -905.234083
v 8784.141050 -37788.676601 -923.234083
v 8726.009902 -37759.851879 -924.553337
v 8850.397539 -37508.997905 -906.553337
v 8908.528686 -37537.822627 -905.234083
v 8908.528686 -37537.822627 -923.234083
v 8850.397539 -37508.997905 -924.553337
v 8966.659834 -37566.647349 -903.985685
v 8842.272197 -37817.501322 -903.985685
v 8784.141050 -37788.676601 -905.234083
v 8908.528686 -37537.822627 -905.234083
v 8908.528686 -37537.822627 -923.234083
v 8784.141050 -37788.676601 -923.234083
v 8842.272197 -37817.501322 -921.985685
v 8966.659834 -37566.647349 -921.985685
v 8784.141050 -37788.676601 -905.234083
v 8842.272197 -37817.501322 -903.985685
v 8842.272197 -37817.501322 -921.985685
v 8784.141050 -37788.676601 -923.234083
v 8908.528686 -37537.822627 -905.234083
v 8966.659834 -37566.647349 -903.985685
v 8966.659834 -37566.647349 -921.985685
v 8908.528686 -37537.822627 -923.234083
v 9024.790981 -37595.472071 -902.841148
v 8900.403345 -37846.326044 -902.841148
v 8842.272197 -37817.501322 -903.985685
v 8966.659834 -37566.647349 -903.985685
v 8966.659834 -37566.647349 -921.985685
v 8842.272197 -37817.501322 -921.985685
v 8900.403345 -37846.326044 -920.841148
v 9024.790981 -37595.472071 -920.841148
v 8842.272197 -37817.501322 -903.985685
v 8900.403345 -37846.326044 -902.841148
v 8900.403345 -37846.326044 -920.841148
v 8842.272197 -37817.501322 -921.985685
v 8966.659834 -37566.647349 -903.985685
v 9024.790981 -37595.472071 -902.841148
v 9024.790981 -37595.472071 -920.841148
v 8966.659834 -37566.647349 -921.985685
v 9082.922129 -37624.296793 -901.830644
v 8958.534492 -37875.150766 -901.830644
v 8900.403345 -37846.326044 -902.841148
v 9024.790981 -37595.472071 -902.841148
v 9024.790981 -37595.472071 -920.841148
v 8900.403345 -37846.326044 -920.841148
v 8958.534492 -37875.150766 -919.830644
v 9082.922129 -37624.296793 -919.830644
v 8900.403345 -37846.326044 -902.841148
v 8958.534492 -37875.150766 -901.830644
v 8958.534492 -37875.150766 -919.830644
v 8900.403345 -37846.326044 -920.841148
v 9024.790981 -37595.472071 -902.841148
v 9082.922129 -37624.296793 -901.830644
v 9082.922129 -37624.296793 -919.830644
v 9024.790981 -37595.472071 -920.841148
v 9141.053276 -37653.121515 -900.980688
v 9016.665640 -37903.975488 -900.980688
v 8958.534492 -37875.150766 -901.830644
v 9082.922129 -37624.296793 -901.830644
v 9082.922129 -37624.296793 -919.830644
v 8958.534492 -37875.150766 -919.830644
v 9016.665640 -37903.975488 -918.980688
v 9141.053276 -37653.121515 -918.980688
v 8958.534492 -37875.150766 -901.830644
v 9016.665640 -37903.975488 -900.980688
v 9016.665640 -37903.975488 -918.980688
v 8958.534492 -37875.150766 -919.830644
v 9082.922129 -37624.296793 -901.830644
v 9141.053276 -37653.121515 -900.980688
v 9141.053276 -37653.121515 -918.980688
v 9082.922129 -37624.296793 -919.830644
v 9199.184423 -37681.946237 -900.313419
v 9074.796787 -37932.800210 -900.313419
v 9016.665640 -37903.975488 -900.980688
v 9141.053276 -37653.121515 -900.980688
v 9141.053276 -37653.121515 -918.980688
v 9016.665640 -37903.975488 -918.980688
v 9074.796787 -37932.800210 -918.313419
v 9199.184423 -37681.946237 -918.313419
v 9016.665640 -37903.975488 -900.980688
v 9074.796787 -37932.800210 -900.313419
v 9074.796787 -37932.800210 -918.313419
v 9016.665640 -37903.975488 -918.980688
v 9141.053276 -37653.121515 -900.980688
v 9199.184423 -37681.946237 -900.313419
v 9199.184423 -37681.946237 -918.313419
v 9141.053276 -37653.121515 -918.980688
v 9257.315571 -37710.770959 -899.845989
v 9132.927934 -37961.624932 -899.845989
v 9074.796787 -37932.800210 -900.313419
v 9199.184423 -37681.946237 -900.313419
v 9199.184423 -37681.946237 -918.313419
v 9074.796787 -37932.800210 -918.313419
v 9132.927934 -37961.624932 -917.845989
v 9257.315571 -37710.770959 -917.845989
v 9074.796787 -37932.800210 -900.313419
v 9132.927934 -37961.624932 -899.845989
v 9132.927934 -37961.624932 -917.845989
v 9074.796787 -37932.800210 -918.313419
v 9199.184423 -37681.946237 -900.313419
v 9257.315571 -37710.770959 -899.845989
v 9257.315571 -37710.770959 -917.845989
v 9199.184423 -37681.946237 -918.313419
v 9315.446718 -37739.595681 -899.590100
v 9191.059082 -37990.449654 -899.590100
v 9132.927934 -37961.624932 -899.845989
v 9257.315571 -37710.770959 -899.845989
v 9257.315571 -37710.770959 -917.845989
v 9132.927934 -37961.624932 -917.845989
v 9191.059082 -37990.449654 -917.590100
v 9315.446718 -37739.595681 -917.590100
v 9132.927934 -37961.624932 -899.845989
v 9191.059082 -37990.449654 -899.590100
v 9191.059082 -37990.449654 -917.590100
v 9132.927934 -37961.624932 -917.845989
v 9257.315571 -37710.770959 -899.845989
v 9315.446718 -37739.595681 -899.590100
v 9315.446718 -37739.595681 -917.590100
v 9257.315571 -37710.770959 -917.845989
v 9373.577866 -37768.420403 -899.551686
v 9249.190229 -38019.274376 -899.551686
v 9191.059082 -37990.449654 -899.590100
v 9315.446718 -37739.595681 -899.590100
v 9315.446718 -37739.595681 -917.590100
v 9191.059082 -37990.449654 -917.590100
v 9249.190229 -38019.274376 -917.551686
v 9373.577866 -37768.420403 -917.551686
v 9191.059082 -37990.449654 -899.590100
v 9249.190229 -38019.274376 -899.551686
v 9249.190229 -38019.274376 -917.551686
v 9191.059082 -37990.449654 -917.590100
v 9315.446718 -37739.595681 -899.590100
v 9373.577866 -37768.420403 -899.551686
v 9373.577866 -37768.420403 -917.551686
v 9315.446718 -37739.595681 -917.590100
v 9431.709013 -37797.245125 -899.730745
v 9307.321377 -38048.099098 -899.730745
v 9249.190229 -38019.274376 -899.551686
v 9373.577866 -37768.420403 -899.551686
v 9373.577866 -37768.420403 -917.551686
v 9249.190229 -38019.274376 -917.551686
v 9307.321377 -38048.099098 -917.730745
v 9431.709013 -37797.245125 -917.730745
v 9249.190229 -38019.274376 -899.551686
v 9307.321377 -38048.099098 -899.730745
v 9307.321377 -38048.099098 -917.730745
v 9249.190229 -38019.274376 -917.551686
v 9373.577866 -37768.420403 -899.551686
v 9431.709013 -37797.245125 -899.730745
v 9431.709013 -37797.245125 -917.730745
v 9373.577866 -37768.420403 -917.551686
v 9489.840161 -37826.069847 -900.121346
v 9365.452524 -38076.923820 -900.121346
v 9307.321377 -38048.099098 -899.730745
v 9431.709013 -37797.245125 -899.730745
v 9431.709013 -37797.245125 -917.730745
v 9307.321377 -38048.099098 -917.730745
v 9365.452524 -38076.923820 -918.121346
v 9489.840161 -37826.069847 -918.121346
v 9307.321377 -38048.099098 -899.730745
v 9365.452524 -38076.923820 -900.121346
v 9365.452524 -38076.923820 -918.121346
v 9307.321377 -38048.099098 -917.730745
v 9431.709013 -37797.245125 -899.730745
v 9489.840161 -37826.069847 -900.121346
v 9489.840161 -37826.069847 -918.121346
v 9431.709013 -37797.245125 -917.730745
v 9547.971308 -37854.894569 -900.711786
v 9423.583672 -38105.748542 -900.711786
v 9365.452524 -38076.923820 -900.121346
v 9489.840161 -37826.069847 -900.121346
v 9489.840161 -37826.069847 -918.121346
v 9365.452524 -38076.923820 -918.121346
v 9423.583672 -38105.748542 -918.711786
v 9547.971308 -37854.894569 -918.711786
v 9365.452524 -38076.923820 -900.121346
v 9423.583672 -38105.748542 -900.711786
v 9423.583672 -38105.748542 -918.711786
v 9365.452524 -38076.923820 -918.121346
v 9489.840161 -37826.069847 -900.121346
v 9547.971308 -37854.894569 -900.711786
v 9547.971308 -37854.894569 -918.711786
v 9489.840161 -37826.069847 -918.121346
v 9606.102456 -37883.719291 -901.484912
v 9481.714819 -38134.573264 -901.484912
v 9423.583672 -38105.748542 -900.711786
v 9547.971308 -37854.894569 -900.711786
v 9547.971308 -37854.894569 -918.711786
v 9423.583672 -38105.748542 -918.711786
v 9481.714819 -38134.573264 -919.484912
v 9606.102456 -37883.719291 -919.484912
v 9423.583672 -38105.748542 -900.711786
v 9481.714819 -38134.573264 -901.484912
v 9481.714819 -38134.573264 -919.484912
v 9423.583672 -38105.748542 -918.711786
v 9547.971308 -37854.894569 -900.711786
v 9606.102456 -37883.719291 -901.484912
v 9606.102456 -37883.719291 -919.484912
v 9547.971308 -37854.894569 -918.711786
v 9664.233603 -37912.544013 -902.418587
v 9539.845967 -38163.397986 -902.418587
v 9481.714819 -38134.573264 -901.484912
v 9606.102456 -37883.719291 -901.484912
v 9606.102456 -37883.719291 -919.484912
v 9481.714819 -38134.573264 -919.484912
v 9539.845967 -38163.397986 -920.418587
v 9664.233603 -37912.544013 -920.418587
v 9481.714819 -38134.573264 -901.484912
v 9539.845967 -38163.397986 -902.418587
v 9539.845967 -38163.397986 -920.418587
v 9481.714819 -38134.573264 -919.484912
v 9606.102456 -37883.719291 -901.484912
v 9664.233603 -37912.544013 -902.418587
v 9664.233603 -37912.544013 -920.418587
v 9606.102456 -37883.719291 -919.484912
v 9722.364750 -37941.368735 -903.486294
v 9597.977114 -38192.222708 -903.486294
v 9539.845967 -38163.397986 -902.418587
v 9664.233603 -37912.544013 -902.418587
v 9664.233603 -37912.544013 -920.418587
v 9539.845967 -38163.397986 -920.418587
v 9597.977114 -38192.222708 -921.486294
v 9722.364750 -37941.368735 -921.486294
v 9539.845967 -38163.397986 -902.418587
v 9597.977114 -38192.222708 -903.486294
v 9597.977114 -38192.222708 -921.486294
v 9539.845967 -38163.397986 -920.418587
v 9664.233603 -37912.544013 -902.418587
v 9722.364750 -37941.368735 -903.486294
v 9722.364750 -37941.368735 -921.486294
v 9664.233603 -37912.544013 -920.418587
v 9780.495898 -37970.193457 -904.657863
v 9656.108261 -38221.047430 -904.657863
v 9597.977114 -38192.222708 -903.486294
v 9722.364750 -37941.368735 -903.486294
v 9722.364750 -37941.368735 -921.486294
v 9597.977114 -38192.222708 -921.486294
v 9656.108261 -38221.047430 -922.657863
v 9780.495898 -37970.193457 -922.657863
v 9597.977114 -38192.222708 -903.486294
v 9656.108261 -38221.047430 -904.657863
v 9656.108261 -38221.047430 -922.657863
v 9597.977114 -38192.222708 -921.486294
v 9722.364750 -37941.368735 -903.486294
v 9780.495898 -37970.193457 -904.657863
v 9780.495898 -37970.193457 -922.657863
v 9722.364750 -37941.368735 -921.486294
v 9838.627045 -37999.018178 -905.900288
v 9714.239409 -38249.872152 -905.900288
v 9656.108261 -38221.047430 -904.657863
v 9780.495898 -37970.193457 -904.657863
v 9780.495898 -37970.193457 -922.657863
v 9656.108261 -38221.047430 -922.657863
v 9714.239409 -38249.872152 -923.900288
v 9838.627045 -37999.018178 -923.900288
v 9656.108261 -38221.047430 -904.657863
v 9714.239409 -38249.872152 -905.900288
v 9714.239409 -38249.872152 -923.900288
v 9656.108261 -38221.047430 -922.657863
v 9780.495898 -37970.193457 -904.657863
v 9838.627045 -37999.018178 -905.900288
v 9838.627045 -37999.018178 -923.900288
v 9780.495898 -37970.193457 -922.657863
v 9896.758193 -38027.842900 -907.178630
v 9772.370556 -38278.696874 -907.178630
v 9714.239409 -38249.872152 -905.900288
v 9838.627045 -37999.018178 -905.900288
v 9838.627045 -37999.018178 -923.900288
v 9714.239409 -38249.872152 -923.900288
v 9772.370556 -38278.696874 -925.178630
v 9896.758193 -38027.842900 -925.178630
v 9714.239409 -38249.872152 -905.900288
v 9772.370556 -38278.696874 -907.178630
v 9772.370556 -38278.696874 -925.178630
v 9714.239409 -38249.872152 -923.900288
v 9838.627045 -37999.018178 -905.900288
v 9896.758193 -38027.842900 -907.178630
v 9896.758193 -38027.842900 -925.178630
v 9838.627045 -37999.018178 -923.900288
v 8667.878755 -37731.027157 -907.908508
v 8792.266391 -37480.173183 -907.908508
v 8792.266391 -37480.173183 -925.908508
v 8667.878755 -37731.027157 -925.908508
v 9772.370556 -38278.696874 -907.178630
v 9896.758193 -38027.842900 -907.178630
v 9896.758193 -38027.842900 -925.178630
v 9772.370556 -38278.696874 -925.178630
vt 44.251988 187.544990
vt 43.630050 188.799259
vt 43.339394 188.655136
vt 43.961332 187.400866
vt 43.961332 187.400866
vt 43.339394 188.655136
vt 43.630050 188.799259
vt 44.251988 187.544990
vt 43.339394 188.655136
vt 43.630050 188.799259
vt 43.630050 188.799259
vt 43.339394 188.655136
vt 43.961332 187.400866
vt 44.251988 187.544990
vt 44.251988 187.544990
vt 43.961332 187.400866
vt 44.542643 187.689113
vt 43.920705 188.943383
vt 43.630050 188.799259
vt 44.251988 187.544990
vt 44.251988 187.544990
vt 43.630050 188.799259
vt 43.920705 188.943383
vt 44.542643 187.689113
vt 43.630050 188.799259
vt 43.920705 188.943383
vt 43.920705 188.943383
vt 43.630050 188.799259
vt 44.251988 187.544990
vt 44.542643 187.689113
vt 44.542643 187.689113
vt 44.251988 187.544990
vt 44.833299 187.833237
vt 44.211361 189.087507
vt 43.920705 188.943383
vt 44.542643 187.689113
vt 44.542643 187.689113
vt 43.920705 188.943383
vt 44.211361 189.087507
vt 44.833299 187.833237
vt 43.920705 188.943383
vt 44.211361 189.087507
vt 44.211361 189.087507
vt 43.920705 188.943383
vt 44.542643 187.689113
vt 44.833299 187.833237
vt 44.833299 187.833237
vt 44.542643 187.689113
vt 45.123955 187.977360
vt 44.502017 189.231630
vt 44.211361 189.087507
vt 44.833299 187.833237
vt 44.833299 187.833237
vt 44.211361 189.087507
vt 44.502017 189.231630
vt 45.123955 187.977360
vt 44.211361 189.087507
vt 44.502017 189.231630
vt 44.502017 189.231630
vt 44.211361 189.087507
vt 44.833299 187.833237
vt 45.123955 187.977360
vt 45.123955 187.977360
vt 44.833299 187.833237
vt 45.414611 188.121484
vt 44.792672 189.375754
vt 44.502017 189.231630
vt 45.123955 187.977360
vt 45.123955 187.977360
vt 44.502017 189.231630
vt 44.792672 189.375754
vt 45.414611 188.121484
vt 44.502017 189.231630
vt 44.792672 189.375754
vt 44.792672 189.375754
vt 44.502017 189.231630
vt 45.123955 187.977360
vt 45.414611 188.121484
vt 45.414611 188.121484
vt 45.123955 187.977360
vt 45.705266 188.265608
vt 45.083328 189.519877
vt 44.792672 189.375754
vt 45.414611 188.121484
vt 45.414611 188.121484
vt 44.792672 189.375754
vt 45.083328 189.519877
vt 45.705266 188.265608
vt 44.792672 189.375754
vt 45.083328 189.519877
vt 45.083328 189.519877
vt 44.792672 189.375754
vt 45.414611 188.121484
vt 45.705266 188.265608
vt 45.705266 188.265608
vt 45.414611 188.121484
vt 45.995922 188.409731
vt 45.373984 189.664001
vt 45.083328 189.519877
vt 45.705266 188.265608
vt 45.705266 188.265608
vt 45.083328 189.519877
vt 45.373984 189.664001
vt 45.995922 188.409731
vt 45.083328 189.519877
vt 45.373984 189.664001
vt 45.373984 189.664001
vt 45.083328 189.519877
vt 45.705266 188.265608
vt 45.995922 188.409731
vt 45.995922 188.409731
vt 45.705266 188.265608
vt 46.286578 188.553855
vt 45.664640 189.808125
vt 45.373984 189.664001
vt 45.995922 188.409731
vt 45.995922 188.409731
vt 45.373984 189.664001
vt 45.664640 189.808125
vt 46.286578 188.553855
vt 45.373984 189.664001
vt 45.664640 189.808125
vt 45.664640 189.808125
vt 45.373984 189.664001
vt 45.995922 188.409731
vt 46.286578 188.553855
vt 46.286578 188.553855
vt 45.995922 188.409731
vt 46.577234 188.697978
vt 45.955295 189.952248
vt 45.664640 189.808125
vt 46.286578 188.553855
vt 46.286578 188.553855
vt 45.664640 189.808125
vt 45.955295 189.952248
vt 46.577234 188.697978
vt 45.664640 189.808125
vt 45.955295 189.952248
vt 45.955295 189.952248
vt 45.664640 189.808125
vt 46.286578 188.553855
vt 46.577234 188.697978
vt 46.577234 188.697978
vt 46.286578 188.553855
vt 46.867889 188.842102
vt 46.245951 190.096372
vt 45.955295 189.952248
vt 46.577234 188.697978
vt 46.577234 188.697978
vt 45.955295 189.952248
vt 46.245951 190.096372
vt 46.867889 188.842102
vt 45.955295 189.952248
vt 46.245951 190.096372
vt 46.245951 190.096372
vt 45.955295 189.952248
vt 46.577234 188.697978
vt 46.867889 188.842102
vt 46.867889 188.842102
vt 46.577234 188.697978
vt 47.158545 188.986226
vt 46.536607 190.240495
vt 46.245951 190.096372
vt 46.867889 188.842102
vt 46.867889 188.842102
vt 46.245951 190.096372
vt 46.536607 190.240495
vt 47.158545 188.986226
vt 46.245951 190.096372
vt 46.536607 190.240495
vt 46.536607 190.240495
vt 46.245951 190.096372
vt 46.867889 188.842102
vt 47.158545 188.986226
vt 47.158545 188.986226
vt 46.867889 188.842102
vt 47.449201 189.130349
vt 46.827263 190.384619
vt 46.536607 190.240495
vt 47.158545 188.986226
vt 47.158545 188.986226
vt 46.536607 190.240495
vt 46.827263 190.384619
vt 47.449201 189.130349
vt 46.536607 190.240495
vt 46.827263 190.384619
vt 46.827263 190.384619
vt 46.536607 190.240495
vt 47.158545 188.986226
vt 47.449201 189.130349
vt 47.449201 189.130349
vt 47.158545 188.986226
vt 47.739857 189.274473
vt 47.117918 190.528743
vt 46.827263 190.384619
vt 47.449201 189.130349
vt 47.449201 189.130349
vt 46.827263 190.384619
vt 47.117918 190.528743
vt 47.739857 189.274473
vt 46.827263 190.384619
vt 47.117918 190.528743
vt 47.117918 190.528743
vt 46.827263 190.384619
vt 47.449201 189.130349
vt 47.739857 189.274473
vt 47.739857 189.274473
vt 47.449201 189.130349
vt 48.030512 189.418596
vt 47.408574 190.672866
vt 47.117918 190.528743
vt 47.739857 189.274473
vt 47.739857 189.274473
vt 47.117918 190.528743
vt 47.408574 190.672866
vt 48.030512 189.418596
vt 47.117918 190.528743
vt 47.408574 190.672866
vt 47.408574 190.672866
vt 47.117918 190.528743
vt 47.739857 189.274473
vt 48.030512 189.418596
vt 48.030512 189.418596
vt 47.739857 189.274473
vt 48.321168 189.562720
vt 47.699230 190.816990
vt 47.408574 190.672866
vt 48.030512 189.418596
vt 48.030512 189.418596
vt 47.408574 190.672866
vt 47.699230 190.816990
vt 48.321168 189.562720
vt 47.408574 190.672866
vt 47.699230 190.816990
vt 47.699230 190.816990
vt 47.408574 190.672866
vt 48.030512 189.418596
vt 48.321168 189.562720
vt 48.321168 189.562720
vt 48.030512 189.418596
vt 48.611824 189.706844
vt 47.989886 190.961114
vt 47.699230 190.816990
vt 48.321168 189.562720
vt 48.321168 189.562720
vt 47.699230 190.816990
vt 47.989886 190.961114
vt 48.611824 189.706844
vt 47.699230 190.816990
vt 47.989886 190.961114
vt 47.989886 190.961114
vt 47.699230 190.816990
vt 48.321168 189.562720
vt 48.611824 189.706844
vt 48.611824 189.706844
vt 48.321168 189.562720
vt 48.902479 189.850967
vt 48.280541 191.105237
vt 47.989886 190.961114
vt 48.611824 189.706844
vt 48.611824 189.706844
vt 47.989886 190.961114
vt 48.280541 191.105237
vt 48.902479 189.850967
vt 47.989886 190.961114
vt 48.280541 191.105237
vt 48.280541 191.105237
vt 47.989886 190.961114
vt 48.611824 189.706844
vt 48.902479 189.850967
vt 48.902479 189.850967
vt 48.611824 189.706844
vt 49.193135 189.995091
vt 48.571197 191.249361
vt 48.280541 191.105237
vt 48.902479 189.850967
vt 48.902479 189.850967
vt 48.280541 191.105237
vt 48.571197 191.249361
vt 49.193135 189.995091
vt 48.280541 191.105237
vt 48.571197 191.249361
vt 48.571197 191.249361
vt 48.280541 191.105237
vt 48.902479 189.850967
vt 49.193135 189.995091
vt 49.193135 189.995091
vt 48.902479 189.850967
vt 49.483791 190.139215
vt 48.861853 191.393484
vt 48.571197 191.249361
vt 49.193135 189.995091
vt 49.193135 189.995091
vt 48.571197 191.249361
vt 48.861853 191.393484
vt 49.483791 190.139215
vt 48.571197 191.249361
vt 48.861853 191.393484
vt 48.861853 191.393484
vt 48.571197 191.249361
vt 49.193135 189.995091
vt 49.483791 190.139215
vt 49.483791 190.139215
vt 49.193135 189.995091
vt 43.339394 188.655136
vt 43.961332 187.400866
vt 43.961332 187.400866
vt 43.339394 188.655136
vt 48.861853 191.393484
vt 49.483791 190.139215
vt 49.483791 190.139215
vt 48.861853 191.393484
f 3/3 2/2 1/1
f 4/4 3/3 1/1
f 7/7 6/6 5/5
f 8/8 7/7 5/5
f 11/11 10/10 9/9
f 12/12 11/11 9/9
f 15/15 14/14 13/13
f 16/16 15/15 13/13
f 19/19 18/18 17/17
f 20/20 19/19 17/17
f 23/23 22/22 21/21
f 24/24 23/23 21/21
f 27/27 26/26 25/25
f 28/28 27/27 25/25
f 31/31 30/30 29/29
f 32/32 31/31 29/29
f 35/35 34/34 33/33
f 36/36 35/35 33/33
f 39/39 38/38 37/37
f 40/40 39/39 37/37
f 43/43 42/42 41/41
f 44/44 43/43 41/41
f 47/47 46/46 45/45
f 48/48 47/47 45/45
f 51/51 50/50 49/49
f 52/52 51/51 49/49
f 55/55 54/54 53/53
f 56/56 55/55 53/53
f 59/59 58/58 57/57
f 60/60 59/59 57/57
f 63/63 62/62 61/61
f 64/64 63/63 61/61
f 67/67 66/66 65/65
f 68/68 67/67 65/65
f 71/71 70/70 69/69
f 72/72 71/71 69/69
f 75/75 74/74 73/73
f 76/76 75/75 73/73
f 79/79 78/78 77/77
f 80/80 79/79 77/77
f 83/83 82/82 81/81
f 84/84 83/83 81/81
f 87/87 86/86 85/85
f 88/88 87/87 85/85
f 91/91 90/90 89/89
f 92/92 91/91 89/89
f 95/95 94/94 93/93
f 96/96 95/95 93/93
f 99/99 98/98 97/97
f 100/100 99/99 97/97
f 103/103 102/102 101/101
f 104/104 103/103 101/101
f 107/107 106/106 105/105
f 108/108 107/107 105/105
f 111/111 110/110 109/109
f 112/112 111/111 109/109
f 115/115 114/114 113/113
f 116/116 115/115 113/113
f 119/119 118/118 117/117
f 120/120 119/119 117/117
f 123/123 122/122 121/121
f 124/124 123/123 121/121
f 127/127 126/126 125/125
f 128/128 127/127 125/125
f 131/131 130/130 129/129
f 132/132 131/131 129/129
f 135/135 134/134 133/133
f 136/136 135/135 133/133
f 139/139 138/138 137/137
f 140/140 139/139 137/137
f 143/143 142/142 141/141
f 144/144 143/143 141/141
f 147/147 146/146 145/145
f 148/148 147/147 145/145
f 151/151 150/150 149/149
f 152/152 151/151 149/149
f 155/155 154/154 153/153
f 156/156 155/155 153/153
f 159/159 158/158 157/157
f 160/160 159/159 157/157
f 163/163 162/162 161/161
f 164/164 163/163 161/161
f 167/167 166/166 165/165
f 168/168 167/167 165/165
f 171/171 170/170 169/169
f 172/172 171/171 169/169
f 175/175 174/174 173/173
f 176/176 175/175 173/173
f 179/179 178/178 177/177
f 180/180 179/179 177/177
f 183/183 182/182 181/181
f 184/184 183/183 181/181
f 187/187 186/186 185/185
f 188/188 187/187 185/185
f 191/191 190/190 189/189
f 192/192 191/191 189/189
f 195/195 194/194 193/193
f 196/196 195/195 193/193
f 199/199 198/198 197/197
f 200/200 199/199 197/197
f 203/203 202/202 201/201
f 204/204 203/203 201/201
f 207/207 206/206 205/205
f 208/208 207/207 205/205
f 211/211 210/210 209/209
f 212/212 211/211 209/209
f 215/215 214/214 213/213
f 216/216 215/215 213/213
f 219/219 218/218 217/217
f 220/220 219/219 217/217
f 223/223 222/222 221/221
f 224/224 223/223 221/221
f 227/227 226/226 225/225
f 228/228 227/227 225/225
f 231/231 230/230 229/229
f 232/232 231/231 229/229
f 235/235 234/234 233/233
f 236/236 235/235 233/233
f 239/239 238/238 237/237
f 240/240 239/239 237/237
f 243/243 242/242 241/241
f 244/244 243/243 241/241
f 247/247 246/246 245/245
f 248/248 247/247 245/245
f 251/251 250/250 249/249
f 252/252 251/251 249/249
f 255/255 254/254 253/253
f 256/256 255/255 253/253
f 259/259 258/258 257/257
f 260/260 259/259 257/257
f 263/263 262/262 261/261
f 264/264 263/263 261/261
f 267/267 266/266 265/265
f 268/268 267/267 265/265
f 271/271 270/270 269/269
f 272/272 271/271 269/269
f 275/275 274/274 273/273
f 276/276 275/275 273/273
f 279/279 278/278 277/277
f 280/280 279/279 277/277
f 283/283 282/282 281/281
f 284/284 283/283 281/281
f 287/287 286/286 285/285
f 288/288 287/287 285/285
f 291/291 290/290 289/289
f 292/292 291/291 289/289
f 295/295 294/294 293/293
f 296/296 295/295 293/293
f 299/299 298/298 297/297
f 300/300 299/299 297/297
f 303/303 302/302 301/301
f 304/304 303/303 301/301
f 307/307 306/306 305/305
f 308/308 307/307 305/305
f 311/311 310/310 309/309
f 312/312 311/311 309/309
