# OSM contributors ODbL; authored bridge elevation
o ParkBridge_1050793219_Deck
v 1419.090162 -8305.707903 -729.712269
v 1330.544458 -8040.077223 -729.712269
v 1383.947299 -8022.275845 -734.409465
v 1472.493003 -8287.906525 -734.409465
v 1472.493003 -8287.906525 -752.409465
v 1383.947299 -8022.275845 -752.409465
v 1330.544458 -8040.077223 -747.712269
v 1419.090162 -8305.707903 -747.712269
v 1383.947299 -8022.275845 -734.409465
v 1330.544458 -8040.077223 -729.712269
v 1330.544458 -8040.077223 -747.712269
v 1383.947299 -8022.275845 -752.409465
v 1472.493003 -8287.906525 -734.409465
v 1419.090162 -8305.707903 -729.712269
v 1419.090162 -8305.707903 -747.712269
v 1472.493003 -8287.906525 -752.409465
v 1365.687321 -8323.509281 -726.811185
v 1277.141618 -8057.878601 -726.811185
v 1330.544458 -8040.077223 -729.712269
v 1419.090162 -8305.707903 -729.712269
v 1419.090162 -8305.707903 -747.712269
v 1330.544458 -8040.077223 -747.712269
v 1277.141618 -8057.878601 -744.811185
v 1365.687321 -8323.509281 -744.811185
v 1330.544458 -8040.077223 -729.712269
v 1277.141618 -8057.878601 -726.811185
v 1277.141618 -8057.878601 -744.811185
v 1330.544458 -8040.077223 -747.712269
v 1419.090162 -8305.707903 -729.712269
v 1365.687321 -8323.509281 -726.811185
v 1365.687321 -8323.509281 -744.811185
v 1419.090162 -8305.707903 -747.712269
v 1312.284480 -8341.310659 -726.816271
v 1223.738777 -8075.679979 -726.816271
v 1277.141618 -8057.878601 -726.811185
v 1365.687321 -8323.509281 -726.811185
v 1365.687321 -8323.509281 -744.811185
v 1277.141618 -8057.878601 -744.811185
v 1223.738777 -8075.679979 -744.816271
v 1312.284480 -8341.310659 -744.816271
v 1277.141618 -8057.878601 -726.811185
v 1223.738777 -8075.679979 -726.816271
v 1223.738777 -8075.679979 -744.816271
v 1277.141618 -8057.878601 -744.811185
v 1365.687321 -8323.509281 -726.811185
v 1312.284480 -8341.310659 -726.816271
v 1312.284480 -8341.310659 -744.816271
v 1365.687321 -8323.509281 -744.811185
v 1258.881639 -8359.112037 -729.727528
v 1170.335936 -8093.481356 -729.727528
v 1223.738777 -8075.679979 -726.816271
v 1312.284480 -8341.310659 -726.816271
v 1312.284480 -8341.310659 -744.816271
v 1223.738777 -8075.679979 -744.816271
v 1170.335936 -8093.481356 -747.727528
v 1258.881639 -8359.112037 -747.727528
v 1223.738777 -8075.679979 -726.816271
v 1170.335936 -8093.481356 -729.727528
v 1170.335936 -8093.481356 -747.727528
v 1223.738777 -8075.679979 -744.816271
v 1312.284480 -8341.310659 -726.816271
v 1258.881639 -8359.112037 -729.727528
v 1258.881639 -8359.112037 -747.727528
v 1312.284480 -8341.310659 -744.816271
v 1205.478798 -8376.913415 -734.434896
v 1116.933095 -8111.282734 -734.434896
v 1170.335936 -8093.481356 -729.727528
v 1258.881639 -8359.112037 -729.727528
v 1258.881639 -8359.112037 -747.727528
v 1170.335936 -8093.481356 -747.727528
v 1116.933095 -8111.282734 -752.434896
v 1205.478798 -8376.913415 -752.434896
v 1170.335936 -8093.481356 -729.727528
v 1116.933095 -8111.282734 -734.434896
v 1116.933095 -8111.282734 -752.434896
v 1170.335936 -8093.481356 -747.727528
v 1258.881639 -8359.112037 -729.727528
v 1205.478798 -8376.913415 -734.434896
v 1205.478798 -8376.913415 -752.434896
v 1258.881639 -8359.112037 -747.727528
v 1383.947299 -8022.275845 -734.409465
v 1472.493003 -8287.906525 -734.409465
v 1472.493003 -8287.906525 -752.409465
v 1383.947299 -8022.275845 -752.409465
v 1116.933095 -8111.282734 -734.434896
v 1205.478798 -8376.913415 -734.434896
v 1205.478798 -8376.913415 -752.434896
v 1116.933095 -8111.282734 -752.434896
vt 7.095451 41.528540
vt 6.652722 40.200386
vt 6.919736 40.111379
vt 7.362465 41.439533
vt 7.362465 41.439533
vt 6.919736 40.111379
vt 6.652722 40.200386
vt 7.095451 41.528540
vt 6.919736 40.111379
vt 6.652722 40.200386
vt 6.652722 40.200386
vt 6.919736 40.111379
vt 7.362465 41.439533
vt 7.095451 41.528540
vt 7.095451 41.528540
vt 7.362465 41.439533
vt 6.828437 41.617546
vt 6.385708 40.289393
vt 6.652722 40.200386
vt 7.095451 41.528540
vt 7.095451 41.528540
vt 6.652722 40.200386
vt 6.385708 40.289393
vt 6.828437 41.617546
vt 6.652722 40.200386
vt 6.385708 40.289393
vt 6.385708 40.289393
vt 6.652722 40.200386
vt 7.095451 41.528540
vt 6.828437 41.617546
vt 6.828437 41.617546
vt 7.095451 41.528540
vt 6.561422 41.706553
vt 6.118694 40.378400
vt 6.385708 40.289393
vt 6.828437 41.617546
vt 6.828437 41.617546
vt 6.385708 40.289393
vt 6.118694 40.378400
vt 6.561422 41.706553
vt 6.385708 40.289393
vt 6.118694 40.378400
vt 6.118694 40.378400
vt 6.385708 40.289393
vt 6.828437 41.617546
vt 6.561422 41.706553
vt 6.561422 41.706553
vt 6.828437 41.617546
vt 6.294408 41.795560
vt 5.851680 40.467407
vt 6.118694 40.378400
vt 6.561422 41.706553
vt 6.561422 41.706553
vt 6.118694 40.378400
vt 5.851680 40.467407
vt 6.294408 41.795560
vt 6.118694 40.378400
vt 5.851680 40.467407
vt 5.851680 40.467407
vt 6.118694 40.378400
vt 6.561422 41.706553
vt 6.294408 41.795560
vt 6.294408 41.795560
vt 6.561422 41.706553
vt 6.027394 41.884567
vt 5.584665 40.556414
vt 5.851680 40.467407
vt 6.294408 41.795560
vt 6.294408 41.795560
vt 5.851680 40.467407
vt 5.584665 40.556414
vt 6.027394 41.884567
vt 5.851680 40.467407
vt 5.584665 40.556414
vt 5.584665 40.556414
vt 5.851680 40.467407
vt 6.294408 41.795560
vt 6.027394 41.884567
vt 6.027394 41.884567
vt 6.294408 41.795560
vt 6.919736 40.111379
vt 7.362465 41.439533
vt 7.362465 41.439533
vt 6.919736 40.111379
vt 5.584665 40.556414
vt 6.027394 41.884567
vt 6.027394 41.884567
vt 5.584665 40.556414
f 3/3 2/2 1/1
f 4/4 3/3 1/1
f 7/7 6/6 5/5
f 8/8 7/7 5/5
f 11/11 10/10 9/9
f 12/12 11/11 9/9
f 15/15 14/14 13/13
f 16/16 15/15 13/13
f 19/19 18/18 17/17
f 20/20 19/19 17/17
f 23/23 22/22 21/21
f 24/24 23/23 21/21
f 27/27 26/26 25/25
f 28/28 27/27 25/25
f 31/31 30/30 29/29
f 32/32 31/31 29/29
f 35/35 34/34 33/33
f 36/36 35/35 33/33
f 39/39 38/38 37/37
f 40/40 39/39 37/37
f 43/43 42/42 41/41
f 44/44 43/43 41/41
f 47/47 46/46 45/45
f 48/48 47/47 45/45
f 51/51 50/50 49/49
f 52/52 51/51 49/49
f 55/55 54/54 53/53
f 56/56 55/55 53/53
f 59/59 58/58 57/57
f 60/60 59/59 57/57
f 63/63 62/62 61/61
f 64/64 63/63 61/61
f 67/67 66/66 65/65
f 68/68 67/67 65/65
f 71/71 70/70 69/69
f 72/72 71/71 69/69
f 75/75 74/74 73/73
f 76/76 75/75 73/73
f 79/79 78/78 77/77
f 80/80 79/79 77/77
f 83/83 82/82 81/81
f 84/84 83/83 81/81
f 87/87 86/86 85/85
f 88/88 87/87 85/85
