# OSM contributors ODbL; authored bridge elevation
o ParkBridge_1384366242_Deck
v 7591.922568 -41970.540785 -748.009082
v 7810.380040 -41795.394181 -748.009082
v 7851.143083 -41846.237252 -749.415975
v 7632.685611 -42021.383856 -749.415975
v 7632.685611 -42021.383856 -767.415975
v 7851.143083 -41846.237252 -767.415975
v 7810.380040 -41795.394181 -766.009082
v 7591.922568 -41970.540785 -766.009082
v 7851.143083 -41846.237252 -749.415975
v 7810.380040 -41795.394181 -748.009082
v 7810.380040 -41795.394181 -766.009082
v 7851.143083 -41846.237252 -767.415975
v 7632.685611 -42021.383856 -749.415975
v 7591.922568 -41970.540785 -748.009082
v 7591.922568 -41970.540785 -766.009082
v 7632.685611 -42021.383856 -767.415975
v 7551.159526 -41919.697714 -746.622481
v 7769.616998 -41744.551110 -746.622481
v 7810.380040 -41795.394181 -748.009082
v 7591.922568 -41970.540785 -748.009082
v 7591.922568 -41970.540785 -766.009082
v 7810.380040 -41795.394181 -766.009082
v 7769.616998 -41744.551110 -764.622481
v 7551.159526 -41919.697714 -764.622481
v 7810.380040 -41795.394181 -748.009082
v 7769.616998 -41744.551110 -746.622481
v 7769.616998 -41744.551110 -764.622481
v 7810.380040 -41795.394181 -766.009082
v 7591.922568 -41970.540785 -748.009082
v 7551.159526 -41919.697714 -746.622481
v 7551.159526 -41919.697714 -764.622481
v 7591.922568 -41970.540785 -766.009082
v 7510.396484 -41868.854643 -745.276087
v 7728.853956 -41693.708039 -745.276087
v 7769.616998 -41744.551110 -746.622481
v 7551.159526 -41919.697714 -746.622481
v 7551.159526 -41919.697714 -764.622481
v 7769.616998 -41744.551110 -764.622481
v 7728.853956 -41693.708039 -763.276087
v 7510.396484 -41868.854643 -763.276087
v 7769.616998 -41744.551110 -746.622481
v 7728.853956 -41693.708039 -745.276087
v 7728.853956 -41693.708039 -763.276087
v 7769.616998 -41744.551110 -764.622481
v 7551.159526 -41919.697714 -746.622481
v 7510.396484 -41868.854643 -745.276087
v 7510.396484 -41868.854643 -763.276087
v 7551.159526 -41919.697714 -764.622481
v 7469.633441 -41818.011572 -743.989064
v 7688.090913 -41642.864969 -743.989064
v 7728.853956 -41693.708039 -745.276087
v 7510.396484 -41868.854643 -745.276087
v 7510.396484 -41868.854643 -763.276087
v 7728.853956 -41693.708039 -763.276087
v 7688.090913 -41642.864969 -761.989064
v 7469.633441 -41818.011572 -761.989064
v 7728.853956 -41693.708039 -745.276087
v 7688.090913 -41642.864969 -743.989064
v 7688.090913 -41642.864969 -761.989064
v 7728.853956 -41693.708039 -763.276087
v 7510.396484 -41868.854643 -745.276087
v 7469.633441 -41818.011572 -743.989064
v 7469.633441 -41818.011572 -761.989064
v 7510.396484 -41868.854643 -763.276087
v 7428.870399 -41767.168501 -742.779473
v 7647.327871 -41592.021898 -742.779473
v 7688.090913 -41642.864969 -743.989064
v 7469.633441 -41818.011572 -743.989064
v 7469.633441 -41818.011572 -761.989064
v 7688.090913 -41642.864969 -761.989064
v 7647.327871 -41592.021898 -760.779473
v 7428.870399 -41767.168501 -760.779473
v 7688.090913 -41642.864969 -743.989064
v 7647.327871 -41592.021898 -742.779473
v 7647.327871 -41592.021898 -760.779473
v 7688.090913 -41642.864969 -761.989064
v 7469.633441 -41818.011572 -743.989064
v 7428.870399 -41767.168501 -742.779473
v 7428.870399 -41767.168501 -760.779473
v 7469.633441 -41818.011572 -761.989064
v 7388.107357 -41716.325431 -741.663929
v 7606.564829 -41541.178827 -741.663929
v 7647.327871 -41592.021898 -742.779473
v 7428.870399 -41767.168501 -742.779473
v 7428.870399 -41767.168501 -760.779473
v 7647.327871 -41592.021898 -760.779473
v 7606.564829 -41541.178827 -759.663929
v 7388.107357 -41716.325431 -759.663929
v 7647.327871 -41592.021898 -742.779473
v 7606.564829 -41541.178827 -741.663929
v 7606.564829 -41541.178827 -759.663929
v 7647.327871 -41592.021898 -760.779473
v 7428.870399 -41767.168501 -742.779473
v 7388.107357 -41716.325431 -741.663929
v 7388.107357 -41716.325431 -759.663929
v 7428.870399 -41767.168501 -760.779473
v 7347.344314 -41665.482360 -740.657298
v 7565.801786 -41490.335756 -740.657298
v 7606.564829 -41541.178827 -741.663929
v 7388.107357 -41716.325431 -741.663929
v 7388.107357 -41716.325431 -759.663929
v 7606.564829 -41541.178827 -759.663929
v 7565.801786 -41490.335756 -758.657298
v 7347.344314 -41665.482360 -758.657298
v 7606.564829 -41541.178827 -741.663929
v 7565.801786 -41490.335756 -740.657298
v 7565.801786 -41490.335756 -758.657298
v 7606.564829 -41541.178827 -759.663929
v 7388.107357 -41716.325431 -741.663929
v 7347.344314 -41665.482360 -740.657298
v 7347.344314 -41665.482360 -758.657298
v 7388.107357 -41716.325431 -759.663929
v 7306.581272 -41614.639289 -739.772415
v 7525.038744 -41439.492685 -739.772415
v 7565.801786 -41490.335756 -740.657298
v 7347.344314 -41665.482360 -740.657298
v 7347.344314 -41665.482360 -758.657298
v 7565.801786 -41490.335756 -758.657298
v 7525.038744 -41439.492685 -757.772415
v 7306.581272 -41614.639289 -757.772415
v 7565.801786 -41490.335756 -740.657298
v 7525.038744 -41439.492685 -739.772415
v 7525.038744 -41439.492685 -757.772415
v 7565.801786 -41490.335756 -758.657298
v 7347.344314 -41665.482360 -740.657298
v 7306.581272 -41614.639289 -739.772415
v 7306.581272 -41614.639289 -757.772415
v 7347.344314 -41665.482360 -758.657298
v 7265.818230 -41563.796218 -739.019850
v 7484.275702 -41388.649614 -739.019850
v 7525.038744 -41439.492685 -739.772415
v 7306.581272 -41614.639289 -739.772415
v 7306.581272 -41614.639289 -757.772415
v 7525.038744 -41439.492685 -757.772415
v 7484.275702 -41388.649614 -757.019850
v 7265.818230 -41563.796218 -757.019850
v 7525.038744 -41439.492685 -739.772415
v 7484.275702 -41388.649614 -739.019850
v 7484.275702 -41388.649614 -757.019850
v 7525.038744 -41439.492685 -757.772415
v 7306.581272 -41614.639289 -739.772415
v 7265.818230 -41563.796218 -739.019850
v 7265.818230 -41563.796218 -757.019850
v 7306.581272 -41614.639289 -757.772415
v 7225.055187 -41512.953147 -738.407705
v 7443.512659 -41337.806543 -738.407705
v 7484.275702 -41388.649614 -739.019850
v 7265.818230 -41563.796218 -739.019850
v 7265.818230 -41563.796218 -757.019850
v 7484.275702 -41388.649614 -757.019850
v 7443.512659 -41337.806543 -756.407705
v 7225.055187 -41512.953147 -756.407705
v 7484.275702 -41388.649614 -739.019850
v 7443.512659 -41337.806543 -738.407705
v 7443.512659 -41337.806543 -756.407705
v 7484.275702 -41388.649614 -757.019850
v 7265.818230 -41563.796218 -739.019850
v 7225.055187 -41512.953147 -738.407705
v 7225.055187 -41512.953147 -756.407705
v 7265.818230 -41563.796218 -757.019850
v 7184.292145 -41462.110076 -737.941468
v 7402.749617 -41286.963473 -737.941468
v 7443.512659 -41337.806543 -738.407705
v 7225.055187 -41512.953147 -738.407705
v 7225.055187 -41512.953147 -756.407705
v 7443.512659 -41337.806543 -756.407705
v 7402.749617 -41286.963473 -755.941468
v 7184.292145 -41462.110076 -755.941468
v 7443.512659 -41337.806543 -738.407705
v 7402.749617 -41286.963473 -737.941468
v 7402.749617 -41286.963473 -755.941468
v 7443.512659 -41337.806543 -756.407705
v 7225.055187 -41512.953147 -738.407705
v 7184.292145 -41462.110076 -737.941468
v 7184.292145 -41462.110076 -755.941468
v 7225.055187 -41512.953147 -756.407705
v 7143.529103 -41411.267005 -737.623908
v 7361.986575 -41236.120402 -737.623908
v 7402.749617 -41286.963473 -737.941468
v 7184.292145 -41462.110076 -737.941468
v 7184.292145 -41462.110076 -755.941468
v 7402.749617 -41286.963473 -755.941468
v 7361.986575 -41236.120402 -755.623908
v 7143.529103 -41411.267005 -755.623908
v 7402.749617 -41286.963473 -737.941468
v 7361.986575 -41236.120402 -737.623908
v 7361.986575 -41236.120402 -755.623908
v 7402.749617 -41286.963473 -755.941468
v 7184.292145 -41462.110076 -737.941468
v 7143.529103 -41411.267005 -737.623908
v 7143.529103 -41411.267005 -755.623908
v 7184.292145 -41462.110076 -755.941468
v 7102.766060 -41360.423935 -737.455026
v 7321.223533 -41185.277331 -737.455026
v 7361.986575 -41236.120402 -737.623908
v 7143.529103 -41411.267005 -737.623908
v 7143.529103 -41411.267005 -755.623908
v 7361.986575 -41236.120402 -755.623908
v 7321.223533 -41185.277331 -755.455026
v 7102.766060 -41360.423935 -755.455026
v 7361.986575 -41236.120402 -737.623908
v 7321.223533 -41185.277331 -737.455026
v 7321.223533 -41185.277331 -755.455026
v 7361.986575 -41236.120402 -755.623908
v 7143.529103 -41411.267005 -737.623908
v 7102.766060 -41360.423935 -737.455026
v 7102.766060 -41360.423935 -755.455026
v 7143.529103 -41411.267005 -755.623908
v 7062.003018 -41309.580864 -737.432051
v 7280.460490 -41134.434260 -737.432051
v 7321.223533 -41185.277331 -737.455026
v 7102.766060 -41360.423935 -737.455026
v 7102.766060 -41360.423935 -755.455026
v 7321.223533 -41185.277331 -755.455026
v 7280.460490 -41134.434260 -755.432051
v 7062.003018 -41309.580864 -755.432051
v 7321.223533 -41185.277331 -737.455026
v 7280.460490 -41134.434260 -737.432051
v 7280.460490 -41134.434260 -755.432051
v 7321.223533 -41185.277331 -755.455026
v 7102.766060 -41360.423935 -737.455026
v 7062.003018 -41309.580864 -737.432051
v 7062.003018 -41309.580864 -755.432051
v 7102.766060 -41360.423935 -755.455026
v 7021.239976 -41258.737793 -737.549497
v 7239.697448 -41083.591189 -737.549497
v 7280.460490 -41134.434260 -737.432051
v 7062.003018 -41309.580864 -737.432051
v 7062.003018 -41309.580864 -755.432051
v 7280.460490 -41134.434260 -755.432051
v 7239.697448 -41083.591189 -755.549497
v 7021.239976 -41258.737793 -755.549497
v 7280.460490 -41134.434260 -737.432051
v 7239.697448 -41083.591189 -737.549497
v 7239.697448 -41083.591189 -755.549497
v 7280.460490 -41134.434260 -755.432051
v 7062.003018 -41309.580864 -737.432051
v 7021.239976 -41258.737793 -737.549497
v 7021.239976 -41258.737793 -755.549497
v 7062.003018 -41309.580864 -755.432051
v 6980.476933 -41207.894722 -737.799260
v 7198.934406 -41032.748118 -737.799260
v 7239.697448 -41083.591189 -737.549497
v 7021.239976 -41258.737793 -737.549497
v 7021.239976 -41258.737793 -755.549497
v 7239.697448 -41083.591189 -755.549497
v 7198.934406 -41032.748118 -755.799260
v 6980.476933 -41207.894722 -755.799260
v 7239.697448 -41083.591189 -737.549497
v 7198.934406 -41032.748118 -737.799260
v 7198.934406 -41032.748118 -755.799260
v 7239.697448 -41083.591189 -755.549497
v 7021.239976 -41258.737793 -737.549497
v 6980.476933 -41207.894722 -737.799260
v 6980.476933 -41207.894722 -755.799260
v 7021.239976 -41258.737793 -755.549497
v 6939.713891 -41157.051651 -738.170772
v 7158.171363 -40981.905047 -738.170772
v 7198.934406 -41032.748118 -737.799260
v 6980.476933 -41207.894722 -737.799260
v 6980.476933 -41207.894722 -755.799260
v 7198.934406 -41032.748118 -755.799260
v 7158.171363 -40981.905047 -756.170772
v 6939.713891 -41157.051651 -756.170772
v 7198.934406 -41032.748118 -737.799260
v 7158.171363 -40981.905047 -738.170772
v 7158.171363 -40981.905047 -756.170772
v 7198.934406 -41032.748118 -755.799260
v 6980.476933 -41207.894722 -737.799260
v 6939.713891 -41157.051651 -738.170772
v 6939.713891 -41157.051651 -756.170772
v 6980.476933 -41207.894722 -755.799260
v 6898.950849 -41106.208580 -738.651196
v 7117.408321 -40931.061976 -738.651196
v 7158.171363 -40981.905047 -738.170772
v 6939.713891 -41157.051651 -738.170772
v 6939.713891 -41157.051651 -756.170772
v 7158.171363 -40981.905047 -756.170772
v 7117.408321 -40931.061976 -756.651196
v 6898.950849 -41106.208580 -756.651196
v 7158.171363 -40981.905047 -738.170772
v 7117.408321 -40931.061976 -738.651196
v 7117.408321 -40931.061976 -756.651196
v 7158.171363 -40981.905047 -756.170772
v 6939.713891 -41157.051651 -738.170772
v 6898.950849 -41106.208580 -738.651196
v 6898.950849 -41106.208580 -756.651196
v 6939.713891 -41157.051651 -756.170772
v 6858.187806 -41055.365509 -739.225669
v 7076.645279 -40880.218906 -739.225669
v 7117.408321 -40931.061976 -738.651196
v 6898.950849 -41106.208580 -738.651196
v 6898.950849 -41106.208580 -756.651196
v 7117.408321 -40931.061976 -756.651196
v 7076.645279 -40880.218906 -757.225669
v 6858.187806 -41055.365509 -757.225669
v 7117.408321 -40931.061976 -738.651196
v 7076.645279 -40880.218906 -739.225669
v 7076.645279 -40880.218906 -757.225669
v 7117.408321 -40931.061976 -756.651196
v 6898.950849 -41106.208580 -738.651196
v 6858.187806 -41055.365509 -739.225669
v 6858.187806 -41055.365509 -757.225669
v 6898.950849 -41106.208580 -756.651196
v 6817.424764 -41004.522439 -739.877572
v 7035.882236 -40829.375835 -739.877572
v 7076.645279 -40880.218906 -739.225669
v 6858.187806 -41055.365509 -739.225669
v 6858.187806 -41055.365509 -757.225669
v 7076.645279 -40880.218906 -757.225669
v 7035.882236 -40829.375835 -757.877572
v 6817.424764 -41004.522439 -757.877572
v 7076.645279 -40880.218906 -739.225669
v 7035.882236 -40829.375835 -739.877572
v 7035.882236 -40829.375835 -757.877572
v 7076.645279 -40880.218906 -757.225669
v 6858.187806 -41055.365509 -739.225669
v 6817.424764 -41004.522439 -739.877572
v 6817.424764 -41004.522439 -757.877572
v 6858.187806 -41055.365509 -757.225669
v 6776.661722 -40953.679368 -740.588847
v 6995.119194 -40778.532764 -740.588847
v 7035.882236 -40829.375835 -739.877572
v 6817.424764 -41004.522439 -739.877572
v 6817.424764 -41004.522439 -757.877572
v 7035.882236 -40829.375835 -757.877572
v 6995.119194 -40778.532764 -758.588847
v 6776.661722 -40953.679368 -758.588847
v 7035.882236 -40829.375835 -739.877572
v 6995.119194 -40778.532764 -740.588847
v 6995.119194 -40778.532764 -758.588847
v 7035.882236 -40829.375835 -757.877572
v 6817.424764 -41004.522439 -739.877572
v 6776.661722 -40953.679368 -740.588847
v 6776.661722 -40953.679368 -758.588847
v 6817.424764 -41004.522439 -757.877572
v 6735.898679 -40902.836297 -741.340328
v 6954.356152 -40727.689693 -741.340328
v 6995.119194 -40778.532764 -740.588847
v 6776.661722 -40953.679368 -740.588847
v 6776.661722 -40953.679368 -758.588847
v 6995.119194 -40778.532764 -758.588847
v 6954.356152 -40727.689693 -759.340328
v 6735.898679 -40902.836297 -759.340328
v 6995.119194 -40778.532764 -740.588847
v 6954.356152 -40727.689693 -741.340328
v 6954.356152 -40727.689693 -759.340328
v 6995.119194 -40778.532764 -758.588847
v 6776.661722 -40953.679368 -740.588847
v 6735.898679 -40902.836297 -741.340328
v 6735.898679 -40902.836297 -759.340328
v 6776.661722 -40953.679368 -758.588847
v 6695.135637 -40851.993226 -742.112101
v 6913.593109 -40676.846622 -742.112101
v 6954.356152 -40727.689693 -741.340328
v 6735.898679 -40902.836297 -741.340328
v 6735.898679 -40902.836297 -759.340328
v 6954.356152 -40727.689693 -759.340328
v 6913.593109 -40676.846622 -760.112101
v 6695.135637 -40851.993226 -760.112101
v 6954.356152 -40727.689693 -741.340328
v 6913.593109 -40676.846622 -742.112101
v 6913.593109 -40676.846622 -760.112101
v 6954.356152 -40727.689693 -759.340328
v 6735.898679 -40902.836297 -741.340328
v 6695.135637 -40851.993226 -742.112101
v 6695.135637 -40851.993226 -760.112101
v 6735.898679 -40902.836297 -759.340328
v 7851.143083 -41846.237252 -749.415975
v 7632.685611 -42021.383856 -749.415975
v 7632.685611 -42021.383856 -767.415975
v 7851.143083 -41846.237252 -767.415975
v 6913.593109 -40676.846622 -742.112101
v 6695.135637 -40851.993226 -742.112101
v 6695.135637 -40851.993226 -760.112101
v 6913.593109 -40676.846622 -760.112101
vt 37.959613 209.852704
vt 39.051900 208.976971
vt 39.255715 209.231186
vt 38.163428 210.106919
vt 38.163428 210.106919
vt 39.255715 209.231186
vt 39.051900 208.976971
vt 37.959613 209.852704
vt 39.255715 209.231186
vt 39.051900 208.976971
vt 39.051900 208.976971
vt 39.255715 209.231186
vt 38.163428 210.106919
vt 37.959613 209.852704
vt 37.959613 209.852704
vt 38.163428 210.106919
vt 37.755798 209.598489
vt 38.848085 208.722756
vt 39.051900 208.976971
vt 37.959613 209.852704
vt 37.959613 209.852704
vt 39.051900 208.976971
vt 38.848085 208.722756
vt 37.755798 209.598489
vt 39.051900 208.976971
vt 38.848085 208.722756
vt 38.848085 208.722756
vt 39.051900 208.976971
vt 37.959613 209.852704
vt 37.755798 209.598489
vt 37.755798 209.598489
vt 37.959613 209.852704
vt 37.551982 209.344273
vt 38.644270 208.468540
vt 38.848085 208.722756
vt 37.755798 209.598489
vt 37.755798 209.598489
vt 38.848085 208.722756
vt 38.644270 208.468540
vt 37.551982 209.344273
vt 38.848085 208.722756
vt 38.644270 208.468540
vt 38.644270 208.468540
vt 38.848085 208.722756
vt 37.755798 209.598489
vt 37.551982 209.344273
vt 37.551982 209.344273
vt 37.755798 209.598489
vt 37.348167 209.090058
vt 38.440455 208.214325
vt 38.644270 208.468540
vt 37.551982 209.344273
vt 37.551982 209.344273
vt 38.644270 208.468540
vt 38.440455 208.214325
vt 37.348167 209.090058
vt 38.644270 208.468540
vt 38.440455 208.214325
vt 38.440455 208.214325
vt 38.644270 208.468540
vt 37.551982 209.344273
vt 37.348167 209.090058
vt 37.348167 209.090058
vt 37.551982 209.344273
vt 37.144352 208.835843
vt 38.236639 207.960109
vt 38.440455 208.214325
vt 37.348167 209.090058
vt 37.348167 209.090058
vt 38.440455 208.214325
vt 38.236639 207.960109
vt 37.144352 208.835843
vt 38.440455 208.214325
vt 38.236639 207.960109
vt 38.236639 207.960109
vt 38.440455 208.214325
vt 37.348167 209.090058
vt 37.144352 208.835843
vt 37.144352 208.835843
vt 37.348167 209.090058
vt 36.940537 208.581627
vt 38.032824 207.705894
vt 38.236639 207.960109
vt 37.144352 208.835843
vt 37.144352 208.835843
vt 38.236639 207.960109
vt 38.032824 207.705894
vt 36.940537 208.581627
vt 38.236639 207.960109
vt 38.032824 207.705894
vt 38.032824 207.705894
vt 38.236639 207.960109
vt 37.144352 208.835843
vt 36.940537 208.581627
vt 36.940537 208.581627
vt 37.144352 208.835843
vt 36.736722 208.327412
vt 37.829009 207.451679
vt 38.032824 207.705894
vt 36.940537 208.581627
vt 36.940537 208.581627
vt 38.032824 207.705894
vt 37.829009 207.451679
vt 36.736722 208.327412
vt 38.032824 207.705894
vt 37.829009 207.451679
vt 37.829009 207.451679
vt 38.032824 207.705894
vt 36.940537 208.581627
vt 36.736722 208.327412
vt 36.736722 208.327412
vt 36.940537 208.581627
vt 36.532906 208.073196
vt 37.625194 207.197463
vt 37.829009 207.451679
vt 36.736722 208.327412
vt 36.736722 208.327412
vt 37.829009 207.451679
vt 37.625194 207.197463
vt 36.532906 208.073196
vt 37.829009 207.451679
vt 37.625194 207.197463
vt 37.625194 207.197463
vt 37.829009 207.451679
vt 36.736722 208.327412
vt 36.532906 208.073196
vt 36.532906 208.073196
vt 36.736722 208.327412
vt 36.329091 207.818981
vt 37.421379 206.943248
vt 37.625194 207.197463
vt 36.532906 208.073196
vt 36.532906 208.073196
vt 37.625194 207.197463
vt 37.421379 206.943248
vt 36.329091 207.818981
vt 37.625194 207.197463
vt 37.421379 206.943248
vt 37.421379 206.943248
vt 37.625194 207.197463
vt 36.532906 208.073196
vt 36.329091 207.818981
vt 36.329091 207.818981
vt 36.532906 208.073196
vt 36.125276 207.564766
vt 37.217563 206.689033
vt 37.421379 206.943248
vt 36.329091 207.818981
vt 36.329091 207.818981
vt 37.421379 206.943248
vt 37.217563 206.689033
vt 36.125276 207.564766
vt 37.421379 206.943248
vt 37.217563 206.689033
vt 37.217563 206.689033
vt 37.421379 206.943248
vt 36.329091 207.818981
vt 36.125276 207.564766
vt 36.125276 207.564766
vt 36.329091 207.818981
vt 35.921461 207.310550
vt 37.013748 206.434817
vt 37.217563 206.689033
vt 36.125276 207.564766
vt 36.125276 207.564766
vt 37.217563 206.689033
vt 37.013748 206.434817
vt 35.921461 207.310550
vt 37.217563 206.689033
vt 37.013748 206.434817
vt 37.013748 206.434817
vt 37.217563 206.689033
vt 36.125276 207.564766
vt 35.921461 207.310550
vt 35.921461 207.310550
vt 36.125276 207.564766
vt 35.717646 207.056335
vt 36.809933 206.180602
vt 37.013748 206.434817
vt 35.921461 207.310550
vt 35.921461 207.310550
vt 37.013748 206.434817
vt 36.809933 206.180602
vt 35.717646 207.056335
vt 37.013748 206.434817
vt 36.809933 206.180602
vt 36.809933 206.180602
vt 37.013748 206.434817
vt 35.921461 207.310550
vt 35.717646 207.056335
vt 35.717646 207.056335
vt 35.921461 207.310550
vt 35.513830 206.802120
vt 36.606118 205.926387
vt 36.809933 206.180602
vt 35.717646 207.056335
vt 35.717646 207.056335
vt 36.809933 206.180602
vt 36.606118 205.926387
vt 35.513830 206.802120
vt 36.809933 206.180602
vt 36.606118 205.926387
vt 36.606118 205.926387
vt 36.809933 206.180602
vt 35.717646 207.056335
vt 35.513830 206.802120
vt 35.513830 206.802120
vt 35.717646 207.056335
vt 35.310015 206.547904
vt 36.402302 205.672171
vt 36.606118 205.926387
vt 35.513830 206.802120
vt 35.513830 206.802120
vt 36.606118 205.926387
vt 36.402302 205.672171
vt 35.310015 206.547904
vt 36.606118 205.926387
vt 36.402302 205.672171
vt 36.402302 205.672171
vt 36.606118 205.926387
vt 35.513830 206.802120
vt 35.310015 206.547904
vt 35.310015 206.547904
vt 35.513830 206.802120
vt 35.106200 206.293689
vt 36.198487 205.417956
vt 36.402302 205.672171
vt 35.310015 206.547904
vt 35.310015 206.547904
vt 36.402302 205.672171
vt 36.198487 205.417956
vt 35.106200 206.293689
vt 36.402302 205.672171
vt 36.198487 205.417956
vt 36.198487 205.417956
vt 36.402302 205.672171
vt 35.310015 206.547904
vt 35.106200 206.293689
vt 35.106200 206.293689
vt 35.310015 206.547904
vt 34.902385 206.039474
vt 35.994672 205.163741
vt 36.198487 205.417956
vt 35.106200 206.293689
vt 35.106200 206.293689
vt 36.198487 205.417956
vt 35.994672 205.163741
vt 34.902385 206.039474
vt 36.198487 205.417956
vt 35.994672 205.163741
vt 35.994672 205.163741
vt 36.198487 205.417956
vt 35.106200 206.293689
vt 34.902385 206.039474
vt 34.902385 206.039474
vt 35.106200 206.293689
vt 34.698569 205.785258
vt 35.790857 204.909525
vt 35.994672 205.163741
vt 34.902385 206.039474
vt 34.902385 206.039474
vt 35.994672 205.163741
vt 35.790857 204.909525
vt 34.698569 205.785258
vt 35.994672 205.163741
vt 35.790857 204.909525
vt 35.790857 204.909525
vt 35.994672 205.163741
vt 34.902385 206.039474
vt 34.698569 205.785258
vt 34.698569 205.785258
vt 34.902385 206.039474
vt 34.494754 205.531043
vt 35.587042 204.655310
vt 35.790857 204.909525
vt 34.698569 205.785258
vt 34.698569 205.785258
vt 35.790857 204.909525
vt 35.587042 204.655310
vt 34.494754 205.531043
vt 35.790857 204.909525
vt 35.587042 204.655310
vt 35.587042 204.655310
vt 35.790857 204.909525
vt 34.698569 205.785258
vt 34.494754 205.531043
vt 34.494754 205.531043
vt 34.698569 205.785258
vt 34.290939 205.276828
vt 35.383226 204.401095
vt 35.587042 204.655310
vt 34.494754 205.531043
vt 34.494754 205.531043
vt 35.587042 204.655310
vt 35.383226 204.401095
vt 34.290939 205.276828
vt 35.587042 204.655310
vt 35.383226 204.401095
vt 35.383226 204.401095
vt 35.587042 204.655310
vt 34.494754 205.531043
vt 34.290939 205.276828
vt 34.290939 205.276828
vt 34.494754 205.531043
vt 34.087124 205.022612
vt 35.179411 204.146879
vt 35.383226 204.401095
vt 34.290939 205.276828
vt 34.290939 205.276828
vt 35.383226 204.401095
vt 35.179411 204.146879
vt 34.087124 205.022612
vt 35.383226 204.401095
vt 35.179411 204.146879
vt 35.179411 204.146879
vt 35.383226 204.401095
vt 34.290939 205.276828
vt 34.087124 205.022612
vt 34.087124 205.022612
vt 34.290939 205.276828
vt 33.883309 204.768397
vt 34.975596 203.892664
vt 35.179411 204.146879
vt 34.087124 205.022612
vt 34.087124 205.022612
vt 35.179411 204.146879
vt 34.975596 203.892664
vt 33.883309 204.768397
vt 35.179411 204.146879
vt 34.975596 203.892664
vt 34.975596 203.892664
vt 35.179411 204.146879
vt 34.087124 205.022612
vt 33.883309 204.768397
vt 33.883309 204.768397
vt 34.087124 205.022612
vt 33.679493 204.514181
vt 34.771781 203.638448
vt 34.975596 203.892664
vt 33.883309 204.768397
vt 33.883309 204.768397
vt 34.975596 203.892664
vt 34.771781 203.638448
vt 33.679493 204.514181
vt 34.975596 203.892664
vt 34.771781 203.638448
vt 34.771781 203.638448
vt 34.975596 203.892664
vt 33.883309 204.768397
vt 33.679493 204.514181
vt 33.679493 204.514181
vt 33.883309 204.768397
vt 33.475678 204.259966
vt 34.567966 203.384233
vt 34.771781 203.638448
vt 33.679493 204.514181
vt 33.679493 204.514181
vt 34.771781 203.638448
vt 34.567966 203.384233
vt 33.475678 204.259966
vt 34.771781 203.638448
vt 34.567966 203.384233
vt 34.567966 203.384233
vt 34.771781 203.638448
vt 33.679493 204.514181
vt 33.475678 204.259966
vt 33.475678 204.259966
vt 33.679493 204.514181
vt 39.255715 209.231186
vt 38.163428 210.106919
vt 38.163428 210.106919
vt 39.255715 209.231186
vt 34.567966 203.384233
vt 33.475678 204.259966
vt 33.475678 204.259966
vt 34.567966 203.384233
f 3/3 2/2 1/1
f 4/4 3/3 1/1
f 7/7 6/6 5/5
f 8/8 7/7 5/5
f 11/11 10/10 9/9
f 12/12 11/11 9/9
f 15/15 14/14 13/13
f 16/16 15/15 13/13
f 19/19 18/18 17/17
f 20/20 19/19 17/17
f 23/23 22/22 21/21
f 24/24 23/23 21/21
f 27/27 26/26 25/25
f 28/28 27/27 25/25
f 31/31 30/30 29/29
f 32/32 31/31 29/29
f 35/35 34/34 33/33
f 36/36 35/35 33/33
f 39/39 38/38 37/37
f 40/40 39/39 37/37
f 43/43 42/42 41/41
f 44/44 43/43 41/41
f 47/47 46/46 45/45
f 48/48 47/47 45/45
f 51/51 50/50 49/49
f 52/52 51/51 49/49
f 55/55 54/54 53/53
f 56/56 55/55 53/53
f 59/59 58/58 57/57
f 60/60 59/59 57/57
f 63/63 62/62 61/61
f 64/64 63/63 61/61
f 67/67 66/66 65/65
f 68/68 67/67 65/65
f 71/71 70/70 69/69
f 72/72 71/71 69/69
f 75/75 74/74 73/73
f 76/76 75/75 73/73
f 79/79 78/78 77/77
f 80/80 79/79 77/77
f 83/83 82/82 81/81
f 84/84 83/83 81/81
f 87/87 86/86 85/85
f 88/88 87/87 85/85
f 91/91 90/90 89/89
f 92/92 91/91 89/89
f 95/95 94/94 93/93
f 96/96 95/95 93/93
f 99/99 98/98 97/97
f 100/100 99/99 97/97
f 103/103 102/102 101/101
f 104/104 103/103 101/101
f 107/107 106/106 105/105
f 108/108 107/107 105/105
f 111/111 110/110 109/109
f 112/112 111/111 109/109
f 115/115 114/114 113/113
f 116/116 115/115 113/113
f 119/119 118/118 117/117
f 120/120 119/119 117/117
f 123/123 122/122 121/121
f 124/124 123/123 121/121
f 127/127 126/126 125/125
f 128/128 127/127 125/125
f 131/131 130/130 129/129
f 132/132 131/131 129/129
f 135/135 134/134 133/133
f 136/136 135/135 133/133
f 139/139 138/138 137/137
f 140/140 139/139 137/137
f 143/143 142/142 141/141
f 144/144 143/143 141/141
f 147/147 146/146 145/145
f 148/148 147/147 145/145
f 151/151 150/150 149/149
f 152/152 151/151 149/149
f 155/155 154/154 153/153
f 156/156 155/155 153/153
f 159/159 158/158 157/157
f 160/160 159/159 157/157
f 163/163 162/162 161/161
f 164/164 163/163 161/161
f 167/167 166/166 165/165
f 168/168 167/167 165/165
f 171/171 170/170 169/169
f 172/172 171/171 169/169
f 175/175 174/174 173/173
f 176/176 175/175 173/173
f 179/179 178/178 177/177
f 180/180 179/179 177/177
f 183/183 182/182 181/181
f 184/184 183/183 181/181
f 187/187 186/186 185/185
f 188/188 187/187 185/185
f 191/191 190/190 189/189
f 192/192 191/191 189/189
f 195/195 194/194 193/193
f 196/196 195/195 193/193
f 199/199 198/198 197/197
f 200/200 199/199 197/197
f 203/203 202/202 201/201
f 204/204 203/203 201/201
f 207/207 206/206 205/205
f 208/208 207/207 205/205
f 211/211 210/210 209/209
f 212/212 211/211 209/209
f 215/215 214/214 213/213
f 216/216 215/215 213/213
f 219/219 218/218 217/217
f 220/220 219/219 217/217
f 223/223 222/222 221/221
f 224/224 223/223 221/221
f 227/227 226/226 225/225
f 228/228 227/227 225/225
f 231/231 230/230 229/229
f 232/232 231/231 229/229
f 235/235 234/234 233/233
f 236/236 235/235 233/233
f 239/239 238/238 237/237
f 240/240 239/239 237/237
f 243/243 242/242 241/241
f 244/244 243/243 241/241
f 247/247 246/246 245/245
f 248/248 247/247 245/245
f 251/251 250/250 249/249
f 252/252 251/251 249/249
f 255/255 254/254 253/253
f 256/256 255/255 253/253
f 259/259 258/258 257/257
f 260/260 259/259 257/257
f 263/263 262/262 261/261
f 264/264 263/263 261/261
f 267/267 266/266 265/265
f 268/268 267/267 265/265
f 271/271 270/270 269/269
f 272/272 271/271 269/269
f 275/275 274/274 273/273
f 276/276 275/275 273/273
f 279/279 278/278 277/277
f 280/280 279/279 277/277
f 283/283 282/282 281/281
f 284/284 283/283 281/281
f 287/287 286/286 285/285
f 288/288 287/287 285/285
f 291/291 290/290 289/289
f 292/292 291/291 289/289
f 295/295 294/294 293/293
f 296/296 295/295 293/293
f 299/299 298/298 297/297
f 300/300 299/299 297/297
f 303/303 302/302 301/301
f 304/304 303/303 301/301
f 307/307 306/306 305/305
f 308/308 307/307 305/305
f 311/311 310/310 309/309
f 312/312 311/311 309/309
f 315/315 314/314 313/313
f 316/316 315/315 313/313
f 319/319 318/318 317/317
f 320/320 319/319 317/317
f 323/323 322/322 321/321
f 324/324 323/323 321/321
f 327/327 326/326 325/325
f 328/328 327/327 325/325
f 331/331 330/330 329/329
f 332/332 331/331 329/329
f 335/335 334/334 333/333
f 336/336 335/335 333/333
f 339/339 338/338 337/337
f 340/340 339/339 337/337
f 343/343 342/342 341/341
f 344/344 343/343 341/341
f 347/347 346/346 345/345
f 348/348 347/347 345/345
f 351/351 350/350 349/349
f 352/352 351/351 349/349
f 355/355 354/354 353/353
f 356/356 355/355 353/353
f 359/359 358/358 357/357
f 360/360 359/359 357/357
f 363/363 362/362 361/361
f 364/364 363/363 361/361
f 367/367 366/366 365/365
f 368/368 367/367 365/365
f 371/371 370/370 369/369
f 372/372 371/371 369/369
f 375/375 374/374 373/373
f 376/376 375/375 373/373
