# OSM contributors ODbL; authored bridge elevation
o ParkBridge_182302113_Wood
v 2552.530390 -11432.309275 -764.133586
v 2371.806373 -11218.442892 -764.133586
v 2420.112405 -11177.622732 -764.139689
v 2600.836421 -11391.489115 -764.139689
v 2600.836421 -11391.489115 -782.139689
v 2420.112405 -11177.622732 -782.139689
v 2371.806373 -11218.442892 -782.133586
v 2552.530390 -11432.309275 -782.133586
v 2420.112405 -11177.622732 -764.139689
v 2371.806373 -11218.442892 -764.133586
v 2371.806373 -11218.442892 -782.133586
v 2420.112405 -11177.622732 -782.139689
v 2600.836421 -11391.489115 -764.139689
v 2552.530390 -11432.309275 -764.133586
v 2552.530390 -11432.309275 -782.133586
v 2600.836421 -11391.489115 -782.139689
v 2504.224359 -11473.129436 -763.284180
v 2323.500342 -11259.263052 -763.284180
v 2371.806373 -11218.442892 -764.133586
v 2552.530390 -11432.309275 -764.133586
v 2552.530390 -11432.309275 -782.133586
v 2371.806373 -11218.442892 -782.133586
v 2323.500342 -11259.263052 -781.284180
v 2504.224359 -11473.129436 -781.284180
v 2371.806373 -11218.442892 -764.133586
v 2323.500342 -11259.263052 -763.284180
v 2323.500342 -11259.263052 -781.284180
v 2371.806373 -11218.442892 -782.133586
v 2552.530390 -11432.309275 -764.133586
v 2504.224359 -11473.129436 -763.284180
v 2504.224359 -11473.129436 -781.284180
v 2552.530390 -11432.309275 -782.133586
v 2455.918327 -11513.949596 -763.593424
v 2275.194311 -11300.083213 -763.593424
v 2323.500342 -11259.263052 -763.284180
v 2504.224359 -11473.129436 -763.284180
v 2504.224359 -11473.129436 -781.284180
v 2323.500342 -11259.263052 -781.284180
v 2275.194311 -11300.083213 -781.593424
v 2455.918327 -11513.949596 -781.593424
v 2323.500342 -11259.263052 -763.284180
v 2275.194311 -11300.083213 -763.593424
v 2275.194311 -11300.083213 -781.593424
v 2323.500342 -11259.263052 -781.284180
v 2504.224359 -11473.129436 -763.284180
v 2455.918327 -11513.949596 -763.593424
v 2455.918327 -11513.949596 -781.593424
v 2504.224359 -11473.129436 -781.284180
v 2407.612296 -11554.769756 -765.977865
v 2226.888279 -11340.903373 -765.977865
v 2275.194311 -11300.083213 -763.593424
v 2455.918327 -11513.949596 -763.593424
v 2455.918327 -11513.949596 -781.593424
v 2275.194311 -11300.083213 -781.593424
v 2226.888279 -11340.903373 -783.977865
v 2407.612296 -11554.769756 -783.977865
v 2275.194311 -11300.083213 -763.593424
v 2226.888279 -11340.903373 -765.977865
v 2226.888279 -11340.903373 -783.977865
v 2275.194311 -11300.083213 -781.593424
v 2455.918327 -11513.949596 -763.593424
v 2407.612296 -11554.769756 -765.977865
v 2407.612296 -11554.769756 -783.977865
v 2455.918327 -11513.949596 -781.593424
v 2359.306265 -11595.589916 -782.072543
v 2178.582248 -11381.723533 -782.072543
v 2226.888279 -11340.903373 -765.977865
v 2407.612296 -11554.769756 -765.977865
v 2407.612296 -11554.769756 -783.977865
v 2226.888279 -11340.903373 -783.977865
v 2178.582248 -11381.723533 -800.072543
v 2359.306265 -11595.589916 -800.072543
v 2226.888279 -11340.903373 -765.977865
v 2178.582248 -11381.723533 -782.072543
v 2178.582248 -11381.723533 -800.072543
v 2226.888279 -11340.903373 -783.977865
v 2407.612296 -11554.769756 -765.977865
v 2359.306265 -11595.589916 -782.072543
v 2359.306265 -11595.589916 -800.072543
v 2407.612296 -11554.769756 -783.977865
v 2284.561798 -11654.031197 -787.068705
v 2156.714652 -11404.922572 -787.068705
v 2178.582248 -11381.723533 -782.072543
v 2359.306265 -11595.589916 -782.072543
v 2359.306265 -11595.589916 -800.072543
v 2178.582248 -11381.723533 -800.072543
v 2156.714652 -11404.922572 -805.068705
v 2284.561798 -11654.031197 -805.068705
v 2178.582248 -11381.723533 -782.072543
v 2156.714652 -11404.922572 -787.068705
v 2156.714652 -11404.922572 -805.068705
v 2178.582248 -11381.723533 -800.072543
v 2359.306265 -11595.589916 -782.072543
v 2284.561798 -11654.031197 -787.068705
v 2284.561798 -11654.031197 -805.068705
v 2359.306265 -11595.589916 -800.072543
v 2195.364857 -11678.992669 -792.192761
v 2132.385895 -11406.167358 -792.192761
v 2156.714652 -11404.922572 -787.068705
v 2284.561798 -11654.031197 -787.068705
v 2284.561798 -11654.031197 -805.068705
v 2156.714652 -11404.922572 -805.068705
v 2132.385895 -11406.167358 -810.192761
v 2195.364857 -11678.992669 -810.192761
v 2156.714652 -11404.922572 -787.068705
v 2132.385895 -11406.167358 -792.192761
v 2132.385895 -11406.167358 -810.192761
v 2156.714652 -11404.922572 -805.068705
v 2284.561798 -11654.031197 -787.068705
v 2195.364857 -11678.992669 -792.192761
v 2195.364857 -11678.992669 -810.192761
v 2284.561798 -11654.031197 -805.068705
v 2138.602009 -11692.095799 -797.793626
v 2075.623047 -11419.270488 -797.793626
v 2132.385895 -11406.167358 -792.192761
v 2195.364857 -11678.992669 -792.192761
v 2195.364857 -11678.992669 -810.192761
v 2132.385895 -11406.167358 -810.192761
v 2075.623047 -11419.270488 -815.793626
v 2138.602009 -11692.095799 -815.793626
v 2132.385895 -11406.167358 -792.192761
v 2075.623047 -11419.270488 -797.793626
v 2075.623047 -11419.270488 -815.793626
v 2132.385895 -11406.167358 -810.192761
v 2195.364857 -11678.992669 -792.192761
v 2138.602009 -11692.095799 -797.793626
v 2138.602009 -11692.095799 -815.793626
v 2195.364857 -11678.992669 -810.192761
v 2081.839160 -11705.198928 -803.817686
v 2018.860198 -11432.373617 -803.817686
v 2075.623047 -11419.270488 -797.793626
v 2138.602009 -11692.095799 -797.793626
v 2138.602009 -11692.095799 -815.793626
v 2075.623047 -11419.270488 -815.793626
v 2018.860198 -11432.373617 -821.817686
v 2081.839160 -11705.198928 -821.817686
v 2075.623047 -11419.270488 -797.793626
v 2018.860198 -11432.373617 -803.817686
v 2018.860198 -11432.373617 -821.817686
v 2075.623047 -11419.270488 -815.793626
v 2138.602009 -11692.095799 -797.793626
v 2081.839160 -11705.198928 -803.817686
v 2081.839160 -11705.198928 -821.817686
v 2138.602009 -11692.095799 -815.793626
v 2025.076311 -11718.302057 -810.184791
v 1962.097349 -11445.476746 -810.184791
v 2018.860198 -11432.373617 -803.817686
v 2081.839160 -11705.198928 -803.817686
v 2081.839160 -11705.198928 -821.817686
v 2018.860198 -11432.373617 -821.817686
v 1962.097349 -11445.476746 -828.184791
v 2025.076311 -11718.302057 -828.184791
v 2018.860198 -11432.373617 -803.817686
v 1962.097349 -11445.476746 -810.184791
v 1962.097349 -11445.476746 -828.184791
v 2018.860198 -11432.373617 -821.817686
v 2081.839160 -11705.198928 -803.817686
v 2025.076311 -11718.302057 -810.184791
v 2025.076311 -11718.302057 -828.184791
v 2081.839160 -11705.198928 -821.817686
v 1968.313463 -11731.405186 -816.793289
v 1905.334501 -11458.579875 -816.793289
v 1962.097349 -11445.476746 -810.184791
v 2025.076311 -11718.302057 -810.184791
v 2025.076311 -11718.302057 -828.184791
v 1962.097349 -11445.476746 -828.184791
v 1905.334501 -11458.579875 -834.793289
v 1968.313463 -11731.405186 -834.793289
v 1962.097349 -11445.476746 -810.184791
v 1905.334501 -11458.579875 -816.793289
v 1905.334501 -11458.579875 -834.793289
v 1962.097349 -11445.476746 -828.184791
v 2025.076311 -11718.302057 -810.184791
v 1968.313463 -11731.405186 -816.793289
v 1968.313463 -11731.405186 -834.793289
v 2025.076311 -11718.302057 -828.184791
v 1911.550614 -11744.508315 -823.526388
v 1848.571652 -11471.683004 -823.526388
v 1905.334501 -11458.579875 -816.793289
v 1968.313463 -11731.405186 -816.793289
v 1968.313463 -11731.405186 -834.793289
v 1905.334501 -11458.579875 -834.793289
v 1848.571652 -11471.683004 -841.526388
v 1911.550614 -11744.508315 -841.526388
v 1905.334501 -11458.579875 -816.793289
v 1848.571652 -11471.683004 -823.526388
v 1848.571652 -11471.683004 -841.526388
v 1905.334501 -11458.579875 -834.793289
v 1968.313463 -11731.405186 -816.793289
v 1911.550614 -11744.508315 -823.526388
v 1911.550614 -11744.508315 -841.526388
v 1968.313463 -11731.405186 -834.793289
v 2420.112405 -11177.622732 -764.139689
v 2600.836421 -11391.489115 -764.139689
v 2600.836421 -11391.489115 -782.139689
v 2420.112405 -11177.622732 -782.139689
v 1848.571652 -11471.683004 -823.526388
v 1911.550614 -11744.508315 -823.526388
v 1911.550614 -11744.508315 -841.526388
v 1848.571652 -11471.683004 -841.526388
vt 12.762652 57.161546
vt 11.859032 56.092214
vt 12.100562 55.888114
vt 13.004182 56.957446
vt 13.004182 56.957446
vt 12.100562 55.888114
vt 11.859032 56.092214
vt 12.762652 57.161546
vt 12.100562 55.888114
vt 11.859032 56.092214
vt 11.859032 56.092214
vt 12.100562 55.888114
vt 13.004182 56.957446
vt 12.762652 57.161546
vt 12.762652 57.161546
vt 13.004182 56.957446
vt 12.521122 57.365647
vt 11.617502 56.296315
vt 11.859032 56.092214
vt 12.762652 57.161546
vt 12.762652 57.161546
vt 11.859032 56.092214
vt 11.617502 56.296315
vt 12.521122 57.365647
vt 11.859032 56.092214
vt 11.617502 56.296315
vt 11.617502 56.296315
vt 11.859032 56.092214
vt 12.762652 57.161546
vt 12.521122 57.365647
vt 12.521122 57.365647
vt 12.762652 57.161546
vt 12.279592 57.569748
vt 11.375972 56.500416
vt 11.617502 56.296315
vt 12.521122 57.365647
vt 12.521122 57.365647
vt 11.617502 56.296315
vt 11.375972 56.500416
vt 12.279592 57.569748
vt 11.617502 56.296315
vt 11.375972 56.500416
vt 11.375972 56.500416
vt 11.617502 56.296315
vt 12.521122 57.365647
vt 12.279592 57.569748
vt 12.279592 57.569748
vt 12.521122 57.365647
vt 12.038061 57.773849
vt 11.134441 56.704517
vt 11.375972 56.500416
vt 12.279592 57.569748
vt 12.279592 57.569748
vt 11.375972 56.500416
vt 11.134441 56.704517
vt 12.038061 57.773849
vt 11.375972 56.500416
vt 11.134441 56.704517
vt 11.134441 56.704517
vt 11.375972 56.500416
vt 12.279592 57.569748
vt 12.038061 57.773849
vt 12.038061 57.773849
vt 12.279592 57.569748
vt 11.796531 57.977950
vt 10.892911 56.908618
vt 11.134441 56.704517
vt 12.038061 57.773849
vt 12.038061 57.773849
vt 11.134441 56.704517
vt 10.892911 56.908618
vt 11.796531 57.977950
vt 11.134441 56.704517
vt 10.892911 56.908618
vt 10.892911 56.908618
vt 11.134441 56.704517
vt 12.038061 57.773849
vt 11.796531 57.977950
vt 11.796531 57.977950
vt 12.038061 57.773849
vt 11.422809 58.270156
vt 10.783573 57.024613
vt 10.892911 56.908618
vt 11.796531 57.977950
vt 11.796531 57.977950
vt 10.892911 56.908618
vt 10.783573 57.024613
vt 11.422809 58.270156
vt 10.892911 56.908618
vt 10.783573 57.024613
vt 10.783573 57.024613
vt 10.892911 56.908618
vt 11.796531 57.977950
vt 11.422809 58.270156
vt 11.422809 58.270156
vt 11.796531 57.977950
vt 10.976824 58.394963
vt 10.661929 57.030837
vt 10.783573 57.024613
vt 11.422809 58.270156
vt 11.422809 58.270156
vt 10.783573 57.024613
vt 10.661929 57.030837
vt 10.976824 58.394963
vt 10.783573 57.024613
vt 10.661929 57.030837
vt 10.661929 57.030837
vt 10.783573 57.024613
vt 11.422809 58.270156
vt 10.976824 58.394963
vt 10.976824 58.394963
vt 11.422809 58.270156
vt 10.693010 58.460479
vt 10.378115 57.096352
vt 10.661929 57.030837
vt 10.976824 58.394963
vt 10.976824 58.394963
vt 10.661929 57.030837
vt 10.378115 57.096352
vt 10.693010 58.460479
vt 10.661929 57.030837
vt 10.378115 57.096352
vt 10.378115 57.096352
vt 10.661929 57.030837
vt 10.976824 58.394963
vt 10.693010 58.460479
vt 10.693010 58.460479
vt 10.976824 58.394963
vt 10.409196 58.525995
vt 10.094301 57.161868
vt 10.378115 57.096352
vt 10.693010 58.460479
vt 10.693010 58.460479
vt 10.378115 57.096352
vt 10.094301 57.161868
vt 10.409196 58.525995
vt 10.378115 57.096352
vt 10.094301 57.161868
vt 10.094301 57.161868
vt 10.378115 57.096352
vt 10.693010 58.460479
vt 10.409196 58.525995
vt 10.409196 58.525995
vt 10.693010 58.460479
vt 10.125382 58.591510
vt 9.810487 57.227384
vt 10.094301 57.161868
vt 10.409196 58.525995
vt 10.409196 58.525995
vt 10.094301 57.161868
vt 9.810487 57.227384
vt 10.125382 58.591510
vt 10.094301 57.161868
vt 9.810487 57.227384
vt 9.810487 57.227384
vt 10.094301 57.161868
vt 10.409196 58.525995
vt 10.125382 58.591510
vt 10.125382 58.591510
vt 10.409196 58.525995
vt 9.841567 58.657026
vt 9.526673 57.292899
vt 9.810487 57.227384
vt 10.125382 58.591510
vt 10.125382 58.591510
vt 9.810487 57.227384
vt 9.526673 57.292899
vt 9.841567 58.657026
vt 9.810487 57.227384
vt 9.526673 57.292899
vt 9.526673 57.292899
vt 9.810487 57.227384
vt 10.125382 58.591510
vt 9.841567 58.657026
vt 9.841567 58.657026
vt 10.125382 58.591510
vt 9.557753 58.722542
vt 9.242858 57.358415
vt 9.526673 57.292899
vt 9.841567 58.657026
vt 9.841567 58.657026
vt 9.526673 57.292899
vt 9.242858 57.358415
vt 9.557753 58.722542
vt 9.526673 57.292899
vt 9.242858 57.358415
vt 9.242858 57.358415
vt 9.526673 57.292899
vt 9.841567 58.657026
vt 9.557753 58.722542
vt 9.557753 58.722542
vt 9.841567 58.657026
vt 12.100562 55.888114
vt 13.004182 56.957446
vt 13.004182 56.957446
vt 12.100562 55.888114
vt 9.242858 57.358415
vt 9.557753 58.722542
vt 9.557753 58.722542
vt 9.242858 57.358415
f 3/3 2/2 1/1
f 4/4 3/3 1/1
f 7/7 6/6 5/5
f 8/8 7/7 5/5
f 11/11 10/10 9/9
f 12/12 11/11 9/9
f 15/15 14/14 13/13
f 16/16 15/15 13/13
f 19/19 18/18 17/17
f 20/20 19/19 17/17
f 23/23 22/22 21/21
f 24/24 23/23 21/21
f 27/27 26/26 25/25
f 28/28 27/27 25/25
f 31/31 30/30 29/29
f 32/32 31/31 29/29
f 35/35 34/34 33/33
f 36/36 35/35 33/33
f 39/39 38/38 37/37
f 40/40 39/39 37/37
f 43/43 42/42 41/41
f 44/44 43/43 41/41
f 47/47 46/46 45/45
f 48/48 47/47 45/45
f 51/51 50/50 49/49
f 52/52 51/51 49/49
f 55/55 54/54 53/53
f 56/56 55/55 53/53
f 59/59 58/58 57/57
f 60/60 59/59 57/57
f 63/63 62/62 61/61
f 64/64 63/63 61/61
f 67/67 66/66 65/65
f 68/68 67/67 65/65
f 71/71 70/70 69/69
f 72/72 71/71 69/69
f 75/75 74/74 73/73
f 76/76 75/75 73/73
f 79/79 78/78 77/77
f 80/80 79/79 77/77
f 83/83 82/82 81/81
f 84/84 83/83 81/81
f 87/87 86/86 85/85
f 88/88 87/87 85/85
f 91/91 90/90 89/89
f 92/92 91/91 89/89
f 95/95 94/94 93/93
f 96/96 95/95 93/93
f 99/99 98/98 97/97
f 100/100 99/99 97/97
f 103/103 102/102 101/101
f 104/104 103/103 101/101
f 107/107 106/106 105/105
f 108/108 107/107 105/105
f 111/111 110/110 109/109
f 112/112 111/111 109/109
f 115/115 114/114 113/113
f 116/116 115/115 113/113
f 119/119 118/118 117/117
f 120/120 119/119 117/117
f 123/123 122/122 121/121
f 124/124 123/123 121/121
f 127/127 126/126 125/125
f 128/128 127/127 125/125
f 131/131 130/130 129/129
f 132/132 131/131 129/129
f 135/135 134/134 133/133
f 136/136 135/135 133/133
f 139/139 138/138 137/137
f 140/140 139/139 137/137
f 143/143 142/142 141/141
f 144/144 143/143 141/141
f 147/147 146/146 145/145
f 148/148 147/147 145/145
f 151/151 150/150 149/149
f 152/152 151/151 149/149
f 155/155 154/154 153/153
f 156/156 155/155 153/153
f 159/159 158/158 157/157
f 160/160 159/159 157/157
f 163/163 162/162 161/161
f 164/164 163/163 161/161
f 167/167 166/166 165/165
f 168/168 167/167 165/165
f 171/171 170/170 169/169
f 172/172 171/171 169/169
f 175/175 174/174 173/173
f 176/176 175/175 173/173
f 179/179 178/178 177/177
f 180/180 179/179 177/177
f 183/183 182/182 181/181
f 184/184 183/183 181/181
f 187/187 186/186 185/185
f 188/188 187/187 185/185
f 191/191 190/190 189/189
f 192/192 191/191 189/189
f 195/195 194/194 193/193
f 196/196 195/195 193/193
f 199/199 198/198 197/197
f 200/200 199/199 197/197
