# OSM contributors ODbL; authored bridge elevation
o ParkBridge_226119763_Deck
v 5920.957602 -31416.635458 -835.365281
v 6197.678024 -31459.364932 -835.365281
v 6189.313089 -31513.537101 -835.924662
v 5912.592667 -31470.807626 -835.924662
v 5912.592667 -31470.807626 -853.924662
v 6189.313089 -31513.537101 -853.924662
v 6197.678024 -31459.364932 -853.365281
v 5920.957602 -31416.635458 -853.365281
v 6189.313089 -31513.537101 -835.924662
v 6197.678024 -31459.364932 -835.365281
v 6197.678024 -31459.364932 -853.365281
v 6189.313089 -31513.537101 -853.924662
v 5912.592667 -31470.807626 -835.924662
v 5920.957602 -31416.635458 -835.365281
v 5920.957602 -31416.635458 -853.365281
v 5912.592667 -31470.807626 -853.924662
v 5929.322537 -31362.463289 -835.047412
v 6206.042959 -31405.192764 -835.047412
v 6197.678024 -31459.364932 -835.365281
v 5920.957602 -31416.635458 -835.365281
v 5920.957602 -31416.635458 -853.365281
v 6197.678024 -31459.364932 -853.365281
v 6206.042959 -31405.192764 -853.047412
v 5929.322537 -31362.463289 -853.047412
v 6197.678024 -31459.364932 -835.365281
v 6206.042959 -31405.192764 -835.047412
v 6206.042959 -31405.192764 -853.047412
v 6197.678024 -31459.364932 -853.365281
v 5920.957602 -31416.635458 -835.365281
v 5929.322537 -31362.463289 -835.047412
v 5929.322537 -31362.463289 -853.047412
v 5920.957602 -31416.635458 -853.365281
v 5937.687471 -31308.291120 -835.188959
v 6214.407894 -31351.020595 -835.188959
v 6206.042959 -31405.192764 -835.047412
v 5929.322537 -31362.463289 -835.047412
v 5929.322537 -31362.463289 -853.047412
v 6206.042959 -31405.192764 -853.047412
v 6214.407894 -31351.020595 -853.188959
v 5937.687471 -31308.291120 -853.188959
v 6206.042959 -31405.192764 -835.047412
v 6214.407894 -31351.020595 -835.188959
v 6214.407894 -31351.020595 -853.188959
v 6206.042959 -31405.192764 -853.047412
v 5929.322537 -31362.463289 -835.047412
v 5937.687471 -31308.291120 -835.188959
v 5937.687471 -31308.291120 -853.188959
v 5929.322537 -31362.463289 -853.047412
v 5946.052406 -31254.118951 -835.962914
v 6222.772828 -31296.848426 -835.962914
v 6214.407894 -31351.020595 -835.188959
v 5937.687471 -31308.291120 -835.188959
v 5937.687471 -31308.291120 -853.188959
v 6214.407894 -31351.020595 -853.188959
v 6222.772828 -31296.848426 -853.962914
v 5946.052406 -31254.118951 -853.962914
v 6214.407894 -31351.020595 -835.188959
v 6222.772828 -31296.848426 -835.962914
v 6222.772828 -31296.848426 -853.962914
v 6214.407894 -31351.020595 -853.188959
v 5937.687471 -31308.291120 -835.188959
v 5946.052406 -31254.118951 -835.962914
v 5946.052406 -31254.118951 -853.962914
v 5937.687471 -31308.291120 -853.188959
v 5954.415510 -31199.958649 -837.480446
v 6231.139595 -31242.664391 -837.480446
v 6222.772828 -31296.848426 -835.962914
v 5946.052406 -31254.118951 -835.962914
v 5946.052406 -31254.118951 -853.962914
v 6222.772828 -31296.848426 -853.962914
v 6231.139595 -31242.664391 -855.480446
v 5954.415510 -31199.958649 -855.480446
v 6222.772828 -31296.848426 -835.962914
v 6231.139595 -31242.664391 -837.480446
v 6231.139595 -31242.664391 -855.480446
v 6222.772828 -31296.848426 -853.962914
v 5946.052406 -31254.118951 -835.962914
v 5954.415510 -31199.958649 -837.480446
v 5954.415510 -31199.958649 -855.480446
v 5946.052406 -31254.118951 -853.962914
v 5962.780514 -31145.724385 -839.783628
v 6239.508257 -31188.406427 -839.783628
v 6231.139595 -31242.664391 -837.480446
v 5954.415510 -31199.958649 -837.480446
v 5954.415510 -31199.958649 -855.480446
v 6231.139595 -31242.664391 -855.480446
v 6239.508257 -31188.406427 -857.783628
v 5962.780514 -31145.724385 -857.783628
v 6231.139595 -31242.664391 -837.480446
v 6239.508257 -31188.406427 -839.783628
v 6239.508257 -31188.406427 -857.783628
v 6231.139595 -31242.664391 -855.480446
v 5954.415510 -31199.958649 -837.480446
v 5962.780514 -31145.724385 -839.783628
v 5962.780514 -31145.724385 -857.783628
v 5954.415510 -31199.958649 -855.480446
v 5971.147348 -31091.478272 -842.832771
v 6247.875090 -31134.160313 -842.832771
v 6239.508257 -31188.406427 -839.783628
v 5962.780514 -31145.724385 -839.783628
v 5962.780514 -31145.724385 -857.783628
v 6239.508257 -31188.406427 -857.783628
v 6247.875090 -31134.160313 -860.832771
v 5971.147348 -31091.478272 -860.832771
v 6239.508257 -31188.406427 -839.783628
v 6247.875090 -31134.160313 -842.832771
v 6247.875090 -31134.160313 -860.832771
v 6239.508257 -31188.406427 -857.783628
v 5962.780514 -31145.724385 -839.783628
v 5971.147348 -31091.478272 -842.832771
v 5971.147348 -31091.478272 -860.832771
v 5962.780514 -31145.724385 -857.783628
v 5979.514181 -31037.232158 -846.516582
v 6256.241923 -31079.914199 -846.516582
v 6247.875090 -31134.160313 -842.832771
v 5971.147348 -31091.478272 -842.832771
v 5971.147348 -31091.478272 -860.832771
v 6247.875090 -31134.160313 -860.832771
v 6256.241923 -31079.914199 -864.516582
v 5979.514181 -31037.232158 -864.516582
v 6247.875090 -31134.160313 -842.832771
v 6256.241923 -31079.914199 -846.516582
v 6256.241923 -31079.914199 -864.516582
v 6247.875090 -31134.160313 -860.832771
v 5971.147348 -31091.478272 -842.832771
v 5979.514181 -31037.232158 -846.516582
v 5979.514181 -31037.232158 -864.516582
v 5971.147348 -31091.478272 -860.832771
v 5987.881014 -30982.986044 -850.661563
v 6264.608756 -31025.668085 -850.661563
v 6256.241923 -31079.914199 -846.516582
v 5979.514181 -31037.232158 -846.516582
v 5979.514181 -31037.232158 -864.516582
v 6256.241923 -31079.914199 -864.516582
v 6264.608756 -31025.668085 -868.661563
v 5987.881014 -30982.986044 -868.661563
v 6256.241923 -31079.914199 -846.516582
v 6264.608756 -31025.668085 -850.661563
v 6264.608756 -31025.668085 -868.661563
v 6256.241923 -31079.914199 -864.516582
v 5979.514181 -31037.232158 -846.516582
v 5987.881014 -30982.986044 -850.661563
v 5987.881014 -30982.986044 -868.661563
v 5979.514181 -31037.232158 -864.516582
v 5996.247847 -30928.739930 -855.049011
v 6272.975590 -30971.421971 -855.049011
v 6264.608756 -31025.668085 -850.661563
v 5987.881014 -30982.986044 -850.661563
v 5987.881014 -30982.986044 -868.661563
v 6264.608756 -31025.668085 -868.661563
v 6272.975590 -30971.421971 -873.049011
v 5996.247847 -30928.739930 -873.049011
v 6264.608756 -31025.668085 -850.661563
v 6272.975590 -30971.421971 -855.049011
v 6272.975590 -30971.421971 -873.049011
v 6264.608756 -31025.668085 -868.661563
v 5987.881014 -30982.986044 -850.661563
v 5996.247847 -30928.739930 -855.049011
v 5996.247847 -30928.739930 -873.049011
v 5987.881014 -30982.986044 -868.661563
v 6189.313089 -31513.537101 -835.924662
v 5912.592667 -31470.807626 -835.924662
v 5912.592667 -31470.807626 -853.924662
v 6189.313089 -31513.537101 -853.924662
v 6272.975590 -30971.421971 -855.049011
v 5996.247847 -30928.739930 -855.049011
v 5996.247847 -30928.739930 -873.049011
v 6272.975590 -30971.421971 -873.049011
vt 29.604788 157.083177
vt 30.988390 157.296825
vt 30.946565 157.567686
vt 29.562963 157.354038
vt 29.562963 157.354038
vt 30.946565 157.567686
vt 30.988390 157.296825
vt 29.604788 157.083177
vt 30.946565 157.567686
vt 30.988390 157.296825
vt 30.988390 157.296825
vt 30.946565 157.567686
vt 29.562963 157.354038
vt 29.604788 157.083177
vt 29.604788 157.083177
vt 29.562963 157.354038
vt 29.646613 156.812316
vt 31.030215 157.025964
vt 30.988390 157.296825
vt 29.604788 157.083177
vt 29.604788 157.083177
vt 30.988390 157.296825
vt 31.030215 157.025964
vt 29.646613 156.812316
vt 30.988390 157.296825
vt 31.030215 157.025964
vt 31.030215 157.025964
vt 30.988390 157.296825
vt 29.604788 157.083177
vt 29.646613 156.812316
vt 29.646613 156.812316
vt 29.604788 157.083177
vt 29.688437 156.541456
vt 31.072039 156.755103
vt 31.030215 157.025964
vt 29.646613 156.812316
vt 29.646613 156.812316
vt 31.030215 157.025964
vt 31.072039 156.755103
vt 29.688437 156.541456
vt 31.030215 157.025964
vt 31.072039 156.755103
vt 31.072039 156.755103
vt 31.030215 157.025964
vt 29.646613 156.812316
vt 29.688437 156.541456
vt 29.688437 156.541456
vt 29.646613 156.812316
vt 29.730262 156.270595
vt 31.113864 156.484242
vt 31.072039 156.755103
vt 29.688437 156.541456
vt 29.688437 156.541456
vt 31.072039 156.755103
vt 31.113864 156.484242
vt 29.730262 156.270595
vt 31.072039 156.755103
vt 31.113864 156.484242
vt 31.113864 156.484242
vt 31.072039 156.755103
vt 29.688437 156.541456
vt 29.730262 156.270595
vt 29.730262 156.270595
vt 29.688437 156.541456
vt 29.772078 155.999793
vt 31.155698 156.213322
vt 31.113864 156.484242
vt 29.730262 156.270595
vt 29.730262 156.270595
vt 31.113864 156.484242
vt 31.155698 156.213322
vt 29.772078 155.999793
vt 31.113864 156.484242
vt 31.155698 156.213322
vt 31.155698 156.213322
vt 31.113864 156.484242
vt 29.730262 156.270595
vt 29.772078 155.999793
vt 29.772078 155.999793
vt 29.730262 156.270595
vt 29.813903 155.728622
vt 31.197541 155.942032
vt 31.155698 156.213322
vt 29.772078 155.999793
vt 29.772078 155.999793
vt 31.155698 156.213322
vt 31.197541 155.942032
vt 29.813903 155.728622
vt 31.155698 156.213322
vt 31.197541 155.942032
vt 31.197541 155.942032
vt 31.155698 156.213322
vt 29.772078 155.999793
vt 29.813903 155.728622
vt 29.813903 155.728622
vt 29.772078 155.999793
vt 29.855737 155.457391
vt 31.239375 155.670802
vt 31.197541 155.942032
vt 29.813903 155.728622
vt 29.813903 155.728622
vt 31.197541 155.942032
vt 31.239375 155.670802
vt 29.855737 155.457391
vt 31.197541 155.942032
vt 31.239375 155.670802
vt 31.239375 155.670802
vt 31.197541 155.942032
vt 29.813903 155.728622
vt 29.855737 155.457391
vt 29.855737 155.457391
vt 29.813903 155.728622
vt 29.897571 155.186161
vt 31.281210 155.399571
vt 31.239375 155.670802
vt 29.855737 155.457391
vt 29.855737 155.457391
vt 31.239375 155.670802
vt 31.281210 155.399571
vt 29.897571 155.186161
vt 31.239375 155.670802
vt 31.281210 155.399571
vt 31.281210 155.399571
vt 31.239375 155.670802
vt 29.855737 155.457391
vt 29.897571 155.186161
vt 29.897571 155.186161
vt 29.855737 155.457391
vt 29.939405 154.914930
vt 31.323044 155.128340
vt 31.281210 155.399571
vt 29.897571 155.186161
vt 29.897571 155.186161
vt 31.281210 155.399571
vt 31.323044 155.128340
vt 29.939405 154.914930
vt 31.281210 155.399571
vt 31.323044 155.128340
vt 31.323044 155.128340
vt 31.281210 155.399571
vt 29.897571 155.186161
vt 29.939405 154.914930
vt 29.939405 154.914930
vt 29.897571 155.186161
vt 29.981239 154.643700
vt 31.364878 154.857110
vt 31.323044 155.128340
vt 29.939405 154.914930
vt 29.939405 154.914930
vt 31.323044 155.128340
vt 31.364878 154.857110
vt 29.981239 154.643700
vt 31.323044 155.128340
vt 31.364878 154.857110
vt 31.364878 154.857110
vt 31.323044 155.128340
vt 29.939405 154.914930
vt 29.981239 154.643700
vt 29.981239 154.643700
vt 29.939405 154.914930
vt 30.946565 157.567686
vt 29.562963 157.354038
vt 29.562963 157.354038
vt 30.946565 157.567686
vt 31.364878 154.857110
vt 29.981239 154.643700
vt 29.981239 154.643700
vt 31.364878 154.857110
f 3/3 2/2 1/1
f 4/4 3/3 1/1
f 7/7 6/6 5/5
f 8/8 7/7 5/5
f 11/11 10/10 9/9
f 12/12 11/11 9/9
f 15/15 14/14 13/13
f 16/16 15/15 13/13
f 19/19 18/18 17/17
f 20/20 19/19 17/17
f 23/23 22/22 21/21
f 24/24 23/23 21/21
f 27/27 26/26 25/25
f 28/28 27/27 25/25
f 31/31 30/30 29/29
f 32/32 31/31 29/29
f 35/35 34/34 33/33
f 36/36 35/35 33/33
f 39/39 38/38 37/37
f 40/40 39/39 37/37
f 43/43 42/42 41/41
f 44/44 43/43 41/41
f 47/47 46/46 45/45
f 48/48 47/47 45/45
f 51/51 50/50 49/49
f 52/52 51/51 49/49
f 55/55 54/54 53/53
f 56/56 55/55 53/53
f 59/59 58/58 57/57
f 60/60 59/59 57/57
f 63/63 62/62 61/61
f 64/64 63/63 61/61
f 67/67 66/66 65/65
f 68/68 67/67 65/65
f 71/71 70/70 69/69
f 72/72 71/71 69/69
f 75/75 74/74 73/73
f 76/76 75/75 73/73
f 79/79 78/78 77/77
f 80/80 79/79 77/77
f 83/83 82/82 81/81
f 84/84 83/83 81/81
f 87/87 86/86 85/85
f 88/88 87/87 85/85
f 91/91 90/90 89/89
f 92/92 91/91 89/89
f 95/95 94/94 93/93
f 96/96 95/95 93/93
f 99/99 98/98 97/97
f 100/100 99/99 97/97
f 103/103 102/102 101/101
f 104/104 103/103 101/101
f 107/107 106/106 105/105
f 108/108 107/107 105/105
f 111/111 110/110 109/109
f 112/112 111/111 109/109
f 115/115 114/114 113/113
f 116/116 115/115 113/113
f 119/119 118/118 117/117
f 120/120 119/119 117/117
f 123/123 122/122 121/121
f 124/124 123/123 121/121
f 127/127 126/126 125/125
f 128/128 127/127 125/125
f 131/131 130/130 129/129
f 132/132 131/131 129/129
f 135/135 134/134 133/133
f 136/136 135/135 133/133
f 139/139 138/138 137/137
f 140/140 139/139 137/137
f 143/143 142/142 141/141
f 144/144 143/143 141/141
f 147/147 146/146 145/145
f 148/148 147/147 145/145
f 151/151 150/150 149/149
f 152/152 151/151 149/149
f 155/155 154/154 153/153
f 156/156 155/155 153/153
f 159/159 158/158 157/157
f 160/160 159/159 157/157
f 163/163 162/162 161/161
f 164/164 163/163 161/161
f 167/167 166/166 165/165
f 168/168 167/167 165/165
