# OSM contributors ODbL; authored bridge elevation
o ParkBridge_226324514_Wood
v 10885.250604 -33816.151478 -918.730431
v 10878.923324 -33536.222977 -918.730431
v 10944.214866 -33534.747179 -920.044840
v 10950.542145 -33814.675680 -920.044840
v 10950.542145 -33814.675680 -938.044840
v 10944.214866 -33534.747179 -938.044840
v 10878.923324 -33536.222977 -936.730431
v 10885.250604 -33816.151478 -936.730431
v 10944.214866 -33534.747179 -920.044840
v 10878.923324 -33536.222977 -918.730431
v 10878.923324 -33536.222977 -936.730431
v 10944.214866 -33534.747179 -938.044840
v 10950.542145 -33814.675680 -920.044840
v 10885.250604 -33816.151478 -918.730431
v 10885.250604 -33816.151478 -936.730431
v 10950.542145 -33814.675680 -938.044840
v 10819.959062 -33817.627275 -917.426235
v 10813.631783 -33537.698775 -917.426235
v 10878.923324 -33536.222977 -918.730431
v 10885.250604 -33816.151478 -918.730431
v 10885.250604 -33816.151478 -936.730431
v 10878.923324 -33536.222977 -936.730431
v 10813.631783 -33537.698775 -935.426235
v 10819.959062 -33817.627275 -935.426235
v 10878.923324 -33536.222977 -918.730431
v 10813.631783 -33537.698775 -917.426235
v 10813.631783 -33537.698775 -935.426235
v 10878.923324 -33536.222977 -936.730431
v 10885.250604 -33816.151478 -918.730431
v 10819.959062 -33817.627275 -917.426235
v 10819.959062 -33817.627275 -935.426235
v 10885.250604 -33816.151478 -936.730431
v 10754.667521 -33819.103073 -916.142344
v 10748.340241 -33539.174572 -916.142344
v 10813.631783 -33537.698775 -917.426235
v 10819.959062 -33817.627275 -917.426235
v 10819.959062 -33817.627275 -935.426235
v 10813.631783 -33537.698775 -935.426235
v 10748.340241 -33539.174572 -934.142344
v 10754.667521 -33819.103073 -934.142344
v 10813.631783 -33537.698775 -917.426235
v 10748.340241 -33539.174572 -916.142344
v 10748.340241 -33539.174572 -934.142344
v 10813.631783 -33537.698775 -935.426235
v 10819.959062 -33817.627275 -917.426235
v 10754.667521 -33819.103073 -916.142344
v 10754.667521 -33819.103073 -934.142344
v 10819.959062 -33817.627275 -935.426235
v 10707.876643 -33818.928242 -914.888611
v 10664.548036 -33542.300999 -914.888611
v 10748.340241 -33539.174572 -916.142344
v 10754.667521 -33819.103073 -916.142344
v 10754.667521 -33819.103073 -934.142344
v 10748.340241 -33539.174572 -934.142344
v 10664.548036 -33542.300999 -932.888611
v 10707.876643 -33818.928242 -932.888611
v 10748.340241 -33539.174572 -916.142344
v 10664.548036 -33542.300999 -914.888611
v 10664.548036 -33542.300999 -932.888611
v 10748.340241 -33539.174572 -934.142344
v 10754.667521 -33819.103073 -916.142344
v 10707.876643 -33818.928242 -914.888611
v 10707.876643 -33818.928242 -932.888611
v 10754.667521 -33819.103073 -934.142344
v 10663.607517 -33833.359074 -913.677796
v 10583.941847 -33564.931465 -913.677796
v 10664.548036 -33542.300999 -914.888611
v 10707.876643 -33818.928242 -914.888611
v 10707.876643 -33818.928242 -932.888611
v 10664.548036 -33542.300999 -932.888611
v 10583.941847 -33564.931465 -931.677796
v 10663.607517 -33833.359074 -931.677796
v 10664.548036 -33542.300999 -914.888611
v 10583.941847 -33564.931465 -913.677796
v 10583.941847 -33564.931465 -931.677796
v 10664.548036 -33542.300999 -932.888611
v 10707.876643 -33818.928242 -914.888611
v 10663.607517 -33833.359074 -913.677796
v 10663.607517 -33833.359074 -931.677796
v 10707.876643 -33818.928242 -932.888611
v 10601.169859 -33851.889723 -912.515378
v 10521.504189 -33583.462115 -912.515378
v 10583.941847 -33564.931465 -913.677796
v 10663.607517 -33833.359074 -913.677796
v 10663.607517 -33833.359074 -931.677796
v 10583.941847 -33564.931465 -931.677796
v 10521.504189 -33583.462115 -930.515378
v 10601.169859 -33851.889723 -930.515378
v 10583.941847 -33564.931465 -913.677796
v 10521.504189 -33583.462115 -912.515378
v 10521.504189 -33583.462115 -930.515378
v 10583.941847 -33564.931465 -931.677796
v 10663.607517 -33833.359074 -913.677796
v 10601.169859 -33851.889723 -912.515378
v 10601.169859 -33851.889723 -930.515378
v 10663.607517 -33833.359074 -931.677796
v 10538.732201 -33870.420372 -911.409748
v 10459.066531 -33601.992764 -911.409748
v 10521.504189 -33583.462115 -912.515378
v 10601.169859 -33851.889723 -912.515378
v 10601.169859 -33851.889723 -930.515378
v 10521.504189 -33583.462115 -930.515378
v 10459.066531 -33601.992764 -929.409748
v 10538.732201 -33870.420372 -929.409748
v 10521.504189 -33583.462115 -912.515378
v 10459.066531 -33601.992764 -911.409748
v 10459.066531 -33601.992764 -929.409748
v 10521.504189 -33583.462115 -930.515378
v 10601.169859 -33851.889723 -912.515378
v 10538.732201 -33870.420372 -911.409748
v 10538.732201 -33870.420372 -929.409748
v 10601.169859 -33851.889723 -930.515378
v 10476.294544 -33888.951022 -910.368633
v 10396.628873 -33620.523413 -910.368633
v 10459.066531 -33601.992764 -911.409748
v 10538.732201 -33870.420372 -911.409748
v 10538.732201 -33870.420372 -929.409748
v 10459.066531 -33601.992764 -929.409748
v 10396.628873 -33620.523413 -928.368633
v 10476.294544 -33888.951022 -928.368633
v 10459.066531 -33601.992764 -911.409748
v 10396.628873 -33620.523413 -910.368633
v 10396.628873 -33620.523413 -928.368633
v 10459.066531 -33601.992764 -929.409748
v 10538.732201 -33870.420372 -911.409748
v 10476.294544 -33888.951022 -910.368633
v 10476.294544 -33888.951022 -928.368633
v 10538.732201 -33870.420372 -929.409748
v 10413.856886 -33907.481671 -909.399000
v 10334.191216 -33639.054062 -909.399000
v 10396.628873 -33620.523413 -910.368633
v 10476.294544 -33888.951022 -910.368633
v 10476.294544 -33888.951022 -928.368633
v 10396.628873 -33620.523413 -928.368633
v 10334.191216 -33639.054062 -927.399000
v 10413.856886 -33907.481671 -927.399000
v 10396.628873 -33620.523413 -910.368633
v 10334.191216 -33639.054062 -909.399000
v 10334.191216 -33639.054062 -927.399000
v 10396.628873 -33620.523413 -928.368633
v 10476.294544 -33888.951022 -910.368633
v 10413.856886 -33907.481671 -909.399000
v 10413.856886 -33907.481671 -927.399000
v 10476.294544 -33888.951022 -928.368633
v 10351.419228 -33926.012320 -908.506984
v 10271.753558 -33657.584712 -908.506984
v 10334.191216 -33639.054062 -909.399000
v 10413.856886 -33907.481671 -909.399000
v 10413.856886 -33907.481671 -927.399000
v 10334.191216 -33639.054062 -927.399000
v 10271.753558 -33657.584712 -926.506984
v 10351.419228 -33926.012320 -926.506984
v 10334.191216 -33639.054062 -909.399000
v 10271.753558 -33657.584712 -908.506984
v 10271.753558 -33657.584712 -926.506984
v 10334.191216 -33639.054062 -927.399000
v 10413.856886 -33907.481671 -909.399000
v 10351.419228 -33926.012320 -908.506984
v 10351.419228 -33926.012320 -926.506984
v 10413.856886 -33907.481671 -927.399000
v 10288.981570 -33944.542969 -907.697805
v 10209.315900 -33676.115361 -907.697805
v 10271.753558 -33657.584712 -908.506984
v 10351.419228 -33926.012320 -908.506984
v 10351.419228 -33926.012320 -926.506984
v 10271.753558 -33657.584712 -926.506984
v 10209.315900 -33676.115361 -925.697805
v 10288.981570 -33944.542969 -925.697805
v 10271.753558 -33657.584712 -908.506984
v 10209.315900 -33676.115361 -907.697805
v 10209.315900 -33676.115361 -925.697805
v 10271.753558 -33657.584712 -926.506984
v 10351.419228 -33926.012320 -908.506984
v 10288.981570 -33944.542969 -907.697805
v 10288.981570 -33944.542969 -925.697805
v 10351.419228 -33926.012320 -926.506984
v 10226.543913 -33963.073618 -906.975718
v 10146.878242 -33694.646010 -906.975718
v 10209.315900 -33676.115361 -907.697805
v 10288.981570 -33944.542969 -907.697805
v 10288.981570 -33944.542969 -925.697805
v 10209.315900 -33676.115361 -925.697805
v 10146.878242 -33694.646010 -924.975718
v 10226.543913 -33963.073618 -924.975718
v 10209.315900 -33676.115361 -907.697805
v 10146.878242 -33694.646010 -906.975718
v 10146.878242 -33694.646010 -924.975718
v 10209.315900 -33676.115361 -925.697805
v 10288.981570 -33944.542969 -907.697805
v 10226.543913 -33963.073618 -906.975718
v 10226.543913 -33963.073618 -924.975718
v 10288.981570 -33944.542969 -925.697805
v 10164.106255 -33981.604268 -906.343954
v 10084.440585 -33713.176659 -906.343954
v 10146.878242 -33694.646010 -906.975718
v 10226.543913 -33963.073618 -906.975718
v 10226.543913 -33963.073618 -924.975718
v 10146.878242 -33694.646010 -924.975718
v 10084.440585 -33713.176659 -924.343954
v 10164.106255 -33981.604268 -924.343954
v 10146.878242 -33694.646010 -906.975718
v 10084.440585 -33713.176659 -906.343954
v 10084.440585 -33713.176659 -924.343954
v 10146.878242 -33694.646010 -924.975718
v 10226.543913 -33963.073618 -906.975718
v 10164.106255 -33981.604268 -906.343954
v 10164.106255 -33981.604268 -924.343954
v 10226.543913 -33963.073618 -924.975718
v 10101.668597 -34000.134917 -905.804687
v 10022.002927 -33731.707308 -905.804687
v 10084.440585 -33713.176659 -906.343954
v 10164.106255 -33981.604268 -906.343954
v 10164.106255 -33981.604268 -924.343954
v 10084.440585 -33713.176659 -924.343954
v 10022.002927 -33731.707308 -923.804687
v 10101.668597 -34000.134917 -923.804687
v 10084.440585 -33713.176659 -906.343954
v 10022.002927 -33731.707308 -905.804687
v 10022.002927 -33731.707308 -923.804687
v 10084.440585 -33713.176659 -924.343954
v 10164.106255 -33981.604268 -906.343954
v 10101.668597 -34000.134917 -905.804687
v 10101.668597 -34000.134917 -923.804687
v 10164.106255 -33981.604268 -924.343954
v 10039.230939 -34018.665566 -905.359007
v 9959.565269 -33750.237958 -905.359007
v 10022.002927 -33731.707308 -905.804687
v 10101.668597 -34000.134917 -905.804687
v 10101.668597 -34000.134917 -923.804687
v 10022.002927 -33731.707308 -923.804687
v 9959.565269 -33750.237958 -923.359007
v 10039.230939 -34018.665566 -923.359007
v 10022.002927 -33731.707308 -905.804687
v 9959.565269 -33750.237958 -905.359007
v 9959.565269 -33750.237958 -923.359007
v 10022.002927 -33731.707308 -923.804687
v 10101.668597 -34000.134917 -905.804687
v 10039.230939 -34018.665566 -905.359007
v 10039.230939 -34018.665566 -923.359007
v 10101.668597 -34000.134917 -923.804687
v 9976.793282 -34037.196215 -905.006908
v 9897.127611 -33768.768607 -905.006908
v 9959.565269 -33750.237958 -905.359007
v 10039.230939 -34018.665566 -905.359007
v 10039.230939 -34018.665566 -923.359007
v 9959.565269 -33750.237958 -923.359007
v 9897.127611 -33768.768607 -923.006908
v 9976.793282 -34037.196215 -923.006908
v 9959.565269 -33750.237958 -905.359007
v 9897.127611 -33768.768607 -905.006908
v 9897.127611 -33768.768607 -923.006908
v 9959.565269 -33750.237958 -923.359007
v 10039.230939 -34018.665566 -905.359007
v 9976.793282 -34037.196215 -905.006908
v 9976.793282 -34037.196215 -923.006908
v 10039.230939 -34018.665566 -923.359007
v 9914.355624 -34055.726865 -904.747289
v 9834.689954 -33787.299256 -904.747289
v 9897.127611 -33768.768607 -905.006908
v 9976.793282 -34037.196215 -905.006908
v 9976.793282 -34037.196215 -923.006908
v 9897.127611 -33768.768607 -923.006908
v 9834.689954 -33787.299256 -922.747289
v 9914.355624 -34055.726865 -922.747289
v 9897.127611 -33768.768607 -905.006908
v 9834.689954 -33787.299256 -904.747289
v 9834.689954 -33787.299256 -922.747289
v 9897.127611 -33768.768607 -923.006908
v 9976.793282 -34037.196215 -905.006908
v 9914.355624 -34055.726865 -904.747289
v 9914.355624 -34055.726865 -922.747289
v 9976.793282 -34037.196215 -923.006908
v 9851.917966 -34074.257514 -904.577963
v 9772.252296 -33805.829905 -904.577963
v 9834.689954 -33787.299256 -904.747289
v 9914.355624 -34055.726865 -904.747289
v 9914.355624 -34055.726865 -922.747289
v 9834.689954 -33787.299256 -922.747289
v 9772.252296 -33805.829905 -922.577963
v 9851.917966 -34074.257514 -922.577963
v 9834.689954 -33787.299256 -904.747289
v 9772.252296 -33805.829905 -904.577963
v 9772.252296 -33805.829905 -922.577963
v 9834.689954 -33787.299256 -922.747289
v 9914.355624 -34055.726865 -904.747289
v 9851.917966 -34074.257514 -904.577963
v 9851.917966 -34074.257514 -922.577963
v 9914.355624 -34055.726865 -922.747289
v 9789.480308 -34092.788163 -904.495687
v 9709.814638 -33824.360555 -904.495687
v 9772.252296 -33805.829905 -904.577963
v 9851.917966 -34074.257514 -904.577963
v 9851.917966 -34074.257514 -922.577963
v 9772.252296 -33805.829905 -922.577963
v 9709.814638 -33824.360555 -922.495687
v 9789.480308 -34092.788163 -922.495687
v 9772.252296 -33805.829905 -904.577963
v 9709.814638 -33824.360555 -904.495687
v 9709.814638 -33824.360555 -922.495687
v 9772.252296 -33805.829905 -922.577963
v 9851.917966 -34074.257514 -904.577963
v 9789.480308 -34092.788163 -904.495687
v 9789.480308 -34092.788163 -922.495687
v 9851.917966 -34074.257514 -922.577963
v 9727.042651 -34111.318812 -904.496197
v 9647.376980 -33842.891204 -904.496197
v 9709.814638 -33824.360555 -904.495687
v 9789.480308 -34092.788163 -904.495687
v 9789.480308 -34092.788163 -922.495687
v 9709.814638 -33824.360555 -922.495687
v 9647.376980 -33842.891204 -922.496197
v 9727.042651 -34111.318812 -922.496197
v 9709.814638 -33824.360555 -904.495687
v 9647.376980 -33842.891204 -904.496197
v 9647.376980 -33842.891204 -922.496197
v 9709.814638 -33824.360555 -922.495687
v 9789.480308 -34092.788163 -904.495687
v 9727.042651 -34111.318812 -904.496197
v 9727.042651 -34111.318812 -922.496197
v 9789.480308 -34092.788163 -922.495687
v 9664.604993 -34129.849461 -904.574260
v 9584.939323 -33861.421853 -904.574260
v 9647.376980 -33842.891204 -904.496197
v 9727.042651 -34111.318812 -904.496197
v 9727.042651 -34111.318812 -922.496197
v 9647.376980 -33842.891204 -922.496197
v 9584.939323 -33861.421853 -922.574260
v 9664.604993 -34129.849461 -922.574260
v 9647.376980 -33842.891204 -904.496197
v 9584.939323 -33861.421853 -904.574260
v 9584.939323 -33861.421853 -922.574260
v 9647.376980 -33842.891204 -922.496197
v 9727.042651 -34111.318812 -904.496197
v 9664.604993 -34129.849461 -904.574260
v 9664.604993 -34129.849461 -922.574260
v 9727.042651 -34111.318812 -922.496197
v 9602.167335 -34148.380111 -904.723734
v 9522.501665 -33879.952502 -904.723734
v 9584.939323 -33861.421853 -904.574260
v 9664.604993 -34129.849461 -904.574260
v 9664.604993 -34129.849461 -922.574260
v 9584.939323 -33861.421853 -922.574260
v 9522.501665 -33879.952502 -922.723734
v 9602.167335 -34148.380111 -922.723734
v 9584.939323 -33861.421853 -904.574260
v 9522.501665 -33879.952502 -904.723734
v 9522.501665 -33879.952502 -922.723734
v 9584.939323 -33861.421853 -922.574260
v 9664.604993 -34129.849461 -904.574260
v 9602.167335 -34148.380111 -904.723734
v 9602.167335 -34148.380111 -922.723734
v 9664.604993 -34129.849461 -922.574260
v 9539.729677 -34166.910760 -904.937641
v 9460.064007 -33898.483151 -904.937641
v 9522.501665 -33879.952502 -904.723734
v 9602.167335 -34148.380111 -904.723734
v 9602.167335 -34148.380111 -922.723734
v 9522.501665 -33879.952502 -922.723734
v 9460.064007 -33898.483151 -922.937641
v 9539.729677 -34166.910760 -922.937641
v 9522.501665 -33879.952502 -904.723734
v 9460.064007 -33898.483151 -904.937641
v 9460.064007 -33898.483151 -922.937641
v 9522.501665 -33879.952502 -922.723734
v 9602.167335 -34148.380111 -904.723734
v 9539.729677 -34166.910760 -904.937641
v 9539.729677 -34166.910760 -922.937641
v 9602.167335 -34148.380111 -922.723734
v 9477.292020 -34185.441409 -905.208248
v 9397.626349 -33917.013801 -905.208248
v 9460.064007 -33898.483151 -904.937641
v 9539.729677 -34166.910760 -904.937641
v 9539.729677 -34166.910760 -922.937641
v 9460.064007 -33898.483151 -922.937641
v 9397.626349 -33917.013801 -923.208248
v 9477.292020 -34185.441409 -923.208248
v 9460.064007 -33898.483151 -904.937641
v 9397.626349 -33917.013801 -905.208248
v 9397.626349 -33917.013801 -923.208248
v 9460.064007 -33898.483151 -922.937641
v 9539.729677 -34166.910760 -904.937641
v 9477.292020 -34185.441409 -905.208248
v 9477.292020 -34185.441409 -923.208248
v 9539.729677 -34166.910760 -922.937641
v 9414.854362 -34203.972058 -905.527157
v 9335.188692 -33935.544450 -905.527157
v 9397.626349 -33917.013801 -905.208248
v 9477.292020 -34185.441409 -905.208248
v 9477.292020 -34185.441409 -923.208248
v 9397.626349 -33917.013801 -923.208248
v 9335.188692 -33935.544450 -923.527157
v 9414.854362 -34203.972058 -923.527157
v 9397.626349 -33917.013801 -905.208248
v 9335.188692 -33935.544450 -905.527157
v 9335.188692 -33935.544450 -923.527157
v 9397.626349 -33917.013801 -923.208248
v 9477.292020 -34185.441409 -905.208248
v 9414.854362 -34203.972058 -905.527157
v 9414.854362 -34203.972058 -923.527157
v 9477.292020 -34185.441409 -923.208248
v 9352.416704 -34222.502708 -905.885405
v 9272.751034 -33954.075099 -905.885405
v 9335.188692 -33935.544450 -905.527157
v 9414.854362 -34203.972058 -905.527157
v 9414.854362 -34203.972058 -923.527157
v 9335.188692 -33935.544450 -923.527157
v 9272.751034 -33954.075099 -923.885405
v 9352.416704 -34222.502708 -923.885405
v 9335.188692 -33935.544450 -905.527157
v 9272.751034 -33954.075099 -905.885405
v 9272.751034 -33954.075099 -923.885405
v 9335.188692 -33935.544450 -923.527157
v 9414.854362 -34203.972058 -905.527157
v 9352.416704 -34222.502708 -905.885405
v 9352.416704 -34222.502708 -923.885405
v 9414.854362 -34203.972058 -923.527157
v 9289.979046 -34241.033357 -906.273567
v 9210.313376 -33972.605748 -906.273567
v 9272.751034 -33954.075099 -905.885405
v 9352.416704 -34222.502708 -905.885405
v 9352.416704 -34222.502708 -923.885405
v 9272.751034 -33954.075099 -923.885405
v 9210.313376 -33972.605748 -924.273567
v 9289.979046 -34241.033357 -924.273567
v 9272.751034 -33954.075099 -905.885405
v 9210.313376 -33972.605748 -906.273567
v 9210.313376 -33972.605748 -924.273567
v 9272.751034 -33954.075099 -923.885405
v 9352.416704 -34222.502708 -905.885405
v 9289.979046 -34241.033357 -906.273567
v 9289.979046 -34241.033357 -924.273567
v 9352.416704 -34222.502708 -923.885405
v 9227.541389 -34259.564006 -906.681870
v 9147.875718 -33991.136398 -906.681870
v 9210.313376 -33972.605748 -906.273567
v 9289.979046 -34241.033357 -906.273567
v 9289.979046 -34241.033357 -924.273567
v 9210.313376 -33972.605748 -924.273567
v 9147.875718 -33991.136398 -924.681870
v 9227.541389 -34259.564006 -924.681870
v 9210.313376 -33972.605748 -906.273567
v 9147.875718 -33991.136398 -906.681870
v 9147.875718 -33991.136398 -924.681870
v 9210.313376 -33972.605748 -924.273567
v 9289.979046 -34241.033357 -906.273567
v 9227.541389 -34259.564006 -906.681870
v 9227.541389 -34259.564006 -924.681870
v 9289.979046 -34241.033357 -924.273567
v 9165.103731 -34278.094655 -907.100301
v 9085.438061 -34009.667047 -907.100301
v 9147.875718 -33991.136398 -906.681870
v 9227.541389 -34259.564006 -906.681870
v 9227.541389 -34259.564006 -924.681870
v 9147.875718 -33991.136398 -924.681870
v 9085.438061 -34009.667047 -925.100301
v 9165.103731 -34278.094655 -925.100301
v 9147.875718 -33991.136398 -906.681870
v 9085.438061 -34009.667047 -907.100301
v 9085.438061 -34009.667047 -925.100301
v 9147.875718 -33991.136398 -924.681870
v 9227.541389 -34259.564006 -906.681870
v 9165.103731 -34278.094655 -907.100301
v 9165.103731 -34278.094655 -925.100301
v 9227.541389 -34259.564006 -924.681870
v 10944.214866 -33534.747179 -920.044840
v 10950.542145 -33814.675680 -920.044840
v 10950.542145 -33814.675680 -938.044840
v 10944.214866 -33534.747179 -938.044840
v 9085.438061 -34009.667047 -907.100301
v 9165.103731 -34278.094655 -907.100301
v 9165.103731 -34278.094655 -925.100301
v 9085.438061 -34009.667047 -925.100301
vt 54.426253 169.080757
vt 54.394617 167.681115
vt 54.721074 167.673736
vt 54.752711 169.073378
vt 54.752711 169.073378
vt 54.721074 167.673736
vt 54.394617 167.681115
vt 54.426253 169.080757
vt 54.721074 167.673736
vt 54.394617 167.681115
vt 54.394617 167.681115
vt 54.721074 167.673736
vt 54.752711 169.073378
vt 54.426253 169.080757
vt 54.426253 169.080757
vt 54.752711 169.073378
vt 54.099795 169.088136
vt 54.068159 167.688494
vt 54.394617 167.681115
vt 54.426253 169.080757
vt 54.426253 169.080757
vt 54.394617 167.681115
vt 54.068159 167.688494
vt 54.099795 169.088136
vt 54.394617 167.681115
vt 54.068159 167.688494
vt 54.068159 167.688494
vt 54.394617 167.681115
vt 54.426253 169.080757
vt 54.099795 169.088136
vt 54.099795 169.088136
vt 54.426253 169.080757
vt 53.773338 169.095515
vt 53.741701 167.695873
vt 54.068159 167.688494
vt 54.099795 169.088136
vt 54.099795 169.088136
vt 54.068159 167.688494
vt 53.741701 167.695873
vt 53.773338 169.095515
vt 54.068159 167.688494
vt 53.741701 167.695873
vt 53.741701 167.695873
vt 54.068159 167.688494
vt 54.099795 169.088136
vt 53.773338 169.095515
vt 53.773338 169.095515
vt 54.099795 169.088136
vt 53.539383 169.094641
vt 53.322740 167.711505
vt 53.741701 167.695873
vt 53.773338 169.095515
vt 53.773338 169.095515
vt 53.741701 167.695873
vt 53.322740 167.711505
vt 53.539383 169.094641
vt 53.741701 167.695873
vt 53.322740 167.711505
vt 53.322740 167.711505
vt 53.741701 167.695873
vt 53.773338 169.095515
vt 53.539383 169.094641
vt 53.539383 169.094641
vt 53.773338 169.095515
vt 53.318038 169.166795
vt 52.919709 167.824657
vt 53.322740 167.711505
vt 53.539383 169.094641
vt 53.539383 169.094641
vt 53.322740 167.711505
vt 52.919709 167.824657
vt 53.318038 169.166795
vt 53.322740 167.711505
vt 52.919709 167.824657
vt 52.919709 167.824657
vt 53.322740 167.711505
vt 53.539383 169.094641
vt 53.318038 169.166795
vt 53.318038 169.166795
vt 53.539383 169.094641
vt 53.005849 169.259449
vt 52.607521 167.917311
vt 52.919709 167.824657
vt 53.318038 169.166795
vt 53.318038 169.166795
vt 52.919709 167.824657
vt 52.607521 167.917311
vt 53.005849 169.259449
vt 52.919709 167.824657
vt 52.607521 167.917311
vt 52.607521 167.917311
vt 52.919709 167.824657
vt 53.318038 169.166795
vt 53.005849 169.259449
vt 53.005849 169.259449
vt 53.318038 169.166795
vt 52.693661 169.352102
vt 52.295333 168.009964
vt 52.607521 167.917311
vt 53.005849 169.259449
vt 53.005849 169.259449
vt 52.607521 167.917311
vt 52.295333 168.009964
vt 52.693661 169.352102
vt 52.607521 167.917311
vt 52.295333 168.009964
vt 52.295333 168.009964
vt 52.607521 167.917311
vt 53.005849 169.259449
vt 52.693661 169.352102
vt 52.693661 169.352102
vt 53.005849 169.259449
vt 52.381473 169.444755
vt 51.983144 168.102617
vt 52.295333 168.009964
vt 52.693661 169.352102
vt 52.693661 169.352102
vt 52.295333 168.009964
vt 51.983144 168.102617
vt 52.381473 169.444755
vt 52.295333 168.009964
vt 51.983144 168.102617
vt 51.983144 168.102617
vt 52.295333 168.009964
vt 52.693661 169.352102
vt 52.381473 169.444755
vt 52.381473 169.444755
vt 52.693661 169.352102
vt 52.069284 169.537408
vt 51.670956 168.195270
vt 51.983144 168.102617
vt 52.381473 169.444755
vt 52.381473 169.444755
vt 51.983144 168.102617
vt 51.670956 168.195270
vt 52.069284 169.537408
vt 51.983144 168.102617
vt 51.670956 168.195270
vt 51.670956 168.195270
vt 51.983144 168.102617
vt 52.381473 169.444755
vt 52.069284 169.537408
vt 52.069284 169.537408
vt 52.381473 169.444755
vt 51.757096 169.630062
vt 51.358768 168.287924
vt 51.670956 168.195270
vt 52.069284 169.537408
vt 52.069284 169.537408
vt 51.670956 168.195270
vt 51.358768 168.287924
vt 51.757096 169.630062
vt 51.670956 168.195270
vt 51.358768 168.287924
vt 51.358768 168.287924
vt 51.670956 168.195270
vt 52.069284 169.537408
vt 51.757096 169.630062
vt 51.757096 169.630062
vt 52.069284 169.537408
vt 51.444908 169.722715
vt 51.046580 168.380577
vt 51.358768 168.287924
vt 51.757096 169.630062
vt 51.757096 169.630062
vt 51.358768 168.287924
vt 51.046580 168.380577
vt 51.444908 169.722715
vt 51.358768 168.287924
vt 51.046580 168.380577
vt 51.046580 168.380577
vt 51.358768 168.287924
vt 51.757096 169.630062
vt 51.444908 169.722715
vt 51.444908 169.722715
vt 51.757096 169.630062
vt 51.132720 169.815368
vt 50.734391 168.473230
vt 51.046580 168.380577
vt 51.444908 169.722715
vt 51.444908 169.722715
vt 51.046580 168.380577
vt 50.734391 168.473230
vt 51.132720 169.815368
vt 51.046580 168.380577
vt 50.734391 168.473230
vt 50.734391 168.473230
vt 51.046580 168.380577
vt 51.444908 169.722715
vt 51.132720 169.815368
vt 51.132720 169.815368
vt 51.444908 169.722715
vt 50.820531 169.908021
vt 50.422203 168.565883
vt 50.734391 168.473230
vt 51.132720 169.815368
vt 51.132720 169.815368
vt 50.734391 168.473230
vt 50.422203 168.565883
vt 50.820531 169.908021
vt 50.734391 168.473230
vt 50.422203 168.565883
vt 50.422203 168.565883
vt 50.734391 168.473230
vt 51.132720 169.815368
vt 50.820531 169.908021
vt 50.820531 169.908021
vt 51.132720 169.815368
vt 50.508343 170.000675
vt 50.110015 168.658537
vt 50.422203 168.565883
vt 50.820531 169.908021
vt 50.820531 169.908021
vt 50.422203 168.565883
vt 50.110015 168.658537
vt 50.508343 170.000675
vt 50.422203 168.565883
vt 50.110015 168.658537
vt 50.110015 168.658537
vt 50.422203 168.565883
vt 50.820531 169.908021
vt 50.508343 170.000675
vt 50.508343 170.000675
vt 50.820531 169.908021
vt 50.196155 170.093328
vt 49.797826 168.751190
vt 50.110015 168.658537
vt 50.508343 170.000675
vt 50.508343 170.000675
vt 50.110015 168.658537
vt 49.797826 168.751190
vt 50.196155 170.093328
vt 50.110015 168.658537
vt 49.797826 168.751190
vt 49.797826 168.751190
vt 50.110015 168.658537
vt 50.508343 170.000675
vt 50.196155 170.093328
vt 50.196155 170.093328
vt 50.508343 170.000675
vt 49.883966 170.185981
vt 49.485638 168.843843
vt 49.797826 168.751190
vt 50.196155 170.093328
vt 50.196155 170.093328
vt 49.797826 168.751190
vt 49.485638 168.843843
vt 49.883966 170.185981
vt 49.797826 168.751190
vt 49.485638 168.843843
vt 49.485638 168.843843
vt 49.797826 168.751190
vt 50.196155 170.093328
vt 49.883966 170.185981
vt 49.883966 170.185981
vt 50.196155 170.093328
vt 49.571778 170.278634
vt 49.173450 168.936496
vt 49.485638 168.843843
vt 49.883966 170.185981
vt 49.883966 170.185981
vt 49.485638 168.843843
vt 49.173450 168.936496
vt 49.571778 170.278634
vt 49.485638 168.843843
vt 49.173450 168.936496
vt 49.173450 168.936496
vt 49.485638 168.843843
vt 49.883966 170.185981
vt 49.571778 170.278634
vt 49.571778 170.278634
vt 49.883966 170.185981
vt 49.259590 170.371288
vt 48.861261 169.029150
vt 49.173450 168.936496
vt 49.571778 170.278634
vt 49.571778 170.278634
vt 49.173450 168.936496
vt 48.861261 169.029150
vt 49.259590 170.371288
vt 49.173450 168.936496
vt 48.861261 169.029150
vt 48.861261 169.029150
vt 49.173450 168.936496
vt 49.571778 170.278634
vt 49.259590 170.371288
vt 49.259590 170.371288
vt 49.571778 170.278634
vt 48.947402 170.463941
vt 48.549073 169.121803
vt 48.861261 169.029150
vt 49.259590 170.371288
vt 49.259590 170.371288
vt 48.861261 169.029150
vt 48.549073 169.121803
vt 48.947402 170.463941
vt 48.861261 169.029150
vt 48.549073 169.121803
vt 48.549073 169.121803
vt 48.861261 169.029150
vt 49.259590 170.371288
vt 48.947402 170.463941
vt 48.947402 170.463941
vt 49.259590 170.371288
vt 48.635213 170.556594
vt 48.236885 169.214456
vt 48.549073 169.121803
vt 48.947402 170.463941
vt 48.947402 170.463941
vt 48.549073 169.121803
vt 48.236885 169.214456
vt 48.635213 170.556594
vt 48.549073 169.121803
vt 48.236885 169.214456
vt 48.236885 169.214456
vt 48.549073 169.121803
vt 48.947402 170.463941
vt 48.635213 170.556594
vt 48.635213 170.556594
vt 48.947402 170.463941
vt 48.323025 170.649247
vt 47.924697 169.307109
vt 48.236885 169.214456
vt 48.635213 170.556594
vt 48.635213 170.556594
vt 48.236885 169.214456
vt 47.924697 169.307109
vt 48.323025 170.649247
vt 48.236885 169.214456
vt 47.924697 169.307109
vt 47.924697 169.307109
vt 48.236885 169.214456
vt 48.635213 170.556594
vt 48.323025 170.649247
vt 48.323025 170.649247
vt 48.635213 170.556594
vt 48.010837 170.741901
vt 47.612508 169.399763
vt 47.924697 169.307109
vt 48.323025 170.649247
vt 48.323025 170.649247
vt 47.924697 169.307109
vt 47.612508 169.399763
vt 48.010837 170.741901
vt 47.924697 169.307109
vt 47.612508 169.399763
vt 47.612508 169.399763
vt 47.924697 169.307109
vt 48.323025 170.649247
vt 48.010837 170.741901
vt 48.010837 170.741901
vt 48.323025 170.649247
vt 47.698648 170.834554
vt 47.300320 169.492416
vt 47.612508 169.399763
vt 48.010837 170.741901
vt 48.010837 170.741901
vt 47.612508 169.399763
vt 47.300320 169.492416
vt 47.698648 170.834554
vt 47.612508 169.399763
vt 47.300320 169.492416
vt 47.300320 169.492416
vt 47.612508 169.399763
vt 48.010837 170.741901
vt 47.698648 170.834554
vt 47.698648 170.834554
vt 48.010837 170.741901
vt 47.386460 170.927207
vt 46.988132 169.585069
vt 47.300320 169.492416
vt 47.698648 170.834554
vt 47.698648 170.834554
vt 47.300320 169.492416
vt 46.988132 169.585069
vt 47.386460 170.927207
vt 47.300320 169.492416
vt 46.988132 169.585069
vt 46.988132 169.585069
vt 47.300320 169.492416
vt 47.698648 170.834554
vt 47.386460 170.927207
vt 47.386460 170.927207
vt 47.698648 170.834554
vt 47.074272 171.019860
vt 46.675943 169.677722
vt 46.988132 169.585069
vt 47.386460 170.927207
vt 47.386460 170.927207
vt 46.988132 169.585069
vt 46.675943 169.677722
vt 47.074272 171.019860
vt 46.988132 169.585069
vt 46.675943 169.677722
vt 46.675943 169.677722
vt 46.988132 169.585069
vt 47.386460 170.927207
vt 47.074272 171.019860
vt 47.074272 171.019860
vt 47.386460 170.927207
vt 46.762084 171.112514
vt 46.363755 169.770375
vt 46.675943 169.677722
vt 47.074272 171.019860
vt 47.074272 171.019860
vt 46.675943 169.677722
vt 46.363755 169.770375
vt 46.762084 171.112514
vt 46.675943 169.677722
vt 46.363755 169.770375
vt 46.363755 169.770375
vt 46.675943 169.677722
vt 47.074272 171.019860
vt 46.762084 171.112514
vt 46.762084 171.112514
vt 47.074272 171.019860
vt 46.449895 171.205167
vt 46.051567 169.863029
vt 46.363755 169.770375
vt 46.762084 171.112514
vt 46.762084 171.112514
vt 46.363755 169.770375
vt 46.051567 169.863029
vt 46.449895 171.205167
vt 46.363755 169.770375
vt 46.051567 169.863029
vt 46.051567 169.863029
vt 46.363755 169.770375
vt 46.762084 171.112514
vt 46.449895 171.205167
vt 46.449895 171.205167
vt 46.762084 171.112514
vt 46.137707 171.297820
vt 45.739379 169.955682
vt 46.051567 169.863029
vt 46.449895 171.205167
vt 46.449895 171.205167
vt 46.051567 169.863029
vt 45.739379 169.955682
vt 46.137707 171.297820
vt 46.051567 169.863029
vt 45.739379 169.955682
vt 45.739379 169.955682
vt 46.051567 169.863029
vt 46.449895 171.205167
vt 46.137707 171.297820
vt 46.137707 171.297820
vt 46.449895 171.205167
vt 45.825519 171.390473
vt 45.427190 170.048335
vt 45.739379 169.955682
vt 46.137707 171.297820
vt 46.137707 171.297820
vt 45.739379 169.955682
vt 45.427190 170.048335
vt 45.825519 171.390473
vt 45.739379 169.955682
vt 45.427190 170.048335
vt 45.427190 170.048335
vt 45.739379 169.955682
vt 46.137707 171.297820
vt 45.825519 171.390473
vt 45.825519 171.390473
vt 46.137707 171.297820
vt 54.721074 167.673736
vt 54.752711 169.073378
vt 54.752711 169.073378
vt 54.721074 167.673736
vt 45.427190 170.048335
vt 45.825519 171.390473
vt 45.825519 171.390473
vt 45.427190 170.048335
f 3/3 2/2 1/1
f 4/4 3/3 1/1
f 7/7 6/6 5/5
f 8/8 7/7 5/5
f 11/11 10/10 9/9
f 12/12 11/11 9/9
f 15/15 14/14 13/13
f 16/16 15/15 13/13
f 19/19 18/18 17/17
f 20/20 19/19 17/17
f 23/23 22/22 21/21
f 24/24 23/23 21/21
f 27/27 26/26 25/25
f 28/28 27/27 25/25
f 31/31 30/30 29/29
f 32/32 31/31 29/29
f 35/35 34/34 33/33
f 36/36 35/35 33/33
f 39/39 38/38 37/37
f 40/40 39/39 37/37
f 43/43 42/42 41/41
f 44/44 43/43 41/41
f 47/47 46/46 45/45
f 48/48 47/47 45/45
f 51/51 50/50 49/49
f 52/52 51/51 49/49
f 55/55 54/54 53/53
f 56/56 55/55 53/53
f 59/59 58/58 57/57
f 60/60 59/59 57/57
f 63/63 62/62 61/61
f 64/64 63/63 61/61
f 67/67 66/66 65/65
f 68/68 67/67 65/65
f 71/71 70/70 69/69
f 72/72 71/71 69/69
f 75/75 74/74 73/73
f 76/76 75/75 73/73
f 79/79 78/78 77/77
f 80/80 79/79 77/77
f 83/83 82/82 81/81
f 84/84 83/83 81/81
f 87/87 86/86 85/85
f 88/88 87/87 85/85
f 91/91 90/90 89/89
f 92/92 91/91 89/89
f 95/95 94/94 93/93
f 96/96 95/95 93/93
f 99/99 98/98 97/97
f 100/100 99/99 97/97
f 103/103 102/102 101/101
f 104/104 103/103 101/101
f 107/107 106/106 105/105
f 108/108 107/107 105/105
f 111/111 110/110 109/109
f 112/112 111/111 109/109
f 115/115 114/114 113/113
f 116/116 115/115 113/113
f 119/119 118/118 117/117
f 120/120 119/119 117/117
f 123/123 122/122 121/121
f 124/124 123/123 121/121
f 127/127 126/126 125/125
f 128/128 127/127 125/125
f 131/131 130/130 129/129
f 132/132 131/131 129/129
f 135/135 134/134 133/133
f 136/136 135/135 133/133
f 139/139 138/138 137/137
f 140/140 139/139 137/137
f 143/143 142/142 141/141
f 144/144 143/143 141/141
f 147/147 146/146 145/145
f 148/148 147/147 145/145
f 151/151 150/150 149/149
f 152/152 151/151 149/149
f 155/155 154/154 153/153
f 156/156 155/155 153/153
f 159/159 158/158 157/157
f 160/160 159/159 157/157
f 163/163 162/162 161/161
f 164/164 163/163 161/161
f 167/167 166/166 165/165
f 168/168 167/167 165/165
f 171/171 170/170 169/169
f 172/172 171/171 169/169
f 175/175 174/174 173/173
f 176/176 175/175 173/173
f 179/179 178/178 177/177
f 180/180 179/179 177/177
f 183/183 182/182 181/181
f 184/184 183/183 181/181
f 187/187 186/186 185/185
f 188/188 187/187 185/185
f 191/191 190/190 189/189
f 192/192 191/191 189/189
f 195/195 194/194 193/193
f 196/196 195/195 193/193
f 199/199 198/198 197/197
f 200/200 199/199 197/197
f 203/203 202/202 201/201
f 204/204 203/203 201/201
f 207/207 206/206 205/205
f 208/208 207/207 205/205
f 211/211 210/210 209/209
f 212/212 211/211 209/209
f 215/215 214/214 213/213
f 216/216 215/215 213/213
f 219/219 218/218 217/217
f 220/220 219/219 217/217
f 223/223 222/222 221/221
f 224/224 223/223 221/221
f 227/227 226/226 225/225
f 228/228 227/227 225/225
f 231/231 230/230 229/229
f 232/232 231/231 229/229
f 235/235 234/234 233/233
f 236/236 235/235 233/233
f 239/239 238/238 237/237
f 240/240 239/239 237/237
f 243/243 242/242 241/241
f 244/244 243/243 241/241
f 247/247 246/246 245/245
f 248/248 247/247 245/245
f 251/251 250/250 249/249
f 252/252 251/251 249/249
f 255/255 254/254 253/253
f 256/256 255/255 253/253
f 259/259 258/258 257/257
f 260/260 259/259 257/257
f 263/263 262/262 261/261
f 264/264 263/263 261/261
f 267/267 266/266 265/265
f 268/268 267/267 265/265
f 271/271 270/270 269/269
f 272/272 271/271 269/269
f 275/275 274/274 273/273
f 276/276 275/275 273/273
f 279/279 278/278 277/277
f 280/280 279/279 277/277
f 283/283 282/282 281/281
f 284/284 283/283 281/281
f 287/287 286/286 285/285
f 288/288 287/287 285/285
f 291/291 290/290 289/289
f 292/292 291/291 289/289
f 295/295 294/294 293/293
f 296/296 295/295 293/293
f 299/299 298/298 297/297
f 300/300 299/299 297/297
f 303/303 302/302 301/301
f 304/304 303/303 301/301
f 307/307 306/306 305/305
f 308/308 307/307 305/305
f 311/311 310/310 309/309
f 312/312 311/311 309/309
f 315/315 314/314 313/313
f 316/316 315/315 313/313
f 319/319 318/318 317/317
f 320/320 319/319 317/317
f 323/323 322/322 321/321
f 324/324 323/323 321/321
f 327/327 326/326 325/325
f 328/328 327/327 325/325
f 331/331 330/330 329/329
f 332/332 331/331 329/329
f 335/335 334/334 333/333
f 336/336 335/335 333/333
f 339/339 338/338 337/337
f 340/340 339/339 337/337
f 343/343 342/342 341/341
f 344/344 343/343 341/341
f 347/347 346/346 345/345
f 348/348 347/347 345/345
f 351/351 350/350 349/349
f 352/352 351/351 349/349
f 355/355 354/354 353/353
f 356/356 355/355 353/353
f 359/359 358/358 357/357
f 360/360 359/359 357/357
f 363/363 362/362 361/361
f 364/364 363/363 361/361
f 367/367 366/366 365/365
f 368/368 367/367 365/365
f 371/371 370/370 369/369
f 372/372 371/371 369/369
f 375/375 374/374 373/373
f 376/376 375/375 373/373
f 379/379 378/378 377/377
f 380/380 379/379 377/377
f 383/383 382/382 381/381
f 384/384 383/383 381/381
f 387/387 386/386 385/385
f 388/388 387/387 385/385
f 391/391 390/390 389/389
f 392/392 391/391 389/389
f 395/395 394/394 393/393
f 396/396 395/395 393/393
f 399/399 398/398 397/397
f 400/400 399/399 397/397
f 403/403 402/402 401/401
f 404/404 403/403 401/401
f 407/407 406/406 405/405
f 408/408 407/407 405/405
f 411/411 410/410 409/409
f 412/412 411/411 409/409
f 415/415 414/414 413/413
f 416/416 415/415 413/413
f 419/419 418/418 417/417
f 420/420 419/419 417/417
f 423/423 422/422 421/421
f 424/424 423/423 421/421
f 427/427 426/426 425/425
f 428/428 427/427 425/425
f 431/431 430/430 429/429
f 432/432 431/431 429/429
f 435/435 434/434 433/433
f 436/436 435/435 433/433
f 439/439 438/438 437/437
f 440/440 439/439 437/437
f 443/443 442/442 441/441
f 444/444 443/443 441/441
f 447/447 446/446 445/445
f 448/448 447/447 445/445
f 451/451 450/450 449/449
f 452/452 451/451 449/449
f 455/455 454/454 453/453
f 456/456 455/455 453/453
f 459/459 458/458 457/457
f 460/460 459/459 457/457
f 463/463 462/462 461/461
f 464/464 463/463 461/461
f 467/467 466/466 465/465
f 468/468 467/467 465/465
f 471/471 470/470 469/469
f 472/472 471/471 469/469
