# Original small flower arrangement; OBJ Y reflected for Unreal import.
v -11.000000 -1.400000 5.000000
v -11.000000 -1.277333 5.517638
v -11.000000 -0.917691 6.000000
v -11.000000 -0.345584 6.414214
v -11.000000 0.400000 6.732051
v -11.000000 1.268251 6.931852
v -11.000000 2.200000 7.000000
v -11.000000 3.131749 6.931852
v -11.000000 4.000000 6.732051
v -11.000000 4.745584 6.414214
v -11.000000 5.317691 6.000000
v -11.000000 5.677333 5.517638
v -11.000000 5.800000 5.000000
v -11.000000 5.677333 4.482362
v -11.000000 5.317691 4.000000
v -11.000000 4.745584 3.585786
v -11.000000 4.000000 3.267949
v -11.000000 3.131749 3.068148
v -11.000000 2.200000 3.000000
v -11.000000 1.268251 3.068148
v -11.000000 0.400000 3.267949
v -11.000000 -0.345584 3.585786
v -11.000000 -0.917691 4.000000
v -11.000000 -1.277333 4.482362
v -11.000000 -1.400000 5.000000
v -10.000000 -1.400000 5.000000
v -10.000000 -1.277333 5.517638
v -10.000000 -0.917691 6.000000
v -10.000000 -0.345584 6.414214
v -10.000000 0.400000 6.732051
v -10.000000 1.268251 6.931852
v -10.000000 2.200000 7.000000
v -10.000000 3.131749 6.931852
v -10.000000 4.000000 6.732051
v -10.000000 4.745584 6.414214
v -10.000000 5.317691 6.000000
v -10.000000 5.677333 5.517638
v -10.000000 5.800000 5.000000
v -10.000000 5.677333 4.482362
v -10.000000 5.317691 4.000000
v -10.000000 4.745584 3.585786
v -10.000000 4.000000 3.267949
v -10.000000 3.131749 3.068148
v -10.000000 2.200000 3.000000
v -10.000000 1.268251 3.068148
v -10.000000 0.400000 3.267949
v -10.000000 -0.345584 3.585786
v -10.000000 -0.917691 4.000000
v -10.000000 -1.277333 4.482362
v -10.000000 -1.400000 5.000000
v -9.000000 -1.400000 5.000000
v -9.000000 -1.277333 5.517638
v -9.000000 -0.917691 6.000000
v -9.000000 -0.345584 6.414214
v -9.000000 0.400000 6.732051
v -9.000000 1.268251 6.931852
v -9.000000 2.200000 7.000000
v -9.000000 3.131749 6.931852
v -9.000000 4.000000 6.732051
v -9.000000 4.745584 6.414214
v -9.000000 5.317691 6.000000
v -9.000000 5.677333 5.517638
v -9.000000 5.800000 5.000000
v -9.000000 5.677333 4.482362
v -9.000000 5.317691 4.000000
v -9.000000 4.745584 3.585786
v -9.000000 4.000000 3.267949
v -9.000000 3.131749 3.068148
v -9.000000 2.200000 3.000000
v -9.000000 1.268251 3.068148
v -9.000000 0.400000 3.267949
v -9.000000 -0.345584 3.585786
v -9.000000 -0.917691 4.000000
v -9.000000 -1.277333 4.482362
v -9.000000 -1.400000 5.000000
v -8.000000 -1.400000 5.000000
v -8.000000 -1.277333 5.517638
v -8.000000 -0.917691 6.000000
v -8.000000 -0.345584 6.414214
v -8.000000 0.400000 6.732051
v -8.000000 1.268251 6.931852
v -8.000000 2.200000 7.000000
v -8.000000 3.131749 6.931852
v -8.000000 4.000000 6.732051
v -8.000000 4.745584 6.414214
v -8.000000 5.317691 6.000000
v -8.000000 5.677333 5.517638
v -8.000000 5.800000 5.000000
v -8.000000 5.677333 4.482362
v -8.000000 5.317691 4.000000
v -8.000000 4.745584 3.585786
v -8.000000 4.000000 3.267949
v -8.000000 3.131749 3.068148
v -8.000000 2.200000 3.000000
v -8.000000 1.268251 3.068148
v -8.000000 0.400000 3.267949
v -8.000000 -0.345584 3.585786
v -8.000000 -0.917691 4.000000
v -8.000000 -1.277333 4.482362
v -8.000000 -1.400000 5.000000
v -10.000000 3.350000 4.400000
v -10.000000 2.450000 4.400000
v -10.000000 1.550000 4.400000
v -10.000000 0.650000 4.400000
v -9.333333 3.933333 4.736465
v -9.333333 3.033333 4.736465
v -9.333333 2.133333 4.736465
v -9.333333 1.233333 4.736465
v -8.666667 4.516667 5.050000
v -8.666667 3.616667 5.050000
v -8.666667 2.716667 5.050000
v -8.666667 1.816667 5.050000
v -8.000000 5.100000 5.319239
v -8.000000 4.200000 5.319239
v -8.000000 3.300000 5.319239
v -8.000000 2.400000 5.319239
v -7.333333 5.683333 5.525833
v -7.333333 4.783333 5.525833
v -7.333333 3.883333 5.525833
v -7.333333 2.983333 5.525833
v -6.666667 6.266667 5.655704
v -6.666667 5.366667 5.655704
v -6.666667 4.466667 5.655704
v -6.666667 3.566667 5.655704
v -6.000000 6.850000 5.700000
v -6.000000 5.950000 5.700000
v -6.000000 5.050000 5.700000
v -6.000000 4.150000 5.700000
v -5.333333 7.433333 5.655704
v -5.333333 6.533333 5.655704
v -5.333333 5.633333 5.655704
v -5.333333 4.733333 5.655704
v -4.666667 8.016667 5.525833
v -4.666667 7.116667 5.525833
v -4.666667 6.216667 5.525833
v -4.666667 5.316667 5.525833
v -4.000000 8.600000 5.319239
v -4.000000 7.700000 5.319239
v -4.000000 6.800000 5.319239
v -4.000000 5.900000 5.319239
v -3.333333 9.183333 5.050000
v -3.333333 8.283333 5.050000
v -3.333333 7.383333 5.050000
v -3.333333 6.483333 5.050000
v -2.666667 9.766667 4.736465
v -2.666667 8.866667 4.736465
v -2.666667 7.966667 4.736465
v -2.666667 7.066667 4.736465
v -2.000000 10.350000 4.400000
v -2.000000 9.450000 4.400000
v -2.000000 8.550000 4.400000
v -2.000000 7.650000 4.400000
v -10.000000 -0.650000 4.400000
v -10.000000 -1.550000 4.400000
v -10.000000 -2.450000 4.400000
v -10.000000 -3.350000 4.400000
v -9.333333 -1.233333 4.736465
v -9.333333 -2.133333 4.736465
v -9.333333 -3.033333 4.736465
v -9.333333 -3.933333 4.736465
v -8.666667 -1.816667 5.050000
v -8.666667 -2.716667 5.050000
v -8.666667 -3.616667 5.050000
v -8.666667 -4.516667 5.050000
v -8.000000 -2.400000 5.319239
v -8.000000 -3.300000 5.319239
v -8.000000 -4.200000 5.319239
v -8.000000 -5.100000 5.319239
v -7.333333 -2.983333 5.525833
v -7.333333 -3.883333 5.525833
v -7.333333 -4.783333 5.525833
v -7.333333 -5.683333 5.525833
v -6.666667 -3.566667 5.655704
v -6.666667 -4.466667 5.655704
v -6.666667 -5.366667 5.655704
v -6.666667 -6.266667 5.655704
v -6.000000 -4.150000 5.700000
v -6.000000 -5.050000 5.700000
v -6.000000 -5.950000 5.700000
v -6.000000 -6.850000 5.700000
v -5.333333 -4.733333 5.655704
v -5.333333 -5.633333 5.655704
v -5.333333 -6.533333 5.655704
v -5.333333 -7.433333 5.655704
v -4.666667 -5.316667 5.525833
v -4.666667 -6.216667 5.525833
v -4.666667 -7.116667 5.525833
v -4.666667 -8.016667 5.525833
v -4.000000 -5.900000 5.319239
v -4.000000 -6.800000 5.319239
v -4.000000 -7.700000 5.319239
v -4.000000 -8.600000 5.319239
v -3.333333 -6.483333 5.050000
v -3.333333 -7.383333 5.050000
v -3.333333 -8.283333 5.050000
v -3.333333 -9.183333 5.050000
v -2.666667 -7.066667 4.736465
v -2.666667 -7.966667 4.736465
v -2.666667 -8.866667 4.736465
v -2.666667 -9.766667 4.736465
v -2.000000 -7.650000 4.400000
v -2.000000 -8.550000 4.400000
v -2.000000 -9.450000 4.400000
v -2.000000 -10.350000 4.400000
f 27 26 1
f 2 27 1
f 28 27 2
f 3 28 2
f 29 28 3
f 4 29 3
f 30 29 4
f 5 30 4
f 31 30 5
f 6 31 5
f 32 31 6
f 7 32 6
f 33 32 7
f 8 33 7
f 34 33 8
f 9 34 8
f 35 34 9
f 10 35 9
f 36 35 10
f 11 36 10
f 37 36 11
f 12 37 11
f 38 37 12
f 13 38 12
f 39 38 13
f 14 39 13
f 40 39 14
f 15 40 14
f 41 40 15
f 16 41 15
f 42 41 16
f 17 42 16
f 43 42 17
f 18 43 17
f 44 43 18
f 19 44 18
f 45 44 19
f 20 45 19
f 46 45 20
f 21 46 20
f 47 46 21
f 22 47 21
f 48 47 22
f 23 48 22
f 49 48 23
f 24 49 23
f 50 49 24
f 25 50 24
f 52 51 26
f 27 52 26
f 53 52 27
f 28 53 27
f 54 53 28
f 29 54 28
f 55 54 29
f 30 55 29
f 56 55 30
f 31 56 30
f 57 56 31
f 32 57 31
f 58 57 32
f 33 58 32
f 59 58 33
f 34 59 33
f 60 59 34
f 35 60 34
f 61 60 35
f 36 61 35
f 62 61 36
f 37 62 36
f 63 62 37
f 38 63 37
f 64 63 38
f 39 64 38
f 65 64 39
f 40 65 39
f 66 65 40
f 41 66 40
f 67 66 41
f 42 67 41
f 68 67 42
f 43 68 42
f 69 68 43
f 44 69 43
f 70 69 44
f 45 70 44
f 71 70 45
f 46 71 45
f 72 71 46
f 47 72 46
f 73 72 47
f 48 73 47
f 74 73 48
f 49 74 48
f 75 74 49
f 50 75 49
f 77 76 51
f 52 77 51
f 78 77 52
f 53 78 52
f 79 78 53
f 54 79 53
f 80 79 54
f 55 80 54
f 81 80 55
f 56 81 55
f 82 81 56
f 57 82 56
f 83 82 57
f 58 83 57
f 84 83 58
f 59 84 58
f 85 84 59
f 60 85 59
f 86 85 60
f 61 86 60
f 87 86 61
f 62 87 61
f 88 87 62
f 63 88 62
f 89 88 63
f 64 89 63
f 90 89 64
f 65 90 64
f 91 90 65
f 66 91 65
f 92 91 66
f 67 92 66
f 93 92 67
f 68 93 67
f 94 93 68
f 69 94 68
f 95 94 69
f 70 95 69
f 96 95 70
f 71 96 70
f 97 96 71
f 72 97 71
f 98 97 72
f 73 98 72
f 99 98 73
f 74 99 73
f 100 99 74
f 75 100 74
f 106 105 101
f 102 106 101
f 107 106 102
f 103 107 102
f 108 107 103
f 104 108 103
f 110 109 105
f 106 110 105
f 111 110 106
f 107 111 106
f 112 111 107
f 108 112 107
f 114 113 109
f 110 114 109
f 115 114 110
f 111 115 110
f 116 115 111
f 112 116 111
f 118 117 113
f 114 118 113
f 119 118 114
f 115 119 114
f 120 119 115
f 116 120 115
f 122 121 117
f 118 122 117
f 123 122 118
f 119 123 118
f 124 123 119
f 120 124 119
f 126 125 121
f 122 126 121
f 127 126 122
f 123 127 122
f 128 127 123
f 124 128 123
f 130 129 125
f 126 130 125
f 131 130 126
f 127 131 126
f 132 131 127
f 128 132 127
f 134 133 129
f 130 134 129
f 135 134 130
f 131 135 130
f 136 135 131
f 132 136 131
f 138 137 133
f 134 138 133
f 139 138 134
f 135 139 134
f 140 139 135
f 136 140 135
f 142 141 137
f 138 142 137
f 143 142 138
f 139 143 138
f 144 143 139
f 140 144 139
f 146 145 141
f 142 146 141
f 147 146 142
f 143 147 142
f 148 147 143
f 144 148 143
f 150 149 145
f 146 150 145
f 151 150 146
f 147 151 146
f 152 151 147
f 148 152 147
f 158 157 153
f 154 158 153
f 159 158 154
f 155 159 154
f 160 159 155
f 156 160 155
f 162 161 157
f 158 162 157
f 163 162 158
f 159 163 158
f 164 163 159
f 160 164 159
f 166 165 161
f 162 166 161
f 167 166 162
f 163 167 162
f 168 167 163
f 164 168 163
f 170 169 165
f 166 170 165
f 171 170 166
f 167 171 166
f 172 171 167
f 168 172 167
f 174 173 169
f 170 174 169
f 175 174 170
f 171 175 170
f 176 175 171
f 172 176 171
f 178 177 173
f 174 178 173
f 179 178 174
f 175 179 174
f 180 179 175
f 176 180 175
f 182 181 177
f 178 182 177
f 183 182 178
f 179 183 178
f 184 183 179
f 180 184 179
f 186 185 181
f 182 186 181
f 187 186 182
f 183 187 182
f 188 187 183
f 184 188 183
f 190 189 185
f 186 190 185
f 191 190 186
f 187 191 186
f 192 191 187
f 188 192 187
f 194 193 189
f 190 194 189
f 195 194 190
f 191 195 190
f 196 195 191
f 192 196 191
f 198 197 193
f 194 198 193
f 199 198 194
f 195 199 194
f 200 199 195
f 196 200 195
f 202 201 197
f 198 202 197
f 203 202 198
f 199 203 198
f 204 203 199
f 200 204 199
