# Original small flower arrangement; OBJ Y reflected for Unreal import.
v 0.000000 -0.000000 6.300000
v 0.000000 -0.000000 6.300000
v 0.000000 -0.000000 6.300000
v 0.000000 -0.000000 6.300000
v 0.000000 -0.000000 6.300000
v 0.000000 -0.000000 6.300000
v 0.000000 -0.000000 6.300000
v 0.000000 -0.000000 6.300000
v 0.000000 -0.000000 6.300000
v 0.000000 -0.000000 6.300000
v 0.000000 -0.000000 6.300000
v -0.000000 -0.000000 6.300000
v -0.000000 -0.000000 6.300000
v -0.000000 -0.000000 6.300000
v -0.000000 -0.000000 6.300000
v -0.000000 -0.000000 6.300000
v -0.000000 -0.000000 6.300000
v -0.000000 -0.000000 6.300000
v -0.000000 -0.000000 6.300000
v -0.000000 -0.000000 6.300000
v -0.000000 -0.000000 6.300000
v -0.000000 0.000000 6.300000
v -0.000000 0.000000 6.300000
v -0.000000 0.000000 6.300000
v -0.000000 0.000000 6.300000
v -0.000000 0.000000 6.300000
v -0.000000 0.000000 6.300000
v -0.000000 0.000000 6.300000
v -0.000000 0.000000 6.300000
v -0.000000 0.000000 6.300000
v -0.000000 0.000000 6.300000
v 0.000000 0.000000 6.300000
v 0.000000 0.000000 6.300000
v 0.000000 0.000000 6.300000
v 0.000000 0.000000 6.300000
v 0.000000 0.000000 6.300000
v 0.000000 0.000000 6.300000
v 0.000000 0.000000 6.300000
v 0.000000 0.000000 6.300000
v 0.000000 0.000000 6.300000
v 0.000000 0.000000 6.300000
v 7.413432 -0.000000 6.236591
v 7.429402 -0.867043 6.327933
v 7.082901 -1.695749 6.265169
v 6.518143 -2.447170 6.154191
v 5.945317 -3.182808 6.182233
v 5.297054 -3.903092 6.301985
v 4.409782 -4.472295 6.311410
v 3.342970 -4.834383 6.194606
v 2.258569 -5.121907 6.148637
v 1.162407 -5.407792 6.251059
v 0.000000 -5.543531 6.329072
v -1.162407 -5.407792 6.251059
v -2.258569 -5.121907 6.148637
v -3.342970 -4.834383 6.194606
v -4.409782 -4.472295 6.311410
v -5.297054 -3.903092 6.301985
v -5.945317 -3.182808 6.182233
v -6.518143 -2.447170 6.154191
v -7.082901 -1.695749 6.265169
v -7.429402 -0.867043 6.327933
v -7.413432 -0.000000 6.236591
v -7.214919 0.842012 6.145250
v -7.018285 1.680279 6.208013
v -6.692690 2.512702 6.318992
v -6.049868 3.238780 6.290950
v -5.187123 3.822090 6.171198
v -4.305231 4.366262 6.161773
v -3.388285 4.899915 6.278577
v -2.323185 5.268441 6.324545
v -1.157026 5.382761 6.222124
v -0.000000 5.381527 6.144111
v 1.157026 5.382761 6.222124
v 2.323185 5.268441 6.324545
v 3.388285 4.899915 6.278577
v 4.305231 4.366262 6.161773
v 5.187123 3.822090 6.171198
v 6.049868 3.238780 6.290950
v 6.692690 2.512702 6.318992
v 7.018285 1.680279 6.208013
v 7.214919 0.842012 6.145250
v 7.413432 0.000000 6.236591
v 14.541970 -0.000000 6.048802
v 14.744030 -1.720692 6.209297
v 13.945047 -3.338647 6.099016
v 12.646852 -4.748132 5.904018
v 11.578933 -6.198749 5.953290
v 10.478054 -7.720671 6.163704
v 8.733324 -8.857129 6.180264
v 6.521399 -9.430818 5.975031
v 4.378905 -9.930336 5.894260
v 2.284425 -10.627691 6.074222
v 0.000000 -11.002988 6.211298
v -2.284425 -10.627691 6.074222
v -4.378905 -9.930336 5.894260
v -6.521399 -9.430818 5.975031
v -8.733324 -8.857129 6.180264
v -10.478054 -7.720671 6.163704
v -11.578933 -6.198749 5.953290
v -12.646852 -4.748132 5.904018
v -13.945047 -3.338647 6.099016
v -14.744030 -1.720692 6.209297
v -14.541970 -0.000000 6.048802
v -13.981839 1.631741 5.888308
v -13.715425 3.283672 5.998589
v -13.267129 4.981008 6.193587
v -11.950469 6.397649 6.144315
v -10.087398 7.432820 5.933901
v -8.361788 8.480326 5.917341
v -6.682433 9.663695 6.122574
v -4.608527 10.451064 6.203345
v -2.265305 10.538739 6.023383
v -0.000000 10.427284 5.886307
v 2.265305 10.538739 6.023383
v 4.608527 10.451064 6.203345
v 6.682433 9.663695 6.122574
v 8.361788 8.480326 5.917341
v 10.087398 7.432820 5.933901
v 11.950469 6.397649 6.144315
v 13.267129 4.981008 6.193587
v 13.715425 3.283672 5.998589
v 13.981839 1.631741 5.888308
v 14.541970 0.000000 6.048802
v 21.111669 -0.000000 5.743850
v 21.548663 -2.514822 5.935822
v 20.288346 -4.857324 5.803912
v 18.243481 -6.849329 5.570669
v 16.739983 -8.961702 5.629604
v 15.285402 -11.262928 5.881287
v 12.748843 -12.929573 5.901095
v 9.437255 -13.647536 5.655610
v 6.313909 -14.318473 5.558997
v 3.320075 -15.445780 5.774255
v 0.000000 -16.082364 5.938215
v -3.320075 -15.445780 5.774255
v -6.313909 -14.318473 5.558997
v -9.437255 -13.647536 5.655610
v -12.748843 -12.929573 5.901095
v -15.285402 -11.262928 5.881287
v -16.739983 -8.961702 5.629604
v -18.243481 -6.849329 5.570669
v -20.288346 -4.857324 5.803912
v -21.548663 -2.514822 5.935822
v -21.111669 -0.000000 5.743850
v -20.154835 2.352156 5.551877
v -19.868434 4.756792 5.683787
v -19.377789 7.275193 5.917031
v -17.419414 9.325433 5.858095
v -14.571006 10.736531 5.606412
v -12.069412 12.240510 5.586605
v -9.731739 14.073400 5.832090
v -6.733820 15.270734 5.928703
v -3.285110 15.283114 5.713444
v -0.000000 15.029569 5.549484
v 3.285110 15.283114 5.713444
v 6.733820 15.270734 5.928703
v 9.731739 14.073400 5.832090
v 12.069412 12.240510 5.586605
v 14.571006 10.736531 5.606412
v 17.419414 9.325433 5.858095
v 19.377789 7.275193 5.917031
v 19.868434 4.756792 5.683787
v 20.154835 2.352156 5.551877
v 21.111669 0.000000 5.743850
v 26.870058 -0.000000 5.333452
v 27.441988 -3.202599 5.514872
v 25.826909 -6.183337 5.390213
v 23.206735 -8.712732 5.169791
v 21.298283 -11.401975 5.225487
v 19.462696 -14.340934 5.463335
v 16.233873 -16.464007 5.482054
v 12.008021 -17.365208 5.250063
v 8.031339 -18.213203 5.158761
v 4.226049 -19.660586 5.362186
v 0.000000 -20.480857 5.517134
v -4.226049 -19.660586 5.362186
v -8.031339 -18.213203 5.158761
v -12.008021 -17.365208 5.250063
v -16.233873 -16.464007 5.482054
v -19.462696 -14.340934 5.463335
v -21.298283 -11.401975 5.225487
v -23.206735 -8.712732 5.169791
v -25.826909 -6.183337 5.390213
v -27.441988 -3.202599 5.514872
v -26.870058 -0.000000 5.333452
v -25.636497 2.991890 5.152032
v -25.282978 6.053112 5.276692
v -24.676058 9.264374 5.497114
v -22.178383 11.873134 5.441418
v -18.537304 13.659066 5.203570
v -15.353774 15.571431 5.184851
v -12.389481 17.916850 5.416842
v -8.575270 19.446713 5.508144
v -4.180757 19.449877 5.304718
v -0.000000 19.117122 5.149771
v 4.180757 19.449877 5.304718
v 8.575270 19.446713 5.508144
v 12.389481 17.916850 5.416842
v 15.353774 15.571431 5.184851
v 18.537304 13.659066 5.203570
v 22.178383 11.873134 5.441418
v 24.676058 9.264374 5.497114
v 25.282978 6.053112 5.276692
v 25.636497 2.991890 5.152032
v 26.870058 0.000000 5.333452
v 31.595845 -0.000000 4.833382
v 32.086915 -3.744682 4.969688
v 30.314568 -7.257748 4.876028
v 27.435899 -10.300528 4.710418
v 25.132581 -13.454655 4.752264
v 22.792709 -16.794627 4.930967
v 19.000567 -19.269922 4.945031
v 14.158275 -20.474764 4.770728
v 9.498520 -21.540427 4.702131
v 4.964756 -23.097227 4.854971
v 0.000000 -23.945887 4.971388
v -4.964756 -23.097227 4.854971
v -9.498520 -21.540427 4.702131
v -14.158275 -20.474764 4.770728
v -19.000567 -19.269922 4.945031
v -22.792709 -16.794627 4.930967
v -25.132581 -13.454655 4.752264
v -27.435899 -10.300528 4.710418
v -30.314568 -7.257748 4.876028
v -32.086915 -3.744682 4.969688
v -31.595845 -0.000000 4.833382
v -30.326781 3.539266 4.697075
v -29.784301 7.130794 4.790736
v -28.868310 10.838313 4.956346
v -25.990571 13.913977 4.914500
v -21.890564 16.129889 4.735797
v -18.142577 18.399769 4.721733
v -14.530152 21.012548 4.896035
v -10.028787 22.742950 4.964633
v -4.920602 22.891812 4.811793
v -0.000000 22.616411 4.695376
v 4.920602 22.891812 4.811793
v 10.028787 22.742950 4.964633
v 14.530152 21.012548 4.896035
v 18.142577 18.399769 4.721733
v 21.890564 16.129889 4.735797
v 25.990571 13.913977 4.914500
v 28.868310 10.838313 4.956346
v 29.784301 7.130794 4.790736
v 30.326781 3.539266 4.697075
v 31.595845 0.000000 4.833382
v 35.107422 -0.000000 4.262855
v 35.267249 -4.115840 4.335641
v 33.567509 -8.036549 4.285628
v 30.799121 -11.563216 4.197194
v 28.113899 -15.050695 4.219540
v 25.128151 -18.515480 4.314964
v 20.924228 -21.220853 4.322474
v 15.813348 -22.868221 4.229399
v 10.670424 -24.198033 4.192769
v 5.506863 -25.619237 4.274383
v 0.000000 -26.315823 4.336548
v -5.506863 -25.619237 4.274383
v -10.670424 -24.198033 4.192769
v -15.813348 -22.868221 4.229399
v -20.924228 -21.220853 4.322474
v -25.128151 -18.515480 4.314964
v -28.113899 -15.050695 4.219540
v -30.799121 -11.563216 4.197194
v -33.567509 -8.036549 4.285628
v -35.267249 -4.115840 4.335641
v -35.107422 -0.000000 4.262855
v -34.083134 3.977649 4.190070
v -33.210776 7.951142 4.240083
v -31.762763 11.925006 4.328516
v -28.691104 15.359700 4.306171
v -24.521242 18.068283 4.210747
v -20.347022 20.635465 4.203237
v -16.063525 23.230010 4.296311
v -11.027156 25.007019 4.332941
v -5.477159 25.481046 4.251327
v -0.000000 25.421431 4.189162
v 5.477159 25.481046 4.251327
v 11.027156 25.007019 4.332941
v 16.063525 23.230010 4.296311
v 20.347022 20.635465 4.203237
v 24.521242 18.068283 4.210747
v 28.691104 15.359700 4.306171
v 31.762763 11.925006 4.328516
v 33.210776 7.951142 4.240083
v 34.083134 3.977649 4.190070
v 35.107422 0.000000 4.262855
v 37.269841 -0.000000 3.643798
v 36.911529 -4.307735 3.653750
v 35.476015 -8.493473 3.646912
v 33.125849 -12.436762 3.634820
v 30.102924 -16.115514 3.637875
v 26.405289 -19.456529 3.650923
v 21.955673 -22.266920 3.651950
v 16.898911 -24.438091 3.639223
v 11.486724 -26.049212 3.634215
v 5.832810 -27.135619 3.645374
v 0.000000 -27.537930 3.653874
v -5.832810 -27.135619 3.645374
v -11.486724 -26.049212 3.634215
v -16.898911 -24.438091 3.639223
v -21.955673 -22.266920 3.651950
v -26.405289 -19.456529 3.650923
v -30.102924 -16.115514 3.637875
v -33.125849 -12.436762 3.634820
v -35.476015 -8.493473 3.646912
v -36.911529 -4.307735 3.653750
v -37.269841 -0.000000 3.643798
v -36.710445 4.284268 3.633846
v -35.415435 8.478969 3.640684
v -33.289493 12.498201 3.652776
v -30.200945 16.167989 3.649721
v -26.302225 19.380587 3.636673
v -21.857653 22.167510 3.635646
v -16.941396 24.499530 3.648373
v -11.547304 26.186593 3.653381
v -5.827765 27.112151 3.642222
v -0.000000 27.386046 3.633722
v 5.827765 27.112151 3.642222
v 11.547304 26.186593 3.653381
v 16.941396 24.499530 3.648373
v 21.857653 22.167510 3.635646
v 26.302225 19.380587 3.636673
v 30.200945 16.167989 3.649721
v 33.289493 12.498201 3.652776
v 35.415435 8.478969 3.640684
v 36.710445 4.284268 3.633846
v 37.269841 0.000000 3.643798
v 38.000000 -0.000000 3.000000
v 37.077032 -4.327050 2.963621
v 36.003034 -8.619649 2.988618
v 34.228632 -12.850791 3.032818
v 30.964500 -16.576756 3.021649
v 26.636787 -19.627106 2.973956
v 22.113986 -22.427477 2.970202
v 17.347797 -25.087240 3.016721
v 11.879759 -26.940523 3.035030
v 5.933093 -27.602159 2.994238
v 0.000000 -27.656232 2.963168
v -5.933093 -27.602159 2.994238
v -11.879759 -26.940523 3.035030
v -17.347797 -25.087240 3.016721
v -22.113986 -22.427477 2.970202
v -26.636787 -19.627106 2.973956
v -30.964500 -16.576756 3.021649
v -34.228632 -12.850791 3.032818
v -36.003034 -8.619649 2.988618
v -37.077032 -4.327050 2.963621
v -38.000000 -0.000000 3.000000
v -37.987282 4.433280 3.036379
v -36.277261 8.685303 3.011382
v -33.487864 12.572677 2.967182
v -30.520792 16.339218 2.978351
v -27.103329 19.970874 3.026044
v -22.557693 22.877475 3.029798
v -17.155481 24.809126 2.983279
v -11.605533 26.318642 2.964970
v -5.955927 27.708389 3.005762
v -0.000000 28.343768 3.036832
v 5.955927 27.708389 3.005762
v 11.605533 26.318642 2.964970
v 17.155481 24.809126 2.983279
v 22.557693 22.877475 3.029798
v 27.103329 19.970874 3.026044
v 30.520792 16.339218 2.978351
v 33.487864 12.572677 2.967182
v 36.277261 8.685303 3.011382
v 37.987282 4.433280 3.036379
v 38.000000 0.000000 3.000000
v 37.269841 -0.000000 2.356202
v 35.901771 -4.189892 2.298005
v 35.171810 -8.420642 2.337994
v 33.947598 -12.745280 2.408702
v 30.595138 -16.379019 2.390836
v 25.887745 -19.075181 2.314537
v 21.463459 -21.767728 2.308533
v 17.112251 -24.746608 2.382952
v 11.790929 -26.739078 2.412241
v 5.807479 -27.017776 2.346984
v 0.000000 -26.775233 2.297279
v -5.807479 -27.017776 2.346984
v -11.790929 -26.739078 2.412241
v -17.112251 -24.746608 2.382952
v -21.463459 -21.767728 2.308533
v -25.887745 -19.075181 2.314537
v -30.595138 -16.379019 2.390836
v -33.947598 -12.745280 2.408702
v -35.171810 -8.420642 2.337994
v -35.901771 -4.189892 2.298005
v -37.269841 -0.000000 2.356202
v -37.720203 4.402111 2.414399
v -35.719640 8.551800 2.374410
v -32.467744 12.189684 2.303702
v -29.708731 15.904484 2.321568
v -26.819769 19.761935 2.397867
v -22.349866 22.666701 2.403871
v -16.728057 24.191012 2.329452
v -11.243099 25.496727 2.300163
v -5.853096 27.229995 2.365419
v -0.000000 28.148742 2.415125
v 5.853096 27.229995 2.365419
v 11.243099 25.496727 2.300163
v 16.728057 24.191012 2.329452
v 22.349866 22.666701 2.403871
v 26.819769 19.761935 2.397867
v 29.708731 15.904484 2.321568
v 32.467744 12.189684 2.303702
v 35.719640 8.551800 2.374410
v 37.720203 4.402111 2.414399
v 37.269841 0.000000 2.356202
v 35.107422 -0.000000 1.737145
v 33.544081 -3.914739 1.680479
v 33.048379 -7.912261 1.719416
v 32.201449 -12.089706 1.788264
v 28.953869 -15.500371 1.770867
v 24.244954 -17.864703 1.696576
v 20.084257 -20.368975 1.690730
v 16.177415 -23.394710 1.763191
v 11.189554 -25.375300 1.791709
v 5.463636 -25.418136 1.728170
v 0.000000 -25.014270 1.679772
v -5.463636 -25.418136 1.728170
v -11.189554 -25.375300 1.791709
v -16.177415 -23.394710 1.763191
v -20.084257 -20.368975 1.690730
v -24.244954 -17.864703 1.696576
v -28.953869 -15.500371 1.770867
v -32.201449 -12.089706 1.788264
v -33.048379 -7.912261 1.719416
v -33.544081 -3.914739 1.680479
v -35.107422 -0.000000 1.737145
v -35.806302 4.178750 1.793811
v -33.729907 8.075429 1.754874
v -30.360436 11.398516 1.686026
v -27.851133 14.910024 1.703422
v -25.404439 18.719060 1.777713
v -21.186993 21.487343 1.783560
v -15.699458 22.703521 1.711098
v -10.508026 23.829753 1.682580
v -5.520385 25.682147 1.746120
v -0.000000 26.722984 1.794517
v 5.520385 25.682147 1.746120
v 10.508026 23.829753 1.682580
v 15.699458 22.703521 1.711098
v 21.186993 21.487343 1.783560
v 25.404439 18.719060 1.777713
v 27.851133 14.910024 1.703422
v 30.360436 11.398516 1.686026
v 33.729907 8.075429 1.754874
v 35.806302 4.178750 1.793811
v 35.107422 0.000000 1.737145
v 31.595845 -0.000000 1.166618
v 30.133457 -3.516705 1.126491
v 29.726059 -7.116850 1.154064
v 29.025638 -10.897380 1.202817
v 26.084808 -13.964427 1.190498
v 21.791478 -16.056878 1.137890
v 18.048340 -18.304196 1.133750
v 14.570997 -21.071615 1.185063
v 10.087028 -22.875028 1.205257
v 4.915752 -22.869250 1.160263
v 0.000000 -22.470389 1.125991
v -4.915752 -22.869250 1.160263
v -10.087028 -22.875028 1.205257
v -14.570997 -21.071615 1.185063
v -18.048340 -18.304196 1.133750
v -21.791478 -16.056878 1.137890
v -26.084808 -13.964427 1.190498
v -29.025638 -10.897380 1.202817
v -29.726059 -7.116850 1.154064
v -30.133457 -3.516705 1.126491
v -31.595845 -0.000000 1.166618
v -32.280239 3.767243 1.206745
v -30.372810 7.271691 1.179173
v -27.278570 10.241461 1.130419
v -25.038344 13.404205 1.142738
v -22.891795 16.867639 1.195346
v -19.094804 19.365495 1.199486
v -14.117430 20.415696 1.148174
v -9.440278 21.408349 1.127979
v -4.969606 23.119789 1.172974
v -0.000000 24.091910 1.207245
v 4.969606 23.119789 1.172974
v 9.440278 21.408349 1.127979
v 14.117430 20.415696 1.148174
v 19.094804 19.365495 1.199486
v 22.891795 16.867639 1.195346
v 25.038344 13.404205 1.142738
v 27.278570 10.241461 1.130419
v 30.372810 7.271691 1.179173
v 32.280239 3.767243 1.206745
v 31.595845 0.000000 1.166618
v 26.870058 -0.000000 0.666548
v 25.751224 -3.005279 0.646756
v 25.317541 -6.061387 0.660355
v 24.582693 -9.229321 0.684402
v 22.122459 -11.843195 0.678326
v 18.596107 -13.702394 0.652378
v 15.409698 -15.628148 0.650336
v 12.365242 -17.881797 0.675645
v 8.540707 -19.368332 0.685605
v 4.183635 -19.463266 0.663413
v 0.000000 -19.203779 0.646509
v -4.183635 -19.463266 0.663413
v -8.540707 -19.368332 0.685605
v -12.365242 -17.881797 0.675645
v -15.409698 -15.628148 0.650336
v -18.596107 -13.702394 0.652378
v -22.122459 -11.843195 0.678326
v -24.582693 -9.229321 0.684402
v -25.317541 -6.061387 0.660355
v -25.751224 -3.005279 0.646756
v -26.870058 -0.000000 0.666548
v -27.327261 3.189210 0.686339
v -25.792346 6.175062 0.672740
v -23.300101 8.747785 0.648693
v -21.354208 11.431914 0.654769
v -19.403893 14.297606 0.680717
v -16.177949 16.407290 0.682759
v -12.032260 17.400261 0.657450
v -8.065902 18.291585 0.647490
v -4.223171 19.647197 0.669682
v -0.000000 20.394201 0.686586
v 4.223171 19.647197 0.669682
v 8.065902 18.291585 0.647490
v 12.032260 17.400261 0.657450
v 16.177949 16.407290 0.682759
v 19.403893 14.297606 0.680717
v 21.354208 11.431914 0.654769
v 23.300101 8.747785 0.648693
v 25.792346 6.175062 0.672740
v 27.327261 3.189210 0.686339
v 26.870058 0.000000 0.666548
v 21.111669 -0.000000 0.256150
v 20.447311 -2.386290 0.251182
v 19.956547 -4.777887 0.254596
v 19.139770 -7.185831 0.260632
v 17.276845 -9.249109 0.259107
v 14.720912 -10.846988 0.252593
v 12.211981 -12.385100 0.252081
v 9.669946 -13.984038 0.258434
v 6.645708 -15.070915 0.260934
v 3.292447 -15.317247 0.255363
v 0.000000 -15.250484 0.251120
v -3.292447 -15.317247 0.255363
v -6.645708 -15.070915 0.260934
v -9.669946 -13.984038 0.258434
v -12.211981 -12.385100 0.252081
v -14.720912 -10.846988 0.252593
v -17.276845 -9.249109 0.259107
v -19.139770 -7.185831 0.260632
v -19.956547 -4.777887 0.254596
v -20.447311 -2.386290 0.251182
v -21.111669 -0.000000 0.256150
v -21.256187 2.480689 0.261119
v -20.200233 4.836229 0.257705
v -18.481500 6.938691 0.251668
v -16.882553 9.038026 0.253194
v -15.135496 11.152471 0.259707
v -12.606274 12.784982 0.260220
v -9.499048 13.736897 0.253867
v -6.402021 14.518291 0.251366
v -3.312738 15.411646 0.256937
v -0.000000 15.861449 0.261180
v 3.312738 15.411646 0.256937
v 6.402021 14.518291 0.251366
v 9.499048 13.736897 0.253867
v 12.606274 12.784982 0.260220
v 15.135496 11.152471 0.259707
v 16.882553 9.038026 0.253194
v 18.481500 6.938691 0.251668
v 20.200233 4.836229 0.257705
v 21.256187 2.480689 0.261119
v 21.111669 0.000000 0.256150
v 14.541970 -0.000000 -0.048802
v 14.284721 -1.667089 -0.048537
v 13.806673 -3.305518 -0.048719
v 13.020642 -4.888467 -0.049042
v 11.802827 -6.318610 -0.048961
v 10.242638 -7.547207 -0.048612
v 8.509430 -8.630061 -0.048585
v 6.618441 -9.571153 -0.048925
v 4.517279 -10.244136 -0.049058
v 2.272903 -10.574087 -0.048760
v 0.000000 -10.656059 -0.048533
v -2.272903 -10.574087 -0.048760
v -4.517279 -10.244136 -0.049058
v -6.618441 -9.571153 -0.048925
v -8.509430 -8.630061 -0.048585
v -10.242638 -7.547207 -0.048612
v -11.802827 -6.318610 -0.048961
v -13.020642 -4.888467 -0.049042
v -13.806673 -3.305518 -0.048719
v -14.284721 -1.667089 -0.048537
v -14.541970 -0.000000 -0.048802
v -14.441149 1.685344 -0.049068
v -13.853799 3.316801 -0.048886
v -12.893339 4.840673 -0.048563
v -11.726575 6.277788 -0.048644
v -10.322814 7.606284 -0.048993
v -8.585682 8.707394 -0.049020
v -6.585392 9.523359 -0.048680
v -4.470153 10.137264 -0.048547
v -2.276827 10.592343 -0.048845
v -0.000000 10.774213 -0.049072
v 2.276827 10.592343 -0.048845
v 4.470153 10.137264 -0.048547
v 6.585392 9.523359 -0.048680
v 8.585682 8.707394 -0.049020
v 10.322814 7.606284 -0.048993
v 11.726575 6.277788 -0.048644
v 12.893339 4.840673 -0.048563
v 13.853799 3.316801 -0.048886
v 14.441149 1.685344 -0.049068
v 14.541970 0.000000 -0.048802
v 7.413432 -0.000000 -0.236591
v 7.391945 -0.862672 -0.238846
v 7.071617 -1.693048 -0.237297
v 6.548625 -2.458615 -0.234557
v 5.963576 -3.192583 -0.235250
v 5.277856 -3.888946 -0.238206
v 4.391523 -4.453778 -0.238438
v 3.350884 -4.845827 -0.235555
v 2.269853 -5.147497 -0.234420
v 1.161467 -5.403420 -0.236949
v 0.000000 -5.515239 -0.238874
v -1.161467 -5.403420 -0.236949
v -2.269853 -5.147497 -0.234420
v -3.350884 -4.845827 -0.235555
v -4.391523 -4.453778 -0.238438
v -5.277856 -3.888946 -0.238206
v -5.963576 -3.192583 -0.235250
v -6.548625 -2.458615 -0.234557
v -7.071617 -1.693048 -0.237297
v -7.391945 -0.862672 -0.238846
v -7.413432 -0.000000 -0.236591
v -7.252376 0.846384 -0.234337
v -7.029569 1.682981 -0.235886
v -6.662208 2.501258 -0.238626
v -6.031610 3.229005 -0.237933
v -5.206321 3.836236 -0.234977
v -4.323489 4.384780 -0.234744
v -3.380372 4.888471 -0.237628
v -2.311900 5.242851 -0.238763
v -1.157966 5.387132 -0.236234
v -0.000000 5.409819 -0.234308
v 1.157966 5.387132 -0.236234
v 2.311900 5.242851 -0.238763
v 3.380372 4.888471 -0.237628
v 4.323489 4.384780 -0.234744
v 5.206321 3.836236 -0.234977
v 6.031610 3.229005 -0.237933
v 6.662208 2.501258 -0.238626
v 7.029569 1.682981 -0.235886
v 7.252376 0.846384 -0.234337
v 7.413432 0.000000 -0.236591
v 0.000000 -0.000000 -0.300000
v 0.000000 -0.000000 -0.306813
v 0.000000 -0.000000 -0.302132
v 0.000000 -0.000000 -0.293854
v 0.000000 -0.000000 -0.295945
v 0.000000 -0.000000 -0.304878
v 0.000000 -0.000000 -0.305581
v 0.000000 -0.000000 -0.296868
v 0.000000 -0.000000 -0.293439
v 0.000000 -0.000000 -0.301079
v 0.000000 -0.000000 -0.306898
v -0.000000 -0.000000 -0.301079
v -0.000000 -0.000000 -0.293439
v -0.000000 -0.000000 -0.296868
v -0.000000 -0.000000 -0.305581
v -0.000000 -0.000000 -0.304878
v -0.000000 -0.000000 -0.295945
v -0.000000 -0.000000 -0.293854
v -0.000000 -0.000000 -0.302132
v -0.000000 -0.000000 -0.306813
v -0.000000 -0.000000 -0.300000
v -0.000000 0.000000 -0.293187
v -0.000000 0.000000 -0.297868
v -0.000000 0.000000 -0.306146
v -0.000000 0.000000 -0.304055
v -0.000000 0.000000 -0.295122
v -0.000000 0.000000 -0.294419
v -0.000000 0.000000 -0.303132
v -0.000000 0.000000 -0.306561
v -0.000000 0.000000 -0.298921
v -0.000000 0.000000 -0.293102
v 0.000000 0.000000 -0.298921
v 0.000000 0.000000 -0.306561
v 0.000000 0.000000 -0.303132
v 0.000000 0.000000 -0.294419
v 0.000000 0.000000 -0.295122
v 0.000000 0.000000 -0.304055
v 0.000000 0.000000 -0.306146
v 0.000000 0.000000 -0.297868
v 0.000000 0.000000 -0.293187
v 0.000000 0.000000 -0.300000
f 43 42 1
f 2 43 1
f 44 43 2
f 3 44 2
f 45 44 3
f 4 45 3
f 46 45 4
f 5 46 4
f 47 46 5
f 6 47 5
f 48 47 6
f 7 48 6
f 49 48 7
f 8 49 7
f 50 49 8
f 9 50 8
f 51 50 9
f 10 51 9
f 52 51 10
f 11 52 10
f 53 52 11
f 12 53 11
f 54 53 12
f 13 54 12
f 55 54 13
f 14 55 13
f 56 55 14
f 15 56 14
f 57 56 15
f 16 57 15
f 58 57 16
f 17 58 16
f 59 58 17
f 18 59 17
f 60 59 18
f 19 60 18
f 61 60 19
f 20 61 19
f 62 61 20
f 21 62 20
f 63 62 21
f 22 63 21
f 64 63 22
f 23 64 22
f 65 64 23
f 24 65 23
f 66 65 24
f 25 66 24
f 67 66 25
f 26 67 25
f 68 67 26
f 27 68 26
f 69 68 27
f 28 69 27
f 70 69 28
f 29 70 28
f 71 70 29
f 30 71 29
f 72 71 30
f 31 72 30
f 73 72 31
f 32 73 31
f 74 73 32
f 33 74 32
f 75 74 33
f 34 75 33
f 76 75 34
f 35 76 34
f 77 76 35
f 36 77 35
f 78 77 36
f 37 78 36
f 79 78 37
f 38 79 37
f 80 79 38
f 39 80 38
f 81 80 39
f 40 81 39
f 82 81 40
f 41 82 40
f 84 83 42
f 43 84 42
f 85 84 43
f 44 85 43
f 86 85 44
f 45 86 44
f 87 86 45
f 46 87 45
f 88 87 46
f 47 88 46
f 89 88 47
f 48 89 47
f 90 89 48
f 49 90 48
f 91 90 49
f 50 91 49
f 92 91 50
f 51 92 50
f 93 92 51
f 52 93 51
f 94 93 52
f 53 94 52
f 95 94 53
f 54 95 53
f 96 95 54
f 55 96 54
f 97 96 55
f 56 97 55
f 98 97 56
f 57 98 56
f 99 98 57
f 58 99 57
f 100 99 58
f 59 100 58
f 101 100 59
f 60 101 59
f 102 101 60
f 61 102 60
f 103 102 61
f 62 103 61
f 104 103 62
f 63 104 62
f 105 104 63
f 64 105 63
f 106 105 64
f 65 106 64
f 107 106 65
f 66 107 65
f 108 107 66
f 67 108 66
f 109 108 67
f 68 109 67
f 110 109 68
f 69 110 68
f 111 110 69
f 70 111 69
f 112 111 70
f 71 112 70
f 113 112 71
f 72 113 71
f 114 113 72
f 73 114 72
f 115 114 73
f 74 115 73
f 116 115 74
f 75 116 74
f 117 116 75
f 76 117 75
f 118 117 76
f 77 118 76
f 119 118 77
f 78 119 77
f 120 119 78
f 79 120 78
f 121 120 79
f 80 121 79
f 122 121 80
f 81 122 80
f 123 122 81
f 82 123 81
f 125 124 83
f 84 125 83
f 126 125 84
f 85 126 84
f 127 126 85
f 86 127 85
f 128 127 86
f 87 128 86
f 129 128 87
f 88 129 87
f 130 129 88
f 89 130 88
f 131 130 89
f 90 131 89
f 132 131 90
f 91 132 90
f 133 132 91
f 92 133 91
f 134 133 92
f 93 134 92
f 135 134 93
f 94 135 93
f 136 135 94
f 95 136 94
f 137 136 95
f 96 137 95
f 138 137 96
f 97 138 96
f 139 138 97
f 98 139 97
f 140 139 98
f 99 140 98
f 141 140 99
f 100 141 99
f 142 141 100
f 101 142 100
f 143 142 101
f 102 143 101
f 144 143 102
f 103 144 102
f 145 144 103
f 104 145 103
f 146 145 104
f 105 146 104
f 147 146 105
f 106 147 105
f 148 147 106
f 107 148 106
f 149 148 107
f 108 149 107
f 150 149 108
f 109 150 108
f 151 150 109
f 110 151 109
f 152 151 110
f 111 152 110
f 153 152 111
f 112 153 111
f 154 153 112
f 113 154 112
f 155 154 113
f 114 155 113
f 156 155 114
f 115 156 114
f 157 156 115
f 116 157 115
f 158 157 116
f 117 158 116
f 159 158 117
f 118 159 117
f 160 159 118
f 119 160 118
f 161 160 119
f 120 161 119
f 162 161 120
f 121 162 120
f 163 162 121
f 122 163 121
f 164 163 122
f 123 164 122
f 166 165 124
f 125 166 124
f 167 166 125
f 126 167 125
f 168 167 126
f 127 168 126
f 169 168 127
f 128 169 127
f 170 169 128
f 129 170 128
f 171 170 129
f 130 171 129
f 172 171 130
f 131 172 130
f 173 172 131
f 132 173 131
f 174 173 132
f 133 174 132
f 175 174 133
f 134 175 133
f 176 175 134
f 135 176 134
f 177 176 135
f 136 177 135
f 178 177 136
f 137 178 136
f 179 178 137
f 138 179 137
f 180 179 138
f 139 180 138
f 181 180 139
f 140 181 139
f 182 181 140
f 141 182 140
f 183 182 141
f 142 183 141
f 184 183 142
f 143 184 142
f 185 184 143
f 144 185 143
f 186 185 144
f 145 186 144
f 187 186 145
f 146 187 145
f 188 187 146
f 147 188 146
f 189 188 147
f 148 189 147
f 190 189 148
f 149 190 148
f 191 190 149
f 150 191 149
f 192 191 150
f 151 192 150
f 193 192 151
f 152 193 151
f 194 193 152
f 153 194 152
f 195 194 153
f 154 195 153
f 196 195 154
f 155 196 154
f 197 196 155
f 156 197 155
f 198 197 156
f 157 198 156
f 199 198 157
f 158 199 157
f 200 199 158
f 159 200 158
f 201 200 159
f 160 201 159
f 202 201 160
f 161 202 160
f 203 202 161
f 162 203 161
f 204 203 162
f 163 204 162
f 205 204 163
f 164 205 163
f 207 206 165
f 166 207 165
f 208 207 166
f 167 208 166
f 209 208 167
f 168 209 167
f 210 209 168
f 169 210 168
f 211 210 169
f 170 211 169
f 212 211 170
f 171 212 170
f 213 212 171
f 172 213 171
f 214 213 172
f 173 214 172
f 215 214 173
f 174 215 173
f 216 215 174
f 175 216 174
f 217 216 175
f 176 217 175
f 218 217 176
f 177 218 176
f 219 218 177
f 178 219 177
f 220 219 178
f 179 220 178
f 221 220 179
f 180 221 179
f 222 221 180
f 181 222 180
f 223 222 181
f 182 223 181
f 224 223 182
f 183 224 182
f 225 224 183
f 184 225 183
f 226 225 184
f 185 226 184
f 227 226 185
f 186 227 185
f 228 227 186
f 187 228 186
f 229 228 187
f 188 229 187
f 230 229 188
f 189 230 188
f 231 230 189
f 190 231 189
f 232 231 190
f 191 232 190
f 233 232 191
f 192 233 191
f 234 233 192
f 193 234 192
f 235 234 193
f 194 235 193
f 236 235 194
f 195 236 194
f 237 236 195
f 196 237 195
f 238 237 196
f 197 238 196
f 239 238 197
f 198 239 197
f 240 239 198
f 199 240 198
f 241 240 199
f 200 241 199
f 242 241 200
f 201 242 200
f 243 242 201
f 202 243 201
f 244 243 202
f 203 244 202
f 245 244 203
f 204 245 203
f 246 245 204
f 205 246 204
f 248 247 206
f 207 248 206
f 249 248 207
f 208 249 207
f 250 249 208
f 209 250 208
f 251 250 209
f 210 251 209
f 252 251 210
f 211 252 210
f 253 252 211
f 212 253 211
f 254 253 212
f 213 254 212
f 255 254 213
f 214 255 213
f 256 255 214
f 215 256 214
f 257 256 215
f 216 257 215
f 258 257 216
f 217 258 216
f 259 258 217
f 218 259 217
f 260 259 218
f 219 260 218
f 261 260 219
f 220 261 219
f 262 261 220
f 221 262 220
f 263 262 221
f 222 263 221
f 264 263 222
f 223 264 222
f 265 264 223
f 224 265 223
f 266 265 224
f 225 266 224
f 267 266 225
f 226 267 225
f 268 267 226
f 227 268 226
f 269 268 227
f 228 269 227
f 270 269 228
f 229 270 228
f 271 270 229
f 230 271 229
f 272 271 230
f 231 272 230
f 273 272 231
f 232 273 231
f 274 273 232
f 233 274 232
f 275 274 233
f 234 275 233
f 276 275 234
f 235 276 234
f 277 276 235
f 236 277 235
f 278 277 236
f 237 278 236
f 279 278 237
f 238 279 237
f 280 279 238
f 239 280 238
f 281 280 239
f 240 281 239
f 282 281 240
f 241 282 240
f 283 282 241
f 242 283 241
f 284 283 242
f 243 284 242
f 285 284 243
f 244 285 243
f 286 285 244
f 245 286 244
f 287 286 245
f 246 287 245
f 289 288 247
f 248 289 247
f 290 289 248
f 249 290 248
f 291 290 249
f 250 291 249
f 292 291 250
f 251 292 250
f 293 292 251
f 252 293 251
f 294 293 252
f 253 294 252
f 295 294 253
f 254 295 253
f 296 295 254
f 255 296 254
f 297 296 255
f 256 297 255
f 298 297 256
f 257 298 256
f 299 298 257
f 258 299 257
f 300 299 258
f 259 300 258
f 301 300 259
f 260 301 259
f 302 301 260
f 261 302 260
f 303 302 261
f 262 303 261
f 304 303 262
f 263 304 262
f 305 304 263
f 264 305 263
f 306 305 264
f 265 306 264
f 307 306 265
f 266 307 265
f 308 307 266
f 267 308 266
f 309 308 267
f 268 309 267
f 310 309 268
f 269 310 268
f 311 310 269
f 270 311 269
f 312 311 270
f 271 312 270
f 313 312 271
f 272 313 271
f 314 313 272
f 273 314 272
f 315 314 273
f 274 315 273
f 316 315 274
f 275 316 274
f 317 316 275
f 276 317 275
f 318 317 276
f 277 318 276
f 319 318 277
f 278 319 277
f 320 319 278
f 279 320 278
f 321 320 279
f 280 321 279
f 322 321 280
f 281 322 280
f 323 322 281
f 282 323 281
f 324 323 282
f 283 324 282
f 325 324 283
f 284 325 283
f 326 325 284
f 285 326 284
f 327 326 285
f 286 327 285
f 328 327 286
f 287 328 286
f 330 329 288
f 289 330 288
f 331 330 289
f 290 331 289
f 332 331 290
f 291 332 290
f 333 332 291
f 292 333 291
f 334 333 292
f 293 334 292
f 335 334 293
f 294 335 293
f 336 335 294
f 295 336 294
f 337 336 295
f 296 337 295
f 338 337 296
f 297 338 296
f 339 338 297
f 298 339 297
f 340 339 298
f 299 340 298
f 341 340 299
f 300 341 299
f 342 341 300
f 301 342 300
f 343 342 301
f 302 343 301
f 344 343 302
f 303 344 302
f 345 344 303
f 304 345 303
f 346 345 304
f 305 346 304
f 347 346 305
f 306 347 305
f 348 347 306
f 307 348 306
f 349 348 307
f 308 349 307
f 350 349 308
f 309 350 308
f 351 350 309
f 310 351 309
f 352 351 310
f 311 352 310
f 353 352 311
f 312 353 311
f 354 353 312
f 313 354 312
f 355 354 313
f 314 355 313
f 356 355 314
f 315 356 314
f 357 356 315
f 316 357 315
f 358 357 316
f 317 358 316
f 359 358 317
f 318 359 317
f 360 359 318
f 319 360 318
f 361 360 319
f 320 361 319
f 362 361 320
f 321 362 320
f 363 362 321
f 322 363 321
f 364 363 322
f 323 364 322
f 365 364 323
f 324 365 323
f 366 365 324
f 325 366 324
f 367 366 325
f 326 367 325
f 368 367 326
f 327 368 326
f 369 368 327
f 328 369 327
f 371 370 329
f 330 371 329
f 372 371 330
f 331 372 330
f 373 372 331
f 332 373 331
f 374 373 332
f 333 374 332
f 375 374 333
f 334 375 333
f 376 375 334
f 335 376 334
f 377 376 335
f 336 377 335
f 378 377 336
f 337 378 336
f 379 378 337
f 338 379 337
f 380 379 338
f 339 380 338
f 381 380 339
f 340 381 339
f 382 381 340
f 341 382 340
f 383 382 341
f 342 383 341
f 384 383 342
f 343 384 342
f 385 384 343
f 344 385 343
f 386 385 344
f 345 386 344
f 387 386 345
f 346 387 345
f 388 387 346
f 347 388 346
f 389 388 347
f 348 389 347
f 390 389 348
f 349 390 348
f 391 390 349
f 350 391 349
f 392 391 350
f 351 392 350
f 393 392 351
f 352 393 351
f 394 393 352
f 353 394 352
f 395 394 353
f 354 395 353
f 396 395 354
f 355 396 354
f 397 396 355
f 356 397 355
f 398 397 356
f 357 398 356
f 399 398 357
f 358 399 357
f 400 399 358
f 359 400 358
f 401 400 359
f 360 401 359
f 402 401 360
f 361 402 360
f 403 402 361
f 362 403 361
f 404 403 362
f 363 404 362
f 405 404 363
f 364 405 363
f 406 405 364
f 365 406 364
f 407 406 365
f 366 407 365
f 408 407 366
f 367 408 366
f 409 408 367
f 368 409 367
f 410 409 368
f 369 410 368
f 412 411 370
f 371 412 370
f 413 412 371
f 372 413 371
f 414 413 372
f 373 414 372
f 415 414 373
f 374 415 373
f 416 415 374
f 375 416 374
f 417 416 375
f 376 417 375
f 418 417 376
f 377 418 376
f 419 418 377
f 378 419 377
f 420 419 378
f 379 420 378
f 421 420 379
f 380 421 379
f 422 421 380
f 381 422 380
f 423 422 381
f 382 423 381
f 424 423 382
f 383 424 382
f 425 424 383
f 384 425 383
f 426 425 384
f 385 426 384
f 427 426 385
f 386 427 385
f 428 427 386
f 387 428 386
f 429 428 387
f 388 429 387
f 430 429 388
f 389 430 388
f 431 430 389
f 390 431 389
f 432 431 390
f 391 432 390
f 433 432 391
f 392 433 391
f 434 433 392
f 393 434 392
f 435 434 393
f 394 435 393
f 436 435 394
f 395 436 394
f 437 436 395
f 396 437 395
f 438 437 396
f 397 438 396
f 439 438 397
f 398 439 397
f 440 439 398
f 399 440 398
f 441 440 399
f 400 441 399
f 442 441 400
f 401 442 400
f 443 442 401
f 402 443 401
f 444 443 402
f 403 444 402
f 445 444 403
f 404 445 403
f 446 445 404
f 405 446 404
f 447 446 405
f 406 447 405
f 448 447 406
f 407 448 406
f 449 448 407
f 408 449 407
f 450 449 408
f 409 450 408
f 451 450 409
f 410 451 409
f 453 452 411
f 412 453 411
f 454 453 412
f 413 454 412
f 455 454 413
f 414 455 413
f 456 455 414
f 415 456 414
f 457 456 415
f 416 457 415
f 458 457 416
f 417 458 416
f 459 458 417
f 418 459 417
f 460 459 418
f 419 460 418
f 461 460 419
f 420 461 419
f 462 461 420
f 421 462 420
f 463 462 421
f 422 463 421
f 464 463 422
f 423 464 422
f 465 464 423
f 424 465 423
f 466 465 424
f 425 466 424
f 467 466 425
f 426 467 425
f 468 467 426
f 427 468 426
f 469 468 427
f 428 469 427
f 470 469 428
f 429 470 428
f 471 470 429
f 430 471 429
f 472 471 430
f 431 472 430
f 473 472 431
f 432 473 431
f 474 473 432
f 433 474 432
f 475 474 433
f 434 475 433
f 476 475 434
f 435 476 434
f 477 476 435
f 436 477 435
f 478 477 436
f 437 478 436
f 479 478 437
f 438 479 437
f 480 479 438
f 439 480 438
f 481 480 439
f 440 481 439
f 482 481 440
f 441 482 440
f 483 482 441
f 442 483 441
f 484 483 442
f 443 484 442
f 485 484 443
f 444 485 443
f 486 485 444
f 445 486 444
f 487 486 445
f 446 487 445
f 488 487 446
f 447 488 446
f 489 488 447
f 448 489 447
f 490 489 448
f 449 490 448
f 491 490 449
f 450 491 449
f 492 491 450
f 451 492 450
f 494 493 452
f 453 494 452
f 495 494 453
f 454 495 453
f 496 495 454
f 455 496 454
f 497 496 455
f 456 497 455
f 498 497 456
f 457 498 456
f 499 498 457
f 458 499 457
f 500 499 458
f 459 500 458
f 501 500 459
f 460 501 459
f 502 501 460
f 461 502 460
f 503 502 461
f 462 503 461
f 504 503 462
f 463 504 462
f 505 504 463
f 464 505 463
f 506 505 464
f 465 506 464
f 507 506 465
f 466 507 465
f 508 507 466
f 467 508 466
f 509 508 467
f 468 509 467
f 510 509 468
f 469 510 468
f 511 510 469
f 470 511 469
f 512 511 470
f 471 512 470
f 513 512 471
f 472 513 471
f 514 513 472
f 473 514 472
f 515 514 473
f 474 515 473
f 516 515 474
f 475 516 474
f 517 516 475
f 476 517 475
f 518 517 476
f 477 518 476
f 519 518 477
f 478 519 477
f 520 519 478
f 479 520 478
f 521 520 479
f 480 521 479
f 522 521 480
f 481 522 480
f 523 522 481
f 482 523 481
f 524 523 482
f 483 524 482
f 525 524 483
f 484 525 483
f 526 525 484
f 485 526 484
f 527 526 485
f 486 527 485
f 528 527 486
f 487 528 486
f 529 528 487
f 488 529 487
f 530 529 488
f 489 530 488
f 531 530 489
f 490 531 489
f 532 531 490
f 491 532 490
f 533 532 491
f 492 533 491
f 535 534 493
f 494 535 493
f 536 535 494
f 495 536 494
f 537 536 495
f 496 537 495
f 538 537 496
f 497 538 496
f 539 538 497
f 498 539 497
f 540 539 498
f 499 540 498
f 541 540 499
f 500 541 499
f 542 541 500
f 501 542 500
f 543 542 501
f 502 543 501
f 544 543 502
f 503 544 502
f 545 544 503
f 504 545 503
f 546 545 504
f 505 546 504
f 547 546 505
f 506 547 505
f 548 547 506
f 507 548 506
f 549 548 507
f 508 549 507
f 550 549 508
f 509 550 508
f 551 550 509
f 510 551 509
f 552 551 510
f 511 552 510
f 553 552 511
f 512 553 511
f 554 553 512
f 513 554 512
f 555 554 513
f 514 555 513
f 556 555 514
f 515 556 514
f 557 556 515
f 516 557 515
f 558 557 516
f 517 558 516
f 559 558 517
f 518 559 517
f 560 559 518
f 519 560 518
f 561 560 519
f 520 561 519
f 562 561 520
f 521 562 520
f 563 562 521
f 522 563 521
f 564 563 522
f 523 564 522
f 565 564 523
f 524 565 523
f 566 565 524
f 525 566 524
f 567 566 525
f 526 567 525
f 568 567 526
f 527 568 526
f 569 568 527
f 528 569 527
f 570 569 528
f 529 570 528
f 571 570 529
f 530 571 529
f 572 571 530
f 531 572 530
f 573 572 531
f 532 573 531
f 574 573 532
f 533 574 532
f 576 575 534
f 535 576 534
f 577 576 535
f 536 577 535
f 578 577 536
f 537 578 536
f 579 578 537
f 538 579 537
f 580 579 538
f 539 580 538
f 581 580 539
f 540 581 539
f 582 581 540
f 541 582 540
f 583 582 541
f 542 583 541
f 584 583 542
f 543 584 542
f 585 584 543
f 544 585 543
f 586 585 544
f 545 586 544
f 587 586 545
f 546 587 545
f 588 587 546
f 547 588 546
f 589 588 547
f 548 589 547
f 590 589 548
f 549 590 548
f 591 590 549
f 550 591 549
f 592 591 550
f 551 592 550
f 593 592 551
f 552 593 551
f 594 593 552
f 553 594 552
f 595 594 553
f 554 595 553
f 596 595 554
f 555 596 554
f 597 596 555
f 556 597 555
f 598 597 556
f 557 598 556
f 599 598 557
f 558 599 557
f 600 599 558
f 559 600 558
f 601 600 559
f 560 601 559
f 602 601 560
f 561 602 560
f 603 602 561
f 562 603 561
f 604 603 562
f 563 604 562
f 605 604 563
f 564 605 563
f 606 605 564
f 565 606 564
f 607 606 565
f 566 607 565
f 608 607 566
f 567 608 566
f 609 608 567
f 568 609 567
f 610 609 568
f 569 610 568
f 611 610 569
f 570 611 569
f 612 611 570
f 571 612 570
f 613 612 571
f 572 613 571
f 614 613 572
f 573 614 572
f 615 614 573
f 574 615 573
f 617 616 575
f 576 617 575
f 618 617 576
f 577 618 576
f 619 618 577
f 578 619 577
f 620 619 578
f 579 620 578
f 621 620 579
f 580 621 579
f 622 621 580
f 581 622 580
f 623 622 581
f 582 623 581
f 624 623 582
f 583 624 582
f 625 624 583
f 584 625 583
f 626 625 584
f 585 626 584
f 627 626 585
f 586 627 585
f 628 627 586
f 587 628 586
f 629 628 587
f 588 629 587
f 630 629 588
f 589 630 588
f 631 630 589
f 590 631 589
f 632 631 590
f 591 632 590
f 633 632 591
f 592 633 591
f 634 633 592
f 593 634 592
f 635 634 593
f 594 635 593
f 636 635 594
f 595 636 594
f 637 636 595
f 596 637 595
f 638 637 596
f 597 638 596
f 639 638 597
f 598 639 597
f 640 639 598
f 599 640 598
f 641 640 599
f 600 641 599
f 642 641 600
f 601 642 600
f 643 642 601
f 602 643 601
f 644 643 602
f 603 644 602
f 645 644 603
f 604 645 603
f 646 645 604
f 605 646 604
f 647 646 605
f 606 647 605
f 648 647 606
f 607 648 606
f 649 648 607
f 608 649 607
f 650 649 608
f 609 650 608
f 651 650 609
f 610 651 609
f 652 651 610
f 611 652 610
f 653 652 611
f 612 653 611
f 654 653 612
f 613 654 612
f 655 654 613
f 614 655 613
f 656 655 614
f 615 656 614
f 658 657 616
f 617 658 616
f 659 658 617
f 618 659 617
f 660 659 618
f 619 660 618
f 661 660 619
f 620 661 619
f 662 661 620
f 621 662 620
f 663 662 621
f 622 663 621
f 664 663 622
f 623 664 622
f 665 664 623
f 624 665 623
f 666 665 624
f 625 666 624
f 667 666 625
f 626 667 625
f 668 667 626
f 627 668 626
f 669 668 627
f 628 669 627
f 670 669 628
f 629 670 628
f 671 670 629
f 630 671 629
f 672 671 630
f 631 672 630
f 673 672 631
f 632 673 631
f 674 673 632
f 633 674 632
f 675 674 633
f 634 675 633
f 676 675 634
f 635 676 634
f 677 676 635
f 636 677 635
f 678 677 636
f 637 678 636
f 679 678 637
f 638 679 637
f 680 679 638
f 639 680 638
f 681 680 639
f 640 681 639
f 682 681 640
f 641 682 640
f 683 682 641
f 642 683 641
f 684 683 642
f 643 684 642
f 685 684 643
f 644 685 643
f 686 685 644
f 645 686 644
f 687 686 645
f 646 687 645
f 688 687 646
f 647 688 646
f 689 688 647
f 648 689 647
f 690 689 648
f 649 690 648
f 691 690 649
f 650 691 649
f 692 691 650
f 651 692 650
f 693 692 651
f 652 693 651
f 694 693 652
f 653 694 652
f 695 694 653
f 654 695 653
f 696 695 654
f 655 696 654
f 697 696 655
f 656 697 655
