# OSM contributors ODbL; elevations USGS 3DEP
# Centimeters, Z up, OBJ Y = negative Unreal Y.
o Park_Concrete_2_14
v -17744.188009 12113.181352 267.251896
v -17744.188009 12098.029823 265.239584
v -17750.427307 12104.269121 266.287590
v -17754.795331 12098.029823 265.488192
v -17677.521342 12156.331151 271.290520
v -17677.521342 12098.029823 264.458333
v -17716.644960 12137.153441 270.112919
v -17690.003354 12154.129156 271.373779
v -17736.071395 12124.775146 268.696580
v -17610.854675 12163.068148 270.079368
v -17610.854675 12098.029823 265.760417
v -17670.410459 12157.585606 271.576411
v -17636.208740 12163.619249 270.908279
v -17544.188009 12161.619069 267.238768
v -17544.188009 12098.029823 265.500000
v -17609.190154 12163.031968 270.070463
v -17477.521342 12098.029823 263.937500
v -17541.042211 12161.550691 267.163169
v -17505.375987 12160.775444 265.760872
v -17477.521342 12160.169990 264.665705
v -17410.854675 12158.720910 261.784140
v -17410.854675 12098.029823 261.072917
v -17472.894267 12160.069415 264.465707
v -17344.188009 12098.029823 258.468750
v -17404.746324 12158.588138 261.543977
v -17374.543234 12157.931638 260.356476
v -17344.188009 12157.271831 259.162992
v -17277.521342 12155.822752 256.281427
v -17277.521342 12098.029823 255.604167
v -17336.598381 12157.106862 258.834943
v -17210.854675 12154.373673 253.399862
v -17210.854675 12098.029823 252.739584
v -17268.450438 12155.625585 255.889351
v -17144.188009 12098.029823 249.875000
v -17200.302495 12154.144309 252.943761
v -17178.294105 12153.665930 251.992482
v -17144.188009 12152.924593 250.518298
v -17077.521342 12098.029823 247.010417
v -17132.154551 12152.663032 249.998171
v -17113.280806 12152.252789 249.254505
v -17077.521342 12151.681548 247.848724
v -17010.854675 12098.029823 244.145833
v -17064.295118 12151.470266 247.277109
v -17048.021261 12151.210298 246.573780
v -17010.854675 12150.616580 244.967502
v -16944.188009 12149.551611 242.086278
v -16944.188009 12098.029823 241.281250
v -16996.546195 12150.388009 244.349113
v -16877.521342 12098.029823 238.416666
v -16928.797271 12149.305752 241.421116
v -16916.695929 12149.112439 240.898115
v -16877.521342 12148.486643 239.205055
v -16810.854675 12147.421675 236.323831
v -16810.854675 12098.029823 235.552083
v -16861.048348 12148.223495 238.493119
v -16744.188009 12098.029823 232.687500
v -16793.299424 12147.141238 235.565122
v -16785.370596 12147.014579 235.222451
v -16744.188009 12146.356706 233.442607
v -16677.521342 12145.291738 230.637184
v -16677.521342 12098.029823 230.083334
v -16725.550500 12146.058981 232.709928
v -16610.854675 12144.226770 227.940577
v -16610.854675 12098.029823 227.218750
v -16657.801577 12144.976724 229.786158
v -16544.188009 12143.161801 225.059353
v -16544.188009 12098.029823 224.354166
v -16590.052653 12143.894467 227.041548
v -16477.521342 12142.096833 222.266410
v -16477.521342 12098.029823 221.750000
v -16522.303730 12142.812210 224.199037
v -16522.719931 12142.818859 224.215398
v -16410.854675 12141.031865 219.557324
v -16410.854675 12098.029823 218.885416
v -16454.554806 12141.729953 221.275267
v -16457.057265 12141.769929 221.383263
v -16344.188009 12139.966896 216.936517
v -16344.188009 12098.029823 216.281250
v -16386.805883 12140.647697 218.611915
v -16391.394599 12140.720999 218.792307
v -16277.521342 12138.901928 214.055293
v -16277.521342 12098.029823 213.416667
v -16319.056959 12139.565440 215.850395
v -16325.731932 12139.672069 216.138875
v -16210.854675 12137.836960 211.434487
v -16210.854675 12098.029823 210.812500
v -16251.308035 12138.483183 213.024793
v -16260.069266 12138.623139 213.369215
v -16144.188009 12136.771991 208.813680
v -16144.188009 12098.029823 208.208334
v -16183.559112 12137.400926 210.361441
v -16194.406600 12137.574209 210.787879
v -16077.521342 12135.707023 206.192873
v -16077.521342 12098.029823 205.604167
v -16115.810188 12136.318669 207.698088
v -16128.743934 12136.525279 208.206540
v -16010.854675 12134.642054 203.572066
v -16010.854675 12098.029823 203.000000
v -16048.061265 12135.236412 205.034735
v -16063.081267 12135.476349 205.625203
v -15944.188009 12133.577086 200.951259
v -15944.188009 12098.029823 200.395833
v -15980.312341 12134.154155 202.371383
v -15997.418601 12134.427420 203.043866
v -15877.521342 12132.512118 198.330453
v -15877.521342 12098.029823 197.791667
v -15912.563418 12133.071898 199.708031
v -15931.755935 12133.378490 200.462529
v -15810.854675 12131.285514 195.837632
v -15810.854675 12098.029823 195.447917
v -15844.751408 12131.926555 197.169235
v -15866.093269 12132.329560 197.925832
v -15865.682269 12132.322391 197.911271
v -15744.188009 12130.024742 193.343671
v -15744.188009 12098.029823 192.843750
v -15776.799666 12130.641480 194.499811
v -15799.311313 12131.067211 195.384161
v -15677.521342 12128.763970 190.719805
v -15677.521342 12098.029823 190.239583
v -15708.847925 12129.356405 191.952756
v -15732.940356 12129.812031 192.900986
v -15610.854675 12127.503198 188.241225
v -15610.854675 12098.029823 187.895834
v -15640.896183 12128.071330 189.421379
v -15666.569400 12128.556852 190.331539
v -15544.188009 12126.242426 185.732489
v -15544.188009 12098.029823 185.291666
v -15572.944442 12126.786256 186.751954
v -15600.198444 12127.301672 187.822604
v -15477.521342 12124.981654 183.263759
v -15477.521342 12098.029823 182.947917
v -15504.992700 12125.501181 184.342947
v -15533.827487 12126.046492 185.365190
v -15410.854675 12123.720882 180.745173
v -15410.854675 12098.029823 180.343750
v -15437.040959 12124.216106 181.673523
v -15467.456531 12124.791312 182.868371
v -15344.188009 12122.460110 178.381723
v -15344.188009 12098.029823 178.000000
v -15369.089217 12122.931031 179.264514
v -15401.085575 12123.536133 180.398841
v -15277.521342 12121.199338 175.757857
v -15277.521342 12098.029823 175.395834
v -15301.137476 12121.645956 176.687341
v -15334.714618 12122.280953 178.008869
v -15210.854675 12119.938566 173.394408
v -15210.854675 12098.029823 173.052084
v -15233.185734 12120.360881 174.186083
v -15268.343662 12121.025773 175.432492
v -15144.188009 12118.677794 171.030958
v -15144.188009 12098.029823 170.708334
v -15165.233993 12119.075807 171.777075
v -15201.972706 12119.770594 173.079526
v -15077.521342 12117.417022 168.407092
v -15077.521342 12098.029823 168.104166
v -15097.282251 12117.790732 169.184842
v -15135.601749 12118.515414 170.693020
v -15010.854675 12116.156250 166.043642
v -15010.854675 12098.029823 165.760417
v -15029.330510 12116.505657 166.698643
v -15069.230793 12117.260234 168.113177
v -14944.188009 12114.895478 163.680192
v -14944.188009 12098.029823 163.416667
v -14961.378768 12115.220582 164.289635
v -15002.859837 12116.005055 165.760211
v -14877.521342 12113.634706 161.316743
v -14877.521342 12098.029823 161.072917
v -14893.427027 12113.935507 161.880627
v -14936.488880 12114.749875 163.407245
v -14810.854675 12112.373934 158.748909
v -14810.854675 12098.029823 158.468750
v -14825.475285 12112.650432 159.268315
v -14870.117924 12113.494695 161.025360
v -14744.188009 12111.113161 156.380533
v -14744.188009 12098.029823 156.125000
v -14757.523544 12111.365358 156.854287
v -14803.746968 12112.239516 158.496403
v -14677.521342 12109.852389 154.012160
v -14677.521342 12098.029823 153.781250
v -14689.571802 12110.080283 154.440260
v -14737.376011 12110.984336 156.138534
v -14610.854675 12108.591617 151.643785
v -14610.854675 12098.029823 151.437500
v -14621.620060 12108.795208 152.026232
v -14671.005055 12109.729156 153.780664
v -14544.188009 12107.330845 149.275410
v -14544.188009 12098.029823 149.093750
v -14553.668319 12107.510133 149.612204
v -14604.634099 12108.473976 151.422795
v -14477.521342 12106.070073 146.678027
v -14477.521342 12098.029823 146.489584
v -14485.716577 12106.225058 146.969773
v -14538.263142 12107.218797 149.041782
v -14410.854675 12104.809301 144.304727
v -14410.854675 12098.029823 144.145834
v -14417.764836 12104.939983 144.550726
v -14471.892186 12105.963617 146.477632
v -14344.188009 12103.548529 141.931428
v -14344.188009 12098.029823 141.802083
v -14349.813094 12103.654908 142.131678
v -14405.521230 12104.708437 144.114860
v -14277.521342 12102.287757 139.558128
v -14277.521342 12098.029823 139.458334
v -14281.861353 12102.369834 139.712631
v -14339.150273 12103.453258 141.752087
v -14210.854675 12101.026985 137.184829
v -14210.854675 12098.029823 137.114583
v -14213.909611 12101.084759 137.293583
v -14272.779317 12102.198078 139.389315
v -14144.188009 12099.766213 135.065164
v -14144.188009 12098.029823 135.031250
v -14145.957870 12099.799684 135.128040
v -14206.408361 12100.942898 137.043911
v -14077.521342 12098.505441 132.698648
v -14077.521342 12098.029823 132.687500
v -14078.006128 12098.514609 132.714012
v -14140.037405 12099.687719 134.917711
v -14052.371759 12098.029823 131.803335
v -17744.188009 12031.363156 256.385417
v -17772.016481 12059.191629 260.733615
v -17767.399423 12080.026101 263.392482
v -17778.183457 12031.363156 257.049391
v -17677.521342 12031.363156 255.864583
v -17610.854675 12031.363156 257.947916
v -17544.188009 12031.363156 259.250000
v -17477.521342 12031.363156 261.072917
v -17410.854675 12031.363156 260.291667
v -17344.188009 12031.363156 257.687500
v -17277.521342 12031.363156 254.822917
v -17210.854675 12031.363156 251.958333
v -17144.188009 12031.363156 249.093750
v -17077.521342 12031.363156 246.229167
v -17010.854675 12031.363156 243.364583
v -16944.188009 12031.363156 240.500000
v -16877.521342 12031.363156 237.635417
v -16810.854675 12031.363156 234.770833
v -16744.188009 12031.363156 231.906250
v -16677.521342 12031.363156 229.041666
v -16610.854675 12031.363156 226.177084
v -16544.188009 12031.363156 223.572917
v -16477.521342 12031.363156 220.708333
v -16410.854675 12031.363156 217.843750
v -16344.188009 12031.363156 215.239584
v -16277.521342 12031.363156 212.635416
v -16210.854675 12031.363156 209.770834
v -16144.188009 12031.363156 207.166666
v -16077.521342 12031.363156 204.562500
v -16010.854675 12031.363156 201.958333
v -15944.188009 12031.363156 199.354167
v -15877.521342 12031.363156 196.750000
v -15810.854675 12031.363156 194.406250
v -15744.188009 12031.363156 191.802083
v -15677.521342 12031.363156 189.197917
v -15610.854675 12031.363156 186.854166
v -15544.188009 12031.363156 184.250000
v -15477.521342 12031.363156 181.906250
v -15410.854675 12031.363156 179.302084
v -15344.188009 12031.363156 176.958333
v -15277.521342 12031.363156 174.354166
v -15210.854675 12031.363156 172.010417
v -15144.188009 12031.363156 169.406250
v -15077.521342 12031.363156 167.062500
v -15010.854675 12031.363156 164.718750
v -14944.188009 12031.363156 162.114583
v -14877.521342 12031.363156 159.770834
v -14810.854675 12031.363156 157.427083
v -14744.188009 12031.363156 154.822917
v -14677.521342 12031.363156 152.479167
v -14610.854675 12031.363156 150.135416
v -14544.188009 12031.363156 147.531250
v -14477.521342 12031.363156 145.187500
v -14410.854675 12031.363156 142.843750
v -14344.188009 12031.363156 140.500000
v -14277.521342 12031.363156 138.156250
v -14210.854675 12031.363156 135.552083
v -14144.188009 12031.363156 133.208333
v -14077.521342 12031.363156 131.125000
v -14010.854675 12031.363156 128.781250
v -14010.854675 12097.244669 130.325348
v -13944.188009 12095.983897 127.952049
v -13944.188009 12031.363156 126.437500
v -14010.054387 12097.229534 130.296858
v -13877.521342 12094.723125 125.826249
v -13877.521342 12031.363156 124.093750
v -13942.102645 12095.944459 127.877810
v -13810.854675 12093.462353 123.708441
v -13810.854675 12031.363156 122.010417
v -13874.150904 12094.659385 125.719180
v -13874.553579 12094.667000 125.731972
v -13744.188009 12092.201581 121.330217
v -13744.188009 12031.363156 119.666667
v -13806.199162 12093.374310 123.542364
v -13808.182623 12093.411820 123.613120
v -13677.521342 12090.940809 119.212410
v -13677.521342 12031.363156 117.583333
v -13738.247421 12092.089235 121.141502
v -13741.811667 12092.156640 121.254728
v -13610.854675 12089.680037 117.322402
v -13610.854675 12031.363156 115.500000
v -13670.295679 12090.804160 118.982872
v -13675.440710 12090.901461 119.146314
v -13544.188009 12088.188334 115.192454
v -13544.188009 12031.363156 113.416666
v -13602.320267 12089.495415 117.049933
v -13609.069754 12089.646281 117.265569
v -13608.569853 12089.635934 117.249623
v -13477.521342 12031.363156 111.593750
v -13534.120148 12087.961962 114.910086
v -13479.928652 12086.743488 113.183284
v -13477.521342 12086.689360 113.106576
v -13410.854675 12085.190387 111.192517
v -13410.854675 12031.363156 109.510417
v -13465.920029 12086.428509 112.736902
v -13344.188009 12031.363156 107.687500
v -13397.719910 12084.895057 110.824135
v -13351.287450 12083.851042 109.521872
v -13344.188009 12083.691413 109.322758
v -13277.521342 12082.192440 107.452998
v -13277.521342 12031.363156 105.864584
v -13329.519790 12083.361604 108.911367
v -13210.854675 12031.363156 104.041666
v -13261.319671 12081.828152 106.998600
v -13222.646249 12080.958595 106.061621
v -13210.854675 12080.693466 105.775936
v -13144.188009 12031.363156 102.479167
v -13193.119552 12080.294699 105.346249
v -13158.325649 12079.512372 104.370406
v -13144.188009 12079.194493 103.973896
v -13077.521342 12077.695519 102.364553
v -13077.521342 12031.363156 100.916667
v -13124.919433 12078.761247 103.508750
v -13010.854675 12031.363156 99.354167
v -13056.719313 12077.227794 101.862389
v -13029.684447 12076.619926 101.312994
v -13010.854675 12076.196546 100.930341
v -12944.188009 12074.697572 99.315143
v -12944.188009 12031.363156 97.791667
v -12988.519194 12075.694341 100.389198
v -12877.521342 12031.363156 96.489583
v -12920.319075 12074.160889 98.830085
v -12901.043246 12073.727480 98.438366
v -12877.521342 12073.198599 97.960361
v -12810.854675 12031.363156 95.187500
v -12852.118956 12072.627436 97.444140
v -12836.722645 12072.281256 97.131261
v -12810.854675 12071.699625 96.605579
v -12744.188009 12070.200652 95.250797
v -12744.188009 12031.363156 93.885416
v -12783.918836 12071.093984 96.058197
v -12677.521342 12068.701678 94.041869
v -12677.521342 12031.363156 92.583334
v -12715.718717 12069.560531 94.672253
v -12610.854675 12031.363156 91.541667
v -12647.518598 12068.027079 93.546725
v -12643.760844 12067.942587 93.484709
v -12610.854675 12067.202705 92.941649
v -12544.188009 12065.703731 91.841428
v -12544.188009 12031.363156 90.500000
v -12579.318479 12066.493626 92.421197
v -12579.440243 12066.496364 92.423208
v -12477.521342 12064.204758 90.741209
v -12477.521342 12031.363156 89.458334
v -12511.118360 12064.960174 91.295670
v -12515.119642 12065.050141 91.361705
v -12410.854675 12062.705784 89.763420
v -12410.854675 12031.363156 88.416667
v -12442.918240 12063.426721 90.170143
v -12450.799042 12063.603918 90.300202
v -12344.188009 12061.206811 88.801184
v -12344.188009 12031.363156 87.635417
v -12374.718121 12061.893268 89.305032
v -12386.478441 12062.157695 89.454211
v -12277.521342 12059.707837 87.961381
v -12277.521342 12031.363156 86.854166
v -12306.518002 12060.359816 88.326654
v -12322.157840 12060.711471 88.523669
v -12210.854675 12058.208864 87.226443
v -12210.854675 12031.363156 86.072917
v -12238.317883 12058.826363 87.467532
v -12257.837240 12059.265248 87.713419
v -12144.188009 12056.709890 86.542190
v -12144.188009 12031.363156 85.552083
v -12170.117763 12057.292911 86.868829
v -12193.516639 12057.819025 87.074239
v -12077.521342 12055.210917 85.795542
v -12077.521342 12031.363156 84.770833
v -12101.917644 12055.759458 86.009708
v -12129.196038 12056.372802 86.353335
v -12010.854675 12053.711943 85.210299
v -12010.854675 12031.363156 84.250000
v -12033.717525 12054.226006 85.411004
v -12064.875438 12054.926579 85.684528
v -11944.188009 12052.096075 84.620034
v -11944.188009 12031.363156 83.729167
v -11965.443032 12052.618179 84.808524
v -12000.554837 12053.480356 85.119881
v -12000.263992 12053.473514 85.117315
v -11877.521342 12050.458489 84.289252
v -11877.521342 12031.363156 83.468750
v -11897.097540 12050.939354 84.386384
v -11933.697594 12051.838391 84.567984
v -11810.854675 12048.820902 83.698054
v -11810.854675 12031.363156 82.947917
v -11828.752049 12049.260530 83.856768
v -11867.131197 12050.203267 84.197113
v -11744.188009 12047.183316 83.367272
v -11744.188009 12031.363156 82.687500
v -11760.406558 12047.581705 83.447744
v -11800.564799 12048.568144 83.646999
v -11677.521342 12045.545730 83.036490
v -11677.521342 12031.363156 82.427083
v -11692.061067 12045.902881 83.108633
v -11733.998401 12046.933021 83.316714
v -11610.854675 12043.908144 82.705709
v -11610.854675 12031.363156 82.166666
v -11623.715575 12044.224056 82.769522
v -11667.432004 12045.297897 82.986430
v -11544.188009 12042.270557 82.417535
v -11544.188009 12031.363156 81.906250
v -11555.370084 12042.545232 82.430410
v -11600.865606 12043.662774 82.656146
v -11477.521342 12040.632971 82.304562
v -11477.521342 12031.363156 81.906250
v -11487.024593 12040.866407 82.351714
v -11534.299208 12042.027651 82.406148
v -17744.188009 11964.696489 254.822917
v -17773.441411 11993.949891 256.079899
v -17779.218028 12026.694657 256.960178
v -17764.500727 11964.696489 255.457689
v -17769.727935 11972.900044 255.717175
v -17677.521342 11964.696489 252.739584
v -17610.854675 11964.696489 253.260416
v -17544.188009 11964.696489 255.604166
v -17477.521342 11964.696489 257.947917
v -17410.854675 11964.696489 258.729166
v -17344.188009 11964.696489 256.645833
v -17277.521342 11964.696489 253.781250
v -17210.854675 11964.696489 250.916667
v -17144.188009 11964.696489 248.052084
v -17077.521342 11964.696489 245.187500
v -17010.854675 11964.696489 242.322917
v -16944.188009 11964.696489 239.458333
v -16877.521342 11964.696489 236.593750
v -16810.854675 11964.696489 233.729167
v -16744.188009 11964.696489 230.864583
v -16677.521342 11964.696489 228.000000
v -16610.854675 11964.696489 225.395834
v -16544.188009 11964.696489 222.531250
v -16477.521342 11964.696489 219.666666
v -16410.854675 11964.696489 217.062500
v -16344.188009 11964.696489 214.458334
v -16277.521342 11964.696489 211.593750
v -16210.854675 11964.696489 208.989583
v -16144.188009 11964.696489 206.385416
v -16077.521342 11964.696489 203.781250
v -16010.854675 11964.696489 201.177084
v -15944.188009 11964.696489 198.572917
v -15877.521342 11964.696489 195.968750
v -15810.854675 11964.696489 193.364583
v -15744.188009 11964.696489 190.760416
v -15677.521342 11964.696489 188.416667
v -15610.854675 11964.696489 185.812500
v -15544.188009 11964.696489 183.208333
v -15477.521342 11964.696489 180.864583
v -15410.854675 11964.696489 178.260416
v -15344.188009 11964.696489 175.916667
v -15277.521342 11964.696489 173.312500
v -15210.854675 11964.696489 170.968750
v -15144.188009 11964.696489 168.364584
v -15077.521342 11964.696489 166.020834
v -15010.854675 11964.696489 163.416667
v -14944.188009 11964.696489 161.072916
v -14877.521342 11964.696489 158.468750
v -14810.854675 11964.696489 156.125000
v -14744.188009 11964.696489 153.520833
v -14677.521342 11964.696489 151.177083
v -14610.854675 11964.696489 148.572916
v -14544.188009 11964.696489 146.229167
v -14477.521342 11964.696489 143.625000
v -14410.854675 11964.696489 141.281250
v -14344.188009 11964.696489 138.937500
v -14277.521342 11964.696489 136.333334
v -14210.854675 11964.696489 133.989584
v -14144.188009 11964.696489 131.645833
v -14077.521342 11964.696489 129.302084
v -14010.854675 11964.696489 126.958333
v -13944.188009 11964.696489 124.614583
v -13877.521342 11964.696489 122.270834
v -13810.854675 11964.696489 120.187500
v -13744.188009 11964.696489 117.843750
v -13677.521342 11964.696489 115.760416
v -13610.854675 11964.696489 113.677083
v -13544.188009 11964.696489 111.593750
v -13477.521342 11964.696489 109.510416
v -13410.854675 11964.696489 107.427083
v -13344.188009 11964.696489 105.604166
v -13277.521342 11964.696489 103.781250
v -13210.854675 11964.696489 101.958333
v -13144.188009 11964.696489 100.135416
v -13077.521342 11964.696489 98.572917
v -13010.854675 11964.696489 97.010417
v -12944.188009 11964.696489 95.447917
v -12877.521342 11964.696489 93.885416
v -12810.854675 11964.696489 92.583334
v -12744.188009 11964.696489 91.281250
v -12677.521342 11964.696489 89.979166
v -12610.854675 11964.696489 88.937500
v -12544.188009 11964.696489 87.895833
v -12477.521342 11964.696489 86.854167
v -12410.854675 11964.696489 85.812500
v -12344.188009 11964.696489 85.031250
v -12277.521342 11964.696489 84.250000
v -12210.854675 11964.696489 83.468750
v -12144.188009 11964.696489 82.687500
v -12077.521342 11964.696489 82.166667
v -12010.854675 11964.696489 81.385417
v -11944.188009 11964.696489 80.864583
v -11877.521342 11964.696489 80.604166
v -11810.854675 11964.696489 80.083333
v -11744.188009 11964.696489 79.822916
v -11677.521342 11964.696489 79.562500
v -11610.854675 11964.696489 79.302083
v -11544.188009 11964.696489 79.041667
v -11477.521342 11964.696489 78.781250
v -17744.188009 11932.817807 257.437965
v -17677.521342 11898.029823 257.427083
v -17699.232808 11898.029823 258.359998
v -17740.373925 11926.832002 257.765101
v -17610.854675 11898.029823 257.166667
v -17544.188009 11898.029823 257.166666
v -17477.521342 11898.029823 258.208333
v -17410.854675 11898.029823 257.947917
v -17344.188009 11898.029823 255.864583
v -17277.521342 11898.029823 253.260417
v -17210.854675 11898.029823 250.135416
v -17144.188009 11898.029823 246.750000
v -17077.521342 11898.029823 243.364584
v -17010.854675 11898.029823 240.500000
v -16944.188009 11898.029823 237.895834
v -16877.521342 11898.029823 235.291667
v -16810.854675 11898.029823 232.427083
v -16744.188009 11898.029823 229.822917
v -16677.521342 11898.029823 227.218750
v -16610.854675 11898.029823 224.354166
v -16544.188009 11898.029823 221.750000
v -16477.521342 11898.029823 218.885417
v -16410.854675 11898.029823 216.281250
v -16344.188009 11898.029823 213.937500
v -16277.521342 11898.029823 211.072917
v -16210.854675 11898.029823 208.468750
v -16144.188009 11898.029823 205.604166
v -16077.521342 11898.029823 203.000000
v -16010.854675 11898.029823 200.656250
v -15944.188009 11898.029823 198.052084
v -15877.521342 11898.029823 195.447917
v -15810.854675 11898.029823 192.843750
v -15744.188009 11898.029823 190.500000
v -15677.521342 11898.029823 187.895834
v -15610.854675 11898.029823 185.552084
v -15544.188009 11898.029823 182.947917
v -15477.521342 11898.029823 180.343750
v -15410.854675 11898.029823 177.739584
v -15344.188009 11898.029823 175.135417
v -15277.521342 11898.029823 172.791667
v -15210.854675 11898.029823 170.447917
v -15144.188009 11898.029823 167.843750
v -15077.521342 11898.029823 165.239584
v -15010.854675 11898.029823 162.895834
v -14944.188009 11898.029823 160.291667
v -14877.521342 11898.029823 157.687500
v -14810.854675 11898.029823 155.343750
v -14744.188009 11898.029823 152.739583
v -14677.521342 11898.029823 150.135417
v -14610.854675 11898.029823 147.791666
v -14544.188009 11898.029823 145.187500
v -14477.521342 11898.029823 142.843750
v -14410.854675 11898.029823 140.239583
v -14344.188009 11898.029823 137.895833
v -14277.521342 11898.029823 135.291667
v -14210.854675 11898.029823 132.947917
v -14144.188009 11898.029823 130.343750
v -14077.521342 11898.029823 128.000000
v -14010.854675 11898.029823 125.656250
v -13944.188009 11898.029823 123.312500
v -13877.521342 11898.029823 120.968750
v -13810.854675 11898.029823 118.625000
v -13744.188009 11898.029823 116.281250
v -13677.521342 11898.029823 113.937500
v -13610.854675 11898.029823 111.854167
v -13544.188009 11898.029823 109.770834
v -13477.521342 11898.029823 107.687500
v -13410.854675 11898.029823 105.604166
v -13344.188009 11898.029823 103.781250
v -13277.521342 11898.029823 101.697916
v -13210.854675 11898.029823 99.875000
v -13144.188009 11898.029823 98.052083
v -13077.521342 11898.029823 96.489584
v -13010.854675 11898.029823 94.666666
v -12944.188009 11898.029823 93.104166
v -12877.521342 11898.029823 91.802083
v -12810.854675 11898.029823 90.239584
v -12744.188009 11898.029823 88.937500
v -12677.521342 11898.029823 87.635417
v -12610.854675 11898.029823 86.333333
v -12544.188009 11898.029823 85.291667
v -12477.521342 11898.029823 84.250000
v -12410.854675 11898.029823 83.208334
v -12344.188009 11898.029823 82.427083
v -12277.521342 11898.029823 81.385416
v -12210.854675 11898.029823 80.604167
v -12144.188009 11898.029823 80.083334
v -12077.521342 11898.029823 79.302084
v -12010.854675 11898.029823 78.781250
v -11944.188009 11898.029823 78.260417
v -11877.521342 11898.029823 77.739583
v -11810.854675 11898.029823 77.218750
v -11744.188009 11898.029823 76.958333
v -11677.521342 11898.029823 76.697916
v -11610.854675 11898.029823 76.437500
v -11544.188009 11898.029823 76.177083
v -11477.521342 11898.029823 75.916667
v -17677.521342 11891.492110 258.116608
v -17695.624880 11895.503975 258.471368
v -17610.854675 11883.002011 258.458119
v -17642.293436 11883.685370 258.522201
v -17669.122358 11889.630839 258.116062
v -17544.188009 11881.552932 258.260836
v -17576.877059 11882.263467 258.213651
v -17595.492959 11882.668106 258.186781
v -17477.521342 11880.103853 258.838543
v -17511.460683 11880.841565 258.282306
v -17527.345016 11881.186830 258.021975
v -17410.854675 11878.654774 258.250652
v -17459.197072 11879.705553 258.423070
v -17344.188009 11877.205694 256.027271
v -17380.627930 11877.997759 257.159831
v -17391.049129 11878.224277 257.483724
v -17277.521342 11875.756615 253.434426
v -17315.211553 11876.575857 254.900300
v -17322.901186 11876.743000 255.199371
v -17210.854675 11874.307536 250.042752
v -17249.795177 11875.153954 251.871394
v -17254.753243 11875.261723 252.104224
v -17144.188009 11872.858457 246.160046
v -17184.378800 11873.732051 248.221460
v -17186.605300 11873.780447 248.335658
v -17077.521342 11871.645825 242.643146
v -17118.156224 11872.294947 244.724385
v -17118.458839 11872.300653 244.739908
v -17118.962424 11872.310149 244.767671
v -17010.854675 11870.580856 239.534998
v -17050.709030 11871.217511 241.269872
v -17052.493558 11871.246018 241.361271
v -16944.188009 11869.515888 236.893390
v -16982.960106 11870.135254 238.429700
v -16986.830892 11870.197088 238.583076
v -16877.521342 11868.450919 234.367326
v -16915.211183 11869.052997 235.858400
v -16810.854675 11867.385951 231.708868
v -16847.462259 11867.970740 233.295556
v -16744.188009 11866.320983 229.203604
v -16779.713336 11866.888483 230.602396
v -16677.521342 11865.256014 226.578636
v -16711.964412 11865.806226 227.934815
v -16724.180227 11866.001368 228.415807
v -16610.854675 11864.191046 223.957619
v -16644.215489 11864.723969 225.397336
v -16544.188009 11863.126078 221.204629
v -16576.466565 11863.641712 222.473567
v -16477.521342 11862.061109 218.604411
v -16508.717641 11862.559455 219.948771
v -16527.192228 11862.854578 220.602879
v -16410.854675 11860.996141 215.991925
v -16440.968718 11861.477198 217.172012
v -16344.188009 11859.931173 213.639854
v -16373.219794 11860.394942 214.664126
v -16277.521342 11858.866204 210.766951
v -16305.470871 11859.312685 211.971396
v -16210.854675 11857.801236 208.154464
v -16237.721947 11858.230428 209.207320
v -16144.188009 11856.736268 205.442864
v -16169.973024 11857.148171 206.552422
v -16198.878896 11857.609928 207.685166
v -16077.521342 11855.671299 202.834537
v -16102.224100 11856.065914 203.801030
v -16010.854675 11854.606331 200.317004
v -16034.475176 11854.983657 201.150360
v -16067.553564 11855.512069 202.444549
v -15944.188009 11853.541362 197.878300
v -15966.726253 11853.901400 198.760107
v -15877.521342 11852.476394 195.447917
v -15898.977329 11852.819143 196.286041
v -15936.228231 11853.414209 197.597968
v -15810.854675 11851.235448 192.843750
v -15831.110028 11851.618509 193.634975
v -15870.771070 11852.368562 195.184234
v -15744.188009 11849.974676 190.500000
v -15763.158287 11850.333434 191.166924
v -15804.605608 11851.117268 192.624057
v -15677.521342 11848.713904 188.088473
v -15695.206545 11849.048359 188.777995
v -15610.854675 11847.453132 185.749648
v -15627.254804 11847.763284 186.325004
v -15671.863696 11848.606909 187.889990
v -15544.188009 11846.192360 183.352897
v -15559.303062 11846.478209 183.941096
v -15477.521342 11844.931588 180.758580
v -15491.351320 11845.193134 181.296771
v -15539.121783 11846.096549 183.155746
v -15410.854675 11843.670816 177.951923
v -15423.399579 11843.908060 178.441031
v -15344.188009 11842.410044 175.135416
v -15355.447837 11842.622985 175.575254
v -15406.379871 11843.586190 177.759977
v -15277.521342 11841.149272 172.791666
v -15287.496096 11841.337910 173.142342
v -15340.008914 11842.331010 174.988495
v -15210.854675 11839.888500 170.447916
v -15219.544354 11840.052835 170.753413
v -15144.188009 11838.627727 167.843750
v -15151.592613 11838.767760 168.132992
v -15207.267002 11839.820651 170.307774
v -15077.521342 11837.366955 165.239583
v -15083.640871 11837.482685 165.478628
v -15010.854675 11836.106183 162.895833
v -15015.689130 11836.197611 163.065795
v -14944.188009 11834.845411 160.291666
v -14947.737388 11834.912536 160.430315
v -14877.521342 11833.584639 157.687500
v -14879.785647 11833.627461 157.775949
v -14810.854675 11832.323867 155.087086
v -14811.833905 11832.342386 155.121585
v -14875.412220 11833.544752 157.605113
v -14744.188009 11831.363156 152.479167
v -14760.054516 11831.363156 153.098952
v -14809.041264 11832.289573 155.016116
v -14677.521342 11831.363156 149.875000
v -14610.854675 11831.363156 147.270833
v -14544.188009 11831.363156 144.927083
v -14477.521342 11831.363156 142.583333
v -14410.854675 11831.363156 139.979167
v -14344.188009 11831.363156 137.114583
v -14277.521342 11831.363156 134.510417
v -14210.854675 11831.363156 131.906250
v -14144.188009 11831.363156 129.562500
v -14077.521342 11831.363156 127.218750
v -14010.854675 11831.363156 124.614584
v -13944.188009 11831.363156 122.270833
v -13877.521342 11831.363156 119.927083
v -13810.854675 11831.363156 117.583333
v -13744.188009 11831.363156 115.239583
v -13677.521342 11831.363156 112.895833
v -13610.854675 11831.363156 110.552083
v -13544.188009 11831.363156 108.468750
v -13477.521342 11831.363156 106.385417
v -13410.854675 11831.363156 104.562500
v -13344.188009 11831.363156 102.479166
v -13277.521342 11831.363156 100.656250
v -13210.854675 11831.363156 98.833334
v -13144.188009 11831.363156 96.750000
v -13077.521342 11831.363156 94.927084
v -13010.854675 11831.363156 93.364583
v -12944.188009 11831.363156 91.541667
v -12877.521342 11831.363156 89.979167
v -12810.854675 11831.363156 88.677083
v -12744.188009 11831.363156 87.114583
v -12677.521342 11831.363156 85.552083
v -12610.854675 11831.363156 84.510416
v -12544.188009 11831.363156 83.208333
v -12477.521342 11831.363156 81.906250
v -12410.854675 11831.363156 80.864584
v -12344.188009 11831.363156 79.822916
v -12277.521342 11831.363156 79.041667
v -12210.854675 11831.363156 78.260417
v -12144.188009 11831.363156 77.479166
v -12077.521342 11831.363156 76.697917
v -12010.854675 11831.363156 76.177083
v -11944.188009 11831.363156 75.656250
v -11877.521342 11831.363156 75.135417
v -11810.854675 11831.363156 74.875000
v -11744.188009 11831.363156 74.354167
v -11677.521342 11831.363156 74.093750
v -11610.854675 11831.363156 73.833334
v -11544.188009 11831.363156 73.572917
v -11477.521342 11831.363156 73.312500
v -14744.188009 11831.063095 152.480338
v -14677.521342 11829.802323 149.881097
v -14742.670307 11831.034393 152.421166
v -14743.882164 11831.057311 152.468414
v -14610.854675 11828.541551 147.281856
v -14675.930422 11829.772236 149.819069
v -14544.188009 11827.280779 144.943030
v -14607.978681 11828.487162 147.180958
v -14609.928395 11828.524034 147.249359
v -14477.521342 11826.020007 142.583333
v -14540.026939 11827.202087 144.780796
v -14410.854675 11824.759235 139.953370
v -14472.075198 11825.917012 142.349319
v -14344.188009 11823.498463 137.053140
v -14344.444569 11823.503315 137.064202
v -14404.123456 11824.631937 139.637347
v -14410.815526 11824.758495 139.951532
v -14277.521342 11822.237691 134.403477
v -14278.073613 11822.248135 134.425173
v -14336.171715 11823.346862 136.707506
v -14210.854675 11820.976919 131.825107
v -14211.702657 11820.992956 131.858357
v -14268.219973 11822.061787 134.074415
v -14144.188009 11819.716147 129.426012
v -14145.331700 11819.737776 129.466473
v -14200.268232 11820.776712 131.410011
v -14077.521342 11818.455375 126.966645
v -14078.960744 11818.482596 127.017781
v -14132.316490 11819.491638 128.913276
v -14010.854675 11817.194603 124.393200
v -14012.589788 11817.227416 124.461490
v -14064.364749 11818.206563 126.499249
v -13944.188009 11815.933831 122.090021
v -13946.218831 11815.972237 122.161867
v -13996.413007 11816.921488 123.937630
v -13877.521342 11814.673059 119.731497
v -13879.847875 11814.717057 119.813804
v -13928.461266 11815.636413 121.533643
v -13810.854675 11813.412287 117.372972
v -13813.476919 11813.461877 117.465741
v -13860.509524 11814.351338 119.129655
v -13744.188009 11812.151515 115.014447
v -13747.105962 11812.206698 115.117678
v -13792.557783 11813.066263 116.725666
v -13677.521342 11810.890742 112.575952
v -13680.735006 11810.951518 112.689882
v -13724.606041 11811.781189 114.245187
v -13610.854675 11809.616538 110.212293
v -13614.614010 11809.701065 110.345777
v -13656.654300 11810.496114 111.836179
v -13544.188009 11808.117565 108.014735
v -13550.543350 11808.260462 108.216130
v -13588.607847 11809.116327 109.422362
v -13477.521342 11806.618591 105.998783
v -13486.222750 11806.814239 106.273759
v -13520.407727 11807.582875 107.354049
v -13410.854675 11805.119618 104.254958
v -13421.902149 11805.368016 104.559949
v -13452.207608 11806.049422 105.396599
v -13344.188009 11803.620644 102.262429
v -13357.581548 11803.921793 102.683329
v -13384.007489 11804.515969 103.513782
v -13277.521342 11802.121671 100.427801
v -13293.260948 11802.475570 100.860946
v -13315.807370 11802.982517 101.481410
v -13210.854675 11800.622697 98.593173
v -13228.940347 11801.029346 99.090880
v -13247.607250 11801.449064 99.604583
v -13144.188009 11799.123724 96.624065
v -13164.619746 11799.583123 97.264351
v -13179.407131 11799.915612 97.727755
v -13077.521342 11797.624750 94.663502
v -13100.299146 11798.136900 95.290334
v -13111.207012 11798.382159 95.590512
v -13010.854675 11796.125777 93.089291
v -13035.978545 11796.690677 93.682545
v -13043.006893 11796.848707 93.848507
v -12944.188009 11794.626803 91.254664
v -12971.657945 11795.244454 92.010620
v -12974.806773 11795.315254 92.097275
v -12877.521342 11793.127830 89.381740
v -12906.606654 11793.781802 90.073645
v -12907.337344 11793.798231 90.096608
v -12810.854675 11791.628856 87.901022
v -12838.406535 11792.248349 88.451244
v -12744.188009 11790.129883 86.309246
v -12770.206416 11790.714896 86.930479
v -12778.696143 11790.905785 87.133185
v -12677.521342 11788.630909 84.884392
v -12702.006297 11789.181444 85.466860
v -12714.375542 11789.459561 85.713879
v -12610.854675 11787.131936 83.473748
v -12633.806177 11787.647991 83.844460
v -12544.188009 11785.632962 81.957898
v -12565.606058 11786.114539 82.389388
v -12477.521342 11784.133989 80.614827
v -12497.405939 11784.581086 81.015424
v -12410.854675 11782.635015 79.341829
v -12429.205820 11783.047634 79.641460
v -12457.093139 11783.674669 80.203279
v -12344.188009 11781.136042 78.253319
v -12361.005700 11781.514181 78.527913
v -12392.772539 11782.228446 79.046590
v -12277.521342 11779.637068 77.425226
v -12292.805581 11779.980728 77.615078
v -12210.854675 11778.138095 76.597134
v -12224.605462 11778.447276 76.767937
v -12264.131338 11779.335999 77.258903
v -12144.188009 11776.639121 75.769041
v -12156.405343 11776.913823 75.920797
v -12077.521342 11775.140148 75.160568
v -12088.205223 11775.380371 75.292339
v -12135.490136 11776.443553 75.694977
v -12010.854675 11773.641174 74.598748
v -12020.005104 11773.846918 74.675862
v -11944.188009 11772.011614 74.033356
v -11951.687346 11772.195827 74.096982
v -12006.994361 11773.554377 74.566216
v -11877.521342 11770.374028 73.705984
v -11883.341855 11770.517002 73.754808
v -11940.573383 11771.922826 74.016809
v -11810.854675 11768.736442 73.162551
v -11814.996364 11768.838178 73.181511
v -11874.006985 11770.287702 73.676505
v -11744.188009 11767.098856 72.847972
v -11746.650872 11767.159353 72.868631
v -11677.521342 11765.461269 72.291745
v -11678.305381 11765.480528 72.295335
v -11610.854675 11764.696489 72.010417
v -11646.386895 11764.696489 72.149214
v -11674.307792 11765.382332 72.277034
v -11544.188009 11764.696489 71.750000
v -11477.521342 11764.696489 71.229167
v -11610.854675 11763.823683 71.986550
v -11544.188009 11762.186097 71.681357
v -11607.741394 11763.747209 71.972299
v -11609.959890 11763.801704 71.982455
v -11477.521342 11760.548511 71.131949
v -11541.174997 11762.112086 71.665889
v -11541.614399 11762.122879 71.669574
vt -88.720940 -60.565907
vt -88.720940 -60.490149
vt -88.752137 -60.521346
vt -88.773977 -60.490149
vt -88.387607 -60.781656
vt -88.387607 -60.490149
vt -88.583225 -60.685767
vt -88.450017 -60.770646
vt -88.680357 -60.623876
vt -88.054273 -60.815341
vt -88.054273 -60.490149
vt -88.352052 -60.787928
vt -88.181044 -60.818096
vt -87.720940 -60.808095
vt -87.720940 -60.490149
vt -88.045951 -60.815160
vt -87.387607 -60.490149
vt -87.705211 -60.807753
vt -87.526880 -60.803877
vt -87.387607 -60.800850
vt -87.054273 -60.793605
vt -87.054273 -60.490149
vt -87.364471 -60.800347
vt -86.720940 -60.490149
vt -87.023732 -60.792941
vt -86.872716 -60.789658
vt -86.720940 -60.786359
vt -86.387607 -60.779114
vt -86.387607 -60.490149
vt -86.682992 -60.785534
vt -86.054273 -60.771868
vt -86.054273 -60.490149
vt -86.342252 -60.778128
vt -85.720940 -60.490149
vt -86.001512 -60.770722
vt -85.891471 -60.768330
vt -85.720940 -60.764623
vt -85.387607 -60.490149
vt -85.660773 -60.763315
vt -85.566404 -60.761264
vt -85.387607 -60.758408
vt -85.054273 -60.490149
vt -85.321476 -60.757351
vt -85.240106 -60.756051
vt -85.054273 -60.753083
vt -84.720940 -60.747758
vt -84.720940 -60.490149
vt -84.982731 -60.751940
vt -84.387607 -60.490149
vt -84.643986 -60.746529
vt -84.583480 -60.745562
vt -84.387607 -60.742433
vt -84.054273 -60.737108
vt -84.054273 -60.490149
vt -84.305242 -60.741117
vt -83.720940 -60.490149
vt -83.966497 -60.735706
vt -83.926853 -60.735073
vt -83.720940 -60.731784
vt -83.387607 -60.726459
vt -83.387607 -60.490149
vt -83.627753 -60.730295
vt -83.054273 -60.721134
vt -83.054273 -60.490149
vt -83.289008 -60.724884
vt -82.720940 -60.715809
vt -82.720940 -60.490149
vt -82.950263 -60.719472
vt -82.387607 -60.710484
vt -82.387607 -60.490149
vt -82.611519 -60.714061
vt -82.613600 -60.714094
vt -82.054273 -60.705159
vt -82.054273 -60.490149
vt -82.272774 -60.708650
vt -82.285286 -60.708850
vt -81.720940 -60.699834
vt -81.720940 -60.490149
vt -81.934029 -60.703238
vt -81.956973 -60.703605
vt -81.387607 -60.694510
vt -81.387607 -60.490149
vt -81.595285 -60.697827
vt -81.628660 -60.698360
vt -81.054273 -60.689185
vt -81.054273 -60.490149
vt -81.256540 -60.692416
vt -81.300346 -60.693116
vt -80.720940 -60.683860
vt -80.720940 -60.490149
vt -80.917796 -60.687005
vt -80.972033 -60.687871
vt -80.387607 -60.678535
vt -80.387607 -60.490149
vt -80.579051 -60.681593
vt -80.643720 -60.682626
vt -80.054273 -60.673210
vt -80.054273 -60.490149
vt -80.240306 -60.676182
vt -80.315406 -60.677382
vt -79.720940 -60.667885
vt -79.720940 -60.490149
vt -79.901562 -60.670771
vt -79.987093 -60.672137
vt -79.387607 -60.662561
vt -79.387607 -60.490149
vt -79.562817 -60.665359
vt -79.658780 -60.666892
vt -79.054273 -60.656428
vt -79.054273 -60.490149
vt -79.223757 -60.659633
vt -79.330466 -60.661648
vt -79.328411 -60.661612
vt -78.720940 -60.650124
vt -78.720940 -60.490149
vt -78.883998 -60.653207
vt -78.996557 -60.655336
vt -78.387607 -60.643820
vt -78.387607 -60.490149
vt -78.544240 -60.646782
vt -78.664702 -60.649060
vt -78.054273 -60.637516
vt -78.054273 -60.490149
vt -78.204481 -60.640357
vt -78.332847 -60.642784
vt -77.720940 -60.631212
vt -77.720940 -60.490149
vt -77.864722 -60.633931
vt -78.000992 -60.636508
vt -77.387607 -60.624908
vt -77.387607 -60.490149
vt -77.524964 -60.627506
vt -77.669137 -60.630232
vt -77.054273 -60.618604
vt -77.054273 -60.490149
vt -77.185205 -60.621081
vt -77.337283 -60.623957
vt -76.720940 -60.612301
vt -76.720940 -60.490149
vt -76.845446 -60.614655
vt -77.005428 -60.617681
vt -76.387607 -60.605997
vt -76.387607 -60.490149
vt -76.505687 -60.608230
vt -76.673573 -60.611405
vt -76.054273 -60.599693
vt -76.054273 -60.490149
vt -76.165929 -60.601804
vt -76.341718 -60.605129
vt -75.720940 -60.593389
vt -75.720940 -60.490149
vt -75.826170 -60.595379
vt -76.009864 -60.598853
vt -75.387607 -60.587085
vt -75.387607 -60.490149
vt -75.486411 -60.588954
vt -75.678009 -60.592577
vt -75.054273 -60.580781
vt -75.054273 -60.490149
vt -75.146653 -60.582528
vt -75.346154 -60.586301
vt -74.720940 -60.574477
vt -74.720940 -60.490149
vt -74.806894 -60.576103
vt -75.014299 -60.580025
vt -74.387607 -60.568174
vt -74.387607 -60.490149
vt -74.467135 -60.569678
vt -74.682444 -60.573749
vt -74.054273 -60.561870
vt -74.054273 -60.490149
vt -74.127376 -60.563252
vt -74.350590 -60.567473
vt -73.720940 -60.555566
vt -73.720940 -60.490149
vt -73.787618 -60.556827
vt -74.018735 -60.561198
vt -73.387607 -60.549262
vt -73.387607 -60.490149
vt -73.447859 -60.550401
vt -73.686880 -60.554922
vt -73.054273 -60.542958
vt -73.054273 -60.490149
vt -73.108100 -60.543976
vt -73.355025 -60.548646
vt -72.720940 -60.536654
vt -72.720940 -60.490149
vt -72.768342 -60.537551
vt -73.023170 -60.542370
vt -72.387607 -60.530350
vt -72.387607 -60.490149
vt -72.428583 -60.531125
vt -72.691316 -60.536094
vt -72.054273 -60.524047
vt -72.054273 -60.490149
vt -72.088824 -60.524700
vt -72.359461 -60.529818
vt -71.720940 -60.517743
vt -71.720940 -60.490149
vt -71.749065 -60.518275
vt -72.027606 -60.523542
vt -71.387607 -60.511439
vt -71.387607 -60.490149
vt -71.409307 -60.511849
vt -71.695751 -60.517266
vt -71.054273 -60.505135
vt -71.054273 -60.490149
vt -71.069548 -60.505424
vt -71.363897 -60.510990
vt -70.720940 -60.498831
vt -70.720940 -60.490149
vt -70.729789 -60.498998
vt -71.032042 -60.504714
vt -70.387607 -60.492527
vt -70.387607 -60.490149
vt -70.390031 -60.492573
vt -70.700187 -60.498439
vt -70.261859 -60.490149
vt -88.720940 -60.156816
vt -88.860082 -60.295958
vt -88.836997 -60.400131
vt -88.890917 -60.156816
vt -88.387607 -60.156816
vt -88.054273 -60.156816
vt -87.720940 -60.156816
vt -87.387607 -60.156816
vt -87.054273 -60.156816
vt -86.720940 -60.156816
vt -86.387607 -60.156816
vt -86.054273 -60.156816
vt -85.720940 -60.156816
vt -85.387607 -60.156816
vt -85.054273 -60.156816
vt -84.720940 -60.156816
vt -84.387607 -60.156816
vt -84.054273 -60.156816
vt -83.720940 -60.156816
vt -83.387607 -60.156816
vt -83.054273 -60.156816
vt -82.720940 -60.156816
vt -82.387607 -60.156816
vt -82.054273 -60.156816
vt -81.720940 -60.156816
vt -81.387607 -60.156816
vt -81.054273 -60.156816
vt -80.720940 -60.156816
vt -80.387607 -60.156816
vt -80.054273 -60.156816
vt -79.720940 -60.156816
vt -79.387607 -60.156816
vt -79.054273 -60.156816
vt -78.720940 -60.156816
vt -78.387607 -60.156816
vt -78.054273 -60.156816
vt -77.720940 -60.156816
vt -77.387607 -60.156816
vt -77.054273 -60.156816
vt -76.720940 -60.156816
vt -76.387607 -60.156816
vt -76.054273 -60.156816
vt -75.720940 -60.156816
vt -75.387607 -60.156816
vt -75.054273 -60.156816
vt -74.720940 -60.156816
vt -74.387607 -60.156816
vt -74.054273 -60.156816
vt -73.720940 -60.156816
vt -73.387607 -60.156816
vt -73.054273 -60.156816
vt -72.720940 -60.156816
vt -72.387607 -60.156816
vt -72.054273 -60.156816
vt -71.720940 -60.156816
vt -71.387607 -60.156816
vt -71.054273 -60.156816
vt -70.720940 -60.156816
vt -70.387607 -60.156816
vt -70.054273 -60.156816
vt -70.054273 -60.486223
vt -69.720940 -60.479919
vt -69.720940 -60.156816
vt -70.050272 -60.486148
vt -69.387607 -60.473616
vt -69.387607 -60.156816
vt -69.710513 -60.479722
vt -69.054273 -60.467312
vt -69.054273 -60.156816
vt -69.370755 -60.473297
vt -69.372768 -60.473335
vt -68.720940 -60.461008
vt -68.720940 -60.156816
vt -69.030996 -60.466872
vt -69.040913 -60.467059
vt -68.387607 -60.454704
vt -68.387607 -60.156816
vt -68.691237 -60.460446
vt -68.709058 -60.460783
vt -68.054273 -60.448400
vt -68.054273 -60.156816
vt -68.351478 -60.454021
vt -68.377204 -60.454507
vt -67.720940 -60.440942
vt -67.720940 -60.156816
vt -68.011601 -60.447477
vt -68.045349 -60.448231
vt -68.042849 -60.448180
vt -67.387607 -60.156816
vt -67.670601 -60.439810
vt -67.399643 -60.433717
vt -67.387607 -60.433447
vt -67.054273 -60.425952
vt -67.054273 -60.156816
vt -67.329600 -60.432143
vt -66.720940 -60.156816
vt -66.988600 -60.424475
vt -66.756437 -60.419255
vt -66.720940 -60.418457
vt -66.387607 -60.410962
vt -66.387607 -60.156816
vt -66.647599 -60.416808
vt -66.054273 -60.156816
vt -66.306598 -60.409141
vt -66.113231 -60.404793
vt -66.054273 -60.403467
vt -65.720940 -60.156816
vt -65.965598 -60.401473
vt -65.791628 -60.397562
vt -65.720940 -60.395972
vt -65.387607 -60.388478
vt -65.387607 -60.156816
vt -65.624597 -60.393806
vt -65.054273 -60.156816
vt -65.283597 -60.386139
vt -65.148422 -60.383100
vt -65.054273 -60.380983
vt -64.720940 -60.373488
vt -64.720940 -60.156816
vt -64.942596 -60.378472
vt -64.387607 -60.156816
vt -64.601595 -60.370804
vt -64.505216 -60.368637
vt -64.387607 -60.365993
vt -64.054273 -60.156816
vt -64.260595 -60.363137
vt -64.183613 -60.361406
vt -64.054273 -60.358498
vt -63.720940 -60.351003
vt -63.720940 -60.156816
vt -63.919594 -60.355470
vt -63.387607 -60.343508
vt -63.387607 -60.156816
vt -63.578594 -60.347803
vt -63.054273 -60.156816
vt -63.237593 -60.340135
vt -63.218804 -60.339713
vt -63.054273 -60.336014
vt -62.720940 -60.328519
vt -62.720940 -60.156816
vt -62.896592 -60.332468
vt -62.897201 -60.332482
vt -62.387607 -60.321024
vt -62.387607 -60.156816
vt -62.555592 -60.324801
vt -62.575598 -60.325251
vt -62.054273 -60.313529
vt -62.054273 -60.156816
vt -62.214591 -60.317134
vt -62.253995 -60.318020
vt -61.720940 -60.306034
vt -61.720940 -60.156816
vt -61.873591 -60.309466
vt -61.932392 -60.310788
vt -61.387607 -60.298539
vt -61.387607 -60.156816
vt -61.532590 -60.301799
vt -61.610789 -60.303557
vt -61.054273 -60.291044
vt -61.054273 -60.156816
vt -61.191589 -60.294132
vt -61.289186 -60.296326
vt -60.720940 -60.283549
vt -60.720940 -60.156816
vt -60.850589 -60.286465
vt -60.967583 -60.289095
vt -60.387607 -60.276055
vt -60.387607 -60.156816
vt -60.509588 -60.278797
vt -60.645980 -60.281864
vt -60.054273 -60.268560
vt -60.054273 -60.156816
vt -60.168588 -60.271130
vt -60.324377 -60.274633
vt -59.720940 -60.260480
vt -59.720940 -60.156816
vt -59.827215 -60.263091
vt -60.002774 -60.267402
vt -60.001320 -60.267368
vt -59.387607 -60.252292
vt -59.387607 -60.156816
vt -59.485488 -60.254697
vt -59.668488 -60.259192
vt -59.054273 -60.244105
vt -59.054273 -60.156816
vt -59.143760 -60.246303
vt -59.335656 -60.251016
vt -58.720940 -60.235917
vt -58.720940 -60.156816
vt -58.802033 -60.237909
vt -59.002824 -60.242841
vt -58.387607 -60.227729
vt -58.387607 -60.156816
vt -58.460305 -60.229514
vt -58.669992 -60.234665
vt -58.054273 -60.219541
vt -58.054273 -60.156816
vt -58.118578 -60.221120
vt -58.337160 -60.226489
vt -57.720940 -60.211353
vt -57.720940 -60.156816
vt -57.776850 -60.212726
vt -58.004328 -60.218314
vt -57.387607 -60.203165
vt -57.387607 -60.156816
vt -57.435123 -60.204332
vt -57.671496 -60.210138
vt -88.720940 -59.823482
vt -88.867207 -59.969749
vt -88.896090 -60.133473
vt -88.822504 -59.823482
vt -88.848640 -59.864500
vt -88.387607 -59.823482
vt -88.054273 -59.823482
vt -87.720940 -59.823482
vt -87.387607 -59.823482
vt -87.054273 -59.823482
vt -86.720940 -59.823482
vt -86.387607 -59.823482
vt -86.054273 -59.823482
vt -85.720940 -59.823482
vt -85.387607 -59.823482
vt -85.054273 -59.823482
vt -84.720940 -59.823482
vt -84.387607 -59.823482
vt -84.054273 -59.823482
vt -83.720940 -59.823482
vt -83.387607 -59.823482
vt -83.054273 -59.823482
vt -82.720940 -59.823482
vt -82.387607 -59.823482
vt -82.054273 -59.823482
vt -81.720940 -59.823482
vt -81.387607 -59.823482
vt -81.054273 -59.823482
vt -80.720940 -59.823482
vt -80.387607 -59.823482
vt -80.054273 -59.823482
vt -79.720940 -59.823482
vt -79.387607 -59.823482
vt -79.054273 -59.823482
vt -78.720940 -59.823482
vt -78.387607 -59.823482
vt -78.054273 -59.823482
vt -77.720940 -59.823482
vt -77.387607 -59.823482
vt -77.054273 -59.823482
vt -76.720940 -59.823482
vt -76.387607 -59.823482
vt -76.054273 -59.823482
vt -75.720940 -59.823482
vt -75.387607 -59.823482
vt -75.054273 -59.823482
vt -74.720940 -59.823482
vt -74.387607 -59.823482
vt -74.054273 -59.823482
vt -73.720940 -59.823482
vt -73.387607 -59.823482
vt -73.054273 -59.823482
vt -72.720940 -59.823482
vt -72.387607 -59.823482
vt -72.054273 -59.823482
vt -71.720940 -59.823482
vt -71.387607 -59.823482
vt -71.054273 -59.823482
vt -70.720940 -59.823482
vt -70.387607 -59.823482
vt -70.054273 -59.823482
vt -69.720940 -59.823482
vt -69.387607 -59.823482
vt -69.054273 -59.823482
vt -68.720940 -59.823482
vt -68.387607 -59.823482
vt -68.054273 -59.823482
vt -67.720940 -59.823482
vt -67.387607 -59.823482
vt -67.054273 -59.823482
vt -66.720940 -59.823482
vt -66.387607 -59.823482
vt -66.054273 -59.823482
vt -65.720940 -59.823482
vt -65.387607 -59.823482
vt -65.054273 -59.823482
vt -64.720940 -59.823482
vt -64.387607 -59.823482
vt -64.054273 -59.823482
vt -63.720940 -59.823482
vt -63.387607 -59.823482
vt -63.054273 -59.823482
vt -62.720940 -59.823482
vt -62.387607 -59.823482
vt -62.054273 -59.823482
vt -61.720940 -59.823482
vt -61.387607 -59.823482
vt -61.054273 -59.823482
vt -60.720940 -59.823482
vt -60.387607 -59.823482
vt -60.054273 -59.823482
vt -59.720940 -59.823482
vt -59.387607 -59.823482
vt -59.054273 -59.823482
vt -58.720940 -59.823482
vt -58.387607 -59.823482
vt -58.054273 -59.823482
vt -57.720940 -59.823482
vt -57.387607 -59.823482
vt -88.720940 -59.664089
vt -88.387607 -59.490149
vt -88.496164 -59.490149
vt -88.701870 -59.634160
vt -88.054273 -59.490149
vt -87.720940 -59.490149
vt -87.387607 -59.490149
vt -87.054273 -59.490149
vt -86.720940 -59.490149
vt -86.387607 -59.490149
vt -86.054273 -59.490149
vt -85.720940 -59.490149
vt -85.387607 -59.490149
vt -85.054273 -59.490149
vt -84.720940 -59.490149
vt -84.387607 -59.490149
vt -84.054273 -59.490149
vt -83.720940 -59.490149
vt -83.387607 -59.490149
vt -83.054273 -59.490149
vt -82.720940 -59.490149
vt -82.387607 -59.490149
vt -82.054273 -59.490149
vt -81.720940 -59.490149
vt -81.387607 -59.490149
vt -81.054273 -59.490149
vt -80.720940 -59.490149
vt -80.387607 -59.490149
vt -80.054273 -59.490149
vt -79.720940 -59.490149
vt -79.387607 -59.490149
vt -79.054273 -59.490149
vt -78.720940 -59.490149
vt -78.387607 -59.490149
vt -78.054273 -59.490149
vt -77.720940 -59.490149
vt -77.387607 -59.490149
vt -77.054273 -59.490149
vt -76.720940 -59.490149
vt -76.387607 -59.490149
vt -76.054273 -59.490149
vt -75.720940 -59.490149
vt -75.387607 -59.490149
vt -75.054273 -59.490149
vt -74.720940 -59.490149
vt -74.387607 -59.490149
vt -74.054273 -59.490149
vt -73.720940 -59.490149
vt -73.387607 -59.490149
vt -73.054273 -59.490149
vt -72.720940 -59.490149
vt -72.387607 -59.490149
vt -72.054273 -59.490149
vt -71.720940 -59.490149
vt -71.387607 -59.490149
vt -71.054273 -59.490149
vt -70.720940 -59.490149
vt -70.387607 -59.490149
vt -70.054273 -59.490149
vt -69.720940 -59.490149
vt -69.387607 -59.490149
vt -69.054273 -59.490149
vt -68.720940 -59.490149
vt -68.387607 -59.490149
vt -68.054273 -59.490149
vt -67.720940 -59.490149
vt -67.387607 -59.490149
vt -67.054273 -59.490149
vt -66.720940 -59.490149
vt -66.387607 -59.490149
vt -66.054273 -59.490149
vt -65.720940 -59.490149
vt -65.387607 -59.490149
vt -65.054273 -59.490149
vt -64.720940 -59.490149
vt -64.387607 -59.490149
vt -64.054273 -59.490149
vt -63.720940 -59.490149
vt -63.387607 -59.490149
vt -63.054273 -59.490149
vt -62.720940 -59.490149
vt -62.387607 -59.490149
vt -62.054273 -59.490149
vt -61.720940 -59.490149
vt -61.387607 -59.490149
vt -61.054273 -59.490149
vt -60.720940 -59.490149
vt -60.387607 -59.490149
vt -60.054273 -59.490149
vt -59.720940 -59.490149
vt -59.387607 -59.490149
vt -59.054273 -59.490149
vt -58.720940 -59.490149
vt -58.387607 -59.490149
vt -58.054273 -59.490149
vt -57.720940 -59.490149
vt -57.387607 -59.490149
vt -88.387607 -59.457461
vt -88.478124 -59.477520
vt -88.054273 -59.415010
vt -88.211467 -59.418427
vt -88.345612 -59.448154
vt -87.720940 -59.407765
vt -87.884385 -59.411317
vt -87.977465 -59.413341
vt -87.387607 -59.400519
vt -87.557303 -59.404208
vt -87.636725 -59.405934
vt -87.054273 -59.393274
vt -87.295985 -59.398528
vt -86.720940 -59.386028
vt -86.903140 -59.389989
vt -86.955246 -59.391121
vt -86.387607 -59.378783
vt -86.576058 -59.382879
vt -86.614506 -59.383715
vt -86.054273 -59.371538
vt -86.248976 -59.375770
vt -86.273766 -59.376309
vt -85.720940 -59.364292
vt -85.921894 -59.368660
vt -85.933026 -59.368902
vt -85.387607 -59.358229
vt -85.590781 -59.361475
vt -85.592294 -59.361503
vt -85.594812 -59.361551
vt -85.054273 -59.352904
vt -85.253545 -59.356088
vt -85.262468 -59.356230
vt -84.720940 -59.347579
vt -84.914801 -59.350676
vt -84.934154 -59.350985
vt -84.387607 -59.342255
vt -84.576056 -59.345265
vt -84.054273 -59.336930
vt -84.237311 -59.339854
vt -83.720940 -59.331605
vt -83.898567 -59.334442
vt -83.387607 -59.326280
vt -83.559822 -59.329031
vt -83.620901 -59.330007
vt -83.054273 -59.320955
vt -83.221077 -59.323620
vt -82.720940 -59.315630
vt -82.882333 -59.318209
vt -82.387607 -59.310306
vt -82.543588 -59.312797
vt -82.635961 -59.314273
vt -82.054273 -59.304981
vt -82.204844 -59.307386
vt -81.720940 -59.299656
vt -81.866099 -59.301975
vt -81.387607 -59.294331
vt -81.527354 -59.296563
vt -81.054273 -59.289006
vt -81.188610 -59.291152
vt -80.720940 -59.283681
vt -80.849865 -59.285741
vt -80.994394 -59.288050
vt -80.387607 -59.278356
vt -80.511121 -59.280330
vt -80.054273 -59.273032
vt -80.172376 -59.274918
vt -80.337768 -59.277560
vt -79.720940 -59.267707
vt -79.833631 -59.269507
vt -79.387607 -59.262382
vt -79.494887 -59.264096
vt -79.681141 -59.267071
vt -79.054273 -59.256177
vt -79.155550 -59.258093
vt -79.353855 -59.261843
vt -78.720940 -59.249873
vt -78.815791 -59.251667
vt -79.023028 -59.255586
vt -78.387607 -59.243570
vt -78.476033 -59.245242
vt -78.054273 -59.237266
vt -78.136274 -59.238816
vt -78.359318 -59.243035
vt -77.720940 -59.230962
vt -77.796515 -59.232391
vt -77.387607 -59.224658
vt -77.456757 -59.225966
vt -77.695609 -59.230483
vt -77.054273 -59.218354
vt -77.116998 -59.219540
vt -76.720940 -59.212050
vt -76.777239 -59.213115
vt -77.031899 -59.217931
vt -76.387607 -59.205746
vt -76.437480 -59.206690
vt -76.700045 -59.211655
vt -76.054273 -59.199442
vt -76.097722 -59.200264
vt -75.720940 -59.193139
vt -75.757963 -59.193839
vt -76.036335 -59.199103
vt -75.387607 -59.186835
vt -75.418204 -59.187413
vt -75.054273 -59.180531
vt -75.078446 -59.180988
vt -74.720940 -59.174227
vt -74.738687 -59.174563
vt -74.387607 -59.167923
vt -74.398928 -59.168137
vt -74.054273 -59.161619
vt -74.059170 -59.161712
vt -74.377061 -59.167724
vt -73.720940 -59.156816
vt -73.800273 -59.156816
vt -74.045206 -59.161448
vt -73.387607 -59.156816
vt -73.054273 -59.156816
vt -72.720940 -59.156816
vt -72.387607 -59.156816
vt -72.054273 -59.156816
vt -71.720940 -59.156816
vt -71.387607 -59.156816
vt -71.054273 -59.156816
vt -70.720940 -59.156816
vt -70.387607 -59.156816
vt -70.054273 -59.156816
vt -69.720940 -59.156816
vt -69.387607 -59.156816
vt -69.054273 -59.156816
vt -68.720940 -59.156816
vt -68.387607 -59.156816
vt -68.054273 -59.156816
vt -67.720940 -59.156816
vt -67.387607 -59.156816
vt -67.054273 -59.156816
vt -66.720940 -59.156816
vt -66.387607 -59.156816
vt -66.054273 -59.156816
vt -65.720940 -59.156816
vt -65.387607 -59.156816
vt -65.054273 -59.156816
vt -64.720940 -59.156816
vt -64.387607 -59.156816
vt -64.054273 -59.156816
vt -63.720940 -59.156816
vt -63.387607 -59.156816
vt -63.054273 -59.156816
vt -62.720940 -59.156816
vt -62.387607 -59.156816
vt -62.054273 -59.156816
vt -61.720940 -59.156816
vt -61.387607 -59.156816
vt -61.054273 -59.156816
vt -60.720940 -59.156816
vt -60.387607 -59.156816
vt -60.054273 -59.156816
vt -59.720940 -59.156816
vt -59.387607 -59.156816
vt -59.054273 -59.156816
vt -58.720940 -59.156816
vt -58.387607 -59.156816
vt -58.054273 -59.156816
vt -57.720940 -59.156816
vt -57.387607 -59.156816
vt -73.720940 -59.155315
vt -73.387607 -59.149012
vt -73.713352 -59.155172
vt -73.719411 -59.155287
vt -73.054273 -59.142708
vt -73.379652 -59.148861
vt -72.720940 -59.136404
vt -73.039893 -59.142436
vt -73.049642 -59.142620
vt -72.387607 -59.130100
vt -72.700135 -59.136010
vt -72.054273 -59.123796
vt -72.360376 -59.129585
vt -71.720940 -59.117492
vt -71.722223 -59.117517
vt -72.020617 -59.123160
vt -72.054078 -59.123792
vt -71.387607 -59.111188
vt -71.390368 -59.111241
vt -71.680859 -59.116734
vt -71.054273 -59.104885
vt -71.058513 -59.104965
vt -71.341100 -59.110309
vt -70.720940 -59.098581
vt -70.726659 -59.098689
vt -71.001341 -59.103884
vt -70.387607 -59.092277
vt -70.394804 -59.092413
vt -70.661582 -59.097458
vt -70.054273 -59.085973
vt -70.062949 -59.086137
vt -70.321824 -59.091033
vt -69.720940 -59.079669
vt -69.731094 -59.079861
vt -69.982065 -59.084607
vt -69.387607 -59.073365
vt -69.399239 -59.073585
vt -69.642306 -59.078182
vt -69.054273 -59.067061
vt -69.067385 -59.067309
vt -69.302548 -59.071757
vt -68.720940 -59.060758
vt -68.735530 -59.061033
vt -68.962789 -59.065331
vt -68.387607 -59.054454
vt -68.403675 -59.054758
vt -68.623030 -59.058906
vt -68.054273 -59.048083
vt -68.073070 -59.048505
vt -68.283271 -59.052481
vt -67.720940 -59.040588
vt -67.752717 -59.041302
vt -67.943039 -59.045582
vt -67.387607 -59.033093
vt -67.431114 -59.034071
vt -67.602039 -59.037914
vt -67.054273 -59.025598
vt -67.109511 -59.026840
vt -67.261038 -59.030247
vt -66.720940 -59.018103
vt -66.787908 -59.019609
vt -66.920037 -59.022580
vt -66.387607 -59.010608
vt -66.466305 -59.012378
vt -66.579037 -59.014913
vt -66.054273 -59.003113
vt -66.144702 -59.005147
vt -66.238036 -59.007245
vt -65.720940 -58.995619
vt -65.823099 -58.997916
vt -65.897036 -58.999578
vt -65.387607 -58.988124
vt -65.501496 -58.990685
vt -65.556035 -58.991911
vt -65.054273 -58.980629
vt -65.179893 -58.983453
vt -65.215034 -58.984244
vt -64.720940 -58.973134
vt -64.858290 -58.976222
vt -64.874034 -58.976576
vt -64.387607 -58.965639
vt -64.533033 -58.968909
vt -64.536687 -58.968991
vt -64.054273 -58.958144
vt -64.192033 -58.961242
vt -63.720940 -58.950649
vt -63.851032 -58.953574
vt -63.893481 -58.954529
vt -63.387607 -58.943155
vt -63.510031 -58.945907
vt -63.571878 -58.947298
vt -63.054273 -58.935660
vt -63.169031 -58.938240
vt -62.720940 -58.928165
vt -62.828030 -58.930573
vt -62.387607 -58.920670
vt -62.487030 -58.922905
vt -62.054273 -58.913175
vt -62.146029 -58.915238
vt -62.285466 -58.918373
vt -61.720940 -58.905680
vt -61.805029 -58.907571
vt -61.963863 -58.911142
vt -61.387607 -58.898185
vt -61.464028 -58.899904
vt -61.054273 -58.890690
vt -61.123027 -58.892236
vt -61.320657 -58.896680
vt -60.720940 -58.883196
vt -60.782027 -58.884569
vt -60.387607 -58.875701
vt -60.441026 -58.876902
vt -60.677451 -58.882218
vt -60.054273 -58.868206
vt -60.100026 -58.869235
vt -59.720940 -58.860058
vt -59.758437 -58.860979
vt -60.034972 -58.867772
vt -59.387607 -58.851870
vt -59.416709 -58.852585
vt -59.702867 -58.859614
vt -59.054273 -58.843682
vt -59.074982 -58.844191
vt -59.370035 -58.851439
vt -58.720940 -58.835494
vt -58.733254 -58.835797
vt -58.387607 -58.827306
vt -58.391527 -58.827403
vt -58.054273 -58.823482
vt -58.231934 -58.823482
vt -58.371539 -58.826912
vt -57.720940 -58.823482
vt -57.387607 -58.823482
vt -58.054273 -58.819118
vt -57.720940 -58.810930
vt -58.038707 -58.818736
vt -58.049799 -58.819009
vt -57.387607 -58.802743
vt -57.705875 -58.810560
vt -57.708072 -58.810614
f 3/3 2/2 1/1
f 4/4 2/2 3/3
f 7/7 6/6 5/5
f 8/8 7/7 5/5
f 1/1 2/2 6/6
f 9/9 1/1 6/6
f 7/7 9/9 6/6
f 12/12 11/11 10/10
f 13/13 12/12 10/10
f 5/5 6/6 11/11
f 12/12 5/5 11/11
f 16/16 15/15 14/14
f 10/10 11/11 15/15
f 16/16 10/10 15/15
f 19/19 18/18 17/17
f 20/20 19/19 17/17
f 14/14 15/15 17/17
f 18/18 14/14 17/17
f 23/23 22/22 21/21
f 20/20 17/17 22/22
f 23/23 20/20 22/22
f 26/26 25/25 24/24
f 27/27 26/26 24/24
f 21/21 22/22 24/24
f 25/25 21/21 24/24
f 30/30 29/29 28/28
f 27/27 24/24 29/29
f 30/30 27/27 29/29
f 33/33 32/32 31/31
f 28/28 29/29 32/32
f 33/33 28/28 32/32
f 36/36 35/35 34/34
f 37/37 36/36 34/34
f 31/31 32/32 34/34
f 35/35 31/31 34/34
f 40/40 39/39 38/38
f 41/41 40/40 38/38
f 37/37 34/34 38/38
f 39/39 37/37 38/38
f 44/44 43/43 42/42
f 45/45 44/44 42/42
f 41/41 38/38 42/42
f 43/43 41/41 42/42
f 48/48 47/47 46/46
f 45/45 42/42 47/47
f 48/48 45/45 47/47
f 51/51 50/50 49/49
f 52/52 51/51 49/49
f 46/46 47/47 49/49
f 50/50 46/46 49/49
f 55/55 54/54 53/53
f 52/52 49/49 54/54
f 55/55 52/52 54/54
f 58/58 57/57 56/56
f 59/59 58/58 56/56
f 53/53 54/54 56/56
f 57/57 53/53 56/56
f 62/62 61/61 60/60
f 59/59 56/56 61/61
f 62/62 59/59 61/61
f 65/65 64/64 63/63
f 60/60 61/61 64/64
f 65/65 60/60 64/64
f 68/68 67/67 66/66
f 63/63 64/64 67/67
f 68/68 63/63 67/67
f 71/71 70/70 69/69
f 66/66 67/67 70/70
f 72/72 66/66 70/70
f 71/71 72/72 70/70
f 75/75 74/74 73/73
f 69/69 70/70 74/74
f 76/76 69/69 74/74
f 75/75 76/76 74/74
f 79/79 78/78 77/77
f 73/73 74/74 78/78
f 80/80 73/73 78/78
f 79/79 80/80 78/78
f 83/83 82/82 81/81
f 77/77 78/78 82/82
f 84/84 77/77 82/82
f 83/83 84/84 82/82
f 87/87 86/86 85/85
f 81/81 82/82 86/86
f 88/88 81/81 86/86
f 87/87 88/88 86/86
f 91/91 90/90 89/89
f 85/85 86/86 90/90
f 92/92 85/85 90/90
f 91/91 92/92 90/90
f 95/95 94/94 93/93
f 89/89 90/90 94/94
f 96/96 89/89 94/94
f 95/95 96/96 94/94
f 99/99 98/98 97/97
f 93/93 94/94 98/98
f 100/100 93/93 98/98
f 99/99 100/100 98/98
f 103/103 102/102 101/101
f 97/97 98/98 102/102
f 104/104 97/97 102/102
f 103/103 104/104 102/102
f 107/107 106/106 105/105
f 101/101 102/102 106/106
f 108/108 101/101 106/106
f 107/107 108/108 106/106
f 111/111 110/110 109/109
f 105/105 106/106 110/110
f 112/112 105/105 110/110
f 113/113 112/112 110/110
f 111/111 113/113 110/110
f 116/116 115/115 114/114
f 109/109 110/110 115/115
f 117/117 109/109 115/115
f 116/116 117/117 115/115
f 120/120 119/119 118/118
f 114/114 115/115 119/119
f 121/121 114/114 119/119
f 120/120 121/121 119/119
f 124/124 123/123 122/122
f 118/118 119/119 123/123
f 125/125 118/118 123/123
f 124/124 125/125 123/123
f 128/128 127/127 126/126
f 122/122 123/123 127/127
f 129/129 122/122 127/127
f 128/128 129/129 127/127
f 132/132 131/131 130/130
f 126/126 127/127 131/131
f 133/133 126/126 131/131
f 132/132 133/133 131/131
f 136/136 135/135 134/134
f 130/130 131/131 135/135
f 137/137 130/130 135/135
f 136/136 137/137 135/135
f 140/140 139/139 138/138
f 134/134 135/135 139/139
f 141/141 134/134 139/139
f 140/140 141/141 139/139
f 144/144 143/143 142/142
f 138/138 139/139 143/143
f 145/145 138/138 143/143
f 144/144 145/145 143/143
f 148/148 147/147 146/146
f 142/142 143/143 147/147
f 149/149 142/142 147/147
f 148/148 149/149 147/147
f 152/152 151/151 150/150
f 146/146 147/147 151/151
f 153/153 146/146 151/151
f 152/152 153/153 151/151
f 156/156 155/155 154/154
f 150/150 151/151 155/155
f 157/157 150/150 155/155
f 156/156 157/157 155/155
f 160/160 159/159 158/158
f 154/154 155/155 159/159
f 161/161 154/154 159/159
f 160/160 161/161 159/159
f 164/164 163/163 162/162
f 158/158 159/159 163/163
f 165/165 158/158 163/163
f 164/164 165/165 163/163
f 168/168 167/167 166/166
f 162/162 163/163 167/167
f 169/169 162/162 167/167
f 168/168 169/169 167/167
f 172/172 171/171 170/170
f 166/166 167/167 171/171
f 173/173 166/166 171/171
f 172/172 173/173 171/171
f 176/176 175/175 174/174
f 170/170 171/171 175/175
f 177/177 170/170 175/175
f 176/176 177/177 175/175
f 180/180 179/179 178/178
f 174/174 175/175 179/179
f 181/181 174/174 179/179
f 180/180 181/181 179/179
f 184/184 183/183 182/182
f 178/178 179/179 183/183
f 185/185 178/178 183/183
f 184/184 185/185 183/183
f 188/188 187/187 186/186
f 182/182 183/183 187/187
f 189/189 182/182 187/187
f 188/188 189/189 187/187
f 192/192 191/191 190/190
f 186/186 187/187 191/191
f 193/193 186/186 191/191
f 192/192 193/193 191/191
f 196/196 195/195 194/194
f 190/190 191/191 195/195
f 197/197 190/190 195/195
f 196/196 197/197 195/195
f 200/200 199/199 198/198
f 194/194 195/195 199/199
f 201/201 194/194 199/199
f 200/200 201/201 199/199
f 204/204 203/203 202/202
f 198/198 199/199 203/203
f 205/205 198/198 203/203
f 204/204 205/205 203/203
f 208/208 207/207 206/206
f 202/202 203/203 207/207
f 209/209 202/202 207/207
f 208/208 209/209 207/207
f 212/212 211/211 210/210
f 206/206 207/207 211/211
f 213/213 206/206 211/211
f 212/212 213/213 211/211
f 216/216 215/215 214/214
f 210/210 211/211 215/215
f 217/217 210/210 215/215
f 216/216 217/217 215/215
f 214/214 215/215 218/218
f 220/220 219/219 2/2
f 221/221 220/220 2/2
f 4/4 221/221 2/2
f 222/222 219/219 220/220
f 2/2 223/223 6/6
f 2/2 219/219 223/223
f 6/6 224/224 11/11
f 6/6 223/223 224/224
f 11/11 225/225 15/15
f 11/11 224/224 225/225
f 15/15 226/226 17/17
f 15/15 225/225 226/226
f 17/17 227/227 22/22
f 17/17 226/226 227/227
f 22/22 228/228 24/24
f 22/22 227/227 228/228
f 24/24 229/229 29/29
f 24/24 228/228 229/229
f 29/29 230/230 32/32
f 29/29 229/229 230/230
f 32/32 231/231 34/34
f 32/32 230/230 231/231
f 34/34 232/232 38/38
f 34/34 231/231 232/232
f 38/38 233/233 42/42
f 38/38 232/232 233/233
f 42/42 234/234 47/47
f 42/42 233/233 234/234
f 47/47 235/235 49/49
f 47/47 234/234 235/235
f 49/49 236/236 54/54
f 49/49 235/235 236/236
f 54/54 237/237 56/56
f 54/54 236/236 237/237
f 56/56 238/238 61/61
f 56/56 237/237 238/238
f 61/61 239/239 64/64
f 61/61 238/238 239/239
f 64/64 240/240 67/67
f 64/64 239/239 240/240
f 67/67 241/241 70/70
f 67/67 240/240 241/241
f 70/70 242/242 74/74
f 70/70 241/241 242/242
f 74/74 243/243 78/78
f 74/74 242/242 243/243
f 78/78 244/244 82/82
f 78/78 243/243 244/244
f 82/82 245/245 86/86
f 82/82 244/244 245/245
f 86/86 246/246 90/90
f 86/86 245/245 246/246
f 90/90 247/247 94/94
f 90/90 246/246 247/247
f 94/94 248/248 98/98
f 94/94 247/247 248/248
f 98/98 249/249 102/102
f 98/98 248/248 249/249
f 102/102 250/250 106/106
f 102/102 249/249 250/250
f 106/106 251/251 110/110
f 106/106 250/250 251/251
f 110/110 252/252 115/115
f 110/110 251/251 252/252
f 115/115 253/253 119/119
f 115/115 252/252 253/253
f 119/119 254/254 123/123
f 119/119 253/253 254/254
f 123/123 255/255 127/127
f 123/123 254/254 255/255
f 127/127 256/256 131/131
f 127/127 255/255 256/256
f 131/131 257/257 135/135
f 131/131 256/256 257/257
f 135/135 258/258 139/139
f 135/135 257/257 258/258
f 139/139 259/259 143/143
f 139/139 258/258 259/259
f 143/143 260/260 147/147
f 143/143 259/259 260/260
f 147/147 261/261 151/151
f 147/147 260/260 261/261
f 151/151 262/262 155/155
f 151/151 261/261 262/262
f 155/155 263/263 159/159
f 155/155 262/262 263/263
f 159/159 264/264 163/163
f 159/159 263/263 264/264
f 163/163 265/265 167/167
f 163/163 264/264 265/265
f 167/167 266/266 171/171
f 167/167 265/265 266/266
f 171/171 267/267 175/175
f 171/171 266/266 267/267
f 175/175 268/268 179/179
f 175/175 267/267 268/268
f 179/179 269/269 183/183
f 179/179 268/268 269/269
f 183/183 270/270 187/187
f 183/183 269/269 270/270
f 187/187 271/271 191/191
f 187/187 270/270 271/271
f 191/191 272/272 195/195
f 191/191 271/271 272/272
f 195/195 273/273 199/199
f 195/195 272/272 273/273
f 199/199 274/274 203/203
f 199/199 273/273 274/274
f 203/203 275/275 207/207
f 203/203 274/274 275/275
f 207/207 276/276 211/211
f 207/207 275/275 276/276
f 211/211 277/277 215/215
f 211/211 276/276 277/277
f 218/218 215/215 278/278
f 279/279 218/218 278/278
f 215/215 277/277 278/278
f 282/282 281/281 280/280
f 279/279 278/278 281/281
f 282/282 279/279 281/281
f 285/285 284/284 283/283
f 280/280 281/281 284/284
f 285/285 280/280 284/284
f 288/288 287/287 286/286
f 283/283 284/284 287/287
f 289/289 283/283 287/287
f 288/288 289/289 287/287
f 292/292 291/291 290/290
f 286/286 287/287 291/291
f 293/293 286/286 291/291
f 292/292 293/293 291/291
f 296/296 295/295 294/294
f 290/290 291/291 295/295
f 297/297 290/290 295/295
f 296/296 297/297 295/295
f 300/300 299/299 298/298
f 294/294 295/295 299/299
f 301/301 294/294 299/299
f 300/300 301/301 299/299
f 304/304 303/303 302/302
f 298/298 299/299 303/303
f 305/305 298/298 303/303
f 306/306 305/305 303/303
f 304/304 306/306 303/303
f 309/309 308/308 307/307
f 310/310 309/309 307/307
f 302/302 303/303 307/307
f 308/308 302/302 307/307
f 313/313 312/312 311/311
f 310/310 307/307 312/312
f 313/313 310/310 312/312
f 316/316 315/315 314/314
f 317/317 316/316 314/314
f 311/311 312/312 314/314
f 315/315 311/311 314/314
f 320/320 319/319 318/318
f 317/317 314/314 319/319
f 320/320 317/317 319/319
f 323/323 322/322 321/321
f 324/324 323/323 321/321
f 318/318 319/319 321/321
f 322/322 318/318 321/321
f 327/327 326/326 325/325
f 328/328 327/327 325/325
f 324/324 321/321 325/325
f 326/326 324/324 325/325
f 331/331 330/330 329/329
f 328/328 325/325 330/330
f 331/331 328/328 330/330
f 334/334 333/333 332/332
f 335/335 334/334 332/332
f 329/329 330/330 332/332
f 333/333 329/329 332/332
f 338/338 337/337 336/336
f 335/335 332/332 337/337
f 338/338 335/335 337/337
f 341/341 340/340 339/339
f 342/342 341/341 339/339
f 336/336 337/337 339/339
f 340/340 336/336 339/339
f 345/345 344/344 343/343
f 346/346 345/345 343/343
f 342/342 339/339 343/343
f 344/344 342/342 343/343
f 349/349 348/348 347/347
f 346/346 343/343 348/348
f 349/349 346/346 348/348
f 352/352 351/351 350/350
f 347/347 348/348 351/351
f 352/352 347/347 351/351
f 355/355 354/354 353/353
f 356/356 355/355 353/353
f 350/350 351/351 353/353
f 354/354 350/350 353/353
f 359/359 358/358 357/357
f 356/356 353/353 358/358
f 360/360 356/356 358/358
f 359/359 360/360 358/358
f 363/363 362/362 361/361
f 357/357 358/358 362/362
f 364/364 357/357 362/362
f 363/363 364/364 362/362
f 367/367 366/366 365/365
f 361/361 362/362 366/366
f 368/368 361/361 366/366
f 367/367 368/368 366/366
f 371/371 370/370 369/369
f 365/365 366/366 370/370
f 372/372 365/365 370/370
f 371/371 372/372 370/370
f 375/375 374/374 373/373
f 369/369 370/370 374/374
f 376/376 369/369 374/374
f 375/375 376/376 374/374
f 379/379 378/378 377/377
f 373/373 374/374 378/378
f 380/380 373/373 378/378
f 379/379 380/380 378/378
f 383/383 382/382 381/381
f 377/377 378/378 382/382
f 384/384 377/377 382/382
f 383/383 384/384 382/382
f 387/387 386/386 385/385
f 381/381 382/382 386/386
f 388/388 381/381 386/386
f 387/387 388/388 386/386
f 391/391 390/390 389/389
f 385/385 386/386 390/390
f 392/392 385/385 390/390
f 391/391 392/392 390/390
f 395/395 394/394 393/393
f 389/389 390/390 394/394
f 396/396 389/389 394/394
f 397/397 396/396 394/394
f 395/395 397/397 394/394
f 400/400 399/399 398/398
f 393/393 394/394 399/399
f 401/401 393/393 399/399
f 400/400 401/401 399/399
f 404/404 403/403 402/402
f 398/398 399/399 403/403
f 405/405 398/398 403/403
f 404/404 405/405 403/403
f 408/408 407/407 406/406
f 402/402 403/403 407/407
f 409/409 402/402 407/407
f 408/408 409/409 407/407
f 412/412 411/411 410/410
f 406/406 407/407 411/411
f 413/413 406/406 411/411
f 412/412 413/413 411/411
f 416/416 415/415 414/414
f 410/410 411/411 415/415
f 417/417 410/410 415/415
f 416/416 417/417 415/415
f 420/420 419/419 418/418
f 414/414 415/415 419/419
f 421/421 414/414 419/419
f 420/420 421/421 419/419
f 424/424 423/423 422/422
f 418/418 419/419 423/423
f 425/425 418/418 423/423
f 424/424 425/425 423/423
f 427/427 426/426 219/219
f 428/428 427/427 219/219
f 222/222 428/428 219/219
f 429/429 426/426 427/427
f 430/430 429/429 427/427
f 219/219 431/431 223/223
f 219/219 426/426 431/431
f 223/223 432/432 224/224
f 223/223 431/431 432/432
f 224/224 433/433 225/225
f 224/224 432/432 433/433
f 225/225 434/434 226/226
f 225/225 433/433 434/434
f 226/226 435/435 227/227
f 226/226 434/434 435/435
f 227/227 436/436 228/228
f 227/227 435/435 436/436
f 228/228 437/437 229/229
f 228/228 436/436 437/437
f 229/229 438/438 230/230
f 229/229 437/437 438/438
f 230/230 439/439 231/231
f 230/230 438/438 439/439
f 231/231 440/440 232/232
f 231/231 439/439 440/440
f 232/232 441/441 233/233
f 232/232 440/440 441/441
f 233/233 442/442 234/234
f 233/233 441/441 442/442
f 234/234 443/443 235/235
f 234/234 442/442 443/443
f 235/235 444/444 236/236
f 235/235 443/443 444/444
f 236/236 445/445 237/237
f 236/236 444/444 445/445
f 237/237 446/446 238/238
f 237/237 445/445 446/446
f 238/238 447/447 239/239
f 238/238 446/446 447/447
f 239/239 448/448 240/240
f 239/239 447/447 448/448
f 240/240 449/449 241/241
f 240/240 448/448 449/449
f 241/241 450/450 242/242
f 241/241 449/449 450/450
f 242/242 451/451 243/243
f 242/242 450/450 451/451
f 243/243 452/452 244/244
f 243/243 451/451 452/452
f 244/244 453/453 245/245
f 244/244 452/452 453/453
f 245/245 454/454 246/246
f 245/245 453/453 454/454
f 246/246 455/455 247/247
f 246/246 454/454 455/455
f 247/247 456/456 248/248
f 247/247 455/455 456/456
f 248/248 457/457 249/249
f 248/248 456/456 457/457
f 249/249 458/458 250/250
f 249/249 457/457 458/458
f 250/250 459/459 251/251
f 250/250 458/458 459/459
f 251/251 460/460 252/252
f 251/251 459/459 460/460
f 252/252 461/461 253/253
f 252/252 460/460 461/461
f 253/253 462/462 254/254
f 253/253 461/461 462/462
f 254/254 463/463 255/255
f 254/254 462/462 463/463
f 255/255 464/464 256/256
f 255/255 463/463 464/464
f 256/256 465/465 257/257
f 256/256 464/464 465/465
f 257/257 466/466 258/258
f 257/257 465/465 466/466
f 258/258 467/467 259/259
f 258/258 466/466 467/467
f 259/259 468/468 260/260
f 259/259 467/467 468/468
f 260/260 469/469 261/261
f 260/260 468/468 469/469
f 261/261 470/470 262/262
f 261/261 469/469 470/470
f 262/262 471/471 263/263
f 262/262 470/470 471/471
f 263/263 472/472 264/264
f 263/263 471/471 472/472
f 264/264 473/473 265/265
f 264/264 472/472 473/473
f 265/265 474/474 266/266
f 265/265 473/473 474/474
f 266/266 475/475 267/267
f 266/266 474/474 475/475
f 267/267 476/476 268/268
f 267/267 475/475 476/476
f 268/268 477/477 269/269
f 268/268 476/476 477/477
f 269/269 478/478 270/270
f 269/269 477/477 478/478
f 270/270 479/479 271/271
f 270/270 478/478 479/479
f 271/271 480/480 272/272
f 271/271 479/479 480/480
f 272/272 481/481 273/273
f 272/272 480/480 481/481
f 273/273 482/482 274/274
f 273/273 481/481 482/482
f 274/274 483/483 275/275
f 274/274 482/482 483/483
f 275/275 484/484 276/276
f 275/275 483/483 484/484
f 276/276 485/485 277/277
f 276/276 484/484 485/485
f 277/277 486/486 278/278
f 277/277 485/485 486/486
f 278/278 487/487 281/281
f 278/278 486/486 487/487
f 281/281 488/488 284/284
f 281/281 487/487 488/488
f 284/284 489/489 287/287
f 284/284 488/488 489/489
f 287/287 490/490 291/291
f 287/287 489/489 490/490
f 291/291 491/491 295/295
f 291/291 490/490 491/491
f 295/295 492/492 299/299
f 295/295 491/491 492/492
f 299/299 493/493 303/303
f 299/299 492/492 493/493
f 303/303 494/494 307/307
f 303/303 493/493 494/494
f 307/307 495/495 312/312
f 307/307 494/494 495/495
f 312/312 496/496 314/314
f 312/312 495/495 496/496
f 314/314 497/497 319/319
f 314/314 496/496 497/497
f 319/319 498/498 321/321
f 319/319 497/497 498/498
f 321/321 499/499 325/325
f 321/321 498/498 499/499
f 325/325 500/500 330/330
f 325/325 499/499 500/500
f 330/330 501/501 332/332
f 330/330 500/500 501/501
f 332/332 502/502 337/337
f 332/332 501/501 502/502
f 337/337 503/503 339/339
f 337/337 502/502 503/503
f 339/339 504/504 343/343
f 339/339 503/503 504/504
f 343/343 505/505 348/348
f 343/343 504/504 505/505
f 348/348 506/506 351/351
f 348/348 505/505 506/506
f 351/351 507/507 353/353
f 351/351 506/506 507/507
f 353/353 508/508 358/358
f 353/353 507/507 508/508
f 358/358 509/509 362/362
f 358/358 508/508 509/509
f 362/362 510/510 366/366
f 362/362 509/509 510/510
f 366/366 511/511 370/370
f 366/366 510/510 511/511
f 370/370 512/512 374/374
f 370/370 511/511 512/512
f 374/374 513/513 378/378
f 374/374 512/512 513/513
f 378/378 514/514 382/382
f 378/378 513/513 514/514
f 382/382 515/515 386/386
f 382/382 514/514 515/515
f 386/386 516/516 390/390
f 386/386 515/515 516/516
f 390/390 517/517 394/394
f 390/390 516/516 517/517
f 394/394 518/518 399/399
f 394/394 517/517 518/518
f 399/399 519/519 403/403
f 399/399 518/518 519/519
f 403/403 520/520 407/407
f 403/403 519/519 520/520
f 407/407 521/521 411/411
f 407/407 520/520 521/521
f 411/411 522/522 415/415
f 411/411 521/521 522/522
f 415/415 523/523 419/419
f 415/415 522/522 523/523
f 419/419 524/524 423/423
f 419/419 523/523 524/524
f 525/525 426/426 429/429
f 426/426 526/526 431/431
f 527/527 526/526 426/426
f 528/528 527/527 426/426
f 525/525 528/528 426/426
f 431/431 529/529 432/432
f 431/431 526/526 529/529
f 432/432 530/530 433/433
f 432/432 529/529 530/530
f 433/433 531/531 434/434
f 433/433 530/530 531/531
f 434/434 532/532 435/435
f 434/434 531/531 532/532
f 435/435 533/533 436/436
f 435/435 532/532 533/533
f 436/436 534/534 437/437
f 436/436 533/533 534/534
f 437/437 535/535 438/438
f 437/437 534/534 535/535
f 438/438 536/536 439/439
f 438/438 535/535 536/536
f 439/439 537/537 440/440
f 439/439 536/536 537/537
f 440/440 538/538 441/441
f 440/440 537/537 538/538
f 441/441 539/539 442/442
f 441/441 538/538 539/539
f 442/442 540/540 443/443
f 442/442 539/539 540/540
f 443/443 541/541 444/444
f 443/443 540/540 541/541
f 444/444 542/542 445/445
f 444/444 541/541 542/542
f 445/445 543/543 446/446
f 445/445 542/542 543/543
f 446/446 544/544 447/447
f 446/446 543/543 544/544
f 447/447 545/545 448/448
f 447/447 544/544 545/545
f 448/448 546/546 449/449
f 448/448 545/545 546/546
f 449/449 547/547 450/450
f 449/449 546/546 547/547
f 450/450 548/548 451/451
f 450/450 547/547 548/548
f 451/451 549/549 452/452
f 451/451 548/548 549/549
f 452/452 550/550 453/453
f 452/452 549/549 550/550
f 453/453 551/551 454/454
f 453/453 550/550 551/551
f 454/454 552/552 455/455
f 454/454 551/551 552/552
f 455/455 553/553 456/456
f 455/455 552/552 553/553
f 456/456 554/554 457/457
f 456/456 553/553 554/554
f 457/457 555/555 458/458
f 457/457 554/554 555/555
f 458/458 556/556 459/459
f 458/458 555/555 556/556
f 459/459 557/557 460/460
f 459/459 556/556 557/557
f 460/460 558/558 461/461
f 460/460 557/557 558/558
f 461/461 559/559 462/462
f 461/461 558/558 559/559
f 462/462 560/560 463/463
f 462/462 559/559 560/560
f 463/463 561/561 464/464
f 463/463 560/560 561/561
f 464/464 562/562 465/465
f 464/464 561/561 562/562
f 465/465 563/563 466/466
f 465/465 562/562 563/563
f 466/466 564/564 467/467
f 466/466 563/563 564/564
f 467/467 565/565 468/468
f 467/467 564/564 565/565
f 468/468 566/566 469/469
f 468/468 565/565 566/566
f 469/469 567/567 470/470
f 469/469 566/566 567/567
f 470/470 568/568 471/471
f 470/470 567/567 568/568
f 471/471 569/569 472/472
f 471/471 568/568 569/569
f 472/472 570/570 473/473
f 472/472 569/569 570/570
f 473/473 571/571 474/474
f 473/473 570/570 571/571
f 474/474 572/572 475/475
f 474/474 571/571 572/572
f 475/475 573/573 476/476
f 475/475 572/572 573/573
f 476/476 574/574 477/477
f 476/476 573/573 574/574
f 477/477 575/575 478/478
f 477/477 574/574 575/575
f 478/478 576/576 479/479
f 478/478 575/575 576/576
f 479/479 577/577 480/480
f 479/479 576/576 577/577
f 480/480 578/578 481/481
f 480/480 577/577 578/578
f 481/481 579/579 482/482
f 481/481 578/578 579/579
f 482/482 580/580 483/483
f 482/482 579/579 580/580
f 483/483 581/581 484/484
f 483/483 580/580 581/581
f 484/484 582/582 485/485
f 484/484 581/581 582/582
f 485/485 583/583 486/486
f 485/485 582/582 583/583
f 486/486 584/584 487/487
f 486/486 583/583 584/584
f 487/487 585/585 488/488
f 487/487 584/584 585/585
f 488/488 586/586 489/489
f 488/488 585/585 586/586
f 489/489 587/587 490/490
f 489/489 586/586 587/587
f 490/490 588/588 491/491
f 490/490 587/587 588/588
f 491/491 589/589 492/492
f 491/491 588/588 589/589
f 492/492 590/590 493/493
f 492/492 589/589 590/590
f 493/493 591/591 494/494
f 493/493 590/590 591/591
f 494/494 592/592 495/495
f 494/494 591/591 592/592
f 495/495 593/593 496/496
f 495/495 592/592 593/593
f 496/496 594/594 497/497
f 496/496 593/593 594/594
f 497/497 595/595 498/498
f 497/497 594/594 595/595
f 498/498 596/596 499/499
f 498/498 595/595 596/596
f 499/499 597/597 500/500
f 499/499 596/596 597/597
f 500/500 598/598 501/501
f 500/500 597/597 598/598
f 501/501 599/599 502/502
f 501/501 598/598 599/599
f 502/502 600/600 503/503
f 502/502 599/599 600/600
f 503/503 601/601 504/504
f 503/503 600/600 601/601
f 504/504 602/602 505/505
f 504/504 601/601 602/602
f 505/505 603/603 506/506
f 505/505 602/602 603/603
f 506/506 604/604 507/507
f 506/506 603/603 604/604
f 507/507 605/605 508/508
f 507/507 604/604 605/605
f 508/508 606/606 509/509
f 508/508 605/605 606/606
f 509/509 607/607 510/510
f 509/509 606/606 607/607
f 510/510 608/608 511/511
f 510/510 607/607 608/608
f 511/511 609/609 512/512
f 511/511 608/608 609/609
f 512/512 610/610 513/513
f 512/512 609/609 610/610
f 513/513 611/611 514/514
f 513/513 610/610 611/611
f 514/514 612/612 515/515
f 514/514 611/611 612/612
f 515/515 613/613 516/516
f 515/515 612/612 613/613
f 516/516 614/614 517/517
f 516/516 613/613 614/614
f 517/517 615/615 518/518
f 517/517 614/614 615/615
f 518/518 616/616 519/519
f 518/518 615/615 616/616
f 519/519 617/617 520/520
f 519/519 616/616 617/617
f 520/520 618/618 521/521
f 520/520 617/617 618/618
f 521/521 619/619 522/522
f 521/521 618/618 619/619
f 522/522 620/620 523/523
f 522/522 619/619 620/620
f 523/523 621/621 524/524
f 523/523 620/620 621/621
f 622/622 526/526 527/527
f 623/623 622/622 527/527
f 624/624 529/529 526/526
f 625/625 624/624 526/526
f 626/626 625/625 526/526
f 626/626 526/526 622/622
f 627/627 530/530 529/529
f 628/628 627/627 529/529
f 629/629 628/628 529/529
f 629/629 529/529 624/624
f 630/630 531/531 530/530
f 631/631 630/630 530/530
f 632/632 631/631 530/530
f 632/632 530/530 627/627
f 633/633 532/532 531/531
f 634/634 633/633 531/531
f 634/634 531/531 630/630
f 635/635 533/533 532/532
f 636/636 635/635 532/532
f 637/637 636/636 532/532
f 637/637 532/532 633/633
f 638/638 534/534 533/533
f 639/639 638/638 533/533
f 640/640 639/639 533/533
f 640/640 533/533 635/635
f 641/641 535/535 534/534
f 642/642 641/641 534/534
f 643/643 642/642 534/534
f 643/643 534/534 638/638
f 644/644 536/536 535/535
f 645/645 644/644 535/535
f 646/646 645/645 535/535
f 646/646 535/535 641/641
f 647/647 537/537 536/536
f 648/648 647/647 536/536
f 649/649 648/648 536/536
f 649/649 536/536 644/644
f 650/650 649/649 644/644
f 651/651 538/538 537/537
f 652/652 651/651 537/537
f 653/653 652/652 537/537
f 647/647 653/653 537/537
f 654/654 539/539 538/538
f 655/655 654/654 538/538
f 656/656 655/655 538/538
f 651/651 656/656 538/538
f 657/657 540/540 539/539
f 658/658 657/657 539/539
f 658/658 539/539 654/654
f 659/659 541/541 540/540
f 660/660 659/659 540/540
f 660/660 540/540 657/657
f 661/661 542/542 541/541
f 662/662 661/661 541/541
f 662/662 541/541 659/659
f 663/663 543/543 542/542
f 664/664 663/663 542/542
f 665/665 664/664 542/542
f 661/661 665/665 542/542
f 666/666 544/544 543/543
f 667/667 666/666 543/543
f 667/667 543/543 663/663
f 668/668 545/545 544/544
f 669/669 668/668 544/544
f 669/669 544/544 666/666
f 670/670 546/546 545/545
f 671/671 670/670 545/545
f 672/672 671/671 545/545
f 668/668 672/672 545/545
f 673/673 547/547 546/546
f 674/674 673/673 546/546
f 674/674 546/546 670/670
f 675/675 548/548 547/547
f 676/676 675/675 547/547
f 676/676 547/547 673/673
f 677/677 549/549 548/548
f 678/678 677/677 548/548
f 678/678 548/548 675/675
f 679/679 550/550 549/549
f 680/680 679/679 549/549
f 680/680 549/549 677/677
f 681/681 551/551 550/550
f 682/682 681/681 550/550
f 683/683 682/682 550/550
f 679/679 683/683 550/550
f 684/684 552/552 551/551
f 685/685 684/684 551/551
f 685/685 551/551 681/681
f 686/686 553/553 552/552
f 687/687 686/686 552/552
f 688/688 687/687 552/552
f 684/684 688/688 552/552
f 689/689 554/554 553/553
f 690/690 689/689 553/553
f 690/690 553/553 686/686
f 691/691 555/555 554/554
f 692/692 691/691 554/554
f 693/693 692/692 554/554
f 689/689 693/693 554/554
f 694/694 556/556 555/555
f 695/695 694/694 555/555
f 696/696 695/695 555/555
f 691/691 696/696 555/555
f 697/697 557/557 556/556
f 698/698 697/697 556/556
f 699/699 698/698 556/556
f 694/694 699/699 556/556
f 700/700 558/558 557/557
f 701/701 700/700 557/557
f 701/701 557/557 697/697
f 702/702 559/559 558/558
f 703/703 702/702 558/558
f 704/704 703/703 558/558
f 700/700 704/704 558/558
f 705/705 560/560 559/559
f 706/706 705/705 559/559
f 706/706 559/559 702/702
f 707/707 561/561 560/560
f 708/708 707/707 560/560
f 709/709 708/708 560/560
f 705/705 709/709 560/560
f 710/710 562/562 561/561
f 711/711 710/710 561/561
f 711/711 561/561 707/707
f 712/712 563/563 562/562
f 713/713 712/712 562/562
f 714/714 713/713 562/562
f 710/710 714/714 562/562
f 715/715 564/564 563/563
f 716/716 715/715 563/563
f 717/717 716/716 563/563
f 712/712 717/717 563/563
f 718/718 565/565 564/564
f 719/719 718/718 564/564
f 719/719 564/564 715/715
f 720/720 566/566 565/565
f 721/721 720/720 565/565
f 722/722 721/721 565/565
f 718/718 722/722 565/565
f 723/723 567/567 566/566
f 724/724 723/723 566/566
f 724/724 566/566 720/720
f 725/725 568/568 567/567
f 726/726 725/725 567/567
f 726/726 567/567 723/723
f 727/727 569/569 568/568
f 728/728 727/727 568/568
f 728/728 568/568 725/725
f 729/729 570/570 569/569
f 730/730 729/729 569/569
f 730/730 569/569 727/727
f 731/731 571/571 570/570
f 732/732 731/731 570/570
f 733/733 732/732 570/570
f 729/729 733/733 570/570
f 571/571 734/734 572/572
f 735/735 734/734 571/571
f 736/736 735/735 571/571
f 731/731 736/736 571/571
f 572/572 737/737 573/573
f 572/572 734/734 737/737
f 573/573 738/738 574/574
f 573/573 737/737 738/738
f 574/574 739/739 575/575
f 574/574 738/738 739/739
f 575/575 740/740 576/576
f 575/575 739/739 740/740
f 576/576 741/741 577/577
f 576/576 740/740 741/741
f 577/577 742/742 578/578
f 577/577 741/741 742/742
f 578/578 743/743 579/579
f 578/578 742/742 743/743
f 579/579 744/744 580/580
f 579/579 743/743 744/744
f 580/580 745/745 581/581
f 580/580 744/744 745/745
f 581/581 746/746 582/582
f 581/581 745/745 746/746
f 582/582 747/747 583/583
f 582/582 746/746 747/747
f 583/583 748/748 584/584
f 583/583 747/747 748/748
f 584/584 749/749 585/585
f 584/584 748/748 749/749
f 585/585 750/750 586/586
f 585/585 749/749 750/750
f 586/586 751/751 587/587
f 586/586 750/750 751/751
f 587/587 752/752 588/588
f 587/587 751/751 752/752
f 588/588 753/753 589/589
f 588/588 752/752 753/753
f 589/589 754/754 590/590
f 589/589 753/753 754/754
f 590/590 755/755 591/591
f 590/590 754/754 755/755
f 591/591 756/756 592/592
f 591/591 755/755 756/756
f 592/592 757/757 593/593
f 592/592 756/756 757/757
f 593/593 758/758 594/594
f 593/593 757/757 758/758
f 594/594 759/759 595/595
f 594/594 758/758 759/759
f 595/595 760/760 596/596
f 595/595 759/759 760/760
f 596/596 761/761 597/597
f 596/596 760/760 761/761
f 597/597 762/762 598/598
f 597/597 761/761 762/762
f 598/598 763/763 599/599
f 598/598 762/762 763/763
f 599/599 764/764 600/600
f 599/599 763/763 764/764
f 600/600 765/765 601/601
f 600/600 764/764 765/765
f 601/601 766/766 602/602
f 601/601 765/765 766/766
f 602/602 767/767 603/603
f 602/602 766/766 767/767
f 603/603 768/768 604/604
f 603/603 767/767 768/768
f 604/604 769/769 605/605
f 604/604 768/768 769/769
f 605/605 770/770 606/606
f 605/605 769/769 770/770
f 606/606 771/771 607/607
f 606/606 770/770 771/771
f 607/607 772/772 608/608
f 607/607 771/771 772/772
f 608/608 773/773 609/609
f 608/608 772/772 773/773
f 609/609 774/774 610/610
f 609/609 773/773 774/774
f 610/610 775/775 611/611
f 610/610 774/774 775/775
f 611/611 776/776 612/612
f 611/611 775/775 776/776
f 612/612 777/777 613/613
f 612/612 776/776 777/777
f 613/613 778/778 614/614
f 613/613 777/777 778/778
f 614/614 779/779 615/615
f 614/614 778/778 779/779
f 615/615 780/780 616/616
f 615/615 779/779 780/780
f 616/616 781/781 617/617
f 616/616 780/780 781/781
f 617/617 782/782 618/618
f 617/617 781/781 782/782
f 618/618 783/783 619/619
f 618/618 782/782 783/783
f 619/619 784/784 620/620
f 619/619 783/783 784/784
f 620/620 785/785 621/621
f 620/620 784/784 785/785
f 786/786 734/734 735/735
f 787/787 737/737 734/734
f 788/788 787/787 734/734
f 789/789 788/788 734/734
f 789/789 734/734 786/786
f 790/790 738/738 737/737
f 791/791 790/790 737/737
f 791/791 737/737 787/787
f 792/792 739/739 738/738
f 793/793 792/792 738/738
f 794/794 793/793 738/738
f 790/790 794/794 738/738
f 795/795 740/740 739/739
f 796/796 795/795 739/739
f 796/796 739/739 792/792
f 797/797 741/741 740/740
f 798/798 797/797 740/740
f 798/798 740/740 795/795
f 799/799 742/742 741/741
f 800/800 799/799 741/741
f 801/801 800/800 741/741
f 802/802 801/801 741/741
f 797/797 802/802 741/741
f 803/803 743/743 742/742
f 804/804 803/803 742/742
f 805/805 804/804 742/742
f 805/805 742/742 799/799
f 806/806 744/744 743/743
f 807/807 806/806 743/743
f 808/808 807/807 743/743
f 808/808 743/743 803/803
f 809/809 745/745 744/744
f 810/810 809/809 744/744
f 811/811 810/810 744/744
f 811/811 744/744 806/806
f 812/812 746/746 745/745
f 813/813 812/812 745/745
f 814/814 813/813 745/745
f 814/814 745/745 809/809
f 815/815 747/747 746/746
f 816/816 815/815 746/746
f 817/817 816/816 746/746
f 817/817 746/746 812/812
f 818/818 748/748 747/747
f 819/819 818/818 747/747
f 820/820 819/819 747/747
f 820/820 747/747 815/815
f 821/821 749/749 748/748
f 822/822 821/821 748/748
f 823/823 822/822 748/748
f 823/823 748/748 818/818
f 824/824 750/750 749/749
f 825/825 824/824 749/749
f 826/826 825/825 749/749
f 826/826 749/749 821/821
f 827/827 751/751 750/750
f 828/828 827/827 750/750
f 829/829 828/828 750/750
f 829/829 750/750 824/824
f 830/830 752/752 751/751
f 831/831 830/830 751/751
f 832/832 831/831 751/751
f 832/832 751/751 827/827
f 833/833 753/753 752/752
f 834/834 833/833 752/752
f 835/835 834/834 752/752
f 835/835 752/752 830/830
f 836/836 754/754 753/753
f 837/837 836/836 753/753
f 838/838 837/837 753/753
f 838/838 753/753 833/833
f 839/839 755/755 754/754
f 840/840 839/839 754/754
f 841/841 840/840 754/754
f 841/841 754/754 836/836
f 842/842 756/756 755/755
f 843/843 842/842 755/755
f 844/844 843/843 755/755
f 844/844 755/755 839/839
f 845/845 757/757 756/756
f 846/846 845/845 756/756
f 847/847 846/846 756/756
f 847/847 756/756 842/842
f 848/848 758/758 757/757
f 849/849 848/848 757/757
f 850/850 849/849 757/757
f 850/850 757/757 845/845
f 851/851 759/759 758/758
f 852/852 851/851 758/758
f 853/853 852/852 758/758
f 853/853 758/758 848/848
f 854/854 760/760 759/759
f 855/855 854/854 759/759
f 856/856 855/855 759/759
f 856/856 759/759 851/851
f 857/857 761/761 760/760
f 858/858 857/857 760/760
f 859/859 858/858 760/760
f 859/859 760/760 854/854
f 860/860 762/762 761/761
f 861/861 860/860 761/761
f 862/862 861/861 761/761
f 862/862 761/761 857/857
f 863/863 763/763 762/762
f 864/864 863/863 762/762
f 865/865 864/864 762/762
f 865/865 762/762 860/860
f 866/866 764/764 763/763
f 867/867 866/866 763/763
f 868/868 867/867 763/763
f 863/863 868/868 763/763
f 869/869 765/765 764/764
f 870/870 869/869 764/764
f 870/870 764/764 866/866
f 871/871 766/766 765/765
f 872/872 871/871 765/765
f 873/873 872/872 765/765
f 869/869 873/873 765/765
f 874/874 767/767 766/766
f 875/875 874/874 766/766
f 876/876 875/875 766/766
f 871/871 876/876 766/766
f 877/877 768/768 767/767
f 878/878 877/877 767/767
f 878/878 767/767 874/874
f 879/879 769/769 768/768
f 880/880 879/879 768/768
f 880/880 768/768 877/877
f 881/881 770/770 769/769
f 882/882 881/881 769/769
f 882/882 769/769 879/879
f 883/883 771/771 770/770
f 884/884 883/883 770/770
f 885/885 884/884 770/770
f 881/881 885/885 770/770
f 886/886 772/772 771/771
f 887/887 886/886 771/771
f 888/888 887/887 771/771
f 883/883 888/888 771/771
f 889/889 773/773 772/772
f 890/890 889/889 772/772
f 890/890 772/772 886/886
f 891/891 774/774 773/773
f 892/892 891/891 773/773
f 893/893 892/892 773/773
f 889/889 893/893 773/773
f 894/894 775/775 774/774
f 895/895 894/894 774/774
f 895/895 774/774 891/891
f 896/896 776/776 775/775
f 897/897 896/896 775/775
f 898/898 897/897 775/775
f 894/894 898/898 775/775
f 899/899 777/777 776/776
f 900/900 899/899 776/776
f 900/900 776/776 896/896
f 901/901 778/778 777/777
f 902/902 901/901 777/777
f 903/903 902/902 777/777
f 899/899 903/903 777/777
f 904/904 779/779 778/778
f 905/905 904/904 778/778
f 906/906 905/905 778/778
f 901/901 906/906 778/778
f 907/907 780/780 779/779
f 908/908 907/907 779/779
f 909/909 908/908 779/779
f 904/904 909/909 779/779
f 910/910 781/781 780/780
f 911/911 910/910 780/780
f 911/911 780/780 907/907
f 912/912 782/782 781/781
f 913/913 912/912 781/781
f 913/913 781/781 910/910
f 782/782 914/914 783/783
f 915/915 914/914 782/782
f 916/916 915/915 782/782
f 912/912 916/916 782/782
f 783/783 917/917 784/784
f 783/783 914/914 917/917
f 784/784 918/918 785/785
f 784/784 917/917 918/918
f 919/919 914/914 915/915
f 920/920 917/917 914/914
f 921/921 920/920 914/914
f 922/922 921/921 914/914
f 922/922 914/914 919/919
f 923/923 918/918 917/917
f 924/924 923/923 917/917
f 925/925 924/924 917/917
f 925/925 917/917 920/920
