# OSM contributors ODbL; elevations USGS 3DEP
# Centimeters, Z up, OBJ Y = negative Unreal Y.
o Park_Concrete_5_14
v 5389.145325 11632.282201 -507.691443
v 5389.145325 11631.363156 -507.677083
v 5388.205983 11632.302497 -507.684421
v 5322.478658 11631.363156 -507.416666
v 5322.478658 11633.722692 -507.444318
v 5339.220377 11633.360948 -507.505475
v 5431.679166 11631.363156 -508.009379
v 5389.145325 11564.696489 -506.895833
v 5322.478658 11564.696489 -506.635416
v 5455.811991 11564.696489 -507.416667
v 5455.811991 11630.841709 -508.191806
v 5522.478658 11564.696489 -507.677083
v 5456.344954 11630.830193 -508.193753
v 5471.589494 11630.500799 -508.249441
v 5522.478658 11629.401217 -508.435342
v 5589.145325 11627.960726 -508.418461
v 5589.145325 11564.696489 -507.677083
v 5524.483925 11629.357889 -508.434834
v 5655.811991 11564.696489 -507.937500
v 5592.622896 11627.885585 -508.431164
v 5603.958610 11627.640650 -508.472575
v 5655.811991 11626.520234 -508.661997
v 5722.478658 11564.696489 -507.937500
v 5660.761867 11626.413280 -508.660743
v 5670.143168 11626.210575 -508.658368
v 5722.478658 11625.079742 -508.645116
v 5789.145325 11623.639251 -508.628235
v 5789.145325 11564.696489 -507.937500
v 5728.900838 11624.940976 -508.643490
v 5855.811991 11564.696489 -507.937500
v 5797.039809 11623.468672 -508.626237
v 5802.512285 11623.350426 -508.624851
v 5855.811991 11622.198759 -508.611355
v 5922.478658 11620.758268 -508.334057
v 5922.478658 11564.696489 -507.677083
v 5865.178780 11621.996368 -508.572394
v 5989.145325 11564.696489 -507.677084
v 5933.317751 11620.524063 -508.331313
v 5934.881401 11620.490277 -508.330917
v 5989.145325 11619.317776 -508.317176
v 6055.811991 11617.877284 -508.039879
v 6055.811991 11564.696489 -507.416666
v 6001.456722 11619.051759 -508.265968
v 6001.065959 11619.060202 -508.267593
v 6122.478658 11616.436793 -507.762582
v 6122.478658 11564.696489 -507.156250
v 6069.595693 11617.579455 -507.982547
v 6067.250517 11617.630128 -507.992301
v 6189.145325 11614.996301 -507.485285
v 6189.145325 11564.696489 -506.895833
v 6137.734663 11616.107151 -507.699125
v 6133.435076 11616.200053 -507.717009
v 6255.811991 11613.555810 -506.947570
v 6255.811991 11564.696489 -506.375000
v 6205.873634 11614.634846 -507.350359
v 6199.619634 11614.769979 -507.400801
v 6322.478658 11612.115318 -506.670272
v 6322.478658 11564.696489 -506.114584
v 6274.012605 11613.162542 -506.871866
v 6265.804192 11613.339904 -506.906008
v 6389.145325 11610.674826 -506.132558
v 6389.145325 11564.696489 -505.593750
v 6342.151576 11611.690238 -506.511596
v 6331.988750 11611.909830 -506.593567
v 6455.811991 11609.234335 -505.594844
v 6455.811991 11564.696489 -505.072916
v 6410.290547 11610.217934 -505.962007
v 6398.173308 11610.479755 -506.059741
v 6522.478658 11607.793843 -505.057130
v 6522.478658 11564.696489 -504.552083
v 6478.429518 11608.745629 -505.412418
v 6464.357866 11609.049681 -505.525916
v 6589.145325 11606.353351 -504.519416
v 6589.145325 11564.696489 -504.031250
v 6546.568489 11607.273325 -504.862829
v 6530.542425 11607.619606 -504.992091
v 6655.811991 11604.912860 -503.981702
v 6655.811991 11564.696489 -503.510417
v 6614.707460 11605.801021 -504.313240
v 6596.726983 11606.189532 -504.458265
v 6722.478658 11603.472368 -503.443988
v 6722.478658 11564.696489 -502.989584
v 6682.846431 11604.328717 -503.763650
v 6662.911541 11604.759457 -503.924440
v 6789.145325 11602.031877 -502.645857
v 6789.145325 11564.696489 -502.208333
v 6750.985402 11602.856412 -503.102707
v 6729.096099 11603.329383 -503.364765
v 6855.811991 11600.591385 -502.108143
v 6855.811991 11564.696489 -501.687500
v 6819.124373 11601.384108 -502.404055
v 6795.280657 11601.899308 -502.596371
v 6922.478658 11599.150893 -501.310013
v 6922.478658 11564.696489 -500.906250
v 6887.263344 11599.911804 -501.731609
v 6861.465216 11600.469234 -502.040463
v 6989.145325 11597.710402 -500.643338
v 6989.145325 11564.696489 -500.385417
v 6955.402314 11598.439500 -501.044460
v 6927.649774 11599.039159 -501.268304
v 7055.811991 11596.269910 -499.974168
v 7055.811991 11564.696489 -499.604167
v 7023.541285 11596.967195 -500.234454
v 6993.834332 11597.609085 -500.587597
v 7122.478658 11594.829418 -499.176037
v 7122.478658 11564.696489 -498.822917
v 7091.680256 11595.494891 -499.544754
v 7060.018890 11596.179010 -499.923803
v 7189.145325 11593.388927 -498.377906
v 7189.145325 11564.696489 -498.041666
v 7159.819227 11594.022587 -498.728997
v 7126.203448 11594.748935 -499.131444
v 7255.811991 11591.948435 -497.579775
v 7255.811991 11564.696489 -497.260417
v 7227.958198 11592.550283 -497.913240
v 7192.388006 11593.318861 -498.339085
v 7322.478658 11590.507944 -496.781645
v 7322.478658 11564.696489 -496.479167
v 7296.097169 11591.077978 -497.097482
v 7258.572565 11591.888786 -497.546726
v 7389.145325 11589.067452 -495.983514
v 7389.145325 11564.696489 -495.697916
v 7364.236140 11589.605674 -496.281726
v 7324.757123 11590.458712 -496.754366
v 7455.811991 11587.626960 -495.185383
v 7455.811991 11564.696489 -494.916667
v 7432.375111 11588.133370 -495.465969
v 7390.941681 11589.028637 -495.962008
v 7522.478658 11586.186469 -494.563723
v 7522.478658 11564.696489 -494.395834
v 7500.514082 11586.661066 -494.824829
v 7457.126239 11587.598563 -495.174783
v 7589.145325 11584.745977 -493.849538
v 7589.145325 11564.696489 -493.614584
v 7568.653053 11585.188761 -494.014823
v 7523.310797 11586.168488 -494.553832
v 7655.811991 11564.696489 -492.833333
v 7636.792024 11583.716457 -493.279113
v 7655.679914 11583.308339 -493.052989
v 7655.811991 11583.305485 -493.051408
v 7589.495356 11584.738414 -493.845348
v 7722.478658 11581.864994 -492.253276
v 7722.478658 11564.696489 -492.052084
v 7704.930995 11582.244153 -492.463357
v 7789.145325 11564.696489 -491.270833
v 7773.069965 11580.771849 -491.647599
v 7788.049030 11580.448190 -491.468270
v 7789.145325 11580.424502 -491.455146
v 7855.811991 11564.696489 -490.750000
v 7841.208936 11579.299544 -491.035216
v 7854.233588 11579.018116 -490.930163
v 7855.811991 11578.984011 -490.917431
v 7922.478658 11577.543519 -490.119301
v 7922.478658 11564.696489 -489.968750
v 7909.347907 11577.827240 -490.276502
v 7989.145325 11576.103027 -489.321170
v 7989.145325 11564.696489 -489.187500
v 7977.486878 11576.354936 -489.460745
v 8055.811991 11564.696489 -488.666667
v 8045.625849 11574.882632 -488.865615
v 8052.787263 11574.727892 -488.807853
v 8055.811991 11574.662536 -488.783456
v 8122.478658 11573.222044 -488.212440
v 8122.478658 11564.696489 -488.145833
v 8113.764820 11573.410327 -488.316025
v 8189.145325 11564.696489 -487.364583
v 8181.903791 11571.938023 -487.506020
v 8185.156379 11571.867743 -487.479785
v 8189.145325 11571.781552 -487.447611
v 8255.811991 11570.341061 -486.909898
v 8255.811991 11564.696489 -486.843750
v 8250.042762 11570.465719 -486.956430
v 8322.478658 11568.900569 -486.355761
v 8322.478658 11564.696489 -486.322917
v 8318.181733 11568.993415 -486.406841
v 8317.525495 11569.007594 -486.412134
v 8389.145325 11567.460078 -485.574052
v 8389.145325 11564.696489 -485.541667
v 8386.320704 11567.521110 -485.596835
v 8383.710054 11567.577520 -485.627869
v 8455.811991 11566.019586 -485.036339
v 8455.811991 11564.696489 -485.020833
v 8454.459675 11566.048806 -485.047246
v 8449.894612 11566.147445 -485.084066
v 8516.079170 11564.717371 -484.550241
v 8517.045563 11564.696489 -484.542446
v 5389.145325 11498.029823 -506.375000
v 5322.478658 11498.029823 -505.854166
v 5455.811991 11498.029823 -506.635417
v 5522.478658 11498.029823 -506.895834
v 5589.145325 11498.029823 -507.156250
v 5655.811991 11498.029823 -507.156250
v 5722.478658 11498.029823 -507.416667
v 5789.145325 11498.029823 -507.416666
v 5855.811991 11498.029823 -507.156250
v 5922.478658 11498.029823 -507.156250
v 5989.145325 11498.029823 -506.895833
v 6055.811991 11498.029823 -506.635416
v 6122.478658 11498.029823 -506.375000
v 6189.145325 11498.029823 -506.114583
v 6255.811991 11498.029823 -505.854167
v 6322.478658 11498.029823 -505.333333
v 6389.145325 11498.029823 -505.072917
v 6455.811991 11498.029823 -504.552083
v 6522.478658 11498.029823 -504.031250
v 6589.145325 11498.029823 -503.510416
v 6655.811991 11498.029823 -502.989583
v 6722.478658 11498.029823 -502.208333
v 6789.145325 11498.029823 -501.687500
v 6855.811991 11498.029823 -500.906250
v 6922.478658 11498.029823 -500.385417
v 6989.145325 11498.029823 -499.604167
v 7055.811991 11498.029823 -498.822916
v 7122.478658 11498.029823 -498.041666
v 7189.145325 11498.029823 -497.520834
v 7255.811991 11498.029823 -496.739584
v 7322.478658 11498.029823 -495.958333
v 7389.145325 11498.029823 -495.177083
v 7455.811991 11498.029823 -494.395833
v 7522.478658 11498.029823 -493.614584
v 7589.145325 11498.029823 -492.833333
v 7655.811991 11498.029823 -492.052083
v 7722.478658 11498.029823 -491.531250
v 7789.145325 11498.029823 -490.750000
v 7855.811991 11498.029823 -489.968750
v 7922.478658 11498.029823 -489.447917
v 7989.145325 11498.029823 -488.666667
v 8055.811991 11498.029823 -488.145834
v 8122.478658 11498.029823 -487.364583
v 8189.145325 11498.029823 -486.843750
v 8255.811991 11498.029823 -486.322916
v 8322.478658 11498.029823 -485.541667
v 8389.145325 11498.029823 -485.020833
v 8455.811991 11498.029823 -484.500000
v 8522.478658 11498.029823 -483.979166
v 8522.478658 11564.579094 -484.499083
v 8589.145325 11563.138603 -483.960911
v 8589.145325 11498.029823 -483.197916
v 8522.598646 11564.576502 -484.497656
v 8655.811991 11561.666424 -483.174244
v 8655.811991 11498.029823 -482.677084
v 8590.737616 11563.104198 -483.948067
v 8648.448286 11561.857221 -483.262028
v 8649.077066 11561.842222 -483.254542
v 8722.478658 11559.926257 -482.639816
v 8722.478658 11498.029823 -482.156250
v 8658.923269 11561.585212 -483.149303
v 8789.145325 11498.029823 -481.375000
v 8727.376743 11559.798405 -482.581417
v 8770.826294 11558.664263 -482.063382
v 8789.145325 11558.186090 -481.844971
v 8855.811991 11556.445924 -481.278314
v 8855.811991 11498.029823 -480.593750
v 8795.830216 11558.011598 -481.765269
v 8922.478658 11498.029823 -480.072917
v 8864.283689 11556.224791 -481.209537
v 8892.575523 11555.486304 -480.872222
v 8922.478658 11554.705757 -480.515698
v 8989.145325 11552.965590 -479.675029
v 8989.145325 11498.029823 -479.031250
v 8932.737163 11554.437984 -480.353317
v 9055.811991 11498.029823 -478.250000
v 9001.190636 11552.651178 -479.530188
v 9014.324751 11552.308344 -479.372255
v 9055.811991 11551.225424 -478.873386
v 9122.478658 11549.485257 -477.870746
v 9122.478658 11498.029823 -477.468750
v 9069.644110 11550.864371 -478.707059
v 9189.145325 11547.745090 -476.815484
v 9189.145325 11498.029823 -476.427083
v 9138.097583 11549.077564 -477.623515
v 9136.073980 11549.130385 -477.655546
v 9255.811991 11531.544478 -475.517750
v 9255.811991 11498.029823 -475.125000
v 9209.033997 11544.807817 -476.404085
v 9250.227956 11535.490186 -475.651239
v 9196.948594 11547.541405 -476.661485
v 9298.586753 11498.029823 -474.456645
v 9294.839866 11503.967181 -474.584768
v 5389.145325 11431.363156 -505.593750
v 5322.478658 11431.363156 -505.072917
v 5455.811991 11431.363156 -505.854167
v 5522.478658 11431.363156 -506.114583
v 5589.145325 11431.363156 -506.114584
v 5655.811991 11431.363156 -506.375000
v 5722.478658 11431.363156 -506.375000
v 5789.145325 11431.363156 -506.375000
v 5855.811991 11431.363156 -506.375000
v 5922.478658 11431.363156 -506.114583
v 5989.145325 11431.363156 -506.114583
v 6055.811991 11431.363156 -505.854166
v 6122.478658 11431.363156 -505.593750
v 6189.145325 11431.363156 -505.333333
v 6255.811991 11431.363156 -505.072917
v 6322.478658 11431.363156 -504.552083
v 6389.145325 11431.363156 -504.031250
v 6455.811991 11431.363156 -503.770833
v 6522.478658 11431.363156 -503.250000
v 6589.145325 11431.363156 -502.729167
v 6655.811991 11431.363156 -502.208334
v 6722.478658 11431.363156 -501.427083
v 6789.145325 11431.363156 -500.906250
v 6855.811991 11431.363156 -500.385416
v 6922.478658 11431.363156 -499.604166
v 6989.145325 11431.363156 -498.822917
v 7055.811991 11431.363156 -498.302083
v 7122.478658 11431.363156 -497.520833
v 7189.145325 11431.363156 -496.739583
v 7255.811991 11431.363156 -495.958333
v 7322.478658 11431.363156 -495.437500
v 7389.145325 11431.363156 -494.656250
v 7455.811991 11431.363156 -493.875000
v 7522.478658 11431.363156 -493.093750
v 7589.145325 11431.363156 -492.312500
v 7655.811991 11431.363156 -491.531250
v 7722.478658 11431.363156 -491.010417
v 7789.145325 11431.363156 -490.229166
v 7855.811991 11431.363156 -489.447916
v 7922.478658 11431.363156 -488.927084
v 7989.145325 11431.363156 -488.145834
v 8055.811991 11431.363156 -487.625000
v 8122.478658 11431.363156 -487.104167
v 8189.145325 11431.363156 -486.322916
v 8255.811991 11431.363156 -485.802083
v 8322.478658 11431.363156 -485.281250
v 8389.145325 11431.363156 -484.760416
v 8455.811991 11431.363156 -483.979167
v 8522.478658 11431.363156 -483.458333
v 8589.145325 11431.363156 -482.937500
v 8655.811991 11431.363156 -482.416666
v 8722.478658 11431.363156 -481.635416
v 8789.145325 11431.363156 -480.854167
v 8855.811991 11431.363156 -480.333333
v 8922.478658 11431.363156 -479.552084
v 8989.145325 11431.363156 -478.770833
v 9055.811991 11431.363156 -477.729166
v 9122.478658 11431.363156 -476.947917
v 9189.145325 11431.363156 -475.645834
v 9255.811991 11431.363156 -474.604167
v 9322.478658 11431.363156 -473.302083
v 9322.478658 11460.170438 -473.639669
v 9328.532613 11431.363156 -473.183842
v 9323.992565 11457.771484 -473.581987
v 5389.145325 11364.696489 -504.552083
v 5322.478658 11364.696489 -504.291666
v 5455.811991 11364.696489 -504.812500
v 5522.478658 11364.696489 -504.812500
v 5589.145325 11364.696489 -504.812500
v 5655.811991 11364.696489 -504.812500
v 5722.478658 11364.696489 -504.812500
v 5789.145325 11364.696489 -504.812500
v 5855.811991 11364.696489 -504.552083
v 5922.478658 11364.696489 -504.552083
v 5989.145325 11364.696489 -504.552084
v 6055.811991 11364.696489 -504.552083
v 6122.478658 11364.696489 -504.552083
v 6189.145325 11364.696489 -504.031250
v 6255.811991 11364.696489 -503.770833
v 6322.478658 11364.696489 -503.250000
v 6389.145325 11364.696489 -502.729166
v 6455.811991 11364.696489 -502.468750
v 6522.478658 11364.696489 -501.947917
v 6589.145325 11364.696489 -501.427084
v 6655.811991 11364.696489 -500.906250
v 6722.478658 11364.696489 -500.125000
v 6789.145325 11364.696489 -499.604166
v 6855.811991 11364.696489 -498.822917
v 6922.478658 11364.696489 -498.302083
v 6989.145325 11364.696489 -497.520833
v 7055.811991 11364.696489 -496.739584
v 7122.478658 11364.696489 -496.218750
v 7189.145325 11364.696489 -495.437500
v 7255.811991 11364.696489 -494.656250
v 7322.478658 11364.696489 -494.135417
v 7389.145325 11364.696489 -493.354166
v 7455.811991 11364.696489 -492.572916
v 7522.478658 11364.696489 -491.791667
v 7589.145325 11364.696489 -491.010417
v 7655.811991 11364.696489 -490.229166
v 7722.478658 11364.696489 -489.708333
v 7789.145325 11364.696489 -488.927083
v 7855.811991 11364.696489 -488.406250
v 7922.478658 11364.696489 -487.625000
v 7989.145325 11364.696489 -487.104166
v 8055.811991 11364.696489 -486.322917
v 8122.478658 11364.696489 -485.802084
v 8189.145325 11364.696489 -485.281250
v 8255.811991 11364.696489 -484.760416
v 8322.478658 11364.696489 -483.979167
v 8389.145325 11364.696489 -483.458333
v 8455.811991 11364.696489 -482.937500
v 8522.478658 11364.696489 -482.416667
v 8589.145325 11364.696489 -481.895833
v 8655.811991 11364.696489 -481.375000
v 8722.478658 11364.696489 -480.593750
v 8789.145325 11364.696489 -480.072916
v 8855.811991 11364.696489 -479.291667
v 8922.478658 11364.696489 -478.510417
v 8989.145325 11364.696489 -477.729167
v 9055.811991 11364.696489 -476.947916
v 9122.478658 11364.696489 -475.906250
v 9189.145325 11364.696489 -474.864584
v 9255.811991 11364.696489 -473.822916
v 9322.478658 11364.696489 -472.520833
v 9329.789467 11424.052347 -473.073621
v 9333.247819 11403.935969 -472.770336
v 9324.372270 11364.696489 -472.483849
v 5389.145325 11352.216845 -504.357089
v 5333.761605 11353.413542 -504.159444
v 5322.478658 11353.657337 -504.119180
v 5455.811991 11350.776354 -504.594998
v 5401.900576 11351.941238 -504.402607
v 5399.356283 11351.996213 -504.393528
v 5522.478658 11349.335862 -504.572490
v 5470.039547 11350.468933 -504.590194
v 5589.145325 11347.895370 -504.484354
v 5538.178518 11348.996629 -504.505862
v 5531.725399 11349.136064 -504.533248
v 5655.811991 11346.454879 -504.456218
v 5606.317489 11347.524325 -504.477106
v 5597.909957 11347.705990 -504.480654
v 5722.478658 11345.014387 -504.428084
v 5674.456460 11346.052021 -504.448350
v 5789.145325 11343.573895 -504.399949
v 5742.595431 11344.579716 -504.419594
v 5730.279074 11344.845841 -504.424792
v 5855.811991 11342.133404 -504.111398
v 5810.734402 11343.107412 -504.306506
v 5922.478658 11340.692912 -504.083264
v 5878.873373 11341.635108 -504.101666
v 5862.648190 11341.985692 -504.108513
v 5989.145325 11339.252421 -504.055129
v 5947.012344 11340.162804 -504.072910
v 6055.811991 11337.811929 -504.237029
v 6015.151315 11338.690499 -504.247326
v 6122.478658 11336.371437 -504.220149
v 6083.290285 11337.218195 -504.230072
v 6061.201864 11337.695468 -504.235665
v 6189.145325 11334.930946 -503.798706
v 6151.429256 11335.745891 -504.099731
v 6255.811991 11333.490454 -503.405138
v 6219.568227 11334.273587 -503.555892
v 6193.570981 11334.835319 -503.763384
v 6322.478658 11332.049962 -502.867424
v 6287.707198 11332.801282 -503.147880
v 6389.145325 11330.609471 -502.329709
v 6355.846169 11331.328978 -502.598290
v 6455.811991 11329.168979 -502.052412
v 6423.985140 11329.856674 -502.184795
v 6392.124655 11330.545095 -502.317317
v 6522.478658 11327.728488 -501.514698
v 6492.124111 11328.384370 -501.759529
v 6589.145325 11326.287996 -500.976984
v 6560.263082 11326.912065 -501.209939
v 6655.811991 11324.847504 -500.439270
v 6628.402053 11325.439761 -500.660350
v 6590.678330 11326.254872 -500.964619
v 6722.478658 11323.407013 -499.641139
v 6696.541024 11323.967457 -499.951663
v 6789.145325 11321.966521 -499.103425
v 6764.679995 11322.495153 -499.300756
v 6723.047446 11323.394723 -499.636551
v 6855.811991 11320.526030 -498.305294
v 6855.416563 11320.534574 -498.310028
v 6832.818966 11321.022848 -498.580566
v 6922.478658 11319.085538 -497.411245
v 6921.601121 11319.104499 -497.418471
v 6900.957936 11319.550544 -497.588457
v 6989.145325 11317.645046 -496.601860
v 6987.785679 11317.674425 -496.618367
v 6969.096907 11318.078240 -496.845263
v 7055.811991 11316.204555 -495.792475
v 7053.970237 11316.244350 -495.814835
v 7037.235878 11316.605936 -496.018003
v 7122.478658 11314.764063 -495.243507
v 7120.154795 11314.814276 -495.262643
v 7105.374849 11315.133631 -495.384349
v 7189.145325 11313.323571 -494.434122
v 7186.339353 11313.384201 -494.468190
v 7173.513820 11313.661327 -494.623901
v 7255.811991 11311.883080 -493.624738
v 7252.523912 11311.954127 -493.664658
v 7241.652791 11312.189023 -493.796642
v 7322.478658 11310.442588 -493.075770
v 7318.708470 11310.524052 -493.106816
v 7309.791762 11310.716719 -493.180241
v 7389.145325 11309.002097 -492.266386
v 7384.893028 11309.093978 -492.318012
v 7377.930733 11309.244414 -492.402539
v 7455.811991 11307.561605 -491.233818
v 7451.077586 11307.663903 -491.291697
v 7446.069704 11307.772110 -491.352918
v 7522.478658 11306.121113 -490.189996
v 7517.262144 11306.233828 -490.254209
v 7514.208675 11306.299806 -490.291796
v 7589.145325 11304.680622 -489.369358
v 7583.446703 11304.803754 -489.439505
v 7582.347646 11304.827502 -489.453034
v 7655.811991 11303.240130 -488.788784
v 7650.486617 11303.355197 -488.853886
v 7722.478658 11301.799638 -487.988497
v 7718.625587 11301.882893 -488.020876
v 7715.815819 11301.943605 -488.055226
v 7789.145325 11300.359147 -487.419176
v 7786.764558 11300.410589 -487.448283
v 7855.811991 11298.918655 -486.864582
v 7854.903529 11298.938285 -486.872139
v 7922.478658 11298.029823 -485.802084
v 7896.947604 11298.029823 -486.201006
v 7989.145325 11298.029823 -485.020834
v 8055.811991 11298.029823 -484.239583
v 8122.478658 11298.029823 -483.718750
v 8189.145325 11298.029823 -482.937500
v 8255.811991 11298.029823 -482.416667
v 8322.478658 11298.029823 -481.635417
v 8389.145325 11298.029823 -481.114584
v 8455.811991 11298.029823 -480.854166
v 8522.478658 11298.029823 -480.072917
v 8589.145325 11298.029823 -479.552084
v 8655.811991 11298.029823 -479.031250
v 8722.478658 11298.029823 -478.510416
v 8789.145325 11298.029823 -477.989583
v 8855.811991 11298.029823 -477.468750
v 8922.478658 11298.029823 -476.947917
v 8989.145325 11298.029823 -475.906250
v 9055.811991 11298.029823 -474.864583
v 9122.478658 11298.029823 -474.083334
v 9189.145325 11298.029823 -473.041667
v 9255.811991 11298.029823 -472.000000
v 9322.478658 11356.324687 -472.324619
v 9321.196599 11350.656607 -472.216814
v 9299.937759 11320.570722 -471.926888
v 9289.673595 11306.044697 -471.690069
v 9276.973134 11298.029823 -471.669357
v 9324.022964 11363.152183 -472.454476
v 7922.478658 11297.478164 -485.786999
v 7914.369493 11297.653381 -485.918496
v 7989.145325 11296.037672 -484.958578
v 7980.554052 11296.223307 -485.065059
v 7923.042500 11297.465980 -485.777856
v 8055.811991 11294.597180 -484.118904
v 8046.738610 11294.793232 -484.232126
v 7991.181471 11295.993676 -484.925389
v 8122.478658 11293.156689 -483.528393
v 8112.923168 11293.363158 -483.611111
v 8059.320442 11294.521372 -484.075125
v 8189.145325 11291.716197 -482.690874
v 8179.107726 11291.933083 -482.816974
v 8127.459413 11293.049068 -483.465821
v 8255.811991 11290.275705 -482.113771
v 8245.292284 11290.503009 -482.204835
v 8195.598384 11291.576763 -482.635013
v 8322.478658 11288.835214 -481.276252
v 8311.476842 11289.072934 -481.414466
v 8263.737355 11290.104459 -482.014206
v 8389.145325 11287.394722 -480.699150
v 8377.661401 11287.642860 -480.798561
v 8331.876326 11288.632155 -481.194901
v 8455.811991 11285.954231 -480.288123
v 8443.845959 11286.212785 -480.346985
v 8400.015297 11287.159851 -480.562593
v 8522.478658 11284.513739 -479.492148
v 8510.030517 11284.782711 -479.649582
v 8468.154268 11285.687546 -480.179198
v 8589.145325 11283.073247 -478.909417
v 8576.215075 11283.352636 -479.022441
v 8536.293238 11284.215242 -479.371395
v 8655.811991 11281.571052 -478.452621
v 8642.085227 11281.929355 -478.572459
v 8604.432209 11282.742938 -478.895225
v 8722.478658 11279.830886 -478.083879
v 8702.645469 11280.348581 -478.250959
v 8672.711891 11281.129923 -478.503128
v 8789.145325 11278.090719 -477.678035
v 8763.520083 11278.759602 -477.888683
v 8741.165365 11279.343116 -478.072447
v 8855.811991 11276.350552 -477.384065
v 8824.394697 11277.170622 -477.632716
v 8809.618838 11277.556309 -477.749660
v 8922.478658 11274.610386 -477.130881
v 8885.269311 11275.581643 -477.413991
v 8878.072312 11275.769502 -477.468750
v 8989.145325 11272.870219 -476.299369
v 8946.525785 11273.982695 -476.947916
v 8946.143926 11273.992663 -476.950822
v 9055.811991 11271.130052 -475.179815
v 9014.979259 11272.195889 -475.805336
v 9122.478658 11269.389886 -474.418958
v 9083.432732 11270.409082 -474.864584
v 9067.893154 11270.814704 -475.041935
v 9189.145325 11267.649719 -473.516356
v 9151.886206 11268.622275 -474.083333
v 9255.811991 11284.675670 -472.365153
v 9243.477897 11276.891998 -472.770708
v 9215.152733 11272.022414 -473.346441
v 9189.642383 11267.636744 -473.514617
v 9263.999351 11289.842463 -472.127927
vt 26.945727 -58.161411
vt 26.945727 -58.156816
vt 26.941030 -58.161512
vt 26.612393 -58.156816
vt 26.612393 -58.168613
vt 26.696102 -58.166805
vt 27.158396 -58.156816
vt 26.945727 -57.823482
vt 26.612393 -57.823482
vt 27.279060 -57.823482
vt 27.279060 -58.154209
vt 27.612393 -57.823482
vt 27.281725 -58.154151
vt 27.357947 -58.152504
vt 27.612393 -58.147006
vt 27.945727 -58.139804
vt 27.945727 -57.823482
vt 27.622420 -58.146789
vt 28.279060 -57.823482
vt 27.963114 -58.139428
vt 28.019793 -58.138203
vt 28.279060 -58.132601
vt 28.612393 -57.823482
vt 28.303809 -58.132066
vt 28.350716 -58.131053
vt 28.612393 -58.125399
vt 28.945727 -58.118196
vt 28.945727 -57.823482
vt 28.644504 -58.124705
vt 29.279060 -57.823482
vt 28.985199 -58.117343
vt 29.012561 -58.116752
vt 29.279060 -58.110994
vt 29.612393 -58.103791
vt 29.612393 -57.823482
vt 29.325894 -58.109982
vt 29.945727 -57.823482
vt 29.666589 -58.102620
vt 29.674407 -58.102451
vt 29.945727 -58.096589
vt 30.279060 -58.089386
vt 30.279060 -57.823482
vt 30.007284 -58.095259
vt 30.005330 -58.095301
vt 30.612393 -58.082184
vt 30.612393 -57.823482
vt 30.347978 -58.087897
vt 30.336253 -58.088151
vt 30.945727 -58.074982
vt 30.945727 -57.823482
vt 30.688673 -58.080536
vt 30.667175 -58.081000
vt 31.279060 -58.067779
vt 31.279060 -57.823482
vt 31.029368 -58.073174
vt 30.998098 -58.073850
vt 31.612393 -58.060577
vt 31.612393 -57.823482
vt 31.370063 -58.065813
vt 31.329021 -58.066700
vt 31.945727 -58.053374
vt 31.945727 -57.823482
vt 31.710758 -58.058451
vt 31.659944 -58.059549
vt 32.279060 -58.046172
vt 32.279060 -57.823482
vt 32.051453 -58.051090
vt 31.990867 -58.052399
vt 32.612393 -58.038969
vt 32.612393 -57.823482
vt 32.392148 -58.043728
vt 32.321789 -58.045248
vt 32.945727 -58.031767
vt 32.945727 -57.823482
vt 32.732842 -58.036367
vt 32.652712 -58.038098
vt 33.279060 -58.024564
vt 33.279060 -57.823482
vt 33.073537 -58.029005
vt 32.983635 -58.030948
vt 33.612393 -58.017362
vt 33.612393 -57.823482
vt 33.414232 -58.021644
vt 33.314558 -58.023797
vt 33.945727 -58.010159
vt 33.945727 -57.823482
vt 33.754927 -58.014282
vt 33.645480 -58.016647
vt 34.279060 -58.002957
vt 34.279060 -57.823482
vt 34.095622 -58.006921
vt 33.976403 -58.009497
vt 34.612393 -57.995754
vt 34.612393 -57.823482
vt 34.436317 -57.999559
vt 34.307326 -58.002346
vt 34.945727 -57.988552
vt 34.945727 -57.823482
vt 34.777012 -57.992197
vt 34.638249 -57.995196
vt 35.279060 -57.981350
vt 35.279060 -57.823482
vt 35.117706 -57.984836
vt 34.969172 -57.988045
vt 35.612393 -57.974147
vt 35.612393 -57.823482
vt 35.458401 -57.977474
vt 35.300094 -57.980895
vt 35.945727 -57.966945
vt 35.945727 -57.823482
vt 35.799096 -57.970113
vt 35.631017 -57.973745
vt 36.279060 -57.959742
vt 36.279060 -57.823482
vt 36.139791 -57.962751
vt 35.961940 -57.966594
vt 36.612393 -57.952540
vt 36.612393 -57.823482
vt 36.480486 -57.955390
vt 36.292863 -57.959444
vt 36.945727 -57.945337
vt 36.945727 -57.823482
vt 36.821181 -57.948028
vt 36.623786 -57.952294
vt 37.279060 -57.938135
vt 37.279060 -57.823482
vt 37.161876 -57.940667
vt 36.954708 -57.945143
vt 37.612393 -57.930932
vt 37.612393 -57.823482
vt 37.502570 -57.933305
vt 37.285631 -57.937993
vt 37.945727 -57.923730
vt 37.945727 -57.823482
vt 37.843265 -57.925944
vt 37.616554 -57.930842
vt 38.279060 -57.823482
vt 38.183960 -57.918582
vt 38.278400 -57.916542
vt 38.279060 -57.916527
vt 37.947477 -57.923692
vt 38.612393 -57.909325
vt 38.612393 -57.823482
vt 38.524655 -57.911221
vt 38.945727 -57.823482
vt 38.865350 -57.903859
vt 38.940245 -57.902241
vt 38.945727 -57.902123
vt 39.279060 -57.823482
vt 39.206045 -57.896498
vt 39.271168 -57.895091
vt 39.279060 -57.894920
vt 39.612393 -57.887718
vt 39.612393 -57.823482
vt 39.546740 -57.889136
vt 39.945727 -57.880515
vt 39.945727 -57.823482
vt 39.887434 -57.881775
vt 40.279060 -57.823482
vt 40.228129 -57.874413
vt 40.263936 -57.873639
vt 40.279060 -57.873313
vt 40.612393 -57.866110
vt 40.612393 -57.823482
vt 40.568824 -57.867052
vt 40.945727 -57.823482
vt 40.909519 -57.859690
vt 40.925782 -57.859339
vt 40.945727 -57.858908
vt 41.279060 -57.851705
vt 41.279060 -57.823482
vt 41.250214 -57.852329
vt 41.612393 -57.844503
vt 41.612393 -57.823482
vt 41.590909 -57.844967
vt 41.587627 -57.845038
vt 41.945727 -57.837300
vt 41.945727 -57.823482
vt 41.931604 -57.837606
vt 41.918550 -57.837888
vt 42.279060 -57.830098
vt 42.279060 -57.823482
vt 42.272298 -57.830244
vt 42.249473 -57.830737
vt 42.580396 -57.823587
vt 42.585228 -57.823482
vt 26.945727 -57.490149
vt 26.612393 -57.490149
vt 27.279060 -57.490149
vt 27.612393 -57.490149
vt 27.945727 -57.490149
vt 28.279060 -57.490149
vt 28.612393 -57.490149
vt 28.945727 -57.490149
vt 29.279060 -57.490149
vt 29.612393 -57.490149
vt 29.945727 -57.490149
vt 30.279060 -57.490149
vt 30.612393 -57.490149
vt 30.945727 -57.490149
vt 31.279060 -57.490149
vt 31.612393 -57.490149
vt 31.945727 -57.490149
vt 32.279060 -57.490149
vt 32.612393 -57.490149
vt 32.945727 -57.490149
vt 33.279060 -57.490149
vt 33.612393 -57.490149
vt 33.945727 -57.490149
vt 34.279060 -57.490149
vt 34.612393 -57.490149
vt 34.945727 -57.490149
vt 35.279060 -57.490149
vt 35.612393 -57.490149
vt 35.945727 -57.490149
vt 36.279060 -57.490149
vt 36.612393 -57.490149
vt 36.945727 -57.490149
vt 37.279060 -57.490149
vt 37.612393 -57.490149
vt 37.945727 -57.490149
vt 38.279060 -57.490149
vt 38.612393 -57.490149
vt 38.945727 -57.490149
vt 39.279060 -57.490149
vt 39.612393 -57.490149
vt 39.945727 -57.490149
vt 40.279060 -57.490149
vt 40.612393 -57.490149
vt 40.945727 -57.490149
vt 41.279060 -57.490149
vt 41.612393 -57.490149
vt 41.945727 -57.490149
vt 42.279060 -57.490149
vt 42.612393 -57.490149
vt 42.612393 -57.822895
vt 42.945727 -57.815693
vt 42.945727 -57.490149
vt 42.612993 -57.822883
vt 43.279060 -57.808332
vt 43.279060 -57.490149
vt 42.953688 -57.815521
vt 43.242241 -57.809286
vt 43.245385 -57.809211
vt 43.612393 -57.799631
vt 43.612393 -57.490149
vt 43.294616 -57.807926
vt 43.945727 -57.490149
vt 43.636884 -57.798992
vt 43.854131 -57.793321
vt 43.945727 -57.790930
vt 44.279060 -57.782230
vt 44.279060 -57.490149
vt 43.979151 -57.790058
vt 44.612393 -57.490149
vt 44.321418 -57.781124
vt 44.462878 -57.777432
vt 44.612393 -57.773529
vt 44.945727 -57.764828
vt 44.945727 -57.490149
vt 44.663686 -57.772190
vt 45.279060 -57.490149
vt 45.005953 -57.763256
vt 45.071624 -57.761542
vt 45.279060 -57.756127
vt 45.612393 -57.747426
vt 45.612393 -57.490149
vt 45.348221 -57.754322
vt 45.945727 -57.738725
vt 45.945727 -57.490149
vt 45.690488 -57.745388
vt 45.680370 -57.745652
vt 46.279060 -57.657722
vt 46.279060 -57.490149
vt 46.045170 -57.724039
vt 46.251140 -57.677451
vt 45.984743 -57.737707
vt 46.492934 -57.490149
vt 46.474199 -57.519836
vt 26.945727 -57.156816
vt 26.612393 -57.156816
vt 27.279060 -57.156816
vt 27.612393 -57.156816
vt 27.945727 -57.156816
vt 28.279060 -57.156816
vt 28.612393 -57.156816
vt 28.945727 -57.156816
vt 29.279060 -57.156816
vt 29.612393 -57.156816
vt 29.945727 -57.156816
vt 30.279060 -57.156816
vt 30.612393 -57.156816
vt 30.945727 -57.156816
vt 31.279060 -57.156816
vt 31.612393 -57.156816
vt 31.945727 -57.156816
vt 32.279060 -57.156816
vt 32.612393 -57.156816
vt 32.945727 -57.156816
vt 33.279060 -57.156816
vt 33.612393 -57.156816
vt 33.945727 -57.156816
vt 34.279060 -57.156816
vt 34.612393 -57.156816
vt 34.945727 -57.156816
vt 35.279060 -57.156816
vt 35.612393 -57.156816
vt 35.945727 -57.156816
vt 36.279060 -57.156816
vt 36.612393 -57.156816
vt 36.945727 -57.156816
vt 37.279060 -57.156816
vt 37.612393 -57.156816
vt 37.945727 -57.156816
vt 38.279060 -57.156816
vt 38.612393 -57.156816
vt 38.945727 -57.156816
vt 39.279060 -57.156816
vt 39.612393 -57.156816
vt 39.945727 -57.156816
vt 40.279060 -57.156816
vt 40.612393 -57.156816
vt 40.945727 -57.156816
vt 41.279060 -57.156816
vt 41.612393 -57.156816
vt 41.945727 -57.156816
vt 42.279060 -57.156816
vt 42.612393 -57.156816
vt 42.945727 -57.156816
vt 43.279060 -57.156816
vt 43.612393 -57.156816
vt 43.945727 -57.156816
vt 44.279060 -57.156816
vt 44.612393 -57.156816
vt 44.945727 -57.156816
vt 45.279060 -57.156816
vt 45.612393 -57.156816
vt 45.945727 -57.156816
vt 46.279060 -57.156816
vt 46.612393 -57.156816
vt 46.612393 -57.300852
vt 46.642663 -57.156816
vt 46.619963 -57.288857
vt 26.945727 -56.823482
vt 26.612393 -56.823482
vt 27.279060 -56.823482
vt 27.612393 -56.823482
vt 27.945727 -56.823482
vt 28.279060 -56.823482
vt 28.612393 -56.823482
vt 28.945727 -56.823482
vt 29.279060 -56.823482
vt 29.612393 -56.823482
vt 29.945727 -56.823482
vt 30.279060 -56.823482
vt 30.612393 -56.823482
vt 30.945727 -56.823482
vt 31.279060 -56.823482
vt 31.612393 -56.823482
vt 31.945727 -56.823482
vt 32.279060 -56.823482
vt 32.612393 -56.823482
vt 32.945727 -56.823482
vt 33.279060 -56.823482
vt 33.612393 -56.823482
vt 33.945727 -56.823482
vt 34.279060 -56.823482
vt 34.612393 -56.823482
vt 34.945727 -56.823482
vt 35.279060 -56.823482
vt 35.612393 -56.823482
vt 35.945727 -56.823482
vt 36.279060 -56.823482
vt 36.612393 -56.823482
vt 36.945727 -56.823482
vt 37.279060 -56.823482
vt 37.612393 -56.823482
vt 37.945727 -56.823482
vt 38.279060 -56.823482
vt 38.612393 -56.823482
vt 38.945727 -56.823482
vt 39.279060 -56.823482
vt 39.612393 -56.823482
vt 39.945727 -56.823482
vt 40.279060 -56.823482
vt 40.612393 -56.823482
vt 40.945727 -56.823482
vt 41.279060 -56.823482
vt 41.612393 -56.823482
vt 41.945727 -56.823482
vt 42.279060 -56.823482
vt 42.612393 -56.823482
vt 42.945727 -56.823482
vt 43.279060 -56.823482
vt 43.612393 -56.823482
vt 43.945727 -56.823482
vt 44.279060 -56.823482
vt 44.612393 -56.823482
vt 44.945727 -56.823482
vt 45.279060 -56.823482
vt 45.612393 -56.823482
vt 45.945727 -56.823482
vt 46.279060 -56.823482
vt 46.612393 -56.823482
vt 46.648947 -57.120262
vt 46.666239 -57.019680
vt 46.621861 -56.823482
vt 26.945727 -56.761084
vt 26.668808 -56.767068
vt 26.612393 -56.768287
vt 27.279060 -56.753882
vt 27.009503 -56.759706
vt 26.996781 -56.759981
vt 27.612393 -56.746679
vt 27.350198 -56.752345
vt 27.945727 -56.739477
vt 27.690893 -56.744983
vt 27.658627 -56.745680
vt 28.279060 -56.732274
vt 28.031587 -56.737622
vt 27.989550 -56.738530
vt 28.612393 -56.725072
vt 28.372282 -56.730260
vt 28.945727 -56.717869
vt 28.712977 -56.722899
vt 28.651395 -56.724229
vt 29.279060 -56.710667
vt 29.053672 -56.715537
vt 29.612393 -56.703465
vt 29.394367 -56.708176
vt 29.313241 -56.709928
vt 29.945727 -56.696262
vt 29.735062 -56.700814
vt 30.279060 -56.689060
vt 30.075757 -56.693452
vt 30.612393 -56.681857
vt 30.416451 -56.686091
vt 30.306009 -56.688477
vt 30.945727 -56.674655
vt 30.757146 -56.678729
vt 31.279060 -56.667452
vt 31.097841 -56.671368
vt 30.967855 -56.674177
vt 31.612393 -56.660250
vt 31.438536 -56.664006
vt 31.945727 -56.653047
vt 31.779231 -56.656645
vt 32.279060 -56.645845
vt 32.119926 -56.649283
vt 31.960623 -56.652725
vt 32.612393 -56.638642
vt 32.460621 -56.641922
vt 32.945727 -56.631440
vt 32.801315 -56.634560
vt 33.279060 -56.624238
vt 33.142010 -56.627199
vt 32.953392 -56.631274
vt 33.612393 -56.617035
vt 33.482705 -56.619837
vt 33.945727 -56.609833
vt 33.823400 -56.612476
vt 33.615237 -56.616974
vt 34.279060 -56.602630
vt 34.277083 -56.602673
vt 34.164095 -56.605114
vt 34.612393 -56.595428
vt 34.608006 -56.595522
vt 34.504790 -56.597753
vt 34.945727 -56.588225
vt 34.938928 -56.588372
vt 34.845485 -56.590391
vt 35.279060 -56.581023
vt 35.269851 -56.581222
vt 35.186179 -56.583030
vt 35.612393 -56.573820
vt 35.600774 -56.574071
vt 35.526874 -56.575668
vt 35.945727 -56.566618
vt 35.931697 -56.566921
vt 35.867569 -56.568307
vt 36.279060 -56.559415
vt 36.262620 -56.559771
vt 36.208264 -56.560945
vt 36.612393 -56.552213
vt 36.593542 -56.552620
vt 36.548959 -56.553584
vt 36.945727 -56.545010
vt 36.924465 -56.545470
vt 36.889654 -56.546222
vt 37.279060 -56.537808
vt 37.255388 -56.538320
vt 37.230349 -56.538861
vt 37.612393 -56.530606
vt 37.586311 -56.531169
vt 37.571043 -56.531499
vt 37.945727 -56.523403
vt 37.917234 -56.524019
vt 37.911738 -56.524138
vt 38.279060 -56.516201
vt 38.252433 -56.516776
vt 38.612393 -56.508998
vt 38.593128 -56.509414
vt 38.579079 -56.509718
vt 38.945727 -56.501796
vt 38.933823 -56.502053
vt 39.279060 -56.494593
vt 39.274518 -56.494691
vt 39.612393 -56.490149
vt 39.484738 -56.490149
vt 39.945727 -56.490149
vt 40.279060 -56.490149
vt 40.612393 -56.490149
vt 40.945727 -56.490149
vt 41.279060 -56.490149
vt 41.612393 -56.490149
vt 41.945727 -56.490149
vt 42.279060 -56.490149
vt 42.612393 -56.490149
vt 42.945727 -56.490149
vt 43.279060 -56.490149
vt 43.612393 -56.490149
vt 43.945727 -56.490149
vt 44.279060 -56.490149
vt 44.612393 -56.490149
vt 44.945727 -56.490149
vt 45.279060 -56.490149
vt 45.612393 -56.490149
vt 45.945727 -56.490149
vt 46.279060 -56.490149
vt 46.612393 -56.781623
vt 46.605983 -56.753283
vt 46.499689 -56.602854
vt 46.448368 -56.530223
vt 46.384866 -56.490149
vt 46.620115 -56.815761
vt 39.612393 -56.487391
vt 39.571847 -56.488267
vt 39.945727 -56.480188
vt 39.902770 -56.481117
vt 39.615213 -56.487330
vt 40.279060 -56.472986
vt 40.233693 -56.473966
vt 39.955907 -56.479968
vt 40.612393 -56.465783
vt 40.564616 -56.466816
vt 40.296602 -56.472607
vt 40.945727 -56.458581
vt 40.895539 -56.459665
vt 40.637297 -56.465245
vt 41.279060 -56.451379
vt 41.226461 -56.452515
vt 40.977992 -56.457884
vt 41.612393 -56.444176
vt 41.557384 -56.445365
vt 41.318687 -56.450522
vt 41.945727 -56.436974
vt 41.888307 -56.438214
vt 41.659382 -56.443161
vt 42.279060 -56.429771
vt 42.219230 -56.431064
vt 42.000076 -56.435799
vt 42.612393 -56.422569
vt 42.550153 -56.423914
vt 42.340771 -56.428438
vt 42.945727 -56.415366
vt 42.881075 -56.416763
vt 42.681466 -56.421076
vt 43.279060 -56.407855
vt 43.210426 -56.409647
vt 43.022161 -56.413715
vt 43.612393 -56.399154
vt 43.513227 -56.401743
vt 43.363559 -56.405650
vt 43.945727 -56.390454
vt 43.817600 -56.393798
vt 43.705827 -56.396716
vt 44.279060 -56.381753
vt 44.121973 -56.385853
vt 44.048094 -56.387782
vt 44.612393 -56.373052
vt 44.426347 -56.377908
vt 44.390362 -56.378848
vt 44.945727 -56.364351
vt 44.732629 -56.369913
vt 44.730720 -56.369963
vt 45.279060 -56.355650
vt 45.074896 -56.360979
vt 45.612393 -56.346949
vt 45.417164 -56.352045
vt 45.339466 -56.354074
vt 45.945727 -56.338249
vt 45.759431 -56.343111
vt 46.279060 -56.423378
vt 46.217389 -56.384460
vt 46.075764 -56.360112
vt 45.948212 -56.338184
vt 46.319997 -56.449212
f 3/3 2/2 1/1
f 5/5 4/4 2/2
f 6/6 5/5 2/2
f 3/3 6/6 2/2
f 1/1 2/2 7/7
f 4/4 8/8 2/2
f 4/4 9/9 8/8
f 7/7 2/2 10/10
f 11/11 7/7 10/10
f 2/2 8/8 10/10
f 14/14 13/13 12/12
f 15/15 14/14 12/12
f 11/11 10/10 12/12
f 13/13 11/11 12/12
f 18/18 17/17 16/16
f 15/15 12/12 17/17
f 18/18 15/15 17/17
f 21/21 20/20 19/19
f 22/22 21/21 19/19
f 16/16 17/17 19/19
f 20/20 16/16 19/19
f 25/25 24/24 23/23
f 26/26 25/25 23/23
f 22/22 19/19 23/23
f 24/24 22/22 23/23
f 29/29 28/28 27/27
f 26/26 23/23 28/28
f 29/29 26/26 28/28
f 32/32 31/31 30/30
f 33/33 32/32 30/30
f 27/27 28/28 30/30
f 31/31 27/27 30/30
f 36/36 35/35 34/34
f 33/33 30/30 35/35
f 36/36 33/33 35/35
f 39/39 38/38 37/37
f 40/40 39/39 37/37
f 34/34 35/35 37/37
f 38/38 34/34 37/37
f 43/43 42/42 41/41
f 40/40 37/37 42/42
f 44/44 40/40 42/42
f 43/43 44/44 42/42
f 47/47 46/46 45/45
f 41/41 42/42 46/46
f 48/48 41/41 46/46
f 47/47 48/48 46/46
f 51/51 50/50 49/49
f 45/45 46/46 50/50
f 52/52 45/45 50/50
f 51/51 52/52 50/50
f 55/55 54/54 53/53
f 49/49 50/50 54/54
f 56/56 49/49 54/54
f 55/55 56/56 54/54
f 59/59 58/58 57/57
f 53/53 54/54 58/58
f 60/60 53/53 58/58
f 59/59 60/60 58/58
f 63/63 62/62 61/61
f 57/57 58/58 62/62
f 64/64 57/57 62/62
f 63/63 64/64 62/62
f 67/67 66/66 65/65
f 61/61 62/62 66/66
f 68/68 61/61 66/66
f 67/67 68/68 66/66
f 71/71 70/70 69/69
f 65/65 66/66 70/70
f 72/72 65/65 70/70
f 71/71 72/72 70/70
f 75/75 74/74 73/73
f 69/69 70/70 74/74
f 76/76 69/69 74/74
f 75/75 76/76 74/74
f 79/79 78/78 77/77
f 73/73 74/74 78/78
f 80/80 73/73 78/78
f 79/79 80/80 78/78
f 83/83 82/82 81/81
f 77/77 78/78 82/82
f 84/84 77/77 82/82
f 83/83 84/84 82/82
f 87/87 86/86 85/85
f 81/81 82/82 86/86
f 88/88 81/81 86/86
f 87/87 88/88 86/86
f 91/91 90/90 89/89
f 85/85 86/86 90/90
f 92/92 85/85 90/90
f 91/91 92/92 90/90
f 95/95 94/94 93/93
f 89/89 90/90 94/94
f 96/96 89/89 94/94
f 95/95 96/96 94/94
f 99/99 98/98 97/97
f 93/93 94/94 98/98
f 100/100 93/93 98/98
f 99/99 100/100 98/98
f 103/103 102/102 101/101
f 97/97 98/98 102/102
f 104/104 97/97 102/102
f 103/103 104/104 102/102
f 107/107 106/106 105/105
f 101/101 102/102 106/106
f 108/108 101/101 106/106
f 107/107 108/108 106/106
f 111/111 110/110 109/109
f 105/105 106/106 110/110
f 112/112 105/105 110/110
f 111/111 112/112 110/110
f 115/115 114/114 113/113
f 109/109 110/110 114/114
f 116/116 109/109 114/114
f 115/115 116/116 114/114
f 119/119 118/118 117/117
f 113/113 114/114 118/118
f 120/120 113/113 118/118
f 119/119 120/120 118/118
f 123/123 122/122 121/121
f 117/117 118/118 122/122
f 124/124 117/117 122/122
f 123/123 124/124 122/122
f 127/127 126/126 125/125
f 121/121 122/122 126/126
f 128/128 121/121 126/126
f 127/127 128/128 126/126
f 131/131 130/130 129/129
f 125/125 126/126 130/130
f 132/132 125/125 130/130
f 131/131 132/132 130/130
f 135/135 134/134 133/133
f 129/129 130/130 134/134
f 136/136 129/129 134/134
f 135/135 136/136 134/134
f 139/139 138/138 137/137
f 140/140 139/139 137/137
f 133/133 134/134 137/137
f 141/141 133/133 137/137
f 138/138 141/141 137/137
f 144/144 143/143 142/142
f 140/140 137/137 143/143
f 144/144 140/140 143/143
f 147/147 146/146 145/145
f 148/148 147/147 145/145
f 142/142 143/143 145/145
f 146/146 142/142 145/145
f 151/151 150/150 149/149
f 152/152 151/151 149/149
f 148/148 145/145 149/149
f 150/150 148/148 149/149
f 155/155 154/154 153/153
f 152/152 149/149 154/154
f 155/155 152/152 154/154
f 158/158 157/157 156/156
f 153/153 154/154 157/157
f 158/158 153/153 157/157
f 161/161 160/160 159/159
f 162/162 161/161 159/159
f 156/156 157/157 159/159
f 160/160 156/156 159/159
f 165/165 164/164 163/163
f 162/162 159/159 164/164
f 165/165 162/162 164/164
f 168/168 167/167 166/166
f 169/169 168/168 166/166
f 163/163 164/164 166/166
f 167/167 163/163 166/166
f 172/172 171/171 170/170
f 169/169 166/166 171/171
f 172/172 169/169 171/171
f 175/175 174/174 173/173
f 170/170 171/171 174/174
f 176/176 170/170 174/174
f 175/175 176/176 174/174
f 179/179 178/178 177/177
f 173/173 174/174 178/178
f 180/180 173/173 178/178
f 179/179 180/180 178/178
f 183/183 182/182 181/181
f 177/177 178/178 182/182
f 184/184 177/177 182/182
f 183/183 184/184 182/182
f 185/185 181/181 182/182
f 186/186 185/185 182/182
f 9/9 187/187 8/8
f 9/9 188/188 187/187
f 8/8 189/189 10/10
f 8/8 187/187 189/189
f 10/10 190/190 12/12
f 10/10 189/189 190/190
f 12/12 191/191 17/17
f 12/12 190/190 191/191
f 17/17 192/192 19/19
f 17/17 191/191 192/192
f 19/19 193/193 23/23
f 19/19 192/192 193/193
f 23/23 194/194 28/28
f 23/23 193/193 194/194
f 28/28 195/195 30/30
f 28/28 194/194 195/195
f 30/30 196/196 35/35
f 30/30 195/195 196/196
f 35/35 197/197 37/37
f 35/35 196/196 197/197
f 37/37 198/198 42/42
f 37/37 197/197 198/198
f 42/42 199/199 46/46
f 42/42 198/198 199/199
f 46/46 200/200 50/50
f 46/46 199/199 200/200
f 50/50 201/201 54/54
f 50/50 200/200 201/201
f 54/54 202/202 58/58
f 54/54 201/201 202/202
f 58/58 203/203 62/62
f 58/58 202/202 203/203
f 62/62 204/204 66/66
f 62/62 203/203 204/204
f 66/66 205/205 70/70
f 66/66 204/204 205/205
f 70/70 206/206 74/74
f 70/70 205/205 206/206
f 74/74 207/207 78/78
f 74/74 206/206 207/207
f 78/78 208/208 82/82
f 78/78 207/207 208/208
f 82/82 209/209 86/86
f 82/82 208/208 209/209
f 86/86 210/210 90/90
f 86/86 209/209 210/210
f 90/90 211/211 94/94
f 90/90 210/210 211/211
f 94/94 212/212 98/98
f 94/94 211/211 212/212
f 98/98 213/213 102/102
f 98/98 212/212 213/213
f 102/102 214/214 106/106
f 102/102 213/213 214/214
f 106/106 215/215 110/110
f 106/106 214/214 215/215
f 110/110 216/216 114/114
f 110/110 215/215 216/216
f 114/114 217/217 118/118
f 114/114 216/216 217/217
f 118/118 218/218 122/122
f 118/118 217/217 218/218
f 122/122 219/219 126/126
f 122/122 218/218 219/219
f 126/126 220/220 130/130
f 126/126 219/219 220/220
f 130/130 221/221 134/134
f 130/130 220/220 221/221
f 134/134 222/222 137/137
f 134/134 221/221 222/222
f 137/137 223/223 143/143
f 137/137 222/222 223/223
f 143/143 224/224 145/145
f 143/143 223/223 224/224
f 145/145 225/225 149/149
f 145/145 224/224 225/225
f 149/149 226/226 154/154
f 149/149 225/225 226/226
f 154/154 227/227 157/157
f 154/154 226/226 227/227
f 157/157 228/228 159/159
f 157/157 227/227 228/228
f 159/159 229/229 164/164
f 159/159 228/228 229/229
f 164/164 230/230 166/166
f 164/164 229/229 230/230
f 166/166 231/231 171/171
f 166/166 230/230 231/231
f 171/171 232/232 174/174
f 171/171 231/231 232/232
f 174/174 233/233 178/178
f 174/174 232/232 233/233
f 178/178 234/234 182/182
f 178/178 233/233 234/234
f 186/186 182/182 235/235
f 236/236 186/186 235/235
f 182/182 234/234 235/235
f 239/239 238/238 237/237
f 236/236 235/235 238/238
f 239/239 236/236 238/238
f 242/242 241/241 240/240
f 243/243 242/242 240/240
f 244/244 243/243 240/240
f 237/237 238/238 241/241
f 242/242 237/237 241/241
f 247/247 246/246 245/245
f 240/240 241/241 246/246
f 247/247 240/240 246/246
f 250/250 249/249 248/248
f 251/251 250/250 248/248
f 245/245 246/246 248/248
f 249/249 245/245 248/248
f 254/254 253/253 252/252
f 251/251 248/248 253/253
f 254/254 251/251 253/253
f 257/257 256/256 255/255
f 258/258 257/257 255/255
f 252/252 253/253 255/255
f 256/256 252/252 255/255
f 261/261 260/260 259/259
f 258/258 255/255 260/260
f 261/261 258/258 260/260
f 264/264 263/263 262/262
f 265/265 264/264 262/262
f 259/259 260/260 262/262
f 263/263 259/259 262/262
f 268/268 267/267 266/266
f 265/265 262/262 267/267
f 268/268 265/265 267/267
f 271/271 270/270 269/269
f 266/266 267/267 270/270
f 272/272 266/266 270/270
f 271/271 272/272 270/270
f 275/275 274/274 273/273
f 276/276 275/275 273/273
f 269/269 270/270 274/274
f 277/277 269/269 274/274
f 275/275 277/277 274/274
f 273/273 274/274 278/278
f 279/279 273/273 278/278
f 188/188 280/280 187/187
f 188/188 281/281 280/280
f 187/187 282/282 189/189
f 187/187 280/280 282/282
f 189/189 283/283 190/190
f 189/189 282/282 283/283
f 190/190 284/284 191/191
f 190/190 283/283 284/284
f 191/191 285/285 192/192
f 191/191 284/284 285/285
f 192/192 286/286 193/193
f 192/192 285/285 286/286
f 193/193 287/287 194/194
f 193/193 286/286 287/287
f 194/194 288/288 195/195
f 194/194 287/287 288/288
f 195/195 289/289 196/196
f 195/195 288/288 289/289
f 196/196 290/290 197/197
f 196/196 289/289 290/290
f 197/197 291/291 198/198
f 197/197 290/290 291/291
f 198/198 292/292 199/199
f 198/198 291/291 292/292
f 199/199 293/293 200/200
f 199/199 292/292 293/293
f 200/200 294/294 201/201
f 200/200 293/293 294/294
f 201/201 295/295 202/202
f 201/201 294/294 295/295
f 202/202 296/296 203/203
f 202/202 295/295 296/296
f 203/203 297/297 204/204
f 203/203 296/296 297/297
f 204/204 298/298 205/205
f 204/204 297/297 298/298
f 205/205 299/299 206/206
f 205/205 298/298 299/299
f 206/206 300/300 207/207
f 206/206 299/299 300/300
f 207/207 301/301 208/208
f 207/207 300/300 301/301
f 208/208 302/302 209/209
f 208/208 301/301 302/302
f 209/209 303/303 210/210
f 209/209 302/302 303/303
f 210/210 304/304 211/211
f 210/210 303/303 304/304
f 211/211 305/305 212/212
f 211/211 304/304 305/305
f 212/212 306/306 213/213
f 212/212 305/305 306/306
f 213/213 307/307 214/214
f 213/213 306/306 307/307
f 214/214 308/308 215/215
f 214/214 307/307 308/308
f 215/215 309/309 216/216
f 215/215 308/308 309/309
f 216/216 310/310 217/217
f 216/216 309/309 310/310
f 217/217 311/311 218/218
f 217/217 310/310 311/311
f 218/218 312/312 219/219
f 218/218 311/311 312/312
f 219/219 313/313 220/220
f 219/219 312/312 313/313
f 220/220 314/314 221/221
f 220/220 313/313 314/314
f 221/221 315/315 222/222
f 221/221 314/314 315/315
f 222/222 316/316 223/223
f 222/222 315/315 316/316
f 223/223 317/317 224/224
f 223/223 316/316 317/317
f 224/224 318/318 225/225
f 224/224 317/317 318/318
f 225/225 319/319 226/226
f 225/225 318/318 319/319
f 226/226 320/320 227/227
f 226/226 319/319 320/320
f 227/227 321/321 228/228
f 227/227 320/320 321/321
f 228/228 322/322 229/229
f 228/228 321/321 322/322
f 229/229 323/323 230/230
f 229/229 322/322 323/323
f 230/230 324/324 231/231
f 230/230 323/323 324/324
f 231/231 325/325 232/232
f 231/231 324/324 325/325
f 232/232 326/326 233/233
f 232/232 325/325 326/326
f 233/233 327/327 234/234
f 233/233 326/326 327/327
f 234/234 328/328 235/235
f 234/234 327/327 328/328
f 235/235 329/329 238/238
f 235/235 328/328 329/329
f 238/238 330/330 241/241
f 238/238 329/329 330/330
f 241/241 331/331 246/246
f 241/241 330/330 331/331
f 246/246 332/332 248/248
f 246/246 331/331 332/332
f 248/248 333/333 253/253
f 248/248 332/332 333/333
f 253/253 334/334 255/255
f 253/253 333/333 334/334
f 255/255 335/335 260/260
f 255/255 334/334 335/335
f 260/260 336/336 262/262
f 260/260 335/335 336/336
f 262/262 337/337 267/267
f 262/262 336/336 337/337
f 267/267 338/338 270/270
f 267/267 337/337 338/338
f 270/270 339/339 274/274
f 270/270 338/338 339/339
f 278/278 274/274 340/340
f 341/341 278/278 340/340
f 274/274 339/339 340/340
f 341/341 340/340 342/342
f 343/343 341/341 342/342
f 281/281 344/344 280/280
f 281/281 345/345 344/344
f 280/280 346/346 282/282
f 280/280 344/344 346/346
f 282/282 347/347 283/283
f 282/282 346/346 347/347
f 283/283 348/348 284/284
f 283/283 347/347 348/348
f 284/284 349/349 285/285
f 284/284 348/348 349/349
f 285/285 350/350 286/286
f 285/285 349/349 350/350
f 286/286 351/351 287/287
f 286/286 350/350 351/351
f 287/287 352/352 288/288
f 287/287 351/351 352/352
f 288/288 353/353 289/289
f 288/288 352/352 353/353
f 289/289 354/354 290/290
f 289/289 353/353 354/354
f 290/290 355/355 291/291
f 290/290 354/354 355/355
f 291/291 356/356 292/292
f 291/291 355/355 356/356
f 292/292 357/357 293/293
f 292/292 356/356 357/357
f 293/293 358/358 294/294
f 293/293 357/357 358/358
f 294/294 359/359 295/295
f 294/294 358/358 359/359
f 295/295 360/360 296/296
f 295/295 359/359 360/360
f 296/296 361/361 297/297
f 296/296 360/360 361/361
f 297/297 362/362 298/298
f 297/297 361/361 362/362
f 298/298 363/363 299/299
f 298/298 362/362 363/363
f 299/299 364/364 300/300
f 299/299 363/363 364/364
f 300/300 365/365 301/301
f 300/300 364/364 365/365
f 301/301 366/366 302/302
f 301/301 365/365 366/366
f 302/302 367/367 303/303
f 302/302 366/366 367/367
f 303/303 368/368 304/304
f 303/303 367/367 368/368
f 304/304 369/369 305/305
f 304/304 368/368 369/369
f 305/305 370/370 306/306
f 305/305 369/369 370/370
f 306/306 371/371 307/307
f 306/306 370/370 371/371
f 307/307 372/372 308/308
f 307/307 371/371 372/372
f 308/308 373/373 309/309
f 308/308 372/372 373/373
f 309/309 374/374 310/310
f 309/309 373/373 374/374
f 310/310 375/375 311/311
f 310/310 374/374 375/375
f 311/311 376/376 312/312
f 311/311 375/375 376/376
f 312/312 377/377 313/313
f 312/312 376/376 377/377
f 313/313 378/378 314/314
f 313/313 377/377 378/378
f 314/314 379/379 315/315
f 314/314 378/378 379/379
f 315/315 380/380 316/316
f 315/315 379/379 380/380
f 316/316 381/381 317/317
f 316/316 380/380 381/381
f 317/317 382/382 318/318
f 317/317 381/381 382/382
f 318/318 383/383 319/319
f 318/318 382/382 383/383
f 319/319 384/384 320/320
f 319/319 383/383 384/384
f 320/320 385/385 321/321
f 320/320 384/384 385/385
f 321/321 386/386 322/322
f 321/321 385/385 386/386
f 322/322 387/387 323/323
f 322/322 386/386 387/387
f 323/323 388/388 324/324
f 323/323 387/387 388/388
f 324/324 389/389 325/325
f 324/324 388/388 389/389
f 325/325 390/390 326/326
f 325/325 389/389 390/390
f 326/326 391/391 327/327
f 326/326 390/390 391/391
f 327/327 392/392 328/328
f 327/327 391/391 392/392
f 328/328 393/393 329/329
f 328/328 392/392 393/393
f 329/329 394/394 330/330
f 329/329 393/393 394/394
f 330/330 395/395 331/331
f 330/330 394/394 395/395
f 331/331 396/396 332/332
f 331/331 395/395 396/396
f 332/332 397/397 333/333
f 332/332 396/396 397/397
f 333/333 398/398 334/334
f 333/333 397/397 398/398
f 334/334 399/399 335/335
f 334/334 398/398 399/399
f 335/335 400/400 336/336
f 335/335 399/399 400/400
f 336/336 401/401 337/337
f 336/336 400/400 401/401
f 337/337 402/402 338/338
f 337/337 401/401 402/402
f 338/338 403/403 339/339
f 338/338 402/402 403/403
f 339/339 404/404 340/340
f 339/339 403/403 404/404
f 342/342 340/340 405/405
f 405/405 340/340 404/404
f 406/406 405/405 404/404
f 407/407 406/406 404/404
f 408/408 344/344 345/345
f 409/409 408/408 345/345
f 409/409 345/345 410/410
f 411/411 346/346 344/344
f 412/412 411/411 344/344
f 413/413 412/412 344/344
f 408/408 413/413 344/344
f 414/414 347/347 346/346
f 415/415 414/414 346/346
f 415/415 346/346 411/411
f 416/416 348/348 347/347
f 417/417 416/416 347/347
f 418/418 417/417 347/347
f 414/414 418/418 347/347
f 419/419 349/349 348/348
f 420/420 419/419 348/348
f 421/421 420/420 348/348
f 416/416 421/421 348/348
f 422/422 350/350 349/349
f 423/423 422/422 349/349
f 423/423 349/349 419/419
f 424/424 351/351 350/350
f 425/425 424/424 350/350
f 426/426 425/425 350/350
f 422/422 426/426 350/350
f 427/427 352/352 351/351
f 428/428 427/427 351/351
f 428/428 351/351 424/424
f 429/429 353/353 352/352
f 430/430 429/429 352/352
f 431/431 430/430 352/352
f 427/427 431/431 352/352
f 432/432 354/354 353/353
f 433/433 432/432 353/353
f 433/433 353/353 429/429
f 434/434 355/355 354/354
f 435/435 434/434 354/354
f 435/435 354/354 432/432
f 436/436 356/356 355/355
f 437/437 436/436 355/355
f 438/438 437/437 355/355
f 434/434 438/438 355/355
f 439/439 357/357 356/356
f 440/440 439/439 356/356
f 440/440 356/356 436/436
f 441/441 358/358 357/357
f 442/442 441/441 357/357
f 443/443 442/442 357/357
f 439/439 443/443 357/357
f 444/444 359/359 358/358
f 445/445 444/444 358/358
f 445/445 358/358 441/441
f 446/446 360/360 359/359
f 447/447 446/446 359/359
f 447/447 359/359 444/444
f 448/448 361/361 360/360
f 449/449 448/448 360/360
f 450/450 449/449 360/360
f 446/446 450/450 360/360
f 451/451 362/362 361/361
f 452/452 451/451 361/361
f 452/452 361/361 448/448
f 453/453 363/363 362/362
f 454/454 453/453 362/362
f 454/454 362/362 451/451
f 455/455 364/364 363/363
f 456/456 455/455 363/363
f 457/457 456/456 363/363
f 453/453 457/457 363/363
f 458/458 365/365 364/364
f 459/459 458/458 364/364
f 459/459 364/364 455/455
f 460/460 366/366 365/365
f 461/461 460/460 365/365
f 462/462 461/461 365/365
f 458/458 462/462 365/365
f 463/463 367/367 366/366
f 464/464 463/463 366/366
f 465/465 464/464 366/366
f 465/465 366/366 460/460
f 466/466 368/368 367/367
f 467/467 466/466 367/367
f 468/468 467/467 367/367
f 468/468 367/367 463/463
f 469/469 369/369 368/368
f 470/470 469/469 368/368
f 471/471 470/470 368/368
f 471/471 368/368 466/466
f 472/472 370/370 369/369
f 473/473 472/472 369/369
f 474/474 473/473 369/369
f 474/474 369/369 469/469
f 475/475 371/371 370/370
f 476/476 475/475 370/370
f 477/477 476/476 370/370
f 477/477 370/370 472/472
f 478/478 372/372 371/371
f 479/479 478/478 371/371
f 480/480 479/479 371/371
f 480/480 371/371 475/475
f 481/481 373/373 372/372
f 482/482 481/481 372/372
f 483/483 482/482 372/372
f 483/483 372/372 478/478
f 484/484 374/374 373/373
f 485/485 484/484 373/373
f 486/486 485/485 373/373
f 486/486 373/373 481/481
f 487/487 375/375 374/374
f 488/488 487/487 374/374
f 489/489 488/488 374/374
f 489/489 374/374 484/484
f 490/490 376/376 375/375
f 491/491 490/490 375/375
f 492/492 491/491 375/375
f 492/492 375/375 487/487
f 493/493 377/377 376/376
f 494/494 493/493 376/376
f 495/495 494/494 376/376
f 495/495 376/376 490/490
f 496/496 378/378 377/377
f 497/497 496/496 377/377
f 498/498 497/497 377/377
f 498/498 377/377 493/493
f 499/499 379/379 378/378
f 500/500 499/499 378/378
f 500/500 378/378 496/496
f 501/501 380/380 379/379
f 502/502 501/501 379/379
f 503/503 502/502 379/379
f 499/499 503/503 379/379
f 504/504 381/381 380/380
f 505/505 504/504 380/380
f 505/505 380/380 501/501
f 506/506 382/382 381/381
f 507/507 506/506 381/381
f 507/507 381/381 504/504
f 382/382 508/508 383/383
f 509/509 508/508 382/382
f 506/506 509/509 382/382
f 383/383 510/510 384/384
f 383/383 508/508 510/510
f 384/384 511/511 385/385
f 384/384 510/510 511/511
f 385/385 512/512 386/386
f 385/385 511/511 512/512
f 386/386 513/513 387/387
f 386/386 512/512 513/513
f 387/387 514/514 388/388
f 387/387 513/513 514/514
f 388/388 515/515 389/389
f 388/388 514/514 515/515
f 389/389 516/516 390/390
f 389/389 515/515 516/516
f 390/390 517/517 391/391
f 390/390 516/516 517/517
f 391/391 518/518 392/392
f 391/391 517/517 518/518
f 392/392 519/519 393/393
f 392/392 518/518 519/519
f 393/393 520/520 394/394
f 393/393 519/519 520/520
f 394/394 521/521 395/395
f 394/394 520/520 521/521
f 395/395 522/522 396/396
f 395/395 521/521 522/522
f 396/396 523/523 397/397
f 396/396 522/522 523/523
f 397/397 524/524 398/398
f 397/397 523/523 524/524
f 398/398 525/525 399/399
f 398/398 524/524 525/525
f 399/399 526/526 400/400
f 399/399 525/525 526/526
f 400/400 527/527 401/401
f 400/400 526/526 527/527
f 401/401 528/528 402/402
f 401/401 527/527 528/528
f 402/402 529/529 403/403
f 402/402 528/528 529/529
f 530/530 404/404 403/403
f 531/531 530/530 403/403
f 532/532 531/531 403/403
f 532/532 403/403 529/529
f 533/533 532/532 529/529
f 534/534 533/533 529/529
f 407/407 404/404 535/535
f 535/535 404/404 530/530
f 537/537 536/536 508/508
f 509/509 537/537 508/508
f 538/538 510/510 508/508
f 539/539 538/538 508/508
f 540/540 539/539 508/508
f 540/540 508/508 536/536
f 541/541 511/511 510/510
f 542/542 541/541 510/510
f 543/543 542/542 510/510
f 543/543 510/510 538/538
f 544/544 512/512 511/511
f 545/545 544/544 511/511
f 546/546 545/545 511/511
f 546/546 511/511 541/541
f 547/547 513/513 512/512
f 548/548 547/547 512/512
f 549/549 548/548 512/512
f 549/549 512/512 544/544
f 550/550 514/514 513/513
f 551/551 550/550 513/513
f 552/552 551/551 513/513
f 552/552 513/513 547/547
f 553/553 515/515 514/514
f 554/554 553/553 514/514
f 555/555 554/554 514/514
f 555/555 514/514 550/550
f 556/556 516/516 515/515
f 557/557 556/556 515/515
f 558/558 557/557 515/515
f 558/558 515/515 553/553
f 559/559 517/517 516/516
f 560/560 559/559 516/516
f 561/561 560/560 516/516
f 561/561 516/516 556/556
f 562/562 518/518 517/517
f 563/563 562/562 517/517
f 564/564 563/563 517/517
f 564/564 517/517 559/559
f 565/565 519/519 518/518
f 566/566 565/565 518/518
f 567/567 566/566 518/518
f 567/567 518/518 562/562
f 568/568 520/520 519/519
f 569/569 568/568 519/519
f 570/570 569/569 519/519
f 570/570 519/519 565/565
f 571/571 521/521 520/520
f 572/572 571/571 520/520
f 573/573 572/572 520/520
f 573/573 520/520 568/568
f 574/574 522/522 521/521
f 575/575 574/574 521/521
f 576/576 575/575 521/521
f 576/576 521/521 571/571
f 577/577 523/523 522/522
f 578/578 577/577 522/522
f 579/579 578/578 522/522
f 579/579 522/522 574/574
f 580/580 524/524 523/523
f 581/581 580/580 523/523
f 582/582 581/581 523/523
f 582/582 523/523 577/577
f 583/583 525/525 524/524
f 584/584 583/583 524/524
f 585/585 584/584 524/524
f 580/580 585/585 524/524
f 586/586 526/526 525/525
f 587/587 586/586 525/525
f 587/587 525/525 583/583
f 588/588 527/527 526/526
f 589/589 588/588 526/526
f 590/590 589/589 526/526
f 586/586 590/590 526/526
f 591/591 528/528 527/527
f 592/592 591/591 527/527
f 592/592 527/527 588/588
f 593/593 529/529 528/528
f 594/594 593/593 528/528
f 595/595 594/594 528/528
f 595/595 528/528 591/591
f 596/596 595/595 591/591
f 534/534 529/529 597/597
f 597/597 529/529 593/593
