# OSM contributors ODbL; elevations USGS 3DEP
# Centimeters, Z up, OBJ Y = negative Unreal Y.
o Park_Gravel_4_14
v -829.764196 11106.572040 -205.227970
v -833.329706 11098.029823 -204.768061
v -836.413709 11098.029823 -204.225951
v -944.188009 11040.845071 -189.969896
v -944.188009 11031.363156 -190.229167
v -952.161855 11039.337002 -189.045549
v -994.755118 11031.363156 -183.908278
v -995.260572 11031.821602 -183.834352
v -1010.113349 11040.731250 -181.768934
v -1007.002989 11040.563470 -182.161662
v -959.286554 11037.989529 -188.186543
v -877.521342 11031.363156 -199.864583
v -896.098314 11049.940128 -196.671666
v -893.672870 11050.398844 -196.964611
v -877.521342 11063.156567 -198.498460
v -841.271162 11091.789755 -203.688980
v -846.130225 11067.362449 -204.075297
v -846.343355 11066.851835 -204.063763
v -858.037739 11078.546219 -201.414254
v -861.156280 11031.363156 -202.869106
v -944.188009 10972.667021 -192.521984
v -954.799050 10995.122998 -190.318418
v -877.521342 10992.155882 -202.621345
v -885.607644 10972.782791 -202.814792
v -888.982855 10964.696489 -202.537364
v -940.421722 10964.696489 -193.495376
v -865.975499 11019.817313 -202.841246
v -869.712044 11010.865330 -202.770080
v -937.047773 10957.556253 -194.423152
v -893.293863 10954.368212 -202.263708
v -895.494538 10949.372185 -202.111059
v -906.070113 10926.578594 -201.320521
v -931.461425 10945.733955 -195.886219
v -917.888012 10901.107417 -200.000136
v -919.315928 10898.029823 -199.840598
v -929.135007 10898.029823 -197.999521
v -1210.854675 10834.635036 -170.779402
v -1210.854675 10831.363156 -170.958333
v -1219.031597 10839.540078 -169.712630
v -1223.717045 10831.363156 -169.852973
v -1222.253202 10838.761634 -169.487467
v -1221.822210 10841.214067 -169.361649
v -1205.400307 10831.363156 -171.363150
v -944.188009 10831.363156 -198.562500
v -949.766828 10836.941975 -197.472887
v -947.221775 10839.747986 -197.698234
v -944.188009 10848.217226 -197.706629
v -954.826817 10831.363156 -196.817071
v -928.800640 10891.173506 -198.410387
v -927.198551 10881.040365 -199.225353
v -931.050593 10884.892407 -198.307483
v -932.564676 10869.474729 -198.806522
v -938.064725 10838.178326 -199.364533
v -939.262428 10831.363156 -199.486046
v -1210.854675 10764.696489 -175.645833
v -1232.604224 10786.446038 -172.247466
v -1236.907531 10764.696489 -173.712223
v -1144.188009 10764.696489 -179.291667
v -1196.195581 10825.841571 -172.326706
v -1144.188009 10794.644095 -177.770890
v -1077.521342 10773.792728 -183.067479
v -1077.521342 10764.696489 -183.458333
v -1086.194606 10773.369753 -182.475815
v -1139.295391 10791.709190 -178.225717
v -1087.869871 10773.288055 -182.375260
v -1010.854675 10786.559299 -190.250226
v -1010.854675 10764.696489 -191.531250
v -1025.701819 10779.543633 -189.095391
v -1033.309423 10775.948839 -188.328621
v -944.188009 10803.335595 -200.752153
v -946.738359 10788.823585 -201.467487
v -947.287654 10785.882669 -201.607128
v -950.275115 10770.783596 -202.296612
v -981.474573 10801.983053 -194.740494
v -983.920379 10799.286464 -194.449462
v -951.479494 10764.696489 -202.432162
v -939.998665 10827.173813 -199.724388
v -1210.854675 10698.029823 -181.114583
v -1243.615959 10730.791106 -175.995633
v -1248.487599 10698.029823 -178.321515
v -1246.434959 10716.543463 -176.955162
v -1144.188009 10698.029823 -183.979167
v -1077.521342 10698.029823 -187.364583
v -1010.854675 10698.029823 -196.218750
v -959.523712 10724.039821 -204.608042
v -961.286849 10715.128663 -205.084952
v -964.669980 10698.029823 -205.600016
v -1210.854675 10631.363156 -186.062500
v -1249.633486 10670.141966 -180.306270
v -1249.051824 10692.940842 -178.657337
v -1250.622840 10631.363156 -182.644923
v -1144.188009 10631.363156 -188.927083
v -1077.521342 10631.363156 -192.312500
v -1010.854675 10631.363156 -201.687500
v -969.446830 10673.886913 -206.987424
v -969.876348 10657.051496 -208.544262
v -970.531728 10631.363156 -210.508145
v -1210.854675 10564.696489 -191.531250
v -1251.292022 10605.133836 -184.739039
v -1250.727722 10627.252195 -182.973137
v -1252.323690 10564.696489 -187.319553
v -1144.188009 10564.696489 -194.395833
v -1077.521342 10564.696489 -197.000000
v -1010.854675 10564.696489 -206.635417
v -971.534885 10592.043365 -213.821342
v -972.232579 10564.696489 -215.687471
v -1210.854675 10498.029823 -197.260417
v -1252.950558 10540.125705 -189.367439
v -1252.403620 10561.563549 -187.580672
v -1254.024540 10498.029823 -193.213242
v -1144.188009 10498.029823 -200.385417
v -1077.521342 10498.029823 -203.250000
v -1010.854675 10498.029823 -212.885417
v -972.494701 10554.422302 -216.348439
v -973.193421 10527.035235 -218.110330
v -973.933429 10498.029823 -220.673492
v -1210.854675 10431.363156 -202.989583
v -1254.609094 10475.117575 -195.127461
v -1254.079518 10495.874902 -193.393276
v -1255.725390 10431.363156 -198.958230
v -1144.188009 10431.363156 -206.635417
v -1077.521342 10431.363156 -209.760417
v -1010.854675 10431.363156 -219.395833
v -974.851957 10462.027104 -223.714359
v -975.634279 10431.363156 -226.549976
v -1210.854675 10364.696489 -208.197917
v -1256.267631 10410.109445 -200.569959
v -1255.755416 10430.186255 -199.047478
v -1257.426240 10364.696489 -204.195673
v -1144.188009 10364.696489 -212.364583
v -1077.521342 10364.696489 -216.270833
v -1010.854675 10364.696489 -227.989583
v -976.510493 10397.018974 -230.396704
v -977.335129 10364.696489 -234.405434
v -1210.854675 10298.029823 -214.968750
v -1257.926167 10345.101314 -206.142845
v -1257.431314 10364.497609 -204.215436
v -1259.099139 10298.029823 -210.445832
v -1259.107212 10298.808962 -210.372030
v -1144.188009 10298.029823 -218.875000
v -1077.521342 10298.029823 -223.302083
v -1010.854675 10298.029823 -234.760417
v -977.522396 10357.356362 -235.000382
v -978.169030 10332.010843 -237.054743
v -979.035979 10298.029823 -240.353547
v -1210.854675 10231.363156 -222.000000
v -1258.554150 10279.062630 -212.497370
v -1259.003171 10288.768371 -211.431622
v -1256.347406 10231.363156 -218.268174
v -1256.514117 10234.966670 -217.832212
v -1144.188009 10231.363156 -225.385417
v -1077.521342 10231.363156 -229.812500
v -1010.854675 10231.363156 -239.187500
v -979.070165 10296.689878 -240.394645
v -977.593371 10264.768518 -241.776473
v -976.813280 10247.906606 -243.008957
v -976.047922 10231.363156 -244.218164
v -1210.854675 10173.353424 -227.438412
v -1214.561664 10168.403478 -227.598381
v -1255.320308 10209.162122 -220.433775
v -1254.025062 10181.164969 -223.373368
v -1217.337807 10164.696489 -227.768830
v -1253.263173 10164.696489 -225.102494
v -1144.188009 10213.725524 -227.038945
v -1155.746707 10212.065931 -226.607566
v -1178.225867 10198.734347 -226.715882
v -1202.730662 10184.201432 -226.833959
v -1077.521342 10213.659294 -231.472237
v -1101.675910 10219.829391 -229.289776
v -1128.764829 10215.939977 -227.855535
v -1010.854675 10188.170266 -242.730667
v -1048.750061 10206.309894 -235.913612
v -1053.743655 10207.585469 -235.106751
v -974.359530 10194.868010 -246.458017
v -974.324226 10194.104906 -246.524753
v -973.216154 10170.153593 -248.619361
v -992.988671 10179.618231 -245.525873
v -1252.086467 10139.261614 -227.474992
v -1235.474893 10140.478011 -228.598597
v -1239.102313 10126.277461 -229.605205
v -1251.536008 10127.363269 -228.629167
v -1246.317953 10098.029823 -231.746072
v -1250.178941 10098.029823 -231.474596
v -1248.994390 10087.552161 -232.417380
v -1245.968413 10066.476894 -234.358975
v -1248.851628 10069.360108 -233.919735
v -1249.046954 10073.561568 -233.561350
v -1247.085147 10031.363156 -238.010030
v -1241.230931 10033.481365 -238.061042
v -1239.974697 10031.363156 -238.343332
v -1246.053443 10009.171250 -239.618759
v -1213.366431 9986.497410 -242.745218
v -1210.854675 9984.616369 -242.995217
v -1210.854675 9964.696489 -244.395833
v -1245.601175 9999.442989 -240.323978
v -1243.985806 9964.696489 -242.583975
v -1184.255630 9964.696489 -245.538761
v -1210.854675 9898.029823 -247.781250
v -1242.350719 9929.525867 -244.459402
v -1243.061400 9944.812560 -243.644259
v -1240.886464 9898.029823 -246.608133
v -1144.188009 9898.029823 -251.427083
v -1169.643010 9953.753178 -246.850604
v -1144.188009 9941.568469 -248.705918
v -1077.521342 9909.656706 -254.040402
v -1077.521342 9898.029823 -254.812500
v -1099.823966 9920.332447 -252.286031
v -1113.881620 9927.061515 -251.151599
v -1053.231691 9898.029823 -256.520366
v -1210.854675 9831.363156 -249.604167
v -1239.100263 9859.608744 -247.728483
v -1240.069356 9880.453869 -247.120644
v -1237.787122 9831.363156 -248.657323
v -1144.188009 9831.363156 -254.552083
v -1077.521342 9831.363156 -259.500000
v -1010.854675 9831.363156 -262.885417
v -1010.854675 9877.744944 -260.530091
v -958.475359 9852.672200 -265.910272
v -958.133004 9845.308151 -266.090209
v -971.944332 9859.119479 -264.363793
v -1002.358841 9873.678188 -261.367157
v -957.484699 9831.363156 -266.846470
v -1210.854675 9764.696489 -251.947917
v -1236.358461 9790.200275 -250.154682
v -1237.135318 9817.342885 -249.173138
v -1235.628508 9764.696489 -250.980189
v -1144.188009 9764.696489 -257.156250
v -1077.521342 9764.696489 -262.104167
v -1010.854675 9764.696489 -265.489583
v -955.847558 9776.356039 -268.257205
v -957.379409 9829.098370 -266.907365
v -957.285668 9826.602120 -266.972828
v -955.706747 9771.436249 -268.457635
v -955.513846 9764.696489 -268.732210
v -1210.854675 9698.029823 -255.854167
v -1234.394151 9721.569298 -253.555390
v -1235.592133 9763.425557 -251.056078
v -1233.720420 9698.029823 -254.782335
v -1234.013212 9708.259685 -254.249125
v -1144.188009 9698.029823 -259.760417
v -1077.521342 9698.029823 -262.885417
v -1010.854675 9698.029823 -267.312500
v -953.883248 9707.725062 -271.053199
v -953.605758 9698.029823 -271.337815
v -1210.854675 9631.363156 -259.760417
v -1236.373372 9656.881853 -257.068992
v -1232.957780 9671.383972 -256.379364
v -1245.058689 9631.363156 -258.424322
v -1239.492255 9643.639519 -257.826534
v -1144.188009 9631.363156 -262.104167
v -1077.521342 9631.363156 -263.927083
v -1010.854675 9631.363156 -267.052083
v -954.522501 9641.697648 -271.933499
v -952.548906 9661.104506 -271.844843
v -955.573475 9631.363156 -271.802812
v -1210.854675 9564.696489 -263.666667
v -1255.186093 9609.027906 -259.337427
v -1254.805814 9609.866583 -259.303140
v -1275.287152 9564.696489 -261.653152
v -1144.188009 9564.696489 -265.750000
v -1077.521342 9564.696489 -267.312500
v -1010.854675 9564.696489 -269.395833
v -965.422740 9585.931220 -271.843733
v -956.220172 9625.004016 -271.871438
v -970.078781 9566.162328 -272.211355
v -970.578419 9564.696489 -272.227758
v -1277.521342 9498.029823 -265.489583
v -1298.868533 9519.377014 -264.238771
v -1290.815639 9530.449546 -263.589990
v -1277.521342 9559.769146 -261.872045
v -1314.394040 9498.029823 -265.345549
v -1311.879673 9501.487015 -265.166306
v -1210.854675 9498.029823 -267.572917
v -1275.984154 9563.159301 -261.721440
v -1275.756442 9563.661503 -261.699130
v -1144.188009 9498.029823 -269.395833
v -1077.521342 9498.029823 -270.958333
v -1010.854675 9498.029823 -273.302083
v -981.264951 9535.106765 -273.556888
v -978.845231 9540.443280 -273.351801
v -998.076635 9498.029823 -274.350282
v -1344.188009 9459.144014 -266.900041
v -1344.188009 9431.363156 -268.093750
v -1357.447217 9444.622365 -267.886575
v -1379.812152 9431.363156 -269.067848
v -1362.689872 9438.880544 -268.276648
v -1277.521342 9431.363156 -268.875000
v -1326.938999 9480.780813 -266.172472
v -1336.752547 9467.287424 -266.637263
v -1210.854675 9431.363156 -271.218750
v -1144.188009 9431.363156 -273.041667
v -1077.521342 9431.363156 -274.864583
v -1010.854675 9469.848789 -275.063398
v -1020.746488 9448.033118 -276.079118
v -1022.861074 9443.369554 -276.296250
v -1028.305098 9431.363156 -276.787093
v -1002.063012 9489.238160 -274.778808
v -1544.188009 9372.044132 -272.664342
v -1544.188009 9364.696489 -272.520833
v -1549.827037 9370.335518 -272.234476
v -1568.437820 9364.696489 -271.384123
v -1563.357354 9366.235860 -271.616257
v -1477.521342 9392.243993 -272.475632
v -1477.521342 9364.696489 -272.260417
v -1498.662975 9385.838122 -272.755924
v -1502.542124 9384.662748 -272.748120
v -1410.854675 9417.734206 -270.129619
v -1410.854675 9364.696489 -270.958333
v -1447.710961 9401.552775 -271.966122
v -1449.741914 9400.661102 -271.998823
v -1344.188009 9364.696489 -270.697917
v -1401.383821 9421.892302 -270.027653
v -1396.485684 9424.042787 -269.809716
v -1277.521342 9364.696489 -272.260417
v -1210.854675 9364.696489 -274.864583
v -1144.188009 9364.696489 -276.947917
v -1077.521342 9364.696489 -278.770833
v -1044.011392 9397.853206 -278.529734
v -1041.697117 9401.828037 -278.340655
v -1055.979742 9377.297230 -279.126418
v -1065.144080 9364.696489 -279.399366
v -1744.188009 9310.864202 -263.175069
v -1744.188009 9298.029823 -263.927083
v -1754.001384 9307.843198 -262.892079
v -1785.878984 9298.029823 -262.135674
v -1677.521342 9331.387236 -265.228226
v -1677.521342 9298.029823 -266.531250
v -1703.026964 9323.535445 -264.040467
v -1724.096308 9317.049342 -263.597490
v -1610.854675 9351.844270 -269.345629
v -1610.854675 9298.029823 -269.135417
v -1652.052544 9339.227691 -265.916833
v -1624.766266 9347.627649 -268.187973
v -1624.172584 9347.808972 -268.237382
v -1674.431287 9332.338495 -265.311773
v -1544.188009 9298.029823 -271.218750
v -1600.991099 9354.832913 -269.665540
v -1477.521342 9298.029823 -272.000000
v -1410.854675 9298.029823 -272.260417
v -1344.188009 9298.029823 -273.041667
v -1277.521342 9298.029823 -275.125000
v -1210.854675 9298.029823 -278.250000
v -1144.188009 9298.029823 -280.593750
v -1077.521342 9347.678059 -279.768007
v -1085.434969 9336.797016 -280.189180
v -1098.426078 9318.934559 -280.880583
v -1113.629795 9298.029823 -281.548694
v -1070.355613 9357.530760 -279.694541
v -1877.521342 9260.237782 -260.151877
v -1877.521342 9231.363156 -261.843750
v -1896.235580 9250.077394 -260.016188
v -1930.705000 9231.363156 -260.181761
v -1810.854675 9290.341168 -261.392872
v -1810.854675 9231.363156 -263.927083
v -1853.027545 9273.536026 -260.138115
v -1849.034716 9275.703824 -260.232131
v -1823.426349 9286.471035 -260.969869
v -1744.188009 9231.363156 -266.010417
v -1804.975805 9292.150952 -261.498822
v -1677.521342 9231.363156 -268.093750
v -1610.854675 9231.363156 -270.177083
v -1544.188009 9231.363156 -271.739583
v -1477.521342 9231.363156 -273.562500
v -1410.854675 9231.363156 -275.125000
v -1344.188009 9231.363156 -276.427083
v -1277.521342 9231.363156 -277.989583
v -1210.854675 9231.363156 -281.114583
v -1144.188009 9262.927501 -282.239171
v -1150.309748 9256.222895 -282.338232
v -1159.252994 9246.428142 -282.482950
v -1173.008304 9231.363156 -282.592957
v -1127.434422 9281.276236 -281.968068
v -1114.890196 9296.296802 -281.597312
v -1124.725681 9284.242884 -281.902066
v -2010.854675 9187.848061 -258.776513
v -2010.854675 9164.696489 -259.500000
v -2025.859684 9179.701498 -258.444960
v -2053.497141 9164.696489 -258.000851
v -1944.188009 9164.696489 -261.322917
v -1982.651649 9203.160130 -259.069188
v -1958.053662 9216.514941 -259.620957
v -1944.188009 9224.042922 -259.931985
v -1877.521342 9164.696489 -263.406250
v -1939.443615 9226.618762 -260.019876
v -1810.854675 9164.696489 -265.229167
v -1744.188009 9164.696489 -267.312500
v -1677.521342 9164.696489 -269.395833
v -1610.854675 9164.696489 -272.000000
v -1544.188009 9164.696489 -274.604167
v -1477.521342 9164.696489 -276.687500
v -1410.854675 9164.696489 -279.552083
v -1344.188009 9164.696489 -281.375000
v -1277.521342 9170.475451 -282.270750
v -1281.537183 9168.712330 -282.300598
v -1283.924832 9167.664054 -282.331766
v -1290.684024 9164.696489 -282.420000
v -1210.854675 9203.124742 -282.658872
v -1223.000257 9194.412459 -282.566000
v -1235.210044 9189.051858 -282.286825
v -1194.411383 9214.919864 -282.527679
v -1175.893816 9228.202907 -282.628379
v -2144.188009 9101.947798 -257.493428
v -2144.188009 9098.029823 -257.677083
v -2146.439526 9100.281340 -257.378054
v -2149.481503 9098.029823 -257.160140
v -2077.521342 9150.668774 -257.923391
v -2077.521342 9098.029823 -260.802083
v -2108.128630 9128.637111 -257.932650
v -2083.562353 9146.819817 -257.897904
v -2135.472394 9108.398651 -257.599589
v -2010.854675 9098.029823 -262.885417
v -2068.952903 9156.128050 -257.892600
v -2067.072607 9157.326058 -257.897868
v -1944.188009 9098.029823 -264.447917
v -1877.521342 9098.029823 -266.270833
v -1810.854675 9098.029823 -267.833333
v -1744.188009 9098.029823 -269.656250
v -1677.521342 9098.029823 -271.739583
v -1610.854675 9098.029823 -274.343750
v -1544.188009 9098.029823 -277.729167
v -1477.521342 9099.673101 -279.989469
v -1478.782494 9099.290975 -279.969463
v -1482.163230 9098.266618 -279.898625
v -1482.944740 9098.029823 -279.882250
v -1410.854675 9119.872963 -281.303002
v -1421.348001 9116.693507 -280.976315
v -1427.618432 9114.793579 -280.781098
v -1344.188009 9141.206031 -282.292596
v -1344.849407 9140.915649 -282.285854
v -1360.532771 9135.120395 -282.083389
v -1376.454370 9130.296184 -281.836479
v -1327.864322 9148.372803 -282.522759
v -2210.854675 9052.604530 -253.828305
v -2210.854675 9031.363156 -255.072917
v -2223.061316 9043.569797 -253.070265
v -2239.553455 9031.363156 -252.494511
v -2239.292476 9031.556320 -252.503622
v -2144.188009 9031.363156 -260.020833
v -2184.750421 9071.925568 -254.633638
v -2187.382435 9069.977486 -254.552439
v -2077.521342 9031.363156 -262.625000
v -2010.854675 9031.363156 -265.489583
v -1944.188009 9031.363156 -267.572917
v -1877.521342 9031.363156 -269.395833
v -1810.854675 9031.363156 -270.958333
v -1744.188009 9031.363156 -273.041667
v -1677.521342 9038.419869 -274.533800
v -1682.917019 9036.758833 -274.443046
v -1700.444245 9031.363156 -274.237785
v -1610.854675 9058.942902 -276.023266
v -1631.942599 9052.451080 -275.478465
v -1641.714819 9049.442746 -275.275926
v -1544.188009 9079.465936 -278.236773
v -1580.968179 9068.143326 -276.678633
v -1529.946556 9083.788370 -278.619257
v -1542.681418 9079.929733 -278.277057
v -2277.521342 9003.261262 -251.498340
v -2277.521342 8964.696489 -254.812500
v -2299.683106 8986.858254 -251.003447
v -2329.625407 8964.696489 -250.741870
v -2210.854675 8964.696489 -258.458333
v -2261.372211 9015.214025 -251.354305
v -2144.188009 8964.696489 -261.062500
v -2077.521342 8964.696489 -263.666667
v -2010.854675 8964.696489 -267.052083
v -1944.188009 8964.696489 -270.437500
v -1877.521342 8964.696489 -272.520833
v -1810.854675 8977.826933 -273.676970
v -1819.364785 8973.206599 -273.712140
v -1824.455440 8970.442766 -273.702497
v -1835.039405 8964.696489 -273.682449
v -1744.188009 9014.021794 -273.854543
v -1769.945967 9000.037208 -273.705134
v -1776.156751 8996.665231 -273.669109
v -1727.703901 9022.971393 -273.918548
v -1732.948716 9020.123863 -273.919736
v -2410.854675 8904.574726 -249.746266
v -2410.854675 8898.029823 -250.385417
v -2414.615792 8901.790939 -249.694899
v -2419.697358 8898.029823 -249.625499
v -2344.188009 8953.917994 -250.488340
v -2344.188009 8898.029823 -255.072917
v -2376.304897 8930.146711 -249.678283
v -2395.022598 8916.292822 -249.715114
v -2277.521342 8898.029823 -258.458333
v -2337.994001 8958.502482 -250.426808
v -2343.112557 8954.713988 -250.477656
v -2210.854675 8898.029823 -260.541667
v -2144.188009 8898.029823 -262.885417
v -2077.521342 8898.029823 -266.010417
v -2010.854675 8898.029823 -268.875000
v -1944.188009 8901.625577 -272.654837
v -1946.254357 8900.096171 -272.603673
v -1949.046158 8898.029823 -272.496593
v -1877.521342 8941.632072 -273.601978
v -1878.964913 8940.848324 -273.593604
v -1905.780855 8926.289335 -273.438059
v -1924.861792 8915.929857 -272.982375
v -1862.572820 8949.747967 -273.630294
v -2477.521342 8853.681567 -248.813899
v -2477.521342 8831.363156 -250.906250
v -2489.960532 8843.802346 -248.671083
v -2505.623045 8831.363156 -248.491260
v -2502.504487 8833.839919 -248.527064
v -2410.854675 8831.363156 -255.333333
v -2452.803795 8873.312276 -248.614920
v -2450.712910 8874.972859 -248.671359
v -2446.932639 8877.871656 -248.781081
v -2344.188009 8831.363156 -258.197917
v -2277.521342 8831.363156 -260.281250
v -2210.854675 8831.363156 -262.364583
v -2144.188009 8831.363156 -264.968750
v -2077.521342 8831.363156 -268.614583
v -2010.854675 8852.282309 -271.019415
v -2020.804723 8844.917791 -270.937085
v -2022.876148 8843.384628 -270.919946
v -2039.118110 8831.363156 -270.564747
v -1984.565253 8871.740400 -271.442326
v -2544.188009 8800.734810 -247.569923
v -2544.188009 8764.696489 -250.385417
v -2564.274005 8784.782485 -246.933136
v -2589.564816 8764.696489 -246.131341
v -2477.521342 8764.696489 -255.072917
v -2527.117268 8814.292415 -247.711021
v -2410.854675 8764.696489 -257.937500
v -2344.188009 8764.696489 -260.020833
v -2277.521342 8764.696489 -262.104167
v -2210.854675 8764.696489 -264.447917
v -2144.188009 8764.696489 -267.312500
v -2077.521342 8802.939041 -269.724900
v -2099.497938 8786.673085 -269.158444
v -2124.624805 8768.075460 -268.339990
v -2129.190061 8764.696489 -268.191286
v -2061.187043 8815.028857 -270.082118
v -2610.854675 8747.788054 -245.588485
v -2610.854675 8698.029823 -249.864583
v -2638.587478 8725.762625 -245.531333
v -2671.647068 8698.029823 -245.590118
v -2668.460058 8701.131951 -245.547616
v -2657.879218 8710.441099 -245.491576
v -2544.188009 8698.029823 -254.812500
v -2601.430741 8755.272555 -245.644719
v -2606.087641 8751.574039 -245.616931
v -2477.521342 8698.029823 -257.937500
v -2410.854675 8698.029823 -260.020833
v -2344.188009 8698.029823 -262.104167
v -2277.521342 8698.029823 -264.708333
v -2210.854675 8704.252505 -267.045119
v -2214.430624 8701.605771 -267.033129
v -2219.262013 8698.029823 -266.984088
v -2144.188009 8753.595773 -267.746122
v -2176.119728 8729.961542 -267.297268
v -2137.808833 8758.317314 -267.860710
v -2677.521342 8692.312002 -245.646123
v -2677.521342 8631.363156 -250.645833
v -2708.407064 8662.248878 -246.302529
v -2740.137892 8631.363156 -246.976895
v -2610.854675 8631.363156 -254.552083
v -2674.623846 8695.132327 -245.584544
v -2544.188009 8631.363156 -256.895833
v -2477.521342 8631.363156 -259.239583
v -2410.854675 8631.363156 -261.843750
v -2344.188009 8631.363156 -264.447917
v -2277.521342 8654.909237 -266.224291
v -2278.440129 8654.229198 -266.212309
v -2290.672455 8644.514269 -266.076024
v -2307.231370 8631.363156 -265.891535
v -2228.444886 8691.233128 -266.864329
v -2252.741519 8673.249999 -266.547461
v -2744.188009 8627.420909 -246.955175
v -2744.188009 8564.696489 -250.385417
v -2775.973499 8596.481980 -246.660554
v -2808.628716 8564.696489 -246.609594
v -2780.131741 8592.434487 -246.654065
v -2677.521342 8564.696489 -253.510417
v -2742.190282 8629.365429 -246.942477
v -2742.907847 8628.666975 -246.947038
v -2610.854675 8564.696489 -255.593750
v -2544.188009 8564.696489 -257.677083
v -2477.521342 8564.696489 -261.062500
v -2410.854675 8564.696489 -263.927083
v -2344.188009 8602.012144 -265.250483
v -2364.985928 8585.494408 -264.889722
v -2380.157810 8573.444879 -264.732883
v -2391.173140 8564.696489 -264.619012
v -2327.829191 8615.004339 -265.534244
v -2328.366233 8614.577819 -265.524929
v -2810.854675 8562.529816 -246.614584
v -2810.854675 8498.029823 -250.645833
v -2842.224545 8529.399692 -246.847138
v -2822.926122 8550.460952 -246.661576
v -2817.355636 8556.201999 -246.629157
v -2870.968741 8498.029823 -247.358345
v -2863.919673 8505.722796 -247.232980
v -2744.188009 8498.029823 -252.989583
v -2809.756717 8563.598531 -246.586389
v -2677.521342 8498.029823 -255.072917
v -2610.854675 8498.029823 -257.677083
v -2544.188009 8498.029823 -260.281250
v -2477.521342 8498.029823 -263.927083
v -2410.854675 8549.065388 -264.537673
v -2431.949387 8532.311939 -264.285691
v -2439.299401 8526.474548 -264.197894
v -2475.114911 8498.029823 -264.021085
v -2402.142664 8555.984478 -264.539647
v -2877.521342 8490.878667 -247.614552
v -2877.521342 8431.363156 -252.729167
v -2905.979333 8459.821147 -248.727262
v -2932.055377 8431.363156 -250.172884
v -2810.854675 8431.363156 -254.291667
v -2874.101939 8494.610419 -247.373997
v -2744.188009 8431.363156 -254.812500
v -2677.521342 8431.363156 -256.895833
v -2610.854675 8431.363156 -260.020833
v -2544.188009 8431.363156 -263.666667
v -2477.521342 8496.118632 -264.024136
v -2478.215971 8495.566956 -264.014163
v -2510.384018 8464.255660 -263.845000
v -2510.399133 8464.240947 -263.844920
v -2544.176539 8431.363156 -263.667294
v -2476.456138 8496.964618 -264.014463
v -2944.188009 8418.122255 -250.690334
v -2944.188009 8364.696489 -255.072917
v -2969.734121 8390.242602 -251.779863
v -2993.022715 8364.696489 -253.928353
v -2987.881728 8370.425996 -253.444561
v -2986.900326 8371.508330 -253.353410
v -2877.521342 8364.696489 -256.375000
v -2937.856727 8425.031874 -250.247187
v -2810.854675 8364.696489 -256.635417
v -2744.188009 8364.696489 -257.416667
v -2677.521342 8364.696489 -259.760417
v -2610.854675 8366.460899 -262.302553
v -2611.748787 8365.590601 -262.291238
v -2612.667363 8364.696489 -262.293775
v -2544.188009 8431.351992 -263.667016
v -2547.607912 8428.023172 -263.584015
v -2577.965569 8398.474050 -262.847241
v -2544.182351 8431.357498 -263.667153
v -3010.854675 8344.823198 -254.752497
v -3010.854675 8298.029823 -257.677083
v -3032.984685 8320.159833 -255.256613
v -3052.841560 8298.029823 -257.185050
v -2944.188009 8298.029823 -257.937500
v -3001.455991 8355.297805 -254.134548
v -2877.521342 8298.029823 -258.718750
v -2810.854675 8298.029823 -260.541667
v -2744.188009 8298.029823 -262.625000
v -2677.521342 8298.029823 -264.187500
v -2619.188416 8358.349116 -262.410963
v -2644.045875 8331.221022 -263.029505
v -2657.478765 8316.561089 -263.583239
v -2674.458956 8298.029823 -264.283200
v -3010.854675 8231.363156 -259.760417
v -3064.513379 8285.021860 -257.454769
v -3077.521342 8231.363156 -259.500000
v -3077.521342 8270.524797 -257.970248
v -3076.913875 8271.201804 -257.946176
v -2944.188009 8231.363156 -258.979167
v -2877.521342 8231.363156 -260.281250
v -2810.854675 8231.363156 -264.187500
v -2744.188009 8231.363156 -267.312500
v -2677.521342 8294.687699 -264.448603
v -2698.472316 8271.822933 -265.743875
v -2707.800663 8261.642477 -266.320590
v -2735.545591 8231.363156 -267.582576
v -2675.923269 8296.431750 -264.356047
v -3010.854675 8164.696489 -261.322917
v -3077.521342 8164.696489 -261.062500
v -2944.188009 8164.696489 -262.104167
v -2877.521342 8164.696489 -263.927083
v -2810.854675 8164.696489 -267.052083
v -2744.188009 8221.931287 -267.828305
v -2771.555452 8192.063932 -268.178827
v -2779.965893 8182.885229 -268.080425
v -2796.286334 8164.696489 -267.905697
v -2739.465867 8227.084778 -267.760890
v -2739.678058 8226.853205 -267.770542
v -3010.854675 8098.029823 -264.447917
v -3077.521342 8098.029823 -263.145833
v -2944.188009 8098.029823 -266.791667
v -2877.521342 8098.029823 -269.395833
v -2810.854675 8148.460423 -268.383948
v -2823.994089 8133.816861 -268.969268
v -2834.704840 8121.879987 -269.446398
v -2856.105179 8098.029823 -270.399716
v -2803.176146 8157.017960 -268.041894
v -3010.854675 8031.363156 -268.875000
v -3077.521342 8031.363156 -266.010417
v -2944.188009 8031.363156 -272.260417
v -2877.521342 8074.162023 -271.633440
v -2897.762227 8051.604041 -272.957591
v -2913.026236 8034.592670 -273.577929
v -2915.924023 8031.363156 -273.695697
v -2866.233534 8086.742014 -270.939088
v -3010.854675 7964.696489 -273.302083
v -3077.521342 7964.696489 -270.437500
v -2944.188009 7999.863622 -274.475228
v -2957.542310 7984.980574 -274.843544
v -2960.819615 7981.328096 -274.933933
v -2975.742868 7964.696489 -275.222260
v -2929.290921 8016.466069 -274.122553
v -3010.854675 7925.565222 -276.206357
v -3023.877003 7911.052150 -276.723946
v -3077.521342 7898.029823 -276.687500
v -3035.561712 7898.029823 -277.670929
v -2992.348309 7946.190123 -275.543089
v -3056.560357 7877.068837 -279.307623
v -3046.574457 7885.756383 -278.659339
v -3077.521342 7859.802264 -280.719313
v -3072.597937 7863.116444 -280.465931
vt -4.148821 -55.532860
vt -4.166649 -55.490149
vt -4.182069 -55.490149
vt -4.720940 -55.204225
vt -4.720940 -55.156816
vt -4.760809 -55.196685
vt -4.973776 -55.156816
vt -4.976303 -55.159108
vt -5.050567 -55.203656
vt -5.035015 -55.202817
vt -4.796433 -55.189948
vt -4.387607 -55.156816
vt -4.480492 -55.249701
vt -4.468364 -55.251994
vt -4.387607 -55.315783
vt -4.206356 -55.458949
vt -4.230651 -55.336812
vt -4.231717 -55.334259
vt -4.290189 -55.392731
vt -4.305781 -55.156816
vt -4.720940 -54.863335
vt -4.773995 -54.975615
vt -4.387607 -54.960779
vt -4.428038 -54.863914
vt -4.444914 -54.823482
vt -4.702109 -54.823482
vt -4.329877 -55.099087
vt -4.348560 -55.054327
vt -4.685239 -54.787781
vt -4.466469 -54.771841
vt -4.477473 -54.746861
vt -4.530351 -54.632893
vt -4.657307 -54.728670
vt -4.589440 -54.505537
vt -4.596580 -54.490149
vt -4.645675 -54.490149
vt -6.054273 -54.173175
vt -6.054273 -54.156816
vt -6.095158 -54.197700
vt -6.118585 -54.156816
vt -6.111266 -54.193808
vt -6.109111 -54.206070
vt -6.027002 -54.156816
vt -4.720940 -54.156816
vt -4.748834 -54.184710
vt -4.736109 -54.198740
vt -4.720940 -54.241086
vt -4.774134 -54.156816
vt -4.644003 -54.455868
vt -4.635993 -54.405202
vt -4.655253 -54.424462
vt -4.662823 -54.347374
vt -4.690324 -54.190892
vt -4.696312 -54.156816
vt -6.054273 -53.823482
vt -6.163021 -53.932230
vt -6.184538 -53.823482
vt -5.720940 -53.823482
vt -5.980978 -54.129208
vt -5.720940 -53.973220
vt -5.387607 -53.868964
vt -5.387607 -53.823482
vt -5.430973 -53.866849
vt -5.696477 -53.958546
vt -5.439349 -53.866440
vt -5.054273 -53.932796
vt -5.054273 -53.823482
vt -5.128509 -53.897718
vt -5.166547 -53.879744
vt -4.720940 -54.016678
vt -4.733692 -53.944118
vt -4.736438 -53.929413
vt -4.751376 -53.853918
vt -4.907373 -54.009915
vt -4.919602 -53.996432
vt -4.757397 -53.823482
vt -4.699993 -54.135869
vt -6.054273 -53.490149
vt -6.218080 -53.653956
vt -6.242438 -53.490149
vt -6.232175 -53.582717
vt -5.720940 -53.490149
vt -5.387607 -53.490149
vt -5.054273 -53.490149
vt -4.797619 -53.620199
vt -4.806434 -53.575643
vt -4.823350 -53.490149
vt -6.054273 -53.156816
vt -6.248167 -53.350710
vt -6.245259 -53.464704
vt -6.253114 -53.156816
vt -5.720940 -53.156816
vt -5.387607 -53.156816
vt -5.054273 -53.156816
vt -4.847234 -53.369435
vt -4.849382 -53.285257
vt -4.852659 -53.156816
vt -6.054273 -52.823482
vt -6.256460 -53.025669
vt -6.253639 -53.136261
vt -6.261618 -52.823482
vt -5.720940 -52.823482
vt -5.387607 -52.823482
vt -5.054273 -52.823482
vt -4.857674 -52.960217
vt -4.861163 -52.823482
vt -6.054273 -52.490149
vt -6.264753 -52.700629
vt -6.262018 -52.807818
vt -6.270123 -52.490149
vt -5.720940 -52.490149
vt -5.387607 -52.490149
vt -5.054273 -52.490149
vt -4.862474 -52.772112
vt -4.865967 -52.635176
vt -4.869667 -52.490149
vt -6.054273 -52.156816
vt -6.273045 -52.375588
vt -6.270398 -52.479375
vt -6.278627 -52.156816
vt -5.720940 -52.156816
vt -5.387607 -52.156816
vt -5.054273 -52.156816
vt -4.874260 -52.310136
vt -4.878171 -52.156816
vt -6.054273 -51.823482
vt -6.281338 -52.050547
vt -6.278777 -52.150931
vt -6.287131 -51.823482
vt -5.720940 -51.823482
vt -5.387607 -51.823482
vt -5.054273 -51.823482
vt -4.882552 -51.985095
vt -4.886676 -51.823482
vt -6.054273 -51.490149
vt -6.289631 -51.725507
vt -6.287157 -51.822488
vt -6.295496 -51.490149
vt -6.295536 -51.494045
vt -5.720940 -51.490149
vt -5.387607 -51.490149
vt -5.054273 -51.490149
vt -4.887612 -51.786782
vt -4.890845 -51.660054
vt -4.895180 -51.490149
vt -6.054273 -51.156816
vt -6.292771 -51.395313
vt -6.295016 -51.443842
vt -6.281737 -51.156816
vt -6.282571 -51.174833
vt -5.720940 -51.156816
vt -5.387607 -51.156816
vt -5.054273 -51.156816
vt -4.895351 -51.483449
vt -4.887967 -51.323843
vt -4.884066 -51.239533
vt -4.880240 -51.156816
vt -6.054273 -50.866767
vt -6.072808 -50.842017
vt -6.276602 -51.045811
vt -6.270125 -50.905825
vt -6.086689 -50.823482
vt -6.266316 -50.823482
vt -5.720940 -51.068628
vt -5.778734 -51.060330
vt -5.891129 -50.993672
vt -6.013653 -50.921007
vt -5.387607 -51.068296
vt -5.508380 -51.099147
vt -5.643824 -51.079700
vt -5.054273 -50.940851
vt -5.243750 -51.031549
vt -5.268718 -51.037927
vt -4.871798 -50.974340
vt -4.871621 -50.970525
vt -4.866081 -50.850768
vt -4.964943 -50.898091
vt -6.260432 -50.696308
vt -6.177374 -50.702390
vt -6.195512 -50.631387
vt -6.257680 -50.636816
vt -6.231590 -50.490149
vt -6.250895 -50.490149
vt -6.244972 -50.437761
vt -6.229842 -50.332384
vt -6.244258 -50.346801
vt -6.245235 -50.367808
vt -6.235426 -50.156816
vt -6.206155 -50.167407
vt -6.199873 -50.156816
vt -6.230267 -50.045856
vt -6.066832 -49.932487
vt -6.054273 -49.923082
vt -6.054273 -49.823482
vt -6.228006 -49.997215
vt -6.219929 -49.823482
vt -5.921278 -49.823482
vt -6.054273 -49.490149
vt -6.211754 -49.647629
vt -6.215307 -49.724063
vt -6.204432 -49.490149
vt -5.720940 -49.490149
vt -5.848215 -49.768766
vt -5.720940 -49.707842
vt -5.387607 -49.548284
vt -5.387607 -49.490149
vt -5.499120 -49.601662
vt -5.569408 -49.635308
vt -5.266158 -49.490149
vt -6.054273 -49.156816
vt -6.195501 -49.298044
vt -6.200347 -49.402269
vt -6.188936 -49.156816
vt -5.720940 -49.156816
vt -5.387607 -49.156816
vt -5.054273 -49.156816
vt -5.054273 -49.388725
vt -4.792377 -49.263361
vt -4.790665 -49.226541
vt -4.859722 -49.295597
vt -5.011794 -49.368391
vt -4.787423 -49.156816
vt -6.054273 -48.823482
vt -6.181792 -48.951001
vt -6.185677 -49.086714
vt -6.178143 -48.823482
vt -5.720940 -48.823482
vt -5.387607 -48.823482
vt -5.054273 -48.823482
vt -4.779238 -48.881780
vt -4.786897 -49.145492
vt -4.786428 -49.133011
vt -4.778534 -48.857181
vt -4.777569 -48.823482
vt -6.054273 -48.490149
vt -6.171971 -48.607846
vt -6.177961 -48.817128
vt -6.168602 -48.490149
vt -6.170066 -48.541298
vt -5.720940 -48.490149
vt -5.387607 -48.490149
vt -5.054273 -48.490149
vt -4.769416 -48.538625
vt -4.768029 -48.490149
vt -6.054273 -48.156816
vt -6.181867 -48.284409
vt -6.164789 -48.356920
vt -6.225293 -48.156816
vt -6.197461 -48.218198
vt -5.720940 -48.156816
vt -5.387607 -48.156816
vt -5.054273 -48.156816
vt -4.772613 -48.208488
vt -4.762745 -48.305523
vt -4.777867 -48.156816
vt -6.054273 -47.823482
vt -6.275930 -48.045140
vt -6.274029 -48.049333
vt -6.376436 -47.823482
vt -5.720940 -47.823482
vt -5.387607 -47.823482
vt -5.054273 -47.823482
vt -4.827114 -47.929656
vt -4.781101 -48.125020
vt -4.850394 -47.830812
vt -4.852892 -47.823482
vt -6.387607 -47.490149
vt -6.494343 -47.596885
vt -6.454078 -47.652248
vt -6.387607 -47.798846
vt -6.571970 -47.490149
vt -6.559398 -47.507435
vt -6.054273 -47.490149
vt -6.379921 -47.815797
vt -6.378782 -47.818308
vt -5.720940 -47.490149
vt -5.387607 -47.490149
vt -5.054273 -47.490149
vt -4.906325 -47.675534
vt -4.894226 -47.702216
vt -4.990383 -47.490149
vt -6.720940 -47.295720
vt -6.720940 -47.156816
vt -6.787236 -47.223112
vt -6.899061 -47.156816
vt -6.813449 -47.194403
vt -6.387607 -47.156816
vt -6.634695 -47.403904
vt -6.683763 -47.336437
vt -6.054273 -47.156816
vt -5.720940 -47.156816
vt -5.387607 -47.156816
vt -5.054273 -47.349244
vt -5.103732 -47.240166
vt -5.114305 -47.216848
vt -5.141525 -47.156816
vt -5.010315 -47.446191
vt -7.720940 -46.860221
vt -7.720940 -46.823482
vt -7.749135 -46.851678
vt -7.842189 -46.823482
vt -7.816787 -46.831179
vt -7.387607 -46.961220
vt -7.387607 -46.823482
vt -7.493315 -46.929191
vt -7.512711 -46.923314
vt -7.054273 -47.088671
vt -7.054273 -46.823482
vt -7.238555 -47.007764
vt -7.248710 -47.003306
vt -6.720940 -46.823482
vt -7.006919 -47.109462
vt -6.982428 -47.120214
vt -6.387607 -46.823482
vt -6.054273 -46.823482
vt -5.720940 -46.823482
vt -5.387607 -46.823482
vt -5.220057 -46.989266
vt -5.208486 -47.009140
vt -5.279899 -46.886486
vt -5.325720 -46.823482
vt -8.720940 -46.554321
vt -8.720940 -46.490149
vt -8.770007 -46.539216
vt -8.929395 -46.490149
vt -8.387607 -46.656936
vt -8.387607 -46.490149
vt -8.515135 -46.617677
vt -8.620482 -46.585247
vt -8.054273 -46.759221
vt -8.054273 -46.490149
vt -8.260263 -46.696138
vt -8.123831 -46.738138
vt -8.120863 -46.739045
vt -8.372156 -46.661692
vt -7.720940 -46.490149
vt -8.004955 -46.774165
vt -7.387607 -46.490149
vt -7.054273 -46.490149
vt -6.720940 -46.490149
vt -6.387607 -46.490149
vt -6.054273 -46.490149
vt -5.720940 -46.490149
vt -5.387607 -46.738390
vt -5.427175 -46.683985
vt -5.492130 -46.594673
vt -5.568149 -46.490149
vt -5.351778 -46.787654
vt -9.387607 -46.301189
vt -9.387607 -46.156816
vt -9.481178 -46.250387
vt -9.653525 -46.156816
vt -9.054273 -46.451706
vt -9.054273 -46.156816
vt -9.265138 -46.367680
vt -9.245174 -46.378519
vt -9.117132 -46.432355
vt -8.720940 -46.156816
vt -9.024879 -46.460755
vt -8.387607 -46.156816
vt -8.054273 -46.156816
vt -7.720940 -46.156816
vt -7.387607 -46.156816
vt -7.054273 -46.156816
vt -6.720940 -46.156816
vt -6.387607 -46.156816
vt -6.054273 -46.156816
vt -5.720940 -46.314638
vt -5.751549 -46.281114
vt -5.796265 -46.232141
vt -5.865042 -46.156816
vt -5.637172 -46.406381
vt -5.574451 -46.481484
vt -5.623628 -46.421214
vt -10.054273 -45.939240
vt -10.054273 -45.823482
vt -10.129298 -45.898507
vt -10.267486 -45.823482
vt -9.720940 -45.823482
vt -9.913258 -46.015801
vt -9.790268 -46.082575
vt -9.720940 -46.120215
vt -9.387607 -45.823482
vt -9.697218 -46.133094
vt -9.054273 -45.823482
vt -8.720940 -45.823482
vt -8.387607 -45.823482
vt -8.054273 -45.823482
vt -7.720940 -45.823482
vt -7.387607 -45.823482
vt -7.054273 -45.823482
vt -6.720940 -45.823482
vt -6.387607 -45.852377
vt -6.407686 -45.843562
vt -6.419624 -45.838320
vt -6.453420 -45.823482
vt -6.054273 -46.015624
vt -6.115001 -45.972062
vt -6.176050 -45.945259
vt -5.972057 -46.074599
vt -5.879469 -46.141015
vt -10.720940 -45.509739
vt -10.720940 -45.490149
vt -10.732198 -45.501407
vt -10.747408 -45.490149
vt -10.387607 -45.753344
vt -10.387607 -45.490149
vt -10.540643 -45.643186
vt -10.417812 -45.734099
vt -10.677362 -45.541993
vt -10.054273 -45.490149
vt -10.344765 -45.780640
vt -10.335363 -45.786630
vt -9.720940 -45.490149
vt -9.387607 -45.490149
vt -9.054273 -45.490149
vt -8.720940 -45.490149
vt -8.387607 -45.490149
vt -8.054273 -45.490149
vt -7.720940 -45.490149
vt -7.387607 -45.498366
vt -7.393912 -45.496455
vt -7.410816 -45.491333
vt -7.414724 -45.490149
vt -7.054273 -45.599365
vt -7.106740 -45.583468
vt -7.138092 -45.573968
vt -6.720940 -45.706030
vt -6.724247 -45.704578
vt -6.802664 -45.675602
vt -6.882272 -45.651481
vt -6.639322 -45.741864
vt -11.054273 -45.263023
vt -11.054273 -45.156816
vt -11.115307 -45.217849
vt -11.197767 -45.156816
vt -11.196462 -45.157782
vt -10.720940 -45.156816
vt -10.923752 -45.359628
vt -10.936912 -45.349887
vt -10.387607 -45.156816
vt -10.054273 -45.156816
vt -9.720940 -45.156816
vt -9.387607 -45.156816
vt -9.054273 -45.156816
vt -8.720940 -45.156816
vt -8.387607 -45.192099
vt -8.414585 -45.183794
vt -8.502221 -45.156816
vt -8.054273 -45.294715
vt -8.159713 -45.262255
vt -8.208574 -45.247214
vt -7.720940 -45.397330
vt -7.904841 -45.340717
vt -7.649733 -45.418942
vt -7.713407 -45.399649
vt -11.387607 -45.016306
vt -11.387607 -44.823482
vt -11.498416 -44.934291
vt -11.648127 -44.823482
vt -11.054273 -44.823482
vt -11.306861 -45.076070
vt -10.720940 -44.823482
vt -10.387607 -44.823482
vt -10.054273 -44.823482
vt -9.720940 -44.823482
vt -9.387607 -44.823482
vt -9.054273 -44.889135
vt -9.096824 -44.866033
vt -9.122277 -44.852214
vt -9.175197 -44.823482
vt -8.720940 -45.070109
vt -8.849730 -45.000186
vt -8.880784 -44.983326
vt -8.638520 -45.114857
vt -8.664744 -45.100619
vt -12.054273 -44.522874
vt -12.054273 -44.490149
vt -12.073079 -44.508955
vt -12.098487 -44.490149
vt -11.720940 -44.769590
vt -11.720940 -44.490149
vt -11.881524 -44.650734
vt -11.975113 -44.581464
vt -11.387607 -44.490149
vt -11.689970 -44.792512
vt -11.715563 -44.773570
vt -11.054273 -44.490149
vt -10.720940 -44.490149
vt -10.387607 -44.490149
vt -10.054273 -44.490149
vt -9.720940 -44.508128
vt -9.731272 -44.500481
vt -9.745231 -44.490149
vt -9.387607 -44.708160
vt -9.394825 -44.704242
vt -9.528904 -44.631447
vt -9.624309 -44.579649
vt -9.312864 -44.748740
vt -12.387607 -44.268408
vt -12.387607 -44.156816
vt -12.449803 -44.219012
vt -12.528115 -44.156816
vt -12.512522 -44.169200
vt -12.054273 -44.156816
vt -12.264019 -44.366561
vt -12.253565 -44.374864
vt -12.234663 -44.389358
vt -11.720940 -44.156816
vt -11.387607 -44.156816
vt -11.054273 -44.156816
vt -10.720940 -44.156816
vt -10.387607 -44.156816
vt -10.054273 -44.261412
vt -10.104024 -44.224589
vt -10.114381 -44.216923
vt -10.195591 -44.156816
vt -9.922826 -44.358702
vt -12.720940 -44.003674
vt -12.720940 -43.823482
vt -12.821370 -43.923912
vt -12.947824 -43.823482
vt -12.387607 -43.823482
vt -12.635586 -44.071462
vt -12.054273 -43.823482
vt -11.720940 -43.823482
vt -11.387607 -43.823482
vt -11.054273 -43.823482
vt -10.720940 -43.823482
vt -10.387607 -44.014695
vt -10.497490 -43.933365
vt -10.623124 -43.840377
vt -10.645950 -43.823482
vt -10.305935 -44.075144
vt -13.054273 -43.738940
vt -13.054273 -43.490149
vt -13.192937 -43.628813
vt -13.358235 -43.490149
vt -13.342300 -43.505660
vt -13.289396 -43.552205
vt -12.720940 -43.490149
vt -13.007154 -43.776363
vt -13.030438 -43.757870
vt -12.387607 -43.490149
vt -12.054273 -43.490149
vt -11.720940 -43.490149
vt -11.387607 -43.490149
vt -11.054273 -43.521263
vt -11.072153 -43.508029
vt -11.096310 -43.490149
vt -10.720940 -43.767979
vt -10.880599 -43.649808
vt -10.689044 -43.791587
vt -13.387607 -43.461560
vt -13.387607 -43.156816
vt -13.542035 -43.311244
vt -13.700689 -43.156816
vt -13.054273 -43.156816
vt -13.373119 -43.475662
vt -12.720940 -43.156816
vt -12.387607 -43.156816
vt -12.054273 -43.156816
vt -11.720940 -43.156816
vt -11.387607 -43.274546
vt -11.392201 -43.271146
vt -11.453362 -43.222571
vt -11.536157 -43.156816
vt -11.142224 -43.456166
vt -11.263708 -43.366250
vt -13.720940 -43.137105
vt -13.720940 -42.823482
vt -13.879867 -42.982410
vt -14.043144 -42.823482
vt -13.900659 -42.962172
vt -13.387607 -42.823482
vt -13.710951 -43.146827
vt -13.714539 -43.143335
vt -13.054273 -42.823482
vt -12.720940 -42.823482
vt -12.387607 -42.823482
vt -12.054273 -42.823482
vt -11.720940 -43.010061
vt -11.824930 -42.927472
vt -11.900789 -42.867224
vt -11.955866 -42.823482
vt -11.639146 -43.075022
vt -11.641831 -43.072889
vt -14.054273 -42.812649
vt -14.054273 -42.490149
vt -14.211123 -42.646998
vt -14.114631 -42.752305
vt -14.086778 -42.781010
vt -14.354844 -42.490149
vt -14.319598 -42.528614
vt -13.720940 -42.490149
vt -14.048784 -42.817993
vt -13.387607 -42.490149
vt -13.054273 -42.490149
vt -12.720940 -42.490149
vt -12.387607 -42.490149
vt -12.054273 -42.745327
vt -12.159747 -42.661560
vt -12.196497 -42.632373
vt -12.375575 -42.490149
vt -12.010713 -42.779922
vt -14.387607 -42.454393
vt -14.387607 -42.156816
vt -14.529897 -42.299106
vt -14.660277 -42.156816
vt -14.054273 -42.156816
vt -14.370510 -42.473052
vt -13.720940 -42.156816
vt -13.387607 -42.156816
vt -13.054273 -42.156816
vt -12.720940 -42.156816
vt -12.387607 -42.480593
vt -12.391080 -42.477835
vt -12.551920 -42.321278
vt -12.551996 -42.321205
vt -12.720883 -42.156816
vt -12.382281 -42.484823
vt -14.720940 -42.090611
vt -14.720940 -41.823482
vt -14.848671 -41.951213
vt -14.965114 -41.823482
vt -14.939409 -41.852130
vt -14.934502 -41.857542
vt -14.387607 -41.823482
vt -14.689284 -42.125159
vt -14.054273 -41.823482
vt -13.720940 -41.823482
vt -13.387607 -41.823482
vt -13.054273 -41.832304
vt -13.058744 -41.827953
vt -13.063337 -41.823482
vt -12.720940 -42.156760
vt -12.738040 -42.140116
vt -12.889828 -41.992370
vt -12.720912 -42.156787
vt -15.054273 -41.724116
vt -15.054273 -41.490149
vt -15.164923 -41.600799
vt -15.264208 -41.490149
vt -14.720940 -41.490149
vt -15.007280 -41.776489
vt -14.387607 -41.490149
vt -14.054273 -41.490149
vt -13.720940 -41.490149
vt -13.387607 -41.490149
vt -13.095942 -41.791746
vt -13.220229 -41.656105
vt -13.287394 -41.582805
vt -13.372295 -41.490149
vt -15.054273 -41.156816
vt -15.322567 -41.425109
vt -15.387607 -41.156816
vt -15.387607 -41.352624
vt -15.384569 -41.356009
vt -14.720940 -41.156816
vt -14.387607 -41.156816
vt -14.054273 -41.156816
vt -13.720940 -41.156816
vt -13.387607 -41.473438
vt -13.492362 -41.359115
vt -13.539003 -41.308212
vt -13.677728 -41.156816
vt -13.379616 -41.482159
vt -15.054273 -40.823482
vt -15.387607 -40.823482
vt -14.720940 -40.823482
vt -14.387607 -40.823482
vt -14.054273 -40.823482
vt -13.720940 -41.109656
vt -13.857777 -40.960320
vt -13.899829 -40.914426
vt -13.981432 -40.823482
vt -13.697329 -41.135424
vt -13.698390 -41.134266
vt -15.054273 -40.490149
vt -15.387607 -40.490149
vt -14.720940 -40.490149
vt -14.387607 -40.490149
vt -14.054273 -40.742302
vt -14.119970 -40.669084
vt -14.173524 -40.609400
vt -14.280526 -40.490149
vt -14.015881 -40.785090
vt -15.054273 -40.156816
vt -15.387607 -40.156816
vt -14.720940 -40.156816
vt -14.387607 -40.370810
vt -14.488811 -40.258020
vt -14.565131 -40.172963
vt -14.579620 -40.156816
vt -14.331168 -40.433710
vt -15.054273 -39.823482
vt -15.387607 -39.823482
vt -14.720940 -39.999318
vt -14.787712 -39.924903
vt -14.804098 -39.906640
vt -14.878714 -39.823482
vt -14.646455 -40.082330
vt -15.054273 -39.627826
vt -15.119385 -39.555261
vt -15.387607 -39.490149
vt -15.177809 -39.490149
vt -14.961742 -39.730951
vt -15.282802 -39.385344
vt -15.232872 -39.428782
vt -15.387607 -39.299011
vt -15.362990 -39.315582
f 3/3 2/2 1/1
f 6/6 5/5 4/4
f 8/8 7/7 5/5
f 9/9 8/8 5/5
f 10/10 9/9 5/5
f 11/11 10/10 5/5
f 6/6 11/11 5/5
f 14/14 13/13 12/12
f 15/15 14/14 12/12
f 4/4 5/5 12/12
f 13/13 4/4 12/12
f 2/2 3/3 16/16
f 17/17 2/2 16/16
f 18/18 17/17 16/16
f 19/19 18/18 16/16
f 18/18 19/19 15/15
f 20/20 18/18 15/15
f 12/12 20/20 15/15
f 22/22 21/21 5/5
f 7/7 22/22 5/5
f 23/23 12/12 5/5
f 24/24 23/23 5/5
f 24/24 5/5 21/21
f 25/25 24/24 21/21
f 26/26 25/25 21/21
f 20/20 12/12 27/27
f 28/28 27/27 12/12
f 23/23 28/28 12/12
f 25/25 26/26 29/29
f 30/30 25/25 29/29
f 31/31 30/30 29/29
f 32/32 31/31 29/29
f 32/32 29/29 33/33
f 34/34 32/32 33/33
f 35/35 34/34 33/33
f 36/36 35/35 33/33
f 39/39 38/38 37/37
f 40/40 38/38 39/39
f 41/41 40/40 39/39
f 42/42 41/41 39/39
f 37/37 38/38 43/43
f 46/46 45/45 44/44
f 47/47 46/46 44/44
f 48/48 44/44 45/45
f 35/35 36/36 49/49
f 50/50 35/35 49/49
f 51/51 50/50 49/49
f 50/50 51/51 47/47
f 52/52 50/50 47/47
f 53/53 52/52 47/47
f 54/54 53/53 47/47
f 44/44 54/54 47/47
f 56/56 55/55 38/38
f 40/40 56/56 38/38
f 57/57 55/55 56/56
f 43/43 38/38 58/58
f 59/59 43/43 58/58
f 60/60 59/59 58/58
f 38/38 55/55 58/58
f 63/63 62/62 61/61
f 64/64 60/60 58/58
f 65/65 64/64 58/58
f 63/63 65/65 58/58
f 62/62 63/63 58/58
f 68/68 67/67 66/66
f 61/61 62/62 67/67
f 69/69 61/61 67/67
f 68/68 69/69 67/67
f 70/70 44/44 48/48
f 71/71 70/70 48/48
f 72/72 71/71 48/48
f 73/73 72/72 48/48
f 74/74 73/73 48/48
f 73/73 74/74 75/75
f 76/76 73/73 75/75
f 67/67 76/76 75/75
f 66/66 67/67 75/75
f 54/54 44/44 77/77
f 77/77 44/44 70/70
f 79/79 78/78 55/55
f 57/57 79/79 55/55
f 80/80 78/78 79/79
f 81/81 80/80 79/79
f 55/55 82/82 58/58
f 55/55 78/78 82/82
f 58/58 83/83 62/62
f 58/58 82/82 83/83
f 62/62 84/84 67/67
f 62/62 83/83 84/84
f 85/85 76/76 67/67
f 86/86 85/85 67/67
f 86/86 67/67 84/84
f 87/87 86/86 84/84
f 89/89 88/88 78/78
f 90/90 89/89 78/78
f 80/80 90/90 78/78
f 91/91 88/88 89/89
f 78/78 92/92 82/82
f 78/78 88/88 92/92
f 82/82 93/93 83/83
f 82/82 92/92 93/93
f 83/83 94/94 84/84
f 83/83 93/93 94/94
f 95/95 87/87 84/84
f 96/96 95/95 84/84
f 96/96 84/84 94/94
f 97/97 96/96 94/94
f 99/99 98/98 88/88
f 100/100 99/99 88/88
f 91/91 100/100 88/88
f 101/101 98/98 99/99
f 88/88 102/102 92/92
f 88/88 98/98 102/102
f 92/92 103/103 93/93
f 92/92 102/102 103/103
f 93/93 104/104 94/94
f 93/93 103/103 104/104
f 97/97 94/94 105/105
f 105/105 94/94 104/104
f 106/106 105/105 104/104
f 108/108 107/107 98/98
f 109/109 108/108 98/98
f 101/101 109/109 98/98
f 110/110 107/107 108/108
f 98/98 111/111 102/102
f 98/98 107/107 111/111
f 102/102 112/112 103/103
f 102/102 111/111 112/112
f 103/103 113/113 104/104
f 103/103 112/112 113/113
f 114/114 106/106 104/104
f 115/115 114/114 104/104
f 115/115 104/104 113/113
f 116/116 115/115 113/113
f 118/118 117/117 107/107
f 119/119 118/118 107/107
f 110/110 119/119 107/107
f 120/120 117/117 118/118
f 107/107 121/121 111/111
f 107/107 117/117 121/121
f 111/111 122/122 112/112
f 111/111 121/121 122/122
f 112/112 123/123 113/113
f 112/112 122/122 123/123
f 116/116 113/113 124/124
f 124/124 113/113 123/123
f 125/125 124/124 123/123
f 127/127 126/126 117/117
f 128/128 127/127 117/117
f 120/120 128/128 117/117
f 129/129 126/126 127/127
f 117/117 130/130 121/121
f 117/117 126/126 130/130
f 121/121 131/131 122/122
f 121/121 130/130 131/131
f 122/122 132/132 123/123
f 122/122 131/131 132/132
f 125/125 123/123 133/133
f 133/133 123/123 132/132
f 134/134 133/133 132/132
f 136/136 135/135 126/126
f 137/137 136/136 126/126
f 129/129 137/137 126/126
f 138/138 135/135 136/136
f 139/139 138/138 136/136
f 126/126 140/140 130/130
f 126/126 135/135 140/140
f 130/130 141/141 131/131
f 130/130 140/140 141/141
f 131/131 142/142 132/132
f 131/131 141/141 142/142
f 143/143 134/134 132/132
f 144/144 143/143 132/132
f 144/144 132/132 142/142
f 145/145 144/144 142/142
f 147/147 146/146 135/135
f 148/148 147/147 135/135
f 138/138 148/148 135/135
f 150/150 149/149 146/146
f 147/147 150/150 146/146
f 135/135 151/151 140/140
f 135/135 146/146 151/151
f 140/140 152/152 141/141
f 140/140 151/151 152/152
f 141/141 153/153 142/142
f 141/141 152/152 153/153
f 154/154 145/145 142/142
f 155/155 154/154 142/142
f 155/155 142/142 153/153
f 156/156 155/155 153/153
f 157/157 156/156 153/153
f 158/158 146/146 149/149
f 159/159 158/158 149/149
f 160/160 159/159 149/149
f 159/159 160/160 161/161
f 162/162 159/159 161/161
f 163/163 162/162 161/161
f 164/164 151/151 146/146
f 165/165 164/164 146/146
f 166/166 165/165 146/146
f 167/167 166/166 146/146
f 158/158 167/167 146/146
f 168/168 152/152 151/151
f 169/169 168/168 151/151
f 170/170 169/169 151/151
f 170/170 151/151 164/164
f 171/171 153/153 152/152
f 172/172 171/171 152/152
f 173/173 172/172 152/152
f 173/173 152/152 168/168
f 157/157 153/153 174/174
f 174/174 153/153 171/171
f 175/175 174/174 171/171
f 177/177 176/176 175/175
f 171/171 177/177 175/175
f 162/162 163/163 178/178
f 179/179 162/162 178/178
f 180/180 179/179 178/178
f 180/180 178/178 181/181
f 182/182 180/180 181/181
f 183/183 182/182 181/181
f 184/184 182/182 183/183
f 186/186 185/185 184/184
f 187/187 186/186 184/184
f 183/183 187/187 184/184
f 185/185 186/186 188/188
f 189/189 185/185 188/188
f 190/190 189/189 188/188
f 190/190 188/188 191/191
f 192/192 190/190 191/191
f 193/193 192/192 191/191
f 194/194 193/193 191/191
f 195/195 194/194 191/191
f 196/196 194/194 195/195
f 193/193 194/194 197/197
f 199/199 198/198 194/194
f 200/200 199/199 194/194
f 196/196 200/200 194/194
f 201/201 198/198 199/199
f 197/197 194/194 202/202
f 203/203 197/197 202/202
f 204/204 203/203 202/202
f 194/194 198/198 202/202
f 207/207 206/206 205/205
f 204/204 202/202 206/206
f 208/208 204/204 206/206
f 207/207 208/208 206/206
f 205/205 206/206 209/209
f 211/211 210/210 198/198
f 212/212 211/211 198/198
f 201/201 212/212 198/198
f 213/213 210/210 211/211
f 198/198 214/214 202/202
f 198/198 210/210 214/214
f 202/202 215/215 206/206
f 202/202 214/214 215/215
f 209/209 206/206 216/216
f 217/217 209/209 216/216
f 206/206 215/215 216/216
f 220/220 219/219 218/218
f 219/219 220/220 221/221
f 222/222 219/219 221/221
f 216/216 222/222 221/221
f 217/217 216/216 221/221
f 224/224 223/223 210/210
f 225/225 224/224 210/210
f 213/213 225/225 210/210
f 226/226 223/223 224/224
f 210/210 227/227 214/214
f 210/210 223/223 227/227
f 214/214 228/228 215/215
f 214/214 227/227 228/228
f 215/215 229/229 216/216
f 215/215 228/228 229/229
f 222/222 216/216 230/230
f 231/231 222/222 230/230
f 232/232 231/231 230/230
f 230/230 216/216 229/229
f 233/233 230/230 229/229
f 234/234 233/233 229/229
f 236/236 235/235 223/223
f 237/237 236/236 223/223
f 226/226 237/237 223/223
f 239/239 238/238 235/235
f 236/236 239/239 235/235
f 223/223 240/240 227/227
f 223/223 235/235 240/240
f 227/227 241/241 228/228
f 227/227 240/240 241/241
f 228/228 242/242 229/229
f 228/228 241/241 242/242
f 234/234 229/229 243/243
f 243/243 229/229 242/242
f 244/244 243/243 242/242
f 246/246 245/245 235/235
f 247/247 246/246 235/235
f 238/238 247/247 235/235
f 249/249 248/248 245/245
f 246/246 249/249 245/245
f 235/235 250/250 240/240
f 235/235 245/245 250/250
f 240/240 251/251 241/241
f 240/240 250/250 251/251
f 241/241 252/252 242/242
f 241/241 251/251 252/252
f 244/244 242/242 253/253
f 254/254 244/244 253/253
f 253/253 242/242 252/252
f 255/255 253/253 252/252
f 257/257 256/256 245/245
f 258/258 257/257 245/245
f 248/248 258/258 245/245
f 259/259 256/256 257/257
f 245/245 260/260 250/250
f 245/245 256/256 260/260
f 250/250 261/261 251/251
f 250/250 260/260 261/261
f 251/251 262/262 252/252
f 251/251 261/261 262/262
f 255/255 252/252 263/263
f 264/264 255/255 263/263
f 263/263 252/252 262/262
f 265/265 263/263 262/262
f 266/266 265/265 262/262
f 269/269 268/268 267/267
f 270/270 269/269 267/267
f 272/272 271/271 267/267
f 268/268 272/272 267/267
f 274/274 273/273 256/256
f 275/275 274/274 256/256
f 259/259 275/275 256/256
f 270/270 267/267 273/273
f 274/274 270/270 273/273
f 256/256 276/276 260/260
f 256/256 273/273 276/276
f 260/260 277/277 261/261
f 260/260 276/276 277/277
f 261/261 278/278 262/262
f 261/261 277/277 278/278
f 266/266 262/262 279/279
f 280/280 266/266 279/279
f 279/279 262/262 278/278
f 281/281 279/279 278/278
f 284/284 283/283 282/282
f 286/286 285/285 283/283
f 284/284 286/286 283/283
f 288/288 287/287 267/267
f 271/271 288/288 267/267
f 282/282 283/283 287/287
f 289/289 282/282 287/287
f 288/288 289/289 287/287
f 267/267 290/290 273/273
f 267/267 287/287 290/290
f 273/273 291/291 276/276
f 273/273 290/290 291/291
f 276/276 292/292 277/277
f 276/276 291/291 292/292
f 293/293 278/278 277/277
f 294/294 293/293 277/277
f 295/295 294/294 277/277
f 295/295 277/277 292/292
f 296/296 295/295 292/292
f 281/281 278/278 297/297
f 297/297 278/278 293/293
f 300/300 299/299 298/298
f 302/302 301/301 299/299
f 300/300 302/302 299/299
f 305/305 304/304 303/303
f 298/298 299/299 304/304
f 306/306 298/298 304/304
f 305/305 306/306 304/304
f 309/309 308/308 307/307
f 303/303 304/304 308/308
f 310/310 303/303 308/308
f 309/309 310/310 308/308
f 312/312 311/311 283/283
f 313/313 312/312 283/283
f 285/285 313/313 283/283
f 307/307 308/308 311/311
f 312/312 307/307 311/311
f 283/283 314/314 287/287
f 283/283 311/311 314/314
f 287/287 315/315 290/290
f 287/287 314/314 315/315
f 290/290 316/316 291/291
f 290/290 315/315 316/316
f 291/291 317/317 292/292
f 291/291 316/316 317/317
f 296/296 292/292 318/318
f 319/319 296/296 318/318
f 318/318 292/292 317/317
f 320/320 318/318 317/317
f 321/321 320/320 317/317
f 324/324 323/323 322/322
f 325/325 323/323 324/324
f 328/328 327/327 326/326
f 322/322 323/323 327/327
f 329/329 322/322 327/327
f 328/328 329/329 327/327
f 332/332 331/331 330/330
f 333/333 332/332 330/330
f 334/334 333/333 330/330
f 326/326 327/327 331/331
f 335/335 326/326 331/331
f 332/332 335/335 331/331
f 337/337 336/336 299/299
f 301/301 337/337 299/299
f 330/330 331/331 336/336
f 337/337 330/330 336/336
f 299/299 338/338 304/304
f 299/299 336/336 338/338
f 304/304 339/339 308/308
f 304/304 338/338 339/339
f 308/308 340/340 311/311
f 308/308 339/339 340/340
f 311/311 341/341 314/314
f 311/311 340/340 341/341
f 314/314 342/342 315/315
f 314/314 341/341 342/342
f 315/315 343/343 316/316
f 315/315 342/342 343/343
f 344/344 317/317 316/316
f 345/345 344/344 316/316
f 346/346 345/345 316/316
f 346/346 316/316 343/343
f 347/347 346/346 343/343
f 321/321 317/317 348/348
f 348/348 317/317 344/344
f 351/351 350/350 349/349
f 352/352 350/350 351/351
f 355/355 354/354 353/353
f 356/356 355/355 353/353
f 357/357 356/356 353/353
f 349/349 350/350 354/354
f 355/355 349/349 354/354
f 359/359 358/358 323/323
f 325/325 359/359 323/323
f 353/353 354/354 358/358
f 359/359 353/353 358/358
f 323/323 360/360 327/327
f 323/323 358/358 360/360
f 327/327 361/361 331/331
f 327/327 360/360 361/361
f 331/331 362/362 336/336
f 331/331 361/361 362/362
f 336/336 363/363 338/338
f 336/336 362/362 363/363
f 338/338 364/364 339/339
f 338/338 363/363 364/364
f 339/339 365/365 340/340
f 339/339 364/364 365/365
f 340/340 366/366 341/341
f 340/340 365/365 366/366
f 341/341 367/367 342/342
f 341/341 366/366 367/367
f 368/368 343/343 342/342
f 369/369 368/368 342/342
f 370/370 369/369 342/342
f 370/370 342/342 367/367
f 371/371 370/370 367/367
f 347/347 343/343 372/372
f 373/373 347/347 372/372
f 374/374 373/373 372/372
f 372/372 343/343 368/368
f 377/377 376/376 375/375
f 378/378 376/376 377/377
f 381/381 380/380 379/379
f 382/382 381/381 379/379
f 375/375 376/376 379/379
f 380/380 375/375 379/379
f 384/384 383/383 350/350
f 352/352 384/384 350/350
f 382/382 379/379 383/383
f 384/384 382/382 383/383
f 350/350 385/385 354/354
f 350/350 383/383 385/385
f 354/354 386/386 358/358
f 354/354 385/385 386/386
f 358/358 387/387 360/360
f 358/358 386/386 387/387
f 360/360 388/388 361/361
f 360/360 387/387 388/388
f 361/361 389/389 362/362
f 361/361 388/388 389/389
f 362/362 390/390 363/363
f 362/362 389/389 390/390
f 363/363 391/391 364/364
f 363/363 390/390 391/391
f 364/364 392/392 365/365
f 364/364 391/391 392/392
f 393/393 366/366 365/365
f 394/394 393/393 365/365
f 394/394 365/365 392/392
f 395/395 394/394 392/392
f 396/396 395/395 392/392
f 397/397 367/367 366/366
f 398/398 397/397 366/366
f 399/399 398/398 366/366
f 399/399 366/366 393/393
f 371/371 367/367 400/400
f 401/401 371/371 400/400
f 400/400 367/367 397/397
f 404/404 403/403 402/402
f 405/405 403/403 404/404
f 408/408 407/407 406/406
f 409/409 408/408 406/406
f 402/402 403/403 407/407
f 410/410 402/402 407/407
f 408/408 410/410 407/407
f 412/412 411/411 376/376
f 413/413 412/412 376/376
f 378/378 413/413 376/376
f 406/406 407/407 411/411
f 412/412 406/406 411/411
f 376/376 414/414 379/379
f 376/376 411/411 414/414
f 379/379 415/415 383/383
f 379/379 414/414 415/415
f 383/383 416/416 385/385
f 383/383 415/415 416/416
f 385/385 417/417 386/386
f 385/385 416/416 417/417
f 386/386 418/418 387/387
f 386/386 417/417 418/418
f 387/387 419/419 388/388
f 387/387 418/418 419/419
f 388/388 420/420 389/389
f 388/388 419/419 420/420
f 421/421 390/390 389/389
f 422/422 421/421 389/389
f 422/422 389/389 420/420
f 423/423 422/422 420/420
f 424/424 423/423 420/420
f 425/425 391/391 390/390
f 426/426 425/425 390/390
f 427/427 426/426 390/390
f 427/427 390/390 421/421
f 428/428 392/392 391/391
f 429/429 428/428 391/391
f 430/430 429/429 391/391
f 431/431 430/430 391/391
f 431/431 391/391 425/425
f 396/396 392/392 432/432
f 432/432 392/392 428/428
f 435/435 434/434 433/433
f 437/437 436/436 434/434
f 435/435 437/437 434/434
f 439/439 438/438 403/403
f 405/405 439/439 403/403
f 433/433 434/434 438/438
f 440/440 433/433 438/438
f 439/439 440/440 438/438
f 403/403 441/441 407/407
f 403/403 438/438 441/441
f 407/407 442/442 411/411
f 407/407 441/441 442/442
f 411/411 443/443 414/414
f 411/411 442/442 443/443
f 414/414 444/444 415/415
f 414/414 443/443 444/444
f 415/415 445/445 416/416
f 415/415 444/444 445/445
f 416/416 446/446 417/417
f 416/416 445/445 446/446
f 447/447 418/418 417/417
f 448/448 447/447 417/417
f 448/448 417/417 446/446
f 449/449 448/448 446/446
f 450/450 419/419 418/418
f 451/451 450/450 418/418
f 452/452 451/451 418/418
f 447/447 452/452 418/418
f 453/453 420/420 419/419
f 454/454 453/453 419/419
f 454/454 419/419 450/450
f 424/424 420/420 455/455
f 456/456 455/455 420/420
f 453/453 456/456 420/420
f 459/459 458/458 457/457
f 460/460 458/458 459/459
f 462/462 461/461 434/434
f 436/436 462/462 434/434
f 457/457 458/458 461/461
f 462/462 457/457 461/461
f 434/434 463/463 438/438
f 434/434 461/461 463/463
f 438/438 464/464 441/441
f 438/438 463/463 464/464
f 441/441 465/465 442/442
f 441/441 464/464 465/465
f 442/442 466/466 443/443
f 442/442 465/465 466/466
f 443/443 467/467 444/444
f 443/443 466/466 467/467
f 468/468 445/445 444/444
f 469/469 468/468 444/444
f 469/469 444/444 467/467
f 470/470 469/469 467/467
f 471/471 470/470 467/467
f 472/472 446/446 445/445
f 473/473 472/472 445/445
f 474/474 473/473 445/445
f 474/474 445/445 468/468
f 475/475 449/449 446/446
f 476/476 475/475 446/446
f 476/476 446/446 472/472
f 479/479 478/478 477/477
f 480/480 478/478 479/479
f 483/483 482/482 481/481
f 477/477 478/478 482/482
f 484/484 477/477 482/482
f 483/483 484/484 482/482
f 486/486 485/485 458/458
f 460/460 486/486 458/458
f 481/481 482/482 485/485
f 487/487 481/481 485/485
f 486/486 487/487 485/485
f 458/458 488/488 461/461
f 458/458 485/485 488/488
f 461/461 489/489 463/463
f 461/461 488/488 489/489
f 463/463 490/490 464/464
f 463/463 489/489 490/490
f 464/464 491/491 465/465
f 464/464 490/490 491/491
f 492/492 466/466 465/465
f 493/493 492/492 465/465
f 493/493 465/465 491/491
f 494/494 493/493 491/491
f 495/495 467/467 466/466
f 496/496 495/495 466/466
f 497/497 496/496 466/466
f 498/498 497/497 466/466
f 492/492 498/498 466/466
f 471/471 467/467 499/499
f 499/499 467/467 495/495
f 502/502 501/501 500/500
f 504/504 503/503 501/501
f 502/502 504/504 501/501
f 506/506 505/505 478/478
f 507/507 506/506 478/478
f 508/508 507/507 478/478
f 480/480 508/508 478/478
f 500/500 501/501 505/505
f 506/506 500/500 505/505
f 478/478 509/509 482/482
f 478/478 505/505 509/509
f 482/482 510/510 485/485
f 482/482 509/509 510/510
f 485/485 511/511 488/488
f 485/485 510/510 511/511
f 488/488 512/512 489/489
f 488/488 511/511 512/512
f 489/489 513/513 490/490
f 489/489 512/512 513/513
f 514/514 491/491 490/490
f 515/515 514/514 490/490
f 516/516 515/515 490/490
f 516/516 490/490 513/513
f 517/517 516/516 513/513
f 494/494 491/491 518/518
f 518/518 491/491 514/514
f 521/521 520/520 519/519
f 522/522 520/520 521/521
f 524/524 523/523 501/501
f 503/503 524/524 501/501
f 519/519 520/520 523/523
f 524/524 519/519 523/523
f 501/501 525/525 505/505
f 501/501 523/523 525/525
f 505/505 526/526 509/509
f 505/505 525/525 526/526
f 509/509 527/527 510/510
f 509/509 526/526 527/527
f 510/510 528/528 511/511
f 510/510 527/527 528/528
f 511/511 529/529 512/512
f 511/511 528/528 529/529
f 530/530 513/513 512/512
f 531/531 530/530 512/512
f 531/531 512/512 529/529
f 532/532 531/531 529/529
f 533/533 532/532 529/529
f 517/517 513/513 534/534
f 534/534 513/513 530/530
f 537/537 536/536 535/535
f 538/538 536/536 537/537
f 539/539 538/538 537/537
f 540/540 539/539 537/537
f 542/542 541/541 520/520
f 522/522 542/542 520/520
f 535/535 536/536 541/541
f 543/543 535/535 541/541
f 542/542 543/543 541/541
f 520/520 544/544 523/523
f 520/520 541/541 544/544
f 523/523 545/545 525/525
f 523/523 544/544 545/545
f 525/525 546/546 526/526
f 525/525 545/545 546/546
f 526/526 547/547 527/527
f 526/526 546/546 547/547
f 548/548 528/528 527/527
f 549/549 548/548 527/527
f 549/549 527/527 547/547
f 550/550 549/549 547/547
f 551/551 529/529 528/528
f 552/552 551/551 528/528
f 552/552 528/528 548/548
f 533/533 529/529 553/553
f 553/553 529/529 551/551
f 556/556 555/555 554/554
f 557/557 555/555 556/556
f 559/559 558/558 536/536
f 538/538 559/559 536/536
f 554/554 555/555 558/558
f 559/559 554/554 558/558
f 536/536 560/560 541/541
f 536/536 558/558 560/560
f 541/541 561/561 544/544
f 541/541 560/560 561/561
f 544/544 562/562 545/545
f 544/544 561/561 562/562
f 545/545 563/563 546/546
f 545/545 562/562 563/563
f 564/564 547/547 546/546
f 565/565 564/564 546/546
f 566/566 565/565 546/546
f 566/566 546/546 563/563
f 567/567 566/566 563/563
f 568/568 550/550 547/547
f 569/569 568/568 547/547
f 569/569 547/547 564/564
f 572/572 571/571 570/570
f 574/574 573/573 571/571
f 572/572 574/574 571/571
f 576/576 575/575 555/555
f 557/557 576/576 555/555
f 570/570 571/571 575/575
f 577/577 570/570 575/575
f 576/576 577/577 575/575
f 555/555 578/578 558/558
f 555/555 575/575 578/578
f 558/558 579/579 560/560
f 558/558 578/578 579/579
f 560/560 580/580 561/561
f 560/560 579/579 580/580
f 561/561 581/581 562/562
f 561/561 580/580 581/581
f 582/582 563/563 562/562
f 583/583 582/582 562/562
f 583/583 562/562 581/581
f 584/584 583/583 581/581
f 585/585 584/584 581/581
f 567/567 563/563 586/586
f 587/587 586/586 563/563
f 582/582 587/587 563/563
f 590/590 589/589 588/588
f 591/591 590/590 588/588
f 592/592 591/591 588/588
f 594/594 593/593 589/589
f 590/590 594/594 589/589
f 596/596 595/595 571/571
f 573/573 596/596 571/571
f 588/588 589/589 595/595
f 596/596 588/588 595/595
f 571/571 597/597 575/575
f 571/571 595/595 597/597
f 575/575 598/598 578/578
f 575/575 597/597 598/598
f 578/578 599/599 579/579
f 578/578 598/598 599/599
f 579/579 600/600 580/580
f 579/579 599/599 600/600
f 601/601 581/581 580/580
f 602/602 601/601 580/580
f 603/603 602/602 580/580
f 603/603 580/580 600/600
f 604/604 603/603 600/600
f 585/585 581/581 605/605
f 605/605 581/581 601/601
f 608/608 607/607 606/606
f 609/609 607/607 608/608
f 611/611 610/610 589/589
f 593/593 611/611 589/589
f 606/606 607/607 610/610
f 611/611 606/606 610/610
f 589/589 612/612 595/595
f 589/589 610/610 612/612
f 595/595 613/613 597/597
f 595/595 612/612 613/613
f 597/597 614/614 598/598
f 597/597 613/613 614/614
f 598/598 615/615 599/599
f 598/598 614/614 615/615
f 616/616 600/600 599/599
f 617/617 616/616 599/599
f 618/618 617/617 599/599
f 619/619 618/618 599/599
f 619/619 599/599 615/615
f 620/620 619/619 615/615
f 604/604 600/600 621/621
f 621/621 600/600 616/616
f 624/624 623/623 622/622
f 625/625 623/623 624/624
f 626/626 625/625 624/624
f 627/627 626/626 624/624
f 629/629 628/628 607/607
f 609/609 629/629 607/607
f 622/622 623/623 628/628
f 629/629 622/622 628/628
f 607/607 630/630 610/610
f 607/607 628/628 630/630
f 610/610 631/631 612/612
f 610/610 630/630 631/631
f 612/612 632/632 613/613
f 612/612 631/631 632/632
f 633/633 614/614 613/613
f 634/634 633/633 613/613
f 634/634 613/613 632/632
f 635/635 634/634 632/632
f 636/636 615/615 614/614
f 637/637 636/636 614/614
f 638/638 637/637 614/614
f 638/638 614/614 633/633
f 620/620 615/615 639/639
f 639/639 615/615 636/636
f 642/642 641/641 640/640
f 643/643 641/641 642/642
f 645/645 644/644 623/623
f 625/625 645/645 623/623
f 640/640 641/641 644/644
f 645/645 640/640 644/644
f 623/623 646/646 628/628
f 623/623 644/644 646/646
f 628/628 647/647 630/630
f 628/628 646/646 647/647
f 630/630 648/648 631/631
f 630/630 647/647 648/648
f 631/631 649/649 632/632
f 631/631 648/648 649/649
f 650/650 635/635 632/632
f 651/651 650/650 632/632
f 651/651 632/632 649/649
f 652/652 651/651 649/649
f 653/653 652/652 649/649
f 655/655 654/654 641/641
f 643/643 655/655 641/641
f 657/657 656/656 654/654
f 658/658 657/657 654/654
f 655/655 658/658 654/654
f 641/641 659/659 644/644
f 641/641 654/654 659/659
f 644/644 660/660 646/646
f 644/644 659/659 660/660
f 646/646 661/661 647/647
f 646/646 660/660 661/661
f 647/647 662/662 648/648
f 647/647 661/661 662/662
f 663/663 649/649 648/648
f 664/664 663/663 648/648
f 665/665 664/664 648/648
f 665/665 648/648 662/662
f 666/666 665/665 662/662
f 653/653 649/649 667/667
f 667/667 649/649 663/663
f 656/656 668/668 654/654
f 656/656 669/669 668/668
f 654/654 670/670 659/659
f 654/654 668/668 670/670
f 659/659 671/671 660/660
f 659/659 670/670 671/671
f 660/660 672/672 661/661
f 660/660 671/671 672/672
f 673/673 662/662 661/661
f 674/674 673/673 661/661
f 674/674 661/661 672/672
f 675/675 674/674 672/672
f 676/676 675/675 672/672
f 677/677 666/666 662/662
f 678/678 677/677 662/662
f 678/678 662/662 673/673
f 669/669 679/679 668/668
f 669/669 680/680 679/679
f 668/668 681/681 670/670
f 668/668 679/679 681/681
f 670/670 682/682 671/671
f 670/670 681/681 682/682
f 683/683 672/672 671/671
f 684/684 683/683 671/671
f 685/685 684/684 671/671
f 685/685 671/671 682/682
f 686/686 685/685 682/682
f 676/676 672/672 687/687
f 687/687 672/672 683/683
f 680/680 688/688 679/679
f 680/680 689/689 688/688
f 679/679 690/690 681/681
f 679/679 688/688 690/690
f 691/691 682/682 681/681
f 692/692 691/691 681/681
f 692/692 681/681 690/690
f 693/693 692/692 690/690
f 694/694 693/693 690/690
f 686/686 682/682 695/695
f 695/695 682/682 691/691
f 689/689 696/696 688/688
f 689/689 697/697 696/696
f 698/698 690/690 688/688
f 699/699 698/698 688/688
f 700/700 699/699 688/688
f 700/700 688/688 696/696
f 701/701 700/700 696/696
f 694/694 690/690 702/702
f 702/702 690/690 698/698
f 703/703 696/696 697/697
f 704/704 703/703 697/697
f 704/704 697/697 705/705
f 706/706 704/704 705/705
f 701/701 696/696 707/707
f 707/707 696/696 703/703
f 706/706 705/705 708/708
f 709/709 706/706 708/708
f 708/708 705/705 710/710
f 711/711 708/708 710/710
