o IrwinBuildings_Landing
v 27163.54210 -100395.31823 753.79341
v 26983.54274 -100394.83720 753.79341
v 26983.35568 -100464.83695 753.79341
v 27163.54210 -100395.31823 753.79341
v 26983.35568 -100464.83695 753.79341
v 27163.35503 -100465.31798 753.79341
v 27163.35503 -100465.31798 761.79341
v 26983.35568 -100464.83695 761.79341
v 26983.54274 -100394.83720 761.79341
v 27163.35503 -100465.31798 761.79341
v 26983.54274 -100394.83720 761.79341
v 27163.54210 -100395.31823 761.79341
v 27163.35503 -100465.31798 753.79341
v 26983.35568 -100464.83695 753.79341
v 26983.35568 -100464.83695 761.79341
v 27163.35503 -100465.31798 753.79341
v 26983.35568 -100464.83695 761.79341
v 27163.35503 -100465.31798 761.79341
v 26983.35568 -100464.83695 753.79341
v 26983.54274 -100394.83720 753.79341
v 26983.54274 -100394.83720 761.79341
v 26983.35568 -100464.83695 753.79341
v 26983.54274 -100394.83720 761.79341
v 26983.35568 -100464.83695 761.79341
v 26983.54274 -100394.83720 753.79341
v 27163.54210 -100395.31823 753.79341
v 27163.54210 -100395.31823 761.79341
v 26983.54274 -100394.83720 753.79341
v 27163.54210 -100395.31823 761.79341
v 26983.54274 -100394.83720 761.79341
v 27163.54210 -100395.31823 753.79341
v 27163.35503 -100465.31798 753.79341
v 27163.35503 -100465.31798 761.79341
v 27163.54210 -100395.31823 753.79341
v 27163.35503 -100465.31798 761.79341
v 27163.54210 -100395.31823 761.79341
v 25737.93763 -99927.29670 782.72734
v 25742.53940 -100107.23786 782.72734
v 25812.51652 -100105.44829 782.72734
v 25737.93763 -99927.29670 782.72734
v 25812.51652 -100105.44829 782.72734
v 25807.91475 -99925.50712 782.72734
v 25807.91475 -99925.50712 790.72734
v 25812.51652 -100105.44829 790.72734
v 25742.53940 -100107.23786 790.72734
v 25807.91475 -99925.50712 790.72734
v 25742.53940 -100107.23786 790.72734
v 25737.93763 -99927.29670 790.72734
v 25807.91475 -99925.50712 782.72734
v 25812.51652 -100105.44829 782.72734
v 25812.51652 -100105.44829 790.72734
v 25807.91475 -99925.50712 782.72734
v 25812.51652 -100105.44829 790.72734
v 25807.91475 -99925.50712 790.72734
v 25812.51652 -100105.44829 782.72734
v 25742.53940 -100107.23786 782.72734
v 25742.53940 -100107.23786 790.72734
v 25812.51652 -100105.44829 782.72734
v 25742.53940 -100107.23786 790.72734
v 25812.51652 -100105.44829 790.72734
v 25742.53940 -100107.23786 782.72734
v 25737.93763 -99927.29670 782.72734
v 25737.93763 -99927.29670 790.72734
v 25742.53940 -100107.23786 782.72734
v 25737.93763 -99927.29670 790.72734
v 25742.53940 -100107.23786 790.72734
v 25737.93763 -99927.29670 782.72734
v 25807.91475 -99925.50712 782.72734
v 25807.91475 -99925.50712 790.72734
v 25737.93763 -99927.29670 782.72734
v 25807.91475 -99925.50712 790.72734
v 25737.93763 -99927.29670 790.72734
v 25871.40899 -103915.99540 823.67874
v 25897.13257 -103737.84295 823.67874
v 25827.85106 -103727.83933 823.67874
v 25871.40899 -103915.99540 823.67874
v 25827.85106 -103727.83933 823.67874
v 25802.12748 -103905.99179 823.67874
v 25802.12748 -103905.99179 831.67874
v 25827.85106 -103727.83933 831.67874
v 25897.13257 -103737.84295 831.67874
v 25802.12748 -103905.99179 831.67874
v 25897.13257 -103737.84295 831.67874
v 25871.40899 -103915.99540 831.67874
v 25802.12748 -103905.99179 823.67874
v 25827.85106 -103727.83933 823.67874
v 25827.85106 -103727.83933 831.67874
v 25802.12748 -103905.99179 823.67874
v 25827.85106 -103727.83933 831.67874
v 25802.12748 -103905.99179 831.67874
v 25827.85106 -103727.83933 823.67874
v 25897.13257 -103737.84295 823.67874
v 25897.13257 -103737.84295 831.67874
v 25827.85106 -103727.83933 823.67874
v 25897.13257 -103737.84295 831.67874
v 25827.85106 -103727.83933 831.67874
v 25897.13257 -103737.84295 823.67874
v 25871.40899 -103915.99540 823.67874
v 25871.40899 -103915.99540 831.67874
v 25897.13257 -103737.84295 823.67874
v 25871.40899 -103915.99540 831.67874
v 25897.13257 -103737.84295 831.67874
v 25871.40899 -103915.99540 823.67874
v 25802.12748 -103905.99179 823.67874
v 25802.12748 -103905.99179 831.67874
v 25871.40899 -103915.99540 823.67874
v 25802.12748 -103905.99179 831.67874
v 25871.40899 -103915.99540 831.67874
v 26844.20434 -99102.66661 678.54025
v 26866.15716 -98924.01032 678.54025
v 26796.67971 -98915.47310 678.54025
v 26844.20434 -99102.66661 678.54025
v 26796.67971 -98915.47310 678.54025
v 26774.72689 -99094.12940 678.54025
v 26774.72689 -99094.12940 686.54025
v 26796.67971 -98915.47310 686.54025
v 26866.15716 -98924.01032 686.54025
v 26774.72689 -99094.12940 686.54025
v 26866.15716 -98924.01032 686.54025
v 26844.20434 -99102.66661 686.54025
v 26774.72689 -99094.12940 678.54025
v 26796.67971 -98915.47310 678.54025
v 26796.67971 -98915.47310 686.54025
v 26774.72689 -99094.12940 678.54025
v 26796.67971 -98915.47310 686.54025
v 26774.72689 -99094.12940 686.54025
v 26796.67971 -98915.47310 678.54025
v 26866.15716 -98924.01032 678.54025
v 26866.15716 -98924.01032 686.54025
v 26796.67971 -98915.47310 678.54025
v 26866.15716 -98924.01032 686.54025
v 26796.67971 -98915.47310 686.54025
v 26866.15716 -98924.01032 678.54025
v 26844.20434 -99102.66661 678.54025
v 26844.20434 -99102.66661 686.54025
v 26866.15716 -98924.01032 678.54025
v 26844.20434 -99102.66661 686.54025
v 26866.15716 -98924.01032 686.54025
v 26844.20434 -99102.66661 678.54025
v 26774.72689 -99094.12940 678.54025
v 26774.72689 -99094.12940 686.54025
v 26844.20434 -99102.66661 678.54025
v 26774.72689 -99094.12940 686.54025
v 26844.20434 -99102.66661 686.54025
v 25822.96248 -98973.51101 816.11332
v 25811.23621 -99153.12865 816.11332
v 25881.08751 -99157.68886 816.11332
v 25822.96248 -98973.51101 816.11332
v 25881.08751 -99157.68886 816.11332
v 25892.81378 -98978.07123 816.11332
v 25892.81378 -98978.07123 824.11332
v 25881.08751 -99157.68886 824.11332
v 25811.23621 -99153.12865 824.11332
v 25892.81378 -98978.07123 824.11332
v 25811.23621 -99153.12865 824.11332
v 25822.96248 -98973.51101 824.11332
v 25892.81378 -98978.07123 816.11332
v 25881.08751 -99157.68886 816.11332
v 25881.08751 -99157.68886 824.11332
v 25892.81378 -98978.07123 816.11332
v 25881.08751 -99157.68886 824.11332
v 25892.81378 -98978.07123 824.11332
v 25881.08751 -99157.68886 816.11332
v 25811.23621 -99153.12865 816.11332
v 25811.23621 -99153.12865 824.11332
v 25881.08751 -99157.68886 816.11332
v 25811.23621 -99153.12865 824.11332
v 25881.08751 -99157.68886 824.11332
v 25811.23621 -99153.12865 816.11332
v 25822.96248 -98973.51101 816.11332
v 25822.96248 -98973.51101 824.11332
v 25811.23621 -99153.12865 816.11332
v 25822.96248 -98973.51101 824.11332
v 25811.23621 -99153.12865 824.11332
v 25822.96248 -98973.51101 816.11332
v 25892.81378 -98978.07123 816.11332
v 25892.81378 -98978.07123 824.11332
v 25822.96248 -98973.51101 816.11332
v 25892.81378 -98978.07123 824.11332
v 25822.96248 -98973.51101 824.11332
v 26198.09277 -101774.30770 780.15596
v 26220.43810 -101595.70006 780.15596
v 26150.97958 -101587.01021 780.15596
v 26198.09277 -101774.30770 780.15596
v 26150.97958 -101587.01021 780.15596
v 26128.63425 -101765.61785 780.15596
v 26128.63425 -101765.61785 788.15596
v 26150.97958 -101587.01021 788.15596
v 26220.43810 -101595.70006 788.15596
v 26128.63425 -101765.61785 788.15596
v 26220.43810 -101595.70006 788.15596
v 26198.09277 -101774.30770 788.15596
v 26128.63425 -101765.61785 780.15596
v 26150.97958 -101587.01021 780.15596
v 26150.97958 -101587.01021 788.15596
v 26128.63425 -101765.61785 780.15596
v 26150.97958 -101587.01021 788.15596
v 26128.63425 -101765.61785 788.15596
v 26150.97958 -101587.01021 780.15596
v 26220.43810 -101595.70006 780.15596
v 26220.43810 -101595.70006 788.15596
v 26150.97958 -101587.01021 780.15596
v 26220.43810 -101595.70006 788.15596
v 26150.97958 -101587.01021 788.15596
v 26220.43810 -101595.70006 780.15596
v 26198.09277 -101774.30770 780.15596
v 26198.09277 -101774.30770 788.15596
v 26220.43810 -101595.70006 780.15596
v 26198.09277 -101774.30770 788.15596
v 26220.43810 -101595.70006 788.15596
v 26198.09277 -101774.30770 780.15596
v 26128.63425 -101765.61785 780.15596
v 26128.63425 -101765.61785 788.15596
v 26198.09277 -101774.30770 780.15596
v 26128.63425 -101765.61785 788.15596
v 26198.09277 -101774.30770 788.15596
v 24654.72856 -101318.27148 893.19039
v 24834.72717 -101317.56350 893.19039
v 24834.45184 -101247.56404 893.19039
v 24654.72856 -101318.27148 893.19039
v 24834.45184 -101247.56404 893.19039
v 24654.45324 -101248.27202 893.19039
v 24654.45324 -101248.27202 901.19039
v 24834.45184 -101247.56404 901.19039
v 24834.72717 -101317.56350 901.19039
v 24654.45324 -101248.27202 901.19039
v 24834.72717 -101317.56350 901.19039
v 24654.72856 -101318.27148 901.19039
v 24654.45324 -101248.27202 893.19039
v 24834.45184 -101247.56404 893.19039
v 24834.45184 -101247.56404 901.19039
v 24654.45324 -101248.27202 893.19039
v 24834.45184 -101247.56404 901.19039
v 24654.45324 -101248.27202 901.19039
v 24834.45184 -101247.56404 893.19039
v 24834.72717 -101317.56350 893.19039
v 24834.72717 -101317.56350 901.19039
v 24834.45184 -101247.56404 893.19039
v 24834.72717 -101317.56350 901.19039
v 24834.45184 -101247.56404 901.19039
v 24834.72717 -101317.56350 893.19039
v 24654.72856 -101318.27148 893.19039
v 24654.72856 -101318.27148 901.19039
v 24834.72717 -101317.56350 893.19039
v 24654.72856 -101318.27148 901.19039
v 24834.72717 -101317.56350 901.19039
v 24654.72856 -101318.27148 893.19039
v 24654.45324 -101248.27202 893.19039
v 24654.45324 -101248.27202 901.19039
v 24654.72856 -101318.27148 893.19039
v 24654.45324 -101248.27202 901.19039
v 24654.72856 -101318.27148 901.19039
v 25778.05238 -99931.27245 790.92736
v 25798.04584 -99930.76114 790.92736
v 25802.39196 -100100.70557 790.92736
v 25778.05238 -99931.27245 790.92736
v 25802.39196 -100100.70557 790.92736
v 25782.39850 -100101.21688 790.92736
v 25798.04584 -99930.76114 790.92736
v 25818.03931 -99930.24983 790.92734
v 25822.38542 -100100.19427 790.92734
v 25798.04584 -99930.76114 790.92736
v 25822.38542 -100100.19427 790.92734
v 25802.39196 -100100.70557 790.92736
v 25818.03931 -99930.24983 790.92734
v 25838.03277 -99929.73852 789.46750
v 25842.37889 -100099.68296 789.46750
v 25818.03931 -99930.24983 790.92734
v 25842.37889 -100099.68296 789.46750
v 25822.38542 -100100.19427 790.92734
v 25838.03277 -99929.73852 789.46750
v 25858.02623 -99929.22722 788.00767
v 25862.37235 -100099.17165 788.00767
v 25838.03277 -99929.73852 789.46750
v 25862.37235 -100099.17165 788.00767
v 25842.37889 -100099.68296 789.46750
v 25858.02623 -99929.22722 788.00767
v 25878.01970 -99928.71591 786.54783
v 25882.36581 -100098.66034 786.54783
v 25858.02623 -99929.22722 788.00767
v 25882.36581 -100098.66034 786.54783
v 25862.37235 -100099.17165 788.00767
v 25878.01970 -99928.71591 786.54783
v 25898.01316 -99928.20460 785.08799
v 25902.35928 -100098.14904 785.08799
v 25878.01970 -99928.71591 786.54783
v 25902.35928 -100098.14904 785.08799
v 25882.36581 -100098.66034 786.54783
v 25898.01316 -99928.20460 785.08799
v 25918.00662 -99927.69329 783.62816
v 25922.35274 -100097.63773 783.62816
v 25898.01316 -99928.20460 785.08799
v 25922.35274 -100097.63773 783.62816
v 25902.35928 -100098.14904 785.08799
v 25918.00662 -99927.69329 783.62816
v 25938.00009 -99927.18198 782.16832
v 25942.34620 -100097.12642 782.16832
v 25918.00662 -99927.69329 783.62816
v 25942.34620 -100097.12642 782.16832
v 25922.35274 -100097.63773 783.62816
v 25938.00009 -99927.18198 782.16832
v 25957.99355 -99926.67068 780.70848
v 25962.33966 -100096.61511 780.70848
v 25938.00009 -99927.18198 782.16832
v 25962.33966 -100096.61511 780.70848
v 25942.34620 -100097.12642 782.16832
v 25957.99355 -99926.67068 780.70848
v 25977.98701 -99926.15937 779.24865
v 25982.33313 -100096.10380 779.24865
v 25957.99355 -99926.67068 780.70848
v 25982.33313 -100096.10380 779.24865
v 25962.33966 -100096.61511 780.70848
v 25977.98701 -99926.15937 779.24865
v 25997.98047 -99925.64806 777.78881
v 26002.32659 -100095.59250 777.78881
v 25977.98701 -99926.15937 779.24865
v 26002.32659 -100095.59250 777.78881
v 25982.33313 -100096.10380 779.24865
v 25997.98047 -99925.64806 777.78881
v 26017.97394 -99925.13675 776.32897
v 26022.32005 -100095.08119 776.32897
v 25997.98047 -99925.64806 777.78881
v 26022.32005 -100095.08119 776.32897
v 26002.32659 -100095.59250 777.78881
v 26017.97394 -99925.13675 776.32897
v 26037.96740 -99924.62545 774.86914
v 26042.31352 -100094.56988 774.86914
v 26017.97394 -99925.13675 776.32897
v 26042.31352 -100094.56988 774.86914
v 26022.32005 -100095.08119 776.32897
v 25862.55178 -98981.10623 824.31334
v 25882.50930 -98982.40915 824.31334
v 25871.43448 -99152.04802 824.31334
v 25862.55178 -98981.10623 824.31334
v 25871.43448 -99152.04802 824.31334
v 25851.47697 -99150.74510 824.31334
v 25882.50930 -98982.40915 824.31334
v 25902.46681 -98983.71207 824.31332
v 25891.39200 -99153.35094 824.31332
v 25882.50930 -98982.40915 824.31334
v 25891.39200 -99153.35094 824.31332
v 25871.43448 -99152.04802 824.31334
v 25902.46681 -98983.71207 824.31332
v 25922.42433 -98985.01499 819.14812
v 25911.34951 -99154.65386 819.14812
v 25902.46681 -98983.71207 824.31332
v 25911.34951 -99154.65386 819.14812
v 25891.39200 -99153.35094 824.31332
v 25922.42433 -98985.01499 819.14812
v 25942.38184 -98986.31791 813.98293
v 25931.30703 -99155.95678 813.98293
v 25922.42433 -98985.01499 819.14812
v 25931.30703 -99155.95678 813.98293
v 25911.34951 -99154.65386 819.14812
v 25942.38184 -98986.31791 813.98293
v 25962.33936 -98987.62082 808.81773
v 25951.26454 -99157.25970 808.81773
v 25942.38184 -98986.31791 813.98293
v 25951.26454 -99157.25970 808.81773
v 25931.30703 -99155.95678 813.98293
v 25962.33936 -98987.62082 808.81773
v 25982.29687 -98988.92374 803.65254
v 25971.22206 -99158.56262 803.65254
v 25962.33936 -98987.62082 808.81773
v 25971.22206 -99158.56262 803.65254
v 25951.26454 -99157.25970 808.81773
v 25982.29687 -98988.92374 803.65254
v 26002.25439 -98990.22666 798.48735
v 25991.17957 -99159.86554 798.48735
v 25982.29687 -98988.92374 803.65254
v 25991.17957 -99159.86554 798.48735
v 25971.22206 -99158.56262 803.65254
v 26002.25439 -98990.22666 798.48735
v 26022.21190 -98991.52958 793.32215
v 26011.13709 -99161.16846 793.32215
v 26002.25439 -98990.22666 798.48735
v 26011.13709 -99161.16846 793.32215
v 25991.17957 -99159.86554 798.48735
v 26022.21190 -98991.52958 793.32215
v 26042.16942 -98992.83250 788.15696
v 26031.09460 -99162.47138 788.15696
v 26022.21190 -98991.52958 793.32215
v 26031.09460 -99162.47138 788.15696
v 26011.13709 -99161.16846 793.32215
v 26042.16942 -98992.83250 788.15696
v 26062.12693 -98994.13542 782.99176
v 26051.05212 -99163.77430 782.99176
v 26042.16942 -98992.83250 788.15696
v 26051.05212 -99163.77430 782.99176
v 26031.09460 -99162.47138 788.15696
v 26062.12693 -98994.13542 782.99176
v 26082.08445 -98995.43834 777.82657
v 26071.00963 -99165.07722 777.82657
v 26062.12693 -98994.13542 782.99176
v 26071.00963 -99165.07722 777.82657
v 26051.05212 -99163.77430 782.99176
v 26082.08445 -98995.43834 777.82657
v 26102.04196 -98996.74126 772.66138
v 26090.96715 -99166.38014 772.66138
v 26082.08445 -98995.43834 777.82657
v 26090.96715 -99166.38014 772.66138
v 26071.00963 -99165.07722 777.82657
v 26102.04196 -98996.74126 772.66138
v 26121.99948 -98998.04418 767.49618
v 26110.92466 -99167.68306 767.49618
v 26102.04196 -98996.74126 772.66138
v 26110.92466 -99167.68306 767.49618
v 26090.96715 -99166.38014 772.66138
vt 135.81771 3.76897
vt 134.91771 3.76897
vt 134.91678 3.76897
vt 135.81771 3.76897
vt 134.91678 3.76897
vt 135.81678 3.76897
vt 135.81678 3.80897
vt 134.91678 3.80897
vt 134.91771 3.80897
vt 135.81678 3.80897
vt 134.91771 3.80897
vt 135.81771 3.80897
vt 135.81678 3.76897
vt 134.91678 3.76897
vt 134.91678 3.80897
vt 135.81678 3.76897
vt 134.91678 3.80897
vt 135.81678 3.80897
vt 134.91678 3.76897
vt 134.91771 3.76897
vt 134.91771 3.80897
vt 134.91678 3.76897
vt 134.91771 3.80897
vt 134.91678 3.80897
vt 134.91771 3.76897
vt 135.81771 3.76897
vt 135.81771 3.80897
vt 134.91771 3.76897
vt 135.81771 3.80897
vt 134.91771 3.80897
vt 135.81771 3.76897
vt 135.81678 3.76897
vt 135.81678 3.80897
vt 135.81771 3.76897
vt 135.81678 3.80897
vt 135.81771 3.80897
vt 128.68969 3.91364
vt 128.71270 3.91364
vt 129.06258 3.91364
vt 128.68969 3.91364
vt 129.06258 3.91364
vt 129.03957 3.91364
vt 129.03957 3.95364
vt 129.06258 3.95364
vt 128.71270 3.95364
vt 129.03957 3.95364
vt 128.71270 3.95364
vt 128.68969 3.95364
vt 129.03957 3.91364
vt 129.06258 3.91364
vt 129.06258 3.95364
vt 129.03957 3.91364
vt 129.06258 3.95364
vt 129.03957 3.95364
vt 129.06258 3.91364
vt 128.71270 3.91364
vt 128.71270 3.95364
vt 129.06258 3.91364
vt 128.71270 3.95364
vt 129.06258 3.95364
vt 128.71270 3.91364
vt 128.68969 3.91364
vt 128.68969 3.95364
vt 128.71270 3.91364
vt 128.68969 3.95364
vt 128.71270 3.95364
vt 128.68969 3.91364
vt 129.03957 3.91364
vt 129.03957 3.95364
vt 128.68969 3.91364
vt 129.03957 3.95364
vt 128.68969 3.95364
vt 129.35704 4.11839
vt 129.48566 4.11839
vt 129.13926 4.11839
vt 129.35704 4.11839
vt 129.13926 4.11839
vt 129.01064 4.11839
vt 129.01064 4.15839
vt 129.13926 4.15839
vt 129.48566 4.15839
vt 129.01064 4.15839
vt 129.48566 4.15839
vt 129.35704 4.15839
vt 129.01064 4.11839
vt 129.13926 4.11839
vt 129.13926 4.15839
vt 129.01064 4.11839
vt 129.13926 4.15839
vt 129.01064 4.15839
vt 129.13926 4.11839
vt 129.48566 4.11839
vt 129.48566 4.15839
vt 129.13926 4.11839
vt 129.48566 4.15839
vt 129.13926 4.15839
vt 129.48566 4.11839
vt 129.35704 4.11839
vt 129.35704 4.15839
vt 129.48566 4.11839
vt 129.35704 4.15839
vt 129.48566 4.15839
vt 129.35704 4.11839
vt 129.01064 4.11839
vt 129.01064 4.15839
vt 129.35704 4.11839
vt 129.01064 4.15839
vt 129.35704 4.15839
vt 134.22102 3.39270
vt 134.33079 3.39270
vt 133.98340 3.39270
vt 134.22102 3.39270
vt 133.98340 3.39270
vt 133.87363 3.39270
vt 133.87363 3.43270
vt 133.98340 3.43270
vt 134.33079 3.43270
vt 133.87363 3.43270
vt 134.33079 3.43270
vt 134.22102 3.43270
vt 133.87363 3.39270
vt 133.98340 3.39270
vt 133.98340 3.43270
vt 133.87363 3.39270
vt 133.98340 3.43270
vt 133.87363 3.43270
vt 133.98340 3.39270
vt 134.33079 3.39270
vt 134.33079 3.43270
vt 133.98340 3.39270
vt 134.33079 3.43270
vt 133.98340 3.43270
vt 134.33079 3.39270
vt 134.22102 3.39270
vt 134.22102 3.43270
vt 134.33079 3.39270
vt 134.22102 3.43270
vt 134.33079 3.43270
vt 134.22102 3.39270
vt 133.87363 3.39270
vt 133.87363 3.43270
vt 134.22102 3.39270
vt 133.87363 3.43270
vt 134.22102 3.43270
vt 129.11481 4.08057
vt 129.05618 4.08057
vt 129.40544 4.08057
vt 129.11481 4.08057
vt 129.40544 4.08057
vt 129.46407 4.08057
vt 129.46407 4.12057
vt 129.40544 4.12057
vt 129.05618 4.12057
vt 129.46407 4.12057
vt 129.05618 4.12057
vt 129.11481 4.12057
vt 129.46407 4.08057
vt 129.40544 4.08057
vt 129.40544 4.12057
vt 129.46407 4.08057
vt 129.40544 4.12057
vt 129.46407 4.12057
vt 129.40544 4.08057
vt 129.05618 4.08057
vt 129.05618 4.12057
vt 129.40544 4.08057
vt 129.05618 4.12057
vt 129.40544 4.12057
vt 129.05618 4.08057
vt 129.11481 4.08057
vt 129.11481 4.12057
vt 129.05618 4.08057
vt 129.11481 4.12057
vt 129.05618 4.12057
vt 129.11481 4.08057
vt 129.46407 4.08057
vt 129.46407 4.12057
vt 129.11481 4.08057
vt 129.46407 4.12057
vt 129.11481 4.12057
vt 130.99046 3.90078
vt 131.10219 3.90078
vt 130.75490 3.90078
vt 130.99046 3.90078
vt 130.75490 3.90078
vt 130.64317 3.90078
vt 130.64317 3.94078
vt 130.75490 3.94078
vt 131.10219 3.94078
vt 130.64317 3.94078
vt 131.10219 3.94078
vt 130.99046 3.94078
vt 130.64317 3.90078
vt 130.75490 3.90078
vt 130.75490 3.94078
vt 130.64317 3.90078
vt 130.75490 3.94078
vt 130.64317 3.94078
vt 130.75490 3.90078
vt 131.10219 3.90078
vt 131.10219 3.94078
vt 130.75490 3.90078
vt 131.10219 3.94078
vt 130.75490 3.94078
vt 131.10219 3.90078
vt 130.99046 3.90078
vt 130.99046 3.94078
vt 131.10219 3.90078
vt 130.99046 3.94078
vt 131.10219 3.94078
vt 130.99046 3.90078
vt 130.64317 3.90078
vt 130.64317 3.94078
vt 130.99046 3.90078
vt 130.64317 3.94078
vt 130.99046 3.94078
vt 123.27364 4.46595
vt 124.17364 4.46595
vt 124.17226 4.46595
vt 123.27364 4.46595
vt 124.17226 4.46595
vt 123.27227 4.46595
vt 123.27227 4.50595
vt 124.17226 4.50595
vt 124.17364 4.50595
vt 123.27227 4.50595
vt 124.17364 4.50595
vt 123.27364 4.50595
vt 123.27227 4.46595
vt 124.17226 4.46595
vt 124.17226 4.50595
vt 123.27227 4.46595
vt 124.17226 4.50595
vt 123.27227 4.50595
vt 124.17226 4.46595
vt 124.17364 4.46595
vt 124.17364 4.50595
vt 124.17226 4.46595
vt 124.17364 4.50595
vt 124.17226 4.50595
vt 124.17364 4.46595
vt 123.27364 4.46595
vt 123.27364 4.50595
vt 124.17364 4.46595
vt 123.27364 4.50595
vt 124.17364 4.50595
vt 123.27364 4.46595
vt 123.27227 4.46595
vt 123.27227 4.50595
vt 123.27364 4.46595
vt 123.27227 4.50595
vt 123.27364 4.50595
vt 128.89026 3.95464
vt 128.99023 3.95464
vt 129.01196 3.95464
vt 128.89026 3.95464
vt 129.01196 3.95464
vt 128.91199 3.95464
vt 128.99023 3.95464
vt 129.09020 3.95464
vt 129.11193 3.95464
vt 128.99023 3.95464
vt 129.11193 3.95464
vt 129.01196 3.95464
vt 129.09020 3.95464
vt 129.19016 3.94734
vt 129.21189 3.94734
vt 129.09020 3.95464
vt 129.21189 3.94734
vt 129.11193 3.95464
vt 129.19016 3.94734
vt 129.29013 3.94004
vt 129.31186 3.94004
vt 129.19016 3.94734
vt 129.31186 3.94004
vt 129.21189 3.94734
vt 129.29013 3.94004
vt 129.39010 3.93274
vt 129.41183 3.93274
vt 129.29013 3.94004
vt 129.41183 3.93274
vt 129.31186 3.94004
vt 129.39010 3.93274
vt 129.49007 3.92544
vt 129.51180 3.92544
vt 129.39010 3.93274
vt 129.51180 3.92544
vt 129.41183 3.93274
vt 129.49007 3.92544
vt 129.59003 3.91814
vt 129.61176 3.91814
vt 129.49007 3.92544
vt 129.61176 3.91814
vt 129.51180 3.92544
vt 129.59003 3.91814
vt 129.69000 3.91084
vt 129.71173 3.91084
vt 129.59003 3.91814
vt 129.71173 3.91084
vt 129.61176 3.91814
vt 129.69000 3.91084
vt 129.78997 3.90354
vt 129.81170 3.90354
vt 129.69000 3.91084
vt 129.81170 3.90354
vt 129.71173 3.91084
vt 129.78997 3.90354
vt 129.88994 3.89624
vt 129.91167 3.89624
vt 129.78997 3.90354
vt 129.91167 3.89624
vt 129.81170 3.90354
vt 129.88994 3.89624
vt 129.98990 3.88894
vt 130.01163 3.88894
vt 129.88994 3.89624
vt 130.01163 3.88894
vt 129.91167 3.89624
vt 129.98990 3.88894
vt 130.08987 3.88164
vt 130.11160 3.88164
vt 129.98990 3.88894
vt 130.11160 3.88164
vt 130.01163 3.88894
vt 130.08987 3.88164
vt 130.18984 3.87435
vt 130.21157 3.87435
vt 130.08987 3.88164
vt 130.21157 3.87435
vt 130.11160 3.88164
vt 129.31276 4.12157
vt 129.41255 4.12157
vt 129.35717 4.12157
vt 129.31276 4.12157
vt 129.35717 4.12157
vt 129.25738 4.12157
vt 129.41255 4.12157
vt 129.51233 4.12157
vt 129.45696 4.12157
vt 129.41255 4.12157
vt 129.45696 4.12157
vt 129.35717 4.12157
vt 129.51233 4.12157
vt 129.61212 4.09574
vt 129.55675 4.09574
vt 129.51233 4.12157
vt 129.55675 4.09574
vt 129.45696 4.12157
vt 129.61212 4.09574
vt 129.71191 4.06991
vt 129.65654 4.06991
vt 129.61212 4.09574
vt 129.65654 4.06991
vt 129.55675 4.09574
vt 129.71191 4.06991
vt 129.81170 4.04409
vt 129.75632 4.04409
vt 129.71191 4.06991
vt 129.75632 4.04409
vt 129.65654 4.06991
vt 129.81170 4.04409
vt 129.91148 4.01826
vt 129.85611 4.01826
vt 129.81170 4.04409
vt 129.85611 4.01826
vt 129.75632 4.04409
vt 129.91148 4.01826
vt 130.01127 3.99244
vt 129.95590 3.99244
vt 129.91148 4.01826
vt 129.95590 3.99244
vt 129.85611 4.01826
vt 130.01127 3.99244
vt 130.11106 3.96661
vt 130.05569 3.96661
vt 130.01127 3.99244
vt 130.05569 3.96661
vt 129.95590 3.99244
vt 130.11106 3.96661
vt 130.21085 3.94078
vt 130.15547 3.94078
vt 130.11106 3.96661
vt 130.15547 3.94078
vt 130.05569 3.96661
vt 130.21085 3.94078
vt 130.31063 3.91496
vt 130.25526 3.91496
vt 130.21085 3.94078
vt 130.25526 3.91496
vt 130.15547 3.94078
vt 130.31063 3.91496
vt 130.41042 3.88913
vt 130.35505 3.88913
vt 130.31063 3.91496
vt 130.35505 3.88913
vt 130.25526 3.91496
vt 130.41042 3.88913
vt 130.51021 3.86331
vt 130.45484 3.86331
vt 130.41042 3.88913
vt 130.45484 3.86331
vt 130.35505 3.88913
vt 130.51021 3.86331
vt 130.61000 3.83748
vt 130.55462 3.83748
vt 130.51021 3.86331
vt 130.55462 3.83748
vt 130.45484 3.86331
f 3/3 2/2 1/1
f 6/6 5/5 4/4
f 9/9 8/8 7/7
f 12/12 11/11 10/10
f 15/15 14/14 13/13
f 18/18 17/17 16/16
f 21/21 20/20 19/19
f 24/24 23/23 22/22
f 27/27 26/26 25/25
f 30/30 29/29 28/28
f 33/33 32/32 31/31
f 36/36 35/35 34/34
f 39/39 38/38 37/37
f 42/42 41/41 40/40
f 45/45 44/44 43/43
f 48/48 47/47 46/46
f 51/51 50/50 49/49
f 54/54 53/53 52/52
f 57/57 56/56 55/55
f 60/60 59/59 58/58
f 63/63 62/62 61/61
f 66/66 65/65 64/64
f 69/69 68/68 67/67
f 72/72 71/71 70/70
f 75/75 74/74 73/73
f 78/78 77/77 76/76
f 81/81 80/80 79/79
f 84/84 83/83 82/82
f 87/87 86/86 85/85
f 90/90 89/89 88/88
f 93/93 92/92 91/91
f 96/96 95/95 94/94
f 99/99 98/98 97/97
f 102/102 101/101 100/100
f 105/105 104/104 103/103
f 108/108 107/107 106/106
f 111/111 110/110 109/109
f 114/114 113/113 112/112
f 117/117 116/116 115/115
f 120/120 119/119 118/118
f 123/123 122/122 121/121
f 126/126 125/125 124/124
f 129/129 128/128 127/127
f 132/132 131/131 130/130
f 135/135 134/134 133/133
f 138/138 137/137 136/136
f 141/141 140/140 139/139
f 144/144 143/143 142/142
f 147/147 146/146 145/145
f 150/150 149/149 148/148
f 153/153 152/152 151/151
f 156/156 155/155 154/154
f 159/159 158/158 157/157
f 162/162 161/161 160/160
f 165/165 164/164 163/163
f 168/168 167/167 166/166
f 171/171 170/170 169/169
f 174/174 173/173 172/172
f 177/177 176/176 175/175
f 180/180 179/179 178/178
f 183/183 182/182 181/181
f 186/186 185/185 184/184
f 189/189 188/188 187/187
f 192/192 191/191 190/190
f 195/195 194/194 193/193
f 198/198 197/197 196/196
f 201/201 200/200 199/199
f 204/204 203/203 202/202
f 207/207 206/206 205/205
f 210/210 209/209 208/208
f 213/213 212/212 211/211
f 216/216 215/215 214/214
f 219/219 218/218 217/217
f 222/222 221/221 220/220
f 225/225 224/224 223/223
f 228/228 227/227 226/226
f 231/231 230/230 229/229
f 234/234 233/233 232/232
f 237/237 236/236 235/235
f 240/240 239/239 238/238
f 243/243 242/242 241/241
f 246/246 245/245 244/244
f 249/249 248/248 247/247
f 252/252 251/251 250/250
f 255/255 254/254 253/253
f 258/258 257/257 256/256
f 261/261 260/260 259/259
f 264/264 263/263 262/262
f 267/267 266/266 265/265
f 270/270 269/269 268/268
f 273/273 272/272 271/271
f 276/276 275/275 274/274
f 279/279 278/278 277/277
f 282/282 281/281 280/280
f 285/285 284/284 283/283
f 288/288 287/287 286/286
f 291/291 290/290 289/289
f 294/294 293/293 292/292
f 297/297 296/296 295/295
f 300/300 299/299 298/298
f 303/303 302/302 301/301
f 306/306 305/305 304/304
f 309/309 308/308 307/307
f 312/312 311/311 310/310
f 315/315 314/314 313/313
f 318/318 317/317 316/316
f 321/321 320/320 319/319
f 324/324 323/323 322/322
f 327/327 326/326 325/325
f 330/330 329/329 328/328
f 333/333 332/332 331/331
f 336/336 335/335 334/334
f 339/339 338/338 337/337
f 342/342 341/341 340/340
f 345/345 344/344 343/343
f 348/348 347/347 346/346
f 351/351 350/350 349/349
f 354/354 353/353 352/352
f 357/357 356/356 355/355
f 360/360 359/359 358/358
f 363/363 362/362 361/361
f 366/366 365/365 364/364
f 369/369 368/368 367/367
f 372/372 371/371 370/370
f 375/375 374/374 373/373
f 378/378 377/377 376/376
f 381/381 380/380 379/379
f 384/384 383/383 382/382
f 387/387 386/386 385/385
f 390/390 389/389 388/388
f 393/393 392/392 391/391
f 396/396 395/395 394/394
f 399/399 398/398 397/397
f 402/402 401/401 400/400
f 405/405 404/404 403/403
f 408/408 407/407 406/406
