o IrwinBuildings_Brick
v 26460.77148 -100518.44059 682.16553
v 26449.56504 -99851.69273 682.16553
v 26449.56504 -99851.69273 1126.10573
v 26460.77148 -100518.44059 682.16553
v 26449.56504 -99851.69273 1126.10573
v 26460.77148 -100518.44059 1126.10573
v 26449.56504 -99851.69273 682.16553
v 26555.20133 -99849.73090 682.16553
v 26555.20133 -99849.73090 1126.10573
v 26449.56504 -99851.69273 682.16553
v 26555.20133 -99849.73090 1126.10573
v 26449.56504 -99851.69273 1126.10573
v 26555.20133 -99849.73090 682.16553
v 27679.87089 -99830.58316 682.16553
v 27679.87089 -99830.58316 1126.10573
v 26555.20133 -99849.73090 682.16553
v 27679.87089 -99830.58316 1126.10573
v 26555.20133 -99849.73090 1126.10573
v 27679.87089 -99830.58316 682.16553
v 27691.49009 -100521.72957 682.16553
v 27691.49009 -100521.72957 1126.10573
v 27679.87089 -99830.58316 682.16553
v 27691.49009 -100521.72957 1126.10573
v 27679.87089 -99830.58316 1126.10573
v 27691.49009 -100521.72957 682.16553
v 27683.13652 -100521.70724 682.16553
v 27683.13652 -100521.70724 1126.10573
v 27691.49009 -100521.72957 682.16553
v 27683.13652 -100521.70724 1126.10573
v 27691.49009 -100521.72957 1126.10573
v 27683.13652 -100521.70724 682.16553
v 27633.13670 -100521.57362 682.16553
v 27633.13670 -100521.57362 1126.10573
v 27683.13652 -100521.70724 682.16553
v 27633.13670 -100521.57362 1126.10573
v 27683.13652 -100521.70724 1126.10573
v 27633.13670 -100521.57362 682.16553
v 27583.13688 -100521.44000 682.16553
v 27583.13688 -100521.44000 1126.10573
v 27633.13670 -100521.57362 682.16553
v 27583.13688 -100521.44000 1126.10573
v 27633.13670 -100521.57362 1126.10573
v 27583.13688 -100521.44000 682.16553
v 27533.13706 -100521.30638 682.16553
v 27533.13706 -100521.30638 1126.10573
v 27583.13688 -100521.44000 682.16553
v 27533.13706 -100521.30638 1126.10573
v 27583.13688 -100521.44000 1126.10573
v 27533.13706 -100521.30638 682.16553
v 27483.13724 -100521.17276 682.16553
v 27483.13724 -100521.17276 1126.10573
v 27533.13706 -100521.30638 682.16553
v 27483.13724 -100521.17276 1126.10573
v 27533.13706 -100521.30638 1126.10573
v 27483.13724 -100521.17276 682.16553
v 27433.13742 -100521.03914 682.16553
v 27433.13742 -100521.03914 1126.10573
v 27483.13724 -100521.17276 682.16553
v 27433.13742 -100521.03914 1126.10573
v 27483.13724 -100521.17276 1126.10573
v 27433.13742 -100521.03914 682.16553
v 27383.13759 -100520.90552 682.16553
v 27383.13759 -100520.90552 1126.10573
v 27433.13742 -100521.03914 682.16553
v 27383.13759 -100520.90552 1126.10573
v 27433.13742 -100521.03914 1126.10573
v 27383.13759 -100520.90552 682.16553
v 27333.13777 -100520.77190 682.16553
v 27333.13777 -100520.77190 1126.10573
v 27383.13759 -100520.90552 682.16553
v 27333.13777 -100520.77190 1126.10573
v 27383.13759 -100520.90552 1126.10573
v 27333.13777 -100520.77190 682.16553
v 27283.13795 -100520.63828 682.16553
v 27283.13795 -100520.63828 1126.10573
v 27333.13777 -100520.77190 682.16553
v 27283.13795 -100520.63828 1126.10573
v 27333.13777 -100520.77190 1126.10573
v 27283.13795 -100520.63828 682.16553
v 27233.13813 -100520.50466 682.16553
v 27233.13813 -100520.50466 1126.10573
v 27283.13795 -100520.63828 682.16553
v 27233.13813 -100520.50466 1126.10573
v 27283.13795 -100520.63828 1126.10573
v 27233.13813 -100520.50466 682.16553
v 27183.13831 -100520.37105 682.16553
v 27183.13831 -100520.37105 1126.10573
v 27233.13813 -100520.50466 682.16553
v 27183.13831 -100520.37105 1126.10573
v 27233.13813 -100520.50466 1126.10573
v 27183.13831 -100520.37105 682.16553
v 27133.13849 -100520.23743 682.16553
v 27133.13849 -100520.23743 1126.10573
v 27183.13831 -100520.37105 682.16553
v 27133.13849 -100520.23743 1126.10573
v 27183.13831 -100520.37105 1126.10573
v 27133.13849 -100520.23743 682.16553
v 27083.13867 -100520.10381 682.16553
v 27083.13867 -100520.10381 1126.10573
v 27133.13849 -100520.23743 682.16553
v 27083.13867 -100520.10381 1126.10573
v 27133.13849 -100520.23743 1126.10573
v 27083.13867 -100520.10381 682.16553
v 27033.13884 -100519.97019 682.16553
v 27033.13884 -100519.97019 1126.10573
v 27083.13867 -100520.10381 682.16553
v 27033.13884 -100519.97019 1126.10573
v 27083.13867 -100520.10381 1126.10573
v 27033.13884 -100519.97019 682.16553
v 26983.13902 -100519.83657 682.16553
v 26983.13902 -100519.83657 1126.10573
v 27033.13884 -100519.97019 682.16553
v 26983.13902 -100519.83657 1126.10573
v 27033.13884 -100519.97019 1126.10573
v 26983.13902 -100519.83657 682.16553
v 26933.13920 -100519.70295 682.16553
v 26933.13920 -100519.70295 1126.10573
v 26983.13902 -100519.83657 682.16553
v 26933.13920 -100519.70295 1126.10573
v 26983.13902 -100519.83657 1126.10573
v 26933.13920 -100519.70295 682.16553
v 26883.13938 -100519.56933 682.16553
v 26883.13938 -100519.56933 1126.10573
v 26933.13920 -100519.70295 682.16553
v 26883.13938 -100519.56933 1126.10573
v 26933.13920 -100519.70295 1126.10573
v 26883.13938 -100519.56933 682.16553
v 26833.13956 -100519.43571 682.16553
v 26833.13956 -100519.43571 1126.10573
v 26883.13938 -100519.56933 682.16553
v 26833.13956 -100519.43571 1126.10573
v 26883.13938 -100519.56933 1126.10573
v 26833.13956 -100519.43571 682.16553
v 26783.13974 -100519.30209 682.16553
v 26783.13974 -100519.30209 1126.10573
v 26833.13956 -100519.43571 682.16553
v 26783.13974 -100519.30209 1126.10573
v 26833.13956 -100519.43571 1126.10573
v 26783.13974 -100519.30209 682.16553
v 26733.13992 -100519.16847 682.16553
v 26733.13992 -100519.16847 1126.10573
v 26783.13974 -100519.30209 682.16553
v 26733.13992 -100519.16847 1126.10573
v 26783.13974 -100519.30209 1126.10573
v 26733.13992 -100519.16847 682.16553
v 26683.14009 -100519.03485 682.16553
v 26683.14009 -100519.03485 1126.10573
v 26733.13992 -100519.16847 682.16553
v 26683.14009 -100519.03485 1126.10573
v 26733.13992 -100519.16847 1126.10573
v 26683.14009 -100519.03485 682.16553
v 26633.14027 -100518.90123 682.16553
v 26633.14027 -100518.90123 1126.10573
v 26683.14009 -100519.03485 682.16553
v 26633.14027 -100518.90123 1126.10573
v 26683.14009 -100519.03485 1126.10573
v 26633.14027 -100518.90123 682.16553
v 26583.14045 -100518.76761 682.16553
v 26583.14045 -100518.76761 1126.10573
v 26633.14027 -100518.90123 682.16553
v 26583.14045 -100518.76761 1126.10573
v 26633.14027 -100518.90123 1126.10573
v 26583.14045 -100518.76761 682.16553
v 26533.14063 -100518.63399 682.16553
v 26533.14063 -100518.63399 1126.10573
v 26583.14045 -100518.76761 682.16553
v 26533.14063 -100518.63399 1126.10573
v 26583.14045 -100518.76761 1126.10573
v 26533.14063 -100518.63399 682.16553
v 26460.77148 -100518.44059 682.16553
v 26460.77148 -100518.44059 1126.10573
v 26533.14063 -100518.63399 682.16553
v 26460.77148 -100518.44059 1126.10573
v 26533.14063 -100518.63399 1126.10573
v 24331.72511 -100053.47018 776.97691
v 24326.98876 -99541.92119 776.97691
v 24326.98876 -99541.92119 1167.11733
v 24331.72511 -100053.47018 776.97691
v 24326.98876 -99541.92119 1167.11733
v 24331.72511 -100053.47018 1167.11733
v 24326.98876 -99541.92119 776.97691
v 24956.88548 -99533.95380 776.97691
v 24956.88548 -99533.95380 1167.11733
v 24326.98876 -99541.92119 776.97691
v 24956.88548 -99533.95380 1167.11733
v 24326.98876 -99541.92119 1167.11733
v 24956.88548 -99533.95380 776.97691
v 24943.07311 -99320.09367 776.97691
v 24943.07311 -99320.09367 1167.11733
v 24956.88548 -99533.95380 776.97691
v 24943.07311 -99320.09367 1167.11733
v 24956.88548 -99533.95380 1167.11733
v 24943.07311 -99320.09367 776.97691
v 25191.57412 -99321.87840 776.97691
v 25191.57412 -99321.87840 1167.11733
v 24943.07311 -99320.09367 776.97691
v 25191.57412 -99321.87840 1167.11733
v 24943.07311 -99320.09367 1167.11733
v 25191.57412 -99321.87840 776.97691
v 25197.26592 -99544.45553 776.97691
v 25197.26592 -99544.45553 1167.11733
v 25191.57412 -99321.87840 776.97691
v 25197.26592 -99544.45553 1167.11733
v 25191.57412 -99321.87840 1167.11733
v 25197.26592 -99544.45553 776.97691
v 25703.23364 -99548.16512 776.97691
v 25703.23364 -99548.16512 1167.11733
v 25197.26592 -99544.45553 776.97691
v 25703.23364 -99548.16512 1167.11733
v 25197.26592 -99544.45553 1167.11733
v 25703.23364 -99548.16512 776.97691
v 25719.25103 -100174.48685 776.97691
v 25719.25103 -100174.48685 1167.11733
v 25703.23364 -99548.16512 776.97691
v 25719.25103 -100174.48685 1167.11733
v 25703.23364 -99548.16512 1167.11733
v 25719.25103 -100174.48685 776.97691
v 25516.19358 -100173.39020 776.97691
v 25516.19358 -100173.39020 1167.11733
v 25719.25103 -100174.48685 776.97691
v 25516.19358 -100173.39020 1167.11733
v 25719.25103 -100174.48685 1167.11733
v 25516.19358 -100173.39020 776.97691
v 25445.43529 -100173.71981 776.97691
v 25445.43529 -100173.71981 1167.11733
v 25516.19358 -100173.39020 776.97691
v 25445.43529 -100173.71981 1167.11733
v 25516.19358 -100173.39020 1167.11733
v 25445.43529 -100173.71981 776.97691
v 25434.65448 -100066.33387 776.97691
v 25434.65448 -100066.33387 1167.11733
v 25445.43529 -100173.71981 776.97691
v 25434.65448 -100066.33387 1167.11733
v 25445.43529 -100173.71981 1167.11733
v 25434.65448 -100066.33387 776.97691
v 24978.62391 -100069.85617 776.97691
v 24978.62391 -100069.85617 1167.11733
v 25434.65448 -100066.33387 776.97691
v 24978.62391 -100069.85617 1167.11733
v 25434.65448 -100066.33387 1167.11733
v 24978.62391 -100069.85617 776.97691
v 24964.68927 -100177.50415 776.97691
v 24964.68927 -100177.50415 1167.11733
v 24978.62391 -100069.85617 776.97691
v 24964.68927 -100177.50415 1167.11733
v 24978.62391 -100069.85617 1167.11733
v 24964.68927 -100177.50415 776.97691
v 24542.03038 -100180.91239 776.97691
v 24542.03038 -100180.91239 1167.11733
v 24964.68927 -100177.50415 776.97691
v 24542.03038 -100180.91239 1167.11733
v 24964.68927 -100177.50415 1167.11733
v 24542.03038 -100180.91239 776.97691
v 24539.15321 -100056.30568 776.97691
v 24539.15321 -100056.30568 1167.11733
v 24542.03038 -100180.91239 776.97691
v 24539.15321 -100056.30568 1167.11733
v 24542.03038 -100180.91239 1167.11733
v 24539.15321 -100056.30568 776.97691
v 24331.72511 -100053.47018 776.97691
v 24331.72511 -100053.47018 1167.11733
v 24539.15321 -100056.30568 776.97691
v 24331.72511 -100053.47018 1167.11733
v 24539.15321 -100056.30568 1167.11733
v 25980.23996 -102609.99269 675.90785
v 27538.82978 -102608.70309 675.90785
v 27538.82978 -102608.70309 1550.17601
v 25980.23996 -102609.99269 675.90785
v 27538.82978 -102608.70309 1550.17601
v 25980.23996 -102609.99269 1550.17601
v 27538.82978 -102608.70309 675.90785
v 27537.26149 -102635.82471 675.90785
v 27537.26149 -102635.82471 1550.17601
v 27538.82978 -102608.70309 675.90785
v 27537.26149 -102635.82471 1550.17601
v 27538.82978 -102608.70309 1550.17601
v 27537.26149 -102635.82471 675.90785
v 27534.37510 -102685.74133 675.90785
v 27534.37510 -102685.74133 1550.17601
v 27537.26149 -102635.82471 675.90785
v 27534.37510 -102685.74133 1550.17601
v 27537.26149 -102635.82471 1550.17601
v 27534.37510 -102685.74133 675.90785
v 27531.48871 -102735.65795 675.90785
v 27531.48871 -102735.65795 1550.17601
v 27534.37510 -102685.74133 675.90785
v 27531.48871 -102735.65795 1550.17601
v 27534.37510 -102685.74133 1550.17601
v 27531.48871 -102735.65795 675.90785
v 27528.60232 -102785.57457 675.90785
v 27528.60232 -102785.57457 1550.17601
v 27531.48871 -102735.65795 675.90785
v 27528.60232 -102785.57457 1550.17601
v 27531.48871 -102735.65795 1550.17601
v 27528.60232 -102785.57457 675.90785
v 27525.71593 -102835.49118 675.90785
v 27525.71593 -102835.49118 1550.17601
v 27528.60232 -102785.57457 675.90785
v 27525.71593 -102835.49118 1550.17601
v 27528.60232 -102785.57457 1550.17601
v 27525.71593 -102835.49118 675.90785
v 27522.82954 -102885.40780 675.90785
v 27522.82954 -102885.40780 1550.17601
v 27525.71593 -102835.49118 675.90785
v 27522.82954 -102885.40780 1550.17601
v 27525.71593 -102835.49118 1550.17601
v 27522.82954 -102885.40780 675.90785
v 27519.94315 -102935.32442 675.90785
v 27519.94315 -102935.32442 1550.17601
v 27522.82954 -102885.40780 675.90785
v 27519.94315 -102935.32442 1550.17601
v 27522.82954 -102885.40780 1550.17601
v 27519.94315 -102935.32442 675.90785
v 27517.05676 -102985.24104 675.90785
v 27517.05676 -102985.24104 1550.17601
v 27519.94315 -102935.32442 675.90785
v 27517.05676 -102985.24104 1550.17601
v 27519.94315 -102935.32442 1550.17601
v 27517.05676 -102985.24104 675.90785
v 27514.17037 -103035.15766 675.90785
v 27514.17037 -103035.15766 1550.17601
v 27517.05676 -102985.24104 675.90785
v 27514.17037 -103035.15766 1550.17601
v 27517.05676 -102985.24104 1550.17601
v 27514.17037 -103035.15766 675.90785
v 27511.28397 -103085.07427 675.90785
v 27511.28397 -103085.07427 1550.17601
v 27514.17037 -103035.15766 675.90785
v 27511.28397 -103085.07427 1550.17601
v 27514.17037 -103035.15766 1550.17601
v 27511.28397 -103085.07427 675.90785
v 27508.39758 -103134.99089 675.90785
v 27508.39758 -103134.99089 1550.17601
v 27511.28397 -103085.07427 675.90785
v 27508.39758 -103134.99089 1550.17601
v 27511.28397 -103085.07427 1550.17601
v 27508.39758 -103134.99089 675.90785
v 27505.51119 -103184.90751 675.90785
v 27505.51119 -103184.90751 1550.17601
v 27508.39758 -103134.99089 675.90785
v 27505.51119 -103184.90751 1550.17601
v 27508.39758 -103134.99089 1550.17601
v 27505.51119 -103184.90751 675.90785
v 27502.62480 -103234.82413 675.90785
v 27502.62480 -103234.82413 1550.17601
v 27505.51119 -103184.90751 675.90785
v 27502.62480 -103234.82413 1550.17601
v 27505.51119 -103184.90751 1550.17601
v 27502.62480 -103234.82413 675.90785
v 27499.48495 -103289.12408 675.90785
v 27499.48495 -103289.12408 1550.17601
v 27502.62480 -103234.82413 675.90785
v 27499.48495 -103289.12408 1550.17601
v 27502.62480 -103234.82413 1550.17601
v 27499.48495 -103289.12408 675.90785
v 27497.65651 -103347.80031 675.90785
v 27497.65651 -103347.80031 1550.17601
v 27499.48495 -103289.12408 675.90785
v 27497.65651 -103347.80031 1550.17601
v 27499.48495 -103289.12408 1550.17601
v 27497.65651 -103347.80031 675.90785
v 27497.39021 -103402.13117 675.90785
v 27497.39021 -103402.13117 1550.17601
v 27497.65651 -103347.80031 675.90785
v 27497.39021 -103402.13117 1550.17601
v 27497.65651 -103347.80031 1550.17601
v 27497.39021 -103402.13117 675.90785
v 27496.90007 -103502.12997 675.90785
v 27496.90007 -103502.12997 1550.17601
v 27497.39021 -103402.13117 675.90785
v 27496.90007 -103502.12997 1550.17601
v 27497.39021 -103402.13117 1550.17601
v 27496.90007 -103502.12997 675.90785
v 27496.65501 -103552.12937 675.90785
v 27496.65501 -103552.12937 1550.17601
v 27496.90007 -103502.12997 675.90785
v 27496.65501 -103552.12937 1550.17601
v 27496.90007 -103502.12997 1550.17601
v 27496.65501 -103552.12937 675.90785
v 27496.40994 -103602.12877 675.90785
v 27496.40994 -103602.12877 1550.17601
v 27496.65501 -103552.12937 675.90785
v 27496.40994 -103602.12877 1550.17601
v 27496.65501 -103552.12937 1550.17601
v 27496.40994 -103602.12877 675.90785
v 27496.16487 -103652.12817 675.90785
v 27496.16487 -103652.12817 1550.17601
v 27496.40994 -103602.12877 675.90785
v 27496.16487 -103652.12817 1550.17601
v 27496.40994 -103602.12877 1550.17601
v 27496.16487 -103652.12817 675.90785
v 27495.91980 -103702.12757 675.90785
v 27495.91980 -103702.12757 1550.17601
v 27496.16487 -103652.12817 675.90785
v 27495.91980 -103702.12757 1550.17601
v 27496.16487 -103652.12817 1550.17601
v 27495.91980 -103702.12757 675.90785
v 27495.67474 -103752.12697 675.90785
v 27495.67474 -103752.12697 1550.17601
v 27495.91980 -103702.12757 675.90785
v 27495.67474 -103752.12697 1550.17601
v 27495.91980 -103702.12757 1550.17601
v 27495.67474 -103752.12697 675.90785
v 27495.42967 -103802.12637 675.90785
v 27495.42967 -103802.12637 1550.17601
v 27495.67474 -103752.12697 675.90785
v 27495.42967 -103802.12637 1550.17601
v 27495.67474 -103752.12697 1550.17601
v 27495.42967 -103802.12637 675.90785
v 27495.18460 -103852.12577 675.90785
v 27495.18460 -103852.12577 1550.17601
v 27495.42967 -103802.12637 675.90785
v 27495.18460 -103852.12577 1550.17601
v 27495.42967 -103802.12637 1550.17601
v 27495.18460 -103852.12577 675.90785
v 27494.93954 -103902.12516 675.90785
v 27494.93954 -103902.12516 1550.17601
v 27495.18460 -103852.12577 675.90785
v 27494.93954 -103902.12516 1550.17601
v 27495.18460 -103852.12577 1550.17601
v 27494.93954 -103902.12516 675.90785
v 27494.69447 -103952.12456 675.90785
v 27494.69447 -103952.12456 1550.17601
v 27494.93954 -103902.12516 675.90785
v 27494.69447 -103952.12456 1550.17601
v 27494.93954 -103902.12516 1550.17601
v 27494.69447 -103952.12456 675.90785
v 27494.44940 -104002.12396 675.90785
v 27494.44940 -104002.12396 1550.17601
v 27494.69447 -103952.12456 675.90785
v 27494.44940 -104002.12396 1550.17601
v 27494.69447 -103952.12456 1550.17601
v 27494.44940 -104002.12396 675.90785
v 27494.20433 -104052.12336 675.90785
v 27494.20433 -104052.12336 1550.17601
v 27494.44940 -104002.12396 675.90785
v 27494.20433 -104052.12336 1550.17601
v 27494.44940 -104002.12396 1550.17601
v 27494.20433 -104052.12336 675.90785
v 27493.95927 -104102.12276 675.90785
v 27493.95927 -104102.12276 1550.17601
v 27494.20433 -104052.12336 675.90785
v 27493.95927 -104102.12276 1550.17601
v 27494.20433 -104052.12336 1550.17601
v 27493.95927 -104102.12276 675.90785
v 27493.71420 -104152.12216 675.90785
v 27493.71420 -104152.12216 1550.17601
v 27493.95927 -104102.12276 675.90785
v 27493.71420 -104152.12216 1550.17601
v 27493.95927 -104102.12276 1550.17601
v 27493.71420 -104152.12216 675.90785
v 27493.46913 -104202.12156 675.90785
v 27493.46913 -104202.12156 1550.17601
v 27493.71420 -104152.12216 675.90785
v 27493.46913 -104202.12156 1550.17601
v 27493.71420 -104152.12216 1550.17601
v 27493.46913 -104202.12156 675.90785
v 27493.22407 -104252.12096 675.90785
v 27493.22407 -104252.12096 1550.17601
v 27493.46913 -104202.12156 675.90785
v 27493.22407 -104252.12096 1550.17601
v 27493.46913 -104202.12156 1550.17601
v 27493.22407 -104252.12096 675.90785
v 27492.97018 -104303.91846 675.90785
v 27492.97018 -104303.91846 1550.17601
v 27493.22407 -104252.12096 675.90785
v 27492.97018 -104303.91846 1550.17601
v 27493.22407 -104252.12096 1550.17601
v 27492.97018 -104303.91846 675.90785
v 27493.31762 -104361.85953 675.90785
v 27493.31762 -104361.85953 1550.17601
v 27492.97018 -104303.91846 675.90785
v 27493.31762 -104361.85953 1550.17601
v 27492.97018 -104303.91846 1550.17601
v 27493.31762 -104361.85953 675.90785
v 27495.74776 -104417.96106 675.90785
v 27495.74776 -104417.96106 1550.17601
v 27493.31762 -104361.85953 675.90785
v 27495.74776 -104417.96106 1550.17601
v 27493.31762 -104361.85953 1550.17601
v 27495.74776 -104417.96106 675.90785
v 27497.91157 -104467.91422 675.90785
v 27497.91157 -104467.91422 1550.17601
v 27495.74776 -104417.96106 675.90785
v 27497.91157 -104467.91422 1550.17601
v 27495.74776 -104417.96106 1550.17601
v 27497.91157 -104467.91422 675.90785
v 27504.40301 -104617.77369 675.90785
v 27504.40301 -104617.77369 1550.17601
v 27497.91157 -104467.91422 675.90785
v 27504.40301 -104617.77369 1550.17601
v 27497.91157 -104467.91422 1550.17601
v 27504.40301 -104617.77369 675.90785
v 27506.56682 -104667.72685 675.90785
v 27506.56682 -104667.72685 1550.17601
v 27504.40301 -104617.77369 675.90785
v 27506.56682 -104667.72685 1550.17601
v 27504.40301 -104617.77369 1550.17601
v 27506.56682 -104667.72685 675.90785
v 27513.05826 -104817.58632 675.90785
v 27513.05826 -104817.58632 1550.17601
v 27506.56682 -104667.72685 675.90785
v 27513.05826 -104817.58632 1550.17601
v 27506.56682 -104667.72685 1550.17601
v 27513.05826 -104817.58632 675.90785
v 27515.22207 -104867.53948 675.90785
v 27515.22207 -104867.53948 1550.17601
v 27513.05826 -104817.58632 675.90785
v 27515.22207 -104867.53948 1550.17601
v 27513.05826 -104817.58632 1550.17601
v 27515.22207 -104867.53948 675.90785
v 27521.71351 -105017.39895 675.90785
v 27521.71351 -105017.39895 1550.17601
v 27515.22207 -104867.53948 675.90785
v 27521.71351 -105017.39895 1550.17601
v 27515.22207 -104867.53948 1550.17601
v 27521.71351 -105017.39895 675.90785
v 27523.87732 -105067.35211 675.90785
v 27523.87732 -105067.35211 1550.17601
v 27521.71351 -105017.39895 675.90785
v 27523.87732 -105067.35211 1550.17601
v 27521.71351 -105017.39895 1550.17601
v 27523.87732 -105067.35211 675.90785
v 27526.04114 -105117.30527 675.90785
v 27526.04114 -105117.30527 1550.17601
v 27523.87732 -105067.35211 675.90785
v 27526.04114 -105117.30527 1550.17601
v 27523.87732 -105067.35211 1550.17601
v 27526.04114 -105117.30527 675.90785
v 27528.20495 -105167.25842 675.90785
v 27528.20495 -105167.25842 1550.17601
v 27526.04114 -105117.30527 675.90785
v 27528.20495 -105167.25842 1550.17601
v 27526.04114 -105117.30527 1550.17601
v 27528.20495 -105167.25842 675.90785
v 27530.36876 -105217.21158 675.90785
v 27530.36876 -105217.21158 1550.17601
v 27528.20495 -105167.25842 675.90785
v 27530.36876 -105217.21158 1550.17601
v 27528.20495 -105167.25842 1550.17601
v 27530.36876 -105217.21158 675.90785
v 27532.53257 -105267.16474 675.90785
v 27532.53257 -105267.16474 1550.17601
v 27530.36876 -105217.21158 675.90785
v 27532.53257 -105267.16474 1550.17601
v 27530.36876 -105217.21158 1550.17601
v 27532.53257 -105267.16474 675.90785
v 27536.86020 -105367.07105 675.90785
v 27536.86020 -105367.07105 1550.17601
v 27532.53257 -105267.16474 675.90785
v 27536.86020 -105367.07105 1550.17601
v 27532.53257 -105267.16474 1550.17601
v 27536.86020 -105367.07105 675.90785
v 27539.02401 -105417.02421 675.90785
v 27539.02401 -105417.02421 1550.17601
v 27536.86020 -105367.07105 675.90785
v 27539.02401 -105417.02421 1550.17601
v 27536.86020 -105367.07105 1550.17601
v 27539.02401 -105417.02421 675.90785
v 27545.81072 -105573.70018 675.90785
v 27545.81072 -105573.70018 1550.17601
v 27539.02401 -105417.02421 675.90785
v 27545.81072 -105573.70018 1550.17601
v 27539.02401 -105417.02421 1550.17601
v 27545.81072 -105573.70018 675.90785
v 27550.74663 -105631.88105 675.90785
v 27550.74663 -105631.88105 1550.17601
v 27545.81072 -105573.70018 675.90785
v 27550.74663 -105631.88105 1550.17601
v 27545.81072 -105573.70018 1550.17601
v 27550.74663 -105631.88105 675.90785
v 27555.59755 -105683.22929 675.90785
v 27555.59755 -105683.22929 1550.17601
v 27550.74663 -105631.88105 675.90785
v 27555.59755 -105683.22929 1550.17601
v 27550.74663 -105631.88105 1550.17601
v 27555.59755 -105683.22929 675.90785
v 27560.30016 -105733.00765 675.90785
v 27560.30016 -105733.00765 1550.17601
v 27555.59755 -105683.22929 675.90785
v 27560.30016 -105733.00765 1550.17601
v 27555.59755 -105683.22929 1550.17601
v 27560.30016 -105733.00765 675.90785
v 27565.00277 -105782.78601 675.90785
v 27565.00277 -105782.78601 1550.17601
v 27560.30016 -105733.00765 675.90785
v 27565.00277 -105782.78601 1550.17601
v 27560.30016 -105733.00765 1550.17601
v 27565.00277 -105782.78601 675.90785
v 27569.70537 -105832.56438 675.90785
v 27569.70537 -105832.56438 1550.17601
v 27565.00277 -105782.78601 675.90785
v 27569.70537 -105832.56438 1550.17601
v 27565.00277 -105782.78601 1550.17601
v 27569.70537 -105832.56438 675.90785
v 27573.18485 -105869.39557 675.90785
v 27573.18485 -105869.39557 1550.17601
v 27569.70537 -105832.56438 675.90785
v 27573.18485 -105869.39557 1550.17601
v 27569.70537 -105832.56438 1550.17601
v 27573.18485 -105869.39557 675.90785
v 27174.51132 -105879.59264 675.90785
v 27174.51132 -105879.59264 1550.17601
v 27573.18485 -105869.39557 675.90785
v 27174.51132 -105879.59264 1550.17601
v 27573.18485 -105869.39557 1550.17601
v 27174.51132 -105879.59264 675.90785
v 27191.58969 -106547.32400 675.90785
v 27191.58969 -106547.32400 1550.17601
v 27174.51132 -105879.59264 675.90785
v 27191.58969 -106547.32400 1550.17601
v 27174.51132 -105879.59264 1550.17601
v 27191.58969 -106547.32400 675.90785
v 26923.76852 -106551.58406 675.90785
v 26923.76852 -106551.58406 1550.17601
v 27191.58969 -106547.32400 675.90785
v 26923.76852 -106551.58406 1550.17601
v 27191.58969 -106547.32400 1550.17601
v 26923.76852 -106551.58406 675.90785
v 26755.10991 -106554.41771 675.90785
v 26755.10991 -106554.41771 1550.17601
v 26923.76852 -106551.58406 675.90785
v 26755.10991 -106554.41771 1550.17601
v 26923.76852 -106551.58406 1550.17601
v 26755.10991 -106554.41771 675.90785
v 26754.14672 -107374.66860 675.90785
v 26754.14672 -107374.66860 1550.17601
v 26755.10991 -106554.41771 675.90785
v 26754.14672 -107374.66860 1550.17601
v 26755.10991 -106554.41771 1550.17601
v 26754.14672 -107374.66860 675.90785
v 25373.48736 -107402.57663 675.90785
v 25373.48736 -107402.57663 1550.17601
v 26754.14672 -107374.66860 675.90785
v 25373.48736 -107402.57663 1550.17601
v 26754.14672 -107374.66860 1550.17601
v 25373.48736 -107402.57663 675.90785
v 25980.23996 -102609.99269 675.90785
v 25980.23996 -102609.99269 1550.17601
v 25373.48736 -107402.57663 675.90785
v 25980.23996 -102609.99269 1550.17601
v 25373.48736 -107402.57663 1550.17601
v 26838.81329 -99351.52496 537.44803
v 26921.17496 -98681.24998 537.44803
v 26921.17496 -98681.24998 1354.41996
v 26838.81329 -99351.52496 537.44803
v 26921.17496 -98681.24998 1354.41996
v 26838.81329 -99351.52496 1354.41996
v 26921.17496 -98681.24998 537.44803
v 27214.48312 -98682.99694 537.44803
v 27214.48312 -98682.99694 1354.41996
v 26921.17496 -98681.24998 537.44803
v 27214.48312 -98682.99694 1354.41996
v 26921.17496 -98681.24998 1354.41996
v 27214.48312 -98682.99694 537.44803
v 28704.58634 -98724.03932 537.44803
v 28704.58634 -98724.03932 1354.41996
v 27214.48312 -98682.99694 537.44803
v 28704.58634 -98724.03932 1354.41996
v 27214.48312 -98682.99694 1354.41996
v 28704.58634 -98724.03932 537.44803
v 28703.05814 -98727.82077 537.44803
v 28703.05814 -98727.82077 1354.41996
v 28704.58634 -98724.03932 537.44803
v 28703.05814 -98727.82077 1354.41996
v 28704.58634 -98724.03932 1354.41996
v 28703.05814 -98727.82077 537.44803
v 28684.26858 -98774.81611 537.44803
v 28684.26858 -98774.81611 1354.41996
v 28703.05814 -98727.82077 537.44803
v 28684.26858 -98774.81611 1354.41996
v 28703.05814 -98727.82077 1354.41996
v 28684.26858 -98774.81611 537.44803
v 28665.70635 -98821.24287 537.44803
v 28665.70635 -98821.24287 1354.41996
v 28684.26858 -98774.81611 537.44803
v 28665.70635 -98821.24287 1354.41996
v 28684.26858 -98774.81611 1354.41996
v 28665.70635 -98821.24287 537.44803
v 28647.14411 -98867.66962 537.44803
v 28647.14411 -98867.66962 1354.41996
v 28665.70635 -98821.24287 537.44803
v 28647.14411 -98867.66962 1354.41996
v 28665.70635 -98821.24287 1354.41996
v 28647.14411 -98867.66962 537.44803
v 28628.58188 -98914.09637 537.44803
v 28628.58188 -98914.09637 1354.41996
v 28647.14411 -98867.66962 537.44803
v 28628.58188 -98914.09637 1354.41996
v 28647.14411 -98867.66962 1354.41996
v 28628.58188 -98914.09637 537.44803
v 28610.01964 -98960.52313 537.44803
v 28610.01964 -98960.52313 1354.41996
v 28628.58188 -98914.09637 537.44803
v 28610.01964 -98960.52313 1354.41996
v 28628.58188 -98914.09637 1354.41996
v 28610.01964 -98960.52313 537.44803
v 28572.89517 -99053.37663 537.44803
v 28572.89517 -99053.37663 1354.41996
v 28610.01964 -98960.52313 537.44803
v 28572.89517 -99053.37663 1354.41996
v 28610.01964 -98960.52313 1354.41996
v 28572.89517 -99053.37663 537.44803
v 28554.33294 -99099.80339 537.44803
v 28554.33294 -99099.80339 1354.41996
v 28572.89517 -99053.37663 537.44803
v 28554.33294 -99099.80339 1354.41996
v 28572.89517 -99053.37663 1354.41996
v 28554.33294 -99099.80339 537.44803
v 28535.77070 -99146.23014 537.44803
v 28535.77070 -99146.23014 1354.41996
v 28554.33294 -99099.80339 537.44803
v 28535.77070 -99146.23014 1354.41996
v 28554.33294 -99099.80339 1354.41996
v 28535.77070 -99146.23014 537.44803
v 28517.20847 -99192.65689 537.44803
v 28517.20847 -99192.65689 1354.41996
v 28535.77070 -99146.23014 537.44803
v 28517.20847 -99192.65689 1354.41996
v 28535.77070 -99146.23014 1354.41996
v 28517.20847 -99192.65689 537.44803
v 28498.64623 -99239.08365 537.44803
v 28498.64623 -99239.08365 1354.41996
v 28517.20847 -99192.65689 537.44803
v 28498.64623 -99239.08365 1354.41996
v 28517.20847 -99192.65689 1354.41996
v 28498.64623 -99239.08365 537.44803
v 28480.08400 -99285.51040 537.44803
v 28480.08400 -99285.51040 1354.41996
v 28498.64623 -99239.08365 537.44803
v 28480.08400 -99285.51040 1354.41996
v 28498.64623 -99239.08365 1354.41996
v 28480.08400 -99285.51040 537.44803
v 28461.52176 -99331.93716 537.44803
v 28461.52176 -99331.93716 1354.41996
v 28480.08400 -99285.51040 537.44803
v 28461.52176 -99331.93716 1354.41996
v 28480.08400 -99285.51040 1354.41996
v 28461.52176 -99331.93716 537.44803
v 28442.95953 -99378.36391 537.44803
v 28442.95953 -99378.36391 1354.41996
v 28461.52176 -99331.93716 537.44803
v 28442.95953 -99378.36391 1354.41996
v 28461.52176 -99331.93716 1354.41996
v 28442.95953 -99378.36391 537.44803
v 28435.78565 -99396.30678 537.44803
v 28435.78565 -99396.30678 1354.41996
v 28442.95953 -99378.36391 537.44803
v 28435.78565 -99396.30678 1354.41996
v 28442.95953 -99378.36391 1354.41996
v 28435.78565 -99396.30678 537.44803
v 26838.81329 -99351.52496 537.44803
v 26838.81329 -99351.52496 1354.41996
v 28435.78565 -99396.30678 537.44803
v 26838.81329 -99351.52496 1354.41996
v 28435.78565 -99396.30678 1354.41996
v 25024.42526 -99141.90706 787.63800
v 25058.48570 -98624.92620 787.63800
v 25058.48570 -98624.92620 1170.23976
v 25024.42526 -99141.90706 787.63800
v 25058.48570 -98624.92620 1170.23976
v 25024.42526 -99141.90706 1170.23976
v 25058.48570 -98624.92620 787.63800
v 25817.46526 -98673.96134 787.63800
v 25817.46526 -98673.96134 1170.23976
v 25058.48570 -98624.92620 787.63800
v 25817.46526 -98673.96134 1170.23976
v 25058.48570 -98624.92620 1170.23976
v 25817.46526 -98673.96134 787.63800
v 25783.71485 -99190.93446 787.63800
v 25783.71485 -99190.93446 1170.23976
v 25817.46526 -98673.96134 787.63800
v 25783.71485 -99190.93446 1170.23976
v 25817.46526 -98673.96134 1170.23976
v 25783.71485 -99190.93446 787.63800
v 25024.42526 -99141.90706 787.63800
v 25024.42526 -99141.90706 1170.23976
v 25783.71485 -99190.93446 787.63800
v 25024.42526 -99141.90706 1170.23976
v 25783.71485 -99190.93446 1170.23976
v 26158.97584 -102288.35629 683.73932
v 26289.82999 -101242.43061 683.73932
v 26289.82999 -101242.43061 1833.97216
v 26158.97584 -102288.35629 683.73932
v 26289.82999 -101242.43061 1833.97216
v 26158.97584 -102288.35629 1833.97216
v 26289.82999 -101242.43061 683.73932
v 27583.40575 -101193.80571 683.73932
v 27583.40575 -101193.80571 1833.97216
v 26289.82999 -101242.43061 683.73932
v 27583.40575 -101193.80571 1833.97216
v 26289.82999 -101242.43061 1833.97216
v 27583.40575 -101193.80571 683.73932
v 27437.83039 -102292.27479 683.73932
v 27437.83039 -102292.27479 1833.97216
v 27583.40575 -101193.80571 683.73932
v 27437.83039 -102292.27479 1833.97216
v 27583.40575 -101193.80571 1833.97216
v 27437.83039 -102292.27479 683.73932
v 26158.97584 -102288.35629 683.73932
v 26158.97584 -102288.35629 1833.97216
v 27437.83039 -102292.27479 683.73932
v 26158.97584 -102288.35629 1833.97216
v 27437.83039 -102292.27479 1833.97216
v 24939.18763 -104255.97840 821.57066
v 24036.18119 -104146.24755 821.57066
v 24036.18119 -104146.24755 1703.87215
v 24939.18763 -104255.97840 821.57066
v 24036.18119 -104146.24755 1703.87215
v 24939.18763 -104255.97840 1703.87215
v 24036.18119 -104146.24755 821.57066
v 24079.50272 -103822.15521 821.57066
v 24079.50272 -103822.15521 1703.87215
v 24036.18119 -104146.24755 821.57066
v 24079.50272 -103822.15521 1703.87215
v 24036.18119 -104146.24755 1703.87215
v 24079.50272 -103822.15521 821.57066
v 24144.90144 -103829.73239 821.57066
v 24144.90144 -103829.73239 1703.87215
v 24079.50272 -103822.15521 821.57066
v 24144.90144 -103829.73239 1703.87215
v 24079.50272 -103822.15521 1703.87215
v 24144.90144 -103829.73239 821.57066
v 24183.33816 -103580.49906 821.57066
v 24183.33816 -103580.49906 1703.87215
v 24144.90144 -103829.73239 821.57066
v 24183.33816 -103580.49906 1703.87215
v 24144.90144 -103829.73239 1703.87215
v 24183.33816 -103580.49906 821.57066
v 23352.05732 -103471.89233 821.57066
v 23352.05732 -103471.89233 1703.87215
v 24183.33816 -103580.49906 821.57066
v 23352.05732 -103471.89233 1703.87215
v 24183.33816 -103580.49906 1703.87215
v 23352.05732 -103471.89233 821.57066
v 23466.90609 -102597.30447 821.57066
v 23466.90609 -102597.30447 1703.87215
v 23352.05732 -103471.89233 821.57066
v 23466.90609 -102597.30447 1703.87215
v 23352.05732 -103471.89233 1703.87215
v 23466.90609 -102597.30447 821.57066
v 23714.39789 -102632.04378 821.57066
v 23714.39789 -102632.04378 1703.87215
v 23466.90609 -102597.30447 821.57066
v 23714.39789 -102632.04378 1703.87215
v 23466.90609 -102597.30447 1703.87215
v 23714.39789 -102632.04378 821.57066
v 23782.54880 -102094.58330 821.57066
v 23782.54880 -102094.58330 1703.87215
v 23714.39789 -102632.04378 821.57066
v 23782.54880 -102094.58330 1703.87215
v 23714.39789 -102632.04378 1703.87215
v 23782.54880 -102094.58330 821.57066
v 23489.54039 -102068.40718 821.57066
v 23489.54039 -102068.40718 1703.87215
v 23782.54880 -102094.58330 821.57066
v 23489.54039 -102068.40718 1703.87215
v 23782.54880 -102094.58330 1703.87215
v 23489.54039 -102068.40718 821.57066
v 23579.63709 -101458.61129 821.57066
v 23579.63709 -101458.61129 1703.87215
v 23489.54039 -102068.40718 821.57066
v 23579.63709 -101458.61129 1703.87215
v 23489.54039 -102068.40718 1703.87215
v 23579.63709 -101458.61129 821.57066
v 23849.12080 -101459.12081 821.57066
v 23849.12080 -101459.12081 1703.87215
v 23579.63709 -101458.61129 821.57066
v 23849.12080 -101459.12081 1703.87215
v 23579.63709 -101458.61129 1703.87215
v 23849.12080 -101459.12081 821.57066
v 23879.00611 -101196.03818 821.57066
v 23879.00611 -101196.03818 1703.87215
v 23849.12080 -101459.12081 821.57066
v 23879.00611 -101196.03818 1703.87215
v 23849.12080 -101459.12081 1703.87215
v 23879.00611 -101196.03818 821.57066
v 23984.96156 -101194.02391 821.57066
v 23984.96156 -101194.02391 1703.87215
v 23879.00611 -101196.03818 821.57066
v 23984.96156 -101194.02391 1703.87215
v 23879.00611 -101196.03818 1703.87215
v 23984.96156 -101194.02391 821.57066
v 24031.41992 -101193.75260 821.57066
v 24031.41992 -101193.75260 1703.87215
v 23984.96156 -101194.02391 821.57066
v 24031.41992 -101193.75260 1703.87215
v 23984.96156 -101194.02391 1703.87215
v 24031.41992 -101193.75260 821.57066
v 24080.05448 -101193.87101 821.57066
v 24080.05448 -101193.87101 1703.87215
v 24031.41992 -101193.75260 821.57066
v 24080.05448 -101193.87101 1703.87215
v 24031.41992 -101193.75260 1703.87215
v 24080.05448 -101193.87101 821.57066
v 24180.05419 -101194.11448 821.57066
v 24180.05419 -101194.11448 1703.87215
v 24080.05448 -101193.87101 821.57066
v 24180.05419 -101194.11448 1703.87215
v 24080.05448 -101193.87101 1703.87215
v 24180.05419 -101194.11448 821.57066
v 24230.05404 -101194.23621 821.57066
v 24230.05404 -101194.23621 1703.87215
v 24180.05419 -101194.11448 821.57066
v 24230.05404 -101194.23621 1703.87215
v 24180.05419 -101194.11448 1703.87215
v 24230.05404 -101194.23621 821.57066
v 24280.05389 -101194.35794 821.57066
v 24280.05389 -101194.35794 1703.87215
v 24230.05404 -101194.23621 821.57066
v 24280.05389 -101194.35794 1703.87215
v 24230.05404 -101194.23621 1703.87215
v 24280.05389 -101194.35794 821.57066
v 24330.28469 -101194.48024 821.57066
v 24330.28469 -101194.48024 1703.87215
v 24280.05389 -101194.35794 821.57066
v 24330.28469 -101194.48024 1703.87215
v 24280.05389 -101194.35794 1703.87215
v 24330.28469 -101194.48024 821.57066
v 24381.35589 -101194.53310 821.57066
v 24381.35589 -101194.53310 1703.87215
v 24330.28469 -101194.48024 821.57066
v 24381.35589 -101194.53310 1703.87215
v 24330.28469 -101194.48024 1703.87215
v 24381.35589 -101194.53310 821.57066
v 24432.19591 -101194.32676 821.57066
v 24432.19591 -101194.32676 1703.87215
v 24381.35589 -101194.53310 821.57066
v 24432.19591 -101194.32676 1703.87215
v 24381.35589 -101194.53310 1703.87215
v 24432.19591 -101194.32676 821.57066
v 24582.19468 -101193.71796 821.57066
v 24582.19468 -101193.71796 1703.87215
v 24432.19591 -101194.32676 821.57066
v 24582.19468 -101193.71796 1703.87215
v 24432.19591 -101194.32676 1703.87215
v 24582.19468 -101193.71796 821.57066
v 24632.19426 -101193.51503 821.57066
v 24632.19426 -101193.51503 1703.87215
v 24582.19468 -101193.71796 821.57066
v 24632.19426 -101193.51503 1703.87215
v 24582.19468 -101193.71796 1703.87215
v 24632.19426 -101193.51503 821.57066
v 24682.19385 -101193.31210 821.57066
v 24682.19385 -101193.31210 1703.87215
v 24632.19426 -101193.51503 821.57066
v 24682.19385 -101193.31210 1703.87215
v 24632.19426 -101193.51503 1703.87215
v 24682.19385 -101193.31210 821.57066
v 24732.19344 -101193.10917 821.57066
v 24732.19344 -101193.10917 1703.87215
v 24682.19385 -101193.31210 821.57066
v 24732.19344 -101193.10917 1703.87215
v 24682.19385 -101193.31210 1703.87215
v 24732.19344 -101193.10917 821.57066
v 24832.19262 -101192.70331 821.57066
v 24832.19262 -101192.70331 1703.87215
v 24732.19344 -101193.10917 821.57066
v 24832.19262 -101192.70331 1703.87215
v 24732.19344 -101193.10917 1703.87215
v 24832.19262 -101192.70331 821.57066
v 24882.19221 -101192.50038 821.57066
v 24882.19221 -101192.50038 1703.87215
v 24832.19262 -101192.70331 821.57066
v 24882.19221 -101192.50038 1703.87215
v 24832.19262 -101192.70331 1703.87215
v 24882.19221 -101192.50038 821.57066
v 25032.19097 -101191.89159 821.57066
v 25032.19097 -101191.89159 1703.87215
v 24882.19221 -101192.50038 821.57066
v 25032.19097 -101191.89159 1703.87215
v 24882.19221 -101192.50038 1703.87215
v 25032.19097 -101191.89159 821.57066
v 25082.19056 -101191.68866 821.57066
v 25082.19056 -101191.68866 1703.87215
v 25032.19097 -101191.89159 821.57066
v 25082.19056 -101191.68866 1703.87215
v 25032.19097 -101191.89159 1703.87215
v 25082.19056 -101191.68866 821.57066
v 25132.19015 -101191.48573 821.57066
v 25132.19015 -101191.48573 1703.87215
v 25082.19056 -101191.68866 821.57066
v 25132.19015 -101191.48573 1703.87215
v 25082.19056 -101191.68866 1703.87215
v 25132.19015 -101191.48573 821.57066
v 25182.19492 -101191.28199 821.57066
v 25182.19492 -101191.28199 1703.87215
v 25132.19015 -101191.48573 821.57066
v 25182.19492 -101191.28199 1703.87215
v 25132.19015 -101191.48573 1703.87215
v 25182.19492 -101191.28199 821.57066
v 25232.29544 -101191.06254 821.57066
v 25232.29544 -101191.06254 1703.87215
v 25182.19492 -101191.28199 821.57066
v 25232.29544 -101191.06254 1703.87215
v 25182.19492 -101191.28199 1703.87215
v 25232.29544 -101191.06254 821.57066
v 25282.29496 -101190.84352 821.57066
v 25282.29496 -101190.84352 1703.87215
v 25232.29544 -101191.06254 821.57066
v 25282.29496 -101190.84352 1703.87215
v 25232.29544 -101191.06254 1703.87215
v 25282.29496 -101190.84352 821.57066
v 25332.29448 -101190.62450 821.57066
v 25332.29448 -101190.62450 1703.87215
v 25282.29496 -101190.84352 821.57066
v 25332.29448 -101190.62450 1703.87215
v 25282.29496 -101190.84352 1703.87215
v 25332.29448 -101190.62450 821.57066
v 25382.29400 -101190.40548 821.57066
v 25382.29400 -101190.40548 1703.87215
v 25332.29448 -101190.62450 821.57066
v 25382.29400 -101190.40548 1703.87215
v 25332.29448 -101190.62450 1703.87215
v 25382.29400 -101190.40548 821.57066
v 25401.94779 -101190.31939 821.57066
v 25401.94779 -101190.31939 1703.87215
v 25382.29400 -101190.40548 821.57066
v 25401.94779 -101190.31939 1703.87215
v 25382.29400 -101190.40548 1703.87215
v 25401.94779 -101190.31939 821.57066
v 25255.35305 -102021.40731 821.57066
v 25255.35305 -102021.40731 1703.87215
v 25401.94779 -101190.31939 821.57066
v 25255.35305 -102021.40731 1703.87215
v 25401.94779 -101190.31939 1703.87215
v 25255.35305 -102021.40731 821.57066
v 25111.52891 -102004.36672 821.57066
v 25111.52891 -102004.36672 1703.87215
v 25255.35305 -102021.40731 821.57066
v 25111.52891 -102004.36672 1703.87215
v 25255.35305 -102021.40731 1703.87215
v 25111.52891 -102004.36672 821.57066
v 24955.77524 -103079.78598 821.57066
v 24955.77524 -103079.78598 1703.87215
v 25111.52891 -102004.36672 821.57066
v 24955.77524 -103079.78598 1703.87215
v 25111.52891 -102004.36672 1703.87215
v 24955.77524 -103079.78598 821.57066
v 25109.90455 -103101.00281 821.57066
v 25109.90455 -103101.00281 1703.87215
v 24955.77524 -103079.78598 821.57066
v 25109.90455 -103101.00281 1703.87215
v 24955.77524 -103079.78598 1703.87215
v 25109.90455 -103101.00281 821.57066
v 24939.18763 -104255.97840 821.57066
v 24939.18763 -104255.97840 1703.87215
v 25109.90455 -103101.00281 821.57066
v 24939.18763 -104255.97840 1703.87215
v 25109.90455 -103101.00281 1703.87215
vt 132.30386 3.41083
vt 132.24783 3.41083
vt 132.24783 5.63053
vt 132.30386 3.41083
vt 132.24783 5.63053
vt 132.30386 5.63053
vt 132.24783 3.41083
vt 132.77601 3.41083
vt 132.77601 5.63053
vt 132.24783 3.41083
vt 132.77601 5.63053
vt 132.24783 5.63053
vt 132.77601 3.41083
vt 138.39935 3.41083
vt 138.39935 5.63053
vt 132.77601 3.41083
vt 138.39935 5.63053
vt 132.77601 5.63053
vt 138.39935 3.41083
vt 138.45745 3.41083
vt 138.45745 5.63053
vt 138.39935 3.41083
vt 138.45745 5.63053
vt 138.39935 5.63053
vt 138.45745 3.41083
vt 138.41568 3.41083
vt 138.41568 5.63053
vt 138.45745 3.41083
vt 138.41568 5.63053
vt 138.45745 5.63053
vt 138.41568 3.41083
vt 138.16568 3.41083
vt 138.16568 5.63053
vt 138.41568 3.41083
vt 138.16568 5.63053
vt 138.41568 5.63053
vt 138.16568 3.41083
vt 137.91568 3.41083
vt 137.91568 5.63053
vt 138.16568 3.41083
vt 137.91568 5.63053
vt 138.16568 5.63053
vt 137.91568 3.41083
vt 137.66569 3.41083
vt 137.66569 5.63053
vt 137.91568 3.41083
vt 137.66569 5.63053
vt 137.91568 5.63053
vt 137.66569 3.41083
vt 137.41569 3.41083
vt 137.41569 5.63053
vt 137.66569 3.41083
vt 137.41569 5.63053
vt 137.66569 5.63053
vt 137.41569 3.41083
vt 137.16569 3.41083
vt 137.16569 5.63053
vt 137.41569 3.41083
vt 137.16569 5.63053
vt 137.41569 5.63053
vt 137.16569 3.41083
vt 136.91569 3.41083
vt 136.91569 5.63053
vt 137.16569 3.41083
vt 136.91569 5.63053
vt 137.16569 5.63053
vt 136.91569 3.41083
vt 136.66569 3.41083
vt 136.66569 5.63053
vt 136.91569 3.41083
vt 136.66569 5.63053
vt 136.91569 5.63053
vt 136.66569 3.41083
vt 136.41569 3.41083
vt 136.41569 5.63053
vt 136.66569 3.41083
vt 136.41569 5.63053
vt 136.66569 5.63053
vt 136.41569 3.41083
vt 136.16569 3.41083
vt 136.16569 5.63053
vt 136.41569 3.41083
vt 136.16569 5.63053
vt 136.41569 5.63053
vt 136.16569 3.41083
vt 135.91569 3.41083
vt 135.91569 5.63053
vt 136.16569 3.41083
vt 135.91569 5.63053
vt 136.16569 5.63053
vt 135.91569 3.41083
vt 135.66569 3.41083
vt 135.66569 5.63053
vt 135.91569 3.41083
vt 135.66569 5.63053
vt 135.91569 5.63053
vt 135.66569 3.41083
vt 135.41569 3.41083
vt 135.41569 5.63053
vt 135.66569 3.41083
vt 135.41569 5.63053
vt 135.66569 5.63053
vt 135.41569 3.41083
vt 135.16569 3.41083
vt 135.16569 5.63053
vt 135.41569 3.41083
vt 135.16569 5.63053
vt 135.41569 5.63053
vt 135.16569 3.41083
vt 134.91570 3.41083
vt 134.91570 5.63053
vt 135.16569 3.41083
vt 134.91570 5.63053
vt 135.16569 5.63053
vt 134.91570 3.41083
vt 134.66570 3.41083
vt 134.66570 5.63053
vt 134.91570 3.41083
vt 134.66570 5.63053
vt 134.91570 5.63053
vt 134.66570 3.41083
vt 134.41570 3.41083
vt 134.41570 5.63053
vt 134.66570 3.41083
vt 134.41570 5.63053
vt 134.66570 5.63053
vt 134.41570 3.41083
vt 134.16570 3.41083
vt 134.16570 5.63053
vt 134.41570 3.41083
vt 134.16570 5.63053
vt 134.41570 5.63053
vt 134.16570 3.41083
vt 133.91570 3.41083
vt 133.91570 5.63053
vt 134.16570 3.41083
vt 133.91570 5.63053
vt 134.16570 5.63053
vt 133.91570 3.41083
vt 133.66570 3.41083
vt 133.66570 5.63053
vt 133.91570 3.41083
vt 133.66570 5.63053
vt 133.91570 5.63053
vt 133.66570 3.41083
vt 133.41570 3.41083
vt 133.41570 5.63053
vt 133.66570 3.41083
vt 133.41570 5.63053
vt 133.66570 5.63053
vt 133.41570 3.41083
vt 133.16570 3.41083
vt 133.16570 5.63053
vt 133.41570 3.41083
vt 133.16570 5.63053
vt 133.41570 5.63053
vt 133.16570 3.41083
vt 132.91570 3.41083
vt 132.91570 5.63053
vt 133.16570 3.41083
vt 132.91570 5.63053
vt 133.16570 5.63053
vt 132.91570 3.41083
vt 132.66570 3.41083
vt 132.66570 5.63053
vt 132.91570 3.41083
vt 132.66570 5.63053
vt 132.91570 5.63053
vt 132.66570 3.41083
vt 132.30386 3.41083
vt 132.30386 5.63053
vt 132.66570 3.41083
vt 132.30386 5.63053
vt 132.66570 5.63053
vt 121.65863 3.88488
vt 121.63494 3.88488
vt 121.63494 5.83559
vt 121.65863 3.88488
vt 121.63494 5.83559
vt 121.65863 5.83559
vt 121.63494 3.88488
vt 124.78443 3.88488
vt 124.78443 5.83559
vt 121.63494 3.88488
vt 124.78443 5.83559
vt 121.63494 5.83559
vt 124.78443 3.88488
vt 124.71537 3.88488
vt 124.71537 5.83559
vt 124.78443 3.88488
vt 124.71537 5.83559
vt 124.78443 5.83559
vt 124.71537 3.88488
vt 125.95787 3.88488
vt 125.95787 5.83559
vt 124.71537 3.88488
vt 125.95787 5.83559
vt 124.71537 5.83559
vt 125.95787 3.88488
vt 125.98633 3.88488
vt 125.98633 5.83559
vt 125.95787 3.88488
vt 125.98633 5.83559
vt 125.95787 5.83559
vt 125.98633 3.88488
vt 128.51617 3.88488
vt 128.51617 5.83559
vt 125.98633 3.88488
vt 128.51617 5.83559
vt 125.98633 5.83559
vt 128.51617 3.88488
vt 128.59626 3.88488
vt 128.59626 5.83559
vt 128.51617 3.88488
vt 128.59626 5.83559
vt 128.51617 5.83559
vt 128.59626 3.88488
vt 127.58097 3.88488
vt 127.58097 5.83559
vt 128.59626 3.88488
vt 127.58097 5.83559
vt 128.59626 5.83559
vt 127.58097 3.88488
vt 127.22718 3.88488
vt 127.22718 5.83559
vt 127.58097 3.88488
vt 127.22718 5.83559
vt 127.58097 5.83559
vt 127.22718 3.88488
vt 127.17327 3.88488
vt 127.17327 5.83559
vt 127.22718 3.88488
vt 127.17327 5.83559
vt 127.22718 5.83559
vt 127.17327 3.88488
vt 124.89312 3.88488
vt 124.89312 5.83559
vt 127.17327 3.88488
vt 124.89312 5.83559
vt 127.17327 5.83559
vt 124.89312 3.88488
vt 124.82345 3.88488
vt 124.82345 5.83559
vt 124.89312 3.88488
vt 124.82345 5.83559
vt 124.89312 5.83559
vt 124.82345 3.88488
vt 122.71015 3.88488
vt 122.71015 5.83559
vt 124.82345 3.88488
vt 122.71015 5.83559
vt 124.82345 5.83559
vt 122.71015 3.88488
vt 122.69577 3.88488
vt 122.69577 5.83559
vt 122.71015 3.88488
vt 122.69577 5.83559
vt 122.71015 5.83559
vt 122.69577 3.88488
vt 121.65863 3.88488
vt 121.65863 5.83559
vt 122.69577 3.88488
vt 121.65863 5.83559
vt 122.69577 5.83559
vt 129.90120 3.37954
vt 137.69415 3.37954
vt 137.69415 7.75088
vt 129.90120 3.37954
vt 137.69415 7.75088
vt 129.90120 7.75088
vt 137.69415 3.37954
vt 137.68631 3.37954
vt 137.68631 7.75088
vt 137.69415 3.37954
vt 137.68631 7.75088
vt 137.69415 7.75088
vt 137.68631 3.37954
vt 137.67188 3.37954
vt 137.67188 7.75088
vt 137.68631 3.37954
vt 137.67188 7.75088
vt 137.68631 7.75088
vt 137.67188 3.37954
vt 137.65744 3.37954
vt 137.65744 7.75088
vt 137.67188 3.37954
vt 137.65744 7.75088
vt 137.67188 7.75088
vt 137.65744 3.37954
vt 137.64301 3.37954
vt 137.64301 7.75088
vt 137.65744 3.37954
vt 137.64301 7.75088
vt 137.65744 7.75088
vt 137.64301 3.37954
vt 137.62858 3.37954
vt 137.62858 7.75088
vt 137.64301 3.37954
vt 137.62858 7.75088
vt 137.64301 7.75088
vt 137.62858 3.37954
vt 137.61415 3.37954
vt 137.61415 7.75088
vt 137.62858 3.37954
vt 137.61415 7.75088
vt 137.62858 7.75088
vt 137.61415 3.37954
vt 137.59972 3.37954
vt 137.59972 7.75088
vt 137.61415 3.37954
vt 137.59972 7.75088
vt 137.61415 7.75088
vt 137.59972 3.37954
vt 137.58528 3.37954
vt 137.58528 7.75088
vt 137.59972 3.37954
vt 137.58528 7.75088
vt 137.59972 7.75088
vt 137.58528 3.37954
vt 137.57085 3.37954
vt 137.57085 7.75088
vt 137.58528 3.37954
vt 137.57085 7.75088
vt 137.58528 7.75088
vt 137.57085 3.37954
vt 137.55642 3.37954
vt 137.55642 7.75088
vt 137.57085 3.37954
vt 137.55642 7.75088
vt 137.57085 7.75088
vt 137.55642 3.37954
vt 137.54199 3.37954
vt 137.54199 7.75088
vt 137.55642 3.37954
vt 137.54199 7.75088
vt 137.55642 7.75088
vt 137.54199 3.37954
vt 137.52756 3.37954
vt 137.52756 7.75088
vt 137.54199 3.37954
vt 137.52756 7.75088
vt 137.54199 7.75088
vt 137.52756 3.37954
vt 137.51312 3.37954
vt 137.51312 7.75088
vt 137.52756 3.37954
vt 137.51312 7.75088
vt 137.52756 7.75088
vt 137.51312 3.37954
vt 137.49742 3.37954
vt 137.49742 7.75088
vt 137.51312 3.37954
vt 137.49742 7.75088
vt 137.51312 7.75088
vt 137.49742 3.37954
vt 137.48828 3.37954
vt 137.48828 7.75088
vt 137.49742 3.37954
vt 137.48828 7.75088
vt 137.49742 7.75088
vt 137.48828 3.37954
vt 137.48695 3.37954
vt 137.48695 7.75088
vt 137.48828 3.37954
vt 137.48695 7.75088
vt 137.48828 7.75088
vt 137.48695 3.37954
vt 137.48450 3.37954
vt 137.48450 7.75088
vt 137.48695 3.37954
vt 137.48450 7.75088
vt 137.48695 7.75088
vt 137.48450 3.37954
vt 137.48328 3.37954
vt 137.48328 7.75088
vt 137.48450 3.37954
vt 137.48328 7.75088
vt 137.48450 7.75088
vt 137.48328 3.37954
vt 137.48205 3.37954
vt 137.48205 7.75088
vt 137.48328 3.37954
vt 137.48205 7.75088
vt 137.48328 7.75088
vt 137.48205 3.37954
vt 137.48082 3.37954
vt 137.48082 7.75088
vt 137.48205 3.37954
vt 137.48082 7.75088
vt 137.48205 7.75088
vt 137.48082 3.37954
vt 137.47960 3.37954
vt 137.47960 7.75088
vt 137.48082 3.37954
vt 137.47960 7.75088
vt 137.48082 7.75088
vt 137.47960 3.37954
vt 137.47837 3.37954
vt 137.47837 7.75088
vt 137.47960 3.37954
vt 137.47837 7.75088
vt 137.47960 7.75088
vt 137.47837 3.37954
vt 137.47715 3.37954
vt 137.47715 7.75088
vt 137.47837 3.37954
vt 137.47715 7.75088
vt 137.47837 7.75088
vt 137.47715 3.37954
vt 137.47592 3.37954
vt 137.47592 7.75088
vt 137.47715 3.37954
vt 137.47592 7.75088
vt 137.47715 7.75088
vt 137.47592 3.37954
vt 137.47470 3.37954
vt 137.47470 7.75088
vt 137.47592 3.37954
vt 137.47470 7.75088
vt 137.47592 7.75088
vt 137.47470 3.37954
vt 137.47347 3.37954
vt 137.47347 7.75088
vt 137.47470 3.37954
vt 137.47347 7.75088
vt 137.47470 7.75088
vt 137.47347 3.37954
vt 137.47225 3.37954
vt 137.47225 7.75088
vt 137.47347 3.37954
vt 137.47225 7.75088
vt 137.47347 7.75088
vt 137.47225 3.37954
vt 137.47102 3.37954
vt 137.47102 7.75088
vt 137.47225 3.37954
vt 137.47102 7.75088
vt 137.47225 7.75088
vt 137.47102 3.37954
vt 137.46980 3.37954
vt 137.46980 7.75088
vt 137.47102 3.37954
vt 137.46980 7.75088
vt 137.47102 7.75088
vt 137.46980 3.37954
vt 137.46857 3.37954
vt 137.46857 7.75088
vt 137.46980 3.37954
vt 137.46857 7.75088
vt 137.46980 7.75088
vt 137.46857 3.37954
vt 137.46735 3.37954
vt 137.46735 7.75088
vt 137.46857 3.37954
vt 137.46735 7.75088
vt 137.46857 7.75088
vt 137.46735 3.37954
vt 137.46612 3.37954
vt 137.46612 7.75088
vt 137.46735 3.37954
vt 137.46612 7.75088
vt 137.46735 7.75088
vt 137.46612 3.37954
vt 137.46485 3.37954
vt 137.46485 7.75088
vt 137.46612 3.37954
vt 137.46485 7.75088
vt 137.46612 7.75088
vt 137.46485 3.37954
vt 137.46659 3.37954
vt 137.46659 7.75088
vt 137.46485 3.37954
vt 137.46659 7.75088
vt 137.46485 7.75088
vt 137.46659 3.37954
vt 137.47874 3.37954
vt 137.47874 7.75088
vt 137.46659 3.37954
vt 137.47874 7.75088
vt 137.46659 7.75088
vt 137.47874 3.37954
vt 137.48956 3.37954
vt 137.48956 7.75088
vt 137.47874 3.37954
vt 137.48956 7.75088
vt 137.47874 7.75088
vt 137.48956 3.37954
vt 137.52202 3.37954
vt 137.52202 7.75088
vt 137.48956 3.37954
vt 137.52202 7.75088
vt 137.48956 7.75088
vt 137.52202 3.37954
vt 137.53283 3.37954
vt 137.53283 7.75088
vt 137.52202 3.37954
vt 137.53283 7.75088
vt 137.52202 7.75088
vt 137.53283 3.37954
vt 137.56529 3.37954
vt 137.56529 7.75088
vt 137.53283 3.37954
vt 137.56529 7.75088
vt 137.53283 7.75088
vt 137.56529 3.37954
vt 137.57611 3.37954
vt 137.57611 7.75088
vt 137.56529 3.37954
vt 137.57611 7.75088
vt 137.56529 7.75088
vt 137.57611 3.37954
vt 137.60857 3.37954
vt 137.60857 7.75088
vt 137.57611 3.37954
vt 137.60857 7.75088
vt 137.57611 7.75088
vt 137.60857 3.37954
vt 137.61939 3.37954
vt 137.61939 7.75088
vt 137.60857 3.37954
vt 137.61939 7.75088
vt 137.60857 7.75088
vt 137.61939 3.37954
vt 137.63021 3.37954
vt 137.63021 7.75088
vt 137.61939 3.37954
vt 137.63021 7.75088
vt 137.61939 7.75088
vt 137.63021 3.37954
vt 137.64102 3.37954
vt 137.64102 7.75088
vt 137.63021 3.37954
vt 137.64102 7.75088
vt 137.63021 7.75088
vt 137.64102 3.37954
vt 137.65184 3.37954
vt 137.65184 7.75088
vt 137.64102 3.37954
vt 137.65184 7.75088
vt 137.64102 7.75088
vt 137.65184 3.37954
vt 137.66266 3.37954
vt 137.66266 7.75088
vt 137.65184 3.37954
vt 137.66266 7.75088
vt 137.65184 7.75088
vt 137.66266 3.37954
vt 137.68430 3.37954
vt 137.68430 7.75088
vt 137.66266 3.37954
vt 137.68430 7.75088
vt 137.66266 7.75088
vt 137.68430 3.37954
vt 137.69512 3.37954
vt 137.69512 7.75088
vt 137.68430 3.37954
vt 137.69512 7.75088
vt 137.68430 7.75088
vt 137.69512 3.37954
vt 137.72905 3.37954
vt 137.72905 7.75088
vt 137.69512 3.37954
vt 137.72905 7.75088
vt 137.69512 7.75088
vt 137.72905 3.37954
vt 137.75373 3.37954
vt 137.75373 7.75088
vt 137.72905 3.37954
vt 137.75373 7.75088
vt 137.72905 7.75088
vt 137.75373 3.37954
vt 137.77799 3.37954
vt 137.77799 7.75088
vt 137.75373 3.37954
vt 137.77799 7.75088
vt 137.75373 7.75088
vt 137.77799 3.37954
vt 137.80150 3.37954
vt 137.80150 7.75088
vt 137.77799 3.37954
vt 137.80150 7.75088
vt 137.77799 7.75088
vt 137.80150 3.37954
vt 137.82501 3.37954
vt 137.82501 7.75088
vt 137.80150 3.37954
vt 137.82501 7.75088
vt 137.80150 7.75088
vt 137.82501 3.37954
vt 137.84853 3.37954
vt 137.84853 7.75088
vt 137.82501 3.37954
vt 137.84853 7.75088
vt 137.82501 7.75088
vt 137.84853 3.37954
vt 137.86592 3.37954
vt 137.86592 7.75088
vt 137.84853 3.37954
vt 137.86592 7.75088
vt 137.84853 7.75088
vt 137.86592 3.37954
vt 135.87256 3.37954
vt 135.87256 7.75088
vt 137.86592 3.37954
vt 135.87256 7.75088
vt 137.86592 7.75088
vt 135.87256 3.37954
vt 135.95795 3.37954
vt 135.95795 7.75088
vt 135.87256 3.37954
vt 135.95795 7.75088
vt 135.87256 7.75088
vt 135.95795 3.37954
vt 134.61884 3.37954
vt 134.61884 7.75088
vt 135.95795 3.37954
vt 134.61884 7.75088
vt 135.95795 7.75088
vt 134.61884 3.37954
vt 133.77555 3.37954
vt 133.77555 7.75088
vt 134.61884 3.37954
vt 133.77555 7.75088
vt 134.61884 7.75088
vt 133.77555 3.37954
vt 133.77073 3.37954
vt 133.77073 7.75088
vt 133.77555 3.37954
vt 133.77073 7.75088
vt 133.77555 7.75088
vt 133.77073 3.37954
vt 126.86744 3.37954
vt 126.86744 7.75088
vt 133.77073 3.37954
vt 126.86744 7.75088
vt 133.77073 7.75088
vt 126.86744 3.37954
vt 129.90120 3.37954
vt 129.90120 7.75088
vt 126.86744 3.37954
vt 129.90120 7.75088
vt 126.86744 7.75088
vt 134.19407 2.68724
vt 134.60587 2.68724
vt 134.60587 6.77210
vt 134.19407 2.68724
vt 134.60587 6.77210
vt 134.19407 6.77210
vt 134.60587 2.68724
vt 136.07242 2.68724
vt 136.07242 6.77210
vt 134.60587 2.68724
vt 136.07242 6.77210
vt 134.60587 6.77210
vt 136.07242 2.68724
vt 143.52293 2.68724
vt 143.52293 6.77210
vt 136.07242 2.68724
vt 143.52293 6.77210
vt 136.07242 6.77210
vt 143.52293 2.68724
vt 143.51529 2.68724
vt 143.51529 6.77210
vt 143.52293 2.68724
vt 143.51529 6.77210
vt 143.52293 6.77210
vt 143.51529 2.68724
vt 143.42134 2.68724
vt 143.42134 6.77210
vt 143.51529 2.68724
vt 143.42134 6.77210
vt 143.51529 6.77210
vt 143.42134 2.68724
vt 143.32853 2.68724
vt 143.32853 6.77210
vt 143.42134 2.68724
vt 143.32853 6.77210
vt 143.42134 6.77210
vt 143.32853 2.68724
vt 143.23572 2.68724
vt 143.23572 6.77210
vt 143.32853 2.68724
vt 143.23572 6.77210
vt 143.32853 6.77210
vt 143.23572 2.68724
vt 143.14291 2.68724
vt 143.14291 6.77210
vt 143.23572 2.68724
vt 143.14291 6.77210
vt 143.23572 6.77210
vt 143.14291 2.68724
vt 143.05010 2.68724
vt 143.05010 6.77210
vt 143.14291 2.68724
vt 143.05010 6.77210
vt 143.14291 6.77210
vt 143.05010 2.68724
vt 142.86448 2.68724
vt 142.86448 6.77210
vt 143.05010 2.68724
vt 142.86448 6.77210
vt 143.05010 6.77210
vt 142.86448 2.68724
vt 142.77166 2.68724
vt 142.77166 6.77210
vt 142.86448 2.68724
vt 142.77166 6.77210
vt 142.86448 6.77210
vt 142.77166 2.68724
vt 142.67885 2.68724
vt 142.67885 6.77210
vt 142.77166 2.68724
vt 142.67885 6.77210
vt 142.77166 6.77210
vt 142.67885 2.68724
vt 142.58604 2.68724
vt 142.58604 6.77210
vt 142.67885 2.68724
vt 142.58604 6.77210
vt 142.67885 6.77210
vt 142.58604 2.68724
vt 142.49323 2.68724
vt 142.49323 6.77210
vt 142.58604 2.68724
vt 142.49323 6.77210
vt 142.58604 6.77210
vt 142.49323 2.68724
vt 142.40042 2.68724
vt 142.40042 6.77210
vt 142.49323 2.68724
vt 142.40042 6.77210
vt 142.49323 6.77210
vt 142.40042 2.68724
vt 142.30761 2.68724
vt 142.30761 6.77210
vt 142.40042 2.68724
vt 142.30761 6.77210
vt 142.40042 6.77210
vt 142.30761 2.68724
vt 142.21480 2.68724
vt 142.21480 6.77210
vt 142.30761 2.68724
vt 142.21480 6.77210
vt 142.30761 6.77210
vt 142.21480 2.68724
vt 142.17893 2.68724
vt 142.17893 6.77210
vt 142.21480 2.68724
vt 142.17893 6.77210
vt 142.21480 6.77210
vt 142.17893 2.68724
vt 134.19407 2.68724
vt 134.19407 6.77210
vt 142.17893 2.68724
vt 134.19407 6.77210
vt 142.17893 6.77210
vt 125.12213 3.93819
vt 125.29243 3.93819
vt 125.29243 5.85120
vt 125.12213 3.93819
vt 125.29243 5.85120
vt 125.12213 5.85120
vt 125.29243 3.93819
vt 129.08733 3.93819
vt 129.08733 5.85120
vt 125.29243 3.93819
vt 129.08733 5.85120
vt 125.29243 5.85120
vt 129.08733 3.93819
vt 128.91857 3.93819
vt 128.91857 5.85120
vt 129.08733 3.93819
vt 128.91857 5.85120
vt 129.08733 5.85120
vt 128.91857 3.93819
vt 125.12213 3.93819
vt 125.12213 5.85120
vt 128.91857 3.93819
vt 125.12213 5.85120
vt 128.91857 5.85120
vt 130.79488 3.41870
vt 131.44915 3.41870
vt 131.44915 9.16986
vt 130.79488 3.41870
vt 131.44915 9.16986
vt 130.79488 9.16986
vt 131.44915 3.41870
vt 137.91703 3.41870
vt 137.91703 9.16986
vt 131.44915 3.41870
vt 137.91703 9.16986
vt 131.44915 9.16986
vt 137.91703 3.41870
vt 137.18915 3.41870
vt 137.18915 9.16986
vt 137.91703 3.41870
vt 137.18915 9.16986
vt 137.91703 9.16986
vt 137.18915 3.41870
vt 130.79488 3.41870
vt 130.79488 9.16986
vt 137.18915 3.41870
vt 130.79488 9.16986
vt 137.18915 9.16986
vt 124.69594 4.10785
vt 120.18091 4.10785
vt 120.18091 8.51936
vt 124.69594 4.10785
vt 120.18091 8.51936
vt 124.69594 8.51936
vt 120.18091 4.10785
vt 120.39751 4.10785
vt 120.39751 8.51936
vt 120.18091 4.10785
vt 120.39751 8.51936
vt 120.18091 8.51936
vt 120.39751 4.10785
vt 120.72451 4.10785
vt 120.72451 8.51936
vt 120.39751 4.10785
vt 120.72451 8.51936
vt 120.39751 8.51936
vt 120.72451 4.10785
vt 120.91669 4.10785
vt 120.91669 8.51936
vt 120.72451 4.10785
vt 120.91669 8.51936
vt 120.72451 8.51936
vt 120.91669 4.10785
vt 116.76029 4.10785
vt 116.76029 8.51936
vt 120.91669 4.10785
vt 116.76029 8.51936
vt 120.91669 8.51936
vt 116.76029 4.10785
vt 117.33453 4.10785
vt 117.33453 8.51936
vt 116.76029 4.10785
vt 117.33453 8.51936
vt 116.76029 8.51936
vt 117.33453 4.10785
vt 118.57199 4.10785
vt 118.57199 8.51936
vt 117.33453 4.10785
vt 118.57199 8.51936
vt 117.33453 8.51936
vt 118.57199 4.10785
vt 118.91274 4.10785
vt 118.91274 8.51936
vt 118.57199 4.10785
vt 118.91274 8.51936
vt 118.57199 8.51936
vt 118.91274 4.10785
vt 117.44770 4.10785
vt 117.44770 8.51936
vt 118.91274 4.10785
vt 117.44770 8.51936
vt 118.91274 8.51936
vt 117.44770 4.10785
vt 117.89819 4.10785
vt 117.89819 8.51936
vt 117.44770 4.10785
vt 117.89819 8.51936
vt 117.44770 8.51936
vt 117.89819 4.10785
vt 119.24560 4.10785
vt 119.24560 8.51936
vt 117.89819 4.10785
vt 119.24560 8.51936
vt 117.89819 8.51936
vt 119.24560 4.10785
vt 119.39503 4.10785
vt 119.39503 8.51936
vt 119.24560 4.10785
vt 119.39503 8.51936
vt 119.24560 8.51936
vt 119.39503 4.10785
vt 119.92481 4.10785
vt 119.92481 8.51936
vt 119.39503 4.10785
vt 119.92481 8.51936
vt 119.39503 8.51936
vt 119.92481 4.10785
vt 120.15710 4.10785
vt 120.15710 8.51936
vt 119.92481 4.10785
vt 120.15710 8.51936
vt 119.92481 8.51936
vt 120.15710 4.10785
vt 120.40027 4.10785
vt 120.40027 8.51936
vt 120.15710 4.10785
vt 120.40027 8.51936
vt 120.15710 8.51936
vt 120.40027 4.10785
vt 120.90027 4.10785
vt 120.90027 8.51936
vt 120.40027 4.10785
vt 120.90027 8.51936
vt 120.40027 8.51936
vt 120.90027 4.10785
vt 121.15027 4.10785
vt 121.15027 8.51936
vt 120.90027 4.10785
vt 121.15027 8.51936
vt 120.90027 8.51936
vt 121.15027 4.10785
vt 121.40027 4.10785
vt 121.40027 8.51936
vt 121.15027 4.10785
vt 121.40027 8.51936
vt 121.15027 8.51936
vt 121.40027 4.10785
vt 121.65142 4.10785
vt 121.65142 8.51936
vt 121.40027 4.10785
vt 121.65142 8.51936
vt 121.40027 8.51936
vt 121.65142 4.10785
vt 121.90678 4.10785
vt 121.90678 8.51936
vt 121.65142 4.10785
vt 121.90678 8.51936
vt 121.65142 8.51936
vt 121.90678 4.10785
vt 122.16098 4.10785
vt 122.16098 8.51936
vt 121.90678 4.10785
vt 122.16098 8.51936
vt 121.90678 8.51936
vt 122.16098 4.10785
vt 122.91097 4.10785
vt 122.91097 8.51936
vt 122.16098 4.10785
vt 122.91097 8.51936
vt 122.16098 8.51936
vt 122.91097 4.10785
vt 123.16097 4.10785
vt 123.16097 8.51936
vt 122.91097 4.10785
vt 123.16097 8.51936
vt 122.91097 8.51936
vt 123.16097 4.10785
vt 123.41097 4.10785
vt 123.41097 8.51936
vt 123.16097 4.10785
vt 123.41097 8.51936
vt 123.16097 8.51936
vt 123.41097 4.10785
vt 123.66097 4.10785
vt 123.66097 8.51936
vt 123.41097 4.10785
vt 123.66097 8.51936
vt 123.41097 8.51936
vt 123.66097 4.10785
vt 124.16096 4.10785
vt 124.16096 8.51936
vt 123.66097 4.10785
vt 124.16096 8.51936
vt 123.66097 8.51936
vt 124.16096 4.10785
vt 124.41096 4.10785
vt 124.41096 8.51936
vt 124.16096 4.10785
vt 124.41096 8.51936
vt 124.16096 8.51936
vt 124.41096 4.10785
vt 125.16095 4.10785
vt 125.16095 8.51936
vt 124.41096 4.10785
vt 125.16095 8.51936
vt 124.41096 8.51936
vt 125.16095 4.10785
vt 125.41095 4.10785
vt 125.41095 8.51936
vt 125.16095 4.10785
vt 125.41095 8.51936
vt 125.16095 8.51936
vt 125.41095 4.10785
vt 125.66095 4.10785
vt 125.66095 8.51936
vt 125.41095 4.10785
vt 125.66095 8.51936
vt 125.41095 8.51936
vt 125.66095 4.10785
vt 125.91097 4.10785
vt 125.91097 8.51936
vt 125.66095 4.10785
vt 125.91097 8.51936
vt 125.66095 8.51936
vt 125.91097 4.10785
vt 126.16148 4.10785
vt 126.16148 8.51936
vt 125.91097 4.10785
vt 126.16148 8.51936
vt 125.91097 8.51936
vt 126.16148 4.10785
vt 126.41147 4.10785
vt 126.41147 8.51936
vt 126.16148 4.10785
vt 126.41147 8.51936
vt 126.16148 8.51936
vt 126.41147 4.10785
vt 126.66147 4.10785
vt 126.66147 8.51936
vt 126.41147 4.10785
vt 126.66147 8.51936
vt 126.41147 8.51936
vt 126.66147 4.10785
vt 126.91147 4.10785
vt 126.91147 8.51936
vt 126.66147 4.10785
vt 126.91147 8.51936
vt 126.66147 8.51936
vt 126.91147 4.10785
vt 127.00974 4.10785
vt 127.00974 8.51936
vt 126.91147 4.10785
vt 127.00974 8.51936
vt 126.91147 8.51936
vt 127.00974 4.10785
vt 126.27677 4.10785
vt 126.27677 8.51936
vt 127.00974 4.10785
vt 126.27677 8.51936
vt 127.00974 8.51936
vt 126.27677 4.10785
vt 125.55764 4.10785
vt 125.55764 8.51936
vt 126.27677 4.10785
vt 125.55764 8.51936
vt 126.27677 8.51936
vt 125.55764 4.10785
vt 124.77888 4.10785
vt 124.77888 8.51936
vt 125.55764 4.10785
vt 124.77888 8.51936
vt 125.55764 8.51936
vt 124.77888 4.10785
vt 125.54952 4.10785
vt 125.54952 8.51936
vt 124.77888 4.10785
vt 125.54952 8.51936
vt 124.77888 8.51936
vt 125.54952 4.10785
vt 124.69594 4.10785
vt 124.69594 8.51936
vt 125.54952 4.10785
vt 124.69594 8.51936
vt 125.54952 8.51936
f 3/3 2/2 1/1
f 6/6 5/5 4/4
f 9/9 8/8 7/7
f 12/12 11/11 10/10
f 15/15 14/14 13/13
f 18/18 17/17 16/16
f 21/21 20/20 19/19
f 24/24 23/23 22/22
f 27/27 26/26 25/25
f 30/30 29/29 28/28
f 33/33 32/32 31/31
f 36/36 35/35 34/34
f 39/39 38/38 37/37
f 42/42 41/41 40/40
f 45/45 44/44 43/43
f 48/48 47/47 46/46
f 51/51 50/50 49/49
f 54/54 53/53 52/52
f 57/57 56/56 55/55
f 60/60 59/59 58/58
f 63/63 62/62 61/61
f 66/66 65/65 64/64
f 69/69 68/68 67/67
f 72/72 71/71 70/70
f 75/75 74/74 73/73
f 78/78 77/77 76/76
f 81/81 80/80 79/79
f 84/84 83/83 82/82
f 87/87 86/86 85/85
f 90/90 89/89 88/88
f 93/93 92/92 91/91
f 96/96 95/95 94/94
f 99/99 98/98 97/97
f 102/102 101/101 100/100
f 105/105 104/104 103/103
f 108/108 107/107 106/106
f 111/111 110/110 109/109
f 114/114 113/113 112/112
f 117/117 116/116 115/115
f 120/120 119/119 118/118
f 123/123 122/122 121/121
f 126/126 125/125 124/124
f 129/129 128/128 127/127
f 132/132 131/131 130/130
f 135/135 134/134 133/133
f 138/138 137/137 136/136
f 141/141 140/140 139/139
f 144/144 143/143 142/142
f 147/147 146/146 145/145
f 150/150 149/149 148/148
f 153/153 152/152 151/151
f 156/156 155/155 154/154
f 159/159 158/158 157/157
f 162/162 161/161 160/160
f 165/165 164/164 163/163
f 168/168 167/167 166/166
f 171/171 170/170 169/169
f 174/174 173/173 172/172
f 177/177 176/176 175/175
f 180/180 179/179 178/178
f 183/183 182/182 181/181
f 186/186 185/185 184/184
f 189/189 188/188 187/187
f 192/192 191/191 190/190
f 195/195 194/194 193/193
f 198/198 197/197 196/196
f 201/201 200/200 199/199
f 204/204 203/203 202/202
f 207/207 206/206 205/205
f 210/210 209/209 208/208
f 213/213 212/212 211/211
f 216/216 215/215 214/214
f 219/219 218/218 217/217
f 222/222 221/221 220/220
f 225/225 224/224 223/223
f 228/228 227/227 226/226
f 231/231 230/230 229/229
f 234/234 233/233 232/232
f 237/237 236/236 235/235
f 240/240 239/239 238/238
f 243/243 242/242 241/241
f 246/246 245/245 244/244
f 249/249 248/248 247/247
f 252/252 251/251 250/250
f 255/255 254/254 253/253
f 258/258 257/257 256/256
f 261/261 260/260 259/259
f 264/264 263/263 262/262
f 267/267 266/266 265/265
f 270/270 269/269 268/268
f 273/273 272/272 271/271
f 276/276 275/275 274/274
f 279/279 278/278 277/277
f 282/282 281/281 280/280
f 285/285 284/284 283/283
f 288/288 287/287 286/286
f 291/291 290/290 289/289
f 294/294 293/293 292/292
f 297/297 296/296 295/295
f 300/300 299/299 298/298
f 303/303 302/302 301/301
f 306/306 305/305 304/304
f 309/309 308/308 307/307
f 312/312 311/311 310/310
f 315/315 314/314 313/313
f 318/318 317/317 316/316
f 321/321 320/320 319/319
f 324/324 323/323 322/322
f 327/327 326/326 325/325
f 330/330 329/329 328/328
f 333/333 332/332 331/331
f 336/336 335/335 334/334
f 339/339 338/338 337/337
f 342/342 341/341 340/340
f 345/345 344/344 343/343
f 348/348 347/347 346/346
f 351/351 350/350 349/349
f 354/354 353/353 352/352
f 357/357 356/356 355/355
f 360/360 359/359 358/358
f 363/363 362/362 361/361
f 366/366 365/365 364/364
f 369/369 368/368 367/367
f 372/372 371/371 370/370
f 375/375 374/374 373/373
f 378/378 377/377 376/376
f 381/381 380/380 379/379
f 384/384 383/383 382/382
f 387/387 386/386 385/385
f 390/390 389/389 388/388
f 393/393 392/392 391/391
f 396/396 395/395 394/394
f 399/399 398/398 397/397
f 402/402 401/401 400/400
f 405/405 404/404 403/403
f 408/408 407/407 406/406
f 411/411 410/410 409/409
f 414/414 413/413 412/412
f 417/417 416/416 415/415
f 420/420 419/419 418/418
f 423/423 422/422 421/421
f 426/426 425/425 424/424
f 429/429 428/428 427/427
f 432/432 431/431 430/430
f 435/435 434/434 433/433
f 438/438 437/437 436/436
f 441/441 440/440 439/439
f 444/444 443/443 442/442
f 447/447 446/446 445/445
f 450/450 449/449 448/448
f 453/453 452/452 451/451
f 456/456 455/455 454/454
f 459/459 458/458 457/457
f 462/462 461/461 460/460
f 465/465 464/464 463/463
f 468/468 467/467 466/466
f 471/471 470/470 469/469
f 474/474 473/473 472/472
f 477/477 476/476 475/475
f 480/480 479/479 478/478
f 483/483 482/482 481/481
f 486/486 485/485 484/484
f 489/489 488/488 487/487
f 492/492 491/491 490/490
f 495/495 494/494 493/493
f 498/498 497/497 496/496
f 501/501 500/500 499/499
f 504/504 503/503 502/502
f 507/507 506/506 505/505
f 510/510 509/509 508/508
f 513/513 512/512 511/511
f 516/516 515/515 514/514
f 519/519 518/518 517/517
f 522/522 521/521 520/520
f 525/525 524/524 523/523
f 528/528 527/527 526/526
f 531/531 530/530 529/529
f 534/534 533/533 532/532
f 537/537 536/536 535/535
f 540/540 539/539 538/538
f 543/543 542/542 541/541
f 546/546 545/545 544/544
f 549/549 548/548 547/547
f 552/552 551/551 550/550
f 555/555 554/554 553/553
f 558/558 557/557 556/556
f 561/561 560/560 559/559
f 564/564 563/563 562/562
f 567/567 566/566 565/565
f 570/570 569/569 568/568
f 573/573 572/572 571/571
f 576/576 575/575 574/574
f 579/579 578/578 577/577
f 582/582 581/581 580/580
f 585/585 584/584 583/583
f 588/588 587/587 586/586
f 591/591 590/590 589/589
f 594/594 593/593 592/592
f 597/597 596/596 595/595
f 600/600 599/599 598/598
f 603/603 602/602 601/601
f 606/606 605/605 604/604
f 609/609 608/608 607/607
f 612/612 611/611 610/610
f 615/615 614/614 613/613
f 618/618 617/617 616/616
f 621/621 620/620 619/619
f 624/624 623/623 622/622
f 627/627 626/626 625/625
f 630/630 629/629 628/628
f 633/633 632/632 631/631
f 636/636 635/635 634/634
f 639/639 638/638 637/637
f 642/642 641/641 640/640
f 645/645 644/644 643/643
f 648/648 647/647 646/646
f 651/651 650/650 649/649
f 654/654 653/653 652/652
f 657/657 656/656 655/655
f 660/660 659/659 658/658
f 663/663 662/662 661/661
f 666/666 665/665 664/664
f 669/669 668/668 667/667
f 672/672 671/671 670/670
f 675/675 674/674 673/673
f 678/678 677/677 676/676
f 681/681 680/680 679/679
f 684/684 683/683 682/682
f 687/687 686/686 685/685
f 690/690 689/689 688/688
f 693/693 692/692 691/691
f 696/696 695/695 694/694
f 699/699 698/698 697/697
f 702/702 701/701 700/700
f 705/705 704/704 703/703
f 708/708 707/707 706/706
f 711/711 710/710 709/709
f 714/714 713/713 712/712
f 717/717 716/716 715/715
f 720/720 719/719 718/718
f 723/723 722/722 721/721
f 726/726 725/725 724/724
f 729/729 728/728 727/727
f 732/732 731/731 730/730
f 735/735 734/734 733/733
f 738/738 737/737 736/736
f 741/741 740/740 739/739
f 744/744 743/743 742/742
f 747/747 746/746 745/745
f 750/750 749/749 748/748
f 753/753 752/752 751/751
f 756/756 755/755 754/754
f 759/759 758/758 757/757
f 762/762 761/761 760/760
f 765/765 764/764 763/763
f 768/768 767/767 766/766
f 771/771 770/770 769/769
f 774/774 773/773 772/772
f 777/777 776/776 775/775
f 780/780 779/779 778/778
f 783/783 782/782 781/781
f 786/786 785/785 784/784
f 789/789 788/788 787/787
f 792/792 791/791 790/790
f 795/795 794/794 793/793
f 798/798 797/797 796/796
f 801/801 800/800 799/799
f 804/804 803/803 802/802
f 807/807 806/806 805/805
f 810/810 809/809 808/808
f 813/813 812/812 811/811
f 816/816 815/815 814/814
f 819/819 818/818 817/817
f 822/822 821/821 820/820
f 825/825 824/824 823/823
f 828/828 827/827 826/826
f 831/831 830/830 829/829
f 834/834 833/833 832/832
f 837/837 836/836 835/835
f 840/840 839/839 838/838
f 843/843 842/842 841/841
f 846/846 845/845 844/844
f 849/849 848/848 847/847
f 852/852 851/851 850/850
f 855/855 854/854 853/853
f 858/858 857/857 856/856
f 861/861 860/860 859/859
f 864/864 863/863 862/862
f 867/867 866/866 865/865
f 870/870 869/869 868/868
f 873/873 872/872 871/871
f 876/876 875/875 874/874
f 879/879 878/878 877/877
f 882/882 881/881 880/880
f 885/885 884/884 883/883
f 888/888 887/887 886/886
f 891/891 890/890 889/889
f 894/894 893/893 892/892
f 897/897 896/896 895/895
f 900/900 899/899 898/898
f 903/903 902/902 901/901
f 906/906 905/905 904/904
f 909/909 908/908 907/907
f 912/912 911/911 910/910
f 915/915 914/914 913/913
f 918/918 917/917 916/916
f 921/921 920/920 919/919
f 924/924 923/923 922/922
f 927/927 926/926 925/925
f 930/930 929/929 928/928
f 933/933 932/932 931/931
f 936/936 935/935 934/934
f 939/939 938/938 937/937
f 942/942 941/941 940/940
f 945/945 944/944 943/943
f 948/948 947/947 946/946
f 951/951 950/950 949/949
f 954/954 953/953 952/952
f 957/957 956/956 955/955
f 960/960 959/959 958/958
f 963/963 962/962 961/961
f 966/966 965/965 964/964
f 969/969 968/968 967/967
f 972/972 971/971 970/970
f 975/975 974/974 973/973
f 978/978 977/977 976/976
f 981/981 980/980 979/979
f 984/984 983/983 982/982
f 987/987 986/986 985/985
f 990/990 989/989 988/988
f 993/993 992/992 991/991
f 996/996 995/995 994/994
f 999/999 998/998 997/997
f 1002/1002 1001/1001 1000/1000
f 1005/1005 1004/1004 1003/1003
f 1008/1008 1007/1007 1006/1006
f 1011/1011 1010/1010 1009/1009
f 1014/1014 1013/1013 1012/1012
f 1017/1017 1016/1016 1015/1015
f 1020/1020 1019/1019 1018/1018
f 1023/1023 1022/1022 1021/1021
f 1026/1026 1025/1025 1024/1024
f 1029/1029 1028/1028 1027/1027
f 1032/1032 1031/1031 1030/1030
f 1035/1035 1034/1034 1033/1033
f 1038/1038 1037/1037 1036/1036
f 1041/1041 1040/1040 1039/1039
f 1044/1044 1043/1043 1042/1042
f 1047/1047 1046/1046 1045/1045
f 1050/1050 1049/1049 1048/1048
